%TF.GenerationSoftware,KiCad,Pcbnew,7.0.8*%
%TF.CreationDate,2024-05-09T20:38:50-03:00*%
%TF.ProjectId,lamp_module_x2,6c616d70-5f6d-46f6-9475-6c655f78322e,1.1*%
%TF.SameCoordinates,Original*%
%TF.FileFunction,Drillmap*%
%TF.FilePolarity,Positive*%
%FSLAX45Y45*%
G04 Gerber Fmt 4.5, Leading zero omitted, Abs format (unit mm)*
G04 Created by KiCad (PCBNEW 7.0.8) date 2024-05-09 20:38:50*
%MOMM*%
%LPD*%
G01*
G04 APERTURE LIST*
%ADD10C,0.200000*%
%ADD11C,0.040000*%
%ADD12C,0.090000*%
%ADD13C,0.100000*%
%ADD14C,0.120000*%
%ADD15C,0.130000*%
G04 APERTURE END LIST*
D10*
X11684000Y-5091815D02*
G75*
G03*
X11384000Y-5391815I-8J-299992D01*
G01*
X17684000Y-5391810D02*
G75*
G03*
X17384000Y-5091810I-299992J8D01*
G01*
X11384000Y-11091815D02*
G75*
G03*
X11684000Y-11391815I299992J-8D01*
G01*
X11684000Y-5091810D02*
X17384000Y-5091810D01*
X11384000Y-11091815D02*
X11384000Y-5391815D01*
X11684000Y-11391815D02*
X17384000Y-11391815D01*
X17684000Y-5391810D02*
X17684000Y-11091815D01*
X17384000Y-11391820D02*
G75*
G03*
X17684000Y-11091815I0J300000D01*
G01*
D11*
X11803700Y-5893730D02*
X11843700Y-5933730D01*
X11843700Y-5893730D02*
X11803700Y-5933730D01*
X11841800Y-6773130D02*
X11881800Y-6813130D01*
X11881800Y-6773130D02*
X11841800Y-6813130D01*
X12170600Y-7765100D02*
X12210600Y-7805100D01*
X12210600Y-7765100D02*
X12170600Y-7805100D01*
X12426000Y-8870000D02*
X12466000Y-8910000D01*
X12466000Y-8870000D02*
X12426000Y-8910000D01*
X12426000Y-9124000D02*
X12466000Y-9164000D01*
X12466000Y-9124000D02*
X12426000Y-9164000D01*
X12526100Y-9798585D02*
X12566100Y-9838585D01*
X12566100Y-9798585D02*
X12526100Y-9838585D01*
X12526100Y-9944785D02*
X12566100Y-9984785D01*
X12566100Y-9944785D02*
X12526100Y-9984785D01*
X12526100Y-10344785D02*
X12566100Y-10384785D01*
X12566100Y-10344785D02*
X12526100Y-10384785D01*
X12789830Y-8522400D02*
X12829830Y-8562400D01*
X12829830Y-8522400D02*
X12789830Y-8562400D01*
X13618300Y-9944785D02*
X13658300Y-9984785D01*
X13658300Y-9944785D02*
X13618300Y-9984785D01*
X13618300Y-10144785D02*
X13658300Y-10184785D01*
X13658300Y-10144785D02*
X13618300Y-10184785D01*
X13618300Y-11144785D02*
X13658300Y-11184785D01*
X13658300Y-11144785D02*
X13618300Y-11184785D01*
X13618300Y-10344785D02*
X13658300Y-10384785D01*
X13658300Y-10344785D02*
X13618300Y-10384785D01*
X13618300Y-10544785D02*
X13658300Y-10584785D01*
X13658300Y-10544785D02*
X13618300Y-10584785D01*
X13618300Y-10744785D02*
X13658300Y-10784785D01*
X13658300Y-10744785D02*
X13618300Y-10784785D01*
X13645200Y-8870000D02*
X13685200Y-8910000D01*
X13685200Y-8870000D02*
X13645200Y-8910000D01*
X13645200Y-9124000D02*
X13685200Y-9164000D01*
X13685200Y-9124000D02*
X13645200Y-9164000D01*
X14151700Y-10038400D02*
X14191700Y-10078400D01*
X14191700Y-10038400D02*
X14151700Y-10078400D01*
X14356400Y-9124000D02*
X14396400Y-9164000D01*
X14396400Y-9124000D02*
X14356400Y-9164000D01*
X14481900Y-11029000D02*
X14521900Y-11069000D01*
X14521900Y-11029000D02*
X14481900Y-11069000D01*
X16133600Y-11029000D02*
X16173600Y-11069000D01*
X16173600Y-11029000D02*
X16133600Y-11069000D01*
D12*
X16965400Y-5896000D02*
G75*
G03*
X16965400Y-5896000I-45000J0D01*
G01*
X16965400Y-6096000D02*
G75*
G03*
X16965400Y-6096000I-45000J0D01*
G01*
X16965400Y-6296000D02*
G75*
G03*
X16965400Y-6296000I-45000J0D01*
G01*
X17465400Y-5896000D02*
G75*
G03*
X17465400Y-5896000I-45000J0D01*
G01*
X17465400Y-6096000D02*
G75*
G03*
X17465400Y-6096000I-45000J0D01*
G01*
X17465400Y-6296000D02*
G75*
G03*
X17465400Y-6296000I-45000J0D01*
G01*
D13*
X11734800Y-9195600D02*
X11734800Y-9295600D01*
X11684800Y-9245600D02*
X11784800Y-9245600D01*
X11734800Y-9449600D02*
X11734800Y-9549600D01*
X11684800Y-9499600D02*
X11784800Y-9499600D01*
X11734800Y-9703600D02*
X11734800Y-9803600D01*
X11684800Y-9753600D02*
X11784800Y-9753600D01*
X11734800Y-9957600D02*
X11734800Y-10057600D01*
X11684800Y-10007600D02*
X11784800Y-10007600D01*
X11734800Y-10211600D02*
X11734800Y-10311600D01*
X11684800Y-10261600D02*
X11784800Y-10261600D01*
X11734800Y-10465600D02*
X11734800Y-10565600D01*
X11684800Y-10515600D02*
X11784800Y-10515600D01*
X11737300Y-7874800D02*
X11737300Y-7974800D01*
X11687300Y-7924800D02*
X11787300Y-7924800D01*
X11737300Y-8128800D02*
X11737300Y-8228800D01*
X11687300Y-8178800D02*
X11787300Y-8178800D01*
X11737300Y-8382800D02*
X11737300Y-8482800D01*
X11687300Y-8432800D02*
X11787300Y-8432800D01*
X13225250Y-6643130D02*
X13225250Y-6743130D01*
X13175250Y-6693130D02*
X13275250Y-6693130D01*
X13225250Y-8183130D02*
X13225250Y-8283130D01*
X13175250Y-8233130D02*
X13275250Y-8233130D01*
X16165250Y-7163130D02*
X16165250Y-7263130D01*
X16115250Y-7213130D02*
X16215250Y-7213130D01*
X16165250Y-7663130D02*
X16165250Y-7763130D01*
X16115250Y-7713130D02*
X16215250Y-7713130D01*
D14*
X16935827Y-6755557D02*
X16935827Y-6670703D01*
X16850973Y-6670703D01*
X16850973Y-6755557D01*
X16935827Y-6755557D01*
X16935827Y-8255557D02*
X16935827Y-8170703D01*
X16850973Y-8170703D01*
X16850973Y-8255557D01*
X16935827Y-8255557D01*
D15*
X12319000Y-5877130D02*
X12384000Y-5812130D01*
X12319000Y-5747130D01*
X12254000Y-5812130D01*
X12319000Y-5877130D01*
X12827000Y-5877130D02*
X12892000Y-5812130D01*
X12827000Y-5747130D01*
X12762000Y-5812130D01*
X12827000Y-5877130D01*
X13335000Y-5877130D02*
X13400000Y-5812130D01*
X13335000Y-5747130D01*
X13270000Y-5812130D01*
X13335000Y-5877130D01*
X14071600Y-5877130D02*
X14136600Y-5812130D01*
X14071600Y-5747130D01*
X14006600Y-5812130D01*
X14071600Y-5877130D01*
X14579600Y-5877130D02*
X14644600Y-5812130D01*
X14579600Y-5747130D01*
X14514600Y-5812130D01*
X14579600Y-5877130D01*
X14613900Y-9051200D02*
X14678900Y-8986200D01*
X14613900Y-8921200D01*
X14548900Y-8986200D01*
X14613900Y-9051200D01*
X14613900Y-10271200D02*
X14678900Y-10206200D01*
X14613900Y-10141200D01*
X14548900Y-10206200D01*
X14613900Y-10271200D01*
X15087600Y-5877130D02*
X15152600Y-5812130D01*
X15087600Y-5747130D01*
X15022600Y-5812130D01*
X15087600Y-5877130D01*
X15213900Y-10471200D02*
X15278900Y-10406200D01*
X15213900Y-10341200D01*
X15148900Y-10406200D01*
X15213900Y-10471200D01*
X15813900Y-9051200D02*
X15878900Y-8986200D01*
X15813900Y-8921200D01*
X15748900Y-8986200D01*
X15813900Y-9051200D01*
X15813900Y-10271200D02*
X15878900Y-10206200D01*
X15813900Y-10141200D01*
X15748900Y-10206200D01*
X15813900Y-10271200D01*
X15900400Y-5877130D02*
X15965400Y-5812130D01*
X15900400Y-5747130D01*
X15835400Y-5812130D01*
X15900400Y-5877130D01*
X16265600Y-9051200D02*
X16330600Y-8986200D01*
X16265600Y-8921200D01*
X16200600Y-8986200D01*
X16265600Y-9051200D01*
X16265600Y-10271200D02*
X16330600Y-10206200D01*
X16265600Y-10141200D01*
X16200600Y-10206200D01*
X16265600Y-10271200D01*
X16408400Y-5877130D02*
X16473400Y-5812130D01*
X16408400Y-5747130D01*
X16343400Y-5812130D01*
X16408400Y-5877130D01*
X16865600Y-10471200D02*
X16930600Y-10406200D01*
X16865600Y-10341200D01*
X16800600Y-10406200D01*
X16865600Y-10471200D01*
X17465600Y-9051200D02*
X17530600Y-8986200D01*
X17465600Y-8921200D01*
X17400600Y-8986200D01*
X17465600Y-9051200D01*
X17465600Y-10271200D02*
X17530600Y-10206200D01*
X17465600Y-10141200D01*
X17400600Y-10206200D01*
X17465600Y-10271200D01*
D10*
X11634777Y-11713299D02*
X11634777Y-11513299D01*
X11634777Y-11513299D02*
X11682396Y-11513299D01*
X11682396Y-11513299D02*
X11710967Y-11522823D01*
X11710967Y-11522823D02*
X11730015Y-11541871D01*
X11730015Y-11541871D02*
X11739539Y-11560918D01*
X11739539Y-11560918D02*
X11749062Y-11599013D01*
X11749062Y-11599013D02*
X11749062Y-11627585D01*
X11749062Y-11627585D02*
X11739539Y-11665680D01*
X11739539Y-11665680D02*
X11730015Y-11684728D01*
X11730015Y-11684728D02*
X11710967Y-11703775D01*
X11710967Y-11703775D02*
X11682396Y-11713299D01*
X11682396Y-11713299D02*
X11634777Y-11713299D01*
X11834777Y-11713299D02*
X11834777Y-11579966D01*
X11834777Y-11618061D02*
X11844300Y-11599013D01*
X11844300Y-11599013D02*
X11853824Y-11589490D01*
X11853824Y-11589490D02*
X11872872Y-11579966D01*
X11872872Y-11579966D02*
X11891920Y-11579966D01*
X11958586Y-11713299D02*
X11958586Y-11579966D01*
X11958586Y-11513299D02*
X11949062Y-11522823D01*
X11949062Y-11522823D02*
X11958586Y-11532347D01*
X11958586Y-11532347D02*
X11968110Y-11522823D01*
X11968110Y-11522823D02*
X11958586Y-11513299D01*
X11958586Y-11513299D02*
X11958586Y-11532347D01*
X12082396Y-11713299D02*
X12063348Y-11703775D01*
X12063348Y-11703775D02*
X12053824Y-11684728D01*
X12053824Y-11684728D02*
X12053824Y-11513299D01*
X12187158Y-11713299D02*
X12168110Y-11703775D01*
X12168110Y-11703775D02*
X12158586Y-11684728D01*
X12158586Y-11684728D02*
X12158586Y-11513299D01*
X12415729Y-11713299D02*
X12415729Y-11513299D01*
X12415729Y-11513299D02*
X12482396Y-11656156D01*
X12482396Y-11656156D02*
X12549062Y-11513299D01*
X12549062Y-11513299D02*
X12549062Y-11713299D01*
X12730015Y-11713299D02*
X12730015Y-11608537D01*
X12730015Y-11608537D02*
X12720491Y-11589490D01*
X12720491Y-11589490D02*
X12701443Y-11579966D01*
X12701443Y-11579966D02*
X12663348Y-11579966D01*
X12663348Y-11579966D02*
X12644300Y-11589490D01*
X12730015Y-11703775D02*
X12710967Y-11713299D01*
X12710967Y-11713299D02*
X12663348Y-11713299D01*
X12663348Y-11713299D02*
X12644300Y-11703775D01*
X12644300Y-11703775D02*
X12634777Y-11684728D01*
X12634777Y-11684728D02*
X12634777Y-11665680D01*
X12634777Y-11665680D02*
X12644300Y-11646632D01*
X12644300Y-11646632D02*
X12663348Y-11637109D01*
X12663348Y-11637109D02*
X12710967Y-11637109D01*
X12710967Y-11637109D02*
X12730015Y-11627585D01*
X12825253Y-11579966D02*
X12825253Y-11779966D01*
X12825253Y-11589490D02*
X12844300Y-11579966D01*
X12844300Y-11579966D02*
X12882396Y-11579966D01*
X12882396Y-11579966D02*
X12901443Y-11589490D01*
X12901443Y-11589490D02*
X12910967Y-11599013D01*
X12910967Y-11599013D02*
X12920491Y-11618061D01*
X12920491Y-11618061D02*
X12920491Y-11675204D01*
X12920491Y-11675204D02*
X12910967Y-11694251D01*
X12910967Y-11694251D02*
X12901443Y-11703775D01*
X12901443Y-11703775D02*
X12882396Y-11713299D01*
X12882396Y-11713299D02*
X12844300Y-11713299D01*
X12844300Y-11713299D02*
X12825253Y-11703775D01*
X13006205Y-11694251D02*
X13015729Y-11703775D01*
X13015729Y-11703775D02*
X13006205Y-11713299D01*
X13006205Y-11713299D02*
X12996681Y-11703775D01*
X12996681Y-11703775D02*
X13006205Y-11694251D01*
X13006205Y-11694251D02*
X13006205Y-11713299D01*
X13006205Y-11589490D02*
X13015729Y-11599013D01*
X13015729Y-11599013D02*
X13006205Y-11608537D01*
X13006205Y-11608537D02*
X12996681Y-11599013D01*
X12996681Y-11599013D02*
X13006205Y-11589490D01*
X13006205Y-11589490D02*
X13006205Y-11608537D01*
D11*
X11334000Y-12021815D02*
X11374000Y-12061815D01*
X11374000Y-12021815D02*
X11334000Y-12061815D01*
D10*
X11672872Y-11933299D02*
X11691920Y-11933299D01*
X11691920Y-11933299D02*
X11710967Y-11942823D01*
X11710967Y-11942823D02*
X11720491Y-11952347D01*
X11720491Y-11952347D02*
X11730015Y-11971394D01*
X11730015Y-11971394D02*
X11739539Y-12009490D01*
X11739539Y-12009490D02*
X11739539Y-12057109D01*
X11739539Y-12057109D02*
X11730015Y-12095204D01*
X11730015Y-12095204D02*
X11720491Y-12114251D01*
X11720491Y-12114251D02*
X11710967Y-12123775D01*
X11710967Y-12123775D02*
X11691920Y-12133299D01*
X11691920Y-12133299D02*
X11672872Y-12133299D01*
X11672872Y-12133299D02*
X11653824Y-12123775D01*
X11653824Y-12123775D02*
X11644300Y-12114251D01*
X11644300Y-12114251D02*
X11634777Y-12095204D01*
X11634777Y-12095204D02*
X11625253Y-12057109D01*
X11625253Y-12057109D02*
X11625253Y-12009490D01*
X11625253Y-12009490D02*
X11634777Y-11971394D01*
X11634777Y-11971394D02*
X11644300Y-11952347D01*
X11644300Y-11952347D02*
X11653824Y-11942823D01*
X11653824Y-11942823D02*
X11672872Y-11933299D01*
X11825253Y-12114251D02*
X11834777Y-12123775D01*
X11834777Y-12123775D02*
X11825253Y-12133299D01*
X11825253Y-12133299D02*
X11815729Y-12123775D01*
X11815729Y-12123775D02*
X11825253Y-12114251D01*
X11825253Y-12114251D02*
X11825253Y-12133299D01*
X12006205Y-11999966D02*
X12006205Y-12133299D01*
X11958586Y-11923775D02*
X11910967Y-12066632D01*
X11910967Y-12066632D02*
X12034777Y-12066632D01*
X12149062Y-11933299D02*
X12168110Y-11933299D01*
X12168110Y-11933299D02*
X12187158Y-11942823D01*
X12187158Y-11942823D02*
X12196681Y-11952347D01*
X12196681Y-11952347D02*
X12206205Y-11971394D01*
X12206205Y-11971394D02*
X12215729Y-12009490D01*
X12215729Y-12009490D02*
X12215729Y-12057109D01*
X12215729Y-12057109D02*
X12206205Y-12095204D01*
X12206205Y-12095204D02*
X12196681Y-12114251D01*
X12196681Y-12114251D02*
X12187158Y-12123775D01*
X12187158Y-12123775D02*
X12168110Y-12133299D01*
X12168110Y-12133299D02*
X12149062Y-12133299D01*
X12149062Y-12133299D02*
X12130015Y-12123775D01*
X12130015Y-12123775D02*
X12120491Y-12114251D01*
X12120491Y-12114251D02*
X12110967Y-12095204D01*
X12110967Y-12095204D02*
X12101443Y-12057109D01*
X12101443Y-12057109D02*
X12101443Y-12009490D01*
X12101443Y-12009490D02*
X12110967Y-11971394D01*
X12110967Y-11971394D02*
X12120491Y-11952347D01*
X12120491Y-11952347D02*
X12130015Y-11942823D01*
X12130015Y-11942823D02*
X12149062Y-11933299D01*
X12339539Y-11933299D02*
X12358586Y-11933299D01*
X12358586Y-11933299D02*
X12377634Y-11942823D01*
X12377634Y-11942823D02*
X12387158Y-11952347D01*
X12387158Y-11952347D02*
X12396681Y-11971394D01*
X12396681Y-11971394D02*
X12406205Y-12009490D01*
X12406205Y-12009490D02*
X12406205Y-12057109D01*
X12406205Y-12057109D02*
X12396681Y-12095204D01*
X12396681Y-12095204D02*
X12387158Y-12114251D01*
X12387158Y-12114251D02*
X12377634Y-12123775D01*
X12377634Y-12123775D02*
X12358586Y-12133299D01*
X12358586Y-12133299D02*
X12339539Y-12133299D01*
X12339539Y-12133299D02*
X12320491Y-12123775D01*
X12320491Y-12123775D02*
X12310967Y-12114251D01*
X12310967Y-12114251D02*
X12301443Y-12095204D01*
X12301443Y-12095204D02*
X12291920Y-12057109D01*
X12291920Y-12057109D02*
X12291920Y-12009490D01*
X12291920Y-12009490D02*
X12301443Y-11971394D01*
X12301443Y-11971394D02*
X12310967Y-11952347D01*
X12310967Y-11952347D02*
X12320491Y-11942823D01*
X12320491Y-11942823D02*
X12339539Y-11933299D01*
X12491920Y-12133299D02*
X12491920Y-11999966D01*
X12491920Y-12019013D02*
X12501443Y-12009490D01*
X12501443Y-12009490D02*
X12520491Y-11999966D01*
X12520491Y-11999966D02*
X12549062Y-11999966D01*
X12549062Y-11999966D02*
X12568110Y-12009490D01*
X12568110Y-12009490D02*
X12577634Y-12028537D01*
X12577634Y-12028537D02*
X12577634Y-12133299D01*
X12577634Y-12028537D02*
X12587158Y-12009490D01*
X12587158Y-12009490D02*
X12606205Y-11999966D01*
X12606205Y-11999966D02*
X12634777Y-11999966D01*
X12634777Y-11999966D02*
X12653824Y-12009490D01*
X12653824Y-12009490D02*
X12663348Y-12028537D01*
X12663348Y-12028537D02*
X12663348Y-12133299D01*
X12758586Y-12133299D02*
X12758586Y-11999966D01*
X12758586Y-12019013D02*
X12768110Y-12009490D01*
X12768110Y-12009490D02*
X12787158Y-11999966D01*
X12787158Y-11999966D02*
X12815729Y-11999966D01*
X12815729Y-11999966D02*
X12834777Y-12009490D01*
X12834777Y-12009490D02*
X12844301Y-12028537D01*
X12844301Y-12028537D02*
X12844301Y-12133299D01*
X12844301Y-12028537D02*
X12853824Y-12009490D01*
X12853824Y-12009490D02*
X12872872Y-11999966D01*
X12872872Y-11999966D02*
X12901443Y-11999966D01*
X12901443Y-11999966D02*
X12920491Y-12009490D01*
X12920491Y-12009490D02*
X12930015Y-12028537D01*
X12930015Y-12028537D02*
X12930015Y-12133299D01*
X13320491Y-11923775D02*
X13149063Y-12180918D01*
X13577634Y-11933299D02*
X13596682Y-11933299D01*
X13596682Y-11933299D02*
X13615729Y-11942823D01*
X13615729Y-11942823D02*
X13625253Y-11952347D01*
X13625253Y-11952347D02*
X13634777Y-11971394D01*
X13634777Y-11971394D02*
X13644301Y-12009490D01*
X13644301Y-12009490D02*
X13644301Y-12057109D01*
X13644301Y-12057109D02*
X13634777Y-12095204D01*
X13634777Y-12095204D02*
X13625253Y-12114251D01*
X13625253Y-12114251D02*
X13615729Y-12123775D01*
X13615729Y-12123775D02*
X13596682Y-12133299D01*
X13596682Y-12133299D02*
X13577634Y-12133299D01*
X13577634Y-12133299D02*
X13558586Y-12123775D01*
X13558586Y-12123775D02*
X13549063Y-12114251D01*
X13549063Y-12114251D02*
X13539539Y-12095204D01*
X13539539Y-12095204D02*
X13530015Y-12057109D01*
X13530015Y-12057109D02*
X13530015Y-12009490D01*
X13530015Y-12009490D02*
X13539539Y-11971394D01*
X13539539Y-11971394D02*
X13549063Y-11952347D01*
X13549063Y-11952347D02*
X13558586Y-11942823D01*
X13558586Y-11942823D02*
X13577634Y-11933299D01*
X13730015Y-12114251D02*
X13739539Y-12123775D01*
X13739539Y-12123775D02*
X13730015Y-12133299D01*
X13730015Y-12133299D02*
X13720491Y-12123775D01*
X13720491Y-12123775D02*
X13730015Y-12114251D01*
X13730015Y-12114251D02*
X13730015Y-12133299D01*
X13863348Y-11933299D02*
X13882396Y-11933299D01*
X13882396Y-11933299D02*
X13901444Y-11942823D01*
X13901444Y-11942823D02*
X13910967Y-11952347D01*
X13910967Y-11952347D02*
X13920491Y-11971394D01*
X13920491Y-11971394D02*
X13930015Y-12009490D01*
X13930015Y-12009490D02*
X13930015Y-12057109D01*
X13930015Y-12057109D02*
X13920491Y-12095204D01*
X13920491Y-12095204D02*
X13910967Y-12114251D01*
X13910967Y-12114251D02*
X13901444Y-12123775D01*
X13901444Y-12123775D02*
X13882396Y-12133299D01*
X13882396Y-12133299D02*
X13863348Y-12133299D01*
X13863348Y-12133299D02*
X13844301Y-12123775D01*
X13844301Y-12123775D02*
X13834777Y-12114251D01*
X13834777Y-12114251D02*
X13825253Y-12095204D01*
X13825253Y-12095204D02*
X13815729Y-12057109D01*
X13815729Y-12057109D02*
X13815729Y-12009490D01*
X13815729Y-12009490D02*
X13825253Y-11971394D01*
X13825253Y-11971394D02*
X13834777Y-11952347D01*
X13834777Y-11952347D02*
X13844301Y-11942823D01*
X13844301Y-11942823D02*
X13863348Y-11933299D01*
X14120491Y-12133299D02*
X14006205Y-12133299D01*
X14063348Y-12133299D02*
X14063348Y-11933299D01*
X14063348Y-11933299D02*
X14044301Y-11961871D01*
X14044301Y-11961871D02*
X14025253Y-11980918D01*
X14025253Y-11980918D02*
X14006205Y-11990442D01*
X14301444Y-11933299D02*
X14206205Y-11933299D01*
X14206205Y-11933299D02*
X14196682Y-12028537D01*
X14196682Y-12028537D02*
X14206205Y-12019013D01*
X14206205Y-12019013D02*
X14225253Y-12009490D01*
X14225253Y-12009490D02*
X14272872Y-12009490D01*
X14272872Y-12009490D02*
X14291920Y-12019013D01*
X14291920Y-12019013D02*
X14301444Y-12028537D01*
X14301444Y-12028537D02*
X14310967Y-12047585D01*
X14310967Y-12047585D02*
X14310967Y-12095204D01*
X14310967Y-12095204D02*
X14301444Y-12114251D01*
X14301444Y-12114251D02*
X14291920Y-12123775D01*
X14291920Y-12123775D02*
X14272872Y-12133299D01*
X14272872Y-12133299D02*
X14225253Y-12133299D01*
X14225253Y-12133299D02*
X14206205Y-12123775D01*
X14206205Y-12123775D02*
X14196682Y-12114251D01*
X14377634Y-11933299D02*
X14510967Y-11933299D01*
X14510967Y-11933299D02*
X14425253Y-12133299D01*
X14577634Y-11933299D02*
X14577634Y-11971394D01*
X14653825Y-11933299D02*
X14653825Y-11971394D01*
X14949063Y-12209490D02*
X14939539Y-12199966D01*
X14939539Y-12199966D02*
X14920491Y-12171394D01*
X14920491Y-12171394D02*
X14910967Y-12152347D01*
X14910967Y-12152347D02*
X14901444Y-12123775D01*
X14901444Y-12123775D02*
X14891920Y-12076156D01*
X14891920Y-12076156D02*
X14891920Y-12038061D01*
X14891920Y-12038061D02*
X14901444Y-11990442D01*
X14901444Y-11990442D02*
X14910967Y-11961871D01*
X14910967Y-11961871D02*
X14920491Y-11942823D01*
X14920491Y-11942823D02*
X14939539Y-11914251D01*
X14939539Y-11914251D02*
X14949063Y-11904728D01*
X15015729Y-11952347D02*
X15025253Y-11942823D01*
X15025253Y-11942823D02*
X15044301Y-11933299D01*
X15044301Y-11933299D02*
X15091920Y-11933299D01*
X15091920Y-11933299D02*
X15110967Y-11942823D01*
X15110967Y-11942823D02*
X15120491Y-11952347D01*
X15120491Y-11952347D02*
X15130015Y-11971394D01*
X15130015Y-11971394D02*
X15130015Y-11990442D01*
X15130015Y-11990442D02*
X15120491Y-12019013D01*
X15120491Y-12019013D02*
X15006206Y-12133299D01*
X15006206Y-12133299D02*
X15130015Y-12133299D01*
X15320491Y-12133299D02*
X15206206Y-12133299D01*
X15263348Y-12133299D02*
X15263348Y-11933299D01*
X15263348Y-11933299D02*
X15244301Y-11961871D01*
X15244301Y-11961871D02*
X15225253Y-11980918D01*
X15225253Y-11980918D02*
X15206206Y-11990442D01*
X15558587Y-12133299D02*
X15558587Y-11933299D01*
X15644301Y-12133299D02*
X15644301Y-12028537D01*
X15644301Y-12028537D02*
X15634777Y-12009490D01*
X15634777Y-12009490D02*
X15615729Y-11999966D01*
X15615729Y-11999966D02*
X15587158Y-11999966D01*
X15587158Y-11999966D02*
X15568110Y-12009490D01*
X15568110Y-12009490D02*
X15558587Y-12019013D01*
X15768110Y-12133299D02*
X15749063Y-12123775D01*
X15749063Y-12123775D02*
X15739539Y-12114251D01*
X15739539Y-12114251D02*
X15730015Y-12095204D01*
X15730015Y-12095204D02*
X15730015Y-12038061D01*
X15730015Y-12038061D02*
X15739539Y-12019013D01*
X15739539Y-12019013D02*
X15749063Y-12009490D01*
X15749063Y-12009490D02*
X15768110Y-11999966D01*
X15768110Y-11999966D02*
X15796682Y-11999966D01*
X15796682Y-11999966D02*
X15815729Y-12009490D01*
X15815729Y-12009490D02*
X15825253Y-12019013D01*
X15825253Y-12019013D02*
X15834777Y-12038061D01*
X15834777Y-12038061D02*
X15834777Y-12095204D01*
X15834777Y-12095204D02*
X15825253Y-12114251D01*
X15825253Y-12114251D02*
X15815729Y-12123775D01*
X15815729Y-12123775D02*
X15796682Y-12133299D01*
X15796682Y-12133299D02*
X15768110Y-12133299D01*
X15949063Y-12133299D02*
X15930015Y-12123775D01*
X15930015Y-12123775D02*
X15920491Y-12104728D01*
X15920491Y-12104728D02*
X15920491Y-11933299D01*
X16101444Y-12123775D02*
X16082396Y-12133299D01*
X16082396Y-12133299D02*
X16044301Y-12133299D01*
X16044301Y-12133299D02*
X16025253Y-12123775D01*
X16025253Y-12123775D02*
X16015729Y-12104728D01*
X16015729Y-12104728D02*
X16015729Y-12028537D01*
X16015729Y-12028537D02*
X16025253Y-12009490D01*
X16025253Y-12009490D02*
X16044301Y-11999966D01*
X16044301Y-11999966D02*
X16082396Y-11999966D01*
X16082396Y-11999966D02*
X16101444Y-12009490D01*
X16101444Y-12009490D02*
X16110968Y-12028537D01*
X16110968Y-12028537D02*
X16110968Y-12047585D01*
X16110968Y-12047585D02*
X16015729Y-12066632D01*
X16187158Y-12123775D02*
X16206206Y-12133299D01*
X16206206Y-12133299D02*
X16244301Y-12133299D01*
X16244301Y-12133299D02*
X16263349Y-12123775D01*
X16263349Y-12123775D02*
X16272872Y-12104728D01*
X16272872Y-12104728D02*
X16272872Y-12095204D01*
X16272872Y-12095204D02*
X16263349Y-12076156D01*
X16263349Y-12076156D02*
X16244301Y-12066632D01*
X16244301Y-12066632D02*
X16215729Y-12066632D01*
X16215729Y-12066632D02*
X16196682Y-12057109D01*
X16196682Y-12057109D02*
X16187158Y-12038061D01*
X16187158Y-12038061D02*
X16187158Y-12028537D01*
X16187158Y-12028537D02*
X16196682Y-12009490D01*
X16196682Y-12009490D02*
X16215729Y-11999966D01*
X16215729Y-11999966D02*
X16244301Y-11999966D01*
X16244301Y-11999966D02*
X16263349Y-12009490D01*
X16339539Y-12209490D02*
X16349063Y-12199966D01*
X16349063Y-12199966D02*
X16368110Y-12171394D01*
X16368110Y-12171394D02*
X16377634Y-12152347D01*
X16377634Y-12152347D02*
X16387158Y-12123775D01*
X16387158Y-12123775D02*
X16396682Y-12076156D01*
X16396682Y-12076156D02*
X16396682Y-12038061D01*
X16396682Y-12038061D02*
X16387158Y-11990442D01*
X16387158Y-11990442D02*
X16377634Y-11961871D01*
X16377634Y-11961871D02*
X16368110Y-11942823D01*
X16368110Y-11942823D02*
X16349063Y-11914251D01*
X16349063Y-11914251D02*
X16339539Y-11904728D01*
D12*
X11374000Y-12305815D02*
G75*
G03*
X11374000Y-12305815I-45000J0D01*
G01*
D10*
X11672872Y-12197299D02*
X11691920Y-12197299D01*
X11691920Y-12197299D02*
X11710967Y-12206823D01*
X11710967Y-12206823D02*
X11720491Y-12216347D01*
X11720491Y-12216347D02*
X11730015Y-12235394D01*
X11730015Y-12235394D02*
X11739539Y-12273490D01*
X11739539Y-12273490D02*
X11739539Y-12321109D01*
X11739539Y-12321109D02*
X11730015Y-12359204D01*
X11730015Y-12359204D02*
X11720491Y-12378251D01*
X11720491Y-12378251D02*
X11710967Y-12387775D01*
X11710967Y-12387775D02*
X11691920Y-12397299D01*
X11691920Y-12397299D02*
X11672872Y-12397299D01*
X11672872Y-12397299D02*
X11653824Y-12387775D01*
X11653824Y-12387775D02*
X11644300Y-12378251D01*
X11644300Y-12378251D02*
X11634777Y-12359204D01*
X11634777Y-12359204D02*
X11625253Y-12321109D01*
X11625253Y-12321109D02*
X11625253Y-12273490D01*
X11625253Y-12273490D02*
X11634777Y-12235394D01*
X11634777Y-12235394D02*
X11644300Y-12216347D01*
X11644300Y-12216347D02*
X11653824Y-12206823D01*
X11653824Y-12206823D02*
X11672872Y-12197299D01*
X11825253Y-12378251D02*
X11834777Y-12387775D01*
X11834777Y-12387775D02*
X11825253Y-12397299D01*
X11825253Y-12397299D02*
X11815729Y-12387775D01*
X11815729Y-12387775D02*
X11825253Y-12378251D01*
X11825253Y-12378251D02*
X11825253Y-12397299D01*
X11930015Y-12397299D02*
X11968110Y-12397299D01*
X11968110Y-12397299D02*
X11987158Y-12387775D01*
X11987158Y-12387775D02*
X11996681Y-12378251D01*
X11996681Y-12378251D02*
X12015729Y-12349680D01*
X12015729Y-12349680D02*
X12025253Y-12311585D01*
X12025253Y-12311585D02*
X12025253Y-12235394D01*
X12025253Y-12235394D02*
X12015729Y-12216347D01*
X12015729Y-12216347D02*
X12006205Y-12206823D01*
X12006205Y-12206823D02*
X11987158Y-12197299D01*
X11987158Y-12197299D02*
X11949062Y-12197299D01*
X11949062Y-12197299D02*
X11930015Y-12206823D01*
X11930015Y-12206823D02*
X11920491Y-12216347D01*
X11920491Y-12216347D02*
X11910967Y-12235394D01*
X11910967Y-12235394D02*
X11910967Y-12283013D01*
X11910967Y-12283013D02*
X11920491Y-12302061D01*
X11920491Y-12302061D02*
X11930015Y-12311585D01*
X11930015Y-12311585D02*
X11949062Y-12321109D01*
X11949062Y-12321109D02*
X11987158Y-12321109D01*
X11987158Y-12321109D02*
X12006205Y-12311585D01*
X12006205Y-12311585D02*
X12015729Y-12302061D01*
X12015729Y-12302061D02*
X12025253Y-12283013D01*
X12149062Y-12197299D02*
X12168110Y-12197299D01*
X12168110Y-12197299D02*
X12187158Y-12206823D01*
X12187158Y-12206823D02*
X12196681Y-12216347D01*
X12196681Y-12216347D02*
X12206205Y-12235394D01*
X12206205Y-12235394D02*
X12215729Y-12273490D01*
X12215729Y-12273490D02*
X12215729Y-12321109D01*
X12215729Y-12321109D02*
X12206205Y-12359204D01*
X12206205Y-12359204D02*
X12196681Y-12378251D01*
X12196681Y-12378251D02*
X12187158Y-12387775D01*
X12187158Y-12387775D02*
X12168110Y-12397299D01*
X12168110Y-12397299D02*
X12149062Y-12397299D01*
X12149062Y-12397299D02*
X12130015Y-12387775D01*
X12130015Y-12387775D02*
X12120491Y-12378251D01*
X12120491Y-12378251D02*
X12110967Y-12359204D01*
X12110967Y-12359204D02*
X12101443Y-12321109D01*
X12101443Y-12321109D02*
X12101443Y-12273490D01*
X12101443Y-12273490D02*
X12110967Y-12235394D01*
X12110967Y-12235394D02*
X12120491Y-12216347D01*
X12120491Y-12216347D02*
X12130015Y-12206823D01*
X12130015Y-12206823D02*
X12149062Y-12197299D01*
X12339539Y-12197299D02*
X12358586Y-12197299D01*
X12358586Y-12197299D02*
X12377634Y-12206823D01*
X12377634Y-12206823D02*
X12387158Y-12216347D01*
X12387158Y-12216347D02*
X12396681Y-12235394D01*
X12396681Y-12235394D02*
X12406205Y-12273490D01*
X12406205Y-12273490D02*
X12406205Y-12321109D01*
X12406205Y-12321109D02*
X12396681Y-12359204D01*
X12396681Y-12359204D02*
X12387158Y-12378251D01*
X12387158Y-12378251D02*
X12377634Y-12387775D01*
X12377634Y-12387775D02*
X12358586Y-12397299D01*
X12358586Y-12397299D02*
X12339539Y-12397299D01*
X12339539Y-12397299D02*
X12320491Y-12387775D01*
X12320491Y-12387775D02*
X12310967Y-12378251D01*
X12310967Y-12378251D02*
X12301443Y-12359204D01*
X12301443Y-12359204D02*
X12291920Y-12321109D01*
X12291920Y-12321109D02*
X12291920Y-12273490D01*
X12291920Y-12273490D02*
X12301443Y-12235394D01*
X12301443Y-12235394D02*
X12310967Y-12216347D01*
X12310967Y-12216347D02*
X12320491Y-12206823D01*
X12320491Y-12206823D02*
X12339539Y-12197299D01*
X12491920Y-12397299D02*
X12491920Y-12263966D01*
X12491920Y-12283013D02*
X12501443Y-12273490D01*
X12501443Y-12273490D02*
X12520491Y-12263966D01*
X12520491Y-12263966D02*
X12549062Y-12263966D01*
X12549062Y-12263966D02*
X12568110Y-12273490D01*
X12568110Y-12273490D02*
X12577634Y-12292537D01*
X12577634Y-12292537D02*
X12577634Y-12397299D01*
X12577634Y-12292537D02*
X12587158Y-12273490D01*
X12587158Y-12273490D02*
X12606205Y-12263966D01*
X12606205Y-12263966D02*
X12634777Y-12263966D01*
X12634777Y-12263966D02*
X12653824Y-12273490D01*
X12653824Y-12273490D02*
X12663348Y-12292537D01*
X12663348Y-12292537D02*
X12663348Y-12397299D01*
X12758586Y-12397299D02*
X12758586Y-12263966D01*
X12758586Y-12283013D02*
X12768110Y-12273490D01*
X12768110Y-12273490D02*
X12787158Y-12263966D01*
X12787158Y-12263966D02*
X12815729Y-12263966D01*
X12815729Y-12263966D02*
X12834777Y-12273490D01*
X12834777Y-12273490D02*
X12844301Y-12292537D01*
X12844301Y-12292537D02*
X12844301Y-12397299D01*
X12844301Y-12292537D02*
X12853824Y-12273490D01*
X12853824Y-12273490D02*
X12872872Y-12263966D01*
X12872872Y-12263966D02*
X12901443Y-12263966D01*
X12901443Y-12263966D02*
X12920491Y-12273490D01*
X12920491Y-12273490D02*
X12930015Y-12292537D01*
X12930015Y-12292537D02*
X12930015Y-12397299D01*
X13320491Y-12187775D02*
X13149063Y-12444918D01*
X13577634Y-12197299D02*
X13596682Y-12197299D01*
X13596682Y-12197299D02*
X13615729Y-12206823D01*
X13615729Y-12206823D02*
X13625253Y-12216347D01*
X13625253Y-12216347D02*
X13634777Y-12235394D01*
X13634777Y-12235394D02*
X13644301Y-12273490D01*
X13644301Y-12273490D02*
X13644301Y-12321109D01*
X13644301Y-12321109D02*
X13634777Y-12359204D01*
X13634777Y-12359204D02*
X13625253Y-12378251D01*
X13625253Y-12378251D02*
X13615729Y-12387775D01*
X13615729Y-12387775D02*
X13596682Y-12397299D01*
X13596682Y-12397299D02*
X13577634Y-12397299D01*
X13577634Y-12397299D02*
X13558586Y-12387775D01*
X13558586Y-12387775D02*
X13549063Y-12378251D01*
X13549063Y-12378251D02*
X13539539Y-12359204D01*
X13539539Y-12359204D02*
X13530015Y-12321109D01*
X13530015Y-12321109D02*
X13530015Y-12273490D01*
X13530015Y-12273490D02*
X13539539Y-12235394D01*
X13539539Y-12235394D02*
X13549063Y-12216347D01*
X13549063Y-12216347D02*
X13558586Y-12206823D01*
X13558586Y-12206823D02*
X13577634Y-12197299D01*
X13730015Y-12378251D02*
X13739539Y-12387775D01*
X13739539Y-12387775D02*
X13730015Y-12397299D01*
X13730015Y-12397299D02*
X13720491Y-12387775D01*
X13720491Y-12387775D02*
X13730015Y-12378251D01*
X13730015Y-12378251D02*
X13730015Y-12397299D01*
X13863348Y-12197299D02*
X13882396Y-12197299D01*
X13882396Y-12197299D02*
X13901444Y-12206823D01*
X13901444Y-12206823D02*
X13910967Y-12216347D01*
X13910967Y-12216347D02*
X13920491Y-12235394D01*
X13920491Y-12235394D02*
X13930015Y-12273490D01*
X13930015Y-12273490D02*
X13930015Y-12321109D01*
X13930015Y-12321109D02*
X13920491Y-12359204D01*
X13920491Y-12359204D02*
X13910967Y-12378251D01*
X13910967Y-12378251D02*
X13901444Y-12387775D01*
X13901444Y-12387775D02*
X13882396Y-12397299D01*
X13882396Y-12397299D02*
X13863348Y-12397299D01*
X13863348Y-12397299D02*
X13844301Y-12387775D01*
X13844301Y-12387775D02*
X13834777Y-12378251D01*
X13834777Y-12378251D02*
X13825253Y-12359204D01*
X13825253Y-12359204D02*
X13815729Y-12321109D01*
X13815729Y-12321109D02*
X13815729Y-12273490D01*
X13815729Y-12273490D02*
X13825253Y-12235394D01*
X13825253Y-12235394D02*
X13834777Y-12216347D01*
X13834777Y-12216347D02*
X13844301Y-12206823D01*
X13844301Y-12206823D02*
X13863348Y-12197299D01*
X13996682Y-12197299D02*
X14120491Y-12197299D01*
X14120491Y-12197299D02*
X14053824Y-12273490D01*
X14053824Y-12273490D02*
X14082396Y-12273490D01*
X14082396Y-12273490D02*
X14101444Y-12283013D01*
X14101444Y-12283013D02*
X14110967Y-12292537D01*
X14110967Y-12292537D02*
X14120491Y-12311585D01*
X14120491Y-12311585D02*
X14120491Y-12359204D01*
X14120491Y-12359204D02*
X14110967Y-12378251D01*
X14110967Y-12378251D02*
X14101444Y-12387775D01*
X14101444Y-12387775D02*
X14082396Y-12397299D01*
X14082396Y-12397299D02*
X14025253Y-12397299D01*
X14025253Y-12397299D02*
X14006205Y-12387775D01*
X14006205Y-12387775D02*
X13996682Y-12378251D01*
X14301444Y-12197299D02*
X14206205Y-12197299D01*
X14206205Y-12197299D02*
X14196682Y-12292537D01*
X14196682Y-12292537D02*
X14206205Y-12283013D01*
X14206205Y-12283013D02*
X14225253Y-12273490D01*
X14225253Y-12273490D02*
X14272872Y-12273490D01*
X14272872Y-12273490D02*
X14291920Y-12283013D01*
X14291920Y-12283013D02*
X14301444Y-12292537D01*
X14301444Y-12292537D02*
X14310967Y-12311585D01*
X14310967Y-12311585D02*
X14310967Y-12359204D01*
X14310967Y-12359204D02*
X14301444Y-12378251D01*
X14301444Y-12378251D02*
X14291920Y-12387775D01*
X14291920Y-12387775D02*
X14272872Y-12397299D01*
X14272872Y-12397299D02*
X14225253Y-12397299D01*
X14225253Y-12397299D02*
X14206205Y-12387775D01*
X14206205Y-12387775D02*
X14196682Y-12378251D01*
X14482396Y-12263966D02*
X14482396Y-12397299D01*
X14434777Y-12187775D02*
X14387158Y-12330632D01*
X14387158Y-12330632D02*
X14510967Y-12330632D01*
X14577634Y-12197299D02*
X14577634Y-12235394D01*
X14653825Y-12197299D02*
X14653825Y-12235394D01*
X14949063Y-12473490D02*
X14939539Y-12463966D01*
X14939539Y-12463966D02*
X14920491Y-12435394D01*
X14920491Y-12435394D02*
X14910967Y-12416347D01*
X14910967Y-12416347D02*
X14901444Y-12387775D01*
X14901444Y-12387775D02*
X14891920Y-12340156D01*
X14891920Y-12340156D02*
X14891920Y-12302061D01*
X14891920Y-12302061D02*
X14901444Y-12254442D01*
X14901444Y-12254442D02*
X14910967Y-12225871D01*
X14910967Y-12225871D02*
X14920491Y-12206823D01*
X14920491Y-12206823D02*
X14939539Y-12178251D01*
X14939539Y-12178251D02*
X14949063Y-12168728D01*
X15110967Y-12197299D02*
X15072872Y-12197299D01*
X15072872Y-12197299D02*
X15053825Y-12206823D01*
X15053825Y-12206823D02*
X15044301Y-12216347D01*
X15044301Y-12216347D02*
X15025253Y-12244918D01*
X15025253Y-12244918D02*
X15015729Y-12283013D01*
X15015729Y-12283013D02*
X15015729Y-12359204D01*
X15015729Y-12359204D02*
X15025253Y-12378251D01*
X15025253Y-12378251D02*
X15034777Y-12387775D01*
X15034777Y-12387775D02*
X15053825Y-12397299D01*
X15053825Y-12397299D02*
X15091920Y-12397299D01*
X15091920Y-12397299D02*
X15110967Y-12387775D01*
X15110967Y-12387775D02*
X15120491Y-12378251D01*
X15120491Y-12378251D02*
X15130015Y-12359204D01*
X15130015Y-12359204D02*
X15130015Y-12311585D01*
X15130015Y-12311585D02*
X15120491Y-12292537D01*
X15120491Y-12292537D02*
X15110967Y-12283013D01*
X15110967Y-12283013D02*
X15091920Y-12273490D01*
X15091920Y-12273490D02*
X15053825Y-12273490D01*
X15053825Y-12273490D02*
X15034777Y-12283013D01*
X15034777Y-12283013D02*
X15025253Y-12292537D01*
X15025253Y-12292537D02*
X15015729Y-12311585D01*
X15368110Y-12397299D02*
X15368110Y-12197299D01*
X15453825Y-12397299D02*
X15453825Y-12292537D01*
X15453825Y-12292537D02*
X15444301Y-12273490D01*
X15444301Y-12273490D02*
X15425253Y-12263966D01*
X15425253Y-12263966D02*
X15396682Y-12263966D01*
X15396682Y-12263966D02*
X15377634Y-12273490D01*
X15377634Y-12273490D02*
X15368110Y-12283013D01*
X15577634Y-12397299D02*
X15558587Y-12387775D01*
X15558587Y-12387775D02*
X15549063Y-12378251D01*
X15549063Y-12378251D02*
X15539539Y-12359204D01*
X15539539Y-12359204D02*
X15539539Y-12302061D01*
X15539539Y-12302061D02*
X15549063Y-12283013D01*
X15549063Y-12283013D02*
X15558587Y-12273490D01*
X15558587Y-12273490D02*
X15577634Y-12263966D01*
X15577634Y-12263966D02*
X15606206Y-12263966D01*
X15606206Y-12263966D02*
X15625253Y-12273490D01*
X15625253Y-12273490D02*
X15634777Y-12283013D01*
X15634777Y-12283013D02*
X15644301Y-12302061D01*
X15644301Y-12302061D02*
X15644301Y-12359204D01*
X15644301Y-12359204D02*
X15634777Y-12378251D01*
X15634777Y-12378251D02*
X15625253Y-12387775D01*
X15625253Y-12387775D02*
X15606206Y-12397299D01*
X15606206Y-12397299D02*
X15577634Y-12397299D01*
X15758587Y-12397299D02*
X15739539Y-12387775D01*
X15739539Y-12387775D02*
X15730015Y-12368728D01*
X15730015Y-12368728D02*
X15730015Y-12197299D01*
X15910968Y-12387775D02*
X15891920Y-12397299D01*
X15891920Y-12397299D02*
X15853825Y-12397299D01*
X15853825Y-12397299D02*
X15834777Y-12387775D01*
X15834777Y-12387775D02*
X15825253Y-12368728D01*
X15825253Y-12368728D02*
X15825253Y-12292537D01*
X15825253Y-12292537D02*
X15834777Y-12273490D01*
X15834777Y-12273490D02*
X15853825Y-12263966D01*
X15853825Y-12263966D02*
X15891920Y-12263966D01*
X15891920Y-12263966D02*
X15910968Y-12273490D01*
X15910968Y-12273490D02*
X15920491Y-12292537D01*
X15920491Y-12292537D02*
X15920491Y-12311585D01*
X15920491Y-12311585D02*
X15825253Y-12330632D01*
X15996682Y-12387775D02*
X16015729Y-12397299D01*
X16015729Y-12397299D02*
X16053825Y-12397299D01*
X16053825Y-12397299D02*
X16072872Y-12387775D01*
X16072872Y-12387775D02*
X16082396Y-12368728D01*
X16082396Y-12368728D02*
X16082396Y-12359204D01*
X16082396Y-12359204D02*
X16072872Y-12340156D01*
X16072872Y-12340156D02*
X16053825Y-12330632D01*
X16053825Y-12330632D02*
X16025253Y-12330632D01*
X16025253Y-12330632D02*
X16006206Y-12321109D01*
X16006206Y-12321109D02*
X15996682Y-12302061D01*
X15996682Y-12302061D02*
X15996682Y-12292537D01*
X15996682Y-12292537D02*
X16006206Y-12273490D01*
X16006206Y-12273490D02*
X16025253Y-12263966D01*
X16025253Y-12263966D02*
X16053825Y-12263966D01*
X16053825Y-12263966D02*
X16072872Y-12273490D01*
X16149063Y-12473490D02*
X16158587Y-12463966D01*
X16158587Y-12463966D02*
X16177634Y-12435394D01*
X16177634Y-12435394D02*
X16187158Y-12416347D01*
X16187158Y-12416347D02*
X16196682Y-12387775D01*
X16196682Y-12387775D02*
X16206206Y-12340156D01*
X16206206Y-12340156D02*
X16206206Y-12302061D01*
X16206206Y-12302061D02*
X16196682Y-12254442D01*
X16196682Y-12254442D02*
X16187158Y-12225871D01*
X16187158Y-12225871D02*
X16177634Y-12206823D01*
X16177634Y-12206823D02*
X16158587Y-12178251D01*
X16158587Y-12178251D02*
X16149063Y-12168728D01*
D13*
X11324000Y-12519815D02*
X11324000Y-12619815D01*
X11274000Y-12569815D02*
X11374000Y-12569815D01*
D10*
X11739539Y-12661299D02*
X11625253Y-12661299D01*
X11682396Y-12661299D02*
X11682396Y-12461299D01*
X11682396Y-12461299D02*
X11663348Y-12489871D01*
X11663348Y-12489871D02*
X11644300Y-12508918D01*
X11644300Y-12508918D02*
X11625253Y-12518442D01*
X11825253Y-12642251D02*
X11834777Y-12651775D01*
X11834777Y-12651775D02*
X11825253Y-12661299D01*
X11825253Y-12661299D02*
X11815729Y-12651775D01*
X11815729Y-12651775D02*
X11825253Y-12642251D01*
X11825253Y-12642251D02*
X11825253Y-12661299D01*
X11958586Y-12461299D02*
X11977634Y-12461299D01*
X11977634Y-12461299D02*
X11996681Y-12470823D01*
X11996681Y-12470823D02*
X12006205Y-12480347D01*
X12006205Y-12480347D02*
X12015729Y-12499394D01*
X12015729Y-12499394D02*
X12025253Y-12537490D01*
X12025253Y-12537490D02*
X12025253Y-12585109D01*
X12025253Y-12585109D02*
X12015729Y-12623204D01*
X12015729Y-12623204D02*
X12006205Y-12642251D01*
X12006205Y-12642251D02*
X11996681Y-12651775D01*
X11996681Y-12651775D02*
X11977634Y-12661299D01*
X11977634Y-12661299D02*
X11958586Y-12661299D01*
X11958586Y-12661299D02*
X11939539Y-12651775D01*
X11939539Y-12651775D02*
X11930015Y-12642251D01*
X11930015Y-12642251D02*
X11920491Y-12623204D01*
X11920491Y-12623204D02*
X11910967Y-12585109D01*
X11910967Y-12585109D02*
X11910967Y-12537490D01*
X11910967Y-12537490D02*
X11920491Y-12499394D01*
X11920491Y-12499394D02*
X11930015Y-12480347D01*
X11930015Y-12480347D02*
X11939539Y-12470823D01*
X11939539Y-12470823D02*
X11958586Y-12461299D01*
X12149062Y-12461299D02*
X12168110Y-12461299D01*
X12168110Y-12461299D02*
X12187158Y-12470823D01*
X12187158Y-12470823D02*
X12196681Y-12480347D01*
X12196681Y-12480347D02*
X12206205Y-12499394D01*
X12206205Y-12499394D02*
X12215729Y-12537490D01*
X12215729Y-12537490D02*
X12215729Y-12585109D01*
X12215729Y-12585109D02*
X12206205Y-12623204D01*
X12206205Y-12623204D02*
X12196681Y-12642251D01*
X12196681Y-12642251D02*
X12187158Y-12651775D01*
X12187158Y-12651775D02*
X12168110Y-12661299D01*
X12168110Y-12661299D02*
X12149062Y-12661299D01*
X12149062Y-12661299D02*
X12130015Y-12651775D01*
X12130015Y-12651775D02*
X12120491Y-12642251D01*
X12120491Y-12642251D02*
X12110967Y-12623204D01*
X12110967Y-12623204D02*
X12101443Y-12585109D01*
X12101443Y-12585109D02*
X12101443Y-12537490D01*
X12101443Y-12537490D02*
X12110967Y-12499394D01*
X12110967Y-12499394D02*
X12120491Y-12480347D01*
X12120491Y-12480347D02*
X12130015Y-12470823D01*
X12130015Y-12470823D02*
X12149062Y-12461299D01*
X12339539Y-12461299D02*
X12358586Y-12461299D01*
X12358586Y-12461299D02*
X12377634Y-12470823D01*
X12377634Y-12470823D02*
X12387158Y-12480347D01*
X12387158Y-12480347D02*
X12396681Y-12499394D01*
X12396681Y-12499394D02*
X12406205Y-12537490D01*
X12406205Y-12537490D02*
X12406205Y-12585109D01*
X12406205Y-12585109D02*
X12396681Y-12623204D01*
X12396681Y-12623204D02*
X12387158Y-12642251D01*
X12387158Y-12642251D02*
X12377634Y-12651775D01*
X12377634Y-12651775D02*
X12358586Y-12661299D01*
X12358586Y-12661299D02*
X12339539Y-12661299D01*
X12339539Y-12661299D02*
X12320491Y-12651775D01*
X12320491Y-12651775D02*
X12310967Y-12642251D01*
X12310967Y-12642251D02*
X12301443Y-12623204D01*
X12301443Y-12623204D02*
X12291920Y-12585109D01*
X12291920Y-12585109D02*
X12291920Y-12537490D01*
X12291920Y-12537490D02*
X12301443Y-12499394D01*
X12301443Y-12499394D02*
X12310967Y-12480347D01*
X12310967Y-12480347D02*
X12320491Y-12470823D01*
X12320491Y-12470823D02*
X12339539Y-12461299D01*
X12491920Y-12661299D02*
X12491920Y-12527966D01*
X12491920Y-12547013D02*
X12501443Y-12537490D01*
X12501443Y-12537490D02*
X12520491Y-12527966D01*
X12520491Y-12527966D02*
X12549062Y-12527966D01*
X12549062Y-12527966D02*
X12568110Y-12537490D01*
X12568110Y-12537490D02*
X12577634Y-12556537D01*
X12577634Y-12556537D02*
X12577634Y-12661299D01*
X12577634Y-12556537D02*
X12587158Y-12537490D01*
X12587158Y-12537490D02*
X12606205Y-12527966D01*
X12606205Y-12527966D02*
X12634777Y-12527966D01*
X12634777Y-12527966D02*
X12653824Y-12537490D01*
X12653824Y-12537490D02*
X12663348Y-12556537D01*
X12663348Y-12556537D02*
X12663348Y-12661299D01*
X12758586Y-12661299D02*
X12758586Y-12527966D01*
X12758586Y-12547013D02*
X12768110Y-12537490D01*
X12768110Y-12537490D02*
X12787158Y-12527966D01*
X12787158Y-12527966D02*
X12815729Y-12527966D01*
X12815729Y-12527966D02*
X12834777Y-12537490D01*
X12834777Y-12537490D02*
X12844301Y-12556537D01*
X12844301Y-12556537D02*
X12844301Y-12661299D01*
X12844301Y-12556537D02*
X12853824Y-12537490D01*
X12853824Y-12537490D02*
X12872872Y-12527966D01*
X12872872Y-12527966D02*
X12901443Y-12527966D01*
X12901443Y-12527966D02*
X12920491Y-12537490D01*
X12920491Y-12537490D02*
X12930015Y-12556537D01*
X12930015Y-12556537D02*
X12930015Y-12661299D01*
X13320491Y-12451775D02*
X13149063Y-12708918D01*
X13577634Y-12461299D02*
X13596682Y-12461299D01*
X13596682Y-12461299D02*
X13615729Y-12470823D01*
X13615729Y-12470823D02*
X13625253Y-12480347D01*
X13625253Y-12480347D02*
X13634777Y-12499394D01*
X13634777Y-12499394D02*
X13644301Y-12537490D01*
X13644301Y-12537490D02*
X13644301Y-12585109D01*
X13644301Y-12585109D02*
X13634777Y-12623204D01*
X13634777Y-12623204D02*
X13625253Y-12642251D01*
X13625253Y-12642251D02*
X13615729Y-12651775D01*
X13615729Y-12651775D02*
X13596682Y-12661299D01*
X13596682Y-12661299D02*
X13577634Y-12661299D01*
X13577634Y-12661299D02*
X13558586Y-12651775D01*
X13558586Y-12651775D02*
X13549063Y-12642251D01*
X13549063Y-12642251D02*
X13539539Y-12623204D01*
X13539539Y-12623204D02*
X13530015Y-12585109D01*
X13530015Y-12585109D02*
X13530015Y-12537490D01*
X13530015Y-12537490D02*
X13539539Y-12499394D01*
X13539539Y-12499394D02*
X13549063Y-12480347D01*
X13549063Y-12480347D02*
X13558586Y-12470823D01*
X13558586Y-12470823D02*
X13577634Y-12461299D01*
X13730015Y-12642251D02*
X13739539Y-12651775D01*
X13739539Y-12651775D02*
X13730015Y-12661299D01*
X13730015Y-12661299D02*
X13720491Y-12651775D01*
X13720491Y-12651775D02*
X13730015Y-12642251D01*
X13730015Y-12642251D02*
X13730015Y-12661299D01*
X13863348Y-12461299D02*
X13882396Y-12461299D01*
X13882396Y-12461299D02*
X13901444Y-12470823D01*
X13901444Y-12470823D02*
X13910967Y-12480347D01*
X13910967Y-12480347D02*
X13920491Y-12499394D01*
X13920491Y-12499394D02*
X13930015Y-12537490D01*
X13930015Y-12537490D02*
X13930015Y-12585109D01*
X13930015Y-12585109D02*
X13920491Y-12623204D01*
X13920491Y-12623204D02*
X13910967Y-12642251D01*
X13910967Y-12642251D02*
X13901444Y-12651775D01*
X13901444Y-12651775D02*
X13882396Y-12661299D01*
X13882396Y-12661299D02*
X13863348Y-12661299D01*
X13863348Y-12661299D02*
X13844301Y-12651775D01*
X13844301Y-12651775D02*
X13834777Y-12642251D01*
X13834777Y-12642251D02*
X13825253Y-12623204D01*
X13825253Y-12623204D02*
X13815729Y-12585109D01*
X13815729Y-12585109D02*
X13815729Y-12537490D01*
X13815729Y-12537490D02*
X13825253Y-12499394D01*
X13825253Y-12499394D02*
X13834777Y-12480347D01*
X13834777Y-12480347D02*
X13844301Y-12470823D01*
X13844301Y-12470823D02*
X13863348Y-12461299D01*
X13996682Y-12461299D02*
X14120491Y-12461299D01*
X14120491Y-12461299D02*
X14053824Y-12537490D01*
X14053824Y-12537490D02*
X14082396Y-12537490D01*
X14082396Y-12537490D02*
X14101444Y-12547013D01*
X14101444Y-12547013D02*
X14110967Y-12556537D01*
X14110967Y-12556537D02*
X14120491Y-12575585D01*
X14120491Y-12575585D02*
X14120491Y-12623204D01*
X14120491Y-12623204D02*
X14110967Y-12642251D01*
X14110967Y-12642251D02*
X14101444Y-12651775D01*
X14101444Y-12651775D02*
X14082396Y-12661299D01*
X14082396Y-12661299D02*
X14025253Y-12661299D01*
X14025253Y-12661299D02*
X14006205Y-12651775D01*
X14006205Y-12651775D02*
X13996682Y-12642251D01*
X14215729Y-12661299D02*
X14253824Y-12661299D01*
X14253824Y-12661299D02*
X14272872Y-12651775D01*
X14272872Y-12651775D02*
X14282396Y-12642251D01*
X14282396Y-12642251D02*
X14301444Y-12613680D01*
X14301444Y-12613680D02*
X14310967Y-12575585D01*
X14310967Y-12575585D02*
X14310967Y-12499394D01*
X14310967Y-12499394D02*
X14301444Y-12480347D01*
X14301444Y-12480347D02*
X14291920Y-12470823D01*
X14291920Y-12470823D02*
X14272872Y-12461299D01*
X14272872Y-12461299D02*
X14234777Y-12461299D01*
X14234777Y-12461299D02*
X14215729Y-12470823D01*
X14215729Y-12470823D02*
X14206205Y-12480347D01*
X14206205Y-12480347D02*
X14196682Y-12499394D01*
X14196682Y-12499394D02*
X14196682Y-12547013D01*
X14196682Y-12547013D02*
X14206205Y-12566061D01*
X14206205Y-12566061D02*
X14215729Y-12575585D01*
X14215729Y-12575585D02*
X14234777Y-12585109D01*
X14234777Y-12585109D02*
X14272872Y-12585109D01*
X14272872Y-12585109D02*
X14291920Y-12575585D01*
X14291920Y-12575585D02*
X14301444Y-12566061D01*
X14301444Y-12566061D02*
X14310967Y-12547013D01*
X14482396Y-12527966D02*
X14482396Y-12661299D01*
X14434777Y-12451775D02*
X14387158Y-12594632D01*
X14387158Y-12594632D02*
X14510967Y-12594632D01*
X14577634Y-12461299D02*
X14577634Y-12499394D01*
X14653825Y-12461299D02*
X14653825Y-12499394D01*
X14949063Y-12737490D02*
X14939539Y-12727966D01*
X14939539Y-12727966D02*
X14920491Y-12699394D01*
X14920491Y-12699394D02*
X14910967Y-12680347D01*
X14910967Y-12680347D02*
X14901444Y-12651775D01*
X14901444Y-12651775D02*
X14891920Y-12604156D01*
X14891920Y-12604156D02*
X14891920Y-12566061D01*
X14891920Y-12566061D02*
X14901444Y-12518442D01*
X14901444Y-12518442D02*
X14910967Y-12489871D01*
X14910967Y-12489871D02*
X14920491Y-12470823D01*
X14920491Y-12470823D02*
X14939539Y-12442251D01*
X14939539Y-12442251D02*
X14949063Y-12432728D01*
X15130015Y-12661299D02*
X15015729Y-12661299D01*
X15072872Y-12661299D02*
X15072872Y-12461299D01*
X15072872Y-12461299D02*
X15053825Y-12489871D01*
X15053825Y-12489871D02*
X15034777Y-12508918D01*
X15034777Y-12508918D02*
X15015729Y-12518442D01*
X15196682Y-12461299D02*
X15320491Y-12461299D01*
X15320491Y-12461299D02*
X15253825Y-12537490D01*
X15253825Y-12537490D02*
X15282396Y-12537490D01*
X15282396Y-12537490D02*
X15301444Y-12547013D01*
X15301444Y-12547013D02*
X15310967Y-12556537D01*
X15310967Y-12556537D02*
X15320491Y-12575585D01*
X15320491Y-12575585D02*
X15320491Y-12623204D01*
X15320491Y-12623204D02*
X15310967Y-12642251D01*
X15310967Y-12642251D02*
X15301444Y-12651775D01*
X15301444Y-12651775D02*
X15282396Y-12661299D01*
X15282396Y-12661299D02*
X15225253Y-12661299D01*
X15225253Y-12661299D02*
X15206206Y-12651775D01*
X15206206Y-12651775D02*
X15196682Y-12642251D01*
X15558587Y-12661299D02*
X15558587Y-12461299D01*
X15644301Y-12661299D02*
X15644301Y-12556537D01*
X15644301Y-12556537D02*
X15634777Y-12537490D01*
X15634777Y-12537490D02*
X15615729Y-12527966D01*
X15615729Y-12527966D02*
X15587158Y-12527966D01*
X15587158Y-12527966D02*
X15568110Y-12537490D01*
X15568110Y-12537490D02*
X15558587Y-12547013D01*
X15768110Y-12661299D02*
X15749063Y-12651775D01*
X15749063Y-12651775D02*
X15739539Y-12642251D01*
X15739539Y-12642251D02*
X15730015Y-12623204D01*
X15730015Y-12623204D02*
X15730015Y-12566061D01*
X15730015Y-12566061D02*
X15739539Y-12547013D01*
X15739539Y-12547013D02*
X15749063Y-12537490D01*
X15749063Y-12537490D02*
X15768110Y-12527966D01*
X15768110Y-12527966D02*
X15796682Y-12527966D01*
X15796682Y-12527966D02*
X15815729Y-12537490D01*
X15815729Y-12537490D02*
X15825253Y-12547013D01*
X15825253Y-12547013D02*
X15834777Y-12566061D01*
X15834777Y-12566061D02*
X15834777Y-12623204D01*
X15834777Y-12623204D02*
X15825253Y-12642251D01*
X15825253Y-12642251D02*
X15815729Y-12651775D01*
X15815729Y-12651775D02*
X15796682Y-12661299D01*
X15796682Y-12661299D02*
X15768110Y-12661299D01*
X15949063Y-12661299D02*
X15930015Y-12651775D01*
X15930015Y-12651775D02*
X15920491Y-12632728D01*
X15920491Y-12632728D02*
X15920491Y-12461299D01*
X16101444Y-12651775D02*
X16082396Y-12661299D01*
X16082396Y-12661299D02*
X16044301Y-12661299D01*
X16044301Y-12661299D02*
X16025253Y-12651775D01*
X16025253Y-12651775D02*
X16015729Y-12632728D01*
X16015729Y-12632728D02*
X16015729Y-12556537D01*
X16015729Y-12556537D02*
X16025253Y-12537490D01*
X16025253Y-12537490D02*
X16044301Y-12527966D01*
X16044301Y-12527966D02*
X16082396Y-12527966D01*
X16082396Y-12527966D02*
X16101444Y-12537490D01*
X16101444Y-12537490D02*
X16110968Y-12556537D01*
X16110968Y-12556537D02*
X16110968Y-12575585D01*
X16110968Y-12575585D02*
X16015729Y-12594632D01*
X16187158Y-12651775D02*
X16206206Y-12661299D01*
X16206206Y-12661299D02*
X16244301Y-12661299D01*
X16244301Y-12661299D02*
X16263349Y-12651775D01*
X16263349Y-12651775D02*
X16272872Y-12632728D01*
X16272872Y-12632728D02*
X16272872Y-12623204D01*
X16272872Y-12623204D02*
X16263349Y-12604156D01*
X16263349Y-12604156D02*
X16244301Y-12594632D01*
X16244301Y-12594632D02*
X16215729Y-12594632D01*
X16215729Y-12594632D02*
X16196682Y-12585109D01*
X16196682Y-12585109D02*
X16187158Y-12566061D01*
X16187158Y-12566061D02*
X16187158Y-12556537D01*
X16187158Y-12556537D02*
X16196682Y-12537490D01*
X16196682Y-12537490D02*
X16215729Y-12527966D01*
X16215729Y-12527966D02*
X16244301Y-12527966D01*
X16244301Y-12527966D02*
X16263349Y-12537490D01*
X16339539Y-12737490D02*
X16349063Y-12727966D01*
X16349063Y-12727966D02*
X16368110Y-12699394D01*
X16368110Y-12699394D02*
X16377634Y-12680347D01*
X16377634Y-12680347D02*
X16387158Y-12651775D01*
X16387158Y-12651775D02*
X16396682Y-12604156D01*
X16396682Y-12604156D02*
X16396682Y-12566061D01*
X16396682Y-12566061D02*
X16387158Y-12518442D01*
X16387158Y-12518442D02*
X16377634Y-12489871D01*
X16377634Y-12489871D02*
X16368110Y-12470823D01*
X16368110Y-12470823D02*
X16349063Y-12442251D01*
X16349063Y-12442251D02*
X16339539Y-12432728D01*
D14*
X11356427Y-12876242D02*
X11356427Y-12791389D01*
X11271573Y-12791389D01*
X11271573Y-12876242D01*
X11356427Y-12876242D01*
D10*
X11739539Y-12925299D02*
X11625253Y-12925299D01*
X11682396Y-12925299D02*
X11682396Y-12725299D01*
X11682396Y-12725299D02*
X11663348Y-12753871D01*
X11663348Y-12753871D02*
X11644300Y-12772918D01*
X11644300Y-12772918D02*
X11625253Y-12782442D01*
X11825253Y-12906251D02*
X11834777Y-12915775D01*
X11834777Y-12915775D02*
X11825253Y-12925299D01*
X11825253Y-12925299D02*
X11815729Y-12915775D01*
X11815729Y-12915775D02*
X11825253Y-12906251D01*
X11825253Y-12906251D02*
X11825253Y-12925299D01*
X11910967Y-12744347D02*
X11920491Y-12734823D01*
X11920491Y-12734823D02*
X11939539Y-12725299D01*
X11939539Y-12725299D02*
X11987158Y-12725299D01*
X11987158Y-12725299D02*
X12006205Y-12734823D01*
X12006205Y-12734823D02*
X12015729Y-12744347D01*
X12015729Y-12744347D02*
X12025253Y-12763394D01*
X12025253Y-12763394D02*
X12025253Y-12782442D01*
X12025253Y-12782442D02*
X12015729Y-12811013D01*
X12015729Y-12811013D02*
X11901443Y-12925299D01*
X11901443Y-12925299D02*
X12025253Y-12925299D01*
X12149062Y-12725299D02*
X12168110Y-12725299D01*
X12168110Y-12725299D02*
X12187158Y-12734823D01*
X12187158Y-12734823D02*
X12196681Y-12744347D01*
X12196681Y-12744347D02*
X12206205Y-12763394D01*
X12206205Y-12763394D02*
X12215729Y-12801490D01*
X12215729Y-12801490D02*
X12215729Y-12849109D01*
X12215729Y-12849109D02*
X12206205Y-12887204D01*
X12206205Y-12887204D02*
X12196681Y-12906251D01*
X12196681Y-12906251D02*
X12187158Y-12915775D01*
X12187158Y-12915775D02*
X12168110Y-12925299D01*
X12168110Y-12925299D02*
X12149062Y-12925299D01*
X12149062Y-12925299D02*
X12130015Y-12915775D01*
X12130015Y-12915775D02*
X12120491Y-12906251D01*
X12120491Y-12906251D02*
X12110967Y-12887204D01*
X12110967Y-12887204D02*
X12101443Y-12849109D01*
X12101443Y-12849109D02*
X12101443Y-12801490D01*
X12101443Y-12801490D02*
X12110967Y-12763394D01*
X12110967Y-12763394D02*
X12120491Y-12744347D01*
X12120491Y-12744347D02*
X12130015Y-12734823D01*
X12130015Y-12734823D02*
X12149062Y-12725299D01*
X12339539Y-12725299D02*
X12358586Y-12725299D01*
X12358586Y-12725299D02*
X12377634Y-12734823D01*
X12377634Y-12734823D02*
X12387158Y-12744347D01*
X12387158Y-12744347D02*
X12396681Y-12763394D01*
X12396681Y-12763394D02*
X12406205Y-12801490D01*
X12406205Y-12801490D02*
X12406205Y-12849109D01*
X12406205Y-12849109D02*
X12396681Y-12887204D01*
X12396681Y-12887204D02*
X12387158Y-12906251D01*
X12387158Y-12906251D02*
X12377634Y-12915775D01*
X12377634Y-12915775D02*
X12358586Y-12925299D01*
X12358586Y-12925299D02*
X12339539Y-12925299D01*
X12339539Y-12925299D02*
X12320491Y-12915775D01*
X12320491Y-12915775D02*
X12310967Y-12906251D01*
X12310967Y-12906251D02*
X12301443Y-12887204D01*
X12301443Y-12887204D02*
X12291920Y-12849109D01*
X12291920Y-12849109D02*
X12291920Y-12801490D01*
X12291920Y-12801490D02*
X12301443Y-12763394D01*
X12301443Y-12763394D02*
X12310967Y-12744347D01*
X12310967Y-12744347D02*
X12320491Y-12734823D01*
X12320491Y-12734823D02*
X12339539Y-12725299D01*
X12491920Y-12925299D02*
X12491920Y-12791966D01*
X12491920Y-12811013D02*
X12501443Y-12801490D01*
X12501443Y-12801490D02*
X12520491Y-12791966D01*
X12520491Y-12791966D02*
X12549062Y-12791966D01*
X12549062Y-12791966D02*
X12568110Y-12801490D01*
X12568110Y-12801490D02*
X12577634Y-12820537D01*
X12577634Y-12820537D02*
X12577634Y-12925299D01*
X12577634Y-12820537D02*
X12587158Y-12801490D01*
X12587158Y-12801490D02*
X12606205Y-12791966D01*
X12606205Y-12791966D02*
X12634777Y-12791966D01*
X12634777Y-12791966D02*
X12653824Y-12801490D01*
X12653824Y-12801490D02*
X12663348Y-12820537D01*
X12663348Y-12820537D02*
X12663348Y-12925299D01*
X12758586Y-12925299D02*
X12758586Y-12791966D01*
X12758586Y-12811013D02*
X12768110Y-12801490D01*
X12768110Y-12801490D02*
X12787158Y-12791966D01*
X12787158Y-12791966D02*
X12815729Y-12791966D01*
X12815729Y-12791966D02*
X12834777Y-12801490D01*
X12834777Y-12801490D02*
X12844301Y-12820537D01*
X12844301Y-12820537D02*
X12844301Y-12925299D01*
X12844301Y-12820537D02*
X12853824Y-12801490D01*
X12853824Y-12801490D02*
X12872872Y-12791966D01*
X12872872Y-12791966D02*
X12901443Y-12791966D01*
X12901443Y-12791966D02*
X12920491Y-12801490D01*
X12920491Y-12801490D02*
X12930015Y-12820537D01*
X12930015Y-12820537D02*
X12930015Y-12925299D01*
X13320491Y-12715775D02*
X13149063Y-12972918D01*
X13577634Y-12725299D02*
X13596682Y-12725299D01*
X13596682Y-12725299D02*
X13615729Y-12734823D01*
X13615729Y-12734823D02*
X13625253Y-12744347D01*
X13625253Y-12744347D02*
X13634777Y-12763394D01*
X13634777Y-12763394D02*
X13644301Y-12801490D01*
X13644301Y-12801490D02*
X13644301Y-12849109D01*
X13644301Y-12849109D02*
X13634777Y-12887204D01*
X13634777Y-12887204D02*
X13625253Y-12906251D01*
X13625253Y-12906251D02*
X13615729Y-12915775D01*
X13615729Y-12915775D02*
X13596682Y-12925299D01*
X13596682Y-12925299D02*
X13577634Y-12925299D01*
X13577634Y-12925299D02*
X13558586Y-12915775D01*
X13558586Y-12915775D02*
X13549063Y-12906251D01*
X13549063Y-12906251D02*
X13539539Y-12887204D01*
X13539539Y-12887204D02*
X13530015Y-12849109D01*
X13530015Y-12849109D02*
X13530015Y-12801490D01*
X13530015Y-12801490D02*
X13539539Y-12763394D01*
X13539539Y-12763394D02*
X13549063Y-12744347D01*
X13549063Y-12744347D02*
X13558586Y-12734823D01*
X13558586Y-12734823D02*
X13577634Y-12725299D01*
X13730015Y-12906251D02*
X13739539Y-12915775D01*
X13739539Y-12915775D02*
X13730015Y-12925299D01*
X13730015Y-12925299D02*
X13720491Y-12915775D01*
X13720491Y-12915775D02*
X13730015Y-12906251D01*
X13730015Y-12906251D02*
X13730015Y-12925299D01*
X13863348Y-12725299D02*
X13882396Y-12725299D01*
X13882396Y-12725299D02*
X13901444Y-12734823D01*
X13901444Y-12734823D02*
X13910967Y-12744347D01*
X13910967Y-12744347D02*
X13920491Y-12763394D01*
X13920491Y-12763394D02*
X13930015Y-12801490D01*
X13930015Y-12801490D02*
X13930015Y-12849109D01*
X13930015Y-12849109D02*
X13920491Y-12887204D01*
X13920491Y-12887204D02*
X13910967Y-12906251D01*
X13910967Y-12906251D02*
X13901444Y-12915775D01*
X13901444Y-12915775D02*
X13882396Y-12925299D01*
X13882396Y-12925299D02*
X13863348Y-12925299D01*
X13863348Y-12925299D02*
X13844301Y-12915775D01*
X13844301Y-12915775D02*
X13834777Y-12906251D01*
X13834777Y-12906251D02*
X13825253Y-12887204D01*
X13825253Y-12887204D02*
X13815729Y-12849109D01*
X13815729Y-12849109D02*
X13815729Y-12801490D01*
X13815729Y-12801490D02*
X13825253Y-12763394D01*
X13825253Y-12763394D02*
X13834777Y-12744347D01*
X13834777Y-12744347D02*
X13844301Y-12734823D01*
X13844301Y-12734823D02*
X13863348Y-12725299D01*
X14101444Y-12791966D02*
X14101444Y-12925299D01*
X14053824Y-12715775D02*
X14006205Y-12858632D01*
X14006205Y-12858632D02*
X14130015Y-12858632D01*
X14187158Y-12725299D02*
X14320491Y-12725299D01*
X14320491Y-12725299D02*
X14234777Y-12925299D01*
X14387158Y-12744347D02*
X14396682Y-12734823D01*
X14396682Y-12734823D02*
X14415729Y-12725299D01*
X14415729Y-12725299D02*
X14463348Y-12725299D01*
X14463348Y-12725299D02*
X14482396Y-12734823D01*
X14482396Y-12734823D02*
X14491920Y-12744347D01*
X14491920Y-12744347D02*
X14501444Y-12763394D01*
X14501444Y-12763394D02*
X14501444Y-12782442D01*
X14501444Y-12782442D02*
X14491920Y-12811013D01*
X14491920Y-12811013D02*
X14377634Y-12925299D01*
X14377634Y-12925299D02*
X14501444Y-12925299D01*
X14577634Y-12725299D02*
X14577634Y-12763394D01*
X14653825Y-12725299D02*
X14653825Y-12763394D01*
X14949063Y-13001490D02*
X14939539Y-12991966D01*
X14939539Y-12991966D02*
X14920491Y-12963394D01*
X14920491Y-12963394D02*
X14910967Y-12944347D01*
X14910967Y-12944347D02*
X14901444Y-12915775D01*
X14901444Y-12915775D02*
X14891920Y-12868156D01*
X14891920Y-12868156D02*
X14891920Y-12830061D01*
X14891920Y-12830061D02*
X14901444Y-12782442D01*
X14901444Y-12782442D02*
X14910967Y-12753871D01*
X14910967Y-12753871D02*
X14920491Y-12734823D01*
X14920491Y-12734823D02*
X14939539Y-12706251D01*
X14939539Y-12706251D02*
X14949063Y-12696728D01*
X15015729Y-12744347D02*
X15025253Y-12734823D01*
X15025253Y-12734823D02*
X15044301Y-12725299D01*
X15044301Y-12725299D02*
X15091920Y-12725299D01*
X15091920Y-12725299D02*
X15110967Y-12734823D01*
X15110967Y-12734823D02*
X15120491Y-12744347D01*
X15120491Y-12744347D02*
X15130015Y-12763394D01*
X15130015Y-12763394D02*
X15130015Y-12782442D01*
X15130015Y-12782442D02*
X15120491Y-12811013D01*
X15120491Y-12811013D02*
X15006206Y-12925299D01*
X15006206Y-12925299D02*
X15130015Y-12925299D01*
X15368110Y-12925299D02*
X15368110Y-12725299D01*
X15453825Y-12925299D02*
X15453825Y-12820537D01*
X15453825Y-12820537D02*
X15444301Y-12801490D01*
X15444301Y-12801490D02*
X15425253Y-12791966D01*
X15425253Y-12791966D02*
X15396682Y-12791966D01*
X15396682Y-12791966D02*
X15377634Y-12801490D01*
X15377634Y-12801490D02*
X15368110Y-12811013D01*
X15577634Y-12925299D02*
X15558587Y-12915775D01*
X15558587Y-12915775D02*
X15549063Y-12906251D01*
X15549063Y-12906251D02*
X15539539Y-12887204D01*
X15539539Y-12887204D02*
X15539539Y-12830061D01*
X15539539Y-12830061D02*
X15549063Y-12811013D01*
X15549063Y-12811013D02*
X15558587Y-12801490D01*
X15558587Y-12801490D02*
X15577634Y-12791966D01*
X15577634Y-12791966D02*
X15606206Y-12791966D01*
X15606206Y-12791966D02*
X15625253Y-12801490D01*
X15625253Y-12801490D02*
X15634777Y-12811013D01*
X15634777Y-12811013D02*
X15644301Y-12830061D01*
X15644301Y-12830061D02*
X15644301Y-12887204D01*
X15644301Y-12887204D02*
X15634777Y-12906251D01*
X15634777Y-12906251D02*
X15625253Y-12915775D01*
X15625253Y-12915775D02*
X15606206Y-12925299D01*
X15606206Y-12925299D02*
X15577634Y-12925299D01*
X15758587Y-12925299D02*
X15739539Y-12915775D01*
X15739539Y-12915775D02*
X15730015Y-12896728D01*
X15730015Y-12896728D02*
X15730015Y-12725299D01*
X15910968Y-12915775D02*
X15891920Y-12925299D01*
X15891920Y-12925299D02*
X15853825Y-12925299D01*
X15853825Y-12925299D02*
X15834777Y-12915775D01*
X15834777Y-12915775D02*
X15825253Y-12896728D01*
X15825253Y-12896728D02*
X15825253Y-12820537D01*
X15825253Y-12820537D02*
X15834777Y-12801490D01*
X15834777Y-12801490D02*
X15853825Y-12791966D01*
X15853825Y-12791966D02*
X15891920Y-12791966D01*
X15891920Y-12791966D02*
X15910968Y-12801490D01*
X15910968Y-12801490D02*
X15920491Y-12820537D01*
X15920491Y-12820537D02*
X15920491Y-12839585D01*
X15920491Y-12839585D02*
X15825253Y-12858632D01*
X15996682Y-12915775D02*
X16015729Y-12925299D01*
X16015729Y-12925299D02*
X16053825Y-12925299D01*
X16053825Y-12925299D02*
X16072872Y-12915775D01*
X16072872Y-12915775D02*
X16082396Y-12896728D01*
X16082396Y-12896728D02*
X16082396Y-12887204D01*
X16082396Y-12887204D02*
X16072872Y-12868156D01*
X16072872Y-12868156D02*
X16053825Y-12858632D01*
X16053825Y-12858632D02*
X16025253Y-12858632D01*
X16025253Y-12858632D02*
X16006206Y-12849109D01*
X16006206Y-12849109D02*
X15996682Y-12830061D01*
X15996682Y-12830061D02*
X15996682Y-12820537D01*
X15996682Y-12820537D02*
X16006206Y-12801490D01*
X16006206Y-12801490D02*
X16025253Y-12791966D01*
X16025253Y-12791966D02*
X16053825Y-12791966D01*
X16053825Y-12791966D02*
X16072872Y-12801490D01*
X16149063Y-13001490D02*
X16158587Y-12991966D01*
X16158587Y-12991966D02*
X16177634Y-12963394D01*
X16177634Y-12963394D02*
X16187158Y-12944347D01*
X16187158Y-12944347D02*
X16196682Y-12915775D01*
X16196682Y-12915775D02*
X16206206Y-12868156D01*
X16206206Y-12868156D02*
X16206206Y-12830061D01*
X16206206Y-12830061D02*
X16196682Y-12782442D01*
X16196682Y-12782442D02*
X16187158Y-12753871D01*
X16187158Y-12753871D02*
X16177634Y-12734823D01*
X16177634Y-12734823D02*
X16158587Y-12706251D01*
X16158587Y-12706251D02*
X16149063Y-12696728D01*
D15*
X11309000Y-13162815D02*
X11374000Y-13097815D01*
X11309000Y-13032815D01*
X11244000Y-13097815D01*
X11309000Y-13162815D01*
D10*
X11739539Y-13189299D02*
X11625253Y-13189299D01*
X11682396Y-13189299D02*
X11682396Y-12989299D01*
X11682396Y-12989299D02*
X11663348Y-13017871D01*
X11663348Y-13017871D02*
X11644300Y-13036918D01*
X11644300Y-13036918D02*
X11625253Y-13046442D01*
X11825253Y-13170251D02*
X11834777Y-13179775D01*
X11834777Y-13179775D02*
X11825253Y-13189299D01*
X11825253Y-13189299D02*
X11815729Y-13179775D01*
X11815729Y-13179775D02*
X11825253Y-13170251D01*
X11825253Y-13170251D02*
X11825253Y-13189299D01*
X11901443Y-12989299D02*
X12025253Y-12989299D01*
X12025253Y-12989299D02*
X11958586Y-13065490D01*
X11958586Y-13065490D02*
X11987158Y-13065490D01*
X11987158Y-13065490D02*
X12006205Y-13075013D01*
X12006205Y-13075013D02*
X12015729Y-13084537D01*
X12015729Y-13084537D02*
X12025253Y-13103585D01*
X12025253Y-13103585D02*
X12025253Y-13151204D01*
X12025253Y-13151204D02*
X12015729Y-13170251D01*
X12015729Y-13170251D02*
X12006205Y-13179775D01*
X12006205Y-13179775D02*
X11987158Y-13189299D01*
X11987158Y-13189299D02*
X11930015Y-13189299D01*
X11930015Y-13189299D02*
X11910967Y-13179775D01*
X11910967Y-13179775D02*
X11901443Y-13170251D01*
X12149062Y-12989299D02*
X12168110Y-12989299D01*
X12168110Y-12989299D02*
X12187158Y-12998823D01*
X12187158Y-12998823D02*
X12196681Y-13008347D01*
X12196681Y-13008347D02*
X12206205Y-13027394D01*
X12206205Y-13027394D02*
X12215729Y-13065490D01*
X12215729Y-13065490D02*
X12215729Y-13113109D01*
X12215729Y-13113109D02*
X12206205Y-13151204D01*
X12206205Y-13151204D02*
X12196681Y-13170251D01*
X12196681Y-13170251D02*
X12187158Y-13179775D01*
X12187158Y-13179775D02*
X12168110Y-13189299D01*
X12168110Y-13189299D02*
X12149062Y-13189299D01*
X12149062Y-13189299D02*
X12130015Y-13179775D01*
X12130015Y-13179775D02*
X12120491Y-13170251D01*
X12120491Y-13170251D02*
X12110967Y-13151204D01*
X12110967Y-13151204D02*
X12101443Y-13113109D01*
X12101443Y-13113109D02*
X12101443Y-13065490D01*
X12101443Y-13065490D02*
X12110967Y-13027394D01*
X12110967Y-13027394D02*
X12120491Y-13008347D01*
X12120491Y-13008347D02*
X12130015Y-12998823D01*
X12130015Y-12998823D02*
X12149062Y-12989299D01*
X12339539Y-12989299D02*
X12358586Y-12989299D01*
X12358586Y-12989299D02*
X12377634Y-12998823D01*
X12377634Y-12998823D02*
X12387158Y-13008347D01*
X12387158Y-13008347D02*
X12396681Y-13027394D01*
X12396681Y-13027394D02*
X12406205Y-13065490D01*
X12406205Y-13065490D02*
X12406205Y-13113109D01*
X12406205Y-13113109D02*
X12396681Y-13151204D01*
X12396681Y-13151204D02*
X12387158Y-13170251D01*
X12387158Y-13170251D02*
X12377634Y-13179775D01*
X12377634Y-13179775D02*
X12358586Y-13189299D01*
X12358586Y-13189299D02*
X12339539Y-13189299D01*
X12339539Y-13189299D02*
X12320491Y-13179775D01*
X12320491Y-13179775D02*
X12310967Y-13170251D01*
X12310967Y-13170251D02*
X12301443Y-13151204D01*
X12301443Y-13151204D02*
X12291920Y-13113109D01*
X12291920Y-13113109D02*
X12291920Y-13065490D01*
X12291920Y-13065490D02*
X12301443Y-13027394D01*
X12301443Y-13027394D02*
X12310967Y-13008347D01*
X12310967Y-13008347D02*
X12320491Y-12998823D01*
X12320491Y-12998823D02*
X12339539Y-12989299D01*
X12491920Y-13189299D02*
X12491920Y-13055966D01*
X12491920Y-13075013D02*
X12501443Y-13065490D01*
X12501443Y-13065490D02*
X12520491Y-13055966D01*
X12520491Y-13055966D02*
X12549062Y-13055966D01*
X12549062Y-13055966D02*
X12568110Y-13065490D01*
X12568110Y-13065490D02*
X12577634Y-13084537D01*
X12577634Y-13084537D02*
X12577634Y-13189299D01*
X12577634Y-13084537D02*
X12587158Y-13065490D01*
X12587158Y-13065490D02*
X12606205Y-13055966D01*
X12606205Y-13055966D02*
X12634777Y-13055966D01*
X12634777Y-13055966D02*
X12653824Y-13065490D01*
X12653824Y-13065490D02*
X12663348Y-13084537D01*
X12663348Y-13084537D02*
X12663348Y-13189299D01*
X12758586Y-13189299D02*
X12758586Y-13055966D01*
X12758586Y-13075013D02*
X12768110Y-13065490D01*
X12768110Y-13065490D02*
X12787158Y-13055966D01*
X12787158Y-13055966D02*
X12815729Y-13055966D01*
X12815729Y-13055966D02*
X12834777Y-13065490D01*
X12834777Y-13065490D02*
X12844301Y-13084537D01*
X12844301Y-13084537D02*
X12844301Y-13189299D01*
X12844301Y-13084537D02*
X12853824Y-13065490D01*
X12853824Y-13065490D02*
X12872872Y-13055966D01*
X12872872Y-13055966D02*
X12901443Y-13055966D01*
X12901443Y-13055966D02*
X12920491Y-13065490D01*
X12920491Y-13065490D02*
X12930015Y-13084537D01*
X12930015Y-13084537D02*
X12930015Y-13189299D01*
X13320491Y-12979775D02*
X13149063Y-13236918D01*
X13577634Y-12989299D02*
X13596682Y-12989299D01*
X13596682Y-12989299D02*
X13615729Y-12998823D01*
X13615729Y-12998823D02*
X13625253Y-13008347D01*
X13625253Y-13008347D02*
X13634777Y-13027394D01*
X13634777Y-13027394D02*
X13644301Y-13065490D01*
X13644301Y-13065490D02*
X13644301Y-13113109D01*
X13644301Y-13113109D02*
X13634777Y-13151204D01*
X13634777Y-13151204D02*
X13625253Y-13170251D01*
X13625253Y-13170251D02*
X13615729Y-13179775D01*
X13615729Y-13179775D02*
X13596682Y-13189299D01*
X13596682Y-13189299D02*
X13577634Y-13189299D01*
X13577634Y-13189299D02*
X13558586Y-13179775D01*
X13558586Y-13179775D02*
X13549063Y-13170251D01*
X13549063Y-13170251D02*
X13539539Y-13151204D01*
X13539539Y-13151204D02*
X13530015Y-13113109D01*
X13530015Y-13113109D02*
X13530015Y-13065490D01*
X13530015Y-13065490D02*
X13539539Y-13027394D01*
X13539539Y-13027394D02*
X13549063Y-13008347D01*
X13549063Y-13008347D02*
X13558586Y-12998823D01*
X13558586Y-12998823D02*
X13577634Y-12989299D01*
X13730015Y-13170251D02*
X13739539Y-13179775D01*
X13739539Y-13179775D02*
X13730015Y-13189299D01*
X13730015Y-13189299D02*
X13720491Y-13179775D01*
X13720491Y-13179775D02*
X13730015Y-13170251D01*
X13730015Y-13170251D02*
X13730015Y-13189299D01*
X13863348Y-12989299D02*
X13882396Y-12989299D01*
X13882396Y-12989299D02*
X13901444Y-12998823D01*
X13901444Y-12998823D02*
X13910967Y-13008347D01*
X13910967Y-13008347D02*
X13920491Y-13027394D01*
X13920491Y-13027394D02*
X13930015Y-13065490D01*
X13930015Y-13065490D02*
X13930015Y-13113109D01*
X13930015Y-13113109D02*
X13920491Y-13151204D01*
X13920491Y-13151204D02*
X13910967Y-13170251D01*
X13910967Y-13170251D02*
X13901444Y-13179775D01*
X13901444Y-13179775D02*
X13882396Y-13189299D01*
X13882396Y-13189299D02*
X13863348Y-13189299D01*
X13863348Y-13189299D02*
X13844301Y-13179775D01*
X13844301Y-13179775D02*
X13834777Y-13170251D01*
X13834777Y-13170251D02*
X13825253Y-13151204D01*
X13825253Y-13151204D02*
X13815729Y-13113109D01*
X13815729Y-13113109D02*
X13815729Y-13065490D01*
X13815729Y-13065490D02*
X13825253Y-13027394D01*
X13825253Y-13027394D02*
X13834777Y-13008347D01*
X13834777Y-13008347D02*
X13844301Y-12998823D01*
X13844301Y-12998823D02*
X13863348Y-12989299D01*
X14110967Y-12989299D02*
X14015729Y-12989299D01*
X14015729Y-12989299D02*
X14006205Y-13084537D01*
X14006205Y-13084537D02*
X14015729Y-13075013D01*
X14015729Y-13075013D02*
X14034777Y-13065490D01*
X14034777Y-13065490D02*
X14082396Y-13065490D01*
X14082396Y-13065490D02*
X14101444Y-13075013D01*
X14101444Y-13075013D02*
X14110967Y-13084537D01*
X14110967Y-13084537D02*
X14120491Y-13103585D01*
X14120491Y-13103585D02*
X14120491Y-13151204D01*
X14120491Y-13151204D02*
X14110967Y-13170251D01*
X14110967Y-13170251D02*
X14101444Y-13179775D01*
X14101444Y-13179775D02*
X14082396Y-13189299D01*
X14082396Y-13189299D02*
X14034777Y-13189299D01*
X14034777Y-13189299D02*
X14015729Y-13179775D01*
X14015729Y-13179775D02*
X14006205Y-13170251D01*
X14310967Y-13189299D02*
X14196682Y-13189299D01*
X14253824Y-13189299D02*
X14253824Y-12989299D01*
X14253824Y-12989299D02*
X14234777Y-13017871D01*
X14234777Y-13017871D02*
X14215729Y-13036918D01*
X14215729Y-13036918D02*
X14196682Y-13046442D01*
X14387158Y-13008347D02*
X14396682Y-12998823D01*
X14396682Y-12998823D02*
X14415729Y-12989299D01*
X14415729Y-12989299D02*
X14463348Y-12989299D01*
X14463348Y-12989299D02*
X14482396Y-12998823D01*
X14482396Y-12998823D02*
X14491920Y-13008347D01*
X14491920Y-13008347D02*
X14501444Y-13027394D01*
X14501444Y-13027394D02*
X14501444Y-13046442D01*
X14501444Y-13046442D02*
X14491920Y-13075013D01*
X14491920Y-13075013D02*
X14377634Y-13189299D01*
X14377634Y-13189299D02*
X14501444Y-13189299D01*
X14577634Y-12989299D02*
X14577634Y-13027394D01*
X14653825Y-12989299D02*
X14653825Y-13027394D01*
X14949063Y-13265490D02*
X14939539Y-13255966D01*
X14939539Y-13255966D02*
X14920491Y-13227394D01*
X14920491Y-13227394D02*
X14910967Y-13208347D01*
X14910967Y-13208347D02*
X14901444Y-13179775D01*
X14901444Y-13179775D02*
X14891920Y-13132156D01*
X14891920Y-13132156D02*
X14891920Y-13094061D01*
X14891920Y-13094061D02*
X14901444Y-13046442D01*
X14901444Y-13046442D02*
X14910967Y-13017871D01*
X14910967Y-13017871D02*
X14920491Y-12998823D01*
X14920491Y-12998823D02*
X14939539Y-12970251D01*
X14939539Y-12970251D02*
X14949063Y-12960728D01*
X15130015Y-13189299D02*
X15015729Y-13189299D01*
X15072872Y-13189299D02*
X15072872Y-12989299D01*
X15072872Y-12989299D02*
X15053825Y-13017871D01*
X15053825Y-13017871D02*
X15034777Y-13036918D01*
X15034777Y-13036918D02*
X15015729Y-13046442D01*
X15244301Y-13075013D02*
X15225253Y-13065490D01*
X15225253Y-13065490D02*
X15215729Y-13055966D01*
X15215729Y-13055966D02*
X15206206Y-13036918D01*
X15206206Y-13036918D02*
X15206206Y-13027394D01*
X15206206Y-13027394D02*
X15215729Y-13008347D01*
X15215729Y-13008347D02*
X15225253Y-12998823D01*
X15225253Y-12998823D02*
X15244301Y-12989299D01*
X15244301Y-12989299D02*
X15282396Y-12989299D01*
X15282396Y-12989299D02*
X15301444Y-12998823D01*
X15301444Y-12998823D02*
X15310967Y-13008347D01*
X15310967Y-13008347D02*
X15320491Y-13027394D01*
X15320491Y-13027394D02*
X15320491Y-13036918D01*
X15320491Y-13036918D02*
X15310967Y-13055966D01*
X15310967Y-13055966D02*
X15301444Y-13065490D01*
X15301444Y-13065490D02*
X15282396Y-13075013D01*
X15282396Y-13075013D02*
X15244301Y-13075013D01*
X15244301Y-13075013D02*
X15225253Y-13084537D01*
X15225253Y-13084537D02*
X15215729Y-13094061D01*
X15215729Y-13094061D02*
X15206206Y-13113109D01*
X15206206Y-13113109D02*
X15206206Y-13151204D01*
X15206206Y-13151204D02*
X15215729Y-13170251D01*
X15215729Y-13170251D02*
X15225253Y-13179775D01*
X15225253Y-13179775D02*
X15244301Y-13189299D01*
X15244301Y-13189299D02*
X15282396Y-13189299D01*
X15282396Y-13189299D02*
X15301444Y-13179775D01*
X15301444Y-13179775D02*
X15310967Y-13170251D01*
X15310967Y-13170251D02*
X15320491Y-13151204D01*
X15320491Y-13151204D02*
X15320491Y-13113109D01*
X15320491Y-13113109D02*
X15310967Y-13094061D01*
X15310967Y-13094061D02*
X15301444Y-13084537D01*
X15301444Y-13084537D02*
X15282396Y-13075013D01*
X15558587Y-13189299D02*
X15558587Y-12989299D01*
X15644301Y-13189299D02*
X15644301Y-13084537D01*
X15644301Y-13084537D02*
X15634777Y-13065490D01*
X15634777Y-13065490D02*
X15615729Y-13055966D01*
X15615729Y-13055966D02*
X15587158Y-13055966D01*
X15587158Y-13055966D02*
X15568110Y-13065490D01*
X15568110Y-13065490D02*
X15558587Y-13075013D01*
X15768110Y-13189299D02*
X15749063Y-13179775D01*
X15749063Y-13179775D02*
X15739539Y-13170251D01*
X15739539Y-13170251D02*
X15730015Y-13151204D01*
X15730015Y-13151204D02*
X15730015Y-13094061D01*
X15730015Y-13094061D02*
X15739539Y-13075013D01*
X15739539Y-13075013D02*
X15749063Y-13065490D01*
X15749063Y-13065490D02*
X15768110Y-13055966D01*
X15768110Y-13055966D02*
X15796682Y-13055966D01*
X15796682Y-13055966D02*
X15815729Y-13065490D01*
X15815729Y-13065490D02*
X15825253Y-13075013D01*
X15825253Y-13075013D02*
X15834777Y-13094061D01*
X15834777Y-13094061D02*
X15834777Y-13151204D01*
X15834777Y-13151204D02*
X15825253Y-13170251D01*
X15825253Y-13170251D02*
X15815729Y-13179775D01*
X15815729Y-13179775D02*
X15796682Y-13189299D01*
X15796682Y-13189299D02*
X15768110Y-13189299D01*
X15949063Y-13189299D02*
X15930015Y-13179775D01*
X15930015Y-13179775D02*
X15920491Y-13160728D01*
X15920491Y-13160728D02*
X15920491Y-12989299D01*
X16101444Y-13179775D02*
X16082396Y-13189299D01*
X16082396Y-13189299D02*
X16044301Y-13189299D01*
X16044301Y-13189299D02*
X16025253Y-13179775D01*
X16025253Y-13179775D02*
X16015729Y-13160728D01*
X16015729Y-13160728D02*
X16015729Y-13084537D01*
X16015729Y-13084537D02*
X16025253Y-13065490D01*
X16025253Y-13065490D02*
X16044301Y-13055966D01*
X16044301Y-13055966D02*
X16082396Y-13055966D01*
X16082396Y-13055966D02*
X16101444Y-13065490D01*
X16101444Y-13065490D02*
X16110968Y-13084537D01*
X16110968Y-13084537D02*
X16110968Y-13103585D01*
X16110968Y-13103585D02*
X16015729Y-13122632D01*
X16187158Y-13179775D02*
X16206206Y-13189299D01*
X16206206Y-13189299D02*
X16244301Y-13189299D01*
X16244301Y-13189299D02*
X16263349Y-13179775D01*
X16263349Y-13179775D02*
X16272872Y-13160728D01*
X16272872Y-13160728D02*
X16272872Y-13151204D01*
X16272872Y-13151204D02*
X16263349Y-13132156D01*
X16263349Y-13132156D02*
X16244301Y-13122632D01*
X16244301Y-13122632D02*
X16215729Y-13122632D01*
X16215729Y-13122632D02*
X16196682Y-13113109D01*
X16196682Y-13113109D02*
X16187158Y-13094061D01*
X16187158Y-13094061D02*
X16187158Y-13084537D01*
X16187158Y-13084537D02*
X16196682Y-13065490D01*
X16196682Y-13065490D02*
X16215729Y-13055966D01*
X16215729Y-13055966D02*
X16244301Y-13055966D01*
X16244301Y-13055966D02*
X16263349Y-13065490D01*
X16339539Y-13265490D02*
X16349063Y-13255966D01*
X16349063Y-13255966D02*
X16368110Y-13227394D01*
X16368110Y-13227394D02*
X16377634Y-13208347D01*
X16377634Y-13208347D02*
X16387158Y-13179775D01*
X16387158Y-13179775D02*
X16396682Y-13132156D01*
X16396682Y-13132156D02*
X16396682Y-13094061D01*
X16396682Y-13094061D02*
X16387158Y-13046442D01*
X16387158Y-13046442D02*
X16377634Y-13017871D01*
X16377634Y-13017871D02*
X16368110Y-12998823D01*
X16368110Y-12998823D02*
X16349063Y-12970251D01*
X16349063Y-12970251D02*
X16339539Y-12960728D01*
M02*
