M48
; DRILL file {KiCad 7.0.8} date Thu May  9 20:38:50 2024
; FORMAT={-:-/ absolute / metric / decimal}
; #@! TF.CreationDate,2024-05-09T20:38:50-03:00
; #@! TF.GenerationSoftware,Kicad,Pcbnew,7.0.8
; #@! TF.FileFunction,Plated,1,2,PTH
FMAT,2
METRIC
; #@! TA.AperFunction,Plated,PTH,ViaDrill
T1C0.400
; #@! TA.AperFunction,Plated,PTH,ComponentDrill
T2C0.900
; #@! TA.AperFunction,Plated,PTH,ComponentDrill
T3C1.000
; #@! TA.AperFunction,Plated,PTH,ComponentDrill
T4C1.200
; #@! TA.AperFunction,Plated,PTH,ComponentDrill
T5C1.300
%
G90
G05
T1
X118.237Y-59.137
X118.618Y-67.931
X121.906Y-77.851
X124.46Y-88.9
X124.46Y-91.44
X125.461Y-98.186
X125.461Y-99.648
X125.461Y-103.648
X128.098Y-85.424
X136.383Y-99.648
X136.383Y-101.648
X136.383Y-111.648
X136.383Y-103.648
X136.383Y-105.648
X136.383Y-107.648
X136.652Y-88.9
X136.652Y-91.44
X141.717Y-100.584
X143.764Y-91.44
X145.019Y-110.49
X161.536Y-110.49
T2
X169.204Y-58.96
X169.204Y-60.96
X169.204Y-62.96
X174.204Y-58.96
X174.204Y-60.96
X174.204Y-62.96
T3
X117.348Y-92.456
X117.348Y-94.996
X117.348Y-97.536
X117.348Y-100.076
X117.348Y-102.616
X117.348Y-105.156
X117.373Y-79.248
X117.373Y-81.788
X117.373Y-84.328
X132.252Y-66.931
X132.252Y-82.331
X161.653Y-72.131
X161.653Y-77.131
T4
X168.934Y-67.131
X168.934Y-82.131
T5
X123.19Y-58.121
X128.27Y-58.121
X133.35Y-58.121
X140.716Y-58.121
X145.796Y-58.121
X146.139Y-89.862
X146.139Y-102.062
X150.876Y-58.121
X152.139Y-104.062
X158.139Y-89.862
X158.139Y-102.062
X159.004Y-58.121
X162.656Y-89.862
X162.656Y-102.062
X164.084Y-58.121
X168.656Y-104.062
X174.656Y-89.862
X174.656Y-102.062
T0
M30
