G04 #@! TF.GenerationSoftware,KiCad,Pcbnew,7.0.8*
G04 #@! TF.CreationDate,2024-05-09T20:38:46-03:00*
G04 #@! TF.ProjectId,lamp_module_x2,6c616d70-5f6d-46f6-9475-6c655f78322e,1.1*
G04 #@! TF.SameCoordinates,Original*
G04 #@! TF.FileFunction,Copper,L1,Top*
G04 #@! TF.FilePolarity,Positive*
%FSLAX46Y46*%
G04 Gerber Fmt 4.6, Leading zero omitted, Abs format (unit mm)*
G04 Created by KiCad (PCBNEW 7.0.8) date 2024-05-09 20:38:46*
%MOMM*%
%LPD*%
G01*
G04 APERTURE LIST*
G04 Aperture macros list*
%AMRoundRect*
0 Rectangle with rounded corners*
0 $1 Rounding radius*
0 $2 $3 $4 $5 $6 $7 $8 $9 X,Y pos of 4 corners*
0 Add a 4 corners polygon primitive as box body*
4,1,4,$2,$3,$4,$5,$6,$7,$8,$9,$2,$3,0*
0 Add four circle primitives for the rounded corners*
1,1,$1+$1,$2,$3*
1,1,$1+$1,$4,$5*
1,1,$1+$1,$6,$7*
1,1,$1+$1,$8,$9*
0 Add four rect primitives between the rounded corners*
20,1,$1+$1,$2,$3,$4,$5,0*
20,1,$1+$1,$4,$5,$6,$7,0*
20,1,$1+$1,$6,$7,$8,$9,0*
20,1,$1+$1,$8,$9,$2,$3,0*%
G04 Aperture macros list end*
G04 #@! TA.AperFunction,SMDPad,CuDef*
%ADD10RoundRect,0.125000X0.125000X0.125000X-0.125000X0.125000X-0.125000X-0.125000X0.125000X-0.125000X0*%
G04 #@! TD*
G04 #@! TA.AperFunction,SMDPad,CuDef*
%ADD11R,2.000000X1.780000*%
G04 #@! TD*
G04 #@! TA.AperFunction,SMDPad,CuDef*
%ADD12RoundRect,0.200000X-0.275000X0.200000X-0.275000X-0.200000X0.275000X-0.200000X0.275000X0.200000X0*%
G04 #@! TD*
G04 #@! TA.AperFunction,SMDPad,CuDef*
%ADD13RoundRect,0.150000X-0.587500X-0.150000X0.587500X-0.150000X0.587500X0.150000X-0.587500X0.150000X0*%
G04 #@! TD*
G04 #@! TA.AperFunction,ComponentPad*
%ADD14C,3.000000*%
G04 #@! TD*
G04 #@! TA.AperFunction,ComponentPad*
%ADD15C,2.600000*%
G04 #@! TD*
G04 #@! TA.AperFunction,ComponentPad*
%ADD16R,2.600000X2.600000*%
G04 #@! TD*
G04 #@! TA.AperFunction,SMDPad,CuDef*
%ADD17RoundRect,0.225000X-0.250000X0.225000X-0.250000X-0.225000X0.250000X-0.225000X0.250000X0.225000X0*%
G04 #@! TD*
G04 #@! TA.AperFunction,ComponentPad*
%ADD18O,1.700000X1.700000*%
G04 #@! TD*
G04 #@! TA.AperFunction,ComponentPad*
%ADD19R,1.700000X1.700000*%
G04 #@! TD*
G04 #@! TA.AperFunction,SMDPad,CuDef*
%ADD20RoundRect,0.218750X0.218750X0.256250X-0.218750X0.256250X-0.218750X-0.256250X0.218750X-0.256250X0*%
G04 #@! TD*
G04 #@! TA.AperFunction,SMDPad,CuDef*
%ADD21R,1.500000X2.000000*%
G04 #@! TD*
G04 #@! TA.AperFunction,SMDPad,CuDef*
%ADD22R,3.800000X2.000000*%
G04 #@! TD*
G04 #@! TA.AperFunction,SMDPad,CuDef*
%ADD23RoundRect,0.250000X0.450000X0.425000X-0.450000X0.425000X-0.450000X-0.425000X0.450000X-0.425000X0*%
G04 #@! TD*
G04 #@! TA.AperFunction,SMDPad,CuDef*
%ADD24R,1.100000X2.500000*%
G04 #@! TD*
G04 #@! TA.AperFunction,SMDPad,CuDef*
%ADD25R,2.500000X1.100000*%
G04 #@! TD*
G04 #@! TA.AperFunction,ComponentPad*
%ADD26C,2.400000*%
G04 #@! TD*
G04 #@! TA.AperFunction,ComponentPad*
%ADD27R,2.300000X2.000000*%
G04 #@! TD*
G04 #@! TA.AperFunction,ComponentPad*
%ADD28C,2.300000*%
G04 #@! TD*
G04 #@! TA.AperFunction,SMDPad,CuDef*
%ADD29RoundRect,0.250000X-0.425000X0.450000X-0.425000X-0.450000X0.425000X-0.450000X0.425000X0.450000X0*%
G04 #@! TD*
G04 #@! TA.AperFunction,SMDPad,CuDef*
%ADD30RoundRect,0.250000X1.500000X0.550000X-1.500000X0.550000X-1.500000X-0.550000X1.500000X-0.550000X0*%
G04 #@! TD*
G04 #@! TA.AperFunction,SMDPad,CuDef*
%ADD31RoundRect,0.200000X-0.200000X-0.275000X0.200000X-0.275000X0.200000X0.275000X-0.200000X0.275000X0*%
G04 #@! TD*
G04 #@! TA.AperFunction,ComponentPad*
%ADD32R,1.500000X1.500000*%
G04 #@! TD*
G04 #@! TA.AperFunction,ComponentPad*
%ADD33C,1.500000*%
G04 #@! TD*
G04 #@! TA.AperFunction,ViaPad*
%ADD34C,0.800000*%
G04 #@! TD*
G04 #@! TA.AperFunction,Conductor*
%ADD35C,0.250000*%
G04 #@! TD*
G04 #@! TA.AperFunction,Conductor*
%ADD36C,0.500000*%
G04 #@! TD*
G04 #@! TA.AperFunction,Conductor*
%ADD37C,1.000000*%
G04 #@! TD*
G04 APERTURE END LIST*
D10*
X170518000Y-108204000D03*
X168318000Y-108204000D03*
D11*
X122174000Y-88900000D03*
X122174000Y-91440000D03*
X129794000Y-91440000D03*
X129794000Y-88900000D03*
D12*
X161536000Y-109029000D03*
X161536000Y-107379000D03*
D13*
X165959000Y-108204000D03*
X164084000Y-109154000D03*
X164084000Y-107254000D03*
D14*
X168656000Y-104062001D03*
X162656000Y-89862001D03*
X174656000Y-89862001D03*
X174656000Y-102062001D03*
X162656000Y-102062001D03*
D15*
X123190000Y-58121300D03*
X128270000Y-58121300D03*
D16*
X133350000Y-58121300D03*
D17*
X141717001Y-99197846D03*
X141717001Y-97647846D03*
D13*
X149449000Y-108204000D03*
X147574000Y-109154000D03*
X147574000Y-107254000D03*
D10*
X152062000Y-108204000D03*
X154262000Y-108204000D03*
D18*
X117373000Y-84328000D03*
X117373000Y-81788000D03*
D19*
X117373000Y-79248000D03*
D20*
X115397500Y-60407300D03*
X116972500Y-60407300D03*
D14*
X152139000Y-104062000D03*
X146139000Y-89862000D03*
X158139000Y-89862000D03*
X158139000Y-102062000D03*
X146139000Y-102062000D03*
D15*
X140716000Y-58121300D03*
X145796000Y-58121300D03*
D16*
X150876000Y-58121300D03*
D18*
X117348000Y-105156000D03*
X117348000Y-102616000D03*
X117348000Y-100076000D03*
X117348000Y-97536000D03*
X117348000Y-94996000D03*
D19*
X117348000Y-92456000D03*
D16*
X164084000Y-58121300D03*
D15*
X159004000Y-58121300D03*
D21*
X121906000Y-79857999D03*
X124206000Y-79857999D03*
D22*
X124206000Y-73557999D03*
D21*
X126506000Y-79857999D03*
D12*
X145019000Y-109029000D03*
X145019000Y-107379000D03*
D23*
X124206000Y-82724000D03*
X121506000Y-82724000D03*
D24*
X125932000Y-95947846D03*
X127932000Y-95947846D03*
X129932000Y-95947846D03*
X131932000Y-95947846D03*
X133932000Y-95947846D03*
X135932000Y-95947846D03*
D25*
X123222000Y-111647846D03*
X123222000Y-109647846D03*
X123222000Y-107647846D03*
X123222000Y-105647846D03*
X123222000Y-103647846D03*
X123222000Y-101647846D03*
X123222000Y-99647846D03*
X123222000Y-97647846D03*
X138622000Y-97647846D03*
X138622000Y-99647846D03*
X138622000Y-101647846D03*
X138622000Y-103647846D03*
X138622000Y-105647846D03*
X138622000Y-107647846D03*
X138622000Y-109647846D03*
X138622000Y-111647846D03*
D26*
X168934000Y-82131300D03*
X168934000Y-67131300D03*
D11*
X141986000Y-88900000D03*
X141986000Y-91440000D03*
X134366000Y-91440000D03*
X134366000Y-88900000D03*
D27*
X161652500Y-77131300D03*
D28*
X161652500Y-72131300D03*
X132252500Y-82331300D03*
X132252500Y-66931300D03*
D29*
X126505999Y-82724000D03*
X126505999Y-85424000D03*
D30*
X126906000Y-67931300D03*
X121506000Y-67931300D03*
D31*
X117030000Y-62439300D03*
X115380000Y-62439300D03*
D32*
X169204000Y-62960000D03*
D33*
X169204000Y-60960000D03*
X169204000Y-58960000D03*
X174204000Y-62960000D03*
X174204000Y-60960000D03*
X174204000Y-58960000D03*
D34*
X136383000Y-99647846D03*
X143764000Y-91440000D03*
X136652000Y-88900000D03*
X124460000Y-88900000D03*
X124460000Y-91440000D03*
X136652000Y-91440000D03*
X161536000Y-110490000D03*
X145019000Y-110490000D03*
X136383001Y-105647846D03*
X121905999Y-77851000D03*
X118237000Y-59137300D03*
X128098300Y-85424000D03*
X141717001Y-100584000D03*
X118618000Y-67931300D03*
X125460999Y-98185848D03*
X136383000Y-101647848D03*
X136383001Y-103647848D03*
X136383001Y-107647853D03*
X136383000Y-111647846D03*
X125460999Y-99647852D03*
X125460999Y-103647848D03*
D35*
X120142000Y-109742999D02*
X120142000Y-103886000D01*
X122046847Y-111647846D02*
X120142000Y-109742999D01*
X118872000Y-102616000D02*
X117348000Y-102616000D01*
X123922000Y-111647846D02*
X122046847Y-111647846D01*
X120142000Y-103886000D02*
X118872000Y-102616000D01*
X118872000Y-100076000D02*
X117348000Y-100076000D01*
X120904000Y-108458000D02*
X120904000Y-102108000D01*
X121158000Y-108712000D02*
X120904000Y-108458000D01*
X120904000Y-102108000D02*
X118872000Y-100076000D01*
D36*
X121506000Y-67931300D02*
X118618000Y-67931300D01*
X158559000Y-107379000D02*
X161536000Y-107379000D01*
X143002000Y-95250000D02*
X143002000Y-109982000D01*
X140970000Y-93218000D02*
X143002000Y-95250000D01*
X130810000Y-93218000D02*
X140970000Y-93218000D01*
X129794000Y-91440000D02*
X129794000Y-92202000D01*
X129794000Y-92202000D02*
X130810000Y-93218000D01*
X143002000Y-109982000D02*
X144526000Y-111506000D01*
X154432000Y-111506000D02*
X158559000Y-107379000D01*
X144526000Y-111506000D02*
X154432000Y-111506000D01*
X158139000Y-105005000D02*
X158139000Y-102062000D01*
X154262000Y-108204000D02*
X154940000Y-108204000D01*
X154940000Y-108204000D02*
X158139000Y-105005000D01*
X171450000Y-108204000D02*
X174656000Y-104998000D01*
X170518000Y-108204000D02*
X171450000Y-108204000D01*
X174656000Y-104998000D02*
X174656000Y-102062001D01*
X128778000Y-81126999D02*
X127180999Y-82724000D01*
X126906000Y-67931300D02*
X128778000Y-69803300D01*
X128778000Y-69803300D02*
X128778000Y-81126999D01*
D35*
X137922000Y-111647846D02*
X136383000Y-111647846D01*
X136383008Y-107647846D02*
X136383001Y-107647853D01*
X137922000Y-107647846D02*
X136383008Y-107647846D01*
X137922000Y-105647846D02*
X136383001Y-105647846D01*
D36*
X137922000Y-99647846D02*
X136383000Y-99647846D01*
D37*
X155702000Y-94742000D02*
X152139000Y-98305000D01*
X163576000Y-94742000D02*
X155702000Y-94742000D01*
X168934000Y-89384000D02*
X163576000Y-94742000D01*
X168934000Y-82131300D02*
X168934000Y-89384000D01*
X152139000Y-98305000D02*
X152139000Y-104062000D01*
X168934000Y-82131300D02*
X168934000Y-103784001D01*
X168934000Y-103784001D02*
X168656000Y-104062001D01*
D36*
X119380000Y-97536000D02*
X117602000Y-97536000D01*
X122936000Y-93980000D02*
X119380000Y-97536000D01*
X125984000Y-93980000D02*
X122936000Y-93980000D01*
X127508000Y-92456000D02*
X125984000Y-93980000D01*
X129032000Y-93980000D02*
X139431001Y-93980000D01*
X127508000Y-92456000D02*
X129032000Y-93980000D01*
D35*
X123922000Y-109647846D02*
X122078847Y-109647846D01*
X122078847Y-109647846D02*
X121143001Y-108712000D01*
D36*
X143764000Y-89916000D02*
X143764000Y-91440000D01*
X142748000Y-88900000D02*
X143764000Y-89916000D01*
X141986000Y-88900000D02*
X142748000Y-88900000D01*
X121158000Y-85852000D02*
X124206000Y-85852000D01*
X119888000Y-80518000D02*
X119888000Y-84582000D01*
X118618000Y-79248000D02*
X119888000Y-80518000D01*
X119888000Y-84582000D02*
X121158000Y-85852000D01*
X117373000Y-79248000D02*
X118618000Y-79248000D01*
X141717001Y-96266000D02*
X141717001Y-97647846D01*
X139431001Y-93980000D02*
X141717001Y-96266000D01*
X124206000Y-85852000D02*
X127508000Y-89154000D01*
X124206000Y-82724000D02*
X124206000Y-85852000D01*
X127508000Y-89154000D02*
X127508000Y-92456000D01*
X145019000Y-105395000D02*
X145019000Y-107379000D01*
X143764000Y-104140000D02*
X145019000Y-105395000D01*
X143764000Y-93218000D02*
X143764000Y-104140000D01*
X141986000Y-91440000D02*
X143764000Y-93218000D01*
D35*
X137922000Y-97647846D02*
X141717001Y-97647846D01*
X141717001Y-99197846D02*
X141717001Y-100584000D01*
X122174000Y-88900000D02*
X124460000Y-88900000D01*
D36*
X122174000Y-91440000D02*
X124460000Y-91440000D01*
X134112000Y-91440000D02*
X136652000Y-91440000D01*
D35*
X136652000Y-88900000D02*
X134112000Y-88900000D01*
X137922000Y-97647846D02*
X137938000Y-97663846D01*
D36*
X145019000Y-109029000D02*
X145019000Y-110490000D01*
X161536000Y-109029000D02*
X161536000Y-110490000D01*
X129794000Y-85337001D02*
X129794000Y-88646000D01*
X127180999Y-82724000D02*
X129794000Y-85337001D01*
X126505999Y-82724000D02*
X127180999Y-82724000D01*
X141986000Y-87630000D02*
X141986000Y-88646000D01*
X140716000Y-86360000D02*
X141986000Y-87630000D01*
X129794000Y-87630000D02*
X131064000Y-86360000D01*
X131064000Y-86360000D02*
X140716000Y-86360000D01*
X129794000Y-88646000D02*
X129794000Y-87630000D01*
X146139000Y-103721000D02*
X146139000Y-102062000D01*
X149449000Y-107031000D02*
X146139000Y-103721000D01*
X149449000Y-108204000D02*
X149449000Y-107031000D01*
X162656000Y-103728000D02*
X162656000Y-102062001D01*
X165959000Y-107031000D02*
X162656000Y-103728000D01*
X165959000Y-108204000D02*
X165959000Y-107031000D01*
X165959000Y-108204000D02*
X168318000Y-108204000D01*
D35*
X163959000Y-109029000D02*
X164084000Y-109154000D01*
D36*
X161536000Y-109029000D02*
X163959000Y-109029000D01*
D35*
X163959000Y-107379000D02*
X164084000Y-107254000D01*
D36*
X161536000Y-107379000D02*
X163959000Y-107379000D01*
X149449000Y-108204000D02*
X152062000Y-108204000D01*
X145019000Y-109029000D02*
X147449000Y-109029000D01*
D35*
X147449000Y-109029000D02*
X147574000Y-109154000D01*
D36*
X145019000Y-107379000D02*
X147449000Y-107379000D01*
D35*
X147449000Y-107379000D02*
X147574000Y-107254000D01*
D36*
X131252500Y-67931300D02*
X132252500Y-66931300D01*
X126906000Y-67931300D02*
X131252500Y-67931300D01*
X126906000Y-66454000D02*
X126906000Y-67931300D01*
X118364000Y-64516000D02*
X124968000Y-64516000D01*
X117030000Y-63182000D02*
X118364000Y-64516000D01*
X117030000Y-62439300D02*
X117030000Y-63182000D01*
X124968000Y-64516000D02*
X126906000Y-66454000D01*
D37*
X161652500Y-77131300D02*
X163934000Y-77131300D01*
X171704000Y-62473025D02*
X171704000Y-79361300D01*
X163934000Y-77131300D02*
X168934000Y-82131300D01*
X171704000Y-79361300D02*
X168934000Y-82131300D01*
X169204000Y-60960000D02*
X170190975Y-60960000D01*
X170190975Y-60960000D02*
X171704000Y-62473025D01*
X164084000Y-62281300D02*
X168934000Y-67131300D01*
X161652500Y-72131300D02*
X163934000Y-72131300D01*
X163934000Y-72131300D02*
X168934000Y-67131300D01*
X164084000Y-58070300D02*
X164084000Y-62281300D01*
D36*
X126505998Y-79858001D02*
X126505999Y-82724000D01*
X126506000Y-79858000D02*
X126505998Y-79858001D01*
X121905999Y-82324000D02*
X121506000Y-82724000D01*
D35*
X116972500Y-60401800D02*
X118237000Y-59137300D01*
D36*
X121905999Y-77851000D02*
X121906000Y-79858000D01*
X121906000Y-79858000D02*
X121905999Y-82324000D01*
D35*
X116972500Y-60407300D02*
X116972500Y-60401800D01*
X123922000Y-97647846D02*
X124922997Y-97647846D01*
X124922997Y-97647846D02*
X125460999Y-98185848D01*
D36*
X128098300Y-85424000D02*
X126505999Y-85424000D01*
X124206000Y-79858000D02*
X124206000Y-82724000D01*
X124206000Y-73558000D02*
X124206000Y-79858000D01*
X136383000Y-101647848D02*
X137922000Y-101647847D01*
D35*
X115397500Y-62421800D02*
X115380000Y-62439300D01*
X115397500Y-60407300D02*
X115397500Y-62421800D01*
D37*
X159004000Y-58121300D02*
X159004000Y-57100300D01*
X166833300Y-55073300D02*
X169204000Y-57444000D01*
X161031000Y-55073300D02*
X166833300Y-55073300D01*
X159004000Y-57100300D02*
X161031000Y-55073300D01*
X169204000Y-57444000D02*
X169204000Y-58960000D01*
D35*
X137922000Y-103647848D02*
X136383001Y-103647848D01*
X123922003Y-99647852D02*
X123922000Y-99647848D01*
X125460999Y-99647852D02*
X123922003Y-99647852D01*
X125460999Y-103647848D02*
X123922000Y-103647848D01*
M02*
