%TF.GenerationSoftware,KiCad,Pcbnew,7.0.8*%
%TF.CreationDate,2024-05-09T20:38:50-03:00*%
%TF.ProjectId,lamp_module_x2,6c616d70-5f6d-46f6-9475-6c655f78322e,1.1*%
%TF.SameCoordinates,Original*%
%TF.FileFunction,Drillmap*%
%TF.FilePolarity,Positive*%
%FSLAX45Y45*%
G04 Gerber Fmt 4.5, Leading zero omitted, Abs format (unit mm)*
G04 Created by KiCad (PCBNEW 7.0.8) date 2024-05-09 20:38:50*
%MOMM*%
%LPD*%
G01*
G04 APERTURE LIST*
%ADD10C,0.200000*%
%ADD11C,0.250000*%
G04 APERTURE END LIST*
D10*
X11684000Y-5091815D02*
G75*
G03*
X11384000Y-5391815I-8J-299992D01*
G01*
X17684000Y-5391810D02*
G75*
G03*
X17384000Y-5091810I-299992J8D01*
G01*
X11384000Y-11091815D02*
G75*
G03*
X11684000Y-11391815I299992J-8D01*
G01*
X11684000Y-5091810D02*
X17384000Y-5091810D01*
X11384000Y-11091815D02*
X11384000Y-5391815D01*
X11684000Y-11391815D02*
X17384000Y-11391815D01*
X17684000Y-5391810D02*
X17684000Y-11091815D01*
X17384000Y-11391820D02*
G75*
G03*
X17684000Y-11091815I0J300000D01*
G01*
D11*
X11559000Y-5266815D02*
X11809000Y-5516815D01*
X11809000Y-5266815D02*
X11559000Y-5516815D01*
X11559000Y-10966815D02*
X11809000Y-11216815D01*
X11809000Y-10966815D02*
X11559000Y-11216815D01*
X17259000Y-5266810D02*
X17509000Y-5516810D01*
X17509000Y-5266810D02*
X17259000Y-5516810D01*
X17259000Y-10966815D02*
X17509000Y-11216815D01*
X17509000Y-10966815D02*
X17259000Y-11216815D01*
D10*
X11634777Y-11713299D02*
X11634777Y-11513299D01*
X11634777Y-11513299D02*
X11682396Y-11513299D01*
X11682396Y-11513299D02*
X11710967Y-11522823D01*
X11710967Y-11522823D02*
X11730015Y-11541871D01*
X11730015Y-11541871D02*
X11739539Y-11560918D01*
X11739539Y-11560918D02*
X11749062Y-11599013D01*
X11749062Y-11599013D02*
X11749062Y-11627585D01*
X11749062Y-11627585D02*
X11739539Y-11665680D01*
X11739539Y-11665680D02*
X11730015Y-11684728D01*
X11730015Y-11684728D02*
X11710967Y-11703775D01*
X11710967Y-11703775D02*
X11682396Y-11713299D01*
X11682396Y-11713299D02*
X11634777Y-11713299D01*
X11834777Y-11713299D02*
X11834777Y-11579966D01*
X11834777Y-11618061D02*
X11844300Y-11599013D01*
X11844300Y-11599013D02*
X11853824Y-11589490D01*
X11853824Y-11589490D02*
X11872872Y-11579966D01*
X11872872Y-11579966D02*
X11891920Y-11579966D01*
X11958586Y-11713299D02*
X11958586Y-11579966D01*
X11958586Y-11513299D02*
X11949062Y-11522823D01*
X11949062Y-11522823D02*
X11958586Y-11532347D01*
X11958586Y-11532347D02*
X11968110Y-11522823D01*
X11968110Y-11522823D02*
X11958586Y-11513299D01*
X11958586Y-11513299D02*
X11958586Y-11532347D01*
X12082396Y-11713299D02*
X12063348Y-11703775D01*
X12063348Y-11703775D02*
X12053824Y-11684728D01*
X12053824Y-11684728D02*
X12053824Y-11513299D01*
X12187158Y-11713299D02*
X12168110Y-11703775D01*
X12168110Y-11703775D02*
X12158586Y-11684728D01*
X12158586Y-11684728D02*
X12158586Y-11513299D01*
X12415729Y-11713299D02*
X12415729Y-11513299D01*
X12415729Y-11513299D02*
X12482396Y-11656156D01*
X12482396Y-11656156D02*
X12549062Y-11513299D01*
X12549062Y-11513299D02*
X12549062Y-11713299D01*
X12730015Y-11713299D02*
X12730015Y-11608537D01*
X12730015Y-11608537D02*
X12720491Y-11589490D01*
X12720491Y-11589490D02*
X12701443Y-11579966D01*
X12701443Y-11579966D02*
X12663348Y-11579966D01*
X12663348Y-11579966D02*
X12644300Y-11589490D01*
X12730015Y-11703775D02*
X12710967Y-11713299D01*
X12710967Y-11713299D02*
X12663348Y-11713299D01*
X12663348Y-11713299D02*
X12644300Y-11703775D01*
X12644300Y-11703775D02*
X12634777Y-11684728D01*
X12634777Y-11684728D02*
X12634777Y-11665680D01*
X12634777Y-11665680D02*
X12644300Y-11646632D01*
X12644300Y-11646632D02*
X12663348Y-11637109D01*
X12663348Y-11637109D02*
X12710967Y-11637109D01*
X12710967Y-11637109D02*
X12730015Y-11627585D01*
X12825253Y-11579966D02*
X12825253Y-11779966D01*
X12825253Y-11589490D02*
X12844300Y-11579966D01*
X12844300Y-11579966D02*
X12882396Y-11579966D01*
X12882396Y-11579966D02*
X12901443Y-11589490D01*
X12901443Y-11589490D02*
X12910967Y-11599013D01*
X12910967Y-11599013D02*
X12920491Y-11618061D01*
X12920491Y-11618061D02*
X12920491Y-11675204D01*
X12920491Y-11675204D02*
X12910967Y-11694251D01*
X12910967Y-11694251D02*
X12901443Y-11703775D01*
X12901443Y-11703775D02*
X12882396Y-11713299D01*
X12882396Y-11713299D02*
X12844300Y-11713299D01*
X12844300Y-11713299D02*
X12825253Y-11703775D01*
X13006205Y-11694251D02*
X13015729Y-11703775D01*
X13015729Y-11703775D02*
X13006205Y-11713299D01*
X13006205Y-11713299D02*
X12996681Y-11703775D01*
X12996681Y-11703775D02*
X13006205Y-11694251D01*
X13006205Y-11694251D02*
X13006205Y-11713299D01*
X13006205Y-11589490D02*
X13015729Y-11599013D01*
X13015729Y-11599013D02*
X13006205Y-11608537D01*
X13006205Y-11608537D02*
X12996681Y-11599013D01*
X12996681Y-11599013D02*
X13006205Y-11589490D01*
X13006205Y-11589490D02*
X13006205Y-11608537D01*
X11174000Y-11941815D02*
X11374000Y-12141815D01*
X11374000Y-11941815D02*
X11174000Y-12141815D01*
X11625253Y-11952347D02*
X11634777Y-11942823D01*
X11634777Y-11942823D02*
X11653824Y-11933299D01*
X11653824Y-11933299D02*
X11701443Y-11933299D01*
X11701443Y-11933299D02*
X11720491Y-11942823D01*
X11720491Y-11942823D02*
X11730015Y-11952347D01*
X11730015Y-11952347D02*
X11739539Y-11971394D01*
X11739539Y-11971394D02*
X11739539Y-11990442D01*
X11739539Y-11990442D02*
X11730015Y-12019013D01*
X11730015Y-12019013D02*
X11615729Y-12133299D01*
X11615729Y-12133299D02*
X11739539Y-12133299D01*
X11825253Y-12114251D02*
X11834777Y-12123775D01*
X11834777Y-12123775D02*
X11825253Y-12133299D01*
X11825253Y-12133299D02*
X11815729Y-12123775D01*
X11815729Y-12123775D02*
X11825253Y-12114251D01*
X11825253Y-12114251D02*
X11825253Y-12133299D01*
X12015729Y-11933299D02*
X11920491Y-11933299D01*
X11920491Y-11933299D02*
X11910967Y-12028537D01*
X11910967Y-12028537D02*
X11920491Y-12019013D01*
X11920491Y-12019013D02*
X11939539Y-12009490D01*
X11939539Y-12009490D02*
X11987158Y-12009490D01*
X11987158Y-12009490D02*
X12006205Y-12019013D01*
X12006205Y-12019013D02*
X12015729Y-12028537D01*
X12015729Y-12028537D02*
X12025253Y-12047585D01*
X12025253Y-12047585D02*
X12025253Y-12095204D01*
X12025253Y-12095204D02*
X12015729Y-12114251D01*
X12015729Y-12114251D02*
X12006205Y-12123775D01*
X12006205Y-12123775D02*
X11987158Y-12133299D01*
X11987158Y-12133299D02*
X11939539Y-12133299D01*
X11939539Y-12133299D02*
X11920491Y-12123775D01*
X11920491Y-12123775D02*
X11910967Y-12114251D01*
X12149062Y-11933299D02*
X12168110Y-11933299D01*
X12168110Y-11933299D02*
X12187158Y-11942823D01*
X12187158Y-11942823D02*
X12196681Y-11952347D01*
X12196681Y-11952347D02*
X12206205Y-11971394D01*
X12206205Y-11971394D02*
X12215729Y-12009490D01*
X12215729Y-12009490D02*
X12215729Y-12057109D01*
X12215729Y-12057109D02*
X12206205Y-12095204D01*
X12206205Y-12095204D02*
X12196681Y-12114251D01*
X12196681Y-12114251D02*
X12187158Y-12123775D01*
X12187158Y-12123775D02*
X12168110Y-12133299D01*
X12168110Y-12133299D02*
X12149062Y-12133299D01*
X12149062Y-12133299D02*
X12130015Y-12123775D01*
X12130015Y-12123775D02*
X12120491Y-12114251D01*
X12120491Y-12114251D02*
X12110967Y-12095204D01*
X12110967Y-12095204D02*
X12101443Y-12057109D01*
X12101443Y-12057109D02*
X12101443Y-12009490D01*
X12101443Y-12009490D02*
X12110967Y-11971394D01*
X12110967Y-11971394D02*
X12120491Y-11952347D01*
X12120491Y-11952347D02*
X12130015Y-11942823D01*
X12130015Y-11942823D02*
X12149062Y-11933299D01*
X12339539Y-11933299D02*
X12358586Y-11933299D01*
X12358586Y-11933299D02*
X12377634Y-11942823D01*
X12377634Y-11942823D02*
X12387158Y-11952347D01*
X12387158Y-11952347D02*
X12396681Y-11971394D01*
X12396681Y-11971394D02*
X12406205Y-12009490D01*
X12406205Y-12009490D02*
X12406205Y-12057109D01*
X12406205Y-12057109D02*
X12396681Y-12095204D01*
X12396681Y-12095204D02*
X12387158Y-12114251D01*
X12387158Y-12114251D02*
X12377634Y-12123775D01*
X12377634Y-12123775D02*
X12358586Y-12133299D01*
X12358586Y-12133299D02*
X12339539Y-12133299D01*
X12339539Y-12133299D02*
X12320491Y-12123775D01*
X12320491Y-12123775D02*
X12310967Y-12114251D01*
X12310967Y-12114251D02*
X12301443Y-12095204D01*
X12301443Y-12095204D02*
X12291920Y-12057109D01*
X12291920Y-12057109D02*
X12291920Y-12009490D01*
X12291920Y-12009490D02*
X12301443Y-11971394D01*
X12301443Y-11971394D02*
X12310967Y-11952347D01*
X12310967Y-11952347D02*
X12320491Y-11942823D01*
X12320491Y-11942823D02*
X12339539Y-11933299D01*
X12491920Y-12133299D02*
X12491920Y-11999966D01*
X12491920Y-12019013D02*
X12501443Y-12009490D01*
X12501443Y-12009490D02*
X12520491Y-11999966D01*
X12520491Y-11999966D02*
X12549062Y-11999966D01*
X12549062Y-11999966D02*
X12568110Y-12009490D01*
X12568110Y-12009490D02*
X12577634Y-12028537D01*
X12577634Y-12028537D02*
X12577634Y-12133299D01*
X12577634Y-12028537D02*
X12587158Y-12009490D01*
X12587158Y-12009490D02*
X12606205Y-11999966D01*
X12606205Y-11999966D02*
X12634777Y-11999966D01*
X12634777Y-11999966D02*
X12653824Y-12009490D01*
X12653824Y-12009490D02*
X12663348Y-12028537D01*
X12663348Y-12028537D02*
X12663348Y-12133299D01*
X12758586Y-12133299D02*
X12758586Y-11999966D01*
X12758586Y-12019013D02*
X12768110Y-12009490D01*
X12768110Y-12009490D02*
X12787158Y-11999966D01*
X12787158Y-11999966D02*
X12815729Y-11999966D01*
X12815729Y-11999966D02*
X12834777Y-12009490D01*
X12834777Y-12009490D02*
X12844301Y-12028537D01*
X12844301Y-12028537D02*
X12844301Y-12133299D01*
X12844301Y-12028537D02*
X12853824Y-12009490D01*
X12853824Y-12009490D02*
X12872872Y-11999966D01*
X12872872Y-11999966D02*
X12901443Y-11999966D01*
X12901443Y-11999966D02*
X12920491Y-12009490D01*
X12920491Y-12009490D02*
X12930015Y-12028537D01*
X12930015Y-12028537D02*
X12930015Y-12133299D01*
X13320491Y-11923775D02*
X13149063Y-12180918D01*
X13577634Y-11933299D02*
X13596682Y-11933299D01*
X13596682Y-11933299D02*
X13615729Y-11942823D01*
X13615729Y-11942823D02*
X13625253Y-11952347D01*
X13625253Y-11952347D02*
X13634777Y-11971394D01*
X13634777Y-11971394D02*
X13644301Y-12009490D01*
X13644301Y-12009490D02*
X13644301Y-12057109D01*
X13644301Y-12057109D02*
X13634777Y-12095204D01*
X13634777Y-12095204D02*
X13625253Y-12114251D01*
X13625253Y-12114251D02*
X13615729Y-12123775D01*
X13615729Y-12123775D02*
X13596682Y-12133299D01*
X13596682Y-12133299D02*
X13577634Y-12133299D01*
X13577634Y-12133299D02*
X13558586Y-12123775D01*
X13558586Y-12123775D02*
X13549063Y-12114251D01*
X13549063Y-12114251D02*
X13539539Y-12095204D01*
X13539539Y-12095204D02*
X13530015Y-12057109D01*
X13530015Y-12057109D02*
X13530015Y-12009490D01*
X13530015Y-12009490D02*
X13539539Y-11971394D01*
X13539539Y-11971394D02*
X13549063Y-11952347D01*
X13549063Y-11952347D02*
X13558586Y-11942823D01*
X13558586Y-11942823D02*
X13577634Y-11933299D01*
X13730015Y-12114251D02*
X13739539Y-12123775D01*
X13739539Y-12123775D02*
X13730015Y-12133299D01*
X13730015Y-12133299D02*
X13720491Y-12123775D01*
X13720491Y-12123775D02*
X13730015Y-12114251D01*
X13730015Y-12114251D02*
X13730015Y-12133299D01*
X13863348Y-11933299D02*
X13882396Y-11933299D01*
X13882396Y-11933299D02*
X13901444Y-11942823D01*
X13901444Y-11942823D02*
X13910967Y-11952347D01*
X13910967Y-11952347D02*
X13920491Y-11971394D01*
X13920491Y-11971394D02*
X13930015Y-12009490D01*
X13930015Y-12009490D02*
X13930015Y-12057109D01*
X13930015Y-12057109D02*
X13920491Y-12095204D01*
X13920491Y-12095204D02*
X13910967Y-12114251D01*
X13910967Y-12114251D02*
X13901444Y-12123775D01*
X13901444Y-12123775D02*
X13882396Y-12133299D01*
X13882396Y-12133299D02*
X13863348Y-12133299D01*
X13863348Y-12133299D02*
X13844301Y-12123775D01*
X13844301Y-12123775D02*
X13834777Y-12114251D01*
X13834777Y-12114251D02*
X13825253Y-12095204D01*
X13825253Y-12095204D02*
X13815729Y-12057109D01*
X13815729Y-12057109D02*
X13815729Y-12009490D01*
X13815729Y-12009490D02*
X13825253Y-11971394D01*
X13825253Y-11971394D02*
X13834777Y-11952347D01*
X13834777Y-11952347D02*
X13844301Y-11942823D01*
X13844301Y-11942823D02*
X13863348Y-11933299D01*
X14025253Y-12133299D02*
X14063348Y-12133299D01*
X14063348Y-12133299D02*
X14082396Y-12123775D01*
X14082396Y-12123775D02*
X14091920Y-12114251D01*
X14091920Y-12114251D02*
X14110967Y-12085680D01*
X14110967Y-12085680D02*
X14120491Y-12047585D01*
X14120491Y-12047585D02*
X14120491Y-11971394D01*
X14120491Y-11971394D02*
X14110967Y-11952347D01*
X14110967Y-11952347D02*
X14101444Y-11942823D01*
X14101444Y-11942823D02*
X14082396Y-11933299D01*
X14082396Y-11933299D02*
X14044301Y-11933299D01*
X14044301Y-11933299D02*
X14025253Y-11942823D01*
X14025253Y-11942823D02*
X14015729Y-11952347D01*
X14015729Y-11952347D02*
X14006205Y-11971394D01*
X14006205Y-11971394D02*
X14006205Y-12019013D01*
X14006205Y-12019013D02*
X14015729Y-12038061D01*
X14015729Y-12038061D02*
X14025253Y-12047585D01*
X14025253Y-12047585D02*
X14044301Y-12057109D01*
X14044301Y-12057109D02*
X14082396Y-12057109D01*
X14082396Y-12057109D02*
X14101444Y-12047585D01*
X14101444Y-12047585D02*
X14110967Y-12038061D01*
X14110967Y-12038061D02*
X14120491Y-12019013D01*
X14234777Y-12019013D02*
X14215729Y-12009490D01*
X14215729Y-12009490D02*
X14206205Y-11999966D01*
X14206205Y-11999966D02*
X14196682Y-11980918D01*
X14196682Y-11980918D02*
X14196682Y-11971394D01*
X14196682Y-11971394D02*
X14206205Y-11952347D01*
X14206205Y-11952347D02*
X14215729Y-11942823D01*
X14215729Y-11942823D02*
X14234777Y-11933299D01*
X14234777Y-11933299D02*
X14272872Y-11933299D01*
X14272872Y-11933299D02*
X14291920Y-11942823D01*
X14291920Y-11942823D02*
X14301444Y-11952347D01*
X14301444Y-11952347D02*
X14310967Y-11971394D01*
X14310967Y-11971394D02*
X14310967Y-11980918D01*
X14310967Y-11980918D02*
X14301444Y-11999966D01*
X14301444Y-11999966D02*
X14291920Y-12009490D01*
X14291920Y-12009490D02*
X14272872Y-12019013D01*
X14272872Y-12019013D02*
X14234777Y-12019013D01*
X14234777Y-12019013D02*
X14215729Y-12028537D01*
X14215729Y-12028537D02*
X14206205Y-12038061D01*
X14206205Y-12038061D02*
X14196682Y-12057109D01*
X14196682Y-12057109D02*
X14196682Y-12095204D01*
X14196682Y-12095204D02*
X14206205Y-12114251D01*
X14206205Y-12114251D02*
X14215729Y-12123775D01*
X14215729Y-12123775D02*
X14234777Y-12133299D01*
X14234777Y-12133299D02*
X14272872Y-12133299D01*
X14272872Y-12133299D02*
X14291920Y-12123775D01*
X14291920Y-12123775D02*
X14301444Y-12114251D01*
X14301444Y-12114251D02*
X14310967Y-12095204D01*
X14310967Y-12095204D02*
X14310967Y-12057109D01*
X14310967Y-12057109D02*
X14301444Y-12038061D01*
X14301444Y-12038061D02*
X14291920Y-12028537D01*
X14291920Y-12028537D02*
X14272872Y-12019013D01*
X14482396Y-11999966D02*
X14482396Y-12133299D01*
X14434777Y-11923775D02*
X14387158Y-12066632D01*
X14387158Y-12066632D02*
X14510967Y-12066632D01*
X14577634Y-11933299D02*
X14577634Y-11971394D01*
X14653825Y-11933299D02*
X14653825Y-11971394D01*
X14949063Y-12209490D02*
X14939539Y-12199966D01*
X14939539Y-12199966D02*
X14920491Y-12171394D01*
X14920491Y-12171394D02*
X14910967Y-12152347D01*
X14910967Y-12152347D02*
X14901444Y-12123775D01*
X14901444Y-12123775D02*
X14891920Y-12076156D01*
X14891920Y-12076156D02*
X14891920Y-12038061D01*
X14891920Y-12038061D02*
X14901444Y-11990442D01*
X14901444Y-11990442D02*
X14910967Y-11961871D01*
X14910967Y-11961871D02*
X14920491Y-11942823D01*
X14920491Y-11942823D02*
X14939539Y-11914251D01*
X14939539Y-11914251D02*
X14949063Y-11904728D01*
X15110967Y-11999966D02*
X15110967Y-12133299D01*
X15063348Y-11923775D02*
X15015729Y-12066632D01*
X15015729Y-12066632D02*
X15139539Y-12066632D01*
X15368110Y-12133299D02*
X15368110Y-11933299D01*
X15453825Y-12133299D02*
X15453825Y-12028537D01*
X15453825Y-12028537D02*
X15444301Y-12009490D01*
X15444301Y-12009490D02*
X15425253Y-11999966D01*
X15425253Y-11999966D02*
X15396682Y-11999966D01*
X15396682Y-11999966D02*
X15377634Y-12009490D01*
X15377634Y-12009490D02*
X15368110Y-12019013D01*
X15577634Y-12133299D02*
X15558587Y-12123775D01*
X15558587Y-12123775D02*
X15549063Y-12114251D01*
X15549063Y-12114251D02*
X15539539Y-12095204D01*
X15539539Y-12095204D02*
X15539539Y-12038061D01*
X15539539Y-12038061D02*
X15549063Y-12019013D01*
X15549063Y-12019013D02*
X15558587Y-12009490D01*
X15558587Y-12009490D02*
X15577634Y-11999966D01*
X15577634Y-11999966D02*
X15606206Y-11999966D01*
X15606206Y-11999966D02*
X15625253Y-12009490D01*
X15625253Y-12009490D02*
X15634777Y-12019013D01*
X15634777Y-12019013D02*
X15644301Y-12038061D01*
X15644301Y-12038061D02*
X15644301Y-12095204D01*
X15644301Y-12095204D02*
X15634777Y-12114251D01*
X15634777Y-12114251D02*
X15625253Y-12123775D01*
X15625253Y-12123775D02*
X15606206Y-12133299D01*
X15606206Y-12133299D02*
X15577634Y-12133299D01*
X15758587Y-12133299D02*
X15739539Y-12123775D01*
X15739539Y-12123775D02*
X15730015Y-12104728D01*
X15730015Y-12104728D02*
X15730015Y-11933299D01*
X15910968Y-12123775D02*
X15891920Y-12133299D01*
X15891920Y-12133299D02*
X15853825Y-12133299D01*
X15853825Y-12133299D02*
X15834777Y-12123775D01*
X15834777Y-12123775D02*
X15825253Y-12104728D01*
X15825253Y-12104728D02*
X15825253Y-12028537D01*
X15825253Y-12028537D02*
X15834777Y-12009490D01*
X15834777Y-12009490D02*
X15853825Y-11999966D01*
X15853825Y-11999966D02*
X15891920Y-11999966D01*
X15891920Y-11999966D02*
X15910968Y-12009490D01*
X15910968Y-12009490D02*
X15920491Y-12028537D01*
X15920491Y-12028537D02*
X15920491Y-12047585D01*
X15920491Y-12047585D02*
X15825253Y-12066632D01*
X15996682Y-12123775D02*
X16015729Y-12133299D01*
X16015729Y-12133299D02*
X16053825Y-12133299D01*
X16053825Y-12133299D02*
X16072872Y-12123775D01*
X16072872Y-12123775D02*
X16082396Y-12104728D01*
X16082396Y-12104728D02*
X16082396Y-12095204D01*
X16082396Y-12095204D02*
X16072872Y-12076156D01*
X16072872Y-12076156D02*
X16053825Y-12066632D01*
X16053825Y-12066632D02*
X16025253Y-12066632D01*
X16025253Y-12066632D02*
X16006206Y-12057109D01*
X16006206Y-12057109D02*
X15996682Y-12038061D01*
X15996682Y-12038061D02*
X15996682Y-12028537D01*
X15996682Y-12028537D02*
X16006206Y-12009490D01*
X16006206Y-12009490D02*
X16025253Y-11999966D01*
X16025253Y-11999966D02*
X16053825Y-11999966D01*
X16053825Y-11999966D02*
X16072872Y-12009490D01*
X16149063Y-12209490D02*
X16158587Y-12199966D01*
X16158587Y-12199966D02*
X16177634Y-12171394D01*
X16177634Y-12171394D02*
X16187158Y-12152347D01*
X16187158Y-12152347D02*
X16196682Y-12123775D01*
X16196682Y-12123775D02*
X16206206Y-12076156D01*
X16206206Y-12076156D02*
X16206206Y-12038061D01*
X16206206Y-12038061D02*
X16196682Y-11990442D01*
X16196682Y-11990442D02*
X16187158Y-11961871D01*
X16187158Y-11961871D02*
X16177634Y-11942823D01*
X16177634Y-11942823D02*
X16158587Y-11914251D01*
X16158587Y-11914251D02*
X16149063Y-11904728D01*
X16510968Y-12209490D02*
X16501444Y-12199966D01*
X16501444Y-12199966D02*
X16482396Y-12171394D01*
X16482396Y-12171394D02*
X16472872Y-12152347D01*
X16472872Y-12152347D02*
X16463349Y-12123775D01*
X16463349Y-12123775D02*
X16453825Y-12076156D01*
X16453825Y-12076156D02*
X16453825Y-12038061D01*
X16453825Y-12038061D02*
X16463349Y-11990442D01*
X16463349Y-11990442D02*
X16472872Y-11961871D01*
X16472872Y-11961871D02*
X16482396Y-11942823D01*
X16482396Y-11942823D02*
X16501444Y-11914251D01*
X16501444Y-11914251D02*
X16510968Y-11904728D01*
X16587158Y-11999966D02*
X16587158Y-12133299D01*
X16587158Y-12019013D02*
X16596682Y-12009490D01*
X16596682Y-12009490D02*
X16615729Y-11999966D01*
X16615729Y-11999966D02*
X16644301Y-11999966D01*
X16644301Y-11999966D02*
X16663349Y-12009490D01*
X16663349Y-12009490D02*
X16672872Y-12028537D01*
X16672872Y-12028537D02*
X16672872Y-12133299D01*
X16796682Y-12133299D02*
X16777634Y-12123775D01*
X16777634Y-12123775D02*
X16768110Y-12114251D01*
X16768110Y-12114251D02*
X16758587Y-12095204D01*
X16758587Y-12095204D02*
X16758587Y-12038061D01*
X16758587Y-12038061D02*
X16768110Y-12019013D01*
X16768110Y-12019013D02*
X16777634Y-12009490D01*
X16777634Y-12009490D02*
X16796682Y-11999966D01*
X16796682Y-11999966D02*
X16825253Y-11999966D01*
X16825253Y-11999966D02*
X16844301Y-12009490D01*
X16844301Y-12009490D02*
X16853825Y-12019013D01*
X16853825Y-12019013D02*
X16863349Y-12038061D01*
X16863349Y-12038061D02*
X16863349Y-12095204D01*
X16863349Y-12095204D02*
X16853825Y-12114251D01*
X16853825Y-12114251D02*
X16844301Y-12123775D01*
X16844301Y-12123775D02*
X16825253Y-12133299D01*
X16825253Y-12133299D02*
X16796682Y-12133299D01*
X16920492Y-11999966D02*
X16996682Y-11999966D01*
X16949063Y-11933299D02*
X16949063Y-12104728D01*
X16949063Y-12104728D02*
X16958587Y-12123775D01*
X16958587Y-12123775D02*
X16977634Y-12133299D01*
X16977634Y-12133299D02*
X16996682Y-12133299D01*
X17215730Y-11999966D02*
X17215730Y-12199966D01*
X17215730Y-12009490D02*
X17234777Y-11999966D01*
X17234777Y-11999966D02*
X17272873Y-11999966D01*
X17272873Y-11999966D02*
X17291920Y-12009490D01*
X17291920Y-12009490D02*
X17301444Y-12019013D01*
X17301444Y-12019013D02*
X17310968Y-12038061D01*
X17310968Y-12038061D02*
X17310968Y-12095204D01*
X17310968Y-12095204D02*
X17301444Y-12114251D01*
X17301444Y-12114251D02*
X17291920Y-12123775D01*
X17291920Y-12123775D02*
X17272873Y-12133299D01*
X17272873Y-12133299D02*
X17234777Y-12133299D01*
X17234777Y-12133299D02*
X17215730Y-12123775D01*
X17425253Y-12133299D02*
X17406206Y-12123775D01*
X17406206Y-12123775D02*
X17396682Y-12104728D01*
X17396682Y-12104728D02*
X17396682Y-11933299D01*
X17587158Y-12133299D02*
X17587158Y-12028537D01*
X17587158Y-12028537D02*
X17577634Y-12009490D01*
X17577634Y-12009490D02*
X17558587Y-11999966D01*
X17558587Y-11999966D02*
X17520492Y-11999966D01*
X17520492Y-11999966D02*
X17501444Y-12009490D01*
X17587158Y-12123775D02*
X17568111Y-12133299D01*
X17568111Y-12133299D02*
X17520492Y-12133299D01*
X17520492Y-12133299D02*
X17501444Y-12123775D01*
X17501444Y-12123775D02*
X17491920Y-12104728D01*
X17491920Y-12104728D02*
X17491920Y-12085680D01*
X17491920Y-12085680D02*
X17501444Y-12066632D01*
X17501444Y-12066632D02*
X17520492Y-12057109D01*
X17520492Y-12057109D02*
X17568111Y-12057109D01*
X17568111Y-12057109D02*
X17587158Y-12047585D01*
X17653825Y-11999966D02*
X17730015Y-11999966D01*
X17682396Y-11933299D02*
X17682396Y-12104728D01*
X17682396Y-12104728D02*
X17691920Y-12123775D01*
X17691920Y-12123775D02*
X17710968Y-12133299D01*
X17710968Y-12133299D02*
X17730015Y-12133299D01*
X17872873Y-12123775D02*
X17853825Y-12133299D01*
X17853825Y-12133299D02*
X17815730Y-12133299D01*
X17815730Y-12133299D02*
X17796682Y-12123775D01*
X17796682Y-12123775D02*
X17787158Y-12104728D01*
X17787158Y-12104728D02*
X17787158Y-12028537D01*
X17787158Y-12028537D02*
X17796682Y-12009490D01*
X17796682Y-12009490D02*
X17815730Y-11999966D01*
X17815730Y-11999966D02*
X17853825Y-11999966D01*
X17853825Y-11999966D02*
X17872873Y-12009490D01*
X17872873Y-12009490D02*
X17882396Y-12028537D01*
X17882396Y-12028537D02*
X17882396Y-12047585D01*
X17882396Y-12047585D02*
X17787158Y-12066632D01*
X18053825Y-12133299D02*
X18053825Y-11933299D01*
X18053825Y-12123775D02*
X18034777Y-12133299D01*
X18034777Y-12133299D02*
X17996682Y-12133299D01*
X17996682Y-12133299D02*
X17977634Y-12123775D01*
X17977634Y-12123775D02*
X17968111Y-12114251D01*
X17968111Y-12114251D02*
X17958587Y-12095204D01*
X17958587Y-12095204D02*
X17958587Y-12038061D01*
X17958587Y-12038061D02*
X17968111Y-12019013D01*
X17968111Y-12019013D02*
X17977634Y-12009490D01*
X17977634Y-12009490D02*
X17996682Y-11999966D01*
X17996682Y-11999966D02*
X18034777Y-11999966D01*
X18034777Y-11999966D02*
X18053825Y-12009490D01*
X18130015Y-12209490D02*
X18139539Y-12199966D01*
X18139539Y-12199966D02*
X18158587Y-12171394D01*
X18158587Y-12171394D02*
X18168111Y-12152347D01*
X18168111Y-12152347D02*
X18177634Y-12123775D01*
X18177634Y-12123775D02*
X18187158Y-12076156D01*
X18187158Y-12076156D02*
X18187158Y-12038061D01*
X18187158Y-12038061D02*
X18177634Y-11990442D01*
X18177634Y-11990442D02*
X18168111Y-11961871D01*
X18168111Y-11961871D02*
X18158587Y-11942823D01*
X18158587Y-11942823D02*
X18139539Y-11914251D01*
X18139539Y-11914251D02*
X18130015Y-11904728D01*
M02*
