G04 #@! TF.GenerationSoftware,KiCad,Pcbnew,7.0.8*
G04 #@! TF.CreationDate,2024-05-09T20:38:46-03:00*
G04 #@! TF.ProjectId,lamp_module_x2,6c616d70-5f6d-46f6-9475-6c655f78322e,1.1*
G04 #@! TF.SameCoordinates,Original*
G04 #@! TF.FileFunction,Legend,Top*
G04 #@! TF.FilePolarity,Positive*
%FSLAX46Y46*%
G04 Gerber Fmt 4.6, Leading zero omitted, Abs format (unit mm)*
G04 Created by KiCad (PCBNEW 7.0.8) date 2024-05-09 20:38:46*
%MOMM*%
%LPD*%
G01*
G04 APERTURE LIST*
G04 Aperture macros list*
%AMRoundRect*
0 Rectangle with rounded corners*
0 $1 Rounding radius*
0 $2 $3 $4 $5 $6 $7 $8 $9 X,Y pos of 4 corners*
0 Add a 4 corners polygon primitive as box body*
4,1,4,$2,$3,$4,$5,$6,$7,$8,$9,$2,$3,0*
0 Add four circle primitives for the rounded corners*
1,1,$1+$1,$2,$3*
1,1,$1+$1,$4,$5*
1,1,$1+$1,$6,$7*
1,1,$1+$1,$8,$9*
0 Add four rect primitives between the rounded corners*
20,1,$1+$1,$2,$3,$4,$5,0*
20,1,$1+$1,$4,$5,$6,$7,0*
20,1,$1+$1,$6,$7,$8,$9,0*
20,1,$1+$1,$8,$9,$2,$3,0*%
G04 Aperture macros list end*
%ADD10C,0.200000*%
%ADD11C,0.350000*%
%ADD12C,0.150000*%
%ADD13C,0.120000*%
%ADD14C,0.152400*%
%ADD15RoundRect,0.125000X0.125000X0.125000X-0.125000X0.125000X-0.125000X-0.125000X0.125000X-0.125000X0*%
%ADD16R,2.000000X1.780000*%
%ADD17RoundRect,0.200000X-0.275000X0.200000X-0.275000X-0.200000X0.275000X-0.200000X0.275000X0.200000X0*%
%ADD18RoundRect,0.150000X-0.587500X-0.150000X0.587500X-0.150000X0.587500X0.150000X-0.587500X0.150000X0*%
%ADD19C,3.000000*%
%ADD20C,2.600000*%
%ADD21R,2.600000X2.600000*%
%ADD22RoundRect,0.225000X-0.250000X0.225000X-0.250000X-0.225000X0.250000X-0.225000X0.250000X0.225000X0*%
%ADD23C,2.500000*%
%ADD24O,1.700000X1.700000*%
%ADD25R,1.700000X1.700000*%
%ADD26RoundRect,0.218750X0.218750X0.256250X-0.218750X0.256250X-0.218750X-0.256250X0.218750X-0.256250X0*%
%ADD27R,1.500000X2.000000*%
%ADD28R,3.800000X2.000000*%
%ADD29RoundRect,0.250000X0.450000X0.425000X-0.450000X0.425000X-0.450000X-0.425000X0.450000X-0.425000X0*%
%ADD30R,1.100000X2.500000*%
%ADD31R,2.500000X1.100000*%
%ADD32C,2.400000*%
%ADD33R,2.300000X2.000000*%
%ADD34C,2.300000*%
%ADD35RoundRect,0.250000X-0.425000X0.450000X-0.425000X-0.450000X0.425000X-0.450000X0.425000X0.450000X0*%
%ADD36RoundRect,0.250000X1.500000X0.550000X-1.500000X0.550000X-1.500000X-0.550000X1.500000X-0.550000X0*%
%ADD37RoundRect,0.200000X-0.200000X-0.275000X0.200000X-0.275000X0.200000X0.275000X-0.200000X0.275000X0*%
%ADD38R,1.500000X1.500000*%
%ADD39C,1.500000*%
G04 APERTURE END LIST*
D10*
X137805219Y-79318770D02*
X138519504Y-79318770D01*
X138519504Y-79318770D02*
X138662361Y-79366389D01*
X138662361Y-79366389D02*
X138757600Y-79461627D01*
X138757600Y-79461627D02*
X138805219Y-79604484D01*
X138805219Y-79604484D02*
X138805219Y-79699722D01*
X138805219Y-78366389D02*
X138805219Y-78842579D01*
X138805219Y-78842579D02*
X137805219Y-78842579D01*
X138709980Y-77461627D02*
X138757600Y-77509246D01*
X138757600Y-77509246D02*
X138805219Y-77652103D01*
X138805219Y-77652103D02*
X138805219Y-77747341D01*
X138805219Y-77747341D02*
X138757600Y-77890198D01*
X138757600Y-77890198D02*
X138662361Y-77985436D01*
X138662361Y-77985436D02*
X138567123Y-78033055D01*
X138567123Y-78033055D02*
X138376647Y-78080674D01*
X138376647Y-78080674D02*
X138233790Y-78080674D01*
X138233790Y-78080674D02*
X138043314Y-78033055D01*
X138043314Y-78033055D02*
X137948076Y-77985436D01*
X137948076Y-77985436D02*
X137852838Y-77890198D01*
X137852838Y-77890198D02*
X137805219Y-77747341D01*
X137805219Y-77747341D02*
X137805219Y-77652103D01*
X137805219Y-77652103D02*
X137852838Y-77509246D01*
X137852838Y-77509246D02*
X137900457Y-77461627D01*
X137805219Y-76747341D02*
X138519504Y-76747341D01*
X138519504Y-76747341D02*
X138662361Y-76794960D01*
X138662361Y-76794960D02*
X138757600Y-76890198D01*
X138757600Y-76890198D02*
X138805219Y-77033055D01*
X138805219Y-77033055D02*
X138805219Y-77128293D01*
X138805219Y-75794960D02*
X138805219Y-76271150D01*
X138805219Y-76271150D02*
X137805219Y-76271150D01*
X138709980Y-74890198D02*
X138757600Y-74937817D01*
X138757600Y-74937817D02*
X138805219Y-75080674D01*
X138805219Y-75080674D02*
X138805219Y-75175912D01*
X138805219Y-75175912D02*
X138757600Y-75318769D01*
X138757600Y-75318769D02*
X138662361Y-75414007D01*
X138662361Y-75414007D02*
X138567123Y-75461626D01*
X138567123Y-75461626D02*
X138376647Y-75509245D01*
X138376647Y-75509245D02*
X138233790Y-75509245D01*
X138233790Y-75509245D02*
X138043314Y-75461626D01*
X138043314Y-75461626D02*
X137948076Y-75414007D01*
X137948076Y-75414007D02*
X137852838Y-75318769D01*
X137852838Y-75318769D02*
X137805219Y-75175912D01*
X137805219Y-75175912D02*
X137805219Y-75080674D01*
X137805219Y-75080674D02*
X137852838Y-74937817D01*
X137852838Y-74937817D02*
X137900457Y-74890198D01*
X137805219Y-74175912D02*
X138519504Y-74175912D01*
X138519504Y-74175912D02*
X138662361Y-74223531D01*
X138662361Y-74223531D02*
X138757600Y-74318769D01*
X138757600Y-74318769D02*
X138805219Y-74461626D01*
X138805219Y-74461626D02*
X138805219Y-74556864D01*
X138805219Y-73223531D02*
X138805219Y-73699721D01*
X138805219Y-73699721D02*
X137805219Y-73699721D01*
X138709980Y-72318769D02*
X138757600Y-72366388D01*
X138757600Y-72366388D02*
X138805219Y-72509245D01*
X138805219Y-72509245D02*
X138805219Y-72604483D01*
X138805219Y-72604483D02*
X138757600Y-72747340D01*
X138757600Y-72747340D02*
X138662361Y-72842578D01*
X138662361Y-72842578D02*
X138567123Y-72890197D01*
X138567123Y-72890197D02*
X138376647Y-72937816D01*
X138376647Y-72937816D02*
X138233790Y-72937816D01*
X138233790Y-72937816D02*
X138043314Y-72890197D01*
X138043314Y-72890197D02*
X137948076Y-72842578D01*
X137948076Y-72842578D02*
X137852838Y-72747340D01*
X137852838Y-72747340D02*
X137805219Y-72604483D01*
X137805219Y-72604483D02*
X137805219Y-72509245D01*
X137805219Y-72509245D02*
X137852838Y-72366388D01*
X137852838Y-72366388D02*
X137900457Y-72318769D01*
X137805219Y-71604483D02*
X138519504Y-71604483D01*
X138519504Y-71604483D02*
X138662361Y-71652102D01*
X138662361Y-71652102D02*
X138757600Y-71747340D01*
X138757600Y-71747340D02*
X138805219Y-71890197D01*
X138805219Y-71890197D02*
X138805219Y-71985435D01*
X138805219Y-70652102D02*
X138805219Y-71128292D01*
X138805219Y-71128292D02*
X137805219Y-71128292D01*
X138709980Y-69747340D02*
X138757600Y-69794959D01*
X138757600Y-69794959D02*
X138805219Y-69937816D01*
X138805219Y-69937816D02*
X138805219Y-70033054D01*
X138805219Y-70033054D02*
X138757600Y-70175911D01*
X138757600Y-70175911D02*
X138662361Y-70271149D01*
X138662361Y-70271149D02*
X138567123Y-70318768D01*
X138567123Y-70318768D02*
X138376647Y-70366387D01*
X138376647Y-70366387D02*
X138233790Y-70366387D01*
X138233790Y-70366387D02*
X138043314Y-70318768D01*
X138043314Y-70318768D02*
X137948076Y-70271149D01*
X137948076Y-70271149D02*
X137852838Y-70175911D01*
X137852838Y-70175911D02*
X137805219Y-70033054D01*
X137805219Y-70033054D02*
X137805219Y-69937816D01*
X137805219Y-69937816D02*
X137852838Y-69794959D01*
X137852838Y-69794959D02*
X137900457Y-69747340D01*
D11*
X149148800Y-83388200D02*
X148336000Y-81610200D01*
X157988000Y-97096661D02*
X161838000Y-97096661D01*
X149190647Y-84328000D02*
X149190647Y-88178000D01*
X149190647Y-89578000D02*
X149190647Y-93428000D01*
X149190647Y-94828000D02*
X149190647Y-98678000D01*
X149190647Y-100078000D02*
X149190647Y-103124015D01*
X149190647Y-104692715D02*
G75*
G03*
X150690647Y-106192715I1499999J-1D01*
G01*
X153254647Y-106192715D02*
G75*
G03*
X154754647Y-104692715I-1J1500001D01*
G01*
X154754647Y-99822015D02*
X154754647Y-103124015D01*
X156254647Y-97096661D02*
G75*
G03*
X154754647Y-98596661I20J-1500020D01*
G01*
X136075340Y-57658000D02*
X136075340Y-58166000D01*
X134575340Y-61145340D02*
G75*
G03*
X136075340Y-59645340I-1J1500001D01*
G01*
X130624660Y-59645340D02*
G75*
G03*
X132124660Y-61145340I1500001J1D01*
G01*
X130624660Y-51054000D02*
X130624660Y-54904000D01*
X130624660Y-56304000D02*
X130624660Y-58420000D01*
X145542000Y-54932660D02*
X141692000Y-54932660D01*
X140292000Y-54932660D02*
X138938000Y-54932660D01*
X137575340Y-54932660D02*
G75*
G03*
X136075340Y-56432660I1J-1500001D01*
G01*
X148336000Y-56432660D02*
G75*
G03*
X146836000Y-54932660I-1500001J-1D01*
G01*
X165886000Y-99777300D02*
X165886000Y-103079300D01*
X171450000Y-99777300D02*
X171450000Y-103079300D01*
X165862000Y-104648000D02*
G75*
G03*
X167362000Y-106148000I1500000J0D01*
G01*
X165378000Y-98507300D02*
G75*
G03*
X163878000Y-97007300I-1500000J0D01*
G01*
X174244000Y-97028000D02*
X176554000Y-97028000D01*
X172950000Y-97051900D02*
G75*
G03*
X171450000Y-98551946I100J-1500100D01*
G01*
X148336000Y-80727300D02*
X148336000Y-76877300D01*
X148336000Y-75477300D02*
X148336000Y-71627300D01*
X148336000Y-70227300D02*
X148336000Y-66377300D01*
X148336000Y-64977300D02*
X148336000Y-61127300D01*
X148336000Y-59727300D02*
X148336000Y-57404000D01*
X169950000Y-106148000D02*
G75*
G03*
X171450000Y-104648000I0J1500000D01*
G01*
D12*
X168679905Y-110508819D02*
X168679905Y-109508819D01*
X168679905Y-109508819D02*
X168918000Y-109508819D01*
X168918000Y-109508819D02*
X169060857Y-109556438D01*
X169060857Y-109556438D02*
X169156095Y-109651676D01*
X169156095Y-109651676D02*
X169203714Y-109746914D01*
X169203714Y-109746914D02*
X169251333Y-109937390D01*
X169251333Y-109937390D02*
X169251333Y-110080247D01*
X169251333Y-110080247D02*
X169203714Y-110270723D01*
X169203714Y-110270723D02*
X169156095Y-110365961D01*
X169156095Y-110365961D02*
X169060857Y-110461200D01*
X169060857Y-110461200D02*
X168918000Y-110508819D01*
X168918000Y-110508819D02*
X168679905Y-110508819D01*
X169632286Y-109604057D02*
X169679905Y-109556438D01*
X169679905Y-109556438D02*
X169775143Y-109508819D01*
X169775143Y-109508819D02*
X170013238Y-109508819D01*
X170013238Y-109508819D02*
X170108476Y-109556438D01*
X170108476Y-109556438D02*
X170156095Y-109604057D01*
X170156095Y-109604057D02*
X170203714Y-109699295D01*
X170203714Y-109699295D02*
X170203714Y-109794533D01*
X170203714Y-109794533D02*
X170156095Y-109937390D01*
X170156095Y-109937390D02*
X169584667Y-110508819D01*
X169584667Y-110508819D02*
X170203714Y-110508819D01*
X125222095Y-93180819D02*
X125222095Y-93990342D01*
X125222095Y-93990342D02*
X125269714Y-94085580D01*
X125269714Y-94085580D02*
X125317333Y-94133200D01*
X125317333Y-94133200D02*
X125412571Y-94180819D01*
X125412571Y-94180819D02*
X125603047Y-94180819D01*
X125603047Y-94180819D02*
X125698285Y-94133200D01*
X125698285Y-94133200D02*
X125745904Y-94085580D01*
X125745904Y-94085580D02*
X125793523Y-93990342D01*
X125793523Y-93990342D02*
X125793523Y-93180819D01*
X126698285Y-93514152D02*
X126698285Y-94180819D01*
X126460190Y-93133200D02*
X126222095Y-93847485D01*
X126222095Y-93847485D02*
X126841142Y-93847485D01*
X159599333Y-109483819D02*
X159266000Y-109007628D01*
X159027905Y-109483819D02*
X159027905Y-108483819D01*
X159027905Y-108483819D02*
X159408857Y-108483819D01*
X159408857Y-108483819D02*
X159504095Y-108531438D01*
X159504095Y-108531438D02*
X159551714Y-108579057D01*
X159551714Y-108579057D02*
X159599333Y-108674295D01*
X159599333Y-108674295D02*
X159599333Y-108817152D01*
X159599333Y-108817152D02*
X159551714Y-108912390D01*
X159551714Y-108912390D02*
X159504095Y-108960009D01*
X159504095Y-108960009D02*
X159408857Y-109007628D01*
X159408857Y-109007628D02*
X159027905Y-109007628D01*
X159932667Y-108483819D02*
X160599333Y-108483819D01*
X160599333Y-108483819D02*
X160170762Y-109483819D01*
X164926261Y-111294057D02*
X164831023Y-111246438D01*
X164831023Y-111246438D02*
X164735785Y-111151200D01*
X164735785Y-111151200D02*
X164592928Y-111008342D01*
X164592928Y-111008342D02*
X164497690Y-110960723D01*
X164497690Y-110960723D02*
X164402452Y-110960723D01*
X164450071Y-111198819D02*
X164354833Y-111151200D01*
X164354833Y-111151200D02*
X164259595Y-111055961D01*
X164259595Y-111055961D02*
X164211976Y-110865485D01*
X164211976Y-110865485D02*
X164211976Y-110532152D01*
X164211976Y-110532152D02*
X164259595Y-110341676D01*
X164259595Y-110341676D02*
X164354833Y-110246438D01*
X164354833Y-110246438D02*
X164450071Y-110198819D01*
X164450071Y-110198819D02*
X164640547Y-110198819D01*
X164640547Y-110198819D02*
X164735785Y-110246438D01*
X164735785Y-110246438D02*
X164831023Y-110341676D01*
X164831023Y-110341676D02*
X164878642Y-110532152D01*
X164878642Y-110532152D02*
X164878642Y-110865485D01*
X164878642Y-110865485D02*
X164831023Y-111055961D01*
X164831023Y-111055961D02*
X164735785Y-111151200D01*
X164735785Y-111151200D02*
X164640547Y-111198819D01*
X164640547Y-111198819D02*
X164450071Y-111198819D01*
X165259595Y-110294057D02*
X165307214Y-110246438D01*
X165307214Y-110246438D02*
X165402452Y-110198819D01*
X165402452Y-110198819D02*
X165640547Y-110198819D01*
X165640547Y-110198819D02*
X165735785Y-110246438D01*
X165735785Y-110246438D02*
X165783404Y-110294057D01*
X165783404Y-110294057D02*
X165831023Y-110389295D01*
X165831023Y-110389295D02*
X165831023Y-110484533D01*
X165831023Y-110484533D02*
X165783404Y-110627390D01*
X165783404Y-110627390D02*
X165211976Y-111198819D01*
X165211976Y-111198819D02*
X165831023Y-111198819D01*
X174521905Y-107134819D02*
X174521905Y-106134819D01*
X175093333Y-107134819D02*
X174664762Y-106563390D01*
X175093333Y-106134819D02*
X174521905Y-106706247D01*
X175474286Y-106230057D02*
X175521905Y-106182438D01*
X175521905Y-106182438D02*
X175617143Y-106134819D01*
X175617143Y-106134819D02*
X175855238Y-106134819D01*
X175855238Y-106134819D02*
X175950476Y-106182438D01*
X175950476Y-106182438D02*
X175998095Y-106230057D01*
X175998095Y-106230057D02*
X176045714Y-106325295D01*
X176045714Y-106325295D02*
X176045714Y-106420533D01*
X176045714Y-106420533D02*
X175998095Y-106563390D01*
X175998095Y-106563390D02*
X175426667Y-107134819D01*
X175426667Y-107134819D02*
X176045714Y-107134819D01*
X118792666Y-56604819D02*
X118792666Y-57319104D01*
X118792666Y-57319104D02*
X118745047Y-57461961D01*
X118745047Y-57461961D02*
X118649809Y-57557200D01*
X118649809Y-57557200D02*
X118506952Y-57604819D01*
X118506952Y-57604819D02*
X118411714Y-57604819D01*
X119173619Y-56604819D02*
X119792666Y-56604819D01*
X119792666Y-56604819D02*
X119459333Y-56985771D01*
X119459333Y-56985771D02*
X119602190Y-56985771D01*
X119602190Y-56985771D02*
X119697428Y-57033390D01*
X119697428Y-57033390D02*
X119745047Y-57081009D01*
X119745047Y-57081009D02*
X119792666Y-57176247D01*
X119792666Y-57176247D02*
X119792666Y-57414342D01*
X119792666Y-57414342D02*
X119745047Y-57509580D01*
X119745047Y-57509580D02*
X119697428Y-57557200D01*
X119697428Y-57557200D02*
X119602190Y-57604819D01*
X119602190Y-57604819D02*
X119316476Y-57604819D01*
X119316476Y-57604819D02*
X119221238Y-57557200D01*
X119221238Y-57557200D02*
X119173619Y-57509580D01*
X122753810Y-52432500D02*
X122896667Y-52480119D01*
X122896667Y-52480119D02*
X123134762Y-52480119D01*
X123134762Y-52480119D02*
X123230000Y-52432500D01*
X123230000Y-52432500D02*
X123277619Y-52384880D01*
X123277619Y-52384880D02*
X123325238Y-52289642D01*
X123325238Y-52289642D02*
X123325238Y-52194404D01*
X123325238Y-52194404D02*
X123277619Y-52099166D01*
X123277619Y-52099166D02*
X123230000Y-52051547D01*
X123230000Y-52051547D02*
X123134762Y-52003928D01*
X123134762Y-52003928D02*
X122944286Y-51956309D01*
X122944286Y-51956309D02*
X122849048Y-51908690D01*
X122849048Y-51908690D02*
X122801429Y-51861071D01*
X122801429Y-51861071D02*
X122753810Y-51765833D01*
X122753810Y-51765833D02*
X122753810Y-51670595D01*
X122753810Y-51670595D02*
X122801429Y-51575357D01*
X122801429Y-51575357D02*
X122849048Y-51527738D01*
X122849048Y-51527738D02*
X122944286Y-51480119D01*
X122944286Y-51480119D02*
X123182381Y-51480119D01*
X123182381Y-51480119D02*
X123325238Y-51527738D01*
X123658572Y-51480119D02*
X123896667Y-52480119D01*
X123896667Y-52480119D02*
X124087143Y-51765833D01*
X124087143Y-51765833D02*
X124277619Y-52480119D01*
X124277619Y-52480119D02*
X124515715Y-51480119D01*
X124896667Y-52480119D02*
X124896667Y-51480119D01*
X125230000Y-51480119D02*
X125801428Y-51480119D01*
X125515714Y-52480119D02*
X125515714Y-51480119D01*
X126706190Y-52384880D02*
X126658571Y-52432500D01*
X126658571Y-52432500D02*
X126515714Y-52480119D01*
X126515714Y-52480119D02*
X126420476Y-52480119D01*
X126420476Y-52480119D02*
X126277619Y-52432500D01*
X126277619Y-52432500D02*
X126182381Y-52337261D01*
X126182381Y-52337261D02*
X126134762Y-52242023D01*
X126134762Y-52242023D02*
X126087143Y-52051547D01*
X126087143Y-52051547D02*
X126087143Y-51908690D01*
X126087143Y-51908690D02*
X126134762Y-51718214D01*
X126134762Y-51718214D02*
X126182381Y-51622976D01*
X126182381Y-51622976D02*
X126277619Y-51527738D01*
X126277619Y-51527738D02*
X126420476Y-51480119D01*
X126420476Y-51480119D02*
X126515714Y-51480119D01*
X126515714Y-51480119D02*
X126658571Y-51527738D01*
X126658571Y-51527738D02*
X126706190Y-51575357D01*
X127134762Y-52480119D02*
X127134762Y-51480119D01*
X127134762Y-51956309D02*
X127706190Y-51956309D01*
X127706190Y-52480119D02*
X127706190Y-51480119D01*
X128134762Y-51575357D02*
X128182381Y-51527738D01*
X128182381Y-51527738D02*
X128277619Y-51480119D01*
X128277619Y-51480119D02*
X128515714Y-51480119D01*
X128515714Y-51480119D02*
X128610952Y-51527738D01*
X128610952Y-51527738D02*
X128658571Y-51575357D01*
X128658571Y-51575357D02*
X128706190Y-51670595D01*
X128706190Y-51670595D02*
X128706190Y-51765833D01*
X128706190Y-51765833D02*
X128658571Y-51908690D01*
X128658571Y-51908690D02*
X128087143Y-52480119D01*
X128087143Y-52480119D02*
X128706190Y-52480119D01*
X131683333Y-52480119D02*
X131207143Y-52480119D01*
X131207143Y-52480119D02*
X131207143Y-51480119D01*
X131969048Y-52194404D02*
X132445238Y-52194404D01*
X131873810Y-52480119D02*
X132207143Y-51480119D01*
X132207143Y-51480119D02*
X132540476Y-52480119D01*
X132873810Y-52480119D02*
X132873810Y-51480119D01*
X132873810Y-51480119D02*
X133207143Y-52194404D01*
X133207143Y-52194404D02*
X133540476Y-51480119D01*
X133540476Y-51480119D02*
X133540476Y-52480119D01*
X134016667Y-52480119D02*
X134016667Y-51480119D01*
X134016667Y-51480119D02*
X134397619Y-51480119D01*
X134397619Y-51480119D02*
X134492857Y-51527738D01*
X134492857Y-51527738D02*
X134540476Y-51575357D01*
X134540476Y-51575357D02*
X134588095Y-51670595D01*
X134588095Y-51670595D02*
X134588095Y-51813452D01*
X134588095Y-51813452D02*
X134540476Y-51908690D01*
X134540476Y-51908690D02*
X134492857Y-51956309D01*
X134492857Y-51956309D02*
X134397619Y-52003928D01*
X134397619Y-52003928D02*
X134016667Y-52003928D01*
X134969048Y-51575357D02*
X135016667Y-51527738D01*
X135016667Y-51527738D02*
X135111905Y-51480119D01*
X135111905Y-51480119D02*
X135350000Y-51480119D01*
X135350000Y-51480119D02*
X135445238Y-51527738D01*
X135445238Y-51527738D02*
X135492857Y-51575357D01*
X135492857Y-51575357D02*
X135540476Y-51670595D01*
X135540476Y-51670595D02*
X135540476Y-51765833D01*
X135540476Y-51765833D02*
X135492857Y-51908690D01*
X135492857Y-51908690D02*
X134921429Y-52480119D01*
X134921429Y-52480119D02*
X135540476Y-52480119D01*
X142581333Y-96625580D02*
X142533714Y-96673200D01*
X142533714Y-96673200D02*
X142390857Y-96720819D01*
X142390857Y-96720819D02*
X142295619Y-96720819D01*
X142295619Y-96720819D02*
X142152762Y-96673200D01*
X142152762Y-96673200D02*
X142057524Y-96577961D01*
X142057524Y-96577961D02*
X142009905Y-96482723D01*
X142009905Y-96482723D02*
X141962286Y-96292247D01*
X141962286Y-96292247D02*
X141962286Y-96149390D01*
X141962286Y-96149390D02*
X142009905Y-95958914D01*
X142009905Y-95958914D02*
X142057524Y-95863676D01*
X142057524Y-95863676D02*
X142152762Y-95768438D01*
X142152762Y-95768438D02*
X142295619Y-95720819D01*
X142295619Y-95720819D02*
X142390857Y-95720819D01*
X142390857Y-95720819D02*
X142533714Y-95768438D01*
X142533714Y-95768438D02*
X142581333Y-95816057D01*
X143486095Y-95720819D02*
X143009905Y-95720819D01*
X143009905Y-95720819D02*
X142962286Y-96197009D01*
X142962286Y-96197009D02*
X143009905Y-96149390D01*
X143009905Y-96149390D02*
X143105143Y-96101771D01*
X143105143Y-96101771D02*
X143343238Y-96101771D01*
X143343238Y-96101771D02*
X143438476Y-96149390D01*
X143438476Y-96149390D02*
X143486095Y-96197009D01*
X143486095Y-96197009D02*
X143533714Y-96292247D01*
X143533714Y-96292247D02*
X143533714Y-96530342D01*
X143533714Y-96530342D02*
X143486095Y-96625580D01*
X143486095Y-96625580D02*
X143438476Y-96673200D01*
X143438476Y-96673200D02*
X143343238Y-96720819D01*
X143343238Y-96720819D02*
X143105143Y-96720819D01*
X143105143Y-96720819D02*
X143009905Y-96673200D01*
X143009905Y-96673200D02*
X142962286Y-96625580D01*
X148416261Y-111294057D02*
X148321023Y-111246438D01*
X148321023Y-111246438D02*
X148225785Y-111151200D01*
X148225785Y-111151200D02*
X148082928Y-111008342D01*
X148082928Y-111008342D02*
X147987690Y-110960723D01*
X147987690Y-110960723D02*
X147892452Y-110960723D01*
X147940071Y-111198819D02*
X147844833Y-111151200D01*
X147844833Y-111151200D02*
X147749595Y-111055961D01*
X147749595Y-111055961D02*
X147701976Y-110865485D01*
X147701976Y-110865485D02*
X147701976Y-110532152D01*
X147701976Y-110532152D02*
X147749595Y-110341676D01*
X147749595Y-110341676D02*
X147844833Y-110246438D01*
X147844833Y-110246438D02*
X147940071Y-110198819D01*
X147940071Y-110198819D02*
X148130547Y-110198819D01*
X148130547Y-110198819D02*
X148225785Y-110246438D01*
X148225785Y-110246438D02*
X148321023Y-110341676D01*
X148321023Y-110341676D02*
X148368642Y-110532152D01*
X148368642Y-110532152D02*
X148368642Y-110865485D01*
X148368642Y-110865485D02*
X148321023Y-111055961D01*
X148321023Y-111055961D02*
X148225785Y-111151200D01*
X148225785Y-111151200D02*
X148130547Y-111198819D01*
X148130547Y-111198819D02*
X147940071Y-111198819D01*
X149321023Y-111198819D02*
X148749595Y-111198819D01*
X149035309Y-111198819D02*
X149035309Y-110198819D01*
X149035309Y-110198819D02*
X148940071Y-110341676D01*
X148940071Y-110341676D02*
X148844833Y-110436914D01*
X148844833Y-110436914D02*
X148749595Y-110484533D01*
X152423905Y-110508819D02*
X152423905Y-109508819D01*
X152423905Y-109508819D02*
X152662000Y-109508819D01*
X152662000Y-109508819D02*
X152804857Y-109556438D01*
X152804857Y-109556438D02*
X152900095Y-109651676D01*
X152900095Y-109651676D02*
X152947714Y-109746914D01*
X152947714Y-109746914D02*
X152995333Y-109937390D01*
X152995333Y-109937390D02*
X152995333Y-110080247D01*
X152995333Y-110080247D02*
X152947714Y-110270723D01*
X152947714Y-110270723D02*
X152900095Y-110365961D01*
X152900095Y-110365961D02*
X152804857Y-110461200D01*
X152804857Y-110461200D02*
X152662000Y-110508819D01*
X152662000Y-110508819D02*
X152423905Y-110508819D01*
X153947714Y-110508819D02*
X153376286Y-110508819D01*
X153662000Y-110508819D02*
X153662000Y-109508819D01*
X153662000Y-109508819D02*
X153566762Y-109651676D01*
X153566762Y-109651676D02*
X153471524Y-109746914D01*
X153471524Y-109746914D02*
X153376286Y-109794533D01*
X117039666Y-86322819D02*
X117039666Y-87037104D01*
X117039666Y-87037104D02*
X116992047Y-87179961D01*
X116992047Y-87179961D02*
X116896809Y-87275200D01*
X116896809Y-87275200D02*
X116753952Y-87322819D01*
X116753952Y-87322819D02*
X116658714Y-87322819D01*
X117992047Y-86322819D02*
X117515857Y-86322819D01*
X117515857Y-86322819D02*
X117468238Y-86799009D01*
X117468238Y-86799009D02*
X117515857Y-86751390D01*
X117515857Y-86751390D02*
X117611095Y-86703771D01*
X117611095Y-86703771D02*
X117849190Y-86703771D01*
X117849190Y-86703771D02*
X117944428Y-86751390D01*
X117944428Y-86751390D02*
X117992047Y-86799009D01*
X117992047Y-86799009D02*
X118039666Y-86894247D01*
X118039666Y-86894247D02*
X118039666Y-87132342D01*
X118039666Y-87132342D02*
X117992047Y-87227580D01*
X117992047Y-87227580D02*
X117944428Y-87275200D01*
X117944428Y-87275200D02*
X117849190Y-87322819D01*
X117849190Y-87322819D02*
X117611095Y-87322819D01*
X117611095Y-87322819D02*
X117515857Y-87275200D01*
X117515857Y-87275200D02*
X117468238Y-87227580D01*
X115262819Y-85605713D02*
X114262819Y-85605713D01*
X114262819Y-85605713D02*
X114262819Y-85224761D01*
X114262819Y-85224761D02*
X114310438Y-85129523D01*
X114310438Y-85129523D02*
X114358057Y-85081904D01*
X114358057Y-85081904D02*
X114453295Y-85034285D01*
X114453295Y-85034285D02*
X114596152Y-85034285D01*
X114596152Y-85034285D02*
X114691390Y-85081904D01*
X114691390Y-85081904D02*
X114739009Y-85129523D01*
X114739009Y-85129523D02*
X114786628Y-85224761D01*
X114786628Y-85224761D02*
X114786628Y-85605713D01*
X115262819Y-84034285D02*
X114786628Y-84367618D01*
X115262819Y-84605713D02*
X114262819Y-84605713D01*
X114262819Y-84605713D02*
X114262819Y-84224761D01*
X114262819Y-84224761D02*
X114310438Y-84129523D01*
X114310438Y-84129523D02*
X114358057Y-84081904D01*
X114358057Y-84081904D02*
X114453295Y-84034285D01*
X114453295Y-84034285D02*
X114596152Y-84034285D01*
X114596152Y-84034285D02*
X114691390Y-84081904D01*
X114691390Y-84081904D02*
X114739009Y-84129523D01*
X114739009Y-84129523D02*
X114786628Y-84224761D01*
X114786628Y-84224761D02*
X114786628Y-84605713D01*
X114262819Y-83415237D02*
X114262819Y-83224761D01*
X114262819Y-83224761D02*
X114310438Y-83129523D01*
X114310438Y-83129523D02*
X114405676Y-83034285D01*
X114405676Y-83034285D02*
X114596152Y-82986666D01*
X114596152Y-82986666D02*
X114929485Y-82986666D01*
X114929485Y-82986666D02*
X115119961Y-83034285D01*
X115119961Y-83034285D02*
X115215200Y-83129523D01*
X115215200Y-83129523D02*
X115262819Y-83224761D01*
X115262819Y-83224761D02*
X115262819Y-83415237D01*
X115262819Y-83415237D02*
X115215200Y-83510475D01*
X115215200Y-83510475D02*
X115119961Y-83605713D01*
X115119961Y-83605713D02*
X114929485Y-83653332D01*
X114929485Y-83653332D02*
X114596152Y-83653332D01*
X114596152Y-83653332D02*
X114405676Y-83605713D01*
X114405676Y-83605713D02*
X114310438Y-83510475D01*
X114310438Y-83510475D02*
X114262819Y-83415237D01*
X114310438Y-82034285D02*
X114262819Y-82129523D01*
X114262819Y-82129523D02*
X114262819Y-82272380D01*
X114262819Y-82272380D02*
X114310438Y-82415237D01*
X114310438Y-82415237D02*
X114405676Y-82510475D01*
X114405676Y-82510475D02*
X114500914Y-82558094D01*
X114500914Y-82558094D02*
X114691390Y-82605713D01*
X114691390Y-82605713D02*
X114834247Y-82605713D01*
X114834247Y-82605713D02*
X115024723Y-82558094D01*
X115024723Y-82558094D02*
X115119961Y-82510475D01*
X115119961Y-82510475D02*
X115215200Y-82415237D01*
X115215200Y-82415237D02*
X115262819Y-82272380D01*
X115262819Y-82272380D02*
X115262819Y-82177142D01*
X115262819Y-82177142D02*
X115215200Y-82034285D01*
X115215200Y-82034285D02*
X115167580Y-81986666D01*
X115167580Y-81986666D02*
X114834247Y-81986666D01*
X114834247Y-81986666D02*
X114834247Y-82177142D01*
X115262819Y-80113095D02*
X114786628Y-80446428D01*
X115262819Y-80684523D02*
X114262819Y-80684523D01*
X114262819Y-80684523D02*
X114262819Y-80303571D01*
X114262819Y-80303571D02*
X114310438Y-80208333D01*
X114310438Y-80208333D02*
X114358057Y-80160714D01*
X114358057Y-80160714D02*
X114453295Y-80113095D01*
X114453295Y-80113095D02*
X114596152Y-80113095D01*
X114596152Y-80113095D02*
X114691390Y-80160714D01*
X114691390Y-80160714D02*
X114739009Y-80208333D01*
X114739009Y-80208333D02*
X114786628Y-80303571D01*
X114786628Y-80303571D02*
X114786628Y-80684523D01*
X114262819Y-79684523D02*
X115072342Y-79684523D01*
X115072342Y-79684523D02*
X115167580Y-79636904D01*
X115167580Y-79636904D02*
X115215200Y-79589285D01*
X115215200Y-79589285D02*
X115262819Y-79494047D01*
X115262819Y-79494047D02*
X115262819Y-79303571D01*
X115262819Y-79303571D02*
X115215200Y-79208333D01*
X115215200Y-79208333D02*
X115167580Y-79160714D01*
X115167580Y-79160714D02*
X115072342Y-79113095D01*
X115072342Y-79113095D02*
X114262819Y-79113095D01*
X115262819Y-78636904D02*
X114262819Y-78636904D01*
X114262819Y-78636904D02*
X115262819Y-78065476D01*
X115262819Y-78065476D02*
X114262819Y-78065476D01*
X118260905Y-60862119D02*
X118260905Y-59862119D01*
X118260905Y-59862119D02*
X118499000Y-59862119D01*
X118499000Y-59862119D02*
X118641857Y-59909738D01*
X118641857Y-59909738D02*
X118737095Y-60004976D01*
X118737095Y-60004976D02*
X118784714Y-60100214D01*
X118784714Y-60100214D02*
X118832333Y-60290690D01*
X118832333Y-60290690D02*
X118832333Y-60433547D01*
X118832333Y-60433547D02*
X118784714Y-60624023D01*
X118784714Y-60624023D02*
X118737095Y-60719261D01*
X118737095Y-60719261D02*
X118641857Y-60814500D01*
X118641857Y-60814500D02*
X118499000Y-60862119D01*
X118499000Y-60862119D02*
X118260905Y-60862119D01*
X119165667Y-59862119D02*
X119784714Y-59862119D01*
X119784714Y-59862119D02*
X119451381Y-60243071D01*
X119451381Y-60243071D02*
X119594238Y-60243071D01*
X119594238Y-60243071D02*
X119689476Y-60290690D01*
X119689476Y-60290690D02*
X119737095Y-60338309D01*
X119737095Y-60338309D02*
X119784714Y-60433547D01*
X119784714Y-60433547D02*
X119784714Y-60671642D01*
X119784714Y-60671642D02*
X119737095Y-60766880D01*
X119737095Y-60766880D02*
X119689476Y-60814500D01*
X119689476Y-60814500D02*
X119594238Y-60862119D01*
X119594238Y-60862119D02*
X119308524Y-60862119D01*
X119308524Y-60862119D02*
X119213286Y-60814500D01*
X119213286Y-60814500D02*
X119165667Y-60766880D01*
X114851667Y-59084119D02*
X114851667Y-58084119D01*
X114851667Y-58084119D02*
X115232619Y-58084119D01*
X115232619Y-58084119D02*
X115327857Y-58131738D01*
X115327857Y-58131738D02*
X115375476Y-58179357D01*
X115375476Y-58179357D02*
X115423095Y-58274595D01*
X115423095Y-58274595D02*
X115423095Y-58417452D01*
X115423095Y-58417452D02*
X115375476Y-58512690D01*
X115375476Y-58512690D02*
X115327857Y-58560309D01*
X115327857Y-58560309D02*
X115232619Y-58607928D01*
X115232619Y-58607928D02*
X114851667Y-58607928D01*
X115756429Y-58084119D02*
X115994524Y-59084119D01*
X115994524Y-59084119D02*
X116185000Y-58369833D01*
X116185000Y-58369833D02*
X116375476Y-59084119D01*
X116375476Y-59084119D02*
X116613572Y-58084119D01*
X117565952Y-59084119D02*
X117232619Y-58607928D01*
X116994524Y-59084119D02*
X116994524Y-58084119D01*
X116994524Y-58084119D02*
X117375476Y-58084119D01*
X117375476Y-58084119D02*
X117470714Y-58131738D01*
X117470714Y-58131738D02*
X117518333Y-58179357D01*
X117518333Y-58179357D02*
X117565952Y-58274595D01*
X117565952Y-58274595D02*
X117565952Y-58417452D01*
X117565952Y-58417452D02*
X117518333Y-58512690D01*
X117518333Y-58512690D02*
X117470714Y-58560309D01*
X117470714Y-58560309D02*
X117375476Y-58607928D01*
X117375476Y-58607928D02*
X116994524Y-58607928D01*
X158011905Y-107134819D02*
X158011905Y-106134819D01*
X158583333Y-107134819D02*
X158154762Y-106563390D01*
X158583333Y-106134819D02*
X158011905Y-106706247D01*
X159535714Y-107134819D02*
X158964286Y-107134819D01*
X159250000Y-107134819D02*
X159250000Y-106134819D01*
X159250000Y-106134819D02*
X159154762Y-106277676D01*
X159154762Y-106277676D02*
X159059524Y-106372914D01*
X159059524Y-106372914D02*
X158964286Y-106420533D01*
X154352666Y-53810819D02*
X154352666Y-54525104D01*
X154352666Y-54525104D02*
X154305047Y-54667961D01*
X154305047Y-54667961D02*
X154209809Y-54763200D01*
X154209809Y-54763200D02*
X154066952Y-54810819D01*
X154066952Y-54810819D02*
X153971714Y-54810819D01*
X154781238Y-53906057D02*
X154828857Y-53858438D01*
X154828857Y-53858438D02*
X154924095Y-53810819D01*
X154924095Y-53810819D02*
X155162190Y-53810819D01*
X155162190Y-53810819D02*
X155257428Y-53858438D01*
X155257428Y-53858438D02*
X155305047Y-53906057D01*
X155305047Y-53906057D02*
X155352666Y-54001295D01*
X155352666Y-54001295D02*
X155352666Y-54096533D01*
X155352666Y-54096533D02*
X155305047Y-54239390D01*
X155305047Y-54239390D02*
X154733619Y-54810819D01*
X154733619Y-54810819D02*
X155352666Y-54810819D01*
X149209333Y-52480119D02*
X148733143Y-52480119D01*
X148733143Y-52480119D02*
X148733143Y-51480119D01*
X149495048Y-52194404D02*
X149971238Y-52194404D01*
X149399810Y-52480119D02*
X149733143Y-51480119D01*
X149733143Y-51480119D02*
X150066476Y-52480119D01*
X150399810Y-52480119D02*
X150399810Y-51480119D01*
X150399810Y-51480119D02*
X150733143Y-52194404D01*
X150733143Y-52194404D02*
X151066476Y-51480119D01*
X151066476Y-51480119D02*
X151066476Y-52480119D01*
X151542667Y-52480119D02*
X151542667Y-51480119D01*
X151542667Y-51480119D02*
X151923619Y-51480119D01*
X151923619Y-51480119D02*
X152018857Y-51527738D01*
X152018857Y-51527738D02*
X152066476Y-51575357D01*
X152066476Y-51575357D02*
X152114095Y-51670595D01*
X152114095Y-51670595D02*
X152114095Y-51813452D01*
X152114095Y-51813452D02*
X152066476Y-51908690D01*
X152066476Y-51908690D02*
X152018857Y-51956309D01*
X152018857Y-51956309D02*
X151923619Y-52003928D01*
X151923619Y-52003928D02*
X151542667Y-52003928D01*
X153066476Y-52480119D02*
X152495048Y-52480119D01*
X152780762Y-52480119D02*
X152780762Y-51480119D01*
X152780762Y-51480119D02*
X152685524Y-51622976D01*
X152685524Y-51622976D02*
X152590286Y-51718214D01*
X152590286Y-51718214D02*
X152495048Y-51765833D01*
X140025810Y-52432500D02*
X140168667Y-52480119D01*
X140168667Y-52480119D02*
X140406762Y-52480119D01*
X140406762Y-52480119D02*
X140502000Y-52432500D01*
X140502000Y-52432500D02*
X140549619Y-52384880D01*
X140549619Y-52384880D02*
X140597238Y-52289642D01*
X140597238Y-52289642D02*
X140597238Y-52194404D01*
X140597238Y-52194404D02*
X140549619Y-52099166D01*
X140549619Y-52099166D02*
X140502000Y-52051547D01*
X140502000Y-52051547D02*
X140406762Y-52003928D01*
X140406762Y-52003928D02*
X140216286Y-51956309D01*
X140216286Y-51956309D02*
X140121048Y-51908690D01*
X140121048Y-51908690D02*
X140073429Y-51861071D01*
X140073429Y-51861071D02*
X140025810Y-51765833D01*
X140025810Y-51765833D02*
X140025810Y-51670595D01*
X140025810Y-51670595D02*
X140073429Y-51575357D01*
X140073429Y-51575357D02*
X140121048Y-51527738D01*
X140121048Y-51527738D02*
X140216286Y-51480119D01*
X140216286Y-51480119D02*
X140454381Y-51480119D01*
X140454381Y-51480119D02*
X140597238Y-51527738D01*
X140930572Y-51480119D02*
X141168667Y-52480119D01*
X141168667Y-52480119D02*
X141359143Y-51765833D01*
X141359143Y-51765833D02*
X141549619Y-52480119D01*
X141549619Y-52480119D02*
X141787715Y-51480119D01*
X142168667Y-52480119D02*
X142168667Y-51480119D01*
X142502000Y-51480119D02*
X143073428Y-51480119D01*
X142787714Y-52480119D02*
X142787714Y-51480119D01*
X143978190Y-52384880D02*
X143930571Y-52432500D01*
X143930571Y-52432500D02*
X143787714Y-52480119D01*
X143787714Y-52480119D02*
X143692476Y-52480119D01*
X143692476Y-52480119D02*
X143549619Y-52432500D01*
X143549619Y-52432500D02*
X143454381Y-52337261D01*
X143454381Y-52337261D02*
X143406762Y-52242023D01*
X143406762Y-52242023D02*
X143359143Y-52051547D01*
X143359143Y-52051547D02*
X143359143Y-51908690D01*
X143359143Y-51908690D02*
X143406762Y-51718214D01*
X143406762Y-51718214D02*
X143454381Y-51622976D01*
X143454381Y-51622976D02*
X143549619Y-51527738D01*
X143549619Y-51527738D02*
X143692476Y-51480119D01*
X143692476Y-51480119D02*
X143787714Y-51480119D01*
X143787714Y-51480119D02*
X143930571Y-51527738D01*
X143930571Y-51527738D02*
X143978190Y-51575357D01*
X144406762Y-52480119D02*
X144406762Y-51480119D01*
X144406762Y-51956309D02*
X144978190Y-51956309D01*
X144978190Y-52480119D02*
X144978190Y-51480119D01*
X145978190Y-52480119D02*
X145406762Y-52480119D01*
X145692476Y-52480119D02*
X145692476Y-51480119D01*
X145692476Y-51480119D02*
X145597238Y-51622976D01*
X145597238Y-51622976D02*
X145502000Y-51718214D01*
X145502000Y-51718214D02*
X145406762Y-51765833D01*
X117014666Y-89370819D02*
X117014666Y-90085104D01*
X117014666Y-90085104D02*
X116967047Y-90227961D01*
X116967047Y-90227961D02*
X116871809Y-90323200D01*
X116871809Y-90323200D02*
X116728952Y-90370819D01*
X116728952Y-90370819D02*
X116633714Y-90370819D01*
X117919428Y-89704152D02*
X117919428Y-90370819D01*
X117681333Y-89323200D02*
X117443238Y-90037485D01*
X117443238Y-90037485D02*
X118062285Y-90037485D01*
X115215200Y-100861523D02*
X115262819Y-100718666D01*
X115262819Y-100718666D02*
X115262819Y-100480571D01*
X115262819Y-100480571D02*
X115215200Y-100385333D01*
X115215200Y-100385333D02*
X115167580Y-100337714D01*
X115167580Y-100337714D02*
X115072342Y-100290095D01*
X115072342Y-100290095D02*
X114977104Y-100290095D01*
X114977104Y-100290095D02*
X114881866Y-100337714D01*
X114881866Y-100337714D02*
X114834247Y-100385333D01*
X114834247Y-100385333D02*
X114786628Y-100480571D01*
X114786628Y-100480571D02*
X114739009Y-100671047D01*
X114739009Y-100671047D02*
X114691390Y-100766285D01*
X114691390Y-100766285D02*
X114643771Y-100813904D01*
X114643771Y-100813904D02*
X114548533Y-100861523D01*
X114548533Y-100861523D02*
X114453295Y-100861523D01*
X114453295Y-100861523D02*
X114358057Y-100813904D01*
X114358057Y-100813904D02*
X114310438Y-100766285D01*
X114310438Y-100766285D02*
X114262819Y-100671047D01*
X114262819Y-100671047D02*
X114262819Y-100432952D01*
X114262819Y-100432952D02*
X114310438Y-100290095D01*
X114739009Y-99861523D02*
X114739009Y-99528190D01*
X115262819Y-99385333D02*
X115262819Y-99861523D01*
X115262819Y-99861523D02*
X114262819Y-99861523D01*
X114262819Y-99861523D02*
X114262819Y-99385333D01*
X115262819Y-98385333D02*
X114786628Y-98718666D01*
X115262819Y-98956761D02*
X114262819Y-98956761D01*
X114262819Y-98956761D02*
X114262819Y-98575809D01*
X114262819Y-98575809D02*
X114310438Y-98480571D01*
X114310438Y-98480571D02*
X114358057Y-98432952D01*
X114358057Y-98432952D02*
X114453295Y-98385333D01*
X114453295Y-98385333D02*
X114596152Y-98385333D01*
X114596152Y-98385333D02*
X114691390Y-98432952D01*
X114691390Y-98432952D02*
X114739009Y-98480571D01*
X114739009Y-98480571D02*
X114786628Y-98575809D01*
X114786628Y-98575809D02*
X114786628Y-98956761D01*
X115262819Y-97956761D02*
X114262819Y-97956761D01*
X114977104Y-97528190D02*
X114977104Y-97052000D01*
X115262819Y-97623428D02*
X114262819Y-97290095D01*
X114262819Y-97290095D02*
X115262819Y-96956762D01*
X115262819Y-96147238D02*
X115262819Y-96623428D01*
X115262819Y-96623428D02*
X114262819Y-96623428D01*
X168036666Y-53810819D02*
X168036666Y-54525104D01*
X168036666Y-54525104D02*
X167989047Y-54667961D01*
X167989047Y-54667961D02*
X167893809Y-54763200D01*
X167893809Y-54763200D02*
X167750952Y-54810819D01*
X167750952Y-54810819D02*
X167655714Y-54810819D01*
X169036666Y-54810819D02*
X168465238Y-54810819D01*
X168750952Y-54810819D02*
X168750952Y-53810819D01*
X168750952Y-53810819D02*
X168655714Y-53953676D01*
X168655714Y-53953676D02*
X168560476Y-54048914D01*
X168560476Y-54048914D02*
X168465238Y-54096533D01*
X158956380Y-52480119D02*
X158480190Y-52480119D01*
X158480190Y-52480119D02*
X158480190Y-51480119D01*
X159146857Y-52099166D02*
X159194476Y-52051547D01*
X159194476Y-52051547D02*
X159289714Y-52003928D01*
X159289714Y-52003928D02*
X159480190Y-52099166D01*
X159480190Y-52099166D02*
X159575428Y-52051547D01*
X159575428Y-52051547D02*
X159623047Y-52003928D01*
X163441143Y-52480119D02*
X163441143Y-51480119D01*
X163441143Y-51480119D02*
X164012571Y-52480119D01*
X164012571Y-52480119D02*
X164012571Y-51480119D01*
X164345905Y-52099166D02*
X164393524Y-52051547D01*
X164393524Y-52051547D02*
X164488762Y-52003928D01*
X164488762Y-52003928D02*
X164679238Y-52099166D01*
X164679238Y-52099166D02*
X164774476Y-52051547D01*
X164774476Y-52051547D02*
X164822095Y-52003928D01*
X118618095Y-74638819D02*
X118618095Y-75448342D01*
X118618095Y-75448342D02*
X118665714Y-75543580D01*
X118665714Y-75543580D02*
X118713333Y-75591200D01*
X118713333Y-75591200D02*
X118808571Y-75638819D01*
X118808571Y-75638819D02*
X118999047Y-75638819D01*
X118999047Y-75638819D02*
X119094285Y-75591200D01*
X119094285Y-75591200D02*
X119141904Y-75543580D01*
X119141904Y-75543580D02*
X119189523Y-75448342D01*
X119189523Y-75448342D02*
X119189523Y-74638819D01*
X120189523Y-75638819D02*
X119618095Y-75638819D01*
X119903809Y-75638819D02*
X119903809Y-74638819D01*
X119903809Y-74638819D02*
X119808571Y-74781676D01*
X119808571Y-74781676D02*
X119713333Y-74876914D01*
X119713333Y-74876914D02*
X119618095Y-74924533D01*
X143089333Y-109483819D02*
X142756000Y-109007628D01*
X142517905Y-109483819D02*
X142517905Y-108483819D01*
X142517905Y-108483819D02*
X142898857Y-108483819D01*
X142898857Y-108483819D02*
X142994095Y-108531438D01*
X142994095Y-108531438D02*
X143041714Y-108579057D01*
X143041714Y-108579057D02*
X143089333Y-108674295D01*
X143089333Y-108674295D02*
X143089333Y-108817152D01*
X143089333Y-108817152D02*
X143041714Y-108912390D01*
X143041714Y-108912390D02*
X142994095Y-108960009D01*
X142994095Y-108960009D02*
X142898857Y-109007628D01*
X142898857Y-109007628D02*
X142517905Y-109007628D01*
X143994095Y-108483819D02*
X143517905Y-108483819D01*
X143517905Y-108483819D02*
X143470286Y-108960009D01*
X143470286Y-108960009D02*
X143517905Y-108912390D01*
X143517905Y-108912390D02*
X143613143Y-108864771D01*
X143613143Y-108864771D02*
X143851238Y-108864771D01*
X143851238Y-108864771D02*
X143946476Y-108912390D01*
X143946476Y-108912390D02*
X143994095Y-108960009D01*
X143994095Y-108960009D02*
X144041714Y-109055247D01*
X144041714Y-109055247D02*
X144041714Y-109293342D01*
X144041714Y-109293342D02*
X143994095Y-109388580D01*
X143994095Y-109388580D02*
X143946476Y-109436200D01*
X143946476Y-109436200D02*
X143851238Y-109483819D01*
X143851238Y-109483819D02*
X143613143Y-109483819D01*
X143613143Y-109483819D02*
X143517905Y-109436200D01*
X143517905Y-109436200D02*
X143470286Y-109388580D01*
X122007333Y-84941580D02*
X121959714Y-84989200D01*
X121959714Y-84989200D02*
X121816857Y-85036819D01*
X121816857Y-85036819D02*
X121721619Y-85036819D01*
X121721619Y-85036819D02*
X121578762Y-84989200D01*
X121578762Y-84989200D02*
X121483524Y-84893961D01*
X121483524Y-84893961D02*
X121435905Y-84798723D01*
X121435905Y-84798723D02*
X121388286Y-84608247D01*
X121388286Y-84608247D02*
X121388286Y-84465390D01*
X121388286Y-84465390D02*
X121435905Y-84274914D01*
X121435905Y-84274914D02*
X121483524Y-84179676D01*
X121483524Y-84179676D02*
X121578762Y-84084438D01*
X121578762Y-84084438D02*
X121721619Y-84036819D01*
X121721619Y-84036819D02*
X121816857Y-84036819D01*
X121816857Y-84036819D02*
X121959714Y-84084438D01*
X121959714Y-84084438D02*
X122007333Y-84132057D01*
X122864476Y-84370152D02*
X122864476Y-85036819D01*
X122626381Y-83989200D02*
X122388286Y-84703485D01*
X122388286Y-84703485D02*
X123007333Y-84703485D01*
X122667095Y-94578665D02*
X122667095Y-95388188D01*
X122667095Y-95388188D02*
X122714714Y-95483426D01*
X122714714Y-95483426D02*
X122762333Y-95531046D01*
X122762333Y-95531046D02*
X122857571Y-95578665D01*
X122857571Y-95578665D02*
X123048047Y-95578665D01*
X123048047Y-95578665D02*
X123143285Y-95531046D01*
X123143285Y-95531046D02*
X123190904Y-95483426D01*
X123190904Y-95483426D02*
X123238523Y-95388188D01*
X123238523Y-95388188D02*
X123238523Y-94578665D01*
X123667095Y-94673903D02*
X123714714Y-94626284D01*
X123714714Y-94626284D02*
X123809952Y-94578665D01*
X123809952Y-94578665D02*
X124048047Y-94578665D01*
X124048047Y-94578665D02*
X124143285Y-94626284D01*
X124143285Y-94626284D02*
X124190904Y-94673903D01*
X124190904Y-94673903D02*
X124238523Y-94769141D01*
X124238523Y-94769141D02*
X124238523Y-94864379D01*
X124238523Y-94864379D02*
X124190904Y-95007236D01*
X124190904Y-95007236D02*
X123619476Y-95578665D01*
X123619476Y-95578665D02*
X124238523Y-95578665D01*
X173441333Y-75070880D02*
X173393714Y-75118500D01*
X173393714Y-75118500D02*
X173250857Y-75166119D01*
X173250857Y-75166119D02*
X173155619Y-75166119D01*
X173155619Y-75166119D02*
X173012762Y-75118500D01*
X173012762Y-75118500D02*
X172917524Y-75023261D01*
X172917524Y-75023261D02*
X172869905Y-74928023D01*
X172869905Y-74928023D02*
X172822286Y-74737547D01*
X172822286Y-74737547D02*
X172822286Y-74594690D01*
X172822286Y-74594690D02*
X172869905Y-74404214D01*
X172869905Y-74404214D02*
X172917524Y-74308976D01*
X172917524Y-74308976D02*
X173012762Y-74213738D01*
X173012762Y-74213738D02*
X173155619Y-74166119D01*
X173155619Y-74166119D02*
X173250857Y-74166119D01*
X173250857Y-74166119D02*
X173393714Y-74213738D01*
X173393714Y-74213738D02*
X173441333Y-74261357D01*
X174393714Y-75166119D02*
X173822286Y-75166119D01*
X174108000Y-75166119D02*
X174108000Y-74166119D01*
X174108000Y-74166119D02*
X174012762Y-74308976D01*
X174012762Y-74308976D02*
X173917524Y-74404214D01*
X173917524Y-74404214D02*
X173822286Y-74451833D01*
X137414095Y-93180819D02*
X137414095Y-93990342D01*
X137414095Y-93990342D02*
X137461714Y-94085580D01*
X137461714Y-94085580D02*
X137509333Y-94133200D01*
X137509333Y-94133200D02*
X137604571Y-94180819D01*
X137604571Y-94180819D02*
X137795047Y-94180819D01*
X137795047Y-94180819D02*
X137890285Y-94133200D01*
X137890285Y-94133200D02*
X137937904Y-94085580D01*
X137937904Y-94085580D02*
X137985523Y-93990342D01*
X137985523Y-93990342D02*
X137985523Y-93180819D01*
X138366476Y-93180819D02*
X138985523Y-93180819D01*
X138985523Y-93180819D02*
X138652190Y-93561771D01*
X138652190Y-93561771D02*
X138795047Y-93561771D01*
X138795047Y-93561771D02*
X138890285Y-93609390D01*
X138890285Y-93609390D02*
X138937904Y-93657009D01*
X138937904Y-93657009D02*
X138985523Y-93752247D01*
X138985523Y-93752247D02*
X138985523Y-93990342D01*
X138985523Y-93990342D02*
X138937904Y-94085580D01*
X138937904Y-94085580D02*
X138890285Y-94133200D01*
X138890285Y-94133200D02*
X138795047Y-94180819D01*
X138795047Y-94180819D02*
X138509333Y-94180819D01*
X138509333Y-94180819D02*
X138414095Y-94133200D01*
X138414095Y-94133200D02*
X138366476Y-94085580D01*
X131373714Y-86358119D02*
X131373714Y-85358119D01*
X131373714Y-85358119D02*
X131754666Y-85358119D01*
X131754666Y-85358119D02*
X131849904Y-85405738D01*
X131849904Y-85405738D02*
X131897523Y-85453357D01*
X131897523Y-85453357D02*
X131945142Y-85548595D01*
X131945142Y-85548595D02*
X131945142Y-85691452D01*
X131945142Y-85691452D02*
X131897523Y-85786690D01*
X131897523Y-85786690D02*
X131849904Y-85834309D01*
X131849904Y-85834309D02*
X131754666Y-85881928D01*
X131754666Y-85881928D02*
X131373714Y-85881928D01*
X132326095Y-86310500D02*
X132468952Y-86358119D01*
X132468952Y-86358119D02*
X132707047Y-86358119D01*
X132707047Y-86358119D02*
X132802285Y-86310500D01*
X132802285Y-86310500D02*
X132849904Y-86262880D01*
X132849904Y-86262880D02*
X132897523Y-86167642D01*
X132897523Y-86167642D02*
X132897523Y-86072404D01*
X132897523Y-86072404D02*
X132849904Y-85977166D01*
X132849904Y-85977166D02*
X132802285Y-85929547D01*
X132802285Y-85929547D02*
X132707047Y-85881928D01*
X132707047Y-85881928D02*
X132516571Y-85834309D01*
X132516571Y-85834309D02*
X132421333Y-85786690D01*
X132421333Y-85786690D02*
X132373714Y-85739071D01*
X132373714Y-85739071D02*
X132326095Y-85643833D01*
X132326095Y-85643833D02*
X132326095Y-85548595D01*
X132326095Y-85548595D02*
X132373714Y-85453357D01*
X132373714Y-85453357D02*
X132421333Y-85405738D01*
X132421333Y-85405738D02*
X132516571Y-85358119D01*
X132516571Y-85358119D02*
X132754666Y-85358119D01*
X132754666Y-85358119D02*
X132897523Y-85405738D01*
X133849904Y-86358119D02*
X133278476Y-86358119D01*
X133564190Y-86358119D02*
X133564190Y-85358119D01*
X133564190Y-85358119D02*
X133468952Y-85500976D01*
X133468952Y-85500976D02*
X133373714Y-85596214D01*
X133373714Y-85596214D02*
X133278476Y-85643833D01*
X124039333Y-85957580D02*
X123991714Y-86005200D01*
X123991714Y-86005200D02*
X123848857Y-86052819D01*
X123848857Y-86052819D02*
X123753619Y-86052819D01*
X123753619Y-86052819D02*
X123610762Y-86005200D01*
X123610762Y-86005200D02*
X123515524Y-85909961D01*
X123515524Y-85909961D02*
X123467905Y-85814723D01*
X123467905Y-85814723D02*
X123420286Y-85624247D01*
X123420286Y-85624247D02*
X123420286Y-85481390D01*
X123420286Y-85481390D02*
X123467905Y-85290914D01*
X123467905Y-85290914D02*
X123515524Y-85195676D01*
X123515524Y-85195676D02*
X123610762Y-85100438D01*
X123610762Y-85100438D02*
X123753619Y-85052819D01*
X123753619Y-85052819D02*
X123848857Y-85052819D01*
X123848857Y-85052819D02*
X123991714Y-85100438D01*
X123991714Y-85100438D02*
X124039333Y-85148057D01*
X124372667Y-85052819D02*
X124991714Y-85052819D01*
X124991714Y-85052819D02*
X124658381Y-85433771D01*
X124658381Y-85433771D02*
X124801238Y-85433771D01*
X124801238Y-85433771D02*
X124896476Y-85481390D01*
X124896476Y-85481390D02*
X124944095Y-85529009D01*
X124944095Y-85529009D02*
X124991714Y-85624247D01*
X124991714Y-85624247D02*
X124991714Y-85862342D01*
X124991714Y-85862342D02*
X124944095Y-85957580D01*
X124944095Y-85957580D02*
X124896476Y-86005200D01*
X124896476Y-86005200D02*
X124801238Y-86052819D01*
X124801238Y-86052819D02*
X124515524Y-86052819D01*
X124515524Y-86052819D02*
X124420286Y-86005200D01*
X124420286Y-86005200D02*
X124372667Y-85957580D01*
X119213333Y-71084880D02*
X119165714Y-71132500D01*
X119165714Y-71132500D02*
X119022857Y-71180119D01*
X119022857Y-71180119D02*
X118927619Y-71180119D01*
X118927619Y-71180119D02*
X118784762Y-71132500D01*
X118784762Y-71132500D02*
X118689524Y-71037261D01*
X118689524Y-71037261D02*
X118641905Y-70942023D01*
X118641905Y-70942023D02*
X118594286Y-70751547D01*
X118594286Y-70751547D02*
X118594286Y-70608690D01*
X118594286Y-70608690D02*
X118641905Y-70418214D01*
X118641905Y-70418214D02*
X118689524Y-70322976D01*
X118689524Y-70322976D02*
X118784762Y-70227738D01*
X118784762Y-70227738D02*
X118927619Y-70180119D01*
X118927619Y-70180119D02*
X119022857Y-70180119D01*
X119022857Y-70180119D02*
X119165714Y-70227738D01*
X119165714Y-70227738D02*
X119213333Y-70275357D01*
X119594286Y-70275357D02*
X119641905Y-70227738D01*
X119641905Y-70227738D02*
X119737143Y-70180119D01*
X119737143Y-70180119D02*
X119975238Y-70180119D01*
X119975238Y-70180119D02*
X120070476Y-70227738D01*
X120070476Y-70227738D02*
X120118095Y-70275357D01*
X120118095Y-70275357D02*
X120165714Y-70370595D01*
X120165714Y-70370595D02*
X120165714Y-70465833D01*
X120165714Y-70465833D02*
X120118095Y-70608690D01*
X120118095Y-70608690D02*
X119546667Y-71180119D01*
X119546667Y-71180119D02*
X120165714Y-71180119D01*
X118832333Y-62894119D02*
X118499000Y-62417928D01*
X118260905Y-62894119D02*
X118260905Y-61894119D01*
X118260905Y-61894119D02*
X118641857Y-61894119D01*
X118641857Y-61894119D02*
X118737095Y-61941738D01*
X118737095Y-61941738D02*
X118784714Y-61989357D01*
X118784714Y-61989357D02*
X118832333Y-62084595D01*
X118832333Y-62084595D02*
X118832333Y-62227452D01*
X118832333Y-62227452D02*
X118784714Y-62322690D01*
X118784714Y-62322690D02*
X118737095Y-62370309D01*
X118737095Y-62370309D02*
X118641857Y-62417928D01*
X118641857Y-62417928D02*
X118260905Y-62417928D01*
X119403762Y-62322690D02*
X119308524Y-62275071D01*
X119308524Y-62275071D02*
X119260905Y-62227452D01*
X119260905Y-62227452D02*
X119213286Y-62132214D01*
X119213286Y-62132214D02*
X119213286Y-62084595D01*
X119213286Y-62084595D02*
X119260905Y-61989357D01*
X119260905Y-61989357D02*
X119308524Y-61941738D01*
X119308524Y-61941738D02*
X119403762Y-61894119D01*
X119403762Y-61894119D02*
X119594238Y-61894119D01*
X119594238Y-61894119D02*
X119689476Y-61941738D01*
X119689476Y-61941738D02*
X119737095Y-61989357D01*
X119737095Y-61989357D02*
X119784714Y-62084595D01*
X119784714Y-62084595D02*
X119784714Y-62132214D01*
X119784714Y-62132214D02*
X119737095Y-62227452D01*
X119737095Y-62227452D02*
X119689476Y-62275071D01*
X119689476Y-62275071D02*
X119594238Y-62322690D01*
X119594238Y-62322690D02*
X119403762Y-62322690D01*
X119403762Y-62322690D02*
X119308524Y-62370309D01*
X119308524Y-62370309D02*
X119260905Y-62417928D01*
X119260905Y-62417928D02*
X119213286Y-62513166D01*
X119213286Y-62513166D02*
X119213286Y-62703642D01*
X119213286Y-62703642D02*
X119260905Y-62798880D01*
X119260905Y-62798880D02*
X119308524Y-62846500D01*
X119308524Y-62846500D02*
X119403762Y-62894119D01*
X119403762Y-62894119D02*
X119594238Y-62894119D01*
X119594238Y-62894119D02*
X119689476Y-62846500D01*
X119689476Y-62846500D02*
X119737095Y-62798880D01*
X119737095Y-62798880D02*
X119784714Y-62703642D01*
X119784714Y-62703642D02*
X119784714Y-62513166D01*
X119784714Y-62513166D02*
X119737095Y-62417928D01*
X119737095Y-62417928D02*
X119689476Y-62370309D01*
X119689476Y-62370309D02*
X119594238Y-62322690D01*
X173418667Y-65939200D02*
X173561524Y-65986819D01*
X173561524Y-65986819D02*
X173799619Y-65986819D01*
X173799619Y-65986819D02*
X173894857Y-65939200D01*
X173894857Y-65939200D02*
X173942476Y-65891580D01*
X173942476Y-65891580D02*
X173990095Y-65796342D01*
X173990095Y-65796342D02*
X173990095Y-65701104D01*
X173990095Y-65701104D02*
X173942476Y-65605866D01*
X173942476Y-65605866D02*
X173894857Y-65558247D01*
X173894857Y-65558247D02*
X173799619Y-65510628D01*
X173799619Y-65510628D02*
X173609143Y-65463009D01*
X173609143Y-65463009D02*
X173513905Y-65415390D01*
X173513905Y-65415390D02*
X173466286Y-65367771D01*
X173466286Y-65367771D02*
X173418667Y-65272533D01*
X173418667Y-65272533D02*
X173418667Y-65177295D01*
X173418667Y-65177295D02*
X173466286Y-65082057D01*
X173466286Y-65082057D02*
X173513905Y-65034438D01*
X173513905Y-65034438D02*
X173609143Y-64986819D01*
X173609143Y-64986819D02*
X173847238Y-64986819D01*
X173847238Y-64986819D02*
X173990095Y-65034438D01*
X174323429Y-64986819D02*
X174561524Y-65986819D01*
X174561524Y-65986819D02*
X174752000Y-65272533D01*
X174752000Y-65272533D02*
X174942476Y-65986819D01*
X174942476Y-65986819D02*
X175180572Y-64986819D01*
X176085333Y-65986819D02*
X175513905Y-65986819D01*
X175799619Y-65986819D02*
X175799619Y-64986819D01*
X175799619Y-64986819D02*
X175704381Y-65129676D01*
X175704381Y-65129676D02*
X175609143Y-65224914D01*
X175609143Y-65224914D02*
X175513905Y-65272533D01*
D13*
X171028000Y-107354000D02*
X168368000Y-107354000D01*
X171028000Y-109054000D02*
X168368000Y-109054000D01*
X171028000Y-109054000D02*
X171028000Y-107354000D01*
X123534000Y-92770000D02*
X128434000Y-92770000D01*
X123534000Y-87570000D02*
X123534000Y-92770000D01*
X128434000Y-87570000D02*
X126984000Y-87570000D01*
X124984000Y-87570000D02*
X123534000Y-87570000D01*
X128434000Y-92770000D02*
X128434000Y-87570000D01*
X124984000Y-87570000D02*
G75*
G03*
X126984000Y-87570000I1000000J0D01*
G01*
X162058500Y-107966742D02*
X162058500Y-108441258D01*
X161013500Y-107966742D02*
X161013500Y-108441258D01*
X165021500Y-109764000D02*
X164371500Y-109764000D01*
X165021500Y-106644000D02*
X163346500Y-106644000D01*
X165021500Y-109764000D02*
X165671500Y-109764000D01*
X165021500Y-106644000D02*
X165671500Y-106644000D01*
X167156000Y-100562001D02*
X167156000Y-95562001D01*
X168656000Y-93062001D02*
X165956000Y-88562001D01*
X162656000Y-98062001D02*
X167156000Y-98062001D01*
X170156000Y-98062001D02*
X174656000Y-98062001D01*
X168656000Y-94562001D02*
X168656000Y-93062001D01*
X167156000Y-95562001D02*
X170156000Y-95562001D01*
X160956000Y-86362001D02*
X176356000Y-86362001D01*
X168656000Y-101462001D02*
X172356000Y-101462001D01*
X172356000Y-94562001D02*
X172356000Y-101462001D01*
X168656000Y-101462001D02*
X168656000Y-102362001D01*
X162656000Y-98062001D02*
X162656000Y-100362001D01*
X170156000Y-95562001D02*
X170156000Y-100562001D01*
X176356000Y-86362001D02*
X176356000Y-105562001D01*
X170156000Y-95562001D02*
X167156000Y-100562001D01*
X168656000Y-94562001D02*
X172356000Y-94562001D01*
X160956000Y-105562001D02*
X160956000Y-86362001D01*
X169856000Y-105562001D02*
X176356000Y-105562001D01*
X172956000Y-89862001D02*
X170656000Y-89862001D01*
X164356000Y-89862001D02*
X166656000Y-89862001D01*
X174656000Y-100362001D02*
X174656000Y-98062001D01*
X170156000Y-100562001D02*
X167156000Y-100562001D01*
X160956000Y-105562001D02*
X167456000Y-105562001D01*
X129950000Y-58121300D02*
G75*
G03*
X129950000Y-58121300I-1680000J0D01*
G01*
X124870000Y-58121300D02*
G75*
G03*
X124870000Y-58121300I-1680000J0D01*
G01*
X133350000Y-56441301D02*
G75*
G03*
X132666682Y-56586545I0J-1679999D01*
G01*
X134034000Y-56586301D02*
G75*
G03*
X133321195Y-56441048I-683999J-1535000D01*
G01*
X132666001Y-59656299D02*
G75*
G03*
X134033042Y-59656726I684000J1534992D01*
G01*
X131815000Y-57437300D02*
G75*
G03*
X131814574Y-58804342I1535000J-684000D01*
G01*
X134884999Y-58805299D02*
G75*
G03*
X134885426Y-57438258I-1534992J684000D01*
G01*
X135950000Y-55521300D02*
X120590000Y-55521300D01*
X126995000Y-59190300D02*
X127042000Y-59144300D01*
X124224000Y-56882300D02*
X124259000Y-56847300D01*
X122120000Y-59396300D02*
X122155000Y-59360300D01*
X136190000Y-53221300D02*
X135690000Y-53221300D01*
X127200000Y-59396300D02*
X127235000Y-59360300D01*
X124417000Y-57098300D02*
X124464000Y-57052300D01*
X129497000Y-57098300D02*
X129544000Y-57052300D01*
X129304000Y-56882300D02*
X129339000Y-56847300D01*
X120590000Y-63382300D02*
X120590000Y-53461300D01*
X135950000Y-54021300D02*
X120590000Y-54021300D01*
X135950000Y-63382300D02*
X135950000Y-53461300D01*
X121915000Y-59190300D02*
X121962000Y-59144300D01*
X135950000Y-60422300D02*
X120590000Y-60422300D01*
X135950000Y-63382300D02*
X120590000Y-63382300D01*
X136190000Y-53961300D02*
X136190000Y-53221300D01*
X135950000Y-53461300D02*
X120590000Y-53461300D01*
X141207001Y-98282266D02*
X141207001Y-98563426D01*
X142227001Y-98282266D02*
X142227001Y-98563426D01*
X148511500Y-109764000D02*
X149161500Y-109764000D01*
X148511500Y-109764000D02*
X147861500Y-109764000D01*
X148511500Y-106644000D02*
X149161500Y-106644000D01*
X148511500Y-106644000D02*
X146836500Y-106644000D01*
X154772000Y-107354000D02*
X152112000Y-107354000D01*
X154772000Y-109054000D02*
X152112000Y-109054000D01*
X154772000Y-109054000D02*
X154772000Y-107354000D01*
X118703000Y-80518000D02*
X118703000Y-85658000D01*
X118703000Y-77918000D02*
X118703000Y-79248000D01*
X117373000Y-77918000D02*
X118703000Y-77918000D01*
X116043000Y-85658000D02*
X118703000Y-85658000D01*
X116043000Y-80518000D02*
X118703000Y-80518000D01*
X116043000Y-80518000D02*
X116043000Y-85658000D01*
X115385000Y-61142300D02*
X117670000Y-61142300D01*
X117670000Y-59672300D02*
X115385000Y-59672300D01*
X117670000Y-61142300D02*
X117670000Y-59672300D01*
X144439000Y-105562000D02*
X150939000Y-105562000D01*
X144439000Y-105562000D02*
X144439000Y-86362000D01*
X153339000Y-105562000D02*
X159839000Y-105562000D01*
X152139000Y-101462000D02*
X152139000Y-102362000D01*
X152139000Y-101462000D02*
X155839000Y-101462000D01*
X150639000Y-100562000D02*
X150639000Y-95562000D01*
X153639000Y-100562000D02*
X150639000Y-100562000D01*
X158139000Y-100362000D02*
X158139000Y-98062000D01*
X146139000Y-98062000D02*
X146139000Y-100362000D01*
X146139000Y-98062000D02*
X150639000Y-98062000D01*
X153639000Y-98062000D02*
X158139000Y-98062000D01*
X150639000Y-95562000D02*
X153639000Y-95562000D01*
X153639000Y-95562000D02*
X150639000Y-100562000D01*
X153639000Y-95562000D02*
X153639000Y-100562000D01*
X152139000Y-94562000D02*
X155839000Y-94562000D01*
X152139000Y-94562000D02*
X152139000Y-93062000D01*
X155839000Y-94562000D02*
X155839000Y-101462000D01*
X152139000Y-93062000D02*
X149439000Y-88562000D01*
X147839000Y-89862000D02*
X150139000Y-89862000D01*
X156439000Y-89862000D02*
X154139000Y-89862000D01*
X144439000Y-86362000D02*
X159839000Y-86362000D01*
X159839000Y-86362000D02*
X159839000Y-105562000D01*
X142396000Y-58121300D02*
G75*
G03*
X142396000Y-58121300I-1680000J0D01*
G01*
X147476000Y-58121300D02*
G75*
G03*
X147476000Y-58121300I-1680000J0D01*
G01*
X149341000Y-57437300D02*
G75*
G03*
X149340574Y-58804342I1535000J-684000D01*
G01*
X150876000Y-56441301D02*
G75*
G03*
X150192682Y-56586545I0J-1679999D01*
G01*
X151560000Y-56586301D02*
G75*
G03*
X150847195Y-56441048I-683999J-1535000D01*
G01*
X150192001Y-59656299D02*
G75*
G03*
X151559042Y-59656726I684000J1534992D01*
G01*
X152410999Y-58805299D02*
G75*
G03*
X152411426Y-57438258I-1534992J684000D01*
G01*
X138116000Y-63382300D02*
X138116000Y-53461300D01*
X139441000Y-59190300D02*
X139488000Y-59144300D01*
X139646000Y-59396300D02*
X139681000Y-59360300D01*
X141750000Y-56882300D02*
X141785000Y-56847300D01*
X141943000Y-57098300D02*
X141990000Y-57052300D01*
X144521000Y-59190300D02*
X144568000Y-59144300D01*
X144726000Y-59396300D02*
X144761000Y-59360300D01*
X146830000Y-56882300D02*
X146865000Y-56847300D01*
X147023000Y-57098300D02*
X147070000Y-57052300D01*
X153476000Y-53461300D02*
X138116000Y-53461300D01*
X153476000Y-54021300D02*
X138116000Y-54021300D01*
X153476000Y-55521300D02*
X138116000Y-55521300D01*
X153476000Y-60422300D02*
X138116000Y-60422300D01*
X153476000Y-63382300D02*
X138116000Y-63382300D01*
X153476000Y-63382300D02*
X153476000Y-53461300D01*
X153716000Y-53221300D02*
X153216000Y-53221300D01*
X153716000Y-53961300D02*
X153716000Y-53221300D01*
X118678000Y-93726000D02*
X118678000Y-106486000D01*
X116018000Y-106486000D02*
X118678000Y-106486000D01*
X116018000Y-93726000D02*
X118678000Y-93726000D01*
X116018000Y-93726000D02*
X116018000Y-106486000D01*
X116018000Y-92456000D02*
X116018000Y-91126000D01*
X116018000Y-91126000D02*
X117348000Y-91126000D01*
X166924000Y-53961300D02*
X166924000Y-53221300D01*
X166924000Y-53221300D02*
X166424000Y-53221300D01*
X166684000Y-63382300D02*
X166684000Y-53461300D01*
X166684000Y-63382300D02*
X156404000Y-63382300D01*
X166684000Y-60422300D02*
X156404000Y-60422300D01*
X166684000Y-55521300D02*
X156404000Y-55521300D01*
X166684000Y-54021300D02*
X156404000Y-54021300D01*
X166684000Y-53461300D02*
X156404000Y-53461300D01*
X160231000Y-57098300D02*
X160278000Y-57052300D01*
X160038000Y-56882300D02*
X160073000Y-56847300D01*
X157934000Y-59396300D02*
X157969000Y-59360300D01*
X157729000Y-59190300D02*
X157776000Y-59144300D01*
X156404000Y-63382300D02*
X156404000Y-53461300D01*
X165618999Y-58805299D02*
G75*
G03*
X165619426Y-57438258I-1534992J684000D01*
G01*
X163400001Y-59656299D02*
G75*
G03*
X164767042Y-59656726I684000J1534992D01*
G01*
X164768000Y-56586301D02*
G75*
G03*
X164055195Y-56441048I-683999J-1535000D01*
G01*
X164084000Y-56441301D02*
G75*
G03*
X163400682Y-56586545I0J-1679999D01*
G01*
X162549000Y-57437300D02*
G75*
G03*
X162548574Y-58804342I1535000J-684000D01*
G01*
X160684000Y-58121300D02*
G75*
G03*
X160684000Y-58121300I-1680000J0D01*
G01*
X120796000Y-80807999D02*
X120796000Y-74797999D01*
X127616000Y-78557999D02*
X127616000Y-74797999D01*
X120796000Y-74797999D02*
X122056000Y-74797999D01*
X127616000Y-74797999D02*
X126356000Y-74797999D01*
X144496500Y-107966742D02*
X144496500Y-108441258D01*
X145541500Y-107966742D02*
X145541500Y-108441258D01*
X125166000Y-83659000D02*
X125166000Y-81789000D01*
X125166000Y-81789000D02*
X121256000Y-81789000D01*
X121256000Y-83659000D02*
X125166000Y-83659000D01*
D14*
X122936000Y-96026846D02*
X122936000Y-96788846D01*
X138938000Y-96026846D02*
X122936000Y-96026846D01*
X138938000Y-96788846D02*
X138938000Y-96026846D01*
D13*
X165814000Y-83751300D02*
X172054000Y-83751300D01*
X165814000Y-83751300D02*
X165814000Y-65511300D01*
X172054000Y-83751300D02*
X172054000Y-65511300D01*
X165814000Y-65511300D02*
X172054000Y-65511300D01*
X137176000Y-87570000D02*
G75*
G03*
X139176000Y-87570000I1000000J0D01*
G01*
X140626000Y-92770000D02*
X140626000Y-87570000D01*
X140626000Y-87570000D02*
X139176000Y-87570000D01*
X137176000Y-87570000D02*
X135726000Y-87570000D01*
X135726000Y-92770000D02*
X140626000Y-92770000D01*
X135726000Y-87570000D02*
X135726000Y-92770000D01*
X164442500Y-78131300D02*
X164442500Y-76121300D01*
X164052500Y-84731300D02*
X164052500Y-64531300D01*
X164052500Y-64531300D02*
X129852500Y-64531300D01*
X129852500Y-84731300D02*
X164052500Y-84731300D01*
X129852500Y-64531300D02*
X129852500Y-84731300D01*
X127440999Y-81764000D02*
X125570999Y-81764000D01*
X125570999Y-81764000D02*
X125570999Y-85674000D01*
X127440999Y-85674000D02*
X127440999Y-81764000D01*
X128643500Y-69778800D02*
X127856000Y-69778800D01*
X128249750Y-70172550D02*
X128249750Y-69385050D01*
X127616000Y-70276863D02*
X127616000Y-68991300D01*
X127616000Y-70276863D02*
X126551563Y-71341300D01*
X127616000Y-65585737D02*
X127616000Y-66871300D01*
X127616000Y-65585737D02*
X126551563Y-64521300D01*
X126551563Y-71341300D02*
X120796000Y-71341300D01*
X126551563Y-64521300D02*
X120796000Y-64521300D01*
X120796000Y-71341300D02*
X120796000Y-68991300D01*
X120796000Y-64521300D02*
X120796000Y-66871300D01*
X115967742Y-62961800D02*
X116442258Y-62961800D01*
X115967742Y-61916800D02*
X116442258Y-61916800D01*
X175304000Y-64560000D02*
X168104000Y-64560000D01*
X170304000Y-62660000D02*
X173104000Y-62660000D01*
X170304000Y-59260000D02*
X170304000Y-62660000D01*
X170304000Y-59260000D02*
X173104000Y-59260000D01*
X173104000Y-59260000D02*
X173104000Y-62660000D01*
X168104000Y-57360000D02*
X168104000Y-64560000D01*
X175304000Y-57360000D02*
X175304000Y-64560000D01*
X175304000Y-57360000D02*
X168104000Y-57360000D01*
%LPC*%
D15*
X170518000Y-108204000D03*
X168318000Y-108204000D03*
D16*
X122174000Y-88900000D03*
X122174000Y-91440000D03*
X129794000Y-91440000D03*
X129794000Y-88900000D03*
D17*
X161536000Y-109029000D03*
X161536000Y-107379000D03*
D18*
X165959000Y-108204000D03*
X164084000Y-109154000D03*
X164084000Y-107254000D03*
D19*
X168656000Y-104062001D03*
X162656000Y-89862001D03*
X174656000Y-89862001D03*
X174656000Y-102062001D03*
X162656000Y-102062001D03*
D20*
X123190000Y-58121300D03*
X128270000Y-58121300D03*
D21*
X133350000Y-58121300D03*
D22*
X141717001Y-99197846D03*
X141717001Y-97647846D03*
D18*
X149449000Y-108204000D03*
X147574000Y-109154000D03*
X147574000Y-107254000D03*
D23*
X116840000Y-53918154D03*
D15*
X152062000Y-108204000D03*
X154262000Y-108204000D03*
D24*
X117373000Y-84328000D03*
X117373000Y-81788000D03*
D25*
X117373000Y-79248000D03*
D23*
X173840000Y-110918153D03*
D26*
X115397500Y-60407300D03*
X116972500Y-60407300D03*
D19*
X152139000Y-104062000D03*
X146139000Y-89862000D03*
X158139000Y-89862000D03*
X158139000Y-102062000D03*
X146139000Y-102062000D03*
D20*
X140716000Y-58121300D03*
X145796000Y-58121300D03*
D21*
X150876000Y-58121300D03*
D24*
X117348000Y-105156000D03*
X117348000Y-102616000D03*
X117348000Y-100076000D03*
X117348000Y-97536000D03*
X117348000Y-94996000D03*
D25*
X117348000Y-92456000D03*
D21*
X164084000Y-58121300D03*
D20*
X159004000Y-58121300D03*
D27*
X121906000Y-79857999D03*
X124206000Y-79857999D03*
D28*
X124206000Y-73557999D03*
D27*
X126506000Y-79857999D03*
D17*
X145019000Y-109029000D03*
X145019000Y-107379000D03*
D29*
X124206000Y-82724000D03*
X121506000Y-82724000D03*
D30*
X125932000Y-95947846D03*
X127932000Y-95947846D03*
X129932000Y-95947846D03*
X131932000Y-95947846D03*
X133932000Y-95947846D03*
X135932000Y-95947846D03*
D31*
X123222000Y-111647846D03*
X123222000Y-109647846D03*
X123222000Y-107647846D03*
X123222000Y-105647846D03*
X123222000Y-103647846D03*
X123222000Y-101647846D03*
X123222000Y-99647846D03*
X123222000Y-97647846D03*
X138622000Y-97647846D03*
X138622000Y-99647846D03*
X138622000Y-101647846D03*
X138622000Y-103647846D03*
X138622000Y-105647846D03*
X138622000Y-107647846D03*
X138622000Y-109647846D03*
X138622000Y-111647846D03*
D32*
X168934000Y-82131300D03*
X168934000Y-67131300D03*
D16*
X141986000Y-88900000D03*
X141986000Y-91440000D03*
X134366000Y-91440000D03*
X134366000Y-88900000D03*
D33*
X161652500Y-77131300D03*
D34*
X161652500Y-72131300D03*
X132252500Y-82331300D03*
X132252500Y-66931300D03*
D35*
X126505999Y-82724000D03*
X126505999Y-85424000D03*
D23*
X116840000Y-110918154D03*
X173840000Y-53918100D03*
D36*
X126906000Y-67931300D03*
X121506000Y-67931300D03*
D37*
X117030000Y-62439300D03*
X115380000Y-62439300D03*
D38*
X169204000Y-62960000D03*
D39*
X169204000Y-60960000D03*
X169204000Y-58960000D03*
X174204000Y-62960000D03*
X174204000Y-60960000D03*
X174204000Y-58960000D03*
%LPD*%
M02*
