G04 #@! TF.GenerationSoftware,KiCad,Pcbnew,7.0.8*
G04 #@! TF.CreationDate,2024-05-09T20:38:46-03:00*
G04 #@! TF.ProjectId,lamp_module_x2,6c616d70-5f6d-46f6-9475-6c655f78322e,1.1*
G04 #@! TF.SameCoordinates,Original*
G04 #@! TF.FileFunction,Soldermask,Top*
G04 #@! TF.FilePolarity,Negative*
%FSLAX46Y46*%
G04 Gerber Fmt 4.6, Leading zero omitted, Abs format (unit mm)*
G04 Created by KiCad (PCBNEW 7.0.8) date 2024-05-09 20:38:46*
%MOMM*%
%LPD*%
G01*
G04 APERTURE LIST*
G04 Aperture macros list*
%AMRoundRect*
0 Rectangle with rounded corners*
0 $1 Rounding radius*
0 $2 $3 $4 $5 $6 $7 $8 $9 X,Y pos of 4 corners*
0 Add a 4 corners polygon primitive as box body*
4,1,4,$2,$3,$4,$5,$6,$7,$8,$9,$2,$3,0*
0 Add four circle primitives for the rounded corners*
1,1,$1+$1,$2,$3*
1,1,$1+$1,$4,$5*
1,1,$1+$1,$6,$7*
1,1,$1+$1,$8,$9*
0 Add four rect primitives between the rounded corners*
20,1,$1+$1,$2,$3,$4,$5,0*
20,1,$1+$1,$4,$5,$6,$7,0*
20,1,$1+$1,$6,$7,$8,$9,0*
20,1,$1+$1,$8,$9,$2,$3,0*%
G04 Aperture macros list end*
%ADD10RoundRect,0.125000X0.125000X0.125000X-0.125000X0.125000X-0.125000X-0.125000X0.125000X-0.125000X0*%
%ADD11R,2.000000X1.780000*%
%ADD12RoundRect,0.200000X-0.275000X0.200000X-0.275000X-0.200000X0.275000X-0.200000X0.275000X0.200000X0*%
%ADD13RoundRect,0.150000X-0.587500X-0.150000X0.587500X-0.150000X0.587500X0.150000X-0.587500X0.150000X0*%
%ADD14C,3.000000*%
%ADD15C,2.600000*%
%ADD16R,2.600000X2.600000*%
%ADD17RoundRect,0.225000X-0.250000X0.225000X-0.250000X-0.225000X0.250000X-0.225000X0.250000X0.225000X0*%
%ADD18C,2.500000*%
%ADD19O,1.700000X1.700000*%
%ADD20R,1.700000X1.700000*%
%ADD21RoundRect,0.218750X0.218750X0.256250X-0.218750X0.256250X-0.218750X-0.256250X0.218750X-0.256250X0*%
%ADD22R,1.500000X2.000000*%
%ADD23R,3.800000X2.000000*%
%ADD24RoundRect,0.250000X0.450000X0.425000X-0.450000X0.425000X-0.450000X-0.425000X0.450000X-0.425000X0*%
%ADD25R,1.100000X2.500000*%
%ADD26R,2.500000X1.100000*%
%ADD27C,2.400000*%
%ADD28R,2.300000X2.000000*%
%ADD29C,2.300000*%
%ADD30RoundRect,0.250000X-0.425000X0.450000X-0.425000X-0.450000X0.425000X-0.450000X0.425000X0.450000X0*%
%ADD31RoundRect,0.250000X1.500000X0.550000X-1.500000X0.550000X-1.500000X-0.550000X1.500000X-0.550000X0*%
%ADD32RoundRect,0.200000X-0.200000X-0.275000X0.200000X-0.275000X0.200000X0.275000X-0.200000X0.275000X0*%
%ADD33R,1.500000X1.500000*%
%ADD34C,1.500000*%
G04 APERTURE END LIST*
D10*
X170518000Y-108204000D03*
X168318000Y-108204000D03*
D11*
X122174000Y-88900000D03*
X122174000Y-91440000D03*
X129794000Y-91440000D03*
X129794000Y-88900000D03*
D12*
X161536000Y-109029000D03*
X161536000Y-107379000D03*
D13*
X165959000Y-108204000D03*
X164084000Y-109154000D03*
X164084000Y-107254000D03*
D14*
X168656000Y-104062001D03*
X162656000Y-89862001D03*
X174656000Y-89862001D03*
X174656000Y-102062001D03*
X162656000Y-102062001D03*
D15*
X123190000Y-58121300D03*
X128270000Y-58121300D03*
D16*
X133350000Y-58121300D03*
D17*
X141717001Y-99197846D03*
X141717001Y-97647846D03*
D13*
X149449000Y-108204000D03*
X147574000Y-109154000D03*
X147574000Y-107254000D03*
D18*
X116840000Y-53918154D03*
D10*
X152062000Y-108204000D03*
X154262000Y-108204000D03*
D19*
X117373000Y-84328000D03*
X117373000Y-81788000D03*
D20*
X117373000Y-79248000D03*
D18*
X173840000Y-110918153D03*
D21*
X115397500Y-60407300D03*
X116972500Y-60407300D03*
D14*
X152139000Y-104062000D03*
X146139000Y-89862000D03*
X158139000Y-89862000D03*
X158139000Y-102062000D03*
X146139000Y-102062000D03*
D15*
X140716000Y-58121300D03*
X145796000Y-58121300D03*
D16*
X150876000Y-58121300D03*
D19*
X117348000Y-105156000D03*
X117348000Y-102616000D03*
X117348000Y-100076000D03*
X117348000Y-97536000D03*
X117348000Y-94996000D03*
D20*
X117348000Y-92456000D03*
D16*
X164084000Y-58121300D03*
D15*
X159004000Y-58121300D03*
D22*
X121906000Y-79857999D03*
X124206000Y-79857999D03*
D23*
X124206000Y-73557999D03*
D22*
X126506000Y-79857999D03*
D12*
X145019000Y-109029000D03*
X145019000Y-107379000D03*
D24*
X124206000Y-82724000D03*
X121506000Y-82724000D03*
D25*
X125932000Y-95947846D03*
X127932000Y-95947846D03*
X129932000Y-95947846D03*
X131932000Y-95947846D03*
X133932000Y-95947846D03*
X135932000Y-95947846D03*
D26*
X123222000Y-111647846D03*
X123222000Y-109647846D03*
X123222000Y-107647846D03*
X123222000Y-105647846D03*
X123222000Y-103647846D03*
X123222000Y-101647846D03*
X123222000Y-99647846D03*
X123222000Y-97647846D03*
X138622000Y-97647846D03*
X138622000Y-99647846D03*
X138622000Y-101647846D03*
X138622000Y-103647846D03*
X138622000Y-105647846D03*
X138622000Y-107647846D03*
X138622000Y-109647846D03*
X138622000Y-111647846D03*
D27*
X168934000Y-82131300D03*
X168934000Y-67131300D03*
D11*
X141986000Y-88900000D03*
X141986000Y-91440000D03*
X134366000Y-91440000D03*
X134366000Y-88900000D03*
D28*
X161652500Y-77131300D03*
D29*
X161652500Y-72131300D03*
X132252500Y-82331300D03*
X132252500Y-66931300D03*
D30*
X126505999Y-82724000D03*
X126505999Y-85424000D03*
D18*
X116840000Y-110918154D03*
X173840000Y-53918100D03*
D31*
X126906000Y-67931300D03*
X121506000Y-67931300D03*
D32*
X117030000Y-62439300D03*
X115380000Y-62439300D03*
D33*
X169204000Y-62960000D03*
D34*
X169204000Y-60960000D03*
X169204000Y-58960000D03*
X174204000Y-62960000D03*
X174204000Y-60960000D03*
X174204000Y-58960000D03*
M02*
