G04 #@! TF.GenerationSoftware,KiCad,Pcbnew,7.0.8*
G04 #@! TF.CreationDate,2024-05-09T20:38:46-03:00*
G04 #@! TF.ProjectId,lamp_module_x2,6c616d70-5f6d-46f6-9475-6c655f78322e,1.1*
G04 #@! TF.SameCoordinates,Original*
G04 #@! TF.FileFunction,Legend,Bot*
G04 #@! TF.FilePolarity,Positive*
%FSLAX46Y46*%
G04 Gerber Fmt 4.6, Leading zero omitted, Abs format (unit mm)*
G04 Created by KiCad (PCBNEW 7.0.8) date 2024-05-09 20:38:46*
%MOMM*%
%LPD*%
G01*
G04 APERTURE LIST*
G04 Aperture macros list*
%AMRoundRect*
0 Rectangle with rounded corners*
0 $1 Rounding radius*
0 $2 $3 $4 $5 $6 $7 $8 $9 X,Y pos of 4 corners*
0 Add a 4 corners polygon primitive as box body*
4,1,4,$2,$3,$4,$5,$6,$7,$8,$9,$2,$3,0*
0 Add four circle primitives for the rounded corners*
1,1,$1+$1,$2,$3*
1,1,$1+$1,$4,$5*
1,1,$1+$1,$6,$7*
1,1,$1+$1,$8,$9*
0 Add four rect primitives between the rounded corners*
20,1,$1+$1,$2,$3,$4,$5,0*
20,1,$1+$1,$4,$5,$6,$7,0*
20,1,$1+$1,$6,$7,$8,$9,0*
20,1,$1+$1,$8,$9,$2,$3,0*%
G04 Aperture macros list end*
%ADD10C,0.200000*%
%ADD11C,0.300000*%
%ADD12C,0.350000*%
%ADD13C,0.400000*%
%ADD14C,0.150000*%
%ADD15C,0.120000*%
%ADD16RoundRect,0.200000X-0.200000X-0.275000X0.200000X-0.275000X0.200000X0.275000X-0.200000X0.275000X0*%
%ADD17C,3.000000*%
%ADD18C,2.600000*%
%ADD19R,2.600000X2.600000*%
%ADD20C,2.500000*%
%ADD21O,1.700000X1.700000*%
%ADD22R,1.700000X1.700000*%
%ADD23C,2.400000*%
%ADD24R,2.300000X2.000000*%
%ADD25C,2.300000*%
%ADD26R,1.500000X1.500000*%
%ADD27C,1.500000*%
%ADD28RoundRect,0.200000X0.200000X0.275000X-0.200000X0.275000X-0.200000X-0.275000X0.200000X-0.275000X0*%
G04 APERTURE END LIST*
D10*
X121798780Y-95642326D02*
X122798780Y-95642326D01*
X122798780Y-95642326D02*
X122798780Y-95404231D01*
X122798780Y-95404231D02*
X122751161Y-95261374D01*
X122751161Y-95261374D02*
X122655923Y-95166136D01*
X122655923Y-95166136D02*
X122560685Y-95118517D01*
X122560685Y-95118517D02*
X122370209Y-95070898D01*
X122370209Y-95070898D02*
X122227352Y-95070898D01*
X122227352Y-95070898D02*
X122036876Y-95118517D01*
X122036876Y-95118517D02*
X121941638Y-95166136D01*
X121941638Y-95166136D02*
X121846400Y-95261374D01*
X121846400Y-95261374D02*
X121798780Y-95404231D01*
X121798780Y-95404231D02*
X121798780Y-95642326D01*
X121846400Y-94261374D02*
X121798780Y-94356612D01*
X121798780Y-94356612D02*
X121798780Y-94547088D01*
X121798780Y-94547088D02*
X121846400Y-94642326D01*
X121846400Y-94642326D02*
X121941638Y-94689945D01*
X121941638Y-94689945D02*
X122322590Y-94689945D01*
X122322590Y-94689945D02*
X122417828Y-94642326D01*
X122417828Y-94642326D02*
X122465447Y-94547088D01*
X122465447Y-94547088D02*
X122465447Y-94356612D01*
X122465447Y-94356612D02*
X122417828Y-94261374D01*
X122417828Y-94261374D02*
X122322590Y-94213755D01*
X122322590Y-94213755D02*
X122227352Y-94213755D01*
X122227352Y-94213755D02*
X122132114Y-94689945D01*
X121846400Y-93832802D02*
X121798780Y-93737564D01*
X121798780Y-93737564D02*
X121798780Y-93547088D01*
X121798780Y-93547088D02*
X121846400Y-93451850D01*
X121846400Y-93451850D02*
X121941638Y-93404231D01*
X121941638Y-93404231D02*
X121989257Y-93404231D01*
X121989257Y-93404231D02*
X122084495Y-93451850D01*
X122084495Y-93451850D02*
X122132114Y-93547088D01*
X122132114Y-93547088D02*
X122132114Y-93689945D01*
X122132114Y-93689945D02*
X122179733Y-93785183D01*
X122179733Y-93785183D02*
X122274971Y-93832802D01*
X122274971Y-93832802D02*
X122322590Y-93832802D01*
X122322590Y-93832802D02*
X122417828Y-93785183D01*
X122417828Y-93785183D02*
X122465447Y-93689945D01*
X122465447Y-93689945D02*
X122465447Y-93547088D01*
X122465447Y-93547088D02*
X122417828Y-93451850D01*
X121798780Y-92975659D02*
X122465447Y-92975659D01*
X122798780Y-92975659D02*
X122751161Y-93023278D01*
X122751161Y-93023278D02*
X122703542Y-92975659D01*
X122703542Y-92975659D02*
X122751161Y-92928040D01*
X122751161Y-92928040D02*
X122798780Y-92975659D01*
X122798780Y-92975659D02*
X122703542Y-92975659D01*
X122465447Y-92070898D02*
X121655923Y-92070898D01*
X121655923Y-92070898D02*
X121560685Y-92118517D01*
X121560685Y-92118517D02*
X121513066Y-92166136D01*
X121513066Y-92166136D02*
X121465447Y-92261374D01*
X121465447Y-92261374D02*
X121465447Y-92404231D01*
X121465447Y-92404231D02*
X121513066Y-92499469D01*
X121846400Y-92070898D02*
X121798780Y-92166136D01*
X121798780Y-92166136D02*
X121798780Y-92356612D01*
X121798780Y-92356612D02*
X121846400Y-92451850D01*
X121846400Y-92451850D02*
X121894019Y-92499469D01*
X121894019Y-92499469D02*
X121989257Y-92547088D01*
X121989257Y-92547088D02*
X122274971Y-92547088D01*
X122274971Y-92547088D02*
X122370209Y-92499469D01*
X122370209Y-92499469D02*
X122417828Y-92451850D01*
X122417828Y-92451850D02*
X122465447Y-92356612D01*
X122465447Y-92356612D02*
X122465447Y-92166136D01*
X122465447Y-92166136D02*
X122417828Y-92070898D01*
X122465447Y-91594707D02*
X121798780Y-91594707D01*
X122370209Y-91594707D02*
X122417828Y-91547088D01*
X122417828Y-91547088D02*
X122465447Y-91451850D01*
X122465447Y-91451850D02*
X122465447Y-91308993D01*
X122465447Y-91308993D02*
X122417828Y-91213755D01*
X122417828Y-91213755D02*
X122322590Y-91166136D01*
X122322590Y-91166136D02*
X121798780Y-91166136D01*
X121846400Y-90308993D02*
X121798780Y-90404231D01*
X121798780Y-90404231D02*
X121798780Y-90594707D01*
X121798780Y-90594707D02*
X121846400Y-90689945D01*
X121846400Y-90689945D02*
X121941638Y-90737564D01*
X121941638Y-90737564D02*
X122322590Y-90737564D01*
X122322590Y-90737564D02*
X122417828Y-90689945D01*
X122417828Y-90689945D02*
X122465447Y-90594707D01*
X122465447Y-90594707D02*
X122465447Y-90404231D01*
X122465447Y-90404231D02*
X122417828Y-90308993D01*
X122417828Y-90308993D02*
X122322590Y-90261374D01*
X122322590Y-90261374D02*
X122227352Y-90261374D01*
X122227352Y-90261374D02*
X122132114Y-90737564D01*
X121798780Y-89404231D02*
X122798780Y-89404231D01*
X121846400Y-89404231D02*
X121798780Y-89499469D01*
X121798780Y-89499469D02*
X121798780Y-89689945D01*
X121798780Y-89689945D02*
X121846400Y-89785183D01*
X121846400Y-89785183D02*
X121894019Y-89832802D01*
X121894019Y-89832802D02*
X121989257Y-89880421D01*
X121989257Y-89880421D02*
X122274971Y-89880421D01*
X122274971Y-89880421D02*
X122370209Y-89832802D01*
X122370209Y-89832802D02*
X122417828Y-89785183D01*
X122417828Y-89785183D02*
X122465447Y-89689945D01*
X122465447Y-89689945D02*
X122465447Y-89499469D01*
X122465447Y-89499469D02*
X122417828Y-89404231D01*
X121798780Y-88166135D02*
X122798780Y-88166135D01*
X122417828Y-88166135D02*
X122465447Y-88070897D01*
X122465447Y-88070897D02*
X122465447Y-87880421D01*
X122465447Y-87880421D02*
X122417828Y-87785183D01*
X122417828Y-87785183D02*
X122370209Y-87737564D01*
X122370209Y-87737564D02*
X122274971Y-87689945D01*
X122274971Y-87689945D02*
X121989257Y-87689945D01*
X121989257Y-87689945D02*
X121894019Y-87737564D01*
X121894019Y-87737564D02*
X121846400Y-87785183D01*
X121846400Y-87785183D02*
X121798780Y-87880421D01*
X121798780Y-87880421D02*
X121798780Y-88070897D01*
X121798780Y-88070897D02*
X121846400Y-88166135D01*
X122465447Y-87356611D02*
X121798780Y-87118516D01*
X122465447Y-86880421D02*
X121798780Y-87118516D01*
X121798780Y-87118516D02*
X121560685Y-87213754D01*
X121560685Y-87213754D02*
X121513066Y-87261373D01*
X121513066Y-87261373D02*
X121465447Y-87356611D01*
X122084495Y-85785182D02*
X122084495Y-85308992D01*
X121798780Y-85880420D02*
X122798780Y-85547087D01*
X122798780Y-85547087D02*
X121798780Y-85213754D01*
X121798780Y-84737563D02*
X121846400Y-84832801D01*
X121846400Y-84832801D02*
X121941638Y-84880420D01*
X121941638Y-84880420D02*
X122798780Y-84880420D01*
X121798780Y-83928039D02*
X122322590Y-83928039D01*
X122322590Y-83928039D02*
X122417828Y-83975658D01*
X122417828Y-83975658D02*
X122465447Y-84070896D01*
X122465447Y-84070896D02*
X122465447Y-84261372D01*
X122465447Y-84261372D02*
X122417828Y-84356610D01*
X121846400Y-83928039D02*
X121798780Y-84023277D01*
X121798780Y-84023277D02*
X121798780Y-84261372D01*
X121798780Y-84261372D02*
X121846400Y-84356610D01*
X121846400Y-84356610D02*
X121941638Y-84404229D01*
X121941638Y-84404229D02*
X122036876Y-84404229D01*
X122036876Y-84404229D02*
X122132114Y-84356610D01*
X122132114Y-84356610D02*
X122179733Y-84261372D01*
X122179733Y-84261372D02*
X122179733Y-84023277D01*
X122179733Y-84023277D02*
X122227352Y-83928039D01*
X122465447Y-83451848D02*
X121798780Y-83451848D01*
X122370209Y-83451848D02*
X122417828Y-83404229D01*
X122417828Y-83404229D02*
X122465447Y-83308991D01*
X122465447Y-83308991D02*
X122465447Y-83166134D01*
X122465447Y-83166134D02*
X122417828Y-83070896D01*
X122417828Y-83070896D02*
X122322590Y-83023277D01*
X122322590Y-83023277D02*
X121798780Y-83023277D01*
X121894019Y-81213753D02*
X121846400Y-81261372D01*
X121846400Y-81261372D02*
X121798780Y-81404229D01*
X121798780Y-81404229D02*
X121798780Y-81499467D01*
X121798780Y-81499467D02*
X121846400Y-81642324D01*
X121846400Y-81642324D02*
X121941638Y-81737562D01*
X121941638Y-81737562D02*
X122036876Y-81785181D01*
X122036876Y-81785181D02*
X122227352Y-81832800D01*
X122227352Y-81832800D02*
X122370209Y-81832800D01*
X122370209Y-81832800D02*
X122560685Y-81785181D01*
X122560685Y-81785181D02*
X122655923Y-81737562D01*
X122655923Y-81737562D02*
X122751161Y-81642324D01*
X122751161Y-81642324D02*
X122798780Y-81499467D01*
X122798780Y-81499467D02*
X122798780Y-81404229D01*
X122798780Y-81404229D02*
X122751161Y-81261372D01*
X122751161Y-81261372D02*
X122703542Y-81213753D01*
X121798780Y-80356610D02*
X122322590Y-80356610D01*
X122322590Y-80356610D02*
X122417828Y-80404229D01*
X122417828Y-80404229D02*
X122465447Y-80499467D01*
X122465447Y-80499467D02*
X122465447Y-80689943D01*
X122465447Y-80689943D02*
X122417828Y-80785181D01*
X121846400Y-80356610D02*
X121798780Y-80451848D01*
X121798780Y-80451848D02*
X121798780Y-80689943D01*
X121798780Y-80689943D02*
X121846400Y-80785181D01*
X121846400Y-80785181D02*
X121941638Y-80832800D01*
X121941638Y-80832800D02*
X122036876Y-80832800D01*
X122036876Y-80832800D02*
X122132114Y-80785181D01*
X122132114Y-80785181D02*
X122179733Y-80689943D01*
X122179733Y-80689943D02*
X122179733Y-80451848D01*
X122179733Y-80451848D02*
X122227352Y-80356610D01*
X121798780Y-79880419D02*
X122465447Y-79880419D01*
X122274971Y-79880419D02*
X122370209Y-79832800D01*
X122370209Y-79832800D02*
X122417828Y-79785181D01*
X122417828Y-79785181D02*
X122465447Y-79689943D01*
X122465447Y-79689943D02*
X122465447Y-79594705D01*
X122465447Y-79356609D02*
X121798780Y-79118514D01*
X121798780Y-79118514D02*
X122465447Y-78880419D01*
X121798780Y-78070895D02*
X122322590Y-78070895D01*
X122322590Y-78070895D02*
X122417828Y-78118514D01*
X122417828Y-78118514D02*
X122465447Y-78213752D01*
X122465447Y-78213752D02*
X122465447Y-78404228D01*
X122465447Y-78404228D02*
X122417828Y-78499466D01*
X121846400Y-78070895D02*
X121798780Y-78166133D01*
X121798780Y-78166133D02*
X121798780Y-78404228D01*
X121798780Y-78404228D02*
X121846400Y-78499466D01*
X121846400Y-78499466D02*
X121941638Y-78547085D01*
X121941638Y-78547085D02*
X122036876Y-78547085D01*
X122036876Y-78547085D02*
X122132114Y-78499466D01*
X122132114Y-78499466D02*
X122179733Y-78404228D01*
X122179733Y-78404228D02*
X122179733Y-78166133D01*
X122179733Y-78166133D02*
X122227352Y-78070895D01*
X121798780Y-77451847D02*
X121846400Y-77547085D01*
X121846400Y-77547085D02*
X121941638Y-77594704D01*
X121941638Y-77594704D02*
X122798780Y-77594704D01*
X121798780Y-77070894D02*
X122798780Y-77070894D01*
X121798780Y-76642323D02*
X122322590Y-76642323D01*
X122322590Y-76642323D02*
X122417828Y-76689942D01*
X122417828Y-76689942D02*
X122465447Y-76785180D01*
X122465447Y-76785180D02*
X122465447Y-76928037D01*
X122465447Y-76928037D02*
X122417828Y-77023275D01*
X122417828Y-77023275D02*
X122370209Y-77070894D01*
X121798780Y-76023275D02*
X121846400Y-76118513D01*
X121846400Y-76118513D02*
X121894019Y-76166132D01*
X121894019Y-76166132D02*
X121989257Y-76213751D01*
X121989257Y-76213751D02*
X122274971Y-76213751D01*
X122274971Y-76213751D02*
X122370209Y-76166132D01*
X122370209Y-76166132D02*
X122417828Y-76118513D01*
X122417828Y-76118513D02*
X122465447Y-76023275D01*
X122465447Y-76023275D02*
X122465447Y-75880418D01*
X122465447Y-75880418D02*
X122417828Y-75785180D01*
X122417828Y-75785180D02*
X122370209Y-75737561D01*
X122370209Y-75737561D02*
X122274971Y-75689942D01*
X122274971Y-75689942D02*
X121989257Y-75689942D01*
X121989257Y-75689942D02*
X121894019Y-75737561D01*
X121894019Y-75737561D02*
X121846400Y-75785180D01*
X121846400Y-75785180D02*
X121798780Y-75880418D01*
X121798780Y-75880418D02*
X121798780Y-76023275D01*
D11*
X123781671Y-95605142D02*
X125281671Y-95605142D01*
X124567385Y-95605142D02*
X124567385Y-94747999D01*
X123781671Y-94747999D02*
X125281671Y-94747999D01*
X124210242Y-94105141D02*
X124210242Y-93390856D01*
X123781671Y-94247998D02*
X125281671Y-93747998D01*
X125281671Y-93747998D02*
X123781671Y-93247998D01*
X123781671Y-92747999D02*
X125281671Y-92747999D01*
X125281671Y-92747999D02*
X125281671Y-92176570D01*
X125281671Y-92176570D02*
X125210242Y-92033713D01*
X125210242Y-92033713D02*
X125138814Y-91962284D01*
X125138814Y-91962284D02*
X124995957Y-91890856D01*
X124995957Y-91890856D02*
X124781671Y-91890856D01*
X124781671Y-91890856D02*
X124638814Y-91962284D01*
X124638814Y-91962284D02*
X124567385Y-92033713D01*
X124567385Y-92033713D02*
X124495957Y-92176570D01*
X124495957Y-92176570D02*
X124495957Y-92747999D01*
X124353100Y-90105142D02*
X124353100Y-88962285D01*
X123781671Y-86390856D02*
X123781671Y-87105142D01*
X123781671Y-87105142D02*
X125281671Y-87105142D01*
X123781671Y-85247999D02*
X124567385Y-85247999D01*
X124567385Y-85247999D02*
X124710242Y-85319427D01*
X124710242Y-85319427D02*
X124781671Y-85462284D01*
X124781671Y-85462284D02*
X124781671Y-85747999D01*
X124781671Y-85747999D02*
X124710242Y-85890856D01*
X123853100Y-85247999D02*
X123781671Y-85390856D01*
X123781671Y-85390856D02*
X123781671Y-85747999D01*
X123781671Y-85747999D02*
X123853100Y-85890856D01*
X123853100Y-85890856D02*
X123995957Y-85962284D01*
X123995957Y-85962284D02*
X124138814Y-85962284D01*
X124138814Y-85962284D02*
X124281671Y-85890856D01*
X124281671Y-85890856D02*
X124353100Y-85747999D01*
X124353100Y-85747999D02*
X124353100Y-85390856D01*
X124353100Y-85390856D02*
X124424528Y-85247999D01*
X123781671Y-84533713D02*
X124781671Y-84533713D01*
X124638814Y-84533713D02*
X124710242Y-84462284D01*
X124710242Y-84462284D02*
X124781671Y-84319427D01*
X124781671Y-84319427D02*
X124781671Y-84105141D01*
X124781671Y-84105141D02*
X124710242Y-83962284D01*
X124710242Y-83962284D02*
X124567385Y-83890856D01*
X124567385Y-83890856D02*
X123781671Y-83890856D01*
X124567385Y-83890856D02*
X124710242Y-83819427D01*
X124710242Y-83819427D02*
X124781671Y-83676570D01*
X124781671Y-83676570D02*
X124781671Y-83462284D01*
X124781671Y-83462284D02*
X124710242Y-83319427D01*
X124710242Y-83319427D02*
X124567385Y-83247998D01*
X124567385Y-83247998D02*
X123781671Y-83247998D01*
X124781671Y-82533713D02*
X123281671Y-82533713D01*
X124710242Y-82533713D02*
X124781671Y-82390856D01*
X124781671Y-82390856D02*
X124781671Y-82105141D01*
X124781671Y-82105141D02*
X124710242Y-81962284D01*
X124710242Y-81962284D02*
X124638814Y-81890856D01*
X124638814Y-81890856D02*
X124495957Y-81819427D01*
X124495957Y-81819427D02*
X124067385Y-81819427D01*
X124067385Y-81819427D02*
X123924528Y-81890856D01*
X123924528Y-81890856D02*
X123853100Y-81962284D01*
X123853100Y-81962284D02*
X123781671Y-82105141D01*
X123781671Y-82105141D02*
X123781671Y-82390856D01*
X123781671Y-82390856D02*
X123853100Y-82533713D01*
X123781671Y-80033713D02*
X125281671Y-80033713D01*
X125281671Y-80033713D02*
X124210242Y-79533713D01*
X124210242Y-79533713D02*
X125281671Y-79033713D01*
X125281671Y-79033713D02*
X123781671Y-79033713D01*
X123781671Y-78105141D02*
X123853100Y-78247998D01*
X123853100Y-78247998D02*
X123924528Y-78319427D01*
X123924528Y-78319427D02*
X124067385Y-78390855D01*
X124067385Y-78390855D02*
X124495957Y-78390855D01*
X124495957Y-78390855D02*
X124638814Y-78319427D01*
X124638814Y-78319427D02*
X124710242Y-78247998D01*
X124710242Y-78247998D02*
X124781671Y-78105141D01*
X124781671Y-78105141D02*
X124781671Y-77890855D01*
X124781671Y-77890855D02*
X124710242Y-77747998D01*
X124710242Y-77747998D02*
X124638814Y-77676570D01*
X124638814Y-77676570D02*
X124495957Y-77605141D01*
X124495957Y-77605141D02*
X124067385Y-77605141D01*
X124067385Y-77605141D02*
X123924528Y-77676570D01*
X123924528Y-77676570D02*
X123853100Y-77747998D01*
X123853100Y-77747998D02*
X123781671Y-77890855D01*
X123781671Y-77890855D02*
X123781671Y-78105141D01*
X123781671Y-76319427D02*
X125281671Y-76319427D01*
X123853100Y-76319427D02*
X123781671Y-76462284D01*
X123781671Y-76462284D02*
X123781671Y-76747998D01*
X123781671Y-76747998D02*
X123853100Y-76890855D01*
X123853100Y-76890855D02*
X123924528Y-76962284D01*
X123924528Y-76962284D02*
X124067385Y-77033712D01*
X124067385Y-77033712D02*
X124495957Y-77033712D01*
X124495957Y-77033712D02*
X124638814Y-76962284D01*
X124638814Y-76962284D02*
X124710242Y-76890855D01*
X124710242Y-76890855D02*
X124781671Y-76747998D01*
X124781671Y-76747998D02*
X124781671Y-76462284D01*
X124781671Y-76462284D02*
X124710242Y-76319427D01*
X124781671Y-74962284D02*
X123781671Y-74962284D01*
X124781671Y-75605141D02*
X123995957Y-75605141D01*
X123995957Y-75605141D02*
X123853100Y-75533712D01*
X123853100Y-75533712D02*
X123781671Y-75390855D01*
X123781671Y-75390855D02*
X123781671Y-75176569D01*
X123781671Y-75176569D02*
X123853100Y-75033712D01*
X123853100Y-75033712D02*
X123924528Y-74962284D01*
X123781671Y-74033712D02*
X123853100Y-74176569D01*
X123853100Y-74176569D02*
X123995957Y-74247998D01*
X123995957Y-74247998D02*
X125281671Y-74247998D01*
X123853100Y-72890855D02*
X123781671Y-73033712D01*
X123781671Y-73033712D02*
X123781671Y-73319427D01*
X123781671Y-73319427D02*
X123853100Y-73462284D01*
X123853100Y-73462284D02*
X123995957Y-73533712D01*
X123995957Y-73533712D02*
X124567385Y-73533712D01*
X124567385Y-73533712D02*
X124710242Y-73462284D01*
X124710242Y-73462284D02*
X124781671Y-73319427D01*
X124781671Y-73319427D02*
X124781671Y-73033712D01*
X124781671Y-73033712D02*
X124710242Y-72890855D01*
X124710242Y-72890855D02*
X124567385Y-72819427D01*
X124567385Y-72819427D02*
X124424528Y-72819427D01*
X124424528Y-72819427D02*
X124281671Y-73533712D01*
X125281671Y-71176570D02*
X123781671Y-70176570D01*
X125281671Y-70176570D02*
X123781671Y-71176570D01*
X125138814Y-69676570D02*
X125210242Y-69605142D01*
X125210242Y-69605142D02*
X125281671Y-69462285D01*
X125281671Y-69462285D02*
X125281671Y-69105142D01*
X125281671Y-69105142D02*
X125210242Y-68962285D01*
X125210242Y-68962285D02*
X125138814Y-68890856D01*
X125138814Y-68890856D02*
X124995957Y-68819427D01*
X124995957Y-68819427D02*
X124853100Y-68819427D01*
X124853100Y-68819427D02*
X124638814Y-68890856D01*
X124638814Y-68890856D02*
X123781671Y-69747999D01*
X123781671Y-69747999D02*
X123781671Y-68819427D01*
X125281671Y-67247999D02*
X123781671Y-66747999D01*
X123781671Y-66747999D02*
X125281671Y-66247999D01*
X123781671Y-64962285D02*
X123781671Y-65819428D01*
X123781671Y-65390857D02*
X125281671Y-65390857D01*
X125281671Y-65390857D02*
X125067385Y-65533714D01*
X125067385Y-65533714D02*
X124924528Y-65676571D01*
X124924528Y-65676571D02*
X124853100Y-65819428D01*
X123924528Y-64319429D02*
X123853100Y-64248000D01*
X123853100Y-64248000D02*
X123781671Y-64319429D01*
X123781671Y-64319429D02*
X123853100Y-64390857D01*
X123853100Y-64390857D02*
X123924528Y-64319429D01*
X123924528Y-64319429D02*
X123781671Y-64319429D01*
X125281671Y-63319428D02*
X125281671Y-63176571D01*
X125281671Y-63176571D02*
X125210242Y-63033714D01*
X125210242Y-63033714D02*
X125138814Y-62962286D01*
X125138814Y-62962286D02*
X124995957Y-62890857D01*
X124995957Y-62890857D02*
X124710242Y-62819428D01*
X124710242Y-62819428D02*
X124353100Y-62819428D01*
X124353100Y-62819428D02*
X124067385Y-62890857D01*
X124067385Y-62890857D02*
X123924528Y-62962286D01*
X123924528Y-62962286D02*
X123853100Y-63033714D01*
X123853100Y-63033714D02*
X123781671Y-63176571D01*
X123781671Y-63176571D02*
X123781671Y-63319428D01*
X123781671Y-63319428D02*
X123853100Y-63462286D01*
X123853100Y-63462286D02*
X123924528Y-63533714D01*
X123924528Y-63533714D02*
X124067385Y-63605143D01*
X124067385Y-63605143D02*
X124353100Y-63676571D01*
X124353100Y-63676571D02*
X124710242Y-63676571D01*
X124710242Y-63676571D02*
X124995957Y-63605143D01*
X124995957Y-63605143D02*
X125138814Y-63533714D01*
X125138814Y-63533714D02*
X125210242Y-63462286D01*
X125210242Y-63462286D02*
X125281671Y-63319428D01*
D12*
X149148800Y-83388200D02*
X148336000Y-81610200D01*
X157988000Y-97096661D02*
X161838000Y-97096661D01*
X153254647Y-106192715D02*
G75*
G03*
X154754647Y-104692715I-1J1500001D01*
G01*
X149190647Y-104692715D02*
G75*
G03*
X150690647Y-106192715I1500001J1D01*
G01*
X149190647Y-84328000D02*
X149190647Y-88178000D01*
X149190647Y-89578000D02*
X149190647Y-93428000D01*
X149190647Y-94828000D02*
X149190647Y-98678000D01*
X149190647Y-100078000D02*
X149190647Y-103124015D01*
X156254647Y-97096661D02*
G75*
G03*
X154754647Y-98596661I21J-1500021D01*
G01*
X154754647Y-99822015D02*
X154754647Y-103124015D01*
X136075340Y-57658000D02*
X136075340Y-58166000D01*
X130624660Y-51054000D02*
X130624660Y-54904000D01*
X130624660Y-56304000D02*
X130624660Y-58420000D01*
X130624660Y-59645340D02*
G75*
G03*
X132124660Y-61145340I1500001J1D01*
G01*
X134575340Y-61145340D02*
G75*
G03*
X136075340Y-59645340I0J1500000D01*
G01*
X137575340Y-54932660D02*
G75*
G03*
X136075340Y-56432660I-1J-1499999D01*
G01*
X145542000Y-54932660D02*
X141692000Y-54932660D01*
X140292000Y-54932660D02*
X139954000Y-54932660D01*
X148336000Y-56432660D02*
G75*
G03*
X146836000Y-54932660I-1500000J0D01*
G01*
X171450000Y-99777300D02*
X171450000Y-103079300D01*
X165378000Y-98507300D02*
G75*
G03*
X163878000Y-97007300I-1500000J0D01*
G01*
X165886000Y-99777300D02*
X165886000Y-103079300D01*
X165886000Y-104648000D02*
G75*
G03*
X167386000Y-106148000I1500000J0D01*
G01*
X169950000Y-106148000D02*
G75*
G03*
X171450000Y-104648000I0J1500000D01*
G01*
X148336000Y-80727300D02*
X148336000Y-76877300D01*
X148336000Y-75477300D02*
X148336000Y-71627300D01*
X148336000Y-70227300D02*
X148336000Y-66377300D01*
X148336000Y-64977300D02*
X148336000Y-61127300D01*
X148336000Y-59727300D02*
X148336000Y-57404000D01*
X172950000Y-97051900D02*
G75*
G03*
X171450000Y-98551946I100J-1500100D01*
G01*
X174244000Y-97051946D02*
X176554000Y-97051946D01*
D13*
X143807618Y-82161747D02*
X144998094Y-82161747D01*
X144998094Y-82161747D02*
X144998094Y-79661747D01*
X143331427Y-79661747D02*
X142498094Y-82161747D01*
X142498094Y-82161747D02*
X141664761Y-79661747D01*
X156217713Y-82161747D02*
X156217713Y-79661747D01*
X156217713Y-80852223D02*
X154789142Y-80852223D01*
X154789142Y-82161747D02*
X154789142Y-79661747D01*
X153955808Y-79661747D02*
X153122475Y-82161747D01*
X153122475Y-82161747D02*
X152289142Y-79661747D01*
D14*
X134278666Y-107642819D02*
X134611999Y-107166628D01*
X134850094Y-107642819D02*
X134850094Y-106642819D01*
X134850094Y-106642819D02*
X134469142Y-106642819D01*
X134469142Y-106642819D02*
X134373904Y-106690438D01*
X134373904Y-106690438D02*
X134326285Y-106738057D01*
X134326285Y-106738057D02*
X134278666Y-106833295D01*
X134278666Y-106833295D02*
X134278666Y-106976152D01*
X134278666Y-106976152D02*
X134326285Y-107071390D01*
X134326285Y-107071390D02*
X134373904Y-107119009D01*
X134373904Y-107119009D02*
X134469142Y-107166628D01*
X134469142Y-107166628D02*
X134850094Y-107166628D01*
X133421523Y-106642819D02*
X133611999Y-106642819D01*
X133611999Y-106642819D02*
X133707237Y-106690438D01*
X133707237Y-106690438D02*
X133754856Y-106738057D01*
X133754856Y-106738057D02*
X133850094Y-106880914D01*
X133850094Y-106880914D02*
X133897713Y-107071390D01*
X133897713Y-107071390D02*
X133897713Y-107452342D01*
X133897713Y-107452342D02*
X133850094Y-107547580D01*
X133850094Y-107547580D02*
X133802475Y-107595200D01*
X133802475Y-107595200D02*
X133707237Y-107642819D01*
X133707237Y-107642819D02*
X133516761Y-107642819D01*
X133516761Y-107642819D02*
X133421523Y-107595200D01*
X133421523Y-107595200D02*
X133373904Y-107547580D01*
X133373904Y-107547580D02*
X133326285Y-107452342D01*
X133326285Y-107452342D02*
X133326285Y-107214247D01*
X133326285Y-107214247D02*
X133373904Y-107119009D01*
X133373904Y-107119009D02*
X133421523Y-107071390D01*
X133421523Y-107071390D02*
X133516761Y-107023771D01*
X133516761Y-107023771D02*
X133707237Y-107023771D01*
X133707237Y-107023771D02*
X133802475Y-107071390D01*
X133802475Y-107071390D02*
X133850094Y-107119009D01*
X133850094Y-107119009D02*
X133897713Y-107214247D01*
X134278666Y-102562819D02*
X134611999Y-102086628D01*
X134850094Y-102562819D02*
X134850094Y-101562819D01*
X134850094Y-101562819D02*
X134469142Y-101562819D01*
X134469142Y-101562819D02*
X134373904Y-101610438D01*
X134373904Y-101610438D02*
X134326285Y-101658057D01*
X134326285Y-101658057D02*
X134278666Y-101753295D01*
X134278666Y-101753295D02*
X134278666Y-101896152D01*
X134278666Y-101896152D02*
X134326285Y-101991390D01*
X134326285Y-101991390D02*
X134373904Y-102039009D01*
X134373904Y-102039009D02*
X134469142Y-102086628D01*
X134469142Y-102086628D02*
X134850094Y-102086628D01*
X133421523Y-101896152D02*
X133421523Y-102562819D01*
X133659618Y-101515200D02*
X133897713Y-102229485D01*
X133897713Y-102229485D02*
X133278666Y-102229485D01*
X141375666Y-112128163D02*
X141708999Y-111651972D01*
X141947094Y-112128163D02*
X141947094Y-111128163D01*
X141947094Y-111128163D02*
X141566142Y-111128163D01*
X141566142Y-111128163D02*
X141470904Y-111175782D01*
X141470904Y-111175782D02*
X141423285Y-111223401D01*
X141423285Y-111223401D02*
X141375666Y-111318639D01*
X141375666Y-111318639D02*
X141375666Y-111461496D01*
X141375666Y-111461496D02*
X141423285Y-111556734D01*
X141423285Y-111556734D02*
X141470904Y-111604353D01*
X141470904Y-111604353D02*
X141566142Y-111651972D01*
X141566142Y-111651972D02*
X141947094Y-111651972D01*
X140994713Y-111223401D02*
X140947094Y-111175782D01*
X140947094Y-111175782D02*
X140851856Y-111128163D01*
X140851856Y-111128163D02*
X140613761Y-111128163D01*
X140613761Y-111128163D02*
X140518523Y-111175782D01*
X140518523Y-111175782D02*
X140470904Y-111223401D01*
X140470904Y-111223401D02*
X140423285Y-111318639D01*
X140423285Y-111318639D02*
X140423285Y-111413877D01*
X140423285Y-111413877D02*
X140470904Y-111556734D01*
X140470904Y-111556734D02*
X141042332Y-112128163D01*
X141042332Y-112128163D02*
X140423285Y-112128163D01*
X120801666Y-100102671D02*
X121134999Y-99626480D01*
X121373094Y-100102671D02*
X121373094Y-99102671D01*
X121373094Y-99102671D02*
X120992142Y-99102671D01*
X120992142Y-99102671D02*
X120896904Y-99150290D01*
X120896904Y-99150290D02*
X120849285Y-99197909D01*
X120849285Y-99197909D02*
X120801666Y-99293147D01*
X120801666Y-99293147D02*
X120801666Y-99436004D01*
X120801666Y-99436004D02*
X120849285Y-99531242D01*
X120849285Y-99531242D02*
X120896904Y-99578861D01*
X120896904Y-99578861D02*
X120992142Y-99626480D01*
X120992142Y-99626480D02*
X121373094Y-99626480D01*
X120468332Y-99102671D02*
X119849285Y-99102671D01*
X119849285Y-99102671D02*
X120182618Y-99483623D01*
X120182618Y-99483623D02*
X120039761Y-99483623D01*
X120039761Y-99483623D02*
X119944523Y-99531242D01*
X119944523Y-99531242D02*
X119896904Y-99578861D01*
X119896904Y-99578861D02*
X119849285Y-99674099D01*
X119849285Y-99674099D02*
X119849285Y-99912194D01*
X119849285Y-99912194D02*
X119896904Y-100007432D01*
X119896904Y-100007432D02*
X119944523Y-100055052D01*
X119944523Y-100055052D02*
X120039761Y-100102671D01*
X120039761Y-100102671D02*
X120325475Y-100102671D01*
X120325475Y-100102671D02*
X120420713Y-100055052D01*
X120420713Y-100055052D02*
X120468332Y-100007432D01*
X141375666Y-108064167D02*
X141708999Y-107587976D01*
X141947094Y-108064167D02*
X141947094Y-107064167D01*
X141947094Y-107064167D02*
X141566142Y-107064167D01*
X141566142Y-107064167D02*
X141470904Y-107111786D01*
X141470904Y-107111786D02*
X141423285Y-107159405D01*
X141423285Y-107159405D02*
X141375666Y-107254643D01*
X141375666Y-107254643D02*
X141375666Y-107397500D01*
X141375666Y-107397500D02*
X141423285Y-107492738D01*
X141423285Y-107492738D02*
X141470904Y-107540357D01*
X141470904Y-107540357D02*
X141566142Y-107587976D01*
X141566142Y-107587976D02*
X141947094Y-107587976D01*
X140423285Y-108064167D02*
X140994713Y-108064167D01*
X140708999Y-108064167D02*
X140708999Y-107064167D01*
X140708999Y-107064167D02*
X140804237Y-107207024D01*
X140804237Y-107207024D02*
X140899475Y-107302262D01*
X140899475Y-107302262D02*
X140994713Y-107349881D01*
D15*
X133874742Y-105125346D02*
X134349258Y-105125346D01*
X133874742Y-106170346D02*
X134349258Y-106170346D01*
X133874742Y-104170348D02*
X134349258Y-104170348D01*
X133874742Y-103125348D02*
X134349258Y-103125348D01*
X138859258Y-112170346D02*
X138384742Y-112170346D01*
X138859258Y-111125346D02*
X138384742Y-111125346D01*
G36*
X154745527Y-74431697D02*
G01*
X154757418Y-74475623D01*
X154781677Y-74573090D01*
X154815983Y-74714251D01*
X154858012Y-74889262D01*
X154905444Y-75088277D01*
X154955957Y-75301450D01*
X155007227Y-75518935D01*
X155056934Y-75730887D01*
X155102755Y-75927460D01*
X155142369Y-76098808D01*
X155173453Y-76235086D01*
X155193685Y-76326449D01*
X155200744Y-76363050D01*
X155199965Y-76364076D01*
X155161319Y-76359575D01*
X155073026Y-76337727D01*
X154946996Y-76301714D01*
X154795138Y-76254717D01*
X154776086Y-76248633D01*
X154623290Y-76200526D01*
X154495133Y-76161346D01*
X154404566Y-76134985D01*
X154364538Y-76125334D01*
X154360782Y-76129965D01*
X154360944Y-76180829D01*
X154374038Y-76275922D01*
X154398237Y-76400334D01*
X154401458Y-76415172D01*
X154436212Y-76576671D01*
X154470735Y-76739217D01*
X154497998Y-76869725D01*
X154537997Y-77064117D01*
X154705959Y-77041047D01*
X154761771Y-77034683D01*
X154839825Y-77034202D01*
X154861568Y-77050247D01*
X154848227Y-77076081D01*
X154805801Y-77150552D01*
X154742343Y-77258551D01*
X154665640Y-77386702D01*
X154605308Y-77486468D01*
X154540946Y-77592347D01*
X154496620Y-77664589D01*
X154479507Y-77691443D01*
X154475500Y-77690600D01*
X154432970Y-77664162D01*
X154356833Y-77608384D01*
X154259475Y-77533230D01*
X154153283Y-77448664D01*
X154050642Y-77364649D01*
X153963940Y-77291149D01*
X153905561Y-77238126D01*
X153887893Y-77215546D01*
X153899351Y-77210763D01*
X153964455Y-77193891D01*
X154058804Y-77175861D01*
X154093203Y-77169240D01*
X154168545Y-77143411D01*
X154189282Y-77113683D01*
X154185813Y-77103655D01*
X154159826Y-77020195D01*
X154122446Y-76891482D01*
X154076328Y-76727470D01*
X154024132Y-76538115D01*
X153968513Y-76333369D01*
X153912129Y-76123187D01*
X153857638Y-75917523D01*
X153807695Y-75726332D01*
X153764960Y-75559567D01*
X153732088Y-75427182D01*
X153711738Y-75339133D01*
X153706565Y-75305372D01*
X153710184Y-75304546D01*
X153758714Y-75317537D01*
X153853120Y-75353043D01*
X153981758Y-75406481D01*
X154132987Y-75473267D01*
X154172672Y-75491241D01*
X154318448Y-75556897D01*
X154437755Y-75610061D01*
X154519174Y-75645672D01*
X154551283Y-75658667D01*
X154547618Y-75640481D01*
X154526351Y-75568738D01*
X154489471Y-75452109D01*
X154440244Y-75300880D01*
X154381935Y-75125334D01*
X154203185Y-74592000D01*
X154356164Y-74592000D01*
X154373734Y-74591810D01*
X154507056Y-74570511D01*
X154622961Y-74505301D01*
X154653889Y-74482404D01*
X154716318Y-74441198D01*
X154744930Y-74430301D01*
X154745527Y-74431697D01*
G37*
G36*
X157293764Y-77837322D02*
G01*
X157344188Y-77928074D01*
X157362893Y-77967305D01*
X157361781Y-78040386D01*
X157335557Y-78108972D01*
X157324551Y-78116606D01*
X157298512Y-78124485D01*
X157254385Y-78131336D01*
X157188115Y-78137230D01*
X157095646Y-78142234D01*
X156972922Y-78146419D01*
X156815888Y-78149853D01*
X156620489Y-78152606D01*
X156382669Y-78154745D01*
X156098372Y-78156341D01*
X155763544Y-78157462D01*
X155374128Y-78158177D01*
X154926069Y-78158556D01*
X154415312Y-78158667D01*
X154265281Y-78158675D01*
X153769001Y-78158759D01*
X153334323Y-78158733D01*
X152957219Y-78158335D01*
X152633662Y-78157304D01*
X152359624Y-78155379D01*
X152131078Y-78152297D01*
X151943996Y-78147797D01*
X151794349Y-78141618D01*
X151678112Y-78133499D01*
X151591255Y-78123177D01*
X151529750Y-78110392D01*
X151489572Y-78094882D01*
X151466691Y-78076386D01*
X151457080Y-78054641D01*
X151456711Y-78029388D01*
X151461557Y-78000363D01*
X151467590Y-77967305D01*
X151485678Y-77929179D01*
X151535566Y-77839247D01*
X151562773Y-77792000D01*
X151954415Y-77792000D01*
X154415312Y-77792000D01*
X156876209Y-77792000D01*
X156827664Y-77717000D01*
X156825018Y-77712851D01*
X156791893Y-77659584D01*
X156728192Y-77556327D01*
X156637443Y-77408822D01*
X156523173Y-77222816D01*
X156388910Y-77004053D01*
X156238181Y-76758277D01*
X156074515Y-76491233D01*
X155901439Y-76208667D01*
X155730657Y-75929780D01*
X155546702Y-75629412D01*
X155367738Y-75337226D01*
X155198737Y-75061336D01*
X155044671Y-74809860D01*
X154910512Y-74590912D01*
X154801233Y-74412610D01*
X154721804Y-74283068D01*
X154637354Y-74147818D01*
X154547125Y-74009210D01*
X154473100Y-73902027D01*
X154421267Y-73834885D01*
X154397609Y-73816401D01*
X154382389Y-73838640D01*
X154336450Y-73910858D01*
X154266813Y-74022675D01*
X154179660Y-74164148D01*
X154081173Y-74325334D01*
X154073143Y-74338525D01*
X153971507Y-74505283D01*
X153848791Y-74706329D01*
X153708721Y-74935585D01*
X153555020Y-75186972D01*
X153391414Y-75454410D01*
X153221626Y-75731821D01*
X153049382Y-76013125D01*
X152878405Y-76292243D01*
X152712420Y-76563096D01*
X152555153Y-76819604D01*
X152410327Y-77055690D01*
X152281666Y-77265273D01*
X152172897Y-77442275D01*
X152087742Y-77580616D01*
X152029927Y-77674217D01*
X152003175Y-77717000D01*
X151954415Y-77792000D01*
X151562773Y-77792000D01*
X151614023Y-77703000D01*
X151717839Y-77525733D01*
X151843807Y-77312741D01*
X151988720Y-77069319D01*
X152149369Y-76800761D01*
X152322547Y-76512364D01*
X152505047Y-76209422D01*
X152693660Y-75897229D01*
X152885179Y-75581082D01*
X153076395Y-75266275D01*
X153264102Y-74958104D01*
X153445091Y-74661862D01*
X153616155Y-74382846D01*
X153774086Y-74126350D01*
X153915676Y-73897669D01*
X154037717Y-73702099D01*
X154137002Y-73544934D01*
X154210323Y-73431469D01*
X154254472Y-73367000D01*
X154329662Y-73290462D01*
X154415312Y-73258667D01*
X154489984Y-73283085D01*
X154575920Y-73367000D01*
X154618919Y-73429800D01*
X154691780Y-73542528D01*
X154790658Y-73699039D01*
X154912346Y-73894039D01*
X155053637Y-74122232D01*
X155211323Y-74378324D01*
X155382197Y-74657021D01*
X155563052Y-74953028D01*
X155750678Y-75261051D01*
X155941870Y-75575794D01*
X156133418Y-75891964D01*
X156322117Y-76204266D01*
X156504758Y-76507404D01*
X156678133Y-76796086D01*
X156839035Y-77065015D01*
X156984257Y-77308898D01*
X157110591Y-77522440D01*
X157214829Y-77700346D01*
X157267646Y-77792000D01*
X157293764Y-77837322D01*
G37*
X123459258Y-100170352D02*
X122984742Y-100170352D01*
X123459258Y-99125352D02*
X122984742Y-99125352D01*
X138859258Y-108170353D02*
X138384742Y-108170353D01*
X138859258Y-107125353D02*
X138384742Y-107125353D01*
%LPC*%
D16*
X133287000Y-105647846D03*
X134937000Y-105647846D03*
D17*
X168656000Y-104062001D03*
X162656000Y-89862001D03*
X174656000Y-89862001D03*
X174656000Y-102062001D03*
X162656000Y-102062001D03*
D18*
X123190000Y-58121300D03*
X128270000Y-58121300D03*
D19*
X133350000Y-58121300D03*
D20*
X116840000Y-53918154D03*
D21*
X117373000Y-84328000D03*
X117373000Y-81788000D03*
D22*
X117373000Y-79248000D03*
D20*
X173840000Y-110918153D03*
D17*
X152139000Y-104062000D03*
X146139000Y-89862000D03*
X158139000Y-89862000D03*
X158139000Y-102062000D03*
X146139000Y-102062000D03*
D18*
X140716000Y-58121300D03*
X145796000Y-58121300D03*
D19*
X150876000Y-58121300D03*
D21*
X117348000Y-105156000D03*
X117348000Y-102616000D03*
X117348000Y-100076000D03*
X117348000Y-97536000D03*
X117348000Y-94996000D03*
D22*
X117348000Y-92456000D03*
D19*
X164084000Y-58121300D03*
D18*
X159004000Y-58121300D03*
D23*
X168934000Y-82131300D03*
X168934000Y-67131300D03*
D24*
X161652500Y-77131300D03*
D25*
X161652500Y-72131300D03*
X132252500Y-82331300D03*
X132252500Y-66931300D03*
D20*
X116840000Y-110918154D03*
X173840000Y-53918100D03*
D26*
X169204000Y-62960000D03*
D27*
X169204000Y-60960000D03*
X169204000Y-58960000D03*
X174204000Y-62960000D03*
X174204000Y-60960000D03*
X174204000Y-58960000D03*
D16*
X134937000Y-103647848D03*
X133287000Y-103647848D03*
D28*
X139447000Y-111647846D03*
X137797000Y-111647846D03*
X124047000Y-99647852D03*
X122397000Y-99647852D03*
X139447000Y-107647853D03*
X137797000Y-107647853D03*
%LPD*%
M02*
