M48
; DRILL file {KiCad 7.0.8} date Wed Feb 21 14:11:06 2024
; FORMAT={-:-/ absolute / metric / decimal}
; #@! TF.CreationDate,2024-02-21T14:11:06-03:00
; #@! TF.GenerationSoftware,Kicad,Pcbnew,7.0.8
; #@! TF.FileFunction,Plated,1,2,PTH
FMAT,2
METRIC
; #@! TA.AperFunction,Plated,PTH,ViaDrill
T1C0.400
; #@! TA.AperFunction,Plated,PTH,ComponentDrill
T2C0.800
; #@! TA.AperFunction,Plated,PTH,ComponentDrill
T3C1.000
; #@! TA.AperFunction,Plated,PTH,ComponentDrill
T4C1.200
; #@! TA.AperFunction,Plated,PTH,ComponentDrill
T5C1.300
; #@! TA.AperFunction,Plated,PTH,ComponentDrill
T6C1.520
%
G90
G05
T1
X122.726Y-125.12
X123.615Y-77.045
X125.266Y-128.226
X126.536Y-122.58
X128.186Y-95.968
X128.6Y-115.145
X132.6Y-115.145
X133.267Y-128.226
X133.902Y-125.12
X134.6Y-99.524
X136.188Y-128.226
X136.6Y-103.588
X136.6Y-115.145
X136.993Y-93.555
X136.993Y-98.381
X137.458Y-122.58
X138.6Y-115.145
X138.601Y-119.844
X139.109Y-92.158
X140.6Y-103.588
X140.6Y-115.145
X140.6Y-119.844
X141.011Y-120.755
X142.6Y-124.162
X143.109Y-126.956
X144.062Y-102.572
X146.729Y-121.368
X147.872Y-99.397
X150.666Y-94.19
X150.666Y-96.73
T2
X164.382Y-92.92
X172.566Y-99.905
X176.066Y-99.905
X177.082Y-92.92
T3
X121.616Y-84.35
X121.616Y-86.89
X121.616Y-89.43
X121.616Y-91.97
X121.616Y-94.51
X121.616Y-97.05
X128.462Y-72.342
X128.462Y-87.742
X157.862Y-77.542
X157.862Y-82.542
T4
X165.862Y-71.542
X165.862Y-86.542
T5
X150.944Y-107.316
X150.944Y-124.066
X152.944Y-101.316
X152.944Y-113.316
X152.944Y-118.066
X152.944Y-130.066
X165.144Y-101.316
X165.144Y-113.316
X165.144Y-118.066
X165.144Y-130.066
T6
X175.26Y-80.502
X175.26Y-85.582
X175.26Y-118.872
X175.26Y-123.952
T0
M30
