G04 #@! TF.GenerationSoftware,KiCad,Pcbnew,7.0.8*
G04 #@! TF.CreationDate,2024-02-21T14:09:27-03:00*
G04 #@! TF.ProjectId,lamp_module,6c616d70-5f6d-46f6-9475-6c652e6b6963,1.0*
G04 #@! TF.SameCoordinates,Original*
G04 #@! TF.FileFunction,Legend,Top*
G04 #@! TF.FilePolarity,Positive*
%FSLAX46Y46*%
G04 Gerber Fmt 4.6, Leading zero omitted, Abs format (unit mm)*
G04 Created by KiCad (PCBNEW 7.0.8) date 2024-02-21 14:09:27*
%MOMM*%
%LPD*%
G01*
G04 APERTURE LIST*
G04 Aperture macros list*
%AMRoundRect*
0 Rectangle with rounded corners*
0 $1 Rounding radius*
0 $2 $3 $4 $5 $6 $7 $8 $9 X,Y pos of 4 corners*
0 Add a 4 corners polygon primitive as box body*
4,1,4,$2,$3,$4,$5,$6,$7,$8,$9,$2,$3,0*
0 Add four circle primitives for the rounded corners*
1,1,$1+$1,$2,$3*
1,1,$1+$1,$4,$5*
1,1,$1+$1,$6,$7*
1,1,$1+$1,$8,$9*
0 Add four rect primitives between the rounded corners*
20,1,$1+$1,$2,$3,$4,$5,0*
20,1,$1+$1,$4,$5,$6,$7,0*
20,1,$1+$1,$6,$7,$8,$9,0*
20,1,$1+$1,$8,$9,$2,$3,0*%
G04 Aperture macros list end*
%ADD10C,0.350000*%
%ADD11C,0.150000*%
%ADD12C,0.120000*%
%ADD13C,0.152400*%
%ADD14R,2.000000X1.780000*%
%ADD15RoundRect,0.200000X-0.200000X-0.275000X0.200000X-0.275000X0.200000X0.275000X-0.200000X0.275000X0*%
%ADD16C,2.500000*%
%ADD17RoundRect,0.250000X1.000000X0.650000X-1.000000X0.650000X-1.000000X-0.650000X1.000000X-0.650000X0*%
%ADD18RoundRect,0.250000X-1.000000X-0.650000X1.000000X-0.650000X1.000000X0.650000X-1.000000X0.650000X0*%
%ADD19R,3.000000X3.000000*%
%ADD20C,3.000000*%
%ADD21C,1.600000*%
%ADD22O,1.600000X1.600000*%
%ADD23RoundRect,0.150000X-0.150000X0.587500X-0.150000X-0.587500X0.150000X-0.587500X0.150000X0.587500X0*%
%ADD24RoundRect,0.250000X-0.650000X0.325000X-0.650000X-0.325000X0.650000X-0.325000X0.650000X0.325000X0*%
%ADD25RoundRect,0.125000X0.125000X-0.125000X0.125000X0.125000X-0.125000X0.125000X-0.125000X-0.125000X0*%
%ADD26RoundRect,0.218750X0.218750X0.256250X-0.218750X0.256250X-0.218750X-0.256250X0.218750X-0.256250X0*%
%ADD27R,2.000000X1.500000*%
%ADD28R,2.000000X3.800000*%
%ADD29R,1.600000X1.600000*%
%ADD30RoundRect,0.250000X1.500000X0.550000X-1.500000X0.550000X-1.500000X-0.550000X1.500000X-0.550000X0*%
%ADD31R,1.100000X2.500000*%
%ADD32R,2.500000X1.100000*%
%ADD33RoundRect,0.225000X0.225000X0.250000X-0.225000X0.250000X-0.225000X-0.250000X0.225000X-0.250000X0*%
%ADD34C,2.400000*%
%ADD35RoundRect,0.218750X0.256250X-0.218750X0.256250X0.218750X-0.256250X0.218750X-0.256250X-0.218750X0*%
%ADD36R,1.700000X1.700000*%
%ADD37O,1.700000X1.700000*%
%ADD38R,2.300000X2.000000*%
%ADD39C,2.300000*%
G04 APERTURE END LIST*
D10*
X149625750Y-104604250D02*
G75*
G03*
X148125750Y-106104250I50J-1500050D01*
G01*
X149625750Y-121114250D02*
X153475750Y-121114250D01*
X154880750Y-104604250D02*
G75*
G03*
X156380750Y-103104250I-50J1500050D01*
G01*
X148125750Y-108565250D02*
G75*
G03*
X149625750Y-110065250I1500050J50D01*
G01*
X156380750Y-93150250D02*
G75*
G03*
X154880750Y-91650250I-1500050J-50D01*
G01*
X154245750Y-110065250D02*
X150395750Y-110065250D01*
X154293457Y-126955793D02*
X150443457Y-126956546D01*
X156380750Y-103104250D02*
X156380750Y-99254250D01*
X156380750Y-97854250D02*
X156380750Y-94004250D01*
X148125750Y-125456706D02*
X148125750Y-122614250D01*
X148125750Y-108565250D02*
X148125750Y-106104250D01*
X150030750Y-90150250D02*
X150030750Y-86300250D01*
X150030750Y-84900250D02*
X150030750Y-81050250D01*
X150030750Y-79650250D02*
X150030750Y-75800250D01*
X150030750Y-74400250D02*
X150030750Y-70550250D01*
X150030750Y-69150250D02*
X150030750Y-69044250D01*
X149625750Y-121114250D02*
G75*
G03*
X148125750Y-122614250I50J-1500050D01*
G01*
X154245750Y-121114250D02*
G75*
G03*
X155745750Y-119614250I-50J1500050D01*
G01*
X148125794Y-125456706D02*
G75*
G03*
X149626044Y-126956706I1500006J6D01*
G01*
X150030750Y-90150250D02*
G75*
G03*
X151530750Y-91650250I1500050J50D01*
G01*
X154880750Y-91650250D02*
X151530750Y-91650250D01*
X155745750Y-119614250D02*
X155745750Y-115764250D01*
X155745750Y-114364250D02*
X155745750Y-111565250D01*
X155793750Y-132671250D02*
X155793750Y-128821250D01*
X149625750Y-104604250D02*
X153475750Y-104604250D01*
X154875750Y-104604250D02*
X154880750Y-104604250D01*
X155745750Y-111565250D02*
G75*
G03*
X154245750Y-110065250I-1500050J-50D01*
G01*
X155793707Y-128455793D02*
G75*
G03*
X154293457Y-126955793I-1500007J-7D01*
G01*
D11*
X178788273Y-77500069D02*
X178312083Y-77500069D01*
X178312083Y-77500069D02*
X178312083Y-76500069D01*
X173581273Y-115758830D02*
X173533654Y-115806450D01*
X173533654Y-115806450D02*
X173390797Y-115854069D01*
X173390797Y-115854069D02*
X173295559Y-115854069D01*
X173295559Y-115854069D02*
X173152702Y-115806450D01*
X173152702Y-115806450D02*
X173057464Y-115711211D01*
X173057464Y-115711211D02*
X173009845Y-115615973D01*
X173009845Y-115615973D02*
X172962226Y-115425497D01*
X172962226Y-115425497D02*
X172962226Y-115282640D01*
X172962226Y-115282640D02*
X173009845Y-115092164D01*
X173009845Y-115092164D02*
X173057464Y-114996926D01*
X173057464Y-114996926D02*
X173152702Y-114901688D01*
X173152702Y-114901688D02*
X173295559Y-114854069D01*
X173295559Y-114854069D02*
X173390797Y-114854069D01*
X173390797Y-114854069D02*
X173533654Y-114901688D01*
X173533654Y-114901688D02*
X173581273Y-114949307D01*
X178193036Y-89819069D02*
X178193036Y-88819069D01*
X178193036Y-88819069D02*
X178764464Y-89819069D01*
X178764464Y-89819069D02*
X178764464Y-88819069D01*
X172462226Y-128046069D02*
X172462226Y-127046069D01*
X172462226Y-127046069D02*
X173033654Y-128046069D01*
X173033654Y-128046069D02*
X173033654Y-127046069D01*
X173700321Y-127046069D02*
X173890797Y-127046069D01*
X173890797Y-127046069D02*
X173986035Y-127093688D01*
X173986035Y-127093688D02*
X174081273Y-127188926D01*
X174081273Y-127188926D02*
X174128892Y-127379402D01*
X174128892Y-127379402D02*
X174128892Y-127712735D01*
X174128892Y-127712735D02*
X174081273Y-127903211D01*
X174081273Y-127903211D02*
X173986035Y-127998450D01*
X173986035Y-127998450D02*
X173890797Y-128046069D01*
X173890797Y-128046069D02*
X173700321Y-128046069D01*
X173700321Y-128046069D02*
X173605083Y-127998450D01*
X173605083Y-127998450D02*
X173509845Y-127903211D01*
X173509845Y-127903211D02*
X173462226Y-127712735D01*
X173462226Y-127712735D02*
X173462226Y-127379402D01*
X173462226Y-127379402D02*
X173509845Y-127188926D01*
X173509845Y-127188926D02*
X173605083Y-127093688D01*
X173605083Y-127093688D02*
X173700321Y-127046069D01*
X134028845Y-126792069D02*
X134028845Y-127601592D01*
X134028845Y-127601592D02*
X134076464Y-127696830D01*
X134076464Y-127696830D02*
X134124083Y-127744450D01*
X134124083Y-127744450D02*
X134219321Y-127792069D01*
X134219321Y-127792069D02*
X134409797Y-127792069D01*
X134409797Y-127792069D02*
X134505035Y-127744450D01*
X134505035Y-127744450D02*
X134552654Y-127696830D01*
X134552654Y-127696830D02*
X134600273Y-127601592D01*
X134600273Y-127601592D02*
X134600273Y-126792069D01*
X135505035Y-127125402D02*
X135505035Y-127792069D01*
X135266940Y-126744450D02*
X135028845Y-127458735D01*
X135028845Y-127458735D02*
X135647892Y-127458735D01*
X142117083Y-130205069D02*
X141783750Y-129728878D01*
X141545655Y-130205069D02*
X141545655Y-129205069D01*
X141545655Y-129205069D02*
X141926607Y-129205069D01*
X141926607Y-129205069D02*
X142021845Y-129252688D01*
X142021845Y-129252688D02*
X142069464Y-129300307D01*
X142069464Y-129300307D02*
X142117083Y-129395545D01*
X142117083Y-129395545D02*
X142117083Y-129538402D01*
X142117083Y-129538402D02*
X142069464Y-129633640D01*
X142069464Y-129633640D02*
X142021845Y-129681259D01*
X142021845Y-129681259D02*
X141926607Y-129728878D01*
X141926607Y-129728878D02*
X141545655Y-129728878D01*
X142450417Y-129205069D02*
X143117083Y-129205069D01*
X143117083Y-129205069D02*
X142688512Y-130205069D01*
X176470655Y-105694069D02*
X176470655Y-104694069D01*
X176470655Y-104694069D02*
X176708750Y-104694069D01*
X176708750Y-104694069D02*
X176851607Y-104741688D01*
X176851607Y-104741688D02*
X176946845Y-104836926D01*
X176946845Y-104836926D02*
X176994464Y-104932164D01*
X176994464Y-104932164D02*
X177042083Y-105122640D01*
X177042083Y-105122640D02*
X177042083Y-105265497D01*
X177042083Y-105265497D02*
X176994464Y-105455973D01*
X176994464Y-105455973D02*
X176946845Y-105551211D01*
X176946845Y-105551211D02*
X176851607Y-105646450D01*
X176851607Y-105646450D02*
X176708750Y-105694069D01*
X176708750Y-105694069D02*
X176470655Y-105694069D01*
X177899226Y-105027402D02*
X177899226Y-105694069D01*
X177661131Y-104646450D02*
X177423036Y-105360735D01*
X177423036Y-105360735D02*
X178042083Y-105360735D01*
X176470655Y-114929069D02*
X176470655Y-113929069D01*
X176470655Y-113929069D02*
X176708750Y-113929069D01*
X176708750Y-113929069D02*
X176851607Y-113976688D01*
X176851607Y-113976688D02*
X176946845Y-114071926D01*
X176946845Y-114071926D02*
X176994464Y-114167164D01*
X176994464Y-114167164D02*
X177042083Y-114357640D01*
X177042083Y-114357640D02*
X177042083Y-114500497D01*
X177042083Y-114500497D02*
X176994464Y-114690973D01*
X176994464Y-114690973D02*
X176946845Y-114786211D01*
X176946845Y-114786211D02*
X176851607Y-114881450D01*
X176851607Y-114881450D02*
X176708750Y-114929069D01*
X176708750Y-114929069D02*
X176470655Y-114929069D01*
X177375417Y-113929069D02*
X177994464Y-113929069D01*
X177994464Y-113929069D02*
X177661131Y-114310021D01*
X177661131Y-114310021D02*
X177803988Y-114310021D01*
X177803988Y-114310021D02*
X177899226Y-114357640D01*
X177899226Y-114357640D02*
X177946845Y-114405259D01*
X177946845Y-114405259D02*
X177994464Y-114500497D01*
X177994464Y-114500497D02*
X177994464Y-114738592D01*
X177994464Y-114738592D02*
X177946845Y-114833830D01*
X177946845Y-114833830D02*
X177899226Y-114881450D01*
X177899226Y-114881450D02*
X177803988Y-114929069D01*
X177803988Y-114929069D02*
X177518274Y-114929069D01*
X177518274Y-114929069D02*
X177423036Y-114881450D01*
X177423036Y-114881450D02*
X177375417Y-114833830D01*
X173529666Y-76500069D02*
X173529666Y-77214354D01*
X173529666Y-77214354D02*
X173482047Y-77357211D01*
X173482047Y-77357211D02*
X173386809Y-77452450D01*
X173386809Y-77452450D02*
X173243952Y-77500069D01*
X173243952Y-77500069D02*
X173148714Y-77500069D01*
X174529666Y-77500069D02*
X173958238Y-77500069D01*
X174243952Y-77500069D02*
X174243952Y-76500069D01*
X174243952Y-76500069D02*
X174148714Y-76642926D01*
X174148714Y-76642926D02*
X174053476Y-76738164D01*
X174053476Y-76738164D02*
X173958238Y-76785783D01*
X171426429Y-89819069D02*
X171426429Y-88819069D01*
X171902619Y-89819069D02*
X171902619Y-88819069D01*
X171902619Y-88819069D02*
X172474047Y-89819069D01*
X172474047Y-89819069D02*
X172474047Y-88819069D01*
X172950238Y-89819069D02*
X172950238Y-88819069D01*
X172950238Y-88819069D02*
X173331190Y-88819069D01*
X173331190Y-88819069D02*
X173426428Y-88866688D01*
X173426428Y-88866688D02*
X173474047Y-88914307D01*
X173474047Y-88914307D02*
X173521666Y-89009545D01*
X173521666Y-89009545D02*
X173521666Y-89152402D01*
X173521666Y-89152402D02*
X173474047Y-89247640D01*
X173474047Y-89247640D02*
X173426428Y-89295259D01*
X173426428Y-89295259D02*
X173331190Y-89342878D01*
X173331190Y-89342878D02*
X172950238Y-89342878D01*
X173950238Y-88819069D02*
X173950238Y-89628592D01*
X173950238Y-89628592D02*
X173997857Y-89723830D01*
X173997857Y-89723830D02*
X174045476Y-89771450D01*
X174045476Y-89771450D02*
X174140714Y-89819069D01*
X174140714Y-89819069D02*
X174331190Y-89819069D01*
X174331190Y-89819069D02*
X174426428Y-89771450D01*
X174426428Y-89771450D02*
X174474047Y-89723830D01*
X174474047Y-89723830D02*
X174521666Y-89628592D01*
X174521666Y-89628592D02*
X174521666Y-88819069D01*
X174855000Y-88819069D02*
X175426428Y-88819069D01*
X175140714Y-89819069D02*
X175140714Y-88819069D01*
X131068083Y-130205069D02*
X130734750Y-129728878D01*
X130496655Y-130205069D02*
X130496655Y-129205069D01*
X130496655Y-129205069D02*
X130877607Y-129205069D01*
X130877607Y-129205069D02*
X130972845Y-129252688D01*
X130972845Y-129252688D02*
X131020464Y-129300307D01*
X131020464Y-129300307D02*
X131068083Y-129395545D01*
X131068083Y-129395545D02*
X131068083Y-129538402D01*
X131068083Y-129538402D02*
X131020464Y-129633640D01*
X131020464Y-129633640D02*
X130972845Y-129681259D01*
X130972845Y-129681259D02*
X130877607Y-129728878D01*
X130877607Y-129728878D02*
X130496655Y-129728878D01*
X131639512Y-129633640D02*
X131544274Y-129586021D01*
X131544274Y-129586021D02*
X131496655Y-129538402D01*
X131496655Y-129538402D02*
X131449036Y-129443164D01*
X131449036Y-129443164D02*
X131449036Y-129395545D01*
X131449036Y-129395545D02*
X131496655Y-129300307D01*
X131496655Y-129300307D02*
X131544274Y-129252688D01*
X131544274Y-129252688D02*
X131639512Y-129205069D01*
X131639512Y-129205069D02*
X131829988Y-129205069D01*
X131829988Y-129205069D02*
X131925226Y-129252688D01*
X131925226Y-129252688D02*
X131972845Y-129300307D01*
X131972845Y-129300307D02*
X132020464Y-129395545D01*
X132020464Y-129395545D02*
X132020464Y-129443164D01*
X132020464Y-129443164D02*
X131972845Y-129538402D01*
X131972845Y-129538402D02*
X131925226Y-129586021D01*
X131925226Y-129586021D02*
X131829988Y-129633640D01*
X131829988Y-129633640D02*
X131639512Y-129633640D01*
X131639512Y-129633640D02*
X131544274Y-129681259D01*
X131544274Y-129681259D02*
X131496655Y-129728878D01*
X131496655Y-129728878D02*
X131449036Y-129824116D01*
X131449036Y-129824116D02*
X131449036Y-130014592D01*
X131449036Y-130014592D02*
X131496655Y-130109830D01*
X131496655Y-130109830D02*
X131544274Y-130157450D01*
X131544274Y-130157450D02*
X131639512Y-130205069D01*
X131639512Y-130205069D02*
X131829988Y-130205069D01*
X131829988Y-130205069D02*
X131925226Y-130157450D01*
X131925226Y-130157450D02*
X131972845Y-130109830D01*
X131972845Y-130109830D02*
X132020464Y-130014592D01*
X132020464Y-130014592D02*
X132020464Y-129824116D01*
X132020464Y-129824116D02*
X131972845Y-129728878D01*
X131972845Y-129728878D02*
X131925226Y-129681259D01*
X131925226Y-129681259D02*
X131829988Y-129633640D01*
X168565083Y-96375069D02*
X168231750Y-95898878D01*
X167993655Y-96375069D02*
X167993655Y-95375069D01*
X167993655Y-95375069D02*
X168374607Y-95375069D01*
X168374607Y-95375069D02*
X168469845Y-95422688D01*
X168469845Y-95422688D02*
X168517464Y-95470307D01*
X168517464Y-95470307D02*
X168565083Y-95565545D01*
X168565083Y-95565545D02*
X168565083Y-95708402D01*
X168565083Y-95708402D02*
X168517464Y-95803640D01*
X168517464Y-95803640D02*
X168469845Y-95851259D01*
X168469845Y-95851259D02*
X168374607Y-95898878D01*
X168374607Y-95898878D02*
X167993655Y-95898878D01*
X169041274Y-96375069D02*
X169231750Y-96375069D01*
X169231750Y-96375069D02*
X169326988Y-96327450D01*
X169326988Y-96327450D02*
X169374607Y-96279830D01*
X169374607Y-96279830D02*
X169469845Y-96136973D01*
X169469845Y-96136973D02*
X169517464Y-95946497D01*
X169517464Y-95946497D02*
X169517464Y-95565545D01*
X169517464Y-95565545D02*
X169469845Y-95470307D01*
X169469845Y-95470307D02*
X169422226Y-95422688D01*
X169422226Y-95422688D02*
X169326988Y-95375069D01*
X169326988Y-95375069D02*
X169136512Y-95375069D01*
X169136512Y-95375069D02*
X169041274Y-95422688D01*
X169041274Y-95422688D02*
X168993655Y-95470307D01*
X168993655Y-95470307D02*
X168946036Y-95565545D01*
X168946036Y-95565545D02*
X168946036Y-95803640D01*
X168946036Y-95803640D02*
X168993655Y-95898878D01*
X168993655Y-95898878D02*
X169041274Y-95946497D01*
X169041274Y-95946497D02*
X169136512Y-95994116D01*
X169136512Y-95994116D02*
X169326988Y-95994116D01*
X169326988Y-95994116D02*
X169422226Y-95946497D01*
X169422226Y-95946497D02*
X169469845Y-95898878D01*
X169469845Y-95898878D02*
X169517464Y-95803640D01*
X128980511Y-131316307D02*
X128885273Y-131268688D01*
X128885273Y-131268688D02*
X128790035Y-131173450D01*
X128790035Y-131173450D02*
X128647178Y-131030592D01*
X128647178Y-131030592D02*
X128551940Y-130982973D01*
X128551940Y-130982973D02*
X128456702Y-130982973D01*
X128504321Y-131221069D02*
X128409083Y-131173450D01*
X128409083Y-131173450D02*
X128313845Y-131078211D01*
X128313845Y-131078211D02*
X128266226Y-130887735D01*
X128266226Y-130887735D02*
X128266226Y-130554402D01*
X128266226Y-130554402D02*
X128313845Y-130363926D01*
X128313845Y-130363926D02*
X128409083Y-130268688D01*
X128409083Y-130268688D02*
X128504321Y-130221069D01*
X128504321Y-130221069D02*
X128694797Y-130221069D01*
X128694797Y-130221069D02*
X128790035Y-130268688D01*
X128790035Y-130268688D02*
X128885273Y-130363926D01*
X128885273Y-130363926D02*
X128932892Y-130554402D01*
X128932892Y-130554402D02*
X128932892Y-130887735D01*
X128932892Y-130887735D02*
X128885273Y-131078211D01*
X128885273Y-131078211D02*
X128790035Y-131173450D01*
X128790035Y-131173450D02*
X128694797Y-131221069D01*
X128694797Y-131221069D02*
X128504321Y-131221069D01*
X129313845Y-130316307D02*
X129361464Y-130268688D01*
X129361464Y-130268688D02*
X129456702Y-130221069D01*
X129456702Y-130221069D02*
X129694797Y-130221069D01*
X129694797Y-130221069D02*
X129790035Y-130268688D01*
X129790035Y-130268688D02*
X129837654Y-130316307D01*
X129837654Y-130316307D02*
X129885273Y-130411545D01*
X129885273Y-130411545D02*
X129885273Y-130506783D01*
X129885273Y-130506783D02*
X129837654Y-130649640D01*
X129837654Y-130649640D02*
X129266226Y-131221069D01*
X129266226Y-131221069D02*
X129885273Y-131221069D01*
X164532655Y-99090069D02*
X164532655Y-98090069D01*
X165104083Y-99090069D02*
X164675512Y-98518640D01*
X165104083Y-98090069D02*
X164532655Y-98661497D01*
X166056464Y-99090069D02*
X165485036Y-99090069D01*
X165770750Y-99090069D02*
X165770750Y-98090069D01*
X165770750Y-98090069D02*
X165675512Y-98232926D01*
X165675512Y-98232926D02*
X165580274Y-98328164D01*
X165580274Y-98328164D02*
X165485036Y-98375783D01*
X144657083Y-122108830D02*
X144609464Y-122156450D01*
X144609464Y-122156450D02*
X144466607Y-122204069D01*
X144466607Y-122204069D02*
X144371369Y-122204069D01*
X144371369Y-122204069D02*
X144228512Y-122156450D01*
X144228512Y-122156450D02*
X144133274Y-122061211D01*
X144133274Y-122061211D02*
X144085655Y-121965973D01*
X144085655Y-121965973D02*
X144038036Y-121775497D01*
X144038036Y-121775497D02*
X144038036Y-121632640D01*
X144038036Y-121632640D02*
X144085655Y-121442164D01*
X144085655Y-121442164D02*
X144133274Y-121346926D01*
X144133274Y-121346926D02*
X144228512Y-121251688D01*
X144228512Y-121251688D02*
X144371369Y-121204069D01*
X144371369Y-121204069D02*
X144466607Y-121204069D01*
X144466607Y-121204069D02*
X144609464Y-121251688D01*
X144609464Y-121251688D02*
X144657083Y-121299307D01*
X145561845Y-121204069D02*
X145085655Y-121204069D01*
X145085655Y-121204069D02*
X145038036Y-121680259D01*
X145038036Y-121680259D02*
X145085655Y-121632640D01*
X145085655Y-121632640D02*
X145180893Y-121585021D01*
X145180893Y-121585021D02*
X145418988Y-121585021D01*
X145418988Y-121585021D02*
X145514226Y-121632640D01*
X145514226Y-121632640D02*
X145561845Y-121680259D01*
X145561845Y-121680259D02*
X145609464Y-121775497D01*
X145609464Y-121775497D02*
X145609464Y-122013592D01*
X145609464Y-122013592D02*
X145561845Y-122108830D01*
X145561845Y-122108830D02*
X145514226Y-122156450D01*
X145514226Y-122156450D02*
X145418988Y-122204069D01*
X145418988Y-122204069D02*
X145180893Y-122204069D01*
X145180893Y-122204069D02*
X145085655Y-122156450D01*
X145085655Y-122156450D02*
X145038036Y-122108830D01*
X144847655Y-119621069D02*
X144847655Y-118621069D01*
X144847655Y-118621069D02*
X145085750Y-118621069D01*
X145085750Y-118621069D02*
X145228607Y-118668688D01*
X145228607Y-118668688D02*
X145323845Y-118763926D01*
X145323845Y-118763926D02*
X145371464Y-118859164D01*
X145371464Y-118859164D02*
X145419083Y-119049640D01*
X145419083Y-119049640D02*
X145419083Y-119192497D01*
X145419083Y-119192497D02*
X145371464Y-119382973D01*
X145371464Y-119382973D02*
X145323845Y-119478211D01*
X145323845Y-119478211D02*
X145228607Y-119573450D01*
X145228607Y-119573450D02*
X145085750Y-119621069D01*
X145085750Y-119621069D02*
X144847655Y-119621069D01*
X145800036Y-118716307D02*
X145847655Y-118668688D01*
X145847655Y-118668688D02*
X145942893Y-118621069D01*
X145942893Y-118621069D02*
X146180988Y-118621069D01*
X146180988Y-118621069D02*
X146276226Y-118668688D01*
X146276226Y-118668688D02*
X146323845Y-118716307D01*
X146323845Y-118716307D02*
X146371464Y-118811545D01*
X146371464Y-118811545D02*
X146371464Y-118906783D01*
X146371464Y-118906783D02*
X146323845Y-119049640D01*
X146323845Y-119049640D02*
X145752417Y-119621069D01*
X145752417Y-119621069D02*
X146371464Y-119621069D01*
X169761819Y-125682333D02*
X170476104Y-125682333D01*
X170476104Y-125682333D02*
X170618961Y-125729952D01*
X170618961Y-125729952D02*
X170714200Y-125825190D01*
X170714200Y-125825190D02*
X170761819Y-125968047D01*
X170761819Y-125968047D02*
X170761819Y-126063285D01*
X169857057Y-125253761D02*
X169809438Y-125206142D01*
X169809438Y-125206142D02*
X169761819Y-125110904D01*
X169761819Y-125110904D02*
X169761819Y-124872809D01*
X169761819Y-124872809D02*
X169809438Y-124777571D01*
X169809438Y-124777571D02*
X169857057Y-124729952D01*
X169857057Y-124729952D02*
X169952295Y-124682333D01*
X169952295Y-124682333D02*
X170047533Y-124682333D01*
X170047533Y-124682333D02*
X170190390Y-124729952D01*
X170190390Y-124729952D02*
X170761819Y-125301380D01*
X170761819Y-125301380D02*
X170761819Y-124682333D01*
X170714200Y-121244999D02*
X170761819Y-121102142D01*
X170761819Y-121102142D02*
X170761819Y-120864047D01*
X170761819Y-120864047D02*
X170714200Y-120768809D01*
X170714200Y-120768809D02*
X170666580Y-120721190D01*
X170666580Y-120721190D02*
X170571342Y-120673571D01*
X170571342Y-120673571D02*
X170476104Y-120673571D01*
X170476104Y-120673571D02*
X170380866Y-120721190D01*
X170380866Y-120721190D02*
X170333247Y-120768809D01*
X170333247Y-120768809D02*
X170285628Y-120864047D01*
X170285628Y-120864047D02*
X170238009Y-121054523D01*
X170238009Y-121054523D02*
X170190390Y-121149761D01*
X170190390Y-121149761D02*
X170142771Y-121197380D01*
X170142771Y-121197380D02*
X170047533Y-121244999D01*
X170047533Y-121244999D02*
X169952295Y-121244999D01*
X169952295Y-121244999D02*
X169857057Y-121197380D01*
X169857057Y-121197380D02*
X169809438Y-121149761D01*
X169809438Y-121149761D02*
X169761819Y-121054523D01*
X169761819Y-121054523D02*
X169761819Y-120816428D01*
X169761819Y-120816428D02*
X169809438Y-120673571D01*
X169761819Y-120340237D02*
X170761819Y-120102142D01*
X170761819Y-120102142D02*
X170047533Y-119911666D01*
X170047533Y-119911666D02*
X170761819Y-119721190D01*
X170761819Y-119721190D02*
X169761819Y-119483095D01*
X170761819Y-119102142D02*
X169761819Y-119102142D01*
X169761819Y-118768809D02*
X169761819Y-118197381D01*
X170761819Y-118483095D02*
X169761819Y-118483095D01*
X170666580Y-117292619D02*
X170714200Y-117340238D01*
X170714200Y-117340238D02*
X170761819Y-117483095D01*
X170761819Y-117483095D02*
X170761819Y-117578333D01*
X170761819Y-117578333D02*
X170714200Y-117721190D01*
X170714200Y-117721190D02*
X170618961Y-117816428D01*
X170618961Y-117816428D02*
X170523723Y-117864047D01*
X170523723Y-117864047D02*
X170333247Y-117911666D01*
X170333247Y-117911666D02*
X170190390Y-117911666D01*
X170190390Y-117911666D02*
X169999914Y-117864047D01*
X169999914Y-117864047D02*
X169904676Y-117816428D01*
X169904676Y-117816428D02*
X169809438Y-117721190D01*
X169809438Y-117721190D02*
X169761819Y-117578333D01*
X169761819Y-117578333D02*
X169761819Y-117483095D01*
X169761819Y-117483095D02*
X169809438Y-117340238D01*
X169809438Y-117340238D02*
X169857057Y-117292619D01*
X170761819Y-116864047D02*
X169761819Y-116864047D01*
X170238009Y-116864047D02*
X170238009Y-116292619D01*
X170761819Y-116292619D02*
X169761819Y-116292619D01*
X140156511Y-131316307D02*
X140061273Y-131268688D01*
X140061273Y-131268688D02*
X139966035Y-131173450D01*
X139966035Y-131173450D02*
X139823178Y-131030592D01*
X139823178Y-131030592D02*
X139727940Y-130982973D01*
X139727940Y-130982973D02*
X139632702Y-130982973D01*
X139680321Y-131221069D02*
X139585083Y-131173450D01*
X139585083Y-131173450D02*
X139489845Y-131078211D01*
X139489845Y-131078211D02*
X139442226Y-130887735D01*
X139442226Y-130887735D02*
X139442226Y-130554402D01*
X139442226Y-130554402D02*
X139489845Y-130363926D01*
X139489845Y-130363926D02*
X139585083Y-130268688D01*
X139585083Y-130268688D02*
X139680321Y-130221069D01*
X139680321Y-130221069D02*
X139870797Y-130221069D01*
X139870797Y-130221069D02*
X139966035Y-130268688D01*
X139966035Y-130268688D02*
X140061273Y-130363926D01*
X140061273Y-130363926D02*
X140108892Y-130554402D01*
X140108892Y-130554402D02*
X140108892Y-130887735D01*
X140108892Y-130887735D02*
X140061273Y-131078211D01*
X140061273Y-131078211D02*
X139966035Y-131173450D01*
X139966035Y-131173450D02*
X139870797Y-131221069D01*
X139870797Y-131221069D02*
X139680321Y-131221069D01*
X141061273Y-131221069D02*
X140489845Y-131221069D01*
X140775559Y-131221069D02*
X140775559Y-130221069D01*
X140775559Y-130221069D02*
X140680321Y-130363926D01*
X140680321Y-130363926D02*
X140585083Y-130459164D01*
X140585083Y-130459164D02*
X140489845Y-130506783D01*
X123384655Y-78643069D02*
X123384655Y-77643069D01*
X123384655Y-77643069D02*
X123622750Y-77643069D01*
X123622750Y-77643069D02*
X123765607Y-77690688D01*
X123765607Y-77690688D02*
X123860845Y-77785926D01*
X123860845Y-77785926D02*
X123908464Y-77881164D01*
X123908464Y-77881164D02*
X123956083Y-78071640D01*
X123956083Y-78071640D02*
X123956083Y-78214497D01*
X123956083Y-78214497D02*
X123908464Y-78404973D01*
X123908464Y-78404973D02*
X123860845Y-78500211D01*
X123860845Y-78500211D02*
X123765607Y-78595450D01*
X123765607Y-78595450D02*
X123622750Y-78643069D01*
X123622750Y-78643069D02*
X123384655Y-78643069D01*
X124860845Y-77643069D02*
X124384655Y-77643069D01*
X124384655Y-77643069D02*
X124337036Y-78119259D01*
X124337036Y-78119259D02*
X124384655Y-78071640D01*
X124384655Y-78071640D02*
X124479893Y-78024021D01*
X124479893Y-78024021D02*
X124717988Y-78024021D01*
X124717988Y-78024021D02*
X124813226Y-78071640D01*
X124813226Y-78071640D02*
X124860845Y-78119259D01*
X124860845Y-78119259D02*
X124908464Y-78214497D01*
X124908464Y-78214497D02*
X124908464Y-78452592D01*
X124908464Y-78452592D02*
X124860845Y-78547830D01*
X124860845Y-78547830D02*
X124813226Y-78595450D01*
X124813226Y-78595450D02*
X124717988Y-78643069D01*
X124717988Y-78643069D02*
X124479893Y-78643069D01*
X124479893Y-78643069D02*
X124384655Y-78595450D01*
X124384655Y-78595450D02*
X124337036Y-78547830D01*
X119527226Y-75976069D02*
X119527226Y-74976069D01*
X119527226Y-74976069D02*
X119908178Y-74976069D01*
X119908178Y-74976069D02*
X120003416Y-75023688D01*
X120003416Y-75023688D02*
X120051035Y-75071307D01*
X120051035Y-75071307D02*
X120098654Y-75166545D01*
X120098654Y-75166545D02*
X120098654Y-75309402D01*
X120098654Y-75309402D02*
X120051035Y-75404640D01*
X120051035Y-75404640D02*
X120003416Y-75452259D01*
X120003416Y-75452259D02*
X119908178Y-75499878D01*
X119908178Y-75499878D02*
X119527226Y-75499878D01*
X120717702Y-74976069D02*
X120908178Y-74976069D01*
X120908178Y-74976069D02*
X121003416Y-75023688D01*
X121003416Y-75023688D02*
X121098654Y-75118926D01*
X121098654Y-75118926D02*
X121146273Y-75309402D01*
X121146273Y-75309402D02*
X121146273Y-75642735D01*
X121146273Y-75642735D02*
X121098654Y-75833211D01*
X121098654Y-75833211D02*
X121003416Y-75928450D01*
X121003416Y-75928450D02*
X120908178Y-75976069D01*
X120908178Y-75976069D02*
X120717702Y-75976069D01*
X120717702Y-75976069D02*
X120622464Y-75928450D01*
X120622464Y-75928450D02*
X120527226Y-75833211D01*
X120527226Y-75833211D02*
X120479607Y-75642735D01*
X120479607Y-75642735D02*
X120479607Y-75309402D01*
X120479607Y-75309402D02*
X120527226Y-75118926D01*
X120527226Y-75118926D02*
X120622464Y-75023688D01*
X120622464Y-75023688D02*
X120717702Y-74976069D01*
X121479607Y-74976069D02*
X121717702Y-75976069D01*
X121717702Y-75976069D02*
X121908178Y-75261783D01*
X121908178Y-75261783D02*
X122098654Y-75976069D01*
X122098654Y-75976069D02*
X122336750Y-74976069D01*
X122717702Y-75452259D02*
X123051035Y-75452259D01*
X123193892Y-75976069D02*
X122717702Y-75976069D01*
X122717702Y-75976069D02*
X122717702Y-74976069D01*
X122717702Y-74976069D02*
X123193892Y-74976069D01*
X124193892Y-75976069D02*
X123860559Y-75499878D01*
X123622464Y-75976069D02*
X123622464Y-74976069D01*
X123622464Y-74976069D02*
X124003416Y-74976069D01*
X124003416Y-74976069D02*
X124098654Y-75023688D01*
X124098654Y-75023688D02*
X124146273Y-75071307D01*
X124146273Y-75071307D02*
X124193892Y-75166545D01*
X124193892Y-75166545D02*
X124193892Y-75309402D01*
X124193892Y-75309402D02*
X124146273Y-75404640D01*
X124146273Y-75404640D02*
X124098654Y-75452259D01*
X124098654Y-75452259D02*
X124003416Y-75499878D01*
X124003416Y-75499878D02*
X123622464Y-75499878D01*
X123860892Y-81056069D02*
X123527559Y-80579878D01*
X123289464Y-81056069D02*
X123289464Y-80056069D01*
X123289464Y-80056069D02*
X123670416Y-80056069D01*
X123670416Y-80056069D02*
X123765654Y-80103688D01*
X123765654Y-80103688D02*
X123813273Y-80151307D01*
X123813273Y-80151307D02*
X123860892Y-80246545D01*
X123860892Y-80246545D02*
X123860892Y-80389402D01*
X123860892Y-80389402D02*
X123813273Y-80484640D01*
X123813273Y-80484640D02*
X123765654Y-80532259D01*
X123765654Y-80532259D02*
X123670416Y-80579878D01*
X123670416Y-80579878D02*
X123289464Y-80579878D01*
X124813273Y-81056069D02*
X124241845Y-81056069D01*
X124527559Y-81056069D02*
X124527559Y-80056069D01*
X124527559Y-80056069D02*
X124432321Y-80198926D01*
X124432321Y-80198926D02*
X124337083Y-80294164D01*
X124337083Y-80294164D02*
X124241845Y-80341783D01*
X125765654Y-81056069D02*
X125194226Y-81056069D01*
X125479940Y-81056069D02*
X125479940Y-80056069D01*
X125479940Y-80056069D02*
X125384702Y-80198926D01*
X125384702Y-80198926D02*
X125289464Y-80294164D01*
X125289464Y-80294164D02*
X125194226Y-80341783D01*
X146474845Y-91359069D02*
X146474845Y-92168592D01*
X146474845Y-92168592D02*
X146522464Y-92263830D01*
X146522464Y-92263830D02*
X146570083Y-92311450D01*
X146570083Y-92311450D02*
X146665321Y-92359069D01*
X146665321Y-92359069D02*
X146855797Y-92359069D01*
X146855797Y-92359069D02*
X146951035Y-92311450D01*
X146951035Y-92311450D02*
X146998654Y-92263830D01*
X146998654Y-92263830D02*
X147046273Y-92168592D01*
X147046273Y-92168592D02*
X147046273Y-91359069D01*
X148046273Y-92359069D02*
X147474845Y-92359069D01*
X147760559Y-92359069D02*
X147760559Y-91359069D01*
X147760559Y-91359069D02*
X147665321Y-91501926D01*
X147665321Y-91501926D02*
X147570083Y-91597164D01*
X147570083Y-91597164D02*
X147474845Y-91644783D01*
X178312083Y-96708830D02*
X178264464Y-96756450D01*
X178264464Y-96756450D02*
X178121607Y-96804069D01*
X178121607Y-96804069D02*
X178026369Y-96804069D01*
X178026369Y-96804069D02*
X177883512Y-96756450D01*
X177883512Y-96756450D02*
X177788274Y-96661211D01*
X177788274Y-96661211D02*
X177740655Y-96565973D01*
X177740655Y-96565973D02*
X177693036Y-96375497D01*
X177693036Y-96375497D02*
X177693036Y-96232640D01*
X177693036Y-96232640D02*
X177740655Y-96042164D01*
X177740655Y-96042164D02*
X177788274Y-95946926D01*
X177788274Y-95946926D02*
X177883512Y-95851688D01*
X177883512Y-95851688D02*
X178026369Y-95804069D01*
X178026369Y-95804069D02*
X178121607Y-95804069D01*
X178121607Y-95804069D02*
X178264464Y-95851688D01*
X178264464Y-95851688D02*
X178312083Y-95899307D01*
X179169226Y-95804069D02*
X178978750Y-95804069D01*
X178978750Y-95804069D02*
X178883512Y-95851688D01*
X178883512Y-95851688D02*
X178835893Y-95899307D01*
X178835893Y-95899307D02*
X178740655Y-96042164D01*
X178740655Y-96042164D02*
X178693036Y-96232640D01*
X178693036Y-96232640D02*
X178693036Y-96613592D01*
X178693036Y-96613592D02*
X178740655Y-96708830D01*
X178740655Y-96708830D02*
X178788274Y-96756450D01*
X178788274Y-96756450D02*
X178883512Y-96804069D01*
X178883512Y-96804069D02*
X179073988Y-96804069D01*
X179073988Y-96804069D02*
X179169226Y-96756450D01*
X179169226Y-96756450D02*
X179216845Y-96708830D01*
X179216845Y-96708830D02*
X179264464Y-96613592D01*
X179264464Y-96613592D02*
X179264464Y-96375497D01*
X179264464Y-96375497D02*
X179216845Y-96280259D01*
X179216845Y-96280259D02*
X179169226Y-96232640D01*
X179169226Y-96232640D02*
X179073988Y-96185021D01*
X179073988Y-96185021D02*
X178883512Y-96185021D01*
X178883512Y-96185021D02*
X178788274Y-96232640D01*
X178788274Y-96232640D02*
X178740655Y-96280259D01*
X178740655Y-96280259D02*
X178693036Y-96375497D01*
X135513083Y-92517830D02*
X135465464Y-92565450D01*
X135465464Y-92565450D02*
X135322607Y-92613069D01*
X135322607Y-92613069D02*
X135227369Y-92613069D01*
X135227369Y-92613069D02*
X135084512Y-92565450D01*
X135084512Y-92565450D02*
X134989274Y-92470211D01*
X134989274Y-92470211D02*
X134941655Y-92374973D01*
X134941655Y-92374973D02*
X134894036Y-92184497D01*
X134894036Y-92184497D02*
X134894036Y-92041640D01*
X134894036Y-92041640D02*
X134941655Y-91851164D01*
X134941655Y-91851164D02*
X134989274Y-91755926D01*
X134989274Y-91755926D02*
X135084512Y-91660688D01*
X135084512Y-91660688D02*
X135227369Y-91613069D01*
X135227369Y-91613069D02*
X135322607Y-91613069D01*
X135322607Y-91613069D02*
X135465464Y-91660688D01*
X135465464Y-91660688D02*
X135513083Y-91708307D01*
X135894036Y-91708307D02*
X135941655Y-91660688D01*
X135941655Y-91660688D02*
X136036893Y-91613069D01*
X136036893Y-91613069D02*
X136274988Y-91613069D01*
X136274988Y-91613069D02*
X136370226Y-91660688D01*
X136370226Y-91660688D02*
X136417845Y-91708307D01*
X136417845Y-91708307D02*
X136465464Y-91803545D01*
X136465464Y-91803545D02*
X136465464Y-91898783D01*
X136465464Y-91898783D02*
X136417845Y-92041640D01*
X136417845Y-92041640D02*
X135846417Y-92613069D01*
X135846417Y-92613069D02*
X136465464Y-92613069D01*
X125392845Y-98725069D02*
X125392845Y-99534592D01*
X125392845Y-99534592D02*
X125440464Y-99629830D01*
X125440464Y-99629830D02*
X125488083Y-99677450D01*
X125488083Y-99677450D02*
X125583321Y-99725069D01*
X125583321Y-99725069D02*
X125773797Y-99725069D01*
X125773797Y-99725069D02*
X125869035Y-99677450D01*
X125869035Y-99677450D02*
X125916654Y-99629830D01*
X125916654Y-99629830D02*
X125964273Y-99534592D01*
X125964273Y-99534592D02*
X125964273Y-98725069D01*
X126392845Y-98820307D02*
X126440464Y-98772688D01*
X126440464Y-98772688D02*
X126535702Y-98725069D01*
X126535702Y-98725069D02*
X126773797Y-98725069D01*
X126773797Y-98725069D02*
X126869035Y-98772688D01*
X126869035Y-98772688D02*
X126916654Y-98820307D01*
X126916654Y-98820307D02*
X126964273Y-98915545D01*
X126964273Y-98915545D02*
X126964273Y-99010783D01*
X126964273Y-99010783D02*
X126916654Y-99153640D01*
X126916654Y-99153640D02*
X126345226Y-99725069D01*
X126345226Y-99725069D02*
X126964273Y-99725069D01*
X169358655Y-130459069D02*
X169358655Y-129459069D01*
X169930083Y-130459069D02*
X169501512Y-129887640D01*
X169930083Y-129459069D02*
X169358655Y-130030497D01*
X170311036Y-129554307D02*
X170358655Y-129506688D01*
X170358655Y-129506688D02*
X170453893Y-129459069D01*
X170453893Y-129459069D02*
X170691988Y-129459069D01*
X170691988Y-129459069D02*
X170787226Y-129506688D01*
X170787226Y-129506688D02*
X170834845Y-129554307D01*
X170834845Y-129554307D02*
X170882464Y-129649545D01*
X170882464Y-129649545D02*
X170882464Y-129744783D01*
X170882464Y-129744783D02*
X170834845Y-129887640D01*
X170834845Y-129887640D02*
X170263417Y-130459069D01*
X170263417Y-130459069D02*
X170882464Y-130459069D01*
X144974655Y-102900069D02*
X144974655Y-101900069D01*
X144974655Y-101900069D02*
X145212750Y-101900069D01*
X145212750Y-101900069D02*
X145355607Y-101947688D01*
X145355607Y-101947688D02*
X145450845Y-102042926D01*
X145450845Y-102042926D02*
X145498464Y-102138164D01*
X145498464Y-102138164D02*
X145546083Y-102328640D01*
X145546083Y-102328640D02*
X145546083Y-102471497D01*
X145546083Y-102471497D02*
X145498464Y-102661973D01*
X145498464Y-102661973D02*
X145450845Y-102757211D01*
X145450845Y-102757211D02*
X145355607Y-102852450D01*
X145355607Y-102852450D02*
X145212750Y-102900069D01*
X145212750Y-102900069D02*
X144974655Y-102900069D01*
X146498464Y-102900069D02*
X145927036Y-102900069D01*
X146212750Y-102900069D02*
X146212750Y-101900069D01*
X146212750Y-101900069D02*
X146117512Y-102042926D01*
X146117512Y-102042926D02*
X146022274Y-102138164D01*
X146022274Y-102138164D02*
X145927036Y-102185783D01*
X138180083Y-98994830D02*
X138132464Y-99042450D01*
X138132464Y-99042450D02*
X137989607Y-99090069D01*
X137989607Y-99090069D02*
X137894369Y-99090069D01*
X137894369Y-99090069D02*
X137751512Y-99042450D01*
X137751512Y-99042450D02*
X137656274Y-98947211D01*
X137656274Y-98947211D02*
X137608655Y-98851973D01*
X137608655Y-98851973D02*
X137561036Y-98661497D01*
X137561036Y-98661497D02*
X137561036Y-98518640D01*
X137561036Y-98518640D02*
X137608655Y-98328164D01*
X137608655Y-98328164D02*
X137656274Y-98232926D01*
X137656274Y-98232926D02*
X137751512Y-98137688D01*
X137751512Y-98137688D02*
X137894369Y-98090069D01*
X137894369Y-98090069D02*
X137989607Y-98090069D01*
X137989607Y-98090069D02*
X138132464Y-98137688D01*
X138132464Y-98137688D02*
X138180083Y-98185307D01*
X139037226Y-98423402D02*
X139037226Y-99090069D01*
X138799131Y-98042450D02*
X138561036Y-98756735D01*
X138561036Y-98756735D02*
X139180083Y-98756735D01*
X165819333Y-89517830D02*
X165771714Y-89565450D01*
X165771714Y-89565450D02*
X165628857Y-89613069D01*
X165628857Y-89613069D02*
X165533619Y-89613069D01*
X165533619Y-89613069D02*
X165390762Y-89565450D01*
X165390762Y-89565450D02*
X165295524Y-89470211D01*
X165295524Y-89470211D02*
X165247905Y-89374973D01*
X165247905Y-89374973D02*
X165200286Y-89184497D01*
X165200286Y-89184497D02*
X165200286Y-89041640D01*
X165200286Y-89041640D02*
X165247905Y-88851164D01*
X165247905Y-88851164D02*
X165295524Y-88755926D01*
X165295524Y-88755926D02*
X165390762Y-88660688D01*
X165390762Y-88660688D02*
X165533619Y-88613069D01*
X165533619Y-88613069D02*
X165628857Y-88613069D01*
X165628857Y-88613069D02*
X165771714Y-88660688D01*
X165771714Y-88660688D02*
X165819333Y-88708307D01*
X166771714Y-89613069D02*
X166200286Y-89613069D01*
X166486000Y-89613069D02*
X166486000Y-88613069D01*
X166486000Y-88613069D02*
X166390762Y-88755926D01*
X166390762Y-88755926D02*
X166295524Y-88851164D01*
X166295524Y-88851164D02*
X166200286Y-88898783D01*
X157396845Y-91232069D02*
X157396845Y-92041592D01*
X157396845Y-92041592D02*
X157444464Y-92136830D01*
X157444464Y-92136830D02*
X157492083Y-92184450D01*
X157492083Y-92184450D02*
X157587321Y-92232069D01*
X157587321Y-92232069D02*
X157777797Y-92232069D01*
X157777797Y-92232069D02*
X157873035Y-92184450D01*
X157873035Y-92184450D02*
X157920654Y-92136830D01*
X157920654Y-92136830D02*
X157968273Y-92041592D01*
X157968273Y-92041592D02*
X157968273Y-91232069D01*
X158873035Y-91232069D02*
X158682559Y-91232069D01*
X158682559Y-91232069D02*
X158587321Y-91279688D01*
X158587321Y-91279688D02*
X158539702Y-91327307D01*
X158539702Y-91327307D02*
X158444464Y-91470164D01*
X158444464Y-91470164D02*
X158396845Y-91660640D01*
X158396845Y-91660640D02*
X158396845Y-92041592D01*
X158396845Y-92041592D02*
X158444464Y-92136830D01*
X158444464Y-92136830D02*
X158492083Y-92184450D01*
X158492083Y-92184450D02*
X158587321Y-92232069D01*
X158587321Y-92232069D02*
X158777797Y-92232069D01*
X158777797Y-92232069D02*
X158873035Y-92184450D01*
X158873035Y-92184450D02*
X158920654Y-92136830D01*
X158920654Y-92136830D02*
X158968273Y-92041592D01*
X158968273Y-92041592D02*
X158968273Y-91803497D01*
X158968273Y-91803497D02*
X158920654Y-91708259D01*
X158920654Y-91708259D02*
X158873035Y-91660640D01*
X158873035Y-91660640D02*
X158777797Y-91613021D01*
X158777797Y-91613021D02*
X158587321Y-91613021D01*
X158587321Y-91613021D02*
X158492083Y-91660640D01*
X158492083Y-91660640D02*
X158444464Y-91708259D01*
X158444464Y-91708259D02*
X158396845Y-91803497D01*
X123853845Y-119705069D02*
X123853845Y-120514592D01*
X123853845Y-120514592D02*
X123901464Y-120609830D01*
X123901464Y-120609830D02*
X123949083Y-120657450D01*
X123949083Y-120657450D02*
X124044321Y-120705069D01*
X124044321Y-120705069D02*
X124234797Y-120705069D01*
X124234797Y-120705069D02*
X124330035Y-120657450D01*
X124330035Y-120657450D02*
X124377654Y-120609830D01*
X124377654Y-120609830D02*
X124425273Y-120514592D01*
X124425273Y-120514592D02*
X124425273Y-119705069D01*
X125377654Y-119705069D02*
X124901464Y-119705069D01*
X124901464Y-119705069D02*
X124853845Y-120181259D01*
X124853845Y-120181259D02*
X124901464Y-120133640D01*
X124901464Y-120133640D02*
X124996702Y-120086021D01*
X124996702Y-120086021D02*
X125234797Y-120086021D01*
X125234797Y-120086021D02*
X125330035Y-120133640D01*
X125330035Y-120133640D02*
X125377654Y-120181259D01*
X125377654Y-120181259D02*
X125425273Y-120276497D01*
X125425273Y-120276497D02*
X125425273Y-120514592D01*
X125425273Y-120514592D02*
X125377654Y-120609830D01*
X125377654Y-120609830D02*
X125330035Y-120657450D01*
X125330035Y-120657450D02*
X125234797Y-120705069D01*
X125234797Y-120705069D02*
X124996702Y-120705069D01*
X124996702Y-120705069D02*
X124901464Y-120657450D01*
X124901464Y-120657450D02*
X124853845Y-120609830D01*
X172303416Y-72277259D02*
X171970083Y-72277259D01*
X171970083Y-72801069D02*
X171970083Y-71801069D01*
X171970083Y-71801069D02*
X172446273Y-71801069D01*
X173351035Y-72801069D02*
X172779607Y-72801069D01*
X173065321Y-72801069D02*
X173065321Y-71801069D01*
X173065321Y-71801069D02*
X172970083Y-71943926D01*
X172970083Y-71943926D02*
X172874845Y-72039164D01*
X172874845Y-72039164D02*
X172779607Y-72086783D01*
X121282416Y-81326069D02*
X121282416Y-82040354D01*
X121282416Y-82040354D02*
X121234797Y-82183211D01*
X121234797Y-82183211D02*
X121139559Y-82278450D01*
X121139559Y-82278450D02*
X120996702Y-82326069D01*
X120996702Y-82326069D02*
X120901464Y-82326069D01*
X121663369Y-81326069D02*
X122282416Y-81326069D01*
X122282416Y-81326069D02*
X121949083Y-81707021D01*
X121949083Y-81707021D02*
X122091940Y-81707021D01*
X122091940Y-81707021D02*
X122187178Y-81754640D01*
X122187178Y-81754640D02*
X122234797Y-81802259D01*
X122234797Y-81802259D02*
X122282416Y-81897497D01*
X122282416Y-81897497D02*
X122282416Y-82135592D01*
X122282416Y-82135592D02*
X122234797Y-82230830D01*
X122234797Y-82230830D02*
X122187178Y-82278450D01*
X122187178Y-82278450D02*
X122091940Y-82326069D01*
X122091940Y-82326069D02*
X121806226Y-82326069D01*
X121806226Y-82326069D02*
X121710988Y-82278450D01*
X121710988Y-82278450D02*
X121663369Y-82230830D01*
X124783950Y-92943773D02*
X124831569Y-92800916D01*
X124831569Y-92800916D02*
X124831569Y-92562821D01*
X124831569Y-92562821D02*
X124783950Y-92467583D01*
X124783950Y-92467583D02*
X124736330Y-92419964D01*
X124736330Y-92419964D02*
X124641092Y-92372345D01*
X124641092Y-92372345D02*
X124545854Y-92372345D01*
X124545854Y-92372345D02*
X124450616Y-92419964D01*
X124450616Y-92419964D02*
X124402997Y-92467583D01*
X124402997Y-92467583D02*
X124355378Y-92562821D01*
X124355378Y-92562821D02*
X124307759Y-92753297D01*
X124307759Y-92753297D02*
X124260140Y-92848535D01*
X124260140Y-92848535D02*
X124212521Y-92896154D01*
X124212521Y-92896154D02*
X124117283Y-92943773D01*
X124117283Y-92943773D02*
X124022045Y-92943773D01*
X124022045Y-92943773D02*
X123926807Y-92896154D01*
X123926807Y-92896154D02*
X123879188Y-92848535D01*
X123879188Y-92848535D02*
X123831569Y-92753297D01*
X123831569Y-92753297D02*
X123831569Y-92515202D01*
X123831569Y-92515202D02*
X123879188Y-92372345D01*
X124307759Y-91943773D02*
X124307759Y-91610440D01*
X124831569Y-91467583D02*
X124831569Y-91943773D01*
X124831569Y-91943773D02*
X123831569Y-91943773D01*
X123831569Y-91943773D02*
X123831569Y-91467583D01*
X124831569Y-90467583D02*
X124355378Y-90800916D01*
X124831569Y-91039011D02*
X123831569Y-91039011D01*
X123831569Y-91039011D02*
X123831569Y-90658059D01*
X123831569Y-90658059D02*
X123879188Y-90562821D01*
X123879188Y-90562821D02*
X123926807Y-90515202D01*
X123926807Y-90515202D02*
X124022045Y-90467583D01*
X124022045Y-90467583D02*
X124164902Y-90467583D01*
X124164902Y-90467583D02*
X124260140Y-90515202D01*
X124260140Y-90515202D02*
X124307759Y-90562821D01*
X124307759Y-90562821D02*
X124355378Y-90658059D01*
X124355378Y-90658059D02*
X124355378Y-91039011D01*
X124831569Y-90039011D02*
X123831569Y-90039011D01*
X124545854Y-89610440D02*
X124545854Y-89134250D01*
X124831569Y-89705678D02*
X123831569Y-89372345D01*
X123831569Y-89372345D02*
X124831569Y-89039012D01*
X124831569Y-88229488D02*
X124831569Y-88705678D01*
X124831569Y-88705678D02*
X123831569Y-88705678D01*
X138180083Y-93787830D02*
X138132464Y-93835450D01*
X138132464Y-93835450D02*
X137989607Y-93883069D01*
X137989607Y-93883069D02*
X137894369Y-93883069D01*
X137894369Y-93883069D02*
X137751512Y-93835450D01*
X137751512Y-93835450D02*
X137656274Y-93740211D01*
X137656274Y-93740211D02*
X137608655Y-93644973D01*
X137608655Y-93644973D02*
X137561036Y-93454497D01*
X137561036Y-93454497D02*
X137561036Y-93311640D01*
X137561036Y-93311640D02*
X137608655Y-93121164D01*
X137608655Y-93121164D02*
X137656274Y-93025926D01*
X137656274Y-93025926D02*
X137751512Y-92930688D01*
X137751512Y-92930688D02*
X137894369Y-92883069D01*
X137894369Y-92883069D02*
X137989607Y-92883069D01*
X137989607Y-92883069D02*
X138132464Y-92930688D01*
X138132464Y-92930688D02*
X138180083Y-92978307D01*
X138513417Y-92883069D02*
X139132464Y-92883069D01*
X139132464Y-92883069D02*
X138799131Y-93264021D01*
X138799131Y-93264021D02*
X138941988Y-93264021D01*
X138941988Y-93264021D02*
X139037226Y-93311640D01*
X139037226Y-93311640D02*
X139084845Y-93359259D01*
X139084845Y-93359259D02*
X139132464Y-93454497D01*
X139132464Y-93454497D02*
X139132464Y-93692592D01*
X139132464Y-93692592D02*
X139084845Y-93787830D01*
X139084845Y-93787830D02*
X139037226Y-93835450D01*
X139037226Y-93835450D02*
X138941988Y-93883069D01*
X138941988Y-93883069D02*
X138656274Y-93883069D01*
X138656274Y-93883069D02*
X138561036Y-93835450D01*
X138561036Y-93835450D02*
X138513417Y-93787830D01*
X125466569Y-85244535D02*
X124466569Y-85244535D01*
X124466569Y-85244535D02*
X124466569Y-84863583D01*
X124466569Y-84863583D02*
X124514188Y-84768345D01*
X124514188Y-84768345D02*
X124561807Y-84720726D01*
X124561807Y-84720726D02*
X124657045Y-84673107D01*
X124657045Y-84673107D02*
X124799902Y-84673107D01*
X124799902Y-84673107D02*
X124895140Y-84720726D01*
X124895140Y-84720726D02*
X124942759Y-84768345D01*
X124942759Y-84768345D02*
X124990378Y-84863583D01*
X124990378Y-84863583D02*
X124990378Y-85244535D01*
X125418950Y-84292154D02*
X125466569Y-84149297D01*
X125466569Y-84149297D02*
X125466569Y-83911202D01*
X125466569Y-83911202D02*
X125418950Y-83815964D01*
X125418950Y-83815964D02*
X125371330Y-83768345D01*
X125371330Y-83768345D02*
X125276092Y-83720726D01*
X125276092Y-83720726D02*
X125180854Y-83720726D01*
X125180854Y-83720726D02*
X125085616Y-83768345D01*
X125085616Y-83768345D02*
X125037997Y-83815964D01*
X125037997Y-83815964D02*
X124990378Y-83911202D01*
X124990378Y-83911202D02*
X124942759Y-84101678D01*
X124942759Y-84101678D02*
X124895140Y-84196916D01*
X124895140Y-84196916D02*
X124847521Y-84244535D01*
X124847521Y-84244535D02*
X124752283Y-84292154D01*
X124752283Y-84292154D02*
X124657045Y-84292154D01*
X124657045Y-84292154D02*
X124561807Y-84244535D01*
X124561807Y-84244535D02*
X124514188Y-84196916D01*
X124514188Y-84196916D02*
X124466569Y-84101678D01*
X124466569Y-84101678D02*
X124466569Y-83863583D01*
X124466569Y-83863583D02*
X124514188Y-83720726D01*
X125466569Y-82768345D02*
X125466569Y-83339773D01*
X125466569Y-83054059D02*
X124466569Y-83054059D01*
X124466569Y-83054059D02*
X124609426Y-83149297D01*
X124609426Y-83149297D02*
X124704664Y-83244535D01*
X124704664Y-83244535D02*
X124752283Y-83339773D01*
D12*
X133229750Y-121250250D02*
X133229750Y-126450250D01*
X133229750Y-126450250D02*
X138129750Y-126450250D01*
X134679750Y-121250250D02*
X133229750Y-121250250D01*
X138129750Y-121250250D02*
X136679750Y-121250250D01*
X138129750Y-126450250D02*
X138129750Y-121250250D01*
X134679750Y-121250250D02*
G75*
G03*
X136679750Y-121250250I1000000J0D01*
G01*
X142046492Y-127703750D02*
X142521008Y-127703750D01*
X142046492Y-128748750D02*
X142521008Y-128748750D01*
X177900599Y-109436250D02*
X177900599Y-106136250D01*
X177900599Y-109436250D02*
X172390599Y-109436250D01*
X177900599Y-106136250D02*
X172390599Y-106136250D01*
X170880599Y-110200250D02*
X170880599Y-113500250D01*
X170880599Y-110200250D02*
X176390599Y-110200250D01*
X170880599Y-113500250D02*
X176390599Y-113500250D01*
X171450000Y-88122250D02*
X179070000Y-88122250D01*
X179070000Y-88122250D02*
X179070000Y-77962250D01*
X171450000Y-77962250D02*
X171450000Y-88122250D01*
X177800000Y-77962250D02*
X177800000Y-88122250D01*
X179070000Y-77962250D02*
X171450000Y-77962250D01*
X130997492Y-127703750D02*
X131472008Y-127703750D01*
X130997492Y-128748750D02*
X131472008Y-128748750D01*
X165421750Y-92920250D02*
X166111750Y-92920250D01*
X166111750Y-91200250D02*
X166111750Y-94640250D01*
X166111750Y-94640250D02*
X175351750Y-94640250D01*
X175351750Y-91200250D02*
X166111750Y-91200250D01*
X175351750Y-94640250D02*
X175351750Y-91200250D01*
X176041750Y-92920250D02*
X175351750Y-92920250D01*
X129035750Y-129163750D02*
X129035750Y-127488750D01*
X129035750Y-129163750D02*
X129035750Y-129813750D01*
X125915750Y-129163750D02*
X125915750Y-128513750D01*
X125915750Y-129163750D02*
X125915750Y-129813750D01*
X149443750Y-99616250D02*
X149443750Y-106116250D01*
X149443750Y-99616250D02*
X168643750Y-99616250D01*
X149443750Y-108516250D02*
X149443750Y-115016250D01*
X153543750Y-107316250D02*
X152643750Y-107316250D01*
X153543750Y-107316250D02*
X153543750Y-111016250D01*
X154443750Y-105816250D02*
X159443750Y-105816250D01*
X154443750Y-108816250D02*
X154443750Y-105816250D01*
X154643750Y-113316250D02*
X156943750Y-113316250D01*
X156943750Y-101316250D02*
X154643750Y-101316250D01*
X156943750Y-101316250D02*
X156943750Y-105816250D01*
X156943750Y-108816250D02*
X156943750Y-113316250D01*
X159443750Y-105816250D02*
X159443750Y-108816250D01*
X159443750Y-108816250D02*
X154443750Y-105816250D01*
X159443750Y-108816250D02*
X154443750Y-108816250D01*
X160443750Y-107316250D02*
X160443750Y-111016250D01*
X160443750Y-107316250D02*
X161943750Y-107316250D01*
X160443750Y-111016250D02*
X153543750Y-111016250D01*
X161943750Y-107316250D02*
X166443750Y-104616250D01*
X165143750Y-103016250D02*
X165143750Y-105316250D01*
X165143750Y-111616250D02*
X165143750Y-109316250D01*
X168643750Y-99616250D02*
X168643750Y-115016250D01*
X168643750Y-115016250D02*
X149443750Y-115016250D01*
X143509750Y-120588998D02*
X143509750Y-122011502D01*
X141689750Y-120588998D02*
X141689750Y-122011502D01*
X146767750Y-120776250D02*
X148467750Y-120776250D01*
X146767750Y-120776250D02*
X146767750Y-118116250D01*
X148467750Y-120776250D02*
X148467750Y-118116250D01*
X171450000Y-126492000D02*
X179070000Y-126492000D01*
X179070000Y-126492000D02*
X179070000Y-116332000D01*
X171450000Y-116332000D02*
X171450000Y-126492000D01*
X177800000Y-116332000D02*
X177800000Y-126492000D01*
X179070000Y-116332000D02*
X171450000Y-116332000D01*
X140099750Y-129163750D02*
X140099750Y-127488750D01*
X140099750Y-129163750D02*
X140099750Y-129813750D01*
X136979750Y-129163750D02*
X136979750Y-128513750D01*
X136979750Y-129163750D02*
X136979750Y-129813750D01*
X123067750Y-77780250D02*
X123067750Y-76310250D01*
X123067750Y-76310250D02*
X120782750Y-76310250D01*
X120782750Y-77780250D02*
X123067750Y-77780250D01*
X121365492Y-79062750D02*
X121840008Y-79062750D01*
X121365492Y-80107750D02*
X121840008Y-80107750D01*
X139785750Y-91440250D02*
X145795750Y-91440250D01*
X142035750Y-98260250D02*
X145795750Y-98260250D01*
X145795750Y-91440250D02*
X145795750Y-92700250D01*
X145795750Y-98260250D02*
X145795750Y-97000250D01*
X178725448Y-102220250D02*
X177925448Y-102220250D01*
X178325448Y-102620250D02*
X178325448Y-101820250D01*
X174315750Y-103985250D02*
X174315750Y-95825250D01*
X174275750Y-103985250D02*
X174275750Y-95825250D01*
X174235750Y-103985250D02*
X174235750Y-95825250D01*
X174195750Y-103984250D02*
X174195750Y-95826250D01*
X174155750Y-103982250D02*
X174155750Y-95828250D01*
X174115750Y-103981250D02*
X174115750Y-95829250D01*
X174075750Y-103979250D02*
X174075750Y-95831250D01*
X174035750Y-103976250D02*
X174035750Y-95834250D01*
X173995750Y-103973250D02*
X173995750Y-95837250D01*
X173955750Y-103970250D02*
X173955750Y-95840250D01*
X173915750Y-103966250D02*
X173915750Y-95844250D01*
X173875750Y-103962250D02*
X173875750Y-95848250D01*
X173835750Y-103957250D02*
X173835750Y-95853250D01*
X173795750Y-103953250D02*
X173795750Y-95857250D01*
X173755750Y-103947250D02*
X173755750Y-95863250D01*
X173715750Y-103942250D02*
X173715750Y-95868250D01*
X173675750Y-103935250D02*
X173675750Y-95875250D01*
X173635750Y-103929250D02*
X173635750Y-95881250D01*
X173594750Y-103922250D02*
X173594750Y-100945250D01*
X173594750Y-98865250D02*
X173594750Y-95888250D01*
X173554750Y-103915250D02*
X173554750Y-100945250D01*
X173554750Y-98865250D02*
X173554750Y-95895250D01*
X173514750Y-103907250D02*
X173514750Y-100945250D01*
X173514750Y-98865250D02*
X173514750Y-95903250D01*
X173474750Y-103899250D02*
X173474750Y-100945250D01*
X173474750Y-98865250D02*
X173474750Y-95911250D01*
X173434750Y-103890250D02*
X173434750Y-100945250D01*
X173434750Y-98865250D02*
X173434750Y-95920250D01*
X173394750Y-103881250D02*
X173394750Y-100945250D01*
X173394750Y-98865250D02*
X173394750Y-95929250D01*
X173354750Y-103872250D02*
X173354750Y-100945250D01*
X173354750Y-98865250D02*
X173354750Y-95938250D01*
X173314750Y-103862250D02*
X173314750Y-100945250D01*
X173314750Y-98865250D02*
X173314750Y-95948250D01*
X173274750Y-103852250D02*
X173274750Y-100945250D01*
X173274750Y-98865250D02*
X173274750Y-95958250D01*
X173234750Y-103841250D02*
X173234750Y-100945250D01*
X173234750Y-98865250D02*
X173234750Y-95969250D01*
X173194750Y-103830250D02*
X173194750Y-100945250D01*
X173194750Y-98865250D02*
X173194750Y-95980250D01*
X173154750Y-103819250D02*
X173154750Y-100945250D01*
X173154750Y-98865250D02*
X173154750Y-95991250D01*
X173114750Y-103807250D02*
X173114750Y-100945250D01*
X173114750Y-98865250D02*
X173114750Y-96003250D01*
X173074750Y-103794250D02*
X173074750Y-100945250D01*
X173074750Y-98865250D02*
X173074750Y-96016250D01*
X173034750Y-103782250D02*
X173034750Y-100945250D01*
X173034750Y-98865250D02*
X173034750Y-96028250D01*
X172994750Y-103768250D02*
X172994750Y-100945250D01*
X172994750Y-98865250D02*
X172994750Y-96042250D01*
X172954750Y-103755250D02*
X172954750Y-100945250D01*
X172954750Y-98865250D02*
X172954750Y-96055250D01*
X172914750Y-103740250D02*
X172914750Y-100945250D01*
X172914750Y-98865250D02*
X172914750Y-96070250D01*
X172874750Y-103726250D02*
X172874750Y-100945250D01*
X172874750Y-98865250D02*
X172874750Y-96084250D01*
X172834750Y-103710250D02*
X172834750Y-100945250D01*
X172834750Y-98865250D02*
X172834750Y-96100250D01*
X172794750Y-103695250D02*
X172794750Y-100945250D01*
X172794750Y-98865250D02*
X172794750Y-96115250D01*
X172754750Y-103679250D02*
X172754750Y-100945250D01*
X172754750Y-98865250D02*
X172754750Y-96131250D01*
X172714750Y-103662250D02*
X172714750Y-100945250D01*
X172714750Y-98865250D02*
X172714750Y-96148250D01*
X172674750Y-103645250D02*
X172674750Y-100945250D01*
X172674750Y-98865250D02*
X172674750Y-96165250D01*
X172634750Y-103627250D02*
X172634750Y-100945250D01*
X172634750Y-98865250D02*
X172634750Y-96183250D01*
X172594750Y-103609250D02*
X172594750Y-100945250D01*
X172594750Y-98865250D02*
X172594750Y-96201250D01*
X172554750Y-103591250D02*
X172554750Y-100945250D01*
X172554750Y-98865250D02*
X172554750Y-96219250D01*
X172514750Y-103571250D02*
X172514750Y-100945250D01*
X172514750Y-98865250D02*
X172514750Y-96239250D01*
X172474750Y-103552250D02*
X172474750Y-100945250D01*
X172474750Y-98865250D02*
X172474750Y-96258250D01*
X172434750Y-103532250D02*
X172434750Y-100945250D01*
X172434750Y-98865250D02*
X172434750Y-96278250D01*
X172394750Y-103511250D02*
X172394750Y-100945250D01*
X172394750Y-98865250D02*
X172394750Y-96299250D01*
X172354750Y-103489250D02*
X172354750Y-100945250D01*
X172354750Y-98865250D02*
X172354750Y-96321250D01*
X172314750Y-103467250D02*
X172314750Y-100945250D01*
X172314750Y-98865250D02*
X172314750Y-96343250D01*
X172274750Y-103445250D02*
X172274750Y-100945250D01*
X172274750Y-98865250D02*
X172274750Y-96365250D01*
X172234750Y-103422250D02*
X172234750Y-100945250D01*
X172234750Y-98865250D02*
X172234750Y-96388250D01*
X172194750Y-103398250D02*
X172194750Y-100945250D01*
X172194750Y-98865250D02*
X172194750Y-96412250D01*
X172154750Y-103374250D02*
X172154750Y-100945250D01*
X172154750Y-98865250D02*
X172154750Y-96436250D01*
X172114750Y-103349250D02*
X172114750Y-100945250D01*
X172114750Y-98865250D02*
X172114750Y-96461250D01*
X172074750Y-103323250D02*
X172074750Y-100945250D01*
X172074750Y-98865250D02*
X172074750Y-96487250D01*
X172034750Y-103297250D02*
X172034750Y-100945250D01*
X172034750Y-98865250D02*
X172034750Y-96513250D01*
X171994750Y-103270250D02*
X171994750Y-100945250D01*
X171994750Y-98865250D02*
X171994750Y-96540250D01*
X171954750Y-103243250D02*
X171954750Y-100945250D01*
X171954750Y-98865250D02*
X171954750Y-96567250D01*
X171914750Y-103214250D02*
X171914750Y-100945250D01*
X171914750Y-98865250D02*
X171914750Y-96596250D01*
X171874750Y-103185250D02*
X171874750Y-100945250D01*
X171874750Y-98865250D02*
X171874750Y-96625250D01*
X171834750Y-103155250D02*
X171834750Y-100945250D01*
X171834750Y-98865250D02*
X171834750Y-96655250D01*
X171794750Y-103125250D02*
X171794750Y-100945250D01*
X171794750Y-98865250D02*
X171794750Y-96685250D01*
X171754750Y-103094250D02*
X171754750Y-100945250D01*
X171754750Y-98865250D02*
X171754750Y-96716250D01*
X171714750Y-103061250D02*
X171714750Y-100945250D01*
X171714750Y-98865250D02*
X171714750Y-96749250D01*
X171674750Y-103029250D02*
X171674750Y-100945250D01*
X171674750Y-98865250D02*
X171674750Y-96781250D01*
X171634750Y-102995250D02*
X171634750Y-100945250D01*
X171634750Y-98865250D02*
X171634750Y-96815250D01*
X171594750Y-102960250D02*
X171594750Y-100945250D01*
X171594750Y-98865250D02*
X171594750Y-96850250D01*
X171554750Y-102924250D02*
X171554750Y-100945250D01*
X171554750Y-98865250D02*
X171554750Y-96886250D01*
X171514750Y-102888250D02*
X171514750Y-96922250D01*
X171474750Y-102850250D02*
X171474750Y-96960250D01*
X171434750Y-102812250D02*
X171434750Y-96998250D01*
X171394750Y-102772250D02*
X171394750Y-97038250D01*
X171354750Y-102731250D02*
X171354750Y-97079250D01*
X171314750Y-102689250D02*
X171314750Y-97121250D01*
X171274750Y-102646250D02*
X171274750Y-97164250D01*
X171234750Y-102602250D02*
X171234750Y-97208250D01*
X171194750Y-102556250D02*
X171194750Y-97254250D01*
X171154750Y-102509250D02*
X171154750Y-97301250D01*
X171114750Y-102461250D02*
X171114750Y-97349250D01*
X171074750Y-102410250D02*
X171074750Y-97400250D01*
X171034750Y-102359250D02*
X171034750Y-97451250D01*
X170994750Y-102305250D02*
X170994750Y-97505250D01*
X170954750Y-102250250D02*
X170954750Y-97560250D01*
X170914750Y-102192250D02*
X170914750Y-97618250D01*
X170874750Y-102133250D02*
X170874750Y-97677250D01*
X170834750Y-102071250D02*
X170834750Y-97739250D01*
X170794750Y-102007250D02*
X170794750Y-97803250D01*
X170754750Y-101939250D02*
X170754750Y-97871250D01*
X170714750Y-101869250D02*
X170714750Y-97941250D01*
X170674750Y-101795250D02*
X170674750Y-98015250D01*
X170634750Y-101718250D02*
X170634750Y-98092250D01*
X170594750Y-101636250D02*
X170594750Y-98174250D01*
X170554750Y-101550250D02*
X170554750Y-98260250D01*
X170514750Y-101457250D02*
X170514750Y-98353250D01*
X170474750Y-101358250D02*
X170474750Y-98452250D01*
X170434750Y-101251250D02*
X170434750Y-98559250D01*
X170394750Y-101134250D02*
X170394750Y-98676250D01*
X170354750Y-101003250D02*
X170354750Y-98807250D01*
X170314750Y-100853250D02*
X170314750Y-98957250D01*
X170274750Y-100673250D02*
X170274750Y-99137250D01*
X170234750Y-100438250D02*
X170234750Y-99372250D01*
X178435750Y-99905250D02*
G75*
G03*
X178435750Y-99905250I-4120000J0D01*
G01*
X135323250Y-96197750D02*
X134535750Y-96197750D01*
X134929500Y-96591500D02*
X134929500Y-95804000D01*
X134295750Y-96695813D02*
X134295750Y-95410250D01*
X134295750Y-96695813D02*
X133231313Y-97760250D01*
X134295750Y-92004687D02*
X134295750Y-93290250D01*
X134295750Y-92004687D02*
X133231313Y-90940250D01*
X133231313Y-97760250D02*
X127475750Y-97760250D01*
X133231313Y-90940250D02*
X127475750Y-90940250D01*
X127475750Y-97760250D02*
X127475750Y-95410250D01*
X127475750Y-90940250D02*
X127475750Y-93290250D01*
D13*
X143458750Y-117366250D02*
X144220750Y-117366250D01*
X144220750Y-117366250D02*
X144220750Y-101364250D01*
X144220750Y-101364250D02*
X143458750Y-101364250D01*
D12*
X149443750Y-116366250D02*
X149443750Y-122866250D01*
X149443750Y-116366250D02*
X168643750Y-116366250D01*
X149443750Y-125266250D02*
X149443750Y-131766250D01*
X153543750Y-124066250D02*
X152643750Y-124066250D01*
X153543750Y-124066250D02*
X153543750Y-127766250D01*
X154443750Y-122566250D02*
X159443750Y-122566250D01*
X154443750Y-125566250D02*
X154443750Y-122566250D01*
X154643750Y-130066250D02*
X156943750Y-130066250D01*
X156943750Y-118066250D02*
X154643750Y-118066250D01*
X156943750Y-118066250D02*
X156943750Y-122566250D01*
X156943750Y-125566250D02*
X156943750Y-130066250D01*
X159443750Y-122566250D02*
X159443750Y-125566250D01*
X159443750Y-125566250D02*
X154443750Y-122566250D01*
X159443750Y-125566250D02*
X154443750Y-125566250D01*
X160443750Y-124066250D02*
X160443750Y-127766250D01*
X160443750Y-124066250D02*
X161943750Y-124066250D01*
X160443750Y-127766250D02*
X153543750Y-127766250D01*
X161943750Y-124066250D02*
X166443750Y-121366250D01*
X165143750Y-119766250D02*
X165143750Y-122066250D01*
X165143750Y-128366250D02*
X165143750Y-126066250D01*
X168643750Y-116366250D02*
X168643750Y-131766250D01*
X168643750Y-131766250D02*
X149443750Y-131766250D01*
X146767750Y-104026250D02*
X148467750Y-104026250D01*
X146767750Y-104026250D02*
X146767750Y-101366250D01*
X148467750Y-104026250D02*
X148467750Y-101366250D01*
X137908830Y-95360250D02*
X137627670Y-95360250D01*
X137908830Y-94340250D02*
X137627670Y-94340250D01*
X161742000Y-88162250D02*
X169982000Y-88162250D01*
X161742000Y-88162250D02*
X161742000Y-69922250D01*
X169982000Y-88162250D02*
X169982000Y-69922250D01*
X161742000Y-69922250D02*
X169982000Y-69922250D01*
X158957750Y-98060250D02*
X158957750Y-92860250D01*
X158957750Y-92860250D02*
X154057750Y-92860250D01*
X157507750Y-98060250D02*
X158957750Y-98060250D01*
X154057750Y-98060250D02*
X155507750Y-98060250D01*
X154057750Y-92860250D02*
X154057750Y-98060250D01*
X157507750Y-98060250D02*
G75*
G03*
X155507750Y-98060250I-1000000J0D01*
G01*
X122165750Y-121250250D02*
X122165750Y-126450250D01*
X122165750Y-126450250D02*
X127065750Y-126450250D01*
X123615750Y-121250250D02*
X122165750Y-121250250D01*
X127065750Y-121250250D02*
X125615750Y-121250250D01*
X127065750Y-126450250D02*
X127065750Y-121250250D01*
X123615750Y-121250250D02*
G75*
G03*
X125615750Y-121250250I1000000J0D01*
G01*
X172031750Y-74795029D02*
X172031750Y-74469471D01*
X173051750Y-74795029D02*
X173051750Y-74469471D01*
X120285750Y-83020250D02*
X121615750Y-83020250D01*
X120285750Y-84350250D02*
X120285750Y-83020250D01*
X120285750Y-85620250D02*
X120285750Y-98380250D01*
X120285750Y-85620250D02*
X122945750Y-85620250D01*
X120285750Y-98380250D02*
X122945750Y-98380250D01*
X122945750Y-85620250D02*
X122945750Y-98380250D01*
X137908830Y-97660250D02*
X137627670Y-97660250D01*
X137908830Y-96640250D02*
X137627670Y-96640250D01*
X160652250Y-83542250D02*
X160652250Y-81532250D01*
X160262250Y-90142250D02*
X160262250Y-69942250D01*
X160262250Y-69942250D02*
X126062250Y-69942250D01*
X126062250Y-90142250D02*
X160262250Y-90142250D01*
X126062250Y-69942250D02*
X126062250Y-90142250D01*
%LPC*%
D14*
X131869750Y-122580250D03*
X131869750Y-125120250D03*
X139489750Y-125120250D03*
X139489750Y-122580250D03*
D15*
X141458750Y-128226250D03*
X143108750Y-128226250D03*
D16*
X177115750Y-71850250D03*
D17*
X176390599Y-107786250D03*
X172390599Y-107786250D03*
D18*
X172390599Y-111850250D03*
X176390599Y-111850250D03*
D19*
X175260000Y-85582250D03*
D20*
X175260000Y-80502250D03*
D16*
X122115750Y-129850250D03*
D15*
X130409750Y-128226250D03*
X132059750Y-128226250D03*
D21*
X164381750Y-92920250D03*
D22*
X177081750Y-92920250D03*
D23*
X128425750Y-128226250D03*
X126525750Y-128226250D03*
X127475750Y-130101250D03*
D20*
X150943750Y-107316250D03*
X165143750Y-101316250D03*
X165143750Y-113316250D03*
X152943750Y-113316250D03*
X152943750Y-101316250D03*
D24*
X142599750Y-119825250D03*
X142599750Y-122775250D03*
D25*
X147617750Y-120266250D03*
X147617750Y-118066250D03*
D19*
X175260000Y-123952000D03*
D20*
X175260000Y-118872000D03*
D23*
X139489750Y-128226250D03*
X137589750Y-128226250D03*
X138539750Y-130101250D03*
D26*
X122370250Y-77045250D03*
X120795250Y-77045250D03*
D15*
X120777750Y-79585250D03*
X122427750Y-79585250D03*
D27*
X140735750Y-92550250D03*
X140735750Y-94850250D03*
D28*
X147035750Y-94850250D03*
D27*
X140735750Y-97150250D03*
D29*
X176065750Y-99905250D03*
D21*
X172565750Y-99905250D03*
D30*
X133585750Y-94350250D03*
X128185750Y-94350250D03*
D31*
X128599750Y-117050250D03*
X130599750Y-117050250D03*
X132599750Y-117050250D03*
X134599750Y-117050250D03*
X136599750Y-117050250D03*
X138599750Y-117050250D03*
X140599750Y-117050250D03*
X142599750Y-117050250D03*
X142599750Y-101650250D03*
X140599750Y-101650250D03*
X138599750Y-101650250D03*
X136599750Y-101650250D03*
X134599750Y-101650250D03*
X132599750Y-101650250D03*
X130599750Y-101650250D03*
X128599750Y-101650250D03*
D32*
X144299750Y-114360250D03*
X144299750Y-112360250D03*
X144299750Y-110360250D03*
X144299750Y-108360250D03*
X144299750Y-106360250D03*
X144299750Y-104360250D03*
D20*
X150943750Y-124066250D03*
X165143750Y-118066250D03*
X165143750Y-130066250D03*
X152943750Y-130066250D03*
X152943750Y-118066250D03*
D25*
X147617750Y-103516250D03*
X147617750Y-101316250D03*
D16*
X122115750Y-71850250D03*
X177115750Y-129850250D03*
D33*
X138543250Y-94850250D03*
X136993250Y-94850250D03*
D34*
X165862000Y-86542250D03*
X165862000Y-71542250D03*
D14*
X160317750Y-96730250D03*
X160317750Y-94190250D03*
X152697750Y-94190250D03*
X152697750Y-96730250D03*
X120805750Y-122580250D03*
X120805750Y-125120250D03*
X128425750Y-125120250D03*
X128425750Y-122580250D03*
D35*
X172541750Y-75419750D03*
X172541750Y-73844750D03*
D36*
X121615750Y-84350250D03*
D37*
X121615750Y-86890250D03*
X121615750Y-89430250D03*
X121615750Y-91970250D03*
X121615750Y-94510250D03*
X121615750Y-97050250D03*
D33*
X138543250Y-97150250D03*
X136993250Y-97150250D03*
D38*
X157862250Y-82542250D03*
D39*
X157862250Y-77542250D03*
X128462250Y-87742250D03*
X128462250Y-72342250D03*
%LPD*%
M02*
