G04 #@! TF.GenerationSoftware,KiCad,Pcbnew,7.0.8*
G04 #@! TF.CreationDate,2024-02-21T14:09:27-03:00*
G04 #@! TF.ProjectId,lamp_module,6c616d70-5f6d-46f6-9475-6c652e6b6963,1.0*
G04 #@! TF.SameCoordinates,Original*
G04 #@! TF.FileFunction,Soldermask,Top*
G04 #@! TF.FilePolarity,Negative*
%FSLAX46Y46*%
G04 Gerber Fmt 4.6, Leading zero omitted, Abs format (unit mm)*
G04 Created by KiCad (PCBNEW 7.0.8) date 2024-02-21 14:09:27*
%MOMM*%
%LPD*%
G01*
G04 APERTURE LIST*
G04 Aperture macros list*
%AMRoundRect*
0 Rectangle with rounded corners*
0 $1 Rounding radius*
0 $2 $3 $4 $5 $6 $7 $8 $9 X,Y pos of 4 corners*
0 Add a 4 corners polygon primitive as box body*
4,1,4,$2,$3,$4,$5,$6,$7,$8,$9,$2,$3,0*
0 Add four circle primitives for the rounded corners*
1,1,$1+$1,$2,$3*
1,1,$1+$1,$4,$5*
1,1,$1+$1,$6,$7*
1,1,$1+$1,$8,$9*
0 Add four rect primitives between the rounded corners*
20,1,$1+$1,$2,$3,$4,$5,0*
20,1,$1+$1,$4,$5,$6,$7,0*
20,1,$1+$1,$6,$7,$8,$9,0*
20,1,$1+$1,$8,$9,$2,$3,0*%
G04 Aperture macros list end*
%ADD10R,2.000000X1.780000*%
%ADD11RoundRect,0.200000X-0.200000X-0.275000X0.200000X-0.275000X0.200000X0.275000X-0.200000X0.275000X0*%
%ADD12C,2.500000*%
%ADD13RoundRect,0.250000X1.000000X0.650000X-1.000000X0.650000X-1.000000X-0.650000X1.000000X-0.650000X0*%
%ADD14RoundRect,0.250000X-1.000000X-0.650000X1.000000X-0.650000X1.000000X0.650000X-1.000000X0.650000X0*%
%ADD15R,3.000000X3.000000*%
%ADD16C,3.000000*%
%ADD17C,1.600000*%
%ADD18O,1.600000X1.600000*%
%ADD19RoundRect,0.150000X-0.150000X0.587500X-0.150000X-0.587500X0.150000X-0.587500X0.150000X0.587500X0*%
%ADD20RoundRect,0.250000X-0.650000X0.325000X-0.650000X-0.325000X0.650000X-0.325000X0.650000X0.325000X0*%
%ADD21RoundRect,0.125000X0.125000X-0.125000X0.125000X0.125000X-0.125000X0.125000X-0.125000X-0.125000X0*%
%ADD22RoundRect,0.218750X0.218750X0.256250X-0.218750X0.256250X-0.218750X-0.256250X0.218750X-0.256250X0*%
%ADD23R,2.000000X1.500000*%
%ADD24R,2.000000X3.800000*%
%ADD25R,1.600000X1.600000*%
%ADD26RoundRect,0.250000X1.500000X0.550000X-1.500000X0.550000X-1.500000X-0.550000X1.500000X-0.550000X0*%
%ADD27R,1.100000X2.500000*%
%ADD28R,2.500000X1.100000*%
%ADD29RoundRect,0.225000X0.225000X0.250000X-0.225000X0.250000X-0.225000X-0.250000X0.225000X-0.250000X0*%
%ADD30C,2.400000*%
%ADD31RoundRect,0.218750X0.256250X-0.218750X0.256250X0.218750X-0.256250X0.218750X-0.256250X-0.218750X0*%
%ADD32R,1.700000X1.700000*%
%ADD33O,1.700000X1.700000*%
%ADD34R,2.300000X2.000000*%
%ADD35C,2.300000*%
G04 APERTURE END LIST*
D10*
X131869750Y-122580250D03*
X131869750Y-125120250D03*
X139489750Y-125120250D03*
X139489750Y-122580250D03*
D11*
X141458750Y-128226250D03*
X143108750Y-128226250D03*
D12*
X177115750Y-71850250D03*
D13*
X176390599Y-107786250D03*
X172390599Y-107786250D03*
D14*
X172390599Y-111850250D03*
X176390599Y-111850250D03*
D15*
X175260000Y-85582250D03*
D16*
X175260000Y-80502250D03*
D12*
X122115750Y-129850250D03*
D11*
X130409750Y-128226250D03*
X132059750Y-128226250D03*
D17*
X164381750Y-92920250D03*
D18*
X177081750Y-92920250D03*
D19*
X128425750Y-128226250D03*
X126525750Y-128226250D03*
X127475750Y-130101250D03*
D16*
X150943750Y-107316250D03*
X165143750Y-101316250D03*
X165143750Y-113316250D03*
X152943750Y-113316250D03*
X152943750Y-101316250D03*
D20*
X142599750Y-119825250D03*
X142599750Y-122775250D03*
D21*
X147617750Y-120266250D03*
X147617750Y-118066250D03*
D15*
X175260000Y-123952000D03*
D16*
X175260000Y-118872000D03*
D19*
X139489750Y-128226250D03*
X137589750Y-128226250D03*
X138539750Y-130101250D03*
D22*
X122370250Y-77045250D03*
X120795250Y-77045250D03*
D11*
X120777750Y-79585250D03*
X122427750Y-79585250D03*
D23*
X140735750Y-92550250D03*
X140735750Y-94850250D03*
D24*
X147035750Y-94850250D03*
D23*
X140735750Y-97150250D03*
D25*
X176065750Y-99905250D03*
D17*
X172565750Y-99905250D03*
D26*
X133585750Y-94350250D03*
X128185750Y-94350250D03*
D27*
X128599750Y-117050250D03*
X130599750Y-117050250D03*
X132599750Y-117050250D03*
X134599750Y-117050250D03*
X136599750Y-117050250D03*
X138599750Y-117050250D03*
X140599750Y-117050250D03*
X142599750Y-117050250D03*
X142599750Y-101650250D03*
X140599750Y-101650250D03*
X138599750Y-101650250D03*
X136599750Y-101650250D03*
X134599750Y-101650250D03*
X132599750Y-101650250D03*
X130599750Y-101650250D03*
X128599750Y-101650250D03*
D28*
X144299750Y-114360250D03*
X144299750Y-112360250D03*
X144299750Y-110360250D03*
X144299750Y-108360250D03*
X144299750Y-106360250D03*
X144299750Y-104360250D03*
D16*
X150943750Y-124066250D03*
X165143750Y-118066250D03*
X165143750Y-130066250D03*
X152943750Y-130066250D03*
X152943750Y-118066250D03*
D21*
X147617750Y-103516250D03*
X147617750Y-101316250D03*
D12*
X122115750Y-71850250D03*
X177115750Y-129850250D03*
D29*
X138543250Y-94850250D03*
X136993250Y-94850250D03*
D30*
X165862000Y-86542250D03*
X165862000Y-71542250D03*
D10*
X160317750Y-96730250D03*
X160317750Y-94190250D03*
X152697750Y-94190250D03*
X152697750Y-96730250D03*
X120805750Y-122580250D03*
X120805750Y-125120250D03*
X128425750Y-125120250D03*
X128425750Y-122580250D03*
D31*
X172541750Y-75419750D03*
X172541750Y-73844750D03*
D32*
X121615750Y-84350250D03*
D33*
X121615750Y-86890250D03*
X121615750Y-89430250D03*
X121615750Y-91970250D03*
X121615750Y-94510250D03*
X121615750Y-97050250D03*
D29*
X138543250Y-97150250D03*
X136993250Y-97150250D03*
D34*
X157862250Y-82542250D03*
D35*
X157862250Y-77542250D03*
X128462250Y-87742250D03*
X128462250Y-72342250D03*
M02*
