%TF.GenerationSoftware,KiCad,Pcbnew,7.0.8*%
%TF.CreationDate,2024-02-21T14:11:08-03:00*%
%TF.ProjectId,lamp_module,6c616d70-5f6d-46f6-9475-6c652e6b6963,1.0*%
%TF.SameCoordinates,Original*%
%TF.FileFunction,Drillmap*%
%TF.FilePolarity,Positive*%
%FSLAX45Y45*%
G04 Gerber Fmt 4.5, Leading zero omitted, Abs format (unit mm)*
G04 Created by KiCad (PCBNEW 7.0.8) date 2024-02-21 14:11:08*
%MOMM*%
%LPD*%
G01*
G04 APERTURE LIST*
%ADD10C,0.200000*%
%ADD11C,0.040000*%
%ADD12C,0.080000*%
%ADD13C,0.100000*%
%ADD14C,0.120000*%
%ADD15C,0.130000*%
%ADD16C,0.152000*%
G04 APERTURE END LIST*
D10*
X18011575Y-7208025D02*
X18011575Y-12985025D01*
X12211575Y-6885025D02*
G75*
G03*
X11912453Y-7207958I0J-300000D01*
G01*
X12211575Y-6885025D02*
X17728975Y-6885025D01*
X17728946Y-13284531D02*
G75*
G03*
X18011575Y-12985025I-17376J299501D01*
G01*
X18011576Y-7208025D02*
G75*
G03*
X17728997Y-6884650I-300006J22995D01*
G01*
X11911575Y-7208025D02*
X11911575Y-12985025D01*
X17728946Y-13284522D02*
X12211575Y-13285025D01*
X11911575Y-12985025D02*
G75*
G03*
X12211575Y-13285025I299995J-5D01*
G01*
D11*
X12252575Y-12492025D02*
X12292575Y-12532025D01*
X12292575Y-12492025D02*
X12252575Y-12532025D01*
X12341475Y-7684525D02*
X12381475Y-7724525D01*
X12381475Y-7684525D02*
X12341475Y-7724525D01*
X12506575Y-12802625D02*
X12546575Y-12842625D01*
X12546575Y-12802625D02*
X12506575Y-12842625D01*
X12633575Y-12238025D02*
X12673575Y-12278025D01*
X12673575Y-12238025D02*
X12633575Y-12278025D01*
X12798575Y-9576825D02*
X12838575Y-9616825D01*
X12838575Y-9576825D02*
X12798575Y-9616825D01*
X12839975Y-11494525D02*
X12879975Y-11534525D01*
X12879975Y-11494525D02*
X12839975Y-11534525D01*
X13239975Y-11494525D02*
X13279975Y-11534525D01*
X13279975Y-11494525D02*
X13239975Y-11534525D01*
X13306675Y-12802625D02*
X13346675Y-12842625D01*
X13346675Y-12802625D02*
X13306675Y-12842625D01*
X13370175Y-12492025D02*
X13410175Y-12532025D01*
X13410175Y-12492025D02*
X13370175Y-12532025D01*
X13439975Y-9932425D02*
X13479975Y-9972425D01*
X13479975Y-9932425D02*
X13439975Y-9972425D01*
X13598775Y-12802625D02*
X13638775Y-12842625D01*
X13638775Y-12802625D02*
X13598775Y-12842625D01*
X13639975Y-10338825D02*
X13679975Y-10378825D01*
X13679975Y-10338825D02*
X13639975Y-10378825D01*
X13639975Y-11494525D02*
X13679975Y-11534525D01*
X13679975Y-11494525D02*
X13639975Y-11534525D01*
X13679325Y-9335525D02*
X13719325Y-9375525D01*
X13719325Y-9335525D02*
X13679325Y-9375525D01*
X13679325Y-9818125D02*
X13719325Y-9858125D01*
X13719325Y-9818125D02*
X13679325Y-9858125D01*
X13725775Y-12238025D02*
X13765775Y-12278025D01*
X13765775Y-12238025D02*
X13725775Y-12278025D01*
X13839975Y-11494525D02*
X13879975Y-11534525D01*
X13879975Y-11494525D02*
X13839975Y-11534525D01*
X13840075Y-11964425D02*
X13880075Y-12004425D01*
X13880075Y-11964425D02*
X13840075Y-12004425D01*
X13890875Y-9195825D02*
X13930875Y-9235825D01*
X13930875Y-9195825D02*
X13890875Y-9235825D01*
X14039975Y-10338825D02*
X14079975Y-10378825D01*
X14079975Y-10338825D02*
X14039975Y-10378825D01*
X14039975Y-11494525D02*
X14079975Y-11534525D01*
X14079975Y-11494525D02*
X14039975Y-11534525D01*
X14039975Y-11964425D02*
X14079975Y-12004425D01*
X14079975Y-11964425D02*
X14039975Y-12004425D01*
X14081140Y-12055504D02*
X14121140Y-12095504D01*
X14121140Y-12055504D02*
X14081140Y-12095504D01*
X14239975Y-12396225D02*
X14279975Y-12436225D01*
X14279975Y-12396225D02*
X14239975Y-12436225D01*
X14290875Y-12675625D02*
X14330875Y-12715625D01*
X14330875Y-12675625D02*
X14290875Y-12715625D01*
X14386175Y-10237225D02*
X14426175Y-10277225D01*
X14426175Y-10237225D02*
X14386175Y-10277225D01*
X14652875Y-12116825D02*
X14692875Y-12156825D01*
X14692875Y-12116825D02*
X14652875Y-12156825D01*
X14767175Y-9919725D02*
X14807175Y-9959725D01*
X14807175Y-9919725D02*
X14767175Y-9959725D01*
X15046575Y-9399025D02*
X15086575Y-9439025D01*
X15086575Y-9399025D02*
X15046575Y-9439025D01*
X15046575Y-9653025D02*
X15086575Y-9693025D01*
X15086575Y-9653025D02*
X15046575Y-9693025D01*
D12*
X16478175Y-9292025D02*
G75*
G03*
X16478175Y-9292025I-40000J0D01*
G01*
X17296575Y-9990525D02*
G75*
G03*
X17296575Y-9990525I-40000J0D01*
G01*
X17646575Y-9990525D02*
G75*
G03*
X17646575Y-9990525I-40000J0D01*
G01*
X17748175Y-9292025D02*
G75*
G03*
X17748175Y-9292025I-40000J0D01*
G01*
D13*
X12161575Y-8385025D02*
X12161575Y-8485025D01*
X12111575Y-8435025D02*
X12211575Y-8435025D01*
X12161575Y-8639025D02*
X12161575Y-8739025D01*
X12111575Y-8689025D02*
X12211575Y-8689025D01*
X12161575Y-8893025D02*
X12161575Y-8993025D01*
X12111575Y-8943025D02*
X12211575Y-8943025D01*
X12161575Y-9147025D02*
X12161575Y-9247025D01*
X12111575Y-9197025D02*
X12211575Y-9197025D01*
X12161575Y-9401025D02*
X12161575Y-9501025D01*
X12111575Y-9451025D02*
X12211575Y-9451025D01*
X12161575Y-9655025D02*
X12161575Y-9755025D01*
X12111575Y-9705025D02*
X12211575Y-9705025D01*
X12846225Y-7184225D02*
X12846225Y-7284225D01*
X12796225Y-7234225D02*
X12896225Y-7234225D01*
X12846225Y-8724225D02*
X12846225Y-8824225D01*
X12796225Y-8774225D02*
X12896225Y-8774225D01*
X15786225Y-7704225D02*
X15786225Y-7804225D01*
X15736225Y-7754225D02*
X15836225Y-7754225D01*
X15786225Y-8204225D02*
X15786225Y-8304225D01*
X15736225Y-8254225D02*
X15836225Y-8254225D01*
D14*
X16628627Y-7196652D02*
X16628627Y-7111798D01*
X16543773Y-7111798D01*
X16543773Y-7196652D01*
X16628627Y-7196652D01*
X16628627Y-8696652D02*
X16628627Y-8611798D01*
X16543773Y-8611798D01*
X16543773Y-8696652D01*
X16628627Y-8696652D01*
D15*
X15094375Y-10796625D02*
X15159375Y-10731625D01*
X15094375Y-10666625D01*
X15029375Y-10731625D01*
X15094375Y-10796625D01*
X15094375Y-12471625D02*
X15159375Y-12406625D01*
X15094375Y-12341625D01*
X15029375Y-12406625D01*
X15094375Y-12471625D01*
X15294375Y-10196625D02*
X15359375Y-10131625D01*
X15294375Y-10066625D01*
X15229375Y-10131625D01*
X15294375Y-10196625D01*
X15294375Y-11396625D02*
X15359375Y-11331625D01*
X15294375Y-11266625D01*
X15229375Y-11331625D01*
X15294375Y-11396625D01*
X15294375Y-11871625D02*
X15359375Y-11806625D01*
X15294375Y-11741625D01*
X15229375Y-11806625D01*
X15294375Y-11871625D01*
X15294375Y-13071625D02*
X15359375Y-13006625D01*
X15294375Y-12941625D01*
X15229375Y-13006625D01*
X15294375Y-13071625D01*
X16514375Y-10196625D02*
X16579375Y-10131625D01*
X16514375Y-10066625D01*
X16449375Y-10131625D01*
X16514375Y-10196625D01*
X16514375Y-11396625D02*
X16579375Y-11331625D01*
X16514375Y-11266625D01*
X16449375Y-11331625D01*
X16514375Y-11396625D01*
X16514375Y-11871625D02*
X16579375Y-11806625D01*
X16514375Y-11741625D01*
X16449375Y-11806625D01*
X16514375Y-11871625D01*
X16514375Y-13071625D02*
X16579375Y-13006625D01*
X16514375Y-12941625D01*
X16449375Y-13006625D01*
X16514375Y-13071625D01*
D16*
X17450000Y-7974225D02*
X17602000Y-8126225D01*
X17602000Y-7974225D02*
X17450000Y-8126225D01*
X17602000Y-8050225D02*
G75*
G03*
X17602000Y-8050225I-76000J0D01*
G01*
X17450000Y-8482225D02*
X17602000Y-8634225D01*
X17602000Y-8482225D02*
X17450000Y-8634225D01*
X17602000Y-8558225D02*
G75*
G03*
X17602000Y-8558225I-76000J0D01*
G01*
X17450000Y-11811200D02*
X17602000Y-11963200D01*
X17602000Y-11811200D02*
X17450000Y-11963200D01*
X17602000Y-11887200D02*
G75*
G03*
X17602000Y-11887200I-76000J0D01*
G01*
X17450000Y-12319200D02*
X17602000Y-12471200D01*
X17602000Y-12319200D02*
X17450000Y-12471200D01*
X17602000Y-12395200D02*
G75*
G03*
X17602000Y-12395200I-76000J0D01*
G01*
D10*
X12162352Y-13606509D02*
X12162352Y-13406509D01*
X12162352Y-13406509D02*
X12209971Y-13406509D01*
X12209971Y-13406509D02*
X12238542Y-13416033D01*
X12238542Y-13416033D02*
X12257590Y-13435080D01*
X12257590Y-13435080D02*
X12267114Y-13454128D01*
X12267114Y-13454128D02*
X12276637Y-13492223D01*
X12276637Y-13492223D02*
X12276637Y-13520794D01*
X12276637Y-13520794D02*
X12267114Y-13558890D01*
X12267114Y-13558890D02*
X12257590Y-13577937D01*
X12257590Y-13577937D02*
X12238542Y-13596985D01*
X12238542Y-13596985D02*
X12209971Y-13606509D01*
X12209971Y-13606509D02*
X12162352Y-13606509D01*
X12362352Y-13606509D02*
X12362352Y-13473175D01*
X12362352Y-13511271D02*
X12371876Y-13492223D01*
X12371876Y-13492223D02*
X12381399Y-13482699D01*
X12381399Y-13482699D02*
X12400447Y-13473175D01*
X12400447Y-13473175D02*
X12419495Y-13473175D01*
X12486161Y-13606509D02*
X12486161Y-13473175D01*
X12486161Y-13406509D02*
X12476637Y-13416033D01*
X12476637Y-13416033D02*
X12486161Y-13425556D01*
X12486161Y-13425556D02*
X12495685Y-13416033D01*
X12495685Y-13416033D02*
X12486161Y-13406509D01*
X12486161Y-13406509D02*
X12486161Y-13425556D01*
X12609971Y-13606509D02*
X12590923Y-13596985D01*
X12590923Y-13596985D02*
X12581399Y-13577937D01*
X12581399Y-13577937D02*
X12581399Y-13406509D01*
X12714733Y-13606509D02*
X12695685Y-13596985D01*
X12695685Y-13596985D02*
X12686161Y-13577937D01*
X12686161Y-13577937D02*
X12686161Y-13406509D01*
X12943304Y-13606509D02*
X12943304Y-13406509D01*
X12943304Y-13406509D02*
X13009971Y-13549366D01*
X13009971Y-13549366D02*
X13076637Y-13406509D01*
X13076637Y-13406509D02*
X13076637Y-13606509D01*
X13257590Y-13606509D02*
X13257590Y-13501747D01*
X13257590Y-13501747D02*
X13248066Y-13482699D01*
X13248066Y-13482699D02*
X13229018Y-13473175D01*
X13229018Y-13473175D02*
X13190923Y-13473175D01*
X13190923Y-13473175D02*
X13171876Y-13482699D01*
X13257590Y-13596985D02*
X13238542Y-13606509D01*
X13238542Y-13606509D02*
X13190923Y-13606509D01*
X13190923Y-13606509D02*
X13171876Y-13596985D01*
X13171876Y-13596985D02*
X13162352Y-13577937D01*
X13162352Y-13577937D02*
X13162352Y-13558890D01*
X13162352Y-13558890D02*
X13171876Y-13539842D01*
X13171876Y-13539842D02*
X13190923Y-13530318D01*
X13190923Y-13530318D02*
X13238542Y-13530318D01*
X13238542Y-13530318D02*
X13257590Y-13520794D01*
X13352828Y-13473175D02*
X13352828Y-13673175D01*
X13352828Y-13482699D02*
X13371876Y-13473175D01*
X13371876Y-13473175D02*
X13409971Y-13473175D01*
X13409971Y-13473175D02*
X13429018Y-13482699D01*
X13429018Y-13482699D02*
X13438542Y-13492223D01*
X13438542Y-13492223D02*
X13448066Y-13511271D01*
X13448066Y-13511271D02*
X13448066Y-13568413D01*
X13448066Y-13568413D02*
X13438542Y-13587461D01*
X13438542Y-13587461D02*
X13429018Y-13596985D01*
X13429018Y-13596985D02*
X13409971Y-13606509D01*
X13409971Y-13606509D02*
X13371876Y-13606509D01*
X13371876Y-13606509D02*
X13352828Y-13596985D01*
X13533780Y-13587461D02*
X13543304Y-13596985D01*
X13543304Y-13596985D02*
X13533780Y-13606509D01*
X13533780Y-13606509D02*
X13524257Y-13596985D01*
X13524257Y-13596985D02*
X13533780Y-13587461D01*
X13533780Y-13587461D02*
X13533780Y-13606509D01*
X13533780Y-13482699D02*
X13543304Y-13492223D01*
X13543304Y-13492223D02*
X13533780Y-13501747D01*
X13533780Y-13501747D02*
X13524257Y-13492223D01*
X13524257Y-13492223D02*
X13533780Y-13482699D01*
X13533780Y-13482699D02*
X13533780Y-13501747D01*
D11*
X11861575Y-13915025D02*
X11901575Y-13955025D01*
X11901575Y-13915025D02*
X11861575Y-13955025D01*
D10*
X12200447Y-13826509D02*
X12219495Y-13826509D01*
X12219495Y-13826509D02*
X12238542Y-13836033D01*
X12238542Y-13836033D02*
X12248066Y-13845556D01*
X12248066Y-13845556D02*
X12257590Y-13864604D01*
X12257590Y-13864604D02*
X12267114Y-13902699D01*
X12267114Y-13902699D02*
X12267114Y-13950318D01*
X12267114Y-13950318D02*
X12257590Y-13988413D01*
X12257590Y-13988413D02*
X12248066Y-14007461D01*
X12248066Y-14007461D02*
X12238542Y-14016985D01*
X12238542Y-14016985D02*
X12219495Y-14026509D01*
X12219495Y-14026509D02*
X12200447Y-14026509D01*
X12200447Y-14026509D02*
X12181399Y-14016985D01*
X12181399Y-14016985D02*
X12171876Y-14007461D01*
X12171876Y-14007461D02*
X12162352Y-13988413D01*
X12162352Y-13988413D02*
X12152828Y-13950318D01*
X12152828Y-13950318D02*
X12152828Y-13902699D01*
X12152828Y-13902699D02*
X12162352Y-13864604D01*
X12162352Y-13864604D02*
X12171876Y-13845556D01*
X12171876Y-13845556D02*
X12181399Y-13836033D01*
X12181399Y-13836033D02*
X12200447Y-13826509D01*
X12352828Y-14007461D02*
X12362352Y-14016985D01*
X12362352Y-14016985D02*
X12352828Y-14026509D01*
X12352828Y-14026509D02*
X12343304Y-14016985D01*
X12343304Y-14016985D02*
X12352828Y-14007461D01*
X12352828Y-14007461D02*
X12352828Y-14026509D01*
X12533780Y-13893175D02*
X12533780Y-14026509D01*
X12486161Y-13816985D02*
X12438542Y-13959842D01*
X12438542Y-13959842D02*
X12562352Y-13959842D01*
X12676637Y-13826509D02*
X12695685Y-13826509D01*
X12695685Y-13826509D02*
X12714733Y-13836033D01*
X12714733Y-13836033D02*
X12724257Y-13845556D01*
X12724257Y-13845556D02*
X12733780Y-13864604D01*
X12733780Y-13864604D02*
X12743304Y-13902699D01*
X12743304Y-13902699D02*
X12743304Y-13950318D01*
X12743304Y-13950318D02*
X12733780Y-13988413D01*
X12733780Y-13988413D02*
X12724257Y-14007461D01*
X12724257Y-14007461D02*
X12714733Y-14016985D01*
X12714733Y-14016985D02*
X12695685Y-14026509D01*
X12695685Y-14026509D02*
X12676637Y-14026509D01*
X12676637Y-14026509D02*
X12657590Y-14016985D01*
X12657590Y-14016985D02*
X12648066Y-14007461D01*
X12648066Y-14007461D02*
X12638542Y-13988413D01*
X12638542Y-13988413D02*
X12629018Y-13950318D01*
X12629018Y-13950318D02*
X12629018Y-13902699D01*
X12629018Y-13902699D02*
X12638542Y-13864604D01*
X12638542Y-13864604D02*
X12648066Y-13845556D01*
X12648066Y-13845556D02*
X12657590Y-13836033D01*
X12657590Y-13836033D02*
X12676637Y-13826509D01*
X12867114Y-13826509D02*
X12886161Y-13826509D01*
X12886161Y-13826509D02*
X12905209Y-13836033D01*
X12905209Y-13836033D02*
X12914733Y-13845556D01*
X12914733Y-13845556D02*
X12924257Y-13864604D01*
X12924257Y-13864604D02*
X12933780Y-13902699D01*
X12933780Y-13902699D02*
X12933780Y-13950318D01*
X12933780Y-13950318D02*
X12924257Y-13988413D01*
X12924257Y-13988413D02*
X12914733Y-14007461D01*
X12914733Y-14007461D02*
X12905209Y-14016985D01*
X12905209Y-14016985D02*
X12886161Y-14026509D01*
X12886161Y-14026509D02*
X12867114Y-14026509D01*
X12867114Y-14026509D02*
X12848066Y-14016985D01*
X12848066Y-14016985D02*
X12838542Y-14007461D01*
X12838542Y-14007461D02*
X12829018Y-13988413D01*
X12829018Y-13988413D02*
X12819495Y-13950318D01*
X12819495Y-13950318D02*
X12819495Y-13902699D01*
X12819495Y-13902699D02*
X12829018Y-13864604D01*
X12829018Y-13864604D02*
X12838542Y-13845556D01*
X12838542Y-13845556D02*
X12848066Y-13836033D01*
X12848066Y-13836033D02*
X12867114Y-13826509D01*
X13019495Y-14026509D02*
X13019495Y-13893175D01*
X13019495Y-13912223D02*
X13029018Y-13902699D01*
X13029018Y-13902699D02*
X13048066Y-13893175D01*
X13048066Y-13893175D02*
X13076638Y-13893175D01*
X13076638Y-13893175D02*
X13095685Y-13902699D01*
X13095685Y-13902699D02*
X13105209Y-13921747D01*
X13105209Y-13921747D02*
X13105209Y-14026509D01*
X13105209Y-13921747D02*
X13114733Y-13902699D01*
X13114733Y-13902699D02*
X13133780Y-13893175D01*
X13133780Y-13893175D02*
X13162352Y-13893175D01*
X13162352Y-13893175D02*
X13181399Y-13902699D01*
X13181399Y-13902699D02*
X13190923Y-13921747D01*
X13190923Y-13921747D02*
X13190923Y-14026509D01*
X13286161Y-14026509D02*
X13286161Y-13893175D01*
X13286161Y-13912223D02*
X13295685Y-13902699D01*
X13295685Y-13902699D02*
X13314733Y-13893175D01*
X13314733Y-13893175D02*
X13343304Y-13893175D01*
X13343304Y-13893175D02*
X13362352Y-13902699D01*
X13362352Y-13902699D02*
X13371876Y-13921747D01*
X13371876Y-13921747D02*
X13371876Y-14026509D01*
X13371876Y-13921747D02*
X13381399Y-13902699D01*
X13381399Y-13902699D02*
X13400447Y-13893175D01*
X13400447Y-13893175D02*
X13429018Y-13893175D01*
X13429018Y-13893175D02*
X13448066Y-13902699D01*
X13448066Y-13902699D02*
X13457590Y-13921747D01*
X13457590Y-13921747D02*
X13457590Y-14026509D01*
X13848066Y-13816985D02*
X13676638Y-14074128D01*
X14105209Y-13826509D02*
X14124257Y-13826509D01*
X14124257Y-13826509D02*
X14143304Y-13836033D01*
X14143304Y-13836033D02*
X14152828Y-13845556D01*
X14152828Y-13845556D02*
X14162352Y-13864604D01*
X14162352Y-13864604D02*
X14171876Y-13902699D01*
X14171876Y-13902699D02*
X14171876Y-13950318D01*
X14171876Y-13950318D02*
X14162352Y-13988413D01*
X14162352Y-13988413D02*
X14152828Y-14007461D01*
X14152828Y-14007461D02*
X14143304Y-14016985D01*
X14143304Y-14016985D02*
X14124257Y-14026509D01*
X14124257Y-14026509D02*
X14105209Y-14026509D01*
X14105209Y-14026509D02*
X14086161Y-14016985D01*
X14086161Y-14016985D02*
X14076638Y-14007461D01*
X14076638Y-14007461D02*
X14067114Y-13988413D01*
X14067114Y-13988413D02*
X14057590Y-13950318D01*
X14057590Y-13950318D02*
X14057590Y-13902699D01*
X14057590Y-13902699D02*
X14067114Y-13864604D01*
X14067114Y-13864604D02*
X14076638Y-13845556D01*
X14076638Y-13845556D02*
X14086161Y-13836033D01*
X14086161Y-13836033D02*
X14105209Y-13826509D01*
X14257590Y-14007461D02*
X14267114Y-14016985D01*
X14267114Y-14016985D02*
X14257590Y-14026509D01*
X14257590Y-14026509D02*
X14248066Y-14016985D01*
X14248066Y-14016985D02*
X14257590Y-14007461D01*
X14257590Y-14007461D02*
X14257590Y-14026509D01*
X14390923Y-13826509D02*
X14409971Y-13826509D01*
X14409971Y-13826509D02*
X14429019Y-13836033D01*
X14429019Y-13836033D02*
X14438542Y-13845556D01*
X14438542Y-13845556D02*
X14448066Y-13864604D01*
X14448066Y-13864604D02*
X14457590Y-13902699D01*
X14457590Y-13902699D02*
X14457590Y-13950318D01*
X14457590Y-13950318D02*
X14448066Y-13988413D01*
X14448066Y-13988413D02*
X14438542Y-14007461D01*
X14438542Y-14007461D02*
X14429019Y-14016985D01*
X14429019Y-14016985D02*
X14409971Y-14026509D01*
X14409971Y-14026509D02*
X14390923Y-14026509D01*
X14390923Y-14026509D02*
X14371876Y-14016985D01*
X14371876Y-14016985D02*
X14362352Y-14007461D01*
X14362352Y-14007461D02*
X14352828Y-13988413D01*
X14352828Y-13988413D02*
X14343304Y-13950318D01*
X14343304Y-13950318D02*
X14343304Y-13902699D01*
X14343304Y-13902699D02*
X14352828Y-13864604D01*
X14352828Y-13864604D02*
X14362352Y-13845556D01*
X14362352Y-13845556D02*
X14371876Y-13836033D01*
X14371876Y-13836033D02*
X14390923Y-13826509D01*
X14648066Y-14026509D02*
X14533781Y-14026509D01*
X14590923Y-14026509D02*
X14590923Y-13826509D01*
X14590923Y-13826509D02*
X14571876Y-13855080D01*
X14571876Y-13855080D02*
X14552828Y-13874128D01*
X14552828Y-13874128D02*
X14533781Y-13883652D01*
X14829019Y-13826509D02*
X14733781Y-13826509D01*
X14733781Y-13826509D02*
X14724257Y-13921747D01*
X14724257Y-13921747D02*
X14733781Y-13912223D01*
X14733781Y-13912223D02*
X14752828Y-13902699D01*
X14752828Y-13902699D02*
X14800447Y-13902699D01*
X14800447Y-13902699D02*
X14819495Y-13912223D01*
X14819495Y-13912223D02*
X14829019Y-13921747D01*
X14829019Y-13921747D02*
X14838542Y-13940794D01*
X14838542Y-13940794D02*
X14838542Y-13988413D01*
X14838542Y-13988413D02*
X14829019Y-14007461D01*
X14829019Y-14007461D02*
X14819495Y-14016985D01*
X14819495Y-14016985D02*
X14800447Y-14026509D01*
X14800447Y-14026509D02*
X14752828Y-14026509D01*
X14752828Y-14026509D02*
X14733781Y-14016985D01*
X14733781Y-14016985D02*
X14724257Y-14007461D01*
X14905209Y-13826509D02*
X15038542Y-13826509D01*
X15038542Y-13826509D02*
X14952828Y-14026509D01*
X15105209Y-13826509D02*
X15105209Y-13864604D01*
X15181400Y-13826509D02*
X15181400Y-13864604D01*
X15476638Y-14102699D02*
X15467114Y-14093175D01*
X15467114Y-14093175D02*
X15448066Y-14064604D01*
X15448066Y-14064604D02*
X15438543Y-14045556D01*
X15438543Y-14045556D02*
X15429019Y-14016985D01*
X15429019Y-14016985D02*
X15419495Y-13969366D01*
X15419495Y-13969366D02*
X15419495Y-13931271D01*
X15419495Y-13931271D02*
X15429019Y-13883652D01*
X15429019Y-13883652D02*
X15438543Y-13855080D01*
X15438543Y-13855080D02*
X15448066Y-13836033D01*
X15448066Y-13836033D02*
X15467114Y-13807461D01*
X15467114Y-13807461D02*
X15476638Y-13797937D01*
X15533781Y-13826509D02*
X15657590Y-13826509D01*
X15657590Y-13826509D02*
X15590923Y-13902699D01*
X15590923Y-13902699D02*
X15619495Y-13902699D01*
X15619495Y-13902699D02*
X15638543Y-13912223D01*
X15638543Y-13912223D02*
X15648066Y-13921747D01*
X15648066Y-13921747D02*
X15657590Y-13940794D01*
X15657590Y-13940794D02*
X15657590Y-13988413D01*
X15657590Y-13988413D02*
X15648066Y-14007461D01*
X15648066Y-14007461D02*
X15638543Y-14016985D01*
X15638543Y-14016985D02*
X15619495Y-14026509D01*
X15619495Y-14026509D02*
X15562352Y-14026509D01*
X15562352Y-14026509D02*
X15543304Y-14016985D01*
X15543304Y-14016985D02*
X15533781Y-14007461D01*
X15781400Y-13826509D02*
X15800447Y-13826509D01*
X15800447Y-13826509D02*
X15819495Y-13836033D01*
X15819495Y-13836033D02*
X15829019Y-13845556D01*
X15829019Y-13845556D02*
X15838543Y-13864604D01*
X15838543Y-13864604D02*
X15848066Y-13902699D01*
X15848066Y-13902699D02*
X15848066Y-13950318D01*
X15848066Y-13950318D02*
X15838543Y-13988413D01*
X15838543Y-13988413D02*
X15829019Y-14007461D01*
X15829019Y-14007461D02*
X15819495Y-14016985D01*
X15819495Y-14016985D02*
X15800447Y-14026509D01*
X15800447Y-14026509D02*
X15781400Y-14026509D01*
X15781400Y-14026509D02*
X15762352Y-14016985D01*
X15762352Y-14016985D02*
X15752828Y-14007461D01*
X15752828Y-14007461D02*
X15743304Y-13988413D01*
X15743304Y-13988413D02*
X15733781Y-13950318D01*
X15733781Y-13950318D02*
X15733781Y-13902699D01*
X15733781Y-13902699D02*
X15743304Y-13864604D01*
X15743304Y-13864604D02*
X15752828Y-13845556D01*
X15752828Y-13845556D02*
X15762352Y-13836033D01*
X15762352Y-13836033D02*
X15781400Y-13826509D01*
X16086162Y-14026509D02*
X16086162Y-13826509D01*
X16171876Y-14026509D02*
X16171876Y-13921747D01*
X16171876Y-13921747D02*
X16162352Y-13902699D01*
X16162352Y-13902699D02*
X16143305Y-13893175D01*
X16143305Y-13893175D02*
X16114733Y-13893175D01*
X16114733Y-13893175D02*
X16095685Y-13902699D01*
X16095685Y-13902699D02*
X16086162Y-13912223D01*
X16295685Y-14026509D02*
X16276638Y-14016985D01*
X16276638Y-14016985D02*
X16267114Y-14007461D01*
X16267114Y-14007461D02*
X16257590Y-13988413D01*
X16257590Y-13988413D02*
X16257590Y-13931271D01*
X16257590Y-13931271D02*
X16267114Y-13912223D01*
X16267114Y-13912223D02*
X16276638Y-13902699D01*
X16276638Y-13902699D02*
X16295685Y-13893175D01*
X16295685Y-13893175D02*
X16324257Y-13893175D01*
X16324257Y-13893175D02*
X16343305Y-13902699D01*
X16343305Y-13902699D02*
X16352828Y-13912223D01*
X16352828Y-13912223D02*
X16362352Y-13931271D01*
X16362352Y-13931271D02*
X16362352Y-13988413D01*
X16362352Y-13988413D02*
X16352828Y-14007461D01*
X16352828Y-14007461D02*
X16343305Y-14016985D01*
X16343305Y-14016985D02*
X16324257Y-14026509D01*
X16324257Y-14026509D02*
X16295685Y-14026509D01*
X16476638Y-14026509D02*
X16457590Y-14016985D01*
X16457590Y-14016985D02*
X16448066Y-13997937D01*
X16448066Y-13997937D02*
X16448066Y-13826509D01*
X16629019Y-14016985D02*
X16609971Y-14026509D01*
X16609971Y-14026509D02*
X16571876Y-14026509D01*
X16571876Y-14026509D02*
X16552828Y-14016985D01*
X16552828Y-14016985D02*
X16543305Y-13997937D01*
X16543305Y-13997937D02*
X16543305Y-13921747D01*
X16543305Y-13921747D02*
X16552828Y-13902699D01*
X16552828Y-13902699D02*
X16571876Y-13893175D01*
X16571876Y-13893175D02*
X16609971Y-13893175D01*
X16609971Y-13893175D02*
X16629019Y-13902699D01*
X16629019Y-13902699D02*
X16638543Y-13921747D01*
X16638543Y-13921747D02*
X16638543Y-13940794D01*
X16638543Y-13940794D02*
X16543305Y-13959842D01*
X16714733Y-14016985D02*
X16733781Y-14026509D01*
X16733781Y-14026509D02*
X16771876Y-14026509D01*
X16771876Y-14026509D02*
X16790924Y-14016985D01*
X16790924Y-14016985D02*
X16800448Y-13997937D01*
X16800448Y-13997937D02*
X16800448Y-13988413D01*
X16800448Y-13988413D02*
X16790924Y-13969366D01*
X16790924Y-13969366D02*
X16771876Y-13959842D01*
X16771876Y-13959842D02*
X16743305Y-13959842D01*
X16743305Y-13959842D02*
X16724257Y-13950318D01*
X16724257Y-13950318D02*
X16714733Y-13931271D01*
X16714733Y-13931271D02*
X16714733Y-13921747D01*
X16714733Y-13921747D02*
X16724257Y-13902699D01*
X16724257Y-13902699D02*
X16743305Y-13893175D01*
X16743305Y-13893175D02*
X16771876Y-13893175D01*
X16771876Y-13893175D02*
X16790924Y-13902699D01*
X16867114Y-14102699D02*
X16876638Y-14093175D01*
X16876638Y-14093175D02*
X16895686Y-14064604D01*
X16895686Y-14064604D02*
X16905209Y-14045556D01*
X16905209Y-14045556D02*
X16914733Y-14016985D01*
X16914733Y-14016985D02*
X16924257Y-13969366D01*
X16924257Y-13969366D02*
X16924257Y-13931271D01*
X16924257Y-13931271D02*
X16914733Y-13883652D01*
X16914733Y-13883652D02*
X16905209Y-13855080D01*
X16905209Y-13855080D02*
X16895686Y-13836033D01*
X16895686Y-13836033D02*
X16876638Y-13807461D01*
X16876638Y-13807461D02*
X16867114Y-13797937D01*
D12*
X11901575Y-14199025D02*
G75*
G03*
X11901575Y-14199025I-40000J0D01*
G01*
D10*
X12200447Y-14090509D02*
X12219495Y-14090509D01*
X12219495Y-14090509D02*
X12238542Y-14100033D01*
X12238542Y-14100033D02*
X12248066Y-14109556D01*
X12248066Y-14109556D02*
X12257590Y-14128604D01*
X12257590Y-14128604D02*
X12267114Y-14166699D01*
X12267114Y-14166699D02*
X12267114Y-14214318D01*
X12267114Y-14214318D02*
X12257590Y-14252413D01*
X12257590Y-14252413D02*
X12248066Y-14271461D01*
X12248066Y-14271461D02*
X12238542Y-14280985D01*
X12238542Y-14280985D02*
X12219495Y-14290509D01*
X12219495Y-14290509D02*
X12200447Y-14290509D01*
X12200447Y-14290509D02*
X12181399Y-14280985D01*
X12181399Y-14280985D02*
X12171876Y-14271461D01*
X12171876Y-14271461D02*
X12162352Y-14252413D01*
X12162352Y-14252413D02*
X12152828Y-14214318D01*
X12152828Y-14214318D02*
X12152828Y-14166699D01*
X12152828Y-14166699D02*
X12162352Y-14128604D01*
X12162352Y-14128604D02*
X12171876Y-14109556D01*
X12171876Y-14109556D02*
X12181399Y-14100033D01*
X12181399Y-14100033D02*
X12200447Y-14090509D01*
X12352828Y-14271461D02*
X12362352Y-14280985D01*
X12362352Y-14280985D02*
X12352828Y-14290509D01*
X12352828Y-14290509D02*
X12343304Y-14280985D01*
X12343304Y-14280985D02*
X12352828Y-14271461D01*
X12352828Y-14271461D02*
X12352828Y-14290509D01*
X12476637Y-14176223D02*
X12457590Y-14166699D01*
X12457590Y-14166699D02*
X12448066Y-14157175D01*
X12448066Y-14157175D02*
X12438542Y-14138128D01*
X12438542Y-14138128D02*
X12438542Y-14128604D01*
X12438542Y-14128604D02*
X12448066Y-14109556D01*
X12448066Y-14109556D02*
X12457590Y-14100033D01*
X12457590Y-14100033D02*
X12476637Y-14090509D01*
X12476637Y-14090509D02*
X12514733Y-14090509D01*
X12514733Y-14090509D02*
X12533780Y-14100033D01*
X12533780Y-14100033D02*
X12543304Y-14109556D01*
X12543304Y-14109556D02*
X12552828Y-14128604D01*
X12552828Y-14128604D02*
X12552828Y-14138128D01*
X12552828Y-14138128D02*
X12543304Y-14157175D01*
X12543304Y-14157175D02*
X12533780Y-14166699D01*
X12533780Y-14166699D02*
X12514733Y-14176223D01*
X12514733Y-14176223D02*
X12476637Y-14176223D01*
X12476637Y-14176223D02*
X12457590Y-14185747D01*
X12457590Y-14185747D02*
X12448066Y-14195271D01*
X12448066Y-14195271D02*
X12438542Y-14214318D01*
X12438542Y-14214318D02*
X12438542Y-14252413D01*
X12438542Y-14252413D02*
X12448066Y-14271461D01*
X12448066Y-14271461D02*
X12457590Y-14280985D01*
X12457590Y-14280985D02*
X12476637Y-14290509D01*
X12476637Y-14290509D02*
X12514733Y-14290509D01*
X12514733Y-14290509D02*
X12533780Y-14280985D01*
X12533780Y-14280985D02*
X12543304Y-14271461D01*
X12543304Y-14271461D02*
X12552828Y-14252413D01*
X12552828Y-14252413D02*
X12552828Y-14214318D01*
X12552828Y-14214318D02*
X12543304Y-14195271D01*
X12543304Y-14195271D02*
X12533780Y-14185747D01*
X12533780Y-14185747D02*
X12514733Y-14176223D01*
X12676637Y-14090509D02*
X12695685Y-14090509D01*
X12695685Y-14090509D02*
X12714733Y-14100033D01*
X12714733Y-14100033D02*
X12724257Y-14109556D01*
X12724257Y-14109556D02*
X12733780Y-14128604D01*
X12733780Y-14128604D02*
X12743304Y-14166699D01*
X12743304Y-14166699D02*
X12743304Y-14214318D01*
X12743304Y-14214318D02*
X12733780Y-14252413D01*
X12733780Y-14252413D02*
X12724257Y-14271461D01*
X12724257Y-14271461D02*
X12714733Y-14280985D01*
X12714733Y-14280985D02*
X12695685Y-14290509D01*
X12695685Y-14290509D02*
X12676637Y-14290509D01*
X12676637Y-14290509D02*
X12657590Y-14280985D01*
X12657590Y-14280985D02*
X12648066Y-14271461D01*
X12648066Y-14271461D02*
X12638542Y-14252413D01*
X12638542Y-14252413D02*
X12629018Y-14214318D01*
X12629018Y-14214318D02*
X12629018Y-14166699D01*
X12629018Y-14166699D02*
X12638542Y-14128604D01*
X12638542Y-14128604D02*
X12648066Y-14109556D01*
X12648066Y-14109556D02*
X12657590Y-14100033D01*
X12657590Y-14100033D02*
X12676637Y-14090509D01*
X12867114Y-14090509D02*
X12886161Y-14090509D01*
X12886161Y-14090509D02*
X12905209Y-14100033D01*
X12905209Y-14100033D02*
X12914733Y-14109556D01*
X12914733Y-14109556D02*
X12924257Y-14128604D01*
X12924257Y-14128604D02*
X12933780Y-14166699D01*
X12933780Y-14166699D02*
X12933780Y-14214318D01*
X12933780Y-14214318D02*
X12924257Y-14252413D01*
X12924257Y-14252413D02*
X12914733Y-14271461D01*
X12914733Y-14271461D02*
X12905209Y-14280985D01*
X12905209Y-14280985D02*
X12886161Y-14290509D01*
X12886161Y-14290509D02*
X12867114Y-14290509D01*
X12867114Y-14290509D02*
X12848066Y-14280985D01*
X12848066Y-14280985D02*
X12838542Y-14271461D01*
X12838542Y-14271461D02*
X12829018Y-14252413D01*
X12829018Y-14252413D02*
X12819495Y-14214318D01*
X12819495Y-14214318D02*
X12819495Y-14166699D01*
X12819495Y-14166699D02*
X12829018Y-14128604D01*
X12829018Y-14128604D02*
X12838542Y-14109556D01*
X12838542Y-14109556D02*
X12848066Y-14100033D01*
X12848066Y-14100033D02*
X12867114Y-14090509D01*
X13019495Y-14290509D02*
X13019495Y-14157175D01*
X13019495Y-14176223D02*
X13029018Y-14166699D01*
X13029018Y-14166699D02*
X13048066Y-14157175D01*
X13048066Y-14157175D02*
X13076638Y-14157175D01*
X13076638Y-14157175D02*
X13095685Y-14166699D01*
X13095685Y-14166699D02*
X13105209Y-14185747D01*
X13105209Y-14185747D02*
X13105209Y-14290509D01*
X13105209Y-14185747D02*
X13114733Y-14166699D01*
X13114733Y-14166699D02*
X13133780Y-14157175D01*
X13133780Y-14157175D02*
X13162352Y-14157175D01*
X13162352Y-14157175D02*
X13181399Y-14166699D01*
X13181399Y-14166699D02*
X13190923Y-14185747D01*
X13190923Y-14185747D02*
X13190923Y-14290509D01*
X13286161Y-14290509D02*
X13286161Y-14157175D01*
X13286161Y-14176223D02*
X13295685Y-14166699D01*
X13295685Y-14166699D02*
X13314733Y-14157175D01*
X13314733Y-14157175D02*
X13343304Y-14157175D01*
X13343304Y-14157175D02*
X13362352Y-14166699D01*
X13362352Y-14166699D02*
X13371876Y-14185747D01*
X13371876Y-14185747D02*
X13371876Y-14290509D01*
X13371876Y-14185747D02*
X13381399Y-14166699D01*
X13381399Y-14166699D02*
X13400447Y-14157175D01*
X13400447Y-14157175D02*
X13429018Y-14157175D01*
X13429018Y-14157175D02*
X13448066Y-14166699D01*
X13448066Y-14166699D02*
X13457590Y-14185747D01*
X13457590Y-14185747D02*
X13457590Y-14290509D01*
X13848066Y-14080985D02*
X13676638Y-14338128D01*
X14105209Y-14090509D02*
X14124257Y-14090509D01*
X14124257Y-14090509D02*
X14143304Y-14100033D01*
X14143304Y-14100033D02*
X14152828Y-14109556D01*
X14152828Y-14109556D02*
X14162352Y-14128604D01*
X14162352Y-14128604D02*
X14171876Y-14166699D01*
X14171876Y-14166699D02*
X14171876Y-14214318D01*
X14171876Y-14214318D02*
X14162352Y-14252413D01*
X14162352Y-14252413D02*
X14152828Y-14271461D01*
X14152828Y-14271461D02*
X14143304Y-14280985D01*
X14143304Y-14280985D02*
X14124257Y-14290509D01*
X14124257Y-14290509D02*
X14105209Y-14290509D01*
X14105209Y-14290509D02*
X14086161Y-14280985D01*
X14086161Y-14280985D02*
X14076638Y-14271461D01*
X14076638Y-14271461D02*
X14067114Y-14252413D01*
X14067114Y-14252413D02*
X14057590Y-14214318D01*
X14057590Y-14214318D02*
X14057590Y-14166699D01*
X14057590Y-14166699D02*
X14067114Y-14128604D01*
X14067114Y-14128604D02*
X14076638Y-14109556D01*
X14076638Y-14109556D02*
X14086161Y-14100033D01*
X14086161Y-14100033D02*
X14105209Y-14090509D01*
X14257590Y-14271461D02*
X14267114Y-14280985D01*
X14267114Y-14280985D02*
X14257590Y-14290509D01*
X14257590Y-14290509D02*
X14248066Y-14280985D01*
X14248066Y-14280985D02*
X14257590Y-14271461D01*
X14257590Y-14271461D02*
X14257590Y-14290509D01*
X14390923Y-14090509D02*
X14409971Y-14090509D01*
X14409971Y-14090509D02*
X14429019Y-14100033D01*
X14429019Y-14100033D02*
X14438542Y-14109556D01*
X14438542Y-14109556D02*
X14448066Y-14128604D01*
X14448066Y-14128604D02*
X14457590Y-14166699D01*
X14457590Y-14166699D02*
X14457590Y-14214318D01*
X14457590Y-14214318D02*
X14448066Y-14252413D01*
X14448066Y-14252413D02*
X14438542Y-14271461D01*
X14438542Y-14271461D02*
X14429019Y-14280985D01*
X14429019Y-14280985D02*
X14409971Y-14290509D01*
X14409971Y-14290509D02*
X14390923Y-14290509D01*
X14390923Y-14290509D02*
X14371876Y-14280985D01*
X14371876Y-14280985D02*
X14362352Y-14271461D01*
X14362352Y-14271461D02*
X14352828Y-14252413D01*
X14352828Y-14252413D02*
X14343304Y-14214318D01*
X14343304Y-14214318D02*
X14343304Y-14166699D01*
X14343304Y-14166699D02*
X14352828Y-14128604D01*
X14352828Y-14128604D02*
X14362352Y-14109556D01*
X14362352Y-14109556D02*
X14371876Y-14100033D01*
X14371876Y-14100033D02*
X14390923Y-14090509D01*
X14524257Y-14090509D02*
X14648066Y-14090509D01*
X14648066Y-14090509D02*
X14581400Y-14166699D01*
X14581400Y-14166699D02*
X14609971Y-14166699D01*
X14609971Y-14166699D02*
X14629019Y-14176223D01*
X14629019Y-14176223D02*
X14638542Y-14185747D01*
X14638542Y-14185747D02*
X14648066Y-14204794D01*
X14648066Y-14204794D02*
X14648066Y-14252413D01*
X14648066Y-14252413D02*
X14638542Y-14271461D01*
X14638542Y-14271461D02*
X14629019Y-14280985D01*
X14629019Y-14280985D02*
X14609971Y-14290509D01*
X14609971Y-14290509D02*
X14552828Y-14290509D01*
X14552828Y-14290509D02*
X14533781Y-14280985D01*
X14533781Y-14280985D02*
X14524257Y-14271461D01*
X14838542Y-14290509D02*
X14724257Y-14290509D01*
X14781400Y-14290509D02*
X14781400Y-14090509D01*
X14781400Y-14090509D02*
X14762352Y-14119080D01*
X14762352Y-14119080D02*
X14743304Y-14138128D01*
X14743304Y-14138128D02*
X14724257Y-14147652D01*
X15019495Y-14090509D02*
X14924257Y-14090509D01*
X14924257Y-14090509D02*
X14914733Y-14185747D01*
X14914733Y-14185747D02*
X14924257Y-14176223D01*
X14924257Y-14176223D02*
X14943304Y-14166699D01*
X14943304Y-14166699D02*
X14990923Y-14166699D01*
X14990923Y-14166699D02*
X15009971Y-14176223D01*
X15009971Y-14176223D02*
X15019495Y-14185747D01*
X15019495Y-14185747D02*
X15029019Y-14204794D01*
X15029019Y-14204794D02*
X15029019Y-14252413D01*
X15029019Y-14252413D02*
X15019495Y-14271461D01*
X15019495Y-14271461D02*
X15009971Y-14280985D01*
X15009971Y-14280985D02*
X14990923Y-14290509D01*
X14990923Y-14290509D02*
X14943304Y-14290509D01*
X14943304Y-14290509D02*
X14924257Y-14280985D01*
X14924257Y-14280985D02*
X14914733Y-14271461D01*
X15105209Y-14090509D02*
X15105209Y-14128604D01*
X15181400Y-14090509D02*
X15181400Y-14128604D01*
X15476638Y-14366699D02*
X15467114Y-14357175D01*
X15467114Y-14357175D02*
X15448066Y-14328604D01*
X15448066Y-14328604D02*
X15438543Y-14309556D01*
X15438543Y-14309556D02*
X15429019Y-14280985D01*
X15429019Y-14280985D02*
X15419495Y-14233366D01*
X15419495Y-14233366D02*
X15419495Y-14195271D01*
X15419495Y-14195271D02*
X15429019Y-14147652D01*
X15429019Y-14147652D02*
X15438543Y-14119080D01*
X15438543Y-14119080D02*
X15448066Y-14100033D01*
X15448066Y-14100033D02*
X15467114Y-14071461D01*
X15467114Y-14071461D02*
X15476638Y-14061937D01*
X15638543Y-14157175D02*
X15638543Y-14290509D01*
X15590923Y-14080985D02*
X15543304Y-14223842D01*
X15543304Y-14223842D02*
X15667114Y-14223842D01*
X15895685Y-14290509D02*
X15895685Y-14090509D01*
X15981400Y-14290509D02*
X15981400Y-14185747D01*
X15981400Y-14185747D02*
X15971876Y-14166699D01*
X15971876Y-14166699D02*
X15952828Y-14157175D01*
X15952828Y-14157175D02*
X15924257Y-14157175D01*
X15924257Y-14157175D02*
X15905209Y-14166699D01*
X15905209Y-14166699D02*
X15895685Y-14176223D01*
X16105209Y-14290509D02*
X16086162Y-14280985D01*
X16086162Y-14280985D02*
X16076638Y-14271461D01*
X16076638Y-14271461D02*
X16067114Y-14252413D01*
X16067114Y-14252413D02*
X16067114Y-14195271D01*
X16067114Y-14195271D02*
X16076638Y-14176223D01*
X16076638Y-14176223D02*
X16086162Y-14166699D01*
X16086162Y-14166699D02*
X16105209Y-14157175D01*
X16105209Y-14157175D02*
X16133781Y-14157175D01*
X16133781Y-14157175D02*
X16152828Y-14166699D01*
X16152828Y-14166699D02*
X16162352Y-14176223D01*
X16162352Y-14176223D02*
X16171876Y-14195271D01*
X16171876Y-14195271D02*
X16171876Y-14252413D01*
X16171876Y-14252413D02*
X16162352Y-14271461D01*
X16162352Y-14271461D02*
X16152828Y-14280985D01*
X16152828Y-14280985D02*
X16133781Y-14290509D01*
X16133781Y-14290509D02*
X16105209Y-14290509D01*
X16286162Y-14290509D02*
X16267114Y-14280985D01*
X16267114Y-14280985D02*
X16257590Y-14261937D01*
X16257590Y-14261937D02*
X16257590Y-14090509D01*
X16438543Y-14280985D02*
X16419495Y-14290509D01*
X16419495Y-14290509D02*
X16381400Y-14290509D01*
X16381400Y-14290509D02*
X16362352Y-14280985D01*
X16362352Y-14280985D02*
X16352828Y-14261937D01*
X16352828Y-14261937D02*
X16352828Y-14185747D01*
X16352828Y-14185747D02*
X16362352Y-14166699D01*
X16362352Y-14166699D02*
X16381400Y-14157175D01*
X16381400Y-14157175D02*
X16419495Y-14157175D01*
X16419495Y-14157175D02*
X16438543Y-14166699D01*
X16438543Y-14166699D02*
X16448066Y-14185747D01*
X16448066Y-14185747D02*
X16448066Y-14204794D01*
X16448066Y-14204794D02*
X16352828Y-14223842D01*
X16524257Y-14280985D02*
X16543305Y-14290509D01*
X16543305Y-14290509D02*
X16581400Y-14290509D01*
X16581400Y-14290509D02*
X16600447Y-14280985D01*
X16600447Y-14280985D02*
X16609971Y-14261937D01*
X16609971Y-14261937D02*
X16609971Y-14252413D01*
X16609971Y-14252413D02*
X16600447Y-14233366D01*
X16600447Y-14233366D02*
X16581400Y-14223842D01*
X16581400Y-14223842D02*
X16552828Y-14223842D01*
X16552828Y-14223842D02*
X16533781Y-14214318D01*
X16533781Y-14214318D02*
X16524257Y-14195271D01*
X16524257Y-14195271D02*
X16524257Y-14185747D01*
X16524257Y-14185747D02*
X16533781Y-14166699D01*
X16533781Y-14166699D02*
X16552828Y-14157175D01*
X16552828Y-14157175D02*
X16581400Y-14157175D01*
X16581400Y-14157175D02*
X16600447Y-14166699D01*
X16676638Y-14366699D02*
X16686162Y-14357175D01*
X16686162Y-14357175D02*
X16705209Y-14328604D01*
X16705209Y-14328604D02*
X16714733Y-14309556D01*
X16714733Y-14309556D02*
X16724257Y-14280985D01*
X16724257Y-14280985D02*
X16733781Y-14233366D01*
X16733781Y-14233366D02*
X16733781Y-14195271D01*
X16733781Y-14195271D02*
X16724257Y-14147652D01*
X16724257Y-14147652D02*
X16714733Y-14119080D01*
X16714733Y-14119080D02*
X16705209Y-14100033D01*
X16705209Y-14100033D02*
X16686162Y-14071461D01*
X16686162Y-14071461D02*
X16676638Y-14061937D01*
D13*
X11851575Y-14413025D02*
X11851575Y-14513025D01*
X11801575Y-14463025D02*
X11901575Y-14463025D01*
D10*
X12267114Y-14554509D02*
X12152828Y-14554509D01*
X12209971Y-14554509D02*
X12209971Y-14354509D01*
X12209971Y-14354509D02*
X12190923Y-14383080D01*
X12190923Y-14383080D02*
X12171876Y-14402128D01*
X12171876Y-14402128D02*
X12152828Y-14411652D01*
X12352828Y-14535461D02*
X12362352Y-14544985D01*
X12362352Y-14544985D02*
X12352828Y-14554509D01*
X12352828Y-14554509D02*
X12343304Y-14544985D01*
X12343304Y-14544985D02*
X12352828Y-14535461D01*
X12352828Y-14535461D02*
X12352828Y-14554509D01*
X12486161Y-14354509D02*
X12505209Y-14354509D01*
X12505209Y-14354509D02*
X12524257Y-14364033D01*
X12524257Y-14364033D02*
X12533780Y-14373556D01*
X12533780Y-14373556D02*
X12543304Y-14392604D01*
X12543304Y-14392604D02*
X12552828Y-14430699D01*
X12552828Y-14430699D02*
X12552828Y-14478318D01*
X12552828Y-14478318D02*
X12543304Y-14516413D01*
X12543304Y-14516413D02*
X12533780Y-14535461D01*
X12533780Y-14535461D02*
X12524257Y-14544985D01*
X12524257Y-14544985D02*
X12505209Y-14554509D01*
X12505209Y-14554509D02*
X12486161Y-14554509D01*
X12486161Y-14554509D02*
X12467114Y-14544985D01*
X12467114Y-14544985D02*
X12457590Y-14535461D01*
X12457590Y-14535461D02*
X12448066Y-14516413D01*
X12448066Y-14516413D02*
X12438542Y-14478318D01*
X12438542Y-14478318D02*
X12438542Y-14430699D01*
X12438542Y-14430699D02*
X12448066Y-14392604D01*
X12448066Y-14392604D02*
X12457590Y-14373556D01*
X12457590Y-14373556D02*
X12467114Y-14364033D01*
X12467114Y-14364033D02*
X12486161Y-14354509D01*
X12676637Y-14354509D02*
X12695685Y-14354509D01*
X12695685Y-14354509D02*
X12714733Y-14364033D01*
X12714733Y-14364033D02*
X12724257Y-14373556D01*
X12724257Y-14373556D02*
X12733780Y-14392604D01*
X12733780Y-14392604D02*
X12743304Y-14430699D01*
X12743304Y-14430699D02*
X12743304Y-14478318D01*
X12743304Y-14478318D02*
X12733780Y-14516413D01*
X12733780Y-14516413D02*
X12724257Y-14535461D01*
X12724257Y-14535461D02*
X12714733Y-14544985D01*
X12714733Y-14544985D02*
X12695685Y-14554509D01*
X12695685Y-14554509D02*
X12676637Y-14554509D01*
X12676637Y-14554509D02*
X12657590Y-14544985D01*
X12657590Y-14544985D02*
X12648066Y-14535461D01*
X12648066Y-14535461D02*
X12638542Y-14516413D01*
X12638542Y-14516413D02*
X12629018Y-14478318D01*
X12629018Y-14478318D02*
X12629018Y-14430699D01*
X12629018Y-14430699D02*
X12638542Y-14392604D01*
X12638542Y-14392604D02*
X12648066Y-14373556D01*
X12648066Y-14373556D02*
X12657590Y-14364033D01*
X12657590Y-14364033D02*
X12676637Y-14354509D01*
X12867114Y-14354509D02*
X12886161Y-14354509D01*
X12886161Y-14354509D02*
X12905209Y-14364033D01*
X12905209Y-14364033D02*
X12914733Y-14373556D01*
X12914733Y-14373556D02*
X12924257Y-14392604D01*
X12924257Y-14392604D02*
X12933780Y-14430699D01*
X12933780Y-14430699D02*
X12933780Y-14478318D01*
X12933780Y-14478318D02*
X12924257Y-14516413D01*
X12924257Y-14516413D02*
X12914733Y-14535461D01*
X12914733Y-14535461D02*
X12905209Y-14544985D01*
X12905209Y-14544985D02*
X12886161Y-14554509D01*
X12886161Y-14554509D02*
X12867114Y-14554509D01*
X12867114Y-14554509D02*
X12848066Y-14544985D01*
X12848066Y-14544985D02*
X12838542Y-14535461D01*
X12838542Y-14535461D02*
X12829018Y-14516413D01*
X12829018Y-14516413D02*
X12819495Y-14478318D01*
X12819495Y-14478318D02*
X12819495Y-14430699D01*
X12819495Y-14430699D02*
X12829018Y-14392604D01*
X12829018Y-14392604D02*
X12838542Y-14373556D01*
X12838542Y-14373556D02*
X12848066Y-14364033D01*
X12848066Y-14364033D02*
X12867114Y-14354509D01*
X13019495Y-14554509D02*
X13019495Y-14421175D01*
X13019495Y-14440223D02*
X13029018Y-14430699D01*
X13029018Y-14430699D02*
X13048066Y-14421175D01*
X13048066Y-14421175D02*
X13076638Y-14421175D01*
X13076638Y-14421175D02*
X13095685Y-14430699D01*
X13095685Y-14430699D02*
X13105209Y-14449747D01*
X13105209Y-14449747D02*
X13105209Y-14554509D01*
X13105209Y-14449747D02*
X13114733Y-14430699D01*
X13114733Y-14430699D02*
X13133780Y-14421175D01*
X13133780Y-14421175D02*
X13162352Y-14421175D01*
X13162352Y-14421175D02*
X13181399Y-14430699D01*
X13181399Y-14430699D02*
X13190923Y-14449747D01*
X13190923Y-14449747D02*
X13190923Y-14554509D01*
X13286161Y-14554509D02*
X13286161Y-14421175D01*
X13286161Y-14440223D02*
X13295685Y-14430699D01*
X13295685Y-14430699D02*
X13314733Y-14421175D01*
X13314733Y-14421175D02*
X13343304Y-14421175D01*
X13343304Y-14421175D02*
X13362352Y-14430699D01*
X13362352Y-14430699D02*
X13371876Y-14449747D01*
X13371876Y-14449747D02*
X13371876Y-14554509D01*
X13371876Y-14449747D02*
X13381399Y-14430699D01*
X13381399Y-14430699D02*
X13400447Y-14421175D01*
X13400447Y-14421175D02*
X13429018Y-14421175D01*
X13429018Y-14421175D02*
X13448066Y-14430699D01*
X13448066Y-14430699D02*
X13457590Y-14449747D01*
X13457590Y-14449747D02*
X13457590Y-14554509D01*
X13848066Y-14344985D02*
X13676638Y-14602128D01*
X14105209Y-14354509D02*
X14124257Y-14354509D01*
X14124257Y-14354509D02*
X14143304Y-14364033D01*
X14143304Y-14364033D02*
X14152828Y-14373556D01*
X14152828Y-14373556D02*
X14162352Y-14392604D01*
X14162352Y-14392604D02*
X14171876Y-14430699D01*
X14171876Y-14430699D02*
X14171876Y-14478318D01*
X14171876Y-14478318D02*
X14162352Y-14516413D01*
X14162352Y-14516413D02*
X14152828Y-14535461D01*
X14152828Y-14535461D02*
X14143304Y-14544985D01*
X14143304Y-14544985D02*
X14124257Y-14554509D01*
X14124257Y-14554509D02*
X14105209Y-14554509D01*
X14105209Y-14554509D02*
X14086161Y-14544985D01*
X14086161Y-14544985D02*
X14076638Y-14535461D01*
X14076638Y-14535461D02*
X14067114Y-14516413D01*
X14067114Y-14516413D02*
X14057590Y-14478318D01*
X14057590Y-14478318D02*
X14057590Y-14430699D01*
X14057590Y-14430699D02*
X14067114Y-14392604D01*
X14067114Y-14392604D02*
X14076638Y-14373556D01*
X14076638Y-14373556D02*
X14086161Y-14364033D01*
X14086161Y-14364033D02*
X14105209Y-14354509D01*
X14257590Y-14535461D02*
X14267114Y-14544985D01*
X14267114Y-14544985D02*
X14257590Y-14554509D01*
X14257590Y-14554509D02*
X14248066Y-14544985D01*
X14248066Y-14544985D02*
X14257590Y-14535461D01*
X14257590Y-14535461D02*
X14257590Y-14554509D01*
X14390923Y-14354509D02*
X14409971Y-14354509D01*
X14409971Y-14354509D02*
X14429019Y-14364033D01*
X14429019Y-14364033D02*
X14438542Y-14373556D01*
X14438542Y-14373556D02*
X14448066Y-14392604D01*
X14448066Y-14392604D02*
X14457590Y-14430699D01*
X14457590Y-14430699D02*
X14457590Y-14478318D01*
X14457590Y-14478318D02*
X14448066Y-14516413D01*
X14448066Y-14516413D02*
X14438542Y-14535461D01*
X14438542Y-14535461D02*
X14429019Y-14544985D01*
X14429019Y-14544985D02*
X14409971Y-14554509D01*
X14409971Y-14554509D02*
X14390923Y-14554509D01*
X14390923Y-14554509D02*
X14371876Y-14544985D01*
X14371876Y-14544985D02*
X14362352Y-14535461D01*
X14362352Y-14535461D02*
X14352828Y-14516413D01*
X14352828Y-14516413D02*
X14343304Y-14478318D01*
X14343304Y-14478318D02*
X14343304Y-14430699D01*
X14343304Y-14430699D02*
X14352828Y-14392604D01*
X14352828Y-14392604D02*
X14362352Y-14373556D01*
X14362352Y-14373556D02*
X14371876Y-14364033D01*
X14371876Y-14364033D02*
X14390923Y-14354509D01*
X14524257Y-14354509D02*
X14648066Y-14354509D01*
X14648066Y-14354509D02*
X14581400Y-14430699D01*
X14581400Y-14430699D02*
X14609971Y-14430699D01*
X14609971Y-14430699D02*
X14629019Y-14440223D01*
X14629019Y-14440223D02*
X14638542Y-14449747D01*
X14638542Y-14449747D02*
X14648066Y-14468794D01*
X14648066Y-14468794D02*
X14648066Y-14516413D01*
X14648066Y-14516413D02*
X14638542Y-14535461D01*
X14638542Y-14535461D02*
X14629019Y-14544985D01*
X14629019Y-14544985D02*
X14609971Y-14554509D01*
X14609971Y-14554509D02*
X14552828Y-14554509D01*
X14552828Y-14554509D02*
X14533781Y-14544985D01*
X14533781Y-14544985D02*
X14524257Y-14535461D01*
X14743304Y-14554509D02*
X14781400Y-14554509D01*
X14781400Y-14554509D02*
X14800447Y-14544985D01*
X14800447Y-14544985D02*
X14809971Y-14535461D01*
X14809971Y-14535461D02*
X14829019Y-14506890D01*
X14829019Y-14506890D02*
X14838542Y-14468794D01*
X14838542Y-14468794D02*
X14838542Y-14392604D01*
X14838542Y-14392604D02*
X14829019Y-14373556D01*
X14829019Y-14373556D02*
X14819495Y-14364033D01*
X14819495Y-14364033D02*
X14800447Y-14354509D01*
X14800447Y-14354509D02*
X14762352Y-14354509D01*
X14762352Y-14354509D02*
X14743304Y-14364033D01*
X14743304Y-14364033D02*
X14733781Y-14373556D01*
X14733781Y-14373556D02*
X14724257Y-14392604D01*
X14724257Y-14392604D02*
X14724257Y-14440223D01*
X14724257Y-14440223D02*
X14733781Y-14459271D01*
X14733781Y-14459271D02*
X14743304Y-14468794D01*
X14743304Y-14468794D02*
X14762352Y-14478318D01*
X14762352Y-14478318D02*
X14800447Y-14478318D01*
X14800447Y-14478318D02*
X14819495Y-14468794D01*
X14819495Y-14468794D02*
X14829019Y-14459271D01*
X14829019Y-14459271D02*
X14838542Y-14440223D01*
X15009971Y-14421175D02*
X15009971Y-14554509D01*
X14962352Y-14344985D02*
X14914733Y-14487842D01*
X14914733Y-14487842D02*
X15038542Y-14487842D01*
X15105209Y-14354509D02*
X15105209Y-14392604D01*
X15181400Y-14354509D02*
X15181400Y-14392604D01*
X15476638Y-14630699D02*
X15467114Y-14621175D01*
X15467114Y-14621175D02*
X15448066Y-14592604D01*
X15448066Y-14592604D02*
X15438543Y-14573556D01*
X15438543Y-14573556D02*
X15429019Y-14544985D01*
X15429019Y-14544985D02*
X15419495Y-14497366D01*
X15419495Y-14497366D02*
X15419495Y-14459271D01*
X15419495Y-14459271D02*
X15429019Y-14411652D01*
X15429019Y-14411652D02*
X15438543Y-14383080D01*
X15438543Y-14383080D02*
X15448066Y-14364033D01*
X15448066Y-14364033D02*
X15467114Y-14335461D01*
X15467114Y-14335461D02*
X15476638Y-14325937D01*
X15657590Y-14554509D02*
X15543304Y-14554509D01*
X15600447Y-14554509D02*
X15600447Y-14354509D01*
X15600447Y-14354509D02*
X15581400Y-14383080D01*
X15581400Y-14383080D02*
X15562352Y-14402128D01*
X15562352Y-14402128D02*
X15543304Y-14411652D01*
X15781400Y-14354509D02*
X15800447Y-14354509D01*
X15800447Y-14354509D02*
X15819495Y-14364033D01*
X15819495Y-14364033D02*
X15829019Y-14373556D01*
X15829019Y-14373556D02*
X15838543Y-14392604D01*
X15838543Y-14392604D02*
X15848066Y-14430699D01*
X15848066Y-14430699D02*
X15848066Y-14478318D01*
X15848066Y-14478318D02*
X15838543Y-14516413D01*
X15838543Y-14516413D02*
X15829019Y-14535461D01*
X15829019Y-14535461D02*
X15819495Y-14544985D01*
X15819495Y-14544985D02*
X15800447Y-14554509D01*
X15800447Y-14554509D02*
X15781400Y-14554509D01*
X15781400Y-14554509D02*
X15762352Y-14544985D01*
X15762352Y-14544985D02*
X15752828Y-14535461D01*
X15752828Y-14535461D02*
X15743304Y-14516413D01*
X15743304Y-14516413D02*
X15733781Y-14478318D01*
X15733781Y-14478318D02*
X15733781Y-14430699D01*
X15733781Y-14430699D02*
X15743304Y-14392604D01*
X15743304Y-14392604D02*
X15752828Y-14373556D01*
X15752828Y-14373556D02*
X15762352Y-14364033D01*
X15762352Y-14364033D02*
X15781400Y-14354509D01*
X16086162Y-14554509D02*
X16086162Y-14354509D01*
X16171876Y-14554509D02*
X16171876Y-14449747D01*
X16171876Y-14449747D02*
X16162352Y-14430699D01*
X16162352Y-14430699D02*
X16143305Y-14421175D01*
X16143305Y-14421175D02*
X16114733Y-14421175D01*
X16114733Y-14421175D02*
X16095685Y-14430699D01*
X16095685Y-14430699D02*
X16086162Y-14440223D01*
X16295685Y-14554509D02*
X16276638Y-14544985D01*
X16276638Y-14544985D02*
X16267114Y-14535461D01*
X16267114Y-14535461D02*
X16257590Y-14516413D01*
X16257590Y-14516413D02*
X16257590Y-14459271D01*
X16257590Y-14459271D02*
X16267114Y-14440223D01*
X16267114Y-14440223D02*
X16276638Y-14430699D01*
X16276638Y-14430699D02*
X16295685Y-14421175D01*
X16295685Y-14421175D02*
X16324257Y-14421175D01*
X16324257Y-14421175D02*
X16343305Y-14430699D01*
X16343305Y-14430699D02*
X16352828Y-14440223D01*
X16352828Y-14440223D02*
X16362352Y-14459271D01*
X16362352Y-14459271D02*
X16362352Y-14516413D01*
X16362352Y-14516413D02*
X16352828Y-14535461D01*
X16352828Y-14535461D02*
X16343305Y-14544985D01*
X16343305Y-14544985D02*
X16324257Y-14554509D01*
X16324257Y-14554509D02*
X16295685Y-14554509D01*
X16476638Y-14554509D02*
X16457590Y-14544985D01*
X16457590Y-14544985D02*
X16448066Y-14525937D01*
X16448066Y-14525937D02*
X16448066Y-14354509D01*
X16629019Y-14544985D02*
X16609971Y-14554509D01*
X16609971Y-14554509D02*
X16571876Y-14554509D01*
X16571876Y-14554509D02*
X16552828Y-14544985D01*
X16552828Y-14544985D02*
X16543305Y-14525937D01*
X16543305Y-14525937D02*
X16543305Y-14449747D01*
X16543305Y-14449747D02*
X16552828Y-14430699D01*
X16552828Y-14430699D02*
X16571876Y-14421175D01*
X16571876Y-14421175D02*
X16609971Y-14421175D01*
X16609971Y-14421175D02*
X16629019Y-14430699D01*
X16629019Y-14430699D02*
X16638543Y-14449747D01*
X16638543Y-14449747D02*
X16638543Y-14468794D01*
X16638543Y-14468794D02*
X16543305Y-14487842D01*
X16714733Y-14544985D02*
X16733781Y-14554509D01*
X16733781Y-14554509D02*
X16771876Y-14554509D01*
X16771876Y-14554509D02*
X16790924Y-14544985D01*
X16790924Y-14544985D02*
X16800448Y-14525937D01*
X16800448Y-14525937D02*
X16800448Y-14516413D01*
X16800448Y-14516413D02*
X16790924Y-14497366D01*
X16790924Y-14497366D02*
X16771876Y-14487842D01*
X16771876Y-14487842D02*
X16743305Y-14487842D01*
X16743305Y-14487842D02*
X16724257Y-14478318D01*
X16724257Y-14478318D02*
X16714733Y-14459271D01*
X16714733Y-14459271D02*
X16714733Y-14449747D01*
X16714733Y-14449747D02*
X16724257Y-14430699D01*
X16724257Y-14430699D02*
X16743305Y-14421175D01*
X16743305Y-14421175D02*
X16771876Y-14421175D01*
X16771876Y-14421175D02*
X16790924Y-14430699D01*
X16867114Y-14630699D02*
X16876638Y-14621175D01*
X16876638Y-14621175D02*
X16895686Y-14592604D01*
X16895686Y-14592604D02*
X16905209Y-14573556D01*
X16905209Y-14573556D02*
X16914733Y-14544985D01*
X16914733Y-14544985D02*
X16924257Y-14497366D01*
X16924257Y-14497366D02*
X16924257Y-14459271D01*
X16924257Y-14459271D02*
X16914733Y-14411652D01*
X16914733Y-14411652D02*
X16905209Y-14383080D01*
X16905209Y-14383080D02*
X16895686Y-14364033D01*
X16895686Y-14364033D02*
X16876638Y-14335461D01*
X16876638Y-14335461D02*
X16867114Y-14325937D01*
D14*
X11884002Y-14769452D02*
X11884002Y-14684598D01*
X11799148Y-14684598D01*
X11799148Y-14769452D01*
X11884002Y-14769452D01*
D10*
X12267114Y-14818509D02*
X12152828Y-14818509D01*
X12209971Y-14818509D02*
X12209971Y-14618509D01*
X12209971Y-14618509D02*
X12190923Y-14647080D01*
X12190923Y-14647080D02*
X12171876Y-14666128D01*
X12171876Y-14666128D02*
X12152828Y-14675652D01*
X12352828Y-14799461D02*
X12362352Y-14808985D01*
X12362352Y-14808985D02*
X12352828Y-14818509D01*
X12352828Y-14818509D02*
X12343304Y-14808985D01*
X12343304Y-14808985D02*
X12352828Y-14799461D01*
X12352828Y-14799461D02*
X12352828Y-14818509D01*
X12438542Y-14637556D02*
X12448066Y-14628033D01*
X12448066Y-14628033D02*
X12467114Y-14618509D01*
X12467114Y-14618509D02*
X12514733Y-14618509D01*
X12514733Y-14618509D02*
X12533780Y-14628033D01*
X12533780Y-14628033D02*
X12543304Y-14637556D01*
X12543304Y-14637556D02*
X12552828Y-14656604D01*
X12552828Y-14656604D02*
X12552828Y-14675652D01*
X12552828Y-14675652D02*
X12543304Y-14704223D01*
X12543304Y-14704223D02*
X12429018Y-14818509D01*
X12429018Y-14818509D02*
X12552828Y-14818509D01*
X12676637Y-14618509D02*
X12695685Y-14618509D01*
X12695685Y-14618509D02*
X12714733Y-14628033D01*
X12714733Y-14628033D02*
X12724257Y-14637556D01*
X12724257Y-14637556D02*
X12733780Y-14656604D01*
X12733780Y-14656604D02*
X12743304Y-14694699D01*
X12743304Y-14694699D02*
X12743304Y-14742318D01*
X12743304Y-14742318D02*
X12733780Y-14780413D01*
X12733780Y-14780413D02*
X12724257Y-14799461D01*
X12724257Y-14799461D02*
X12714733Y-14808985D01*
X12714733Y-14808985D02*
X12695685Y-14818509D01*
X12695685Y-14818509D02*
X12676637Y-14818509D01*
X12676637Y-14818509D02*
X12657590Y-14808985D01*
X12657590Y-14808985D02*
X12648066Y-14799461D01*
X12648066Y-14799461D02*
X12638542Y-14780413D01*
X12638542Y-14780413D02*
X12629018Y-14742318D01*
X12629018Y-14742318D02*
X12629018Y-14694699D01*
X12629018Y-14694699D02*
X12638542Y-14656604D01*
X12638542Y-14656604D02*
X12648066Y-14637556D01*
X12648066Y-14637556D02*
X12657590Y-14628033D01*
X12657590Y-14628033D02*
X12676637Y-14618509D01*
X12867114Y-14618509D02*
X12886161Y-14618509D01*
X12886161Y-14618509D02*
X12905209Y-14628033D01*
X12905209Y-14628033D02*
X12914733Y-14637556D01*
X12914733Y-14637556D02*
X12924257Y-14656604D01*
X12924257Y-14656604D02*
X12933780Y-14694699D01*
X12933780Y-14694699D02*
X12933780Y-14742318D01*
X12933780Y-14742318D02*
X12924257Y-14780413D01*
X12924257Y-14780413D02*
X12914733Y-14799461D01*
X12914733Y-14799461D02*
X12905209Y-14808985D01*
X12905209Y-14808985D02*
X12886161Y-14818509D01*
X12886161Y-14818509D02*
X12867114Y-14818509D01*
X12867114Y-14818509D02*
X12848066Y-14808985D01*
X12848066Y-14808985D02*
X12838542Y-14799461D01*
X12838542Y-14799461D02*
X12829018Y-14780413D01*
X12829018Y-14780413D02*
X12819495Y-14742318D01*
X12819495Y-14742318D02*
X12819495Y-14694699D01*
X12819495Y-14694699D02*
X12829018Y-14656604D01*
X12829018Y-14656604D02*
X12838542Y-14637556D01*
X12838542Y-14637556D02*
X12848066Y-14628033D01*
X12848066Y-14628033D02*
X12867114Y-14618509D01*
X13019495Y-14818509D02*
X13019495Y-14685175D01*
X13019495Y-14704223D02*
X13029018Y-14694699D01*
X13029018Y-14694699D02*
X13048066Y-14685175D01*
X13048066Y-14685175D02*
X13076638Y-14685175D01*
X13076638Y-14685175D02*
X13095685Y-14694699D01*
X13095685Y-14694699D02*
X13105209Y-14713747D01*
X13105209Y-14713747D02*
X13105209Y-14818509D01*
X13105209Y-14713747D02*
X13114733Y-14694699D01*
X13114733Y-14694699D02*
X13133780Y-14685175D01*
X13133780Y-14685175D02*
X13162352Y-14685175D01*
X13162352Y-14685175D02*
X13181399Y-14694699D01*
X13181399Y-14694699D02*
X13190923Y-14713747D01*
X13190923Y-14713747D02*
X13190923Y-14818509D01*
X13286161Y-14818509D02*
X13286161Y-14685175D01*
X13286161Y-14704223D02*
X13295685Y-14694699D01*
X13295685Y-14694699D02*
X13314733Y-14685175D01*
X13314733Y-14685175D02*
X13343304Y-14685175D01*
X13343304Y-14685175D02*
X13362352Y-14694699D01*
X13362352Y-14694699D02*
X13371876Y-14713747D01*
X13371876Y-14713747D02*
X13371876Y-14818509D01*
X13371876Y-14713747D02*
X13381399Y-14694699D01*
X13381399Y-14694699D02*
X13400447Y-14685175D01*
X13400447Y-14685175D02*
X13429018Y-14685175D01*
X13429018Y-14685175D02*
X13448066Y-14694699D01*
X13448066Y-14694699D02*
X13457590Y-14713747D01*
X13457590Y-14713747D02*
X13457590Y-14818509D01*
X13848066Y-14608985D02*
X13676638Y-14866128D01*
X14105209Y-14618509D02*
X14124257Y-14618509D01*
X14124257Y-14618509D02*
X14143304Y-14628033D01*
X14143304Y-14628033D02*
X14152828Y-14637556D01*
X14152828Y-14637556D02*
X14162352Y-14656604D01*
X14162352Y-14656604D02*
X14171876Y-14694699D01*
X14171876Y-14694699D02*
X14171876Y-14742318D01*
X14171876Y-14742318D02*
X14162352Y-14780413D01*
X14162352Y-14780413D02*
X14152828Y-14799461D01*
X14152828Y-14799461D02*
X14143304Y-14808985D01*
X14143304Y-14808985D02*
X14124257Y-14818509D01*
X14124257Y-14818509D02*
X14105209Y-14818509D01*
X14105209Y-14818509D02*
X14086161Y-14808985D01*
X14086161Y-14808985D02*
X14076638Y-14799461D01*
X14076638Y-14799461D02*
X14067114Y-14780413D01*
X14067114Y-14780413D02*
X14057590Y-14742318D01*
X14057590Y-14742318D02*
X14057590Y-14694699D01*
X14057590Y-14694699D02*
X14067114Y-14656604D01*
X14067114Y-14656604D02*
X14076638Y-14637556D01*
X14076638Y-14637556D02*
X14086161Y-14628033D01*
X14086161Y-14628033D02*
X14105209Y-14618509D01*
X14257590Y-14799461D02*
X14267114Y-14808985D01*
X14267114Y-14808985D02*
X14257590Y-14818509D01*
X14257590Y-14818509D02*
X14248066Y-14808985D01*
X14248066Y-14808985D02*
X14257590Y-14799461D01*
X14257590Y-14799461D02*
X14257590Y-14818509D01*
X14390923Y-14618509D02*
X14409971Y-14618509D01*
X14409971Y-14618509D02*
X14429019Y-14628033D01*
X14429019Y-14628033D02*
X14438542Y-14637556D01*
X14438542Y-14637556D02*
X14448066Y-14656604D01*
X14448066Y-14656604D02*
X14457590Y-14694699D01*
X14457590Y-14694699D02*
X14457590Y-14742318D01*
X14457590Y-14742318D02*
X14448066Y-14780413D01*
X14448066Y-14780413D02*
X14438542Y-14799461D01*
X14438542Y-14799461D02*
X14429019Y-14808985D01*
X14429019Y-14808985D02*
X14409971Y-14818509D01*
X14409971Y-14818509D02*
X14390923Y-14818509D01*
X14390923Y-14818509D02*
X14371876Y-14808985D01*
X14371876Y-14808985D02*
X14362352Y-14799461D01*
X14362352Y-14799461D02*
X14352828Y-14780413D01*
X14352828Y-14780413D02*
X14343304Y-14742318D01*
X14343304Y-14742318D02*
X14343304Y-14694699D01*
X14343304Y-14694699D02*
X14352828Y-14656604D01*
X14352828Y-14656604D02*
X14362352Y-14637556D01*
X14362352Y-14637556D02*
X14371876Y-14628033D01*
X14371876Y-14628033D02*
X14390923Y-14618509D01*
X14629019Y-14685175D02*
X14629019Y-14818509D01*
X14581400Y-14608985D02*
X14533781Y-14751842D01*
X14533781Y-14751842D02*
X14657590Y-14751842D01*
X14714733Y-14618509D02*
X14848066Y-14618509D01*
X14848066Y-14618509D02*
X14762352Y-14818509D01*
X14914733Y-14637556D02*
X14924257Y-14628033D01*
X14924257Y-14628033D02*
X14943304Y-14618509D01*
X14943304Y-14618509D02*
X14990923Y-14618509D01*
X14990923Y-14618509D02*
X15009971Y-14628033D01*
X15009971Y-14628033D02*
X15019495Y-14637556D01*
X15019495Y-14637556D02*
X15029019Y-14656604D01*
X15029019Y-14656604D02*
X15029019Y-14675652D01*
X15029019Y-14675652D02*
X15019495Y-14704223D01*
X15019495Y-14704223D02*
X14905209Y-14818509D01*
X14905209Y-14818509D02*
X15029019Y-14818509D01*
X15105209Y-14618509D02*
X15105209Y-14656604D01*
X15181400Y-14618509D02*
X15181400Y-14656604D01*
X15476638Y-14894699D02*
X15467114Y-14885175D01*
X15467114Y-14885175D02*
X15448066Y-14856604D01*
X15448066Y-14856604D02*
X15438543Y-14837556D01*
X15438543Y-14837556D02*
X15429019Y-14808985D01*
X15429019Y-14808985D02*
X15419495Y-14761366D01*
X15419495Y-14761366D02*
X15419495Y-14723271D01*
X15419495Y-14723271D02*
X15429019Y-14675652D01*
X15429019Y-14675652D02*
X15438543Y-14647080D01*
X15438543Y-14647080D02*
X15448066Y-14628033D01*
X15448066Y-14628033D02*
X15467114Y-14599461D01*
X15467114Y-14599461D02*
X15476638Y-14589937D01*
X15543304Y-14637556D02*
X15552828Y-14628033D01*
X15552828Y-14628033D02*
X15571876Y-14618509D01*
X15571876Y-14618509D02*
X15619495Y-14618509D01*
X15619495Y-14618509D02*
X15638543Y-14628033D01*
X15638543Y-14628033D02*
X15648066Y-14637556D01*
X15648066Y-14637556D02*
X15657590Y-14656604D01*
X15657590Y-14656604D02*
X15657590Y-14675652D01*
X15657590Y-14675652D02*
X15648066Y-14704223D01*
X15648066Y-14704223D02*
X15533781Y-14818509D01*
X15533781Y-14818509D02*
X15657590Y-14818509D01*
X15895685Y-14818509D02*
X15895685Y-14618509D01*
X15981400Y-14818509D02*
X15981400Y-14713747D01*
X15981400Y-14713747D02*
X15971876Y-14694699D01*
X15971876Y-14694699D02*
X15952828Y-14685175D01*
X15952828Y-14685175D02*
X15924257Y-14685175D01*
X15924257Y-14685175D02*
X15905209Y-14694699D01*
X15905209Y-14694699D02*
X15895685Y-14704223D01*
X16105209Y-14818509D02*
X16086162Y-14808985D01*
X16086162Y-14808985D02*
X16076638Y-14799461D01*
X16076638Y-14799461D02*
X16067114Y-14780413D01*
X16067114Y-14780413D02*
X16067114Y-14723271D01*
X16067114Y-14723271D02*
X16076638Y-14704223D01*
X16076638Y-14704223D02*
X16086162Y-14694699D01*
X16086162Y-14694699D02*
X16105209Y-14685175D01*
X16105209Y-14685175D02*
X16133781Y-14685175D01*
X16133781Y-14685175D02*
X16152828Y-14694699D01*
X16152828Y-14694699D02*
X16162352Y-14704223D01*
X16162352Y-14704223D02*
X16171876Y-14723271D01*
X16171876Y-14723271D02*
X16171876Y-14780413D01*
X16171876Y-14780413D02*
X16162352Y-14799461D01*
X16162352Y-14799461D02*
X16152828Y-14808985D01*
X16152828Y-14808985D02*
X16133781Y-14818509D01*
X16133781Y-14818509D02*
X16105209Y-14818509D01*
X16286162Y-14818509D02*
X16267114Y-14808985D01*
X16267114Y-14808985D02*
X16257590Y-14789937D01*
X16257590Y-14789937D02*
X16257590Y-14618509D01*
X16438543Y-14808985D02*
X16419495Y-14818509D01*
X16419495Y-14818509D02*
X16381400Y-14818509D01*
X16381400Y-14818509D02*
X16362352Y-14808985D01*
X16362352Y-14808985D02*
X16352828Y-14789937D01*
X16352828Y-14789937D02*
X16352828Y-14713747D01*
X16352828Y-14713747D02*
X16362352Y-14694699D01*
X16362352Y-14694699D02*
X16381400Y-14685175D01*
X16381400Y-14685175D02*
X16419495Y-14685175D01*
X16419495Y-14685175D02*
X16438543Y-14694699D01*
X16438543Y-14694699D02*
X16448066Y-14713747D01*
X16448066Y-14713747D02*
X16448066Y-14732794D01*
X16448066Y-14732794D02*
X16352828Y-14751842D01*
X16524257Y-14808985D02*
X16543305Y-14818509D01*
X16543305Y-14818509D02*
X16581400Y-14818509D01*
X16581400Y-14818509D02*
X16600447Y-14808985D01*
X16600447Y-14808985D02*
X16609971Y-14789937D01*
X16609971Y-14789937D02*
X16609971Y-14780413D01*
X16609971Y-14780413D02*
X16600447Y-14761366D01*
X16600447Y-14761366D02*
X16581400Y-14751842D01*
X16581400Y-14751842D02*
X16552828Y-14751842D01*
X16552828Y-14751842D02*
X16533781Y-14742318D01*
X16533781Y-14742318D02*
X16524257Y-14723271D01*
X16524257Y-14723271D02*
X16524257Y-14713747D01*
X16524257Y-14713747D02*
X16533781Y-14694699D01*
X16533781Y-14694699D02*
X16552828Y-14685175D01*
X16552828Y-14685175D02*
X16581400Y-14685175D01*
X16581400Y-14685175D02*
X16600447Y-14694699D01*
X16676638Y-14894699D02*
X16686162Y-14885175D01*
X16686162Y-14885175D02*
X16705209Y-14856604D01*
X16705209Y-14856604D02*
X16714733Y-14837556D01*
X16714733Y-14837556D02*
X16724257Y-14808985D01*
X16724257Y-14808985D02*
X16733781Y-14761366D01*
X16733781Y-14761366D02*
X16733781Y-14723271D01*
X16733781Y-14723271D02*
X16724257Y-14675652D01*
X16724257Y-14675652D02*
X16714733Y-14647080D01*
X16714733Y-14647080D02*
X16705209Y-14628033D01*
X16705209Y-14628033D02*
X16686162Y-14599461D01*
X16686162Y-14599461D02*
X16676638Y-14589937D01*
D15*
X11836575Y-15056025D02*
X11901575Y-14991025D01*
X11836575Y-14926025D01*
X11771575Y-14991025D01*
X11836575Y-15056025D01*
D10*
X12267114Y-15082509D02*
X12152828Y-15082509D01*
X12209971Y-15082509D02*
X12209971Y-14882509D01*
X12209971Y-14882509D02*
X12190923Y-14911080D01*
X12190923Y-14911080D02*
X12171876Y-14930128D01*
X12171876Y-14930128D02*
X12152828Y-14939652D01*
X12352828Y-15063461D02*
X12362352Y-15072985D01*
X12362352Y-15072985D02*
X12352828Y-15082509D01*
X12352828Y-15082509D02*
X12343304Y-15072985D01*
X12343304Y-15072985D02*
X12352828Y-15063461D01*
X12352828Y-15063461D02*
X12352828Y-15082509D01*
X12429018Y-14882509D02*
X12552828Y-14882509D01*
X12552828Y-14882509D02*
X12486161Y-14958699D01*
X12486161Y-14958699D02*
X12514733Y-14958699D01*
X12514733Y-14958699D02*
X12533780Y-14968223D01*
X12533780Y-14968223D02*
X12543304Y-14977747D01*
X12543304Y-14977747D02*
X12552828Y-14996794D01*
X12552828Y-14996794D02*
X12552828Y-15044413D01*
X12552828Y-15044413D02*
X12543304Y-15063461D01*
X12543304Y-15063461D02*
X12533780Y-15072985D01*
X12533780Y-15072985D02*
X12514733Y-15082509D01*
X12514733Y-15082509D02*
X12457590Y-15082509D01*
X12457590Y-15082509D02*
X12438542Y-15072985D01*
X12438542Y-15072985D02*
X12429018Y-15063461D01*
X12676637Y-14882509D02*
X12695685Y-14882509D01*
X12695685Y-14882509D02*
X12714733Y-14892033D01*
X12714733Y-14892033D02*
X12724257Y-14901556D01*
X12724257Y-14901556D02*
X12733780Y-14920604D01*
X12733780Y-14920604D02*
X12743304Y-14958699D01*
X12743304Y-14958699D02*
X12743304Y-15006318D01*
X12743304Y-15006318D02*
X12733780Y-15044413D01*
X12733780Y-15044413D02*
X12724257Y-15063461D01*
X12724257Y-15063461D02*
X12714733Y-15072985D01*
X12714733Y-15072985D02*
X12695685Y-15082509D01*
X12695685Y-15082509D02*
X12676637Y-15082509D01*
X12676637Y-15082509D02*
X12657590Y-15072985D01*
X12657590Y-15072985D02*
X12648066Y-15063461D01*
X12648066Y-15063461D02*
X12638542Y-15044413D01*
X12638542Y-15044413D02*
X12629018Y-15006318D01*
X12629018Y-15006318D02*
X12629018Y-14958699D01*
X12629018Y-14958699D02*
X12638542Y-14920604D01*
X12638542Y-14920604D02*
X12648066Y-14901556D01*
X12648066Y-14901556D02*
X12657590Y-14892033D01*
X12657590Y-14892033D02*
X12676637Y-14882509D01*
X12867114Y-14882509D02*
X12886161Y-14882509D01*
X12886161Y-14882509D02*
X12905209Y-14892033D01*
X12905209Y-14892033D02*
X12914733Y-14901556D01*
X12914733Y-14901556D02*
X12924257Y-14920604D01*
X12924257Y-14920604D02*
X12933780Y-14958699D01*
X12933780Y-14958699D02*
X12933780Y-15006318D01*
X12933780Y-15006318D02*
X12924257Y-15044413D01*
X12924257Y-15044413D02*
X12914733Y-15063461D01*
X12914733Y-15063461D02*
X12905209Y-15072985D01*
X12905209Y-15072985D02*
X12886161Y-15082509D01*
X12886161Y-15082509D02*
X12867114Y-15082509D01*
X12867114Y-15082509D02*
X12848066Y-15072985D01*
X12848066Y-15072985D02*
X12838542Y-15063461D01*
X12838542Y-15063461D02*
X12829018Y-15044413D01*
X12829018Y-15044413D02*
X12819495Y-15006318D01*
X12819495Y-15006318D02*
X12819495Y-14958699D01*
X12819495Y-14958699D02*
X12829018Y-14920604D01*
X12829018Y-14920604D02*
X12838542Y-14901556D01*
X12838542Y-14901556D02*
X12848066Y-14892033D01*
X12848066Y-14892033D02*
X12867114Y-14882509D01*
X13019495Y-15082509D02*
X13019495Y-14949175D01*
X13019495Y-14968223D02*
X13029018Y-14958699D01*
X13029018Y-14958699D02*
X13048066Y-14949175D01*
X13048066Y-14949175D02*
X13076638Y-14949175D01*
X13076638Y-14949175D02*
X13095685Y-14958699D01*
X13095685Y-14958699D02*
X13105209Y-14977747D01*
X13105209Y-14977747D02*
X13105209Y-15082509D01*
X13105209Y-14977747D02*
X13114733Y-14958699D01*
X13114733Y-14958699D02*
X13133780Y-14949175D01*
X13133780Y-14949175D02*
X13162352Y-14949175D01*
X13162352Y-14949175D02*
X13181399Y-14958699D01*
X13181399Y-14958699D02*
X13190923Y-14977747D01*
X13190923Y-14977747D02*
X13190923Y-15082509D01*
X13286161Y-15082509D02*
X13286161Y-14949175D01*
X13286161Y-14968223D02*
X13295685Y-14958699D01*
X13295685Y-14958699D02*
X13314733Y-14949175D01*
X13314733Y-14949175D02*
X13343304Y-14949175D01*
X13343304Y-14949175D02*
X13362352Y-14958699D01*
X13362352Y-14958699D02*
X13371876Y-14977747D01*
X13371876Y-14977747D02*
X13371876Y-15082509D01*
X13371876Y-14977747D02*
X13381399Y-14958699D01*
X13381399Y-14958699D02*
X13400447Y-14949175D01*
X13400447Y-14949175D02*
X13429018Y-14949175D01*
X13429018Y-14949175D02*
X13448066Y-14958699D01*
X13448066Y-14958699D02*
X13457590Y-14977747D01*
X13457590Y-14977747D02*
X13457590Y-15082509D01*
X13848066Y-14872985D02*
X13676638Y-15130128D01*
X14105209Y-14882509D02*
X14124257Y-14882509D01*
X14124257Y-14882509D02*
X14143304Y-14892033D01*
X14143304Y-14892033D02*
X14152828Y-14901556D01*
X14152828Y-14901556D02*
X14162352Y-14920604D01*
X14162352Y-14920604D02*
X14171876Y-14958699D01*
X14171876Y-14958699D02*
X14171876Y-15006318D01*
X14171876Y-15006318D02*
X14162352Y-15044413D01*
X14162352Y-15044413D02*
X14152828Y-15063461D01*
X14152828Y-15063461D02*
X14143304Y-15072985D01*
X14143304Y-15072985D02*
X14124257Y-15082509D01*
X14124257Y-15082509D02*
X14105209Y-15082509D01*
X14105209Y-15082509D02*
X14086161Y-15072985D01*
X14086161Y-15072985D02*
X14076638Y-15063461D01*
X14076638Y-15063461D02*
X14067114Y-15044413D01*
X14067114Y-15044413D02*
X14057590Y-15006318D01*
X14057590Y-15006318D02*
X14057590Y-14958699D01*
X14057590Y-14958699D02*
X14067114Y-14920604D01*
X14067114Y-14920604D02*
X14076638Y-14901556D01*
X14076638Y-14901556D02*
X14086161Y-14892033D01*
X14086161Y-14892033D02*
X14105209Y-14882509D01*
X14257590Y-15063461D02*
X14267114Y-15072985D01*
X14267114Y-15072985D02*
X14257590Y-15082509D01*
X14257590Y-15082509D02*
X14248066Y-15072985D01*
X14248066Y-15072985D02*
X14257590Y-15063461D01*
X14257590Y-15063461D02*
X14257590Y-15082509D01*
X14390923Y-14882509D02*
X14409971Y-14882509D01*
X14409971Y-14882509D02*
X14429019Y-14892033D01*
X14429019Y-14892033D02*
X14438542Y-14901556D01*
X14438542Y-14901556D02*
X14448066Y-14920604D01*
X14448066Y-14920604D02*
X14457590Y-14958699D01*
X14457590Y-14958699D02*
X14457590Y-15006318D01*
X14457590Y-15006318D02*
X14448066Y-15044413D01*
X14448066Y-15044413D02*
X14438542Y-15063461D01*
X14438542Y-15063461D02*
X14429019Y-15072985D01*
X14429019Y-15072985D02*
X14409971Y-15082509D01*
X14409971Y-15082509D02*
X14390923Y-15082509D01*
X14390923Y-15082509D02*
X14371876Y-15072985D01*
X14371876Y-15072985D02*
X14362352Y-15063461D01*
X14362352Y-15063461D02*
X14352828Y-15044413D01*
X14352828Y-15044413D02*
X14343304Y-15006318D01*
X14343304Y-15006318D02*
X14343304Y-14958699D01*
X14343304Y-14958699D02*
X14352828Y-14920604D01*
X14352828Y-14920604D02*
X14362352Y-14901556D01*
X14362352Y-14901556D02*
X14371876Y-14892033D01*
X14371876Y-14892033D02*
X14390923Y-14882509D01*
X14638542Y-14882509D02*
X14543304Y-14882509D01*
X14543304Y-14882509D02*
X14533781Y-14977747D01*
X14533781Y-14977747D02*
X14543304Y-14968223D01*
X14543304Y-14968223D02*
X14562352Y-14958699D01*
X14562352Y-14958699D02*
X14609971Y-14958699D01*
X14609971Y-14958699D02*
X14629019Y-14968223D01*
X14629019Y-14968223D02*
X14638542Y-14977747D01*
X14638542Y-14977747D02*
X14648066Y-14996794D01*
X14648066Y-14996794D02*
X14648066Y-15044413D01*
X14648066Y-15044413D02*
X14638542Y-15063461D01*
X14638542Y-15063461D02*
X14629019Y-15072985D01*
X14629019Y-15072985D02*
X14609971Y-15082509D01*
X14609971Y-15082509D02*
X14562352Y-15082509D01*
X14562352Y-15082509D02*
X14543304Y-15072985D01*
X14543304Y-15072985D02*
X14533781Y-15063461D01*
X14838542Y-15082509D02*
X14724257Y-15082509D01*
X14781400Y-15082509D02*
X14781400Y-14882509D01*
X14781400Y-14882509D02*
X14762352Y-14911080D01*
X14762352Y-14911080D02*
X14743304Y-14930128D01*
X14743304Y-14930128D02*
X14724257Y-14939652D01*
X14914733Y-14901556D02*
X14924257Y-14892033D01*
X14924257Y-14892033D02*
X14943304Y-14882509D01*
X14943304Y-14882509D02*
X14990923Y-14882509D01*
X14990923Y-14882509D02*
X15009971Y-14892033D01*
X15009971Y-14892033D02*
X15019495Y-14901556D01*
X15019495Y-14901556D02*
X15029019Y-14920604D01*
X15029019Y-14920604D02*
X15029019Y-14939652D01*
X15029019Y-14939652D02*
X15019495Y-14968223D01*
X15019495Y-14968223D02*
X14905209Y-15082509D01*
X14905209Y-15082509D02*
X15029019Y-15082509D01*
X15105209Y-14882509D02*
X15105209Y-14920604D01*
X15181400Y-14882509D02*
X15181400Y-14920604D01*
X15476638Y-15158699D02*
X15467114Y-15149175D01*
X15467114Y-15149175D02*
X15448066Y-15120604D01*
X15448066Y-15120604D02*
X15438543Y-15101556D01*
X15438543Y-15101556D02*
X15429019Y-15072985D01*
X15429019Y-15072985D02*
X15419495Y-15025366D01*
X15419495Y-15025366D02*
X15419495Y-14987271D01*
X15419495Y-14987271D02*
X15429019Y-14939652D01*
X15429019Y-14939652D02*
X15438543Y-14911080D01*
X15438543Y-14911080D02*
X15448066Y-14892033D01*
X15448066Y-14892033D02*
X15467114Y-14863461D01*
X15467114Y-14863461D02*
X15476638Y-14853937D01*
X15657590Y-15082509D02*
X15543304Y-15082509D01*
X15600447Y-15082509D02*
X15600447Y-14882509D01*
X15600447Y-14882509D02*
X15581400Y-14911080D01*
X15581400Y-14911080D02*
X15562352Y-14930128D01*
X15562352Y-14930128D02*
X15543304Y-14939652D01*
X15781400Y-14882509D02*
X15800447Y-14882509D01*
X15800447Y-14882509D02*
X15819495Y-14892033D01*
X15819495Y-14892033D02*
X15829019Y-14901556D01*
X15829019Y-14901556D02*
X15838543Y-14920604D01*
X15838543Y-14920604D02*
X15848066Y-14958699D01*
X15848066Y-14958699D02*
X15848066Y-15006318D01*
X15848066Y-15006318D02*
X15838543Y-15044413D01*
X15838543Y-15044413D02*
X15829019Y-15063461D01*
X15829019Y-15063461D02*
X15819495Y-15072985D01*
X15819495Y-15072985D02*
X15800447Y-15082509D01*
X15800447Y-15082509D02*
X15781400Y-15082509D01*
X15781400Y-15082509D02*
X15762352Y-15072985D01*
X15762352Y-15072985D02*
X15752828Y-15063461D01*
X15752828Y-15063461D02*
X15743304Y-15044413D01*
X15743304Y-15044413D02*
X15733781Y-15006318D01*
X15733781Y-15006318D02*
X15733781Y-14958699D01*
X15733781Y-14958699D02*
X15743304Y-14920604D01*
X15743304Y-14920604D02*
X15752828Y-14901556D01*
X15752828Y-14901556D02*
X15762352Y-14892033D01*
X15762352Y-14892033D02*
X15781400Y-14882509D01*
X16086162Y-15082509D02*
X16086162Y-14882509D01*
X16171876Y-15082509D02*
X16171876Y-14977747D01*
X16171876Y-14977747D02*
X16162352Y-14958699D01*
X16162352Y-14958699D02*
X16143305Y-14949175D01*
X16143305Y-14949175D02*
X16114733Y-14949175D01*
X16114733Y-14949175D02*
X16095685Y-14958699D01*
X16095685Y-14958699D02*
X16086162Y-14968223D01*
X16295685Y-15082509D02*
X16276638Y-15072985D01*
X16276638Y-15072985D02*
X16267114Y-15063461D01*
X16267114Y-15063461D02*
X16257590Y-15044413D01*
X16257590Y-15044413D02*
X16257590Y-14987271D01*
X16257590Y-14987271D02*
X16267114Y-14968223D01*
X16267114Y-14968223D02*
X16276638Y-14958699D01*
X16276638Y-14958699D02*
X16295685Y-14949175D01*
X16295685Y-14949175D02*
X16324257Y-14949175D01*
X16324257Y-14949175D02*
X16343305Y-14958699D01*
X16343305Y-14958699D02*
X16352828Y-14968223D01*
X16352828Y-14968223D02*
X16362352Y-14987271D01*
X16362352Y-14987271D02*
X16362352Y-15044413D01*
X16362352Y-15044413D02*
X16352828Y-15063461D01*
X16352828Y-15063461D02*
X16343305Y-15072985D01*
X16343305Y-15072985D02*
X16324257Y-15082509D01*
X16324257Y-15082509D02*
X16295685Y-15082509D01*
X16476638Y-15082509D02*
X16457590Y-15072985D01*
X16457590Y-15072985D02*
X16448066Y-15053937D01*
X16448066Y-15053937D02*
X16448066Y-14882509D01*
X16629019Y-15072985D02*
X16609971Y-15082509D01*
X16609971Y-15082509D02*
X16571876Y-15082509D01*
X16571876Y-15082509D02*
X16552828Y-15072985D01*
X16552828Y-15072985D02*
X16543305Y-15053937D01*
X16543305Y-15053937D02*
X16543305Y-14977747D01*
X16543305Y-14977747D02*
X16552828Y-14958699D01*
X16552828Y-14958699D02*
X16571876Y-14949175D01*
X16571876Y-14949175D02*
X16609971Y-14949175D01*
X16609971Y-14949175D02*
X16629019Y-14958699D01*
X16629019Y-14958699D02*
X16638543Y-14977747D01*
X16638543Y-14977747D02*
X16638543Y-14996794D01*
X16638543Y-14996794D02*
X16543305Y-15015842D01*
X16714733Y-15072985D02*
X16733781Y-15082509D01*
X16733781Y-15082509D02*
X16771876Y-15082509D01*
X16771876Y-15082509D02*
X16790924Y-15072985D01*
X16790924Y-15072985D02*
X16800448Y-15053937D01*
X16800448Y-15053937D02*
X16800448Y-15044413D01*
X16800448Y-15044413D02*
X16790924Y-15025366D01*
X16790924Y-15025366D02*
X16771876Y-15015842D01*
X16771876Y-15015842D02*
X16743305Y-15015842D01*
X16743305Y-15015842D02*
X16724257Y-15006318D01*
X16724257Y-15006318D02*
X16714733Y-14987271D01*
X16714733Y-14987271D02*
X16714733Y-14977747D01*
X16714733Y-14977747D02*
X16724257Y-14958699D01*
X16724257Y-14958699D02*
X16743305Y-14949175D01*
X16743305Y-14949175D02*
X16771876Y-14949175D01*
X16771876Y-14949175D02*
X16790924Y-14958699D01*
X16867114Y-15158699D02*
X16876638Y-15149175D01*
X16876638Y-15149175D02*
X16895686Y-15120604D01*
X16895686Y-15120604D02*
X16905209Y-15101556D01*
X16905209Y-15101556D02*
X16914733Y-15072985D01*
X16914733Y-15072985D02*
X16924257Y-15025366D01*
X16924257Y-15025366D02*
X16924257Y-14987271D01*
X16924257Y-14987271D02*
X16914733Y-14939652D01*
X16914733Y-14939652D02*
X16905209Y-14911080D01*
X16905209Y-14911080D02*
X16895686Y-14892033D01*
X16895686Y-14892033D02*
X16876638Y-14863461D01*
X16876638Y-14863461D02*
X16867114Y-14853937D01*
D16*
X11749575Y-15179025D02*
X11901575Y-15331025D01*
X11901575Y-15179025D02*
X11749575Y-15331025D01*
X11901575Y-15255025D02*
G75*
G03*
X11901575Y-15255025I-76000J0D01*
G01*
D10*
X12267114Y-15346509D02*
X12152828Y-15346509D01*
X12209971Y-15346509D02*
X12209971Y-15146509D01*
X12209971Y-15146509D02*
X12190923Y-15175080D01*
X12190923Y-15175080D02*
X12171876Y-15194128D01*
X12171876Y-15194128D02*
X12152828Y-15203652D01*
X12352828Y-15327461D02*
X12362352Y-15336985D01*
X12362352Y-15336985D02*
X12352828Y-15346509D01*
X12352828Y-15346509D02*
X12343304Y-15336985D01*
X12343304Y-15336985D02*
X12352828Y-15327461D01*
X12352828Y-15327461D02*
X12352828Y-15346509D01*
X12543304Y-15146509D02*
X12448066Y-15146509D01*
X12448066Y-15146509D02*
X12438542Y-15241747D01*
X12438542Y-15241747D02*
X12448066Y-15232223D01*
X12448066Y-15232223D02*
X12467114Y-15222699D01*
X12467114Y-15222699D02*
X12514733Y-15222699D01*
X12514733Y-15222699D02*
X12533780Y-15232223D01*
X12533780Y-15232223D02*
X12543304Y-15241747D01*
X12543304Y-15241747D02*
X12552828Y-15260794D01*
X12552828Y-15260794D02*
X12552828Y-15308413D01*
X12552828Y-15308413D02*
X12543304Y-15327461D01*
X12543304Y-15327461D02*
X12533780Y-15336985D01*
X12533780Y-15336985D02*
X12514733Y-15346509D01*
X12514733Y-15346509D02*
X12467114Y-15346509D01*
X12467114Y-15346509D02*
X12448066Y-15336985D01*
X12448066Y-15336985D02*
X12438542Y-15327461D01*
X12629018Y-15165556D02*
X12638542Y-15156033D01*
X12638542Y-15156033D02*
X12657590Y-15146509D01*
X12657590Y-15146509D02*
X12705209Y-15146509D01*
X12705209Y-15146509D02*
X12724257Y-15156033D01*
X12724257Y-15156033D02*
X12733780Y-15165556D01*
X12733780Y-15165556D02*
X12743304Y-15184604D01*
X12743304Y-15184604D02*
X12743304Y-15203652D01*
X12743304Y-15203652D02*
X12733780Y-15232223D01*
X12733780Y-15232223D02*
X12619495Y-15346509D01*
X12619495Y-15346509D02*
X12743304Y-15346509D01*
X12867114Y-15146509D02*
X12886161Y-15146509D01*
X12886161Y-15146509D02*
X12905209Y-15156033D01*
X12905209Y-15156033D02*
X12914733Y-15165556D01*
X12914733Y-15165556D02*
X12924257Y-15184604D01*
X12924257Y-15184604D02*
X12933780Y-15222699D01*
X12933780Y-15222699D02*
X12933780Y-15270318D01*
X12933780Y-15270318D02*
X12924257Y-15308413D01*
X12924257Y-15308413D02*
X12914733Y-15327461D01*
X12914733Y-15327461D02*
X12905209Y-15336985D01*
X12905209Y-15336985D02*
X12886161Y-15346509D01*
X12886161Y-15346509D02*
X12867114Y-15346509D01*
X12867114Y-15346509D02*
X12848066Y-15336985D01*
X12848066Y-15336985D02*
X12838542Y-15327461D01*
X12838542Y-15327461D02*
X12829018Y-15308413D01*
X12829018Y-15308413D02*
X12819495Y-15270318D01*
X12819495Y-15270318D02*
X12819495Y-15222699D01*
X12819495Y-15222699D02*
X12829018Y-15184604D01*
X12829018Y-15184604D02*
X12838542Y-15165556D01*
X12838542Y-15165556D02*
X12848066Y-15156033D01*
X12848066Y-15156033D02*
X12867114Y-15146509D01*
X13019495Y-15346509D02*
X13019495Y-15213175D01*
X13019495Y-15232223D02*
X13029018Y-15222699D01*
X13029018Y-15222699D02*
X13048066Y-15213175D01*
X13048066Y-15213175D02*
X13076638Y-15213175D01*
X13076638Y-15213175D02*
X13095685Y-15222699D01*
X13095685Y-15222699D02*
X13105209Y-15241747D01*
X13105209Y-15241747D02*
X13105209Y-15346509D01*
X13105209Y-15241747D02*
X13114733Y-15222699D01*
X13114733Y-15222699D02*
X13133780Y-15213175D01*
X13133780Y-15213175D02*
X13162352Y-15213175D01*
X13162352Y-15213175D02*
X13181399Y-15222699D01*
X13181399Y-15222699D02*
X13190923Y-15241747D01*
X13190923Y-15241747D02*
X13190923Y-15346509D01*
X13286161Y-15346509D02*
X13286161Y-15213175D01*
X13286161Y-15232223D02*
X13295685Y-15222699D01*
X13295685Y-15222699D02*
X13314733Y-15213175D01*
X13314733Y-15213175D02*
X13343304Y-15213175D01*
X13343304Y-15213175D02*
X13362352Y-15222699D01*
X13362352Y-15222699D02*
X13371876Y-15241747D01*
X13371876Y-15241747D02*
X13371876Y-15346509D01*
X13371876Y-15241747D02*
X13381399Y-15222699D01*
X13381399Y-15222699D02*
X13400447Y-15213175D01*
X13400447Y-15213175D02*
X13429018Y-15213175D01*
X13429018Y-15213175D02*
X13448066Y-15222699D01*
X13448066Y-15222699D02*
X13457590Y-15241747D01*
X13457590Y-15241747D02*
X13457590Y-15346509D01*
X13848066Y-15136985D02*
X13676638Y-15394128D01*
X14105209Y-15146509D02*
X14124257Y-15146509D01*
X14124257Y-15146509D02*
X14143304Y-15156033D01*
X14143304Y-15156033D02*
X14152828Y-15165556D01*
X14152828Y-15165556D02*
X14162352Y-15184604D01*
X14162352Y-15184604D02*
X14171876Y-15222699D01*
X14171876Y-15222699D02*
X14171876Y-15270318D01*
X14171876Y-15270318D02*
X14162352Y-15308413D01*
X14162352Y-15308413D02*
X14152828Y-15327461D01*
X14152828Y-15327461D02*
X14143304Y-15336985D01*
X14143304Y-15336985D02*
X14124257Y-15346509D01*
X14124257Y-15346509D02*
X14105209Y-15346509D01*
X14105209Y-15346509D02*
X14086161Y-15336985D01*
X14086161Y-15336985D02*
X14076638Y-15327461D01*
X14076638Y-15327461D02*
X14067114Y-15308413D01*
X14067114Y-15308413D02*
X14057590Y-15270318D01*
X14057590Y-15270318D02*
X14057590Y-15222699D01*
X14057590Y-15222699D02*
X14067114Y-15184604D01*
X14067114Y-15184604D02*
X14076638Y-15165556D01*
X14076638Y-15165556D02*
X14086161Y-15156033D01*
X14086161Y-15156033D02*
X14105209Y-15146509D01*
X14257590Y-15327461D02*
X14267114Y-15336985D01*
X14267114Y-15336985D02*
X14257590Y-15346509D01*
X14257590Y-15346509D02*
X14248066Y-15336985D01*
X14248066Y-15336985D02*
X14257590Y-15327461D01*
X14257590Y-15327461D02*
X14257590Y-15346509D01*
X14390923Y-15146509D02*
X14409971Y-15146509D01*
X14409971Y-15146509D02*
X14429019Y-15156033D01*
X14429019Y-15156033D02*
X14438542Y-15165556D01*
X14438542Y-15165556D02*
X14448066Y-15184604D01*
X14448066Y-15184604D02*
X14457590Y-15222699D01*
X14457590Y-15222699D02*
X14457590Y-15270318D01*
X14457590Y-15270318D02*
X14448066Y-15308413D01*
X14448066Y-15308413D02*
X14438542Y-15327461D01*
X14438542Y-15327461D02*
X14429019Y-15336985D01*
X14429019Y-15336985D02*
X14409971Y-15346509D01*
X14409971Y-15346509D02*
X14390923Y-15346509D01*
X14390923Y-15346509D02*
X14371876Y-15336985D01*
X14371876Y-15336985D02*
X14362352Y-15327461D01*
X14362352Y-15327461D02*
X14352828Y-15308413D01*
X14352828Y-15308413D02*
X14343304Y-15270318D01*
X14343304Y-15270318D02*
X14343304Y-15222699D01*
X14343304Y-15222699D02*
X14352828Y-15184604D01*
X14352828Y-15184604D02*
X14362352Y-15165556D01*
X14362352Y-15165556D02*
X14371876Y-15156033D01*
X14371876Y-15156033D02*
X14390923Y-15146509D01*
X14638542Y-15146509D02*
X14543304Y-15146509D01*
X14543304Y-15146509D02*
X14533781Y-15241747D01*
X14533781Y-15241747D02*
X14543304Y-15232223D01*
X14543304Y-15232223D02*
X14562352Y-15222699D01*
X14562352Y-15222699D02*
X14609971Y-15222699D01*
X14609971Y-15222699D02*
X14629019Y-15232223D01*
X14629019Y-15232223D02*
X14638542Y-15241747D01*
X14638542Y-15241747D02*
X14648066Y-15260794D01*
X14648066Y-15260794D02*
X14648066Y-15308413D01*
X14648066Y-15308413D02*
X14638542Y-15327461D01*
X14638542Y-15327461D02*
X14629019Y-15336985D01*
X14629019Y-15336985D02*
X14609971Y-15346509D01*
X14609971Y-15346509D02*
X14562352Y-15346509D01*
X14562352Y-15346509D02*
X14543304Y-15336985D01*
X14543304Y-15336985D02*
X14533781Y-15327461D01*
X14743304Y-15346509D02*
X14781400Y-15346509D01*
X14781400Y-15346509D02*
X14800447Y-15336985D01*
X14800447Y-15336985D02*
X14809971Y-15327461D01*
X14809971Y-15327461D02*
X14829019Y-15298890D01*
X14829019Y-15298890D02*
X14838542Y-15260794D01*
X14838542Y-15260794D02*
X14838542Y-15184604D01*
X14838542Y-15184604D02*
X14829019Y-15165556D01*
X14829019Y-15165556D02*
X14819495Y-15156033D01*
X14819495Y-15156033D02*
X14800447Y-15146509D01*
X14800447Y-15146509D02*
X14762352Y-15146509D01*
X14762352Y-15146509D02*
X14743304Y-15156033D01*
X14743304Y-15156033D02*
X14733781Y-15165556D01*
X14733781Y-15165556D02*
X14724257Y-15184604D01*
X14724257Y-15184604D02*
X14724257Y-15232223D01*
X14724257Y-15232223D02*
X14733781Y-15251271D01*
X14733781Y-15251271D02*
X14743304Y-15260794D01*
X14743304Y-15260794D02*
X14762352Y-15270318D01*
X14762352Y-15270318D02*
X14800447Y-15270318D01*
X14800447Y-15270318D02*
X14819495Y-15260794D01*
X14819495Y-15260794D02*
X14829019Y-15251271D01*
X14829019Y-15251271D02*
X14838542Y-15232223D01*
X14952828Y-15232223D02*
X14933781Y-15222699D01*
X14933781Y-15222699D02*
X14924257Y-15213175D01*
X14924257Y-15213175D02*
X14914733Y-15194128D01*
X14914733Y-15194128D02*
X14914733Y-15184604D01*
X14914733Y-15184604D02*
X14924257Y-15165556D01*
X14924257Y-15165556D02*
X14933781Y-15156033D01*
X14933781Y-15156033D02*
X14952828Y-15146509D01*
X14952828Y-15146509D02*
X14990923Y-15146509D01*
X14990923Y-15146509D02*
X15009971Y-15156033D01*
X15009971Y-15156033D02*
X15019495Y-15165556D01*
X15019495Y-15165556D02*
X15029019Y-15184604D01*
X15029019Y-15184604D02*
X15029019Y-15194128D01*
X15029019Y-15194128D02*
X15019495Y-15213175D01*
X15019495Y-15213175D02*
X15009971Y-15222699D01*
X15009971Y-15222699D02*
X14990923Y-15232223D01*
X14990923Y-15232223D02*
X14952828Y-15232223D01*
X14952828Y-15232223D02*
X14933781Y-15241747D01*
X14933781Y-15241747D02*
X14924257Y-15251271D01*
X14924257Y-15251271D02*
X14914733Y-15270318D01*
X14914733Y-15270318D02*
X14914733Y-15308413D01*
X14914733Y-15308413D02*
X14924257Y-15327461D01*
X14924257Y-15327461D02*
X14933781Y-15336985D01*
X14933781Y-15336985D02*
X14952828Y-15346509D01*
X14952828Y-15346509D02*
X14990923Y-15346509D01*
X14990923Y-15346509D02*
X15009971Y-15336985D01*
X15009971Y-15336985D02*
X15019495Y-15327461D01*
X15019495Y-15327461D02*
X15029019Y-15308413D01*
X15029019Y-15308413D02*
X15029019Y-15270318D01*
X15029019Y-15270318D02*
X15019495Y-15251271D01*
X15019495Y-15251271D02*
X15009971Y-15241747D01*
X15009971Y-15241747D02*
X14990923Y-15232223D01*
X15105209Y-15146509D02*
X15105209Y-15184604D01*
X15181400Y-15146509D02*
X15181400Y-15184604D01*
X15476638Y-15422699D02*
X15467114Y-15413175D01*
X15467114Y-15413175D02*
X15448066Y-15384604D01*
X15448066Y-15384604D02*
X15438543Y-15365556D01*
X15438543Y-15365556D02*
X15429019Y-15336985D01*
X15429019Y-15336985D02*
X15419495Y-15289366D01*
X15419495Y-15289366D02*
X15419495Y-15251271D01*
X15419495Y-15251271D02*
X15429019Y-15203652D01*
X15429019Y-15203652D02*
X15438543Y-15175080D01*
X15438543Y-15175080D02*
X15448066Y-15156033D01*
X15448066Y-15156033D02*
X15467114Y-15127461D01*
X15467114Y-15127461D02*
X15476638Y-15117937D01*
X15638543Y-15213175D02*
X15638543Y-15346509D01*
X15590923Y-15136985D02*
X15543304Y-15279842D01*
X15543304Y-15279842D02*
X15667114Y-15279842D01*
X15895685Y-15346509D02*
X15895685Y-15146509D01*
X15981400Y-15346509D02*
X15981400Y-15241747D01*
X15981400Y-15241747D02*
X15971876Y-15222699D01*
X15971876Y-15222699D02*
X15952828Y-15213175D01*
X15952828Y-15213175D02*
X15924257Y-15213175D01*
X15924257Y-15213175D02*
X15905209Y-15222699D01*
X15905209Y-15222699D02*
X15895685Y-15232223D01*
X16105209Y-15346509D02*
X16086162Y-15336985D01*
X16086162Y-15336985D02*
X16076638Y-15327461D01*
X16076638Y-15327461D02*
X16067114Y-15308413D01*
X16067114Y-15308413D02*
X16067114Y-15251271D01*
X16067114Y-15251271D02*
X16076638Y-15232223D01*
X16076638Y-15232223D02*
X16086162Y-15222699D01*
X16086162Y-15222699D02*
X16105209Y-15213175D01*
X16105209Y-15213175D02*
X16133781Y-15213175D01*
X16133781Y-15213175D02*
X16152828Y-15222699D01*
X16152828Y-15222699D02*
X16162352Y-15232223D01*
X16162352Y-15232223D02*
X16171876Y-15251271D01*
X16171876Y-15251271D02*
X16171876Y-15308413D01*
X16171876Y-15308413D02*
X16162352Y-15327461D01*
X16162352Y-15327461D02*
X16152828Y-15336985D01*
X16152828Y-15336985D02*
X16133781Y-15346509D01*
X16133781Y-15346509D02*
X16105209Y-15346509D01*
X16286162Y-15346509D02*
X16267114Y-15336985D01*
X16267114Y-15336985D02*
X16257590Y-15317937D01*
X16257590Y-15317937D02*
X16257590Y-15146509D01*
X16438543Y-15336985D02*
X16419495Y-15346509D01*
X16419495Y-15346509D02*
X16381400Y-15346509D01*
X16381400Y-15346509D02*
X16362352Y-15336985D01*
X16362352Y-15336985D02*
X16352828Y-15317937D01*
X16352828Y-15317937D02*
X16352828Y-15241747D01*
X16352828Y-15241747D02*
X16362352Y-15222699D01*
X16362352Y-15222699D02*
X16381400Y-15213175D01*
X16381400Y-15213175D02*
X16419495Y-15213175D01*
X16419495Y-15213175D02*
X16438543Y-15222699D01*
X16438543Y-15222699D02*
X16448066Y-15241747D01*
X16448066Y-15241747D02*
X16448066Y-15260794D01*
X16448066Y-15260794D02*
X16352828Y-15279842D01*
X16524257Y-15336985D02*
X16543305Y-15346509D01*
X16543305Y-15346509D02*
X16581400Y-15346509D01*
X16581400Y-15346509D02*
X16600447Y-15336985D01*
X16600447Y-15336985D02*
X16609971Y-15317937D01*
X16609971Y-15317937D02*
X16609971Y-15308413D01*
X16609971Y-15308413D02*
X16600447Y-15289366D01*
X16600447Y-15289366D02*
X16581400Y-15279842D01*
X16581400Y-15279842D02*
X16552828Y-15279842D01*
X16552828Y-15279842D02*
X16533781Y-15270318D01*
X16533781Y-15270318D02*
X16524257Y-15251271D01*
X16524257Y-15251271D02*
X16524257Y-15241747D01*
X16524257Y-15241747D02*
X16533781Y-15222699D01*
X16533781Y-15222699D02*
X16552828Y-15213175D01*
X16552828Y-15213175D02*
X16581400Y-15213175D01*
X16581400Y-15213175D02*
X16600447Y-15222699D01*
X16676638Y-15422699D02*
X16686162Y-15413175D01*
X16686162Y-15413175D02*
X16705209Y-15384604D01*
X16705209Y-15384604D02*
X16714733Y-15365556D01*
X16714733Y-15365556D02*
X16724257Y-15336985D01*
X16724257Y-15336985D02*
X16733781Y-15289366D01*
X16733781Y-15289366D02*
X16733781Y-15251271D01*
X16733781Y-15251271D02*
X16724257Y-15203652D01*
X16724257Y-15203652D02*
X16714733Y-15175080D01*
X16714733Y-15175080D02*
X16705209Y-15156033D01*
X16705209Y-15156033D02*
X16686162Y-15127461D01*
X16686162Y-15127461D02*
X16676638Y-15117937D01*
M02*
