G04 #@! TF.GenerationSoftware,KiCad,Pcbnew,7.0.8*
G04 #@! TF.CreationDate,2024-02-21T14:09:26-03:00*
G04 #@! TF.ProjectId,lamp_module,6c616d70-5f6d-46f6-9475-6c652e6b6963,1.0*
G04 #@! TF.SameCoordinates,Original*
G04 #@! TF.FileFunction,Copper,L1,Top*
G04 #@! TF.FilePolarity,Positive*
%FSLAX46Y46*%
G04 Gerber Fmt 4.6, Leading zero omitted, Abs format (unit mm)*
G04 Created by KiCad (PCBNEW 7.0.8) date 2024-02-21 14:09:26*
%MOMM*%
%LPD*%
G01*
G04 APERTURE LIST*
G04 Aperture macros list*
%AMRoundRect*
0 Rectangle with rounded corners*
0 $1 Rounding radius*
0 $2 $3 $4 $5 $6 $7 $8 $9 X,Y pos of 4 corners*
0 Add a 4 corners polygon primitive as box body*
4,1,4,$2,$3,$4,$5,$6,$7,$8,$9,$2,$3,0*
0 Add four circle primitives for the rounded corners*
1,1,$1+$1,$2,$3*
1,1,$1+$1,$4,$5*
1,1,$1+$1,$6,$7*
1,1,$1+$1,$8,$9*
0 Add four rect primitives between the rounded corners*
20,1,$1+$1,$2,$3,$4,$5,0*
20,1,$1+$1,$4,$5,$6,$7,0*
20,1,$1+$1,$6,$7,$8,$9,0*
20,1,$1+$1,$8,$9,$2,$3,0*%
G04 Aperture macros list end*
G04 #@! TA.AperFunction,SMDPad,CuDef*
%ADD10R,2.000000X1.780000*%
G04 #@! TD*
G04 #@! TA.AperFunction,SMDPad,CuDef*
%ADD11RoundRect,0.200000X-0.200000X-0.275000X0.200000X-0.275000X0.200000X0.275000X-0.200000X0.275000X0*%
G04 #@! TD*
G04 #@! TA.AperFunction,SMDPad,CuDef*
%ADD12RoundRect,0.250000X1.000000X0.650000X-1.000000X0.650000X-1.000000X-0.650000X1.000000X-0.650000X0*%
G04 #@! TD*
G04 #@! TA.AperFunction,SMDPad,CuDef*
%ADD13RoundRect,0.250000X-1.000000X-0.650000X1.000000X-0.650000X1.000000X0.650000X-1.000000X0.650000X0*%
G04 #@! TD*
G04 #@! TA.AperFunction,ComponentPad*
%ADD14R,3.000000X3.000000*%
G04 #@! TD*
G04 #@! TA.AperFunction,ComponentPad*
%ADD15C,3.000000*%
G04 #@! TD*
G04 #@! TA.AperFunction,ComponentPad*
%ADD16C,1.600000*%
G04 #@! TD*
G04 #@! TA.AperFunction,ComponentPad*
%ADD17O,1.600000X1.600000*%
G04 #@! TD*
G04 #@! TA.AperFunction,SMDPad,CuDef*
%ADD18RoundRect,0.150000X-0.150000X0.587500X-0.150000X-0.587500X0.150000X-0.587500X0.150000X0.587500X0*%
G04 #@! TD*
G04 #@! TA.AperFunction,SMDPad,CuDef*
%ADD19RoundRect,0.250000X-0.650000X0.325000X-0.650000X-0.325000X0.650000X-0.325000X0.650000X0.325000X0*%
G04 #@! TD*
G04 #@! TA.AperFunction,SMDPad,CuDef*
%ADD20RoundRect,0.125000X0.125000X-0.125000X0.125000X0.125000X-0.125000X0.125000X-0.125000X-0.125000X0*%
G04 #@! TD*
G04 #@! TA.AperFunction,SMDPad,CuDef*
%ADD21RoundRect,0.218750X0.218750X0.256250X-0.218750X0.256250X-0.218750X-0.256250X0.218750X-0.256250X0*%
G04 #@! TD*
G04 #@! TA.AperFunction,SMDPad,CuDef*
%ADD22R,2.000000X1.500000*%
G04 #@! TD*
G04 #@! TA.AperFunction,SMDPad,CuDef*
%ADD23R,2.000000X3.800000*%
G04 #@! TD*
G04 #@! TA.AperFunction,ComponentPad*
%ADD24R,1.600000X1.600000*%
G04 #@! TD*
G04 #@! TA.AperFunction,SMDPad,CuDef*
%ADD25RoundRect,0.250000X1.500000X0.550000X-1.500000X0.550000X-1.500000X-0.550000X1.500000X-0.550000X0*%
G04 #@! TD*
G04 #@! TA.AperFunction,SMDPad,CuDef*
%ADD26R,1.100000X2.500000*%
G04 #@! TD*
G04 #@! TA.AperFunction,SMDPad,CuDef*
%ADD27R,2.500000X1.100000*%
G04 #@! TD*
G04 #@! TA.AperFunction,SMDPad,CuDef*
%ADD28RoundRect,0.225000X0.225000X0.250000X-0.225000X0.250000X-0.225000X-0.250000X0.225000X-0.250000X0*%
G04 #@! TD*
G04 #@! TA.AperFunction,ComponentPad*
%ADD29C,2.400000*%
G04 #@! TD*
G04 #@! TA.AperFunction,SMDPad,CuDef*
%ADD30RoundRect,0.218750X0.256250X-0.218750X0.256250X0.218750X-0.256250X0.218750X-0.256250X-0.218750X0*%
G04 #@! TD*
G04 #@! TA.AperFunction,ComponentPad*
%ADD31R,1.700000X1.700000*%
G04 #@! TD*
G04 #@! TA.AperFunction,ComponentPad*
%ADD32O,1.700000X1.700000*%
G04 #@! TD*
G04 #@! TA.AperFunction,ComponentPad*
%ADD33R,2.300000X2.000000*%
G04 #@! TD*
G04 #@! TA.AperFunction,ComponentPad*
%ADD34C,2.300000*%
G04 #@! TD*
G04 #@! TA.AperFunction,ViaPad*
%ADD35C,0.800000*%
G04 #@! TD*
G04 #@! TA.AperFunction,Conductor*
%ADD36C,1.000000*%
G04 #@! TD*
G04 #@! TA.AperFunction,Conductor*
%ADD37C,0.500000*%
G04 #@! TD*
G04 #@! TA.AperFunction,Conductor*
%ADD38C,0.250000*%
G04 #@! TD*
G04 #@! TA.AperFunction,Conductor*
%ADD39C,0.750000*%
G04 #@! TD*
G04 #@! TA.AperFunction,Conductor*
%ADD40C,0.350000*%
G04 #@! TD*
G04 APERTURE END LIST*
D10*
X131869750Y-122580250D03*
X131869750Y-125120250D03*
X139489750Y-125120250D03*
X139489750Y-122580250D03*
D11*
X141458750Y-128226250D03*
X143108750Y-128226250D03*
D12*
X176390599Y-107786250D03*
X172390599Y-107786250D03*
D13*
X172390599Y-111850250D03*
X176390599Y-111850250D03*
D14*
X175260000Y-85582250D03*
D15*
X175260000Y-80502250D03*
D11*
X130409750Y-128226250D03*
X132059750Y-128226250D03*
D16*
X164381750Y-92920250D03*
D17*
X177081750Y-92920250D03*
D18*
X128425750Y-128226250D03*
X126525750Y-128226250D03*
X127475750Y-130101250D03*
D15*
X150943750Y-107316250D03*
X165143750Y-101316250D03*
X165143750Y-113316250D03*
X152943750Y-113316250D03*
X152943750Y-101316250D03*
D19*
X142599750Y-119825250D03*
X142599750Y-122775250D03*
D20*
X147617750Y-120266250D03*
X147617750Y-118066250D03*
D14*
X175260000Y-123952000D03*
D15*
X175260000Y-118872000D03*
D18*
X139489750Y-128226250D03*
X137589750Y-128226250D03*
X138539750Y-130101250D03*
D21*
X122370250Y-77045250D03*
X120795250Y-77045250D03*
D11*
X120777750Y-79585250D03*
X122427750Y-79585250D03*
D22*
X140735750Y-92550250D03*
X140735750Y-94850250D03*
D23*
X147035750Y-94850250D03*
D22*
X140735750Y-97150250D03*
D24*
X176065750Y-99905250D03*
D16*
X172565750Y-99905250D03*
D25*
X133585750Y-94350250D03*
X128185750Y-94350250D03*
D26*
X128599750Y-117050250D03*
X130599750Y-117050250D03*
X132599750Y-117050250D03*
X134599750Y-117050250D03*
X136599750Y-117050250D03*
X138599750Y-117050250D03*
X140599750Y-117050250D03*
X142599750Y-117050250D03*
X142599750Y-101650250D03*
X140599750Y-101650250D03*
X138599750Y-101650250D03*
X136599750Y-101650250D03*
X134599750Y-101650250D03*
X132599750Y-101650250D03*
X130599750Y-101650250D03*
X128599750Y-101650250D03*
D27*
X144299750Y-114360250D03*
X144299750Y-112360250D03*
X144299750Y-110360250D03*
X144299750Y-108360250D03*
X144299750Y-106360250D03*
X144299750Y-104360250D03*
D15*
X150943750Y-124066250D03*
X165143750Y-118066250D03*
X165143750Y-130066250D03*
X152943750Y-130066250D03*
X152943750Y-118066250D03*
D20*
X147617750Y-103516250D03*
X147617750Y-101316250D03*
D28*
X138543250Y-94850250D03*
X136993250Y-94850250D03*
D29*
X165862000Y-86542250D03*
X165862000Y-71542250D03*
D10*
X160317750Y-96730250D03*
X160317750Y-94190250D03*
X152697750Y-94190250D03*
X152697750Y-96730250D03*
X120805750Y-122580250D03*
X120805750Y-125120250D03*
X128425750Y-125120250D03*
X128425750Y-122580250D03*
D30*
X172541750Y-75419750D03*
X172541750Y-73844750D03*
D31*
X121615750Y-84350250D03*
D32*
X121615750Y-86890250D03*
X121615750Y-89430250D03*
X121615750Y-91970250D03*
X121615750Y-94510250D03*
X121615750Y-97050250D03*
D28*
X138543250Y-97150250D03*
X136993250Y-97150250D03*
D33*
X157862250Y-82542250D03*
D34*
X157862250Y-77542250D03*
X128462250Y-87742250D03*
X128462250Y-72342250D03*
D35*
X137457750Y-122580250D03*
X147871750Y-99397250D03*
X126535750Y-122580250D03*
X146728750Y-121368250D03*
X139108750Y-92158250D03*
X133266750Y-128226250D03*
X123614750Y-77045250D03*
X125265750Y-128226250D03*
X136187750Y-128226250D03*
X143108750Y-126956250D03*
X136993250Y-93555250D03*
X128185750Y-95968250D03*
X144061750Y-102572250D03*
X142599750Y-124162250D03*
X133901750Y-125120250D03*
X150665750Y-94190250D03*
X122725750Y-125120250D03*
X136993250Y-98381250D03*
X134599750Y-99524250D03*
X141011401Y-120755045D03*
X132599750Y-115145250D03*
X128599750Y-115145250D03*
X136599750Y-103588250D03*
X140599750Y-103588250D03*
X140599750Y-119844250D03*
X140599750Y-115145250D03*
X138600750Y-119844250D03*
X138599750Y-115145250D03*
X150665750Y-96730250D03*
X136599750Y-115145250D03*
D36*
X171265250Y-73844750D02*
X172541750Y-73844750D01*
X165862000Y-86542250D02*
X165862000Y-86487000D01*
X169461750Y-75648250D02*
X171265250Y-73844750D01*
X165862000Y-86487000D02*
X169461750Y-82887250D01*
X169461750Y-82887250D02*
X169461750Y-75648250D01*
X160317750Y-94190250D02*
X160317750Y-92793250D01*
X172565750Y-97675250D02*
X172565750Y-99905250D01*
X172390599Y-100080401D02*
X172565750Y-99905250D01*
X162095750Y-79585250D02*
X160052750Y-77542250D01*
X160317750Y-92793250D02*
X162730750Y-90380250D01*
X160317750Y-87713250D02*
X162095750Y-85935250D01*
X160317750Y-94190250D02*
X160317750Y-87713250D01*
X160052750Y-77542250D02*
X157862250Y-77542250D01*
X162730750Y-90380250D02*
X165270750Y-90380250D01*
X172390599Y-107786250D02*
X172390599Y-100080401D01*
X162095750Y-85935250D02*
X162095750Y-79585250D01*
X165270750Y-90380250D02*
X172565750Y-97675250D01*
D37*
X138543250Y-97815750D02*
X139235750Y-98508250D01*
X148887750Y-97492250D02*
X148887750Y-91650250D01*
D38*
X132537750Y-94350250D02*
X131107750Y-92920250D01*
D37*
X147617750Y-103516250D02*
X147617750Y-110636750D01*
D39*
X133647750Y-94288250D02*
X133585750Y-94350250D01*
D37*
X147617750Y-120266250D02*
X147617750Y-127210250D01*
D39*
X128462250Y-72342250D02*
X133647750Y-77527750D01*
D37*
X139235750Y-98508250D02*
X147871750Y-98508250D01*
X150297250Y-113316250D02*
X152943750Y-113316250D01*
D39*
X133647750Y-77527750D02*
X133647750Y-94288250D01*
D37*
X147617750Y-120479250D02*
X146728750Y-121368250D01*
X147617750Y-110636750D02*
X150297250Y-113316250D01*
D38*
X131107750Y-84030250D02*
X126662750Y-79585250D01*
D37*
X139489750Y-122580250D02*
X137457750Y-122580250D01*
X134249750Y-94350250D02*
X133585750Y-94350250D01*
X150473750Y-130066250D02*
X152943750Y-130066250D01*
D38*
X126662750Y-79585250D02*
X122427750Y-79585250D01*
D37*
X138543250Y-97150250D02*
X140735750Y-97150250D01*
X147617750Y-120266250D02*
X147617750Y-120479250D01*
X147871750Y-90634250D02*
X137965750Y-90634250D01*
X147617750Y-127210250D02*
X150473750Y-130066250D01*
X147871750Y-98508250D02*
X148887750Y-97492250D01*
D38*
X131107750Y-92920250D02*
X131107750Y-84030250D01*
D37*
X147871750Y-98508250D02*
X147871750Y-99397250D01*
X148887750Y-91650250D02*
X147871750Y-90634250D01*
X128425750Y-122580250D02*
X126535750Y-122580250D01*
D38*
X133585750Y-94350250D02*
X132537750Y-94350250D01*
D37*
X137965750Y-90634250D02*
X134249750Y-94350250D01*
X138543250Y-97150250D02*
X138543250Y-97815750D01*
D38*
X143108750Y-128226250D02*
X143108750Y-126956250D01*
X142821750Y-102572250D02*
X142599750Y-102350250D01*
D37*
X126525750Y-128226250D02*
X125265750Y-128226250D01*
D38*
X132059750Y-128226250D02*
X133266750Y-128226250D01*
X131869750Y-125120250D02*
X133901750Y-125120250D01*
X136993250Y-94850250D02*
X136993250Y-93555250D01*
D39*
X128185750Y-94350250D02*
X128185750Y-88018750D01*
D38*
X120805750Y-125120250D02*
X122725750Y-125120250D01*
D40*
X140735750Y-92550250D02*
X139500750Y-92550250D01*
D39*
X128185750Y-94350250D02*
X128185750Y-95968250D01*
D38*
X122350250Y-77045250D02*
X123614750Y-77045250D01*
X142599750Y-122775250D02*
X142599750Y-124162250D01*
X150665750Y-94190250D02*
X152697750Y-94190250D01*
X136993250Y-98381250D02*
X136993250Y-97150250D01*
D37*
X137589750Y-128226250D02*
X136187750Y-128226250D01*
D40*
X139500750Y-92550250D02*
X139108750Y-92158250D01*
D38*
X144061750Y-102572250D02*
X142821750Y-102572250D01*
X128185750Y-88018750D02*
X128462250Y-87742250D01*
X142599750Y-119825250D02*
X142599750Y-116350250D01*
D40*
X138543250Y-94850250D02*
X140735750Y-94850250D01*
X134282750Y-96095250D02*
X137838750Y-96095250D01*
X133393750Y-99524250D02*
X134409750Y-99524250D01*
X132123750Y-98254250D02*
X133393750Y-99524250D01*
X138543250Y-95390750D02*
X138543250Y-94850250D01*
X124757750Y-94952250D02*
X128059750Y-98254250D01*
D38*
X142599750Y-119825250D02*
X141941196Y-119825250D01*
D40*
X124757750Y-92572250D02*
X124757750Y-94952250D01*
X121615750Y-89430250D02*
X124757750Y-92572250D01*
X132123750Y-98254250D02*
X134282750Y-96095250D01*
X128059750Y-98254250D02*
X132123750Y-98254250D01*
X137838750Y-96095250D02*
X138543250Y-95390750D01*
X140735750Y-94850250D02*
X147035750Y-94850250D01*
D38*
X141941196Y-119825250D02*
X141011401Y-120755045D01*
D36*
X176390599Y-107786250D02*
X176390599Y-100230099D01*
X172390599Y-111850250D02*
X172390599Y-111786250D01*
X176390599Y-100230099D02*
X176065750Y-99905250D01*
X172390599Y-111786250D02*
X176390599Y-107786250D01*
D37*
X146601750Y-102332250D02*
X147617750Y-101316250D01*
X144569750Y-128480250D02*
X144569750Y-117812250D01*
X138539750Y-130101250D02*
X142948750Y-130101250D01*
X147617750Y-101316250D02*
X152943750Y-101316250D01*
X142948750Y-130101250D02*
X144569750Y-128480250D01*
X144569750Y-117812250D02*
X146601750Y-115780250D01*
X146601750Y-115780250D02*
X146601750Y-102332250D01*
X143172750Y-131528250D02*
X145585750Y-129115250D01*
X145585750Y-129115250D02*
X145585750Y-119209250D01*
X127475750Y-130101250D02*
X128902750Y-131528250D01*
X147617750Y-118066250D02*
X152943750Y-118066250D01*
X145585750Y-119209250D02*
X146728750Y-118066250D01*
X146728750Y-118066250D02*
X147617750Y-118066250D01*
X128902750Y-131528250D02*
X143172750Y-131528250D01*
D36*
X176390599Y-111850250D02*
X176390599Y-112915401D01*
X174795750Y-114510250D02*
X166337750Y-114510250D01*
X176390599Y-112915401D02*
X174795750Y-114510250D01*
X166337750Y-114510250D02*
X165143750Y-113316250D01*
D38*
X120795250Y-77045250D02*
X120795250Y-79567750D01*
D36*
X175260000Y-80502250D02*
X175260000Y-77089000D01*
X173590750Y-75419750D02*
X172541750Y-75419750D01*
X175260000Y-77089000D02*
X173590750Y-75419750D01*
D38*
X130599750Y-102350250D02*
X130599750Y-100794250D01*
X130599750Y-100794250D02*
X129075750Y-99270250D01*
X123995750Y-96730250D02*
X123995750Y-94350250D01*
X129075750Y-99270250D02*
X126535750Y-99270250D01*
X126535750Y-99270250D02*
X123995750Y-96730250D01*
X123995750Y-94350250D02*
X121615750Y-91970250D01*
X125900750Y-99905250D02*
X123360750Y-97365250D01*
X123360750Y-97365250D02*
X123360750Y-96255250D01*
X128599750Y-100699250D02*
X127805750Y-99905250D01*
X123360750Y-96255250D02*
X121615750Y-94510250D01*
X127805750Y-99905250D02*
X125900750Y-99905250D01*
X128599750Y-102350250D02*
X128599750Y-100699250D01*
X139489750Y-128226250D02*
X139489750Y-125120250D01*
X141458750Y-128226250D02*
X139489750Y-128226250D01*
X130409750Y-128226250D02*
X128425750Y-128226250D01*
X128425750Y-128226250D02*
X128425750Y-125120250D01*
X132599750Y-116350250D02*
X132599750Y-115018250D01*
X128599750Y-115145250D02*
X128599750Y-116350250D01*
X136568750Y-103588250D02*
X136599750Y-103557250D01*
X136599750Y-103557250D02*
X136599750Y-102350250D01*
X140599750Y-103588250D02*
X140599750Y-102350250D01*
X133081750Y-121368250D02*
X137941750Y-121368250D01*
X137941750Y-121368250D02*
X138576750Y-120733250D01*
X131869750Y-122580250D02*
X133081750Y-121368250D01*
X139710750Y-120733250D02*
X140599750Y-119844250D01*
X138576750Y-120733250D02*
X139710750Y-120733250D01*
X140599750Y-115018250D02*
X140599750Y-116350250D01*
X138600750Y-119844250D02*
X137838750Y-120606250D01*
X137838750Y-120606250D02*
X122779750Y-120606250D01*
X122779750Y-120606250D02*
X120805750Y-122580250D01*
X138599750Y-115018250D02*
X138599750Y-116350250D01*
D36*
X160317750Y-96730250D02*
X162095750Y-96730250D01*
X162095750Y-96730250D02*
X164381750Y-94444250D01*
X164381750Y-94444250D02*
X164381750Y-92920250D01*
D38*
X136599750Y-115018250D02*
X136599750Y-116350250D01*
X152697750Y-96730250D02*
X150665750Y-96730250D01*
M02*
