G04 #@! TF.GenerationSoftware,KiCad,Pcbnew,7.0.8*
G04 #@! TF.CreationDate,2024-02-21T14:09:27-03:00*
G04 #@! TF.ProjectId,lamp_module,6c616d70-5f6d-46f6-9475-6c652e6b6963,1.0*
G04 #@! TF.SameCoordinates,Original*
G04 #@! TF.FileFunction,Soldermask,Bot*
G04 #@! TF.FilePolarity,Negative*
%FSLAX46Y46*%
G04 Gerber Fmt 4.6, Leading zero omitted, Abs format (unit mm)*
G04 Created by KiCad (PCBNEW 7.0.8) date 2024-02-21 14:09:27*
%MOMM*%
%LPD*%
G01*
G04 APERTURE LIST*
G04 Aperture macros list*
%AMRoundRect*
0 Rectangle with rounded corners*
0 $1 Rounding radius*
0 $2 $3 $4 $5 $6 $7 $8 $9 X,Y pos of 4 corners*
0 Add a 4 corners polygon primitive as box body*
4,1,4,$2,$3,$4,$5,$6,$7,$8,$9,$2,$3,0*
0 Add four circle primitives for the rounded corners*
1,1,$1+$1,$2,$3*
1,1,$1+$1,$4,$5*
1,1,$1+$1,$6,$7*
1,1,$1+$1,$8,$9*
0 Add four rect primitives between the rounded corners*
20,1,$1+$1,$2,$3,$4,$5,0*
20,1,$1+$1,$4,$5,$6,$7,0*
20,1,$1+$1,$6,$7,$8,$9,0*
20,1,$1+$1,$8,$9,$2,$3,0*%
G04 Aperture macros list end*
%ADD10C,2.500000*%
%ADD11R,3.000000X3.000000*%
%ADD12C,3.000000*%
%ADD13C,1.600000*%
%ADD14O,1.600000X1.600000*%
%ADD15R,1.600000X1.600000*%
%ADD16C,2.400000*%
%ADD17R,1.700000X1.700000*%
%ADD18O,1.700000X1.700000*%
%ADD19R,2.300000X2.000000*%
%ADD20C,2.300000*%
%ADD21RoundRect,0.200000X0.275000X-0.200000X0.275000X0.200000X-0.275000X0.200000X-0.275000X-0.200000X0*%
%ADD22RoundRect,0.200000X-0.275000X0.200000X-0.275000X-0.200000X0.275000X-0.200000X0.275000X0.200000X0*%
G04 APERTURE END LIST*
D10*
X177115750Y-71850250D03*
D11*
X175260000Y-85582250D03*
D12*
X175260000Y-80502250D03*
D10*
X122115750Y-129850250D03*
D13*
X164381750Y-92920250D03*
D14*
X177081750Y-92920250D03*
D12*
X150943750Y-107316250D03*
X165143750Y-101316250D03*
X165143750Y-113316250D03*
X152943750Y-113316250D03*
X152943750Y-101316250D03*
D11*
X175260000Y-123952000D03*
D12*
X175260000Y-118872000D03*
D15*
X176065750Y-99905250D03*
D13*
X172565750Y-99905250D03*
D12*
X150943750Y-124066250D03*
X165143750Y-118066250D03*
X165143750Y-130066250D03*
X152943750Y-130066250D03*
X152943750Y-118066250D03*
D10*
X122115750Y-71850250D03*
X177115750Y-129850250D03*
D16*
X165862000Y-86542250D03*
X165862000Y-71542250D03*
D17*
X121615750Y-84350250D03*
D18*
X121615750Y-86890250D03*
X121615750Y-89430250D03*
X121615750Y-91970250D03*
X121615750Y-94510250D03*
X121615750Y-97050250D03*
D19*
X157862250Y-82542250D03*
D20*
X157862250Y-77542250D03*
X128462250Y-87742250D03*
X128462250Y-72342250D03*
D21*
X138599750Y-118700250D03*
X138599750Y-117050250D03*
X136599750Y-118700250D03*
X136599750Y-117050250D03*
X128599750Y-118700250D03*
X128599750Y-117050250D03*
X140599750Y-118700250D03*
X140599750Y-117050250D03*
X140599750Y-101650250D03*
X140599750Y-100000250D03*
X132599750Y-118700250D03*
X132599750Y-117050250D03*
D22*
X136599750Y-100000250D03*
X136599750Y-101650250D03*
M02*
