%TF.GenerationSoftware,KiCad,Pcbnew,7.0.8*%
%TF.CreationDate,2026-01-29T13:39:05-03:00*%
%TF.ProjectId,on_off_module_x1,6f6e5f6f-6666-45f6-9d6f-64756c655f78,2.0*%
%TF.SameCoordinates,Original*%
%TF.FileFunction,AssemblyDrawing,Top*%
%FSLAX46Y46*%
G04 Gerber Fmt 4.6, Leading zero omitted, Abs format (unit mm)*
G04 Created by KiCad (PCBNEW 7.0.8) date 2026-01-29 13:39:05*
%MOMM*%
%LPD*%
G01*
G04 APERTURE LIST*
%ADD10C,0.100000*%
%ADD11C,0.152400*%
%ADD12C,0.050000*%
G04 APERTURE END LIST*
D10*
%TO.C,R12*%
X170211500Y-84098000D02*
X170211500Y-85698000D01*
X169386500Y-84098000D02*
X170211500Y-84098000D01*
X170211500Y-85698000D02*
X169386500Y-85698000D01*
X169386500Y-85698000D02*
X169386500Y-84098000D01*
%TO.C,C5*%
X161551000Y-117042001D02*
X161551000Y-118642001D01*
X160751000Y-117042001D02*
X161551000Y-117042001D01*
X161551000Y-118642001D02*
X160751000Y-118642001D01*
X160751000Y-118642001D02*
X160751000Y-117042001D01*
%TO.C,R8*%
X166051000Y-116200001D02*
X168791000Y-116200001D01*
X166051000Y-120500001D02*
X168791000Y-120500001D01*
X166051000Y-116200001D02*
G75*
G03*
X166051000Y-120500001I1370000J-2150000D01*
G01*
X168791000Y-120500001D02*
G75*
G03*
X168791000Y-116200001I-1370000J2150000D01*
G01*
%TO.C,Q1*%
X138699000Y-131357001D02*
X138374000Y-131682001D01*
X138699000Y-128782001D02*
X138699000Y-131357001D01*
X138374000Y-131682001D02*
X137399000Y-131682001D01*
X137399000Y-131682001D02*
X137399000Y-128782001D01*
X137399000Y-128782001D02*
X138699000Y-128782001D01*
%TO.C,D2*%
X132094000Y-128929000D02*
X132094000Y-131929000D01*
X130443440Y-131228080D02*
X130443440Y-129627880D01*
X130443440Y-130427980D02*
X131345140Y-130427980D01*
X130443440Y-130427980D02*
X129292820Y-131228080D01*
X130443440Y-130427980D02*
X129292820Y-129678680D01*
X129292820Y-130427980D02*
X128294600Y-130427980D01*
X129292820Y-129678680D02*
X129292820Y-131228080D01*
X127494000Y-131929000D02*
X132094000Y-131929000D01*
X127494000Y-131929000D02*
X127494000Y-128929000D01*
X127494000Y-128929000D02*
X132094000Y-128929000D01*
%TO.C,R9*%
X152716000Y-85828000D02*
X152716000Y-82828000D01*
X154116000Y-85828000D02*
X152716000Y-85828000D01*
X152716000Y-82828000D02*
X154116000Y-82828000D01*
X154116000Y-82828000D02*
X154116000Y-85828000D01*
%TO.C,U4*%
X158750000Y-79518000D02*
X159750000Y-78518000D01*
X158750000Y-86138000D02*
X158750000Y-79518000D01*
X159750000Y-78518000D02*
X165100000Y-78518000D01*
X165100000Y-78518000D02*
X165100000Y-86138000D01*
X165100000Y-86138000D02*
X158750000Y-86138000D01*
%TO.C,C6*%
X138026000Y-81828000D02*
X138026000Y-86828000D01*
X138026000Y-86828000D02*
X151026000Y-86828000D01*
X151026000Y-81828000D02*
X138026000Y-81828000D01*
X151026000Y-86828000D02*
X151026000Y-81828000D01*
%TO.C,D1*%
X167976000Y-71855000D02*
X167976000Y-71355000D01*
X167976000Y-71355000D02*
X166376000Y-71355000D01*
X167676000Y-72155000D02*
X167976000Y-71855000D01*
X166376000Y-72155000D02*
X167676000Y-72155000D01*
X166376000Y-71355000D02*
X166376000Y-72155000D01*
%TO.C,K1*%
X126547000Y-127927001D02*
X126547000Y-108927001D01*
X141747000Y-127927001D02*
X126547000Y-127927001D01*
X126547000Y-108927001D02*
X141747000Y-108927001D01*
X141747000Y-108927001D02*
X141747000Y-127927001D01*
%TO.C,R11*%
X156869000Y-75373000D02*
X159869000Y-75373000D01*
X156869000Y-76773000D02*
X156869000Y-75373000D01*
X159869000Y-75373000D02*
X159869000Y-76773000D01*
X159869000Y-76773000D02*
X156869000Y-76773000D01*
%TO.C,R5*%
X164023500Y-125893501D02*
X164023500Y-127493501D01*
X163198500Y-125893501D02*
X164023500Y-125893501D01*
X164023500Y-127493501D02*
X163198500Y-127493501D01*
X163198500Y-127493501D02*
X163198500Y-125893501D01*
%TO.C,J2*%
X170815000Y-105537000D02*
X168910000Y-105537000D01*
X170815000Y-90297000D02*
X170815000Y-105537000D01*
X168910000Y-105537000D02*
X168275000Y-104902000D01*
X168275000Y-104902000D02*
X168275000Y-90297000D01*
X168275000Y-90297000D02*
X170815000Y-90297000D01*
%TO.C,J1*%
X161233000Y-73780000D02*
X135833000Y-73780000D01*
X161233000Y-70880000D02*
X135833000Y-70880000D01*
X161233000Y-65980000D02*
X135833000Y-65980000D01*
X161233000Y-64480000D02*
X161233000Y-73780000D01*
X161233000Y-64480000D02*
X135833000Y-64480000D01*
X160733000Y-63980000D02*
X161233000Y-64480000D01*
X157738000Y-69718000D02*
X159831000Y-67625000D01*
X157555000Y-69535000D02*
X159648000Y-67442000D01*
X152658000Y-69718000D02*
X154750000Y-67625000D01*
X152475000Y-69535000D02*
X154567000Y-67442000D01*
X147578000Y-69718000D02*
X149670000Y-67625000D01*
X147395000Y-69535000D02*
X149487000Y-67442000D01*
X142498000Y-69718000D02*
X144590000Y-67625000D01*
X142315000Y-69535000D02*
X144407000Y-67442000D01*
X137418000Y-69718000D02*
X139510000Y-67625000D01*
X137235000Y-69535000D02*
X139327000Y-67442000D01*
X135833000Y-73780000D02*
X135833000Y-63980000D01*
X135833000Y-63980000D02*
X160733000Y-63980000D01*
X160193000Y-68580000D02*
G75*
G03*
X160193000Y-68580000I-1500000J0D01*
G01*
X155113000Y-68580000D02*
G75*
G03*
X155113000Y-68580000I-1500000J0D01*
G01*
X150033000Y-68580000D02*
G75*
G03*
X150033000Y-68580000I-1500000J0D01*
G01*
X144953000Y-68580000D02*
G75*
G03*
X144953000Y-68580000I-1500000J0D01*
G01*
X139873000Y-68580000D02*
G75*
G03*
X139873000Y-68580000I-1500000J0D01*
G01*
%TO.C,U1*%
X151008000Y-116142001D02*
X151008000Y-110442001D01*
X151008000Y-116142001D02*
X150008000Y-117142001D01*
X151008000Y-110442001D02*
X147308000Y-110442001D01*
X150008000Y-117142001D02*
X147308000Y-117142001D01*
X147308000Y-117142001D02*
X147308000Y-110442001D01*
%TO.C,R6*%
X140557500Y-131032001D02*
X140557500Y-129432001D01*
X141382500Y-131032001D02*
X140557500Y-131032001D01*
X140557500Y-129432001D02*
X141382500Y-129432001D01*
X141382500Y-129432001D02*
X141382500Y-131032001D01*
%TO.C,C4*%
X155431998Y-113645999D02*
X155431998Y-114845999D01*
X155431998Y-114845999D02*
X158631998Y-114845999D01*
X155831998Y-113245999D02*
X155431998Y-113645999D01*
X158631998Y-113245999D02*
X155831998Y-113245999D01*
X158631998Y-114845999D02*
X158631998Y-113245999D01*
%TO.C,R2*%
X164023500Y-133893501D02*
X164023500Y-135493501D01*
X163198500Y-133893501D02*
X164023500Y-133893501D01*
X164023500Y-135493501D02*
X163198500Y-135493501D01*
X163198500Y-135493501D02*
X163198500Y-133893501D01*
D11*
%TO.C,U2*%
X161467000Y-143900501D02*
X161459000Y-138118501D01*
X161467000Y-143900501D02*
X145465000Y-143900501D01*
X161467000Y-143900501D02*
X145459000Y-138118501D01*
D12*
X161459000Y-143918501D02*
X145459000Y-143918501D01*
D11*
X161459000Y-138118501D02*
X145459000Y-138118501D01*
D12*
X161459000Y-119918501D02*
X161459000Y-143918501D01*
D11*
X145465000Y-143900501D02*
X161459000Y-138118501D01*
X145465000Y-143900501D02*
X145459000Y-138118501D01*
D12*
X145459000Y-119918501D02*
X161459000Y-119918501D01*
X145451000Y-143918501D02*
X145451000Y-119918501D01*
D10*
%TO.C,C1*%
X132321000Y-88649001D02*
X126321000Y-88649001D01*
X126321000Y-88649001D02*
X126321000Y-106649001D01*
X132321000Y-106649001D02*
X132321000Y-88649001D01*
X126321000Y-106649001D02*
X132321000Y-106649001D01*
%TO.C,U3*%
X141640000Y-136527001D02*
X140640000Y-137527001D01*
X141640000Y-132447001D02*
X141640000Y-136527001D01*
X140640000Y-137527001D02*
X135290000Y-137527001D01*
X135290000Y-137527001D02*
X135290000Y-132447001D01*
X135290000Y-132447001D02*
X141640000Y-132447001D01*
%TO.C,PS1*%
X133286500Y-87649001D02*
X167286500Y-87649001D01*
X133286500Y-94149001D02*
X133286500Y-87649001D01*
X133286500Y-107649001D02*
X133286500Y-96139001D01*
X133286500Y-107649001D02*
X167286500Y-107649001D01*
X133296500Y-94149001D02*
X134296500Y-95149001D01*
X134296500Y-95149001D02*
X133296500Y-96149001D01*
X167286500Y-107649001D02*
X167286500Y-87649001D01*
%TO.C,F1*%
X148049000Y-80851000D02*
X128049000Y-80851000D01*
X148049000Y-74851000D02*
X148049000Y-80851000D01*
X148049000Y-74851000D02*
X128049000Y-74851000D01*
X128049000Y-74851000D02*
X128049000Y-80851000D01*
%TO.C,R7*%
X166621000Y-121239501D02*
X168221000Y-121239501D01*
X166621000Y-122064501D02*
X166621000Y-121239501D01*
X168221000Y-121239501D02*
X168221000Y-122064501D01*
X168221000Y-122064501D02*
X166621000Y-122064501D01*
%TO.C,C3*%
X155431999Y-110892000D02*
X155431999Y-112092000D01*
X155431999Y-112092000D02*
X158631999Y-112092000D01*
X155831999Y-110492000D02*
X155431999Y-110892000D01*
X158631999Y-110492000D02*
X155831999Y-110492000D01*
X158631999Y-112092000D02*
X158631999Y-110492000D01*
%TO.C,J3*%
X168208000Y-124446001D02*
X168843000Y-123811001D01*
X168208000Y-131431001D02*
X168208000Y-124446001D01*
X168843000Y-123811001D02*
X170748000Y-123811001D01*
X170748000Y-123811001D02*
X170748000Y-131431001D01*
X170748000Y-131431001D02*
X168208000Y-131431001D01*
%TO.C,C7*%
X167621000Y-85748000D02*
X167621000Y-84148000D01*
X168421000Y-85748000D02*
X167621000Y-85748000D01*
X167621000Y-84148000D02*
X168421000Y-84148000D01*
X168421000Y-84148000D02*
X168421000Y-85748000D01*
%TO.C,C2*%
X162233000Y-109700000D02*
X162233000Y-114300000D01*
X162233000Y-109700000D02*
X163233000Y-108700000D01*
X162233000Y-114300000D02*
X163233000Y-115300000D01*
X162828162Y-110670000D02*
X163458162Y-110670000D01*
X163143162Y-110355000D02*
X163143162Y-110985000D01*
X163233000Y-108700000D02*
X168833000Y-108700000D01*
X163233000Y-115300000D02*
X168833000Y-115300000D01*
X168833000Y-108700000D02*
X168833000Y-115300000D01*
X168683000Y-112000000D02*
G75*
G03*
X168683000Y-112000000I-3150000J0D01*
G01*
%TO.C,R10*%
X151408000Y-75373000D02*
X154408000Y-75373000D01*
X151408000Y-76773000D02*
X151408000Y-75373000D01*
X154408000Y-75373000D02*
X154408000Y-76773000D01*
X154408000Y-76773000D02*
X151408000Y-76773000D01*
%TO.C,R4*%
X167996000Y-74199500D02*
X166396000Y-74199500D01*
X167996000Y-73374500D02*
X167996000Y-74199500D01*
X166396000Y-74199500D02*
X166396000Y-73374500D01*
X166396000Y-73374500D02*
X167996000Y-73374500D01*
%TO.C,R3*%
X142878500Y-123493501D02*
X142878500Y-121893501D01*
X143703500Y-123493501D02*
X142878500Y-123493501D01*
X142878500Y-121893501D02*
X143703500Y-121893501D01*
X143703500Y-121893501D02*
X143703500Y-123493501D01*
%TO.C,R1*%
X164023500Y-129893501D02*
X164023500Y-131493501D01*
X163198500Y-129893501D02*
X164023500Y-129893501D01*
X164023500Y-131493501D02*
X163198500Y-131493501D01*
X163198500Y-131493501D02*
X163198500Y-129893501D01*
%TO.C,L1*%
X132512000Y-83528000D02*
X135712000Y-83528000D01*
X132512000Y-85128000D02*
X132512000Y-83528000D01*
X135712000Y-83528000D02*
X135712000Y-85128000D01*
X135712000Y-85128000D02*
X132512000Y-85128000D01*
%TD*%
M02*
