%TF.GenerationSoftware,KiCad,Pcbnew,7.0.8*%
%TF.CreationDate,2025-03-27T12:51:53-03:00*%
%TF.ProjectId,on_off_module_x1,6f6e5f6f-6666-45f6-9d6f-64756c655f78,2.0*%
%TF.SameCoordinates,Original*%
%TF.FileFunction,Soldermask,Bot*%
%TF.FilePolarity,Negative*%
%FSLAX46Y46*%
G04 Gerber Fmt 4.6, Leading zero omitted, Abs format (unit mm)*
G04 Created by KiCad (PCBNEW 7.0.8) date 2025-03-27 12:51:53*
%MOMM*%
%LPD*%
G01*
G04 APERTURE LIST*
%ADD10C,1.100000*%
%ADD11C,2.500000*%
%ADD12R,2.600000X2.600000*%
%ADD13C,2.600000*%
%ADD14C,2.000000*%
%ADD15C,3.000000*%
%ADD16R,1.700000X1.700000*%
%ADD17O,1.700000X1.700000*%
%ADD18C,2.400000*%
%ADD19R,2.300000X2.000000*%
%ADD20C,2.300000*%
%ADD21R,1.500000X1.500000*%
%ADD22C,1.500000*%
G04 APERTURE END LIST*
D10*
%TO.C,R8*%
X165721000Y-118350001D03*
X169121000Y-118350001D03*
%TD*%
D11*
%TO.C,REF\u002A\u002A*%
X128533000Y-68035001D03*
%TD*%
D12*
%TO.C,J3*%
X162495500Y-72757001D03*
D13*
X157415500Y-72757001D03*
%TD*%
D14*
%TO.C,C6*%
X152368000Y-83425001D03*
X142368000Y-83425001D03*
%TD*%
D11*
%TO.C,REF\u002A\u002A*%
X168533000Y-135035001D03*
%TD*%
D15*
%TO.C,K1*%
X134147000Y-126527001D03*
X128147000Y-112327001D03*
X140147000Y-112327001D03*
X140147000Y-124527001D03*
X128147000Y-124527001D03*
%TD*%
D16*
%TO.C,J4*%
X169453000Y-106099001D03*
D17*
X169453000Y-103559001D03*
X169453000Y-101019001D03*
X169453000Y-98479001D03*
X169453000Y-95939001D03*
X169453000Y-93399001D03*
%TD*%
D12*
%TO.C,J2*%
X151078000Y-72757001D03*
D13*
X145998000Y-72757001D03*
%TD*%
D12*
%TO.C,J1*%
X139660500Y-72757001D03*
D13*
X134580500Y-72757001D03*
%TD*%
D18*
%TO.C,C1*%
X129321000Y-90149001D03*
X129321000Y-105149001D03*
%TD*%
D19*
%TO.C,PS1*%
X135586500Y-95149001D03*
D20*
X135586500Y-100149001D03*
X164986500Y-89949001D03*
X164986500Y-105349001D03*
%TD*%
D16*
%TO.C,J5*%
X169478000Y-125081001D03*
D17*
X169478000Y-127621001D03*
X169478000Y-130161001D03*
%TD*%
D11*
%TO.C,REF\u002A\u002A*%
X128533000Y-135035001D03*
%TD*%
%TO.C,REF\u002A\u002A*%
X168533000Y-68035001D03*
%TD*%
D21*
%TO.C,SW1*%
X132155000Y-84975001D03*
D22*
X132155000Y-82975001D03*
X132155000Y-80975001D03*
X137155000Y-84975001D03*
X137155000Y-82975001D03*
X137155000Y-80975001D03*
%TD*%
M02*
