%TF.GenerationSoftware,KiCad,Pcbnew,7.0.8*%
%TF.CreationDate,2025-03-27T12:51:53-03:00*%
%TF.ProjectId,on_off_module_x1,6f6e5f6f-6666-45f6-9d6f-64756c655f78,2.0*%
%TF.SameCoordinates,Original*%
%TF.FileFunction,Other,User*%
%FSLAX46Y46*%
G04 Gerber Fmt 4.6, Leading zero omitted, Abs format (unit mm)*
G04 Created by KiCad (PCBNEW 7.0.8) date 2025-03-27 12:51:53*
%MOMM*%
%LPD*%
G01*
G04 APERTURE LIST*
%ADD10C,0.050000*%
G04 APERTURE END LIST*
D10*
%TO.C,C5*%
X161881000Y-116362001D02*
X161881000Y-119322001D01*
X160421000Y-116362001D02*
X161881000Y-116362001D01*
X161881000Y-119322001D02*
X160421000Y-119322001D01*
X160421000Y-119322001D02*
X160421000Y-116362001D01*
%TO.C,R8*%
X165971000Y-116000001D02*
X168871000Y-116000001D01*
X165971000Y-120700001D02*
X168871000Y-120700001D01*
X165971000Y-116000001D02*
G75*
G03*
X165971000Y-120700001I1450000J-2350000D01*
G01*
X168871000Y-120700000D02*
G75*
G03*
X168871000Y-116000002I-1450001J2349999D01*
G01*
%TO.C,Q1*%
X137205000Y-131932001D02*
X137205000Y-128532001D01*
X137205000Y-128532001D02*
X133365000Y-128532001D01*
X133365000Y-131932001D02*
X137205000Y-131932001D01*
X133365000Y-128532001D02*
X133365000Y-131932001D01*
%TO.C,REF\u002A\u002A*%
X131283000Y-68035001D02*
G75*
G03*
X131283000Y-68035001I-2750000J0D01*
G01*
%TO.C,D2*%
X131165000Y-133793001D02*
X133065000Y-133793001D01*
X131165000Y-133793001D02*
X131165000Y-130593001D01*
X133065000Y-133793001D02*
X133065000Y-130593001D01*
X131165000Y-130593001D02*
X133065000Y-130593001D01*
%TO.C,J3*%
X165535500Y-78467001D02*
X165535500Y-67657001D01*
X165535500Y-67657001D02*
X154365500Y-67657001D01*
X154365500Y-78467001D02*
X165535500Y-78467001D01*
X154365500Y-67657001D02*
X154365500Y-78467001D01*
%TO.C,R9*%
X155161000Y-82679001D02*
X159361000Y-82679001D01*
X155161000Y-84679001D02*
X155161000Y-82679001D01*
X159361000Y-82679001D02*
X159361000Y-84679001D01*
X159361000Y-84679001D02*
X155161000Y-84679001D01*
%TO.C,U4*%
X159781000Y-78777001D02*
X159781000Y-86977001D01*
X159781000Y-86977001D02*
X169981000Y-86977001D01*
X169981000Y-78777001D02*
X159781000Y-78777001D01*
X169981000Y-86977001D02*
X169981000Y-78777001D01*
%TO.C,C6*%
X154118000Y-86675001D02*
X154118000Y-80175001D01*
X154118000Y-80175001D02*
X140618000Y-80175001D01*
X140618000Y-86675001D02*
X154118000Y-86675001D01*
X140618000Y-80175001D02*
X140618000Y-86675001D01*
%TO.C,REF\u002A\u002A*%
X171283000Y-135035001D02*
G75*
G03*
X171283000Y-135035001I-2750000J0D01*
G01*
%TO.C,D1*%
X169155000Y-75138001D02*
X166195000Y-75138001D01*
X169155000Y-73678001D02*
X169155000Y-75138001D01*
X166195000Y-75138001D02*
X166195000Y-73678001D01*
X166195000Y-73678001D02*
X169155000Y-73678001D01*
%TO.C,K1*%
X141997000Y-128277001D02*
X126297000Y-128277001D01*
X141997000Y-128277001D02*
X141997000Y-108677001D01*
X126297000Y-108677001D02*
X126297000Y-128277001D01*
X126297000Y-108677001D02*
X141997000Y-108677001D01*
%TO.C,J4*%
X171253000Y-107899001D02*
X167703000Y-107899001D01*
X171253000Y-91649001D02*
X171253000Y-107899001D01*
X167703000Y-107899001D02*
X167703000Y-91649001D01*
X167703000Y-91649001D02*
X171253000Y-91649001D01*
%TO.C,R5*%
X164341000Y-125213501D02*
X164341000Y-128173501D01*
X162881000Y-125213501D02*
X164341000Y-125213501D01*
X164341000Y-128173501D02*
X162881000Y-128173501D01*
X162881000Y-128173501D02*
X162881000Y-125213501D01*
%TO.C,J2*%
X154118000Y-78467001D02*
X154118000Y-67657001D01*
X154118000Y-67657001D02*
X142948000Y-67657001D01*
X142948000Y-78467001D02*
X154118000Y-78467001D01*
X142948000Y-67657001D02*
X142948000Y-78467001D01*
%TO.C,J1*%
X142700500Y-78467001D02*
X142700500Y-67657001D01*
X142700500Y-67657001D02*
X131530500Y-67657001D01*
X131530500Y-78467001D02*
X142700500Y-78467001D01*
X131530500Y-67657001D02*
X131530500Y-78467001D01*
%TO.C,R10*%
X155161000Y-80139001D02*
X159361000Y-80139001D01*
X155161000Y-82139001D02*
X155161000Y-80139001D01*
X159361000Y-80139001D02*
X159361000Y-82139001D01*
X159361000Y-82139001D02*
X155161000Y-82139001D01*
%TO.C,U1*%
X153558000Y-117392001D02*
X153558000Y-110192001D01*
X153558000Y-110192001D02*
X144758000Y-110192001D01*
X144758000Y-117392001D02*
X153558000Y-117392001D01*
X144758000Y-110192001D02*
X144758000Y-117392001D01*
%TO.C,R6*%
X137481000Y-131712001D02*
X137481000Y-128752001D01*
X138941000Y-131712001D02*
X137481000Y-131712001D01*
X137481000Y-128752001D02*
X138941000Y-128752001D01*
X138941000Y-128752001D02*
X138941000Y-131712001D01*
%TO.C,C4*%
X154131998Y-112945999D02*
X159931998Y-112945999D01*
X154131998Y-115145999D02*
X154131998Y-112945999D01*
X159931998Y-112945999D02*
X159931998Y-115145999D01*
X159931998Y-115145999D02*
X154131998Y-115145999D01*
%TO.C,R2*%
X164341000Y-133213501D02*
X164341000Y-136173501D01*
X162881000Y-133213501D02*
X164341000Y-133213501D01*
X164341000Y-136173501D02*
X162881000Y-136173501D01*
X162881000Y-136173501D02*
X162881000Y-133213501D01*
%TO.C,U2*%
X162701000Y-144268501D02*
X145201000Y-144268501D01*
X162701000Y-136018501D02*
X162701000Y-144268501D01*
X162701000Y-119518501D02*
X162701000Y-136018501D01*
X145201000Y-144268501D02*
X144201000Y-144268501D01*
X144201000Y-144268501D02*
X144201000Y-119518501D01*
X144201000Y-119518501D02*
X162701000Y-119518501D01*
%TO.C,C1*%
X132571000Y-88399001D02*
X126071000Y-88399001D01*
X126071000Y-88399001D02*
X126071000Y-106899001D01*
X132571000Y-106899001D02*
X132571000Y-88399001D01*
X126071000Y-106899001D02*
X132571000Y-106899001D01*
%TO.C,U3*%
X143565000Y-137787001D02*
X143565000Y-132187001D01*
X143565000Y-132187001D02*
X133365000Y-132187001D01*
X133365000Y-137787001D02*
X143565000Y-137787001D01*
X133365000Y-132187001D02*
X133365000Y-137787001D01*
%TO.C,PS1*%
X133036500Y-87399001D02*
X133036500Y-107899001D01*
X133036500Y-107899001D02*
X167536500Y-107899001D01*
X167536500Y-87399001D02*
X133036500Y-87399001D01*
X167536500Y-107899001D02*
X167536500Y-87399001D01*
%TO.C,R7*%
X165941000Y-120922001D02*
X168901000Y-120922001D01*
X165941000Y-122382001D02*
X165941000Y-120922001D01*
X168901000Y-120922001D02*
X168901000Y-122382001D01*
X168901000Y-122382001D02*
X165941000Y-122382001D01*
%TO.C,C3*%
X154131999Y-110192000D02*
X159931999Y-110192000D01*
X154131999Y-112392000D02*
X154131999Y-110192000D01*
X159931999Y-110192000D02*
X159931999Y-112392000D01*
X159931999Y-112392000D02*
X154131999Y-112392000D01*
%TO.C,J5*%
X167678000Y-123281001D02*
X167678000Y-131931001D01*
X167678000Y-131931001D02*
X171278000Y-131931001D01*
X171278000Y-123281001D02*
X167678000Y-123281001D01*
X171278000Y-131931001D02*
X171278000Y-123281001D01*
%TO.C,REF\u002A\u002A*%
X131283000Y-135035001D02*
G75*
G03*
X131283000Y-135035001I-2750000J0D01*
G01*
X171283000Y-68035001D02*
G75*
G03*
X171283000Y-68035001I-2750000J0D01*
G01*
%TO.C,C2*%
X160833000Y-110950000D02*
X160833000Y-113050000D01*
X160833000Y-113050000D02*
X161983000Y-113050000D01*
X161983000Y-109600000D02*
X161983000Y-110950000D01*
X161983000Y-109600000D02*
X163133000Y-108450000D01*
X161983000Y-110950000D02*
X160833000Y-110950000D01*
X161983000Y-113050000D02*
X161983000Y-114400000D01*
X161983000Y-114400000D02*
X163133000Y-115550000D01*
X163133000Y-108450000D02*
X169083000Y-108450000D01*
X163133000Y-115550000D02*
X169083000Y-115550000D01*
X169083000Y-108450000D02*
X169083000Y-110950000D01*
X169083000Y-110950000D02*
X170233000Y-110950000D01*
X169083000Y-113050000D02*
X169083000Y-115550000D01*
X170233000Y-110950000D02*
X170233000Y-113050000D01*
X170233000Y-113050000D02*
X169083000Y-113050000D01*
%TO.C,R4*%
X169175000Y-77166503D02*
X166215000Y-77166503D01*
X169175000Y-75706503D02*
X169175000Y-77166503D01*
X166215000Y-77166503D02*
X166215000Y-75706503D01*
X166215000Y-75706503D02*
X169175000Y-75706503D01*
%TO.C,R3*%
X142561000Y-124173501D02*
X142561000Y-121213501D01*
X144021000Y-124173501D02*
X142561000Y-124173501D01*
X142561000Y-121213501D02*
X144021000Y-121213501D01*
X144021000Y-121213501D02*
X144021000Y-124173501D01*
%TO.C,SW1*%
X130955000Y-86675001D02*
X130955000Y-79275001D01*
X138355000Y-86675001D02*
X130955000Y-86675001D01*
X138355000Y-86675001D02*
X138355000Y-79275001D01*
X130955000Y-79275001D02*
X138355000Y-79275001D01*
%TO.C,R1*%
X164341000Y-129213501D02*
X164341000Y-132173501D01*
X162881000Y-129213501D02*
X164341000Y-129213501D01*
X164341000Y-132173501D02*
X162881000Y-132173501D01*
X162881000Y-132173501D02*
X162881000Y-129213501D01*
%TD*%
M02*
