%TF.GenerationSoftware,KiCad,Pcbnew,7.0.8*%
%TF.CreationDate,2025-03-27T12:51:53-03:00*%
%TF.ProjectId,on_off_module_x1,6f6e5f6f-6666-45f6-9d6f-64756c655f78,2.0*%
%TF.SameCoordinates,Original*%
%TF.FileFunction,AssemblyDrawing,Top*%
%FSLAX46Y46*%
G04 Gerber Fmt 4.6, Leading zero omitted, Abs format (unit mm)*
G04 Created by KiCad (PCBNEW 7.0.8) date 2025-03-27 12:51:53*
%MOMM*%
%LPD*%
G01*
G04 APERTURE LIST*
%ADD10C,0.100000*%
%ADD11C,0.152400*%
%ADD12C,0.050000*%
G04 APERTURE END LIST*
D10*
%TO.C,C5*%
X161551000Y-117042001D02*
X161551000Y-118642001D01*
X160751000Y-117042001D02*
X161551000Y-117042001D01*
X161551000Y-118642001D02*
X160751000Y-118642001D01*
X160751000Y-118642001D02*
X160751000Y-117042001D01*
%TO.C,R8*%
X166051000Y-116200001D02*
X168791000Y-116200001D01*
X166051000Y-120500001D02*
X168791000Y-120500001D01*
X166051000Y-116200001D02*
G75*
G03*
X166051000Y-120500001I1370000J-2150000D01*
G01*
X168791000Y-120500001D02*
G75*
G03*
X168791000Y-116200001I-1370000J2150000D01*
G01*
%TO.C,Q1*%
X135935000Y-131357001D02*
X135610000Y-131682001D01*
X135935000Y-128782001D02*
X135935000Y-131357001D01*
X135610000Y-131682001D02*
X134635000Y-131682001D01*
X134635000Y-131682001D02*
X134635000Y-128782001D01*
X134635000Y-128782001D02*
X135935000Y-128782001D01*
%TO.C,D2*%
X131415000Y-133093001D02*
X131415000Y-131293001D01*
X132815000Y-133093001D02*
X131415000Y-133093001D01*
X131765000Y-132493001D02*
X132465000Y-132493001D01*
X132115000Y-132493001D02*
X132115000Y-132693001D01*
X132115000Y-132493001D02*
X131765000Y-131993001D01*
X131765000Y-131993001D02*
X132465000Y-131993001D01*
X132115000Y-131993001D02*
X132115000Y-131743001D01*
X132465000Y-131993001D02*
X132115000Y-132493001D01*
X131415000Y-131293001D02*
X132815000Y-131293001D01*
X132815000Y-131293001D02*
X132815000Y-133093001D01*
%TO.C,J3*%
X165035500Y-77957001D02*
X154875500Y-77957001D01*
X165035500Y-75057001D02*
X154875500Y-75057001D01*
X165035500Y-70157001D02*
X154875500Y-70157001D01*
X165035500Y-68657001D02*
X165035500Y-77957001D01*
X165035500Y-68657001D02*
X154875500Y-68657001D01*
X164535500Y-68157001D02*
X165035500Y-68657001D01*
X161540500Y-73895001D02*
X163633500Y-71802001D01*
X161357500Y-73712001D02*
X163450500Y-71619001D01*
X156460500Y-73895001D02*
X158552500Y-71802001D01*
X156277500Y-73712001D02*
X158369500Y-71619001D01*
X154875500Y-77957001D02*
X154875500Y-68157001D01*
X154875500Y-68157001D02*
X164535500Y-68157001D01*
X163995500Y-72757001D02*
G75*
G03*
X163995500Y-72757001I-1500000J0D01*
G01*
X158915500Y-72757001D02*
G75*
G03*
X158915500Y-72757001I-1500000J0D01*
G01*
%TO.C,R9*%
X155761000Y-82979001D02*
X158761000Y-82979001D01*
X155761000Y-84379001D02*
X155761000Y-82979001D01*
X158761000Y-82979001D02*
X158761000Y-84379001D01*
X158761000Y-84379001D02*
X155761000Y-84379001D01*
%TO.C,U4*%
X161706000Y-80067001D02*
X162706000Y-79067001D01*
X161706000Y-86687001D02*
X161706000Y-80067001D01*
X162706000Y-79067001D02*
X168056000Y-79067001D01*
X168056000Y-79067001D02*
X168056000Y-86687001D01*
X168056000Y-86687001D02*
X161706000Y-86687001D01*
%TO.C,C6*%
X153868000Y-86425001D02*
X153868000Y-80425001D01*
X153868000Y-80425001D02*
X140868000Y-80425001D01*
X140868000Y-86425001D02*
X153868000Y-86425001D01*
X140868000Y-80425001D02*
X140868000Y-86425001D01*
%TO.C,D1*%
X168475000Y-74508001D02*
X168475000Y-74008001D01*
X168475000Y-74008001D02*
X166875000Y-74008001D01*
X168175000Y-74808001D02*
X168475000Y-74508001D01*
X166875000Y-74808001D02*
X168175000Y-74808001D01*
X166875000Y-74008001D02*
X166875000Y-74808001D01*
%TO.C,K1*%
X126547000Y-127927001D02*
X126547000Y-108927001D01*
X141747000Y-127927001D02*
X126547000Y-127927001D01*
X126547000Y-108927001D02*
X141747000Y-108927001D01*
X141747000Y-108927001D02*
X141747000Y-127927001D01*
%TO.C,J4*%
X170723000Y-107369001D02*
X168818000Y-107369001D01*
X170723000Y-92129001D02*
X170723000Y-107369001D01*
X168818000Y-107369001D02*
X168183000Y-106734001D01*
X168183000Y-106734001D02*
X168183000Y-92129001D01*
X168183000Y-92129001D02*
X170723000Y-92129001D01*
%TO.C,R5*%
X164023500Y-125893501D02*
X164023500Y-127493501D01*
X163198500Y-125893501D02*
X164023500Y-125893501D01*
X164023500Y-127493501D02*
X163198500Y-127493501D01*
X163198500Y-127493501D02*
X163198500Y-125893501D01*
%TO.C,J2*%
X153618000Y-77957001D02*
X143458000Y-77957001D01*
X153618000Y-75057001D02*
X143458000Y-75057001D01*
X153618000Y-70157001D02*
X143458000Y-70157001D01*
X153618000Y-68657001D02*
X153618000Y-77957001D01*
X153618000Y-68657001D02*
X143458000Y-68657001D01*
X153118000Y-68157001D02*
X153618000Y-68657001D01*
X150123000Y-73895001D02*
X152216000Y-71802001D01*
X149940000Y-73712001D02*
X152033000Y-71619001D01*
X145043000Y-73895001D02*
X147135000Y-71802001D01*
X144860000Y-73712001D02*
X146952000Y-71619001D01*
X143458000Y-77957001D02*
X143458000Y-68157001D01*
X143458000Y-68157001D02*
X153118000Y-68157001D01*
X152578000Y-72757001D02*
G75*
G03*
X152578000Y-72757001I-1500000J0D01*
G01*
X147498000Y-72757001D02*
G75*
G03*
X147498000Y-72757001I-1500000J0D01*
G01*
%TO.C,J1*%
X142200500Y-77957001D02*
X132040500Y-77957001D01*
X142200500Y-75057001D02*
X132040500Y-75057001D01*
X142200500Y-70157001D02*
X132040500Y-70157001D01*
X142200500Y-68657001D02*
X142200500Y-77957001D01*
X142200500Y-68657001D02*
X132040500Y-68657001D01*
X141700500Y-68157001D02*
X142200500Y-68657001D01*
X138705500Y-73895001D02*
X140798500Y-71802001D01*
X138522500Y-73712001D02*
X140615500Y-71619001D01*
X133625500Y-73895001D02*
X135717500Y-71802001D01*
X133442500Y-73712001D02*
X135534500Y-71619001D01*
X132040500Y-77957001D02*
X132040500Y-68157001D01*
X132040500Y-68157001D02*
X141700500Y-68157001D01*
X141160500Y-72757001D02*
G75*
G03*
X141160500Y-72757001I-1500000J0D01*
G01*
X136080500Y-72757001D02*
G75*
G03*
X136080500Y-72757001I-1500000J0D01*
G01*
%TO.C,R10*%
X155761000Y-80439001D02*
X158761000Y-80439001D01*
X155761000Y-81839001D02*
X155761000Y-80439001D01*
X158761000Y-80439001D02*
X158761000Y-81839001D01*
X158761000Y-81839001D02*
X155761000Y-81839001D01*
%TO.C,U1*%
X151008000Y-116142001D02*
X151008000Y-110442001D01*
X151008000Y-116142001D02*
X150008000Y-117142001D01*
X151008000Y-110442001D02*
X147308000Y-110442001D01*
X150008000Y-117142001D02*
X147308000Y-117142001D01*
X147308000Y-117142001D02*
X147308000Y-110442001D01*
%TO.C,R6*%
X137798500Y-131032001D02*
X137798500Y-129432001D01*
X138623500Y-131032001D02*
X137798500Y-131032001D01*
X137798500Y-129432001D02*
X138623500Y-129432001D01*
X138623500Y-129432001D02*
X138623500Y-131032001D01*
%TO.C,C4*%
X155431998Y-113645999D02*
X155431998Y-114845999D01*
X155431998Y-114845999D02*
X158631998Y-114845999D01*
X155831998Y-113245999D02*
X155431998Y-113645999D01*
X158631998Y-113245999D02*
X155831998Y-113245999D01*
X158631998Y-114845999D02*
X158631998Y-113245999D01*
%TO.C,R2*%
X164023500Y-133893501D02*
X164023500Y-135493501D01*
X163198500Y-133893501D02*
X164023500Y-133893501D01*
X164023500Y-135493501D02*
X163198500Y-135493501D01*
X163198500Y-135493501D02*
X163198500Y-133893501D01*
D11*
%TO.C,U2*%
X161467000Y-143900501D02*
X161459000Y-138118501D01*
X161467000Y-143900501D02*
X145465000Y-143900501D01*
X161467000Y-143900501D02*
X145459000Y-138118501D01*
D12*
X161459000Y-143918501D02*
X145459000Y-143918501D01*
D11*
X161459000Y-138118501D02*
X145459000Y-138118501D01*
D12*
X161459000Y-119918501D02*
X161459000Y-143918501D01*
D11*
X145465000Y-143900501D02*
X161459000Y-138118501D01*
X145465000Y-143900501D02*
X145459000Y-138118501D01*
D12*
X145459000Y-119918501D02*
X161459000Y-119918501D01*
X145451000Y-143918501D02*
X145451000Y-119918501D01*
D10*
%TO.C,C1*%
X132321000Y-88649001D02*
X126321000Y-88649001D01*
X126321000Y-88649001D02*
X126321000Y-106649001D01*
X132321000Y-106649001D02*
X132321000Y-88649001D01*
X126321000Y-106649001D02*
X132321000Y-106649001D01*
%TO.C,U3*%
X141640000Y-136527001D02*
X140640000Y-137527001D01*
X141640000Y-132447001D02*
X141640000Y-136527001D01*
X140640000Y-137527001D02*
X135290000Y-137527001D01*
X135290000Y-137527001D02*
X135290000Y-132447001D01*
X135290000Y-132447001D02*
X141640000Y-132447001D01*
%TO.C,PS1*%
X133286500Y-87649001D02*
X167286500Y-87649001D01*
X133286500Y-94149001D02*
X133286500Y-87649001D01*
X133286500Y-107649001D02*
X133286500Y-96139001D01*
X133286500Y-107649001D02*
X167286500Y-107649001D01*
X133296500Y-94149001D02*
X134296500Y-95149001D01*
X134296500Y-95149001D02*
X133296500Y-96149001D01*
X167286500Y-107649001D02*
X167286500Y-87649001D01*
%TO.C,R7*%
X166621000Y-121239501D02*
X168221000Y-121239501D01*
X166621000Y-122064501D02*
X166621000Y-121239501D01*
X168221000Y-121239501D02*
X168221000Y-122064501D01*
X168221000Y-122064501D02*
X166621000Y-122064501D01*
%TO.C,C3*%
X155431999Y-110892000D02*
X155431999Y-112092000D01*
X155431999Y-112092000D02*
X158631999Y-112092000D01*
X155831999Y-110492000D02*
X155431999Y-110892000D01*
X158631999Y-110492000D02*
X155831999Y-110492000D01*
X158631999Y-112092000D02*
X158631999Y-110492000D01*
%TO.C,J5*%
X168208000Y-124446001D02*
X168843000Y-123811001D01*
X168208000Y-131431001D02*
X168208000Y-124446001D01*
X168843000Y-123811001D02*
X170748000Y-123811001D01*
X170748000Y-123811001D02*
X170748000Y-131431001D01*
X170748000Y-131431001D02*
X168208000Y-131431001D01*
%TO.C,C2*%
X162233000Y-109700000D02*
X162233000Y-114300000D01*
X162233000Y-109700000D02*
X163233000Y-108700000D01*
X162233000Y-114300000D02*
X163233000Y-115300000D01*
X162828162Y-110670000D02*
X163458162Y-110670000D01*
X163143162Y-110355000D02*
X163143162Y-110985000D01*
X163233000Y-108700000D02*
X168833000Y-108700000D01*
X163233000Y-115300000D02*
X168833000Y-115300000D01*
X168833000Y-108700000D02*
X168833000Y-115300000D01*
X168683000Y-112000000D02*
G75*
G03*
X168683000Y-112000000I-3150000J0D01*
G01*
%TO.C,R4*%
X168495000Y-76849003D02*
X166895000Y-76849003D01*
X168495000Y-76024003D02*
X168495000Y-76849003D01*
X166895000Y-76849003D02*
X166895000Y-76024003D01*
X166895000Y-76024003D02*
X168495000Y-76024003D01*
%TO.C,R3*%
X142878500Y-123493501D02*
X142878500Y-121893501D01*
X143703500Y-123493501D02*
X142878500Y-123493501D01*
X142878500Y-121893501D02*
X143703500Y-121893501D01*
X143703500Y-121893501D02*
X143703500Y-123493501D01*
%TO.C,SW1*%
X131155000Y-86475001D02*
X131155000Y-79475001D01*
X132155000Y-86475001D02*
X131155000Y-85475001D01*
X138155000Y-86475001D02*
X131155000Y-86475001D01*
X131155000Y-79475001D02*
X138155000Y-79475001D01*
X138155000Y-79475001D02*
X138155000Y-86475001D01*
%TO.C,R1*%
X164023500Y-129893501D02*
X164023500Y-131493501D01*
X163198500Y-129893501D02*
X164023500Y-129893501D01*
X164023500Y-131493501D02*
X163198500Y-131493501D01*
X163198500Y-131493501D02*
X163198500Y-129893501D01*
%TD*%
M02*
