%TF.GenerationSoftware,KiCad,Pcbnew,7.0.8*%
%TF.CreationDate,2025-03-27T12:51:53-03:00*%
%TF.ProjectId,on_off_module_x1,6f6e5f6f-6666-45f6-9d6f-64756c655f78,2.0*%
%TF.SameCoordinates,Original*%
%TF.FileFunction,Copper,L1,Top*%
%TF.FilePolarity,Positive*%
%FSLAX46Y46*%
G04 Gerber Fmt 4.6, Leading zero omitted, Abs format (unit mm)*
G04 Created by KiCad (PCBNEW 7.0.8) date 2025-03-27 12:51:53*
%MOMM*%
%LPD*%
G01*
G04 APERTURE LIST*
G04 Aperture macros list*
%AMRoundRect*
0 Rectangle with rounded corners*
0 $1 Rounding radius*
0 $2 $3 $4 $5 $6 $7 $8 $9 X,Y pos of 4 corners*
0 Add a 4 corners polygon primitive as box body*
4,1,4,$2,$3,$4,$5,$6,$7,$8,$9,$2,$3,0*
0 Add four circle primitives for the rounded corners*
1,1,$1+$1,$2,$3*
1,1,$1+$1,$4,$5*
1,1,$1+$1,$6,$7*
1,1,$1+$1,$8,$9*
0 Add four rect primitives between the rounded corners*
20,1,$1+$1,$2,$3,$4,$5,0*
20,1,$1+$1,$4,$5,$6,$7,0*
20,1,$1+$1,$6,$7,$8,$9,0*
20,1,$1+$1,$8,$9,$2,$3,0*%
G04 Aperture macros list end*
%TA.AperFunction,SMDPad,CuDef*%
%ADD10RoundRect,0.225000X-0.250000X0.225000X-0.250000X-0.225000X0.250000X-0.225000X0.250000X0.225000X0*%
%TD*%
%TA.AperFunction,ComponentPad*%
%ADD11C,1.100000*%
%TD*%
%TA.AperFunction,SMDPad,CuDef*%
%ADD12RoundRect,0.150000X0.587500X0.150000X-0.587500X0.150000X-0.587500X-0.150000X0.587500X-0.150000X0*%
%TD*%
%TA.AperFunction,SMDPad,CuDef*%
%ADD13RoundRect,0.125000X0.125000X-0.125000X0.125000X0.125000X-0.125000X0.125000X-0.125000X-0.125000X0*%
%TD*%
%TA.AperFunction,ComponentPad*%
%ADD14R,2.600000X2.600000*%
%TD*%
%TA.AperFunction,ComponentPad*%
%ADD15C,2.600000*%
%TD*%
%TA.AperFunction,SMDPad,CuDef*%
%ADD16RoundRect,0.225000X-0.225000X-0.575000X0.225000X-0.575000X0.225000X0.575000X-0.225000X0.575000X0*%
%TD*%
%TA.AperFunction,SMDPad,CuDef*%
%ADD17R,2.000000X1.780000*%
%TD*%
%TA.AperFunction,ComponentPad*%
%ADD18C,2.000000*%
%TD*%
%TA.AperFunction,SMDPad,CuDef*%
%ADD19RoundRect,0.218750X0.218750X0.256250X-0.218750X0.256250X-0.218750X-0.256250X0.218750X-0.256250X0*%
%TD*%
%TA.AperFunction,ComponentPad*%
%ADD20C,3.000000*%
%TD*%
%TA.AperFunction,ComponentPad*%
%ADD21R,1.700000X1.700000*%
%TD*%
%TA.AperFunction,ComponentPad*%
%ADD22O,1.700000X1.700000*%
%TD*%
%TA.AperFunction,SMDPad,CuDef*%
%ADD23RoundRect,0.200000X-0.275000X0.200000X-0.275000X-0.200000X0.275000X-0.200000X0.275000X0.200000X0*%
%TD*%
%TA.AperFunction,SMDPad,CuDef*%
%ADD24R,2.000000X1.500000*%
%TD*%
%TA.AperFunction,SMDPad,CuDef*%
%ADD25R,2.000000X3.800000*%
%TD*%
%TA.AperFunction,SMDPad,CuDef*%
%ADD26RoundRect,0.200000X0.275000X-0.200000X0.275000X0.200000X-0.275000X0.200000X-0.275000X-0.200000X0*%
%TD*%
%TA.AperFunction,SMDPad,CuDef*%
%ADD27RoundRect,0.259259X-0.440741X-0.640741X0.440741X-0.640741X0.440741X0.640741X-0.440741X0.640741X0*%
%TD*%
%TA.AperFunction,SMDPad,CuDef*%
%ADD28R,2.500000X1.100000*%
%TD*%
%TA.AperFunction,SMDPad,CuDef*%
%ADD29R,1.100000X2.500000*%
%TD*%
%TA.AperFunction,ComponentPad*%
%ADD30C,2.400000*%
%TD*%
%TA.AperFunction,ComponentPad*%
%ADD31R,2.300000X2.000000*%
%TD*%
%TA.AperFunction,ComponentPad*%
%ADD32C,2.300000*%
%TD*%
%TA.AperFunction,SMDPad,CuDef*%
%ADD33RoundRect,0.200000X-0.200000X-0.275000X0.200000X-0.275000X0.200000X0.275000X-0.200000X0.275000X0*%
%TD*%
%TA.AperFunction,SMDPad,CuDef*%
%ADD34RoundRect,0.250000X-1.500000X-0.550000X1.500000X-0.550000X1.500000X0.550000X-1.500000X0.550000X0*%
%TD*%
%TA.AperFunction,SMDPad,CuDef*%
%ADD35RoundRect,0.200000X0.200000X0.275000X-0.200000X0.275000X-0.200000X-0.275000X0.200000X-0.275000X0*%
%TD*%
%TA.AperFunction,ComponentPad*%
%ADD36R,1.500000X1.500000*%
%TD*%
%TA.AperFunction,ComponentPad*%
%ADD37C,1.500000*%
%TD*%
%TA.AperFunction,ViaPad*%
%ADD38C,0.800000*%
%TD*%
%TA.AperFunction,Conductor*%
%ADD39C,1.016000*%
%TD*%
%TA.AperFunction,Conductor*%
%ADD40C,0.762000*%
%TD*%
%TA.AperFunction,Conductor*%
%ADD41C,0.508000*%
%TD*%
%TA.AperFunction,Conductor*%
%ADD42C,1.270000*%
%TD*%
%TA.AperFunction,Conductor*%
%ADD43C,0.250000*%
%TD*%
G04 APERTURE END LIST*
D10*
%TO.P,C5,1*%
%TO.N,GND*%
X161151000Y-117067001D03*
%TO.P,C5,2*%
%TO.N,+3.3V*%
X161151000Y-118617001D03*
%TD*%
D11*
%TO.P,R8,1*%
%TO.N,GND*%
X165721000Y-118350001D03*
%TO.P,R8,2*%
%TO.N,LDR*%
X169121000Y-118350001D03*
%TD*%
D12*
%TO.P,Q1,1,G*%
%TO.N,Net-(Q1-G)*%
X136222500Y-131182001D03*
%TO.P,Q1,2,S*%
%TO.N,GND*%
X136222500Y-129282001D03*
%TO.P,Q1,3,D*%
%TO.N,Net-(D2-A)*%
X134347500Y-130232001D03*
%TD*%
D13*
%TO.P,D2,1,K*%
%TO.N,+12V*%
X132115000Y-133293001D03*
%TO.P,D2,2,A*%
%TO.N,Net-(D2-A)*%
X132115000Y-131093001D03*
%TD*%
D14*
%TO.P,J3,1,Pin_1*%
%TO.N,NEUT*%
X162495500Y-72757001D03*
D15*
%TO.P,J3,2,Pin_2*%
%TO.N,Net-(J3-Pin_2)*%
X157415500Y-72757001D03*
%TD*%
D16*
%TO.P,R9,1*%
%TO.N,Net-(J2-Pin_2)*%
X155811000Y-83679001D03*
%TO.P,R9,2*%
%TO.N,Net-(R9-Pad2)*%
X158711000Y-83679001D03*
%TD*%
D17*
%TO.P,U4,1*%
%TO.N,Net-(C6-Pad2)*%
X161071000Y-80337001D03*
%TO.P,U4,2*%
%TO.N,Net-(R9-Pad2)*%
X161071000Y-82877001D03*
%TO.P,U4,3,NC*%
%TO.N,unconnected-(U4-NC-Pad3)*%
X161071000Y-85417001D03*
%TO.P,U4,4*%
%TO.N,GND*%
X168691000Y-85417001D03*
%TO.P,U4,5*%
%TO.N,SWITCH*%
X168691000Y-82877001D03*
%TO.P,U4,6*%
%TO.N,unconnected-(U4-Pad6)*%
X168691000Y-80337001D03*
%TD*%
D18*
%TO.P,C6,1*%
%TO.N,Net-(J2-Pin_1)*%
X152368000Y-83425001D03*
%TO.P,C6,2*%
%TO.N,Net-(C6-Pad2)*%
X142368000Y-83425001D03*
%TD*%
D19*
%TO.P,D1,1,K*%
%TO.N,GND*%
X168462500Y-74408001D03*
%TO.P,D1,2,A*%
%TO.N,Net-(D1-A)*%
X166887500Y-74408001D03*
%TD*%
D20*
%TO.P,K1,11*%
%TO.N,LINE*%
X134147000Y-126527001D03*
%TO.P,K1,12*%
%TO.N,unconnected-(K1-Pad12)*%
X128147000Y-112327001D03*
%TO.P,K1,14*%
%TO.N,Net-(J3-Pin_2)*%
X140147000Y-112327001D03*
%TO.P,K1,A1*%
%TO.N,+12V*%
X140147000Y-124527001D03*
%TO.P,K1,A2*%
%TO.N,Net-(D2-A)*%
X128147000Y-124527001D03*
%TD*%
D21*
%TO.P,J4,1,Pin_1*%
%TO.N,unconnected-(J4-Pin_1-Pad1)*%
X169453000Y-106099001D03*
D22*
%TO.P,J4,2,Pin_2*%
%TO.N,unconnected-(J4-Pin_2-Pad2)*%
X169453000Y-103559001D03*
%TO.P,J4,3,Pin_3*%
%TO.N,+3.3V*%
X169453000Y-101019001D03*
%TO.P,J4,4,Pin_4*%
%TO.N,TX*%
X169453000Y-98479001D03*
%TO.P,J4,5,Pin_5*%
%TO.N,RX*%
X169453000Y-95939001D03*
%TO.P,J4,6,Pin_6*%
%TO.N,GND*%
X169453000Y-93399001D03*
%TD*%
D23*
%TO.P,R5,1*%
%TO.N,Net-(R5-Pad1)*%
X163611000Y-125868501D03*
%TO.P,R5,2*%
%TO.N,RELAY*%
X163611000Y-127518501D03*
%TD*%
D14*
%TO.P,J2,1,Pin_1*%
%TO.N,Net-(J2-Pin_1)*%
X151078000Y-72757001D03*
D15*
%TO.P,J2,2,Pin_2*%
%TO.N,Net-(J2-Pin_2)*%
X145998000Y-72757001D03*
%TD*%
D14*
%TO.P,J1,1,Pin_1*%
%TO.N,NEUT*%
X139660500Y-72757001D03*
D15*
%TO.P,J1,2,Pin_2*%
%TO.N,Net-(J1-Pin_2)*%
X134580500Y-72757001D03*
%TD*%
D16*
%TO.P,R10,1*%
%TO.N,Net-(J2-Pin_1)*%
X155811000Y-81139001D03*
%TO.P,R10,2*%
%TO.N,Net-(C6-Pad2)*%
X158711000Y-81139001D03*
%TD*%
D24*
%TO.P,U1,1,GND*%
%TO.N,GND*%
X152308000Y-116092001D03*
%TO.P,U1,2,VO*%
%TO.N,+3.3V*%
X152308000Y-113792001D03*
D25*
X146008000Y-113792001D03*
D24*
%TO.P,U1,3,VI*%
%TO.N,+12V*%
X152308000Y-111492001D03*
%TD*%
D26*
%TO.P,R6,1*%
%TO.N,Net-(Q1-G)*%
X138211000Y-131057001D03*
%TO.P,R6,2*%
%TO.N,GND*%
X138211000Y-129407001D03*
%TD*%
D27*
%TO.P,C4,1*%
%TO.N,+3.3V*%
X155031998Y-114045999D03*
%TO.P,C4,2*%
%TO.N,GND*%
X159031998Y-114045999D03*
%TD*%
D23*
%TO.P,R2,1*%
%TO.N,+3.3V*%
X163611000Y-133868501D03*
%TO.P,R2,2*%
%TO.N,Net-(U2-REST)*%
X163611000Y-135518501D03*
%TD*%
D28*
%TO.P,U2,1,REST*%
%TO.N,Net-(U2-REST)*%
X161151000Y-135518501D03*
%TO.P,U2,2,ADC*%
%TO.N,unconnected-(U2-ADC-Pad2)*%
X161151000Y-133518501D03*
%TO.P,U2,3,CH_PD*%
%TO.N,Net-(U2-CH_PD)*%
X161151000Y-131518501D03*
%TO.P,U2,4,GPIO16*%
%TO.N,unconnected-(U2-GPIO16-Pad4)*%
X161151000Y-129518501D03*
%TO.P,U2,5,GPIO14*%
%TO.N,RELAY*%
X161151000Y-127518501D03*
%TO.P,U2,6,GPIO12*%
%TO.N,SWITCH*%
X161151000Y-125518501D03*
%TO.P,U2,7,GPIO13*%
%TO.N,LDR*%
X161151000Y-123518501D03*
%TO.P,U2,8,VCC*%
%TO.N,+3.3V*%
X161151000Y-121518501D03*
%TO.P,U2,9,GND*%
%TO.N,GND*%
X145751000Y-121518501D03*
%TO.P,U2,10,GPIO15*%
%TO.N,Net-(U2-GPIO15)*%
X145751000Y-123518501D03*
%TO.P,U2,11,GPIO2*%
%TO.N,unconnected-(U2-GPIO2-Pad11)*%
X145751000Y-125518501D03*
%TO.P,U2,12,GPIO0*%
%TO.N,FLASH*%
X145751000Y-127518501D03*
%TO.P,U2,13,GPIO4*%
%TO.N,unconnected-(U2-GPIO4-Pad13)*%
X145751000Y-129518501D03*
%TO.P,U2,14,GPIO5*%
%TO.N,unconnected-(U2-GPIO5-Pad14)*%
X145751000Y-131518501D03*
%TO.P,U2,15,RXD*%
%TO.N,TX*%
X145751000Y-133518501D03*
%TO.P,U2,16,TXD*%
%TO.N,RX*%
X145751000Y-135518501D03*
D29*
%TO.P,U2,17,CS0*%
%TO.N,unconnected-(U2-CS0-Pad17)*%
X158461000Y-119818501D03*
%TO.P,U2,18,MISO*%
%TO.N,unconnected-(U2-MISO-Pad18)*%
X156461000Y-119818501D03*
%TO.P,U2,19,GPIO9*%
%TO.N,unconnected-(U2-GPIO9-Pad19)*%
X154461000Y-119818501D03*
%TO.P,U2,20,GPIO10*%
%TO.N,unconnected-(U2-GPIO10-Pad20)*%
X152461000Y-119818501D03*
%TO.P,U2,21,MOSI*%
%TO.N,unconnected-(U2-MOSI-Pad21)*%
X150461000Y-119818501D03*
%TO.P,U2,22,SCLK*%
%TO.N,unconnected-(U2-SCLK-Pad22)*%
X148461000Y-119818501D03*
%TD*%
D30*
%TO.P,C1,1*%
%TO.N,LINE*%
X129321000Y-90149001D03*
%TO.P,C1,2*%
%TO.N,NEUT*%
X129321000Y-105149001D03*
%TD*%
D17*
%TO.P,U3,1*%
%TO.N,Net-(R5-Pad1)*%
X142275000Y-136257001D03*
%TO.P,U3,2*%
%TO.N,GND*%
X142275000Y-133717001D03*
%TO.P,U3,3*%
%TO.N,Net-(Q1-G)*%
X134655000Y-133717001D03*
%TO.P,U3,4*%
%TO.N,+12V*%
X134655000Y-136257001D03*
%TD*%
D31*
%TO.P,PS1,1,AC/L*%
%TO.N,LINE*%
X135586500Y-95149001D03*
D32*
%TO.P,PS1,2,AC/N*%
%TO.N,NEUT*%
X135586500Y-100149001D03*
%TO.P,PS1,3,-Vout*%
%TO.N,GND*%
X164986500Y-89949001D03*
%TO.P,PS1,4,+Vout*%
%TO.N,+12V*%
X164986500Y-105349001D03*
%TD*%
D33*
%TO.P,R7,1*%
%TO.N,+12V*%
X166596000Y-121652001D03*
%TO.P,R7,2*%
%TO.N,LDR*%
X168246000Y-121652001D03*
%TD*%
D27*
%TO.P,C3,1*%
%TO.N,+12V*%
X155031999Y-111292000D03*
%TO.P,C3,2*%
%TO.N,GND*%
X159031999Y-111292000D03*
%TD*%
D21*
%TO.P,J5,1,Pin_1*%
%TO.N,+3.3V*%
X169478000Y-125081001D03*
D22*
%TO.P,J5,2,Pin_2*%
%TO.N,FLASH*%
X169478000Y-127621001D03*
%TO.P,J5,3,Pin_3*%
%TO.N,GND*%
X169478000Y-130161001D03*
%TD*%
D34*
%TO.P,C2,1*%
%TO.N,+12V*%
X162833000Y-112000000D03*
%TO.P,C2,2*%
%TO.N,GND*%
X168233000Y-112000000D03*
%TD*%
D35*
%TO.P,R4,1*%
%TO.N,+12V*%
X168520000Y-76436503D03*
%TO.P,R4,2*%
%TO.N,Net-(D1-A)*%
X166870000Y-76436503D03*
%TD*%
D26*
%TO.P,R3,1*%
%TO.N,Net-(U2-GPIO15)*%
X143291000Y-123518501D03*
%TO.P,R3,2*%
%TO.N,GND*%
X143291000Y-121868501D03*
%TD*%
D36*
%TO.P,SW1,1,A*%
%TO.N,unconnected-(SW1-A-Pad1)*%
X132155000Y-84975001D03*
D37*
%TO.P,SW1,2,B*%
%TO.N,LINE*%
X132155000Y-82975001D03*
%TO.P,SW1,3,C*%
%TO.N,Net-(J1-Pin_2)*%
X132155000Y-80975001D03*
%TO.P,SW1,4,A*%
%TO.N,unconnected-(SW1-A-Pad4)*%
X137155000Y-84975001D03*
%TO.P,SW1,5,B*%
%TO.N,LINE*%
X137155000Y-82975001D03*
%TO.P,SW1,6,C*%
%TO.N,Net-(J1-Pin_2)*%
X137155000Y-80975001D03*
%TD*%
D23*
%TO.P,R1,1*%
%TO.N,+3.3V*%
X163611000Y-129868501D03*
%TO.P,R1,2*%
%TO.N,Net-(U2-CH_PD)*%
X163611000Y-131518501D03*
%TD*%
D38*
%TO.N,GND*%
X166533000Y-82535001D03*
X151653000Y-95355001D03*
X166783000Y-108285001D03*
X159273000Y-95355001D03*
X159273000Y-102975001D03*
X126783000Y-127785001D03*
X137283000Y-137285001D03*
X153093000Y-131340001D03*
X166283000Y-126035001D03*
X147843000Y-95355001D03*
X163083000Y-102975001D03*
X126783000Y-131535001D03*
X134533000Y-129035001D03*
X157642001Y-114046001D03*
X165533000Y-114285001D03*
X163083000Y-99165001D03*
X130533000Y-129785001D03*
X162283000Y-114285001D03*
X154283000Y-103785001D03*
X153093000Y-126035001D03*
X163083000Y-106785001D03*
X131533000Y-137285001D03*
X149283000Y-135785001D03*
X153093000Y-135785001D03*
X159273000Y-106785001D03*
X151653000Y-91545001D03*
X169033000Y-89035001D03*
X166533000Y-132035001D03*
X159273000Y-91545001D03*
X141783000Y-121868501D03*
X138211000Y-127785001D03*
X144033000Y-99165001D03*
X144033000Y-102975001D03*
X166533000Y-79535001D03*
X144033000Y-106785001D03*
X157783000Y-126535001D03*
X168588998Y-110486800D03*
X139783000Y-134535001D03*
X134783000Y-131285001D03*
X151653000Y-106785001D03*
X167283000Y-119785001D03*
X149033000Y-130285001D03*
X147843000Y-102975001D03*
X146283000Y-117285001D03*
X153093000Y-122450001D03*
X156903000Y-135785001D03*
X168691000Y-87285001D03*
X155463000Y-91545001D03*
X149283000Y-126035001D03*
X156903000Y-131340001D03*
X147843000Y-99165001D03*
X153959000Y-116092001D03*
X133033000Y-134535001D03*
X149283000Y-122450001D03*
X150657000Y-116092002D03*
X151653000Y-99165001D03*
X155463000Y-95355001D03*
X157642001Y-111292001D03*
X157533000Y-117535001D03*
X142533000Y-131285001D03*
X163083000Y-91545001D03*
X168588999Y-113484001D03*
X142533000Y-127785001D03*
X170033000Y-73035001D03*
X157783000Y-122285001D03*
%TO.N,SWITCH*%
X156033000Y-107535001D03*
X156033000Y-122035001D03*
%TO.N,LDR*%
X159039000Y-123518501D03*
X165770000Y-123518501D03*
%TO.N,TX*%
X144053000Y-133518501D03*
%TO.N,RX*%
X144053000Y-135518501D03*
%TO.N,FLASH*%
X159039000Y-127494001D03*
%TO.N,Net-(R5-Pad1)*%
X143926000Y-136765001D03*
X163611000Y-124700001D03*
%TD*%
D39*
%TO.N,LINE*%
X133189000Y-82975001D02*
X134655000Y-84441001D01*
X137155000Y-82975001D02*
X136121000Y-82975001D01*
X134655000Y-84441001D02*
X134655000Y-82975001D01*
X134655000Y-82975001D02*
X137155000Y-82975001D01*
X136121000Y-82975001D02*
X134655000Y-84441001D01*
X134655000Y-86080501D02*
X134655000Y-84441001D01*
X132155000Y-82975001D02*
X133189000Y-82975001D01*
X132155000Y-82975001D02*
X134655000Y-82975001D01*
X130586500Y-90149001D02*
X134655000Y-86080501D01*
X130586500Y-90149001D02*
X135586500Y-95149001D01*
X129321000Y-90149001D02*
X130586500Y-90149001D01*
%TO.N,NEUT*%
X139660500Y-72757001D02*
X139660500Y-95183501D01*
X130586500Y-105149001D02*
X135586500Y-100149001D01*
X137195000Y-97649001D02*
X133385000Y-97649001D01*
X142708500Y-69709001D02*
X159447500Y-69709001D01*
X129321000Y-101713001D02*
X129321000Y-105149001D01*
X139660500Y-95183501D02*
X137195000Y-97649001D01*
X159447500Y-69709001D02*
X162495500Y-72757001D01*
X139660500Y-72757001D02*
X142708500Y-69709001D01*
X129321000Y-105149001D02*
X130586500Y-105149001D01*
X133385000Y-97649001D02*
X129321000Y-101713001D01*
%TO.N,+12V*%
X155031999Y-109136000D02*
X155031999Y-109841001D01*
X154213000Y-109079001D02*
X155737000Y-109079000D01*
D40*
X154831998Y-111492000D02*
X155031999Y-111292001D01*
X135561000Y-136257001D02*
X134655000Y-136257001D01*
D39*
X140147000Y-120478001D02*
X143418000Y-117207001D01*
X143418000Y-110730001D02*
X145069000Y-109079001D01*
D40*
X140147000Y-124527001D02*
X140147000Y-131671001D01*
D39*
X140147000Y-124527001D02*
X140147000Y-120478001D01*
X155031999Y-109841001D02*
X155031999Y-109784001D01*
D41*
X166495474Y-121652001D02*
X163783000Y-118939527D01*
D39*
X154975000Y-109841001D02*
X154213000Y-109079001D01*
D41*
X163783000Y-112950000D02*
X162833000Y-112000000D01*
D39*
X159912000Y-109079000D02*
X162833000Y-112000000D01*
D41*
X166596000Y-121652001D02*
X166495474Y-121652001D01*
D40*
X140147000Y-131671001D02*
X135561000Y-136257001D01*
D41*
X164986500Y-105349001D02*
X164986500Y-95331501D01*
D40*
X152308000Y-111492000D02*
X154831998Y-111492000D01*
D39*
X164986500Y-109846500D02*
X162833000Y-112000000D01*
D41*
X170533000Y-89785001D02*
X170533000Y-78449503D01*
D39*
X143418000Y-117207001D02*
X143418000Y-110730001D01*
D41*
X133131000Y-136257001D02*
X134655000Y-136257001D01*
D39*
X145069000Y-109079001D02*
X154975000Y-109079001D01*
X155031999Y-109784001D02*
X155737000Y-109079000D01*
X155031999Y-111292000D02*
X155031999Y-109841001D01*
D41*
X170533000Y-78449503D02*
X168520000Y-76436503D01*
X132115000Y-135241001D02*
X133131000Y-136257001D01*
X163783000Y-118939527D02*
X163783000Y-112950000D01*
D39*
X154975000Y-109079001D02*
X155031999Y-109136000D01*
X155737000Y-109079000D02*
X159912000Y-109079000D01*
D41*
X164986500Y-95331501D02*
X170533000Y-89785001D01*
X132115000Y-135241001D02*
X132115000Y-133293001D01*
D39*
X155031999Y-109841001D02*
X154975000Y-109841001D01*
X164986500Y-105349001D02*
X164986500Y-109846499D01*
D41*
%TO.N,GND*%
X157642001Y-114046001D02*
X159031998Y-114046001D01*
D39*
X159031998Y-114046001D02*
X159031998Y-111292001D01*
D41*
X136222500Y-129282001D02*
X138086000Y-129282001D01*
X157642001Y-111292001D02*
X159031998Y-111292001D01*
X143641000Y-121518501D02*
X146451000Y-121518501D01*
X153959000Y-116092001D02*
X150657001Y-116092001D01*
X138086000Y-129282001D02*
X138211000Y-129407001D01*
X143291000Y-121868501D02*
X143641000Y-121518501D01*
X150657001Y-116092001D02*
X150657000Y-116092002D01*
X168588999Y-113484001D02*
X168588998Y-110486800D01*
%TO.N,+3.3V*%
X164284500Y-129868501D02*
X163611000Y-129868501D01*
X165643000Y-125081001D02*
X164881000Y-125843001D01*
D40*
X152308001Y-113792000D02*
X154777998Y-113792000D01*
D42*
X152308001Y-113792000D02*
X146008000Y-113792000D01*
D41*
X164881000Y-130465001D02*
X164881000Y-133209001D01*
X164284500Y-129868501D02*
X164881000Y-130465001D01*
D40*
X154777998Y-113792000D02*
X155031999Y-114046001D01*
D41*
X164221500Y-133868501D02*
X163611000Y-133868501D01*
X167533000Y-107035001D02*
X170783000Y-110285001D01*
X167533000Y-102939001D02*
X167533000Y-107035001D01*
D43*
X160451000Y-121518501D02*
X160446000Y-121513501D01*
D41*
X164881000Y-124319001D02*
X164881000Y-125081001D01*
X164881000Y-125081001D02*
X164881000Y-125843001D01*
X169478000Y-125081001D02*
X165643000Y-125081001D01*
X164881000Y-121398001D02*
X162100000Y-118617001D01*
X164881000Y-133209001D02*
X164221500Y-133868501D01*
X164881000Y-129272001D02*
X164284500Y-129868501D01*
X165643000Y-125081001D02*
X164881000Y-125081001D01*
D40*
X160322000Y-118617001D02*
X161151000Y-118617001D01*
D41*
X164881000Y-129272001D02*
X164881000Y-130465001D01*
X170783000Y-110285001D02*
X170783000Y-123776001D01*
X164881000Y-124319001D02*
X165643000Y-125081001D01*
X161151000Y-120818501D02*
X160451000Y-121518501D01*
D40*
X155031998Y-114045999D02*
X155750998Y-114045999D01*
X155750998Y-114045999D02*
X160322000Y-118617001D01*
D41*
X170783000Y-123776001D02*
X169478000Y-125081001D01*
X164881000Y-124319001D02*
X164881000Y-121398001D01*
X162100000Y-118617001D02*
X161151000Y-118617001D01*
X161151000Y-118617001D02*
X161151000Y-120818501D01*
X169453000Y-101019001D02*
X167533000Y-102939001D01*
X164881000Y-125843001D02*
X164881000Y-129272001D01*
%TO.N,SWITCH*%
X167783000Y-88535001D02*
X166283000Y-87035001D01*
X166283000Y-84285001D02*
X167691000Y-82877001D01*
X156033000Y-123035001D02*
X158533000Y-125535001D01*
X156033000Y-102785001D02*
X167783000Y-91035001D01*
X166283000Y-87035001D02*
X166283000Y-84285001D01*
X156033000Y-122035001D02*
X156033000Y-123035001D01*
X158533000Y-125535001D02*
X160434500Y-125535001D01*
X167783000Y-91035001D02*
X167783000Y-88535001D01*
X167691000Y-82877001D02*
X168441000Y-82877001D01*
X156033000Y-107535001D02*
X156033000Y-102785001D01*
X160434500Y-125535001D02*
X160451000Y-125518501D01*
%TO.N,Net-(D1-A)*%
X166887500Y-74408001D02*
X166887500Y-76419003D01*
D43*
X166887500Y-76419003D02*
X166870000Y-76436503D01*
D41*
%TO.N,Net-(D2-A)*%
X128147000Y-124527001D02*
X132115000Y-128495001D01*
X133486500Y-131093001D02*
X134347500Y-130232001D01*
X132115000Y-128495001D02*
X132115000Y-131093001D01*
X132115000Y-131093001D02*
X133486500Y-131093001D01*
%TO.N,LDR*%
X166379500Y-123518501D02*
X168246000Y-121652001D01*
X169121000Y-118350001D02*
X169121000Y-120777001D01*
X169121000Y-120777001D02*
X168246000Y-121652001D01*
X165770000Y-123518501D02*
X166379500Y-123518501D01*
X160451000Y-123518501D02*
X159039000Y-123518501D01*
D39*
%TO.N,Net-(J1-Pin_2)*%
X136194500Y-80975001D02*
X134580500Y-79361001D01*
D43*
X134580500Y-80795501D02*
X134401000Y-80975001D01*
D39*
X134580500Y-79361001D02*
X134580500Y-80795501D01*
X134401000Y-80975001D02*
X137155000Y-80975001D01*
X132155000Y-80975001D02*
X132966500Y-80975001D01*
X137155000Y-80975001D02*
X136194500Y-80975001D01*
X132155000Y-80975001D02*
X134401000Y-80975001D01*
X134580500Y-72757001D02*
X134580500Y-79361001D01*
X132966500Y-80975001D02*
X134580500Y-79361001D01*
D41*
%TO.N,TX*%
X144053000Y-133518501D02*
X146451000Y-133518501D01*
%TO.N,RX*%
X144053000Y-135518501D02*
X146451000Y-135518501D01*
%TO.N,RELAY*%
X163611000Y-127518501D02*
X160451000Y-127518501D01*
%TO.N,Net-(Q1-G)*%
X136222500Y-131182001D02*
X138086000Y-131182001D01*
X134655000Y-132749501D02*
X136222500Y-131182001D01*
X134655000Y-133717001D02*
X134655000Y-132749501D01*
X138086000Y-131182001D02*
X138211000Y-131057001D01*
%TO.N,Net-(U2-CH_PD)*%
X163611000Y-131518501D02*
X160451000Y-131518501D01*
%TO.N,Net-(U2-REST)*%
X163611000Y-135518501D02*
X160451000Y-135518501D01*
%TO.N,Net-(U2-GPIO15)*%
X143291000Y-123518501D02*
X146451000Y-123518501D01*
%TO.N,FLASH*%
X159014500Y-127518501D02*
X146451000Y-127518501D01*
X159039000Y-127494001D02*
X159014500Y-127518501D01*
%TO.N,Net-(R5-Pad1)*%
X142275000Y-136257001D02*
X143418000Y-136257001D01*
X143418000Y-136257001D02*
X143926000Y-136765001D01*
X163611000Y-125868501D02*
X163611000Y-124700001D01*
D40*
%TO.N,Net-(J2-Pin_1)*%
X152368000Y-83238001D02*
X152368000Y-83425001D01*
X151078000Y-82135001D02*
X151078000Y-72757001D01*
X155811000Y-81139001D02*
X154467000Y-81139001D01*
X154467000Y-81139001D02*
X152368000Y-83238001D01*
X152368000Y-83425001D02*
X151078000Y-82135001D01*
%TO.N,Net-(C6-Pad2)*%
X142368000Y-83425001D02*
X145924000Y-86981001D01*
X159513000Y-80337001D02*
X161071000Y-80337001D01*
X155737000Y-86981001D02*
X157261000Y-85457001D01*
X157261000Y-85457001D02*
X157261000Y-82589001D01*
X158711000Y-81139001D02*
X159513000Y-80337001D01*
X157261000Y-82589001D02*
X158711000Y-81139001D01*
X145924000Y-86981001D02*
X155737000Y-86981001D01*
%TO.N,Net-(J2-Pin_2)*%
X155811000Y-83679001D02*
X154033000Y-85457001D01*
X145998000Y-80498418D02*
X145998000Y-72757001D01*
X150956583Y-85457001D02*
X145998000Y-80498418D01*
X154033000Y-85457001D02*
X150956583Y-85457001D01*
D39*
%TO.N,Net-(J3-Pin_2)*%
X162087000Y-88632001D02*
X148879000Y-88632001D01*
X163738000Y-78345001D02*
X163738000Y-86981001D01*
X148879000Y-88632001D02*
X140147000Y-97364001D01*
X157415500Y-74943501D02*
X159293000Y-76821001D01*
X140147000Y-97364001D02*
X140147000Y-112327001D01*
X163738000Y-86981001D02*
X162087000Y-88632001D01*
X162214000Y-76821001D02*
X163738000Y-78345001D01*
X157415500Y-72757001D02*
X157415500Y-74943501D01*
X159293000Y-76821001D02*
X162214000Y-76821001D01*
D40*
%TO.N,Net-(R9-Pad2)*%
X159513000Y-82877001D02*
X161071000Y-82877001D01*
X158711000Y-83679001D02*
X159513000Y-82877001D01*
%TD*%
%TA.AperFunction,Conductor*%
%TO.N,GND*%
G36*
X129782999Y-121535056D02*
G01*
X129788915Y-121535139D01*
X129794831Y-121535222D01*
X129841941Y-121536101D01*
X129896328Y-121538998D01*
X129905054Y-121539767D01*
X129959103Y-121546420D01*
X130035013Y-121558442D01*
X130127946Y-121576928D01*
X130137605Y-121579246D01*
X130228784Y-121604961D01*
X130262897Y-121616045D01*
X130351801Y-121648843D01*
X130360968Y-121652641D01*
X130447012Y-121692307D01*
X130472214Y-121705149D01*
X130478965Y-121708589D01*
X130495495Y-121717846D01*
X130561633Y-121754886D01*
X130570100Y-121760074D01*
X130591781Y-121774560D01*
X130648879Y-121812713D01*
X130658122Y-121819428D01*
X130677890Y-121833790D01*
X130752301Y-121892450D01*
X130759847Y-121898896D01*
X130829429Y-121963216D01*
X130854785Y-121988572D01*
X130919104Y-122058153D01*
X130925551Y-122065701D01*
X130956302Y-122104708D01*
X130984212Y-122140112D01*
X131005288Y-122169122D01*
X131057923Y-122247896D01*
X131063114Y-122256366D01*
X131109411Y-122339035D01*
X131114447Y-122348917D01*
X131125697Y-122370997D01*
X131128109Y-122376228D01*
X131165360Y-122457033D01*
X131169161Y-122466211D01*
X131175342Y-122482965D01*
X131201955Y-122555102D01*
X131213039Y-122589216D01*
X131228056Y-122642462D01*
X131238753Y-122680395D01*
X131241072Y-122690053D01*
X131259559Y-122782987D01*
X131271581Y-122858899D01*
X131278235Y-122912959D01*
X131279003Y-122921682D01*
X131281902Y-122976060D01*
X131282779Y-123023171D01*
X131282945Y-123035001D01*
X131283000Y-123046832D01*
X131283000Y-126153472D01*
X131263742Y-126250291D01*
X131208898Y-126332370D01*
X131126819Y-126387214D01*
X131030000Y-126406472D01*
X130933181Y-126387214D01*
X130851102Y-126332370D01*
X129968711Y-125449979D01*
X129913867Y-125367900D01*
X129894609Y-125271081D01*
X129910561Y-125182666D01*
X129956897Y-125058435D01*
X130014106Y-124795450D01*
X130017483Y-124748233D01*
X130033306Y-124527006D01*
X130033306Y-124526995D01*
X130014107Y-124258562D01*
X130014105Y-124258548D01*
X130010267Y-124240906D01*
X129956897Y-123995567D01*
X129927304Y-123916225D01*
X129862847Y-123743408D01*
X129862844Y-123743402D01*
X129862844Y-123743401D01*
X129740040Y-123518501D01*
X129733863Y-123507188D01*
X129733862Y-123507187D01*
X129572578Y-123291737D01*
X129572573Y-123291731D01*
X129382269Y-123101427D01*
X129382263Y-123101422D01*
X129166813Y-122940138D01*
X129166812Y-122940137D01*
X128930598Y-122811156D01*
X128930592Y-122811153D01*
X128678438Y-122717105D01*
X128678434Y-122717104D01*
X128634794Y-122707610D01*
X128415452Y-122659895D01*
X128415438Y-122659893D01*
X128147005Y-122640695D01*
X128146995Y-122640695D01*
X127878561Y-122659893D01*
X127878547Y-122659895D01*
X127615561Y-122717105D01*
X127363407Y-122811153D01*
X127363401Y-122811156D01*
X127127187Y-122940137D01*
X127127186Y-122940138D01*
X126911736Y-123101422D01*
X126911730Y-123101427D01*
X126721426Y-123291731D01*
X126721421Y-123291737D01*
X126560137Y-123507187D01*
X126560136Y-123507188D01*
X126431155Y-123743402D01*
X126431152Y-123743408D01*
X126337104Y-123995562D01*
X126279894Y-124258548D01*
X126279892Y-124258562D01*
X126260694Y-124526995D01*
X126260694Y-124527006D01*
X126279892Y-124795439D01*
X126279894Y-124795453D01*
X126337104Y-125058439D01*
X126431152Y-125310593D01*
X126431155Y-125310599D01*
X126560136Y-125546813D01*
X126560137Y-125546814D01*
X126721421Y-125762264D01*
X126721426Y-125762270D01*
X126911730Y-125952574D01*
X126911736Y-125952579D01*
X127127184Y-126113862D01*
X127127187Y-126113864D01*
X127186055Y-126146008D01*
X127363400Y-126242845D01*
X127363403Y-126242846D01*
X127363407Y-126242848D01*
X127453603Y-126276489D01*
X127615566Y-126336898D01*
X127878551Y-126394107D01*
X127878557Y-126394107D01*
X127878561Y-126394108D01*
X128146995Y-126413307D01*
X128147000Y-126413307D01*
X128147005Y-126413307D01*
X128415438Y-126394108D01*
X128415440Y-126394107D01*
X128415449Y-126394107D01*
X128678434Y-126336898D01*
X128756827Y-126307659D01*
X128802667Y-126290562D01*
X128900111Y-126274771D01*
X128996181Y-126297473D01*
X129069979Y-126348712D01*
X131405398Y-128684131D01*
X131460242Y-128766210D01*
X131479500Y-128863029D01*
X131479500Y-131009012D01*
X131476411Y-131041694D01*
X131475713Y-131052782D01*
X131479250Y-131109006D01*
X131479500Y-131116951D01*
X131479500Y-131132986D01*
X131481508Y-131148885D01*
X131482255Y-131156781D01*
X131483249Y-131172567D01*
X131483500Y-131180526D01*
X131483500Y-131266439D01*
X131483501Y-131266459D01*
X131489984Y-131326768D01*
X131489986Y-131326773D01*
X131540882Y-131463233D01*
X131540886Y-131463239D01*
X131628166Y-131579831D01*
X131628169Y-131579834D01*
X131744761Y-131667114D01*
X131744767Y-131667118D01*
X131819274Y-131694907D01*
X131881229Y-131718015D01*
X131881232Y-131718016D01*
X131929311Y-131723184D01*
X131941558Y-131724501D01*
X131987178Y-131724501D01*
X132018677Y-131728475D01*
X132018926Y-131726506D01*
X132034715Y-131728500D01*
X132034718Y-131728501D01*
X132034720Y-131728501D01*
X132045733Y-131729892D01*
X132063682Y-131731589D01*
X132074770Y-131732286D01*
X132074779Y-131732288D01*
X132108041Y-131730195D01*
X132131007Y-131728751D01*
X132138951Y-131728501D01*
X133396895Y-131728501D01*
X133408806Y-131729063D01*
X133426219Y-131730709D01*
X133496485Y-131728501D01*
X133526483Y-131728501D01*
X133526485Y-131728501D01*
X133530489Y-131727995D01*
X133542374Y-131727058D01*
X133586705Y-131725666D01*
X133596645Y-131722777D01*
X133635529Y-131714725D01*
X133645799Y-131713428D01*
X133687040Y-131697099D01*
X133698290Y-131693247D01*
X133740893Y-131680870D01*
X133749805Y-131675599D01*
X133785460Y-131658131D01*
X133795088Y-131654320D01*
X133830971Y-131628249D01*
X133840925Y-131621710D01*
X133879098Y-131599135D01*
X133886413Y-131591819D01*
X133916615Y-131566025D01*
X133924987Y-131559943D01*
X133953260Y-131525764D01*
X133961272Y-131516959D01*
X134490631Y-130987602D01*
X134572711Y-130932758D01*
X134669529Y-130913500D01*
X134850500Y-130913500D01*
X134947319Y-130932758D01*
X135029398Y-130987602D01*
X135084242Y-131069681D01*
X135103500Y-131166500D01*
X135103500Y-131297471D01*
X135084242Y-131394290D01*
X135029398Y-131476369D01*
X134269002Y-132236764D01*
X134260190Y-132244783D01*
X134246698Y-132255946D01*
X134198572Y-132307195D01*
X134177358Y-132328409D01*
X134174877Y-132331608D01*
X134167145Y-132340660D01*
X134143648Y-132365684D01*
X134063334Y-132423082D01*
X133967169Y-132445376D01*
X133959212Y-132445501D01*
X133618792Y-132445501D01*
X133544641Y-132456304D01*
X133544639Y-132456305D01*
X133430254Y-132512225D01*
X133430252Y-132512226D01*
X133430251Y-132512227D01*
X133340226Y-132602252D01*
X133340225Y-132602253D01*
X133340224Y-132602255D01*
X133286542Y-132712061D01*
X133284303Y-132716642D01*
X133273500Y-132790793D01*
X133273500Y-134643208D01*
X133284303Y-134717359D01*
X133284303Y-134717360D01*
X133284304Y-134717362D01*
X133340224Y-134831747D01*
X133340226Y-134831749D01*
X133340227Y-134831751D01*
X133346112Y-134839994D01*
X133386695Y-134929982D01*
X133389752Y-135028650D01*
X133354818Y-135120978D01*
X133346103Y-135134020D01*
X133336657Y-135147249D01*
X133264722Y-135214852D01*
X133172392Y-135249781D01*
X133073724Y-135246718D01*
X132983739Y-135206129D01*
X132951860Y-135179128D01*
X132824602Y-135051870D01*
X132769758Y-134969791D01*
X132750500Y-134872972D01*
X132750500Y-133253015D01*
X132747499Y-133229257D01*
X132746500Y-133213386D01*
X132746500Y-133119562D01*
X132746498Y-133119542D01*
X132740015Y-133059233D01*
X132740013Y-133059228D01*
X132689117Y-132922768D01*
X132689113Y-132922762D01*
X132601833Y-132806170D01*
X132601830Y-132806167D01*
X132485238Y-132718887D01*
X132485232Y-132718883D01*
X132348772Y-132667987D01*
X132348767Y-132667985D01*
X132288458Y-132661502D01*
X132288445Y-132661501D01*
X132288442Y-132661501D01*
X132288438Y-132661501D01*
X132219955Y-132661501D01*
X132172547Y-132657019D01*
X132155221Y-132653714D01*
X132035416Y-132661251D01*
X132027471Y-132661501D01*
X131941558Y-132661501D01*
X131941554Y-132661501D01*
X131941541Y-132661502D01*
X131881232Y-132667985D01*
X131881227Y-132667987D01*
X131744767Y-132718883D01*
X131744761Y-132718887D01*
X131628169Y-132806167D01*
X131628166Y-132806170D01*
X131540886Y-132922762D01*
X131540882Y-132922768D01*
X131489986Y-133059228D01*
X131489984Y-133059233D01*
X131483501Y-133119542D01*
X131483500Y-133119562D01*
X131483500Y-133165179D01*
X131479525Y-133196678D01*
X131481495Y-133196927D01*
X131479500Y-133212719D01*
X131479500Y-135151388D01*
X131478939Y-135163297D01*
X131477292Y-135180723D01*
X131479500Y-135250986D01*
X131479500Y-135280982D01*
X131479501Y-135280998D01*
X131480008Y-135285014D01*
X131480941Y-135296881D01*
X131482334Y-135341202D01*
X131482334Y-135341205D01*
X131482335Y-135341206D01*
X131485227Y-135351163D01*
X131493274Y-135390019D01*
X131494572Y-135400295D01*
X131494574Y-135400305D01*
X131510897Y-135441532D01*
X131514758Y-135452808D01*
X131527130Y-135495392D01*
X131527131Y-135495394D01*
X131532405Y-135504312D01*
X131549867Y-135539957D01*
X131553681Y-135549589D01*
X131579755Y-135585477D01*
X131586293Y-135595431D01*
X131608864Y-135633597D01*
X131616185Y-135640918D01*
X131641966Y-135671104D01*
X131648054Y-135679484D01*
X131648056Y-135679486D01*
X131648058Y-135679488D01*
X131682230Y-135707757D01*
X131691049Y-135715782D01*
X132618269Y-136643003D01*
X132626293Y-136651822D01*
X132637442Y-136665299D01*
X132637446Y-136665303D01*
X132637447Y-136665304D01*
X132680152Y-136705406D01*
X132688694Y-136713428D01*
X132709907Y-136734641D01*
X132713101Y-136737119D01*
X132722164Y-136744858D01*
X132754494Y-136775218D01*
X132754496Y-136775219D01*
X132763564Y-136780204D01*
X132796748Y-136802002D01*
X132804933Y-136808351D01*
X132845650Y-136825970D01*
X132856339Y-136831208D01*
X132895197Y-136852570D01*
X132905217Y-136855142D01*
X132942786Y-136868004D01*
X132952292Y-136872118D01*
X132952294Y-136872118D01*
X132952296Y-136872119D01*
X132976200Y-136875904D01*
X132996090Y-136879054D01*
X133007750Y-136881468D01*
X133050718Y-136892501D01*
X133050719Y-136892501D01*
X133052199Y-136892688D01*
X133054713Y-136893526D01*
X133066140Y-136896461D01*
X133065932Y-136897269D01*
X133145842Y-136923925D01*
X133220403Y-136988620D01*
X133264530Y-137076924D01*
X133273500Y-137143694D01*
X133273500Y-137183208D01*
X133284303Y-137257359D01*
X133284303Y-137257360D01*
X133284304Y-137257362D01*
X133340224Y-137371747D01*
X133430254Y-137461777D01*
X133544639Y-137517697D01*
X133618794Y-137528501D01*
X133618806Y-137528501D01*
X133627920Y-137529162D01*
X133723094Y-137555366D01*
X133800996Y-137615997D01*
X133849765Y-137701824D01*
X133861978Y-137799782D01*
X133835774Y-137894956D01*
X133775143Y-137972858D01*
X133689316Y-138021627D01*
X133609639Y-138034501D01*
X128536318Y-138034501D01*
X128529700Y-138034328D01*
X128399760Y-138027522D01*
X128291459Y-138021443D01*
X128273843Y-138020455D01*
X128256065Y-138019206D01*
X128238288Y-138017958D01*
X128202808Y-138014464D01*
X128191827Y-138013227D01*
X128176703Y-138011307D01*
X128120498Y-138002407D01*
X128057434Y-137992420D01*
X127941356Y-137972701D01*
X127934894Y-137971509D01*
X127906311Y-137966239D01*
X127874301Y-137959405D01*
X127867977Y-137957883D01*
X127736315Y-137922608D01*
X127616284Y-137888031D01*
X127601433Y-137883526D01*
X127582177Y-137877685D01*
X127564964Y-137871931D01*
X127481913Y-137840053D01*
X127426827Y-137818908D01*
X127380142Y-137799572D01*
X127302714Y-137767502D01*
X127275006Y-137755567D01*
X127267629Y-137752103D01*
X127131057Y-137682518D01*
X127004578Y-137612617D01*
X126989179Y-137603822D01*
X126983020Y-137600068D01*
X126852105Y-137515053D01*
X126846198Y-137510862D01*
X126725621Y-137425310D01*
X126722532Y-137423052D01*
X126717518Y-137419250D01*
X126595430Y-137320386D01*
X126590746Y-137316400D01*
X126544613Y-137275174D01*
X126475599Y-137213499D01*
X126470456Y-137208636D01*
X126359357Y-137097536D01*
X126354483Y-137092380D01*
X126315047Y-137048251D01*
X126251586Y-136977239D01*
X126247617Y-136972574D01*
X126241187Y-136964634D01*
X126156535Y-136860096D01*
X126148764Y-136850499D01*
X126144909Y-136845416D01*
X126142690Y-136842379D01*
X126052935Y-136715878D01*
X125967940Y-136584994D01*
X125964186Y-136578835D01*
X125955708Y-136563992D01*
X125955382Y-136563421D01*
X125910146Y-136481570D01*
X125885475Y-136436929D01*
X125815892Y-136300361D01*
X125812422Y-136292969D01*
X125800498Y-136265285D01*
X125749086Y-136141160D01*
X125715913Y-136054738D01*
X125696068Y-136003036D01*
X125692684Y-135992911D01*
X125690313Y-135985815D01*
X125679969Y-135951717D01*
X125645388Y-135831672D01*
X125625282Y-135756630D01*
X125610117Y-135700028D01*
X125608603Y-135693740D01*
X125604817Y-135676009D01*
X125601760Y-135661686D01*
X125595299Y-135626645D01*
X125588303Y-135585465D01*
X125575582Y-135510585D01*
X125556690Y-135391286D01*
X125554778Y-135376213D01*
X125553528Y-135365117D01*
X125550042Y-135329713D01*
X125547545Y-135294155D01*
X125540470Y-135168099D01*
X125540011Y-135159340D01*
X127032500Y-135159340D01*
X127073428Y-135404611D01*
X127073429Y-135404615D01*
X127154172Y-135639811D01*
X127272526Y-135858510D01*
X127272528Y-135858513D01*
X127272529Y-135858514D01*
X127425256Y-136054738D01*
X127425258Y-136054740D01*
X127425262Y-136054745D01*
X127608215Y-136223165D01*
X127608220Y-136223168D01*
X127608220Y-136223169D01*
X127816389Y-136359172D01*
X127816391Y-136359173D01*
X127816393Y-136359174D01*
X128044119Y-136459064D01*
X128285179Y-136520109D01*
X128359480Y-136526265D01*
X128470930Y-136535501D01*
X128470933Y-136535501D01*
X128595070Y-136535501D01*
X128687944Y-136527805D01*
X128780821Y-136520109D01*
X129021881Y-136459064D01*
X129249607Y-136359174D01*
X129363089Y-136285033D01*
X129457779Y-136223169D01*
X129457779Y-136223168D01*
X129457785Y-136223165D01*
X129640738Y-136054745D01*
X129793474Y-135858510D01*
X129911828Y-135639811D01*
X129992571Y-135404615D01*
X130033500Y-135159336D01*
X130033500Y-134910666D01*
X129992571Y-134665387D01*
X129911828Y-134430191D01*
X129793474Y-134211492D01*
X129705140Y-134098001D01*
X129640743Y-134015263D01*
X129640741Y-134015261D01*
X129640738Y-134015257D01*
X129457785Y-133846837D01*
X129457779Y-133846833D01*
X129457779Y-133846832D01*
X129249610Y-133710829D01*
X129113913Y-133651307D01*
X129021881Y-133610938D01*
X129015870Y-133609415D01*
X128780823Y-133549893D01*
X128780818Y-133549892D01*
X128595070Y-133534501D01*
X128595067Y-133534501D01*
X128470933Y-133534501D01*
X128470930Y-133534501D01*
X128285181Y-133549892D01*
X128285176Y-133549893D01*
X128044122Y-133610937D01*
X128044119Y-133610938D01*
X127816389Y-133710829D01*
X127608220Y-133846832D01*
X127608220Y-133846833D01*
X127608217Y-133846835D01*
X127608215Y-133846837D01*
X127594213Y-133859727D01*
X127425261Y-134015258D01*
X127425256Y-134015263D01*
X127272529Y-134211487D01*
X127272526Y-134211490D01*
X127272526Y-134211492D01*
X127210499Y-134326108D01*
X127170379Y-134400244D01*
X127154172Y-134430191D01*
X127123855Y-134518501D01*
X127073429Y-134665386D01*
X127073428Y-134665390D01*
X127032500Y-134910661D01*
X127032500Y-135159340D01*
X125540011Y-135159340D01*
X125533673Y-135038316D01*
X125533500Y-135031705D01*
X125533500Y-122804807D01*
X125533982Y-122793777D01*
X125537657Y-122751774D01*
X125550365Y-122606509D01*
X125558019Y-122563099D01*
X125603861Y-122392012D01*
X125618943Y-122350578D01*
X125662875Y-122256366D01*
X125693797Y-122190052D01*
X125715835Y-122151881D01*
X125817436Y-122006781D01*
X125845768Y-121973016D01*
X125971015Y-121847769D01*
X126004780Y-121819437D01*
X126149880Y-121717836D01*
X126188051Y-121695798D01*
X126348577Y-121620944D01*
X126390011Y-121605862D01*
X126561098Y-121560020D01*
X126604508Y-121552366D01*
X126760320Y-121538735D01*
X126797493Y-121535483D01*
X126808523Y-121535001D01*
X129771166Y-121535001D01*
X129782999Y-121535056D01*
G37*
%TD.AperFunction*%
%TA.AperFunction,Conductor*%
G36*
X153847418Y-114762977D02*
G01*
X153929497Y-114817821D01*
X153984341Y-114899900D01*
X153993553Y-114926133D01*
X153998523Y-114943239D01*
X154080934Y-115082587D01*
X154195410Y-115197063D01*
X154334758Y-115279474D01*
X154490223Y-115324640D01*
X154508385Y-115326069D01*
X154526546Y-115327499D01*
X154526548Y-115327499D01*
X155537450Y-115327499D01*
X155549556Y-115326546D01*
X155573773Y-115324640D01*
X155722633Y-115281392D01*
X155820978Y-115272876D01*
X155915098Y-115302643D01*
X155972112Y-115345450D01*
X158381764Y-117755103D01*
X158436608Y-117837182D01*
X158455866Y-117934001D01*
X158436608Y-118030820D01*
X158381764Y-118112899D01*
X158299685Y-118167743D01*
X158202866Y-118187001D01*
X157874792Y-118187001D01*
X157800641Y-118197804D01*
X157800639Y-118197805D01*
X157686254Y-118253725D01*
X157686252Y-118253726D01*
X157686251Y-118253727D01*
X157639898Y-118300081D01*
X157557819Y-118354925D01*
X157461000Y-118374183D01*
X157364181Y-118354925D01*
X157282102Y-118300081D01*
X157235748Y-118253727D01*
X157235746Y-118253725D01*
X157121361Y-118197805D01*
X157121359Y-118197804D01*
X157121358Y-118197804D01*
X157047207Y-118187001D01*
X157047206Y-118187001D01*
X155874794Y-118187001D01*
X155874792Y-118187001D01*
X155800641Y-118197804D01*
X155800639Y-118197805D01*
X155686254Y-118253725D01*
X155686252Y-118253726D01*
X155686251Y-118253727D01*
X155639898Y-118300081D01*
X155557819Y-118354925D01*
X155461000Y-118374183D01*
X155364181Y-118354925D01*
X155282102Y-118300081D01*
X155235748Y-118253727D01*
X155235746Y-118253725D01*
X155121361Y-118197805D01*
X155121359Y-118197804D01*
X155121358Y-118197804D01*
X155047207Y-118187001D01*
X155047206Y-118187001D01*
X153874794Y-118187001D01*
X153874792Y-118187001D01*
X153800641Y-118197804D01*
X153800639Y-118197805D01*
X153686254Y-118253725D01*
X153686252Y-118253726D01*
X153686251Y-118253727D01*
X153639898Y-118300081D01*
X153557819Y-118354925D01*
X153461000Y-118374183D01*
X153364181Y-118354925D01*
X153282102Y-118300081D01*
X153235748Y-118253727D01*
X153235746Y-118253725D01*
X153121361Y-118197805D01*
X153121359Y-118197804D01*
X153121358Y-118197804D01*
X153047207Y-118187001D01*
X153047206Y-118187001D01*
X151874794Y-118187001D01*
X151874792Y-118187001D01*
X151800641Y-118197804D01*
X151800639Y-118197805D01*
X151686254Y-118253725D01*
X151686252Y-118253726D01*
X151686251Y-118253727D01*
X151639898Y-118300081D01*
X151557819Y-118354925D01*
X151461000Y-118374183D01*
X151364181Y-118354925D01*
X151282102Y-118300081D01*
X151235748Y-118253727D01*
X151235746Y-118253725D01*
X151121361Y-118197805D01*
X151121359Y-118197804D01*
X151121358Y-118197804D01*
X151047207Y-118187001D01*
X151047206Y-118187001D01*
X149874794Y-118187001D01*
X149874792Y-118187001D01*
X149800641Y-118197804D01*
X149800639Y-118197805D01*
X149686254Y-118253725D01*
X149686252Y-118253726D01*
X149686251Y-118253727D01*
X149639898Y-118300081D01*
X149557819Y-118354925D01*
X149461000Y-118374183D01*
X149364181Y-118354925D01*
X149282102Y-118300081D01*
X149235748Y-118253727D01*
X149235746Y-118253725D01*
X149121361Y-118197805D01*
X149121359Y-118197804D01*
X149121358Y-118197804D01*
X149047207Y-118187001D01*
X149047206Y-118187001D01*
X147874794Y-118187001D01*
X147874792Y-118187001D01*
X147800641Y-118197804D01*
X147800639Y-118197805D01*
X147686254Y-118253725D01*
X147686252Y-118253726D01*
X147686251Y-118253727D01*
X147596226Y-118343752D01*
X147596225Y-118343753D01*
X147596224Y-118343755D01*
X147540304Y-118458140D01*
X147540304Y-118458141D01*
X147529500Y-118532293D01*
X147529500Y-120542820D01*
X147510242Y-120639639D01*
X147455398Y-120721718D01*
X147373319Y-120776562D01*
X147276500Y-120795820D01*
X147179681Y-120776562D01*
X147135941Y-120753182D01*
X147100104Y-120729237D01*
X147100106Y-120729237D01*
X147026019Y-120714501D01*
X146132000Y-120714501D01*
X146132000Y-121137501D01*
X147353344Y-121137501D01*
X147361299Y-121135916D01*
X147458124Y-121155144D01*
X147540221Y-121209962D01*
X147588670Y-121277796D01*
X147596222Y-121293244D01*
X147596223Y-121293246D01*
X147596224Y-121293247D01*
X147686254Y-121383277D01*
X147800639Y-121439197D01*
X147874794Y-121450001D01*
X147874796Y-121450001D01*
X149047204Y-121450001D01*
X149047206Y-121450001D01*
X149121361Y-121439197D01*
X149235746Y-121383277D01*
X149282102Y-121336921D01*
X149364181Y-121282077D01*
X149461000Y-121262819D01*
X149557819Y-121282077D01*
X149639898Y-121336921D01*
X149686254Y-121383277D01*
X149800639Y-121439197D01*
X149874794Y-121450001D01*
X149874796Y-121450001D01*
X151047204Y-121450001D01*
X151047206Y-121450001D01*
X151121361Y-121439197D01*
X151235746Y-121383277D01*
X151282102Y-121336921D01*
X151364181Y-121282077D01*
X151461000Y-121262819D01*
X151557819Y-121282077D01*
X151639898Y-121336921D01*
X151686254Y-121383277D01*
X151800639Y-121439197D01*
X151874794Y-121450001D01*
X151874796Y-121450001D01*
X153047204Y-121450001D01*
X153047206Y-121450001D01*
X153121361Y-121439197D01*
X153235746Y-121383277D01*
X153282102Y-121336921D01*
X153364181Y-121282077D01*
X153461000Y-121262819D01*
X153557819Y-121282077D01*
X153639898Y-121336921D01*
X153686254Y-121383277D01*
X153800639Y-121439197D01*
X153874794Y-121450001D01*
X153874796Y-121450001D01*
X155053168Y-121450001D01*
X155149987Y-121469259D01*
X155232066Y-121524103D01*
X155286910Y-121606182D01*
X155306168Y-121703001D01*
X155291971Y-121786559D01*
X155266273Y-121860001D01*
X155246555Y-122035001D01*
X155266273Y-122210001D01*
X155269863Y-122220260D01*
X155324438Y-122376228D01*
X155358719Y-122430784D01*
X155393925Y-122523008D01*
X155397500Y-122565391D01*
X155397500Y-122945388D01*
X155396939Y-122957297D01*
X155395292Y-122974723D01*
X155397500Y-123044986D01*
X155397500Y-123074982D01*
X155397501Y-123074998D01*
X155398008Y-123079014D01*
X155398941Y-123090881D01*
X155400334Y-123135202D01*
X155400334Y-123135205D01*
X155400335Y-123135206D01*
X155403227Y-123145163D01*
X155411274Y-123184019D01*
X155412572Y-123194295D01*
X155412574Y-123194305D01*
X155428897Y-123235532D01*
X155432758Y-123246808D01*
X155445130Y-123289392D01*
X155445131Y-123289394D01*
X155450405Y-123298312D01*
X155467867Y-123333957D01*
X155471681Y-123343589D01*
X155497755Y-123379477D01*
X155504293Y-123389431D01*
X155526864Y-123427597D01*
X155534185Y-123434918D01*
X155559964Y-123465100D01*
X155566058Y-123473488D01*
X155600234Y-123501762D01*
X155609046Y-123509780D01*
X158020269Y-125921003D01*
X158028293Y-125929822D01*
X158039442Y-125943299D01*
X158039446Y-125943303D01*
X158039447Y-125943304D01*
X158064899Y-125967205D01*
X158090694Y-125991428D01*
X158111907Y-126012641D01*
X158115101Y-126015119D01*
X158124164Y-126022858D01*
X158156494Y-126053218D01*
X158156496Y-126053219D01*
X158165564Y-126058204D01*
X158198748Y-126080002D01*
X158206933Y-126086351D01*
X158247650Y-126103970D01*
X158258339Y-126109208D01*
X158297197Y-126130570D01*
X158307217Y-126133142D01*
X158344786Y-126146004D01*
X158354292Y-126150118D01*
X158354294Y-126150118D01*
X158354296Y-126150119D01*
X158375470Y-126153472D01*
X158398090Y-126157054D01*
X158409750Y-126159468D01*
X158452718Y-126170501D01*
X158463072Y-126170501D01*
X158502649Y-126173616D01*
X158505813Y-126174116D01*
X158512879Y-126175236D01*
X158557025Y-126171063D01*
X158568937Y-126170501D01*
X159368355Y-126170501D01*
X159465174Y-126189759D01*
X159547253Y-126244603D01*
X159574259Y-126276489D01*
X159586223Y-126293246D01*
X159632580Y-126339603D01*
X159687424Y-126421682D01*
X159706682Y-126518501D01*
X159687424Y-126615320D01*
X159632580Y-126697399D01*
X159632575Y-126697404D01*
X159614352Y-126715626D01*
X159532271Y-126770467D01*
X159435452Y-126789723D01*
X159351900Y-126775526D01*
X159214001Y-126727274D01*
X159039000Y-126707556D01*
X158864000Y-126727274D01*
X158697777Y-126785437D01*
X158697770Y-126785440D01*
X158604221Y-126844222D01*
X158511996Y-126879426D01*
X158469617Y-126883001D01*
X147541779Y-126883001D01*
X147444960Y-126863743D01*
X147362881Y-126808899D01*
X147328349Y-126760533D01*
X147327956Y-126760815D01*
X147315777Y-126743757D01*
X147315776Y-126743755D01*
X147269420Y-126697399D01*
X147214576Y-126615320D01*
X147195318Y-126518501D01*
X147214576Y-126421682D01*
X147269420Y-126339603D01*
X147276653Y-126332370D01*
X147315776Y-126293247D01*
X147371696Y-126178862D01*
X147382500Y-126104707D01*
X147382500Y-124932295D01*
X147371696Y-124858140D01*
X147315776Y-124743755D01*
X147269420Y-124697399D01*
X147214576Y-124615320D01*
X147195318Y-124518501D01*
X147214576Y-124421682D01*
X147269420Y-124339603D01*
X147315776Y-124293247D01*
X147371696Y-124178862D01*
X147382500Y-124104707D01*
X147382500Y-122932295D01*
X147371696Y-122858140D01*
X147315776Y-122743755D01*
X147225746Y-122653725D01*
X147209971Y-122642462D01*
X147142367Y-122570529D01*
X147107435Y-122478200D01*
X147110496Y-122379532D01*
X147151082Y-122289545D01*
X147178091Y-122257657D01*
X147184125Y-122251622D01*
X147240263Y-122167606D01*
X147255000Y-122093519D01*
X147255000Y-121899501D01*
X145623000Y-121899501D01*
X145526181Y-121880243D01*
X145444102Y-121825399D01*
X145389258Y-121743320D01*
X145370000Y-121646501D01*
X145370000Y-120714501D01*
X144475983Y-120714501D01*
X144475980Y-120714502D01*
X144401895Y-120729237D01*
X144401892Y-120729238D01*
X144317877Y-120785375D01*
X144317876Y-120785376D01*
X144261736Y-120869395D01*
X144247000Y-120943482D01*
X144247000Y-121105679D01*
X144227742Y-121202498D01*
X144172898Y-121284577D01*
X144090819Y-121339421D01*
X143994000Y-121358679D01*
X143897181Y-121339421D01*
X143843765Y-121309244D01*
X143780534Y-121262578D01*
X143672000Y-121224600D01*
X143672000Y-121996501D01*
X143652742Y-122093320D01*
X143597898Y-122175399D01*
X143515819Y-122230243D01*
X143419000Y-122249501D01*
X142598343Y-122249501D01*
X142610078Y-122283037D01*
X142691345Y-122393152D01*
X142714142Y-122409977D01*
X142780606Y-122482965D01*
X142814080Y-122575833D01*
X142809467Y-122674440D01*
X142767470Y-122763777D01*
X142717923Y-122814258D01*
X142686673Y-122838237D01*
X142601268Y-122903770D01*
X142601266Y-122903772D01*
X142508063Y-123025238D01*
X142508059Y-123025245D01*
X142449467Y-123166697D01*
X142449465Y-123166705D01*
X142434500Y-123280371D01*
X142434500Y-123756630D01*
X142449465Y-123870296D01*
X142449467Y-123870304D01*
X142508059Y-124011756D01*
X142508063Y-124011763D01*
X142601266Y-124133229D01*
X142601271Y-124133234D01*
X142693242Y-124203805D01*
X142722741Y-124226440D01*
X142864198Y-124285034D01*
X142864202Y-124285034D01*
X142864204Y-124285035D01*
X142977870Y-124300000D01*
X142977882Y-124300000D01*
X142977884Y-124300001D01*
X142977885Y-124300001D01*
X143604115Y-124300001D01*
X143604116Y-124300001D01*
X143604117Y-124300000D01*
X143604129Y-124300000D01*
X143717795Y-124285035D01*
X143717795Y-124285034D01*
X143717802Y-124285034D01*
X143859259Y-124226440D01*
X143859259Y-124226439D01*
X143874579Y-124220094D01*
X143875096Y-124221344D01*
X143951548Y-124195390D01*
X144050053Y-124201844D01*
X144138590Y-124245502D01*
X144170890Y-124278932D01*
X144171400Y-124278423D01*
X144232580Y-124339603D01*
X144287424Y-124421682D01*
X144306682Y-124518501D01*
X144287424Y-124615320D01*
X144232580Y-124697399D01*
X144186226Y-124743752D01*
X144186225Y-124743753D01*
X144186224Y-124743755D01*
X144179446Y-124757620D01*
X144130303Y-124858142D01*
X144119500Y-124932293D01*
X144119500Y-126104708D01*
X144130303Y-126178859D01*
X144130303Y-126178860D01*
X144130304Y-126178862D01*
X144186224Y-126293247D01*
X144186226Y-126293249D01*
X144232580Y-126339603D01*
X144287424Y-126421682D01*
X144306682Y-126518501D01*
X144287424Y-126615320D01*
X144232580Y-126697399D01*
X144186226Y-126743752D01*
X144186225Y-126743753D01*
X144186224Y-126743755D01*
X144160952Y-126795450D01*
X144130303Y-126858142D01*
X144119500Y-126932293D01*
X144119500Y-128104708D01*
X144130303Y-128178859D01*
X144130303Y-128178860D01*
X144130304Y-128178862D01*
X144186224Y-128293247D01*
X144186226Y-128293249D01*
X144232580Y-128339603D01*
X144287424Y-128421682D01*
X144306682Y-128518501D01*
X144287424Y-128615320D01*
X144232580Y-128697399D01*
X144186226Y-128743752D01*
X144186225Y-128743753D01*
X144186224Y-128743755D01*
X144156645Y-128804259D01*
X144130303Y-128858142D01*
X144119500Y-128932293D01*
X144119500Y-130104708D01*
X144130303Y-130178859D01*
X144130303Y-130178860D01*
X144130304Y-130178862D01*
X144186224Y-130293247D01*
X144186226Y-130293249D01*
X144232580Y-130339603D01*
X144287424Y-130421682D01*
X144306682Y-130518501D01*
X144287424Y-130615320D01*
X144232580Y-130697399D01*
X144186226Y-130743752D01*
X144186225Y-130743753D01*
X144186224Y-130743755D01*
X144185778Y-130744668D01*
X144130303Y-130858142D01*
X144119500Y-130932293D01*
X144119500Y-132104708D01*
X144130303Y-132178859D01*
X144130303Y-132178860D01*
X144130304Y-132178862D01*
X144186224Y-132293247D01*
X144186226Y-132293249D01*
X144195621Y-132302644D01*
X144250465Y-132384723D01*
X144269723Y-132481542D01*
X144250465Y-132578361D01*
X144195621Y-132660440D01*
X144113542Y-132715284D01*
X144045052Y-132732951D01*
X143877998Y-132751774D01*
X143781140Y-132785666D01*
X143683394Y-132799465D01*
X143587807Y-132774807D01*
X143508932Y-132715447D01*
X143487218Y-132687420D01*
X143458124Y-132643877D01*
X143374104Y-132587737D01*
X143374106Y-132587737D01*
X143300019Y-132573001D01*
X142656000Y-132573001D01*
X142656000Y-133845001D01*
X142636742Y-133941820D01*
X142581898Y-134023899D01*
X142499819Y-134078743D01*
X142403000Y-134098001D01*
X141021001Y-134098001D01*
X141021001Y-134632020D01*
X141035736Y-134706105D01*
X141064834Y-134749653D01*
X141102610Y-134840854D01*
X141102609Y-134939570D01*
X141064832Y-135030771D01*
X141033370Y-135069108D01*
X140960226Y-135142252D01*
X140960225Y-135142253D01*
X140960224Y-135142255D01*
X140941418Y-135180723D01*
X140904303Y-135256642D01*
X140893500Y-135330793D01*
X140893500Y-137183208D01*
X140904303Y-137257359D01*
X140904303Y-137257360D01*
X140904304Y-137257362D01*
X140960224Y-137371747D01*
X141050254Y-137461777D01*
X141164639Y-137517697D01*
X141238794Y-137528501D01*
X141238806Y-137528501D01*
X141247920Y-137529162D01*
X141343094Y-137555366D01*
X141420996Y-137615997D01*
X141469765Y-137701824D01*
X141481978Y-137799782D01*
X141455774Y-137894956D01*
X141395143Y-137972858D01*
X141309316Y-138021627D01*
X141229639Y-138034501D01*
X135700361Y-138034501D01*
X135603542Y-138015243D01*
X135521463Y-137960399D01*
X135466619Y-137878320D01*
X135447361Y-137781501D01*
X135466619Y-137684682D01*
X135521463Y-137602603D01*
X135603542Y-137547759D01*
X135682080Y-137529162D01*
X135691193Y-137528501D01*
X135691206Y-137528501D01*
X135765361Y-137517697D01*
X135879746Y-137461777D01*
X135969776Y-137371747D01*
X136025696Y-137257362D01*
X136036500Y-137183207D01*
X136036500Y-136964634D01*
X136055758Y-136867815D01*
X136106837Y-136789582D01*
X136108722Y-136787615D01*
X138352488Y-134543849D01*
X139560336Y-133336001D01*
X141021000Y-133336001D01*
X141894000Y-133336001D01*
X141894000Y-132573001D01*
X141249983Y-132573001D01*
X141249980Y-132573002D01*
X141175895Y-132587737D01*
X141175892Y-132587738D01*
X141091877Y-132643875D01*
X141091876Y-132643876D01*
X141035736Y-132727895D01*
X141021000Y-132801982D01*
X141021000Y-133336001D01*
X139560336Y-133336001D01*
X140633860Y-132262477D01*
X140661681Y-132238437D01*
X140673822Y-132229399D01*
X140706171Y-132190845D01*
X140713619Y-132182718D01*
X140717573Y-132178766D01*
X140738245Y-132152621D01*
X140788396Y-132092854D01*
X140788397Y-132092851D01*
X140794551Y-132083494D01*
X140800390Y-132074026D01*
X140800395Y-132074021D01*
X140833377Y-132003289D01*
X140868394Y-131933567D01*
X140868394Y-131933564D01*
X140872207Y-131923090D01*
X140875723Y-131912479D01*
X140875722Y-131912479D01*
X140875725Y-131912475D01*
X140891502Y-131836062D01*
X140909500Y-131760124D01*
X140909500Y-131760118D01*
X140910794Y-131749041D01*
X140911769Y-131737907D01*
X140909500Y-131659925D01*
X140909500Y-126404478D01*
X140928758Y-126307659D01*
X140983602Y-126225580D01*
X141041248Y-126182426D01*
X141166814Y-126113863D01*
X141382268Y-125952576D01*
X141572575Y-125762269D01*
X141733862Y-125546815D01*
X141862844Y-125310601D01*
X141956897Y-125058435D01*
X142014106Y-124795450D01*
X142017483Y-124748233D01*
X142033306Y-124527006D01*
X142033306Y-124526995D01*
X142014107Y-124258562D01*
X142014105Y-124258548D01*
X142010267Y-124240906D01*
X141956897Y-123995567D01*
X141927304Y-123916225D01*
X141862847Y-123743408D01*
X141862844Y-123743402D01*
X141862844Y-123743401D01*
X141740040Y-123518501D01*
X141733863Y-123507188D01*
X141733862Y-123507187D01*
X141572578Y-123291737D01*
X141572573Y-123291731D01*
X141382269Y-123101427D01*
X141382263Y-123101422D01*
X141166819Y-122940142D01*
X141159217Y-122935257D01*
X141160003Y-122934033D01*
X141092495Y-122877609D01*
X141046744Y-122790135D01*
X141036500Y-122718870D01*
X141036500Y-121487501D01*
X142598343Y-121487501D01*
X142910000Y-121487501D01*
X142910000Y-121224600D01*
X142909999Y-121224600D01*
X142801463Y-121262579D01*
X142691348Y-121343846D01*
X142691345Y-121343849D01*
X142610078Y-121453964D01*
X142598343Y-121487501D01*
X141036500Y-121487501D01*
X141036500Y-120951239D01*
X141055758Y-120854420D01*
X141110600Y-120772343D01*
X143983392Y-117899550D01*
X144013585Y-117873765D01*
X144016470Y-117871670D01*
X144061256Y-117821928D01*
X144065767Y-117817175D01*
X144079937Y-117803007D01*
X144092541Y-117787441D01*
X144096835Y-117782415D01*
X144141585Y-117732716D01*
X144143366Y-117729629D01*
X144165869Y-117696888D01*
X144168107Y-117694126D01*
X144198477Y-117634518D01*
X144201609Y-117628748D01*
X144235075Y-117570786D01*
X144236175Y-117567397D01*
X144251376Y-117530698D01*
X144252994Y-117527525D01*
X144270309Y-117462901D01*
X144272177Y-117456594D01*
X144292855Y-117392957D01*
X144293227Y-117389419D01*
X144300464Y-117350364D01*
X144301389Y-117346916D01*
X144304889Y-117280093D01*
X144305408Y-117273513D01*
X144307500Y-117253621D01*
X144307500Y-117233607D01*
X144307672Y-117227013D01*
X144311174Y-117160191D01*
X144310615Y-117156660D01*
X144307500Y-117117084D01*
X144307500Y-116473001D01*
X151054001Y-116473001D01*
X151054001Y-116867020D01*
X151068736Y-116941105D01*
X151068737Y-116941108D01*
X151124874Y-117025123D01*
X151124875Y-117025124D01*
X151208895Y-117081264D01*
X151208893Y-117081264D01*
X151282981Y-117096000D01*
X151927000Y-117096000D01*
X151927000Y-116473001D01*
X152689000Y-116473001D01*
X152689000Y-117096000D01*
X153333017Y-117096000D01*
X153333019Y-117095999D01*
X153407104Y-117081264D01*
X153407107Y-117081263D01*
X153491122Y-117025126D01*
X153491123Y-117025125D01*
X153547263Y-116941106D01*
X153562000Y-116867019D01*
X153562000Y-116473001D01*
X152689000Y-116473001D01*
X151927000Y-116473001D01*
X151054001Y-116473001D01*
X144307500Y-116473001D01*
X144307500Y-116141819D01*
X144326758Y-116045000D01*
X144381602Y-115962921D01*
X144463681Y-115908077D01*
X144560500Y-115888819D01*
X144657319Y-115908077D01*
X144739398Y-115962921D01*
X144783254Y-116006777D01*
X144897639Y-116062697D01*
X144971794Y-116073501D01*
X144971796Y-116073501D01*
X147044204Y-116073501D01*
X147044206Y-116073501D01*
X147118361Y-116062697D01*
X147232746Y-116006777D01*
X147322776Y-115916747D01*
X147378696Y-115802362D01*
X147389500Y-115728207D01*
X147389500Y-115061500D01*
X147408758Y-114964681D01*
X147463602Y-114882602D01*
X147545681Y-114827758D01*
X147642500Y-114808500D01*
X150885661Y-114808500D01*
X150982480Y-114827758D01*
X151064559Y-114882602D01*
X151119403Y-114964681D01*
X151138661Y-115061500D01*
X151119403Y-115158319D01*
X151096022Y-115202060D01*
X151068736Y-115242895D01*
X151054000Y-115316982D01*
X151054000Y-115711001D01*
X153561999Y-115711001D01*
X153561999Y-115316984D01*
X153561998Y-115316981D01*
X153547263Y-115242898D01*
X153502144Y-115175372D01*
X153464367Y-115084170D01*
X153464367Y-114985455D01*
X153502144Y-114894253D01*
X153533603Y-114855919D01*
X153571704Y-114817818D01*
X153653780Y-114762977D01*
X153750599Y-114743719D01*
X153847418Y-114762977D01*
G37*
%TD.AperFunction*%
%TA.AperFunction,Conductor*%
G36*
X171376319Y-124302287D02*
G01*
X171458398Y-124357131D01*
X171513242Y-124439210D01*
X171532500Y-124536029D01*
X171532500Y-135031693D01*
X171532327Y-135038287D01*
X171529637Y-135089614D01*
X171525511Y-135168334D01*
X171518446Y-135294154D01*
X171518436Y-135294336D01*
X171515940Y-135329872D01*
X171512448Y-135365324D01*
X171511250Y-135375954D01*
X171511249Y-135375964D01*
X171509333Y-135391052D01*
X171490398Y-135510609D01*
X171470628Y-135626969D01*
X171464168Y-135662004D01*
X171457462Y-135693408D01*
X171455941Y-135699731D01*
X171420583Y-135831686D01*
X171385875Y-135952164D01*
X171375531Y-135986264D01*
X171370073Y-136002591D01*
X171316879Y-136141162D01*
X171265248Y-136265814D01*
X171253603Y-136292846D01*
X171250137Y-136300226D01*
X171180490Y-136436920D01*
X171110259Y-136563992D01*
X171101875Y-136578670D01*
X171098125Y-136584821D01*
X171013029Y-136715859D01*
X170997945Y-136737119D01*
X170922823Y-136842992D01*
X170921423Y-136844907D01*
X170917196Y-136850482D01*
X170818387Y-136972502D01*
X170814401Y-136977187D01*
X170711471Y-137092366D01*
X170706595Y-137097524D01*
X170595518Y-137208601D01*
X170590360Y-137213477D01*
X170475201Y-137316389D01*
X170470517Y-137320374D01*
X170348494Y-137419188D01*
X170342937Y-137423402D01*
X170340982Y-137424831D01*
X170213862Y-137515027D01*
X170082819Y-137600127D01*
X170076667Y-137603877D01*
X170065894Y-137610031D01*
X170061985Y-137612264D01*
X170055231Y-137615997D01*
X169934933Y-137682482D01*
X169798206Y-137752146D01*
X169790827Y-137755612D01*
X169763814Y-137767249D01*
X169639174Y-137818875D01*
X169500571Y-137872079D01*
X169490326Y-137875504D01*
X169484256Y-137877534D01*
X169459370Y-137885083D01*
X169450163Y-137887876D01*
X169329735Y-137922570D01*
X169197708Y-137957947D01*
X169191384Y-137959468D01*
X169171593Y-137963694D01*
X169160000Y-137966170D01*
X169124967Y-137972629D01*
X169092373Y-137978166D01*
X169008695Y-137992384D01*
X168889015Y-138011339D01*
X168878179Y-138012714D01*
X168873953Y-138013251D01*
X168863323Y-138014449D01*
X168848129Y-138015945D01*
X168827867Y-138017941D01*
X168792335Y-138020437D01*
X168666600Y-138027497D01*
X168552722Y-138033466D01*
X168536278Y-138034328D01*
X168529663Y-138034501D01*
X144143643Y-138034501D01*
X144046824Y-138015243D01*
X143964745Y-137960399D01*
X143926060Y-137902503D01*
X143914695Y-137927903D01*
X143842963Y-137995721D01*
X143750739Y-138030926D01*
X143708357Y-138034501D01*
X143320361Y-138034501D01*
X143223542Y-138015243D01*
X143141463Y-137960399D01*
X143086619Y-137878320D01*
X143067361Y-137781501D01*
X143086619Y-137684682D01*
X143141463Y-137602603D01*
X143223542Y-137547759D01*
X143302080Y-137529162D01*
X143311193Y-137528501D01*
X143311206Y-137528501D01*
X143385361Y-137517697D01*
X143426233Y-137497715D01*
X143521667Y-137472495D01*
X143619493Y-137485716D01*
X143620908Y-137486207D01*
X143751000Y-137531728D01*
X143751006Y-137531728D01*
X143764652Y-137534844D01*
X143854759Y-137575163D01*
X143922577Y-137646895D01*
X143927148Y-137658869D01*
X143964745Y-137602603D01*
X144046824Y-137547759D01*
X144087348Y-137534844D01*
X144100995Y-137531729D01*
X144100996Y-137531728D01*
X144101000Y-137531728D01*
X144267226Y-137473563D01*
X144344782Y-137424831D01*
X144416336Y-137379871D01*
X144416337Y-137379869D01*
X144416340Y-137379868D01*
X144540867Y-137255341D01*
X144567159Y-137213499D01*
X144634560Y-137106230D01*
X144634559Y-137106230D01*
X144634562Y-137106227D01*
X144692727Y-136940001D01*
X144712445Y-136765001D01*
X144708651Y-136731328D01*
X144716948Y-136632962D01*
X144762256Y-136545259D01*
X144837679Y-136481570D01*
X144931732Y-136451592D01*
X144960060Y-136450001D01*
X147037204Y-136450001D01*
X147037206Y-136450001D01*
X147111361Y-136439197D01*
X147225746Y-136383277D01*
X147315776Y-136293247D01*
X147371696Y-136178862D01*
X147382500Y-136104707D01*
X147382500Y-134932295D01*
X147371696Y-134858140D01*
X147315776Y-134743755D01*
X147269420Y-134697399D01*
X147214576Y-134615320D01*
X147195318Y-134518501D01*
X147214576Y-134421682D01*
X147269420Y-134339603D01*
X147282916Y-134326107D01*
X147315776Y-134293247D01*
X147371696Y-134178862D01*
X147382500Y-134104707D01*
X147382500Y-132932295D01*
X147371696Y-132858140D01*
X147315776Y-132743755D01*
X147269420Y-132697399D01*
X147214576Y-132615320D01*
X147195318Y-132518501D01*
X147214576Y-132421682D01*
X147269420Y-132339603D01*
X147280616Y-132328407D01*
X147315776Y-132293247D01*
X147371696Y-132178862D01*
X147382500Y-132104707D01*
X147382500Y-130932295D01*
X147371696Y-130858140D01*
X147315776Y-130743755D01*
X147269420Y-130697399D01*
X147214576Y-130615320D01*
X147195318Y-130518501D01*
X147214576Y-130421682D01*
X147269420Y-130339603D01*
X147281607Y-130327416D01*
X147315776Y-130293247D01*
X147371696Y-130178862D01*
X147382500Y-130104707D01*
X147382500Y-128932295D01*
X147371696Y-128858140D01*
X147315776Y-128743755D01*
X147269420Y-128697399D01*
X147214576Y-128615320D01*
X147195318Y-128518501D01*
X147214576Y-128421682D01*
X147269420Y-128339603D01*
X147273321Y-128335702D01*
X147315776Y-128293247D01*
X147315778Y-128293241D01*
X147327956Y-128276187D01*
X147328951Y-128276897D01*
X147374308Y-128217363D01*
X147459627Y-128167710D01*
X147541779Y-128154001D01*
X158547600Y-128154001D01*
X158644419Y-128173259D01*
X158682202Y-128192778D01*
X158697774Y-128202563D01*
X158864000Y-128260728D01*
X159039000Y-128280446D01*
X159214000Y-128260728D01*
X159305828Y-128228595D01*
X159315599Y-128225177D01*
X159413345Y-128211377D01*
X159508932Y-128236034D01*
X159578058Y-128285081D01*
X159632580Y-128339603D01*
X159687424Y-128421682D01*
X159706682Y-128518501D01*
X159687424Y-128615320D01*
X159632580Y-128697399D01*
X159586226Y-128743752D01*
X159586225Y-128743753D01*
X159586224Y-128743755D01*
X159556645Y-128804259D01*
X159530303Y-128858142D01*
X159519500Y-128932293D01*
X159519500Y-130104708D01*
X159530303Y-130178859D01*
X159530303Y-130178860D01*
X159530304Y-130178862D01*
X159586224Y-130293247D01*
X159586226Y-130293249D01*
X159632580Y-130339603D01*
X159687424Y-130421682D01*
X159706682Y-130518501D01*
X159687424Y-130615320D01*
X159632580Y-130697399D01*
X159586226Y-130743752D01*
X159586225Y-130743753D01*
X159586224Y-130743755D01*
X159585778Y-130744668D01*
X159530303Y-130858142D01*
X159519500Y-130932293D01*
X159519500Y-132104708D01*
X159530303Y-132178859D01*
X159530303Y-132178860D01*
X159530304Y-132178862D01*
X159586224Y-132293247D01*
X159586226Y-132293249D01*
X159632580Y-132339603D01*
X159687424Y-132421682D01*
X159706682Y-132518501D01*
X159687424Y-132615320D01*
X159632580Y-132697399D01*
X159586226Y-132743752D01*
X159586225Y-132743753D01*
X159586224Y-132743755D01*
X159555711Y-132806170D01*
X159530303Y-132858142D01*
X159519500Y-132932293D01*
X159519500Y-134104708D01*
X159530303Y-134178859D01*
X159530303Y-134178860D01*
X159530304Y-134178862D01*
X159586224Y-134293247D01*
X159586226Y-134293249D01*
X159632580Y-134339603D01*
X159687424Y-134421682D01*
X159706682Y-134518501D01*
X159687424Y-134615320D01*
X159632580Y-134697399D01*
X159586226Y-134743752D01*
X159586225Y-134743753D01*
X159586224Y-134743755D01*
X159583341Y-134749653D01*
X159530303Y-134858142D01*
X159519500Y-134932293D01*
X159519500Y-136104708D01*
X159530303Y-136178859D01*
X159530303Y-136178860D01*
X159530304Y-136178862D01*
X159586224Y-136293247D01*
X159676254Y-136383277D01*
X159790639Y-136439197D01*
X159864794Y-136450001D01*
X159864796Y-136450001D01*
X162437204Y-136450001D01*
X162437206Y-136450001D01*
X162511361Y-136439197D01*
X162625746Y-136383277D01*
X162715776Y-136293247D01*
X162715776Y-136293246D01*
X162730600Y-136278423D01*
X162732071Y-136279894D01*
X162783444Y-136231610D01*
X162875772Y-136196677D01*
X162974440Y-136199734D01*
X163027234Y-136220543D01*
X163027421Y-136220094D01*
X163042740Y-136226439D01*
X163042741Y-136226440D01*
X163184198Y-136285034D01*
X163184202Y-136285034D01*
X163184204Y-136285035D01*
X163297870Y-136300000D01*
X163297882Y-136300000D01*
X163297884Y-136300001D01*
X163297885Y-136300001D01*
X163924115Y-136300001D01*
X163924116Y-136300001D01*
X163924117Y-136300000D01*
X163924129Y-136300000D01*
X164037795Y-136285035D01*
X164037795Y-136285034D01*
X164037802Y-136285034D01*
X164179259Y-136226440D01*
X164300731Y-136133232D01*
X164393939Y-136011760D01*
X164452533Y-135870303D01*
X164457619Y-135831672D01*
X164467499Y-135756630D01*
X164467500Y-135756616D01*
X164467500Y-135280385D01*
X164467499Y-135280371D01*
X164452534Y-135166705D01*
X164452533Y-135166703D01*
X164452533Y-135166699D01*
X164449485Y-135159340D01*
X167032500Y-135159340D01*
X167073428Y-135404611D01*
X167073429Y-135404615D01*
X167154172Y-135639811D01*
X167272526Y-135858510D01*
X167272528Y-135858513D01*
X167272529Y-135858514D01*
X167425256Y-136054738D01*
X167425258Y-136054740D01*
X167425262Y-136054745D01*
X167608215Y-136223165D01*
X167608220Y-136223168D01*
X167608220Y-136223169D01*
X167816389Y-136359172D01*
X167816391Y-136359173D01*
X167816393Y-136359174D01*
X168044119Y-136459064D01*
X168285179Y-136520109D01*
X168359480Y-136526265D01*
X168470930Y-136535501D01*
X168470933Y-136535501D01*
X168595070Y-136535501D01*
X168687944Y-136527805D01*
X168780821Y-136520109D01*
X169021881Y-136459064D01*
X169249607Y-136359174D01*
X169363089Y-136285033D01*
X169457779Y-136223169D01*
X169457779Y-136223168D01*
X169457785Y-136223165D01*
X169640738Y-136054745D01*
X169793474Y-135858510D01*
X169911828Y-135639811D01*
X169992571Y-135404615D01*
X170033500Y-135159336D01*
X170033500Y-134910666D01*
X169992571Y-134665387D01*
X169911828Y-134430191D01*
X169793474Y-134211492D01*
X169705140Y-134098001D01*
X169640743Y-134015263D01*
X169640741Y-134015261D01*
X169640738Y-134015257D01*
X169457785Y-133846837D01*
X169457779Y-133846833D01*
X169457779Y-133846832D01*
X169249610Y-133710829D01*
X169113913Y-133651307D01*
X169021881Y-133610938D01*
X169015870Y-133609415D01*
X168780823Y-133549893D01*
X168780818Y-133549892D01*
X168595070Y-133534501D01*
X168595067Y-133534501D01*
X168470933Y-133534501D01*
X168470930Y-133534501D01*
X168285181Y-133549892D01*
X168285176Y-133549893D01*
X168044122Y-133610937D01*
X168044119Y-133610938D01*
X167816389Y-133710829D01*
X167608220Y-133846832D01*
X167608220Y-133846833D01*
X167608217Y-133846835D01*
X167608215Y-133846837D01*
X167594213Y-133859727D01*
X167425261Y-134015258D01*
X167425256Y-134015263D01*
X167272529Y-134211487D01*
X167272526Y-134211490D01*
X167272526Y-134211492D01*
X167210499Y-134326108D01*
X167170379Y-134400244D01*
X167154172Y-134430191D01*
X167123855Y-134518501D01*
X167073429Y-134665386D01*
X167073428Y-134665390D01*
X167032500Y-134910661D01*
X167032500Y-135159340D01*
X164449485Y-135159340D01*
X164393939Y-135025242D01*
X164357457Y-134977697D01*
X164300733Y-134903772D01*
X164298606Y-134901645D01*
X164295269Y-134896651D01*
X164290636Y-134890613D01*
X164291031Y-134890309D01*
X164243762Y-134819566D01*
X164224504Y-134722747D01*
X164243762Y-134625928D01*
X164298606Y-134543849D01*
X164380685Y-134489005D01*
X164384224Y-134487571D01*
X164422045Y-134472596D01*
X164433296Y-134468745D01*
X164475893Y-134456370D01*
X164484805Y-134451099D01*
X164520460Y-134433631D01*
X164530088Y-134429820D01*
X164565971Y-134403749D01*
X164575925Y-134397210D01*
X164614098Y-134374635D01*
X164621413Y-134367319D01*
X164651615Y-134341525D01*
X164659987Y-134335443D01*
X164688260Y-134301264D01*
X164696272Y-134292459D01*
X165267008Y-133721724D01*
X165275822Y-133713705D01*
X165289297Y-133702557D01*
X165289303Y-133702554D01*
X165337426Y-133651307D01*
X165358639Y-133630095D01*
X165361123Y-133626891D01*
X165368848Y-133617845D01*
X165399217Y-133585507D01*
X165404201Y-133576439D01*
X165426001Y-133543251D01*
X165432350Y-133535068D01*
X165449966Y-133494357D01*
X165455206Y-133483661D01*
X165476569Y-133444804D01*
X165479143Y-133434775D01*
X165492003Y-133397213D01*
X165496117Y-133387709D01*
X165503054Y-133343900D01*
X165505468Y-133332243D01*
X165516500Y-133289283D01*
X165516500Y-133278928D01*
X165519615Y-133239349D01*
X165521235Y-133229122D01*
X165520501Y-133221354D01*
X165517062Y-133184975D01*
X165516500Y-133173063D01*
X165516500Y-130554605D01*
X165517062Y-130542694D01*
X165517127Y-130542001D01*
X168438586Y-130542001D01*
X168444140Y-130561519D01*
X168444142Y-130561526D01*
X168535336Y-130744667D01*
X168535336Y-130744668D01*
X168658635Y-130907944D01*
X168809841Y-131045787D01*
X168983794Y-131153493D01*
X168983802Y-131153497D01*
X169096999Y-131197350D01*
X169097000Y-131197349D01*
X169097000Y-130542001D01*
X168438586Y-130542001D01*
X165517127Y-130542001D01*
X165518706Y-130525290D01*
X165518708Y-130525282D01*
X165516500Y-130455029D01*
X165516500Y-130425018D01*
X165516500Y-129341928D01*
X165519615Y-129302349D01*
X165521235Y-129292120D01*
X165517062Y-129247975D01*
X165516500Y-129236063D01*
X165516500Y-126211029D01*
X165535758Y-126114210D01*
X165590602Y-126032131D01*
X165832131Y-125790603D01*
X165914211Y-125735759D01*
X166011029Y-125716501D01*
X167993500Y-125716501D01*
X168090319Y-125735759D01*
X168172398Y-125790603D01*
X168227242Y-125872682D01*
X168244251Y-125958196D01*
X168245839Y-125958081D01*
X168246500Y-125967208D01*
X168257303Y-126041359D01*
X168257303Y-126041360D01*
X168257304Y-126041362D01*
X168313224Y-126155747D01*
X168403254Y-126245777D01*
X168517639Y-126301697D01*
X168517643Y-126301697D01*
X168517644Y-126301698D01*
X168527752Y-126304822D01*
X168614569Y-126351807D01*
X168676797Y-126428439D01*
X168704963Y-126523051D01*
X168694778Y-126621240D01*
X168647793Y-126708057D01*
X168631955Y-126725441D01*
X168531015Y-126826381D01*
X168531010Y-126826387D01*
X168407417Y-127002897D01*
X168316347Y-127198197D01*
X168260578Y-127406328D01*
X168260576Y-127406340D01*
X168241796Y-127620999D01*
X168241796Y-127621002D01*
X168260576Y-127835661D01*
X168260578Y-127835673D01*
X168311159Y-128024444D01*
X168316348Y-128043808D01*
X168407416Y-128239103D01*
X168531013Y-128415618D01*
X168683383Y-128567988D01*
X168859898Y-128691585D01*
X168945552Y-128731526D01*
X169025158Y-128789895D01*
X169076369Y-128874288D01*
X169091386Y-128971855D01*
X169067923Y-129067742D01*
X169009552Y-129147351D01*
X168971814Y-129175925D01*
X168809843Y-129276212D01*
X168658635Y-129414057D01*
X168535336Y-129577333D01*
X168535336Y-129577334D01*
X168444142Y-129760475D01*
X168444140Y-129760482D01*
X168438586Y-129780001D01*
X169154176Y-129780001D01*
X169096239Y-129830203D01*
X169018507Y-129951157D01*
X168978000Y-130089112D01*
X168978000Y-130232890D01*
X169018507Y-130370845D01*
X169096239Y-130491799D01*
X169204900Y-130585953D01*
X169335685Y-130645681D01*
X169442237Y-130661001D01*
X169513763Y-130661001D01*
X169620315Y-130645681D01*
X169751100Y-130585953D01*
X169801824Y-130542001D01*
X169859000Y-130542001D01*
X169859000Y-131197350D01*
X169972197Y-131153497D01*
X169972205Y-131153493D01*
X170146158Y-131045787D01*
X170297364Y-130907944D01*
X170420663Y-130744668D01*
X170420663Y-130744667D01*
X170511857Y-130561526D01*
X170511859Y-130561519D01*
X170517414Y-130542001D01*
X169859000Y-130542001D01*
X169801824Y-130542001D01*
X169859761Y-130491799D01*
X169937493Y-130370845D01*
X169978000Y-130232890D01*
X169978000Y-130089112D01*
X169937493Y-129951157D01*
X169859761Y-129830203D01*
X169801824Y-129780001D01*
X170517414Y-129780001D01*
X170511859Y-129760482D01*
X170511857Y-129760475D01*
X170420663Y-129577334D01*
X170420663Y-129577333D01*
X170297364Y-129414057D01*
X170146156Y-129276212D01*
X169984185Y-129175925D01*
X169912006Y-129108583D01*
X169871092Y-129018745D01*
X169867672Y-128920089D01*
X169902267Y-128827633D01*
X169969609Y-128755454D01*
X170010435Y-128731532D01*
X170096102Y-128691585D01*
X170272617Y-128567988D01*
X170424987Y-128415618D01*
X170548584Y-128239103D01*
X170639652Y-128043808D01*
X170695423Y-127835666D01*
X170714204Y-127621001D01*
X170695423Y-127406336D01*
X170639652Y-127198194D01*
X170548584Y-127002899D01*
X170424987Y-126826384D01*
X170324044Y-126725441D01*
X170269201Y-126643363D01*
X170249943Y-126546544D01*
X170269201Y-126449725D01*
X170324045Y-126367646D01*
X170406124Y-126312802D01*
X170428249Y-126304821D01*
X170438355Y-126301697D01*
X170438361Y-126301697D01*
X170552746Y-126245777D01*
X170642776Y-126155747D01*
X170698696Y-126041362D01*
X170709500Y-125967207D01*
X170709500Y-124853029D01*
X170728758Y-124756210D01*
X170783602Y-124674131D01*
X171100602Y-124357131D01*
X171182681Y-124302287D01*
X171279500Y-124283029D01*
X171376319Y-124302287D01*
G37*
%TD.AperFunction*%
%TA.AperFunction,Conductor*%
G36*
X135092420Y-128804259D02*
G01*
X135174499Y-128859103D01*
X135211319Y-128905809D01*
X135258009Y-128982001D01*
X136269500Y-128982001D01*
X136366319Y-129001259D01*
X136448398Y-129056103D01*
X136503242Y-129138182D01*
X136522500Y-129235001D01*
X136522500Y-129836000D01*
X136841789Y-129836000D01*
X136841791Y-129835999D01*
X136936397Y-129821016D01*
X136936406Y-129821014D01*
X137050423Y-129762919D01*
X137105835Y-129707507D01*
X137187913Y-129652663D01*
X137284732Y-129633404D01*
X137381551Y-129652662D01*
X137463631Y-129707505D01*
X137518475Y-129789583D01*
X137523535Y-129802838D01*
X137530078Y-129821536D01*
X137530080Y-129821541D01*
X137611345Y-129931652D01*
X137634142Y-129948477D01*
X137700606Y-130021465D01*
X137734080Y-130114333D01*
X137729467Y-130212940D01*
X137687470Y-130302277D01*
X137637923Y-130352758D01*
X137626193Y-130361760D01*
X137521269Y-130442270D01*
X137517243Y-130447517D01*
X137443025Y-130512605D01*
X137349548Y-130544336D01*
X137316524Y-130546501D01*
X137075743Y-130546501D01*
X136982930Y-130528861D01*
X136937023Y-130510758D01*
X136937021Y-130510757D01*
X136851621Y-130500501D01*
X135719499Y-130500501D01*
X135622680Y-130481243D01*
X135540601Y-130426399D01*
X135485757Y-130344320D01*
X135466499Y-130247503D01*
X135466499Y-130088999D01*
X135485757Y-129992181D01*
X135540601Y-129910102D01*
X135622680Y-129855258D01*
X135719499Y-129836000D01*
X135922500Y-129836000D01*
X135922500Y-129582001D01*
X135163974Y-129582001D01*
X135071160Y-129564361D01*
X135062023Y-129560758D01*
X135062021Y-129560757D01*
X134976613Y-129550501D01*
X133718397Y-129550501D01*
X133718386Y-129550502D01*
X133632980Y-129560757D01*
X133632978Y-129560757D01*
X133632977Y-129560758D01*
X133590946Y-129577333D01*
X133497058Y-129614357D01*
X133497053Y-129614360D01*
X133380640Y-129702638D01*
X133380637Y-129702641D01*
X133292359Y-129819054D01*
X133292357Y-129819056D01*
X133275461Y-129861902D01*
X133238859Y-129954718D01*
X133185426Y-130037719D01*
X133104296Y-130093956D01*
X133007820Y-130114865D01*
X132910686Y-130097263D01*
X132827683Y-130043828D01*
X132771446Y-129962698D01*
X132750537Y-129866222D01*
X132750500Y-129861902D01*
X132750500Y-129038001D01*
X132769758Y-128941182D01*
X132824602Y-128859103D01*
X132906681Y-128804259D01*
X133003500Y-128785001D01*
X134995601Y-128785001D01*
X135092420Y-128804259D01*
G37*
%TD.AperFunction*%
%TA.AperFunction,Conductor*%
G36*
X142416039Y-116400437D02*
G01*
X142485849Y-116470233D01*
X142523634Y-116561431D01*
X142528500Y-116610812D01*
X142528500Y-116733761D01*
X142509242Y-116830580D01*
X142454398Y-116912659D01*
X139581606Y-119785450D01*
X139551430Y-119811225D01*
X139548534Y-119813329D01*
X139548530Y-119813332D01*
X139503767Y-119863044D01*
X139499216Y-119867840D01*
X139485063Y-119881993D01*
X139472468Y-119897546D01*
X139468172Y-119902577D01*
X139423413Y-119952287D01*
X139423410Y-119952291D01*
X139421622Y-119955390D01*
X139399151Y-119988086D01*
X139396895Y-119990871D01*
X139396893Y-119990874D01*
X139366527Y-120050471D01*
X139363368Y-120056290D01*
X139329924Y-120114216D01*
X139328818Y-120117623D01*
X139313634Y-120154281D01*
X139312007Y-120157474D01*
X139312005Y-120157478D01*
X139294695Y-120222078D01*
X139292815Y-120228426D01*
X139272147Y-120292036D01*
X139272143Y-120292053D01*
X139271770Y-120295606D01*
X139264541Y-120334610D01*
X139263613Y-120338071D01*
X139263611Y-120338087D01*
X139260110Y-120404881D01*
X139259591Y-120411479D01*
X139257500Y-120431372D01*
X139257500Y-120451393D01*
X139257327Y-120457988D01*
X139255974Y-120483813D01*
X139253825Y-120524810D01*
X139254385Y-120528340D01*
X139257500Y-120567918D01*
X139257500Y-122718870D01*
X139238242Y-122815689D01*
X139183398Y-122897768D01*
X139134308Y-122934518D01*
X139134783Y-122935257D01*
X139127180Y-122940142D01*
X138911736Y-123101422D01*
X138911730Y-123101427D01*
X138721426Y-123291731D01*
X138721421Y-123291737D01*
X138560137Y-123507187D01*
X138560136Y-123507188D01*
X138431155Y-123743402D01*
X138431152Y-123743408D01*
X138337104Y-123995562D01*
X138279894Y-124258548D01*
X138279892Y-124258562D01*
X138260694Y-124526995D01*
X138260694Y-124527006D01*
X138279892Y-124795439D01*
X138279894Y-124795453D01*
X138337104Y-125058439D01*
X138431152Y-125310593D01*
X138431155Y-125310599D01*
X138560136Y-125546813D01*
X138560137Y-125546814D01*
X138721421Y-125762264D01*
X138721426Y-125762270D01*
X138911730Y-125952574D01*
X138911736Y-125952579D01*
X139127184Y-126113862D01*
X139127186Y-126113863D01*
X139252750Y-126182426D01*
X139328495Y-126245727D01*
X139374251Y-126333198D01*
X139384500Y-126404478D01*
X139384500Y-128911122D01*
X139365242Y-129007941D01*
X139310398Y-129090020D01*
X139228319Y-129144864D01*
X139131500Y-129164122D01*
X139034681Y-129144864D01*
X138952602Y-129090020D01*
X138897758Y-129007941D01*
X138892698Y-128994684D01*
X138891921Y-128992466D01*
X138891919Y-128992460D01*
X138810654Y-128882349D01*
X138810651Y-128882346D01*
X138700536Y-128801079D01*
X138700537Y-128801079D01*
X138592000Y-128763100D01*
X138592000Y-129535001D01*
X138572742Y-129631820D01*
X138517898Y-129713899D01*
X138435819Y-129768743D01*
X138339000Y-129788001D01*
X138083000Y-129788001D01*
X137986181Y-129768743D01*
X137904102Y-129713899D01*
X137849258Y-129631820D01*
X137830000Y-129535001D01*
X137830000Y-128763100D01*
X137829999Y-128763100D01*
X137721463Y-128801079D01*
X137611348Y-128882346D01*
X137611345Y-128882349D01*
X137573384Y-128933785D01*
X137500396Y-129000248D01*
X137407528Y-129033721D01*
X137308921Y-129029108D01*
X137219584Y-128987109D01*
X137153121Y-128914121D01*
X137144397Y-128898406D01*
X137140916Y-128891575D01*
X137050425Y-128801084D01*
X136936399Y-128742985D01*
X136936396Y-128742984D01*
X136841797Y-128728001D01*
X136816604Y-128728001D01*
X136719785Y-128708743D01*
X136637706Y-128653899D01*
X136582862Y-128571820D01*
X136563604Y-128475001D01*
X136582862Y-128378182D01*
X136627030Y-128309184D01*
X136675461Y-128260754D01*
X136743061Y-128167710D01*
X136755289Y-128150881D01*
X136755299Y-128150864D01*
X136814036Y-128070021D01*
X136860100Y-127979615D01*
X136875692Y-127949017D01*
X136875707Y-127948983D01*
X136921069Y-127859958D01*
X136951956Y-127764898D01*
X136963036Y-127730799D01*
X136963046Y-127730762D01*
X136993923Y-127635737D01*
X137030803Y-127402881D01*
X137031901Y-127343955D01*
X137031902Y-127343941D01*
X137032779Y-127296833D01*
X137033000Y-127285001D01*
X137033000Y-122067273D01*
X137033609Y-122054867D01*
X137040130Y-121988661D01*
X137054961Y-121838078D01*
X137064634Y-121789449D01*
X137122440Y-121598885D01*
X137141419Y-121553068D01*
X137141795Y-121552365D01*
X137235290Y-121377447D01*
X137262838Y-121336219D01*
X137401038Y-121167822D01*
X137409360Y-121158640D01*
X141911026Y-116656975D01*
X142190611Y-116377389D01*
X142226119Y-116362678D01*
X142324834Y-116362669D01*
X142416039Y-116400437D01*
G37*
%TD.AperFunction*%
%TA.AperFunction,Conductor*%
G36*
X157557819Y-121282077D02*
G01*
X157639898Y-121336921D01*
X157686254Y-121383277D01*
X157800639Y-121439197D01*
X157874794Y-121450001D01*
X157874796Y-121450001D01*
X159047204Y-121450001D01*
X159047206Y-121450001D01*
X159121361Y-121439197D01*
X159155385Y-121422563D01*
X159250818Y-121397342D01*
X159348645Y-121410563D01*
X159433965Y-121460213D01*
X159493791Y-121538735D01*
X159519014Y-121634174D01*
X159519500Y-121649856D01*
X159519500Y-122104708D01*
X159530303Y-122178859D01*
X159530303Y-122178860D01*
X159530304Y-122178862D01*
X159586224Y-122293247D01*
X159586226Y-122293249D01*
X159632580Y-122339603D01*
X159687424Y-122421682D01*
X159706682Y-122518501D01*
X159687424Y-122615320D01*
X159632580Y-122697399D01*
X159632578Y-122697401D01*
X159596205Y-122733773D01*
X159514125Y-122788616D01*
X159417306Y-122807873D01*
X159333749Y-122793676D01*
X159319288Y-122788616D01*
X159214000Y-122751774D01*
X159039000Y-122732056D01*
X158864000Y-122751774D01*
X158697777Y-122809937D01*
X158697770Y-122809940D01*
X158548663Y-122903630D01*
X158424129Y-123028164D01*
X158330439Y-123177271D01*
X158330436Y-123177278D01*
X158272273Y-123343501D01*
X158252555Y-123518500D01*
X158252555Y-123518501D01*
X158272273Y-123693500D01*
X158273286Y-123696395D01*
X158273857Y-123700443D01*
X158275435Y-123707355D01*
X158274852Y-123707488D01*
X158287085Y-123794141D01*
X158262428Y-123889728D01*
X158203069Y-123968603D01*
X158118043Y-124018758D01*
X158020297Y-124032557D01*
X157924710Y-124007900D01*
X157855585Y-123958853D01*
X156742602Y-122845870D01*
X156687758Y-122763791D01*
X156668500Y-122666972D01*
X156668500Y-122565391D01*
X156687758Y-122468572D01*
X156707281Y-122430784D01*
X156741561Y-122376228D01*
X156741562Y-122376227D01*
X156799727Y-122210001D01*
X156819445Y-122035001D01*
X156799727Y-121860001D01*
X156774028Y-121786559D01*
X156760230Y-121688815D01*
X156784887Y-121593228D01*
X156844247Y-121514353D01*
X156929272Y-121464198D01*
X157012832Y-121450001D01*
X157047204Y-121450001D01*
X157047206Y-121450001D01*
X157121361Y-121439197D01*
X157235746Y-121383277D01*
X157282102Y-121336921D01*
X157364181Y-121282077D01*
X157461000Y-121262819D01*
X157557819Y-121282077D01*
G37*
%TD.AperFunction*%
%TA.AperFunction,Conductor*%
G36*
X166741318Y-105775617D02*
G01*
X166823397Y-105830460D01*
X166878241Y-105912539D01*
X166897500Y-106009358D01*
X166897500Y-106945388D01*
X166896939Y-106957297D01*
X166895292Y-106974723D01*
X166897500Y-107044986D01*
X166897500Y-107074982D01*
X166897501Y-107074998D01*
X166898008Y-107079014D01*
X166898941Y-107090881D01*
X166900334Y-107135202D01*
X166900334Y-107135205D01*
X166900335Y-107135206D01*
X166903227Y-107145163D01*
X166911274Y-107184019D01*
X166912572Y-107194295D01*
X166912574Y-107194305D01*
X166928897Y-107235532D01*
X166932758Y-107246808D01*
X166945130Y-107289392D01*
X166945131Y-107289394D01*
X166950405Y-107298312D01*
X166967867Y-107333957D01*
X166971681Y-107343589D01*
X166997755Y-107379477D01*
X167004293Y-107389431D01*
X167026864Y-107427597D01*
X167034185Y-107434918D01*
X167059966Y-107465104D01*
X167066056Y-107473487D01*
X167066058Y-107473488D01*
X167100229Y-107501757D01*
X167109050Y-107509783D01*
X170073398Y-110474131D01*
X170128242Y-110556210D01*
X170147500Y-110653029D01*
X170147500Y-110705071D01*
X170128242Y-110801890D01*
X170073398Y-110883969D01*
X169991319Y-110938813D01*
X169894500Y-110958071D01*
X169857019Y-110953703D01*
X169856972Y-110954144D01*
X169781229Y-110946001D01*
X169781208Y-110946000D01*
X168614000Y-110946000D01*
X168614000Y-113053999D01*
X169781201Y-113053999D01*
X169781215Y-113053998D01*
X169856972Y-113045855D01*
X169857198Y-113047963D01*
X169934956Y-113045182D01*
X170027449Y-113079675D01*
X170099703Y-113146937D01*
X170140716Y-113236730D01*
X170147500Y-113294927D01*
X170147500Y-117447860D01*
X170128242Y-117544679D01*
X170073398Y-117626758D01*
X169991319Y-117681602D01*
X169894500Y-117700860D01*
X169797681Y-117681602D01*
X169745790Y-117652541D01*
X169589315Y-117538854D01*
X169410434Y-117459211D01*
X169410427Y-117459209D01*
X169218910Y-117418501D01*
X169218905Y-117418501D01*
X169023095Y-117418501D01*
X169023089Y-117418501D01*
X168831572Y-117459209D01*
X168831565Y-117459211D01*
X168652683Y-117538855D01*
X168494273Y-117653947D01*
X168494270Y-117653950D01*
X168363251Y-117799461D01*
X168265344Y-117969041D01*
X168204837Y-118155261D01*
X168184369Y-118350001D01*
X168204837Y-118544740D01*
X168234031Y-118634589D01*
X168265345Y-118730963D01*
X168363250Y-118900539D01*
X168420516Y-118964138D01*
X168470988Y-119048974D01*
X168485500Y-119133428D01*
X168485500Y-120408972D01*
X168466242Y-120505791D01*
X168411398Y-120587870D01*
X168277869Y-120721399D01*
X168195790Y-120776243D01*
X168098971Y-120795501D01*
X168007870Y-120795501D01*
X167894204Y-120810466D01*
X167894196Y-120810468D01*
X167752744Y-120869060D01*
X167752737Y-120869064D01*
X167631271Y-120962267D01*
X167631269Y-120962269D01*
X167621719Y-120974716D01*
X167547501Y-121039804D01*
X167454024Y-121071535D01*
X167355519Y-121065079D01*
X167266984Y-121021419D01*
X167220281Y-120974716D01*
X167210730Y-120962269D01*
X167210728Y-120962267D01*
X167089262Y-120869064D01*
X167089260Y-120869063D01*
X167089259Y-120869062D01*
X167089257Y-120869061D01*
X167089255Y-120869060D01*
X166947803Y-120810468D01*
X166947795Y-120810466D01*
X166834129Y-120795501D01*
X166834116Y-120795501D01*
X166642503Y-120795501D01*
X166545684Y-120776243D01*
X166463605Y-120721399D01*
X165306798Y-119564592D01*
X165251954Y-119482513D01*
X165232696Y-119385694D01*
X165251954Y-119288875D01*
X165306798Y-119206796D01*
X165388877Y-119151952D01*
X165485696Y-119132694D01*
X165526829Y-119137329D01*
X165526843Y-119137211D01*
X165720999Y-119159088D01*
X165721001Y-119159088D01*
X165901040Y-119138801D01*
X165901041Y-119138801D01*
X165952853Y-119120671D01*
X165952853Y-119120670D01*
X165290324Y-118458140D01*
X165154025Y-118321841D01*
X165417105Y-118321841D01*
X165427454Y-118433522D01*
X165477448Y-118533923D01*
X165560334Y-118609485D01*
X165664920Y-118650001D01*
X165748802Y-118650001D01*
X165831250Y-118634589D01*
X165926610Y-118575544D01*
X165994201Y-118486039D01*
X166024895Y-118378161D01*
X166022285Y-118350000D01*
X166259815Y-118350000D01*
X166491670Y-118581854D01*
X166509800Y-118530042D01*
X166509800Y-118530041D01*
X166530087Y-118350001D01*
X166530087Y-118350000D01*
X166509801Y-118169965D01*
X166509799Y-118169959D01*
X166491669Y-118118146D01*
X166259815Y-118350000D01*
X166022285Y-118350000D01*
X166014546Y-118266480D01*
X165964552Y-118166079D01*
X165881666Y-118090517D01*
X165777080Y-118050001D01*
X165693198Y-118050001D01*
X165610750Y-118065413D01*
X165515390Y-118124458D01*
X165447799Y-118213963D01*
X165417105Y-118321841D01*
X165154025Y-118321841D01*
X164950328Y-118118145D01*
X164932200Y-118169955D01*
X164932199Y-118169962D01*
X164922909Y-118252412D01*
X164892931Y-118346466D01*
X164829242Y-118421888D01*
X164741538Y-118467196D01*
X164643172Y-118475493D01*
X164549118Y-118445515D01*
X164473696Y-118381826D01*
X164428388Y-118294122D01*
X164418500Y-118224084D01*
X164418500Y-117579329D01*
X165489144Y-117579329D01*
X165720999Y-117811184D01*
X165952853Y-117579330D01*
X165901039Y-117561200D01*
X165721001Y-117540914D01*
X165720999Y-117540914D01*
X165540961Y-117561200D01*
X165540954Y-117561201D01*
X165489144Y-117579329D01*
X164418500Y-117579329D01*
X164418500Y-113372729D01*
X164437758Y-113275910D01*
X164492602Y-113193831D01*
X164571463Y-113141137D01*
X164571183Y-113140490D01*
X164585786Y-113134169D01*
X164585792Y-113134168D01*
X164625642Y-113110601D01*
X164723123Y-113052952D01*
X164723124Y-113052950D01*
X164723127Y-113052949D01*
X164835949Y-112940127D01*
X164835950Y-112940124D01*
X164835952Y-112940123D01*
X164917165Y-112802797D01*
X164917164Y-112802797D01*
X164917168Y-112802792D01*
X164961682Y-112649574D01*
X164964500Y-112613770D01*
X164964500Y-112381000D01*
X166229001Y-112381000D01*
X166229001Y-112598215D01*
X166235453Y-112658233D01*
X166286102Y-112794026D01*
X166286101Y-112794026D01*
X166372953Y-112910046D01*
X166488973Y-112996897D01*
X166624770Y-113047548D01*
X166624769Y-113047548D01*
X166684770Y-113053998D01*
X166684792Y-113053999D01*
X167852000Y-113053999D01*
X167852000Y-112381000D01*
X166229001Y-112381000D01*
X164964500Y-112381000D01*
X164964500Y-111619000D01*
X166229000Y-111619000D01*
X167852000Y-111619000D01*
X167852000Y-110946000D01*
X166684798Y-110946000D01*
X166684784Y-110946001D01*
X166624766Y-110952453D01*
X166488973Y-111003102D01*
X166372953Y-111089953D01*
X166286102Y-111205973D01*
X166235451Y-111341769D01*
X166229001Y-111401770D01*
X166229000Y-111401792D01*
X166229000Y-111619000D01*
X164964500Y-111619000D01*
X164964500Y-111386230D01*
X164961682Y-111350426D01*
X164953636Y-111322734D01*
X164945118Y-111224387D01*
X164974883Y-111130266D01*
X165017688Y-111073253D01*
X165551894Y-110539047D01*
X165582080Y-110513266D01*
X165584970Y-110511168D01*
X165629748Y-110461435D01*
X165634260Y-110456681D01*
X165648437Y-110442506D01*
X165661065Y-110426910D01*
X165665324Y-110421924D01*
X165710085Y-110372214D01*
X165711870Y-110369121D01*
X165734358Y-110336401D01*
X165736607Y-110333625D01*
X165766983Y-110274006D01*
X165770139Y-110268195D01*
X165776516Y-110257150D01*
X165803575Y-110210284D01*
X165804676Y-110206896D01*
X165819876Y-110170200D01*
X165821493Y-110167025D01*
X165821494Y-110167024D01*
X165838808Y-110102406D01*
X165840688Y-110096060D01*
X165855158Y-110051526D01*
X165861355Y-110032455D01*
X165861727Y-110028909D01*
X165868966Y-109989856D01*
X165869889Y-109986415D01*
X165873389Y-109919610D01*
X165873910Y-109912997D01*
X165876000Y-109893116D01*
X165876000Y-109873106D01*
X165876172Y-109866512D01*
X165879674Y-109799690D01*
X165879115Y-109796159D01*
X165876000Y-109756583D01*
X165876000Y-106719987D01*
X165895258Y-106623168D01*
X165950102Y-106541089D01*
X165964690Y-106527604D01*
X166072783Y-106435284D01*
X166229341Y-106251978D01*
X166355296Y-106046438D01*
X166359594Y-106036063D01*
X166410758Y-105912541D01*
X166465601Y-105830462D01*
X166547680Y-105775618D01*
X166644499Y-105756359D01*
X166741318Y-105775617D01*
G37*
%TD.AperFunction*%
%TA.AperFunction,Conductor*%
G36*
X158052615Y-109987758D02*
G01*
X158134694Y-110042602D01*
X158189538Y-110124681D01*
X158208796Y-110221500D01*
X158189538Y-110318319D01*
X158158333Y-110373118D01*
X158136146Y-110402755D01*
X158084570Y-110541034D01*
X158084569Y-110541039D01*
X158078000Y-110602148D01*
X158077999Y-110602169D01*
X158077999Y-110911000D01*
X159985999Y-110911000D01*
X160057130Y-110839869D01*
X160139209Y-110785025D01*
X160236028Y-110765767D01*
X160332847Y-110785025D01*
X160414926Y-110839869D01*
X160648307Y-111073250D01*
X160703151Y-111155329D01*
X160722409Y-111252148D01*
X160712364Y-111322732D01*
X160704317Y-111350428D01*
X160701500Y-111386228D01*
X160701500Y-112613772D01*
X160704317Y-112649575D01*
X160704318Y-112649576D01*
X160748829Y-112802785D01*
X160748834Y-112802797D01*
X160830047Y-112940123D01*
X160942876Y-113052952D01*
X161080202Y-113134165D01*
X161080205Y-113134166D01*
X161080208Y-113134168D01*
X161080211Y-113134169D01*
X161080214Y-113134170D01*
X161233423Y-113178681D01*
X161233424Y-113178682D01*
X161269228Y-113181500D01*
X161269230Y-113181500D01*
X162894500Y-113181500D01*
X162991319Y-113200758D01*
X163073398Y-113255602D01*
X163128242Y-113337681D01*
X163147500Y-113434500D01*
X163147500Y-118154972D01*
X163128242Y-118251791D01*
X163073398Y-118333870D01*
X162991319Y-118388714D01*
X162894500Y-118407972D01*
X162797681Y-118388714D01*
X162715602Y-118333870D01*
X162612733Y-118231001D01*
X162604707Y-118222181D01*
X162593551Y-118208696D01*
X162542307Y-118160575D01*
X162521094Y-118139362D01*
X162521083Y-118139352D01*
X162517876Y-118136864D01*
X162508822Y-118129130D01*
X162476508Y-118098785D01*
X162476502Y-118098781D01*
X162467436Y-118093797D01*
X162434251Y-118071999D01*
X162426067Y-118065651D01*
X162426066Y-118065650D01*
X162426064Y-118065649D01*
X162385357Y-118048034D01*
X162374666Y-118042797D01*
X162335803Y-118021432D01*
X162325769Y-118018855D01*
X162288210Y-118005996D01*
X162278707Y-118001883D01*
X162234914Y-117994947D01*
X162223240Y-117992530D01*
X162191293Y-117984328D01*
X162180282Y-117981501D01*
X162180281Y-117981501D01*
X162169928Y-117981501D01*
X162130351Y-117978386D01*
X162120122Y-117976766D01*
X162120120Y-117976765D01*
X162075975Y-117980939D01*
X162064063Y-117981501D01*
X161988622Y-117981501D01*
X161891803Y-117962243D01*
X161809724Y-117907399D01*
X161754880Y-117825320D01*
X161735622Y-117728501D01*
X161754880Y-117631682D01*
X161786085Y-117576884D01*
X161825730Y-117523923D01*
X161825735Y-117523914D01*
X161854049Y-117448001D01*
X160336133Y-117448001D01*
X160239314Y-117428743D01*
X160157235Y-117373899D01*
X159469336Y-116686000D01*
X160447950Y-116686000D01*
X160447951Y-116686001D01*
X160770000Y-116686001D01*
X160770000Y-116379627D01*
X161532000Y-116379627D01*
X161532000Y-116686001D01*
X161854049Y-116686001D01*
X161854049Y-116686000D01*
X161825735Y-116610087D01*
X161825733Y-116610083D01*
X161743184Y-116499811D01*
X161632925Y-116417271D01*
X161632921Y-116417269D01*
X161532000Y-116379627D01*
X160770000Y-116379627D01*
X160669078Y-116417269D01*
X160669074Y-116417271D01*
X160558815Y-116499811D01*
X160476266Y-116610083D01*
X160476264Y-116610087D01*
X160447950Y-116686000D01*
X159469336Y-116686000D01*
X158415234Y-115631897D01*
X158360390Y-115549818D01*
X158341132Y-115452999D01*
X158360391Y-115356180D01*
X158415234Y-115274101D01*
X158497313Y-115219257D01*
X158594132Y-115199999D01*
X158650998Y-115199999D01*
X158650998Y-114426999D01*
X159412998Y-114426999D01*
X159412998Y-115199999D01*
X159521828Y-115199999D01*
X159521849Y-115199997D01*
X159582958Y-115193428D01*
X159582963Y-115193427D01*
X159721244Y-115141850D01*
X159839399Y-115053401D01*
X159839400Y-115053400D01*
X159927849Y-114935245D01*
X159979426Y-114796964D01*
X159979427Y-114796959D01*
X159985996Y-114735850D01*
X159985998Y-114735829D01*
X159985998Y-114426999D01*
X159412998Y-114426999D01*
X158650998Y-114426999D01*
X158077998Y-114426999D01*
X158077998Y-114683865D01*
X158058740Y-114780684D01*
X158003896Y-114862763D01*
X157921817Y-114917607D01*
X157824998Y-114936865D01*
X157728179Y-114917607D01*
X157646100Y-114862763D01*
X156448336Y-113664999D01*
X158077998Y-113664999D01*
X159985998Y-113664999D01*
X159985998Y-113356168D01*
X159985996Y-113356147D01*
X159979427Y-113295038D01*
X159979426Y-113295033D01*
X159927849Y-113156752D01*
X159839400Y-113038597D01*
X159839399Y-113038596D01*
X159721244Y-112950147D01*
X159721245Y-112950147D01*
X159603008Y-112906047D01*
X159519024Y-112854168D01*
X159461286Y-112774098D01*
X159438584Y-112678028D01*
X159454375Y-112580584D01*
X159506254Y-112496600D01*
X159586324Y-112438862D01*
X159603010Y-112431950D01*
X159721247Y-112387850D01*
X159839400Y-112299402D01*
X159839401Y-112299401D01*
X159927850Y-112181246D01*
X159979427Y-112042965D01*
X159979428Y-112042960D01*
X159985997Y-111981851D01*
X159985999Y-111981830D01*
X159985999Y-111673000D01*
X158077999Y-111673000D01*
X158077999Y-111981830D01*
X158078000Y-111981851D01*
X158084569Y-112042960D01*
X158084570Y-112042965D01*
X158136147Y-112181246D01*
X158224596Y-112299401D01*
X158224597Y-112299402D01*
X158342752Y-112387851D01*
X158342753Y-112387852D01*
X158460987Y-112431951D01*
X158544972Y-112483830D01*
X158602710Y-112563899D01*
X158625412Y-112659969D01*
X158609621Y-112757413D01*
X158557742Y-112841398D01*
X158477673Y-112899136D01*
X158460988Y-112906047D01*
X158342750Y-112950147D01*
X158224596Y-113038596D01*
X158224595Y-113038597D01*
X158136146Y-113156752D01*
X158084569Y-113295033D01*
X158084568Y-113295038D01*
X158077999Y-113356147D01*
X158077998Y-113356168D01*
X158077998Y-113664999D01*
X156448336Y-113664999D01*
X156342479Y-113559142D01*
X156318438Y-113531322D01*
X156309398Y-113519180D01*
X156309395Y-113519176D01*
X156270853Y-113486835D01*
X156262713Y-113479376D01*
X156258761Y-113475424D01*
X156232619Y-113454753D01*
X156188032Y-113417341D01*
X156126243Y-113340355D01*
X156107702Y-113294117D01*
X156065473Y-113148759D01*
X155983062Y-113009411D01*
X155868586Y-112894935D01*
X155868584Y-112894933D01*
X155854773Y-112886765D01*
X155781241Y-112820903D01*
X155738511Y-112731915D01*
X155733087Y-112633348D01*
X155765797Y-112540209D01*
X155831659Y-112466677D01*
X155854764Y-112451238D01*
X155868587Y-112443064D01*
X155983063Y-112328588D01*
X156065474Y-112189240D01*
X156110640Y-112033775D01*
X156113499Y-111997450D01*
X156113499Y-110586550D01*
X156110640Y-110550225D01*
X156065474Y-110394760D01*
X156039172Y-110350286D01*
X156006464Y-110257150D01*
X156011888Y-110158583D01*
X156054619Y-110069595D01*
X156128151Y-110003733D01*
X156221290Y-109971024D01*
X156256940Y-109968500D01*
X157955796Y-109968500D01*
X158052615Y-109987758D01*
G37*
%TD.AperFunction*%
%TA.AperFunction,Conductor*%
G36*
X164194819Y-95742787D02*
G01*
X164276898Y-95797631D01*
X164331742Y-95879710D01*
X164351000Y-95976529D01*
X164351000Y-103800563D01*
X164331742Y-103897382D01*
X164276898Y-103979461D01*
X164230192Y-104016281D01*
X164083525Y-104106158D01*
X164083514Y-104106166D01*
X163900218Y-104262716D01*
X163900215Y-104262719D01*
X163743665Y-104446015D01*
X163743657Y-104446026D01*
X163617703Y-104651565D01*
X163525454Y-104874274D01*
X163469177Y-105108683D01*
X163450264Y-105349000D01*
X163450264Y-105349001D01*
X163469177Y-105589318D01*
X163469178Y-105589321D01*
X163522383Y-105810938D01*
X163525454Y-105823727D01*
X163617703Y-106046436D01*
X163743657Y-106251975D01*
X163743665Y-106251986D01*
X163900215Y-106435282D01*
X163900216Y-106435283D01*
X164008310Y-106527604D01*
X164069425Y-106605127D01*
X164096220Y-106700137D01*
X164097000Y-106719987D01*
X164097000Y-109373261D01*
X164077742Y-109470080D01*
X164022898Y-109552159D01*
X163011898Y-110563159D01*
X162929819Y-110618003D01*
X162833000Y-110637261D01*
X162736181Y-110618003D01*
X162654102Y-110563159D01*
X160604552Y-108513609D01*
X160578769Y-108483421D01*
X160576669Y-108480530D01*
X160576665Y-108480526D01*
X160576664Y-108480525D01*
X160557554Y-108463319D01*
X160526948Y-108435761D01*
X160522160Y-108431217D01*
X160508011Y-108417068D01*
X160508007Y-108417064D01*
X160508006Y-108417063D01*
X160492450Y-108404465D01*
X160487424Y-108400173D01*
X160437715Y-108355415D01*
X160437714Y-108355414D01*
X160434614Y-108353624D01*
X160401903Y-108331142D01*
X160399126Y-108328893D01*
X160339525Y-108298525D01*
X160333704Y-108295364D01*
X160275789Y-108261926D01*
X160274415Y-108261480D01*
X160272381Y-108260818D01*
X160235707Y-108245628D01*
X160232524Y-108244006D01*
X160232522Y-108244005D01*
X160167913Y-108226692D01*
X160161566Y-108224812D01*
X160097960Y-108204146D01*
X160097957Y-108204145D01*
X160097956Y-108204145D01*
X160094395Y-108203770D01*
X160055383Y-108196540D01*
X160051924Y-108195613D01*
X160051918Y-108195612D01*
X160051915Y-108195611D01*
X160051912Y-108195610D01*
X160051908Y-108195610D01*
X160010280Y-108193429D01*
X159985105Y-108192109D01*
X159978517Y-108191591D01*
X159958620Y-108189500D01*
X159938606Y-108189500D01*
X159932012Y-108189327D01*
X159865190Y-108185826D01*
X159861659Y-108186385D01*
X159822084Y-108189500D01*
X156988513Y-108189500D01*
X156891694Y-108170242D01*
X156809615Y-108115398D01*
X156754771Y-108033319D01*
X156735513Y-107936500D01*
X156749711Y-107852939D01*
X156799726Y-107710003D01*
X156799727Y-107710001D01*
X156819445Y-107535001D01*
X156799727Y-107360001D01*
X156741562Y-107193775D01*
X156707278Y-107139212D01*
X156672074Y-107046987D01*
X156668500Y-107004609D01*
X156668500Y-103153029D01*
X156687758Y-103056210D01*
X156742602Y-102974131D01*
X163919102Y-95797631D01*
X164001181Y-95742787D01*
X164098000Y-95723529D01*
X164194819Y-95742787D01*
G37*
%TD.AperFunction*%
%TA.AperFunction,Conductor*%
G36*
X165677118Y-87331162D02*
G01*
X165753427Y-87393786D01*
X165775623Y-87425497D01*
X165776866Y-87427599D01*
X165784185Y-87434918D01*
X165809966Y-87465104D01*
X165816056Y-87473487D01*
X165816058Y-87473488D01*
X165850229Y-87501757D01*
X165859050Y-87509783D01*
X167073398Y-88724131D01*
X167128242Y-88806210D01*
X167147500Y-88903029D01*
X167147500Y-90666971D01*
X167128242Y-90763790D01*
X167073398Y-90845869D01*
X155647002Y-102272264D01*
X155638190Y-102280283D01*
X155624698Y-102291446D01*
X155576572Y-102342695D01*
X155555358Y-102363909D01*
X155552877Y-102367108D01*
X155545144Y-102376161D01*
X155514784Y-102408492D01*
X155514779Y-102408500D01*
X155509788Y-102417578D01*
X155488004Y-102450741D01*
X155481651Y-102458931D01*
X155481648Y-102458936D01*
X155464035Y-102499636D01*
X155458792Y-102510339D01*
X155437432Y-102549194D01*
X155437429Y-102549201D01*
X155434852Y-102559238D01*
X155422000Y-102596776D01*
X155417886Y-102606282D01*
X155417882Y-102606295D01*
X155410945Y-102650092D01*
X155408528Y-102661765D01*
X155397500Y-102704719D01*
X155397500Y-102715074D01*
X155394385Y-102754651D01*
X155392765Y-102764879D01*
X155392765Y-102764880D01*
X155396938Y-102809025D01*
X155397500Y-102820936D01*
X155397500Y-107004609D01*
X155378242Y-107101428D01*
X155358722Y-107139212D01*
X155324439Y-107193773D01*
X155324436Y-107193778D01*
X155266273Y-107360001D01*
X155246555Y-107535000D01*
X155246555Y-107535001D01*
X155266273Y-107710002D01*
X155266273Y-107710003D01*
X155316289Y-107852939D01*
X155330089Y-107950686D01*
X155305432Y-108046272D01*
X155246073Y-108125147D01*
X155161048Y-108175302D01*
X155077487Y-108189500D01*
X155001595Y-108189500D01*
X154995002Y-108189327D01*
X154938840Y-108186385D01*
X154928193Y-108185827D01*
X154928181Y-108185827D01*
X154924663Y-108186385D01*
X154885087Y-108189500D01*
X154239620Y-108189500D01*
X154233001Y-108189327D01*
X154187858Y-108186962D01*
X154166190Y-108185827D01*
X154166189Y-108185827D01*
X154166188Y-108185827D01*
X154162661Y-108186386D01*
X154123083Y-108189501D01*
X145158916Y-108189501D01*
X145119340Y-108186386D01*
X145115810Y-108185827D01*
X145115808Y-108185827D01*
X145107291Y-108186273D01*
X145048987Y-108189328D01*
X145042394Y-108189501D01*
X145022371Y-108189501D01*
X145002478Y-108191592D01*
X144995880Y-108192111D01*
X144934733Y-108195315D01*
X144929085Y-108195612D01*
X144929084Y-108195612D01*
X144929070Y-108195614D01*
X144925609Y-108196542D01*
X144886605Y-108203771D01*
X144883052Y-108204144D01*
X144883035Y-108204148D01*
X144819425Y-108224816D01*
X144813077Y-108226696D01*
X144748477Y-108244006D01*
X144748473Y-108244008D01*
X144745280Y-108245635D01*
X144708622Y-108260819D01*
X144705215Y-108261925D01*
X144647289Y-108295369D01*
X144641470Y-108298528D01*
X144581873Y-108328894D01*
X144581870Y-108328896D01*
X144579085Y-108331152D01*
X144546389Y-108353623D01*
X144543290Y-108355411D01*
X144543286Y-108355414D01*
X144493576Y-108400173D01*
X144488545Y-108404469D01*
X144472992Y-108417064D01*
X144458839Y-108431217D01*
X144454043Y-108435768D01*
X144404331Y-108480531D01*
X144404328Y-108480535D01*
X144402224Y-108483431D01*
X144376449Y-108513607D01*
X142852606Y-110037450D01*
X142822430Y-110063225D01*
X142819534Y-110065329D01*
X142819530Y-110065332D01*
X142774767Y-110115044D01*
X142770216Y-110119840D01*
X142756064Y-110133992D01*
X142743469Y-110149546D01*
X142739175Y-110154573D01*
X142724018Y-110171407D01*
X142644925Y-110230472D01*
X142549247Y-110254773D01*
X142451552Y-110240610D01*
X142366714Y-110190140D01*
X142307648Y-110111045D01*
X142283347Y-110015367D01*
X142283000Y-110002120D01*
X142283000Y-98317273D01*
X142283609Y-98304867D01*
X142287602Y-98264328D01*
X142304961Y-98088078D01*
X142314634Y-98039449D01*
X142372440Y-97848885D01*
X142391419Y-97803068D01*
X142454859Y-97684381D01*
X142485290Y-97627447D01*
X142512838Y-97586219D01*
X142651038Y-97417822D01*
X142659360Y-97408640D01*
X148893959Y-91174041D01*
X164300273Y-91174041D01*
X164420586Y-91239152D01*
X164420591Y-91239154D01*
X164640664Y-91314705D01*
X164640662Y-91314705D01*
X164870155Y-91353000D01*
X164870158Y-91353001D01*
X165102842Y-91353001D01*
X165102844Y-91353000D01*
X165332336Y-91314705D01*
X165552412Y-91239153D01*
X165552418Y-91239150D01*
X165672726Y-91174042D01*
X164986500Y-90487816D01*
X164300273Y-91174041D01*
X148893959Y-91174041D01*
X149406639Y-90661361D01*
X149415821Y-90653039D01*
X149584218Y-90514839D01*
X149625446Y-90487291D01*
X149801070Y-90393418D01*
X149846884Y-90374441D01*
X150037448Y-90316635D01*
X150086077Y-90306962D01*
X150302868Y-90285609D01*
X150315273Y-90285001D01*
X162006940Y-90285001D01*
X162006949Y-90285001D01*
X162533000Y-90285001D01*
X163153691Y-89664309D01*
X163235767Y-89609469D01*
X163332586Y-89590210D01*
X163429404Y-89609468D01*
X163511484Y-89664312D01*
X163566327Y-89746391D01*
X163585586Y-89843210D01*
X163584722Y-89864100D01*
X163577688Y-89948998D01*
X163577688Y-89949000D01*
X163596901Y-90180881D01*
X163596902Y-90180887D01*
X163654021Y-90406444D01*
X163654022Y-90406445D01*
X163747485Y-90619517D01*
X163747491Y-90619528D01*
X163759213Y-90637470D01*
X163759214Y-90637471D01*
X164486500Y-89910185D01*
X164486500Y-90020890D01*
X164527007Y-90158845D01*
X164604739Y-90279799D01*
X164713400Y-90373953D01*
X164844185Y-90433681D01*
X164950737Y-90449001D01*
X165022263Y-90449001D01*
X165128815Y-90433681D01*
X165259600Y-90373953D01*
X165368261Y-90279799D01*
X165445993Y-90158845D01*
X165486500Y-90020890D01*
X165486500Y-89949001D01*
X165525315Y-89949001D01*
X166213784Y-90637470D01*
X166213786Y-90637470D01*
X166225509Y-90619527D01*
X166225512Y-90619521D01*
X166318977Y-90406445D01*
X166318978Y-90406444D01*
X166376097Y-90180887D01*
X166376098Y-90180881D01*
X166395311Y-89949001D01*
X166376098Y-89717120D01*
X166376097Y-89717114D01*
X166318978Y-89491557D01*
X166318977Y-89491556D01*
X166225513Y-89278482D01*
X166213784Y-89260530D01*
X165525315Y-89949000D01*
X165525315Y-89949001D01*
X165486500Y-89949001D01*
X165486500Y-89877112D01*
X165445993Y-89739157D01*
X165368261Y-89618203D01*
X165259600Y-89524049D01*
X165128815Y-89464321D01*
X165022263Y-89449001D01*
X164950737Y-89449001D01*
X164947172Y-89449513D01*
X164986500Y-89410186D01*
X165672725Y-88723959D01*
X165552413Y-88658849D01*
X165552408Y-88658847D01*
X165332335Y-88583296D01*
X165332337Y-88583296D01*
X165102843Y-88545001D01*
X164883796Y-88545001D01*
X164786977Y-88525743D01*
X164704898Y-88470899D01*
X164650054Y-88388820D01*
X164630796Y-88292001D01*
X164650054Y-88195182D01*
X164704898Y-88113103D01*
X164757778Y-88060223D01*
X165508154Y-87309846D01*
X165582653Y-87302508D01*
X165677118Y-87331162D01*
G37*
%TD.AperFunction*%
%TA.AperFunction,Conductor*%
G36*
X171346307Y-90028247D02*
G01*
X171434604Y-90072388D01*
X171499288Y-90146958D01*
X171530511Y-90240606D01*
X171532500Y-90272267D01*
X171532500Y-109524972D01*
X171513242Y-109621791D01*
X171458398Y-109703870D01*
X171376319Y-109758714D01*
X171279500Y-109777972D01*
X171182681Y-109758714D01*
X171100602Y-109703870D01*
X169159131Y-107762399D01*
X169104287Y-107680320D01*
X169085029Y-107583501D01*
X169104287Y-107486682D01*
X169159131Y-107404603D01*
X169241210Y-107349759D01*
X169338029Y-107330501D01*
X170339204Y-107330501D01*
X170339206Y-107330501D01*
X170413361Y-107319697D01*
X170527746Y-107263777D01*
X170617776Y-107173747D01*
X170673696Y-107059362D01*
X170684500Y-106985207D01*
X170684500Y-105212795D01*
X170673696Y-105138640D01*
X170617776Y-105024255D01*
X170527746Y-104934225D01*
X170413361Y-104878305D01*
X170413359Y-104878304D01*
X170413350Y-104878300D01*
X170403242Y-104875177D01*
X170316426Y-104828191D01*
X170254199Y-104751557D01*
X170226036Y-104656944D01*
X170236223Y-104558756D01*
X170283209Y-104471940D01*
X170299035Y-104454569D01*
X170399987Y-104353618D01*
X170523584Y-104177103D01*
X170614652Y-103981808D01*
X170670423Y-103773666D01*
X170689204Y-103559001D01*
X170670423Y-103344336D01*
X170614652Y-103136194D01*
X170523584Y-102940899D01*
X170399987Y-102764384D01*
X170247617Y-102612014D01*
X170239449Y-102606295D01*
X170214771Y-102589015D01*
X170082280Y-102496244D01*
X170014020Y-102424939D01*
X169978241Y-102332935D01*
X169980394Y-102234243D01*
X170020151Y-102143887D01*
X170082279Y-102081758D01*
X170247617Y-101965988D01*
X170399987Y-101813618D01*
X170523584Y-101637103D01*
X170614652Y-101441808D01*
X170670423Y-101233666D01*
X170689204Y-101019001D01*
X170670423Y-100804336D01*
X170614652Y-100596194D01*
X170523584Y-100400899D01*
X170399987Y-100224384D01*
X170247617Y-100072014D01*
X170082280Y-99956244D01*
X170014020Y-99884939D01*
X169978241Y-99792935D01*
X169980394Y-99694243D01*
X170020151Y-99603887D01*
X170082279Y-99541758D01*
X170247617Y-99425988D01*
X170399987Y-99273618D01*
X170523584Y-99097103D01*
X170614652Y-98901808D01*
X170670423Y-98693666D01*
X170686073Y-98514778D01*
X170689204Y-98479002D01*
X170689204Y-98478999D01*
X170670423Y-98264340D01*
X170670423Y-98264336D01*
X170614652Y-98056194D01*
X170523584Y-97860899D01*
X170399987Y-97684384D01*
X170247617Y-97532014D01*
X170082280Y-97416244D01*
X170014020Y-97344939D01*
X169978241Y-97252935D01*
X169980394Y-97154243D01*
X170020151Y-97063887D01*
X170082279Y-97001758D01*
X170247617Y-96885988D01*
X170399987Y-96733618D01*
X170523584Y-96557103D01*
X170614652Y-96361808D01*
X170670423Y-96153666D01*
X170689204Y-95939001D01*
X170670423Y-95724336D01*
X170614652Y-95516194D01*
X170523584Y-95320899D01*
X170399987Y-95144384D01*
X170247617Y-94992014D01*
X170071102Y-94868417D01*
X169985445Y-94828474D01*
X169905841Y-94770105D01*
X169854630Y-94685712D01*
X169839613Y-94588145D01*
X169863076Y-94492258D01*
X169921448Y-94412650D01*
X169959186Y-94384075D01*
X170121158Y-94283787D01*
X170272364Y-94145944D01*
X170395663Y-93982668D01*
X170395663Y-93982667D01*
X170486857Y-93799526D01*
X170486859Y-93799519D01*
X170492414Y-93780001D01*
X169776824Y-93780001D01*
X169834761Y-93729799D01*
X169912493Y-93608845D01*
X169953000Y-93470890D01*
X169953000Y-93327112D01*
X169912493Y-93189157D01*
X169834761Y-93068203D01*
X169726100Y-92974049D01*
X169595315Y-92914321D01*
X169488763Y-92899001D01*
X169417237Y-92899001D01*
X169310685Y-92914321D01*
X169179900Y-92974049D01*
X169071239Y-93068203D01*
X168993507Y-93189157D01*
X168953000Y-93327112D01*
X168953000Y-93470890D01*
X168993507Y-93608845D01*
X169071239Y-93729799D01*
X169129176Y-93780001D01*
X168413586Y-93780001D01*
X168419140Y-93799519D01*
X168419142Y-93799526D01*
X168510336Y-93982667D01*
X168510336Y-93982668D01*
X168633635Y-94145944D01*
X168784841Y-94283787D01*
X168946813Y-94384075D01*
X169018992Y-94451418D01*
X169059907Y-94541255D01*
X169063327Y-94639912D01*
X169028733Y-94732367D01*
X168961390Y-94804546D01*
X168920551Y-94828476D01*
X168834901Y-94868415D01*
X168834896Y-94868418D01*
X168658386Y-94992011D01*
X168658380Y-94992016D01*
X168506015Y-95144381D01*
X168506010Y-95144387D01*
X168382417Y-95320897D01*
X168382416Y-95320899D01*
X168361510Y-95365733D01*
X168291347Y-95516197D01*
X168235578Y-95724328D01*
X168235576Y-95724340D01*
X168216796Y-95938999D01*
X168216796Y-95939002D01*
X168235576Y-96153661D01*
X168235578Y-96153673D01*
X168244028Y-96185207D01*
X168291348Y-96361808D01*
X168382416Y-96557103D01*
X168506013Y-96733618D01*
X168658383Y-96885988D01*
X168697921Y-96913673D01*
X168823716Y-97001755D01*
X168891980Y-97073064D01*
X168927758Y-97165067D01*
X168925605Y-97263760D01*
X168885848Y-97354115D01*
X168823716Y-97416246D01*
X168798352Y-97434007D01*
X168658386Y-97532011D01*
X168658380Y-97532016D01*
X168506015Y-97684381D01*
X168506010Y-97684387D01*
X168390828Y-97848885D01*
X168382416Y-97860899D01*
X168299157Y-98039449D01*
X168291347Y-98056197D01*
X168235578Y-98264328D01*
X168235576Y-98264340D01*
X168216796Y-98478999D01*
X168216796Y-98479002D01*
X168235576Y-98693661D01*
X168235578Y-98693673D01*
X168287121Y-98886033D01*
X168291348Y-98901808D01*
X168382416Y-99097103D01*
X168506013Y-99273618D01*
X168658383Y-99425988D01*
X168694909Y-99451564D01*
X168823716Y-99541755D01*
X168891980Y-99613064D01*
X168927758Y-99705067D01*
X168925605Y-99803760D01*
X168885848Y-99894115D01*
X168823716Y-99956247D01*
X168658386Y-100072011D01*
X168658380Y-100072016D01*
X168506015Y-100224381D01*
X168506010Y-100224387D01*
X168382417Y-100400897D01*
X168291347Y-100596197D01*
X168235578Y-100804328D01*
X168235576Y-100804340D01*
X168216796Y-101018999D01*
X168216796Y-101019004D01*
X168233663Y-101211795D01*
X168222916Y-101309924D01*
X168175435Y-101396470D01*
X168160524Y-101412743D01*
X167147002Y-102426264D01*
X167138190Y-102434283D01*
X167124698Y-102445446D01*
X167076572Y-102496695D01*
X167055358Y-102517909D01*
X167052877Y-102521108D01*
X167045144Y-102530161D01*
X167014784Y-102562492D01*
X167014779Y-102562500D01*
X167009788Y-102571578D01*
X166988004Y-102604741D01*
X166981651Y-102612931D01*
X166981648Y-102612936D01*
X166964035Y-102653636D01*
X166958792Y-102664339D01*
X166937432Y-102703194D01*
X166937429Y-102703201D01*
X166934852Y-102713238D01*
X166922000Y-102750776D01*
X166917886Y-102760282D01*
X166917882Y-102760295D01*
X166910945Y-102804092D01*
X166908528Y-102815765D01*
X166897500Y-102858719D01*
X166897500Y-102869074D01*
X166894385Y-102908651D01*
X166892765Y-102918879D01*
X166892765Y-102918880D01*
X166896938Y-102963025D01*
X166897500Y-102974936D01*
X166897500Y-104688642D01*
X166878242Y-104785461D01*
X166823398Y-104867540D01*
X166741319Y-104922384D01*
X166644500Y-104941642D01*
X166547681Y-104922384D01*
X166465602Y-104867540D01*
X166410758Y-104785461D01*
X166396566Y-104751200D01*
X166355296Y-104651564D01*
X166229341Y-104446024D01*
X166229337Y-104446020D01*
X166229334Y-104446015D01*
X166072784Y-104262719D01*
X166072781Y-104262716D01*
X165889485Y-104106166D01*
X165889474Y-104106158D01*
X165742808Y-104016281D01*
X165670319Y-103949273D01*
X165628990Y-103859625D01*
X165622000Y-103800563D01*
X165622000Y-95699529D01*
X165641258Y-95602710D01*
X165696102Y-95520631D01*
X168124630Y-93092103D01*
X168206709Y-93037259D01*
X168303528Y-93018001D01*
X169072000Y-93018001D01*
X169072000Y-92362650D01*
X169834000Y-92362650D01*
X169834000Y-93018001D01*
X170492414Y-93018001D01*
X170486859Y-92998482D01*
X170486857Y-92998475D01*
X170395663Y-92815334D01*
X170395663Y-92815333D01*
X170272364Y-92652057D01*
X170121158Y-92514214D01*
X169947203Y-92406507D01*
X169947202Y-92406506D01*
X169834000Y-92362650D01*
X169072000Y-92362650D01*
X169072000Y-92249529D01*
X169091258Y-92152710D01*
X169146102Y-92070631D01*
X169977583Y-91239150D01*
X170919009Y-90297723D01*
X170927822Y-90289705D01*
X170941297Y-90278557D01*
X170941303Y-90278554D01*
X170989426Y-90227307D01*
X171010639Y-90206095D01*
X171013123Y-90202891D01*
X171020848Y-90193845D01*
X171051217Y-90161507D01*
X171056209Y-90152425D01*
X171078025Y-90119220D01*
X171079622Y-90117161D01*
X171154191Y-90052479D01*
X171247839Y-90021256D01*
X171346307Y-90028247D01*
G37*
%TD.AperFunction*%
%TA.AperFunction,Conductor*%
G36*
X167280819Y-84406787D02*
G01*
X167362898Y-84461631D01*
X167417742Y-84543710D01*
X167437000Y-84640529D01*
X167437000Y-85036001D01*
X168819000Y-85036001D01*
X168915819Y-85055259D01*
X168997898Y-85110103D01*
X169052742Y-85192182D01*
X169072000Y-85289001D01*
X169072000Y-86561000D01*
X169644500Y-86561000D01*
X169741319Y-86580258D01*
X169823398Y-86635102D01*
X169878242Y-86717181D01*
X169897500Y-86814000D01*
X169897500Y-89416972D01*
X169878242Y-89513791D01*
X169823398Y-89595870D01*
X168850398Y-90568870D01*
X168768319Y-90623714D01*
X168671500Y-90642972D01*
X168574681Y-90623714D01*
X168492602Y-90568870D01*
X168437758Y-90486791D01*
X168418500Y-90389972D01*
X168418500Y-88624605D01*
X168419062Y-88612694D01*
X168420706Y-88595290D01*
X168420708Y-88595282D01*
X168418500Y-88525029D01*
X168418500Y-88495018D01*
X168417993Y-88491004D01*
X168417056Y-88479109D01*
X168416798Y-88470899D01*
X168415664Y-88434796D01*
X168412777Y-88424859D01*
X168404724Y-88385973D01*
X168403427Y-88375702D01*
X168387100Y-88334466D01*
X168383239Y-88323189D01*
X168370870Y-88280611D01*
X168370869Y-88280610D01*
X168370869Y-88280608D01*
X168365593Y-88271687D01*
X168348135Y-88236051D01*
X168344319Y-88226413D01*
X168318248Y-88190530D01*
X168311706Y-88180570D01*
X168289133Y-88142401D01*
X168281813Y-88135081D01*
X168256028Y-88104890D01*
X168249942Y-88096514D01*
X168215776Y-88068249D01*
X168206955Y-88060223D01*
X166992602Y-86845870D01*
X166937758Y-86763791D01*
X166918500Y-86666972D01*
X166918500Y-85798001D01*
X167437001Y-85798001D01*
X167437001Y-86332020D01*
X167451736Y-86406105D01*
X167451737Y-86406108D01*
X167507874Y-86490123D01*
X167507875Y-86490124D01*
X167591895Y-86546264D01*
X167591893Y-86546264D01*
X167665981Y-86561000D01*
X168310000Y-86561000D01*
X168310000Y-85798001D01*
X167437001Y-85798001D01*
X166918500Y-85798001D01*
X166918500Y-84653029D01*
X166937758Y-84556210D01*
X166992602Y-84474131D01*
X167005102Y-84461631D01*
X167087181Y-84406787D01*
X167184000Y-84387529D01*
X167280819Y-84406787D01*
G37*
%TD.AperFunction*%
%TA.AperFunction,Conductor*%
G36*
X170268507Y-71785483D02*
G01*
X170308686Y-71788998D01*
X170461489Y-71802366D01*
X170504903Y-71810021D01*
X170675984Y-71855861D01*
X170717422Y-71870944D01*
X170785397Y-71902641D01*
X170877943Y-71945796D01*
X170916124Y-71967839D01*
X171061213Y-72069432D01*
X171094990Y-72097775D01*
X171220225Y-72223010D01*
X171248568Y-72256788D01*
X171350158Y-72401873D01*
X171372205Y-72440059D01*
X171447056Y-72600578D01*
X171462139Y-72642018D01*
X171482020Y-72716213D01*
X171505837Y-72805102D01*
X171507977Y-72813086D01*
X171515635Y-72856517D01*
X171532018Y-73043776D01*
X171532500Y-73054806D01*
X171532500Y-77965364D01*
X171513242Y-78062183D01*
X171458398Y-78144262D01*
X171376319Y-78199106D01*
X171279500Y-78218364D01*
X171182681Y-78199106D01*
X171100602Y-78144262D01*
X171074835Y-78114096D01*
X171068260Y-78105048D01*
X171061704Y-78095069D01*
X171039134Y-78056905D01*
X171031812Y-78049583D01*
X171006026Y-78019390D01*
X170999942Y-78011016D01*
X170965769Y-77982746D01*
X170956949Y-77974720D01*
X169375602Y-76393372D01*
X169320758Y-76311293D01*
X169301500Y-76214474D01*
X169301500Y-76123387D01*
X169301499Y-76123373D01*
X169286534Y-76009707D01*
X169286533Y-76009705D01*
X169286533Y-76009701D01*
X169227939Y-75868244D01*
X169173000Y-75796645D01*
X169134733Y-75746774D01*
X169134728Y-75746769D01*
X169013262Y-75653566D01*
X169013260Y-75653565D01*
X169013259Y-75653564D01*
X169013257Y-75653563D01*
X169013255Y-75653562D01*
X168903669Y-75608170D01*
X168871802Y-75594970D01*
X168871801Y-75594969D01*
X168871799Y-75594969D01*
X168860485Y-75591937D01*
X168771951Y-75548273D01*
X168706866Y-75474052D01*
X168675138Y-75380574D01*
X168681598Y-75282070D01*
X168725262Y-75193536D01*
X168799483Y-75128451D01*
X168837564Y-75110511D01*
X168910142Y-75083441D01*
X168910147Y-75083438D01*
X169018970Y-75001974D01*
X169018973Y-75001971D01*
X169100437Y-74893149D01*
X169100440Y-74893143D01*
X169139283Y-74789001D01*
X168334500Y-74789001D01*
X168237681Y-74769743D01*
X168155602Y-74714899D01*
X168100758Y-74632820D01*
X168081500Y-74536001D01*
X168081500Y-73707703D01*
X168843500Y-73707703D01*
X168843500Y-74027001D01*
X169139283Y-74027001D01*
X169139283Y-74027000D01*
X169100440Y-73922858D01*
X169100437Y-73922852D01*
X169018973Y-73814030D01*
X169018971Y-73814028D01*
X168910143Y-73732561D01*
X168910142Y-73732560D01*
X168843500Y-73707703D01*
X168081500Y-73707703D01*
X168081499Y-73707703D01*
X168014857Y-73732560D01*
X168014855Y-73732561D01*
X167914147Y-73807951D01*
X167825098Y-73850555D01*
X167726524Y-73855839D01*
X167633431Y-73822997D01*
X167561811Y-73759430D01*
X167534353Y-73723646D01*
X167408966Y-73627434D01*
X167408967Y-73627434D01*
X167262945Y-73566950D01*
X167145600Y-73551501D01*
X166629409Y-73551501D01*
X166629406Y-73551502D01*
X166512053Y-73566951D01*
X166512050Y-73566951D01*
X166512050Y-73566952D01*
X166366032Y-73627434D01*
X166240646Y-73723647D01*
X166144433Y-73849033D01*
X166083949Y-73995055D01*
X166068500Y-74112394D01*
X166068500Y-74703591D01*
X166068500Y-74703593D01*
X166068501Y-74703595D01*
X166083950Y-74820948D01*
X166115324Y-74896691D01*
X166144433Y-74966968D01*
X166199718Y-75039016D01*
X166243379Y-75127551D01*
X166252000Y-75193033D01*
X166252000Y-75665150D01*
X166232742Y-75761969D01*
X166199720Y-75819165D01*
X166162062Y-75868242D01*
X166103467Y-76009700D01*
X166103465Y-76009707D01*
X166088500Y-76123373D01*
X166088500Y-76749632D01*
X166103465Y-76863298D01*
X166103467Y-76863306D01*
X166162059Y-77004758D01*
X166162063Y-77004765D01*
X166255266Y-77126231D01*
X166255271Y-77126236D01*
X166376737Y-77219439D01*
X166376741Y-77219442D01*
X166518198Y-77278036D01*
X166518202Y-77278036D01*
X166518204Y-77278037D01*
X166631870Y-77293002D01*
X166631882Y-77293002D01*
X166631884Y-77293003D01*
X166631885Y-77293003D01*
X167108115Y-77293003D01*
X167108116Y-77293003D01*
X167108117Y-77293002D01*
X167108129Y-77293002D01*
X167221795Y-77278037D01*
X167221795Y-77278036D01*
X167221802Y-77278036D01*
X167363259Y-77219442D01*
X167484731Y-77126234D01*
X167494280Y-77113788D01*
X167568495Y-77048701D01*
X167661971Y-77016968D01*
X167760476Y-77023422D01*
X167849012Y-77067081D01*
X167895718Y-77113787D01*
X167905267Y-77126231D01*
X167905270Y-77126235D01*
X167905271Y-77126236D01*
X168026737Y-77219439D01*
X168026741Y-77219442D01*
X168168198Y-77278036D01*
X168168202Y-77278036D01*
X168168204Y-77278037D01*
X168281870Y-77293002D01*
X168281882Y-77293002D01*
X168281884Y-77293003D01*
X168372972Y-77293003D01*
X168469791Y-77312261D01*
X168551870Y-77367105D01*
X169818368Y-78633603D01*
X169873212Y-78715682D01*
X169892470Y-78812501D01*
X169873212Y-78909320D01*
X169818368Y-78991399D01*
X169736289Y-79046243D01*
X169639470Y-79065501D01*
X167654792Y-79065501D01*
X167580641Y-79076304D01*
X167580639Y-79076305D01*
X167466254Y-79132225D01*
X167466252Y-79132226D01*
X167466251Y-79132227D01*
X167376226Y-79222252D01*
X167376225Y-79222253D01*
X167376224Y-79222255D01*
X167322542Y-79332061D01*
X167320303Y-79336642D01*
X167309500Y-79410793D01*
X167309500Y-81263208D01*
X167320303Y-81337359D01*
X167320303Y-81337360D01*
X167320304Y-81337362D01*
X167376224Y-81451747D01*
X167376226Y-81451749D01*
X167376227Y-81451751D01*
X167382112Y-81459994D01*
X167422695Y-81549982D01*
X167425752Y-81648650D01*
X167390818Y-81740978D01*
X167382112Y-81754008D01*
X167376227Y-81762250D01*
X167376225Y-81762253D01*
X167376224Y-81762255D01*
X167348403Y-81819163D01*
X167320303Y-81876642D01*
X167309500Y-81950793D01*
X167309500Y-82250088D01*
X167290242Y-82346907D01*
X167251433Y-82411364D01*
X167224241Y-82444231D01*
X167216219Y-82453047D01*
X165964898Y-83704369D01*
X165882819Y-83759212D01*
X165786000Y-83778471D01*
X165689181Y-83759213D01*
X165607102Y-83704369D01*
X165552259Y-83622290D01*
X165533000Y-83525471D01*
X165533000Y-73296832D01*
X165533055Y-73285001D01*
X165533221Y-73273170D01*
X165534100Y-73226060D01*
X165536997Y-73171672D01*
X165537766Y-73162946D01*
X165544419Y-73108898D01*
X165556441Y-73032988D01*
X165574927Y-72940055D01*
X165577246Y-72930394D01*
X165602964Y-72839203D01*
X165614044Y-72805102D01*
X165646842Y-72716200D01*
X165650640Y-72707032D01*
X165690308Y-72620986D01*
X165706588Y-72589036D01*
X165752884Y-72506368D01*
X165758077Y-72497895D01*
X165810712Y-72419121D01*
X165823249Y-72401865D01*
X165831789Y-72390111D01*
X165890461Y-72315684D01*
X165896896Y-72308152D01*
X165961216Y-72238571D01*
X165986570Y-72213217D01*
X166056151Y-72148897D01*
X166063683Y-72142462D01*
X166138110Y-72083790D01*
X166167120Y-72062713D01*
X166245894Y-72010078D01*
X166254361Y-72004888D01*
X166337035Y-71958589D01*
X166343786Y-71955149D01*
X166368985Y-71942309D01*
X166429701Y-71914317D01*
X166455039Y-71902637D01*
X166464198Y-71898843D01*
X166553103Y-71866045D01*
X166587207Y-71854963D01*
X166635592Y-71841317D01*
X166678400Y-71829245D01*
X166688054Y-71826928D01*
X166780987Y-71808442D01*
X166856897Y-71796420D01*
X166910945Y-71789767D01*
X166919669Y-71788998D01*
X166922082Y-71788869D01*
X166974059Y-71786101D01*
X167021169Y-71785222D01*
X167027084Y-71785139D01*
X167033001Y-71785056D01*
X167044834Y-71785001D01*
X170257477Y-71785001D01*
X170268507Y-71785483D01*
G37*
%TD.AperFunction*%
%TD*%
M02*
