%TF.GenerationSoftware,KiCad,Pcbnew,7.0.8*%
%TF.CreationDate,2026-01-29T13:39:05-03:00*%
%TF.ProjectId,on_off_module_x1,6f6e5f6f-6666-45f6-9d6f-64756c655f78,2.0*%
%TF.SameCoordinates,Original*%
%TF.FileFunction,Plated,1,2,PTH,Drill*%
%TF.FilePolarity,Positive*%
%FSLAX46Y46*%
G04 Gerber Fmt 4.6, Leading zero omitted, Abs format (unit mm)*
G04 Created by KiCad (PCBNEW 7.0.8) date 2026-01-29 13:39:05*
%MOMM*%
%LPD*%
G01*
G04 APERTURE LIST*
%TA.AperFunction,ViaDrill*%
%ADD10C,0.381000*%
%TD*%
%TA.AperFunction,ViaDrill*%
%ADD11C,0.400000*%
%TD*%
%TA.AperFunction,ComponentDrill*%
%ADD12C,0.600000*%
%TD*%
%TA.AperFunction,ComponentDrill*%
%ADD13C,1.000000*%
%TD*%
%TA.AperFunction,ComponentDrill*%
%ADD14C,1.200000*%
%TD*%
%TA.AperFunction,ComponentDrill*%
%ADD15C,1.300000*%
%TD*%
%TA.AperFunction,ComponentDrill*%
%ADD16C,1.500000*%
%TD*%
%TA.AperFunction,ComponentDrill*%
%ADD17C,3.000000*%
%TD*%
G04 APERTURE END LIST*
D10*
X126365000Y-91440000D03*
X126365000Y-96520000D03*
X126365000Y-101600000D03*
X126365000Y-106680000D03*
X126365000Y-117475000D03*
X129794000Y-81280000D03*
X131445000Y-96520000D03*
X131445000Y-106680000D03*
X131445000Y-112395000D03*
X131445000Y-117475000D03*
X132080000Y-65405000D03*
X132080000Y-71120000D03*
X132080000Y-86360000D03*
X132080000Y-123825000D03*
X134493000Y-131064000D03*
X135890000Y-123825000D03*
X136525000Y-112395000D03*
X136525000Y-117475000D03*
X137795000Y-65405000D03*
X137795000Y-86360000D03*
X137795000Y-136257001D03*
X143510000Y-65405000D03*
X143510000Y-81280000D03*
X144780000Y-102235000D03*
X146685000Y-105410000D03*
X146939000Y-88900000D03*
X147955000Y-88900000D03*
X147955000Y-123190000D03*
X147955000Y-126365000D03*
X147955000Y-129540000D03*
X147955000Y-132334000D03*
X147955000Y-135890000D03*
X148590000Y-65405000D03*
X148590000Y-71120000D03*
X148590000Y-86360000D03*
X148590000Y-91440000D03*
X148590000Y-96520000D03*
X148971000Y-88900000D03*
X149860000Y-102235000D03*
X150876000Y-129540000D03*
X151130000Y-123190000D03*
X151130000Y-126365000D03*
X151130000Y-132715000D03*
X151130000Y-135890000D03*
X153035000Y-99060000D03*
X153670000Y-65405000D03*
X153670000Y-79375000D03*
X153670000Y-91440000D03*
X154305000Y-105410000D03*
X154305000Y-123190000D03*
X154305000Y-129540000D03*
X154305000Y-132715000D03*
X154305000Y-135890000D03*
X156210000Y-95885000D03*
X156210000Y-102235000D03*
X157480000Y-105410000D03*
X157480000Y-123190000D03*
X157480000Y-126365000D03*
X157480000Y-129540000D03*
X157480000Y-132715000D03*
X157480000Y-135890000D03*
X158750000Y-65405000D03*
X158750000Y-86360000D03*
X158877000Y-126619000D03*
X159385000Y-92710000D03*
X159385000Y-99060000D03*
X160655000Y-102235000D03*
X160655000Y-105410000D03*
X161290000Y-108585000D03*
X163188827Y-109848827D03*
X163195000Y-92710000D03*
X163195000Y-99060000D03*
X163830000Y-64135000D03*
X163830000Y-67310000D03*
X163830000Y-70485000D03*
X163830000Y-73660000D03*
X163830000Y-76835000D03*
X163830000Y-80010000D03*
X163830000Y-83185000D03*
X163830000Y-86360000D03*
X164986500Y-93331500D03*
X167005000Y-67310000D03*
X167005000Y-70485000D03*
X168021000Y-75311000D03*
X170180000Y-67310000D03*
X170180000Y-70485000D03*
X170180000Y-73660000D03*
X170180000Y-76835000D03*
X170180000Y-80010000D03*
X170180000Y-89535000D03*
D11*
X126492000Y-132334000D03*
X130429000Y-132334000D03*
X132080000Y-137160000D03*
X136525000Y-132080000D03*
X136555073Y-134968501D03*
X141605000Y-121920000D03*
X141605000Y-128270000D03*
X143926000Y-136765001D03*
X144053000Y-133518501D03*
X144053000Y-135518501D03*
X148590000Y-110490000D03*
X148590000Y-117475000D03*
X150657000Y-116092002D03*
X153959000Y-116092001D03*
X154305000Y-117475000D03*
X156033000Y-107535001D03*
X156033000Y-122035001D03*
X156337000Y-127518501D03*
X157480000Y-117475000D03*
X157642001Y-111292001D03*
X157642001Y-114046001D03*
X160655000Y-114935000D03*
X163611000Y-124700001D03*
X163830000Y-114935000D03*
X165100000Y-136525000D03*
X166370000Y-128905000D03*
X166370000Y-132080000D03*
X166379500Y-123518501D03*
X168233000Y-110486800D03*
X168233000Y-113484001D03*
X169291000Y-108204000D03*
X170180000Y-114935000D03*
X170180000Y-121285000D03*
X170815000Y-132080000D03*
D12*
%TO.C,R8*%
X165721000Y-118350001D03*
X169121000Y-118350001D03*
D13*
%TO.C,PS1*%
X135586500Y-95149001D03*
X135586500Y-100149001D03*
%TO.C,C6*%
X139526000Y-84328000D03*
X149526000Y-84328000D03*
%TO.C,PS1*%
X164986500Y-89949001D03*
X164986500Y-105349001D03*
%TO.C,J3*%
X169478000Y-125081001D03*
X169478000Y-127621001D03*
X169478000Y-130161001D03*
%TO.C,J2*%
X169545000Y-91567000D03*
X169545000Y-94107000D03*
X169545000Y-96647000D03*
X169545000Y-99187000D03*
X169545000Y-101727000D03*
X169545000Y-104267000D03*
D14*
%TO.C,C1*%
X129321000Y-90149001D03*
X129321000Y-105149001D03*
D15*
%TO.C,K1*%
X128147000Y-112327001D03*
X128147000Y-124527001D03*
X134147000Y-126527001D03*
%TO.C,J1*%
X138373000Y-68580000D03*
%TO.C,K1*%
X140147000Y-112327001D03*
X140147000Y-124527001D03*
%TO.C,J1*%
X143453000Y-68580000D03*
X148533000Y-68580000D03*
X153613000Y-68580000D03*
X158693000Y-68580000D03*
D16*
%TO.C,F1*%
X127849000Y-77851000D03*
X133449000Y-77851000D03*
X142649000Y-77851000D03*
X148249000Y-77851000D03*
D17*
%TO.C,REF\u002A\u002A*%
X128533000Y-64035001D03*
M02*
