%TF.GenerationSoftware,KiCad,Pcbnew,7.0.8*%
%TF.CreationDate,2026-01-29T13:39:04-03:00*%
%TF.ProjectId,on_off_module_x1,6f6e5f6f-6666-45f6-9d6f-64756c655f78,2.0*%
%TF.SameCoordinates,Original*%
%TF.FileFunction,Soldermask,Top*%
%TF.FilePolarity,Negative*%
%FSLAX46Y46*%
G04 Gerber Fmt 4.6, Leading zero omitted, Abs format (unit mm)*
G04 Created by KiCad (PCBNEW 7.0.8) date 2026-01-29 13:39:04*
%MOMM*%
%LPD*%
G01*
G04 APERTURE LIST*
G04 Aperture macros list*
%AMRoundRect*
0 Rectangle with rounded corners*
0 $1 Rounding radius*
0 $2 $3 $4 $5 $6 $7 $8 $9 X,Y pos of 4 corners*
0 Add a 4 corners polygon primitive as box body*
4,1,4,$2,$3,$4,$5,$6,$7,$8,$9,$2,$3,0*
0 Add four circle primitives for the rounded corners*
1,1,$1+$1,$2,$3*
1,1,$1+$1,$4,$5*
1,1,$1+$1,$6,$7*
1,1,$1+$1,$8,$9*
0 Add four rect primitives between the rounded corners*
20,1,$1+$1,$2,$3,$4,$5,0*
20,1,$1+$1,$4,$5,$6,$7,0*
20,1,$1+$1,$6,$7,$8,$9,0*
20,1,$1+$1,$8,$9,$2,$3,0*%
G04 Aperture macros list end*
%ADD10RoundRect,0.200000X-0.275000X0.200000X-0.275000X-0.200000X0.275000X-0.200000X0.275000X0.200000X0*%
%ADD11RoundRect,0.225000X-0.250000X0.225000X-0.250000X-0.225000X0.250000X-0.225000X0.250000X0.225000X0*%
%ADD12C,1.100000*%
%ADD13RoundRect,0.150000X0.587500X0.150000X-0.587500X0.150000X-0.587500X-0.150000X0.587500X-0.150000X0*%
%ADD14RoundRect,0.250000X1.000000X0.650000X-1.000000X0.650000X-1.000000X-0.650000X1.000000X-0.650000X0*%
%ADD15RoundRect,0.225000X0.575000X-0.225000X0.575000X0.225000X-0.575000X0.225000X-0.575000X-0.225000X0*%
%ADD16R,2.000000X1.780000*%
%ADD17C,2.000000*%
%ADD18C,2.500000*%
%ADD19RoundRect,0.218750X0.218750X0.256250X-0.218750X0.256250X-0.218750X-0.256250X0.218750X-0.256250X0*%
%ADD20C,3.000000*%
%ADD21RoundRect,0.225000X-0.225000X-0.575000X0.225000X-0.575000X0.225000X0.575000X-0.225000X0.575000X0*%
%ADD22R,1.700000X1.700000*%
%ADD23O,1.700000X1.700000*%
%ADD24R,2.600000X2.600000*%
%ADD25C,2.600000*%
%ADD26R,2.000000X1.500000*%
%ADD27R,2.000000X3.800000*%
%ADD28RoundRect,0.200000X0.275000X-0.200000X0.275000X0.200000X-0.275000X0.200000X-0.275000X-0.200000X0*%
%ADD29RoundRect,0.259259X-0.440741X-0.640741X0.440741X-0.640741X0.440741X0.640741X-0.440741X0.640741X0*%
%ADD30R,2.500000X1.100000*%
%ADD31R,1.100000X2.500000*%
%ADD32C,2.400000*%
%ADD33R,2.300000X2.000000*%
%ADD34C,2.300000*%
%ADD35RoundRect,0.200000X-0.200000X-0.275000X0.200000X-0.275000X0.200000X0.275000X-0.200000X0.275000X0*%
%ADD36RoundRect,0.225000X0.250000X-0.225000X0.250000X0.225000X-0.250000X0.225000X-0.250000X-0.225000X0*%
%ADD37RoundRect,0.250000X-1.500000X-0.550000X1.500000X-0.550000X1.500000X0.550000X-1.500000X0.550000X0*%
%ADD38RoundRect,0.200000X0.200000X0.275000X-0.200000X0.275000X-0.200000X-0.275000X0.200000X-0.275000X0*%
%ADD39C,5.000000*%
%ADD40RoundRect,0.250000X-0.275000X-0.700000X0.275000X-0.700000X0.275000X0.700000X-0.275000X0.700000X0*%
G04 APERTURE END LIST*
D10*
%TO.C,R12*%
X169799000Y-84073000D03*
X169799000Y-85723000D03*
%TD*%
D11*
%TO.C,C5*%
X161151000Y-117067001D03*
X161151000Y-118617001D03*
%TD*%
D12*
%TO.C,R8*%
X165721000Y-118350001D03*
X169121000Y-118350001D03*
%TD*%
D13*
%TO.C,Q1*%
X138986500Y-131182001D03*
X138986500Y-129282001D03*
X137111500Y-130232001D03*
%TD*%
D14*
%TO.C,D2*%
X131794000Y-130429000D03*
X127794000Y-130429000D03*
%TD*%
D15*
%TO.C,R9*%
X153416000Y-85778000D03*
X153416000Y-82878000D03*
%TD*%
D16*
%TO.C,U4*%
X158115000Y-79788000D03*
X158115000Y-82328000D03*
X158115000Y-84868000D03*
X165735000Y-84868000D03*
X165735000Y-82328000D03*
X165735000Y-79788000D03*
%TD*%
D17*
%TO.C,C6*%
X139526000Y-84328000D03*
X149526000Y-84328000D03*
%TD*%
D18*
%TO.C,REF\u002A\u002A*%
X168533000Y-135035001D03*
%TD*%
D19*
%TO.C,D1*%
X167963500Y-71755000D03*
X166388500Y-71755000D03*
%TD*%
D20*
%TO.C,K1*%
X134147000Y-126527001D03*
X128147000Y-112327001D03*
X140147000Y-112327001D03*
X140147000Y-124527001D03*
X128147000Y-124527001D03*
%TD*%
D21*
%TO.C,R11*%
X156919000Y-76073000D03*
X159819000Y-76073000D03*
%TD*%
D10*
%TO.C,R5*%
X163611000Y-125868501D03*
X163611000Y-127518501D03*
%TD*%
D22*
%TO.C,J2*%
X169545000Y-104267000D03*
D23*
X169545000Y-101727000D03*
X169545000Y-99187000D03*
X169545000Y-96647000D03*
X169545000Y-94107000D03*
X169545000Y-91567000D03*
%TD*%
D24*
%TO.C,J1*%
X158693000Y-68580000D03*
D25*
X153613000Y-68580000D03*
X148533000Y-68580000D03*
X143453000Y-68580000D03*
X138373000Y-68580000D03*
%TD*%
D26*
%TO.C,U1*%
X152308000Y-116092001D03*
X152308000Y-113792001D03*
D27*
X146008000Y-113792001D03*
D26*
X152308000Y-111492001D03*
%TD*%
D28*
%TO.C,R6*%
X140970000Y-131057001D03*
X140970000Y-129407001D03*
%TD*%
D29*
%TO.C,C4*%
X155031998Y-114045999D03*
X159031998Y-114045999D03*
%TD*%
D10*
%TO.C,R2*%
X163611000Y-133868501D03*
X163611000Y-135518501D03*
%TD*%
D30*
%TO.C,U2*%
X161151000Y-135518501D03*
X161151000Y-133518501D03*
X161151000Y-131518501D03*
X161151000Y-129518501D03*
X161151000Y-127518501D03*
X161151000Y-125518501D03*
X161151000Y-123518501D03*
X161151000Y-121518501D03*
X145751000Y-121518501D03*
X145751000Y-123518501D03*
X145751000Y-125518501D03*
X145751000Y-127518501D03*
X145751000Y-129518501D03*
X145751000Y-131518501D03*
X145751000Y-133518501D03*
X145751000Y-135518501D03*
D31*
X158461000Y-119818501D03*
X156461000Y-119818501D03*
X154461000Y-119818501D03*
X152461000Y-119818501D03*
X150461000Y-119818501D03*
X148461000Y-119818501D03*
%TD*%
D32*
%TO.C,C1*%
X129321000Y-90149001D03*
X129321000Y-105149001D03*
%TD*%
D16*
%TO.C,U3*%
X142275000Y-136257001D03*
X142275000Y-133717001D03*
X134655000Y-133717001D03*
X134655000Y-136257001D03*
%TD*%
D33*
%TO.C,PS1*%
X135586500Y-95149001D03*
D34*
X135586500Y-100149001D03*
X164986500Y-89949001D03*
X164986500Y-105349001D03*
%TD*%
D18*
%TO.C,F1*%
X148249000Y-77851000D03*
X142649000Y-77851000D03*
X133449000Y-77851000D03*
X127849000Y-77851000D03*
%TD*%
D35*
%TO.C,R7*%
X166596000Y-121652001D03*
X168246000Y-121652001D03*
%TD*%
D29*
%TO.C,C3*%
X155031999Y-111292000D03*
X159031999Y-111292000D03*
%TD*%
D22*
%TO.C,J3*%
X169478000Y-125081001D03*
D23*
X169478000Y-127621001D03*
X169478000Y-130161001D03*
%TD*%
D18*
%TO.C,REF\u002A\u002A*%
X128533000Y-135035001D03*
%TD*%
D36*
%TO.C,C7*%
X168021000Y-85723000D03*
X168021000Y-84173000D03*
%TD*%
D18*
%TO.C,REF\u002A\u002A*%
X168533000Y-64035001D03*
%TD*%
D37*
%TO.C,C2*%
X162833000Y-112000000D03*
X168233000Y-112000000D03*
%TD*%
D21*
%TO.C,R10*%
X151458000Y-76073000D03*
X154358000Y-76073000D03*
%TD*%
D38*
%TO.C,R4*%
X168021000Y-73787000D03*
X166371000Y-73787000D03*
%TD*%
D28*
%TO.C,R3*%
X143291000Y-123518501D03*
X143291000Y-121868501D03*
%TD*%
D39*
%TO.C,REF\u002A\u002A*%
X128533000Y-64035001D03*
%TD*%
D10*
%TO.C,R1*%
X163611000Y-129868501D03*
X163611000Y-131518501D03*
%TD*%
D40*
%TO.C,L1*%
X132537000Y-84328000D03*
X135687000Y-84328000D03*
%TD*%
M02*
