%TF.GenerationSoftware,KiCad,Pcbnew,7.0.8*%
%TF.CreationDate,2026-01-29T13:39:04-03:00*%
%TF.ProjectId,on_off_module_x1,6f6e5f6f-6666-45f6-9d6f-64756c655f78,2.0*%
%TF.SameCoordinates,Original*%
%TF.FileFunction,Legend,Bot*%
%TF.FilePolarity,Positive*%
%FSLAX46Y46*%
G04 Gerber Fmt 4.6, Leading zero omitted, Abs format (unit mm)*
G04 Created by KiCad (PCBNEW 7.0.8) date 2026-01-29 13:39:04*
%MOMM*%
%LPD*%
G01*
G04 APERTURE LIST*
%ADD10C,0.508000*%
%ADD11C,0.300000*%
G04 APERTURE END LIST*
D10*
X125730000Y-114300000D02*
X126492000Y-113538000D01*
X125603000Y-101727000D02*
X147701000Y-79629000D01*
X161163000Y-61087000D02*
X155067000Y-67183000D01*
X125730000Y-116840000D02*
X128143000Y-114427000D01*
X130936972Y-127278028D02*
G75*
G03*
X132437000Y-128778028I1500028J28D01*
G01*
X156788000Y-66675000D02*
X160598000Y-66675000D01*
X160598000Y-70485000D01*
X156788000Y-70485000D01*
X156788000Y-66675000D01*
X143256000Y-89154000D02*
X137541000Y-94869000D01*
X125603000Y-111887000D02*
X135509000Y-101981000D01*
X125603000Y-104267000D02*
X133604000Y-96266000D01*
X137414000Y-100076000D02*
X142367000Y-95123000D01*
X161925000Y-85725000D02*
X126365000Y-121285000D01*
X151638000Y-68072000D02*
X150495000Y-69215000D01*
X161925000Y-70485000D02*
X149606000Y-82804000D01*
X141478000Y-68072000D02*
X140335000Y-69215000D01*
X141050000Y-84328000D02*
G75*
G03*
X141050000Y-84328000I-1524000J0D01*
G01*
X155645000Y-68580000D02*
G75*
G03*
X155645000Y-68580000I-2032000J0D01*
G01*
X144526000Y-77724000D02*
X152146000Y-70104000D01*
X139446000Y-82804000D02*
X142494000Y-79756000D01*
X131099000Y-90149001D02*
G75*
G03*
X131099000Y-90149001I-1778000J0D01*
G01*
X161925000Y-73025000D02*
X151003000Y-83947000D01*
X144427000Y-77851000D02*
G75*
G03*
X144427000Y-77851000I-1778000J0D01*
G01*
X125603000Y-96647000D02*
X137922000Y-84328000D01*
X161925000Y-78105000D02*
X147701000Y-92329000D01*
X125603000Y-89027000D02*
X143891000Y-70739000D01*
X129627000Y-77851000D02*
G75*
G03*
X129627000Y-77851000I-1778000J0D01*
G01*
X130936999Y-122785001D02*
G75*
G03*
X129437000Y-121285001I-1500099J-99D01*
G01*
X147955000Y-84455000D02*
X144907000Y-87503000D01*
X138303000Y-61087000D02*
X125603000Y-73787000D01*
X125603000Y-86487000D02*
X132588000Y-79502000D01*
X148717000Y-76073000D02*
X154178000Y-70612000D01*
X135763000Y-61087000D02*
X125476000Y-71374000D01*
X142179000Y-112327001D02*
G75*
G03*
X142179000Y-112327001I-2032000J0D01*
G01*
X139700000Y-95250000D02*
X136398000Y-98552000D01*
X149098000Y-85852000D02*
X145923000Y-89027000D01*
X129032000Y-103378000D02*
X135509000Y-96901000D01*
X137287000Y-127405028D02*
X137287000Y-121031000D01*
X140405000Y-68580000D02*
G75*
G03*
X140405000Y-68580000I-2032000J0D01*
G01*
X135227000Y-77851000D02*
G75*
G03*
X135227000Y-77851000I-1778000J0D01*
G01*
X125603000Y-119507000D02*
X161798000Y-83312000D01*
X135509000Y-124841000D02*
X137287000Y-123063000D01*
X130937000Y-127035001D02*
X132283200Y-125679200D01*
X130937000Y-124333000D02*
X141224000Y-114046000D01*
X131099000Y-105149001D02*
G75*
G03*
X131099000Y-105149001I-1778000J0D01*
G01*
X161925000Y-67945000D02*
X160655000Y-69215000D01*
X128905000Y-88392000D02*
X147066000Y-70231000D01*
X128905000Y-121285000D02*
X138049000Y-112141000D01*
X130683000Y-61087000D02*
X129921000Y-61849000D01*
X125603000Y-109347000D02*
X128270000Y-106680000D01*
X139954000Y-110236000D02*
X141986000Y-108204000D01*
X145923000Y-61087000D02*
X139827000Y-67183000D01*
X131073000Y-64035001D02*
G75*
G03*
X131073000Y-64035001I-2540000J0D01*
G01*
X133681500Y-93498001D02*
X137491500Y-93498001D01*
X137491500Y-96800001D01*
X133681500Y-96800001D01*
X133681500Y-93498001D01*
X125603000Y-99187000D02*
X138938000Y-85852000D01*
X149987000Y-77343000D02*
X156718000Y-70612000D01*
X130810000Y-88900000D02*
X140970000Y-78740000D01*
X158623000Y-61087000D02*
X153162000Y-66548000D01*
X130937000Y-127405028D02*
X130937000Y-122785001D01*
X151003000Y-61087000D02*
X144907000Y-67183000D01*
X130302000Y-112268000D02*
X147320000Y-95250000D01*
X156718000Y-68072000D02*
X155575000Y-69215000D01*
X135787000Y-128778028D02*
X132437000Y-128777972D01*
X137364500Y-100149001D02*
G75*
G03*
X137364500Y-100149001I-1778000J0D01*
G01*
X130179000Y-112327001D02*
G75*
G03*
X130179000Y-112327001I-2032000J0D01*
G01*
X126365000Y-65405000D02*
X125603000Y-66167000D01*
X143510000Y-76200000D02*
X149098000Y-70612000D01*
X156083000Y-61087000D02*
X149987000Y-67183000D01*
X140970000Y-83820000D02*
X146431000Y-78359000D01*
X135128000Y-76962000D02*
X141986000Y-70104000D01*
X130810000Y-104140000D02*
X133985000Y-100965000D01*
X135787000Y-128778000D02*
G75*
G03*
X137287000Y-127278028I-100J1500100D01*
G01*
X140843000Y-61087000D02*
X125603000Y-76327000D01*
X161925000Y-75565000D02*
X146812000Y-90678000D01*
X133223000Y-61087000D02*
X131064000Y-63246000D01*
X125603000Y-94107000D02*
X128143000Y-91567000D01*
X136906000Y-70104000D02*
X129667000Y-77343000D01*
X137287000Y-121031000D02*
X142621000Y-115697000D01*
X125603000Y-68707000D02*
X127762000Y-66548000D01*
X146431000Y-68199000D02*
X145415000Y-69215000D01*
X133604000Y-75946000D02*
X139065000Y-70485000D01*
X161925000Y-80645000D02*
X148590000Y-93980000D01*
X142621000Y-106426000D02*
X142621000Y-115697000D01*
X136271000Y-126619000D02*
X137287000Y-125603000D01*
X125603000Y-91567000D02*
X127508000Y-89662000D01*
X143383000Y-61087000D02*
X137922000Y-66548000D01*
X136179000Y-126527001D02*
G75*
G03*
X136179000Y-126527001I-2032000J0D01*
G01*
X150565000Y-68580000D02*
G75*
G03*
X150565000Y-68580000I-2032000J0D01*
G01*
X125603000Y-81407000D02*
X127381000Y-79629000D01*
X148463000Y-61087000D02*
X143002000Y-66548000D01*
X161925000Y-87285001D02*
X161925000Y-61214000D01*
X125603000Y-106807000D02*
X127508000Y-104902000D01*
X142621000Y-106426000D02*
X161925000Y-87285001D01*
X125603000Y-83947000D02*
X131572000Y-77978000D01*
X153543000Y-61087000D02*
X148082000Y-66548000D01*
X132969000Y-124841000D02*
X141986000Y-115824000D01*
X129413000Y-110617000D02*
X144907000Y-95123000D01*
X151050000Y-84328000D02*
G75*
G03*
X151050000Y-84328000I-1524000J0D01*
G01*
X136525000Y-93345000D02*
X159258000Y-70612000D01*
X129437000Y-121285001D02*
X125783000Y-121285001D01*
X150027000Y-77851000D02*
G75*
G03*
X150027000Y-77851000I-1778000J0D01*
G01*
X145485000Y-68580000D02*
G75*
G03*
X145485000Y-68580000I-2032000J0D01*
G01*
X161925000Y-62865000D02*
X158115000Y-66675000D01*
X161925000Y-65405000D02*
X160528000Y-66802000D01*
X130810000Y-121920000D02*
X138811000Y-113919000D01*
X128397000Y-76073000D02*
X136398000Y-68072000D01*
D11*
G36*
X153887328Y-126602141D02*
G01*
X153440242Y-126751170D01*
X153440242Y-126453111D01*
X153887328Y-126602141D01*
G37*
G36*
X154129958Y-124939704D02*
G01*
X154166963Y-124976709D01*
X154211671Y-125066123D01*
X154211671Y-125452142D01*
X153725957Y-125452142D01*
X153725957Y-125066122D01*
X153770662Y-124976710D01*
X153807667Y-124939705D01*
X153897081Y-124894999D01*
X154040547Y-124894999D01*
X154129958Y-124939704D01*
G37*
G36*
X154070697Y-122237586D02*
G01*
X154166964Y-122333853D01*
X154211671Y-122423266D01*
X154211671Y-122638160D01*
X154166964Y-122727574D01*
X154070697Y-122823840D01*
X153843207Y-122880713D01*
X153380135Y-122880713D01*
X153152644Y-122823840D01*
X153056378Y-122727574D01*
X153011671Y-122638160D01*
X153011671Y-122423266D01*
X153056378Y-122333852D01*
X153152644Y-122237586D01*
X153380135Y-122180713D01*
X153843206Y-122180713D01*
X154070697Y-122237586D01*
G37*
G36*
X154070697Y-117237585D02*
G01*
X154166964Y-117333852D01*
X154211671Y-117423265D01*
X154211671Y-117638159D01*
X154166964Y-117727573D01*
X154070697Y-117823839D01*
X153843207Y-117880712D01*
X153380135Y-117880712D01*
X153152644Y-117823839D01*
X153056378Y-117727573D01*
X153011671Y-117638159D01*
X153011671Y-117423265D01*
X153056378Y-117333851D01*
X153152644Y-117237585D01*
X153380135Y-117180712D01*
X153843206Y-117180712D01*
X154070697Y-117237585D01*
G37*
G36*
X153629960Y-110439705D02*
G01*
X153666964Y-110476709D01*
X153711671Y-110566122D01*
X153711671Y-110709587D01*
X153666963Y-110799001D01*
X153629958Y-110836006D01*
X153540547Y-110880712D01*
X153182795Y-110880712D01*
X153093382Y-110836006D01*
X153056378Y-110799002D01*
X153011671Y-110709587D01*
X153011671Y-110566122D01*
X153056378Y-110476708D01*
X153093382Y-110439704D01*
X153182795Y-110394998D01*
X153540547Y-110394998D01*
X153629960Y-110439705D01*
G37*
G36*
X153711671Y-109137551D02*
G01*
X153711671Y-109352444D01*
X153666963Y-109441858D01*
X153629958Y-109478863D01*
X153540547Y-109523569D01*
X153182795Y-109523569D01*
X153093382Y-109478863D01*
X153056378Y-109441859D01*
X153011671Y-109352444D01*
X153011671Y-109137551D01*
X153025805Y-109109284D01*
X153697537Y-109109284D01*
X153711671Y-109137551D01*
G37*
G36*
X153678438Y-105642515D02*
G01*
X153711671Y-105708979D01*
X153711671Y-105923873D01*
X153678438Y-105990337D01*
X153611975Y-106023569D01*
X153544641Y-106023569D01*
X153626087Y-105616339D01*
X153678438Y-105642515D01*
G37*
G36*
X154725957Y-128823571D02*
G01*
X152497385Y-128823571D01*
X152497385Y-128459285D01*
X152711671Y-128459285D01*
X152731767Y-128534285D01*
X152786671Y-128589189D01*
X152861671Y-128609285D01*
X153647385Y-128609285D01*
X154361671Y-128609285D01*
X154436671Y-128589189D01*
X154491575Y-128534285D01*
X154511671Y-128459285D01*
X154491575Y-128384285D01*
X154436671Y-128329381D01*
X154361671Y-128309285D01*
X153797385Y-128309285D01*
X153797385Y-127752142D01*
X154361671Y-127752142D01*
X154436671Y-127732046D01*
X154491575Y-127677142D01*
X154511671Y-127602142D01*
X154491575Y-127527142D01*
X154436671Y-127472238D01*
X154361671Y-127452142D01*
X152861671Y-127452142D01*
X152786671Y-127472238D01*
X152731767Y-127527142D01*
X152711671Y-127602142D01*
X152731767Y-127677142D01*
X152786671Y-127732046D01*
X152861671Y-127752142D01*
X153497385Y-127752142D01*
X153497385Y-128309285D01*
X152861671Y-128309285D01*
X152786671Y-128329381D01*
X152731767Y-128384285D01*
X152711671Y-128459285D01*
X152497385Y-128459285D01*
X152497385Y-127072069D01*
X152714716Y-127072069D01*
X152719369Y-127149575D01*
X152762150Y-127214371D01*
X152831599Y-127249096D01*
X152909105Y-127244443D01*
X154409105Y-126744443D01*
X154434241Y-126727846D01*
X154461192Y-126714372D01*
X154466246Y-126706716D01*
X154473902Y-126701662D01*
X154487375Y-126674715D01*
X154503974Y-126649575D01*
X154504523Y-126640417D01*
X154508626Y-126632213D01*
X154506821Y-126602141D01*
X154508626Y-126572069D01*
X154504523Y-126563864D01*
X154503974Y-126554707D01*
X154487375Y-126529566D01*
X154473902Y-126502620D01*
X154466246Y-126497565D01*
X154461192Y-126489910D01*
X154434241Y-126476435D01*
X154409105Y-126459839D01*
X152909105Y-125959839D01*
X152831599Y-125955186D01*
X152762150Y-125989911D01*
X152719369Y-126054707D01*
X152714716Y-126132213D01*
X152749441Y-126201662D01*
X152814237Y-126244443D01*
X153140242Y-126353111D01*
X153140242Y-126851170D01*
X152814237Y-126959839D01*
X152749441Y-127002620D01*
X152714716Y-127072069D01*
X152497385Y-127072069D01*
X152497385Y-125602142D01*
X152711671Y-125602142D01*
X152731767Y-125677142D01*
X152786671Y-125732046D01*
X152861671Y-125752142D01*
X153575957Y-125752142D01*
X154361671Y-125752142D01*
X154436671Y-125732046D01*
X154491575Y-125677142D01*
X154511671Y-125602142D01*
X154511671Y-125030713D01*
X154502748Y-124997412D01*
X154495835Y-124963630D01*
X154424406Y-124820774D01*
X154408383Y-124802705D01*
X154396309Y-124781791D01*
X154324881Y-124710362D01*
X154303965Y-124698286D01*
X154285896Y-124682263D01*
X154143039Y-124610835D01*
X154109260Y-124603922D01*
X154075957Y-124594999D01*
X153861671Y-124594999D01*
X153828365Y-124603923D01*
X153794590Y-124610835D01*
X153651732Y-124682263D01*
X153633662Y-124698286D01*
X153612748Y-124710361D01*
X153541319Y-124781790D01*
X153529244Y-124802704D01*
X153513221Y-124820774D01*
X153441793Y-124963631D01*
X153434880Y-124997409D01*
X153425957Y-125030713D01*
X153425957Y-125452142D01*
X152861671Y-125452142D01*
X152786671Y-125472238D01*
X152731767Y-125527142D01*
X152711671Y-125602142D01*
X152497385Y-125602142D01*
X152497385Y-122673570D01*
X152711671Y-122673570D01*
X152720594Y-122706871D01*
X152727507Y-122740652D01*
X152798936Y-122883510D01*
X152814959Y-122901579D01*
X152827034Y-122922494D01*
X152969891Y-123065351D01*
X152971019Y-123066002D01*
X152971690Y-123067120D01*
X153004550Y-123085361D01*
X153037134Y-123104174D01*
X153038439Y-123104174D01*
X153039577Y-123104806D01*
X153325291Y-123176234D01*
X153343793Y-123175922D01*
X153361671Y-123180713D01*
X153861671Y-123180713D01*
X153879548Y-123175922D01*
X153898051Y-123176234D01*
X154183765Y-123104806D01*
X154184903Y-123104174D01*
X154186208Y-123104174D01*
X154218791Y-123085361D01*
X154251652Y-123067120D01*
X154252322Y-123066002D01*
X154253451Y-123065351D01*
X154396308Y-122922494D01*
X154408382Y-122901579D01*
X154424406Y-122883510D01*
X154495835Y-122740652D01*
X154502747Y-122706871D01*
X154511671Y-122673570D01*
X154511671Y-122387856D01*
X154502748Y-122354555D01*
X154495835Y-122320773D01*
X154424406Y-122177917D01*
X154408383Y-122159848D01*
X154396308Y-122138933D01*
X154253451Y-121996076D01*
X154252322Y-121995424D01*
X154251652Y-121994307D01*
X154218791Y-121976065D01*
X154186208Y-121957253D01*
X154184903Y-121957253D01*
X154183765Y-121956621D01*
X153898052Y-121885192D01*
X153879547Y-121885503D01*
X153861671Y-121880713D01*
X153361671Y-121880713D01*
X153343794Y-121885503D01*
X153325290Y-121885192D01*
X153039576Y-121956621D01*
X153038438Y-121957253D01*
X153037134Y-121957253D01*
X153004562Y-121976058D01*
X152971690Y-121994307D01*
X152971019Y-121995424D01*
X152969891Y-121996076D01*
X152827034Y-122138933D01*
X152814958Y-122159848D01*
X152798936Y-122177917D01*
X152727507Y-122320774D01*
X152720594Y-122354554D01*
X152711671Y-122387856D01*
X152711671Y-122673570D01*
X152497385Y-122673570D01*
X152497385Y-121387856D01*
X152711671Y-121387856D01*
X152731767Y-121462856D01*
X152786671Y-121517760D01*
X152861671Y-121537856D01*
X154361671Y-121537856D01*
X154362003Y-121537766D01*
X154362339Y-121537855D01*
X154399570Y-121527700D01*
X154436671Y-121517760D01*
X154436914Y-121517516D01*
X154437249Y-121517425D01*
X154464410Y-121490020D01*
X154491575Y-121462856D01*
X154491664Y-121462522D01*
X154491908Y-121462277D01*
X154501730Y-121424955D01*
X154511671Y-121387856D01*
X154511581Y-121387523D01*
X154511670Y-121387188D01*
X154501515Y-121349956D01*
X154491575Y-121312856D01*
X154491331Y-121312612D01*
X154491240Y-121312278D01*
X154463891Y-121285172D01*
X154436671Y-121257952D01*
X154436336Y-121257862D01*
X154436092Y-121257620D01*
X153426505Y-120680713D01*
X154361671Y-120680713D01*
X154436671Y-120660617D01*
X154491575Y-120605713D01*
X154511671Y-120530713D01*
X154491575Y-120455713D01*
X154436671Y-120400809D01*
X154361671Y-120380713D01*
X152861671Y-120380713D01*
X152861338Y-120380802D01*
X152861003Y-120380714D01*
X152823771Y-120390868D01*
X152786671Y-120400809D01*
X152786427Y-120401052D01*
X152786093Y-120401144D01*
X152758987Y-120428492D01*
X152731767Y-120455713D01*
X152731677Y-120456047D01*
X152731435Y-120456292D01*
X152721640Y-120493507D01*
X152711671Y-120530713D01*
X152711760Y-120531045D01*
X152711672Y-120531381D01*
X152721826Y-120568612D01*
X152731767Y-120605713D01*
X152732010Y-120605956D01*
X152732102Y-120606291D01*
X152759450Y-120633396D01*
X152786671Y-120660617D01*
X152787005Y-120660706D01*
X152787250Y-120660949D01*
X153796836Y-121237856D01*
X152861671Y-121237856D01*
X152786671Y-121257952D01*
X152731767Y-121312856D01*
X152711671Y-121387856D01*
X152497385Y-121387856D01*
X152497385Y-119816427D01*
X153283100Y-119816427D01*
X153303196Y-119891427D01*
X153358100Y-119946331D01*
X153433100Y-119966427D01*
X153508100Y-119946331D01*
X153563004Y-119891427D01*
X153583100Y-119816427D01*
X153583100Y-118673570D01*
X153563004Y-118598570D01*
X153508100Y-118543666D01*
X153433100Y-118523570D01*
X153358100Y-118543666D01*
X153303196Y-118598570D01*
X153283100Y-118673570D01*
X153283100Y-119816427D01*
X152497385Y-119816427D01*
X152497385Y-117673569D01*
X152711671Y-117673569D01*
X152720594Y-117706870D01*
X152727507Y-117740651D01*
X152798936Y-117883509D01*
X152814959Y-117901578D01*
X152827034Y-117922493D01*
X152969891Y-118065350D01*
X152971019Y-118066001D01*
X152971690Y-118067119D01*
X153004550Y-118085360D01*
X153037134Y-118104173D01*
X153038439Y-118104173D01*
X153039577Y-118104805D01*
X153325291Y-118176233D01*
X153343793Y-118175921D01*
X153361671Y-118180712D01*
X153861671Y-118180712D01*
X153879548Y-118175921D01*
X153898051Y-118176233D01*
X154183765Y-118104805D01*
X154184903Y-118104173D01*
X154186208Y-118104173D01*
X154218791Y-118085360D01*
X154251652Y-118067119D01*
X154252322Y-118066001D01*
X154253451Y-118065350D01*
X154396308Y-117922493D01*
X154408382Y-117901578D01*
X154424406Y-117883509D01*
X154495835Y-117740651D01*
X154502747Y-117706870D01*
X154511671Y-117673569D01*
X154511671Y-117387855D01*
X154502748Y-117354554D01*
X154495835Y-117320772D01*
X154424406Y-117177916D01*
X154408383Y-117159847D01*
X154396308Y-117138932D01*
X154253451Y-116996075D01*
X154252322Y-116995423D01*
X154251652Y-116994306D01*
X154218791Y-116976064D01*
X154186208Y-116957252D01*
X154184903Y-116957252D01*
X154183765Y-116956620D01*
X153898052Y-116885191D01*
X153879547Y-116885502D01*
X153861671Y-116880712D01*
X153361671Y-116880712D01*
X153343794Y-116885502D01*
X153325290Y-116885191D01*
X153039576Y-116956620D01*
X153038438Y-116957252D01*
X153037134Y-116957252D01*
X153004562Y-116976057D01*
X152971690Y-116994306D01*
X152971019Y-116995423D01*
X152969891Y-116996075D01*
X152827034Y-117138932D01*
X152814958Y-117159847D01*
X152798936Y-117177916D01*
X152727507Y-117320773D01*
X152720594Y-117354553D01*
X152711671Y-117387855D01*
X152711671Y-117673569D01*
X152497385Y-117673569D01*
X152497385Y-116387855D01*
X152711671Y-116387855D01*
X152731767Y-116462855D01*
X152786671Y-116517759D01*
X152861671Y-116537855D01*
X153647385Y-116537855D01*
X154361671Y-116537855D01*
X154436671Y-116517759D01*
X154491575Y-116462855D01*
X154511671Y-116387855D01*
X154511671Y-115673569D01*
X154491575Y-115598569D01*
X154436671Y-115543665D01*
X154361671Y-115523569D01*
X154286671Y-115543665D01*
X154231767Y-115598569D01*
X154211671Y-115673569D01*
X154211671Y-116237855D01*
X153797385Y-116237855D01*
X153797385Y-115887855D01*
X153777289Y-115812855D01*
X153722385Y-115757951D01*
X153647385Y-115737855D01*
X153572385Y-115757951D01*
X153517481Y-115812855D01*
X153497385Y-115887855D01*
X153497385Y-116237855D01*
X152861671Y-116237855D01*
X152786671Y-116257951D01*
X152731767Y-116312855D01*
X152711671Y-116387855D01*
X152497385Y-116387855D01*
X152497385Y-115102141D01*
X152711671Y-115102141D01*
X152731767Y-115177141D01*
X152786671Y-115232045D01*
X152861671Y-115252141D01*
X153647385Y-115252141D01*
X154361671Y-115252141D01*
X154436671Y-115232045D01*
X154491575Y-115177141D01*
X154511671Y-115102141D01*
X154511671Y-114387855D01*
X154491575Y-114312855D01*
X154436671Y-114257951D01*
X154361671Y-114237855D01*
X154286671Y-114257951D01*
X154231767Y-114312855D01*
X154211671Y-114387855D01*
X154211671Y-114952141D01*
X153797385Y-114952141D01*
X153797385Y-114602141D01*
X153777289Y-114527141D01*
X153722385Y-114472237D01*
X153647385Y-114452141D01*
X153572385Y-114472237D01*
X153517481Y-114527141D01*
X153497385Y-114602141D01*
X153497385Y-114952141D01*
X152861671Y-114952141D01*
X152786671Y-114972237D01*
X152731767Y-115027141D01*
X152711671Y-115102141D01*
X152497385Y-115102141D01*
X152497385Y-112673570D01*
X152711671Y-112673570D01*
X152731767Y-112748570D01*
X152786671Y-112803474D01*
X152861671Y-112823570D01*
X154361671Y-112823570D01*
X154368123Y-112821841D01*
X154374701Y-112823003D01*
X154405261Y-112811890D01*
X154436671Y-112803474D01*
X154441394Y-112798750D01*
X154447672Y-112796468D01*
X154468583Y-112771561D01*
X154491575Y-112748570D01*
X154493303Y-112742119D01*
X154497599Y-112737003D01*
X154503256Y-112704972D01*
X154511671Y-112673570D01*
X154509942Y-112667120D01*
X154511105Y-112660541D01*
X154499989Y-112629973D01*
X154491575Y-112598570D01*
X154486852Y-112593847D01*
X154484570Y-112587570D01*
X154459665Y-112566660D01*
X154436671Y-112543666D01*
X154430218Y-112541937D01*
X154425104Y-112537643D01*
X153644947Y-112173570D01*
X154425104Y-111809497D01*
X154430218Y-111805202D01*
X154436671Y-111803474D01*
X154459665Y-111780479D01*
X154484570Y-111759570D01*
X154486852Y-111753292D01*
X154491575Y-111748570D01*
X154499989Y-111717166D01*
X154511105Y-111686599D01*
X154509942Y-111680019D01*
X154511671Y-111673570D01*
X154503256Y-111642167D01*
X154497599Y-111610137D01*
X154493303Y-111605020D01*
X154491575Y-111598570D01*
X154468583Y-111575578D01*
X154447672Y-111550672D01*
X154441394Y-111548389D01*
X154436671Y-111543666D01*
X154405261Y-111535249D01*
X154374701Y-111524137D01*
X154368123Y-111525298D01*
X154361671Y-111523570D01*
X152861671Y-111523570D01*
X152786671Y-111543666D01*
X152731767Y-111598570D01*
X152711671Y-111673570D01*
X152731767Y-111748570D01*
X152786671Y-111803474D01*
X152861671Y-111823570D01*
X153685537Y-111823570D01*
X153226809Y-112037643D01*
X153216676Y-112046150D01*
X153204242Y-112050672D01*
X153187401Y-112070729D01*
X153167344Y-112087570D01*
X153162822Y-112100004D01*
X153154315Y-112110137D01*
X153149759Y-112135927D01*
X153140809Y-112160541D01*
X153143110Y-112173570D01*
X153140809Y-112186599D01*
X153149759Y-112211212D01*
X153154315Y-112237003D01*
X153162822Y-112247135D01*
X153167344Y-112259570D01*
X153187401Y-112276410D01*
X153204242Y-112296468D01*
X153216676Y-112300989D01*
X153226809Y-112309497D01*
X153685537Y-112523570D01*
X152861671Y-112523570D01*
X152786671Y-112543666D01*
X152731767Y-112598570D01*
X152711671Y-112673570D01*
X152497385Y-112673570D01*
X152497385Y-110744998D01*
X152711671Y-110744998D01*
X152720594Y-110778299D01*
X152727507Y-110812080D01*
X152798936Y-110954937D01*
X152814958Y-110973005D01*
X152827033Y-110993920D01*
X152898461Y-111065349D01*
X152919376Y-111077424D01*
X152937446Y-111093448D01*
X153080304Y-111164876D01*
X153114079Y-111171787D01*
X153147385Y-111180712D01*
X153575957Y-111180712D01*
X153609260Y-111171788D01*
X153643039Y-111164876D01*
X153785896Y-111093448D01*
X153803965Y-111077424D01*
X153824881Y-111065349D01*
X153896309Y-110993920D01*
X153908383Y-110973005D01*
X153924406Y-110954937D01*
X153995835Y-110812081D01*
X154002748Y-110778298D01*
X154011671Y-110744998D01*
X154011671Y-110530712D01*
X154002748Y-110497411D01*
X153995835Y-110463629D01*
X153924406Y-110320773D01*
X153908383Y-110302704D01*
X153896308Y-110281789D01*
X153824880Y-110210361D01*
X153803964Y-110198285D01*
X153785896Y-110182263D01*
X153643039Y-110110834D01*
X153609258Y-110103921D01*
X153575957Y-110094998D01*
X153147385Y-110094998D01*
X153114084Y-110103920D01*
X153080302Y-110110834D01*
X152937446Y-110182263D01*
X152919377Y-110198285D01*
X152898462Y-110210361D01*
X152827034Y-110281789D01*
X152814958Y-110302704D01*
X152798936Y-110320773D01*
X152727507Y-110463630D01*
X152720594Y-110497410D01*
X152711671Y-110530712D01*
X152711671Y-110744998D01*
X152497385Y-110744998D01*
X152497385Y-109387855D01*
X152711671Y-109387855D01*
X152720594Y-109421156D01*
X152727507Y-109454937D01*
X152798936Y-109597794D01*
X152814958Y-109615862D01*
X152827033Y-109636777D01*
X152898461Y-109708206D01*
X152919376Y-109720281D01*
X152937446Y-109736305D01*
X153080304Y-109807733D01*
X153114079Y-109814644D01*
X153147385Y-109823569D01*
X153575957Y-109823569D01*
X153609260Y-109814645D01*
X153643039Y-109807733D01*
X153785896Y-109736305D01*
X153803965Y-109720281D01*
X153824881Y-109708206D01*
X153896309Y-109636777D01*
X153908383Y-109615862D01*
X153924406Y-109597794D01*
X153995835Y-109454938D01*
X154002748Y-109421155D01*
X154011671Y-109387855D01*
X154011671Y-109109284D01*
X154361671Y-109109284D01*
X154436671Y-109089188D01*
X154491575Y-109034284D01*
X154511671Y-108959284D01*
X154491575Y-108884284D01*
X154436671Y-108829380D01*
X154361671Y-108809284D01*
X152861671Y-108809284D01*
X152786671Y-108829380D01*
X152731767Y-108884284D01*
X152711671Y-108959284D01*
X152730415Y-109029241D01*
X152727507Y-109035059D01*
X152720594Y-109068839D01*
X152711671Y-109102141D01*
X152711671Y-109387855D01*
X152497385Y-109387855D01*
X152497385Y-108030712D01*
X152711671Y-108030712D01*
X152720594Y-108064013D01*
X152727507Y-108097794D01*
X152798936Y-108240651D01*
X152805022Y-108247514D01*
X152807923Y-108256217D01*
X152830463Y-108276205D01*
X152850452Y-108298746D01*
X152859154Y-108301646D01*
X152866018Y-108307733D01*
X153008874Y-108379162D01*
X153042656Y-108386075D01*
X153075957Y-108394998D01*
X153861671Y-108394998D01*
X153936671Y-108374902D01*
X153991575Y-108319998D01*
X154011671Y-108244998D01*
X153991575Y-108169998D01*
X153936671Y-108115094D01*
X153861671Y-108094998D01*
X153111367Y-108094998D01*
X153044903Y-108061766D01*
X153011671Y-107995301D01*
X153011671Y-107851836D01*
X153056378Y-107762422D01*
X153066660Y-107752141D01*
X153861671Y-107752141D01*
X153936671Y-107732045D01*
X153991575Y-107677141D01*
X154011671Y-107602141D01*
X153991575Y-107527141D01*
X153936671Y-107472237D01*
X153861671Y-107452141D01*
X152861671Y-107452141D01*
X152786671Y-107472237D01*
X152731767Y-107527141D01*
X152711671Y-107602141D01*
X152731767Y-107677141D01*
X152752994Y-107698368D01*
X152727507Y-107749344D01*
X152720594Y-107783124D01*
X152711671Y-107816426D01*
X152711671Y-108030712D01*
X152497385Y-108030712D01*
X152497385Y-106664582D01*
X152711940Y-106664582D01*
X152727507Y-106740651D01*
X152798936Y-106883508D01*
X152805022Y-106890371D01*
X152807923Y-106899074D01*
X152830463Y-106919062D01*
X152850452Y-106941603D01*
X152859154Y-106944503D01*
X152866018Y-106950590D01*
X153008874Y-107022019D01*
X153042656Y-107028932D01*
X153075957Y-107037855D01*
X154361671Y-107037855D01*
X154436671Y-107017759D01*
X154491575Y-106962855D01*
X154511671Y-106887855D01*
X154491575Y-106812855D01*
X154436671Y-106757951D01*
X154361671Y-106737855D01*
X153111367Y-106737855D01*
X153044903Y-106704623D01*
X152995835Y-106606487D01*
X152944319Y-106548392D01*
X152870658Y-106523838D01*
X152794589Y-106539405D01*
X152736494Y-106590921D01*
X152711940Y-106664582D01*
X152497385Y-106664582D01*
X152497385Y-105959284D01*
X152711671Y-105959284D01*
X152720594Y-105992585D01*
X152727507Y-106026366D01*
X152798936Y-106169223D01*
X152805021Y-106176085D01*
X152807923Y-106184790D01*
X152830466Y-106204780D01*
X152850452Y-106227318D01*
X152859154Y-106230218D01*
X152866018Y-106236305D01*
X153008876Y-106307733D01*
X153042651Y-106314644D01*
X153075957Y-106323569D01*
X153647385Y-106323569D01*
X153680688Y-106314645D01*
X153714467Y-106307733D01*
X153857324Y-106236305D01*
X153864187Y-106230218D01*
X153872890Y-106227318D01*
X153892875Y-106204780D01*
X153915419Y-106184790D01*
X153918320Y-106176085D01*
X153924406Y-106169223D01*
X153995835Y-106026367D01*
X154002748Y-105992584D01*
X154011671Y-105959284D01*
X154011671Y-105673569D01*
X154002748Y-105640268D01*
X153995835Y-105606486D01*
X153924406Y-105463630D01*
X153918320Y-105456767D01*
X153915419Y-105448063D01*
X153892875Y-105428072D01*
X153872890Y-105405535D01*
X153864187Y-105402634D01*
X153857324Y-105396548D01*
X153714467Y-105325120D01*
X153680688Y-105318207D01*
X153647385Y-105309284D01*
X153504528Y-105309284D01*
X153480885Y-105315618D01*
X153456461Y-105317194D01*
X153443997Y-105325502D01*
X153429528Y-105329380D01*
X153412221Y-105346686D01*
X153391855Y-105360264D01*
X153385215Y-105373692D01*
X153374624Y-105384284D01*
X153368289Y-105407925D01*
X153357441Y-105429866D01*
X153238701Y-106023569D01*
X153111367Y-106023569D01*
X153044903Y-105990337D01*
X153011671Y-105923873D01*
X153011671Y-105708979D01*
X153067264Y-105597795D01*
X153082831Y-105521725D01*
X153058277Y-105448064D01*
X153000182Y-105396548D01*
X152924113Y-105380981D01*
X152850452Y-105405535D01*
X152798936Y-105463630D01*
X152727507Y-105606487D01*
X152720594Y-105640267D01*
X152711671Y-105673569D01*
X152711671Y-105959284D01*
X152497385Y-105959284D01*
X152497385Y-103826081D01*
X152711982Y-103826081D01*
X152736863Y-103899632D01*
X152795187Y-103950889D01*
X152871325Y-103966116D01*
X152944876Y-103941235D01*
X153611670Y-103496704D01*
X154278466Y-103941235D01*
X154352017Y-103966116D01*
X154428155Y-103950889D01*
X154486479Y-103899632D01*
X154511360Y-103826081D01*
X154496133Y-103749943D01*
X154444876Y-103691620D01*
X153882087Y-103316427D01*
X154444876Y-102941234D01*
X154496133Y-102882911D01*
X154511360Y-102806773D01*
X154486479Y-102733222D01*
X154428155Y-102681965D01*
X154352017Y-102666738D01*
X154278466Y-102691619D01*
X153611670Y-103136149D01*
X152944876Y-102691619D01*
X152871325Y-102666738D01*
X152795187Y-102681965D01*
X152736863Y-102733222D01*
X152711982Y-102806773D01*
X152727209Y-102882911D01*
X152778466Y-102941235D01*
X153341254Y-103316427D01*
X152778466Y-103691619D01*
X152727209Y-103749943D01*
X152711982Y-103826081D01*
X152497385Y-103826081D01*
X152497385Y-102316427D01*
X152711671Y-102316427D01*
X152731767Y-102391427D01*
X152786671Y-102446331D01*
X152861671Y-102466427D01*
X152936671Y-102446331D01*
X152991575Y-102391427D01*
X153011671Y-102316427D01*
X153011671Y-102037856D01*
X153928110Y-102037856D01*
X153898462Y-102067504D01*
X153886387Y-102088418D01*
X153870364Y-102106488D01*
X153798936Y-102249345D01*
X153783369Y-102325415D01*
X153807923Y-102399076D01*
X153866018Y-102450591D01*
X153942088Y-102466158D01*
X154015749Y-102441604D01*
X154067264Y-102383509D01*
X154127805Y-102262424D01*
X154242947Y-102147282D01*
X154444876Y-102012663D01*
X154467421Y-101987009D01*
X154491575Y-101962856D01*
X154492858Y-101958065D01*
X154496133Y-101954340D01*
X154502833Y-101920838D01*
X154511671Y-101887856D01*
X154510387Y-101883067D01*
X154511361Y-101878202D01*
X154500412Y-101845838D01*
X154491575Y-101812856D01*
X154488068Y-101809349D01*
X154486479Y-101804651D01*
X154460817Y-101782098D01*
X154436671Y-101757952D01*
X154431882Y-101756668D01*
X154428156Y-101753394D01*
X154394656Y-101746694D01*
X154361671Y-101737856D01*
X153011671Y-101737856D01*
X153011671Y-101459284D01*
X152991575Y-101384284D01*
X152936671Y-101329380D01*
X152861671Y-101309284D01*
X152786671Y-101329380D01*
X152731767Y-101384284D01*
X152711671Y-101459284D01*
X152711671Y-102316427D01*
X152497385Y-102316427D01*
X152497385Y-101094998D01*
X154725957Y-101094998D01*
X154725957Y-128823571D01*
G37*
%TO.C,G\u002A\u002A\u002A*%
G36*
X144891152Y-89053484D02*
G01*
X144897699Y-89072534D01*
X144914173Y-89125991D01*
X144939640Y-89210708D01*
X144973190Y-89323561D01*
X145013917Y-89461423D01*
X145060912Y-89621169D01*
X145113267Y-89799674D01*
X145170075Y-89993811D01*
X145230426Y-90200456D01*
X145293414Y-90416483D01*
X145358129Y-90638767D01*
X145423664Y-90864181D01*
X145489111Y-91089600D01*
X145553561Y-91311899D01*
X145616108Y-91527953D01*
X145675842Y-91734635D01*
X145731855Y-91928820D01*
X145783240Y-92107383D01*
X145829089Y-92267197D01*
X145868492Y-92405139D01*
X145900543Y-92518081D01*
X145924334Y-92602899D01*
X145938955Y-92656466D01*
X145943500Y-92675658D01*
X145940792Y-92674809D01*
X145911229Y-92660858D01*
X145852085Y-92631386D01*
X145767039Y-92588273D01*
X145659768Y-92533398D01*
X145533952Y-92468640D01*
X145393268Y-92395877D01*
X145241395Y-92316990D01*
X145183934Y-92287122D01*
X145035580Y-92210398D01*
X144899620Y-92140634D01*
X144779756Y-92079697D01*
X144679691Y-92029448D01*
X144603127Y-91991754D01*
X144553767Y-91968478D01*
X144535312Y-91961483D01*
X144536033Y-91978393D01*
X144542110Y-92029913D01*
X144553124Y-92111632D01*
X144568445Y-92219141D01*
X144587445Y-92348029D01*
X144609493Y-92493887D01*
X144633959Y-92652306D01*
X144655942Y-92793691D01*
X144678940Y-92942730D01*
X144699306Y-93075909D01*
X144716354Y-93188679D01*
X144729396Y-93276492D01*
X144737745Y-93334799D01*
X144740714Y-93359052D01*
X144752165Y-93369712D01*
X144792247Y-93378359D01*
X144864473Y-93384429D01*
X144972291Y-93388360D01*
X145203659Y-93393846D01*
X144953667Y-93958641D01*
X144922590Y-94028883D01*
X144862979Y-94163792D01*
X144809194Y-94285747D01*
X144763236Y-94390194D01*
X144727108Y-94472579D01*
X144702812Y-94528348D01*
X144692351Y-94552947D01*
X144683820Y-94566524D01*
X144664182Y-94564536D01*
X144658150Y-94556982D01*
X144631748Y-94521095D01*
X144588228Y-94460530D01*
X144530642Y-94379642D01*
X144462044Y-94282780D01*
X144385487Y-94174296D01*
X144304024Y-94058543D01*
X144220710Y-93939873D01*
X144138598Y-93822635D01*
X144060741Y-93711184D01*
X143990192Y-93609869D01*
X143930006Y-93523043D01*
X143883235Y-93455058D01*
X143852933Y-93410265D01*
X143842154Y-93393016D01*
X143844691Y-93391805D01*
X143875572Y-93388763D01*
X143936028Y-93386310D01*
X144019096Y-93384673D01*
X144117811Y-93384077D01*
X144393467Y-93384077D01*
X144381772Y-93340115D01*
X144381549Y-93339296D01*
X144372982Y-93310135D01*
X144354145Y-93247226D01*
X144326051Y-93153919D01*
X144289712Y-93033566D01*
X144246143Y-92889517D01*
X144196357Y-92725124D01*
X144141368Y-92543737D01*
X144082188Y-92348706D01*
X144019832Y-92143384D01*
X144012231Y-92118363D01*
X143950786Y-91915587D01*
X143893143Y-91724512D01*
X143840253Y-91548346D01*
X143793069Y-91390299D01*
X143752541Y-91253580D01*
X143719623Y-91141396D01*
X143695264Y-91056959D01*
X143680418Y-91003475D01*
X143676035Y-90984155D01*
X143678941Y-90985029D01*
X143708263Y-91000373D01*
X143766154Y-91032983D01*
X143849042Y-91080777D01*
X143953356Y-91141674D01*
X144075523Y-91213594D01*
X144211972Y-91294455D01*
X144359131Y-91382176D01*
X144415687Y-91415935D01*
X144559332Y-91501231D01*
X144691010Y-91578785D01*
X144807137Y-91646530D01*
X144904128Y-91702393D01*
X144978399Y-91744305D01*
X145026366Y-91770195D01*
X145044443Y-91777993D01*
X145041045Y-91763817D01*
X145025729Y-91715534D01*
X144999138Y-91635868D01*
X144962287Y-91527749D01*
X144916193Y-91394106D01*
X144861870Y-91237868D01*
X144800334Y-91061964D01*
X144732599Y-90869325D01*
X144659682Y-90662879D01*
X144582598Y-90445556D01*
X144516957Y-90260554D01*
X144443342Y-90052272D01*
X144374754Y-89857354D01*
X144312209Y-89678729D01*
X144256723Y-89519326D01*
X144209310Y-89382074D01*
X144170987Y-89269902D01*
X144142769Y-89185741D01*
X144125671Y-89132518D01*
X144120709Y-89113163D01*
X144130532Y-89110237D01*
X144173287Y-89104034D01*
X144242939Y-89096438D01*
X144332178Y-89088015D01*
X144433692Y-89079333D01*
X144540171Y-89070956D01*
X144644304Y-89063452D01*
X144738779Y-89057386D01*
X144816286Y-89053326D01*
X144869514Y-89051836D01*
X144891152Y-89053484D01*
G37*
G36*
X149431291Y-94670265D02*
G01*
X149447159Y-94700174D01*
X149488799Y-94801598D01*
X149523075Y-94946890D01*
X149521367Y-95080958D01*
X149483825Y-95205874D01*
X149466151Y-95241130D01*
X149397792Y-95333980D01*
X149305003Y-95403893D01*
X149181490Y-95456078D01*
X149177682Y-95457269D01*
X149163716Y-95461131D01*
X149147053Y-95464698D01*
X149126176Y-95467983D01*
X149099571Y-95470996D01*
X149065720Y-95473751D01*
X149023109Y-95476260D01*
X148970221Y-95478534D01*
X148905542Y-95480586D01*
X148827554Y-95482428D01*
X148734742Y-95484071D01*
X148625590Y-95485529D01*
X148498583Y-95486812D01*
X148352205Y-95487934D01*
X148184939Y-95488906D01*
X147995271Y-95489741D01*
X147781684Y-95490450D01*
X147542662Y-95491046D01*
X147276689Y-95491540D01*
X146982251Y-95491945D01*
X146657830Y-95492273D01*
X146301912Y-95492536D01*
X145912980Y-95492746D01*
X145489518Y-95492915D01*
X145030011Y-95493056D01*
X144532943Y-95493180D01*
X144342677Y-95493224D01*
X143860570Y-95493330D01*
X143415447Y-95493409D01*
X143005783Y-95493448D01*
X142630055Y-95493434D01*
X142286740Y-95493355D01*
X141974314Y-95493198D01*
X141691253Y-95492949D01*
X141436035Y-95492597D01*
X141207135Y-95492127D01*
X141003029Y-95491528D01*
X140822196Y-95490785D01*
X140663110Y-95489888D01*
X140524248Y-95488822D01*
X140404087Y-95487574D01*
X140301104Y-95486133D01*
X140213774Y-95484485D01*
X140140574Y-95482616D01*
X140079981Y-95480515D01*
X140030472Y-95478169D01*
X139990522Y-95475564D01*
X139958608Y-95472688D01*
X139933206Y-95469528D01*
X139912794Y-95466070D01*
X139895847Y-95462303D01*
X139880842Y-95458213D01*
X139866255Y-95453788D01*
X139827460Y-95440468D01*
X139705493Y-95376229D01*
X139613844Y-95289285D01*
X139553801Y-95182646D01*
X139526646Y-95059319D01*
X139533666Y-94922315D01*
X139576146Y-94774640D01*
X139579076Y-94768171D01*
X139600387Y-94727210D01*
X139639823Y-94654920D01*
X139683712Y-94575862D01*
X140501077Y-94575862D01*
X140510773Y-94656172D01*
X140548840Y-94728433D01*
X140618524Y-94781188D01*
X140619412Y-94781624D01*
X140630398Y-94785081D01*
X140648918Y-94788252D01*
X140676549Y-94791149D01*
X140714869Y-94793782D01*
X140765455Y-94796162D01*
X140829884Y-94798302D01*
X140909733Y-94800212D01*
X141006579Y-94801904D01*
X141122000Y-94803388D01*
X141257572Y-94804677D01*
X141414872Y-94805780D01*
X141595479Y-94806711D01*
X141800968Y-94807479D01*
X142032917Y-94808097D01*
X142292903Y-94808575D01*
X142582503Y-94808925D01*
X142903294Y-94809158D01*
X143256854Y-94809286D01*
X143644759Y-94809318D01*
X144068587Y-94809268D01*
X144529915Y-94809146D01*
X144646962Y-94809101D01*
X145029842Y-94808845D01*
X145401979Y-94808434D01*
X145761485Y-94807876D01*
X146106470Y-94807181D01*
X146435045Y-94806356D01*
X146745322Y-94805411D01*
X147035412Y-94804353D01*
X147303425Y-94803193D01*
X147547473Y-94801938D01*
X147765667Y-94800597D01*
X147956118Y-94799179D01*
X148116936Y-94797692D01*
X148246234Y-94796146D01*
X148342121Y-94794549D01*
X148402709Y-94792909D01*
X148426109Y-94791235D01*
X148476516Y-94759048D01*
X148523705Y-94694031D01*
X148548127Y-94611626D01*
X148547284Y-94521494D01*
X148518678Y-94433299D01*
X148515848Y-94428061D01*
X148495115Y-94391197D01*
X148456466Y-94323286D01*
X148401069Y-94226358D01*
X148330092Y-94102442D01*
X148244706Y-93953566D01*
X148146077Y-93781759D01*
X148035376Y-93589050D01*
X147913770Y-93377467D01*
X147782428Y-93149040D01*
X147642520Y-92905797D01*
X147495214Y-92649766D01*
X147341678Y-92382977D01*
X147183081Y-92107458D01*
X147020592Y-91825238D01*
X146855380Y-91538346D01*
X146688613Y-91248811D01*
X146521460Y-90958661D01*
X146355090Y-90669925D01*
X146190671Y-90384631D01*
X146029373Y-90104810D01*
X145872363Y-89832488D01*
X145720811Y-89569696D01*
X145575885Y-89318461D01*
X145438755Y-89080813D01*
X145310588Y-88858781D01*
X145192553Y-88654392D01*
X145085819Y-88469676D01*
X144991556Y-88306662D01*
X144910931Y-88167378D01*
X144845113Y-88053854D01*
X144795271Y-87968117D01*
X144762573Y-87912196D01*
X144748189Y-87888122D01*
X144746415Y-87885405D01*
X144677714Y-87807240D01*
X144596012Y-87755989D01*
X144510590Y-87737534D01*
X144482539Y-87740000D01*
X144430030Y-87761605D01*
X144370209Y-87810730D01*
X144360676Y-87822146D01*
X144335507Y-87858567D01*
X144297113Y-87918607D01*
X144245061Y-88003006D01*
X144178919Y-88112505D01*
X144098254Y-88247845D01*
X144002632Y-88409767D01*
X143891621Y-88599010D01*
X143764788Y-88816315D01*
X143621701Y-89062423D01*
X143461925Y-89338074D01*
X143285029Y-89644010D01*
X143090579Y-89980970D01*
X142878143Y-90349695D01*
X142647288Y-90750925D01*
X142397581Y-91185402D01*
X142330496Y-91302185D01*
X142109280Y-91687351D01*
X141906535Y-92040489D01*
X141721464Y-92363029D01*
X141553267Y-92656397D01*
X141401147Y-92922020D01*
X141264304Y-93161326D01*
X141141941Y-93375742D01*
X141033258Y-93566697D01*
X140937458Y-93735616D01*
X140853742Y-93883928D01*
X140781312Y-94013060D01*
X140719369Y-94124439D01*
X140667115Y-94219493D01*
X140623751Y-94299649D01*
X140588479Y-94366335D01*
X140560500Y-94420977D01*
X140539016Y-94465004D01*
X140523229Y-94499842D01*
X140512340Y-94526920D01*
X140505551Y-94547664D01*
X140502063Y-94563502D01*
X140501077Y-94575862D01*
X139683712Y-94575862D01*
X139696314Y-94553161D01*
X139768790Y-94423799D01*
X139856181Y-94268695D01*
X139957416Y-94089714D01*
X140071425Y-93888718D01*
X140197138Y-93667570D01*
X140333484Y-93428135D01*
X140479393Y-93172274D01*
X140633795Y-92901852D01*
X140795620Y-92618731D01*
X140963797Y-92324774D01*
X141137256Y-92021845D01*
X141314927Y-91711808D01*
X141495739Y-91396524D01*
X141678622Y-91077858D01*
X141862506Y-90757672D01*
X142046320Y-90437831D01*
X142228995Y-90120196D01*
X142409460Y-89806632D01*
X142586644Y-89499001D01*
X142759478Y-89199166D01*
X142926891Y-88908992D01*
X143087812Y-88630340D01*
X143241172Y-88365075D01*
X143385900Y-88115059D01*
X143520926Y-87882156D01*
X143645180Y-87668228D01*
X143757591Y-87475140D01*
X143857089Y-87304754D01*
X143942604Y-87158933D01*
X144013065Y-87039541D01*
X144067402Y-86948441D01*
X144104545Y-86887496D01*
X144123424Y-86858569D01*
X144133982Y-86845044D01*
X144235563Y-86740896D01*
X144346254Y-86669008D01*
X144461755Y-86630874D01*
X144577768Y-86627987D01*
X144689995Y-86661838D01*
X144709454Y-86671254D01*
X144729585Y-86681546D01*
X144749357Y-86693133D01*
X144769563Y-86707316D01*
X144790999Y-86725397D01*
X144814461Y-86748679D01*
X144840744Y-86778465D01*
X144870642Y-86816057D01*
X144904951Y-86862756D01*
X144944466Y-86919866D01*
X144989982Y-86988688D01*
X145042295Y-87070526D01*
X145102199Y-87166682D01*
X145170489Y-87278457D01*
X145247961Y-87407154D01*
X145335410Y-87554077D01*
X145433631Y-87720526D01*
X145543419Y-87907805D01*
X145665569Y-88117215D01*
X145800877Y-88350059D01*
X145950138Y-88607640D01*
X146114146Y-88891260D01*
X146293696Y-89202221D01*
X146489585Y-89541826D01*
X146702607Y-89911377D01*
X146933557Y-90312176D01*
X147183231Y-90745526D01*
X147261084Y-90880669D01*
X147466143Y-91236775D01*
X147666175Y-91584369D01*
X147860275Y-91921869D01*
X148047537Y-92247690D01*
X148227053Y-92560250D01*
X148397918Y-92857965D01*
X148559224Y-93139251D01*
X148710066Y-93402525D01*
X148849536Y-93646203D01*
X148976729Y-93868702D01*
X149090738Y-94068439D01*
X149190656Y-94243830D01*
X149275576Y-94393292D01*
X149344594Y-94515240D01*
X149396801Y-94608092D01*
X149398761Y-94611626D01*
X149431291Y-94670265D01*
G37*
G36*
X162578173Y-114815000D02*
G01*
X162590000Y-115085000D01*
X163400000Y-115095829D01*
X164210000Y-115106657D01*
X164210000Y-115305829D01*
X164210000Y-115505000D01*
X163210000Y-115505000D01*
X162210000Y-115505000D01*
X162210000Y-115025000D01*
X162210000Y-114545000D01*
X162388173Y-114545000D01*
X162566345Y-114545000D01*
X162578173Y-114815000D01*
G37*
G36*
X162270522Y-108776046D02*
G01*
X162339426Y-108822995D01*
X162455541Y-108904093D01*
X162605684Y-109010095D01*
X162776673Y-109131754D01*
X162842918Y-109178883D01*
X163003520Y-109291587D01*
X163136044Y-109382384D01*
X163228233Y-109442961D01*
X163267833Y-109465000D01*
X163271460Y-109463841D01*
X163323063Y-109431596D01*
X163422953Y-109361747D01*
X163558569Y-109263235D01*
X163717353Y-109145000D01*
X163752664Y-109118502D01*
X163908707Y-109003570D01*
X164039897Y-108910353D01*
X164133352Y-108847836D01*
X164176192Y-108825000D01*
X164189423Y-108841987D01*
X164204237Y-108918869D01*
X164210000Y-109036771D01*
X164210000Y-109248541D01*
X163861077Y-109506771D01*
X163512154Y-109765000D01*
X163861077Y-109776558D01*
X164210000Y-109788115D01*
X164210000Y-109986558D01*
X164210000Y-110185000D01*
X163210000Y-110185000D01*
X162210000Y-110185000D01*
X162210000Y-109986400D01*
X162210000Y-109787799D01*
X162612294Y-109776400D01*
X163014588Y-109765000D01*
X162612492Y-109485000D01*
X162210397Y-109205000D01*
X162210199Y-108972640D01*
X162210205Y-108962089D01*
X162215087Y-108833469D01*
X162230795Y-108772869D01*
X162260000Y-108769393D01*
X162270522Y-108776046D01*
G37*
G36*
X162276662Y-112595449D02*
G01*
X162379235Y-112631691D01*
X162537044Y-112689485D01*
X162739875Y-112765052D01*
X162977513Y-112854612D01*
X163239746Y-112954384D01*
X164209491Y-113325000D01*
X164209743Y-113525000D01*
X164209995Y-113725000D01*
X163209998Y-114109973D01*
X163010000Y-114186967D01*
X162210000Y-114494946D01*
X162210000Y-114283075D01*
X162212238Y-114165119D01*
X162228477Y-114093886D01*
X162272978Y-114054721D01*
X162360000Y-114022890D01*
X162410899Y-114006119D01*
X162505588Y-113966747D01*
X162564213Y-113916136D01*
X162595403Y-113837099D01*
X162607789Y-113712449D01*
X162610000Y-113525000D01*
X162609775Y-113439955D01*
X162604461Y-113280165D01*
X162602345Y-113268586D01*
X163010000Y-113268586D01*
X163010000Y-113524373D01*
X163010000Y-113780161D01*
X163300000Y-113675323D01*
X163329870Y-113664487D01*
X163464952Y-113614465D01*
X163563995Y-113576139D01*
X163607334Y-113557076D01*
X163614629Y-113545537D01*
X163579972Y-113504406D01*
X163468638Y-113445912D01*
X163280000Y-113369697D01*
X163010000Y-113268586D01*
X162602345Y-113268586D01*
X162585455Y-113176171D01*
X162544130Y-113110789D01*
X162471855Y-113066831D01*
X162360000Y-113027111D01*
X162288740Y-113002195D01*
X162234339Y-112965194D01*
X162213421Y-112900472D01*
X162210000Y-112781898D01*
X162211916Y-112712792D01*
X162222765Y-112620719D01*
X162240000Y-112584384D01*
X162276662Y-112595449D01*
G37*
G36*
X159607157Y-113543049D02*
G01*
X159856099Y-113642430D01*
X160071053Y-113803948D01*
X160175998Y-113928687D01*
X160300417Y-114167138D01*
X160361397Y-114430145D01*
X160357970Y-114701386D01*
X160289169Y-114964538D01*
X160154026Y-115203279D01*
X160104724Y-115256771D01*
X159987289Y-115353574D01*
X159853918Y-115439008D01*
X159791713Y-115470513D01*
X159522260Y-115558242D01*
X159370619Y-115568041D01*
X159250558Y-115575800D01*
X158989224Y-115526831D01*
X158750877Y-115414980D01*
X158548133Y-115243892D01*
X158393610Y-115017210D01*
X158384278Y-114997912D01*
X158305938Y-114746667D01*
X158290987Y-114479572D01*
X158293007Y-114467819D01*
X158667205Y-114467819D01*
X158667986Y-114659388D01*
X158746278Y-114839633D01*
X158903322Y-115013771D01*
X158963389Y-115061395D01*
X159161781Y-115158402D01*
X159370619Y-115180103D01*
X159577996Y-115126709D01*
X159772006Y-114998430D01*
X159901511Y-114847798D01*
X159982174Y-114657035D01*
X159987237Y-114460070D01*
X159916716Y-114267601D01*
X159770628Y-114090326D01*
X159722266Y-114048351D01*
X159574395Y-113950548D01*
X159422280Y-113909458D01*
X159233550Y-113914485D01*
X159035652Y-113971322D01*
X158860151Y-114098050D01*
X158729886Y-114285236D01*
X158667205Y-114467819D01*
X158293007Y-114467819D01*
X158336272Y-114216043D01*
X158438641Y-113975500D01*
X158594941Y-113777359D01*
X158599839Y-113772810D01*
X158820568Y-113620686D01*
X159072975Y-113531881D01*
X159340644Y-113506101D01*
X159607157Y-113543049D01*
G37*
G36*
X158520000Y-111663832D02*
G01*
X158558143Y-111687797D01*
X158696800Y-111777043D01*
X158863232Y-111886283D01*
X159029357Y-111997140D01*
X159348714Y-112212355D01*
X159789357Y-111926748D01*
X159816774Y-111908982D01*
X159983043Y-111801401D01*
X160125230Y-111709671D01*
X160228996Y-111643029D01*
X160280000Y-111610710D01*
X160283019Y-111608999D01*
X160310885Y-111615618D01*
X160325474Y-111679829D01*
X160329484Y-111812640D01*
X160328967Y-112045000D01*
X160029484Y-112239849D01*
X159964868Y-112282132D01*
X159844451Y-112362450D01*
X159761130Y-112420187D01*
X159730000Y-112445000D01*
X159737067Y-112451821D01*
X159794422Y-112493280D01*
X159896927Y-112562838D01*
X160029484Y-112650152D01*
X160328967Y-112845000D01*
X160329484Y-113079601D01*
X160330000Y-113314201D01*
X160220000Y-113242814D01*
X160164202Y-113206240D01*
X160047492Y-113129099D01*
X159897907Y-113029815D01*
X159734397Y-112920950D01*
X159358794Y-112670472D01*
X159014397Y-112901473D01*
X158926234Y-112960392D01*
X158758661Y-113071366D01*
X158608427Y-113169670D01*
X158500000Y-113239238D01*
X158330000Y-113346004D01*
X158330000Y-113109506D01*
X158330000Y-112873007D01*
X158652069Y-112668531D01*
X158735362Y-112614007D01*
X158853662Y-112529465D01*
X158930816Y-112464541D01*
X158953136Y-112430074D01*
X158942416Y-112418929D01*
X158876910Y-112368037D01*
X158767768Y-112291295D01*
X158631584Y-112200547D01*
X158331034Y-112005000D01*
X158330517Y-111775370D01*
X158330000Y-111545740D01*
X158520000Y-111663832D01*
G37*
G36*
X163902830Y-110564931D02*
G01*
X163995176Y-110653814D01*
X164101128Y-110818625D01*
X164151149Y-110921951D01*
X164224403Y-111174161D01*
X164247316Y-111439942D01*
X164215447Y-111685616D01*
X164117457Y-111933742D01*
X163956266Y-112153041D01*
X163744227Y-112313357D01*
X163486940Y-112410569D01*
X163190000Y-112440556D01*
X163149017Y-112439405D01*
X162854042Y-112395480D01*
X162608811Y-112289196D01*
X162412103Y-112119824D01*
X162262699Y-111886635D01*
X162260291Y-111881556D01*
X162212359Y-111766749D01*
X162185660Y-111657417D01*
X162175807Y-111525204D01*
X162178415Y-111341757D01*
X162179871Y-111301481D01*
X162190485Y-111134093D01*
X162211225Y-111013941D01*
X162248820Y-110913606D01*
X162310000Y-110805672D01*
X162377567Y-110701754D01*
X162462182Y-110598284D01*
X162534642Y-110558880D01*
X162607912Y-110578349D01*
X162694959Y-110651498D01*
X162820610Y-110777149D01*
X162692182Y-110955981D01*
X162625581Y-111062195D01*
X162546559Y-111281310D01*
X162544679Y-111495623D01*
X162619316Y-111697699D01*
X162769845Y-111880102D01*
X162847981Y-111942639D01*
X163047757Y-112039985D01*
X163254205Y-112060795D01*
X163457076Y-112005152D01*
X163646120Y-111873136D01*
X163724380Y-111788410D01*
X163836438Y-111592708D01*
X163871070Y-111384364D01*
X163827838Y-111170088D01*
X163706299Y-110956592D01*
X163670705Y-110909080D01*
X163626839Y-110835551D01*
X163625553Y-110779310D01*
X163661259Y-110709722D01*
X163733785Y-110608711D01*
X163817798Y-110550416D01*
X163902830Y-110564931D01*
G37*
G36*
X159039625Y-115853327D02*
G01*
X159208162Y-115913991D01*
X159334818Y-116022962D01*
X159419779Y-116137878D01*
X159544890Y-116061589D01*
X159549618Y-116058768D01*
X159687063Y-116006061D01*
X159843077Y-115985150D01*
X160010395Y-116014552D01*
X160150293Y-116111731D01*
X160249995Y-116277257D01*
X160309742Y-116511543D01*
X160329777Y-116815000D01*
X160330000Y-117105000D01*
X159750000Y-117105000D01*
X159330000Y-117105000D01*
X158835916Y-117105000D01*
X158330000Y-117105000D01*
X158330000Y-116703716D01*
X158332304Y-116553715D01*
X158332345Y-116553200D01*
X158698355Y-116553200D01*
X158700877Y-116637840D01*
X158742289Y-116684667D01*
X158835916Y-116701809D01*
X158995083Y-116697393D01*
X159190000Y-116685000D01*
X159181208Y-116593000D01*
X159570000Y-116593000D01*
X159570923Y-116631160D01*
X159586738Y-116681160D01*
X159639217Y-116701285D01*
X159750000Y-116705000D01*
X159811328Y-116704426D01*
X159891685Y-116694586D01*
X159924028Y-116661932D01*
X159930000Y-116593000D01*
X159919784Y-116510103D01*
X159859715Y-116417199D01*
X159750000Y-116385000D01*
X159695984Y-116392926D01*
X159618000Y-116433000D01*
X159586209Y-116493056D01*
X159570000Y-116593000D01*
X159181208Y-116593000D01*
X159176621Y-116545000D01*
X159162269Y-116473703D01*
X159104037Y-116351482D01*
X159020192Y-116260608D01*
X158929227Y-116225000D01*
X158871998Y-116241803D01*
X158794490Y-116300039D01*
X158790311Y-116304877D01*
X158737820Y-116399862D01*
X158703172Y-116519331D01*
X158698355Y-116553200D01*
X158332345Y-116553200D01*
X158349924Y-116334698D01*
X158388427Y-116171811D01*
X158451994Y-116050505D01*
X158544805Y-115956233D01*
X158670245Y-115884803D01*
X158852541Y-115842940D01*
X159039625Y-115853327D01*
G37*
G36*
X162919625Y-115853327D02*
G01*
X163088162Y-115913991D01*
X163214818Y-116022962D01*
X163299779Y-116137878D01*
X163424890Y-116061589D01*
X163429618Y-116058768D01*
X163567063Y-116006061D01*
X163723077Y-115985150D01*
X163890395Y-116014552D01*
X164030293Y-116111731D01*
X164129995Y-116277257D01*
X164189742Y-116511543D01*
X164209777Y-116815000D01*
X164210000Y-117105000D01*
X163630000Y-117105000D01*
X163210000Y-117105000D01*
X162715916Y-117105000D01*
X162210000Y-117105000D01*
X162210000Y-116703716D01*
X162212304Y-116553715D01*
X162212345Y-116553200D01*
X162578355Y-116553200D01*
X162580877Y-116637840D01*
X162622289Y-116684667D01*
X162715916Y-116701809D01*
X162875083Y-116697393D01*
X163070000Y-116685000D01*
X163061208Y-116593000D01*
X163450000Y-116593000D01*
X163450923Y-116631160D01*
X163466738Y-116681160D01*
X163519217Y-116701285D01*
X163630000Y-116705000D01*
X163691328Y-116704426D01*
X163771685Y-116694586D01*
X163804028Y-116661932D01*
X163810000Y-116593000D01*
X163799784Y-116510103D01*
X163739715Y-116417199D01*
X163630000Y-116385000D01*
X163575984Y-116392926D01*
X163498000Y-116433000D01*
X163466209Y-116493056D01*
X163450000Y-116593000D01*
X163061208Y-116593000D01*
X163056621Y-116545000D01*
X163042269Y-116473703D01*
X162984037Y-116351482D01*
X162900192Y-116260608D01*
X162809227Y-116225000D01*
X162751998Y-116241803D01*
X162674490Y-116300039D01*
X162670311Y-116304877D01*
X162617820Y-116399862D01*
X162583172Y-116519331D01*
X162578355Y-116553200D01*
X162212345Y-116553200D01*
X162229924Y-116334698D01*
X162268427Y-116171811D01*
X162331994Y-116050505D01*
X162424805Y-115956233D01*
X162550245Y-115884803D01*
X162732541Y-115842940D01*
X162919625Y-115853327D01*
G37*
G36*
X159901551Y-120160776D02*
G01*
X160013549Y-120201701D01*
X160128980Y-120279543D01*
X160215889Y-120372566D01*
X160250613Y-120460455D01*
X160260637Y-120540961D01*
X160301861Y-120585124D01*
X160385583Y-120577619D01*
X160523038Y-120520940D01*
X160623222Y-120477892D01*
X160855089Y-120407130D01*
X161084763Y-120370548D01*
X161280748Y-120374245D01*
X161379464Y-120402690D01*
X161516615Y-120491303D01*
X161613367Y-120615547D01*
X161650000Y-120755080D01*
X161649137Y-120794664D01*
X161635599Y-120905973D01*
X161601227Y-121027403D01*
X161540359Y-121173213D01*
X161447334Y-121357659D01*
X161316491Y-121595000D01*
X161073678Y-122025000D01*
X160407065Y-122025000D01*
X159341839Y-122025000D01*
X159104730Y-122024742D01*
X158882177Y-122023869D01*
X158757001Y-122023378D01*
X158440440Y-122020957D01*
X158163185Y-122017608D01*
X157933374Y-122013460D01*
X157759148Y-122008642D01*
X157648644Y-122003284D01*
X157610000Y-121997515D01*
X157611732Y-121991309D01*
X157640673Y-121930014D01*
X157699789Y-121816630D01*
X157781944Y-121664637D01*
X157836129Y-121566761D01*
X158290000Y-121566761D01*
X158298618Y-121569861D01*
X158369130Y-121575841D01*
X158499172Y-121580644D01*
X158674827Y-121583840D01*
X158882177Y-121585000D01*
X159474354Y-121585000D01*
X159493190Y-121548064D01*
X159930000Y-121548064D01*
X159966656Y-121562376D01*
X160068416Y-121574169D01*
X160220235Y-121582098D01*
X160407065Y-121585000D01*
X160884129Y-121585000D01*
X161007025Y-121370202D01*
X161013063Y-121359588D01*
X161115164Y-121149035D01*
X161154845Y-120987570D01*
X161131884Y-120874012D01*
X161046058Y-120807176D01*
X160897143Y-120785879D01*
X160738411Y-120806021D01*
X160511196Y-120901274D01*
X160288473Y-121072704D01*
X160073720Y-121318064D01*
X160010092Y-121407379D01*
X159952288Y-121498430D01*
X159930000Y-121548064D01*
X159493190Y-121548064D01*
X159622243Y-121295000D01*
X159706126Y-121122867D01*
X159771143Y-120960031D01*
X159796231Y-120838467D01*
X159783912Y-120744264D01*
X159736708Y-120663506D01*
X159718046Y-120641652D01*
X159656971Y-120593363D01*
X159573018Y-120572442D01*
X159437922Y-120570048D01*
X159293248Y-120584134D01*
X159052396Y-120662744D01*
X158828204Y-120812438D01*
X158616771Y-121036137D01*
X158414197Y-121336761D01*
X158357214Y-121435965D01*
X158308666Y-121525348D01*
X158290000Y-121566761D01*
X157836129Y-121566761D01*
X157880000Y-121487515D01*
X158009243Y-121267836D01*
X158230277Y-120947791D01*
X158458419Y-120691293D01*
X158703243Y-120488198D01*
X158974326Y-120328364D01*
X159010257Y-120311102D01*
X159320729Y-120196943D01*
X159623262Y-120145852D01*
X159901551Y-120160776D01*
G37*
G36*
X158676115Y-125139473D02*
G01*
X158967552Y-125203282D01*
X159261361Y-125329579D01*
X159536383Y-125510055D01*
X159694991Y-125635676D01*
X159757724Y-125546113D01*
X159799411Y-125495822D01*
X159949621Y-125397154D01*
X160148226Y-125354978D01*
X160388436Y-125370066D01*
X160663461Y-125443189D01*
X160788615Y-125492050D01*
X161014492Y-125611288D01*
X161218942Y-125768464D01*
X161412064Y-125973524D01*
X161603957Y-126236413D01*
X161804720Y-126567075D01*
X161867692Y-126679497D01*
X161941186Y-126814882D01*
X161991405Y-126912696D01*
X162010000Y-126957075D01*
X161993642Y-126960906D01*
X161907600Y-126966511D01*
X161754957Y-126971614D01*
X161543851Y-126976083D01*
X161282419Y-126979788D01*
X161135855Y-126981143D01*
X160978798Y-126982596D01*
X160641124Y-126984378D01*
X160277536Y-126985000D01*
X158771004Y-126985000D01*
X158545072Y-126985000D01*
X158279409Y-126515000D01*
X158265265Y-126489931D01*
X158161437Y-126303148D01*
X158068394Y-126131306D01*
X157995831Y-125992543D01*
X157953439Y-125905000D01*
X157921108Y-125813086D01*
X157916546Y-125773864D01*
X158412741Y-125773864D01*
X158434650Y-125943243D01*
X158518838Y-126158142D01*
X158665000Y-126417080D01*
X158771004Y-126585000D01*
X159328142Y-126585000D01*
X159395292Y-126584771D01*
X159590073Y-126581333D01*
X159749939Y-126574406D01*
X159859863Y-126564815D01*
X159904819Y-126553384D01*
X159906533Y-126530542D01*
X159875197Y-126449997D01*
X159807879Y-126333607D01*
X159715149Y-126197473D01*
X159607581Y-126057697D01*
X159531676Y-125971283D01*
X160139260Y-125971283D01*
X160143702Y-126044946D01*
X160183254Y-126151280D01*
X160260000Y-126308794D01*
X160390000Y-126565000D01*
X160860000Y-126576270D01*
X160956225Y-126578253D01*
X161135855Y-126578731D01*
X161250870Y-126572394D01*
X161312007Y-126558312D01*
X161330000Y-126535555D01*
X161329195Y-126524366D01*
X161293097Y-126430376D01*
X161214021Y-126304513D01*
X161106669Y-126164740D01*
X160985745Y-126029020D01*
X160865950Y-125915315D01*
X160761987Y-125841588D01*
X160620964Y-125795663D01*
X160461338Y-125784968D01*
X160314183Y-125808512D01*
X160210000Y-125865000D01*
X160167841Y-125911779D01*
X160139260Y-125971283D01*
X159531676Y-125971283D01*
X159495746Y-125930379D01*
X159429130Y-125865116D01*
X159232942Y-125714870D01*
X159027286Y-125609250D01*
X158826700Y-125552968D01*
X158645725Y-125550736D01*
X158498901Y-125607269D01*
X158453414Y-125651489D01*
X158412741Y-125773864D01*
X157916546Y-125773864D01*
X157897957Y-125614055D01*
X157936334Y-125431759D01*
X158031243Y-125282309D01*
X158177688Y-125181816D01*
X158268224Y-125157845D01*
X158416054Y-125139035D01*
X158577514Y-125133424D01*
X158676115Y-125139473D01*
G37*
G36*
X163237549Y-118631545D02*
G01*
X163482833Y-118633229D01*
X163680006Y-118635985D01*
X163834601Y-118639924D01*
X163952146Y-118645161D01*
X164038171Y-118651806D01*
X164098208Y-118659974D01*
X164137785Y-118669777D01*
X164162432Y-118681328D01*
X164177681Y-118694739D01*
X164181884Y-118700227D01*
X164223219Y-118764471D01*
X164298499Y-118888396D01*
X164403042Y-119064053D01*
X164532164Y-119283491D01*
X164681183Y-119538761D01*
X164845416Y-119821914D01*
X165020181Y-120125000D01*
X165165284Y-120377302D01*
X165374387Y-120740688D01*
X165588043Y-121111789D01*
X165797373Y-121475186D01*
X165993495Y-121815465D01*
X166167528Y-122117209D01*
X166310591Y-122365000D01*
X166413412Y-122543024D01*
X166555744Y-122789679D01*
X166686467Y-123016468D01*
X166798472Y-123211046D01*
X166884646Y-123361065D01*
X166937881Y-123454178D01*
X167056709Y-123663356D01*
X166218173Y-125114178D01*
X166030153Y-125439511D01*
X165806048Y-125827336D01*
X165575898Y-126225669D01*
X165348921Y-126618554D01*
X165134333Y-126990041D01*
X164941350Y-127324174D01*
X164855725Y-127472457D01*
X164779189Y-127605000D01*
X164567946Y-127970882D01*
X164178742Y-128645000D01*
X161263043Y-128655258D01*
X159399529Y-128661814D01*
X158347344Y-128665515D01*
X158122000Y-128275258D01*
X158068884Y-128183239D01*
X157975616Y-128021615D01*
X157850567Y-127804887D01*
X157698052Y-127540534D01*
X157522386Y-127236037D01*
X157327883Y-126898874D01*
X157118859Y-126536524D01*
X156899628Y-126156468D01*
X156674505Y-125766183D01*
X156617706Y-125667698D01*
X156373136Y-125243112D01*
X156165445Y-124881322D01*
X155997371Y-124586767D01*
X156411199Y-124586767D01*
X156412120Y-124623388D01*
X156427497Y-124678417D01*
X156460604Y-124758168D01*
X156514710Y-124868952D01*
X156593087Y-125017085D01*
X156699006Y-125208880D01*
X156835738Y-125450651D01*
X157006554Y-125748711D01*
X157214726Y-126109373D01*
X157306783Y-126268403D01*
X157482383Y-126571064D01*
X157644288Y-126849229D01*
X157788122Y-127095430D01*
X157909506Y-127302200D01*
X158004062Y-127462070D01*
X158067412Y-127567572D01*
X158095178Y-127611239D01*
X158135090Y-127641410D01*
X158234522Y-127705467D01*
X158380827Y-127795055D01*
X158562169Y-127902936D01*
X158766711Y-128021873D01*
X159399529Y-128385858D01*
X161130254Y-128375429D01*
X162860980Y-128365000D01*
X163060164Y-128014729D01*
X163259348Y-127664458D01*
X162979222Y-127174729D01*
X162831460Y-126916805D01*
X162644979Y-126592296D01*
X162458320Y-126268467D01*
X162277182Y-125955139D01*
X162107264Y-125662138D01*
X161954264Y-125399287D01*
X161823882Y-125176410D01*
X161721817Y-125003332D01*
X161653767Y-124889875D01*
X161607125Y-124816085D01*
X161552702Y-124742421D01*
X161488705Y-124676298D01*
X161403111Y-124608349D01*
X161283899Y-124529207D01*
X161119046Y-124429505D01*
X160896530Y-124299875D01*
X160283059Y-123945000D01*
X158528294Y-123945000D01*
X156776455Y-123945000D01*
X156773529Y-123945000D01*
X156617210Y-124215000D01*
X156606247Y-124233958D01*
X156525626Y-124374576D01*
X156457965Y-124494520D01*
X156416940Y-124569579D01*
X156411199Y-124586767D01*
X155997371Y-124586767D01*
X155991853Y-124577097D01*
X155849578Y-124325205D01*
X155735839Y-124120413D01*
X155647856Y-123957490D01*
X155582846Y-123831202D01*
X155538029Y-123736319D01*
X155510623Y-123667607D01*
X155497847Y-123619836D01*
X155496920Y-123587772D01*
X155505061Y-123566183D01*
X155517133Y-123546438D01*
X155567724Y-123460728D01*
X155590538Y-123421650D01*
X162012009Y-123421650D01*
X162012037Y-123686100D01*
X162014074Y-124445000D01*
X162862037Y-125913632D01*
X163710000Y-127382263D01*
X164138973Y-127383632D01*
X164567946Y-127385000D01*
X164626130Y-127272486D01*
X164643951Y-127234117D01*
X164652869Y-127190563D01*
X164644797Y-127136602D01*
X164615023Y-127060523D01*
X164558831Y-126950617D01*
X164471508Y-126795175D01*
X164348339Y-126582486D01*
X164012365Y-126005000D01*
X164011183Y-123738914D01*
X164010000Y-121472827D01*
X163740000Y-121002241D01*
X163713905Y-120957033D01*
X163613813Y-120788754D01*
X163527035Y-120650570D01*
X163462117Y-120555742D01*
X163427606Y-120517529D01*
X163408785Y-120526618D01*
X163354448Y-120589835D01*
X163279455Y-120700381D01*
X163194125Y-120843833D01*
X163003040Y-121184262D01*
X163157748Y-121454631D01*
X163170414Y-121476408D01*
X163256406Y-121608681D01*
X163337845Y-121711217D01*
X163398617Y-121763361D01*
X163429073Y-121780160D01*
X163507613Y-121866294D01*
X163551903Y-121983297D01*
X163562194Y-122110418D01*
X163538736Y-122226909D01*
X163481781Y-122312019D01*
X163391580Y-122345000D01*
X163370000Y-122341076D01*
X163310844Y-122330320D01*
X163235258Y-122256407D01*
X163210000Y-122120514D01*
X163198011Y-122065000D01*
X163330000Y-122065000D01*
X163331163Y-122074562D01*
X163370000Y-122105000D01*
X163379562Y-122103838D01*
X163410000Y-122065000D01*
X163408838Y-122055439D01*
X163370000Y-122025000D01*
X163360439Y-122026163D01*
X163330000Y-122065000D01*
X163198011Y-122065000D01*
X163196110Y-122056199D01*
X163154912Y-121944947D01*
X163095813Y-121809999D01*
X163028352Y-121670943D01*
X162962073Y-121547367D01*
X162906514Y-121458857D01*
X162871218Y-121425000D01*
X162865005Y-121431090D01*
X162827704Y-121485563D01*
X162768748Y-121579339D01*
X162700818Y-121691334D01*
X162636596Y-121800465D01*
X162588763Y-121885648D01*
X162570000Y-121925798D01*
X162575421Y-121943801D01*
X162614099Y-122021917D01*
X162683345Y-122146188D01*
X162775288Y-122303808D01*
X162882053Y-122481969D01*
X162995770Y-122667860D01*
X163108566Y-122848675D01*
X163212568Y-123011605D01*
X163299905Y-123143841D01*
X163362705Y-123232576D01*
X163393095Y-123265000D01*
X163406550Y-123265912D01*
X163482952Y-123311132D01*
X163536456Y-123407874D01*
X163561877Y-123533026D01*
X163554030Y-123663472D01*
X163507732Y-123776100D01*
X163465753Y-123822433D01*
X163390609Y-123852213D01*
X163378424Y-123857042D01*
X163295800Y-123827623D01*
X163234015Y-123743037D01*
X163209202Y-123612143D01*
X163206359Y-123592779D01*
X163188633Y-123542640D01*
X163330000Y-123542640D01*
X163331526Y-123553862D01*
X163370000Y-123605000D01*
X163390609Y-123608763D01*
X163410000Y-123567361D01*
X163405105Y-123537559D01*
X163370000Y-123505000D01*
X163360510Y-123506078D01*
X163330000Y-123542640D01*
X163188633Y-123542640D01*
X163174666Y-123503136D01*
X163113606Y-123368001D01*
X163030390Y-123200392D01*
X162932229Y-123013327D01*
X162826336Y-122819825D01*
X162719921Y-122632904D01*
X162620196Y-122465584D01*
X162534372Y-122330883D01*
X162469662Y-122241818D01*
X162433276Y-122211409D01*
X162397844Y-122245431D01*
X162337796Y-122331764D01*
X162266894Y-122451224D01*
X162137236Y-122685000D01*
X162714434Y-123685000D01*
X162745340Y-123738441D01*
X162894189Y-123992874D01*
X163031841Y-124223511D01*
X163152639Y-124421198D01*
X163250922Y-124576779D01*
X163321031Y-124681098D01*
X163357306Y-124725000D01*
X163472895Y-124818222D01*
X163556993Y-124956762D01*
X163569845Y-125107098D01*
X163507732Y-125256100D01*
X163459438Y-125309054D01*
X163371951Y-125343142D01*
X163370000Y-125342381D01*
X163291597Y-125311808D01*
X163232804Y-125223301D01*
X163210000Y-125085869D01*
X163203945Y-125065000D01*
X163330000Y-125065000D01*
X163331163Y-125074562D01*
X163370000Y-125105000D01*
X163379562Y-125103838D01*
X163410000Y-125065000D01*
X163408838Y-125055439D01*
X163370000Y-125025000D01*
X163360439Y-125026163D01*
X163330000Y-125065000D01*
X163203945Y-125065000D01*
X163201930Y-125058054D01*
X163160138Y-124964826D01*
X163088031Y-124820300D01*
X162991603Y-124635357D01*
X162876850Y-124420872D01*
X162749764Y-124187725D01*
X162616341Y-123946794D01*
X162482575Y-123708956D01*
X162354459Y-123485090D01*
X162237988Y-123286073D01*
X162139157Y-123122784D01*
X162063960Y-123006100D01*
X162055338Y-122995045D01*
X162038665Y-122989916D01*
X162026659Y-123021321D01*
X162018657Y-123097951D01*
X162013995Y-123228497D01*
X162012009Y-123421650D01*
X155590538Y-123421650D01*
X155651364Y-123317463D01*
X155763626Y-123124276D01*
X155900083Y-122888802D01*
X156021913Y-122678146D01*
X156370977Y-122678146D01*
X156380289Y-122695783D01*
X156422005Y-122769852D01*
X156489481Y-122887908D01*
X156574204Y-123035000D01*
X156776455Y-123385000D01*
X158516690Y-123385000D01*
X160256924Y-123385000D01*
X160893581Y-123019239D01*
X161530239Y-122653477D01*
X161984251Y-121869239D01*
X162139863Y-121600231D01*
X162324641Y-121280413D01*
X162514486Y-120951493D01*
X162694332Y-120639574D01*
X162849113Y-120370758D01*
X162962860Y-120173014D01*
X163612216Y-120173014D01*
X163619144Y-120190430D01*
X163659533Y-120267847D01*
X163729864Y-120394244D01*
X163823104Y-120557074D01*
X163932216Y-120743790D01*
X164250000Y-121282579D01*
X164250000Y-123545713D01*
X164250000Y-125808847D01*
X164539527Y-126316924D01*
X164585457Y-126396940D01*
X164684806Y-126565826D01*
X164768053Y-126701638D01*
X164827570Y-126792117D01*
X164855725Y-126825000D01*
X164859818Y-126823441D01*
X164898389Y-126778424D01*
X164960724Y-126685022D01*
X165035999Y-126561895D01*
X165113388Y-126427703D01*
X165182068Y-126301105D01*
X165231213Y-126200760D01*
X165250000Y-126145329D01*
X165230821Y-126072266D01*
X165175426Y-125956007D01*
X165097743Y-125822903D01*
X165011847Y-125695267D01*
X164931814Y-125595413D01*
X164890000Y-125560790D01*
X164871720Y-125545654D01*
X164835392Y-125525353D01*
X164760007Y-125432997D01*
X164716678Y-125306491D01*
X164717321Y-125265000D01*
X164850000Y-125265000D01*
X164851163Y-125274562D01*
X164890000Y-125305000D01*
X164899562Y-125303838D01*
X164930000Y-125265000D01*
X164928838Y-125255439D01*
X164890000Y-125225000D01*
X164880439Y-125226163D01*
X164850000Y-125265000D01*
X164717321Y-125265000D01*
X164718673Y-125177728D01*
X164724944Y-125155964D01*
X164772756Y-125057734D01*
X164837077Y-124977927D01*
X164896200Y-124945000D01*
X164937481Y-124957752D01*
X165009168Y-125024935D01*
X165066531Y-125124726D01*
X165090000Y-125228501D01*
X165093154Y-125257313D01*
X165122846Y-125357607D01*
X165175480Y-125485620D01*
X165240766Y-125620859D01*
X165308412Y-125742831D01*
X165368129Y-125831043D01*
X165409625Y-125865000D01*
X165446743Y-125832984D01*
X165504053Y-125750240D01*
X165568755Y-125639552D01*
X165628355Y-125523707D01*
X165670360Y-125425494D01*
X165682274Y-125367702D01*
X165663444Y-125326550D01*
X165610150Y-125225555D01*
X165529265Y-125078274D01*
X165427447Y-124896817D01*
X165311358Y-124693292D01*
X165195764Y-124495183D01*
X165074508Y-124297666D01*
X164981439Y-124161122D01*
X164912379Y-124079526D01*
X164890000Y-124064674D01*
X164863152Y-124046856D01*
X164820696Y-124027388D01*
X164757890Y-123947853D01*
X164725683Y-123833101D01*
X164724370Y-123765000D01*
X164850000Y-123765000D01*
X164854513Y-123792602D01*
X164890000Y-123825000D01*
X164908402Y-123818231D01*
X164930000Y-123765000D01*
X164925488Y-123737399D01*
X164890000Y-123705000D01*
X164871599Y-123711770D01*
X164850000Y-123765000D01*
X164724370Y-123765000D01*
X164723218Y-123705287D01*
X164749636Y-123586563D01*
X164804080Y-123499083D01*
X164885691Y-123465000D01*
X164914083Y-123468578D01*
X165000932Y-123524502D01*
X165065406Y-123630572D01*
X165091728Y-123763901D01*
X165104591Y-123814728D01*
X165151394Y-123926251D01*
X165225040Y-124078036D01*
X165317707Y-124256100D01*
X165421577Y-124446464D01*
X165528831Y-124635145D01*
X165631650Y-124808164D01*
X165722214Y-124951539D01*
X165792705Y-125051290D01*
X165835303Y-125093435D01*
X165875223Y-125070008D01*
X165938495Y-124992376D01*
X166010768Y-124877481D01*
X166141129Y-124646494D01*
X166050439Y-124485747D01*
X165968998Y-124341627D01*
X165702235Y-123873420D01*
X165472056Y-123476000D01*
X165278329Y-123149153D01*
X165120925Y-122892666D01*
X164999714Y-122706326D01*
X164914565Y-122589919D01*
X164890000Y-122566616D01*
X164865350Y-122543232D01*
X164851006Y-122537538D01*
X164769814Y-122485136D01*
X164729796Y-122400481D01*
X164719423Y-122265000D01*
X164850000Y-122265000D01*
X164851163Y-122274562D01*
X164890000Y-122305000D01*
X164899562Y-122303838D01*
X164930000Y-122265000D01*
X164928838Y-122255439D01*
X164890000Y-122225000D01*
X164880439Y-122226163D01*
X164850000Y-122265000D01*
X164719423Y-122265000D01*
X164719091Y-122260665D01*
X164719205Y-122247670D01*
X164744873Y-122097476D01*
X164814193Y-122011773D01*
X164925304Y-121992978D01*
X164960826Y-121999775D01*
X165022866Y-122043926D01*
X165060742Y-122145000D01*
X165061147Y-122146702D01*
X165093743Y-122274758D01*
X165125463Y-122386848D01*
X165135358Y-122411401D01*
X165181118Y-122503421D01*
X165256358Y-122643831D01*
X165354849Y-122821882D01*
X165470363Y-123026826D01*
X165596673Y-123247917D01*
X165727551Y-123474406D01*
X165856769Y-123695545D01*
X165978101Y-123900588D01*
X166085317Y-124078785D01*
X166172191Y-124219391D01*
X166232495Y-124311655D01*
X166260000Y-124344833D01*
X166268573Y-124315354D01*
X166277134Y-124217683D01*
X166283921Y-124063978D01*
X166288390Y-123866986D01*
X166290000Y-123639452D01*
X166290000Y-122933904D01*
X165874349Y-122209452D01*
X165600700Y-121732982D01*
X165341817Y-121283333D01*
X165118761Y-120897203D01*
X164932126Y-120575612D01*
X164782505Y-120319577D01*
X164670491Y-120130117D01*
X164596678Y-120008252D01*
X164561658Y-119955000D01*
X164559234Y-119952391D01*
X164489934Y-119925867D01*
X164346420Y-119910168D01*
X164126130Y-119905000D01*
X163732055Y-119905000D01*
X163671028Y-120023014D01*
X163667699Y-120029506D01*
X163627528Y-120118454D01*
X163612216Y-120173014D01*
X162962860Y-120173014D01*
X163259963Y-119656516D01*
X163167364Y-119490758D01*
X163141054Y-119443922D01*
X163054289Y-119291517D01*
X162969591Y-119145000D01*
X162864418Y-118965000D01*
X161117408Y-118954580D01*
X159370397Y-118944160D01*
X158732341Y-119314580D01*
X158094284Y-119685000D01*
X157655430Y-120445000D01*
X157520430Y-120678794D01*
X157335087Y-120999782D01*
X157141363Y-121335293D01*
X156955387Y-121657392D01*
X156793288Y-121938146D01*
X156749208Y-122014541D01*
X156628322Y-122224552D01*
X156524236Y-122406116D01*
X156442771Y-122549034D01*
X156389745Y-122643110D01*
X156370977Y-122678146D01*
X156021913Y-122678146D01*
X156056307Y-122618675D01*
X156227872Y-122321530D01*
X156410351Y-122005000D01*
X156417392Y-121992778D01*
X156626196Y-121630522D01*
X156845706Y-121250036D01*
X157067489Y-120865915D01*
X157283111Y-120492756D01*
X157484138Y-120145154D01*
X157662138Y-119837704D01*
X157808676Y-119585000D01*
X158354418Y-118645000D01*
X161235773Y-118634739D01*
X161664721Y-118633262D01*
X162157742Y-118631790D01*
X162580534Y-118630938D01*
X162938626Y-118630818D01*
X163237549Y-118631545D01*
G37*
%TD*%
M02*
