%TF.GenerationSoftware,KiCad,Pcbnew,7.0.8*%
%TF.CreationDate,2025-03-27T12:51:53-03:00*%
%TF.ProjectId,on_off_module_x1,6f6e5f6f-6666-45f6-9d6f-64756c655f78,2.0*%
%TF.SameCoordinates,Original*%
%TF.FileFunction,Legend,Top*%
%TF.FilePolarity,Positive*%
%FSLAX46Y46*%
G04 Gerber Fmt 4.6, Leading zero omitted, Abs format (unit mm)*
G04 Created by KiCad (PCBNEW 7.0.8) date 2025-03-27 12:51:53*
%MOMM*%
%LPD*%
G01*
G04 APERTURE LIST*
%ADD10C,0.350000*%
%ADD11C,0.050000*%
%ADD12C,0.200000*%
%ADD13C,0.150000*%
%ADD14C,0.120000*%
%ADD15C,0.100000*%
%ADD16C,0.152400*%
G04 APERTURE END LIST*
D10*
X163533000Y-89035001D02*
X164533000Y-88035001D01*
D11*
X161487200Y-65021799D02*
X161944400Y-65021799D01*
X161944400Y-68171399D01*
X161487200Y-68171399D01*
X161487200Y-65021799D01*
G36*
X161487200Y-65021799D02*
G01*
X161944400Y-65021799D01*
X161944400Y-68171399D01*
X161487200Y-68171399D01*
X161487200Y-65021799D01*
G37*
X135121600Y-66799799D02*
X139109400Y-66799799D01*
X139109400Y-68171399D01*
X135121600Y-68171399D01*
X135121600Y-66799799D01*
G36*
X135121600Y-66799799D02*
G01*
X139109400Y-66799799D01*
X139109400Y-68171399D01*
X135121600Y-68171399D01*
X135121600Y-66799799D01*
G37*
X149612500Y-65021799D02*
X150526900Y-65021799D01*
X150526900Y-68171399D01*
X149612500Y-68171399D01*
X149612500Y-65021799D01*
G36*
X149612500Y-65021799D02*
G01*
X150526900Y-65021799D01*
X150526900Y-68171399D01*
X149612500Y-68171399D01*
X149612500Y-65021799D01*
G37*
X146539100Y-65021799D02*
X147504300Y-65021799D01*
X147504300Y-68171399D01*
X146539100Y-68171399D01*
X146539100Y-65021799D01*
G36*
X146539100Y-65021799D02*
G01*
X147504300Y-65021799D01*
X147504300Y-68171399D01*
X146539100Y-68171399D01*
X146539100Y-65021799D01*
G37*
D10*
X148783000Y-91035001D02*
X146060639Y-93757362D01*
X145070689Y-94747312D02*
X143033000Y-96785001D01*
D11*
X135121600Y-65021799D02*
X136391600Y-65021799D01*
X136391600Y-68171399D01*
X135121600Y-68171399D01*
X135121600Y-65021799D01*
G36*
X135121600Y-65021799D02*
G01*
X136391600Y-65021799D01*
X136391600Y-68171399D01*
X135121600Y-68171399D01*
X135121600Y-65021799D01*
G37*
D10*
X165283000Y-87285001D02*
X165283000Y-83435001D01*
X165283000Y-82035001D02*
X165283000Y-78185001D01*
X165283000Y-76785001D02*
X165283000Y-72935001D01*
X165283000Y-71535001D02*
X165283000Y-67685001D01*
X165283000Y-66285001D02*
X165283000Y-65535001D01*
X136783000Y-121535001D02*
X139505361Y-118812640D01*
X140495311Y-117822690D02*
X142033000Y-116285001D01*
D11*
X135121600Y-65021799D02*
X139109400Y-65021799D01*
X139109400Y-65478999D01*
X135121600Y-65478999D01*
X135121600Y-65021799D01*
G36*
X135121600Y-65021799D02*
G01*
X139109400Y-65021799D01*
X139109400Y-65478999D01*
X135121600Y-65478999D01*
X135121600Y-65021799D01*
G37*
X157956600Y-65021799D02*
X161944400Y-65021799D01*
X161944400Y-65478999D01*
X157956600Y-65478999D01*
X157956600Y-65021799D01*
G36*
X157956600Y-65021799D02*
G01*
X161944400Y-65021799D01*
X161944400Y-65478999D01*
X157956600Y-65478999D01*
X157956600Y-65021799D01*
G37*
D10*
X135283000Y-128535000D02*
G75*
G03*
X136783000Y-127035057I0J1500000D01*
G01*
X142033000Y-97785001D02*
X142033000Y-101635001D01*
X142033000Y-103035001D02*
X142033000Y-106885001D01*
X142033000Y-108285001D02*
X142033000Y-112135001D01*
X142033000Y-113535001D02*
X142033000Y-116285001D01*
D11*
X146539100Y-65021799D02*
X150526900Y-65021799D01*
X150526900Y-65478999D01*
X146539100Y-65478999D01*
X146539100Y-65021799D01*
G36*
X146539100Y-65021799D02*
G01*
X150526900Y-65021799D01*
X150526900Y-65478999D01*
X146539100Y-65478999D01*
X146539100Y-65021799D01*
G37*
D10*
X131532999Y-122785001D02*
G75*
G03*
X130033000Y-121285001I-1500099J-99D01*
G01*
D11*
X146539100Y-66799799D02*
X150526900Y-66799799D01*
X150526900Y-68171399D01*
X146539100Y-68171399D01*
X146539100Y-66799799D01*
G36*
X146539100Y-66799799D02*
G01*
X150526900Y-66799799D01*
X150526900Y-68171399D01*
X146539100Y-68171399D01*
X146539100Y-66799799D01*
G37*
D10*
X131532999Y-127035001D02*
G75*
G03*
X133032944Y-128535001I1500001J1D01*
G01*
D11*
X137839400Y-65021799D02*
X139109400Y-65021799D01*
X139109400Y-68171399D01*
X137839400Y-68171399D01*
X137839400Y-65021799D01*
G36*
X137839400Y-65021799D02*
G01*
X139109400Y-65021799D01*
X139109400Y-68171399D01*
X137839400Y-68171399D01*
X137839400Y-65021799D01*
G37*
X157956600Y-65021799D02*
X158515400Y-65021799D01*
X158515400Y-68171399D01*
X157956600Y-68171399D01*
X157956600Y-65021799D01*
G36*
X157956600Y-65021799D02*
G01*
X158515400Y-65021799D01*
X158515400Y-68171399D01*
X157956600Y-68171399D01*
X157956600Y-65021799D01*
G37*
D10*
X136783000Y-125785001D02*
X136783000Y-122785001D01*
X162533000Y-90035001D02*
X158683000Y-90035001D01*
X157283000Y-90035001D02*
X153433000Y-90035001D01*
X152033000Y-90035001D02*
X149783000Y-90035001D01*
D11*
X157956600Y-66799799D02*
X161944400Y-66799799D01*
X161944400Y-68171399D01*
X157956600Y-68171399D01*
X157956600Y-66799799D01*
G36*
X157956600Y-66799799D02*
G01*
X161944400Y-66799799D01*
X161944400Y-68171399D01*
X157956600Y-68171399D01*
X157956600Y-66799799D01*
G37*
D10*
X131533000Y-125785001D02*
X131533000Y-124035001D01*
X128533000Y-121285001D02*
X125783000Y-121285001D01*
D12*
X145438387Y-97152220D02*
X145438387Y-97866505D01*
X145438387Y-97866505D02*
X145390768Y-98009362D01*
X145390768Y-98009362D02*
X145295530Y-98104601D01*
X145295530Y-98104601D02*
X145152673Y-98152220D01*
X145152673Y-98152220D02*
X145057435Y-98152220D01*
X146390768Y-98152220D02*
X145914578Y-98152220D01*
X145914578Y-98152220D02*
X145914578Y-97152220D01*
X147295530Y-98056981D02*
X147247911Y-98104601D01*
X147247911Y-98104601D02*
X147105054Y-98152220D01*
X147105054Y-98152220D02*
X147009816Y-98152220D01*
X147009816Y-98152220D02*
X146866959Y-98104601D01*
X146866959Y-98104601D02*
X146771721Y-98009362D01*
X146771721Y-98009362D02*
X146724102Y-97914124D01*
X146724102Y-97914124D02*
X146676483Y-97723648D01*
X146676483Y-97723648D02*
X146676483Y-97580791D01*
X146676483Y-97580791D02*
X146724102Y-97390315D01*
X146724102Y-97390315D02*
X146771721Y-97295077D01*
X146771721Y-97295077D02*
X146866959Y-97199839D01*
X146866959Y-97199839D02*
X147009816Y-97152220D01*
X147009816Y-97152220D02*
X147105054Y-97152220D01*
X147105054Y-97152220D02*
X147247911Y-97199839D01*
X147247911Y-97199839D02*
X147295530Y-97247458D01*
X148009816Y-97152220D02*
X148009816Y-97866505D01*
X148009816Y-97866505D02*
X147962197Y-98009362D01*
X147962197Y-98009362D02*
X147866959Y-98104601D01*
X147866959Y-98104601D02*
X147724102Y-98152220D01*
X147724102Y-98152220D02*
X147628864Y-98152220D01*
X148962197Y-98152220D02*
X148486007Y-98152220D01*
X148486007Y-98152220D02*
X148486007Y-97152220D01*
X149866959Y-98056981D02*
X149819340Y-98104601D01*
X149819340Y-98104601D02*
X149676483Y-98152220D01*
X149676483Y-98152220D02*
X149581245Y-98152220D01*
X149581245Y-98152220D02*
X149438388Y-98104601D01*
X149438388Y-98104601D02*
X149343150Y-98009362D01*
X149343150Y-98009362D02*
X149295531Y-97914124D01*
X149295531Y-97914124D02*
X149247912Y-97723648D01*
X149247912Y-97723648D02*
X149247912Y-97580791D01*
X149247912Y-97580791D02*
X149295531Y-97390315D01*
X149295531Y-97390315D02*
X149343150Y-97295077D01*
X149343150Y-97295077D02*
X149438388Y-97199839D01*
X149438388Y-97199839D02*
X149581245Y-97152220D01*
X149581245Y-97152220D02*
X149676483Y-97152220D01*
X149676483Y-97152220D02*
X149819340Y-97199839D01*
X149819340Y-97199839D02*
X149866959Y-97247458D01*
X150581245Y-97152220D02*
X150581245Y-97866505D01*
X150581245Y-97866505D02*
X150533626Y-98009362D01*
X150533626Y-98009362D02*
X150438388Y-98104601D01*
X150438388Y-98104601D02*
X150295531Y-98152220D01*
X150295531Y-98152220D02*
X150200293Y-98152220D01*
X151533626Y-98152220D02*
X151057436Y-98152220D01*
X151057436Y-98152220D02*
X151057436Y-97152220D01*
X152438388Y-98056981D02*
X152390769Y-98104601D01*
X152390769Y-98104601D02*
X152247912Y-98152220D01*
X152247912Y-98152220D02*
X152152674Y-98152220D01*
X152152674Y-98152220D02*
X152009817Y-98104601D01*
X152009817Y-98104601D02*
X151914579Y-98009362D01*
X151914579Y-98009362D02*
X151866960Y-97914124D01*
X151866960Y-97914124D02*
X151819341Y-97723648D01*
X151819341Y-97723648D02*
X151819341Y-97580791D01*
X151819341Y-97580791D02*
X151866960Y-97390315D01*
X151866960Y-97390315D02*
X151914579Y-97295077D01*
X151914579Y-97295077D02*
X152009817Y-97199839D01*
X152009817Y-97199839D02*
X152152674Y-97152220D01*
X152152674Y-97152220D02*
X152247912Y-97152220D01*
X152247912Y-97152220D02*
X152390769Y-97199839D01*
X152390769Y-97199839D02*
X152438388Y-97247458D01*
X153152674Y-97152220D02*
X153152674Y-97866505D01*
X153152674Y-97866505D02*
X153105055Y-98009362D01*
X153105055Y-98009362D02*
X153009817Y-98104601D01*
X153009817Y-98104601D02*
X152866960Y-98152220D01*
X152866960Y-98152220D02*
X152771722Y-98152220D01*
X154105055Y-98152220D02*
X153628865Y-98152220D01*
X153628865Y-98152220D02*
X153628865Y-97152220D01*
X155009817Y-98056981D02*
X154962198Y-98104601D01*
X154962198Y-98104601D02*
X154819341Y-98152220D01*
X154819341Y-98152220D02*
X154724103Y-98152220D01*
X154724103Y-98152220D02*
X154581246Y-98104601D01*
X154581246Y-98104601D02*
X154486008Y-98009362D01*
X154486008Y-98009362D02*
X154438389Y-97914124D01*
X154438389Y-97914124D02*
X154390770Y-97723648D01*
X154390770Y-97723648D02*
X154390770Y-97580791D01*
X154390770Y-97580791D02*
X154438389Y-97390315D01*
X154438389Y-97390315D02*
X154486008Y-97295077D01*
X154486008Y-97295077D02*
X154581246Y-97199839D01*
X154581246Y-97199839D02*
X154724103Y-97152220D01*
X154724103Y-97152220D02*
X154819341Y-97152220D01*
X154819341Y-97152220D02*
X154962198Y-97199839D01*
X154962198Y-97199839D02*
X155009817Y-97247458D01*
D13*
X160142580Y-117701667D02*
X160190200Y-117749286D01*
X160190200Y-117749286D02*
X160237819Y-117892143D01*
X160237819Y-117892143D02*
X160237819Y-117987381D01*
X160237819Y-117987381D02*
X160190200Y-118130238D01*
X160190200Y-118130238D02*
X160094961Y-118225476D01*
X160094961Y-118225476D02*
X159999723Y-118273095D01*
X159999723Y-118273095D02*
X159809247Y-118320714D01*
X159809247Y-118320714D02*
X159666390Y-118320714D01*
X159666390Y-118320714D02*
X159475914Y-118273095D01*
X159475914Y-118273095D02*
X159380676Y-118225476D01*
X159380676Y-118225476D02*
X159285438Y-118130238D01*
X159285438Y-118130238D02*
X159237819Y-117987381D01*
X159237819Y-117987381D02*
X159237819Y-117892143D01*
X159237819Y-117892143D02*
X159285438Y-117749286D01*
X159285438Y-117749286D02*
X159333057Y-117701667D01*
X159237819Y-116796905D02*
X159237819Y-117273095D01*
X159237819Y-117273095D02*
X159714009Y-117320714D01*
X159714009Y-117320714D02*
X159666390Y-117273095D01*
X159666390Y-117273095D02*
X159618771Y-117177857D01*
X159618771Y-117177857D02*
X159618771Y-116939762D01*
X159618771Y-116939762D02*
X159666390Y-116844524D01*
X159666390Y-116844524D02*
X159714009Y-116796905D01*
X159714009Y-116796905D02*
X159809247Y-116749286D01*
X159809247Y-116749286D02*
X160047342Y-116749286D01*
X160047342Y-116749286D02*
X160142580Y-116796905D01*
X160142580Y-116796905D02*
X160190200Y-116844524D01*
X160190200Y-116844524D02*
X160237819Y-116939762D01*
X160237819Y-116939762D02*
X160237819Y-117177857D01*
X160237819Y-117177857D02*
X160190200Y-117273095D01*
X160190200Y-117273095D02*
X160142580Y-117320714D01*
X170302333Y-116645820D02*
X169969000Y-116169629D01*
X169730905Y-116645820D02*
X169730905Y-115645820D01*
X169730905Y-115645820D02*
X170111857Y-115645820D01*
X170111857Y-115645820D02*
X170207095Y-115693439D01*
X170207095Y-115693439D02*
X170254714Y-115741058D01*
X170254714Y-115741058D02*
X170302333Y-115836296D01*
X170302333Y-115836296D02*
X170302333Y-115979153D01*
X170302333Y-115979153D02*
X170254714Y-116074391D01*
X170254714Y-116074391D02*
X170207095Y-116122010D01*
X170207095Y-116122010D02*
X170111857Y-116169629D01*
X170111857Y-116169629D02*
X169730905Y-116169629D01*
X170873762Y-116074391D02*
X170778524Y-116026772D01*
X170778524Y-116026772D02*
X170730905Y-115979153D01*
X170730905Y-115979153D02*
X170683286Y-115883915D01*
X170683286Y-115883915D02*
X170683286Y-115836296D01*
X170683286Y-115836296D02*
X170730905Y-115741058D01*
X170730905Y-115741058D02*
X170778524Y-115693439D01*
X170778524Y-115693439D02*
X170873762Y-115645820D01*
X170873762Y-115645820D02*
X171064238Y-115645820D01*
X171064238Y-115645820D02*
X171159476Y-115693439D01*
X171159476Y-115693439D02*
X171207095Y-115741058D01*
X171207095Y-115741058D02*
X171254714Y-115836296D01*
X171254714Y-115836296D02*
X171254714Y-115883915D01*
X171254714Y-115883915D02*
X171207095Y-115979153D01*
X171207095Y-115979153D02*
X171159476Y-116026772D01*
X171159476Y-116026772D02*
X171064238Y-116074391D01*
X171064238Y-116074391D02*
X170873762Y-116074391D01*
X170873762Y-116074391D02*
X170778524Y-116122010D01*
X170778524Y-116122010D02*
X170730905Y-116169629D01*
X170730905Y-116169629D02*
X170683286Y-116264867D01*
X170683286Y-116264867D02*
X170683286Y-116455343D01*
X170683286Y-116455343D02*
X170730905Y-116550581D01*
X170730905Y-116550581D02*
X170778524Y-116598201D01*
X170778524Y-116598201D02*
X170873762Y-116645820D01*
X170873762Y-116645820D02*
X171064238Y-116645820D01*
X171064238Y-116645820D02*
X171159476Y-116598201D01*
X171159476Y-116598201D02*
X171207095Y-116550581D01*
X171207095Y-116550581D02*
X171254714Y-116455343D01*
X171254714Y-116455343D02*
X171254714Y-116264867D01*
X171254714Y-116264867D02*
X171207095Y-116169629D01*
X171207095Y-116169629D02*
X171159476Y-116122010D01*
X171159476Y-116122010D02*
X171064238Y-116074391D01*
X133289761Y-129695058D02*
X133194523Y-129647439D01*
X133194523Y-129647439D02*
X133099285Y-129552201D01*
X133099285Y-129552201D02*
X132956428Y-129409343D01*
X132956428Y-129409343D02*
X132861190Y-129361724D01*
X132861190Y-129361724D02*
X132765952Y-129361724D01*
X132813571Y-129599820D02*
X132718333Y-129552201D01*
X132718333Y-129552201D02*
X132623095Y-129456962D01*
X132623095Y-129456962D02*
X132575476Y-129266486D01*
X132575476Y-129266486D02*
X132575476Y-128933153D01*
X132575476Y-128933153D02*
X132623095Y-128742677D01*
X132623095Y-128742677D02*
X132718333Y-128647439D01*
X132718333Y-128647439D02*
X132813571Y-128599820D01*
X132813571Y-128599820D02*
X133004047Y-128599820D01*
X133004047Y-128599820D02*
X133099285Y-128647439D01*
X133099285Y-128647439D02*
X133194523Y-128742677D01*
X133194523Y-128742677D02*
X133242142Y-128933153D01*
X133242142Y-128933153D02*
X133242142Y-129266486D01*
X133242142Y-129266486D02*
X133194523Y-129456962D01*
X133194523Y-129456962D02*
X133099285Y-129552201D01*
X133099285Y-129552201D02*
X133004047Y-129599820D01*
X133004047Y-129599820D02*
X132813571Y-129599820D01*
X134194523Y-129599820D02*
X133623095Y-129599820D01*
X133908809Y-129599820D02*
X133908809Y-128599820D01*
X133908809Y-128599820D02*
X133813571Y-128742677D01*
X133813571Y-128742677D02*
X133718333Y-128837915D01*
X133718333Y-128837915D02*
X133623095Y-128885534D01*
X129344905Y-131885820D02*
X129344905Y-130885820D01*
X129344905Y-130885820D02*
X129583000Y-130885820D01*
X129583000Y-130885820D02*
X129725857Y-130933439D01*
X129725857Y-130933439D02*
X129821095Y-131028677D01*
X129821095Y-131028677D02*
X129868714Y-131123915D01*
X129868714Y-131123915D02*
X129916333Y-131314391D01*
X129916333Y-131314391D02*
X129916333Y-131457248D01*
X129916333Y-131457248D02*
X129868714Y-131647724D01*
X129868714Y-131647724D02*
X129821095Y-131742962D01*
X129821095Y-131742962D02*
X129725857Y-131838201D01*
X129725857Y-131838201D02*
X129583000Y-131885820D01*
X129583000Y-131885820D02*
X129344905Y-131885820D01*
X130297286Y-130981058D02*
X130344905Y-130933439D01*
X130344905Y-130933439D02*
X130440143Y-130885820D01*
X130440143Y-130885820D02*
X130678238Y-130885820D01*
X130678238Y-130885820D02*
X130773476Y-130933439D01*
X130773476Y-130933439D02*
X130821095Y-130981058D01*
X130821095Y-130981058D02*
X130868714Y-131076296D01*
X130868714Y-131076296D02*
X130868714Y-131171534D01*
X130868714Y-131171534D02*
X130821095Y-131314391D01*
X130821095Y-131314391D02*
X130249667Y-131885820D01*
X130249667Y-131885820D02*
X130868714Y-131885820D01*
X165944666Y-70814820D02*
X165944666Y-71529105D01*
X165944666Y-71529105D02*
X165897047Y-71671962D01*
X165897047Y-71671962D02*
X165801809Y-71767201D01*
X165801809Y-71767201D02*
X165658952Y-71814820D01*
X165658952Y-71814820D02*
X165563714Y-71814820D01*
X166325619Y-70814820D02*
X166944666Y-70814820D01*
X166944666Y-70814820D02*
X166611333Y-71195772D01*
X166611333Y-71195772D02*
X166754190Y-71195772D01*
X166754190Y-71195772D02*
X166849428Y-71243391D01*
X166849428Y-71243391D02*
X166897047Y-71291010D01*
X166897047Y-71291010D02*
X166944666Y-71386248D01*
X166944666Y-71386248D02*
X166944666Y-71624343D01*
X166944666Y-71624343D02*
X166897047Y-71719581D01*
X166897047Y-71719581D02*
X166849428Y-71767201D01*
X166849428Y-71767201D02*
X166754190Y-71814820D01*
X166754190Y-71814820D02*
X166468476Y-71814820D01*
X166468476Y-71814820D02*
X166373238Y-71767201D01*
X166373238Y-71767201D02*
X166325619Y-71719581D01*
X162860976Y-66647820D02*
X162860976Y-65647820D01*
X162860976Y-65647820D02*
X163432404Y-66647820D01*
X163432404Y-66647820D02*
X163432404Y-65647820D01*
X156954785Y-66647820D02*
X156478595Y-66647820D01*
X156478595Y-66647820D02*
X156478595Y-65647820D01*
D12*
G36*
X159176977Y-65775024D02*
G01*
X159241156Y-65839203D01*
X159279071Y-65990862D01*
X159279071Y-66299576D01*
X159241155Y-66451236D01*
X159176979Y-66515414D01*
X159117369Y-66545220D01*
X158974107Y-66545220D01*
X158914497Y-66515415D01*
X158850320Y-66451237D01*
X158812405Y-66299576D01*
X158812405Y-65990863D01*
X158850320Y-65839203D01*
X158914499Y-65775024D01*
X158974107Y-65745220D01*
X159117369Y-65745220D01*
X159176977Y-65775024D01*
G37*
G36*
X161521796Y-66888077D02*
G01*
X158469548Y-66888077D01*
X158469548Y-66311886D01*
X158612405Y-66311886D01*
X158616251Y-66323723D01*
X158615391Y-66336140D01*
X158663010Y-66526615D01*
X158677183Y-66549265D01*
X158689313Y-66573072D01*
X158784551Y-66668312D01*
X158798994Y-66675671D01*
X158810541Y-66687044D01*
X158905778Y-66734663D01*
X158928576Y-66738096D01*
X158950500Y-66745220D01*
X159140976Y-66745220D01*
X159162899Y-66738096D01*
X159185697Y-66734663D01*
X159280935Y-66687044D01*
X159292483Y-66675669D01*
X159306925Y-66668311D01*
X159402163Y-66573072D01*
X159414294Y-66549263D01*
X159428466Y-66526616D01*
X159446434Y-66454743D01*
X159707643Y-66454743D01*
X159714766Y-66476666D01*
X159718200Y-66499464D01*
X159765819Y-66594702D01*
X159777192Y-66606249D01*
X159784551Y-66620691D01*
X159832169Y-66668311D01*
X159846612Y-66675670D01*
X159858160Y-66687044D01*
X159953397Y-66734663D01*
X159976195Y-66738096D01*
X159998119Y-66745220D01*
X160188595Y-66745220D01*
X160210518Y-66738096D01*
X160233316Y-66734663D01*
X160328554Y-66687044D01*
X160340102Y-66675669D01*
X160354544Y-66668311D01*
X160402163Y-66620691D01*
X160409520Y-66606250D01*
X160420895Y-66594702D01*
X160468514Y-66499465D01*
X160471947Y-66476666D01*
X160479071Y-66454743D01*
X160479071Y-65676122D01*
X160617299Y-65676122D01*
X160653626Y-65726122D01*
X160712405Y-65745220D01*
X160898119Y-65745220D01*
X160898119Y-66645220D01*
X160917217Y-66703999D01*
X160967217Y-66740326D01*
X161029021Y-66740326D01*
X161079021Y-66703999D01*
X161098119Y-66645220D01*
X161098119Y-65745220D01*
X161283833Y-65745220D01*
X161342612Y-65726122D01*
X161378939Y-65676122D01*
X161378939Y-65614318D01*
X161342612Y-65564318D01*
X161283833Y-65545220D01*
X160712405Y-65545220D01*
X160653626Y-65564318D01*
X160617299Y-65614318D01*
X160617299Y-65676122D01*
X160479071Y-65676122D01*
X160479071Y-65645220D01*
X160459973Y-65586441D01*
X160409973Y-65550114D01*
X160348169Y-65550114D01*
X160298169Y-65586441D01*
X160279071Y-65645220D01*
X160279071Y-66431136D01*
X160249266Y-66490744D01*
X160224597Y-66515414D01*
X160164988Y-66545220D01*
X160021726Y-66545220D01*
X159962116Y-66515415D01*
X159937449Y-66490747D01*
X159907643Y-66431135D01*
X159907643Y-65645220D01*
X159888545Y-65586441D01*
X159838545Y-65550114D01*
X159776741Y-65550114D01*
X159726741Y-65586441D01*
X159707643Y-65645220D01*
X159707643Y-66454743D01*
X159446434Y-66454743D01*
X159476085Y-66336140D01*
X159475224Y-66323723D01*
X159479071Y-66311886D01*
X159479071Y-65978553D01*
X159475224Y-65966715D01*
X159476085Y-65954299D01*
X159428466Y-65763823D01*
X159414293Y-65741174D01*
X159402163Y-65717366D01*
X159306925Y-65622128D01*
X159292482Y-65614769D01*
X159280935Y-65603396D01*
X159185697Y-65555777D01*
X159162899Y-65552343D01*
X159140976Y-65545220D01*
X158950500Y-65545220D01*
X158928576Y-65552343D01*
X158905778Y-65555777D01*
X158810541Y-65603396D01*
X158798993Y-65614769D01*
X158784551Y-65622128D01*
X158689313Y-65717366D01*
X158677181Y-65741175D01*
X158663010Y-65763824D01*
X158615391Y-65954299D01*
X158616251Y-65966715D01*
X158612405Y-65978553D01*
X158612405Y-66311886D01*
X158469548Y-66311886D01*
X158469548Y-65402363D01*
X161521796Y-65402363D01*
X161521796Y-66888077D01*
G37*
D13*
X157094333Y-85951820D02*
X156761000Y-85475629D01*
X156522905Y-85951820D02*
X156522905Y-84951820D01*
X156522905Y-84951820D02*
X156903857Y-84951820D01*
X156903857Y-84951820D02*
X156999095Y-84999439D01*
X156999095Y-84999439D02*
X157046714Y-85047058D01*
X157046714Y-85047058D02*
X157094333Y-85142296D01*
X157094333Y-85142296D02*
X157094333Y-85285153D01*
X157094333Y-85285153D02*
X157046714Y-85380391D01*
X157046714Y-85380391D02*
X156999095Y-85428010D01*
X156999095Y-85428010D02*
X156903857Y-85475629D01*
X156903857Y-85475629D02*
X156522905Y-85475629D01*
X157570524Y-85951820D02*
X157761000Y-85951820D01*
X157761000Y-85951820D02*
X157856238Y-85904201D01*
X157856238Y-85904201D02*
X157903857Y-85856581D01*
X157903857Y-85856581D02*
X157999095Y-85713724D01*
X157999095Y-85713724D02*
X158046714Y-85523248D01*
X158046714Y-85523248D02*
X158046714Y-85142296D01*
X158046714Y-85142296D02*
X157999095Y-85047058D01*
X157999095Y-85047058D02*
X157951476Y-84999439D01*
X157951476Y-84999439D02*
X157856238Y-84951820D01*
X157856238Y-84951820D02*
X157665762Y-84951820D01*
X157665762Y-84951820D02*
X157570524Y-84999439D01*
X157570524Y-84999439D02*
X157522905Y-85047058D01*
X157522905Y-85047058D02*
X157475286Y-85142296D01*
X157475286Y-85142296D02*
X157475286Y-85380391D01*
X157475286Y-85380391D02*
X157522905Y-85475629D01*
X157522905Y-85475629D02*
X157570524Y-85523248D01*
X157570524Y-85523248D02*
X157665762Y-85570867D01*
X157665762Y-85570867D02*
X157856238Y-85570867D01*
X157856238Y-85570867D02*
X157951476Y-85523248D01*
X157951476Y-85523248D02*
X157999095Y-85475629D01*
X157999095Y-85475629D02*
X158046714Y-85380391D01*
X166405095Y-77545820D02*
X166405095Y-78355343D01*
X166405095Y-78355343D02*
X166452714Y-78450581D01*
X166452714Y-78450581D02*
X166500333Y-78498201D01*
X166500333Y-78498201D02*
X166595571Y-78545820D01*
X166595571Y-78545820D02*
X166786047Y-78545820D01*
X166786047Y-78545820D02*
X166881285Y-78498201D01*
X166881285Y-78498201D02*
X166928904Y-78450581D01*
X166928904Y-78450581D02*
X166976523Y-78355343D01*
X166976523Y-78355343D02*
X166976523Y-77545820D01*
X167881285Y-77879153D02*
X167881285Y-78545820D01*
X167643190Y-77498201D02*
X167405095Y-78212486D01*
X167405095Y-78212486D02*
X168024142Y-78212486D01*
X140142580Y-83451667D02*
X140190200Y-83499286D01*
X140190200Y-83499286D02*
X140237819Y-83642143D01*
X140237819Y-83642143D02*
X140237819Y-83737381D01*
X140237819Y-83737381D02*
X140190200Y-83880238D01*
X140190200Y-83880238D02*
X140094961Y-83975476D01*
X140094961Y-83975476D02*
X139999723Y-84023095D01*
X139999723Y-84023095D02*
X139809247Y-84070714D01*
X139809247Y-84070714D02*
X139666390Y-84070714D01*
X139666390Y-84070714D02*
X139475914Y-84023095D01*
X139475914Y-84023095D02*
X139380676Y-83975476D01*
X139380676Y-83975476D02*
X139285438Y-83880238D01*
X139285438Y-83880238D02*
X139237819Y-83737381D01*
X139237819Y-83737381D02*
X139237819Y-83642143D01*
X139237819Y-83642143D02*
X139285438Y-83499286D01*
X139285438Y-83499286D02*
X139333057Y-83451667D01*
X139237819Y-82594524D02*
X139237819Y-82785000D01*
X139237819Y-82785000D02*
X139285438Y-82880238D01*
X139285438Y-82880238D02*
X139333057Y-82927857D01*
X139333057Y-82927857D02*
X139475914Y-83023095D01*
X139475914Y-83023095D02*
X139666390Y-83070714D01*
X139666390Y-83070714D02*
X140047342Y-83070714D01*
X140047342Y-83070714D02*
X140142580Y-83023095D01*
X140142580Y-83023095D02*
X140190200Y-82975476D01*
X140190200Y-82975476D02*
X140237819Y-82880238D01*
X140237819Y-82880238D02*
X140237819Y-82689762D01*
X140237819Y-82689762D02*
X140190200Y-82594524D01*
X140190200Y-82594524D02*
X140142580Y-82546905D01*
X140142580Y-82546905D02*
X140047342Y-82499286D01*
X140047342Y-82499286D02*
X139809247Y-82499286D01*
X139809247Y-82499286D02*
X139714009Y-82546905D01*
X139714009Y-82546905D02*
X139666390Y-82594524D01*
X139666390Y-82594524D02*
X139618771Y-82689762D01*
X139618771Y-82689762D02*
X139618771Y-82880238D01*
X139618771Y-82880238D02*
X139666390Y-82975476D01*
X139666390Y-82975476D02*
X139714009Y-83023095D01*
X139714009Y-83023095D02*
X139809247Y-83070714D01*
X169476905Y-74859322D02*
X169476905Y-73859322D01*
X169476905Y-73859322D02*
X169715000Y-73859322D01*
X169715000Y-73859322D02*
X169857857Y-73906941D01*
X169857857Y-73906941D02*
X169953095Y-74002179D01*
X169953095Y-74002179D02*
X170000714Y-74097417D01*
X170000714Y-74097417D02*
X170048333Y-74287893D01*
X170048333Y-74287893D02*
X170048333Y-74430750D01*
X170048333Y-74430750D02*
X170000714Y-74621226D01*
X170000714Y-74621226D02*
X169953095Y-74716464D01*
X169953095Y-74716464D02*
X169857857Y-74811703D01*
X169857857Y-74811703D02*
X169715000Y-74859322D01*
X169715000Y-74859322D02*
X169476905Y-74859322D01*
X171000714Y-74859322D02*
X170429286Y-74859322D01*
X170715000Y-74859322D02*
X170715000Y-73859322D01*
X170715000Y-73859322D02*
X170619762Y-74002179D01*
X170619762Y-74002179D02*
X170524524Y-74097417D01*
X170524524Y-74097417D02*
X170429286Y-74145036D01*
X166275667Y-73335322D02*
X166275667Y-72335322D01*
X166275667Y-72335322D02*
X166656619Y-72335322D01*
X166656619Y-72335322D02*
X166751857Y-72382941D01*
X166751857Y-72382941D02*
X166799476Y-72430560D01*
X166799476Y-72430560D02*
X166847095Y-72525798D01*
X166847095Y-72525798D02*
X166847095Y-72668655D01*
X166847095Y-72668655D02*
X166799476Y-72763893D01*
X166799476Y-72763893D02*
X166751857Y-72811512D01*
X166751857Y-72811512D02*
X166656619Y-72859131D01*
X166656619Y-72859131D02*
X166275667Y-72859131D01*
X167180429Y-72335322D02*
X167418524Y-73335322D01*
X167418524Y-73335322D02*
X167609000Y-72621036D01*
X167609000Y-72621036D02*
X167799476Y-73335322D01*
X167799476Y-73335322D02*
X168037572Y-72335322D01*
X168989952Y-73335322D02*
X168656619Y-72859131D01*
X168418524Y-73335322D02*
X168418524Y-72335322D01*
X168418524Y-72335322D02*
X168799476Y-72335322D01*
X168799476Y-72335322D02*
X168894714Y-72382941D01*
X168894714Y-72382941D02*
X168942333Y-72430560D01*
X168942333Y-72430560D02*
X168989952Y-72525798D01*
X168989952Y-72525798D02*
X168989952Y-72668655D01*
X168989952Y-72668655D02*
X168942333Y-72763893D01*
X168942333Y-72763893D02*
X168894714Y-72811512D01*
X168894714Y-72811512D02*
X168799476Y-72859131D01*
X168799476Y-72859131D02*
X168418524Y-72859131D01*
X129852905Y-108410322D02*
X129852905Y-107410322D01*
X130424333Y-108410322D02*
X129995762Y-107838893D01*
X130424333Y-107410322D02*
X129852905Y-107981750D01*
X131376714Y-108410322D02*
X130805286Y-108410322D01*
X131091000Y-108410322D02*
X131091000Y-107410322D01*
X131091000Y-107410322D02*
X130995762Y-107553179D01*
X130995762Y-107553179D02*
X130900524Y-107648417D01*
X130900524Y-107648417D02*
X130805286Y-107696036D01*
X168145819Y-91124334D02*
X168860104Y-91124334D01*
X168860104Y-91124334D02*
X169002961Y-91171953D01*
X169002961Y-91171953D02*
X169098200Y-91267191D01*
X169098200Y-91267191D02*
X169145819Y-91410048D01*
X169145819Y-91410048D02*
X169145819Y-91505286D01*
X168479152Y-90219572D02*
X169145819Y-90219572D01*
X168098200Y-90457667D02*
X168812485Y-90695762D01*
X168812485Y-90695762D02*
X168812485Y-90076715D01*
X170690200Y-91576524D02*
X170737819Y-91433667D01*
X170737819Y-91433667D02*
X170737819Y-91195572D01*
X170737819Y-91195572D02*
X170690200Y-91100334D01*
X170690200Y-91100334D02*
X170642580Y-91052715D01*
X170642580Y-91052715D02*
X170547342Y-91005096D01*
X170547342Y-91005096D02*
X170452104Y-91005096D01*
X170452104Y-91005096D02*
X170356866Y-91052715D01*
X170356866Y-91052715D02*
X170309247Y-91100334D01*
X170309247Y-91100334D02*
X170261628Y-91195572D01*
X170261628Y-91195572D02*
X170214009Y-91386048D01*
X170214009Y-91386048D02*
X170166390Y-91481286D01*
X170166390Y-91481286D02*
X170118771Y-91528905D01*
X170118771Y-91528905D02*
X170023533Y-91576524D01*
X170023533Y-91576524D02*
X169928295Y-91576524D01*
X169928295Y-91576524D02*
X169833057Y-91528905D01*
X169833057Y-91528905D02*
X169785438Y-91481286D01*
X169785438Y-91481286D02*
X169737819Y-91386048D01*
X169737819Y-91386048D02*
X169737819Y-91147953D01*
X169737819Y-91147953D02*
X169785438Y-91005096D01*
X170214009Y-90576524D02*
X170214009Y-90243191D01*
X170737819Y-90100334D02*
X170737819Y-90576524D01*
X170737819Y-90576524D02*
X169737819Y-90576524D01*
X169737819Y-90576524D02*
X169737819Y-90100334D01*
X170737819Y-89100334D02*
X170261628Y-89433667D01*
X170737819Y-89671762D02*
X169737819Y-89671762D01*
X169737819Y-89671762D02*
X169737819Y-89290810D01*
X169737819Y-89290810D02*
X169785438Y-89195572D01*
X169785438Y-89195572D02*
X169833057Y-89147953D01*
X169833057Y-89147953D02*
X169928295Y-89100334D01*
X169928295Y-89100334D02*
X170071152Y-89100334D01*
X170071152Y-89100334D02*
X170166390Y-89147953D01*
X170166390Y-89147953D02*
X170214009Y-89195572D01*
X170214009Y-89195572D02*
X170261628Y-89290810D01*
X170261628Y-89290810D02*
X170261628Y-89671762D01*
X170737819Y-88671762D02*
X169737819Y-88671762D01*
X170452104Y-88243191D02*
X170452104Y-87767001D01*
X170737819Y-88338429D02*
X169737819Y-88005096D01*
X169737819Y-88005096D02*
X170737819Y-87671763D01*
X170737819Y-86862239D02*
X170737819Y-87338429D01*
X170737819Y-87338429D02*
X169737819Y-87338429D01*
X164756180Y-126601834D02*
X165232371Y-126268501D01*
X164756180Y-126030406D02*
X165756180Y-126030406D01*
X165756180Y-126030406D02*
X165756180Y-126411358D01*
X165756180Y-126411358D02*
X165708561Y-126506596D01*
X165708561Y-126506596D02*
X165660942Y-126554215D01*
X165660942Y-126554215D02*
X165565704Y-126601834D01*
X165565704Y-126601834D02*
X165422847Y-126601834D01*
X165422847Y-126601834D02*
X165327609Y-126554215D01*
X165327609Y-126554215D02*
X165279990Y-126506596D01*
X165279990Y-126506596D02*
X165232371Y-126411358D01*
X165232371Y-126411358D02*
X165232371Y-126030406D01*
X165756180Y-127506596D02*
X165756180Y-127030406D01*
X165756180Y-127030406D02*
X165279990Y-126982787D01*
X165279990Y-126982787D02*
X165327609Y-127030406D01*
X165327609Y-127030406D02*
X165375228Y-127125644D01*
X165375228Y-127125644D02*
X165375228Y-127363739D01*
X165375228Y-127363739D02*
X165327609Y-127458977D01*
X165327609Y-127458977D02*
X165279990Y-127506596D01*
X165279990Y-127506596D02*
X165184752Y-127554215D01*
X165184752Y-127554215D02*
X164946657Y-127554215D01*
X164946657Y-127554215D02*
X164851419Y-127506596D01*
X164851419Y-127506596D02*
X164803800Y-127458977D01*
X164803800Y-127458977D02*
X164756180Y-127363739D01*
X164756180Y-127363739D02*
X164756180Y-127125644D01*
X164756180Y-127125644D02*
X164803800Y-127030406D01*
X164803800Y-127030406D02*
X164851419Y-126982787D01*
X148204666Y-78307820D02*
X148204666Y-79022105D01*
X148204666Y-79022105D02*
X148157047Y-79164962D01*
X148157047Y-79164962D02*
X148061809Y-79260201D01*
X148061809Y-79260201D02*
X147918952Y-79307820D01*
X147918952Y-79307820D02*
X147823714Y-79307820D01*
X148633238Y-78403058D02*
X148680857Y-78355439D01*
X148680857Y-78355439D02*
X148776095Y-78307820D01*
X148776095Y-78307820D02*
X149014190Y-78307820D01*
X149014190Y-78307820D02*
X149109428Y-78355439D01*
X149109428Y-78355439D02*
X149157047Y-78403058D01*
X149157047Y-78403058D02*
X149204666Y-78498296D01*
X149204666Y-78498296D02*
X149204666Y-78593534D01*
X149204666Y-78593534D02*
X149157047Y-78736391D01*
X149157047Y-78736391D02*
X148585619Y-79307820D01*
X148585619Y-79307820D02*
X149204666Y-79307820D01*
D12*
G36*
X149677900Y-66888077D02*
G01*
X147433000Y-66888077D01*
X147433000Y-65930934D01*
X147575857Y-65930934D01*
X147582980Y-65952857D01*
X147586414Y-65975655D01*
X147634033Y-66070893D01*
X147645406Y-66082440D01*
X147652765Y-66096883D01*
X147700384Y-66144501D01*
X147714825Y-66151859D01*
X147726374Y-66163234D01*
X147821611Y-66210853D01*
X147832632Y-66212513D01*
X147842079Y-66218424D01*
X148021904Y-66263380D01*
X148092811Y-66298834D01*
X148117480Y-66323502D01*
X148147285Y-66383112D01*
X148147285Y-66431136D01*
X148117480Y-66490744D01*
X148092811Y-66515414D01*
X148033202Y-66545220D01*
X147834940Y-66545220D01*
X147707480Y-66502733D01*
X147645678Y-66502263D01*
X147595404Y-66538210D01*
X147575859Y-66596842D01*
X147594511Y-66655764D01*
X147644234Y-66692469D01*
X147787091Y-66740088D01*
X147803298Y-66740211D01*
X147818714Y-66745220D01*
X148056809Y-66745220D01*
X148078732Y-66738096D01*
X148101530Y-66734663D01*
X148196768Y-66687044D01*
X148208316Y-66675669D01*
X148222758Y-66668311D01*
X148270377Y-66620691D01*
X148277734Y-66606250D01*
X148289109Y-66594702D01*
X148336728Y-66499465D01*
X148340161Y-66476666D01*
X148347285Y-66454743D01*
X148347285Y-66359505D01*
X148340161Y-66337581D01*
X148336728Y-66314783D01*
X148289109Y-66219546D01*
X148277734Y-66207997D01*
X148270376Y-66193556D01*
X148222758Y-66145937D01*
X148208315Y-66138578D01*
X148196768Y-66127205D01*
X148101530Y-66079586D01*
X148090508Y-66077925D01*
X148081062Y-66072015D01*
X147901237Y-66027058D01*
X147830330Y-65991605D01*
X147805662Y-65966936D01*
X147775857Y-65907326D01*
X147775857Y-65859303D01*
X147805662Y-65799693D01*
X147830330Y-65775024D01*
X147889940Y-65745220D01*
X148088201Y-65745220D01*
X148215662Y-65787707D01*
X148277464Y-65788177D01*
X148327738Y-65752230D01*
X148347282Y-65693598D01*
X148339300Y-65668382D01*
X148483338Y-65668382D01*
X148721433Y-66668382D01*
X148725029Y-66674275D01*
X148725399Y-66681169D01*
X148740851Y-66700205D01*
X148753626Y-66721139D01*
X148759999Y-66723793D01*
X148764350Y-66729152D01*
X148788042Y-66735470D01*
X148810681Y-66744897D01*
X148817396Y-66743298D01*
X148824067Y-66745077D01*
X148846951Y-66736261D01*
X148870804Y-66730582D01*
X148875296Y-66725341D01*
X148881739Y-66722860D01*
X148895070Y-66702277D01*
X148911030Y-66683662D01*
X148911584Y-66676780D01*
X148915338Y-66670986D01*
X149009190Y-66319039D01*
X149103043Y-66670987D01*
X149106795Y-66676780D01*
X149107350Y-66683662D01*
X149123310Y-66702278D01*
X149136641Y-66722860D01*
X149143083Y-66725341D01*
X149147576Y-66730582D01*
X149171428Y-66736261D01*
X149194313Y-66745077D01*
X149200983Y-66743298D01*
X149207699Y-66744897D01*
X149230332Y-66735472D01*
X149254030Y-66729153D01*
X149258381Y-66723792D01*
X149264753Y-66721139D01*
X149277522Y-66700212D01*
X149292982Y-66681169D01*
X149293351Y-66674273D01*
X149296947Y-66668382D01*
X149535043Y-65668382D01*
X149530078Y-65606778D01*
X149489852Y-65559858D01*
X149429729Y-65545543D01*
X149372674Y-65569301D01*
X149340481Y-65622058D01*
X149194177Y-66236531D01*
X149105814Y-65905168D01*
X149102802Y-65900518D01*
X149102506Y-65894985D01*
X149086239Y-65874946D01*
X149072215Y-65853294D01*
X149067046Y-65851302D01*
X149063554Y-65847001D01*
X149038619Y-65840352D01*
X149014543Y-65831077D01*
X149009190Y-65832504D01*
X149003837Y-65831077D01*
X148979755Y-65840353D01*
X148954826Y-65847002D01*
X148951335Y-65851302D01*
X148946165Y-65853294D01*
X148932137Y-65874951D01*
X148915875Y-65894985D01*
X148915578Y-65900517D01*
X148912567Y-65905167D01*
X148824202Y-66236531D01*
X148677900Y-65622058D01*
X148645707Y-65569301D01*
X148588652Y-65545543D01*
X148528529Y-65559858D01*
X148488303Y-65606778D01*
X148483338Y-65668382D01*
X148339300Y-65668382D01*
X148328631Y-65634676D01*
X148278907Y-65597971D01*
X148136051Y-65550352D01*
X148119843Y-65550228D01*
X148104428Y-65545220D01*
X147866333Y-65545220D01*
X147844409Y-65552343D01*
X147821611Y-65555777D01*
X147726374Y-65603396D01*
X147714825Y-65614770D01*
X147700384Y-65622129D01*
X147652765Y-65669747D01*
X147645406Y-65684189D01*
X147634033Y-65695737D01*
X147586414Y-65790975D01*
X147582980Y-65813772D01*
X147575857Y-65835696D01*
X147575857Y-65930934D01*
X147433000Y-65930934D01*
X147433000Y-65402363D01*
X149677900Y-65402363D01*
X149677900Y-66888077D01*
G37*
D13*
X130511666Y-70814820D02*
X130511666Y-71529105D01*
X130511666Y-71529105D02*
X130464047Y-71671962D01*
X130464047Y-71671962D02*
X130368809Y-71767201D01*
X130368809Y-71767201D02*
X130225952Y-71814820D01*
X130225952Y-71814820D02*
X130130714Y-71814820D01*
X131511666Y-71814820D02*
X130940238Y-71814820D01*
X131225952Y-71814820D02*
X131225952Y-70814820D01*
X131225952Y-70814820D02*
X131130714Y-70957677D01*
X131130714Y-70957677D02*
X131035476Y-71052915D01*
X131035476Y-71052915D02*
X130940238Y-71100534D01*
D12*
G36*
X137882166Y-66885984D02*
G01*
X136348834Y-66885984D01*
X136348834Y-66645220D01*
X136491691Y-66645220D01*
X136510789Y-66703999D01*
X136560789Y-66740326D01*
X136622593Y-66740326D01*
X136672593Y-66703999D01*
X136691691Y-66645220D01*
X136967881Y-66645220D01*
X136986979Y-66703999D01*
X137036979Y-66740326D01*
X137098783Y-66740326D01*
X137148783Y-66703999D01*
X137167881Y-66645220D01*
X137167881Y-66021776D01*
X137552485Y-66694834D01*
X137556662Y-66698629D01*
X137558407Y-66703999D01*
X137579205Y-66719110D01*
X137598229Y-66736393D01*
X137603840Y-66737008D01*
X137608407Y-66740326D01*
X137634110Y-66740326D01*
X137659664Y-66743127D01*
X137664566Y-66740326D01*
X137670211Y-66740326D01*
X137691006Y-66725217D01*
X137713325Y-66712464D01*
X137715644Y-66707317D01*
X137720211Y-66703999D01*
X137728153Y-66679553D01*
X137738714Y-66656116D01*
X137737564Y-66650588D01*
X137739309Y-66645220D01*
X137739309Y-65645220D01*
X137720211Y-65586441D01*
X137670211Y-65550114D01*
X137608407Y-65550114D01*
X137558407Y-65586441D01*
X137539309Y-65645220D01*
X137539309Y-66268663D01*
X137154705Y-65595606D01*
X137150527Y-65591810D01*
X137148783Y-65586441D01*
X137127984Y-65571329D01*
X137108961Y-65554047D01*
X137103349Y-65553431D01*
X137098783Y-65550114D01*
X137073080Y-65550114D01*
X137047526Y-65547313D01*
X137042624Y-65550114D01*
X137036979Y-65550114D01*
X137016179Y-65565225D01*
X136993865Y-65577977D01*
X136991546Y-65583122D01*
X136986979Y-65586441D01*
X136979035Y-65610887D01*
X136968476Y-65634324D01*
X136969625Y-65639851D01*
X136967881Y-65645220D01*
X136967881Y-66645220D01*
X136691691Y-66645220D01*
X136691691Y-65645220D01*
X136672593Y-65586441D01*
X136622593Y-65550114D01*
X136560789Y-65550114D01*
X136510789Y-65586441D01*
X136491691Y-65645220D01*
X136491691Y-66645220D01*
X136348834Y-66645220D01*
X136348834Y-65404456D01*
X137882166Y-65404456D01*
X137882166Y-66885984D01*
G37*
D13*
X140025976Y-66647820D02*
X140025976Y-65647820D01*
X140025976Y-65647820D02*
X140597404Y-66647820D01*
X140597404Y-66647820D02*
X140597404Y-65647820D01*
X134119785Y-66647820D02*
X133643595Y-66647820D01*
X133643595Y-66647820D02*
X133643595Y-65647820D01*
X156618142Y-79815820D02*
X156284809Y-79339629D01*
X156046714Y-79815820D02*
X156046714Y-78815820D01*
X156046714Y-78815820D02*
X156427666Y-78815820D01*
X156427666Y-78815820D02*
X156522904Y-78863439D01*
X156522904Y-78863439D02*
X156570523Y-78911058D01*
X156570523Y-78911058D02*
X156618142Y-79006296D01*
X156618142Y-79006296D02*
X156618142Y-79149153D01*
X156618142Y-79149153D02*
X156570523Y-79244391D01*
X156570523Y-79244391D02*
X156522904Y-79292010D01*
X156522904Y-79292010D02*
X156427666Y-79339629D01*
X156427666Y-79339629D02*
X156046714Y-79339629D01*
X157570523Y-79815820D02*
X156999095Y-79815820D01*
X157284809Y-79815820D02*
X157284809Y-78815820D01*
X157284809Y-78815820D02*
X157189571Y-78958677D01*
X157189571Y-78958677D02*
X157094333Y-79053915D01*
X157094333Y-79053915D02*
X156999095Y-79101534D01*
X158189571Y-78815820D02*
X158284809Y-78815820D01*
X158284809Y-78815820D02*
X158380047Y-78863439D01*
X158380047Y-78863439D02*
X158427666Y-78911058D01*
X158427666Y-78911058D02*
X158475285Y-79006296D01*
X158475285Y-79006296D02*
X158522904Y-79196772D01*
X158522904Y-79196772D02*
X158522904Y-79434867D01*
X158522904Y-79434867D02*
X158475285Y-79625343D01*
X158475285Y-79625343D02*
X158427666Y-79720581D01*
X158427666Y-79720581D02*
X158380047Y-79768201D01*
X158380047Y-79768201D02*
X158284809Y-79815820D01*
X158284809Y-79815820D02*
X158189571Y-79815820D01*
X158189571Y-79815820D02*
X158094333Y-79768201D01*
X158094333Y-79768201D02*
X158046714Y-79720581D01*
X158046714Y-79720581D02*
X157999095Y-79625343D01*
X157999095Y-79625343D02*
X157951476Y-79434867D01*
X157951476Y-79434867D02*
X157951476Y-79196772D01*
X157951476Y-79196772D02*
X157999095Y-79006296D01*
X157999095Y-79006296D02*
X158046714Y-78911058D01*
X158046714Y-78911058D02*
X158094333Y-78863439D01*
X158094333Y-78863439D02*
X158189571Y-78815820D01*
X145094095Y-109941322D02*
X145094095Y-110750845D01*
X145094095Y-110750845D02*
X145141714Y-110846083D01*
X145141714Y-110846083D02*
X145189333Y-110893703D01*
X145189333Y-110893703D02*
X145284571Y-110941322D01*
X145284571Y-110941322D02*
X145475047Y-110941322D01*
X145475047Y-110941322D02*
X145570285Y-110893703D01*
X145570285Y-110893703D02*
X145617904Y-110846083D01*
X145617904Y-110846083D02*
X145665523Y-110750845D01*
X145665523Y-110750845D02*
X145665523Y-109941322D01*
X146665523Y-110941322D02*
X146094095Y-110941322D01*
X146379809Y-110941322D02*
X146379809Y-109941322D01*
X146379809Y-109941322D02*
X146284571Y-110084179D01*
X146284571Y-110084179D02*
X146189333Y-110179417D01*
X146189333Y-110179417D02*
X146094095Y-110227036D01*
X139568333Y-130107820D02*
X139235000Y-129631629D01*
X138996905Y-130107820D02*
X138996905Y-129107820D01*
X138996905Y-129107820D02*
X139377857Y-129107820D01*
X139377857Y-129107820D02*
X139473095Y-129155439D01*
X139473095Y-129155439D02*
X139520714Y-129203058D01*
X139520714Y-129203058D02*
X139568333Y-129298296D01*
X139568333Y-129298296D02*
X139568333Y-129441153D01*
X139568333Y-129441153D02*
X139520714Y-129536391D01*
X139520714Y-129536391D02*
X139473095Y-129584010D01*
X139473095Y-129584010D02*
X139377857Y-129631629D01*
X139377857Y-129631629D02*
X138996905Y-129631629D01*
X140425476Y-129107820D02*
X140235000Y-129107820D01*
X140235000Y-129107820D02*
X140139762Y-129155439D01*
X140139762Y-129155439D02*
X140092143Y-129203058D01*
X140092143Y-129203058D02*
X139996905Y-129345915D01*
X139996905Y-129345915D02*
X139949286Y-129536391D01*
X139949286Y-129536391D02*
X139949286Y-129917343D01*
X139949286Y-129917343D02*
X139996905Y-130012581D01*
X139996905Y-130012581D02*
X140044524Y-130060201D01*
X140044524Y-130060201D02*
X140139762Y-130107820D01*
X140139762Y-130107820D02*
X140330238Y-130107820D01*
X140330238Y-130107820D02*
X140425476Y-130060201D01*
X140425476Y-130060201D02*
X140473095Y-130012581D01*
X140473095Y-130012581D02*
X140520714Y-129917343D01*
X140520714Y-129917343D02*
X140520714Y-129679248D01*
X140520714Y-129679248D02*
X140473095Y-129584010D01*
X140473095Y-129584010D02*
X140425476Y-129536391D01*
X140425476Y-129536391D02*
X140330238Y-129488772D01*
X140330238Y-129488772D02*
X140139762Y-129488772D01*
X140139762Y-129488772D02*
X140044524Y-129536391D01*
X140044524Y-129536391D02*
X139996905Y-129584010D01*
X139996905Y-129584010D02*
X139949286Y-129679248D01*
X156832332Y-116169580D02*
X156784713Y-116217200D01*
X156784713Y-116217200D02*
X156641856Y-116264819D01*
X156641856Y-116264819D02*
X156546618Y-116264819D01*
X156546618Y-116264819D02*
X156403761Y-116217200D01*
X156403761Y-116217200D02*
X156308523Y-116121961D01*
X156308523Y-116121961D02*
X156260904Y-116026723D01*
X156260904Y-116026723D02*
X156213285Y-115836247D01*
X156213285Y-115836247D02*
X156213285Y-115693390D01*
X156213285Y-115693390D02*
X156260904Y-115502914D01*
X156260904Y-115502914D02*
X156308523Y-115407676D01*
X156308523Y-115407676D02*
X156403761Y-115312438D01*
X156403761Y-115312438D02*
X156546618Y-115264819D01*
X156546618Y-115264819D02*
X156641856Y-115264819D01*
X156641856Y-115264819D02*
X156784713Y-115312438D01*
X156784713Y-115312438D02*
X156832332Y-115360057D01*
X157689475Y-115598152D02*
X157689475Y-116264819D01*
X157451380Y-115217200D02*
X157213285Y-115931485D01*
X157213285Y-115931485D02*
X157832332Y-115931485D01*
X164756180Y-134601834D02*
X165232371Y-134268501D01*
X164756180Y-134030406D02*
X165756180Y-134030406D01*
X165756180Y-134030406D02*
X165756180Y-134411358D01*
X165756180Y-134411358D02*
X165708561Y-134506596D01*
X165708561Y-134506596D02*
X165660942Y-134554215D01*
X165660942Y-134554215D02*
X165565704Y-134601834D01*
X165565704Y-134601834D02*
X165422847Y-134601834D01*
X165422847Y-134601834D02*
X165327609Y-134554215D01*
X165327609Y-134554215D02*
X165279990Y-134506596D01*
X165279990Y-134506596D02*
X165232371Y-134411358D01*
X165232371Y-134411358D02*
X165232371Y-134030406D01*
X165660942Y-134982787D02*
X165708561Y-135030406D01*
X165708561Y-135030406D02*
X165756180Y-135125644D01*
X165756180Y-135125644D02*
X165756180Y-135363739D01*
X165756180Y-135363739D02*
X165708561Y-135458977D01*
X165708561Y-135458977D02*
X165660942Y-135506596D01*
X165660942Y-135506596D02*
X165565704Y-135554215D01*
X165565704Y-135554215D02*
X165470466Y-135554215D01*
X165470466Y-135554215D02*
X165327609Y-135506596D01*
X165327609Y-135506596D02*
X164756180Y-134935168D01*
X164756180Y-134935168D02*
X164756180Y-135554215D01*
X145263095Y-118436322D02*
X145263095Y-119245845D01*
X145263095Y-119245845D02*
X145310714Y-119341083D01*
X145310714Y-119341083D02*
X145358333Y-119388703D01*
X145358333Y-119388703D02*
X145453571Y-119436322D01*
X145453571Y-119436322D02*
X145644047Y-119436322D01*
X145644047Y-119436322D02*
X145739285Y-119388703D01*
X145739285Y-119388703D02*
X145786904Y-119341083D01*
X145786904Y-119341083D02*
X145834523Y-119245845D01*
X145834523Y-119245845D02*
X145834523Y-118436322D01*
X146263095Y-118531560D02*
X146310714Y-118483941D01*
X146310714Y-118483941D02*
X146405952Y-118436322D01*
X146405952Y-118436322D02*
X146644047Y-118436322D01*
X146644047Y-118436322D02*
X146739285Y-118483941D01*
X146739285Y-118483941D02*
X146786904Y-118531560D01*
X146786904Y-118531560D02*
X146834523Y-118626798D01*
X146834523Y-118626798D02*
X146834523Y-118722036D01*
X146834523Y-118722036D02*
X146786904Y-118864893D01*
X146786904Y-118864893D02*
X146215476Y-119436322D01*
X146215476Y-119436322D02*
X146834523Y-119436322D01*
X126868333Y-88102581D02*
X126820714Y-88150201D01*
X126820714Y-88150201D02*
X126677857Y-88197820D01*
X126677857Y-88197820D02*
X126582619Y-88197820D01*
X126582619Y-88197820D02*
X126439762Y-88150201D01*
X126439762Y-88150201D02*
X126344524Y-88054962D01*
X126344524Y-88054962D02*
X126296905Y-87959724D01*
X126296905Y-87959724D02*
X126249286Y-87769248D01*
X126249286Y-87769248D02*
X126249286Y-87626391D01*
X126249286Y-87626391D02*
X126296905Y-87435915D01*
X126296905Y-87435915D02*
X126344524Y-87340677D01*
X126344524Y-87340677D02*
X126439762Y-87245439D01*
X126439762Y-87245439D02*
X126582619Y-87197820D01*
X126582619Y-87197820D02*
X126677857Y-87197820D01*
X126677857Y-87197820D02*
X126820714Y-87245439D01*
X126820714Y-87245439D02*
X126868333Y-87293058D01*
X127820714Y-88197820D02*
X127249286Y-88197820D01*
X127535000Y-88197820D02*
X127535000Y-87197820D01*
X127535000Y-87197820D02*
X127439762Y-87340677D01*
X127439762Y-87340677D02*
X127344524Y-87435915D01*
X127344524Y-87435915D02*
X127249286Y-87483534D01*
X139481095Y-131139820D02*
X139481095Y-131949343D01*
X139481095Y-131949343D02*
X139528714Y-132044581D01*
X139528714Y-132044581D02*
X139576333Y-132092201D01*
X139576333Y-132092201D02*
X139671571Y-132139820D01*
X139671571Y-132139820D02*
X139862047Y-132139820D01*
X139862047Y-132139820D02*
X139957285Y-132092201D01*
X139957285Y-132092201D02*
X140004904Y-132044581D01*
X140004904Y-132044581D02*
X140052523Y-131949343D01*
X140052523Y-131949343D02*
X140052523Y-131139820D01*
X140433476Y-131139820D02*
X141052523Y-131139820D01*
X141052523Y-131139820D02*
X140719190Y-131520772D01*
X140719190Y-131520772D02*
X140862047Y-131520772D01*
X140862047Y-131520772D02*
X140957285Y-131568391D01*
X140957285Y-131568391D02*
X141004904Y-131616010D01*
X141004904Y-131616010D02*
X141052523Y-131711248D01*
X141052523Y-131711248D02*
X141052523Y-131949343D01*
X141052523Y-131949343D02*
X141004904Y-132044581D01*
X141004904Y-132044581D02*
X140957285Y-132092201D01*
X140957285Y-132092201D02*
X140862047Y-132139820D01*
X140862047Y-132139820D02*
X140576333Y-132139820D01*
X140576333Y-132139820D02*
X140481095Y-132092201D01*
X140481095Y-132092201D02*
X140433476Y-132044581D01*
X146513713Y-109279819D02*
X146513713Y-108279819D01*
X146513713Y-108279819D02*
X146894665Y-108279819D01*
X146894665Y-108279819D02*
X146989903Y-108327438D01*
X146989903Y-108327438D02*
X147037522Y-108375057D01*
X147037522Y-108375057D02*
X147085141Y-108470295D01*
X147085141Y-108470295D02*
X147085141Y-108613152D01*
X147085141Y-108613152D02*
X147037522Y-108708390D01*
X147037522Y-108708390D02*
X146989903Y-108756009D01*
X146989903Y-108756009D02*
X146894665Y-108803628D01*
X146894665Y-108803628D02*
X146513713Y-108803628D01*
X147466094Y-109232200D02*
X147608951Y-109279819D01*
X147608951Y-109279819D02*
X147847046Y-109279819D01*
X147847046Y-109279819D02*
X147942284Y-109232200D01*
X147942284Y-109232200D02*
X147989903Y-109184580D01*
X147989903Y-109184580D02*
X148037522Y-109089342D01*
X148037522Y-109089342D02*
X148037522Y-108994104D01*
X148037522Y-108994104D02*
X147989903Y-108898866D01*
X147989903Y-108898866D02*
X147942284Y-108851247D01*
X147942284Y-108851247D02*
X147847046Y-108803628D01*
X147847046Y-108803628D02*
X147656570Y-108756009D01*
X147656570Y-108756009D02*
X147561332Y-108708390D01*
X147561332Y-108708390D02*
X147513713Y-108660771D01*
X147513713Y-108660771D02*
X147466094Y-108565533D01*
X147466094Y-108565533D02*
X147466094Y-108470295D01*
X147466094Y-108470295D02*
X147513713Y-108375057D01*
X147513713Y-108375057D02*
X147561332Y-108327438D01*
X147561332Y-108327438D02*
X147656570Y-108279819D01*
X147656570Y-108279819D02*
X147894665Y-108279819D01*
X147894665Y-108279819D02*
X148037522Y-108327438D01*
X148989903Y-109279819D02*
X148418475Y-109279819D01*
X148704189Y-109279819D02*
X148704189Y-108279819D01*
X148704189Y-108279819D02*
X148608951Y-108422676D01*
X148608951Y-108422676D02*
X148513713Y-108517914D01*
X148513713Y-108517914D02*
X148418475Y-108565533D01*
X164866333Y-122239820D02*
X164533000Y-121763629D01*
X164294905Y-122239820D02*
X164294905Y-121239820D01*
X164294905Y-121239820D02*
X164675857Y-121239820D01*
X164675857Y-121239820D02*
X164771095Y-121287439D01*
X164771095Y-121287439D02*
X164818714Y-121335058D01*
X164818714Y-121335058D02*
X164866333Y-121430296D01*
X164866333Y-121430296D02*
X164866333Y-121573153D01*
X164866333Y-121573153D02*
X164818714Y-121668391D01*
X164818714Y-121668391D02*
X164771095Y-121716010D01*
X164771095Y-121716010D02*
X164675857Y-121763629D01*
X164675857Y-121763629D02*
X164294905Y-121763629D01*
X165199667Y-121239820D02*
X165866333Y-121239820D01*
X165866333Y-121239820D02*
X165437762Y-122239820D01*
X156832332Y-109946580D02*
X156784713Y-109994200D01*
X156784713Y-109994200D02*
X156641856Y-110041819D01*
X156641856Y-110041819D02*
X156546618Y-110041819D01*
X156546618Y-110041819D02*
X156403761Y-109994200D01*
X156403761Y-109994200D02*
X156308523Y-109898961D01*
X156308523Y-109898961D02*
X156260904Y-109803723D01*
X156260904Y-109803723D02*
X156213285Y-109613247D01*
X156213285Y-109613247D02*
X156213285Y-109470390D01*
X156213285Y-109470390D02*
X156260904Y-109279914D01*
X156260904Y-109279914D02*
X156308523Y-109184676D01*
X156308523Y-109184676D02*
X156403761Y-109089438D01*
X156403761Y-109089438D02*
X156546618Y-109041819D01*
X156546618Y-109041819D02*
X156641856Y-109041819D01*
X156641856Y-109041819D02*
X156784713Y-109089438D01*
X156784713Y-109089438D02*
X156832332Y-109137057D01*
X157165666Y-109041819D02*
X157784713Y-109041819D01*
X157784713Y-109041819D02*
X157451380Y-109422771D01*
X157451380Y-109422771D02*
X157594237Y-109422771D01*
X157594237Y-109422771D02*
X157689475Y-109470390D01*
X157689475Y-109470390D02*
X157737094Y-109518009D01*
X157737094Y-109518009D02*
X157784713Y-109613247D01*
X157784713Y-109613247D02*
X157784713Y-109851342D01*
X157784713Y-109851342D02*
X157737094Y-109946580D01*
X157737094Y-109946580D02*
X157689475Y-109994200D01*
X157689475Y-109994200D02*
X157594237Y-110041819D01*
X157594237Y-110041819D02*
X157308523Y-110041819D01*
X157308523Y-110041819D02*
X157213285Y-109994200D01*
X157213285Y-109994200D02*
X157165666Y-109946580D01*
X169881666Y-122376820D02*
X169881666Y-123091105D01*
X169881666Y-123091105D02*
X169834047Y-123233962D01*
X169834047Y-123233962D02*
X169738809Y-123329201D01*
X169738809Y-123329201D02*
X169595952Y-123376820D01*
X169595952Y-123376820D02*
X169500714Y-123376820D01*
X170834047Y-122376820D02*
X170357857Y-122376820D01*
X170357857Y-122376820D02*
X170310238Y-122853010D01*
X170310238Y-122853010D02*
X170357857Y-122805391D01*
X170357857Y-122805391D02*
X170453095Y-122757772D01*
X170453095Y-122757772D02*
X170691190Y-122757772D01*
X170691190Y-122757772D02*
X170786428Y-122805391D01*
X170786428Y-122805391D02*
X170834047Y-122853010D01*
X170834047Y-122853010D02*
X170881666Y-122948248D01*
X170881666Y-122948248D02*
X170881666Y-123186343D01*
X170881666Y-123186343D02*
X170834047Y-123281581D01*
X170834047Y-123281581D02*
X170786428Y-123329201D01*
X170786428Y-123329201D02*
X170691190Y-123376820D01*
X170691190Y-123376820D02*
X170453095Y-123376820D01*
X170453095Y-123376820D02*
X170357857Y-123329201D01*
X170357857Y-123329201D02*
X170310238Y-123281581D01*
X167737819Y-131570714D02*
X166737819Y-131570714D01*
X166737819Y-131570714D02*
X166737819Y-131189762D01*
X166737819Y-131189762D02*
X166785438Y-131094524D01*
X166785438Y-131094524D02*
X166833057Y-131046905D01*
X166833057Y-131046905D02*
X166928295Y-130999286D01*
X166928295Y-130999286D02*
X167071152Y-130999286D01*
X167071152Y-130999286D02*
X167166390Y-131046905D01*
X167166390Y-131046905D02*
X167214009Y-131094524D01*
X167214009Y-131094524D02*
X167261628Y-131189762D01*
X167261628Y-131189762D02*
X167261628Y-131570714D01*
X167737819Y-129999286D02*
X167261628Y-130332619D01*
X167737819Y-130570714D02*
X166737819Y-130570714D01*
X166737819Y-130570714D02*
X166737819Y-130189762D01*
X166737819Y-130189762D02*
X166785438Y-130094524D01*
X166785438Y-130094524D02*
X166833057Y-130046905D01*
X166833057Y-130046905D02*
X166928295Y-129999286D01*
X166928295Y-129999286D02*
X167071152Y-129999286D01*
X167071152Y-129999286D02*
X167166390Y-130046905D01*
X167166390Y-130046905D02*
X167214009Y-130094524D01*
X167214009Y-130094524D02*
X167261628Y-130189762D01*
X167261628Y-130189762D02*
X167261628Y-130570714D01*
X166737819Y-129380238D02*
X166737819Y-129189762D01*
X166737819Y-129189762D02*
X166785438Y-129094524D01*
X166785438Y-129094524D02*
X166880676Y-128999286D01*
X166880676Y-128999286D02*
X167071152Y-128951667D01*
X167071152Y-128951667D02*
X167404485Y-128951667D01*
X167404485Y-128951667D02*
X167594961Y-128999286D01*
X167594961Y-128999286D02*
X167690200Y-129094524D01*
X167690200Y-129094524D02*
X167737819Y-129189762D01*
X167737819Y-129189762D02*
X167737819Y-129380238D01*
X167737819Y-129380238D02*
X167690200Y-129475476D01*
X167690200Y-129475476D02*
X167594961Y-129570714D01*
X167594961Y-129570714D02*
X167404485Y-129618333D01*
X167404485Y-129618333D02*
X167071152Y-129618333D01*
X167071152Y-129618333D02*
X166880676Y-129570714D01*
X166880676Y-129570714D02*
X166785438Y-129475476D01*
X166785438Y-129475476D02*
X166737819Y-129380238D01*
X166785438Y-127999286D02*
X166737819Y-128094524D01*
X166737819Y-128094524D02*
X166737819Y-128237381D01*
X166737819Y-128237381D02*
X166785438Y-128380238D01*
X166785438Y-128380238D02*
X166880676Y-128475476D01*
X166880676Y-128475476D02*
X166975914Y-128523095D01*
X166975914Y-128523095D02*
X167166390Y-128570714D01*
X167166390Y-128570714D02*
X167309247Y-128570714D01*
X167309247Y-128570714D02*
X167499723Y-128523095D01*
X167499723Y-128523095D02*
X167594961Y-128475476D01*
X167594961Y-128475476D02*
X167690200Y-128380238D01*
X167690200Y-128380238D02*
X167737819Y-128237381D01*
X167737819Y-128237381D02*
X167737819Y-128142143D01*
X167737819Y-128142143D02*
X167690200Y-127999286D01*
X167690200Y-127999286D02*
X167642580Y-127951667D01*
X167642580Y-127951667D02*
X167309247Y-127951667D01*
X167309247Y-127951667D02*
X167309247Y-128142143D01*
X167737819Y-125819096D02*
X167261628Y-126152429D01*
X167737819Y-126390524D02*
X166737819Y-126390524D01*
X166737819Y-126390524D02*
X166737819Y-126009572D01*
X166737819Y-126009572D02*
X166785438Y-125914334D01*
X166785438Y-125914334D02*
X166833057Y-125866715D01*
X166833057Y-125866715D02*
X166928295Y-125819096D01*
X166928295Y-125819096D02*
X167071152Y-125819096D01*
X167071152Y-125819096D02*
X167166390Y-125866715D01*
X167166390Y-125866715D02*
X167214009Y-125914334D01*
X167214009Y-125914334D02*
X167261628Y-126009572D01*
X167261628Y-126009572D02*
X167261628Y-126390524D01*
X166737819Y-125390524D02*
X167547342Y-125390524D01*
X167547342Y-125390524D02*
X167642580Y-125342905D01*
X167642580Y-125342905D02*
X167690200Y-125295286D01*
X167690200Y-125295286D02*
X167737819Y-125200048D01*
X167737819Y-125200048D02*
X167737819Y-125009572D01*
X167737819Y-125009572D02*
X167690200Y-124914334D01*
X167690200Y-124914334D02*
X167642580Y-124866715D01*
X167642580Y-124866715D02*
X167547342Y-124819096D01*
X167547342Y-124819096D02*
X166737819Y-124819096D01*
X167737819Y-124342905D02*
X166737819Y-124342905D01*
X166737819Y-124342905D02*
X167737819Y-123771477D01*
X167737819Y-123771477D02*
X166737819Y-123771477D01*
X163366333Y-116644581D02*
X163318714Y-116692201D01*
X163318714Y-116692201D02*
X163175857Y-116739820D01*
X163175857Y-116739820D02*
X163080619Y-116739820D01*
X163080619Y-116739820D02*
X162937762Y-116692201D01*
X162937762Y-116692201D02*
X162842524Y-116596962D01*
X162842524Y-116596962D02*
X162794905Y-116501724D01*
X162794905Y-116501724D02*
X162747286Y-116311248D01*
X162747286Y-116311248D02*
X162747286Y-116168391D01*
X162747286Y-116168391D02*
X162794905Y-115977915D01*
X162794905Y-115977915D02*
X162842524Y-115882677D01*
X162842524Y-115882677D02*
X162937762Y-115787439D01*
X162937762Y-115787439D02*
X163080619Y-115739820D01*
X163080619Y-115739820D02*
X163175857Y-115739820D01*
X163175857Y-115739820D02*
X163318714Y-115787439D01*
X163318714Y-115787439D02*
X163366333Y-115835058D01*
X163747286Y-115835058D02*
X163794905Y-115787439D01*
X163794905Y-115787439D02*
X163890143Y-115739820D01*
X163890143Y-115739820D02*
X164128238Y-115739820D01*
X164128238Y-115739820D02*
X164223476Y-115787439D01*
X164223476Y-115787439D02*
X164271095Y-115835058D01*
X164271095Y-115835058D02*
X164318714Y-115930296D01*
X164318714Y-115930296D02*
X164318714Y-116025534D01*
X164318714Y-116025534D02*
X164271095Y-116168391D01*
X164271095Y-116168391D02*
X163699667Y-116739820D01*
X163699667Y-116739820D02*
X164318714Y-116739820D01*
X170048333Y-76891322D02*
X169715000Y-76415131D01*
X169476905Y-76891322D02*
X169476905Y-75891322D01*
X169476905Y-75891322D02*
X169857857Y-75891322D01*
X169857857Y-75891322D02*
X169953095Y-75938941D01*
X169953095Y-75938941D02*
X170000714Y-75986560D01*
X170000714Y-75986560D02*
X170048333Y-76081798D01*
X170048333Y-76081798D02*
X170048333Y-76224655D01*
X170048333Y-76224655D02*
X170000714Y-76319893D01*
X170000714Y-76319893D02*
X169953095Y-76367512D01*
X169953095Y-76367512D02*
X169857857Y-76415131D01*
X169857857Y-76415131D02*
X169476905Y-76415131D01*
X170905476Y-76224655D02*
X170905476Y-76891322D01*
X170667381Y-75843703D02*
X170429286Y-76557988D01*
X170429286Y-76557988D02*
X171048333Y-76557988D01*
X143745819Y-120421667D02*
X143269628Y-120755000D01*
X143745819Y-120993095D02*
X142745819Y-120993095D01*
X142745819Y-120993095D02*
X142745819Y-120612143D01*
X142745819Y-120612143D02*
X142793438Y-120516905D01*
X142793438Y-120516905D02*
X142841057Y-120469286D01*
X142841057Y-120469286D02*
X142936295Y-120421667D01*
X142936295Y-120421667D02*
X143079152Y-120421667D01*
X143079152Y-120421667D02*
X143174390Y-120469286D01*
X143174390Y-120469286D02*
X143222009Y-120516905D01*
X143222009Y-120516905D02*
X143269628Y-120612143D01*
X143269628Y-120612143D02*
X143269628Y-120993095D01*
X142745819Y-120088333D02*
X142745819Y-119469286D01*
X142745819Y-119469286D02*
X143126771Y-119802619D01*
X143126771Y-119802619D02*
X143126771Y-119659762D01*
X143126771Y-119659762D02*
X143174390Y-119564524D01*
X143174390Y-119564524D02*
X143222009Y-119516905D01*
X143222009Y-119516905D02*
X143317247Y-119469286D01*
X143317247Y-119469286D02*
X143555342Y-119469286D01*
X143555342Y-119469286D02*
X143650580Y-119516905D01*
X143650580Y-119516905D02*
X143698200Y-119564524D01*
X143698200Y-119564524D02*
X143745819Y-119659762D01*
X143745819Y-119659762D02*
X143745819Y-119945476D01*
X143745819Y-119945476D02*
X143698200Y-120040714D01*
X143698200Y-120040714D02*
X143650580Y-120088333D01*
X127987667Y-83705201D02*
X128130524Y-83752820D01*
X128130524Y-83752820D02*
X128368619Y-83752820D01*
X128368619Y-83752820D02*
X128463857Y-83705201D01*
X128463857Y-83705201D02*
X128511476Y-83657581D01*
X128511476Y-83657581D02*
X128559095Y-83562343D01*
X128559095Y-83562343D02*
X128559095Y-83467105D01*
X128559095Y-83467105D02*
X128511476Y-83371867D01*
X128511476Y-83371867D02*
X128463857Y-83324248D01*
X128463857Y-83324248D02*
X128368619Y-83276629D01*
X128368619Y-83276629D02*
X128178143Y-83229010D01*
X128178143Y-83229010D02*
X128082905Y-83181391D01*
X128082905Y-83181391D02*
X128035286Y-83133772D01*
X128035286Y-83133772D02*
X127987667Y-83038534D01*
X127987667Y-83038534D02*
X127987667Y-82943296D01*
X127987667Y-82943296D02*
X128035286Y-82848058D01*
X128035286Y-82848058D02*
X128082905Y-82800439D01*
X128082905Y-82800439D02*
X128178143Y-82752820D01*
X128178143Y-82752820D02*
X128416238Y-82752820D01*
X128416238Y-82752820D02*
X128559095Y-82800439D01*
X128892429Y-82752820D02*
X129130524Y-83752820D01*
X129130524Y-83752820D02*
X129321000Y-83038534D01*
X129321000Y-83038534D02*
X129511476Y-83752820D01*
X129511476Y-83752820D02*
X129749572Y-82752820D01*
X130654333Y-83752820D02*
X130082905Y-83752820D01*
X130368619Y-83752820D02*
X130368619Y-82752820D01*
X130368619Y-82752820D02*
X130273381Y-82895677D01*
X130273381Y-82895677D02*
X130178143Y-82990915D01*
X130178143Y-82990915D02*
X130082905Y-83038534D01*
X164756180Y-130601834D02*
X165232371Y-130268501D01*
X164756180Y-130030406D02*
X165756180Y-130030406D01*
X165756180Y-130030406D02*
X165756180Y-130411358D01*
X165756180Y-130411358D02*
X165708561Y-130506596D01*
X165708561Y-130506596D02*
X165660942Y-130554215D01*
X165660942Y-130554215D02*
X165565704Y-130601834D01*
X165565704Y-130601834D02*
X165422847Y-130601834D01*
X165422847Y-130601834D02*
X165327609Y-130554215D01*
X165327609Y-130554215D02*
X165279990Y-130506596D01*
X165279990Y-130506596D02*
X165232371Y-130411358D01*
X165232371Y-130411358D02*
X165232371Y-130030406D01*
X164756180Y-131554215D02*
X164756180Y-130982787D01*
X164756180Y-131268501D02*
X165756180Y-131268501D01*
X165756180Y-131268501D02*
X165613323Y-131173263D01*
X165613323Y-131173263D02*
X165518085Y-131078025D01*
X165518085Y-131078025D02*
X165470466Y-130982787D01*
D14*
%TO.C,C5*%
X161661000Y-117701421D02*
X161661000Y-117982581D01*
X160641000Y-117701421D02*
X160641000Y-117982581D01*
D15*
%TO.C,R8*%
X166021000Y-116100001D02*
X168821000Y-116100001D01*
X166021000Y-120600001D02*
X168821000Y-120600001D01*
X166021000Y-116100003D02*
G75*
G03*
X166021002Y-120599998I1410000J-2249997D01*
G01*
X168821000Y-120600001D02*
G75*
G03*
X168821000Y-116100001I-1400000J2250000D01*
G01*
D14*
%TO.C,Q1*%
X135285000Y-131792001D02*
X136960000Y-131792001D01*
X135285000Y-131792001D02*
X134635000Y-131792001D01*
X135285000Y-128672001D02*
X135935000Y-128672001D01*
X135285000Y-128672001D02*
X134635000Y-128672001D01*
%TO.C,D2*%
X131265000Y-133803001D02*
X132965000Y-133803001D01*
X131265000Y-133803001D02*
X131265000Y-131143001D01*
X132965000Y-133803001D02*
X132965000Y-131143001D01*
%TO.C,J3*%
X165335500Y-68597001D02*
X165335500Y-67857001D01*
X165335500Y-67857001D02*
X164835500Y-67857001D01*
X165095500Y-78018001D02*
X165095500Y-68097001D01*
X165095500Y-78018001D02*
X154815500Y-78018001D01*
X165095500Y-75058001D02*
X154815500Y-75058001D01*
X165095500Y-70157001D02*
X154815500Y-70157001D01*
X165095500Y-68657001D02*
X154815500Y-68657001D01*
X165095500Y-68097001D02*
X154815500Y-68097001D01*
X158642500Y-71734001D02*
X158689500Y-71688001D01*
X158449500Y-71518001D02*
X158484500Y-71483001D01*
X156345500Y-74032001D02*
X156380500Y-73996001D01*
X156140500Y-73826001D02*
X156187500Y-73780001D01*
X154815500Y-78018001D02*
X154815500Y-68097001D01*
X164030499Y-73441000D02*
G75*
G03*
X164030926Y-72073959I-1534992J684000D01*
G01*
X161811501Y-74292000D02*
G75*
G03*
X163178542Y-74292427I684000J1534992D01*
G01*
X163179500Y-71222002D02*
G75*
G03*
X162466695Y-71076749I-683999J-1535000D01*
G01*
X162495500Y-71077002D02*
G75*
G03*
X161812182Y-71222246I0J-1679999D01*
G01*
X160960500Y-72073001D02*
G75*
G03*
X160960074Y-73440043I1535000J-684000D01*
G01*
X159095500Y-72757001D02*
G75*
G03*
X159095500Y-72757001I-1680000J0D01*
G01*
%TO.C,R9*%
X156661000Y-82879001D02*
X157861000Y-82879001D01*
X156661000Y-84479001D02*
X157861000Y-84479001D01*
%TO.C,U4*%
X162431000Y-79007001D02*
X162431000Y-86747001D01*
X162431000Y-86747001D02*
X167331000Y-86747001D01*
X163881000Y-79007001D02*
X162431000Y-79007001D01*
X167331000Y-79007001D02*
X165881000Y-79007001D01*
X167331000Y-86747001D02*
X167331000Y-79007001D01*
X163881000Y-79007001D02*
G75*
G03*
X165881000Y-79007001I1000000J0D01*
G01*
%TO.C,C6*%
X153988000Y-86545001D02*
X153988000Y-80305001D01*
X153988000Y-86545001D02*
X140748000Y-86545001D01*
X153988000Y-80305001D02*
X140748000Y-80305001D01*
X140748000Y-86545001D02*
X140748000Y-80305001D01*
%TO.C,D1*%
X169160000Y-75143001D02*
X169160000Y-73673001D01*
X169160000Y-73673001D02*
X166875000Y-73673001D01*
X166875000Y-75143001D02*
X169160000Y-75143001D01*
%TO.C,K1*%
X126447000Y-128027001D02*
X132947000Y-128027001D01*
X126447000Y-128027001D02*
X126447000Y-108827001D01*
X135347000Y-128027001D02*
X141847000Y-128027001D01*
X134147000Y-123927001D02*
X134147000Y-124827001D01*
X134147000Y-123927001D02*
X137847000Y-123927001D01*
X132647000Y-123027001D02*
X132647000Y-118027001D01*
X135647000Y-123027001D02*
X132647000Y-123027001D01*
X140147000Y-122827001D02*
X140147000Y-120527001D01*
X128147000Y-120527001D02*
X128147000Y-122827001D01*
X128147000Y-120527001D02*
X132647000Y-120527001D01*
X135647000Y-120527001D02*
X140147000Y-120527001D01*
X132647000Y-118027001D02*
X135647000Y-118027001D01*
X135647000Y-118027001D02*
X132647000Y-123027001D01*
X135647000Y-118027001D02*
X135647000Y-123027001D01*
X134147000Y-117027001D02*
X137847000Y-117027001D01*
X134147000Y-117027001D02*
X134147000Y-115527001D01*
X137847000Y-117027001D02*
X137847000Y-123927001D01*
X134147000Y-115527001D02*
X131447000Y-111027001D01*
X129847000Y-112327001D02*
X132147000Y-112327001D01*
X138447000Y-112327001D02*
X136147000Y-112327001D01*
X126447000Y-108827001D02*
X141847000Y-108827001D01*
X141847000Y-108827001D02*
X141847000Y-128027001D01*
%TO.C,J4*%
X170783000Y-104829001D02*
X170783000Y-92069001D01*
X170783000Y-104829001D02*
X168123000Y-104829001D01*
X170783000Y-92069001D02*
X168123000Y-92069001D01*
X169453000Y-107429001D02*
X168123000Y-107429001D01*
X168123000Y-107429001D02*
X168123000Y-106099001D01*
X168123000Y-104829001D02*
X168123000Y-92069001D01*
%TO.C,R5*%
X164133500Y-126456243D02*
X164133500Y-126930759D01*
X163088500Y-126456243D02*
X163088500Y-126930759D01*
%TO.C,J2*%
X153918000Y-68597001D02*
X153918000Y-67857001D01*
X153918000Y-67857001D02*
X153418000Y-67857001D01*
X153678000Y-78018001D02*
X153678000Y-68097001D01*
X153678000Y-78018001D02*
X143398000Y-78018001D01*
X153678000Y-75058001D02*
X143398000Y-75058001D01*
X153678000Y-70157001D02*
X143398000Y-70157001D01*
X153678000Y-68657001D02*
X143398000Y-68657001D01*
X153678000Y-68097001D02*
X143398000Y-68097001D01*
X147225000Y-71734001D02*
X147272000Y-71688001D01*
X147032000Y-71518001D02*
X147067000Y-71483001D01*
X144928000Y-74032001D02*
X144963000Y-73996001D01*
X144723000Y-73826001D02*
X144770000Y-73780001D01*
X143398000Y-78018001D02*
X143398000Y-68097001D01*
X152612999Y-73441000D02*
G75*
G03*
X152613426Y-72073959I-1534992J684000D01*
G01*
X150394001Y-74292000D02*
G75*
G03*
X151761042Y-74292427I684000J1534992D01*
G01*
X151762000Y-71222002D02*
G75*
G03*
X151049195Y-71076749I-683999J-1535000D01*
G01*
X151078000Y-71077002D02*
G75*
G03*
X150394682Y-71222246I0J-1679999D01*
G01*
X149543000Y-72073001D02*
G75*
G03*
X149542574Y-73440043I1535000J-684000D01*
G01*
X147678000Y-72757001D02*
G75*
G03*
X147678000Y-72757001I-1680000J0D01*
G01*
%TO.C,J1*%
X142500500Y-68597001D02*
X142500500Y-67857001D01*
X142500500Y-67857001D02*
X142000500Y-67857001D01*
X142260500Y-78018001D02*
X142260500Y-68097001D01*
X142260500Y-78018001D02*
X131980500Y-78018001D01*
X142260500Y-75058001D02*
X131980500Y-75058001D01*
X142260500Y-70157001D02*
X131980500Y-70157001D01*
X142260500Y-68657001D02*
X131980500Y-68657001D01*
X142260500Y-68097001D02*
X131980500Y-68097001D01*
X135807500Y-71734001D02*
X135854500Y-71688001D01*
X135614500Y-71518001D02*
X135649500Y-71483001D01*
X133510500Y-74032001D02*
X133545500Y-73996001D01*
X133305500Y-73826001D02*
X133352500Y-73780001D01*
X131980500Y-78018001D02*
X131980500Y-68097001D01*
X141195499Y-73441000D02*
G75*
G03*
X141195926Y-72073959I-1534992J684000D01*
G01*
X138976501Y-74292000D02*
G75*
G03*
X140343542Y-74292427I684000J1534992D01*
G01*
X140344500Y-71222002D02*
G75*
G03*
X139631695Y-71076749I-683999J-1535000D01*
G01*
X139660500Y-71077002D02*
G75*
G03*
X138977182Y-71222246I0J-1679999D01*
G01*
X138125500Y-72073001D02*
G75*
G03*
X138125074Y-73440043I1535000J-684000D01*
G01*
X136260500Y-72757001D02*
G75*
G03*
X136260500Y-72757001I-1680000J0D01*
G01*
%TO.C,R10*%
X156661000Y-80339001D02*
X157861000Y-80339001D01*
X156661000Y-81939001D02*
X157861000Y-81939001D01*
%TO.C,U1*%
X153258000Y-117202001D02*
X147248000Y-117202001D01*
X151008000Y-110382001D02*
X147248000Y-110382001D01*
X147248000Y-117202001D02*
X147248000Y-115942001D01*
X147248000Y-110382001D02*
X147248000Y-111642001D01*
%TO.C,R6*%
X137688500Y-130469259D02*
X137688500Y-129994743D01*
X138733500Y-130469259D02*
X138733500Y-129994743D01*
%TO.C,C4*%
X154231998Y-113045999D02*
X154231998Y-115045999D01*
X154231998Y-115045999D02*
X158631998Y-115045999D01*
X158631998Y-113045999D02*
X154231998Y-113045999D01*
%TO.C,R2*%
X164133500Y-134456243D02*
X164133500Y-134930759D01*
X163088500Y-134456243D02*
X163088500Y-134930759D01*
D16*
%TO.C,U2*%
X161467000Y-120659501D02*
X161467000Y-119897501D01*
X161467000Y-119897501D02*
X145465000Y-119897501D01*
X145465000Y-119897501D02*
X145465000Y-120659501D01*
D14*
%TO.C,C1*%
X132441000Y-88529001D02*
X126201000Y-88529001D01*
X132441000Y-88529001D02*
X132441000Y-106769001D01*
X126201000Y-88529001D02*
X126201000Y-106769001D01*
X132441000Y-106769001D02*
X126201000Y-106769001D01*
%TO.C,U3*%
X140915000Y-137587001D02*
X140915000Y-132387001D01*
X140915000Y-132387001D02*
X136015000Y-132387001D01*
X139465000Y-137587001D02*
X140915000Y-137587001D01*
X136015000Y-137587001D02*
X137465000Y-137587001D01*
X136015000Y-132387001D02*
X136015000Y-137587001D01*
X139465000Y-137587001D02*
G75*
G03*
X137465000Y-137587001I-1000000J0D01*
G01*
%TO.C,PS1*%
X132796500Y-94149001D02*
X132796500Y-96159001D01*
X133186500Y-87549001D02*
X133186500Y-107749001D01*
X133186500Y-107749001D02*
X167386500Y-107749001D01*
X167386500Y-87549001D02*
X133186500Y-87549001D01*
X167386500Y-107749001D02*
X167386500Y-87549001D01*
%TO.C,R7*%
X167183742Y-121129501D02*
X167658258Y-121129501D01*
X167183742Y-122174501D02*
X167658258Y-122174501D01*
%TO.C,C3*%
X154231999Y-110292000D02*
X154231999Y-112292000D01*
X154231999Y-112292000D02*
X158631999Y-112292000D01*
X158631999Y-110292000D02*
X154231999Y-110292000D01*
%TO.C,J5*%
X168148000Y-123751001D02*
X169478000Y-123751001D01*
X168148000Y-125081001D02*
X168148000Y-123751001D01*
X168148000Y-126351001D02*
X168148000Y-131491001D01*
X168148000Y-126351001D02*
X170808000Y-126351001D01*
X168148000Y-131491001D02*
X170808000Y-131491001D01*
X170808000Y-126351001D02*
X170808000Y-131491001D01*
%TO.C,C2*%
X161095500Y-110152500D02*
X161883000Y-110152500D01*
X161489250Y-109758750D02*
X161489250Y-110546250D01*
X162123000Y-109654437D02*
X162123000Y-110940000D01*
X162123000Y-109654437D02*
X163187437Y-108590000D01*
X162123000Y-114345563D02*
X162123000Y-113060000D01*
X162123000Y-114345563D02*
X163187437Y-115410000D01*
X163187437Y-108590000D02*
X168943000Y-108590000D01*
X163187437Y-115410000D02*
X168943000Y-115410000D01*
X168943000Y-108590000D02*
X168943000Y-110940000D01*
X168943000Y-115410000D02*
X168943000Y-113060000D01*
%TO.C,R4*%
X167932258Y-76959003D02*
X167457742Y-76959003D01*
X167932258Y-75914003D02*
X167457742Y-75914003D01*
%TO.C,R3*%
X142768500Y-122930759D02*
X142768500Y-122456243D01*
X143813500Y-122930759D02*
X143813500Y-122456243D01*
%TO.C,SW1*%
X138255000Y-86575001D02*
X131055000Y-86575001D01*
X133255000Y-84675001D02*
X136055000Y-84675001D01*
X133255000Y-81275001D02*
X133255000Y-84675001D01*
X133255000Y-81275001D02*
X136055000Y-81275001D01*
X136055000Y-81275001D02*
X136055000Y-84675001D01*
X131055000Y-79375001D02*
X131055000Y-86575001D01*
X138255000Y-79375001D02*
X138255000Y-86575001D01*
X138255000Y-79375001D02*
X131055000Y-79375001D01*
%TO.C,R1*%
X164133500Y-130456243D02*
X164133500Y-130930759D01*
X163088500Y-130456243D02*
X163088500Y-130930759D01*
%TO.C,G\u002A\u002A\u002A*%
G36*
X128144968Y-74384869D02*
G01*
X128144968Y-74600886D01*
X127694932Y-74600886D01*
X127244897Y-74600886D01*
X127244897Y-74511252D01*
X127244897Y-74421618D01*
X127609426Y-74416745D01*
X127973954Y-74411871D01*
X127979277Y-74290362D01*
X127984600Y-74168852D01*
X128064784Y-74168852D01*
X128144968Y-74168852D01*
X128144968Y-74384869D01*
G37*
G36*
X128135609Y-71571189D02*
G01*
X128142679Y-71598461D01*
X128144876Y-71656344D01*
X128144879Y-71661093D01*
X128144789Y-71765663D01*
X127963832Y-71891673D01*
X127782875Y-72017683D01*
X127963921Y-72022813D01*
X128144968Y-72027943D01*
X128144968Y-72117320D01*
X128144968Y-72206698D01*
X127694932Y-72206698D01*
X127244897Y-72206698D01*
X127244897Y-72117392D01*
X127244897Y-72028085D01*
X127401925Y-72022884D01*
X127558953Y-72017683D01*
X127401925Y-71901470D01*
X127244897Y-71785258D01*
X127244897Y-71689954D01*
X127247491Y-71636894D01*
X127254158Y-71602294D01*
X127260112Y-71594650D01*
X127279391Y-71604926D01*
X127321450Y-71633061D01*
X127380490Y-71675012D01*
X127450715Y-71726736D01*
X127466606Y-71738661D01*
X127538064Y-71791870D01*
X127599096Y-71836204D01*
X127644050Y-71867639D01*
X127667273Y-71882150D01*
X127668906Y-71882672D01*
X127686727Y-71872754D01*
X127728216Y-71845492D01*
X127787856Y-71804630D01*
X127860133Y-71753909D01*
X127889945Y-71732700D01*
X127966896Y-71677949D01*
X128034466Y-71630244D01*
X128086722Y-71593747D01*
X128117731Y-71572618D01*
X128122466Y-71569624D01*
X128135609Y-71571189D01*
G37*
G36*
X128139223Y-73302858D02*
G01*
X128144106Y-73344293D01*
X128144968Y-73375394D01*
X128143429Y-73428756D01*
X128134015Y-73457883D01*
X128109532Y-73474535D01*
X128077463Y-73485748D01*
X128027124Y-73503624D01*
X127994598Y-73523406D01*
X127976000Y-73552831D01*
X127967447Y-73599631D01*
X127965055Y-73671543D01*
X127964954Y-73709816D01*
X127965949Y-73794175D01*
X127971523Y-73850271D01*
X127985560Y-73885841D01*
X128011943Y-73908618D01*
X128054556Y-73926336D01*
X128077463Y-73933884D01*
X128116626Y-73948209D01*
X128136653Y-73965835D01*
X128143961Y-73997892D01*
X128144968Y-74050977D01*
X128144968Y-74146326D01*
X127784939Y-74007725D01*
X127694934Y-73973075D01*
X127244900Y-73799823D01*
X127245001Y-73719058D01*
X127512835Y-73719058D01*
X127516118Y-73724251D01*
X127535622Y-73732830D01*
X127580195Y-73750078D01*
X127640987Y-73772590D01*
X127654429Y-73777467D01*
X127784939Y-73824648D01*
X127784939Y-73709534D01*
X127784939Y-73594420D01*
X127663430Y-73639924D01*
X127578536Y-73674224D01*
X127528432Y-73700548D01*
X127512835Y-73719058D01*
X127245001Y-73719058D01*
X127245013Y-73709816D01*
X127245126Y-73619809D01*
X127681546Y-73453018D01*
X127799560Y-73408117D01*
X127906506Y-73367812D01*
X127997787Y-73333805D01*
X128068806Y-73307795D01*
X128114968Y-73291485D01*
X128131467Y-73286505D01*
X128139223Y-73302858D01*
G37*
G36*
X129556740Y-73712913D02*
G01*
X129670333Y-73752878D01*
X129769669Y-73821339D01*
X129771873Y-73823386D01*
X129842213Y-73912557D01*
X129888283Y-74020810D01*
X129908663Y-74139407D01*
X129901934Y-74259609D01*
X129866678Y-74372679D01*
X129862479Y-74381363D01*
X129792938Y-74483378D01*
X129701696Y-74560374D01*
X129594431Y-74610711D01*
X129476822Y-74632749D01*
X129422790Y-74629257D01*
X129354546Y-74624847D01*
X129233283Y-74585366D01*
X129205288Y-74571187D01*
X129145267Y-74532739D01*
X129092417Y-74489174D01*
X129070229Y-74465101D01*
X129009410Y-74357659D01*
X128978447Y-74239231D01*
X128977075Y-74130630D01*
X129145290Y-74130630D01*
X129147569Y-74219272D01*
X129183870Y-74305122D01*
X129242152Y-74372912D01*
X129329463Y-74430642D01*
X129422790Y-74454671D01*
X129516775Y-74444905D01*
X129606058Y-74401248D01*
X129633090Y-74379816D01*
X129703766Y-74301447D01*
X129739000Y-74220331D01*
X129739351Y-74134118D01*
X129711143Y-74051949D01*
X129652519Y-73967709D01*
X129573537Y-73910677D01*
X129484476Y-73885098D01*
X129399541Y-73882836D01*
X129331084Y-73901328D01*
X129264537Y-73945342D01*
X129242772Y-73964233D01*
X129177027Y-74044013D01*
X129145290Y-74130630D01*
X128977075Y-74130630D01*
X128976905Y-74117163D01*
X129004348Y-73998801D01*
X129060341Y-73891489D01*
X129107570Y-73835352D01*
X129204307Y-73762664D01*
X129316340Y-73717939D01*
X129436280Y-73701311D01*
X129556740Y-73712913D01*
G37*
G36*
X129890873Y-72922421D02*
G01*
X129890640Y-73025762D01*
X129755382Y-73113765D01*
X129694094Y-73154605D01*
X129644977Y-73189142D01*
X129615497Y-73212045D01*
X129610672Y-73217061D01*
X129620717Y-73232572D01*
X129655439Y-73261790D01*
X129708679Y-73299837D01*
X129746163Y-73324375D01*
X129891105Y-73416396D01*
X129891105Y-73522829D01*
X129891105Y-73629261D01*
X129814599Y-73581213D01*
X129765804Y-73549905D01*
X129698193Y-73505664D01*
X129622779Y-73455722D01*
X129583103Y-73429206D01*
X129428112Y-73325248D01*
X129259077Y-73437972D01*
X129185492Y-73486965D01*
X129118173Y-73531646D01*
X129065650Y-73566363D01*
X129040538Y-73582822D01*
X128991034Y-73614949D01*
X128991267Y-73509371D01*
X128991499Y-73403792D01*
X129126278Y-73316104D01*
X129185933Y-73276809D01*
X129232064Y-73245505D01*
X129257876Y-73226847D01*
X129261056Y-73223778D01*
X129247047Y-73212611D01*
X129209549Y-73186627D01*
X129155357Y-73150481D01*
X129126278Y-73131452D01*
X128991499Y-73043764D01*
X128991267Y-72939193D01*
X128993072Y-72879423D01*
X128999637Y-72850527D01*
X129012178Y-72847548D01*
X129013536Y-72848318D01*
X129036490Y-72862862D01*
X129083188Y-72892854D01*
X129147178Y-72934135D01*
X129222005Y-72982550D01*
X129234343Y-72990546D01*
X129432648Y-73119079D01*
X129576370Y-73022225D01*
X129651132Y-72972335D01*
X129726032Y-72923173D01*
X129788433Y-72883009D01*
X129805599Y-72872224D01*
X129891105Y-72819079D01*
X129890873Y-72922421D01*
G37*
G36*
X127459211Y-72397383D02*
G01*
X127491850Y-72442841D01*
X127507919Y-72474158D01*
X127507340Y-72499469D01*
X127487599Y-72532559D01*
X127471581Y-72553941D01*
X127416884Y-72650022D01*
X127397428Y-72746454D01*
X127413014Y-72840216D01*
X127463443Y-72928289D01*
X127498663Y-72966419D01*
X127583739Y-73025830D01*
X127675039Y-73050872D01*
X127767948Y-73041506D01*
X127857854Y-72997698D01*
X127893018Y-72969553D01*
X127960761Y-72887466D01*
X127994351Y-72796525D01*
X127993505Y-72700076D01*
X127957942Y-72601467D01*
X127927969Y-72553667D01*
X127870172Y-72473185D01*
X127926719Y-72416638D01*
X127965894Y-72383719D01*
X127998868Y-72374957D01*
X128031477Y-72392690D01*
X128069557Y-72439255D01*
X128099964Y-72486022D01*
X128127498Y-72534596D01*
X128144417Y-72579750D01*
X128153750Y-72633823D01*
X128158527Y-72709153D01*
X128159183Y-72727279D01*
X128160356Y-72809837D01*
X128155922Y-72869337D01*
X128143906Y-72918541D01*
X128122335Y-72970208D01*
X128121252Y-72972494D01*
X128054014Y-73077437D01*
X127965489Y-73153660D01*
X127855126Y-73201492D01*
X127722377Y-73221260D01*
X127703933Y-73221778D01*
X127570300Y-73208282D01*
X127454511Y-73164534D01*
X127359087Y-73092386D01*
X127286545Y-72993694D01*
X127242446Y-72882028D01*
X127228104Y-72771466D01*
X127238415Y-72651855D01*
X127271382Y-72538352D01*
X127293894Y-72491851D01*
X127341576Y-72417681D01*
X127383135Y-72377680D01*
X127421402Y-72371148D01*
X127459211Y-72397383D01*
G37*
G36*
X127991846Y-74771811D02*
G01*
X128048298Y-74803957D01*
X128090066Y-74846383D01*
X128118674Y-74900975D01*
X128136002Y-74974280D01*
X128143931Y-75072845D01*
X128144968Y-75140351D01*
X128144968Y-75320943D01*
X127917288Y-75320943D01*
X127694932Y-75320943D01*
X127505918Y-75320943D01*
X127244897Y-75320943D01*
X127244997Y-75190433D01*
X127251594Y-75090525D01*
X127424911Y-75090525D01*
X127427599Y-75121547D01*
X127442155Y-75136242D01*
X127478318Y-75140670D01*
X127505918Y-75140929D01*
X127555774Y-75139257D01*
X127574885Y-75131928D01*
X127757937Y-75131928D01*
X127845657Y-75137505D01*
X127917288Y-75139493D01*
X127959423Y-75131778D01*
X127978060Y-75110704D01*
X127979195Y-75072613D01*
X127977027Y-75057371D01*
X127961435Y-75003606D01*
X127937812Y-74960859D01*
X127935931Y-74958682D01*
X127901050Y-74932473D01*
X127875294Y-74924912D01*
X127834357Y-74940936D01*
X127796624Y-74981833D01*
X127770417Y-75036837D01*
X127763959Y-75068923D01*
X127757937Y-75131928D01*
X127574885Y-75131928D01*
X127579391Y-75130200D01*
X127586509Y-75107698D01*
X127586924Y-75090525D01*
X127579629Y-75045546D01*
X127565322Y-75018519D01*
X127530227Y-75000484D01*
X127505918Y-74996918D01*
X127456542Y-75011408D01*
X127429509Y-75053218D01*
X127424911Y-75090525D01*
X127251594Y-75090525D01*
X127254014Y-75053866D01*
X127280902Y-74948429D01*
X127325772Y-74873937D01*
X127388731Y-74830202D01*
X127464030Y-74816971D01*
X127534241Y-74826381D01*
X127596097Y-74850101D01*
X127598225Y-74851371D01*
X127654529Y-74885704D01*
X127692764Y-74833987D01*
X127749764Y-74784946D01*
X127825612Y-74757645D01*
X127909806Y-74752971D01*
X127991846Y-74771811D01*
G37*
G36*
X129737983Y-74771811D02*
G01*
X129794436Y-74803957D01*
X129836204Y-74846383D01*
X129864811Y-74900975D01*
X129882139Y-74974280D01*
X129890069Y-75072845D01*
X129891105Y-75140351D01*
X129891105Y-75320943D01*
X129663425Y-75320943D01*
X129441070Y-75320943D01*
X129252055Y-75320943D01*
X128991034Y-75320943D01*
X128991135Y-75190433D01*
X128997731Y-75090525D01*
X129171049Y-75090525D01*
X129173736Y-75121547D01*
X129188292Y-75136242D01*
X129224455Y-75140670D01*
X129252055Y-75140929D01*
X129301911Y-75139257D01*
X129321023Y-75131928D01*
X129504075Y-75131928D01*
X129591795Y-75137505D01*
X129663425Y-75139493D01*
X129705561Y-75131778D01*
X129724198Y-75110704D01*
X129725333Y-75072613D01*
X129723165Y-75057371D01*
X129707572Y-75003606D01*
X129683949Y-74960859D01*
X129682068Y-74958682D01*
X129647187Y-74932473D01*
X129621432Y-74924912D01*
X129580495Y-74940936D01*
X129542761Y-74981833D01*
X129516555Y-75036837D01*
X129510096Y-75068923D01*
X129504075Y-75131928D01*
X129321023Y-75131928D01*
X129325529Y-75130200D01*
X129332646Y-75107698D01*
X129333061Y-75090525D01*
X129325767Y-75045546D01*
X129311460Y-75018519D01*
X129276365Y-75000484D01*
X129252055Y-74996918D01*
X129202680Y-75011408D01*
X129175647Y-75053218D01*
X129171049Y-75090525D01*
X128997731Y-75090525D01*
X129000151Y-75053866D01*
X129027040Y-74948429D01*
X129071909Y-74873937D01*
X129134868Y-74830202D01*
X129210167Y-74816971D01*
X129280379Y-74826381D01*
X129342234Y-74850101D01*
X129344362Y-74851371D01*
X129400666Y-74885704D01*
X129438902Y-74833987D01*
X129495902Y-74784946D01*
X129571749Y-74757645D01*
X129655943Y-74752971D01*
X129737983Y-74771811D01*
G37*
G36*
X129445242Y-76712427D02*
G01*
X129584966Y-76763802D01*
X129601136Y-76771571D01*
X129723133Y-76843502D01*
X129833313Y-76934902D01*
X129935984Y-77050335D01*
X130035458Y-77194366D01*
X130093621Y-77293230D01*
X130137750Y-77372941D01*
X130174723Y-77441343D01*
X130201327Y-77492370D01*
X130214352Y-77519955D01*
X130215131Y-77522748D01*
X130197740Y-77525344D01*
X130148009Y-77527755D01*
X130069601Y-77529924D01*
X129966178Y-77531790D01*
X129841404Y-77533298D01*
X129698940Y-77534387D01*
X129642606Y-77534608D01*
X129542449Y-77535001D01*
X129435742Y-77535117D01*
X128956353Y-77535117D01*
X128656353Y-77535117D01*
X128547079Y-77341602D01*
X128488195Y-77234790D01*
X128446330Y-77151783D01*
X128418938Y-77086163D01*
X128413864Y-77068237D01*
X128619825Y-77068237D01*
X128637683Y-77140902D01*
X128683632Y-77235658D01*
X128686350Y-77240435D01*
X128741657Y-77337102D01*
X128956353Y-77337102D01*
X129040433Y-77335796D01*
X129108757Y-77332227D01*
X129154552Y-77326920D01*
X129171049Y-77320479D01*
X129161019Y-77298142D01*
X129135004Y-77257166D01*
X129106370Y-77216971D01*
X129009723Y-77106550D01*
X128909490Y-77029400D01*
X128842067Y-77001135D01*
X129231250Y-77001135D01*
X129242540Y-77055843D01*
X129271800Y-77129125D01*
X129309550Y-77206592D01*
X129376106Y-77337102D01*
X129642606Y-77337102D01*
X129735921Y-77336579D01*
X129814972Y-77335141D01*
X129873496Y-77332980D01*
X129905229Y-77330288D01*
X129909107Y-77328893D01*
X129900707Y-77310256D01*
X129878858Y-77270031D01*
X129853214Y-77225385D01*
X129762049Y-77090094D01*
X129666896Y-76989421D01*
X129566002Y-76922054D01*
X129457610Y-76886676D01*
X129392502Y-76880337D01*
X129331703Y-76881415D01*
X129293922Y-76890830D01*
X129266436Y-76912562D01*
X129258037Y-76922397D01*
X129236794Y-76958740D01*
X129231250Y-77001135D01*
X128842067Y-77001135D01*
X128807235Y-76986533D01*
X128735800Y-76977469D01*
X128668783Y-76987053D01*
X128630158Y-77017132D01*
X128619825Y-77068237D01*
X128413864Y-77068237D01*
X128403469Y-77031515D01*
X128397376Y-76981422D01*
X128396988Y-76963608D01*
X128413474Y-76900813D01*
X128457016Y-76844899D01*
X128518738Y-76805020D01*
X128563165Y-76792219D01*
X128651365Y-76790555D01*
X128754726Y-76807018D01*
X128859074Y-76838864D01*
X128904161Y-76858237D01*
X128966021Y-76883744D01*
X129003698Y-76887122D01*
X129022250Y-76867247D01*
X129026762Y-76831016D01*
X129042389Y-76791463D01*
X129081501Y-76749600D01*
X129133449Y-76714568D01*
X129183852Y-76696150D01*
X129309092Y-76689434D01*
X129445242Y-76712427D01*
G37*
G36*
X129852378Y-78936543D02*
G01*
X129918907Y-78945009D01*
X129959652Y-78955796D01*
X130025557Y-79001022D01*
X130068269Y-79068279D01*
X130085540Y-79150319D01*
X130075121Y-79239890D01*
X130060571Y-79281255D01*
X130041494Y-79320652D01*
X130008837Y-79383100D01*
X129966965Y-79460435D01*
X129920239Y-79544494D01*
X129913873Y-79555776D01*
X129794316Y-79767293D01*
X129692638Y-79767293D01*
X129014645Y-79767293D01*
X128851018Y-79767013D01*
X128699053Y-79766211D01*
X128628372Y-79765557D01*
X128562412Y-79764947D01*
X128444759Y-79763280D01*
X128349753Y-79761269D01*
X128281059Y-79758972D01*
X128242337Y-79756450D01*
X128234975Y-79754726D01*
X128243343Y-79734754D01*
X128265944Y-79690734D01*
X128299019Y-79629806D01*
X128327359Y-79579212D01*
X128335971Y-79565027D01*
X128540999Y-79565027D01*
X128549097Y-79575268D01*
X128576611Y-79581605D01*
X128628372Y-79584457D01*
X128709211Y-79584242D01*
X128752516Y-79583350D01*
X128964032Y-79578278D01*
X128971900Y-79562771D01*
X129181610Y-79562771D01*
X129182381Y-79573050D01*
X129202613Y-79578195D01*
X129252083Y-79582511D01*
X129324028Y-79585628D01*
X129411686Y-79587176D01*
X129441906Y-79587279D01*
X129692638Y-79587279D01*
X129740343Y-79511709D01*
X129806122Y-79395178D01*
X129844009Y-79298465D01*
X129853869Y-79222239D01*
X129835565Y-79167166D01*
X129815094Y-79147265D01*
X129749018Y-79121823D01*
X129667573Y-79122828D01*
X129577302Y-79148157D01*
X129484750Y-79195689D01*
X129396458Y-79263305D01*
X129366479Y-79292676D01*
X129316149Y-79349974D01*
X129267739Y-79412878D01*
X129226008Y-79474143D01*
X129195712Y-79526523D01*
X129181610Y-79562771D01*
X128971900Y-79562771D01*
X129022537Y-79462976D01*
X129057076Y-79392089D01*
X129074875Y-79344235D01*
X129076875Y-79311085D01*
X129064012Y-79284306D01*
X129045039Y-79263253D01*
X128998153Y-79237832D01*
X128931928Y-79227236D01*
X128860091Y-79232049D01*
X128796625Y-79252717D01*
X128749838Y-79285897D01*
X128695926Y-79337068D01*
X128641506Y-79398147D01*
X128593194Y-79461050D01*
X128557607Y-79517692D01*
X128541362Y-79559991D01*
X128540999Y-79565027D01*
X128335971Y-79565027D01*
X128417709Y-79430402D01*
X128504067Y-79312093D01*
X128590979Y-79219809D01*
X128682989Y-79149074D01*
X128784642Y-79095413D01*
X128840965Y-79073423D01*
X128964737Y-79040515D01*
X129072839Y-79033725D01*
X129162219Y-79052706D01*
X129229819Y-79097110D01*
X129248579Y-79119743D01*
X129276811Y-79160049D01*
X129348191Y-79103516D01*
X129471960Y-79022295D01*
X129604184Y-78965456D01*
X129735342Y-78936740D01*
X129779716Y-78934018D01*
X129852378Y-78936543D01*
G37*
G36*
X127978215Y-76007669D02*
G01*
X128168486Y-76008052D01*
X128390363Y-76008715D01*
X128583405Y-76009380D01*
X129880117Y-76013998D01*
X130125720Y-76437031D01*
X130191667Y-76550756D01*
X130271773Y-76689120D01*
X130362243Y-76845553D01*
X130459280Y-77013488D01*
X130559090Y-77186356D01*
X130657878Y-77357588D01*
X130751847Y-77520616D01*
X130755016Y-77526117D01*
X130837138Y-77668566D01*
X130914348Y-77802292D01*
X130984655Y-77923859D01*
X131046065Y-78029830D01*
X131096586Y-78116771D01*
X131134227Y-78181246D01*
X131156995Y-78219818D01*
X131162428Y-78228704D01*
X131166092Y-78238420D01*
X131165675Y-78252850D01*
X131159925Y-78274349D01*
X131147592Y-78305271D01*
X131127422Y-78347972D01*
X131098165Y-78404806D01*
X131058570Y-78478127D01*
X131007383Y-78570291D01*
X130943355Y-78683651D01*
X130865232Y-78820563D01*
X130771764Y-78983381D01*
X130661698Y-79174460D01*
X130636137Y-79218782D01*
X130534824Y-79394424D01*
X130436162Y-79565463D01*
X130342094Y-79728533D01*
X130254560Y-79880268D01*
X130175504Y-80017303D01*
X130106867Y-80136271D01*
X130050591Y-80233806D01*
X130008617Y-80306543D01*
X129984713Y-80347955D01*
X129883300Y-80523584D01*
X129409780Y-80521918D01*
X128571132Y-80518968D01*
X127258964Y-80514352D01*
X127083809Y-80210975D01*
X127004191Y-80073073D01*
X127672724Y-80073073D01*
X127762364Y-80230708D01*
X127852004Y-80388342D01*
X128630892Y-80393035D01*
X129409780Y-80397729D01*
X129694570Y-80233922D01*
X129786621Y-80180397D01*
X129868232Y-80131846D01*
X129934074Y-80091529D01*
X129978822Y-80062701D01*
X129996784Y-80049123D01*
X130009279Y-80029471D01*
X130037789Y-79981991D01*
X130080343Y-79910044D01*
X130134970Y-79816991D01*
X130199700Y-79706191D01*
X130272563Y-79581007D01*
X130351589Y-79444799D01*
X130393018Y-79373230D01*
X130486703Y-79210919D01*
X130563577Y-79076781D01*
X130625111Y-78967976D01*
X130672778Y-78881662D01*
X130708050Y-78814996D01*
X130732400Y-78765139D01*
X130747299Y-78729249D01*
X130754220Y-78704484D01*
X130754634Y-78688003D01*
X130752050Y-78680268D01*
X130733588Y-78646489D01*
X130703138Y-78592509D01*
X130666856Y-78529227D01*
X130661922Y-78520695D01*
X130591573Y-78399185D01*
X130590256Y-78399185D01*
X129801866Y-78399185D01*
X129012160Y-78399185D01*
X128736076Y-78558892D01*
X128635936Y-78617229D01*
X128561746Y-78662099D01*
X128508097Y-78697716D01*
X128469576Y-78728295D01*
X128440775Y-78758053D01*
X128416283Y-78791204D01*
X128395293Y-78824413D01*
X128364668Y-78875472D01*
X128318735Y-78953363D01*
X128260058Y-79053666D01*
X128191203Y-79171958D01*
X128114734Y-79303819D01*
X128033215Y-79444828D01*
X127949212Y-79590562D01*
X127865289Y-79736603D01*
X127798791Y-79852678D01*
X127672724Y-80073073D01*
X127004191Y-80073073D01*
X126988742Y-80046315D01*
X126954298Y-79986665D01*
X126915764Y-79919933D01*
X126881036Y-79859804D01*
X127045591Y-79859804D01*
X127049604Y-79879404D01*
X127057624Y-79896672D01*
X127083809Y-79947307D01*
X127276862Y-79946691D01*
X127469915Y-79946075D01*
X127851528Y-79285139D01*
X128233142Y-78624203D01*
X128234058Y-78282671D01*
X128234071Y-78163659D01*
X128233177Y-78076733D01*
X128231079Y-78017983D01*
X128227478Y-77983497D01*
X128222075Y-77969363D01*
X128214571Y-77971672D01*
X128210691Y-77976647D01*
X128176850Y-78029159D01*
X128132372Y-78102645D01*
X128079956Y-78192209D01*
X128022300Y-78292957D01*
X127962100Y-78399993D01*
X127902055Y-78508420D01*
X127844862Y-78613345D01*
X127793219Y-78709870D01*
X127749823Y-78793101D01*
X127717372Y-78858143D01*
X127698564Y-78900099D01*
X127694932Y-78912617D01*
X127684670Y-78974466D01*
X127658211Y-79014297D01*
X127622927Y-79028057D01*
X127622049Y-79028399D01*
X127582677Y-79013058D01*
X127560943Y-78989227D01*
X127532990Y-78922170D01*
X127534609Y-78903225D01*
X127604925Y-78903225D01*
X127618624Y-78920703D01*
X127622927Y-78921227D01*
X127640405Y-78907528D01*
X127640928Y-78903225D01*
X127627230Y-78885747D01*
X127622927Y-78885224D01*
X127605448Y-78898922D01*
X127604925Y-78903225D01*
X127534609Y-78903225D01*
X127538773Y-78854514D01*
X127576620Y-78792166D01*
X127628640Y-78750213D01*
X127644965Y-78730455D01*
X127676516Y-78683508D01*
X127720747Y-78613491D01*
X127775110Y-78524525D01*
X127837059Y-78420730D01*
X127904046Y-78306226D01*
X127917955Y-78282176D01*
X128177714Y-77832141D01*
X128119364Y-77726933D01*
X128087455Y-77673172D01*
X128060432Y-77634319D01*
X128044486Y-77619008D01*
X128028111Y-77632693D01*
X127998989Y-77672775D01*
X127960365Y-77733396D01*
X127915486Y-77808696D01*
X127867595Y-77892816D01*
X127819939Y-77979899D01*
X127775764Y-78064085D01*
X127738313Y-78139515D01*
X127710834Y-78200331D01*
X127696571Y-78240673D01*
X127695292Y-78249388D01*
X127684125Y-78308295D01*
X127656320Y-78346361D01*
X127619136Y-78359601D01*
X127613652Y-78357428D01*
X127579835Y-78344026D01*
X127560943Y-78323174D01*
X127540107Y-78272488D01*
X127537505Y-78229234D01*
X127604925Y-78229234D01*
X127613652Y-78247867D01*
X127622927Y-78246173D01*
X127640241Y-78223159D01*
X127640928Y-78218109D01*
X127627198Y-78201655D01*
X127622927Y-78201170D01*
X127607128Y-78215822D01*
X127604925Y-78229234D01*
X127537505Y-78229234D01*
X127536576Y-78213782D01*
X127548016Y-78157460D01*
X127572094Y-78113922D01*
X127606478Y-78093571D01*
X127612533Y-78093161D01*
X127626210Y-78078569D01*
X127654472Y-78038635D01*
X127693777Y-77979124D01*
X127740582Y-77905800D01*
X127791344Y-77824427D01*
X127842520Y-77740769D01*
X127890569Y-77660591D01*
X127931946Y-77589656D01*
X127963109Y-77533729D01*
X127980516Y-77498575D01*
X127982955Y-77490473D01*
X127974511Y-77472404D01*
X127952985Y-77434069D01*
X127924083Y-77384956D01*
X127893512Y-77334554D01*
X127866979Y-77292351D01*
X127850192Y-77267836D01*
X127847397Y-77265096D01*
X127831512Y-77280333D01*
X127806509Y-77320165D01*
X127776681Y-77375779D01*
X127746321Y-77438359D01*
X127719724Y-77499090D01*
X127701184Y-77549158D01*
X127694932Y-77578102D01*
X127683565Y-77639259D01*
X127649549Y-77672522D01*
X127622927Y-77677363D01*
X127613215Y-77679129D01*
X127572621Y-77664286D01*
X127546990Y-77625983D01*
X127536433Y-77573558D01*
X127538088Y-77553119D01*
X127604925Y-77553119D01*
X127618624Y-77570597D01*
X127622927Y-77571120D01*
X127640405Y-77557422D01*
X127640928Y-77553119D01*
X127627230Y-77535640D01*
X127622927Y-77535117D01*
X127605448Y-77548816D01*
X127604925Y-77553119D01*
X127538088Y-77553119D01*
X127541064Y-77516349D01*
X127560996Y-77463694D01*
X127596342Y-77424930D01*
X127610048Y-77417370D01*
X127637398Y-77393904D01*
X127674048Y-77347759D01*
X127712748Y-77288231D01*
X127718448Y-77278431D01*
X127788072Y-77156755D01*
X127702077Y-77003550D01*
X127663676Y-76938992D01*
X127629926Y-76889242D01*
X127605472Y-76860792D01*
X127597002Y-76856702D01*
X127581471Y-76873899D01*
X127552256Y-76916575D01*
X127513203Y-76978763D01*
X127468158Y-77054494D01*
X127456414Y-77074839D01*
X127334904Y-77286620D01*
X127334372Y-78306439D01*
X127333840Y-79326258D01*
X127182640Y-79586147D01*
X127127209Y-79681865D01*
X127087911Y-79751819D01*
X127062623Y-79801281D01*
X127049223Y-79835519D01*
X127045591Y-79859804D01*
X126881036Y-79859804D01*
X126828915Y-79769561D01*
X126732342Y-79602379D01*
X126630195Y-79425567D01*
X126526619Y-79246303D01*
X126425764Y-79071768D01*
X126341148Y-78925357D01*
X125963777Y-78272435D01*
X125969888Y-78261678D01*
X126308823Y-78261678D01*
X126309548Y-78364076D01*
X126311559Y-78452729D01*
X126314614Y-78521902D01*
X126318467Y-78565858D01*
X126322324Y-78579124D01*
X126334703Y-78564193D01*
X126361842Y-78522671D01*
X126400938Y-78459393D01*
X126449189Y-78379198D01*
X126503793Y-78286922D01*
X126561946Y-78187401D01*
X126620845Y-78085473D01*
X126677689Y-77985974D01*
X126729675Y-77893742D01*
X126773999Y-77813613D01*
X126807860Y-77750424D01*
X126828454Y-77709011D01*
X126832906Y-77697962D01*
X126847181Y-77647517D01*
X126848299Y-77643126D01*
X126920871Y-77643126D01*
X126934570Y-77660604D01*
X126938873Y-77661127D01*
X126956351Y-77647429D01*
X126956874Y-77643126D01*
X126943176Y-77625648D01*
X126938873Y-77625124D01*
X126921395Y-77638823D01*
X126920871Y-77643126D01*
X126848299Y-77643126D01*
X126861851Y-77589887D01*
X126862033Y-77589122D01*
X126879079Y-77543635D01*
X126906999Y-77523765D01*
X126922985Y-77520706D01*
X126972989Y-77529165D01*
X127004185Y-77567734D01*
X127015737Y-77635327D01*
X127015788Y-77641175D01*
X127010971Y-77704097D01*
X126992961Y-77742194D01*
X126956422Y-77765778D01*
X126949967Y-77768340D01*
X126938873Y-77778864D01*
X126927818Y-77789351D01*
X126889498Y-77841738D01*
X126834949Y-77925598D01*
X126764111Y-78041026D01*
X126676927Y-78188118D01*
X126573338Y-78366972D01*
X126453286Y-78577681D01*
X126416634Y-78642541D01*
X126375821Y-78714882D01*
X126434488Y-78818835D01*
X126467013Y-78870541D01*
X126495488Y-78905479D01*
X126513453Y-78916021D01*
X126532624Y-78897055D01*
X126564347Y-78852164D01*
X126605104Y-78787640D01*
X126651376Y-78709775D01*
X126699645Y-78624862D01*
X126746390Y-78539191D01*
X126788093Y-78459056D01*
X126821236Y-78390748D01*
X126842300Y-78340558D01*
X126847963Y-78318179D01*
X126920871Y-78318179D01*
X126930592Y-78342135D01*
X126938873Y-78345181D01*
X126954843Y-78330601D01*
X126956874Y-78318179D01*
X126947154Y-78294223D01*
X126938873Y-78291177D01*
X126922902Y-78305757D01*
X126920871Y-78318179D01*
X126847963Y-78318179D01*
X126848088Y-78317684D01*
X126859934Y-78257682D01*
X126888950Y-78209946D01*
X126928035Y-78184779D01*
X126940812Y-78183168D01*
X126977540Y-78198507D01*
X127002042Y-78237876D01*
X127013931Y-78291306D01*
X127012822Y-78348827D01*
X126998327Y-78400469D01*
X126970062Y-78436263D01*
X126950956Y-78445024D01*
X126938873Y-78453043D01*
X126928802Y-78459727D01*
X126897722Y-78496448D01*
X126855838Y-78557898D01*
X126801268Y-78646787D01*
X126749247Y-78735943D01*
X126697003Y-78827536D01*
X126651181Y-78909199D01*
X126614780Y-78975480D01*
X126590796Y-79020932D01*
X126582322Y-79039451D01*
X126587684Y-79065460D01*
X126606587Y-79109659D01*
X126633409Y-79161794D01*
X126662527Y-79211607D01*
X126688319Y-79248845D01*
X126705024Y-79263253D01*
X126723698Y-79247971D01*
X126750573Y-79208273D01*
X126781016Y-79153381D01*
X126810397Y-79092519D01*
X126834084Y-79034908D01*
X126846423Y-78993232D01*
X126920871Y-78993232D01*
X126934570Y-79010710D01*
X126938873Y-79011234D01*
X126956351Y-78997535D01*
X126956874Y-78993232D01*
X126943176Y-78975754D01*
X126938873Y-78975231D01*
X126921395Y-78988929D01*
X126920871Y-78993232D01*
X126846423Y-78993232D01*
X126847447Y-78989773D01*
X126848866Y-78976806D01*
X126859428Y-78930104D01*
X126885243Y-78885194D01*
X126917505Y-78854959D01*
X126936083Y-78849221D01*
X126962690Y-78864039D01*
X126991637Y-78899955D01*
X127013154Y-78944162D01*
X127015976Y-78953956D01*
X127016874Y-79011904D01*
X126997375Y-79068837D01*
X126963449Y-79110400D01*
X126947100Y-79119536D01*
X126938873Y-79126348D01*
X126920055Y-79141930D01*
X126884038Y-79186868D01*
X126845382Y-79244308D01*
X126810421Y-79304210D01*
X126785491Y-79356530D01*
X126776860Y-79389411D01*
X126785315Y-79414357D01*
X126807432Y-79459516D01*
X126838341Y-79516490D01*
X126873168Y-79576881D01*
X126907045Y-79632292D01*
X126935098Y-79674326D01*
X126952456Y-79694585D01*
X126954298Y-79695287D01*
X126966969Y-79680489D01*
X126993753Y-79639770D01*
X127031218Y-79578650D01*
X127075928Y-79502645D01*
X127096599Y-79466635D01*
X127226896Y-79237982D01*
X127226896Y-78219492D01*
X127226896Y-77201001D01*
X127369910Y-76958527D01*
X127419014Y-76874499D01*
X127460975Y-76801219D01*
X127492627Y-76744336D01*
X127510803Y-76709496D01*
X127513921Y-76701658D01*
X127507030Y-76677104D01*
X127488952Y-76637074D01*
X127487454Y-76634153D01*
X127459989Y-76581042D01*
X127282642Y-76581042D01*
X127183503Y-76583368D01*
X127118917Y-76590433D01*
X127087730Y-76602370D01*
X127086639Y-76603544D01*
X127070879Y-76627509D01*
X127037660Y-76682353D01*
X126987250Y-76767616D01*
X126919915Y-76882841D01*
X126835923Y-77027569D01*
X126735540Y-77201341D01*
X126619033Y-77403699D01*
X126495881Y-77618127D01*
X126308823Y-77944156D01*
X126308823Y-78261678D01*
X125969888Y-78261678D01*
X126017254Y-78178298D01*
X126041212Y-78136394D01*
X126079993Y-78068880D01*
X126130399Y-77981313D01*
X126189229Y-77879250D01*
X126253284Y-77768246D01*
X126299557Y-77688129D01*
X126363940Y-77576614D01*
X126442261Y-77440819D01*
X126530523Y-77287681D01*
X126624729Y-77124140D01*
X126720882Y-76957131D01*
X126814986Y-76793595D01*
X126880287Y-76680050D01*
X126958937Y-76543651D01*
X127002111Y-76469216D01*
X127672447Y-76469216D01*
X127857344Y-76790650D01*
X127927001Y-76911626D01*
X128007938Y-77052001D01*
X128093375Y-77200027D01*
X128176532Y-77343956D01*
X128246563Y-77465019D01*
X128450885Y-77817954D01*
X128737403Y-77982560D01*
X129023922Y-78147166D01*
X129807089Y-78147166D01*
X130590256Y-78147166D01*
X130681276Y-77989653D01*
X130719404Y-77923456D01*
X130749771Y-77870327D01*
X130768545Y-77836993D01*
X130772735Y-77829056D01*
X130764289Y-77813289D01*
X130740426Y-77770951D01*
X130703763Y-77706633D01*
X130656921Y-77624923D01*
X130602518Y-77530410D01*
X130582680Y-77496030D01*
X130509730Y-77369681D01*
X130426034Y-77224725D01*
X130338852Y-77073733D01*
X130255441Y-76929277D01*
X130194686Y-76824061D01*
X129997186Y-76482034D01*
X129710038Y-76315332D01*
X129422890Y-76148630D01*
X128636673Y-76153319D01*
X127850457Y-76158009D01*
X127803125Y-76239015D01*
X127765008Y-76304953D01*
X127725961Y-76373541D01*
X127714120Y-76394619D01*
X127672447Y-76469216D01*
X127002111Y-76469216D01*
X127032848Y-76416222D01*
X127099912Y-76301341D01*
X127158022Y-76202586D01*
X127205069Y-76123534D01*
X127238948Y-76067764D01*
X127257550Y-76038851D01*
X127259442Y-76036382D01*
X127266304Y-76030346D01*
X127277397Y-76025148D01*
X127295208Y-76020736D01*
X127322226Y-76017060D01*
X127360941Y-76014070D01*
X127413840Y-76011713D01*
X127483413Y-76009940D01*
X127572148Y-76008700D01*
X127682534Y-76007942D01*
X127817060Y-76007615D01*
X127978215Y-76007669D01*
G37*
%TD*%
M02*
