G04 #@! TF.GenerationSoftware,KiCad,Pcbnew,7.0.8*
G04 #@! TF.CreationDate,2024-05-10T00:52:19-03:00*
G04 #@! TF.ProjectId,on_off_module_x1,6f6e5f6f-6666-45f6-9d6f-64756c655f78,1.0*
G04 #@! TF.SameCoordinates,Original*
G04 #@! TF.FileFunction,Copper,L2,Bot*
G04 #@! TF.FilePolarity,Positive*
%FSLAX46Y46*%
G04 Gerber Fmt 4.6, Leading zero omitted, Abs format (unit mm)*
G04 Created by KiCad (PCBNEW 7.0.8) date 2024-05-10 00:52:19*
%MOMM*%
%LPD*%
G01*
G04 APERTURE LIST*
G04 Aperture macros list*
%AMRoundRect*
0 Rectangle with rounded corners*
0 $1 Rounding radius*
0 $2 $3 $4 $5 $6 $7 $8 $9 X,Y pos of 4 corners*
0 Add a 4 corners polygon primitive as box body*
4,1,4,$2,$3,$4,$5,$6,$7,$8,$9,$2,$3,0*
0 Add four circle primitives for the rounded corners*
1,1,$1+$1,$2,$3*
1,1,$1+$1,$4,$5*
1,1,$1+$1,$6,$7*
1,1,$1+$1,$8,$9*
0 Add four rect primitives between the rounded corners*
20,1,$1+$1,$2,$3,$4,$5,0*
20,1,$1+$1,$4,$5,$6,$7,0*
20,1,$1+$1,$6,$7,$8,$9,0*
20,1,$1+$1,$8,$9,$2,$3,0*%
G04 Aperture macros list end*
G04 #@! TA.AperFunction,ComponentPad*
%ADD10R,1.700000X1.700000*%
G04 #@! TD*
G04 #@! TA.AperFunction,ComponentPad*
%ADD11O,1.700000X1.700000*%
G04 #@! TD*
G04 #@! TA.AperFunction,ComponentPad*
%ADD12C,3.000000*%
G04 #@! TD*
G04 #@! TA.AperFunction,ComponentPad*
%ADD13C,2.600000*%
G04 #@! TD*
G04 #@! TA.AperFunction,ComponentPad*
%ADD14R,2.600000X2.600000*%
G04 #@! TD*
G04 #@! TA.AperFunction,ComponentPad*
%ADD15C,2.400000*%
G04 #@! TD*
G04 #@! TA.AperFunction,ComponentPad*
%ADD16R,2.300000X2.000000*%
G04 #@! TD*
G04 #@! TA.AperFunction,ComponentPad*
%ADD17C,2.300000*%
G04 #@! TD*
G04 #@! TA.AperFunction,ComponentPad*
%ADD18R,1.500000X1.500000*%
G04 #@! TD*
G04 #@! TA.AperFunction,ComponentPad*
%ADD19C,1.500000*%
G04 #@! TD*
G04 #@! TA.AperFunction,SMDPad,CuDef*
%ADD20RoundRect,0.200000X0.200000X0.275000X-0.200000X0.275000X-0.200000X-0.275000X0.200000X-0.275000X0*%
G04 #@! TD*
G04 #@! TA.AperFunction,ViaPad*
%ADD21C,0.800000*%
G04 #@! TD*
G04 #@! TA.AperFunction,Conductor*
%ADD22C,1.000000*%
G04 #@! TD*
G04 #@! TA.AperFunction,Conductor*
%ADD23C,0.500000*%
G04 #@! TD*
G04 #@! TA.AperFunction,Conductor*
%ADD24C,0.250000*%
G04 #@! TD*
G04 APERTURE END LIST*
D10*
X154518000Y-106937498D03*
D11*
X154518000Y-109477498D03*
X154518000Y-112017498D03*
D12*
X166552000Y-111535498D03*
X160552000Y-97335498D03*
X172552000Y-97335498D03*
X172552000Y-109535498D03*
X160552000Y-109535498D03*
D13*
X135703000Y-65786000D03*
D14*
X140783000Y-65786000D03*
D10*
X130364000Y-100886198D03*
D11*
X130364000Y-103426198D03*
X130364000Y-105966198D03*
X130364000Y-108506198D03*
X130364000Y-111046198D03*
X130364000Y-113586198D03*
D13*
X158558000Y-65786000D03*
D14*
X163638000Y-65786000D03*
D15*
X167218000Y-91053498D03*
X167218000Y-76053498D03*
D16*
X159936500Y-85053498D03*
D17*
X159936500Y-80053498D03*
X130536500Y-90253498D03*
X130536500Y-74853498D03*
D14*
X152208000Y-65786000D03*
D13*
X147128000Y-65786000D03*
D18*
X168290000Y-71676198D03*
D19*
X168290000Y-69676198D03*
X168290000Y-67676198D03*
X173290000Y-71676198D03*
X173290000Y-69676198D03*
X173290000Y-67676198D03*
D20*
X151333000Y-111661003D03*
X149683000Y-111661003D03*
X151333000Y-119661002D03*
X149683000Y-119661002D03*
X135933000Y-107661004D03*
X134283000Y-107661004D03*
X151333000Y-115661005D03*
X149683000Y-115661005D03*
D21*
X162392000Y-114811498D03*
X148779000Y-99585499D03*
X157058000Y-119637498D03*
X128840000Y-67104198D03*
X156352000Y-93393198D03*
X153478000Y-102664198D03*
X168488000Y-119637498D03*
X142302000Y-97031498D03*
X137346999Y-106199000D03*
X148269000Y-109661000D03*
X137346999Y-117661001D03*
X137346999Y-119660998D03*
X148269001Y-111661000D03*
X148269001Y-115661005D03*
X148269001Y-119661002D03*
X137346999Y-107661004D03*
X137346999Y-111661000D03*
X152740000Y-117097498D03*
D22*
X154129802Y-63040198D02*
X152208000Y-64962000D01*
X163638000Y-64818198D02*
X161860000Y-63040198D01*
X152208000Y-64962000D02*
X152208000Y-65786000D01*
X163638000Y-66043498D02*
X163638000Y-64818198D01*
X161860000Y-63040198D02*
X154129802Y-63040198D01*
X166552000Y-91719498D02*
X167218000Y-91053498D01*
X166552000Y-111535498D02*
X166552000Y-91719498D01*
D23*
X162392000Y-114811498D02*
X169250000Y-114811498D01*
X169250000Y-114811498D02*
X172552000Y-111509498D01*
X172552000Y-111509498D02*
X172552000Y-109535498D01*
X151333000Y-115661005D02*
X151333000Y-119661002D01*
X156296000Y-108207498D02*
X155026000Y-106937498D01*
X155026000Y-106937498D02*
X154518000Y-106937498D01*
X156296000Y-116843498D02*
X156296000Y-108207498D01*
X151333000Y-119661002D02*
X153478496Y-119661002D01*
X153478496Y-119661002D02*
X156296000Y-116843498D01*
X140783000Y-102175000D02*
X140783000Y-66037198D01*
X148269000Y-109661000D02*
X140783000Y-102175000D01*
D24*
X137346999Y-117661001D02*
X136724803Y-117661001D01*
X131888000Y-108506198D02*
X130364000Y-108506198D01*
X136724803Y-117661001D02*
X134936000Y-115872198D01*
X134936000Y-111554198D02*
X131888000Y-108506198D01*
X134936000Y-115872198D02*
X134936000Y-111554198D01*
X133666000Y-116634198D02*
X133666000Y-112824198D01*
X137346999Y-119660998D02*
X136692800Y-119660998D01*
X133666000Y-112824198D02*
X131888000Y-111046198D01*
X131888000Y-111046198D02*
X130364000Y-111046198D01*
X136692800Y-119660998D02*
X133666000Y-116634198D01*
X148269003Y-111661003D02*
X148269001Y-111661000D01*
X149683001Y-111661003D02*
X148269003Y-111661003D01*
X149683000Y-115661003D02*
X148269001Y-115661005D01*
X149683001Y-119661002D02*
X148269001Y-119661002D01*
X135932999Y-107661004D02*
X137346999Y-107661004D01*
X153502000Y-110493498D02*
X154518000Y-109477498D01*
X145476498Y-111661000D02*
X146644000Y-110493498D01*
X137346999Y-111661000D02*
X145476498Y-111661000D01*
X146644000Y-110493498D02*
X153502000Y-110493498D01*
X151333000Y-111661003D02*
X151806805Y-111661003D01*
X151806805Y-111661003D02*
X152740000Y-112594198D01*
X152740000Y-112594198D02*
X152740000Y-117097498D01*
G04 #@! TA.AperFunction,Conductor*
G36*
X154961039Y-111537183D02*
G01*
X155006794Y-111589987D01*
X155018000Y-111641498D01*
X155018000Y-111945609D01*
X154977493Y-111807654D01*
X154899761Y-111686700D01*
X154791100Y-111592546D01*
X154660315Y-111532818D01*
X154553763Y-111517498D01*
X154894000Y-111517498D01*
X154961039Y-111537183D01*
G37*
G04 #@! TD.AperFunction*
G04 #@! TA.AperFunction,Conductor*
G36*
X143261039Y-58951183D02*
G01*
X143306794Y-59003987D01*
X143318000Y-59055498D01*
X143318000Y-92205498D01*
X157696000Y-92205498D01*
X157763039Y-92225183D01*
X157808794Y-92277987D01*
X157820000Y-92329498D01*
X157820000Y-105413498D01*
X163030000Y-105413498D01*
X163097039Y-105433183D01*
X163142794Y-105485987D01*
X163154000Y-105537498D01*
X163154000Y-114049498D01*
X169075535Y-114049498D01*
X169142574Y-114069183D01*
X169188329Y-114121987D01*
X169198273Y-114191145D01*
X169169248Y-114254701D01*
X169163216Y-114261179D01*
X169099716Y-114324679D01*
X169038393Y-114358164D01*
X169012035Y-114360998D01*
X162833419Y-114360998D01*
X162766380Y-114341313D01*
X162757933Y-114335374D01*
X162694842Y-114286962D01*
X162548762Y-114226454D01*
X162548760Y-114226453D01*
X162392001Y-114205816D01*
X162391999Y-114205816D01*
X162235239Y-114226453D01*
X162235237Y-114226454D01*
X162089160Y-114286961D01*
X161963718Y-114383216D01*
X161867463Y-114508658D01*
X161806956Y-114654735D01*
X161806955Y-114654737D01*
X161786318Y-114811496D01*
X161786318Y-114811499D01*
X161806955Y-114968258D01*
X161806956Y-114968260D01*
X161859682Y-115095553D01*
X161867464Y-115114339D01*
X161963718Y-115239780D01*
X162089159Y-115336034D01*
X162235238Y-115396542D01*
X162313619Y-115406861D01*
X162391999Y-115417180D01*
X162392000Y-115417180D01*
X162392001Y-115417180D01*
X162444254Y-115410300D01*
X162548762Y-115396542D01*
X162694841Y-115336034D01*
X162757933Y-115287621D01*
X162823102Y-115262428D01*
X162833419Y-115261998D01*
X169221217Y-115261998D01*
X169228155Y-115262387D01*
X169260050Y-115265981D01*
X169267034Y-115266768D01*
X169267034Y-115266767D01*
X169267035Y-115266768D01*
X169325479Y-115255709D01*
X169384287Y-115246846D01*
X169384290Y-115246844D01*
X169392447Y-115244328D01*
X169400469Y-115241521D01*
X169400472Y-115241521D01*
X169453072Y-115213720D01*
X169506642Y-115187923D01*
X169506642Y-115187922D01*
X169506644Y-115187922D01*
X169513695Y-115183114D01*
X169520538Y-115178064D01*
X169562599Y-115136002D01*
X169606194Y-115095553D01*
X169606196Y-115095548D01*
X169611987Y-115088288D01*
X169612643Y-115088811D01*
X169622032Y-115076568D01*
X172850205Y-111848394D01*
X172855373Y-111843775D01*
X172885970Y-111819377D01*
X172919480Y-111770226D01*
X172954793Y-111722380D01*
X172954794Y-111722377D01*
X172958778Y-111714839D01*
X172962474Y-111707166D01*
X172980006Y-111650325D01*
X172986191Y-111632650D01*
X172999646Y-111594198D01*
X172999646Y-111594193D01*
X173001228Y-111585834D01*
X173002500Y-111577397D01*
X173002500Y-111517924D01*
X173004724Y-111458490D01*
X173003684Y-111449259D01*
X173004513Y-111449165D01*
X173002500Y-111433864D01*
X173002500Y-111267613D01*
X173022185Y-111200574D01*
X173074989Y-111154819D01*
X173089952Y-111149122D01*
X173174987Y-111122893D01*
X173174994Y-111122889D01*
X173175004Y-111122887D01*
X173379928Y-111024201D01*
X173404626Y-111012307D01*
X173404626Y-111012306D01*
X173404634Y-111012303D01*
X173615217Y-110868730D01*
X173802050Y-110695375D01*
X173960959Y-110496110D01*
X174088393Y-110275386D01*
X174181508Y-110038135D01*
X174238222Y-109789655D01*
X174247863Y-109660998D01*
X174257268Y-109535502D01*
X174257268Y-109535493D01*
X174238222Y-109281343D01*
X174235990Y-109271565D01*
X174181508Y-109032861D01*
X174088393Y-108795610D01*
X173960959Y-108574886D01*
X173802050Y-108375621D01*
X173615217Y-108202266D01*
X173404634Y-108058693D01*
X173404630Y-108058691D01*
X173404627Y-108058689D01*
X173404626Y-108058688D01*
X173175006Y-107948110D01*
X173175008Y-107948110D01*
X172931466Y-107872987D01*
X172931462Y-107872986D01*
X172931458Y-107872985D01*
X172810231Y-107854712D01*
X172679440Y-107834998D01*
X172679435Y-107834998D01*
X172424565Y-107834998D01*
X172424559Y-107834998D01*
X172267609Y-107858655D01*
X172172542Y-107872985D01*
X172172539Y-107872986D01*
X172172533Y-107872987D01*
X171928992Y-107948110D01*
X171699373Y-108058688D01*
X171699372Y-108058689D01*
X171699366Y-108058692D01*
X171699366Y-108058693D01*
X171678072Y-108073211D01*
X171488782Y-108202266D01*
X171301952Y-108375619D01*
X171301950Y-108375621D01*
X171143041Y-108574886D01*
X171015608Y-108795607D01*
X170922492Y-109032860D01*
X170922490Y-109032867D01*
X170865777Y-109281343D01*
X170846732Y-109535493D01*
X170846732Y-109535502D01*
X170865777Y-109789652D01*
X170918008Y-110018493D01*
X170922492Y-110038135D01*
X171015607Y-110275386D01*
X171143041Y-110496110D01*
X171301950Y-110695375D01*
X171488783Y-110868730D01*
X171699366Y-111012303D01*
X171699371Y-111012305D01*
X171699372Y-111012306D01*
X171699373Y-111012307D01*
X171894664Y-111106353D01*
X171928996Y-111122887D01*
X171929001Y-111122888D01*
X171929012Y-111122893D01*
X172014048Y-111149122D01*
X172072308Y-111187691D01*
X172100466Y-111251635D01*
X172101500Y-111267613D01*
X172101500Y-111271533D01*
X172081815Y-111338572D01*
X172065181Y-111359214D01*
X169969681Y-113454714D01*
X169908358Y-113488199D01*
X169838666Y-113483215D01*
X169782733Y-113441343D01*
X169758316Y-113375879D01*
X169758000Y-113367033D01*
X169758000Y-105537498D01*
X169777685Y-105470459D01*
X169830489Y-105424704D01*
X169882000Y-105413498D01*
X174714000Y-105413498D01*
X174781039Y-105433183D01*
X174826794Y-105485987D01*
X174838000Y-105537498D01*
X174838000Y-113177265D01*
X174837500Y-118838734D01*
X174837415Y-118841973D01*
X174830760Y-118968992D01*
X174820133Y-119157792D01*
X174819468Y-119164010D01*
X174796030Y-119312008D01*
X174767663Y-119478976D01*
X174766426Y-119484641D01*
X174726182Y-119634840D01*
X174680756Y-119792524D01*
X174679060Y-119797582D01*
X174622425Y-119945122D01*
X174560430Y-120094792D01*
X174558392Y-120099215D01*
X174485978Y-120241336D01*
X174408125Y-120382205D01*
X174405857Y-120385984D01*
X174318426Y-120520617D01*
X174225603Y-120651439D01*
X174223220Y-120654580D01*
X174122675Y-120778743D01*
X174120722Y-120781038D01*
X174015033Y-120899306D01*
X174012643Y-120901835D01*
X173899432Y-121015043D01*
X173896905Y-121017432D01*
X173778863Y-121122923D01*
X173776566Y-121124877D01*
X173651993Y-121225752D01*
X173648854Y-121228133D01*
X173518790Y-121320421D01*
X173383240Y-121408444D01*
X173379463Y-121410710D01*
X173240052Y-121487762D01*
X173096306Y-121560999D01*
X173091886Y-121563037D01*
X172944689Y-121624010D01*
X172794563Y-121681633D01*
X172789508Y-121683328D01*
X172635965Y-121727565D01*
X172481511Y-121768946D01*
X172475848Y-121770183D01*
X172316780Y-121797210D01*
X172160825Y-121821906D01*
X172154601Y-121822571D01*
X171984005Y-121832152D01*
X171858216Y-121838741D01*
X171838628Y-121839767D01*
X171835388Y-121839852D01*
X129839618Y-121839852D01*
X129836377Y-121839767D01*
X129828893Y-121839375D01*
X129704809Y-121832875D01*
X129520971Y-121822557D01*
X129514744Y-121821891D01*
X129362602Y-121797798D01*
X129226655Y-121774702D01*
X129199787Y-121770138D01*
X129194126Y-121768902D01*
X129041580Y-121728032D01*
X128886186Y-121683266D01*
X128881130Y-121681571D01*
X128732107Y-121624371D01*
X128583855Y-121562965D01*
X128579433Y-121560926D01*
X128531520Y-121536515D01*
X128436373Y-121488037D01*
X128399603Y-121467715D01*
X128296325Y-121410635D01*
X128292548Y-121408369D01*
X128157432Y-121320627D01*
X128026985Y-121228070D01*
X128023844Y-121225688D01*
X127899529Y-121125022D01*
X127897233Y-121123069D01*
X127778970Y-121017384D01*
X127776451Y-121015002D01*
X127719892Y-120958444D01*
X127663370Y-120901922D01*
X127660980Y-120899395D01*
X127555199Y-120781026D01*
X127553246Y-120778730D01*
X127452739Y-120654615D01*
X127450356Y-120651474D01*
X127450331Y-120651439D01*
X127357526Y-120520640D01*
X127270085Y-120385994D01*
X127267837Y-120382248D01*
X127192563Y-120246046D01*
X127189996Y-120241401D01*
X127117544Y-120099206D01*
X127115509Y-120094792D01*
X127053554Y-119945215D01*
X126996877Y-119797564D01*
X126995196Y-119792552D01*
X126949774Y-119634880D01*
X126909520Y-119484643D01*
X126908289Y-119479013D01*
X126879907Y-119311948D01*
X126856485Y-119164060D01*
X126855821Y-119157862D01*
X126844978Y-118964687D01*
X128337499Y-118964687D01*
X128340972Y-118985502D01*
X128378428Y-119209968D01*
X128459168Y-119445154D01*
X128459171Y-119445163D01*
X128575978Y-119661003D01*
X128577525Y-119663861D01*
X128730261Y-119860096D01*
X128888954Y-120006183D01*
X128913216Y-120028518D01*
X129121392Y-120164525D01*
X129349117Y-120264415D01*
X129575121Y-120321647D01*
X129590178Y-120325460D01*
X129590180Y-120325460D01*
X129590185Y-120325461D01*
X129723375Y-120336497D01*
X129775932Y-120340852D01*
X129775934Y-120340852D01*
X129900064Y-120340852D01*
X129900066Y-120340852D01*
X129961283Y-120335779D01*
X130085812Y-120325461D01*
X130085815Y-120325460D01*
X130085820Y-120325460D01*
X130326880Y-120264415D01*
X130554606Y-120164525D01*
X130762784Y-120028516D01*
X130945737Y-119860096D01*
X131098473Y-119663861D01*
X131216827Y-119445162D01*
X131297570Y-119209966D01*
X131338499Y-118964687D01*
X131338499Y-118716017D01*
X131297570Y-118470738D01*
X131216827Y-118235542D01*
X131098473Y-118016843D01*
X130945737Y-117820608D01*
X130772359Y-117661002D01*
X130762781Y-117652185D01*
X130554605Y-117516178D01*
X130326880Y-117416288D01*
X130085823Y-117355244D01*
X130085812Y-117355242D01*
X129920547Y-117341549D01*
X129900066Y-117339852D01*
X129775932Y-117339852D01*
X129756520Y-117341460D01*
X129590185Y-117355242D01*
X129590174Y-117355244D01*
X129349117Y-117416288D01*
X129121392Y-117516178D01*
X128913216Y-117652185D01*
X128741996Y-117809804D01*
X128733352Y-117817763D01*
X128730260Y-117820609D01*
X128577523Y-118016845D01*
X128459171Y-118235540D01*
X128459168Y-118235549D01*
X128378428Y-118470735D01*
X128337499Y-118716017D01*
X128337499Y-118964687D01*
X126844978Y-118964687D01*
X126844732Y-118960303D01*
X126838584Y-118842955D01*
X126838499Y-118839711D01*
X126838499Y-114086198D01*
X129107593Y-114086198D01*
X129190398Y-114263774D01*
X129325894Y-114457280D01*
X129492917Y-114624303D01*
X129686422Y-114759798D01*
X129686424Y-114759799D01*
X129863999Y-114842603D01*
X129864000Y-114842603D01*
X129864000Y-114086198D01*
X129107593Y-114086198D01*
X126838499Y-114086198D01*
X126838499Y-113086198D01*
X129107594Y-113086198D01*
X130328237Y-113086198D01*
X130221685Y-113101518D01*
X130090900Y-113161246D01*
X129982239Y-113255400D01*
X129904507Y-113376354D01*
X129864000Y-113514309D01*
X129864000Y-113658087D01*
X129904507Y-113796042D01*
X129982239Y-113916996D01*
X130090900Y-114011150D01*
X130221685Y-114070878D01*
X130328237Y-114086198D01*
X130399763Y-114086198D01*
X130864000Y-114086198D01*
X130864000Y-114842603D01*
X131041575Y-114759799D01*
X131041577Y-114759798D01*
X131235082Y-114624303D01*
X131402105Y-114457280D01*
X131537601Y-114263774D01*
X131620406Y-114086198D01*
X130864000Y-114086198D01*
X130399763Y-114086198D01*
X130506315Y-114070878D01*
X130637100Y-114011150D01*
X130745761Y-113916996D01*
X130823493Y-113796042D01*
X130864000Y-113658087D01*
X130864000Y-113514309D01*
X130823493Y-113376354D01*
X130745761Y-113255400D01*
X130637100Y-113161246D01*
X130506315Y-113101518D01*
X130399763Y-113086198D01*
X131620406Y-113086198D01*
X131620405Y-113086197D01*
X131537599Y-112908619D01*
X131537597Y-112908615D01*
X131402113Y-112715124D01*
X131402108Y-112715118D01*
X131235082Y-112548092D01*
X131041578Y-112412597D01*
X130827492Y-112312768D01*
X130827486Y-112312765D01*
X130705349Y-112280039D01*
X130645689Y-112243674D01*
X130615160Y-112180827D01*
X130623455Y-112111451D01*
X130667940Y-112057573D01*
X130701444Y-112041605D01*
X130767954Y-112021430D01*
X130950450Y-111923883D01*
X131110410Y-111792608D01*
X131241685Y-111632648D01*
X131339232Y-111450152D01*
X131339234Y-111450143D01*
X131340021Y-111448247D01*
X131340701Y-111447401D01*
X131342104Y-111444779D01*
X131342601Y-111445044D01*
X131383862Y-111393843D01*
X131450156Y-111371777D01*
X131454583Y-111371698D01*
X131701812Y-111371698D01*
X131768851Y-111391383D01*
X131789493Y-111408017D01*
X133304181Y-112922705D01*
X133337666Y-112984028D01*
X133340500Y-113010386D01*
X133340500Y-116617276D01*
X133340264Y-116622683D01*
X133336735Y-116663006D01*
X133347212Y-116702108D01*
X133348383Y-116707388D01*
X133355411Y-116747241D01*
X133357235Y-116752253D01*
X133364197Y-116769059D01*
X133366445Y-116773879D01*
X133366446Y-116773882D01*
X133372946Y-116783165D01*
X133389655Y-116807029D01*
X133392561Y-116811590D01*
X133412806Y-116846653D01*
X133443815Y-116872673D01*
X133447805Y-116876329D01*
X136450663Y-119879187D01*
X136454318Y-119883176D01*
X136480341Y-119914188D01*
X136480343Y-119914189D01*
X136480345Y-119914192D01*
X136480347Y-119914193D01*
X136480348Y-119914194D01*
X136515399Y-119934431D01*
X136519962Y-119937337D01*
X136553116Y-119960552D01*
X136553119Y-119960552D01*
X136557976Y-119962818D01*
X136574733Y-119969758D01*
X136579753Y-119971585D01*
X136579755Y-119971586D01*
X136615606Y-119977907D01*
X136619608Y-119978613D01*
X136624880Y-119979781D01*
X136663993Y-119990262D01*
X136704322Y-119986733D01*
X136709724Y-119986498D01*
X136778700Y-119986498D01*
X136845739Y-120006183D01*
X136877076Y-120035012D01*
X136898723Y-120063224D01*
X136918717Y-120089280D01*
X137044158Y-120185534D01*
X137190237Y-120246042D01*
X137268618Y-120256361D01*
X137346998Y-120266680D01*
X137346999Y-120266680D01*
X137347000Y-120266680D01*
X137399253Y-120259800D01*
X137503761Y-120246042D01*
X137649840Y-120185534D01*
X137775281Y-120089280D01*
X137871535Y-119963839D01*
X137932043Y-119817760D01*
X137952304Y-119663861D01*
X137952680Y-119661003D01*
X147663319Y-119661003D01*
X147683956Y-119817762D01*
X147683957Y-119817764D01*
X147744462Y-119963837D01*
X147744465Y-119963843D01*
X147840719Y-120089284D01*
X147966160Y-120185538D01*
X148112239Y-120246046D01*
X148190620Y-120256365D01*
X148269000Y-120266684D01*
X148269001Y-120266684D01*
X148269002Y-120266684D01*
X148321255Y-120259804D01*
X148425763Y-120246046D01*
X148571842Y-120185538D01*
X148697283Y-120089284D01*
X148738924Y-120035015D01*
X148795352Y-119993813D01*
X148837300Y-119986502D01*
X148983253Y-119986502D01*
X149050292Y-120006187D01*
X149093738Y-120054207D01*
X149097353Y-120061302D01*
X149097354Y-120061306D01*
X149149947Y-120164525D01*
X149154951Y-120174345D01*
X149154954Y-120174349D01*
X149244652Y-120264047D01*
X149244654Y-120264048D01*
X149244658Y-120264052D01*
X149357694Y-120321647D01*
X149357698Y-120321649D01*
X149451475Y-120336501D01*
X149451481Y-120336502D01*
X149914518Y-120336501D01*
X150008304Y-120321648D01*
X150121342Y-120264052D01*
X150211050Y-120174344D01*
X150268646Y-120061306D01*
X150268646Y-120061304D01*
X150268647Y-120061303D01*
X150283499Y-119967526D01*
X150283500Y-119967521D01*
X150283499Y-119354484D01*
X150268646Y-119260698D01*
X150211050Y-119147660D01*
X150211046Y-119147656D01*
X150211045Y-119147654D01*
X150121347Y-119057956D01*
X150121344Y-119057954D01*
X150121342Y-119057952D01*
X150044398Y-119018747D01*
X150008301Y-119000354D01*
X149914524Y-118985502D01*
X149451482Y-118985502D01*
X149375073Y-118997604D01*
X149357696Y-119000356D01*
X149244658Y-119057952D01*
X149244657Y-119057953D01*
X149244652Y-119057956D01*
X149154954Y-119147654D01*
X149154951Y-119147659D01*
X149154950Y-119147660D01*
X149106661Y-119242433D01*
X149093737Y-119267797D01*
X149045762Y-119318593D01*
X148983252Y-119335502D01*
X148837300Y-119335502D01*
X148770261Y-119315817D01*
X148738924Y-119286988D01*
X148697284Y-119232721D01*
X148697283Y-119232720D01*
X148571842Y-119136466D01*
X148571832Y-119136462D01*
X148425763Y-119075958D01*
X148425761Y-119075957D01*
X148269002Y-119055320D01*
X148269000Y-119055320D01*
X148112240Y-119075957D01*
X148112238Y-119075958D01*
X147966161Y-119136465D01*
X147840719Y-119232720D01*
X147744464Y-119358162D01*
X147683957Y-119504239D01*
X147683956Y-119504241D01*
X147663319Y-119661000D01*
X147663319Y-119661003D01*
X137952680Y-119661003D01*
X137952681Y-119660999D01*
X137952681Y-119660996D01*
X137932044Y-119504241D01*
X137932043Y-119504236D01*
X137871535Y-119358157D01*
X137775281Y-119232716D01*
X137649840Y-119136462D01*
X137503761Y-119075954D01*
X137503759Y-119075953D01*
X137347000Y-119055316D01*
X137346998Y-119055316D01*
X137190238Y-119075953D01*
X137190236Y-119075954D01*
X137044159Y-119136461D01*
X136994999Y-119174183D01*
X136948366Y-119209966D01*
X136918712Y-119232720D01*
X136912970Y-119238463D01*
X136911446Y-119236939D01*
X136864177Y-119271446D01*
X136794430Y-119275593D01*
X136734561Y-119242433D01*
X134027819Y-116535691D01*
X133994334Y-116474368D01*
X133991500Y-116448010D01*
X133991500Y-112841118D01*
X133991736Y-112835711D01*
X133995264Y-112795391D01*
X133990642Y-112778142D01*
X133984782Y-112756274D01*
X133983616Y-112751016D01*
X133976588Y-112711153D01*
X133976586Y-112711150D01*
X133976586Y-112711148D01*
X133974760Y-112706131D01*
X133967820Y-112689374D01*
X133965554Y-112684517D01*
X133965554Y-112684514D01*
X133942339Y-112651360D01*
X133939433Y-112646797D01*
X133919196Y-112611746D01*
X133919195Y-112611745D01*
X133919194Y-112611743D01*
X133888177Y-112585716D01*
X133884193Y-112582065D01*
X133009294Y-111707166D01*
X132130119Y-110827991D01*
X132126474Y-110824012D01*
X132100456Y-110793005D01*
X132100455Y-110793004D01*
X132089058Y-110786424D01*
X132065392Y-110772759D01*
X132060831Y-110769853D01*
X132047687Y-110760650D01*
X132027684Y-110746644D01*
X132027681Y-110746643D01*
X132022861Y-110744395D01*
X132006055Y-110737433D01*
X132001043Y-110735609D01*
X131961190Y-110728581D01*
X131955910Y-110727410D01*
X131916808Y-110716933D01*
X131881892Y-110719988D01*
X131876481Y-110720462D01*
X131871078Y-110720698D01*
X131454583Y-110720698D01*
X131387544Y-110701013D01*
X131341789Y-110648209D01*
X131340021Y-110644149D01*
X131339233Y-110642249D01*
X131339232Y-110642244D01*
X131241685Y-110459748D01*
X131172644Y-110375621D01*
X131110410Y-110299787D01*
X130967993Y-110182910D01*
X130950450Y-110168513D01*
X130767954Y-110070966D01*
X130569934Y-110010898D01*
X130569932Y-110010897D01*
X130569934Y-110010897D01*
X130364000Y-109990615D01*
X130158067Y-110010897D01*
X129960043Y-110070967D01*
X129901752Y-110102125D01*
X129777550Y-110168513D01*
X129777548Y-110168514D01*
X129777547Y-110168515D01*
X129617589Y-110299787D01*
X129492075Y-110452729D01*
X129486315Y-110459748D01*
X129466879Y-110496110D01*
X129388769Y-110642241D01*
X129328699Y-110840265D01*
X129308417Y-111046198D01*
X129328699Y-111252130D01*
X129342972Y-111299181D01*
X129388768Y-111450152D01*
X129486315Y-111632648D01*
X129486317Y-111632650D01*
X129617589Y-111792608D01*
X129685577Y-111848403D01*
X129777550Y-111923883D01*
X129960046Y-112021430D01*
X130026551Y-112041603D01*
X130084989Y-112079900D01*
X130113446Y-112143712D01*
X130102887Y-112212779D01*
X130056663Y-112265173D01*
X130022650Y-112280039D01*
X129900514Y-112312765D01*
X129900507Y-112312768D01*
X129686422Y-112412597D01*
X129686420Y-112412598D01*
X129492926Y-112548084D01*
X129492920Y-112548089D01*
X129325891Y-112715118D01*
X129325886Y-112715124D01*
X129190402Y-112908615D01*
X129190400Y-112908619D01*
X129107594Y-113086197D01*
X129107594Y-113086198D01*
X126838499Y-113086198D01*
X126838499Y-108506198D01*
X129308417Y-108506198D01*
X129328699Y-108712130D01*
X129328700Y-108712132D01*
X129388768Y-108910152D01*
X129486315Y-109092648D01*
X129486317Y-109092650D01*
X129617589Y-109252608D01*
X129714209Y-109331900D01*
X129777550Y-109383883D01*
X129960046Y-109481430D01*
X130158066Y-109541498D01*
X130158065Y-109541498D01*
X130176529Y-109543316D01*
X130364000Y-109561781D01*
X130569934Y-109541498D01*
X130767954Y-109481430D01*
X130950450Y-109383883D01*
X131110410Y-109252608D01*
X131241685Y-109092648D01*
X131339232Y-108910152D01*
X131339234Y-108910143D01*
X131340021Y-108908247D01*
X131340701Y-108907401D01*
X131342104Y-108904779D01*
X131342601Y-108905044D01*
X131383862Y-108853843D01*
X131450156Y-108831777D01*
X131454583Y-108831698D01*
X131701812Y-108831698D01*
X131768851Y-108851383D01*
X131789493Y-108868017D01*
X134574181Y-111652705D01*
X134607666Y-111714028D01*
X134610500Y-111740386D01*
X134610500Y-115855276D01*
X134610264Y-115860683D01*
X134606735Y-115901006D01*
X134617212Y-115940108D01*
X134618383Y-115945388D01*
X134625411Y-115985241D01*
X134627235Y-115990253D01*
X134634197Y-116007059D01*
X134636445Y-116011879D01*
X134636446Y-116011882D01*
X134650452Y-116031885D01*
X134659655Y-116045029D01*
X134662561Y-116049590D01*
X134682806Y-116084653D01*
X134713815Y-116110673D01*
X134717805Y-116114329D01*
X136482671Y-117879196D01*
X136486326Y-117883185D01*
X136512344Y-117914191D01*
X136512345Y-117914192D01*
X136512348Y-117914195D01*
X136541190Y-117930846D01*
X136547407Y-117934436D01*
X136551957Y-117937334D01*
X136585119Y-117960554D01*
X136585121Y-117960554D01*
X136585122Y-117960555D01*
X136589971Y-117962816D01*
X136606750Y-117969766D01*
X136611755Y-117971588D01*
X136611756Y-117971588D01*
X136611758Y-117971589D01*
X136651632Y-117978619D01*
X136656895Y-117979787D01*
X136668710Y-117982952D01*
X136695996Y-117990264D01*
X136736313Y-117986736D01*
X136741715Y-117986501D01*
X136778700Y-117986501D01*
X136845739Y-118006186D01*
X136877075Y-118035014D01*
X136918717Y-118089283D01*
X137044158Y-118185537D01*
X137190237Y-118246045D01*
X137268618Y-118256364D01*
X137346998Y-118266683D01*
X137346999Y-118266683D01*
X137347000Y-118266683D01*
X137399253Y-118259803D01*
X137503761Y-118246045D01*
X137649840Y-118185537D01*
X137775281Y-118089283D01*
X137871535Y-117963842D01*
X137932043Y-117817763D01*
X137952681Y-117661001D01*
X137951520Y-117652185D01*
X137932043Y-117504240D01*
X137932043Y-117504239D01*
X137871535Y-117358160D01*
X137775281Y-117232719D01*
X137649840Y-117136465D01*
X137555765Y-117097498D01*
X137503761Y-117075957D01*
X137503759Y-117075956D01*
X137347000Y-117055319D01*
X137346998Y-117055319D01*
X137190238Y-117075956D01*
X137190236Y-117075957D01*
X137044156Y-117136465D01*
X136913400Y-117236799D01*
X136848231Y-117261993D01*
X136779786Y-117247955D01*
X136750233Y-117226104D01*
X135297819Y-115773690D01*
X135264334Y-115712367D01*
X135261500Y-115686009D01*
X135261500Y-115661006D01*
X147663319Y-115661006D01*
X147683956Y-115817765D01*
X147683957Y-115817767D01*
X147735715Y-115942723D01*
X147744465Y-115963846D01*
X147840719Y-116089287D01*
X147966160Y-116185541D01*
X148112239Y-116246049D01*
X148190620Y-116256368D01*
X148269000Y-116266687D01*
X148269001Y-116266687D01*
X148269002Y-116266687D01*
X148321255Y-116259807D01*
X148425763Y-116246049D01*
X148571842Y-116185541D01*
X148697283Y-116089287D01*
X148738925Y-116035016D01*
X148795349Y-115993815D01*
X148837295Y-115986503D01*
X148983252Y-115986503D01*
X149050290Y-116006188D01*
X149093736Y-116054208D01*
X149097353Y-116061308D01*
X149097354Y-116061309D01*
X149154950Y-116174347D01*
X149154952Y-116174349D01*
X149154954Y-116174352D01*
X149244652Y-116264050D01*
X149244654Y-116264051D01*
X149244658Y-116264055D01*
X149357694Y-116321650D01*
X149357698Y-116321652D01*
X149451475Y-116336504D01*
X149451481Y-116336505D01*
X149914518Y-116336504D01*
X150008304Y-116321651D01*
X150121342Y-116264055D01*
X150211050Y-116174347D01*
X150268646Y-116061309D01*
X150268646Y-116061307D01*
X150268647Y-116061306D01*
X150283499Y-115967529D01*
X150283500Y-115967524D01*
X150283499Y-115354487D01*
X150268646Y-115260701D01*
X150211050Y-115147663D01*
X150211046Y-115147659D01*
X150211045Y-115147657D01*
X150121347Y-115057959D01*
X150121344Y-115057957D01*
X150121342Y-115057955D01*
X150044517Y-115018810D01*
X150008301Y-115000357D01*
X149914524Y-114985505D01*
X149451482Y-114985505D01*
X149370519Y-114998328D01*
X149357696Y-115000359D01*
X149244658Y-115057955D01*
X149244657Y-115057956D01*
X149244652Y-115057959D01*
X149154954Y-115147657D01*
X149154951Y-115147662D01*
X149154950Y-115147663D01*
X149104414Y-115246846D01*
X149093738Y-115267798D01*
X149045763Y-115318594D01*
X148983253Y-115335503D01*
X148837298Y-115335503D01*
X148770259Y-115315818D01*
X148738922Y-115286989D01*
X148720045Y-115262388D01*
X148697283Y-115232723D01*
X148571842Y-115136469D01*
X148425763Y-115075961D01*
X148425761Y-115075960D01*
X148269002Y-115055323D01*
X148269000Y-115055323D01*
X148112240Y-115075960D01*
X148112238Y-115075961D01*
X147966161Y-115136468D01*
X147840719Y-115232723D01*
X147744464Y-115358165D01*
X147683957Y-115504242D01*
X147683956Y-115504244D01*
X147663319Y-115661003D01*
X147663319Y-115661006D01*
X135261500Y-115661006D01*
X135261500Y-111661001D01*
X136741317Y-111661001D01*
X136761954Y-111817760D01*
X136761955Y-111817762D01*
X136810842Y-111935787D01*
X136822463Y-111963841D01*
X136918717Y-112089282D01*
X137044158Y-112185536D01*
X137190237Y-112246044D01*
X137268618Y-112256363D01*
X137346998Y-112266682D01*
X137346999Y-112266682D01*
X137347000Y-112266682D01*
X137406284Y-112258877D01*
X137503761Y-112246044D01*
X137649840Y-112185536D01*
X137775281Y-112089282D01*
X137816922Y-112035013D01*
X137873350Y-111993811D01*
X137915298Y-111986500D01*
X145459576Y-111986500D01*
X145464979Y-111986735D01*
X145505305Y-111990264D01*
X145544438Y-111979777D01*
X145549660Y-111978619D01*
X145589543Y-111971588D01*
X145589548Y-111971584D01*
X145594597Y-111969747D01*
X145611322Y-111962819D01*
X145616179Y-111960554D01*
X145616182Y-111960554D01*
X145649339Y-111937335D01*
X145653888Y-111934438D01*
X145688953Y-111914194D01*
X145714979Y-111883176D01*
X145718620Y-111879202D01*
X146742508Y-110855317D01*
X146803831Y-110821832D01*
X146830189Y-110818998D01*
X148172156Y-110818998D01*
X148239195Y-110838683D01*
X148269144Y-110873246D01*
X148283534Y-110850258D01*
X148346740Y-110820479D01*
X148365846Y-110818998D01*
X149197137Y-110818998D01*
X149264176Y-110838683D01*
X149309931Y-110891487D01*
X149319875Y-110960645D01*
X149290850Y-111024201D01*
X149253434Y-111053481D01*
X149244658Y-111057953D01*
X149244657Y-111057954D01*
X149244652Y-111057957D01*
X149154954Y-111147655D01*
X149154951Y-111147660D01*
X149154950Y-111147661D01*
X149101720Y-111252130D01*
X149093737Y-111267798D01*
X149045762Y-111318594D01*
X148983252Y-111335503D01*
X148837302Y-111335503D01*
X148770263Y-111315818D01*
X148738926Y-111286989D01*
X148727066Y-111271533D01*
X148697283Y-111232718D01*
X148571842Y-111136464D01*
X148539064Y-111122887D01*
X148425763Y-111075956D01*
X148425761Y-111075955D01*
X148349661Y-111065937D01*
X148285764Y-111037670D01*
X148270373Y-111014337D01*
X148265869Y-111024201D01*
X148207091Y-111061975D01*
X148188341Y-111065937D01*
X148112240Y-111075955D01*
X148112238Y-111075956D01*
X147966161Y-111136463D01*
X147840719Y-111232718D01*
X147744464Y-111358160D01*
X147683957Y-111504237D01*
X147683956Y-111504239D01*
X147663319Y-111660998D01*
X147663319Y-111661001D01*
X147683956Y-111817760D01*
X147683957Y-111817762D01*
X147732844Y-111935787D01*
X147744465Y-111963841D01*
X147840719Y-112089282D01*
X147966160Y-112185536D01*
X148112239Y-112246044D01*
X148190620Y-112256363D01*
X148269000Y-112266682D01*
X148269001Y-112266682D01*
X148269002Y-112266682D01*
X148328286Y-112258877D01*
X148425763Y-112246044D01*
X148571842Y-112185536D01*
X148697283Y-112089282D01*
X148738923Y-112035014D01*
X148795350Y-111993814D01*
X148837298Y-111986503D01*
X148983253Y-111986503D01*
X149050292Y-112006188D01*
X149093738Y-112054208D01*
X149097353Y-112061303D01*
X149097354Y-112061307D01*
X149139342Y-112143712D01*
X149154951Y-112174346D01*
X149154954Y-112174350D01*
X149244652Y-112264048D01*
X149244654Y-112264049D01*
X149244658Y-112264053D01*
X149357694Y-112321648D01*
X149357698Y-112321650D01*
X149451475Y-112336502D01*
X149451481Y-112336503D01*
X149914518Y-112336502D01*
X150008304Y-112321649D01*
X150121342Y-112264053D01*
X150211050Y-112174345D01*
X150268646Y-112061307D01*
X150268646Y-112061305D01*
X150268647Y-112061304D01*
X150281558Y-111979785D01*
X150283500Y-111967522D01*
X150283499Y-111354485D01*
X150268646Y-111260699D01*
X150211050Y-111147661D01*
X150211046Y-111147657D01*
X150211045Y-111147655D01*
X150121347Y-111057957D01*
X150121344Y-111057955D01*
X150121342Y-111057953D01*
X150112566Y-111053481D01*
X150061772Y-111005508D01*
X150044977Y-110937687D01*
X150067515Y-110871552D01*
X150122230Y-110828101D01*
X150168863Y-110818998D01*
X150847137Y-110818998D01*
X150914176Y-110838683D01*
X150959931Y-110891487D01*
X150969875Y-110960645D01*
X150940850Y-111024201D01*
X150903434Y-111053481D01*
X150894658Y-111057953D01*
X150894657Y-111057954D01*
X150894652Y-111057957D01*
X150804954Y-111147655D01*
X150804951Y-111147660D01*
X150747352Y-111260701D01*
X150732500Y-111354478D01*
X150732500Y-111967520D01*
X150743190Y-112035014D01*
X150747354Y-112061307D01*
X150804950Y-112174345D01*
X150804952Y-112174347D01*
X150804954Y-112174350D01*
X150894652Y-112264048D01*
X150894654Y-112264049D01*
X150894658Y-112264053D01*
X151007694Y-112321648D01*
X151007698Y-112321650D01*
X151101475Y-112336502D01*
X151101481Y-112336503D01*
X151564518Y-112336502D01*
X151658304Y-112321649D01*
X151771342Y-112264053D01*
X151772747Y-112262647D01*
X151774876Y-112261484D01*
X151779241Y-112258314D01*
X151779650Y-112258877D01*
X151834062Y-112229158D01*
X151903755Y-112234134D01*
X151948116Y-112262640D01*
X152378181Y-112692705D01*
X152411666Y-112754028D01*
X152414500Y-112780386D01*
X152414500Y-116529197D01*
X152394815Y-116596236D01*
X152365988Y-116627572D01*
X152311720Y-116669213D01*
X152215463Y-116794658D01*
X152154956Y-116940735D01*
X152154955Y-116940737D01*
X152134318Y-117097496D01*
X152134318Y-117097499D01*
X152154955Y-117254258D01*
X152154956Y-117254260D01*
X152215464Y-117400339D01*
X152311718Y-117525780D01*
X152437159Y-117622034D01*
X152583238Y-117682542D01*
X152661619Y-117692861D01*
X152739999Y-117703180D01*
X152740000Y-117703180D01*
X152740001Y-117703180D01*
X152792254Y-117696300D01*
X152896762Y-117682542D01*
X153042841Y-117622034D01*
X153168282Y-117525780D01*
X153264536Y-117400339D01*
X153325044Y-117254260D01*
X153345682Y-117097498D01*
X153338266Y-117041171D01*
X153325044Y-116940737D01*
X153325044Y-116940736D01*
X153264536Y-116794657D01*
X153168282Y-116669216D01*
X153168280Y-116669214D01*
X153168279Y-116669213D01*
X153114012Y-116627572D01*
X153072810Y-116571144D01*
X153065500Y-116529197D01*
X153065500Y-112656302D01*
X153085185Y-112589263D01*
X153129904Y-112550513D01*
X153111436Y-112542167D01*
X153225986Y-112542167D01*
X153270703Y-112562589D01*
X153301882Y-112603897D01*
X153344398Y-112695074D01*
X153479894Y-112888580D01*
X153646917Y-113055603D01*
X153840422Y-113191098D01*
X153840424Y-113191099D01*
X154017999Y-113273903D01*
X154018000Y-113273903D01*
X154018000Y-112517498D01*
X153254231Y-112517498D01*
X153225986Y-112542167D01*
X153111436Y-112542167D01*
X153085417Y-112530409D01*
X153057333Y-112489785D01*
X153056013Y-112490548D01*
X153051480Y-112482697D01*
X153050056Y-112479259D01*
X153049724Y-112478779D01*
X153048760Y-112476130D01*
X153041820Y-112459374D01*
X153039554Y-112454517D01*
X153039554Y-112454514D01*
X153016339Y-112421360D01*
X153013433Y-112416797D01*
X152993196Y-112381746D01*
X152993195Y-112381745D01*
X152993194Y-112381743D01*
X152962177Y-112355716D01*
X152958193Y-112352065D01*
X152520320Y-111914192D01*
X152048924Y-111442796D01*
X152045279Y-111438817D01*
X152019261Y-111407809D01*
X151984199Y-111387566D01*
X151979650Y-111384668D01*
X151976236Y-111382278D01*
X151932612Y-111327704D01*
X151924886Y-111300103D01*
X151918646Y-111260699D01*
X151861050Y-111147661D01*
X151861046Y-111147657D01*
X151861045Y-111147655D01*
X151771347Y-111057957D01*
X151771344Y-111057955D01*
X151771342Y-111057953D01*
X151762566Y-111053481D01*
X151711772Y-111005508D01*
X151694977Y-110937687D01*
X151717515Y-110871552D01*
X151772230Y-110828101D01*
X151818863Y-110818998D01*
X153485077Y-110818998D01*
X153490481Y-110819234D01*
X153501012Y-110820155D01*
X153516696Y-110821527D01*
X153581765Y-110846977D01*
X153622745Y-110903567D01*
X153626626Y-110973328D01*
X153593574Y-111032736D01*
X153479886Y-111146424D01*
X153344402Y-111339915D01*
X153344400Y-111339919D01*
X153261594Y-111517497D01*
X153261594Y-111517498D01*
X154482237Y-111517498D01*
X154375685Y-111532818D01*
X154244900Y-111592546D01*
X154136239Y-111686700D01*
X154058507Y-111807654D01*
X154018000Y-111945609D01*
X154018000Y-112089387D01*
X154058507Y-112227342D01*
X154136239Y-112348296D01*
X154244900Y-112442450D01*
X154375685Y-112502178D01*
X154482237Y-112517498D01*
X154553763Y-112517498D01*
X154660315Y-112502178D01*
X154791100Y-112442450D01*
X154899761Y-112348296D01*
X154977493Y-112227342D01*
X155018000Y-112089387D01*
X155018000Y-113273903D01*
X155195575Y-113191099D01*
X155195577Y-113191098D01*
X155389082Y-113055603D01*
X155556105Y-112888580D01*
X155619925Y-112797437D01*
X155674502Y-112753813D01*
X155744001Y-112746620D01*
X155806355Y-112778142D01*
X155841769Y-112838372D01*
X155845500Y-112868561D01*
X155845500Y-116605533D01*
X155825815Y-116672572D01*
X155809181Y-116693214D01*
X153328212Y-119174183D01*
X153266889Y-119207668D01*
X153240531Y-119210502D01*
X151969057Y-119210502D01*
X151902018Y-119190817D01*
X151868793Y-119154095D01*
X151866786Y-119155554D01*
X151861050Y-119147659D01*
X151819819Y-119106428D01*
X151786334Y-119045105D01*
X151783500Y-119018747D01*
X151783500Y-116303259D01*
X151803185Y-116236220D01*
X151819820Y-116215577D01*
X151861046Y-116174351D01*
X151861050Y-116174347D01*
X151918646Y-116061309D01*
X151918646Y-116061307D01*
X151918647Y-116061306D01*
X151933499Y-115967529D01*
X151933500Y-115967524D01*
X151933499Y-115354487D01*
X151918646Y-115260701D01*
X151861050Y-115147663D01*
X151861046Y-115147659D01*
X151861045Y-115147657D01*
X151771347Y-115057959D01*
X151771344Y-115057957D01*
X151771342Y-115057955D01*
X151694517Y-115018810D01*
X151658301Y-115000357D01*
X151564524Y-114985505D01*
X151101482Y-114985505D01*
X151020519Y-114998328D01*
X151007696Y-115000359D01*
X150894658Y-115057955D01*
X150894657Y-115057956D01*
X150894652Y-115057959D01*
X150804954Y-115147657D01*
X150804951Y-115147662D01*
X150747352Y-115260703D01*
X150732500Y-115354480D01*
X150732500Y-115967522D01*
X150738624Y-116006188D01*
X150747354Y-116061309D01*
X150804950Y-116174347D01*
X150804952Y-116174349D01*
X150804953Y-116174351D01*
X150846180Y-116215577D01*
X150879666Y-116276900D01*
X150882500Y-116303259D01*
X150882500Y-119018747D01*
X150862815Y-119085786D01*
X150846181Y-119106428D01*
X150804954Y-119147654D01*
X150804951Y-119147659D01*
X150804950Y-119147660D01*
X150799752Y-119157862D01*
X150747352Y-119260700D01*
X150732500Y-119354477D01*
X150732500Y-119967519D01*
X150742011Y-120027568D01*
X150747354Y-120061306D01*
X150804950Y-120174344D01*
X150804952Y-120174346D01*
X150804954Y-120174349D01*
X150894652Y-120264047D01*
X150894654Y-120264048D01*
X150894658Y-120264052D01*
X151007694Y-120321647D01*
X151007698Y-120321649D01*
X151101475Y-120336501D01*
X151101481Y-120336502D01*
X151564518Y-120336501D01*
X151658304Y-120321648D01*
X151771342Y-120264052D01*
X151794058Y-120241336D01*
X151861050Y-120174345D01*
X151866786Y-120166450D01*
X151869059Y-120168102D01*
X151906546Y-120128411D01*
X151969057Y-120111502D01*
X153449713Y-120111502D01*
X153456651Y-120111891D01*
X153488546Y-120115485D01*
X153495530Y-120116272D01*
X153495530Y-120116271D01*
X153495531Y-120116272D01*
X153553975Y-120105213D01*
X153612783Y-120096350D01*
X153612786Y-120096348D01*
X153620943Y-120093832D01*
X153628965Y-120091025D01*
X153628968Y-120091025D01*
X153681568Y-120063224D01*
X153735138Y-120037427D01*
X153735138Y-120037426D01*
X153735140Y-120037426D01*
X153742191Y-120032618D01*
X153749034Y-120027568D01*
X153791096Y-119985505D01*
X153798524Y-119978613D01*
X153834690Y-119945057D01*
X153834692Y-119945052D01*
X153840483Y-119937792D01*
X153841139Y-119938315D01*
X153850528Y-119926072D01*
X154811913Y-118964687D01*
X170337499Y-118964687D01*
X170340972Y-118985502D01*
X170378428Y-119209968D01*
X170459168Y-119445154D01*
X170459171Y-119445163D01*
X170575978Y-119661003D01*
X170577525Y-119663861D01*
X170730261Y-119860096D01*
X170888954Y-120006183D01*
X170913216Y-120028518D01*
X171121392Y-120164525D01*
X171349117Y-120264415D01*
X171575121Y-120321647D01*
X171590178Y-120325460D01*
X171590180Y-120325460D01*
X171590185Y-120325461D01*
X171723375Y-120336497D01*
X171775932Y-120340852D01*
X171775934Y-120340852D01*
X171900064Y-120340852D01*
X171900066Y-120340852D01*
X171961283Y-120335779D01*
X172085812Y-120325461D01*
X172085815Y-120325460D01*
X172085820Y-120325460D01*
X172326880Y-120264415D01*
X172554606Y-120164525D01*
X172762784Y-120028516D01*
X172945737Y-119860096D01*
X173098473Y-119663861D01*
X173216827Y-119445162D01*
X173297570Y-119209966D01*
X173338499Y-118964687D01*
X173338499Y-118716017D01*
X173297570Y-118470738D01*
X173216827Y-118235542D01*
X173098473Y-118016843D01*
X172945737Y-117820608D01*
X172772359Y-117661002D01*
X172762781Y-117652185D01*
X172554605Y-117516178D01*
X172326880Y-117416288D01*
X172085823Y-117355244D01*
X172085812Y-117355242D01*
X171920547Y-117341549D01*
X171900066Y-117339852D01*
X171775932Y-117339852D01*
X171756520Y-117341460D01*
X171590185Y-117355242D01*
X171590174Y-117355244D01*
X171349117Y-117416288D01*
X171121392Y-117516178D01*
X170913216Y-117652185D01*
X170741996Y-117809804D01*
X170733352Y-117817763D01*
X170730260Y-117820609D01*
X170577523Y-118016845D01*
X170459171Y-118235540D01*
X170459168Y-118235549D01*
X170378428Y-118470735D01*
X170337499Y-118716017D01*
X170337499Y-118964687D01*
X154811913Y-118964687D01*
X156594210Y-117182390D01*
X156599378Y-117177771D01*
X156629970Y-117153377D01*
X156663471Y-117104239D01*
X156698793Y-117056381D01*
X156698796Y-117056370D01*
X156702786Y-117048822D01*
X156706466Y-117041178D01*
X156706472Y-117041171D01*
X156718916Y-117000823D01*
X156724005Y-116984328D01*
X156743646Y-116928198D01*
X156745227Y-116919839D01*
X156746500Y-116911397D01*
X156746500Y-116851924D01*
X156748724Y-116792490D01*
X156747684Y-116783259D01*
X156748513Y-116783165D01*
X156746500Y-116767864D01*
X156746500Y-109535502D01*
X158846732Y-109535502D01*
X158865777Y-109789652D01*
X158918008Y-110018493D01*
X158922492Y-110038135D01*
X159015607Y-110275386D01*
X159143041Y-110496110D01*
X159301950Y-110695375D01*
X159488783Y-110868730D01*
X159699366Y-111012303D01*
X159699371Y-111012305D01*
X159699372Y-111012306D01*
X159699373Y-111012307D01*
X159794159Y-111057953D01*
X159928992Y-111122885D01*
X159928993Y-111122885D01*
X159928996Y-111122887D01*
X160172542Y-111198011D01*
X160424565Y-111235998D01*
X160679435Y-111235998D01*
X160931458Y-111198011D01*
X161175004Y-111122887D01*
X161379928Y-111024201D01*
X161404626Y-111012307D01*
X161404626Y-111012306D01*
X161404634Y-111012303D01*
X161615217Y-110868730D01*
X161802050Y-110695375D01*
X161960959Y-110496110D01*
X162088393Y-110275386D01*
X162181508Y-110038135D01*
X162238222Y-109789655D01*
X162247863Y-109660998D01*
X162257268Y-109535502D01*
X162257268Y-109535493D01*
X162238222Y-109281343D01*
X162235990Y-109271565D01*
X162181508Y-109032861D01*
X162088393Y-108795610D01*
X161960959Y-108574886D01*
X161802050Y-108375621D01*
X161615217Y-108202266D01*
X161404634Y-108058693D01*
X161404630Y-108058691D01*
X161404627Y-108058689D01*
X161404626Y-108058688D01*
X161175006Y-107948110D01*
X161175008Y-107948110D01*
X160931466Y-107872987D01*
X160931462Y-107872986D01*
X160931458Y-107872985D01*
X160810231Y-107854712D01*
X160679440Y-107834998D01*
X160679435Y-107834998D01*
X160424565Y-107834998D01*
X160424559Y-107834998D01*
X160267609Y-107858655D01*
X160172542Y-107872985D01*
X160172539Y-107872986D01*
X160172533Y-107872987D01*
X159928992Y-107948110D01*
X159699373Y-108058688D01*
X159699372Y-108058689D01*
X159699366Y-108058692D01*
X159699366Y-108058693D01*
X159678072Y-108073211D01*
X159488782Y-108202266D01*
X159301952Y-108375619D01*
X159301950Y-108375621D01*
X159143041Y-108574886D01*
X159015608Y-108795607D01*
X158922492Y-109032860D01*
X158922490Y-109032867D01*
X158865777Y-109281343D01*
X158846732Y-109535493D01*
X158846732Y-109535502D01*
X156746500Y-109535502D01*
X156746500Y-108236280D01*
X156746889Y-108229341D01*
X156751270Y-108190463D01*
X156740211Y-108132018D01*
X156731348Y-108073211D01*
X156731347Y-108073209D01*
X156728836Y-108065069D01*
X156726024Y-108057031D01*
X156726023Y-108057026D01*
X156698226Y-108004434D01*
X156672425Y-107950856D01*
X156672422Y-107950853D01*
X156672421Y-107950850D01*
X156667642Y-107943840D01*
X156662568Y-107936967D01*
X156662565Y-107936960D01*
X156620516Y-107894911D01*
X156580055Y-107851304D01*
X156572792Y-107845512D01*
X156573312Y-107844859D01*
X156561067Y-107835462D01*
X155604819Y-106879214D01*
X155571334Y-106817891D01*
X155568500Y-106791533D01*
X155568500Y-106067747D01*
X155568499Y-106067745D01*
X155556868Y-106009268D01*
X155556867Y-106009267D01*
X155512552Y-105942945D01*
X155446230Y-105898630D01*
X155446229Y-105898629D01*
X155387752Y-105886998D01*
X155387748Y-105886998D01*
X153648252Y-105886998D01*
X153648247Y-105886998D01*
X153589770Y-105898629D01*
X153589769Y-105898630D01*
X153523447Y-105942945D01*
X153479132Y-106009267D01*
X153479131Y-106009268D01*
X153467500Y-106067745D01*
X153467500Y-107807250D01*
X153479131Y-107865727D01*
X153479132Y-107865728D01*
X153523447Y-107932050D01*
X153589769Y-107976365D01*
X153589770Y-107976366D01*
X153648247Y-107987997D01*
X153648250Y-107987998D01*
X155388035Y-107987998D01*
X155455074Y-108007683D01*
X155475716Y-108024317D01*
X155809181Y-108357782D01*
X155842666Y-108419105D01*
X155845500Y-108445463D01*
X155845500Y-111166433D01*
X155825815Y-111233472D01*
X155773011Y-111279227D01*
X155703853Y-111289171D01*
X155640297Y-111260146D01*
X155619925Y-111237557D01*
X155556109Y-111146420D01*
X155556108Y-111146418D01*
X155389082Y-110979392D01*
X155195578Y-110843897D01*
X154981492Y-110744068D01*
X154981486Y-110744065D01*
X154859349Y-110711339D01*
X154799689Y-110674974D01*
X154769160Y-110612127D01*
X154777455Y-110542751D01*
X154821940Y-110488873D01*
X154855444Y-110472905D01*
X154921954Y-110452730D01*
X155104450Y-110355183D01*
X155264410Y-110223908D01*
X155395685Y-110063948D01*
X155493232Y-109881452D01*
X155553300Y-109683432D01*
X155573583Y-109477498D01*
X155553300Y-109271564D01*
X155493232Y-109073544D01*
X155395685Y-108891048D01*
X155317359Y-108795607D01*
X155264410Y-108731087D01*
X155146677Y-108634467D01*
X155104450Y-108599813D01*
X154921954Y-108502266D01*
X154723934Y-108442198D01*
X154723932Y-108442197D01*
X154723934Y-108442197D01*
X154518000Y-108421915D01*
X154312067Y-108442197D01*
X154114043Y-108502267D01*
X154003898Y-108561141D01*
X153931550Y-108599813D01*
X153931548Y-108599814D01*
X153931547Y-108599815D01*
X153771589Y-108731087D01*
X153640317Y-108891045D01*
X153542769Y-109073541D01*
X153482699Y-109271565D01*
X153462417Y-109477498D01*
X153482699Y-109683430D01*
X153496445Y-109728743D01*
X153542768Y-109881452D01*
X153542769Y-109881454D01*
X153542770Y-109881456D01*
X153543561Y-109883366D01*
X153543677Y-109884446D01*
X153544537Y-109887281D01*
X153543999Y-109887444D01*
X153551026Y-109952836D01*
X153519747Y-110015313D01*
X153516698Y-110018473D01*
X153403491Y-110131680D01*
X153342171Y-110165164D01*
X153315812Y-110167998D01*
X148888328Y-110167998D01*
X148821289Y-110148313D01*
X148775534Y-110095509D01*
X148765590Y-110026351D01*
X148789953Y-109968511D01*
X148793535Y-109963842D01*
X148793534Y-109963842D01*
X148793536Y-109963841D01*
X148854044Y-109817762D01*
X148874682Y-109661000D01*
X148854044Y-109504238D01*
X148793536Y-109358159D01*
X148697282Y-109232718D01*
X148571841Y-109136464D01*
X148571839Y-109136463D01*
X148425761Y-109075955D01*
X148346915Y-109065575D01*
X148283018Y-109037308D01*
X148275420Y-109030317D01*
X141269819Y-102024716D01*
X141236334Y-101963393D01*
X141233500Y-101937035D01*
X141233500Y-67410500D01*
X141253185Y-67343461D01*
X141305989Y-67297706D01*
X141357500Y-67286500D01*
X142102750Y-67286500D01*
X142102751Y-67286499D01*
X142117568Y-67283552D01*
X142161229Y-67274868D01*
X142161229Y-67274867D01*
X142161231Y-67274867D01*
X142227552Y-67230552D01*
X142271867Y-67164231D01*
X142271867Y-67164229D01*
X142271868Y-67164229D01*
X142283499Y-67105752D01*
X142283500Y-67105750D01*
X142283500Y-64466249D01*
X142283499Y-64466247D01*
X142271868Y-64407770D01*
X142271867Y-64407769D01*
X142227552Y-64341447D01*
X142161230Y-64297132D01*
X142161229Y-64297131D01*
X142102752Y-64285500D01*
X142102748Y-64285500D01*
X139463252Y-64285500D01*
X139463247Y-64285500D01*
X139404770Y-64297131D01*
X139404769Y-64297132D01*
X139338447Y-64341447D01*
X139294132Y-64407769D01*
X139294131Y-64407770D01*
X139282500Y-64466247D01*
X139282500Y-67105752D01*
X139294131Y-67164229D01*
X139294132Y-67164230D01*
X139338447Y-67230552D01*
X139404769Y-67274867D01*
X139404770Y-67274868D01*
X139463247Y-67286499D01*
X139463250Y-67286500D01*
X139463252Y-67286500D01*
X140208500Y-67286500D01*
X140275539Y-67306185D01*
X140321294Y-67358989D01*
X140332500Y-67410500D01*
X140332500Y-102146217D01*
X140332110Y-102153155D01*
X140330724Y-102165454D01*
X140327729Y-102192034D01*
X140338788Y-102250479D01*
X140347652Y-102309290D01*
X140350162Y-102317427D01*
X140352978Y-102325475D01*
X140380777Y-102378072D01*
X140406576Y-102431644D01*
X140411362Y-102438665D01*
X140416431Y-102445532D01*
X140416434Y-102445538D01*
X140416438Y-102445542D01*
X140458496Y-102487600D01*
X140498947Y-102531196D01*
X140506210Y-102536988D01*
X140505689Y-102537641D01*
X140517930Y-102547034D01*
X147638317Y-109667420D01*
X147671802Y-109728743D01*
X147673575Y-109738915D01*
X147683955Y-109817761D01*
X147744464Y-109963842D01*
X147748047Y-109968511D01*
X147773242Y-110033680D01*
X147759204Y-110102125D01*
X147710390Y-110152115D01*
X147649672Y-110167998D01*
X146660913Y-110167998D01*
X146655511Y-110167762D01*
X146648126Y-110167116D01*
X146615192Y-110164234D01*
X146615191Y-110164234D01*
X146576099Y-110174709D01*
X146570819Y-110175880D01*
X146530954Y-110182910D01*
X146525962Y-110184727D01*
X146509117Y-110191704D01*
X146504313Y-110193944D01*
X146471163Y-110217156D01*
X146466602Y-110220062D01*
X146431548Y-110240302D01*
X146431545Y-110240304D01*
X146431543Y-110240305D01*
X146431542Y-110240307D01*
X146405523Y-110271313D01*
X146401868Y-110275301D01*
X145611235Y-111065937D01*
X145377991Y-111299181D01*
X145316668Y-111332666D01*
X145290310Y-111335500D01*
X137915298Y-111335500D01*
X137848259Y-111315815D01*
X137816922Y-111286986D01*
X137812590Y-111281341D01*
X137796752Y-111260700D01*
X137775282Y-111232719D01*
X137733390Y-111200574D01*
X137649840Y-111136464D01*
X137617062Y-111122887D01*
X137503761Y-111075956D01*
X137503759Y-111075955D01*
X137347000Y-111055318D01*
X137346998Y-111055318D01*
X137190238Y-111075955D01*
X137190236Y-111075956D01*
X137044159Y-111136463D01*
X136918717Y-111232718D01*
X136822462Y-111358160D01*
X136761955Y-111504237D01*
X136761954Y-111504239D01*
X136741317Y-111660998D01*
X136741317Y-111661001D01*
X135261500Y-111661001D01*
X135261500Y-111571118D01*
X135261736Y-111565711D01*
X135265264Y-111525391D01*
X135259596Y-111504239D01*
X135254782Y-111486274D01*
X135253616Y-111481016D01*
X135246588Y-111441153D01*
X135246586Y-111441150D01*
X135246586Y-111441148D01*
X135244760Y-111436131D01*
X135237820Y-111419374D01*
X135235554Y-111414517D01*
X135235554Y-111414514D01*
X135212339Y-111381360D01*
X135209433Y-111376797D01*
X135189196Y-111341746D01*
X135189195Y-111341745D01*
X135189194Y-111341743D01*
X135158177Y-111315716D01*
X135154193Y-111312065D01*
X133659888Y-109817760D01*
X132130119Y-108287991D01*
X132126474Y-108284012D01*
X132100456Y-108253005D01*
X132100455Y-108253004D01*
X132088405Y-108246047D01*
X132065392Y-108232759D01*
X132060831Y-108229853D01*
X132047687Y-108220650D01*
X132027684Y-108206644D01*
X132027681Y-108206643D01*
X132022861Y-108204395D01*
X132006055Y-108197433D01*
X132001043Y-108195609D01*
X131961190Y-108188581D01*
X131955910Y-108187410D01*
X131916808Y-108176933D01*
X131881892Y-108179988D01*
X131876481Y-108180462D01*
X131871078Y-108180698D01*
X131454583Y-108180698D01*
X131387544Y-108161013D01*
X131341789Y-108108209D01*
X131340021Y-108104149D01*
X131339233Y-108102249D01*
X131339232Y-108102244D01*
X131317189Y-108061004D01*
X133389219Y-108061004D01*
X133389410Y-108063114D01*
X133439981Y-108225400D01*
X133527927Y-108370881D01*
X133648122Y-108491076D01*
X133793600Y-108579021D01*
X133882999Y-108606878D01*
X133883000Y-108606878D01*
X133883000Y-108061004D01*
X133389219Y-108061004D01*
X131317189Y-108061004D01*
X131241685Y-107919748D01*
X131181988Y-107847006D01*
X131110410Y-107759787D01*
X130950452Y-107628515D01*
X130950453Y-107628515D01*
X130950450Y-107628513D01*
X130767954Y-107530966D01*
X130569934Y-107470898D01*
X130569932Y-107470897D01*
X130569934Y-107470897D01*
X130364000Y-107450615D01*
X130158067Y-107470897D01*
X129960043Y-107530967D01*
X129849898Y-107589841D01*
X129777550Y-107628513D01*
X129777548Y-107628514D01*
X129777547Y-107628515D01*
X129617589Y-107759787D01*
X129486317Y-107919745D01*
X129486315Y-107919748D01*
X129460779Y-107967522D01*
X129388769Y-108102241D01*
X129328699Y-108300265D01*
X129308417Y-108506198D01*
X126838499Y-108506198D01*
X126838499Y-107261004D01*
X133389219Y-107261004D01*
X133883000Y-107261004D01*
X133883000Y-106715128D01*
X133882999Y-106715127D01*
X134683000Y-106715127D01*
X134683000Y-108606878D01*
X134772399Y-108579021D01*
X134917877Y-108491076D01*
X135038072Y-108370881D01*
X135126017Y-108225402D01*
X135151135Y-108144796D01*
X135189872Y-108086648D01*
X135253897Y-108058673D01*
X135322883Y-108069754D01*
X135374926Y-108116372D01*
X135380001Y-108125381D01*
X135404950Y-108174346D01*
X135404952Y-108174348D01*
X135404954Y-108174351D01*
X135494652Y-108264049D01*
X135494654Y-108264050D01*
X135494658Y-108264054D01*
X135607694Y-108321649D01*
X135607698Y-108321651D01*
X135701475Y-108336503D01*
X135701481Y-108336504D01*
X136164518Y-108336503D01*
X136258304Y-108321650D01*
X136371342Y-108264054D01*
X136461050Y-108174346D01*
X136518646Y-108061308D01*
X136518646Y-108061307D01*
X136522263Y-108054209D01*
X136570238Y-108003413D01*
X136632748Y-107986504D01*
X136778700Y-107986504D01*
X136845739Y-108006189D01*
X136877076Y-108035018D01*
X136916692Y-108086648D01*
X136918717Y-108089286D01*
X137044158Y-108185540D01*
X137190237Y-108246048D01*
X137243081Y-108253005D01*
X137346998Y-108266686D01*
X137346999Y-108266686D01*
X137347000Y-108266686D01*
X137399253Y-108259806D01*
X137503761Y-108246048D01*
X137649840Y-108185540D01*
X137775281Y-108089286D01*
X137871535Y-107963845D01*
X137932043Y-107817766D01*
X137952681Y-107661004D01*
X137932043Y-107504242D01*
X137871535Y-107358163D01*
X137775281Y-107232722D01*
X137649840Y-107136468D01*
X137503761Y-107075960D01*
X137503759Y-107075959D01*
X137347000Y-107055322D01*
X137346998Y-107055322D01*
X137190238Y-107075959D01*
X137190236Y-107075960D01*
X137044159Y-107136467D01*
X136918715Y-107232723D01*
X136877076Y-107286990D01*
X136820648Y-107328193D01*
X136778700Y-107335504D01*
X136632747Y-107335504D01*
X136565708Y-107315819D01*
X136522262Y-107267799D01*
X136518646Y-107260703D01*
X136518646Y-107260700D01*
X136461050Y-107147662D01*
X136461048Y-107147660D01*
X136461045Y-107147656D01*
X136371347Y-107057958D01*
X136371344Y-107057956D01*
X136371342Y-107057954D01*
X136294517Y-107018809D01*
X136258301Y-107000356D01*
X136164524Y-106985504D01*
X135701482Y-106985504D01*
X135620519Y-106998327D01*
X135607696Y-107000358D01*
X135494658Y-107057954D01*
X135494657Y-107057955D01*
X135494652Y-107057958D01*
X135404954Y-107147656D01*
X135404950Y-107147661D01*
X135380005Y-107196618D01*
X135332029Y-107247413D01*
X135264208Y-107264207D01*
X135198074Y-107241668D01*
X135154623Y-107186952D01*
X135151135Y-107177211D01*
X135126017Y-107096604D01*
X135038072Y-106951126D01*
X134917877Y-106830931D01*
X134772396Y-106742985D01*
X134772392Y-106742983D01*
X134683000Y-106715127D01*
X133882999Y-106715127D01*
X133793607Y-106742983D01*
X133793603Y-106742985D01*
X133648122Y-106830931D01*
X133527927Y-106951126D01*
X133439981Y-107096607D01*
X133389410Y-107258893D01*
X133389219Y-107261004D01*
X126838499Y-107261004D01*
X126838499Y-105966198D01*
X129308417Y-105966198D01*
X129328699Y-106172130D01*
X129328700Y-106172132D01*
X129388768Y-106370152D01*
X129486315Y-106552648D01*
X129486317Y-106552650D01*
X129617589Y-106712608D01*
X129713761Y-106791533D01*
X129777550Y-106843883D01*
X129960046Y-106941430D01*
X130158066Y-107001498D01*
X130158065Y-107001498D01*
X130176529Y-107003316D01*
X130364000Y-107021781D01*
X130569934Y-107001498D01*
X130767954Y-106941430D01*
X130950450Y-106843883D01*
X131110410Y-106712608D01*
X131241685Y-106552648D01*
X131339232Y-106370152D01*
X131399300Y-106172132D01*
X131419583Y-105966198D01*
X131399300Y-105760264D01*
X131339232Y-105562244D01*
X131241685Y-105379748D01*
X131189702Y-105316407D01*
X131110410Y-105219787D01*
X130950452Y-105088515D01*
X130950453Y-105088515D01*
X130950450Y-105088513D01*
X130767954Y-104990966D01*
X130569934Y-104930898D01*
X130569932Y-104930897D01*
X130569934Y-104930897D01*
X130364000Y-104910615D01*
X130158067Y-104930897D01*
X129960043Y-104990967D01*
X129849898Y-105049841D01*
X129777550Y-105088513D01*
X129777548Y-105088514D01*
X129777547Y-105088515D01*
X129617589Y-105219787D01*
X129486317Y-105379745D01*
X129388769Y-105562241D01*
X129328699Y-105760265D01*
X129308417Y-105966198D01*
X126838499Y-105966198D01*
X126838499Y-103426198D01*
X129308417Y-103426198D01*
X129328699Y-103632130D01*
X129328700Y-103632132D01*
X129388768Y-103830152D01*
X129486315Y-104012648D01*
X129486317Y-104012650D01*
X129617589Y-104172608D01*
X129714209Y-104251900D01*
X129777550Y-104303883D01*
X129960046Y-104401430D01*
X130158066Y-104461498D01*
X130158065Y-104461498D01*
X130176529Y-104463316D01*
X130364000Y-104481781D01*
X130569934Y-104461498D01*
X130767954Y-104401430D01*
X130950450Y-104303883D01*
X131110410Y-104172608D01*
X131241685Y-104012648D01*
X131339232Y-103830152D01*
X131399300Y-103632132D01*
X131419583Y-103426198D01*
X131399300Y-103220264D01*
X131339232Y-103022244D01*
X131241685Y-102839748D01*
X131189702Y-102776407D01*
X131110410Y-102679787D01*
X130950452Y-102548515D01*
X130950453Y-102548515D01*
X130950450Y-102548513D01*
X130767954Y-102450966D01*
X130569934Y-102390898D01*
X130569932Y-102390897D01*
X130569934Y-102390897D01*
X130364000Y-102370615D01*
X130158067Y-102390897D01*
X129960043Y-102450967D01*
X129891509Y-102487600D01*
X129777550Y-102548513D01*
X129777548Y-102548514D01*
X129777547Y-102548515D01*
X129617589Y-102679787D01*
X129486317Y-102839745D01*
X129388769Y-103022241D01*
X129328699Y-103220265D01*
X129308417Y-103426198D01*
X126838499Y-103426198D01*
X126838499Y-101755950D01*
X129313500Y-101755950D01*
X129325131Y-101814427D01*
X129325132Y-101814428D01*
X129369447Y-101880750D01*
X129435769Y-101925065D01*
X129435770Y-101925066D01*
X129494247Y-101936697D01*
X129494250Y-101936698D01*
X129494252Y-101936698D01*
X131233750Y-101936698D01*
X131233751Y-101936697D01*
X131248568Y-101933750D01*
X131292229Y-101925066D01*
X131292229Y-101925065D01*
X131292231Y-101925065D01*
X131358552Y-101880750D01*
X131402867Y-101814429D01*
X131402867Y-101814427D01*
X131402868Y-101814427D01*
X131414499Y-101755950D01*
X131414500Y-101755948D01*
X131414500Y-100016447D01*
X131414499Y-100016445D01*
X131402868Y-99957968D01*
X131402867Y-99957967D01*
X131358552Y-99891645D01*
X131292230Y-99847330D01*
X131292229Y-99847329D01*
X131233752Y-99835698D01*
X131233748Y-99835698D01*
X129494252Y-99835698D01*
X129494247Y-99835698D01*
X129435770Y-99847329D01*
X129435769Y-99847330D01*
X129369447Y-99891645D01*
X129325132Y-99957967D01*
X129325131Y-99957968D01*
X129313500Y-100016445D01*
X129313500Y-101755950D01*
X126838499Y-101755950D01*
X126838499Y-91722050D01*
X129775053Y-91722050D01*
X129785093Y-91728202D01*
X129785101Y-91728205D01*
X130025042Y-91827592D01*
X130025054Y-91827596D01*
X130277588Y-91888223D01*
X130277587Y-91888223D01*
X130536500Y-91908599D01*
X130795412Y-91888223D01*
X131047945Y-91827596D01*
X131047962Y-91827591D01*
X131287897Y-91728207D01*
X131287900Y-91728205D01*
X131297945Y-91722050D01*
X131297945Y-91722049D01*
X130536500Y-90960605D01*
X129775053Y-91722049D01*
X129775053Y-91722050D01*
X126838499Y-91722050D01*
X126838499Y-90253498D01*
X128881398Y-90253498D01*
X128901774Y-90512410D01*
X128962401Y-90764943D01*
X128962405Y-90764955D01*
X129061794Y-91004901D01*
X129067946Y-91014942D01*
X129067948Y-91014943D01*
X129757504Y-90325387D01*
X130036500Y-90325387D01*
X130077007Y-90463342D01*
X130154739Y-90584296D01*
X130263400Y-90678450D01*
X130394185Y-90738178D01*
X130500737Y-90753498D01*
X130572263Y-90753498D01*
X130678815Y-90738178D01*
X130809600Y-90678450D01*
X130918261Y-90584296D01*
X130995993Y-90463342D01*
X131036500Y-90325387D01*
X131036500Y-90253499D01*
X131243607Y-90253499D01*
X132005051Y-91014943D01*
X132005052Y-91014943D01*
X132011207Y-91004898D01*
X132011209Y-91004895D01*
X132110593Y-90764960D01*
X132110598Y-90764943D01*
X132171225Y-90512410D01*
X132191601Y-90253498D01*
X132171225Y-89994585D01*
X132110598Y-89742052D01*
X132110594Y-89742040D01*
X132011207Y-89502099D01*
X132011204Y-89502091D01*
X132005051Y-89492051D01*
X131243607Y-90253497D01*
X131243607Y-90253499D01*
X131036500Y-90253499D01*
X131036500Y-90181609D01*
X130995993Y-90043654D01*
X130918261Y-89922700D01*
X130809600Y-89828546D01*
X130678815Y-89768818D01*
X130572263Y-89753498D01*
X130500737Y-89753498D01*
X130394185Y-89768818D01*
X130263400Y-89828546D01*
X130154739Y-89922700D01*
X130077007Y-90043654D01*
X130036500Y-90181609D01*
X130036500Y-90325387D01*
X129757504Y-90325387D01*
X129829393Y-90253498D01*
X129829393Y-90253497D01*
X129067947Y-89492051D01*
X129067946Y-89492051D01*
X129061792Y-89502097D01*
X128962405Y-89742040D01*
X128962401Y-89742052D01*
X128901774Y-89994585D01*
X128881398Y-90253498D01*
X126838499Y-90253498D01*
X126838499Y-88784945D01*
X129775053Y-88784945D01*
X130536500Y-89546391D01*
X130536501Y-89546391D01*
X131297945Y-88784946D01*
X131297944Y-88784944D01*
X131287903Y-88778792D01*
X131047957Y-88679403D01*
X131047945Y-88679399D01*
X130795411Y-88618772D01*
X130795412Y-88618772D01*
X130536500Y-88598396D01*
X130277587Y-88618772D01*
X130025054Y-88679399D01*
X130025042Y-88679403D01*
X129785099Y-88778790D01*
X129775053Y-88784944D01*
X129775053Y-88784945D01*
X126838499Y-88784945D01*
X126838499Y-74853498D01*
X129180841Y-74853498D01*
X129201436Y-75088901D01*
X129201438Y-75088911D01*
X129262594Y-75317153D01*
X129262596Y-75317157D01*
X129262597Y-75317161D01*
X129362465Y-75531328D01*
X129362467Y-75531332D01*
X129470781Y-75686019D01*
X129498005Y-75724899D01*
X129665099Y-75891993D01*
X129761884Y-75959763D01*
X129858665Y-76027530D01*
X129858667Y-76027531D01*
X129858670Y-76027533D01*
X130072837Y-76127401D01*
X130301092Y-76188561D01*
X130489418Y-76205037D01*
X130536499Y-76209157D01*
X130536500Y-76209157D01*
X130536501Y-76209157D01*
X130575734Y-76205724D01*
X130771908Y-76188561D01*
X131000163Y-76127401D01*
X131214330Y-76027533D01*
X131407901Y-75891993D01*
X131574995Y-75724899D01*
X131710535Y-75531328D01*
X131810403Y-75317161D01*
X131871563Y-75088906D01*
X131892159Y-74853498D01*
X131871563Y-74618090D01*
X131810403Y-74389835D01*
X131710535Y-74175669D01*
X131574995Y-73982097D01*
X131574994Y-73982095D01*
X131407902Y-73815004D01*
X131407895Y-73814999D01*
X131214334Y-73679465D01*
X131214330Y-73679463D01*
X131214328Y-73679462D01*
X131000163Y-73579595D01*
X131000159Y-73579594D01*
X131000155Y-73579592D01*
X130771913Y-73518436D01*
X130771903Y-73518434D01*
X130536501Y-73497839D01*
X130536499Y-73497839D01*
X130301096Y-73518434D01*
X130301086Y-73518436D01*
X130072844Y-73579592D01*
X130072835Y-73579596D01*
X129858671Y-73679462D01*
X129858669Y-73679463D01*
X129665097Y-73815003D01*
X129498005Y-73982095D01*
X129362465Y-74175667D01*
X129362464Y-74175669D01*
X129262598Y-74389833D01*
X129262594Y-74389842D01*
X129201438Y-74618084D01*
X129201436Y-74618094D01*
X129180841Y-74853497D01*
X129180841Y-74853498D01*
X126838499Y-74853498D01*
X126838499Y-67364303D01*
X134831802Y-67364303D01*
X135043539Y-67466269D01*
X135043537Y-67466269D01*
X135301337Y-67545790D01*
X135301343Y-67545792D01*
X135568101Y-67585999D01*
X135568110Y-67586000D01*
X135837890Y-67586000D01*
X135837898Y-67585999D01*
X136104656Y-67545792D01*
X136104662Y-67545790D01*
X136362458Y-67466270D01*
X136574195Y-67364302D01*
X135703000Y-66493107D01*
X134831802Y-67364303D01*
X126838499Y-67364303D01*
X126838499Y-65786004D01*
X133897953Y-65786004D01*
X133918113Y-66055026D01*
X133918113Y-66055028D01*
X133978142Y-66318033D01*
X133978148Y-66318052D01*
X134076709Y-66569181D01*
X134126489Y-66655402D01*
X134126490Y-66655403D01*
X134995893Y-65786000D01*
X134954755Y-65744862D01*
X135049127Y-65744862D01*
X135059439Y-65908766D01*
X135110188Y-66064956D01*
X135198186Y-66203619D01*
X135317903Y-66316040D01*
X135461817Y-66395158D01*
X135620886Y-66436000D01*
X135743894Y-66436000D01*
X135865933Y-66420583D01*
X136018629Y-66360126D01*
X136151492Y-66263595D01*
X136256175Y-66137055D01*
X136326100Y-65988457D01*
X136356873Y-65827138D01*
X136354285Y-65786001D01*
X136410107Y-65786001D01*
X137279509Y-66655403D01*
X137279510Y-66655403D01*
X137329290Y-66569182D01*
X137329293Y-66569175D01*
X137427851Y-66318052D01*
X137427857Y-66318033D01*
X137487886Y-66055028D01*
X137487886Y-66055026D01*
X137508047Y-65786004D01*
X137508047Y-65785995D01*
X137487886Y-65516973D01*
X137487886Y-65516971D01*
X137427857Y-65253966D01*
X137427851Y-65253947D01*
X137329290Y-65002818D01*
X137279509Y-64916595D01*
X136410107Y-65785999D01*
X136410107Y-65786001D01*
X136354285Y-65786001D01*
X136346561Y-65663234D01*
X136295812Y-65507044D01*
X136207814Y-65368381D01*
X136088097Y-65255960D01*
X135944183Y-65176842D01*
X135785114Y-65136000D01*
X135662106Y-65136000D01*
X135540067Y-65151417D01*
X135387371Y-65211874D01*
X135254508Y-65308405D01*
X135149825Y-65434945D01*
X135079900Y-65583543D01*
X135049127Y-65744862D01*
X134954755Y-65744862D01*
X134126489Y-64916596D01*
X134076708Y-65002821D01*
X134076706Y-65002825D01*
X133978148Y-65253947D01*
X133978142Y-65253966D01*
X133918113Y-65516971D01*
X133918113Y-65516973D01*
X133897953Y-65785995D01*
X133897953Y-65786004D01*
X126838499Y-65786004D01*
X126838499Y-64207696D01*
X134831803Y-64207696D01*
X135703000Y-65078893D01*
X135703001Y-65078893D01*
X136574196Y-64207697D01*
X136574195Y-64207695D01*
X136362460Y-64105730D01*
X136362462Y-64105730D01*
X136104662Y-64026209D01*
X136104656Y-64026207D01*
X135837898Y-63986000D01*
X135568101Y-63986000D01*
X135301343Y-64026207D01*
X135301337Y-64026209D01*
X135043538Y-64105730D01*
X134831803Y-64207695D01*
X134831803Y-64207696D01*
X126838499Y-64207696D01*
X126838499Y-61964686D01*
X128337499Y-61964686D01*
X128378428Y-62209968D01*
X128459168Y-62445154D01*
X128459171Y-62445163D01*
X128495350Y-62512015D01*
X128577525Y-62663861D01*
X128730261Y-62860096D01*
X128889743Y-63006909D01*
X128913216Y-63028518D01*
X129121392Y-63164525D01*
X129349117Y-63264415D01*
X129590174Y-63325459D01*
X129590178Y-63325460D01*
X129590180Y-63325460D01*
X129590185Y-63325461D01*
X129723375Y-63336497D01*
X129775932Y-63340852D01*
X129775934Y-63340852D01*
X129900064Y-63340852D01*
X129900066Y-63340852D01*
X129961283Y-63335779D01*
X130085812Y-63325461D01*
X130085815Y-63325460D01*
X130085820Y-63325460D01*
X130326880Y-63264415D01*
X130554606Y-63164525D01*
X130762784Y-63028516D01*
X130945737Y-62860096D01*
X131098473Y-62663861D01*
X131216827Y-62445162D01*
X131297570Y-62209966D01*
X131338499Y-61964687D01*
X131338499Y-61716017D01*
X131297570Y-61470738D01*
X131216827Y-61235542D01*
X131198799Y-61202230D01*
X131098474Y-61016845D01*
X131098473Y-61016843D01*
X130945737Y-60820608D01*
X130762784Y-60652188D01*
X130762781Y-60652185D01*
X130554605Y-60516178D01*
X130326880Y-60416288D01*
X130085823Y-60355244D01*
X130085812Y-60355242D01*
X129920547Y-60341549D01*
X129900066Y-60339852D01*
X129775932Y-60339852D01*
X129756520Y-60341460D01*
X129590185Y-60355242D01*
X129590174Y-60355244D01*
X129349117Y-60416288D01*
X129121392Y-60516178D01*
X128913216Y-60652185D01*
X128730260Y-60820609D01*
X128577523Y-61016845D01*
X128459171Y-61235540D01*
X128459168Y-61235549D01*
X128378428Y-61470735D01*
X128337499Y-61716017D01*
X128337499Y-61964686D01*
X126838499Y-61964686D01*
X126838499Y-61841971D01*
X126838584Y-61838727D01*
X126845520Y-61706328D01*
X126855792Y-61523351D01*
X126856456Y-61517156D01*
X126863808Y-61470738D01*
X126880672Y-61364247D01*
X126908197Y-61202230D01*
X126909423Y-61196614D01*
X126950534Y-61043180D01*
X126995040Y-60888689D01*
X126996706Y-60883722D01*
X127054287Y-60733714D01*
X127115279Y-60586463D01*
X127117287Y-60582110D01*
X127190711Y-60438006D01*
X127202715Y-60416288D01*
X127267504Y-60299058D01*
X127269735Y-60295339D01*
X127358228Y-60159072D01*
X127449938Y-60029819D01*
X127452273Y-60026740D01*
X127553950Y-59901179D01*
X127555811Y-59898993D01*
X127660450Y-59781901D01*
X127662752Y-59779466D01*
X127777136Y-59665084D01*
X127779587Y-59662768D01*
X127896527Y-59558265D01*
X127898760Y-59556365D01*
X128024520Y-59454529D01*
X128027569Y-59452217D01*
X128156456Y-59360767D01*
X128293202Y-59271965D01*
X128296858Y-59269773D01*
X128435129Y-59193353D01*
X128579995Y-59119543D01*
X128584380Y-59117521D01*
X128730446Y-59057020D01*
X128881678Y-58998972D01*
X128886681Y-58997295D01*
X129039153Y-58953370D01*
X129105026Y-58935721D01*
X129137115Y-58931498D01*
X143194000Y-58931498D01*
X143261039Y-58951183D01*
G37*
G04 #@! TD.AperFunction*
M02*
