G04 #@! TF.GenerationSoftware,KiCad,Pcbnew,7.0.8*
G04 #@! TF.CreationDate,2024-05-10T00:52:19-03:00*
G04 #@! TF.ProjectId,on_off_module_x1,6f6e5f6f-6666-45f6-9d6f-64756c655f78,1.0*
G04 #@! TF.SameCoordinates,Original*
G04 #@! TF.FileFunction,Soldermask,Top*
G04 #@! TF.FilePolarity,Negative*
%FSLAX46Y46*%
G04 Gerber Fmt 4.6, Leading zero omitted, Abs format (unit mm)*
G04 Created by KiCad (PCBNEW 7.0.8) date 2024-05-10 00:52:19*
%MOMM*%
%LPD*%
G01*
G04 APERTURE LIST*
G04 Aperture macros list*
%AMRoundRect*
0 Rectangle with rounded corners*
0 $1 Rounding radius*
0 $2 $3 $4 $5 $6 $7 $8 $9 X,Y pos of 4 corners*
0 Add a 4 corners polygon primitive as box body*
4,1,4,$2,$3,$4,$5,$6,$7,$8,$9,$2,$3,0*
0 Add four circle primitives for the rounded corners*
1,1,$1+$1,$2,$3*
1,1,$1+$1,$4,$5*
1,1,$1+$1,$6,$7*
1,1,$1+$1,$8,$9*
0 Add four rect primitives between the rounded corners*
20,1,$1+$1,$2,$3,$4,$5,0*
20,1,$1+$1,$4,$5,$6,$7,0*
20,1,$1+$1,$6,$7,$8,$9,0*
20,1,$1+$1,$8,$9,$2,$3,0*%
G04 Aperture macros list end*
%ADD10RoundRect,0.225000X-0.225000X-0.250000X0.225000X-0.250000X0.225000X0.250000X-0.225000X0.250000X0*%
%ADD11RoundRect,0.150000X0.150000X-0.587500X0.150000X0.587500X-0.150000X0.587500X-0.150000X-0.587500X0*%
%ADD12C,2.500000*%
%ADD13RoundRect,0.125000X0.125000X0.125000X-0.125000X0.125000X-0.125000X-0.125000X0.125000X-0.125000X0*%
%ADD14R,1.700000X1.700000*%
%ADD15O,1.700000X1.700000*%
%ADD16RoundRect,0.218750X0.218750X0.256250X-0.218750X0.256250X-0.218750X-0.256250X0.218750X-0.256250X0*%
%ADD17C,3.000000*%
%ADD18C,2.600000*%
%ADD19R,2.600000X2.600000*%
%ADD20R,2.000000X1.500000*%
%ADD21R,2.000000X3.800000*%
%ADD22RoundRect,0.200000X-0.200000X-0.275000X0.200000X-0.275000X0.200000X0.275000X-0.200000X0.275000X0*%
%ADD23RoundRect,0.250000X-0.425000X0.450000X-0.425000X-0.450000X0.425000X-0.450000X0.425000X0.450000X0*%
%ADD24R,2.500000X1.100000*%
%ADD25R,1.100000X2.500000*%
%ADD26C,2.400000*%
%ADD27R,2.000000X1.780000*%
%ADD28R,2.300000X2.000000*%
%ADD29C,2.300000*%
%ADD30RoundRect,0.250000X-0.450000X-0.425000X0.450000X-0.425000X0.450000X0.425000X-0.450000X0.425000X0*%
%ADD31RoundRect,0.250000X-1.500000X-0.550000X1.500000X-0.550000X1.500000X0.550000X-1.500000X0.550000X0*%
%ADD32R,1.500000X1.500000*%
%ADD33C,1.500000*%
G04 APERTURE END LIST*
D10*
X150508000Y-102664198D03*
X152058000Y-102664198D03*
D11*
X165252000Y-117226998D03*
X167152000Y-117226998D03*
X166202000Y-115351998D03*
D12*
X129837999Y-61840352D03*
D13*
X173279500Y-114811498D03*
X171079500Y-114811498D03*
D14*
X154518000Y-106937498D03*
D15*
X154518000Y-109477498D03*
X154518000Y-112017498D03*
D12*
X171837999Y-118840352D03*
D16*
X131663500Y-68329498D03*
X130088500Y-68329498D03*
D17*
X166552000Y-111535498D03*
X160552000Y-97335498D03*
X172552000Y-97335498D03*
X172552000Y-109535498D03*
X160552000Y-109535498D03*
D18*
X135703000Y-65786000D03*
D19*
X140783000Y-65786000D03*
D14*
X130364000Y-100886198D03*
D15*
X130364000Y-103426198D03*
X130364000Y-105966198D03*
X130364000Y-108506198D03*
X130364000Y-111046198D03*
X130364000Y-113586198D03*
D18*
X158558000Y-65786000D03*
D19*
X163638000Y-65786000D03*
D20*
X150786000Y-99585498D03*
X150786000Y-97285498D03*
D21*
X144486000Y-97285498D03*
D20*
X150786000Y-94985498D03*
D22*
X165377000Y-119637498D03*
X167027000Y-119637498D03*
D23*
X153652000Y-97285498D03*
X153652000Y-99985498D03*
D24*
X150508000Y-119660998D03*
X150508000Y-117660998D03*
X150508000Y-115660998D03*
X150508000Y-113660998D03*
X150508000Y-111660998D03*
X150508000Y-109660998D03*
X150508000Y-107660998D03*
X150508000Y-105660998D03*
X135108000Y-105660998D03*
X135108000Y-107660998D03*
X135108000Y-109660998D03*
X135108000Y-111660998D03*
X135108000Y-113660998D03*
X135108000Y-115660998D03*
X135108000Y-117660998D03*
X135108000Y-119660998D03*
D25*
X147818000Y-103960998D03*
X145818000Y-103960998D03*
X143818000Y-103960998D03*
X141818000Y-103960998D03*
X139818000Y-103960998D03*
X137818000Y-103960998D03*
D26*
X167218000Y-91053498D03*
X167218000Y-76053498D03*
D27*
X154772000Y-117097498D03*
X154772000Y-119637498D03*
X162392000Y-119637498D03*
X162392000Y-117097498D03*
D28*
X159936500Y-85053498D03*
D29*
X159936500Y-80053498D03*
X130536500Y-90253498D03*
X130536500Y-74853498D03*
D30*
X153652000Y-94985499D03*
X156352000Y-94985499D03*
D19*
X152208000Y-65786000D03*
D18*
X147128000Y-65786000D03*
D12*
X129837999Y-118840352D03*
X171837999Y-61840352D03*
D31*
X134014000Y-97031498D03*
X139414000Y-97031498D03*
D22*
X130071000Y-70361498D03*
X131721000Y-70361498D03*
D32*
X168290000Y-71676198D03*
D33*
X168290000Y-69676198D03*
X168290000Y-67676198D03*
X173290000Y-71676198D03*
X173290000Y-69676198D03*
X173290000Y-67676198D03*
M02*
