G04 #@! TF.GenerationSoftware,KiCad,Pcbnew,7.0.8*
G04 #@! TF.CreationDate,2024-05-10T00:52:19-03:00*
G04 #@! TF.ProjectId,on_off_module_x1,6f6e5f6f-6666-45f6-9d6f-64756c655f78,1.0*
G04 #@! TF.SameCoordinates,Original*
G04 #@! TF.FileFunction,Legend,Top*
G04 #@! TF.FilePolarity,Positive*
%FSLAX46Y46*%
G04 Gerber Fmt 4.6, Leading zero omitted, Abs format (unit mm)*
G04 Created by KiCad (PCBNEW 7.0.8) date 2024-05-10 00:52:19*
%MOMM*%
%LPD*%
G01*
G04 APERTURE LIST*
G04 Aperture macros list*
%AMRoundRect*
0 Rectangle with rounded corners*
0 $1 Rounding radius*
0 $2 $3 $4 $5 $6 $7 $8 $9 X,Y pos of 4 corners*
0 Add a 4 corners polygon primitive as box body*
4,1,4,$2,$3,$4,$5,$6,$7,$8,$9,$2,$3,0*
0 Add four circle primitives for the rounded corners*
1,1,$1+$1,$2,$3*
1,1,$1+$1,$4,$5*
1,1,$1+$1,$6,$7*
1,1,$1+$1,$8,$9*
0 Add four rect primitives between the rounded corners*
20,1,$1+$1,$2,$3,$4,$5,0*
20,1,$1+$1,$4,$5,$6,$7,0*
20,1,$1+$1,$6,$7,$8,$9,0*
20,1,$1+$1,$8,$9,$2,$3,0*%
G04 Aperture macros list end*
%ADD10C,0.050000*%
%ADD11C,0.350000*%
%ADD12C,0.200000*%
%ADD13C,0.150000*%
%ADD14C,0.120000*%
%ADD15C,0.152400*%
%ADD16RoundRect,0.225000X-0.225000X-0.250000X0.225000X-0.250000X0.225000X0.250000X-0.225000X0.250000X0*%
%ADD17RoundRect,0.150000X0.150000X-0.587500X0.150000X0.587500X-0.150000X0.587500X-0.150000X-0.587500X0*%
%ADD18C,2.500000*%
%ADD19RoundRect,0.125000X0.125000X0.125000X-0.125000X0.125000X-0.125000X-0.125000X0.125000X-0.125000X0*%
%ADD20R,1.700000X1.700000*%
%ADD21O,1.700000X1.700000*%
%ADD22RoundRect,0.218750X0.218750X0.256250X-0.218750X0.256250X-0.218750X-0.256250X0.218750X-0.256250X0*%
%ADD23C,3.000000*%
%ADD24C,2.600000*%
%ADD25R,2.600000X2.600000*%
%ADD26R,2.000000X1.500000*%
%ADD27R,2.000000X3.800000*%
%ADD28RoundRect,0.200000X-0.200000X-0.275000X0.200000X-0.275000X0.200000X0.275000X-0.200000X0.275000X0*%
%ADD29RoundRect,0.250000X-0.425000X0.450000X-0.425000X-0.450000X0.425000X-0.450000X0.425000X0.450000X0*%
%ADD30R,2.500000X1.100000*%
%ADD31R,1.100000X2.500000*%
%ADD32C,2.400000*%
%ADD33R,2.000000X1.780000*%
%ADD34R,2.300000X2.000000*%
%ADD35C,2.300000*%
%ADD36RoundRect,0.250000X-0.450000X-0.425000X0.450000X-0.425000X0.450000X0.425000X-0.450000X0.425000X0*%
%ADD37RoundRect,0.250000X-1.500000X-0.550000X1.500000X-0.550000X1.500000X0.550000X-1.500000X0.550000X0*%
%ADD38R,1.500000X1.500000*%
%ADD39C,1.500000*%
G04 APERTURE END LIST*
D10*
X136244100Y-58823798D02*
X137209300Y-58823798D01*
X137209300Y-61973398D01*
X136244100Y-61973398D01*
X136244100Y-58823798D01*
G36*
X136244100Y-58823798D02*
G01*
X137209300Y-58823798D01*
X137209300Y-61973398D01*
X136244100Y-61973398D01*
X136244100Y-58823798D01*
G37*
X136244100Y-60601798D02*
X140231900Y-60601798D01*
X140231900Y-61973398D01*
X136244100Y-61973398D01*
X136244100Y-60601798D01*
G36*
X136244100Y-60601798D02*
G01*
X140231900Y-60601798D01*
X140231900Y-61973398D01*
X136244100Y-61973398D01*
X136244100Y-60601798D01*
G37*
X136244100Y-58823798D02*
X140231900Y-58823798D01*
X140231900Y-59280998D01*
X136244100Y-59280998D01*
X136244100Y-58823798D01*
G36*
X136244100Y-58823798D02*
G01*
X140231900Y-58823798D01*
X140231900Y-59280998D01*
X136244100Y-59280998D01*
X136244100Y-58823798D01*
G37*
X139317500Y-58823798D02*
X140231900Y-58823798D01*
X140231900Y-61973398D01*
X139317500Y-61973398D01*
X139317500Y-58823798D01*
G36*
X139317500Y-58823798D02*
G01*
X140231900Y-58823798D01*
X140231900Y-61973398D01*
X139317500Y-61973398D01*
X139317500Y-58823798D01*
G37*
X147669100Y-58823798D02*
X148227900Y-58823798D01*
X148227900Y-61973398D01*
X147669100Y-61973398D01*
X147669100Y-58823798D01*
G36*
X147669100Y-58823798D02*
G01*
X148227900Y-58823798D01*
X148227900Y-61973398D01*
X147669100Y-61973398D01*
X147669100Y-58823798D01*
G37*
X151199700Y-58823798D02*
X151656900Y-58823798D01*
X151656900Y-61973398D01*
X151199700Y-61973398D01*
X151199700Y-58823798D01*
G36*
X151199700Y-58823798D02*
G01*
X151656900Y-58823798D01*
X151656900Y-61973398D01*
X151199700Y-61973398D01*
X151199700Y-58823798D01*
G37*
X147669100Y-58823798D02*
X151656900Y-58823798D01*
X151656900Y-59280998D01*
X147669100Y-59280998D01*
X147669100Y-58823798D01*
G36*
X147669100Y-58823798D02*
G01*
X151656900Y-58823798D01*
X151656900Y-59280998D01*
X147669100Y-59280998D01*
X147669100Y-58823798D01*
G37*
X147669100Y-60601798D02*
X151656900Y-60601798D01*
X151656900Y-61973398D01*
X147669100Y-61973398D01*
X147669100Y-60601798D01*
G36*
X147669100Y-60601798D02*
G01*
X151656900Y-60601798D01*
X151656900Y-61973398D01*
X147669100Y-61973398D01*
X147669100Y-60601798D01*
G37*
X159099100Y-60601798D02*
X163086900Y-60601798D01*
X163086900Y-61973398D01*
X159099100Y-61973398D01*
X159099100Y-60601798D01*
G36*
X159099100Y-60601798D02*
G01*
X163086900Y-60601798D01*
X163086900Y-61973398D01*
X159099100Y-61973398D01*
X159099100Y-60601798D01*
G37*
X159099100Y-58823798D02*
X163086900Y-58823798D01*
X163086900Y-59280998D01*
X159099100Y-59280998D01*
X159099100Y-58823798D01*
G36*
X159099100Y-58823798D02*
G01*
X163086900Y-58823798D01*
X163086900Y-59280998D01*
X159099100Y-59280998D01*
X159099100Y-58823798D01*
G37*
X161816900Y-58823798D02*
X163086900Y-58823798D01*
X163086900Y-61973398D01*
X161816900Y-61973398D01*
X161816900Y-58823798D01*
G36*
X161816900Y-58823798D02*
G01*
X163086900Y-58823798D01*
X163086900Y-61973398D01*
X161816900Y-61973398D01*
X161816900Y-58823798D01*
G37*
X159099100Y-58823798D02*
X160369100Y-58823798D01*
X160369100Y-61973398D01*
X159099100Y-61973398D01*
X159099100Y-58823798D01*
G36*
X159099100Y-58823798D02*
G01*
X160369100Y-58823798D01*
X160369100Y-61973398D01*
X159099100Y-61973398D01*
X159099100Y-58823798D01*
G37*
D11*
X163662000Y-107699498D02*
X163662000Y-111001498D01*
X169250000Y-107699498D02*
X169250000Y-111001498D01*
X158352000Y-103405498D02*
G75*
G03*
X159852000Y-104905498I1500000J0D01*
G01*
X158328000Y-94491498D02*
X158328000Y-98341498D01*
X158328000Y-99741498D02*
X158328000Y-102111498D01*
X143953000Y-90173498D02*
G75*
G03*
X145453000Y-91673498I1500000J0D01*
G01*
X163662000Y-112271498D02*
G75*
G03*
X165162000Y-113771498I1500000J0D01*
G01*
X163662000Y-106429498D02*
G75*
G03*
X162162000Y-104929498I-1500000J0D01*
G01*
X172044000Y-104905498D02*
X174838000Y-104905498D01*
X158304000Y-93197498D02*
G75*
G03*
X156804000Y-91697498I-1500000J0D01*
G01*
X155534000Y-91697498D02*
X151684000Y-91697498D01*
X150284000Y-91697498D02*
X147128000Y-91697498D01*
X170750000Y-104974098D02*
G75*
G03*
X169250000Y-106474144I100J-1500100D01*
G01*
X143953000Y-88649498D02*
X143953000Y-84799498D01*
X143953000Y-83399498D02*
X143953000Y-79549498D01*
X143953000Y-78149498D02*
X143953000Y-74299498D01*
X143953000Y-72899498D02*
X143953000Y-69049498D01*
X143953000Y-67649498D02*
X143953000Y-63799498D01*
X143953000Y-62399498D02*
X143953000Y-58931498D01*
X167750000Y-113771498D02*
G75*
G03*
X169250000Y-112271498I0J1500000D01*
G01*
D12*
X141550219Y-87240968D02*
X142264504Y-87240968D01*
X142264504Y-87240968D02*
X142407361Y-87288587D01*
X142407361Y-87288587D02*
X142502600Y-87383825D01*
X142502600Y-87383825D02*
X142550219Y-87526682D01*
X142550219Y-87526682D02*
X142550219Y-87621920D01*
X142550219Y-86288587D02*
X142550219Y-86764777D01*
X142550219Y-86764777D02*
X141550219Y-86764777D01*
X142454980Y-85383825D02*
X142502600Y-85431444D01*
X142502600Y-85431444D02*
X142550219Y-85574301D01*
X142550219Y-85574301D02*
X142550219Y-85669539D01*
X142550219Y-85669539D02*
X142502600Y-85812396D01*
X142502600Y-85812396D02*
X142407361Y-85907634D01*
X142407361Y-85907634D02*
X142312123Y-85955253D01*
X142312123Y-85955253D02*
X142121647Y-86002872D01*
X142121647Y-86002872D02*
X141978790Y-86002872D01*
X141978790Y-86002872D02*
X141788314Y-85955253D01*
X141788314Y-85955253D02*
X141693076Y-85907634D01*
X141693076Y-85907634D02*
X141597838Y-85812396D01*
X141597838Y-85812396D02*
X141550219Y-85669539D01*
X141550219Y-85669539D02*
X141550219Y-85574301D01*
X141550219Y-85574301D02*
X141597838Y-85431444D01*
X141597838Y-85431444D02*
X141645457Y-85383825D01*
X141550219Y-84669539D02*
X142264504Y-84669539D01*
X142264504Y-84669539D02*
X142407361Y-84717158D01*
X142407361Y-84717158D02*
X142502600Y-84812396D01*
X142502600Y-84812396D02*
X142550219Y-84955253D01*
X142550219Y-84955253D02*
X142550219Y-85050491D01*
X142550219Y-83717158D02*
X142550219Y-84193348D01*
X142550219Y-84193348D02*
X141550219Y-84193348D01*
X142454980Y-82812396D02*
X142502600Y-82860015D01*
X142502600Y-82860015D02*
X142550219Y-83002872D01*
X142550219Y-83002872D02*
X142550219Y-83098110D01*
X142550219Y-83098110D02*
X142502600Y-83240967D01*
X142502600Y-83240967D02*
X142407361Y-83336205D01*
X142407361Y-83336205D02*
X142312123Y-83383824D01*
X142312123Y-83383824D02*
X142121647Y-83431443D01*
X142121647Y-83431443D02*
X141978790Y-83431443D01*
X141978790Y-83431443D02*
X141788314Y-83383824D01*
X141788314Y-83383824D02*
X141693076Y-83336205D01*
X141693076Y-83336205D02*
X141597838Y-83240967D01*
X141597838Y-83240967D02*
X141550219Y-83098110D01*
X141550219Y-83098110D02*
X141550219Y-83002872D01*
X141550219Y-83002872D02*
X141597838Y-82860015D01*
X141597838Y-82860015D02*
X141645457Y-82812396D01*
X141550219Y-82098110D02*
X142264504Y-82098110D01*
X142264504Y-82098110D02*
X142407361Y-82145729D01*
X142407361Y-82145729D02*
X142502600Y-82240967D01*
X142502600Y-82240967D02*
X142550219Y-82383824D01*
X142550219Y-82383824D02*
X142550219Y-82479062D01*
X142550219Y-81145729D02*
X142550219Y-81621919D01*
X142550219Y-81621919D02*
X141550219Y-81621919D01*
X142454980Y-80240967D02*
X142502600Y-80288586D01*
X142502600Y-80288586D02*
X142550219Y-80431443D01*
X142550219Y-80431443D02*
X142550219Y-80526681D01*
X142550219Y-80526681D02*
X142502600Y-80669538D01*
X142502600Y-80669538D02*
X142407361Y-80764776D01*
X142407361Y-80764776D02*
X142312123Y-80812395D01*
X142312123Y-80812395D02*
X142121647Y-80860014D01*
X142121647Y-80860014D02*
X141978790Y-80860014D01*
X141978790Y-80860014D02*
X141788314Y-80812395D01*
X141788314Y-80812395D02*
X141693076Y-80764776D01*
X141693076Y-80764776D02*
X141597838Y-80669538D01*
X141597838Y-80669538D02*
X141550219Y-80526681D01*
X141550219Y-80526681D02*
X141550219Y-80431443D01*
X141550219Y-80431443D02*
X141597838Y-80288586D01*
X141597838Y-80288586D02*
X141645457Y-80240967D01*
X141550219Y-79526681D02*
X142264504Y-79526681D01*
X142264504Y-79526681D02*
X142407361Y-79574300D01*
X142407361Y-79574300D02*
X142502600Y-79669538D01*
X142502600Y-79669538D02*
X142550219Y-79812395D01*
X142550219Y-79812395D02*
X142550219Y-79907633D01*
X142550219Y-78574300D02*
X142550219Y-79050490D01*
X142550219Y-79050490D02*
X141550219Y-79050490D01*
X142454980Y-77669538D02*
X142502600Y-77717157D01*
X142502600Y-77717157D02*
X142550219Y-77860014D01*
X142550219Y-77860014D02*
X142550219Y-77955252D01*
X142550219Y-77955252D02*
X142502600Y-78098109D01*
X142502600Y-78098109D02*
X142407361Y-78193347D01*
X142407361Y-78193347D02*
X142312123Y-78240966D01*
X142312123Y-78240966D02*
X142121647Y-78288585D01*
X142121647Y-78288585D02*
X141978790Y-78288585D01*
X141978790Y-78288585D02*
X141788314Y-78240966D01*
X141788314Y-78240966D02*
X141693076Y-78193347D01*
X141693076Y-78193347D02*
X141597838Y-78098109D01*
X141597838Y-78098109D02*
X141550219Y-77955252D01*
X141550219Y-77955252D02*
X141550219Y-77860014D01*
X141550219Y-77860014D02*
X141597838Y-77717157D01*
X141597838Y-77717157D02*
X141645457Y-77669538D01*
D13*
X153184333Y-104420778D02*
X153136714Y-104468398D01*
X153136714Y-104468398D02*
X152993857Y-104516017D01*
X152993857Y-104516017D02*
X152898619Y-104516017D01*
X152898619Y-104516017D02*
X152755762Y-104468398D01*
X152755762Y-104468398D02*
X152660524Y-104373159D01*
X152660524Y-104373159D02*
X152612905Y-104277921D01*
X152612905Y-104277921D02*
X152565286Y-104087445D01*
X152565286Y-104087445D02*
X152565286Y-103944588D01*
X152565286Y-103944588D02*
X152612905Y-103754112D01*
X152612905Y-103754112D02*
X152660524Y-103658874D01*
X152660524Y-103658874D02*
X152755762Y-103563636D01*
X152755762Y-103563636D02*
X152898619Y-103516017D01*
X152898619Y-103516017D02*
X152993857Y-103516017D01*
X152993857Y-103516017D02*
X153136714Y-103563636D01*
X153136714Y-103563636D02*
X153184333Y-103611255D01*
X154089095Y-103516017D02*
X153612905Y-103516017D01*
X153612905Y-103516017D02*
X153565286Y-103992207D01*
X153565286Y-103992207D02*
X153612905Y-103944588D01*
X153612905Y-103944588D02*
X153708143Y-103896969D01*
X153708143Y-103896969D02*
X153946238Y-103896969D01*
X153946238Y-103896969D02*
X154041476Y-103944588D01*
X154041476Y-103944588D02*
X154089095Y-103992207D01*
X154089095Y-103992207D02*
X154136714Y-104087445D01*
X154136714Y-104087445D02*
X154136714Y-104325540D01*
X154136714Y-104325540D02*
X154089095Y-104420778D01*
X154089095Y-104420778D02*
X154041476Y-104468398D01*
X154041476Y-104468398D02*
X153946238Y-104516017D01*
X153946238Y-104516017D02*
X153708143Y-104516017D01*
X153708143Y-104516017D02*
X153612905Y-104468398D01*
X153612905Y-104468398D02*
X153565286Y-104420778D01*
X168900761Y-116631555D02*
X168805523Y-116583936D01*
X168805523Y-116583936D02*
X168710285Y-116488698D01*
X168710285Y-116488698D02*
X168567428Y-116345840D01*
X168567428Y-116345840D02*
X168472190Y-116298221D01*
X168472190Y-116298221D02*
X168376952Y-116298221D01*
X168424571Y-116536317D02*
X168329333Y-116488698D01*
X168329333Y-116488698D02*
X168234095Y-116393459D01*
X168234095Y-116393459D02*
X168186476Y-116202983D01*
X168186476Y-116202983D02*
X168186476Y-115869650D01*
X168186476Y-115869650D02*
X168234095Y-115679174D01*
X168234095Y-115679174D02*
X168329333Y-115583936D01*
X168329333Y-115583936D02*
X168424571Y-115536317D01*
X168424571Y-115536317D02*
X168615047Y-115536317D01*
X168615047Y-115536317D02*
X168710285Y-115583936D01*
X168710285Y-115583936D02*
X168805523Y-115679174D01*
X168805523Y-115679174D02*
X168853142Y-115869650D01*
X168853142Y-115869650D02*
X168853142Y-116202983D01*
X168853142Y-116202983D02*
X168805523Y-116393459D01*
X168805523Y-116393459D02*
X168710285Y-116488698D01*
X168710285Y-116488698D02*
X168615047Y-116536317D01*
X168615047Y-116536317D02*
X168424571Y-116536317D01*
X169805523Y-116536317D02*
X169234095Y-116536317D01*
X169519809Y-116536317D02*
X169519809Y-115536317D01*
X169519809Y-115536317D02*
X169424571Y-115679174D01*
X169424571Y-115679174D02*
X169329333Y-115774412D01*
X169329333Y-115774412D02*
X169234095Y-115822031D01*
X168849405Y-114758317D02*
X168849405Y-113758317D01*
X168849405Y-113758317D02*
X169087500Y-113758317D01*
X169087500Y-113758317D02*
X169230357Y-113805936D01*
X169230357Y-113805936D02*
X169325595Y-113901174D01*
X169325595Y-113901174D02*
X169373214Y-113996412D01*
X169373214Y-113996412D02*
X169420833Y-114186888D01*
X169420833Y-114186888D02*
X169420833Y-114329745D01*
X169420833Y-114329745D02*
X169373214Y-114520221D01*
X169373214Y-114520221D02*
X169325595Y-114615459D01*
X169325595Y-114615459D02*
X169230357Y-114710698D01*
X169230357Y-114710698D02*
X169087500Y-114758317D01*
X169087500Y-114758317D02*
X168849405Y-114758317D01*
X169801786Y-113853555D02*
X169849405Y-113805936D01*
X169849405Y-113805936D02*
X169944643Y-113758317D01*
X169944643Y-113758317D02*
X170182738Y-113758317D01*
X170182738Y-113758317D02*
X170277976Y-113805936D01*
X170277976Y-113805936D02*
X170325595Y-113853555D01*
X170325595Y-113853555D02*
X170373214Y-113948793D01*
X170373214Y-113948793D02*
X170373214Y-114044031D01*
X170373214Y-114044031D02*
X170325595Y-114186888D01*
X170325595Y-114186888D02*
X169754167Y-114758317D01*
X169754167Y-114758317D02*
X170373214Y-114758317D01*
X154184666Y-114012317D02*
X154184666Y-114726602D01*
X154184666Y-114726602D02*
X154137047Y-114869459D01*
X154137047Y-114869459D02*
X154041809Y-114964698D01*
X154041809Y-114964698D02*
X153898952Y-115012317D01*
X153898952Y-115012317D02*
X153803714Y-115012317D01*
X154565619Y-114012317D02*
X155184666Y-114012317D01*
X155184666Y-114012317D02*
X154851333Y-114393269D01*
X154851333Y-114393269D02*
X154994190Y-114393269D01*
X154994190Y-114393269D02*
X155089428Y-114440888D01*
X155089428Y-114440888D02*
X155137047Y-114488507D01*
X155137047Y-114488507D02*
X155184666Y-114583745D01*
X155184666Y-114583745D02*
X155184666Y-114821840D01*
X155184666Y-114821840D02*
X155137047Y-114917078D01*
X155137047Y-114917078D02*
X155089428Y-114964698D01*
X155089428Y-114964698D02*
X154994190Y-115012317D01*
X154994190Y-115012317D02*
X154708476Y-115012317D01*
X154708476Y-115012317D02*
X154613238Y-114964698D01*
X154613238Y-114964698D02*
X154565619Y-114917078D01*
X157741819Y-107802593D02*
X157265628Y-108135926D01*
X157741819Y-108374021D02*
X156741819Y-108374021D01*
X156741819Y-108374021D02*
X156741819Y-107993069D01*
X156741819Y-107993069D02*
X156789438Y-107897831D01*
X156789438Y-107897831D02*
X156837057Y-107850212D01*
X156837057Y-107850212D02*
X156932295Y-107802593D01*
X156932295Y-107802593D02*
X157075152Y-107802593D01*
X157075152Y-107802593D02*
X157170390Y-107850212D01*
X157170390Y-107850212D02*
X157218009Y-107897831D01*
X157218009Y-107897831D02*
X157265628Y-107993069D01*
X157265628Y-107993069D02*
X157265628Y-108374021D01*
X156741819Y-107374021D02*
X157551342Y-107374021D01*
X157551342Y-107374021D02*
X157646580Y-107326402D01*
X157646580Y-107326402D02*
X157694200Y-107278783D01*
X157694200Y-107278783D02*
X157741819Y-107183545D01*
X157741819Y-107183545D02*
X157741819Y-106993069D01*
X157741819Y-106993069D02*
X157694200Y-106897831D01*
X157694200Y-106897831D02*
X157646580Y-106850212D01*
X157646580Y-106850212D02*
X157551342Y-106802593D01*
X157551342Y-106802593D02*
X156741819Y-106802593D01*
X157741819Y-106326402D02*
X156741819Y-106326402D01*
X156741819Y-106326402D02*
X157741819Y-105754974D01*
X157741819Y-105754974D02*
X156741819Y-105754974D01*
X157741819Y-113295211D02*
X156741819Y-113295211D01*
X156741819Y-113295211D02*
X156741819Y-112914259D01*
X156741819Y-112914259D02*
X156789438Y-112819021D01*
X156789438Y-112819021D02*
X156837057Y-112771402D01*
X156837057Y-112771402D02*
X156932295Y-112723783D01*
X156932295Y-112723783D02*
X157075152Y-112723783D01*
X157075152Y-112723783D02*
X157170390Y-112771402D01*
X157170390Y-112771402D02*
X157218009Y-112819021D01*
X157218009Y-112819021D02*
X157265628Y-112914259D01*
X157265628Y-112914259D02*
X157265628Y-113295211D01*
X157741819Y-111723783D02*
X157265628Y-112057116D01*
X157741819Y-112295211D02*
X156741819Y-112295211D01*
X156741819Y-112295211D02*
X156741819Y-111914259D01*
X156741819Y-111914259D02*
X156789438Y-111819021D01*
X156789438Y-111819021D02*
X156837057Y-111771402D01*
X156837057Y-111771402D02*
X156932295Y-111723783D01*
X156932295Y-111723783D02*
X157075152Y-111723783D01*
X157075152Y-111723783D02*
X157170390Y-111771402D01*
X157170390Y-111771402D02*
X157218009Y-111819021D01*
X157218009Y-111819021D02*
X157265628Y-111914259D01*
X157265628Y-111914259D02*
X157265628Y-112295211D01*
X156741819Y-111104735D02*
X156741819Y-110914259D01*
X156741819Y-110914259D02*
X156789438Y-110819021D01*
X156789438Y-110819021D02*
X156884676Y-110723783D01*
X156884676Y-110723783D02*
X157075152Y-110676164D01*
X157075152Y-110676164D02*
X157408485Y-110676164D01*
X157408485Y-110676164D02*
X157598961Y-110723783D01*
X157598961Y-110723783D02*
X157694200Y-110819021D01*
X157694200Y-110819021D02*
X157741819Y-110914259D01*
X157741819Y-110914259D02*
X157741819Y-111104735D01*
X157741819Y-111104735D02*
X157694200Y-111199973D01*
X157694200Y-111199973D02*
X157598961Y-111295211D01*
X157598961Y-111295211D02*
X157408485Y-111342830D01*
X157408485Y-111342830D02*
X157075152Y-111342830D01*
X157075152Y-111342830D02*
X156884676Y-111295211D01*
X156884676Y-111295211D02*
X156789438Y-111199973D01*
X156789438Y-111199973D02*
X156741819Y-111104735D01*
X156789438Y-109723783D02*
X156741819Y-109819021D01*
X156741819Y-109819021D02*
X156741819Y-109961878D01*
X156741819Y-109961878D02*
X156789438Y-110104735D01*
X156789438Y-110104735D02*
X156884676Y-110199973D01*
X156884676Y-110199973D02*
X156979914Y-110247592D01*
X156979914Y-110247592D02*
X157170390Y-110295211D01*
X157170390Y-110295211D02*
X157313247Y-110295211D01*
X157313247Y-110295211D02*
X157503723Y-110247592D01*
X157503723Y-110247592D02*
X157598961Y-110199973D01*
X157598961Y-110199973D02*
X157694200Y-110104735D01*
X157694200Y-110104735D02*
X157741819Y-109961878D01*
X157741819Y-109961878D02*
X157741819Y-109866640D01*
X157741819Y-109866640D02*
X157694200Y-109723783D01*
X157694200Y-109723783D02*
X157646580Y-109676164D01*
X157646580Y-109676164D02*
X157313247Y-109676164D01*
X157313247Y-109676164D02*
X157313247Y-109866640D01*
X127593905Y-68784317D02*
X127593905Y-67784317D01*
X127593905Y-67784317D02*
X127832000Y-67784317D01*
X127832000Y-67784317D02*
X127974857Y-67831936D01*
X127974857Y-67831936D02*
X128070095Y-67927174D01*
X128070095Y-67927174D02*
X128117714Y-68022412D01*
X128117714Y-68022412D02*
X128165333Y-68212888D01*
X128165333Y-68212888D02*
X128165333Y-68355745D01*
X128165333Y-68355745D02*
X128117714Y-68546221D01*
X128117714Y-68546221D02*
X128070095Y-68641459D01*
X128070095Y-68641459D02*
X127974857Y-68736698D01*
X127974857Y-68736698D02*
X127832000Y-68784317D01*
X127832000Y-68784317D02*
X127593905Y-68784317D01*
X129117714Y-68784317D02*
X128546286Y-68784317D01*
X128832000Y-68784317D02*
X128832000Y-67784317D01*
X128832000Y-67784317D02*
X128736762Y-67927174D01*
X128736762Y-67927174D02*
X128641524Y-68022412D01*
X128641524Y-68022412D02*
X128546286Y-68070031D01*
X129542667Y-67006317D02*
X129542667Y-66006317D01*
X129542667Y-66006317D02*
X129923619Y-66006317D01*
X129923619Y-66006317D02*
X130018857Y-66053936D01*
X130018857Y-66053936D02*
X130066476Y-66101555D01*
X130066476Y-66101555D02*
X130114095Y-66196793D01*
X130114095Y-66196793D02*
X130114095Y-66339650D01*
X130114095Y-66339650D02*
X130066476Y-66434888D01*
X130066476Y-66434888D02*
X130018857Y-66482507D01*
X130018857Y-66482507D02*
X129923619Y-66530126D01*
X129923619Y-66530126D02*
X129542667Y-66530126D01*
X130447429Y-66006317D02*
X130685524Y-67006317D01*
X130685524Y-67006317D02*
X130876000Y-66292031D01*
X130876000Y-66292031D02*
X131066476Y-67006317D01*
X131066476Y-67006317D02*
X131304572Y-66006317D01*
X132256952Y-67006317D02*
X131923619Y-66530126D01*
X131685524Y-67006317D02*
X131685524Y-66006317D01*
X131685524Y-66006317D02*
X132066476Y-66006317D01*
X132066476Y-66006317D02*
X132161714Y-66053936D01*
X132161714Y-66053936D02*
X132209333Y-66101555D01*
X132209333Y-66101555D02*
X132256952Y-66196793D01*
X132256952Y-66196793D02*
X132256952Y-66339650D01*
X132256952Y-66339650D02*
X132209333Y-66434888D01*
X132209333Y-66434888D02*
X132161714Y-66482507D01*
X132161714Y-66482507D02*
X132066476Y-66530126D01*
X132066476Y-66530126D02*
X131685524Y-66530126D01*
X171909905Y-93272317D02*
X171909905Y-92272317D01*
X172481333Y-93272317D02*
X172052762Y-92700888D01*
X172481333Y-92272317D02*
X171909905Y-92843745D01*
X173433714Y-93272317D02*
X172862286Y-93272317D01*
X173148000Y-93272317D02*
X173148000Y-92272317D01*
X173148000Y-92272317D02*
X173052762Y-92415174D01*
X173052762Y-92415174D02*
X172957524Y-92510412D01*
X172957524Y-92510412D02*
X172862286Y-92558031D01*
G36*
X139358579Y-60616676D02*
G01*
X137163000Y-60616676D01*
X137163000Y-59684533D01*
X137305857Y-59684533D01*
X137307390Y-59688746D01*
X137306349Y-59693107D01*
X137313775Y-59718074D01*
X137361394Y-59813312D01*
X137362583Y-59814437D01*
X137375443Y-59832804D01*
X137423062Y-59880423D01*
X137424543Y-59881114D01*
X137442554Y-59894472D01*
X137537792Y-59942091D01*
X137541320Y-59942497D01*
X137553143Y-59947770D01*
X137735633Y-59993392D01*
X137812620Y-60031886D01*
X137843027Y-60062293D01*
X137877285Y-60130809D01*
X137877285Y-60190637D01*
X137843026Y-60259153D01*
X137812619Y-60289561D01*
X137744104Y-60323819D01*
X137535884Y-60323819D01*
X137404574Y-60280049D01*
X137353290Y-60281450D01*
X137314905Y-60315487D01*
X137307380Y-60366236D01*
X137334235Y-60409948D01*
X137357140Y-60422351D01*
X137499996Y-60469970D01*
X137501631Y-60469925D01*
X137523714Y-60473819D01*
X137761809Y-60473819D01*
X137766022Y-60472285D01*
X137770383Y-60473327D01*
X137795350Y-60465901D01*
X137890588Y-60418282D01*
X137891712Y-60417094D01*
X137910081Y-60404232D01*
X137957699Y-60356613D01*
X137958389Y-60355131D01*
X137971748Y-60337121D01*
X138019367Y-60241883D01*
X138019879Y-60237429D01*
X138022762Y-60233994D01*
X138027285Y-60208342D01*
X138027285Y-60113104D01*
X138025751Y-60108890D01*
X138026793Y-60104529D01*
X138019367Y-60079563D01*
X137971748Y-59984325D01*
X137970558Y-59983199D01*
X137957699Y-59964833D01*
X137910080Y-59917214D01*
X137908598Y-59916523D01*
X137890588Y-59903165D01*
X137795350Y-59855546D01*
X137791821Y-59855139D01*
X137779999Y-59849867D01*
X137597509Y-59804244D01*
X137520522Y-59765751D01*
X137490115Y-59735344D01*
X137455857Y-59666828D01*
X137455857Y-59607000D01*
X137490115Y-59538484D01*
X137520522Y-59508077D01*
X137589038Y-59473819D01*
X137797258Y-59473819D01*
X137928567Y-59517589D01*
X137979851Y-59516188D01*
X138018237Y-59482150D01*
X138025762Y-59431402D01*
X138000442Y-59390188D01*
X138211117Y-59390188D01*
X138212659Y-59416191D01*
X138450754Y-60416191D01*
X138455083Y-60422759D01*
X138455779Y-60430597D01*
X138468839Y-60443626D01*
X138478990Y-60459024D01*
X138486528Y-60461272D01*
X138492099Y-60466830D01*
X138510475Y-60468415D01*
X138528152Y-60473688D01*
X138535374Y-60470563D01*
X138543212Y-60471240D01*
X138558308Y-60460642D01*
X138575238Y-60453319D01*
X138578761Y-60446284D01*
X138585202Y-60441764D01*
X138596182Y-60418144D01*
X138714189Y-59975613D01*
X138832198Y-60418144D01*
X138836703Y-60424595D01*
X138837609Y-60432410D01*
X138851014Y-60445083D01*
X138861575Y-60460204D01*
X138869169Y-60462248D01*
X138874888Y-60467655D01*
X138893301Y-60468746D01*
X138911113Y-60473542D01*
X138918249Y-60470224D01*
X138926102Y-60470690D01*
X138940905Y-60459693D01*
X138957636Y-60451916D01*
X138960970Y-60444787D01*
X138967285Y-60440097D01*
X138977626Y-60416191D01*
X139215722Y-59416191D01*
X139209819Y-59365228D01*
X139172540Y-59329983D01*
X139121326Y-59326948D01*
X139080143Y-59357541D01*
X139069802Y-59381448D01*
X138900549Y-60092303D01*
X138786658Y-59665208D01*
X138782730Y-59659585D01*
X138782125Y-59652755D01*
X138768387Y-59639049D01*
X138757281Y-59623148D01*
X138750662Y-59621365D01*
X138745806Y-59616521D01*
X138726472Y-59614852D01*
X138707743Y-59609810D01*
X138701524Y-59612700D01*
X138694692Y-59612111D01*
X138678812Y-59623258D01*
X138661221Y-59631436D01*
X138658315Y-59637647D01*
X138652702Y-59641588D01*
X138641722Y-59665208D01*
X138527830Y-60092303D01*
X138358579Y-59381447D01*
X138330343Y-59338614D01*
X138281181Y-59323950D01*
X138234095Y-59344319D01*
X138211117Y-59390188D01*
X138000442Y-59390188D01*
X137998907Y-59387689D01*
X137976002Y-59375287D01*
X137833145Y-59327668D01*
X137831510Y-59327712D01*
X137809428Y-59323819D01*
X137571333Y-59323819D01*
X137567119Y-59325352D01*
X137562758Y-59324311D01*
X137537792Y-59331737D01*
X137442554Y-59379356D01*
X137441428Y-59380545D01*
X137423062Y-59393405D01*
X137375443Y-59441024D01*
X137374752Y-59442505D01*
X137361394Y-59460516D01*
X137313775Y-59555754D01*
X137313262Y-59560207D01*
X137310380Y-59563643D01*
X137305857Y-59589295D01*
X137305857Y-59684533D01*
X137163000Y-59684533D01*
X137163000Y-59180962D01*
X139358579Y-59180962D01*
X139358579Y-60616676D01*
G37*
X130030666Y-97801017D02*
X130030666Y-98515302D01*
X130030666Y-98515302D02*
X129983047Y-98658159D01*
X129983047Y-98658159D02*
X129887809Y-98753398D01*
X129887809Y-98753398D02*
X129744952Y-98801017D01*
X129744952Y-98801017D02*
X129649714Y-98801017D01*
X130459238Y-97896255D02*
X130506857Y-97848636D01*
X130506857Y-97848636D02*
X130602095Y-97801017D01*
X130602095Y-97801017D02*
X130840190Y-97801017D01*
X130840190Y-97801017D02*
X130935428Y-97848636D01*
X130935428Y-97848636D02*
X130983047Y-97896255D01*
X130983047Y-97896255D02*
X131030666Y-97991493D01*
X131030666Y-97991493D02*
X131030666Y-98086731D01*
X131030666Y-98086731D02*
X130983047Y-98229588D01*
X130983047Y-98229588D02*
X130411619Y-98801017D01*
X130411619Y-98801017D02*
X131030666Y-98801017D01*
X128231200Y-109672721D02*
X128278819Y-109529864D01*
X128278819Y-109529864D02*
X128278819Y-109291769D01*
X128278819Y-109291769D02*
X128231200Y-109196531D01*
X128231200Y-109196531D02*
X128183580Y-109148912D01*
X128183580Y-109148912D02*
X128088342Y-109101293D01*
X128088342Y-109101293D02*
X127993104Y-109101293D01*
X127993104Y-109101293D02*
X127897866Y-109148912D01*
X127897866Y-109148912D02*
X127850247Y-109196531D01*
X127850247Y-109196531D02*
X127802628Y-109291769D01*
X127802628Y-109291769D02*
X127755009Y-109482245D01*
X127755009Y-109482245D02*
X127707390Y-109577483D01*
X127707390Y-109577483D02*
X127659771Y-109625102D01*
X127659771Y-109625102D02*
X127564533Y-109672721D01*
X127564533Y-109672721D02*
X127469295Y-109672721D01*
X127469295Y-109672721D02*
X127374057Y-109625102D01*
X127374057Y-109625102D02*
X127326438Y-109577483D01*
X127326438Y-109577483D02*
X127278819Y-109482245D01*
X127278819Y-109482245D02*
X127278819Y-109244150D01*
X127278819Y-109244150D02*
X127326438Y-109101293D01*
X127755009Y-108672721D02*
X127755009Y-108339388D01*
X128278819Y-108196531D02*
X128278819Y-108672721D01*
X128278819Y-108672721D02*
X127278819Y-108672721D01*
X127278819Y-108672721D02*
X127278819Y-108196531D01*
X128278819Y-107196531D02*
X127802628Y-107529864D01*
X128278819Y-107767959D02*
X127278819Y-107767959D01*
X127278819Y-107767959D02*
X127278819Y-107387007D01*
X127278819Y-107387007D02*
X127326438Y-107291769D01*
X127326438Y-107291769D02*
X127374057Y-107244150D01*
X127374057Y-107244150D02*
X127469295Y-107196531D01*
X127469295Y-107196531D02*
X127612152Y-107196531D01*
X127612152Y-107196531D02*
X127707390Y-107244150D01*
X127707390Y-107244150D02*
X127755009Y-107291769D01*
X127755009Y-107291769D02*
X127802628Y-107387007D01*
X127802628Y-107387007D02*
X127802628Y-107767959D01*
X128278819Y-106767959D02*
X127278819Y-106767959D01*
X127993104Y-106339388D02*
X127993104Y-105863198D01*
X128278819Y-106434626D02*
X127278819Y-106101293D01*
X127278819Y-106101293D02*
X128278819Y-105767960D01*
X128278819Y-104958436D02*
X128278819Y-105434626D01*
X128278819Y-105434626D02*
X127278819Y-105434626D01*
X158097285Y-60398819D02*
X157621095Y-60398819D01*
X157621095Y-60398819D02*
X157621095Y-59398819D01*
G36*
X161834666Y-60615537D02*
G01*
X160351334Y-60615537D01*
X160351334Y-60398819D01*
X160494191Y-60398819D01*
X160511738Y-60447028D01*
X160556167Y-60472680D01*
X160606691Y-60463771D01*
X160639668Y-60424471D01*
X160644191Y-60398819D01*
X160970381Y-60398819D01*
X160987928Y-60447028D01*
X161032357Y-60472680D01*
X161082881Y-60463771D01*
X161115858Y-60424471D01*
X161120381Y-60398819D01*
X161120381Y-59681235D01*
X161551691Y-60436030D01*
X161556984Y-60440511D01*
X161559356Y-60447028D01*
X161576093Y-60456691D01*
X161590844Y-60469181D01*
X161597778Y-60469211D01*
X161603785Y-60472680D01*
X161622818Y-60469323D01*
X161642146Y-60469410D01*
X161647479Y-60464975D01*
X161654309Y-60463771D01*
X161666733Y-60448964D01*
X161681593Y-60436608D01*
X161682827Y-60429784D01*
X161687286Y-60424471D01*
X161691809Y-60398819D01*
X161691809Y-59398819D01*
X161674262Y-59350610D01*
X161629833Y-59324958D01*
X161579309Y-59333867D01*
X161546332Y-59373167D01*
X161541809Y-59398819D01*
X161541809Y-60116402D01*
X161110499Y-59361609D01*
X161105206Y-59357127D01*
X161102834Y-59350610D01*
X161086094Y-59340945D01*
X161071346Y-59328457D01*
X161064411Y-59328426D01*
X161058405Y-59324958D01*
X161039371Y-59328314D01*
X161020044Y-59328228D01*
X161014710Y-59332662D01*
X161007881Y-59333867D01*
X160995456Y-59348673D01*
X160980597Y-59361030D01*
X160979362Y-59367853D01*
X160974904Y-59373167D01*
X160970381Y-59398819D01*
X160970381Y-60398819D01*
X160644191Y-60398819D01*
X160644191Y-59398819D01*
X160626644Y-59350610D01*
X160582215Y-59324958D01*
X160531691Y-59333867D01*
X160498714Y-59373167D01*
X160494191Y-59398819D01*
X160494191Y-60398819D01*
X160351334Y-60398819D01*
X160351334Y-59182101D01*
X161834666Y-59182101D01*
X161834666Y-60615537D01*
G37*
X164003476Y-60398819D02*
X164003476Y-59398819D01*
X164003476Y-59398819D02*
X164574904Y-60398819D01*
X164574904Y-60398819D02*
X164574904Y-59398819D01*
X143572094Y-93692317D02*
X143572094Y-94501840D01*
X143572094Y-94501840D02*
X143619713Y-94597078D01*
X143619713Y-94597078D02*
X143667332Y-94644698D01*
X143667332Y-94644698D02*
X143762570Y-94692317D01*
X143762570Y-94692317D02*
X143953046Y-94692317D01*
X143953046Y-94692317D02*
X144048284Y-94644698D01*
X144048284Y-94644698D02*
X144095903Y-94597078D01*
X144095903Y-94597078D02*
X144143522Y-94501840D01*
X144143522Y-94501840D02*
X144143522Y-93692317D01*
X145143522Y-94692317D02*
X144572094Y-94692317D01*
X144857808Y-94692317D02*
X144857808Y-93692317D01*
X144857808Y-93692317D02*
X144762570Y-93835174D01*
X144762570Y-93835174D02*
X144667332Y-93930412D01*
X144667332Y-93930412D02*
X144572094Y-93978031D01*
X166035333Y-121616317D02*
X165702000Y-121140126D01*
X165463905Y-121616317D02*
X165463905Y-120616317D01*
X165463905Y-120616317D02*
X165844857Y-120616317D01*
X165844857Y-120616317D02*
X165940095Y-120663936D01*
X165940095Y-120663936D02*
X165987714Y-120711555D01*
X165987714Y-120711555D02*
X166035333Y-120806793D01*
X166035333Y-120806793D02*
X166035333Y-120949650D01*
X166035333Y-120949650D02*
X165987714Y-121044888D01*
X165987714Y-121044888D02*
X165940095Y-121092507D01*
X165940095Y-121092507D02*
X165844857Y-121140126D01*
X165844857Y-121140126D02*
X165463905Y-121140126D01*
X166892476Y-120616317D02*
X166702000Y-120616317D01*
X166702000Y-120616317D02*
X166606762Y-120663936D01*
X166606762Y-120663936D02*
X166559143Y-120711555D01*
X166559143Y-120711555D02*
X166463905Y-120854412D01*
X166463905Y-120854412D02*
X166416286Y-121044888D01*
X166416286Y-121044888D02*
X166416286Y-121425840D01*
X166416286Y-121425840D02*
X166463905Y-121521078D01*
X166463905Y-121521078D02*
X166511524Y-121568698D01*
X166511524Y-121568698D02*
X166606762Y-121616317D01*
X166606762Y-121616317D02*
X166797238Y-121616317D01*
X166797238Y-121616317D02*
X166892476Y-121568698D01*
X166892476Y-121568698D02*
X166940095Y-121521078D01*
X166940095Y-121521078D02*
X166987714Y-121425840D01*
X166987714Y-121425840D02*
X166987714Y-121187745D01*
X166987714Y-121187745D02*
X166940095Y-121092507D01*
X166940095Y-121092507D02*
X166892476Y-121044888D01*
X166892476Y-121044888D02*
X166797238Y-120997269D01*
X166797238Y-120997269D02*
X166606762Y-120997269D01*
X166606762Y-120997269D02*
X166511524Y-121044888D01*
X166511524Y-121044888D02*
X166463905Y-121092507D01*
X166463905Y-121092507D02*
X166416286Y-121187745D01*
X155597333Y-99975778D02*
X155549714Y-100023398D01*
X155549714Y-100023398D02*
X155406857Y-100071017D01*
X155406857Y-100071017D02*
X155311619Y-100071017D01*
X155311619Y-100071017D02*
X155168762Y-100023398D01*
X155168762Y-100023398D02*
X155073524Y-99928159D01*
X155073524Y-99928159D02*
X155025905Y-99832921D01*
X155025905Y-99832921D02*
X154978286Y-99642445D01*
X154978286Y-99642445D02*
X154978286Y-99499588D01*
X154978286Y-99499588D02*
X155025905Y-99309112D01*
X155025905Y-99309112D02*
X155073524Y-99213874D01*
X155073524Y-99213874D02*
X155168762Y-99118636D01*
X155168762Y-99118636D02*
X155311619Y-99071017D01*
X155311619Y-99071017D02*
X155406857Y-99071017D01*
X155406857Y-99071017D02*
X155549714Y-99118636D01*
X155549714Y-99118636D02*
X155597333Y-99166255D01*
X156454476Y-99404350D02*
X156454476Y-100071017D01*
X156216381Y-99023398D02*
X155978286Y-99737683D01*
X155978286Y-99737683D02*
X156597333Y-99737683D01*
X134553095Y-102591817D02*
X134553095Y-103401340D01*
X134553095Y-103401340D02*
X134600714Y-103496578D01*
X134600714Y-103496578D02*
X134648333Y-103544198D01*
X134648333Y-103544198D02*
X134743571Y-103591817D01*
X134743571Y-103591817D02*
X134934047Y-103591817D01*
X134934047Y-103591817D02*
X135029285Y-103544198D01*
X135029285Y-103544198D02*
X135076904Y-103496578D01*
X135076904Y-103496578D02*
X135124523Y-103401340D01*
X135124523Y-103401340D02*
X135124523Y-102591817D01*
X135553095Y-102687055D02*
X135600714Y-102639436D01*
X135600714Y-102639436D02*
X135695952Y-102591817D01*
X135695952Y-102591817D02*
X135934047Y-102591817D01*
X135934047Y-102591817D02*
X136029285Y-102639436D01*
X136029285Y-102639436D02*
X136076904Y-102687055D01*
X136076904Y-102687055D02*
X136124523Y-102782293D01*
X136124523Y-102782293D02*
X136124523Y-102877531D01*
X136124523Y-102877531D02*
X136076904Y-103020388D01*
X136076904Y-103020388D02*
X135505476Y-103591817D01*
X135505476Y-103591817D02*
X136124523Y-103591817D01*
X171725333Y-83993078D02*
X171677714Y-84040698D01*
X171677714Y-84040698D02*
X171534857Y-84088317D01*
X171534857Y-84088317D02*
X171439619Y-84088317D01*
X171439619Y-84088317D02*
X171296762Y-84040698D01*
X171296762Y-84040698D02*
X171201524Y-83945459D01*
X171201524Y-83945459D02*
X171153905Y-83850221D01*
X171153905Y-83850221D02*
X171106286Y-83659745D01*
X171106286Y-83659745D02*
X171106286Y-83516888D01*
X171106286Y-83516888D02*
X171153905Y-83326412D01*
X171153905Y-83326412D02*
X171201524Y-83231174D01*
X171201524Y-83231174D02*
X171296762Y-83135936D01*
X171296762Y-83135936D02*
X171439619Y-83088317D01*
X171439619Y-83088317D02*
X171534857Y-83088317D01*
X171534857Y-83088317D02*
X171677714Y-83135936D01*
X171677714Y-83135936D02*
X171725333Y-83183555D01*
X172677714Y-84088317D02*
X172106286Y-84088317D01*
X172392000Y-84088317D02*
X172392000Y-83088317D01*
X172392000Y-83088317D02*
X172296762Y-83231174D01*
X172296762Y-83231174D02*
X172201524Y-83326412D01*
X172201524Y-83326412D02*
X172106286Y-83374031D01*
X157820095Y-114266317D02*
X157820095Y-115075840D01*
X157820095Y-115075840D02*
X157867714Y-115171078D01*
X157867714Y-115171078D02*
X157915333Y-115218698D01*
X157915333Y-115218698D02*
X158010571Y-115266317D01*
X158010571Y-115266317D02*
X158201047Y-115266317D01*
X158201047Y-115266317D02*
X158296285Y-115218698D01*
X158296285Y-115218698D02*
X158343904Y-115171078D01*
X158343904Y-115171078D02*
X158391523Y-115075840D01*
X158391523Y-115075840D02*
X158391523Y-114266317D01*
X158772476Y-114266317D02*
X159391523Y-114266317D01*
X159391523Y-114266317D02*
X159058190Y-114647269D01*
X159058190Y-114647269D02*
X159201047Y-114647269D01*
X159201047Y-114647269D02*
X159296285Y-114694888D01*
X159296285Y-114694888D02*
X159343904Y-114742507D01*
X159343904Y-114742507D02*
X159391523Y-114837745D01*
X159391523Y-114837745D02*
X159391523Y-115075840D01*
X159391523Y-115075840D02*
X159343904Y-115171078D01*
X159343904Y-115171078D02*
X159296285Y-115218698D01*
X159296285Y-115218698D02*
X159201047Y-115266317D01*
X159201047Y-115266317D02*
X158915333Y-115266317D01*
X158915333Y-115266317D02*
X158820095Y-115218698D01*
X158820095Y-115218698D02*
X158772476Y-115171078D01*
X128125714Y-94280317D02*
X128125714Y-93280317D01*
X128125714Y-93280317D02*
X128506666Y-93280317D01*
X128506666Y-93280317D02*
X128601904Y-93327936D01*
X128601904Y-93327936D02*
X128649523Y-93375555D01*
X128649523Y-93375555D02*
X128697142Y-93470793D01*
X128697142Y-93470793D02*
X128697142Y-93613650D01*
X128697142Y-93613650D02*
X128649523Y-93708888D01*
X128649523Y-93708888D02*
X128601904Y-93756507D01*
X128601904Y-93756507D02*
X128506666Y-93804126D01*
X128506666Y-93804126D02*
X128125714Y-93804126D01*
X129078095Y-94232698D02*
X129220952Y-94280317D01*
X129220952Y-94280317D02*
X129459047Y-94280317D01*
X129459047Y-94280317D02*
X129554285Y-94232698D01*
X129554285Y-94232698D02*
X129601904Y-94185078D01*
X129601904Y-94185078D02*
X129649523Y-94089840D01*
X129649523Y-94089840D02*
X129649523Y-93994602D01*
X129649523Y-93994602D02*
X129601904Y-93899364D01*
X129601904Y-93899364D02*
X129554285Y-93851745D01*
X129554285Y-93851745D02*
X129459047Y-93804126D01*
X129459047Y-93804126D02*
X129268571Y-93756507D01*
X129268571Y-93756507D02*
X129173333Y-93708888D01*
X129173333Y-93708888D02*
X129125714Y-93661269D01*
X129125714Y-93661269D02*
X129078095Y-93566031D01*
X129078095Y-93566031D02*
X129078095Y-93470793D01*
X129078095Y-93470793D02*
X129125714Y-93375555D01*
X129125714Y-93375555D02*
X129173333Y-93327936D01*
X129173333Y-93327936D02*
X129268571Y-93280317D01*
X129268571Y-93280317D02*
X129506666Y-93280317D01*
X129506666Y-93280317D02*
X129649523Y-93327936D01*
X130601904Y-94280317D02*
X130030476Y-94280317D01*
X130316190Y-94280317D02*
X130316190Y-93280317D01*
X130316190Y-93280317D02*
X130220952Y-93423174D01*
X130220952Y-93423174D02*
X130125714Y-93518412D01*
X130125714Y-93518412D02*
X130030476Y-93566031D01*
X156486333Y-97181778D02*
X156438714Y-97229398D01*
X156438714Y-97229398D02*
X156295857Y-97277017D01*
X156295857Y-97277017D02*
X156200619Y-97277017D01*
X156200619Y-97277017D02*
X156057762Y-97229398D01*
X156057762Y-97229398D02*
X155962524Y-97134159D01*
X155962524Y-97134159D02*
X155914905Y-97038921D01*
X155914905Y-97038921D02*
X155867286Y-96848445D01*
X155867286Y-96848445D02*
X155867286Y-96705588D01*
X155867286Y-96705588D02*
X155914905Y-96515112D01*
X155914905Y-96515112D02*
X155962524Y-96419874D01*
X155962524Y-96419874D02*
X156057762Y-96324636D01*
X156057762Y-96324636D02*
X156200619Y-96277017D01*
X156200619Y-96277017D02*
X156295857Y-96277017D01*
X156295857Y-96277017D02*
X156438714Y-96324636D01*
X156438714Y-96324636D02*
X156486333Y-96372255D01*
X156819667Y-96277017D02*
X157438714Y-96277017D01*
X157438714Y-96277017D02*
X157105381Y-96657969D01*
X157105381Y-96657969D02*
X157248238Y-96657969D01*
X157248238Y-96657969D02*
X157343476Y-96705588D01*
X157343476Y-96705588D02*
X157391095Y-96753207D01*
X157391095Y-96753207D02*
X157438714Y-96848445D01*
X157438714Y-96848445D02*
X157438714Y-97086540D01*
X157438714Y-97086540D02*
X157391095Y-97181778D01*
X157391095Y-97181778D02*
X157343476Y-97229398D01*
X157343476Y-97229398D02*
X157248238Y-97277017D01*
X157248238Y-97277017D02*
X156962524Y-97277017D01*
X156962524Y-97277017D02*
X156867286Y-97229398D01*
X156867286Y-97229398D02*
X156819667Y-97181778D01*
X152573476Y-60398819D02*
X152573476Y-59398819D01*
X152573476Y-59398819D02*
X153144904Y-60398819D01*
X153144904Y-60398819D02*
X153144904Y-59398819D01*
X146667285Y-60398819D02*
X146191095Y-60398819D01*
X146191095Y-60398819D02*
X146191095Y-59398819D01*
G36*
X148904287Y-59508077D02*
G01*
X148976229Y-59580019D01*
X149016571Y-59741386D01*
X149016571Y-60056251D01*
X148976229Y-60217617D01*
X148904286Y-60289561D01*
X148835771Y-60323819D01*
X148680705Y-60323819D01*
X148612189Y-60289561D01*
X148540246Y-60217617D01*
X148499905Y-60056251D01*
X148499905Y-59741386D01*
X148540246Y-59580019D01*
X148612189Y-59508077D01*
X148680705Y-59473819D01*
X148835771Y-59473819D01*
X148904287Y-59508077D01*
G37*
G36*
X151213051Y-60616676D02*
G01*
X148207048Y-60616676D01*
X148207048Y-60065485D01*
X148349905Y-60065485D01*
X148351090Y-60068742D01*
X148352144Y-60083675D01*
X148399763Y-60274151D01*
X148403905Y-60280283D01*
X148404550Y-60287657D01*
X148419491Y-60308994D01*
X148514729Y-60404233D01*
X148516211Y-60404924D01*
X148534221Y-60418282D01*
X148629459Y-60465901D01*
X148633912Y-60466413D01*
X148637348Y-60469296D01*
X148663000Y-60473819D01*
X148853476Y-60473819D01*
X148857689Y-60472285D01*
X148862050Y-60473327D01*
X148887017Y-60465901D01*
X148982255Y-60418282D01*
X148983380Y-60417092D01*
X149001747Y-60404233D01*
X149096986Y-60308993D01*
X149100113Y-60302285D01*
X149106103Y-60297940D01*
X149116713Y-60274151D01*
X149133165Y-60208342D01*
X149445143Y-60208342D01*
X149446676Y-60212555D01*
X149445635Y-60216916D01*
X149453061Y-60241883D01*
X149500680Y-60337121D01*
X149501868Y-60338246D01*
X149514728Y-60356612D01*
X149562347Y-60404232D01*
X149563828Y-60404922D01*
X149581840Y-60418282D01*
X149677078Y-60465901D01*
X149681531Y-60466413D01*
X149684967Y-60469296D01*
X149710619Y-60473819D01*
X149901095Y-60473819D01*
X149905308Y-60472285D01*
X149909669Y-60473327D01*
X149934636Y-60465901D01*
X150029874Y-60418282D01*
X150030998Y-60417094D01*
X150049367Y-60404232D01*
X150096985Y-60356613D01*
X150097675Y-60355131D01*
X150111034Y-60337121D01*
X150158653Y-60241883D01*
X150159165Y-60237429D01*
X150162048Y-60233994D01*
X150166571Y-60208342D01*
X150166571Y-59398819D01*
X150161831Y-59385795D01*
X150351044Y-59385795D01*
X150359953Y-59436319D01*
X150399253Y-59469296D01*
X150424905Y-59473819D01*
X150635619Y-59473819D01*
X150635619Y-60398819D01*
X150653166Y-60447028D01*
X150697595Y-60472680D01*
X150748119Y-60463771D01*
X150781096Y-60424471D01*
X150785619Y-60398819D01*
X150785619Y-59473819D01*
X150996333Y-59473819D01*
X151044542Y-59456272D01*
X151070194Y-59411843D01*
X151061285Y-59361319D01*
X151021985Y-59328342D01*
X150996333Y-59323819D01*
X150424905Y-59323819D01*
X150376696Y-59341366D01*
X150351044Y-59385795D01*
X150161831Y-59385795D01*
X150149024Y-59350610D01*
X150104595Y-59324958D01*
X150054071Y-59333867D01*
X150021094Y-59373167D01*
X150016571Y-59398819D01*
X150016571Y-60190637D01*
X149982312Y-60259153D01*
X149951905Y-60289561D01*
X149883390Y-60323819D01*
X149728324Y-60323819D01*
X149659808Y-60289561D01*
X149629401Y-60259153D01*
X149595143Y-60190637D01*
X149595143Y-59398819D01*
X149577596Y-59350610D01*
X149533167Y-59324958D01*
X149482643Y-59333867D01*
X149449666Y-59373167D01*
X149445143Y-59398819D01*
X149445143Y-60208342D01*
X149133165Y-60208342D01*
X149164332Y-60083675D01*
X149163971Y-60080226D01*
X149166571Y-60065485D01*
X149166571Y-59732152D01*
X149165385Y-59728894D01*
X149164332Y-59713962D01*
X149116713Y-59523486D01*
X149112571Y-59517353D01*
X149111926Y-59509980D01*
X149096985Y-59488643D01*
X149001747Y-59393405D01*
X149000265Y-59392714D01*
X148982255Y-59379356D01*
X148887017Y-59331737D01*
X148882563Y-59331224D01*
X148879128Y-59328342D01*
X148853476Y-59323819D01*
X148663000Y-59323819D01*
X148658786Y-59325352D01*
X148654425Y-59324311D01*
X148629459Y-59331737D01*
X148534221Y-59379356D01*
X148533097Y-59380542D01*
X148514729Y-59393405D01*
X148419491Y-59488643D01*
X148416363Y-59495350D01*
X148410373Y-59499697D01*
X148399763Y-59523486D01*
X148352144Y-59713962D01*
X148352504Y-59717410D01*
X148349905Y-59732152D01*
X148349905Y-60065485D01*
X148207048Y-60065485D01*
X148207048Y-59180962D01*
X151213051Y-59180962D01*
X151213051Y-60616676D01*
G37*
X141373333Y-94597078D02*
X141325714Y-94644698D01*
X141325714Y-94644698D02*
X141182857Y-94692317D01*
X141182857Y-94692317D02*
X141087619Y-94692317D01*
X141087619Y-94692317D02*
X140944762Y-94644698D01*
X140944762Y-94644698D02*
X140849524Y-94549459D01*
X140849524Y-94549459D02*
X140801905Y-94454221D01*
X140801905Y-94454221D02*
X140754286Y-94263745D01*
X140754286Y-94263745D02*
X140754286Y-94120888D01*
X140754286Y-94120888D02*
X140801905Y-93930412D01*
X140801905Y-93930412D02*
X140849524Y-93835174D01*
X140849524Y-93835174D02*
X140944762Y-93739936D01*
X140944762Y-93739936D02*
X141087619Y-93692317D01*
X141087619Y-93692317D02*
X141182857Y-93692317D01*
X141182857Y-93692317D02*
X141325714Y-93739936D01*
X141325714Y-93739936D02*
X141373333Y-93787555D01*
X141754286Y-93787555D02*
X141801905Y-93739936D01*
X141801905Y-93739936D02*
X141897143Y-93692317D01*
X141897143Y-93692317D02*
X142135238Y-93692317D01*
X142135238Y-93692317D02*
X142230476Y-93739936D01*
X142230476Y-93739936D02*
X142278095Y-93787555D01*
X142278095Y-93787555D02*
X142325714Y-93882793D01*
X142325714Y-93882793D02*
X142325714Y-93978031D01*
X142325714Y-93978031D02*
X142278095Y-94120888D01*
X142278095Y-94120888D02*
X141706667Y-94692317D01*
X141706667Y-94692317D02*
X142325714Y-94692317D01*
X128165333Y-70816317D02*
X127832000Y-70340126D01*
X127593905Y-70816317D02*
X127593905Y-69816317D01*
X127593905Y-69816317D02*
X127974857Y-69816317D01*
X127974857Y-69816317D02*
X128070095Y-69863936D01*
X128070095Y-69863936D02*
X128117714Y-69911555D01*
X128117714Y-69911555D02*
X128165333Y-70006793D01*
X128165333Y-70006793D02*
X128165333Y-70149650D01*
X128165333Y-70149650D02*
X128117714Y-70244888D01*
X128117714Y-70244888D02*
X128070095Y-70292507D01*
X128070095Y-70292507D02*
X127974857Y-70340126D01*
X127974857Y-70340126D02*
X127593905Y-70340126D01*
X129022476Y-70149650D02*
X129022476Y-70816317D01*
X128784381Y-69768698D02*
X128546286Y-70482983D01*
X128546286Y-70482983D02*
X129165333Y-70482983D01*
X171702667Y-74655398D02*
X171845524Y-74703017D01*
X171845524Y-74703017D02*
X172083619Y-74703017D01*
X172083619Y-74703017D02*
X172178857Y-74655398D01*
X172178857Y-74655398D02*
X172226476Y-74607778D01*
X172226476Y-74607778D02*
X172274095Y-74512540D01*
X172274095Y-74512540D02*
X172274095Y-74417302D01*
X172274095Y-74417302D02*
X172226476Y-74322064D01*
X172226476Y-74322064D02*
X172178857Y-74274445D01*
X172178857Y-74274445D02*
X172083619Y-74226826D01*
X172083619Y-74226826D02*
X171893143Y-74179207D01*
X171893143Y-74179207D02*
X171797905Y-74131588D01*
X171797905Y-74131588D02*
X171750286Y-74083969D01*
X171750286Y-74083969D02*
X171702667Y-73988731D01*
X171702667Y-73988731D02*
X171702667Y-73893493D01*
X171702667Y-73893493D02*
X171750286Y-73798255D01*
X171750286Y-73798255D02*
X171797905Y-73750636D01*
X171797905Y-73750636D02*
X171893143Y-73703017D01*
X171893143Y-73703017D02*
X172131238Y-73703017D01*
X172131238Y-73703017D02*
X172274095Y-73750636D01*
X172607429Y-73703017D02*
X172845524Y-74703017D01*
X172845524Y-74703017D02*
X173036000Y-73988731D01*
X173036000Y-73988731D02*
X173226476Y-74703017D01*
X173226476Y-74703017D02*
X173464572Y-73703017D01*
X174369333Y-74703017D02*
X173797905Y-74703017D01*
X174083619Y-74703017D02*
X174083619Y-73703017D01*
X174083619Y-73703017D02*
X173988381Y-73845874D01*
X173988381Y-73845874D02*
X173893143Y-73941112D01*
X173893143Y-73941112D02*
X173797905Y-73988731D01*
D14*
X151142420Y-102154198D02*
X151423580Y-102154198D01*
X151142420Y-103174198D02*
X151423580Y-103174198D01*
X164642000Y-116289498D02*
X164642000Y-117964498D01*
X164642000Y-116289498D02*
X164642000Y-115639498D01*
X167762000Y-116289498D02*
X167762000Y-116939498D01*
X167762000Y-116289498D02*
X167762000Y-115639498D01*
X173789500Y-115661498D02*
X173789500Y-113961498D01*
X173789500Y-115661498D02*
X171129500Y-115661498D01*
X173789500Y-113961498D02*
X171129500Y-113961498D01*
X153188000Y-108207498D02*
X153188000Y-113347498D01*
X153188000Y-108207498D02*
X155848000Y-108207498D01*
X153188000Y-113347498D02*
X155848000Y-113347498D01*
X154518000Y-105607498D02*
X155848000Y-105607498D01*
X155848000Y-105607498D02*
X155848000Y-106937498D01*
X155848000Y-108207498D02*
X155848000Y-113347498D01*
X132361000Y-69064498D02*
X132361000Y-67594498D01*
X132361000Y-67594498D02*
X130076000Y-67594498D01*
X130076000Y-69064498D02*
X132361000Y-69064498D01*
X158852000Y-113035498D02*
X165352000Y-113035498D01*
X158852000Y-113035498D02*
X158852000Y-93835498D01*
X167752000Y-113035498D02*
X174252000Y-113035498D01*
X166552000Y-108935498D02*
X166552000Y-109835498D01*
X166552000Y-108935498D02*
X170252000Y-108935498D01*
X165052000Y-108035498D02*
X165052000Y-103035498D01*
X168052000Y-108035498D02*
X165052000Y-108035498D01*
X172552000Y-107835498D02*
X172552000Y-105535498D01*
X160552000Y-105535498D02*
X160552000Y-107835498D01*
X160552000Y-105535498D02*
X165052000Y-105535498D01*
X168052000Y-105535498D02*
X172552000Y-105535498D01*
X165052000Y-103035498D02*
X168052000Y-103035498D01*
X168052000Y-103035498D02*
X165052000Y-108035498D01*
X168052000Y-103035498D02*
X168052000Y-108035498D01*
X166552000Y-102035498D02*
X170252000Y-102035498D01*
X166552000Y-102035498D02*
X166552000Y-100535498D01*
X170252000Y-102035498D02*
X170252000Y-108935498D01*
X166552000Y-100535498D02*
X163852000Y-96035498D01*
X162252000Y-97335498D02*
X164552000Y-97335498D01*
X170852000Y-97335498D02*
X168552000Y-97335498D01*
X158852000Y-93835498D02*
X174252000Y-93835498D01*
X174252000Y-93835498D02*
X174252000Y-113035498D01*
X137383000Y-65786000D02*
G75*
G03*
X137383000Y-65786000I-1680000J0D01*
G01*
X139248000Y-65102000D02*
G75*
G03*
X139247574Y-66469042I1535000J-684000D01*
G01*
X140783000Y-64106001D02*
G75*
G03*
X140099682Y-64251245I0J-1679999D01*
G01*
X141467000Y-64251001D02*
G75*
G03*
X140754195Y-64105748I-683999J-1535000D01*
G01*
X140099001Y-67320999D02*
G75*
G03*
X141466042Y-67321426I684000J1534992D01*
G01*
X142317999Y-66469999D02*
G75*
G03*
X142318426Y-65102958I-1534992J684000D01*
G01*
X133103000Y-71047000D02*
X133103000Y-61126000D01*
X134428000Y-66855000D02*
X134475000Y-66809000D01*
X134633000Y-67061000D02*
X134668000Y-67025000D01*
X136737000Y-64547000D02*
X136772000Y-64512000D01*
X136930000Y-64763000D02*
X136977000Y-64717000D01*
X143383000Y-61126000D02*
X133103000Y-61126000D01*
X143383000Y-61686000D02*
X133103000Y-61686000D01*
X143383000Y-63186000D02*
X133103000Y-63186000D01*
X143383000Y-68087000D02*
X133103000Y-68087000D01*
X143383000Y-71047000D02*
X133103000Y-71047000D01*
X143383000Y-71047000D02*
X143383000Y-61126000D01*
X143623000Y-60886000D02*
X143123000Y-60886000D01*
X143623000Y-61626000D02*
X143623000Y-60886000D01*
X129034000Y-99556198D02*
X130364000Y-99556198D01*
X129034000Y-100886198D02*
X129034000Y-99556198D01*
X129034000Y-102156198D02*
X129034000Y-114916198D01*
X129034000Y-102156198D02*
X131694000Y-102156198D01*
X129034000Y-114916198D02*
X131694000Y-114916198D01*
X131694000Y-102156198D02*
X131694000Y-114916198D01*
X160238000Y-65786000D02*
G75*
G03*
X160238000Y-65786000I-1680000J0D01*
G01*
X162103000Y-65102000D02*
G75*
G03*
X162102574Y-66469042I1535000J-684000D01*
G01*
X163638000Y-64106001D02*
G75*
G03*
X162954682Y-64251245I0J-1679999D01*
G01*
X164322000Y-64251001D02*
G75*
G03*
X163609195Y-64105748I-683999J-1535000D01*
G01*
X162954001Y-67320999D02*
G75*
G03*
X164321042Y-67321426I684000J1534992D01*
G01*
X165172999Y-66469999D02*
G75*
G03*
X165173426Y-65102958I-1534992J684000D01*
G01*
X155958000Y-71047000D02*
X155958000Y-61126000D01*
X157283000Y-66855000D02*
X157330000Y-66809000D01*
X157488000Y-67061000D02*
X157523000Y-67025000D01*
X159592000Y-64547000D02*
X159627000Y-64512000D01*
X159785000Y-64763000D02*
X159832000Y-64717000D01*
X166238000Y-61126000D02*
X155958000Y-61126000D01*
X166238000Y-61686000D02*
X155958000Y-61686000D01*
X166238000Y-63186000D02*
X155958000Y-63186000D01*
X166238000Y-68087000D02*
X155958000Y-68087000D01*
X166238000Y-71047000D02*
X155958000Y-71047000D01*
X166238000Y-71047000D02*
X166238000Y-61126000D01*
X166478000Y-60886000D02*
X165978000Y-60886000D01*
X166478000Y-61626000D02*
X166478000Y-60886000D01*
X151736000Y-100695498D02*
X145726000Y-100695498D01*
X149486000Y-93875498D02*
X145726000Y-93875498D01*
X145726000Y-100695498D02*
X145726000Y-99435498D01*
X145726000Y-93875498D02*
X145726000Y-95135498D01*
X165964742Y-119114998D02*
X166439258Y-119114998D01*
X165964742Y-120159998D02*
X166439258Y-120159998D01*
X154587000Y-96325498D02*
X152717000Y-96325498D01*
X152717000Y-96325498D02*
X152717000Y-100235498D01*
X154587000Y-100235498D02*
X154587000Y-96325498D01*
D15*
X150824000Y-104801998D02*
X150824000Y-104039998D01*
X150824000Y-104039998D02*
X134822000Y-104039998D01*
X134822000Y-104039998D02*
X134822000Y-104801998D01*
D14*
X164098000Y-92673498D02*
X170338000Y-92673498D01*
X164098000Y-92673498D02*
X164098000Y-74433498D01*
X170338000Y-92673498D02*
X170338000Y-74433498D01*
X164098000Y-74433498D02*
X170338000Y-74433498D01*
X156132000Y-115767498D02*
X156132000Y-120967498D01*
X156132000Y-120967498D02*
X161032000Y-120967498D01*
X157582000Y-115767498D02*
X156132000Y-115767498D01*
X161032000Y-115767498D02*
X159582000Y-115767498D01*
X161032000Y-120967498D02*
X161032000Y-115767498D01*
X157582000Y-115767498D02*
G75*
G03*
X159582000Y-115767498I1000000J0D01*
G01*
X162726500Y-86053498D02*
X162726500Y-84043498D01*
X162336500Y-92653498D02*
X162336500Y-72453498D01*
X162336500Y-72453498D02*
X128136500Y-72453498D01*
X128136500Y-92653498D02*
X162336500Y-92653498D01*
X128136500Y-72453498D02*
X128136500Y-92653498D01*
X152692000Y-94050499D02*
X152692000Y-95920499D01*
X152692000Y-95920499D02*
X156602000Y-95920499D01*
X156602000Y-94050499D02*
X152692000Y-94050499D01*
X155048000Y-61626000D02*
X155048000Y-60886000D01*
X155048000Y-60886000D02*
X154548000Y-60886000D01*
X154808000Y-71047000D02*
X154808000Y-61126000D01*
X154808000Y-71047000D02*
X144528000Y-71047000D01*
X154808000Y-68087000D02*
X144528000Y-68087000D01*
X154808000Y-63186000D02*
X144528000Y-63186000D01*
X154808000Y-61686000D02*
X144528000Y-61686000D01*
X154808000Y-61126000D02*
X144528000Y-61126000D01*
X148355000Y-64763000D02*
X148402000Y-64717000D01*
X148162000Y-64547000D02*
X148197000Y-64512000D01*
X146058000Y-67061000D02*
X146093000Y-67025000D01*
X145853000Y-66855000D02*
X145900000Y-66809000D01*
X144528000Y-71047000D02*
X144528000Y-61126000D01*
X153742999Y-66469999D02*
G75*
G03*
X153743426Y-65102958I-1534992J684000D01*
G01*
X151524001Y-67320999D02*
G75*
G03*
X152891042Y-67321426I684000J1534992D01*
G01*
X152892000Y-64251001D02*
G75*
G03*
X152179195Y-64105748I-683999J-1535000D01*
G01*
X152208000Y-64106001D02*
G75*
G03*
X151524682Y-64251245I0J-1679999D01*
G01*
X150673000Y-65102000D02*
G75*
G03*
X150672574Y-66469042I1535000J-684000D01*
G01*
X148808000Y-65786000D02*
G75*
G03*
X148808000Y-65786000I-1680000J0D01*
G01*
X132276500Y-95183998D02*
X133064000Y-95183998D01*
X132670250Y-94790248D02*
X132670250Y-95577748D01*
X133304000Y-94685935D02*
X133304000Y-95971498D01*
X133304000Y-94685935D02*
X134368437Y-93621498D01*
X133304000Y-99377061D02*
X133304000Y-98091498D01*
X133304000Y-99377061D02*
X134368437Y-100441498D01*
X134368437Y-93621498D02*
X140124000Y-93621498D01*
X134368437Y-100441498D02*
X140124000Y-100441498D01*
X140124000Y-93621498D02*
X140124000Y-95971498D01*
X140124000Y-100441498D02*
X140124000Y-98091498D01*
X130658742Y-69838998D02*
X131133258Y-69838998D01*
X130658742Y-70883998D02*
X131133258Y-70883998D01*
X174390000Y-73276198D02*
X167190000Y-73276198D01*
X169390000Y-71376198D02*
X172190000Y-71376198D01*
X169390000Y-67976198D02*
X169390000Y-71376198D01*
X169390000Y-67976198D02*
X172190000Y-67976198D01*
X172190000Y-67976198D02*
X172190000Y-71376198D01*
X167190000Y-66076198D02*
X167190000Y-73276198D01*
X174390000Y-66076198D02*
X174390000Y-73276198D01*
X174390000Y-66076198D02*
X167190000Y-66076198D01*
%LPC*%
D16*
X150508000Y-102664198D03*
X152058000Y-102664198D03*
D17*
X165252000Y-117226998D03*
X167152000Y-117226998D03*
X166202000Y-115351998D03*
D18*
X129837999Y-61840352D03*
D19*
X173279500Y-114811498D03*
X171079500Y-114811498D03*
D20*
X154518000Y-106937498D03*
D21*
X154518000Y-109477498D03*
X154518000Y-112017498D03*
D18*
X171837999Y-118840352D03*
D22*
X131663500Y-68329498D03*
X130088500Y-68329498D03*
D23*
X166552000Y-111535498D03*
X160552000Y-97335498D03*
X172552000Y-97335498D03*
X172552000Y-109535498D03*
X160552000Y-109535498D03*
D24*
X135703000Y-65786000D03*
D25*
X140783000Y-65786000D03*
D20*
X130364000Y-100886198D03*
D21*
X130364000Y-103426198D03*
X130364000Y-105966198D03*
X130364000Y-108506198D03*
X130364000Y-111046198D03*
X130364000Y-113586198D03*
D24*
X158558000Y-65786000D03*
D25*
X163638000Y-65786000D03*
D26*
X150786000Y-99585498D03*
X150786000Y-97285498D03*
D27*
X144486000Y-97285498D03*
D26*
X150786000Y-94985498D03*
D28*
X165377000Y-119637498D03*
X167027000Y-119637498D03*
D29*
X153652000Y-97285498D03*
X153652000Y-99985498D03*
D30*
X150508000Y-119660998D03*
X150508000Y-117660998D03*
X150508000Y-115660998D03*
X150508000Y-113660998D03*
X150508000Y-111660998D03*
X150508000Y-109660998D03*
X150508000Y-107660998D03*
X150508000Y-105660998D03*
X135108000Y-105660998D03*
X135108000Y-107660998D03*
X135108000Y-109660998D03*
X135108000Y-111660998D03*
X135108000Y-113660998D03*
X135108000Y-115660998D03*
X135108000Y-117660998D03*
X135108000Y-119660998D03*
D31*
X147818000Y-103960998D03*
X145818000Y-103960998D03*
X143818000Y-103960998D03*
X141818000Y-103960998D03*
X139818000Y-103960998D03*
X137818000Y-103960998D03*
D32*
X167218000Y-91053498D03*
X167218000Y-76053498D03*
D33*
X154772000Y-117097498D03*
X154772000Y-119637498D03*
X162392000Y-119637498D03*
X162392000Y-117097498D03*
D34*
X159936500Y-85053498D03*
D35*
X159936500Y-80053498D03*
X130536500Y-90253498D03*
X130536500Y-74853498D03*
D36*
X153652000Y-94985499D03*
X156352000Y-94985499D03*
D25*
X152208000Y-65786000D03*
D24*
X147128000Y-65786000D03*
D18*
X129837999Y-118840352D03*
X171837999Y-61840352D03*
D37*
X134014000Y-97031498D03*
X139414000Y-97031498D03*
D28*
X130071000Y-70361498D03*
X131721000Y-70361498D03*
D38*
X168290000Y-71676198D03*
D39*
X168290000Y-69676198D03*
X168290000Y-67676198D03*
X173290000Y-71676198D03*
X173290000Y-69676198D03*
X173290000Y-67676198D03*
%LPD*%
M02*
