M48
; DRILL file {KiCad 7.0.8} date Fri May 10 00:52:23 2024
; FORMAT={-:-/ absolute / metric / decimal}
; #@! TF.CreationDate,2024-05-10T00:52:23-03:00
; #@! TF.GenerationSoftware,Kicad,Pcbnew,7.0.8
; #@! TF.FileFunction,Plated,1,2,PTH
FMAT,2
METRIC
; #@! TA.AperFunction,Plated,PTH,ViaDrill
T1C0.400
; #@! TA.AperFunction,Plated,PTH,ComponentDrill
T2C0.900
; #@! TA.AperFunction,Plated,PTH,ComponentDrill
T3C1.000
; #@! TA.AperFunction,Plated,PTH,ComponentDrill
T4C1.200
; #@! TA.AperFunction,Plated,PTH,ComponentDrill
T5C1.300
%
G90
G05
T1
X128.84Y-67.104
X137.347Y-106.199
X137.347Y-107.661
X137.347Y-111.661
X137.347Y-117.661
X137.347Y-119.661
X142.302Y-97.031
X148.269Y-109.661
X148.269Y-111.661
X148.269Y-115.661
X148.269Y-119.661
X148.779Y-99.585
X152.74Y-117.097
X153.478Y-102.664
X156.352Y-93.393
X157.058Y-119.637
X162.392Y-114.811
X168.488Y-119.637
T2
X168.29Y-67.676
X168.29Y-69.676
X168.29Y-71.676
X173.29Y-67.676
X173.29Y-69.676
X173.29Y-71.676
T3
X130.364Y-100.886
X130.364Y-103.426
X130.364Y-105.966
X130.364Y-108.506
X130.364Y-111.046
X130.364Y-113.586
X130.536Y-74.853
X130.536Y-90.253
X154.518Y-106.937
X154.518Y-109.477
X154.518Y-112.017
X159.936Y-80.053
X159.936Y-85.053
T4
X167.218Y-76.053
X167.218Y-91.053
T5
X135.703Y-65.786
X140.783Y-65.786
X147.128Y-65.786
X152.208Y-65.786
X158.558Y-65.786
X160.552Y-97.335
X160.552Y-109.535
X163.638Y-65.786
X166.552Y-111.535
X172.552Y-97.335
X172.552Y-109.535
T0
M30
