G04 #@! TF.GenerationSoftware,KiCad,Pcbnew,7.0.8*
G04 #@! TF.CreationDate,2024-05-10T00:52:19-03:00*
G04 #@! TF.ProjectId,on_off_module_x1,6f6e5f6f-6666-45f6-9d6f-64756c655f78,1.0*
G04 #@! TF.SameCoordinates,Original*
G04 #@! TF.FileFunction,Soldermask,Bot*
G04 #@! TF.FilePolarity,Negative*
%FSLAX46Y46*%
G04 Gerber Fmt 4.6, Leading zero omitted, Abs format (unit mm)*
G04 Created by KiCad (PCBNEW 7.0.8) date 2024-05-10 00:52:19*
%MOMM*%
%LPD*%
G01*
G04 APERTURE LIST*
G04 Aperture macros list*
%AMRoundRect*
0 Rectangle with rounded corners*
0 $1 Rounding radius*
0 $2 $3 $4 $5 $6 $7 $8 $9 X,Y pos of 4 corners*
0 Add a 4 corners polygon primitive as box body*
4,1,4,$2,$3,$4,$5,$6,$7,$8,$9,$2,$3,0*
0 Add four circle primitives for the rounded corners*
1,1,$1+$1,$2,$3*
1,1,$1+$1,$4,$5*
1,1,$1+$1,$6,$7*
1,1,$1+$1,$8,$9*
0 Add four rect primitives between the rounded corners*
20,1,$1+$1,$2,$3,$4,$5,0*
20,1,$1+$1,$4,$5,$6,$7,0*
20,1,$1+$1,$6,$7,$8,$9,0*
20,1,$1+$1,$8,$9,$2,$3,0*%
G04 Aperture macros list end*
%ADD10C,2.500000*%
%ADD11R,1.700000X1.700000*%
%ADD12O,1.700000X1.700000*%
%ADD13C,3.000000*%
%ADD14C,2.600000*%
%ADD15R,2.600000X2.600000*%
%ADD16C,2.400000*%
%ADD17R,2.300000X2.000000*%
%ADD18C,2.300000*%
%ADD19R,1.500000X1.500000*%
%ADD20C,1.500000*%
%ADD21RoundRect,0.200000X0.200000X0.275000X-0.200000X0.275000X-0.200000X-0.275000X0.200000X-0.275000X0*%
G04 APERTURE END LIST*
D10*
X129837999Y-61840352D03*
D11*
X154518000Y-106937498D03*
D12*
X154518000Y-109477498D03*
X154518000Y-112017498D03*
D10*
X171837999Y-118840352D03*
D13*
X166552000Y-111535498D03*
X160552000Y-97335498D03*
X172552000Y-97335498D03*
X172552000Y-109535498D03*
X160552000Y-109535498D03*
D14*
X135703000Y-65786000D03*
D15*
X140783000Y-65786000D03*
D11*
X130364000Y-100886198D03*
D12*
X130364000Y-103426198D03*
X130364000Y-105966198D03*
X130364000Y-108506198D03*
X130364000Y-111046198D03*
X130364000Y-113586198D03*
D14*
X158558000Y-65786000D03*
D15*
X163638000Y-65786000D03*
D16*
X167218000Y-91053498D03*
X167218000Y-76053498D03*
D17*
X159936500Y-85053498D03*
D18*
X159936500Y-80053498D03*
X130536500Y-90253498D03*
X130536500Y-74853498D03*
D15*
X152208000Y-65786000D03*
D14*
X147128000Y-65786000D03*
D10*
X129837999Y-118840352D03*
X171837999Y-61840352D03*
D19*
X168290000Y-71676198D03*
D20*
X168290000Y-69676198D03*
X168290000Y-67676198D03*
X173290000Y-71676198D03*
X173290000Y-69676198D03*
X173290000Y-67676198D03*
D21*
X151333000Y-111661003D03*
X149683000Y-111661003D03*
X151333000Y-119661002D03*
X149683000Y-119661002D03*
X135933000Y-107661004D03*
X134283000Y-107661004D03*
X151333000Y-115661005D03*
X149683000Y-115661005D03*
M02*
