G04 #@! TF.GenerationSoftware,KiCad,Pcbnew,7.0.8*
G04 #@! TF.CreationDate,2024-05-10T00:52:19-03:00*
G04 #@! TF.ProjectId,on_off_module_x1,6f6e5f6f-6666-45f6-9d6f-64756c655f78,1.0*
G04 #@! TF.SameCoordinates,Original*
G04 #@! TF.FileFunction,Copper,L1,Top*
G04 #@! TF.FilePolarity,Positive*
%FSLAX46Y46*%
G04 Gerber Fmt 4.6, Leading zero omitted, Abs format (unit mm)*
G04 Created by KiCad (PCBNEW 7.0.8) date 2024-05-10 00:52:19*
%MOMM*%
%LPD*%
G01*
G04 APERTURE LIST*
G04 Aperture macros list*
%AMRoundRect*
0 Rectangle with rounded corners*
0 $1 Rounding radius*
0 $2 $3 $4 $5 $6 $7 $8 $9 X,Y pos of 4 corners*
0 Add a 4 corners polygon primitive as box body*
4,1,4,$2,$3,$4,$5,$6,$7,$8,$9,$2,$3,0*
0 Add four circle primitives for the rounded corners*
1,1,$1+$1,$2,$3*
1,1,$1+$1,$4,$5*
1,1,$1+$1,$6,$7*
1,1,$1+$1,$8,$9*
0 Add four rect primitives between the rounded corners*
20,1,$1+$1,$2,$3,$4,$5,0*
20,1,$1+$1,$4,$5,$6,$7,0*
20,1,$1+$1,$6,$7,$8,$9,0*
20,1,$1+$1,$8,$9,$2,$3,0*%
G04 Aperture macros list end*
G04 #@! TA.AperFunction,SMDPad,CuDef*
%ADD10RoundRect,0.225000X-0.225000X-0.250000X0.225000X-0.250000X0.225000X0.250000X-0.225000X0.250000X0*%
G04 #@! TD*
G04 #@! TA.AperFunction,SMDPad,CuDef*
%ADD11RoundRect,0.150000X0.150000X-0.587500X0.150000X0.587500X-0.150000X0.587500X-0.150000X-0.587500X0*%
G04 #@! TD*
G04 #@! TA.AperFunction,SMDPad,CuDef*
%ADD12RoundRect,0.125000X0.125000X0.125000X-0.125000X0.125000X-0.125000X-0.125000X0.125000X-0.125000X0*%
G04 #@! TD*
G04 #@! TA.AperFunction,ComponentPad*
%ADD13R,1.700000X1.700000*%
G04 #@! TD*
G04 #@! TA.AperFunction,ComponentPad*
%ADD14O,1.700000X1.700000*%
G04 #@! TD*
G04 #@! TA.AperFunction,SMDPad,CuDef*
%ADD15RoundRect,0.218750X0.218750X0.256250X-0.218750X0.256250X-0.218750X-0.256250X0.218750X-0.256250X0*%
G04 #@! TD*
G04 #@! TA.AperFunction,ComponentPad*
%ADD16C,3.000000*%
G04 #@! TD*
G04 #@! TA.AperFunction,ComponentPad*
%ADD17C,2.600000*%
G04 #@! TD*
G04 #@! TA.AperFunction,ComponentPad*
%ADD18R,2.600000X2.600000*%
G04 #@! TD*
G04 #@! TA.AperFunction,SMDPad,CuDef*
%ADD19R,2.000000X1.500000*%
G04 #@! TD*
G04 #@! TA.AperFunction,SMDPad,CuDef*
%ADD20R,2.000000X3.800000*%
G04 #@! TD*
G04 #@! TA.AperFunction,SMDPad,CuDef*
%ADD21RoundRect,0.200000X-0.200000X-0.275000X0.200000X-0.275000X0.200000X0.275000X-0.200000X0.275000X0*%
G04 #@! TD*
G04 #@! TA.AperFunction,SMDPad,CuDef*
%ADD22RoundRect,0.250000X-0.425000X0.450000X-0.425000X-0.450000X0.425000X-0.450000X0.425000X0.450000X0*%
G04 #@! TD*
G04 #@! TA.AperFunction,SMDPad,CuDef*
%ADD23R,2.500000X1.100000*%
G04 #@! TD*
G04 #@! TA.AperFunction,SMDPad,CuDef*
%ADD24R,1.100000X2.500000*%
G04 #@! TD*
G04 #@! TA.AperFunction,ComponentPad*
%ADD25C,2.400000*%
G04 #@! TD*
G04 #@! TA.AperFunction,SMDPad,CuDef*
%ADD26R,2.000000X1.780000*%
G04 #@! TD*
G04 #@! TA.AperFunction,ComponentPad*
%ADD27R,2.300000X2.000000*%
G04 #@! TD*
G04 #@! TA.AperFunction,ComponentPad*
%ADD28C,2.300000*%
G04 #@! TD*
G04 #@! TA.AperFunction,SMDPad,CuDef*
%ADD29RoundRect,0.250000X-0.450000X-0.425000X0.450000X-0.425000X0.450000X0.425000X-0.450000X0.425000X0*%
G04 #@! TD*
G04 #@! TA.AperFunction,SMDPad,CuDef*
%ADD30RoundRect,0.250000X-1.500000X-0.550000X1.500000X-0.550000X1.500000X0.550000X-1.500000X0.550000X0*%
G04 #@! TD*
G04 #@! TA.AperFunction,ComponentPad*
%ADD31R,1.500000X1.500000*%
G04 #@! TD*
G04 #@! TA.AperFunction,ComponentPad*
%ADD32C,1.500000*%
G04 #@! TD*
G04 #@! TA.AperFunction,ViaPad*
%ADD33C,0.800000*%
G04 #@! TD*
G04 #@! TA.AperFunction,Conductor*
%ADD34C,1.000000*%
G04 #@! TD*
G04 #@! TA.AperFunction,Conductor*
%ADD35C,0.500000*%
G04 #@! TD*
G04 #@! TA.AperFunction,Conductor*
%ADD36C,0.250000*%
G04 #@! TD*
G04 APERTURE END LIST*
D10*
X150508000Y-102664198D03*
X152058000Y-102664198D03*
D11*
X165252000Y-117226998D03*
X167152000Y-117226998D03*
X166202000Y-115351998D03*
D12*
X173279500Y-114811498D03*
X171079500Y-114811498D03*
D13*
X154518000Y-106937498D03*
D14*
X154518000Y-109477498D03*
X154518000Y-112017498D03*
D15*
X131663500Y-68329498D03*
X130088500Y-68329498D03*
D16*
X166552000Y-111535498D03*
X160552000Y-97335498D03*
X172552000Y-97335498D03*
X172552000Y-109535498D03*
X160552000Y-109535498D03*
D17*
X135703000Y-65786000D03*
D18*
X140783000Y-65786000D03*
D13*
X130364000Y-100886198D03*
D14*
X130364000Y-103426198D03*
X130364000Y-105966198D03*
X130364000Y-108506198D03*
X130364000Y-111046198D03*
X130364000Y-113586198D03*
D17*
X158558000Y-65786000D03*
D18*
X163638000Y-65786000D03*
D19*
X150786000Y-99585498D03*
X150786000Y-97285498D03*
D20*
X144486000Y-97285498D03*
D19*
X150786000Y-94985498D03*
D21*
X165377000Y-119637498D03*
X167027000Y-119637498D03*
D22*
X153652000Y-97285498D03*
X153652000Y-99985498D03*
D23*
X150508000Y-119660998D03*
X150508000Y-117660998D03*
X150508000Y-115660998D03*
X150508000Y-113660998D03*
X150508000Y-111660998D03*
X150508000Y-109660998D03*
X150508000Y-107660998D03*
X150508000Y-105660998D03*
X135108000Y-105660998D03*
X135108000Y-107660998D03*
X135108000Y-109660998D03*
X135108000Y-111660998D03*
X135108000Y-113660998D03*
X135108000Y-115660998D03*
X135108000Y-117660998D03*
X135108000Y-119660998D03*
D24*
X147818000Y-103960998D03*
X145818000Y-103960998D03*
X143818000Y-103960998D03*
X141818000Y-103960998D03*
X139818000Y-103960998D03*
X137818000Y-103960998D03*
D25*
X167218000Y-91053498D03*
X167218000Y-76053498D03*
D26*
X154772000Y-117097498D03*
X154772000Y-119637498D03*
X162392000Y-119637498D03*
X162392000Y-117097498D03*
D27*
X159936500Y-85053498D03*
D28*
X159936500Y-80053498D03*
X130536500Y-90253498D03*
X130536500Y-74853498D03*
D29*
X153652000Y-94985499D03*
X156352000Y-94985499D03*
D18*
X152208000Y-65786000D03*
D17*
X147128000Y-65786000D03*
D30*
X134014000Y-97031498D03*
X139414000Y-97031498D03*
D21*
X130071000Y-70361498D03*
X131721000Y-70361498D03*
D31*
X168290000Y-71676198D03*
D32*
X168290000Y-69676198D03*
X168290000Y-67676198D03*
X173290000Y-71676198D03*
X173290000Y-69676198D03*
X173290000Y-67676198D03*
D33*
X162392000Y-114811498D03*
X148779000Y-99585499D03*
X157058000Y-119637498D03*
X128840000Y-67104198D03*
X156352000Y-93393198D03*
X153478000Y-102664198D03*
X168488000Y-119637498D03*
X142302000Y-97031498D03*
X137346999Y-106199000D03*
X148269000Y-109661000D03*
X137346999Y-117661001D03*
X137346999Y-119660998D03*
X148269001Y-111661000D03*
X148269001Y-115661005D03*
X148269001Y-119661002D03*
X137346999Y-107661004D03*
X137346999Y-111661000D03*
X152740000Y-117097498D03*
D34*
X147128000Y-77195498D02*
X147128000Y-65786000D01*
X167268000Y-97335498D02*
X147128000Y-77195498D01*
X172202000Y-97335498D02*
X167268000Y-97335498D01*
X169258000Y-69676198D02*
X170750000Y-71168198D01*
X170750000Y-87521498D02*
X167218000Y-91053498D01*
X168290000Y-69676198D02*
X169258000Y-69676198D01*
X161115650Y-85053498D02*
X167115650Y-91053498D01*
X159936500Y-85053498D02*
X161115650Y-85053498D01*
X167115650Y-91053498D02*
X167218000Y-91053498D01*
X170750000Y-71168198D02*
X170750000Y-87521498D01*
X163218000Y-80053498D02*
X167218000Y-76053498D01*
X159936500Y-80053498D02*
X163218000Y-80053498D01*
X163638000Y-72473498D02*
X167218000Y-76053498D01*
X163638000Y-66043498D02*
X163638000Y-72473498D01*
D35*
X173279500Y-114811498D02*
X173279500Y-110262998D01*
X162392000Y-117097498D02*
X162392000Y-114811498D01*
X130536500Y-74853498D02*
X134014000Y-78330998D01*
X131721000Y-73668998D02*
X130536500Y-74853498D01*
X134014000Y-97031498D02*
X137570000Y-93475498D01*
X134014000Y-78330998D02*
X134014000Y-97031498D01*
X150786001Y-94985499D02*
X153652000Y-94985499D01*
X153652000Y-94202198D02*
X153652000Y-94985499D01*
X160360000Y-114811498D02*
X157312000Y-111763498D01*
X150786000Y-94985498D02*
X150786001Y-94985499D01*
X157312000Y-111763498D02*
X157312000Y-98497198D01*
X173279500Y-110262998D02*
X172552000Y-109535498D01*
X137570000Y-93475498D02*
X152925300Y-93475498D01*
X131721000Y-70361498D02*
X131721000Y-73668998D01*
X153800301Y-94985499D02*
X153652000Y-94985499D01*
X152925300Y-93475498D02*
X153652000Y-94202198D01*
X157312000Y-98497198D02*
X153800301Y-94985499D01*
X173279500Y-110612998D02*
X172202000Y-109535498D01*
X162392000Y-114811498D02*
X160360000Y-114811498D01*
D34*
X140708000Y-97031498D02*
X142302000Y-97031498D01*
D35*
X153252000Y-99585498D02*
X153652000Y-99985498D01*
X167027000Y-119637498D02*
X168488000Y-119637498D01*
D36*
X130438200Y-67104198D02*
X131663500Y-68329498D01*
D35*
X148779000Y-99585499D02*
X150786000Y-99585498D01*
X150786000Y-99585498D02*
X153252000Y-99585498D01*
D36*
X135808000Y-105660998D02*
X136808997Y-105660998D01*
D35*
X154772000Y-119637498D02*
X157058000Y-119637498D01*
X153478000Y-102664198D02*
X152058000Y-102664198D01*
X167152000Y-117226998D02*
X167152000Y-119512498D01*
D36*
X136808997Y-105660998D02*
X137346999Y-106199000D01*
D35*
X167152000Y-119512498D02*
X167027000Y-119637498D01*
D36*
X128840000Y-67104198D02*
X130438200Y-67104198D01*
D35*
X156352000Y-93393198D02*
X156352000Y-94985499D01*
X150786000Y-97285498D02*
X153652000Y-97285498D01*
X150508000Y-102234198D02*
X149795000Y-101521198D01*
X150508000Y-102664198D02*
X150508000Y-102234198D01*
X150508000Y-102078198D02*
X151065000Y-101521198D01*
X150508000Y-104960998D02*
X149808000Y-105660998D01*
X151065000Y-101521198D02*
X155002000Y-101521198D01*
X154518000Y-106937498D02*
X154494000Y-106913498D01*
X150508000Y-102664198D02*
X150508000Y-102078198D01*
X155129000Y-101648198D02*
X155129000Y-98092198D01*
X144486000Y-97285498D02*
X150786000Y-97285498D01*
X149795000Y-101521198D02*
X136058300Y-101521198D01*
X155002000Y-101521198D02*
X155129000Y-101648198D01*
X131613300Y-105966198D02*
X130364000Y-105966198D01*
X154494000Y-102283198D02*
X155129000Y-101648198D01*
X136058300Y-101521198D02*
X131613300Y-105966198D01*
X150508000Y-102664198D02*
X150508000Y-104960998D01*
X154322300Y-97285498D02*
X153652000Y-97285498D01*
X155129000Y-98092198D02*
X154322300Y-97285498D01*
X154494000Y-106913498D02*
X154494000Y-102283198D01*
X148269000Y-109661000D02*
X149808000Y-109660999D01*
D36*
X130088500Y-70343998D02*
X130071000Y-70361498D01*
X130088500Y-68329498D02*
X130088500Y-70343998D01*
D35*
X160552000Y-111193498D02*
X160552000Y-109535498D01*
X164710500Y-115351998D02*
X160552000Y-111193498D01*
X166202000Y-115351998D02*
X166742500Y-114811498D01*
X166742500Y-114811498D02*
X171079500Y-114811498D01*
X166202000Y-115351998D02*
X164710500Y-115351998D01*
D34*
X158558000Y-66043498D02*
X158558000Y-64818198D01*
X158558000Y-64818198D02*
X160336000Y-63040198D01*
X168290000Y-65152198D02*
X168290000Y-67676198D01*
X166178000Y-63040198D02*
X168290000Y-65152198D01*
X160336000Y-63040198D02*
X166178000Y-63040198D01*
D36*
X137346996Y-117660998D02*
X137346999Y-117661001D01*
X135808000Y-117660998D02*
X137346996Y-117660998D01*
X135808000Y-119660998D02*
X137346999Y-119660998D01*
X149808000Y-111661000D02*
X148269001Y-111661000D01*
D35*
X165252000Y-117226998D02*
X165252000Y-119512498D01*
X165252000Y-119512498D02*
X165377000Y-119637498D01*
X162392000Y-119637498D02*
X165377000Y-119637498D01*
D36*
X148269005Y-115661000D02*
X148269001Y-115661005D01*
X149808000Y-115661000D02*
X148269005Y-115661000D01*
X149808000Y-119660998D02*
X148269003Y-119661000D01*
X148269003Y-119661000D02*
X148269001Y-119661002D01*
X135808003Y-107661004D02*
X135808000Y-107661000D01*
X137346999Y-107661004D02*
X135808003Y-107661004D01*
X137346999Y-111661000D02*
X135808000Y-111661000D01*
X154772000Y-117097498D02*
X152740000Y-117097498D01*
M02*
