%TF.GenerationSoftware,KiCad,Pcbnew,7.0.8*%
%TF.CreationDate,2024-05-10T00:52:23-03:00*%
%TF.ProjectId,on_off_module_x1,6f6e5f6f-6666-45f6-9d6f-64756c655f78,1.0*%
%TF.SameCoordinates,Original*%
%TF.FileFunction,Drillmap*%
%TF.FilePolarity,Positive*%
%FSLAX45Y45*%
G04 Gerber Fmt 4.5, Leading zero omitted, Abs format (unit mm)*
G04 Created by KiCad (PCBNEW 7.0.8) date 2024-05-10 00:52:23*
%MOMM*%
%LPD*%
G01*
G04 APERTURE LIST*
%ADD10C,0.200000*%
%ADD11C,0.250000*%
G04 APERTURE END LIST*
D10*
X17484303Y-6184035D02*
G75*
G03*
X17184303Y-5884035I-299992J8D01*
G01*
X12983800Y-5884035D02*
G75*
G03*
X12683800Y-6184035I-8J-299992D01*
G01*
X12683800Y-11884035D02*
G75*
G03*
X12983800Y-12184035I299992J-8D01*
G01*
X12983800Y-5884035D02*
X17184303Y-5884035D01*
X12683800Y-11884035D02*
X12683800Y-6184035D01*
X12983800Y-12184035D02*
X17183800Y-12184035D01*
X17484303Y-6184035D02*
X17483800Y-11884035D01*
X17183800Y-12184040D02*
G75*
G03*
X17483800Y-11884035I0J300000D01*
G01*
D11*
X12858800Y-6059035D02*
X13108800Y-6309035D01*
X13108800Y-6059035D02*
X12858800Y-6309035D01*
X12858800Y-11759035D02*
X13108800Y-12009035D01*
X13108800Y-11759035D02*
X12858800Y-12009035D01*
X17058800Y-6059035D02*
X17308800Y-6309035D01*
X17308800Y-6059035D02*
X17058800Y-6309035D01*
X17058800Y-11759035D02*
X17308800Y-12009035D01*
X17308800Y-11759035D02*
X17058800Y-12009035D01*
D10*
X12934577Y-12505519D02*
X12934577Y-12305519D01*
X12934577Y-12305519D02*
X12982196Y-12305519D01*
X12982196Y-12305519D02*
X13010767Y-12315043D01*
X13010767Y-12315043D02*
X13029815Y-12334090D01*
X13029815Y-12334090D02*
X13039339Y-12353138D01*
X13039339Y-12353138D02*
X13048862Y-12391233D01*
X13048862Y-12391233D02*
X13048862Y-12419805D01*
X13048862Y-12419805D02*
X13039339Y-12457900D01*
X13039339Y-12457900D02*
X13029815Y-12476947D01*
X13029815Y-12476947D02*
X13010767Y-12495995D01*
X13010767Y-12495995D02*
X12982196Y-12505519D01*
X12982196Y-12505519D02*
X12934577Y-12505519D01*
X13134577Y-12505519D02*
X13134577Y-12372186D01*
X13134577Y-12410281D02*
X13144100Y-12391233D01*
X13144100Y-12391233D02*
X13153624Y-12381709D01*
X13153624Y-12381709D02*
X13172672Y-12372186D01*
X13172672Y-12372186D02*
X13191720Y-12372186D01*
X13258386Y-12505519D02*
X13258386Y-12372186D01*
X13258386Y-12305519D02*
X13248862Y-12315043D01*
X13248862Y-12315043D02*
X13258386Y-12324567D01*
X13258386Y-12324567D02*
X13267910Y-12315043D01*
X13267910Y-12315043D02*
X13258386Y-12305519D01*
X13258386Y-12305519D02*
X13258386Y-12324567D01*
X13382196Y-12505519D02*
X13363148Y-12495995D01*
X13363148Y-12495995D02*
X13353624Y-12476947D01*
X13353624Y-12476947D02*
X13353624Y-12305519D01*
X13486958Y-12505519D02*
X13467910Y-12495995D01*
X13467910Y-12495995D02*
X13458386Y-12476947D01*
X13458386Y-12476947D02*
X13458386Y-12305519D01*
X13715529Y-12505519D02*
X13715529Y-12305519D01*
X13715529Y-12305519D02*
X13782196Y-12448376D01*
X13782196Y-12448376D02*
X13848862Y-12305519D01*
X13848862Y-12305519D02*
X13848862Y-12505519D01*
X14029815Y-12505519D02*
X14029815Y-12400757D01*
X14029815Y-12400757D02*
X14020291Y-12381709D01*
X14020291Y-12381709D02*
X14001243Y-12372186D01*
X14001243Y-12372186D02*
X13963148Y-12372186D01*
X13963148Y-12372186D02*
X13944100Y-12381709D01*
X14029815Y-12495995D02*
X14010767Y-12505519D01*
X14010767Y-12505519D02*
X13963148Y-12505519D01*
X13963148Y-12505519D02*
X13944100Y-12495995D01*
X13944100Y-12495995D02*
X13934577Y-12476947D01*
X13934577Y-12476947D02*
X13934577Y-12457900D01*
X13934577Y-12457900D02*
X13944100Y-12438852D01*
X13944100Y-12438852D02*
X13963148Y-12429328D01*
X13963148Y-12429328D02*
X14010767Y-12429328D01*
X14010767Y-12429328D02*
X14029815Y-12419805D01*
X14125053Y-12372186D02*
X14125053Y-12572186D01*
X14125053Y-12381709D02*
X14144100Y-12372186D01*
X14144100Y-12372186D02*
X14182196Y-12372186D01*
X14182196Y-12372186D02*
X14201243Y-12381709D01*
X14201243Y-12381709D02*
X14210767Y-12391233D01*
X14210767Y-12391233D02*
X14220291Y-12410281D01*
X14220291Y-12410281D02*
X14220291Y-12467424D01*
X14220291Y-12467424D02*
X14210767Y-12486471D01*
X14210767Y-12486471D02*
X14201243Y-12495995D01*
X14201243Y-12495995D02*
X14182196Y-12505519D01*
X14182196Y-12505519D02*
X14144100Y-12505519D01*
X14144100Y-12505519D02*
X14125053Y-12495995D01*
X14306005Y-12486471D02*
X14315529Y-12495995D01*
X14315529Y-12495995D02*
X14306005Y-12505519D01*
X14306005Y-12505519D02*
X14296481Y-12495995D01*
X14296481Y-12495995D02*
X14306005Y-12486471D01*
X14306005Y-12486471D02*
X14306005Y-12505519D01*
X14306005Y-12381709D02*
X14315529Y-12391233D01*
X14315529Y-12391233D02*
X14306005Y-12400757D01*
X14306005Y-12400757D02*
X14296481Y-12391233D01*
X14296481Y-12391233D02*
X14306005Y-12381709D01*
X14306005Y-12381709D02*
X14306005Y-12400757D01*
X12473800Y-12734035D02*
X12673800Y-12934035D01*
X12673800Y-12734035D02*
X12473800Y-12934035D01*
X12925053Y-12744567D02*
X12934577Y-12735043D01*
X12934577Y-12735043D02*
X12953624Y-12725519D01*
X12953624Y-12725519D02*
X13001243Y-12725519D01*
X13001243Y-12725519D02*
X13020291Y-12735043D01*
X13020291Y-12735043D02*
X13029815Y-12744567D01*
X13029815Y-12744567D02*
X13039339Y-12763614D01*
X13039339Y-12763614D02*
X13039339Y-12782662D01*
X13039339Y-12782662D02*
X13029815Y-12811233D01*
X13029815Y-12811233D02*
X12915529Y-12925519D01*
X12915529Y-12925519D02*
X13039339Y-12925519D01*
X13125053Y-12906471D02*
X13134577Y-12915995D01*
X13134577Y-12915995D02*
X13125053Y-12925519D01*
X13125053Y-12925519D02*
X13115529Y-12915995D01*
X13115529Y-12915995D02*
X13125053Y-12906471D01*
X13125053Y-12906471D02*
X13125053Y-12925519D01*
X13315529Y-12725519D02*
X13220291Y-12725519D01*
X13220291Y-12725519D02*
X13210767Y-12820757D01*
X13210767Y-12820757D02*
X13220291Y-12811233D01*
X13220291Y-12811233D02*
X13239339Y-12801709D01*
X13239339Y-12801709D02*
X13286958Y-12801709D01*
X13286958Y-12801709D02*
X13306005Y-12811233D01*
X13306005Y-12811233D02*
X13315529Y-12820757D01*
X13315529Y-12820757D02*
X13325053Y-12839805D01*
X13325053Y-12839805D02*
X13325053Y-12887424D01*
X13325053Y-12887424D02*
X13315529Y-12906471D01*
X13315529Y-12906471D02*
X13306005Y-12915995D01*
X13306005Y-12915995D02*
X13286958Y-12925519D01*
X13286958Y-12925519D02*
X13239339Y-12925519D01*
X13239339Y-12925519D02*
X13220291Y-12915995D01*
X13220291Y-12915995D02*
X13210767Y-12906471D01*
X13448862Y-12725519D02*
X13467910Y-12725519D01*
X13467910Y-12725519D02*
X13486958Y-12735043D01*
X13486958Y-12735043D02*
X13496481Y-12744567D01*
X13496481Y-12744567D02*
X13506005Y-12763614D01*
X13506005Y-12763614D02*
X13515529Y-12801709D01*
X13515529Y-12801709D02*
X13515529Y-12849328D01*
X13515529Y-12849328D02*
X13506005Y-12887424D01*
X13506005Y-12887424D02*
X13496481Y-12906471D01*
X13496481Y-12906471D02*
X13486958Y-12915995D01*
X13486958Y-12915995D02*
X13467910Y-12925519D01*
X13467910Y-12925519D02*
X13448862Y-12925519D01*
X13448862Y-12925519D02*
X13429815Y-12915995D01*
X13429815Y-12915995D02*
X13420291Y-12906471D01*
X13420291Y-12906471D02*
X13410767Y-12887424D01*
X13410767Y-12887424D02*
X13401243Y-12849328D01*
X13401243Y-12849328D02*
X13401243Y-12801709D01*
X13401243Y-12801709D02*
X13410767Y-12763614D01*
X13410767Y-12763614D02*
X13420291Y-12744567D01*
X13420291Y-12744567D02*
X13429815Y-12735043D01*
X13429815Y-12735043D02*
X13448862Y-12725519D01*
X13639339Y-12725519D02*
X13658386Y-12725519D01*
X13658386Y-12725519D02*
X13677434Y-12735043D01*
X13677434Y-12735043D02*
X13686958Y-12744567D01*
X13686958Y-12744567D02*
X13696481Y-12763614D01*
X13696481Y-12763614D02*
X13706005Y-12801709D01*
X13706005Y-12801709D02*
X13706005Y-12849328D01*
X13706005Y-12849328D02*
X13696481Y-12887424D01*
X13696481Y-12887424D02*
X13686958Y-12906471D01*
X13686958Y-12906471D02*
X13677434Y-12915995D01*
X13677434Y-12915995D02*
X13658386Y-12925519D01*
X13658386Y-12925519D02*
X13639339Y-12925519D01*
X13639339Y-12925519D02*
X13620291Y-12915995D01*
X13620291Y-12915995D02*
X13610767Y-12906471D01*
X13610767Y-12906471D02*
X13601243Y-12887424D01*
X13601243Y-12887424D02*
X13591720Y-12849328D01*
X13591720Y-12849328D02*
X13591720Y-12801709D01*
X13591720Y-12801709D02*
X13601243Y-12763614D01*
X13601243Y-12763614D02*
X13610767Y-12744567D01*
X13610767Y-12744567D02*
X13620291Y-12735043D01*
X13620291Y-12735043D02*
X13639339Y-12725519D01*
X13791720Y-12925519D02*
X13791720Y-12792186D01*
X13791720Y-12811233D02*
X13801243Y-12801709D01*
X13801243Y-12801709D02*
X13820291Y-12792186D01*
X13820291Y-12792186D02*
X13848862Y-12792186D01*
X13848862Y-12792186D02*
X13867910Y-12801709D01*
X13867910Y-12801709D02*
X13877434Y-12820757D01*
X13877434Y-12820757D02*
X13877434Y-12925519D01*
X13877434Y-12820757D02*
X13886958Y-12801709D01*
X13886958Y-12801709D02*
X13906005Y-12792186D01*
X13906005Y-12792186D02*
X13934577Y-12792186D01*
X13934577Y-12792186D02*
X13953624Y-12801709D01*
X13953624Y-12801709D02*
X13963148Y-12820757D01*
X13963148Y-12820757D02*
X13963148Y-12925519D01*
X14058386Y-12925519D02*
X14058386Y-12792186D01*
X14058386Y-12811233D02*
X14067910Y-12801709D01*
X14067910Y-12801709D02*
X14086958Y-12792186D01*
X14086958Y-12792186D02*
X14115529Y-12792186D01*
X14115529Y-12792186D02*
X14134577Y-12801709D01*
X14134577Y-12801709D02*
X14144101Y-12820757D01*
X14144101Y-12820757D02*
X14144101Y-12925519D01*
X14144101Y-12820757D02*
X14153624Y-12801709D01*
X14153624Y-12801709D02*
X14172672Y-12792186D01*
X14172672Y-12792186D02*
X14201243Y-12792186D01*
X14201243Y-12792186D02*
X14220291Y-12801709D01*
X14220291Y-12801709D02*
X14229815Y-12820757D01*
X14229815Y-12820757D02*
X14229815Y-12925519D01*
X14620291Y-12715995D02*
X14448863Y-12973138D01*
X14877434Y-12725519D02*
X14896482Y-12725519D01*
X14896482Y-12725519D02*
X14915529Y-12735043D01*
X14915529Y-12735043D02*
X14925053Y-12744567D01*
X14925053Y-12744567D02*
X14934577Y-12763614D01*
X14934577Y-12763614D02*
X14944101Y-12801709D01*
X14944101Y-12801709D02*
X14944101Y-12849328D01*
X14944101Y-12849328D02*
X14934577Y-12887424D01*
X14934577Y-12887424D02*
X14925053Y-12906471D01*
X14925053Y-12906471D02*
X14915529Y-12915995D01*
X14915529Y-12915995D02*
X14896482Y-12925519D01*
X14896482Y-12925519D02*
X14877434Y-12925519D01*
X14877434Y-12925519D02*
X14858386Y-12915995D01*
X14858386Y-12915995D02*
X14848863Y-12906471D01*
X14848863Y-12906471D02*
X14839339Y-12887424D01*
X14839339Y-12887424D02*
X14829815Y-12849328D01*
X14829815Y-12849328D02*
X14829815Y-12801709D01*
X14829815Y-12801709D02*
X14839339Y-12763614D01*
X14839339Y-12763614D02*
X14848863Y-12744567D01*
X14848863Y-12744567D02*
X14858386Y-12735043D01*
X14858386Y-12735043D02*
X14877434Y-12725519D01*
X15029815Y-12906471D02*
X15039339Y-12915995D01*
X15039339Y-12915995D02*
X15029815Y-12925519D01*
X15029815Y-12925519D02*
X15020291Y-12915995D01*
X15020291Y-12915995D02*
X15029815Y-12906471D01*
X15029815Y-12906471D02*
X15029815Y-12925519D01*
X15163148Y-12725519D02*
X15182196Y-12725519D01*
X15182196Y-12725519D02*
X15201244Y-12735043D01*
X15201244Y-12735043D02*
X15210767Y-12744567D01*
X15210767Y-12744567D02*
X15220291Y-12763614D01*
X15220291Y-12763614D02*
X15229815Y-12801709D01*
X15229815Y-12801709D02*
X15229815Y-12849328D01*
X15229815Y-12849328D02*
X15220291Y-12887424D01*
X15220291Y-12887424D02*
X15210767Y-12906471D01*
X15210767Y-12906471D02*
X15201244Y-12915995D01*
X15201244Y-12915995D02*
X15182196Y-12925519D01*
X15182196Y-12925519D02*
X15163148Y-12925519D01*
X15163148Y-12925519D02*
X15144101Y-12915995D01*
X15144101Y-12915995D02*
X15134577Y-12906471D01*
X15134577Y-12906471D02*
X15125053Y-12887424D01*
X15125053Y-12887424D02*
X15115529Y-12849328D01*
X15115529Y-12849328D02*
X15115529Y-12801709D01*
X15115529Y-12801709D02*
X15125053Y-12763614D01*
X15125053Y-12763614D02*
X15134577Y-12744567D01*
X15134577Y-12744567D02*
X15144101Y-12735043D01*
X15144101Y-12735043D02*
X15163148Y-12725519D01*
X15325053Y-12925519D02*
X15363148Y-12925519D01*
X15363148Y-12925519D02*
X15382196Y-12915995D01*
X15382196Y-12915995D02*
X15391720Y-12906471D01*
X15391720Y-12906471D02*
X15410767Y-12877900D01*
X15410767Y-12877900D02*
X15420291Y-12839805D01*
X15420291Y-12839805D02*
X15420291Y-12763614D01*
X15420291Y-12763614D02*
X15410767Y-12744567D01*
X15410767Y-12744567D02*
X15401244Y-12735043D01*
X15401244Y-12735043D02*
X15382196Y-12725519D01*
X15382196Y-12725519D02*
X15344101Y-12725519D01*
X15344101Y-12725519D02*
X15325053Y-12735043D01*
X15325053Y-12735043D02*
X15315529Y-12744567D01*
X15315529Y-12744567D02*
X15306005Y-12763614D01*
X15306005Y-12763614D02*
X15306005Y-12811233D01*
X15306005Y-12811233D02*
X15315529Y-12830281D01*
X15315529Y-12830281D02*
X15325053Y-12839805D01*
X15325053Y-12839805D02*
X15344101Y-12849328D01*
X15344101Y-12849328D02*
X15382196Y-12849328D01*
X15382196Y-12849328D02*
X15401244Y-12839805D01*
X15401244Y-12839805D02*
X15410767Y-12830281D01*
X15410767Y-12830281D02*
X15420291Y-12811233D01*
X15534577Y-12811233D02*
X15515529Y-12801709D01*
X15515529Y-12801709D02*
X15506005Y-12792186D01*
X15506005Y-12792186D02*
X15496482Y-12773138D01*
X15496482Y-12773138D02*
X15496482Y-12763614D01*
X15496482Y-12763614D02*
X15506005Y-12744567D01*
X15506005Y-12744567D02*
X15515529Y-12735043D01*
X15515529Y-12735043D02*
X15534577Y-12725519D01*
X15534577Y-12725519D02*
X15572672Y-12725519D01*
X15572672Y-12725519D02*
X15591720Y-12735043D01*
X15591720Y-12735043D02*
X15601244Y-12744567D01*
X15601244Y-12744567D02*
X15610767Y-12763614D01*
X15610767Y-12763614D02*
X15610767Y-12773138D01*
X15610767Y-12773138D02*
X15601244Y-12792186D01*
X15601244Y-12792186D02*
X15591720Y-12801709D01*
X15591720Y-12801709D02*
X15572672Y-12811233D01*
X15572672Y-12811233D02*
X15534577Y-12811233D01*
X15534577Y-12811233D02*
X15515529Y-12820757D01*
X15515529Y-12820757D02*
X15506005Y-12830281D01*
X15506005Y-12830281D02*
X15496482Y-12849328D01*
X15496482Y-12849328D02*
X15496482Y-12887424D01*
X15496482Y-12887424D02*
X15506005Y-12906471D01*
X15506005Y-12906471D02*
X15515529Y-12915995D01*
X15515529Y-12915995D02*
X15534577Y-12925519D01*
X15534577Y-12925519D02*
X15572672Y-12925519D01*
X15572672Y-12925519D02*
X15591720Y-12915995D01*
X15591720Y-12915995D02*
X15601244Y-12906471D01*
X15601244Y-12906471D02*
X15610767Y-12887424D01*
X15610767Y-12887424D02*
X15610767Y-12849328D01*
X15610767Y-12849328D02*
X15601244Y-12830281D01*
X15601244Y-12830281D02*
X15591720Y-12820757D01*
X15591720Y-12820757D02*
X15572672Y-12811233D01*
X15782196Y-12792186D02*
X15782196Y-12925519D01*
X15734577Y-12715995D02*
X15686958Y-12858852D01*
X15686958Y-12858852D02*
X15810767Y-12858852D01*
X15877434Y-12725519D02*
X15877434Y-12763614D01*
X15953625Y-12725519D02*
X15953625Y-12763614D01*
X16248863Y-13001709D02*
X16239339Y-12992186D01*
X16239339Y-12992186D02*
X16220291Y-12963614D01*
X16220291Y-12963614D02*
X16210767Y-12944567D01*
X16210767Y-12944567D02*
X16201244Y-12915995D01*
X16201244Y-12915995D02*
X16191720Y-12868376D01*
X16191720Y-12868376D02*
X16191720Y-12830281D01*
X16191720Y-12830281D02*
X16201244Y-12782662D01*
X16201244Y-12782662D02*
X16210767Y-12754090D01*
X16210767Y-12754090D02*
X16220291Y-12735043D01*
X16220291Y-12735043D02*
X16239339Y-12706471D01*
X16239339Y-12706471D02*
X16248863Y-12696947D01*
X16410767Y-12792186D02*
X16410767Y-12925519D01*
X16363148Y-12715995D02*
X16315529Y-12858852D01*
X16315529Y-12858852D02*
X16439339Y-12858852D01*
X16667910Y-12925519D02*
X16667910Y-12725519D01*
X16753625Y-12925519D02*
X16753625Y-12820757D01*
X16753625Y-12820757D02*
X16744101Y-12801709D01*
X16744101Y-12801709D02*
X16725053Y-12792186D01*
X16725053Y-12792186D02*
X16696482Y-12792186D01*
X16696482Y-12792186D02*
X16677434Y-12801709D01*
X16677434Y-12801709D02*
X16667910Y-12811233D01*
X16877434Y-12925519D02*
X16858387Y-12915995D01*
X16858387Y-12915995D02*
X16848863Y-12906471D01*
X16848863Y-12906471D02*
X16839339Y-12887424D01*
X16839339Y-12887424D02*
X16839339Y-12830281D01*
X16839339Y-12830281D02*
X16848863Y-12811233D01*
X16848863Y-12811233D02*
X16858387Y-12801709D01*
X16858387Y-12801709D02*
X16877434Y-12792186D01*
X16877434Y-12792186D02*
X16906006Y-12792186D01*
X16906006Y-12792186D02*
X16925053Y-12801709D01*
X16925053Y-12801709D02*
X16934577Y-12811233D01*
X16934577Y-12811233D02*
X16944101Y-12830281D01*
X16944101Y-12830281D02*
X16944101Y-12887424D01*
X16944101Y-12887424D02*
X16934577Y-12906471D01*
X16934577Y-12906471D02*
X16925053Y-12915995D01*
X16925053Y-12915995D02*
X16906006Y-12925519D01*
X16906006Y-12925519D02*
X16877434Y-12925519D01*
X17058387Y-12925519D02*
X17039339Y-12915995D01*
X17039339Y-12915995D02*
X17029815Y-12896947D01*
X17029815Y-12896947D02*
X17029815Y-12725519D01*
X17210768Y-12915995D02*
X17191720Y-12925519D01*
X17191720Y-12925519D02*
X17153625Y-12925519D01*
X17153625Y-12925519D02*
X17134577Y-12915995D01*
X17134577Y-12915995D02*
X17125053Y-12896947D01*
X17125053Y-12896947D02*
X17125053Y-12820757D01*
X17125053Y-12820757D02*
X17134577Y-12801709D01*
X17134577Y-12801709D02*
X17153625Y-12792186D01*
X17153625Y-12792186D02*
X17191720Y-12792186D01*
X17191720Y-12792186D02*
X17210768Y-12801709D01*
X17210768Y-12801709D02*
X17220291Y-12820757D01*
X17220291Y-12820757D02*
X17220291Y-12839805D01*
X17220291Y-12839805D02*
X17125053Y-12858852D01*
X17296482Y-12915995D02*
X17315530Y-12925519D01*
X17315530Y-12925519D02*
X17353625Y-12925519D01*
X17353625Y-12925519D02*
X17372672Y-12915995D01*
X17372672Y-12915995D02*
X17382196Y-12896947D01*
X17382196Y-12896947D02*
X17382196Y-12887424D01*
X17382196Y-12887424D02*
X17372672Y-12868376D01*
X17372672Y-12868376D02*
X17353625Y-12858852D01*
X17353625Y-12858852D02*
X17325053Y-12858852D01*
X17325053Y-12858852D02*
X17306006Y-12849328D01*
X17306006Y-12849328D02*
X17296482Y-12830281D01*
X17296482Y-12830281D02*
X17296482Y-12820757D01*
X17296482Y-12820757D02*
X17306006Y-12801709D01*
X17306006Y-12801709D02*
X17325053Y-12792186D01*
X17325053Y-12792186D02*
X17353625Y-12792186D01*
X17353625Y-12792186D02*
X17372672Y-12801709D01*
X17448863Y-13001709D02*
X17458387Y-12992186D01*
X17458387Y-12992186D02*
X17477434Y-12963614D01*
X17477434Y-12963614D02*
X17486958Y-12944567D01*
X17486958Y-12944567D02*
X17496482Y-12915995D01*
X17496482Y-12915995D02*
X17506006Y-12868376D01*
X17506006Y-12868376D02*
X17506006Y-12830281D01*
X17506006Y-12830281D02*
X17496482Y-12782662D01*
X17496482Y-12782662D02*
X17486958Y-12754090D01*
X17486958Y-12754090D02*
X17477434Y-12735043D01*
X17477434Y-12735043D02*
X17458387Y-12706471D01*
X17458387Y-12706471D02*
X17448863Y-12696947D01*
X17810768Y-13001709D02*
X17801244Y-12992186D01*
X17801244Y-12992186D02*
X17782196Y-12963614D01*
X17782196Y-12963614D02*
X17772672Y-12944567D01*
X17772672Y-12944567D02*
X17763149Y-12915995D01*
X17763149Y-12915995D02*
X17753625Y-12868376D01*
X17753625Y-12868376D02*
X17753625Y-12830281D01*
X17753625Y-12830281D02*
X17763149Y-12782662D01*
X17763149Y-12782662D02*
X17772672Y-12754090D01*
X17772672Y-12754090D02*
X17782196Y-12735043D01*
X17782196Y-12735043D02*
X17801244Y-12706471D01*
X17801244Y-12706471D02*
X17810768Y-12696947D01*
X17886958Y-12792186D02*
X17886958Y-12925519D01*
X17886958Y-12811233D02*
X17896482Y-12801709D01*
X17896482Y-12801709D02*
X17915530Y-12792186D01*
X17915530Y-12792186D02*
X17944101Y-12792186D01*
X17944101Y-12792186D02*
X17963149Y-12801709D01*
X17963149Y-12801709D02*
X17972672Y-12820757D01*
X17972672Y-12820757D02*
X17972672Y-12925519D01*
X18096482Y-12925519D02*
X18077434Y-12915995D01*
X18077434Y-12915995D02*
X18067911Y-12906471D01*
X18067911Y-12906471D02*
X18058387Y-12887424D01*
X18058387Y-12887424D02*
X18058387Y-12830281D01*
X18058387Y-12830281D02*
X18067911Y-12811233D01*
X18067911Y-12811233D02*
X18077434Y-12801709D01*
X18077434Y-12801709D02*
X18096482Y-12792186D01*
X18096482Y-12792186D02*
X18125053Y-12792186D01*
X18125053Y-12792186D02*
X18144101Y-12801709D01*
X18144101Y-12801709D02*
X18153625Y-12811233D01*
X18153625Y-12811233D02*
X18163149Y-12830281D01*
X18163149Y-12830281D02*
X18163149Y-12887424D01*
X18163149Y-12887424D02*
X18153625Y-12906471D01*
X18153625Y-12906471D02*
X18144101Y-12915995D01*
X18144101Y-12915995D02*
X18125053Y-12925519D01*
X18125053Y-12925519D02*
X18096482Y-12925519D01*
X18220292Y-12792186D02*
X18296482Y-12792186D01*
X18248863Y-12725519D02*
X18248863Y-12896947D01*
X18248863Y-12896947D02*
X18258387Y-12915995D01*
X18258387Y-12915995D02*
X18277434Y-12925519D01*
X18277434Y-12925519D02*
X18296482Y-12925519D01*
X18515530Y-12792186D02*
X18515530Y-12992186D01*
X18515530Y-12801709D02*
X18534577Y-12792186D01*
X18534577Y-12792186D02*
X18572673Y-12792186D01*
X18572673Y-12792186D02*
X18591720Y-12801709D01*
X18591720Y-12801709D02*
X18601244Y-12811233D01*
X18601244Y-12811233D02*
X18610768Y-12830281D01*
X18610768Y-12830281D02*
X18610768Y-12887424D01*
X18610768Y-12887424D02*
X18601244Y-12906471D01*
X18601244Y-12906471D02*
X18591720Y-12915995D01*
X18591720Y-12915995D02*
X18572673Y-12925519D01*
X18572673Y-12925519D02*
X18534577Y-12925519D01*
X18534577Y-12925519D02*
X18515530Y-12915995D01*
X18725053Y-12925519D02*
X18706006Y-12915995D01*
X18706006Y-12915995D02*
X18696482Y-12896947D01*
X18696482Y-12896947D02*
X18696482Y-12725519D01*
X18886958Y-12925519D02*
X18886958Y-12820757D01*
X18886958Y-12820757D02*
X18877434Y-12801709D01*
X18877434Y-12801709D02*
X18858387Y-12792186D01*
X18858387Y-12792186D02*
X18820292Y-12792186D01*
X18820292Y-12792186D02*
X18801244Y-12801709D01*
X18886958Y-12915995D02*
X18867911Y-12925519D01*
X18867911Y-12925519D02*
X18820292Y-12925519D01*
X18820292Y-12925519D02*
X18801244Y-12915995D01*
X18801244Y-12915995D02*
X18791720Y-12896947D01*
X18791720Y-12896947D02*
X18791720Y-12877900D01*
X18791720Y-12877900D02*
X18801244Y-12858852D01*
X18801244Y-12858852D02*
X18820292Y-12849328D01*
X18820292Y-12849328D02*
X18867911Y-12849328D01*
X18867911Y-12849328D02*
X18886958Y-12839805D01*
X18953625Y-12792186D02*
X19029815Y-12792186D01*
X18982196Y-12725519D02*
X18982196Y-12896947D01*
X18982196Y-12896947D02*
X18991720Y-12915995D01*
X18991720Y-12915995D02*
X19010768Y-12925519D01*
X19010768Y-12925519D02*
X19029815Y-12925519D01*
X19172673Y-12915995D02*
X19153625Y-12925519D01*
X19153625Y-12925519D02*
X19115530Y-12925519D01*
X19115530Y-12925519D02*
X19096482Y-12915995D01*
X19096482Y-12915995D02*
X19086958Y-12896947D01*
X19086958Y-12896947D02*
X19086958Y-12820757D01*
X19086958Y-12820757D02*
X19096482Y-12801709D01*
X19096482Y-12801709D02*
X19115530Y-12792186D01*
X19115530Y-12792186D02*
X19153625Y-12792186D01*
X19153625Y-12792186D02*
X19172673Y-12801709D01*
X19172673Y-12801709D02*
X19182196Y-12820757D01*
X19182196Y-12820757D02*
X19182196Y-12839805D01*
X19182196Y-12839805D02*
X19086958Y-12858852D01*
X19353625Y-12925519D02*
X19353625Y-12725519D01*
X19353625Y-12915995D02*
X19334577Y-12925519D01*
X19334577Y-12925519D02*
X19296482Y-12925519D01*
X19296482Y-12925519D02*
X19277434Y-12915995D01*
X19277434Y-12915995D02*
X19267911Y-12906471D01*
X19267911Y-12906471D02*
X19258387Y-12887424D01*
X19258387Y-12887424D02*
X19258387Y-12830281D01*
X19258387Y-12830281D02*
X19267911Y-12811233D01*
X19267911Y-12811233D02*
X19277434Y-12801709D01*
X19277434Y-12801709D02*
X19296482Y-12792186D01*
X19296482Y-12792186D02*
X19334577Y-12792186D01*
X19334577Y-12792186D02*
X19353625Y-12801709D01*
X19429815Y-13001709D02*
X19439339Y-12992186D01*
X19439339Y-12992186D02*
X19458387Y-12963614D01*
X19458387Y-12963614D02*
X19467911Y-12944567D01*
X19467911Y-12944567D02*
X19477434Y-12915995D01*
X19477434Y-12915995D02*
X19486958Y-12868376D01*
X19486958Y-12868376D02*
X19486958Y-12830281D01*
X19486958Y-12830281D02*
X19477434Y-12782662D01*
X19477434Y-12782662D02*
X19467911Y-12754090D01*
X19467911Y-12754090D02*
X19458387Y-12735043D01*
X19458387Y-12735043D02*
X19439339Y-12706471D01*
X19439339Y-12706471D02*
X19429815Y-12696947D01*
M02*
