G04 #@! TF.GenerationSoftware,KiCad,Pcbnew,7.0.8*
G04 #@! TF.CreationDate,2024-05-10T10:59:21-03:00*
G04 #@! TF.ProjectId,on_off_module_x2,6f6e5f6f-6666-45f6-9d6f-64756c655f78,1.0*
G04 #@! TF.SameCoordinates,Original*
G04 #@! TF.FileFunction,Soldermask,Bot*
G04 #@! TF.FilePolarity,Negative*
%FSLAX46Y46*%
G04 Gerber Fmt 4.6, Leading zero omitted, Abs format (unit mm)*
G04 Created by KiCad (PCBNEW 7.0.8) date 2024-05-10 10:59:21*
%MOMM*%
%LPD*%
G01*
G04 APERTURE LIST*
G04 Aperture macros list*
%AMRoundRect*
0 Rectangle with rounded corners*
0 $1 Rounding radius*
0 $2 $3 $4 $5 $6 $7 $8 $9 X,Y pos of 4 corners*
0 Add a 4 corners polygon primitive as box body*
4,1,4,$2,$3,$4,$5,$6,$7,$8,$9,$2,$3,0*
0 Add four circle primitives for the rounded corners*
1,1,$1+$1,$2,$3*
1,1,$1+$1,$4,$5*
1,1,$1+$1,$6,$7*
1,1,$1+$1,$8,$9*
0 Add four rect primitives between the rounded corners*
20,1,$1+$1,$2,$3,$4,$5,0*
20,1,$1+$1,$4,$5,$6,$7,0*
20,1,$1+$1,$6,$7,$8,$9,0*
20,1,$1+$1,$8,$9,$2,$3,0*%
G04 Aperture macros list end*
%ADD10R,2.600000X2.600000*%
%ADD11C,2.600000*%
%ADD12C,2.500000*%
%ADD13R,1.700000X1.700000*%
%ADD14O,1.700000X1.700000*%
%ADD15C,3.000000*%
%ADD16C,2.400000*%
%ADD17R,2.300000X2.000000*%
%ADD18C,2.300000*%
%ADD19R,1.500000X1.500000*%
%ADD20C,1.500000*%
%ADD21RoundRect,0.200000X-0.200000X-0.275000X0.200000X-0.275000X0.200000X0.275000X-0.200000X0.275000X0*%
%ADD22RoundRect,0.200000X0.200000X0.275000X-0.200000X0.275000X-0.200000X-0.275000X0.200000X-0.275000X0*%
G04 APERTURE END LIST*
D10*
X137607200Y-67295054D03*
D11*
X142687200Y-67295054D03*
D12*
X120091200Y-62481908D03*
D13*
X156540200Y-120323754D03*
D14*
X159080200Y-120323754D03*
X161620200Y-120323754D03*
D12*
X177091200Y-119481907D03*
D15*
X171907200Y-112625755D03*
X165907200Y-98425755D03*
X177907200Y-98425755D03*
X177907200Y-110625755D03*
X165907200Y-110625755D03*
X155390200Y-112625754D03*
X149390200Y-98425754D03*
X161390200Y-98425754D03*
X161390200Y-110625754D03*
X149390200Y-110625754D03*
D10*
X149037200Y-67295054D03*
D11*
X154117200Y-67295054D03*
D13*
X120599200Y-101781754D03*
D14*
X120599200Y-104321754D03*
X120599200Y-106861754D03*
X120599200Y-109401754D03*
X120599200Y-111941754D03*
X120599200Y-114481754D03*
D10*
X176987200Y-72317754D03*
D11*
X171907200Y-72317754D03*
D16*
X164795200Y-90695054D03*
X164795200Y-75695054D03*
D17*
X157619200Y-85695054D03*
D18*
X157619200Y-80695054D03*
X128219200Y-90895054D03*
X128219200Y-75495054D03*
D12*
X120091200Y-119481908D03*
X177091200Y-62481854D03*
D10*
X126182200Y-67295054D03*
D11*
X131262200Y-67295054D03*
D10*
X160467200Y-67295054D03*
D11*
X165547200Y-67295054D03*
D19*
X173511200Y-85195054D03*
D20*
X173511200Y-83195054D03*
X173511200Y-81195054D03*
X178511200Y-85195054D03*
X178511200Y-83195054D03*
X178511200Y-81195054D03*
D21*
X136538200Y-114211600D03*
X138188200Y-114211600D03*
X136538200Y-112211602D03*
X138188200Y-112211602D03*
D22*
X142698200Y-120211600D03*
X141048200Y-120211600D03*
X127298200Y-108211606D03*
X125648200Y-108211606D03*
X142698200Y-116211607D03*
X141048200Y-116211607D03*
M02*
