%TF.GenerationSoftware,KiCad,Pcbnew,7.0.8*%
%TF.CreationDate,2024-05-10T00:54:30-03:00*%
%TF.ProjectId,on_off_module_x2,6f6e5f6f-6666-45f6-9d6f-64756c655f78,1.0*%
%TF.SameCoordinates,Original*%
%TF.FileFunction,Drillmap*%
%TF.FilePolarity,Positive*%
%FSLAX45Y45*%
G04 Gerber Fmt 4.5, Leading zero omitted, Abs format (unit mm)*
G04 Created by KiCad (PCBNEW 7.0.8) date 2024-05-10 00:54:30*
%MOMM*%
%LPD*%
G01*
G04 APERTURE LIST*
%ADD10C,0.200000*%
%ADD11C,0.250000*%
G04 APERTURE END LIST*
D10*
X12009120Y-5948185D02*
X17709120Y-5948185D01*
X12009120Y-5948195D02*
G75*
G03*
X11709120Y-6248191I-10J-299990D01*
G01*
X18009120Y-6248185D02*
G75*
G03*
X17709120Y-5948185I-299990J10D01*
G01*
X11709115Y-11948191D02*
G75*
G03*
X12009120Y-12248191I299995J-5D01*
G01*
X11709120Y-11948191D02*
X11709120Y-6248191D01*
X12009120Y-12248191D02*
X17709120Y-12248191D01*
X18009120Y-6248185D02*
X18009120Y-11948191D01*
X17709120Y-12248185D02*
G75*
G03*
X18009120Y-11948191I10J299990D01*
G01*
D11*
X11884120Y-6123191D02*
X12134120Y-6373191D01*
X12134120Y-6123191D02*
X11884120Y-6373191D01*
X11884120Y-11823191D02*
X12134120Y-12073191D01*
X12134120Y-11823191D02*
X11884120Y-12073191D01*
X17584120Y-6123185D02*
X17834120Y-6373185D01*
X17834120Y-6123185D02*
X17584120Y-6373185D01*
X17584120Y-11823191D02*
X17834120Y-12073191D01*
X17834120Y-11823191D02*
X17584120Y-12073191D01*
D10*
X11959891Y-12569675D02*
X11959891Y-12369675D01*
X11959891Y-12369675D02*
X12007510Y-12369675D01*
X12007510Y-12369675D02*
X12036082Y-12379198D01*
X12036082Y-12379198D02*
X12055129Y-12398246D01*
X12055129Y-12398246D02*
X12064653Y-12417294D01*
X12064653Y-12417294D02*
X12074177Y-12455389D01*
X12074177Y-12455389D02*
X12074177Y-12483960D01*
X12074177Y-12483960D02*
X12064653Y-12522055D01*
X12064653Y-12522055D02*
X12055129Y-12541103D01*
X12055129Y-12541103D02*
X12036082Y-12560151D01*
X12036082Y-12560151D02*
X12007510Y-12569675D01*
X12007510Y-12569675D02*
X11959891Y-12569675D01*
X12159891Y-12569675D02*
X12159891Y-12436341D01*
X12159891Y-12474436D02*
X12169415Y-12455389D01*
X12169415Y-12455389D02*
X12178939Y-12445865D01*
X12178939Y-12445865D02*
X12197987Y-12436341D01*
X12197987Y-12436341D02*
X12217034Y-12436341D01*
X12283701Y-12569675D02*
X12283701Y-12436341D01*
X12283701Y-12369675D02*
X12274177Y-12379198D01*
X12274177Y-12379198D02*
X12283701Y-12388722D01*
X12283701Y-12388722D02*
X12293225Y-12379198D01*
X12293225Y-12379198D02*
X12283701Y-12369675D01*
X12283701Y-12369675D02*
X12283701Y-12388722D01*
X12407510Y-12569675D02*
X12388463Y-12560151D01*
X12388463Y-12560151D02*
X12378939Y-12541103D01*
X12378939Y-12541103D02*
X12378939Y-12369675D01*
X12512272Y-12569675D02*
X12493225Y-12560151D01*
X12493225Y-12560151D02*
X12483701Y-12541103D01*
X12483701Y-12541103D02*
X12483701Y-12369675D01*
X12740844Y-12569675D02*
X12740844Y-12369675D01*
X12740844Y-12369675D02*
X12807510Y-12512532D01*
X12807510Y-12512532D02*
X12874177Y-12369675D01*
X12874177Y-12369675D02*
X12874177Y-12569675D01*
X13055129Y-12569675D02*
X13055129Y-12464913D01*
X13055129Y-12464913D02*
X13045606Y-12445865D01*
X13045606Y-12445865D02*
X13026558Y-12436341D01*
X13026558Y-12436341D02*
X12988463Y-12436341D01*
X12988463Y-12436341D02*
X12969415Y-12445865D01*
X13055129Y-12560151D02*
X13036082Y-12569675D01*
X13036082Y-12569675D02*
X12988463Y-12569675D01*
X12988463Y-12569675D02*
X12969415Y-12560151D01*
X12969415Y-12560151D02*
X12959891Y-12541103D01*
X12959891Y-12541103D02*
X12959891Y-12522055D01*
X12959891Y-12522055D02*
X12969415Y-12503008D01*
X12969415Y-12503008D02*
X12988463Y-12493484D01*
X12988463Y-12493484D02*
X13036082Y-12493484D01*
X13036082Y-12493484D02*
X13055129Y-12483960D01*
X13150368Y-12436341D02*
X13150368Y-12636341D01*
X13150368Y-12445865D02*
X13169415Y-12436341D01*
X13169415Y-12436341D02*
X13207510Y-12436341D01*
X13207510Y-12436341D02*
X13226558Y-12445865D01*
X13226558Y-12445865D02*
X13236082Y-12455389D01*
X13236082Y-12455389D02*
X13245606Y-12474436D01*
X13245606Y-12474436D02*
X13245606Y-12531579D01*
X13245606Y-12531579D02*
X13236082Y-12550627D01*
X13236082Y-12550627D02*
X13226558Y-12560151D01*
X13226558Y-12560151D02*
X13207510Y-12569675D01*
X13207510Y-12569675D02*
X13169415Y-12569675D01*
X13169415Y-12569675D02*
X13150368Y-12560151D01*
X13331320Y-12550627D02*
X13340844Y-12560151D01*
X13340844Y-12560151D02*
X13331320Y-12569675D01*
X13331320Y-12569675D02*
X13321796Y-12560151D01*
X13321796Y-12560151D02*
X13331320Y-12550627D01*
X13331320Y-12550627D02*
X13331320Y-12569675D01*
X13331320Y-12445865D02*
X13340844Y-12455389D01*
X13340844Y-12455389D02*
X13331320Y-12464913D01*
X13331320Y-12464913D02*
X13321796Y-12455389D01*
X13321796Y-12455389D02*
X13331320Y-12445865D01*
X13331320Y-12445865D02*
X13331320Y-12464913D01*
X11499115Y-12798191D02*
X11699115Y-12998191D01*
X11699115Y-12798191D02*
X11499115Y-12998191D01*
X11950368Y-12808722D02*
X11959891Y-12799198D01*
X11959891Y-12799198D02*
X11978939Y-12789675D01*
X11978939Y-12789675D02*
X12026558Y-12789675D01*
X12026558Y-12789675D02*
X12045606Y-12799198D01*
X12045606Y-12799198D02*
X12055129Y-12808722D01*
X12055129Y-12808722D02*
X12064653Y-12827770D01*
X12064653Y-12827770D02*
X12064653Y-12846817D01*
X12064653Y-12846817D02*
X12055129Y-12875389D01*
X12055129Y-12875389D02*
X11940844Y-12989675D01*
X11940844Y-12989675D02*
X12064653Y-12989675D01*
X12150368Y-12970627D02*
X12159891Y-12980151D01*
X12159891Y-12980151D02*
X12150368Y-12989675D01*
X12150368Y-12989675D02*
X12140844Y-12980151D01*
X12140844Y-12980151D02*
X12150368Y-12970627D01*
X12150368Y-12970627D02*
X12150368Y-12989675D01*
X12340844Y-12789675D02*
X12245606Y-12789675D01*
X12245606Y-12789675D02*
X12236082Y-12884913D01*
X12236082Y-12884913D02*
X12245606Y-12875389D01*
X12245606Y-12875389D02*
X12264653Y-12865865D01*
X12264653Y-12865865D02*
X12312272Y-12865865D01*
X12312272Y-12865865D02*
X12331320Y-12875389D01*
X12331320Y-12875389D02*
X12340844Y-12884913D01*
X12340844Y-12884913D02*
X12350368Y-12903960D01*
X12350368Y-12903960D02*
X12350368Y-12951579D01*
X12350368Y-12951579D02*
X12340844Y-12970627D01*
X12340844Y-12970627D02*
X12331320Y-12980151D01*
X12331320Y-12980151D02*
X12312272Y-12989675D01*
X12312272Y-12989675D02*
X12264653Y-12989675D01*
X12264653Y-12989675D02*
X12245606Y-12980151D01*
X12245606Y-12980151D02*
X12236082Y-12970627D01*
X12474177Y-12789675D02*
X12493225Y-12789675D01*
X12493225Y-12789675D02*
X12512272Y-12799198D01*
X12512272Y-12799198D02*
X12521796Y-12808722D01*
X12521796Y-12808722D02*
X12531320Y-12827770D01*
X12531320Y-12827770D02*
X12540844Y-12865865D01*
X12540844Y-12865865D02*
X12540844Y-12913484D01*
X12540844Y-12913484D02*
X12531320Y-12951579D01*
X12531320Y-12951579D02*
X12521796Y-12970627D01*
X12521796Y-12970627D02*
X12512272Y-12980151D01*
X12512272Y-12980151D02*
X12493225Y-12989675D01*
X12493225Y-12989675D02*
X12474177Y-12989675D01*
X12474177Y-12989675D02*
X12455129Y-12980151D01*
X12455129Y-12980151D02*
X12445606Y-12970627D01*
X12445606Y-12970627D02*
X12436082Y-12951579D01*
X12436082Y-12951579D02*
X12426558Y-12913484D01*
X12426558Y-12913484D02*
X12426558Y-12865865D01*
X12426558Y-12865865D02*
X12436082Y-12827770D01*
X12436082Y-12827770D02*
X12445606Y-12808722D01*
X12445606Y-12808722D02*
X12455129Y-12799198D01*
X12455129Y-12799198D02*
X12474177Y-12789675D01*
X12664653Y-12789675D02*
X12683701Y-12789675D01*
X12683701Y-12789675D02*
X12702749Y-12799198D01*
X12702749Y-12799198D02*
X12712272Y-12808722D01*
X12712272Y-12808722D02*
X12721796Y-12827770D01*
X12721796Y-12827770D02*
X12731320Y-12865865D01*
X12731320Y-12865865D02*
X12731320Y-12913484D01*
X12731320Y-12913484D02*
X12721796Y-12951579D01*
X12721796Y-12951579D02*
X12712272Y-12970627D01*
X12712272Y-12970627D02*
X12702749Y-12980151D01*
X12702749Y-12980151D02*
X12683701Y-12989675D01*
X12683701Y-12989675D02*
X12664653Y-12989675D01*
X12664653Y-12989675D02*
X12645606Y-12980151D01*
X12645606Y-12980151D02*
X12636082Y-12970627D01*
X12636082Y-12970627D02*
X12626558Y-12951579D01*
X12626558Y-12951579D02*
X12617034Y-12913484D01*
X12617034Y-12913484D02*
X12617034Y-12865865D01*
X12617034Y-12865865D02*
X12626558Y-12827770D01*
X12626558Y-12827770D02*
X12636082Y-12808722D01*
X12636082Y-12808722D02*
X12645606Y-12799198D01*
X12645606Y-12799198D02*
X12664653Y-12789675D01*
X12817034Y-12989675D02*
X12817034Y-12856341D01*
X12817034Y-12875389D02*
X12826558Y-12865865D01*
X12826558Y-12865865D02*
X12845606Y-12856341D01*
X12845606Y-12856341D02*
X12874177Y-12856341D01*
X12874177Y-12856341D02*
X12893225Y-12865865D01*
X12893225Y-12865865D02*
X12902749Y-12884913D01*
X12902749Y-12884913D02*
X12902749Y-12989675D01*
X12902749Y-12884913D02*
X12912272Y-12865865D01*
X12912272Y-12865865D02*
X12931320Y-12856341D01*
X12931320Y-12856341D02*
X12959891Y-12856341D01*
X12959891Y-12856341D02*
X12978939Y-12865865D01*
X12978939Y-12865865D02*
X12988463Y-12884913D01*
X12988463Y-12884913D02*
X12988463Y-12989675D01*
X13083701Y-12989675D02*
X13083701Y-12856341D01*
X13083701Y-12875389D02*
X13093225Y-12865865D01*
X13093225Y-12865865D02*
X13112272Y-12856341D01*
X13112272Y-12856341D02*
X13140844Y-12856341D01*
X13140844Y-12856341D02*
X13159891Y-12865865D01*
X13159891Y-12865865D02*
X13169415Y-12884913D01*
X13169415Y-12884913D02*
X13169415Y-12989675D01*
X13169415Y-12884913D02*
X13178939Y-12865865D01*
X13178939Y-12865865D02*
X13197987Y-12856341D01*
X13197987Y-12856341D02*
X13226558Y-12856341D01*
X13226558Y-12856341D02*
X13245606Y-12865865D01*
X13245606Y-12865865D02*
X13255130Y-12884913D01*
X13255130Y-12884913D02*
X13255130Y-12989675D01*
X13645606Y-12780151D02*
X13474177Y-13037294D01*
X13902749Y-12789675D02*
X13921796Y-12789675D01*
X13921796Y-12789675D02*
X13940844Y-12799198D01*
X13940844Y-12799198D02*
X13950368Y-12808722D01*
X13950368Y-12808722D02*
X13959892Y-12827770D01*
X13959892Y-12827770D02*
X13969415Y-12865865D01*
X13969415Y-12865865D02*
X13969415Y-12913484D01*
X13969415Y-12913484D02*
X13959892Y-12951579D01*
X13959892Y-12951579D02*
X13950368Y-12970627D01*
X13950368Y-12970627D02*
X13940844Y-12980151D01*
X13940844Y-12980151D02*
X13921796Y-12989675D01*
X13921796Y-12989675D02*
X13902749Y-12989675D01*
X13902749Y-12989675D02*
X13883701Y-12980151D01*
X13883701Y-12980151D02*
X13874177Y-12970627D01*
X13874177Y-12970627D02*
X13864653Y-12951579D01*
X13864653Y-12951579D02*
X13855130Y-12913484D01*
X13855130Y-12913484D02*
X13855130Y-12865865D01*
X13855130Y-12865865D02*
X13864653Y-12827770D01*
X13864653Y-12827770D02*
X13874177Y-12808722D01*
X13874177Y-12808722D02*
X13883701Y-12799198D01*
X13883701Y-12799198D02*
X13902749Y-12789675D01*
X14055130Y-12970627D02*
X14064653Y-12980151D01*
X14064653Y-12980151D02*
X14055130Y-12989675D01*
X14055130Y-12989675D02*
X14045606Y-12980151D01*
X14045606Y-12980151D02*
X14055130Y-12970627D01*
X14055130Y-12970627D02*
X14055130Y-12989675D01*
X14188463Y-12789675D02*
X14207511Y-12789675D01*
X14207511Y-12789675D02*
X14226558Y-12799198D01*
X14226558Y-12799198D02*
X14236082Y-12808722D01*
X14236082Y-12808722D02*
X14245606Y-12827770D01*
X14245606Y-12827770D02*
X14255130Y-12865865D01*
X14255130Y-12865865D02*
X14255130Y-12913484D01*
X14255130Y-12913484D02*
X14245606Y-12951579D01*
X14245606Y-12951579D02*
X14236082Y-12970627D01*
X14236082Y-12970627D02*
X14226558Y-12980151D01*
X14226558Y-12980151D02*
X14207511Y-12989675D01*
X14207511Y-12989675D02*
X14188463Y-12989675D01*
X14188463Y-12989675D02*
X14169415Y-12980151D01*
X14169415Y-12980151D02*
X14159892Y-12970627D01*
X14159892Y-12970627D02*
X14150368Y-12951579D01*
X14150368Y-12951579D02*
X14140844Y-12913484D01*
X14140844Y-12913484D02*
X14140844Y-12865865D01*
X14140844Y-12865865D02*
X14150368Y-12827770D01*
X14150368Y-12827770D02*
X14159892Y-12808722D01*
X14159892Y-12808722D02*
X14169415Y-12799198D01*
X14169415Y-12799198D02*
X14188463Y-12789675D01*
X14350368Y-12989675D02*
X14388463Y-12989675D01*
X14388463Y-12989675D02*
X14407511Y-12980151D01*
X14407511Y-12980151D02*
X14417034Y-12970627D01*
X14417034Y-12970627D02*
X14436082Y-12942055D01*
X14436082Y-12942055D02*
X14445606Y-12903960D01*
X14445606Y-12903960D02*
X14445606Y-12827770D01*
X14445606Y-12827770D02*
X14436082Y-12808722D01*
X14436082Y-12808722D02*
X14426558Y-12799198D01*
X14426558Y-12799198D02*
X14407511Y-12789675D01*
X14407511Y-12789675D02*
X14369415Y-12789675D01*
X14369415Y-12789675D02*
X14350368Y-12799198D01*
X14350368Y-12799198D02*
X14340844Y-12808722D01*
X14340844Y-12808722D02*
X14331320Y-12827770D01*
X14331320Y-12827770D02*
X14331320Y-12875389D01*
X14331320Y-12875389D02*
X14340844Y-12894436D01*
X14340844Y-12894436D02*
X14350368Y-12903960D01*
X14350368Y-12903960D02*
X14369415Y-12913484D01*
X14369415Y-12913484D02*
X14407511Y-12913484D01*
X14407511Y-12913484D02*
X14426558Y-12903960D01*
X14426558Y-12903960D02*
X14436082Y-12894436D01*
X14436082Y-12894436D02*
X14445606Y-12875389D01*
X14559892Y-12875389D02*
X14540844Y-12865865D01*
X14540844Y-12865865D02*
X14531320Y-12856341D01*
X14531320Y-12856341D02*
X14521796Y-12837294D01*
X14521796Y-12837294D02*
X14521796Y-12827770D01*
X14521796Y-12827770D02*
X14531320Y-12808722D01*
X14531320Y-12808722D02*
X14540844Y-12799198D01*
X14540844Y-12799198D02*
X14559892Y-12789675D01*
X14559892Y-12789675D02*
X14597987Y-12789675D01*
X14597987Y-12789675D02*
X14617034Y-12799198D01*
X14617034Y-12799198D02*
X14626558Y-12808722D01*
X14626558Y-12808722D02*
X14636082Y-12827770D01*
X14636082Y-12827770D02*
X14636082Y-12837294D01*
X14636082Y-12837294D02*
X14626558Y-12856341D01*
X14626558Y-12856341D02*
X14617034Y-12865865D01*
X14617034Y-12865865D02*
X14597987Y-12875389D01*
X14597987Y-12875389D02*
X14559892Y-12875389D01*
X14559892Y-12875389D02*
X14540844Y-12884913D01*
X14540844Y-12884913D02*
X14531320Y-12894436D01*
X14531320Y-12894436D02*
X14521796Y-12913484D01*
X14521796Y-12913484D02*
X14521796Y-12951579D01*
X14521796Y-12951579D02*
X14531320Y-12970627D01*
X14531320Y-12970627D02*
X14540844Y-12980151D01*
X14540844Y-12980151D02*
X14559892Y-12989675D01*
X14559892Y-12989675D02*
X14597987Y-12989675D01*
X14597987Y-12989675D02*
X14617034Y-12980151D01*
X14617034Y-12980151D02*
X14626558Y-12970627D01*
X14626558Y-12970627D02*
X14636082Y-12951579D01*
X14636082Y-12951579D02*
X14636082Y-12913484D01*
X14636082Y-12913484D02*
X14626558Y-12894436D01*
X14626558Y-12894436D02*
X14617034Y-12884913D01*
X14617034Y-12884913D02*
X14597987Y-12875389D01*
X14807511Y-12856341D02*
X14807511Y-12989675D01*
X14759892Y-12780151D02*
X14712273Y-12923008D01*
X14712273Y-12923008D02*
X14836082Y-12923008D01*
X14902749Y-12789675D02*
X14902749Y-12827770D01*
X14978939Y-12789675D02*
X14978939Y-12827770D01*
X15274177Y-13065865D02*
X15264654Y-13056341D01*
X15264654Y-13056341D02*
X15245606Y-13027770D01*
X15245606Y-13027770D02*
X15236082Y-13008722D01*
X15236082Y-13008722D02*
X15226558Y-12980151D01*
X15226558Y-12980151D02*
X15217035Y-12932532D01*
X15217035Y-12932532D02*
X15217035Y-12894436D01*
X15217035Y-12894436D02*
X15226558Y-12846817D01*
X15226558Y-12846817D02*
X15236082Y-12818246D01*
X15236082Y-12818246D02*
X15245606Y-12799198D01*
X15245606Y-12799198D02*
X15264654Y-12770627D01*
X15264654Y-12770627D02*
X15274177Y-12761103D01*
X15436082Y-12856341D02*
X15436082Y-12989675D01*
X15388463Y-12780151D02*
X15340844Y-12923008D01*
X15340844Y-12923008D02*
X15464654Y-12923008D01*
X15693225Y-12989675D02*
X15693225Y-12789675D01*
X15778939Y-12989675D02*
X15778939Y-12884913D01*
X15778939Y-12884913D02*
X15769416Y-12865865D01*
X15769416Y-12865865D02*
X15750368Y-12856341D01*
X15750368Y-12856341D02*
X15721796Y-12856341D01*
X15721796Y-12856341D02*
X15702749Y-12865865D01*
X15702749Y-12865865D02*
X15693225Y-12875389D01*
X15902749Y-12989675D02*
X15883701Y-12980151D01*
X15883701Y-12980151D02*
X15874177Y-12970627D01*
X15874177Y-12970627D02*
X15864654Y-12951579D01*
X15864654Y-12951579D02*
X15864654Y-12894436D01*
X15864654Y-12894436D02*
X15874177Y-12875389D01*
X15874177Y-12875389D02*
X15883701Y-12865865D01*
X15883701Y-12865865D02*
X15902749Y-12856341D01*
X15902749Y-12856341D02*
X15931320Y-12856341D01*
X15931320Y-12856341D02*
X15950368Y-12865865D01*
X15950368Y-12865865D02*
X15959892Y-12875389D01*
X15959892Y-12875389D02*
X15969416Y-12894436D01*
X15969416Y-12894436D02*
X15969416Y-12951579D01*
X15969416Y-12951579D02*
X15959892Y-12970627D01*
X15959892Y-12970627D02*
X15950368Y-12980151D01*
X15950368Y-12980151D02*
X15931320Y-12989675D01*
X15931320Y-12989675D02*
X15902749Y-12989675D01*
X16083701Y-12989675D02*
X16064654Y-12980151D01*
X16064654Y-12980151D02*
X16055130Y-12961103D01*
X16055130Y-12961103D02*
X16055130Y-12789675D01*
X16236082Y-12980151D02*
X16217035Y-12989675D01*
X16217035Y-12989675D02*
X16178939Y-12989675D01*
X16178939Y-12989675D02*
X16159892Y-12980151D01*
X16159892Y-12980151D02*
X16150368Y-12961103D01*
X16150368Y-12961103D02*
X16150368Y-12884913D01*
X16150368Y-12884913D02*
X16159892Y-12865865D01*
X16159892Y-12865865D02*
X16178939Y-12856341D01*
X16178939Y-12856341D02*
X16217035Y-12856341D01*
X16217035Y-12856341D02*
X16236082Y-12865865D01*
X16236082Y-12865865D02*
X16245606Y-12884913D01*
X16245606Y-12884913D02*
X16245606Y-12903960D01*
X16245606Y-12903960D02*
X16150368Y-12923008D01*
X16321797Y-12980151D02*
X16340844Y-12989675D01*
X16340844Y-12989675D02*
X16378939Y-12989675D01*
X16378939Y-12989675D02*
X16397987Y-12980151D01*
X16397987Y-12980151D02*
X16407511Y-12961103D01*
X16407511Y-12961103D02*
X16407511Y-12951579D01*
X16407511Y-12951579D02*
X16397987Y-12932532D01*
X16397987Y-12932532D02*
X16378939Y-12923008D01*
X16378939Y-12923008D02*
X16350368Y-12923008D01*
X16350368Y-12923008D02*
X16331320Y-12913484D01*
X16331320Y-12913484D02*
X16321797Y-12894436D01*
X16321797Y-12894436D02*
X16321797Y-12884913D01*
X16321797Y-12884913D02*
X16331320Y-12865865D01*
X16331320Y-12865865D02*
X16350368Y-12856341D01*
X16350368Y-12856341D02*
X16378939Y-12856341D01*
X16378939Y-12856341D02*
X16397987Y-12865865D01*
X16474178Y-13065865D02*
X16483701Y-13056341D01*
X16483701Y-13056341D02*
X16502749Y-13027770D01*
X16502749Y-13027770D02*
X16512273Y-13008722D01*
X16512273Y-13008722D02*
X16521797Y-12980151D01*
X16521797Y-12980151D02*
X16531320Y-12932532D01*
X16531320Y-12932532D02*
X16531320Y-12894436D01*
X16531320Y-12894436D02*
X16521797Y-12846817D01*
X16521797Y-12846817D02*
X16512273Y-12818246D01*
X16512273Y-12818246D02*
X16502749Y-12799198D01*
X16502749Y-12799198D02*
X16483701Y-12770627D01*
X16483701Y-12770627D02*
X16474178Y-12761103D01*
X16836082Y-13065865D02*
X16826559Y-13056341D01*
X16826559Y-13056341D02*
X16807511Y-13027770D01*
X16807511Y-13027770D02*
X16797987Y-13008722D01*
X16797987Y-13008722D02*
X16788463Y-12980151D01*
X16788463Y-12980151D02*
X16778940Y-12932532D01*
X16778940Y-12932532D02*
X16778940Y-12894436D01*
X16778940Y-12894436D02*
X16788463Y-12846817D01*
X16788463Y-12846817D02*
X16797987Y-12818246D01*
X16797987Y-12818246D02*
X16807511Y-12799198D01*
X16807511Y-12799198D02*
X16826559Y-12770627D01*
X16826559Y-12770627D02*
X16836082Y-12761103D01*
X16912273Y-12856341D02*
X16912273Y-12989675D01*
X16912273Y-12875389D02*
X16921797Y-12865865D01*
X16921797Y-12865865D02*
X16940844Y-12856341D01*
X16940844Y-12856341D02*
X16969416Y-12856341D01*
X16969416Y-12856341D02*
X16988463Y-12865865D01*
X16988463Y-12865865D02*
X16997987Y-12884913D01*
X16997987Y-12884913D02*
X16997987Y-12989675D01*
X17121797Y-12989675D02*
X17102749Y-12980151D01*
X17102749Y-12980151D02*
X17093225Y-12970627D01*
X17093225Y-12970627D02*
X17083701Y-12951579D01*
X17083701Y-12951579D02*
X17083701Y-12894436D01*
X17083701Y-12894436D02*
X17093225Y-12875389D01*
X17093225Y-12875389D02*
X17102749Y-12865865D01*
X17102749Y-12865865D02*
X17121797Y-12856341D01*
X17121797Y-12856341D02*
X17150368Y-12856341D01*
X17150368Y-12856341D02*
X17169416Y-12865865D01*
X17169416Y-12865865D02*
X17178940Y-12875389D01*
X17178940Y-12875389D02*
X17188463Y-12894436D01*
X17188463Y-12894436D02*
X17188463Y-12951579D01*
X17188463Y-12951579D02*
X17178940Y-12970627D01*
X17178940Y-12970627D02*
X17169416Y-12980151D01*
X17169416Y-12980151D02*
X17150368Y-12989675D01*
X17150368Y-12989675D02*
X17121797Y-12989675D01*
X17245606Y-12856341D02*
X17321797Y-12856341D01*
X17274178Y-12789675D02*
X17274178Y-12961103D01*
X17274178Y-12961103D02*
X17283701Y-12980151D01*
X17283701Y-12980151D02*
X17302749Y-12989675D01*
X17302749Y-12989675D02*
X17321797Y-12989675D01*
X17540844Y-12856341D02*
X17540844Y-13056341D01*
X17540844Y-12865865D02*
X17559892Y-12856341D01*
X17559892Y-12856341D02*
X17597987Y-12856341D01*
X17597987Y-12856341D02*
X17617035Y-12865865D01*
X17617035Y-12865865D02*
X17626559Y-12875389D01*
X17626559Y-12875389D02*
X17636082Y-12894436D01*
X17636082Y-12894436D02*
X17636082Y-12951579D01*
X17636082Y-12951579D02*
X17626559Y-12970627D01*
X17626559Y-12970627D02*
X17617035Y-12980151D01*
X17617035Y-12980151D02*
X17597987Y-12989675D01*
X17597987Y-12989675D02*
X17559892Y-12989675D01*
X17559892Y-12989675D02*
X17540844Y-12980151D01*
X17750368Y-12989675D02*
X17731321Y-12980151D01*
X17731321Y-12980151D02*
X17721797Y-12961103D01*
X17721797Y-12961103D02*
X17721797Y-12789675D01*
X17912273Y-12989675D02*
X17912273Y-12884913D01*
X17912273Y-12884913D02*
X17902749Y-12865865D01*
X17902749Y-12865865D02*
X17883702Y-12856341D01*
X17883702Y-12856341D02*
X17845606Y-12856341D01*
X17845606Y-12856341D02*
X17826559Y-12865865D01*
X17912273Y-12980151D02*
X17893225Y-12989675D01*
X17893225Y-12989675D02*
X17845606Y-12989675D01*
X17845606Y-12989675D02*
X17826559Y-12980151D01*
X17826559Y-12980151D02*
X17817035Y-12961103D01*
X17817035Y-12961103D02*
X17817035Y-12942055D01*
X17817035Y-12942055D02*
X17826559Y-12923008D01*
X17826559Y-12923008D02*
X17845606Y-12913484D01*
X17845606Y-12913484D02*
X17893225Y-12913484D01*
X17893225Y-12913484D02*
X17912273Y-12903960D01*
X17978940Y-12856341D02*
X18055130Y-12856341D01*
X18007511Y-12789675D02*
X18007511Y-12961103D01*
X18007511Y-12961103D02*
X18017035Y-12980151D01*
X18017035Y-12980151D02*
X18036082Y-12989675D01*
X18036082Y-12989675D02*
X18055130Y-12989675D01*
X18197987Y-12980151D02*
X18178940Y-12989675D01*
X18178940Y-12989675D02*
X18140844Y-12989675D01*
X18140844Y-12989675D02*
X18121797Y-12980151D01*
X18121797Y-12980151D02*
X18112273Y-12961103D01*
X18112273Y-12961103D02*
X18112273Y-12884913D01*
X18112273Y-12884913D02*
X18121797Y-12865865D01*
X18121797Y-12865865D02*
X18140844Y-12856341D01*
X18140844Y-12856341D02*
X18178940Y-12856341D01*
X18178940Y-12856341D02*
X18197987Y-12865865D01*
X18197987Y-12865865D02*
X18207511Y-12884913D01*
X18207511Y-12884913D02*
X18207511Y-12903960D01*
X18207511Y-12903960D02*
X18112273Y-12923008D01*
X18378940Y-12989675D02*
X18378940Y-12789675D01*
X18378940Y-12980151D02*
X18359892Y-12989675D01*
X18359892Y-12989675D02*
X18321797Y-12989675D01*
X18321797Y-12989675D02*
X18302749Y-12980151D01*
X18302749Y-12980151D02*
X18293225Y-12970627D01*
X18293225Y-12970627D02*
X18283702Y-12951579D01*
X18283702Y-12951579D02*
X18283702Y-12894436D01*
X18283702Y-12894436D02*
X18293225Y-12875389D01*
X18293225Y-12875389D02*
X18302749Y-12865865D01*
X18302749Y-12865865D02*
X18321797Y-12856341D01*
X18321797Y-12856341D02*
X18359892Y-12856341D01*
X18359892Y-12856341D02*
X18378940Y-12865865D01*
X18455130Y-13065865D02*
X18464654Y-13056341D01*
X18464654Y-13056341D02*
X18483702Y-13027770D01*
X18483702Y-13027770D02*
X18493225Y-13008722D01*
X18493225Y-13008722D02*
X18502749Y-12980151D01*
X18502749Y-12980151D02*
X18512273Y-12932532D01*
X18512273Y-12932532D02*
X18512273Y-12894436D01*
X18512273Y-12894436D02*
X18502749Y-12846817D01*
X18502749Y-12846817D02*
X18493225Y-12818246D01*
X18493225Y-12818246D02*
X18483702Y-12799198D01*
X18483702Y-12799198D02*
X18464654Y-12770627D01*
X18464654Y-12770627D02*
X18455130Y-12761103D01*
M02*
