G04 #@! TF.GenerationSoftware,KiCad,Pcbnew,7.0.8*
G04 #@! TF.CreationDate,2024-05-10T00:54:24-03:00*
G04 #@! TF.ProjectId,on_off_module_x2,6f6e5f6f-6666-45f6-9d6f-64756c655f78,1.0*
G04 #@! TF.SameCoordinates,Original*
G04 #@! TF.FileFunction,Paste,Top*
G04 #@! TF.FilePolarity,Positive*
%FSLAX46Y46*%
G04 Gerber Fmt 4.6, Leading zero omitted, Abs format (unit mm)*
G04 Created by KiCad (PCBNEW 7.0.8) date 2024-05-10 00:54:24*
%MOMM*%
%LPD*%
G01*
G04 APERTURE LIST*
G04 Aperture macros list*
%AMRoundRect*
0 Rectangle with rounded corners*
0 $1 Rounding radius*
0 $2 $3 $4 $5 $6 $7 $8 $9 X,Y pos of 4 corners*
0 Add a 4 corners polygon primitive as box body*
4,1,4,$2,$3,$4,$5,$6,$7,$8,$9,$2,$3,0*
0 Add four circle primitives for the rounded corners*
1,1,$1+$1,$2,$3*
1,1,$1+$1,$4,$5*
1,1,$1+$1,$6,$7*
1,1,$1+$1,$8,$9*
0 Add four rect primitives between the rounded corners*
20,1,$1+$1,$2,$3,$4,$5,0*
20,1,$1+$1,$4,$5,$6,$7,0*
20,1,$1+$1,$6,$7,$8,$9,0*
20,1,$1+$1,$8,$9,$2,$3,0*%
G04 Aperture macros list end*
%ADD10RoundRect,0.225000X-0.250000X0.225000X-0.250000X-0.225000X0.250000X-0.225000X0.250000X0.225000X0*%
%ADD11RoundRect,0.150000X-0.587500X-0.150000X0.587500X-0.150000X0.587500X0.150000X-0.587500X0.150000X0*%
%ADD12RoundRect,0.125000X0.125000X0.125000X-0.125000X0.125000X-0.125000X-0.125000X0.125000X-0.125000X0*%
%ADD13RoundRect,0.218750X0.218750X0.256250X-0.218750X0.256250X-0.218750X-0.256250X0.218750X-0.256250X0*%
%ADD14RoundRect,0.200000X-0.275000X0.200000X-0.275000X-0.200000X0.275000X-0.200000X0.275000X0.200000X0*%
%ADD15R,1.500000X2.000000*%
%ADD16R,3.800000X2.000000*%
%ADD17RoundRect,0.250000X-0.425000X0.450000X-0.425000X-0.450000X0.425000X-0.450000X0.425000X0.450000X0*%
%ADD18R,2.500000X1.100000*%
%ADD19R,1.100000X2.500000*%
%ADD20R,2.000000X1.780000*%
%ADD21RoundRect,0.250000X-0.550000X1.500000X-0.550000X-1.500000X0.550000X-1.500000X0.550000X1.500000X0*%
%ADD22RoundRect,0.200000X-0.200000X-0.275000X0.200000X-0.275000X0.200000X0.275000X-0.200000X0.275000X0*%
G04 APERTURE END LIST*
D10*
X144968201Y-106211600D03*
X144968201Y-107761600D03*
D11*
X150825200Y-115817754D03*
X150825200Y-117717754D03*
X152700200Y-116767754D03*
D12*
X157513200Y-116767754D03*
X155313200Y-116767754D03*
X173769200Y-116767754D03*
X171569200Y-116767754D03*
D13*
X120223700Y-68971054D03*
X118648700Y-68971054D03*
D14*
X164787200Y-115942754D03*
X164787200Y-117592754D03*
D15*
X118807200Y-89945753D03*
X121107200Y-89945753D03*
D16*
X121107200Y-83645753D03*
D15*
X123407200Y-89945753D03*
D14*
X148270200Y-115942754D03*
X148270200Y-117592754D03*
D17*
X119503200Y-92811754D03*
X119503200Y-95511754D03*
D18*
X141873200Y-120211600D03*
X141873200Y-118211600D03*
X141873200Y-116211600D03*
X141873200Y-114211600D03*
X141873200Y-112211600D03*
X141873200Y-110211600D03*
X141873200Y-108211600D03*
X141873200Y-106211600D03*
X126473200Y-106211600D03*
X126473200Y-108211600D03*
X126473200Y-110211600D03*
X126473200Y-112211600D03*
X126473200Y-114211600D03*
X126473200Y-116211600D03*
X126473200Y-118211600D03*
X126473200Y-120211600D03*
D19*
X139183200Y-104511600D03*
X137183200Y-104511600D03*
X135183200Y-104511600D03*
X133183200Y-104511600D03*
X131183200Y-104511600D03*
X129183200Y-104511600D03*
D20*
X137617200Y-97463754D03*
X137617200Y-100003754D03*
X145237200Y-100003754D03*
X145237200Y-97463754D03*
D17*
X122551200Y-92811754D03*
X122551200Y-95511754D03*
D21*
X121361200Y-74443754D03*
X121361200Y-79843754D03*
D22*
X118631200Y-71003054D03*
X120281200Y-71003054D03*
D20*
X125425200Y-97463754D03*
X125425200Y-100003754D03*
X133045200Y-100003754D03*
X133045200Y-97463754D03*
D11*
X167335200Y-115817754D03*
X167335200Y-117717754D03*
X169210200Y-116767754D03*
M02*
