%TF.GenerationSoftware,KiCad,Pcbnew,7.0.8*%
%TF.CreationDate,2024-05-10T10:59:23-03:00*%
%TF.ProjectId,on_off_module_x2,6f6e5f6f-6666-45f6-9d6f-64756c655f78,1.0*%
%TF.SameCoordinates,Original*%
%TF.FileFunction,Drillmap*%
%TF.FilePolarity,Positive*%
%FSLAX45Y45*%
G04 Gerber Fmt 4.5, Leading zero omitted, Abs format (unit mm)*
G04 Created by KiCad (PCBNEW 7.0.8) date 2024-05-10 10:59:23*
%MOMM*%
%LPD*%
G01*
G04 APERTURE LIST*
%ADD10C,0.200000*%
%ADD11C,0.040000*%
%ADD12C,0.090000*%
%ADD13C,0.100000*%
%ADD14C,0.120000*%
%ADD15C,0.130000*%
G04 APERTURE END LIST*
D10*
X12009120Y-5948185D02*
X17709120Y-5948185D01*
X12009120Y-5948190D02*
G75*
G03*
X11709120Y-6248191I0J-300000D01*
G01*
X18009125Y-6248185D02*
G75*
G03*
X17709120Y-5948185I-299995J5D01*
G01*
X11709119Y-11948191D02*
G75*
G03*
X12009120Y-12248191I299991J-9D01*
G01*
X11709120Y-11948191D02*
X11709120Y-6248191D01*
X12009120Y-12248191D02*
X17709120Y-12248191D01*
X18009120Y-6248185D02*
X18009120Y-11948191D01*
X17709120Y-12248190D02*
G75*
G03*
X18009120Y-11948191I0J300000D01*
G01*
D11*
X11860720Y-8773875D02*
X11900720Y-8813875D01*
X11900720Y-8773875D02*
X11860720Y-8813875D01*
X11926990Y-7964375D02*
X11966990Y-8004375D01*
X11966990Y-7964375D02*
X11926990Y-8004375D01*
X12128820Y-6750105D02*
X12168820Y-6790105D01*
X12168820Y-6750105D02*
X12128820Y-6790105D01*
X12235120Y-9692975D02*
X12275120Y-9732975D01*
X12275120Y-9692975D02*
X12235120Y-9732975D01*
X12751120Y-9726375D02*
X12791120Y-9766375D01*
X12791120Y-9726375D02*
X12751120Y-9766375D01*
X12751120Y-9980375D02*
X12791120Y-10020375D01*
X12791120Y-9980375D02*
X12751120Y-10020375D01*
X12851220Y-10654960D02*
X12891220Y-10694960D01*
X12891220Y-10654960D02*
X12851220Y-10694960D01*
X12851220Y-10801161D02*
X12891220Y-10841161D01*
X12891220Y-10801161D02*
X12851220Y-10841161D01*
X12851220Y-11201160D02*
X12891220Y-11241160D01*
X12891220Y-11201160D02*
X12851220Y-11241160D01*
X13943420Y-10801160D02*
X13983420Y-10841160D01*
X13983420Y-10801160D02*
X13943420Y-10841160D01*
X13943420Y-11001160D02*
X13983420Y-11041160D01*
X13983420Y-11001160D02*
X13943420Y-11041160D01*
X13943420Y-12001160D02*
X13983420Y-12041160D01*
X13983420Y-12001160D02*
X13943420Y-12041160D01*
X13943420Y-11201160D02*
X13983420Y-11241160D01*
X13983420Y-11201160D02*
X13943420Y-11241160D01*
X13943420Y-11401160D02*
X13983420Y-11441160D01*
X13983420Y-11401160D02*
X13943420Y-11441160D01*
X13943420Y-11601161D02*
X13983420Y-11641161D01*
X13983420Y-11601161D02*
X13943420Y-11641161D01*
X13970320Y-9726375D02*
X14010320Y-9766375D01*
X14010320Y-9726375D02*
X13970320Y-9766375D01*
X13970320Y-9980375D02*
X14010320Y-10020375D01*
X14010320Y-9980375D02*
X13970320Y-10020375D01*
X14476820Y-10894775D02*
X14516820Y-10934775D01*
X14516820Y-10894775D02*
X14476820Y-10934775D01*
X14681520Y-9980375D02*
X14721520Y-10020375D01*
X14721520Y-9980375D02*
X14681520Y-10020375D01*
X14807020Y-11885375D02*
X14847020Y-11925375D01*
X14847020Y-11885375D02*
X14807020Y-11925375D01*
X16458720Y-11885375D02*
X16498720Y-11925375D01*
X16498720Y-11885375D02*
X16458720Y-11925375D01*
D12*
X17396120Y-8119505D02*
G75*
G03*
X17396120Y-8119505I-45000J0D01*
G01*
X17396120Y-8319505D02*
G75*
G03*
X17396120Y-8319505I-45000J0D01*
G01*
X17396120Y-8519505D02*
G75*
G03*
X17396120Y-8519505I-45000J0D01*
G01*
X17896120Y-8119505D02*
G75*
G03*
X17896120Y-8119505I-45000J0D01*
G01*
X17896120Y-8319505D02*
G75*
G03*
X17896120Y-8319505I-45000J0D01*
G01*
X17896120Y-8519505D02*
G75*
G03*
X17896120Y-8519505I-45000J0D01*
G01*
D13*
X12059920Y-10128175D02*
X12059920Y-10228175D01*
X12009920Y-10178175D02*
X12109920Y-10178175D01*
X12059920Y-10382175D02*
X12059920Y-10482175D01*
X12009920Y-10432175D02*
X12109920Y-10432175D01*
X12059920Y-10636175D02*
X12059920Y-10736175D01*
X12009920Y-10686175D02*
X12109920Y-10686175D01*
X12059920Y-10890175D02*
X12059920Y-10990175D01*
X12009920Y-10940175D02*
X12109920Y-10940175D01*
X12059920Y-11144175D02*
X12059920Y-11244175D01*
X12009920Y-11194175D02*
X12109920Y-11194175D01*
X12059920Y-11398175D02*
X12059920Y-11498175D01*
X12009920Y-11448175D02*
X12109920Y-11448175D01*
X12821920Y-7499505D02*
X12821920Y-7599505D01*
X12771920Y-7549505D02*
X12871920Y-7549505D01*
X12821920Y-9039505D02*
X12821920Y-9139505D01*
X12771920Y-9089505D02*
X12871920Y-9089505D01*
X15654020Y-11982375D02*
X15654020Y-12082375D01*
X15604020Y-12032375D02*
X15704020Y-12032375D01*
X15761920Y-8019505D02*
X15761920Y-8119505D01*
X15711920Y-8069505D02*
X15811920Y-8069505D01*
X15761920Y-8519505D02*
X15761920Y-8619505D01*
X15711920Y-8569505D02*
X15811920Y-8569505D01*
X15908020Y-11982375D02*
X15908020Y-12082375D01*
X15858020Y-12032375D02*
X15958020Y-12032375D01*
X16162020Y-11982375D02*
X16162020Y-12082375D01*
X16112020Y-12032375D02*
X16212020Y-12032375D01*
D14*
X16521947Y-7611932D02*
X16521947Y-7527079D01*
X16437093Y-7527079D01*
X16437093Y-7611932D01*
X16521947Y-7611932D01*
X16521947Y-9111932D02*
X16521947Y-9027079D01*
X16437093Y-9027079D01*
X16437093Y-9111932D01*
X16521947Y-9111932D01*
D15*
X12618220Y-6794505D02*
X12683220Y-6729505D01*
X12618220Y-6664505D01*
X12553220Y-6729505D01*
X12618220Y-6794505D01*
X13126220Y-6794505D02*
X13191220Y-6729505D01*
X13126220Y-6664505D01*
X13061220Y-6729505D01*
X13126220Y-6794505D01*
X13760720Y-6794505D02*
X13825720Y-6729505D01*
X13760720Y-6664505D01*
X13695720Y-6729505D01*
X13760720Y-6794505D01*
X14268720Y-6794505D02*
X14333720Y-6729505D01*
X14268720Y-6664505D01*
X14203720Y-6729505D01*
X14268720Y-6794505D01*
X14903720Y-6794505D02*
X14968720Y-6729505D01*
X14903720Y-6664505D01*
X14838720Y-6729505D01*
X14903720Y-6794505D01*
X14939020Y-9907575D02*
X15004020Y-9842575D01*
X14939020Y-9777575D01*
X14874020Y-9842575D01*
X14939020Y-9907575D01*
X14939020Y-11127575D02*
X15004020Y-11062575D01*
X14939020Y-10997575D01*
X14874020Y-11062575D01*
X14939020Y-11127575D01*
X15411720Y-6794505D02*
X15476720Y-6729505D01*
X15411720Y-6664505D01*
X15346720Y-6729505D01*
X15411720Y-6794505D01*
X15539020Y-11327575D02*
X15604020Y-11262575D01*
X15539020Y-11197575D01*
X15474020Y-11262575D01*
X15539020Y-11327575D01*
X16046720Y-6794505D02*
X16111720Y-6729505D01*
X16046720Y-6664505D01*
X15981720Y-6729505D01*
X16046720Y-6794505D01*
X16139020Y-9907575D02*
X16204020Y-9842575D01*
X16139020Y-9777575D01*
X16074020Y-9842575D01*
X16139020Y-9907575D01*
X16139020Y-11127575D02*
X16204020Y-11062575D01*
X16139020Y-10997575D01*
X16074020Y-11062575D01*
X16139020Y-11127575D01*
X16554720Y-6794505D02*
X16619720Y-6729505D01*
X16554720Y-6664505D01*
X16489720Y-6729505D01*
X16554720Y-6794505D01*
X16590720Y-9907576D02*
X16655720Y-9842576D01*
X16590720Y-9777576D01*
X16525720Y-9842576D01*
X16590720Y-9907576D01*
X16590720Y-11127576D02*
X16655720Y-11062576D01*
X16590720Y-10997576D01*
X16525720Y-11062576D01*
X16590720Y-11127576D01*
X17190720Y-7296775D02*
X17255720Y-7231775D01*
X17190720Y-7166775D01*
X17125720Y-7231775D01*
X17190720Y-7296775D01*
X17190720Y-11327575D02*
X17255720Y-11262575D01*
X17190720Y-11197575D01*
X17125720Y-11262575D01*
X17190720Y-11327575D01*
X17698720Y-7296775D02*
X17763720Y-7231775D01*
X17698720Y-7166775D01*
X17633720Y-7231775D01*
X17698720Y-7296775D01*
X17790720Y-9907576D02*
X17855720Y-9842576D01*
X17790720Y-9777576D01*
X17725720Y-9842576D01*
X17790720Y-9907576D01*
X17790720Y-11127576D02*
X17855720Y-11062576D01*
X17790720Y-10997576D01*
X17725720Y-11062576D01*
X17790720Y-11127576D01*
D10*
X11959896Y-12569675D02*
X11959896Y-12369675D01*
X11959896Y-12369675D02*
X12007515Y-12369675D01*
X12007515Y-12369675D02*
X12036086Y-12379198D01*
X12036086Y-12379198D02*
X12055134Y-12398246D01*
X12055134Y-12398246D02*
X12064658Y-12417294D01*
X12064658Y-12417294D02*
X12074182Y-12455389D01*
X12074182Y-12455389D02*
X12074182Y-12483960D01*
X12074182Y-12483960D02*
X12064658Y-12522055D01*
X12064658Y-12522055D02*
X12055134Y-12541103D01*
X12055134Y-12541103D02*
X12036086Y-12560151D01*
X12036086Y-12560151D02*
X12007515Y-12569675D01*
X12007515Y-12569675D02*
X11959896Y-12569675D01*
X12159896Y-12569675D02*
X12159896Y-12436341D01*
X12159896Y-12474436D02*
X12169420Y-12455389D01*
X12169420Y-12455389D02*
X12178944Y-12445865D01*
X12178944Y-12445865D02*
X12197991Y-12436341D01*
X12197991Y-12436341D02*
X12217039Y-12436341D01*
X12283705Y-12569675D02*
X12283705Y-12436341D01*
X12283705Y-12369675D02*
X12274182Y-12379198D01*
X12274182Y-12379198D02*
X12283705Y-12388722D01*
X12283705Y-12388722D02*
X12293229Y-12379198D01*
X12293229Y-12379198D02*
X12283705Y-12369675D01*
X12283705Y-12369675D02*
X12283705Y-12388722D01*
X12407515Y-12569675D02*
X12388467Y-12560151D01*
X12388467Y-12560151D02*
X12378944Y-12541103D01*
X12378944Y-12541103D02*
X12378944Y-12369675D01*
X12512277Y-12569675D02*
X12493229Y-12560151D01*
X12493229Y-12560151D02*
X12483705Y-12541103D01*
X12483705Y-12541103D02*
X12483705Y-12369675D01*
X12740848Y-12569675D02*
X12740848Y-12369675D01*
X12740848Y-12369675D02*
X12807515Y-12512532D01*
X12807515Y-12512532D02*
X12874182Y-12369675D01*
X12874182Y-12369675D02*
X12874182Y-12569675D01*
X13055134Y-12569675D02*
X13055134Y-12464913D01*
X13055134Y-12464913D02*
X13045610Y-12445865D01*
X13045610Y-12445865D02*
X13026563Y-12436341D01*
X13026563Y-12436341D02*
X12988467Y-12436341D01*
X12988467Y-12436341D02*
X12969420Y-12445865D01*
X13055134Y-12560151D02*
X13036086Y-12569675D01*
X13036086Y-12569675D02*
X12988467Y-12569675D01*
X12988467Y-12569675D02*
X12969420Y-12560151D01*
X12969420Y-12560151D02*
X12959896Y-12541103D01*
X12959896Y-12541103D02*
X12959896Y-12522055D01*
X12959896Y-12522055D02*
X12969420Y-12503008D01*
X12969420Y-12503008D02*
X12988467Y-12493484D01*
X12988467Y-12493484D02*
X13036086Y-12493484D01*
X13036086Y-12493484D02*
X13055134Y-12483960D01*
X13150372Y-12436341D02*
X13150372Y-12636341D01*
X13150372Y-12445865D02*
X13169420Y-12436341D01*
X13169420Y-12436341D02*
X13207515Y-12436341D01*
X13207515Y-12436341D02*
X13226563Y-12445865D01*
X13226563Y-12445865D02*
X13236086Y-12455389D01*
X13236086Y-12455389D02*
X13245610Y-12474436D01*
X13245610Y-12474436D02*
X13245610Y-12531579D01*
X13245610Y-12531579D02*
X13236086Y-12550627D01*
X13236086Y-12550627D02*
X13226563Y-12560151D01*
X13226563Y-12560151D02*
X13207515Y-12569675D01*
X13207515Y-12569675D02*
X13169420Y-12569675D01*
X13169420Y-12569675D02*
X13150372Y-12560151D01*
X13331325Y-12550627D02*
X13340848Y-12560151D01*
X13340848Y-12560151D02*
X13331325Y-12569675D01*
X13331325Y-12569675D02*
X13321801Y-12560151D01*
X13321801Y-12560151D02*
X13331325Y-12550627D01*
X13331325Y-12550627D02*
X13331325Y-12569675D01*
X13331325Y-12445865D02*
X13340848Y-12455389D01*
X13340848Y-12455389D02*
X13331325Y-12464913D01*
X13331325Y-12464913D02*
X13321801Y-12455389D01*
X13321801Y-12455389D02*
X13331325Y-12445865D01*
X13331325Y-12445865D02*
X13331325Y-12464913D01*
D11*
X11659119Y-12878191D02*
X11699119Y-12918191D01*
X11699119Y-12878191D02*
X11659119Y-12918191D01*
D10*
X11997991Y-12789675D02*
X12017039Y-12789675D01*
X12017039Y-12789675D02*
X12036086Y-12799198D01*
X12036086Y-12799198D02*
X12045610Y-12808722D01*
X12045610Y-12808722D02*
X12055134Y-12827770D01*
X12055134Y-12827770D02*
X12064658Y-12865865D01*
X12064658Y-12865865D02*
X12064658Y-12913484D01*
X12064658Y-12913484D02*
X12055134Y-12951579D01*
X12055134Y-12951579D02*
X12045610Y-12970627D01*
X12045610Y-12970627D02*
X12036086Y-12980151D01*
X12036086Y-12980151D02*
X12017039Y-12989675D01*
X12017039Y-12989675D02*
X11997991Y-12989675D01*
X11997991Y-12989675D02*
X11978944Y-12980151D01*
X11978944Y-12980151D02*
X11969420Y-12970627D01*
X11969420Y-12970627D02*
X11959896Y-12951579D01*
X11959896Y-12951579D02*
X11950372Y-12913484D01*
X11950372Y-12913484D02*
X11950372Y-12865865D01*
X11950372Y-12865865D02*
X11959896Y-12827770D01*
X11959896Y-12827770D02*
X11969420Y-12808722D01*
X11969420Y-12808722D02*
X11978944Y-12799198D01*
X11978944Y-12799198D02*
X11997991Y-12789675D01*
X12150372Y-12970627D02*
X12159896Y-12980151D01*
X12159896Y-12980151D02*
X12150372Y-12989675D01*
X12150372Y-12989675D02*
X12140848Y-12980151D01*
X12140848Y-12980151D02*
X12150372Y-12970627D01*
X12150372Y-12970627D02*
X12150372Y-12989675D01*
X12331325Y-12856341D02*
X12331325Y-12989675D01*
X12283705Y-12780151D02*
X12236086Y-12923008D01*
X12236086Y-12923008D02*
X12359896Y-12923008D01*
X12474182Y-12789675D02*
X12493229Y-12789675D01*
X12493229Y-12789675D02*
X12512277Y-12799198D01*
X12512277Y-12799198D02*
X12521801Y-12808722D01*
X12521801Y-12808722D02*
X12531325Y-12827770D01*
X12531325Y-12827770D02*
X12540848Y-12865865D01*
X12540848Y-12865865D02*
X12540848Y-12913484D01*
X12540848Y-12913484D02*
X12531325Y-12951579D01*
X12531325Y-12951579D02*
X12521801Y-12970627D01*
X12521801Y-12970627D02*
X12512277Y-12980151D01*
X12512277Y-12980151D02*
X12493229Y-12989675D01*
X12493229Y-12989675D02*
X12474182Y-12989675D01*
X12474182Y-12989675D02*
X12455134Y-12980151D01*
X12455134Y-12980151D02*
X12445610Y-12970627D01*
X12445610Y-12970627D02*
X12436086Y-12951579D01*
X12436086Y-12951579D02*
X12426563Y-12913484D01*
X12426563Y-12913484D02*
X12426563Y-12865865D01*
X12426563Y-12865865D02*
X12436086Y-12827770D01*
X12436086Y-12827770D02*
X12445610Y-12808722D01*
X12445610Y-12808722D02*
X12455134Y-12799198D01*
X12455134Y-12799198D02*
X12474182Y-12789675D01*
X12664658Y-12789675D02*
X12683706Y-12789675D01*
X12683706Y-12789675D02*
X12702753Y-12799198D01*
X12702753Y-12799198D02*
X12712277Y-12808722D01*
X12712277Y-12808722D02*
X12721801Y-12827770D01*
X12721801Y-12827770D02*
X12731325Y-12865865D01*
X12731325Y-12865865D02*
X12731325Y-12913484D01*
X12731325Y-12913484D02*
X12721801Y-12951579D01*
X12721801Y-12951579D02*
X12712277Y-12970627D01*
X12712277Y-12970627D02*
X12702753Y-12980151D01*
X12702753Y-12980151D02*
X12683706Y-12989675D01*
X12683706Y-12989675D02*
X12664658Y-12989675D01*
X12664658Y-12989675D02*
X12645610Y-12980151D01*
X12645610Y-12980151D02*
X12636086Y-12970627D01*
X12636086Y-12970627D02*
X12626563Y-12951579D01*
X12626563Y-12951579D02*
X12617039Y-12913484D01*
X12617039Y-12913484D02*
X12617039Y-12865865D01*
X12617039Y-12865865D02*
X12626563Y-12827770D01*
X12626563Y-12827770D02*
X12636086Y-12808722D01*
X12636086Y-12808722D02*
X12645610Y-12799198D01*
X12645610Y-12799198D02*
X12664658Y-12789675D01*
X12817039Y-12989675D02*
X12817039Y-12856341D01*
X12817039Y-12875389D02*
X12826563Y-12865865D01*
X12826563Y-12865865D02*
X12845610Y-12856341D01*
X12845610Y-12856341D02*
X12874182Y-12856341D01*
X12874182Y-12856341D02*
X12893229Y-12865865D01*
X12893229Y-12865865D02*
X12902753Y-12884913D01*
X12902753Y-12884913D02*
X12902753Y-12989675D01*
X12902753Y-12884913D02*
X12912277Y-12865865D01*
X12912277Y-12865865D02*
X12931325Y-12856341D01*
X12931325Y-12856341D02*
X12959896Y-12856341D01*
X12959896Y-12856341D02*
X12978944Y-12865865D01*
X12978944Y-12865865D02*
X12988467Y-12884913D01*
X12988467Y-12884913D02*
X12988467Y-12989675D01*
X13083706Y-12989675D02*
X13083706Y-12856341D01*
X13083706Y-12875389D02*
X13093229Y-12865865D01*
X13093229Y-12865865D02*
X13112277Y-12856341D01*
X13112277Y-12856341D02*
X13140848Y-12856341D01*
X13140848Y-12856341D02*
X13159896Y-12865865D01*
X13159896Y-12865865D02*
X13169420Y-12884913D01*
X13169420Y-12884913D02*
X13169420Y-12989675D01*
X13169420Y-12884913D02*
X13178944Y-12865865D01*
X13178944Y-12865865D02*
X13197991Y-12856341D01*
X13197991Y-12856341D02*
X13226563Y-12856341D01*
X13226563Y-12856341D02*
X13245610Y-12865865D01*
X13245610Y-12865865D02*
X13255134Y-12884913D01*
X13255134Y-12884913D02*
X13255134Y-12989675D01*
X13645610Y-12780151D02*
X13474182Y-13037294D01*
X13902753Y-12789675D02*
X13921801Y-12789675D01*
X13921801Y-12789675D02*
X13940849Y-12799198D01*
X13940849Y-12799198D02*
X13950372Y-12808722D01*
X13950372Y-12808722D02*
X13959896Y-12827770D01*
X13959896Y-12827770D02*
X13969420Y-12865865D01*
X13969420Y-12865865D02*
X13969420Y-12913484D01*
X13969420Y-12913484D02*
X13959896Y-12951579D01*
X13959896Y-12951579D02*
X13950372Y-12970627D01*
X13950372Y-12970627D02*
X13940849Y-12980151D01*
X13940849Y-12980151D02*
X13921801Y-12989675D01*
X13921801Y-12989675D02*
X13902753Y-12989675D01*
X13902753Y-12989675D02*
X13883706Y-12980151D01*
X13883706Y-12980151D02*
X13874182Y-12970627D01*
X13874182Y-12970627D02*
X13864658Y-12951579D01*
X13864658Y-12951579D02*
X13855134Y-12913484D01*
X13855134Y-12913484D02*
X13855134Y-12865865D01*
X13855134Y-12865865D02*
X13864658Y-12827770D01*
X13864658Y-12827770D02*
X13874182Y-12808722D01*
X13874182Y-12808722D02*
X13883706Y-12799198D01*
X13883706Y-12799198D02*
X13902753Y-12789675D01*
X14055134Y-12970627D02*
X14064658Y-12980151D01*
X14064658Y-12980151D02*
X14055134Y-12989675D01*
X14055134Y-12989675D02*
X14045610Y-12980151D01*
X14045610Y-12980151D02*
X14055134Y-12970627D01*
X14055134Y-12970627D02*
X14055134Y-12989675D01*
X14188468Y-12789675D02*
X14207515Y-12789675D01*
X14207515Y-12789675D02*
X14226563Y-12799198D01*
X14226563Y-12799198D02*
X14236087Y-12808722D01*
X14236087Y-12808722D02*
X14245610Y-12827770D01*
X14245610Y-12827770D02*
X14255134Y-12865865D01*
X14255134Y-12865865D02*
X14255134Y-12913484D01*
X14255134Y-12913484D02*
X14245610Y-12951579D01*
X14245610Y-12951579D02*
X14236087Y-12970627D01*
X14236087Y-12970627D02*
X14226563Y-12980151D01*
X14226563Y-12980151D02*
X14207515Y-12989675D01*
X14207515Y-12989675D02*
X14188468Y-12989675D01*
X14188468Y-12989675D02*
X14169420Y-12980151D01*
X14169420Y-12980151D02*
X14159896Y-12970627D01*
X14159896Y-12970627D02*
X14150372Y-12951579D01*
X14150372Y-12951579D02*
X14140849Y-12913484D01*
X14140849Y-12913484D02*
X14140849Y-12865865D01*
X14140849Y-12865865D02*
X14150372Y-12827770D01*
X14150372Y-12827770D02*
X14159896Y-12808722D01*
X14159896Y-12808722D02*
X14169420Y-12799198D01*
X14169420Y-12799198D02*
X14188468Y-12789675D01*
X14445610Y-12989675D02*
X14331325Y-12989675D01*
X14388468Y-12989675D02*
X14388468Y-12789675D01*
X14388468Y-12789675D02*
X14369420Y-12818246D01*
X14369420Y-12818246D02*
X14350372Y-12837294D01*
X14350372Y-12837294D02*
X14331325Y-12846817D01*
X14626563Y-12789675D02*
X14531325Y-12789675D01*
X14531325Y-12789675D02*
X14521801Y-12884913D01*
X14521801Y-12884913D02*
X14531325Y-12875389D01*
X14531325Y-12875389D02*
X14550372Y-12865865D01*
X14550372Y-12865865D02*
X14597991Y-12865865D01*
X14597991Y-12865865D02*
X14617039Y-12875389D01*
X14617039Y-12875389D02*
X14626563Y-12884913D01*
X14626563Y-12884913D02*
X14636087Y-12903960D01*
X14636087Y-12903960D02*
X14636087Y-12951579D01*
X14636087Y-12951579D02*
X14626563Y-12970627D01*
X14626563Y-12970627D02*
X14617039Y-12980151D01*
X14617039Y-12980151D02*
X14597991Y-12989675D01*
X14597991Y-12989675D02*
X14550372Y-12989675D01*
X14550372Y-12989675D02*
X14531325Y-12980151D01*
X14531325Y-12980151D02*
X14521801Y-12970627D01*
X14702753Y-12789675D02*
X14836087Y-12789675D01*
X14836087Y-12789675D02*
X14750372Y-12989675D01*
X14902753Y-12789675D02*
X14902753Y-12827770D01*
X14978944Y-12789675D02*
X14978944Y-12827770D01*
X15274182Y-13065865D02*
X15264658Y-13056341D01*
X15264658Y-13056341D02*
X15245611Y-13027770D01*
X15245611Y-13027770D02*
X15236087Y-13008722D01*
X15236087Y-13008722D02*
X15226563Y-12980151D01*
X15226563Y-12980151D02*
X15217039Y-12932532D01*
X15217039Y-12932532D02*
X15217039Y-12894436D01*
X15217039Y-12894436D02*
X15226563Y-12846817D01*
X15226563Y-12846817D02*
X15236087Y-12818246D01*
X15236087Y-12818246D02*
X15245611Y-12799198D01*
X15245611Y-12799198D02*
X15264658Y-12770627D01*
X15264658Y-12770627D02*
X15274182Y-12761103D01*
X15340849Y-12808722D02*
X15350372Y-12799198D01*
X15350372Y-12799198D02*
X15369420Y-12789675D01*
X15369420Y-12789675D02*
X15417039Y-12789675D01*
X15417039Y-12789675D02*
X15436087Y-12799198D01*
X15436087Y-12799198D02*
X15445611Y-12808722D01*
X15445611Y-12808722D02*
X15455134Y-12827770D01*
X15455134Y-12827770D02*
X15455134Y-12846817D01*
X15455134Y-12846817D02*
X15445611Y-12875389D01*
X15445611Y-12875389D02*
X15331325Y-12989675D01*
X15331325Y-12989675D02*
X15455134Y-12989675D01*
X15645611Y-12989675D02*
X15531325Y-12989675D01*
X15588468Y-12989675D02*
X15588468Y-12789675D01*
X15588468Y-12789675D02*
X15569420Y-12818246D01*
X15569420Y-12818246D02*
X15550372Y-12837294D01*
X15550372Y-12837294D02*
X15531325Y-12846817D01*
X15883706Y-12989675D02*
X15883706Y-12789675D01*
X15969420Y-12989675D02*
X15969420Y-12884913D01*
X15969420Y-12884913D02*
X15959896Y-12865865D01*
X15959896Y-12865865D02*
X15940849Y-12856341D01*
X15940849Y-12856341D02*
X15912277Y-12856341D01*
X15912277Y-12856341D02*
X15893230Y-12865865D01*
X15893230Y-12865865D02*
X15883706Y-12875389D01*
X16093230Y-12989675D02*
X16074182Y-12980151D01*
X16074182Y-12980151D02*
X16064658Y-12970627D01*
X16064658Y-12970627D02*
X16055134Y-12951579D01*
X16055134Y-12951579D02*
X16055134Y-12894436D01*
X16055134Y-12894436D02*
X16064658Y-12875389D01*
X16064658Y-12875389D02*
X16074182Y-12865865D01*
X16074182Y-12865865D02*
X16093230Y-12856341D01*
X16093230Y-12856341D02*
X16121801Y-12856341D01*
X16121801Y-12856341D02*
X16140849Y-12865865D01*
X16140849Y-12865865D02*
X16150373Y-12875389D01*
X16150373Y-12875389D02*
X16159896Y-12894436D01*
X16159896Y-12894436D02*
X16159896Y-12951579D01*
X16159896Y-12951579D02*
X16150373Y-12970627D01*
X16150373Y-12970627D02*
X16140849Y-12980151D01*
X16140849Y-12980151D02*
X16121801Y-12989675D01*
X16121801Y-12989675D02*
X16093230Y-12989675D01*
X16274182Y-12989675D02*
X16255134Y-12980151D01*
X16255134Y-12980151D02*
X16245611Y-12961103D01*
X16245611Y-12961103D02*
X16245611Y-12789675D01*
X16426563Y-12980151D02*
X16407515Y-12989675D01*
X16407515Y-12989675D02*
X16369420Y-12989675D01*
X16369420Y-12989675D02*
X16350373Y-12980151D01*
X16350373Y-12980151D02*
X16340849Y-12961103D01*
X16340849Y-12961103D02*
X16340849Y-12884913D01*
X16340849Y-12884913D02*
X16350373Y-12865865D01*
X16350373Y-12865865D02*
X16369420Y-12856341D01*
X16369420Y-12856341D02*
X16407515Y-12856341D01*
X16407515Y-12856341D02*
X16426563Y-12865865D01*
X16426563Y-12865865D02*
X16436087Y-12884913D01*
X16436087Y-12884913D02*
X16436087Y-12903960D01*
X16436087Y-12903960D02*
X16340849Y-12923008D01*
X16512277Y-12980151D02*
X16531325Y-12989675D01*
X16531325Y-12989675D02*
X16569420Y-12989675D01*
X16569420Y-12989675D02*
X16588468Y-12980151D01*
X16588468Y-12980151D02*
X16597992Y-12961103D01*
X16597992Y-12961103D02*
X16597992Y-12951579D01*
X16597992Y-12951579D02*
X16588468Y-12932532D01*
X16588468Y-12932532D02*
X16569420Y-12923008D01*
X16569420Y-12923008D02*
X16540849Y-12923008D01*
X16540849Y-12923008D02*
X16521801Y-12913484D01*
X16521801Y-12913484D02*
X16512277Y-12894436D01*
X16512277Y-12894436D02*
X16512277Y-12884913D01*
X16512277Y-12884913D02*
X16521801Y-12865865D01*
X16521801Y-12865865D02*
X16540849Y-12856341D01*
X16540849Y-12856341D02*
X16569420Y-12856341D01*
X16569420Y-12856341D02*
X16588468Y-12865865D01*
X16664658Y-13065865D02*
X16674182Y-13056341D01*
X16674182Y-13056341D02*
X16693230Y-13027770D01*
X16693230Y-13027770D02*
X16702754Y-13008722D01*
X16702754Y-13008722D02*
X16712277Y-12980151D01*
X16712277Y-12980151D02*
X16721801Y-12932532D01*
X16721801Y-12932532D02*
X16721801Y-12894436D01*
X16721801Y-12894436D02*
X16712277Y-12846817D01*
X16712277Y-12846817D02*
X16702754Y-12818246D01*
X16702754Y-12818246D02*
X16693230Y-12799198D01*
X16693230Y-12799198D02*
X16674182Y-12770627D01*
X16674182Y-12770627D02*
X16664658Y-12761103D01*
D12*
X11699119Y-13162191D02*
G75*
G03*
X11699119Y-13162191I-45000J0D01*
G01*
D10*
X11997991Y-13053675D02*
X12017039Y-13053675D01*
X12017039Y-13053675D02*
X12036086Y-13063198D01*
X12036086Y-13063198D02*
X12045610Y-13072722D01*
X12045610Y-13072722D02*
X12055134Y-13091770D01*
X12055134Y-13091770D02*
X12064658Y-13129865D01*
X12064658Y-13129865D02*
X12064658Y-13177484D01*
X12064658Y-13177484D02*
X12055134Y-13215579D01*
X12055134Y-13215579D02*
X12045610Y-13234627D01*
X12045610Y-13234627D02*
X12036086Y-13244151D01*
X12036086Y-13244151D02*
X12017039Y-13253675D01*
X12017039Y-13253675D02*
X11997991Y-13253675D01*
X11997991Y-13253675D02*
X11978944Y-13244151D01*
X11978944Y-13244151D02*
X11969420Y-13234627D01*
X11969420Y-13234627D02*
X11959896Y-13215579D01*
X11959896Y-13215579D02*
X11950372Y-13177484D01*
X11950372Y-13177484D02*
X11950372Y-13129865D01*
X11950372Y-13129865D02*
X11959896Y-13091770D01*
X11959896Y-13091770D02*
X11969420Y-13072722D01*
X11969420Y-13072722D02*
X11978944Y-13063198D01*
X11978944Y-13063198D02*
X11997991Y-13053675D01*
X12150372Y-13234627D02*
X12159896Y-13244151D01*
X12159896Y-13244151D02*
X12150372Y-13253675D01*
X12150372Y-13253675D02*
X12140848Y-13244151D01*
X12140848Y-13244151D02*
X12150372Y-13234627D01*
X12150372Y-13234627D02*
X12150372Y-13253675D01*
X12255134Y-13253675D02*
X12293229Y-13253675D01*
X12293229Y-13253675D02*
X12312277Y-13244151D01*
X12312277Y-13244151D02*
X12321801Y-13234627D01*
X12321801Y-13234627D02*
X12340848Y-13206055D01*
X12340848Y-13206055D02*
X12350372Y-13167960D01*
X12350372Y-13167960D02*
X12350372Y-13091770D01*
X12350372Y-13091770D02*
X12340848Y-13072722D01*
X12340848Y-13072722D02*
X12331325Y-13063198D01*
X12331325Y-13063198D02*
X12312277Y-13053675D01*
X12312277Y-13053675D02*
X12274182Y-13053675D01*
X12274182Y-13053675D02*
X12255134Y-13063198D01*
X12255134Y-13063198D02*
X12245610Y-13072722D01*
X12245610Y-13072722D02*
X12236086Y-13091770D01*
X12236086Y-13091770D02*
X12236086Y-13139389D01*
X12236086Y-13139389D02*
X12245610Y-13158436D01*
X12245610Y-13158436D02*
X12255134Y-13167960D01*
X12255134Y-13167960D02*
X12274182Y-13177484D01*
X12274182Y-13177484D02*
X12312277Y-13177484D01*
X12312277Y-13177484D02*
X12331325Y-13167960D01*
X12331325Y-13167960D02*
X12340848Y-13158436D01*
X12340848Y-13158436D02*
X12350372Y-13139389D01*
X12474182Y-13053675D02*
X12493229Y-13053675D01*
X12493229Y-13053675D02*
X12512277Y-13063198D01*
X12512277Y-13063198D02*
X12521801Y-13072722D01*
X12521801Y-13072722D02*
X12531325Y-13091770D01*
X12531325Y-13091770D02*
X12540848Y-13129865D01*
X12540848Y-13129865D02*
X12540848Y-13177484D01*
X12540848Y-13177484D02*
X12531325Y-13215579D01*
X12531325Y-13215579D02*
X12521801Y-13234627D01*
X12521801Y-13234627D02*
X12512277Y-13244151D01*
X12512277Y-13244151D02*
X12493229Y-13253675D01*
X12493229Y-13253675D02*
X12474182Y-13253675D01*
X12474182Y-13253675D02*
X12455134Y-13244151D01*
X12455134Y-13244151D02*
X12445610Y-13234627D01*
X12445610Y-13234627D02*
X12436086Y-13215579D01*
X12436086Y-13215579D02*
X12426563Y-13177484D01*
X12426563Y-13177484D02*
X12426563Y-13129865D01*
X12426563Y-13129865D02*
X12436086Y-13091770D01*
X12436086Y-13091770D02*
X12445610Y-13072722D01*
X12445610Y-13072722D02*
X12455134Y-13063198D01*
X12455134Y-13063198D02*
X12474182Y-13053675D01*
X12664658Y-13053675D02*
X12683706Y-13053675D01*
X12683706Y-13053675D02*
X12702753Y-13063198D01*
X12702753Y-13063198D02*
X12712277Y-13072722D01*
X12712277Y-13072722D02*
X12721801Y-13091770D01*
X12721801Y-13091770D02*
X12731325Y-13129865D01*
X12731325Y-13129865D02*
X12731325Y-13177484D01*
X12731325Y-13177484D02*
X12721801Y-13215579D01*
X12721801Y-13215579D02*
X12712277Y-13234627D01*
X12712277Y-13234627D02*
X12702753Y-13244151D01*
X12702753Y-13244151D02*
X12683706Y-13253675D01*
X12683706Y-13253675D02*
X12664658Y-13253675D01*
X12664658Y-13253675D02*
X12645610Y-13244151D01*
X12645610Y-13244151D02*
X12636086Y-13234627D01*
X12636086Y-13234627D02*
X12626563Y-13215579D01*
X12626563Y-13215579D02*
X12617039Y-13177484D01*
X12617039Y-13177484D02*
X12617039Y-13129865D01*
X12617039Y-13129865D02*
X12626563Y-13091770D01*
X12626563Y-13091770D02*
X12636086Y-13072722D01*
X12636086Y-13072722D02*
X12645610Y-13063198D01*
X12645610Y-13063198D02*
X12664658Y-13053675D01*
X12817039Y-13253675D02*
X12817039Y-13120341D01*
X12817039Y-13139389D02*
X12826563Y-13129865D01*
X12826563Y-13129865D02*
X12845610Y-13120341D01*
X12845610Y-13120341D02*
X12874182Y-13120341D01*
X12874182Y-13120341D02*
X12893229Y-13129865D01*
X12893229Y-13129865D02*
X12902753Y-13148913D01*
X12902753Y-13148913D02*
X12902753Y-13253675D01*
X12902753Y-13148913D02*
X12912277Y-13129865D01*
X12912277Y-13129865D02*
X12931325Y-13120341D01*
X12931325Y-13120341D02*
X12959896Y-13120341D01*
X12959896Y-13120341D02*
X12978944Y-13129865D01*
X12978944Y-13129865D02*
X12988467Y-13148913D01*
X12988467Y-13148913D02*
X12988467Y-13253675D01*
X13083706Y-13253675D02*
X13083706Y-13120341D01*
X13083706Y-13139389D02*
X13093229Y-13129865D01*
X13093229Y-13129865D02*
X13112277Y-13120341D01*
X13112277Y-13120341D02*
X13140848Y-13120341D01*
X13140848Y-13120341D02*
X13159896Y-13129865D01*
X13159896Y-13129865D02*
X13169420Y-13148913D01*
X13169420Y-13148913D02*
X13169420Y-13253675D01*
X13169420Y-13148913D02*
X13178944Y-13129865D01*
X13178944Y-13129865D02*
X13197991Y-13120341D01*
X13197991Y-13120341D02*
X13226563Y-13120341D01*
X13226563Y-13120341D02*
X13245610Y-13129865D01*
X13245610Y-13129865D02*
X13255134Y-13148913D01*
X13255134Y-13148913D02*
X13255134Y-13253675D01*
X13645610Y-13044151D02*
X13474182Y-13301294D01*
X13902753Y-13053675D02*
X13921801Y-13053675D01*
X13921801Y-13053675D02*
X13940849Y-13063198D01*
X13940849Y-13063198D02*
X13950372Y-13072722D01*
X13950372Y-13072722D02*
X13959896Y-13091770D01*
X13959896Y-13091770D02*
X13969420Y-13129865D01*
X13969420Y-13129865D02*
X13969420Y-13177484D01*
X13969420Y-13177484D02*
X13959896Y-13215579D01*
X13959896Y-13215579D02*
X13950372Y-13234627D01*
X13950372Y-13234627D02*
X13940849Y-13244151D01*
X13940849Y-13244151D02*
X13921801Y-13253675D01*
X13921801Y-13253675D02*
X13902753Y-13253675D01*
X13902753Y-13253675D02*
X13883706Y-13244151D01*
X13883706Y-13244151D02*
X13874182Y-13234627D01*
X13874182Y-13234627D02*
X13864658Y-13215579D01*
X13864658Y-13215579D02*
X13855134Y-13177484D01*
X13855134Y-13177484D02*
X13855134Y-13129865D01*
X13855134Y-13129865D02*
X13864658Y-13091770D01*
X13864658Y-13091770D02*
X13874182Y-13072722D01*
X13874182Y-13072722D02*
X13883706Y-13063198D01*
X13883706Y-13063198D02*
X13902753Y-13053675D01*
X14055134Y-13234627D02*
X14064658Y-13244151D01*
X14064658Y-13244151D02*
X14055134Y-13253675D01*
X14055134Y-13253675D02*
X14045610Y-13244151D01*
X14045610Y-13244151D02*
X14055134Y-13234627D01*
X14055134Y-13234627D02*
X14055134Y-13253675D01*
X14188468Y-13053675D02*
X14207515Y-13053675D01*
X14207515Y-13053675D02*
X14226563Y-13063198D01*
X14226563Y-13063198D02*
X14236087Y-13072722D01*
X14236087Y-13072722D02*
X14245610Y-13091770D01*
X14245610Y-13091770D02*
X14255134Y-13129865D01*
X14255134Y-13129865D02*
X14255134Y-13177484D01*
X14255134Y-13177484D02*
X14245610Y-13215579D01*
X14245610Y-13215579D02*
X14236087Y-13234627D01*
X14236087Y-13234627D02*
X14226563Y-13244151D01*
X14226563Y-13244151D02*
X14207515Y-13253675D01*
X14207515Y-13253675D02*
X14188468Y-13253675D01*
X14188468Y-13253675D02*
X14169420Y-13244151D01*
X14169420Y-13244151D02*
X14159896Y-13234627D01*
X14159896Y-13234627D02*
X14150372Y-13215579D01*
X14150372Y-13215579D02*
X14140849Y-13177484D01*
X14140849Y-13177484D02*
X14140849Y-13129865D01*
X14140849Y-13129865D02*
X14150372Y-13091770D01*
X14150372Y-13091770D02*
X14159896Y-13072722D01*
X14159896Y-13072722D02*
X14169420Y-13063198D01*
X14169420Y-13063198D02*
X14188468Y-13053675D01*
X14321801Y-13053675D02*
X14445610Y-13053675D01*
X14445610Y-13053675D02*
X14378944Y-13129865D01*
X14378944Y-13129865D02*
X14407515Y-13129865D01*
X14407515Y-13129865D02*
X14426563Y-13139389D01*
X14426563Y-13139389D02*
X14436087Y-13148913D01*
X14436087Y-13148913D02*
X14445610Y-13167960D01*
X14445610Y-13167960D02*
X14445610Y-13215579D01*
X14445610Y-13215579D02*
X14436087Y-13234627D01*
X14436087Y-13234627D02*
X14426563Y-13244151D01*
X14426563Y-13244151D02*
X14407515Y-13253675D01*
X14407515Y-13253675D02*
X14350372Y-13253675D01*
X14350372Y-13253675D02*
X14331325Y-13244151D01*
X14331325Y-13244151D02*
X14321801Y-13234627D01*
X14626563Y-13053675D02*
X14531325Y-13053675D01*
X14531325Y-13053675D02*
X14521801Y-13148913D01*
X14521801Y-13148913D02*
X14531325Y-13139389D01*
X14531325Y-13139389D02*
X14550372Y-13129865D01*
X14550372Y-13129865D02*
X14597991Y-13129865D01*
X14597991Y-13129865D02*
X14617039Y-13139389D01*
X14617039Y-13139389D02*
X14626563Y-13148913D01*
X14626563Y-13148913D02*
X14636087Y-13167960D01*
X14636087Y-13167960D02*
X14636087Y-13215579D01*
X14636087Y-13215579D02*
X14626563Y-13234627D01*
X14626563Y-13234627D02*
X14617039Y-13244151D01*
X14617039Y-13244151D02*
X14597991Y-13253675D01*
X14597991Y-13253675D02*
X14550372Y-13253675D01*
X14550372Y-13253675D02*
X14531325Y-13244151D01*
X14531325Y-13244151D02*
X14521801Y-13234627D01*
X14807515Y-13120341D02*
X14807515Y-13253675D01*
X14759896Y-13044151D02*
X14712277Y-13187008D01*
X14712277Y-13187008D02*
X14836087Y-13187008D01*
X14902753Y-13053675D02*
X14902753Y-13091770D01*
X14978944Y-13053675D02*
X14978944Y-13091770D01*
X15274182Y-13329865D02*
X15264658Y-13320341D01*
X15264658Y-13320341D02*
X15245611Y-13291770D01*
X15245611Y-13291770D02*
X15236087Y-13272722D01*
X15236087Y-13272722D02*
X15226563Y-13244151D01*
X15226563Y-13244151D02*
X15217039Y-13196532D01*
X15217039Y-13196532D02*
X15217039Y-13158436D01*
X15217039Y-13158436D02*
X15226563Y-13110817D01*
X15226563Y-13110817D02*
X15236087Y-13082246D01*
X15236087Y-13082246D02*
X15245611Y-13063198D01*
X15245611Y-13063198D02*
X15264658Y-13034627D01*
X15264658Y-13034627D02*
X15274182Y-13025103D01*
X15436087Y-13053675D02*
X15397991Y-13053675D01*
X15397991Y-13053675D02*
X15378944Y-13063198D01*
X15378944Y-13063198D02*
X15369420Y-13072722D01*
X15369420Y-13072722D02*
X15350372Y-13101294D01*
X15350372Y-13101294D02*
X15340849Y-13139389D01*
X15340849Y-13139389D02*
X15340849Y-13215579D01*
X15340849Y-13215579D02*
X15350372Y-13234627D01*
X15350372Y-13234627D02*
X15359896Y-13244151D01*
X15359896Y-13244151D02*
X15378944Y-13253675D01*
X15378944Y-13253675D02*
X15417039Y-13253675D01*
X15417039Y-13253675D02*
X15436087Y-13244151D01*
X15436087Y-13244151D02*
X15445611Y-13234627D01*
X15445611Y-13234627D02*
X15455134Y-13215579D01*
X15455134Y-13215579D02*
X15455134Y-13167960D01*
X15455134Y-13167960D02*
X15445611Y-13148913D01*
X15445611Y-13148913D02*
X15436087Y-13139389D01*
X15436087Y-13139389D02*
X15417039Y-13129865D01*
X15417039Y-13129865D02*
X15378944Y-13129865D01*
X15378944Y-13129865D02*
X15359896Y-13139389D01*
X15359896Y-13139389D02*
X15350372Y-13148913D01*
X15350372Y-13148913D02*
X15340849Y-13167960D01*
X15693230Y-13253675D02*
X15693230Y-13053675D01*
X15778944Y-13253675D02*
X15778944Y-13148913D01*
X15778944Y-13148913D02*
X15769420Y-13129865D01*
X15769420Y-13129865D02*
X15750373Y-13120341D01*
X15750373Y-13120341D02*
X15721801Y-13120341D01*
X15721801Y-13120341D02*
X15702753Y-13129865D01*
X15702753Y-13129865D02*
X15693230Y-13139389D01*
X15902753Y-13253675D02*
X15883706Y-13244151D01*
X15883706Y-13244151D02*
X15874182Y-13234627D01*
X15874182Y-13234627D02*
X15864658Y-13215579D01*
X15864658Y-13215579D02*
X15864658Y-13158436D01*
X15864658Y-13158436D02*
X15874182Y-13139389D01*
X15874182Y-13139389D02*
X15883706Y-13129865D01*
X15883706Y-13129865D02*
X15902753Y-13120341D01*
X15902753Y-13120341D02*
X15931325Y-13120341D01*
X15931325Y-13120341D02*
X15950373Y-13129865D01*
X15950373Y-13129865D02*
X15959896Y-13139389D01*
X15959896Y-13139389D02*
X15969420Y-13158436D01*
X15969420Y-13158436D02*
X15969420Y-13215579D01*
X15969420Y-13215579D02*
X15959896Y-13234627D01*
X15959896Y-13234627D02*
X15950373Y-13244151D01*
X15950373Y-13244151D02*
X15931325Y-13253675D01*
X15931325Y-13253675D02*
X15902753Y-13253675D01*
X16083706Y-13253675D02*
X16064658Y-13244151D01*
X16064658Y-13244151D02*
X16055134Y-13225103D01*
X16055134Y-13225103D02*
X16055134Y-13053675D01*
X16236087Y-13244151D02*
X16217039Y-13253675D01*
X16217039Y-13253675D02*
X16178944Y-13253675D01*
X16178944Y-13253675D02*
X16159896Y-13244151D01*
X16159896Y-13244151D02*
X16150373Y-13225103D01*
X16150373Y-13225103D02*
X16150373Y-13148913D01*
X16150373Y-13148913D02*
X16159896Y-13129865D01*
X16159896Y-13129865D02*
X16178944Y-13120341D01*
X16178944Y-13120341D02*
X16217039Y-13120341D01*
X16217039Y-13120341D02*
X16236087Y-13129865D01*
X16236087Y-13129865D02*
X16245611Y-13148913D01*
X16245611Y-13148913D02*
X16245611Y-13167960D01*
X16245611Y-13167960D02*
X16150373Y-13187008D01*
X16321801Y-13244151D02*
X16340849Y-13253675D01*
X16340849Y-13253675D02*
X16378944Y-13253675D01*
X16378944Y-13253675D02*
X16397992Y-13244151D01*
X16397992Y-13244151D02*
X16407515Y-13225103D01*
X16407515Y-13225103D02*
X16407515Y-13215579D01*
X16407515Y-13215579D02*
X16397992Y-13196532D01*
X16397992Y-13196532D02*
X16378944Y-13187008D01*
X16378944Y-13187008D02*
X16350373Y-13187008D01*
X16350373Y-13187008D02*
X16331325Y-13177484D01*
X16331325Y-13177484D02*
X16321801Y-13158436D01*
X16321801Y-13158436D02*
X16321801Y-13148913D01*
X16321801Y-13148913D02*
X16331325Y-13129865D01*
X16331325Y-13129865D02*
X16350373Y-13120341D01*
X16350373Y-13120341D02*
X16378944Y-13120341D01*
X16378944Y-13120341D02*
X16397992Y-13129865D01*
X16474182Y-13329865D02*
X16483706Y-13320341D01*
X16483706Y-13320341D02*
X16502754Y-13291770D01*
X16502754Y-13291770D02*
X16512277Y-13272722D01*
X16512277Y-13272722D02*
X16521801Y-13244151D01*
X16521801Y-13244151D02*
X16531325Y-13196532D01*
X16531325Y-13196532D02*
X16531325Y-13158436D01*
X16531325Y-13158436D02*
X16521801Y-13110817D01*
X16521801Y-13110817D02*
X16512277Y-13082246D01*
X16512277Y-13082246D02*
X16502754Y-13063198D01*
X16502754Y-13063198D02*
X16483706Y-13034627D01*
X16483706Y-13034627D02*
X16474182Y-13025103D01*
D13*
X11649119Y-13376191D02*
X11649119Y-13476191D01*
X11599119Y-13426191D02*
X11699119Y-13426191D01*
D10*
X12064658Y-13517675D02*
X11950372Y-13517675D01*
X12007515Y-13517675D02*
X12007515Y-13317675D01*
X12007515Y-13317675D02*
X11988467Y-13346246D01*
X11988467Y-13346246D02*
X11969420Y-13365294D01*
X11969420Y-13365294D02*
X11950372Y-13374817D01*
X12150372Y-13498627D02*
X12159896Y-13508151D01*
X12159896Y-13508151D02*
X12150372Y-13517675D01*
X12150372Y-13517675D02*
X12140848Y-13508151D01*
X12140848Y-13508151D02*
X12150372Y-13498627D01*
X12150372Y-13498627D02*
X12150372Y-13517675D01*
X12283705Y-13317675D02*
X12302753Y-13317675D01*
X12302753Y-13317675D02*
X12321801Y-13327198D01*
X12321801Y-13327198D02*
X12331325Y-13336722D01*
X12331325Y-13336722D02*
X12340848Y-13355770D01*
X12340848Y-13355770D02*
X12350372Y-13393865D01*
X12350372Y-13393865D02*
X12350372Y-13441484D01*
X12350372Y-13441484D02*
X12340848Y-13479579D01*
X12340848Y-13479579D02*
X12331325Y-13498627D01*
X12331325Y-13498627D02*
X12321801Y-13508151D01*
X12321801Y-13508151D02*
X12302753Y-13517675D01*
X12302753Y-13517675D02*
X12283705Y-13517675D01*
X12283705Y-13517675D02*
X12264658Y-13508151D01*
X12264658Y-13508151D02*
X12255134Y-13498627D01*
X12255134Y-13498627D02*
X12245610Y-13479579D01*
X12245610Y-13479579D02*
X12236086Y-13441484D01*
X12236086Y-13441484D02*
X12236086Y-13393865D01*
X12236086Y-13393865D02*
X12245610Y-13355770D01*
X12245610Y-13355770D02*
X12255134Y-13336722D01*
X12255134Y-13336722D02*
X12264658Y-13327198D01*
X12264658Y-13327198D02*
X12283705Y-13317675D01*
X12474182Y-13317675D02*
X12493229Y-13317675D01*
X12493229Y-13317675D02*
X12512277Y-13327198D01*
X12512277Y-13327198D02*
X12521801Y-13336722D01*
X12521801Y-13336722D02*
X12531325Y-13355770D01*
X12531325Y-13355770D02*
X12540848Y-13393865D01*
X12540848Y-13393865D02*
X12540848Y-13441484D01*
X12540848Y-13441484D02*
X12531325Y-13479579D01*
X12531325Y-13479579D02*
X12521801Y-13498627D01*
X12521801Y-13498627D02*
X12512277Y-13508151D01*
X12512277Y-13508151D02*
X12493229Y-13517675D01*
X12493229Y-13517675D02*
X12474182Y-13517675D01*
X12474182Y-13517675D02*
X12455134Y-13508151D01*
X12455134Y-13508151D02*
X12445610Y-13498627D01*
X12445610Y-13498627D02*
X12436086Y-13479579D01*
X12436086Y-13479579D02*
X12426563Y-13441484D01*
X12426563Y-13441484D02*
X12426563Y-13393865D01*
X12426563Y-13393865D02*
X12436086Y-13355770D01*
X12436086Y-13355770D02*
X12445610Y-13336722D01*
X12445610Y-13336722D02*
X12455134Y-13327198D01*
X12455134Y-13327198D02*
X12474182Y-13317675D01*
X12664658Y-13317675D02*
X12683706Y-13317675D01*
X12683706Y-13317675D02*
X12702753Y-13327198D01*
X12702753Y-13327198D02*
X12712277Y-13336722D01*
X12712277Y-13336722D02*
X12721801Y-13355770D01*
X12721801Y-13355770D02*
X12731325Y-13393865D01*
X12731325Y-13393865D02*
X12731325Y-13441484D01*
X12731325Y-13441484D02*
X12721801Y-13479579D01*
X12721801Y-13479579D02*
X12712277Y-13498627D01*
X12712277Y-13498627D02*
X12702753Y-13508151D01*
X12702753Y-13508151D02*
X12683706Y-13517675D01*
X12683706Y-13517675D02*
X12664658Y-13517675D01*
X12664658Y-13517675D02*
X12645610Y-13508151D01*
X12645610Y-13508151D02*
X12636086Y-13498627D01*
X12636086Y-13498627D02*
X12626563Y-13479579D01*
X12626563Y-13479579D02*
X12617039Y-13441484D01*
X12617039Y-13441484D02*
X12617039Y-13393865D01*
X12617039Y-13393865D02*
X12626563Y-13355770D01*
X12626563Y-13355770D02*
X12636086Y-13336722D01*
X12636086Y-13336722D02*
X12645610Y-13327198D01*
X12645610Y-13327198D02*
X12664658Y-13317675D01*
X12817039Y-13517675D02*
X12817039Y-13384341D01*
X12817039Y-13403389D02*
X12826563Y-13393865D01*
X12826563Y-13393865D02*
X12845610Y-13384341D01*
X12845610Y-13384341D02*
X12874182Y-13384341D01*
X12874182Y-13384341D02*
X12893229Y-13393865D01*
X12893229Y-13393865D02*
X12902753Y-13412913D01*
X12902753Y-13412913D02*
X12902753Y-13517675D01*
X12902753Y-13412913D02*
X12912277Y-13393865D01*
X12912277Y-13393865D02*
X12931325Y-13384341D01*
X12931325Y-13384341D02*
X12959896Y-13384341D01*
X12959896Y-13384341D02*
X12978944Y-13393865D01*
X12978944Y-13393865D02*
X12988467Y-13412913D01*
X12988467Y-13412913D02*
X12988467Y-13517675D01*
X13083706Y-13517675D02*
X13083706Y-13384341D01*
X13083706Y-13403389D02*
X13093229Y-13393865D01*
X13093229Y-13393865D02*
X13112277Y-13384341D01*
X13112277Y-13384341D02*
X13140848Y-13384341D01*
X13140848Y-13384341D02*
X13159896Y-13393865D01*
X13159896Y-13393865D02*
X13169420Y-13412913D01*
X13169420Y-13412913D02*
X13169420Y-13517675D01*
X13169420Y-13412913D02*
X13178944Y-13393865D01*
X13178944Y-13393865D02*
X13197991Y-13384341D01*
X13197991Y-13384341D02*
X13226563Y-13384341D01*
X13226563Y-13384341D02*
X13245610Y-13393865D01*
X13245610Y-13393865D02*
X13255134Y-13412913D01*
X13255134Y-13412913D02*
X13255134Y-13517675D01*
X13645610Y-13308151D02*
X13474182Y-13565294D01*
X13902753Y-13317675D02*
X13921801Y-13317675D01*
X13921801Y-13317675D02*
X13940849Y-13327198D01*
X13940849Y-13327198D02*
X13950372Y-13336722D01*
X13950372Y-13336722D02*
X13959896Y-13355770D01*
X13959896Y-13355770D02*
X13969420Y-13393865D01*
X13969420Y-13393865D02*
X13969420Y-13441484D01*
X13969420Y-13441484D02*
X13959896Y-13479579D01*
X13959896Y-13479579D02*
X13950372Y-13498627D01*
X13950372Y-13498627D02*
X13940849Y-13508151D01*
X13940849Y-13508151D02*
X13921801Y-13517675D01*
X13921801Y-13517675D02*
X13902753Y-13517675D01*
X13902753Y-13517675D02*
X13883706Y-13508151D01*
X13883706Y-13508151D02*
X13874182Y-13498627D01*
X13874182Y-13498627D02*
X13864658Y-13479579D01*
X13864658Y-13479579D02*
X13855134Y-13441484D01*
X13855134Y-13441484D02*
X13855134Y-13393865D01*
X13855134Y-13393865D02*
X13864658Y-13355770D01*
X13864658Y-13355770D02*
X13874182Y-13336722D01*
X13874182Y-13336722D02*
X13883706Y-13327198D01*
X13883706Y-13327198D02*
X13902753Y-13317675D01*
X14055134Y-13498627D02*
X14064658Y-13508151D01*
X14064658Y-13508151D02*
X14055134Y-13517675D01*
X14055134Y-13517675D02*
X14045610Y-13508151D01*
X14045610Y-13508151D02*
X14055134Y-13498627D01*
X14055134Y-13498627D02*
X14055134Y-13517675D01*
X14188468Y-13317675D02*
X14207515Y-13317675D01*
X14207515Y-13317675D02*
X14226563Y-13327198D01*
X14226563Y-13327198D02*
X14236087Y-13336722D01*
X14236087Y-13336722D02*
X14245610Y-13355770D01*
X14245610Y-13355770D02*
X14255134Y-13393865D01*
X14255134Y-13393865D02*
X14255134Y-13441484D01*
X14255134Y-13441484D02*
X14245610Y-13479579D01*
X14245610Y-13479579D02*
X14236087Y-13498627D01*
X14236087Y-13498627D02*
X14226563Y-13508151D01*
X14226563Y-13508151D02*
X14207515Y-13517675D01*
X14207515Y-13517675D02*
X14188468Y-13517675D01*
X14188468Y-13517675D02*
X14169420Y-13508151D01*
X14169420Y-13508151D02*
X14159896Y-13498627D01*
X14159896Y-13498627D02*
X14150372Y-13479579D01*
X14150372Y-13479579D02*
X14140849Y-13441484D01*
X14140849Y-13441484D02*
X14140849Y-13393865D01*
X14140849Y-13393865D02*
X14150372Y-13355770D01*
X14150372Y-13355770D02*
X14159896Y-13336722D01*
X14159896Y-13336722D02*
X14169420Y-13327198D01*
X14169420Y-13327198D02*
X14188468Y-13317675D01*
X14321801Y-13317675D02*
X14445610Y-13317675D01*
X14445610Y-13317675D02*
X14378944Y-13393865D01*
X14378944Y-13393865D02*
X14407515Y-13393865D01*
X14407515Y-13393865D02*
X14426563Y-13403389D01*
X14426563Y-13403389D02*
X14436087Y-13412913D01*
X14436087Y-13412913D02*
X14445610Y-13431960D01*
X14445610Y-13431960D02*
X14445610Y-13479579D01*
X14445610Y-13479579D02*
X14436087Y-13498627D01*
X14436087Y-13498627D02*
X14426563Y-13508151D01*
X14426563Y-13508151D02*
X14407515Y-13517675D01*
X14407515Y-13517675D02*
X14350372Y-13517675D01*
X14350372Y-13517675D02*
X14331325Y-13508151D01*
X14331325Y-13508151D02*
X14321801Y-13498627D01*
X14540849Y-13517675D02*
X14578944Y-13517675D01*
X14578944Y-13517675D02*
X14597991Y-13508151D01*
X14597991Y-13508151D02*
X14607515Y-13498627D01*
X14607515Y-13498627D02*
X14626563Y-13470055D01*
X14626563Y-13470055D02*
X14636087Y-13431960D01*
X14636087Y-13431960D02*
X14636087Y-13355770D01*
X14636087Y-13355770D02*
X14626563Y-13336722D01*
X14626563Y-13336722D02*
X14617039Y-13327198D01*
X14617039Y-13327198D02*
X14597991Y-13317675D01*
X14597991Y-13317675D02*
X14559896Y-13317675D01*
X14559896Y-13317675D02*
X14540849Y-13327198D01*
X14540849Y-13327198D02*
X14531325Y-13336722D01*
X14531325Y-13336722D02*
X14521801Y-13355770D01*
X14521801Y-13355770D02*
X14521801Y-13403389D01*
X14521801Y-13403389D02*
X14531325Y-13422436D01*
X14531325Y-13422436D02*
X14540849Y-13431960D01*
X14540849Y-13431960D02*
X14559896Y-13441484D01*
X14559896Y-13441484D02*
X14597991Y-13441484D01*
X14597991Y-13441484D02*
X14617039Y-13431960D01*
X14617039Y-13431960D02*
X14626563Y-13422436D01*
X14626563Y-13422436D02*
X14636087Y-13403389D01*
X14807515Y-13384341D02*
X14807515Y-13517675D01*
X14759896Y-13308151D02*
X14712277Y-13451008D01*
X14712277Y-13451008D02*
X14836087Y-13451008D01*
X14902753Y-13317675D02*
X14902753Y-13355770D01*
X14978944Y-13317675D02*
X14978944Y-13355770D01*
X15274182Y-13593865D02*
X15264658Y-13584341D01*
X15264658Y-13584341D02*
X15245611Y-13555770D01*
X15245611Y-13555770D02*
X15236087Y-13536722D01*
X15236087Y-13536722D02*
X15226563Y-13508151D01*
X15226563Y-13508151D02*
X15217039Y-13460532D01*
X15217039Y-13460532D02*
X15217039Y-13422436D01*
X15217039Y-13422436D02*
X15226563Y-13374817D01*
X15226563Y-13374817D02*
X15236087Y-13346246D01*
X15236087Y-13346246D02*
X15245611Y-13327198D01*
X15245611Y-13327198D02*
X15264658Y-13298627D01*
X15264658Y-13298627D02*
X15274182Y-13289103D01*
X15455134Y-13517675D02*
X15340849Y-13517675D01*
X15397991Y-13517675D02*
X15397991Y-13317675D01*
X15397991Y-13317675D02*
X15378944Y-13346246D01*
X15378944Y-13346246D02*
X15359896Y-13365294D01*
X15359896Y-13365294D02*
X15340849Y-13374817D01*
X15521801Y-13317675D02*
X15645611Y-13317675D01*
X15645611Y-13317675D02*
X15578944Y-13393865D01*
X15578944Y-13393865D02*
X15607515Y-13393865D01*
X15607515Y-13393865D02*
X15626563Y-13403389D01*
X15626563Y-13403389D02*
X15636087Y-13412913D01*
X15636087Y-13412913D02*
X15645611Y-13431960D01*
X15645611Y-13431960D02*
X15645611Y-13479579D01*
X15645611Y-13479579D02*
X15636087Y-13498627D01*
X15636087Y-13498627D02*
X15626563Y-13508151D01*
X15626563Y-13508151D02*
X15607515Y-13517675D01*
X15607515Y-13517675D02*
X15550372Y-13517675D01*
X15550372Y-13517675D02*
X15531325Y-13508151D01*
X15531325Y-13508151D02*
X15521801Y-13498627D01*
X15883706Y-13517675D02*
X15883706Y-13317675D01*
X15969420Y-13517675D02*
X15969420Y-13412913D01*
X15969420Y-13412913D02*
X15959896Y-13393865D01*
X15959896Y-13393865D02*
X15940849Y-13384341D01*
X15940849Y-13384341D02*
X15912277Y-13384341D01*
X15912277Y-13384341D02*
X15893230Y-13393865D01*
X15893230Y-13393865D02*
X15883706Y-13403389D01*
X16093230Y-13517675D02*
X16074182Y-13508151D01*
X16074182Y-13508151D02*
X16064658Y-13498627D01*
X16064658Y-13498627D02*
X16055134Y-13479579D01*
X16055134Y-13479579D02*
X16055134Y-13422436D01*
X16055134Y-13422436D02*
X16064658Y-13403389D01*
X16064658Y-13403389D02*
X16074182Y-13393865D01*
X16074182Y-13393865D02*
X16093230Y-13384341D01*
X16093230Y-13384341D02*
X16121801Y-13384341D01*
X16121801Y-13384341D02*
X16140849Y-13393865D01*
X16140849Y-13393865D02*
X16150373Y-13403389D01*
X16150373Y-13403389D02*
X16159896Y-13422436D01*
X16159896Y-13422436D02*
X16159896Y-13479579D01*
X16159896Y-13479579D02*
X16150373Y-13498627D01*
X16150373Y-13498627D02*
X16140849Y-13508151D01*
X16140849Y-13508151D02*
X16121801Y-13517675D01*
X16121801Y-13517675D02*
X16093230Y-13517675D01*
X16274182Y-13517675D02*
X16255134Y-13508151D01*
X16255134Y-13508151D02*
X16245611Y-13489103D01*
X16245611Y-13489103D02*
X16245611Y-13317675D01*
X16426563Y-13508151D02*
X16407515Y-13517675D01*
X16407515Y-13517675D02*
X16369420Y-13517675D01*
X16369420Y-13517675D02*
X16350373Y-13508151D01*
X16350373Y-13508151D02*
X16340849Y-13489103D01*
X16340849Y-13489103D02*
X16340849Y-13412913D01*
X16340849Y-13412913D02*
X16350373Y-13393865D01*
X16350373Y-13393865D02*
X16369420Y-13384341D01*
X16369420Y-13384341D02*
X16407515Y-13384341D01*
X16407515Y-13384341D02*
X16426563Y-13393865D01*
X16426563Y-13393865D02*
X16436087Y-13412913D01*
X16436087Y-13412913D02*
X16436087Y-13431960D01*
X16436087Y-13431960D02*
X16340849Y-13451008D01*
X16512277Y-13508151D02*
X16531325Y-13517675D01*
X16531325Y-13517675D02*
X16569420Y-13517675D01*
X16569420Y-13517675D02*
X16588468Y-13508151D01*
X16588468Y-13508151D02*
X16597992Y-13489103D01*
X16597992Y-13489103D02*
X16597992Y-13479579D01*
X16597992Y-13479579D02*
X16588468Y-13460532D01*
X16588468Y-13460532D02*
X16569420Y-13451008D01*
X16569420Y-13451008D02*
X16540849Y-13451008D01*
X16540849Y-13451008D02*
X16521801Y-13441484D01*
X16521801Y-13441484D02*
X16512277Y-13422436D01*
X16512277Y-13422436D02*
X16512277Y-13412913D01*
X16512277Y-13412913D02*
X16521801Y-13393865D01*
X16521801Y-13393865D02*
X16540849Y-13384341D01*
X16540849Y-13384341D02*
X16569420Y-13384341D01*
X16569420Y-13384341D02*
X16588468Y-13393865D01*
X16664658Y-13593865D02*
X16674182Y-13584341D01*
X16674182Y-13584341D02*
X16693230Y-13555770D01*
X16693230Y-13555770D02*
X16702754Y-13536722D01*
X16702754Y-13536722D02*
X16712277Y-13508151D01*
X16712277Y-13508151D02*
X16721801Y-13460532D01*
X16721801Y-13460532D02*
X16721801Y-13422436D01*
X16721801Y-13422436D02*
X16712277Y-13374817D01*
X16712277Y-13374817D02*
X16702754Y-13346246D01*
X16702754Y-13346246D02*
X16693230Y-13327198D01*
X16693230Y-13327198D02*
X16674182Y-13298627D01*
X16674182Y-13298627D02*
X16664658Y-13289103D01*
D14*
X11681546Y-13732618D02*
X11681546Y-13647764D01*
X11596692Y-13647764D01*
X11596692Y-13732618D01*
X11681546Y-13732618D01*
D10*
X12064658Y-13781675D02*
X11950372Y-13781675D01*
X12007515Y-13781675D02*
X12007515Y-13581675D01*
X12007515Y-13581675D02*
X11988467Y-13610246D01*
X11988467Y-13610246D02*
X11969420Y-13629294D01*
X11969420Y-13629294D02*
X11950372Y-13638817D01*
X12150372Y-13762627D02*
X12159896Y-13772151D01*
X12159896Y-13772151D02*
X12150372Y-13781675D01*
X12150372Y-13781675D02*
X12140848Y-13772151D01*
X12140848Y-13772151D02*
X12150372Y-13762627D01*
X12150372Y-13762627D02*
X12150372Y-13781675D01*
X12236086Y-13600722D02*
X12245610Y-13591198D01*
X12245610Y-13591198D02*
X12264658Y-13581675D01*
X12264658Y-13581675D02*
X12312277Y-13581675D01*
X12312277Y-13581675D02*
X12331325Y-13591198D01*
X12331325Y-13591198D02*
X12340848Y-13600722D01*
X12340848Y-13600722D02*
X12350372Y-13619770D01*
X12350372Y-13619770D02*
X12350372Y-13638817D01*
X12350372Y-13638817D02*
X12340848Y-13667389D01*
X12340848Y-13667389D02*
X12226563Y-13781675D01*
X12226563Y-13781675D02*
X12350372Y-13781675D01*
X12474182Y-13581675D02*
X12493229Y-13581675D01*
X12493229Y-13581675D02*
X12512277Y-13591198D01*
X12512277Y-13591198D02*
X12521801Y-13600722D01*
X12521801Y-13600722D02*
X12531325Y-13619770D01*
X12531325Y-13619770D02*
X12540848Y-13657865D01*
X12540848Y-13657865D02*
X12540848Y-13705484D01*
X12540848Y-13705484D02*
X12531325Y-13743579D01*
X12531325Y-13743579D02*
X12521801Y-13762627D01*
X12521801Y-13762627D02*
X12512277Y-13772151D01*
X12512277Y-13772151D02*
X12493229Y-13781675D01*
X12493229Y-13781675D02*
X12474182Y-13781675D01*
X12474182Y-13781675D02*
X12455134Y-13772151D01*
X12455134Y-13772151D02*
X12445610Y-13762627D01*
X12445610Y-13762627D02*
X12436086Y-13743579D01*
X12436086Y-13743579D02*
X12426563Y-13705484D01*
X12426563Y-13705484D02*
X12426563Y-13657865D01*
X12426563Y-13657865D02*
X12436086Y-13619770D01*
X12436086Y-13619770D02*
X12445610Y-13600722D01*
X12445610Y-13600722D02*
X12455134Y-13591198D01*
X12455134Y-13591198D02*
X12474182Y-13581675D01*
X12664658Y-13581675D02*
X12683706Y-13581675D01*
X12683706Y-13581675D02*
X12702753Y-13591198D01*
X12702753Y-13591198D02*
X12712277Y-13600722D01*
X12712277Y-13600722D02*
X12721801Y-13619770D01*
X12721801Y-13619770D02*
X12731325Y-13657865D01*
X12731325Y-13657865D02*
X12731325Y-13705484D01*
X12731325Y-13705484D02*
X12721801Y-13743579D01*
X12721801Y-13743579D02*
X12712277Y-13762627D01*
X12712277Y-13762627D02*
X12702753Y-13772151D01*
X12702753Y-13772151D02*
X12683706Y-13781675D01*
X12683706Y-13781675D02*
X12664658Y-13781675D01*
X12664658Y-13781675D02*
X12645610Y-13772151D01*
X12645610Y-13772151D02*
X12636086Y-13762627D01*
X12636086Y-13762627D02*
X12626563Y-13743579D01*
X12626563Y-13743579D02*
X12617039Y-13705484D01*
X12617039Y-13705484D02*
X12617039Y-13657865D01*
X12617039Y-13657865D02*
X12626563Y-13619770D01*
X12626563Y-13619770D02*
X12636086Y-13600722D01*
X12636086Y-13600722D02*
X12645610Y-13591198D01*
X12645610Y-13591198D02*
X12664658Y-13581675D01*
X12817039Y-13781675D02*
X12817039Y-13648341D01*
X12817039Y-13667389D02*
X12826563Y-13657865D01*
X12826563Y-13657865D02*
X12845610Y-13648341D01*
X12845610Y-13648341D02*
X12874182Y-13648341D01*
X12874182Y-13648341D02*
X12893229Y-13657865D01*
X12893229Y-13657865D02*
X12902753Y-13676913D01*
X12902753Y-13676913D02*
X12902753Y-13781675D01*
X12902753Y-13676913D02*
X12912277Y-13657865D01*
X12912277Y-13657865D02*
X12931325Y-13648341D01*
X12931325Y-13648341D02*
X12959896Y-13648341D01*
X12959896Y-13648341D02*
X12978944Y-13657865D01*
X12978944Y-13657865D02*
X12988467Y-13676913D01*
X12988467Y-13676913D02*
X12988467Y-13781675D01*
X13083706Y-13781675D02*
X13083706Y-13648341D01*
X13083706Y-13667389D02*
X13093229Y-13657865D01*
X13093229Y-13657865D02*
X13112277Y-13648341D01*
X13112277Y-13648341D02*
X13140848Y-13648341D01*
X13140848Y-13648341D02*
X13159896Y-13657865D01*
X13159896Y-13657865D02*
X13169420Y-13676913D01*
X13169420Y-13676913D02*
X13169420Y-13781675D01*
X13169420Y-13676913D02*
X13178944Y-13657865D01*
X13178944Y-13657865D02*
X13197991Y-13648341D01*
X13197991Y-13648341D02*
X13226563Y-13648341D01*
X13226563Y-13648341D02*
X13245610Y-13657865D01*
X13245610Y-13657865D02*
X13255134Y-13676913D01*
X13255134Y-13676913D02*
X13255134Y-13781675D01*
X13645610Y-13572151D02*
X13474182Y-13829294D01*
X13902753Y-13581675D02*
X13921801Y-13581675D01*
X13921801Y-13581675D02*
X13940849Y-13591198D01*
X13940849Y-13591198D02*
X13950372Y-13600722D01*
X13950372Y-13600722D02*
X13959896Y-13619770D01*
X13959896Y-13619770D02*
X13969420Y-13657865D01*
X13969420Y-13657865D02*
X13969420Y-13705484D01*
X13969420Y-13705484D02*
X13959896Y-13743579D01*
X13959896Y-13743579D02*
X13950372Y-13762627D01*
X13950372Y-13762627D02*
X13940849Y-13772151D01*
X13940849Y-13772151D02*
X13921801Y-13781675D01*
X13921801Y-13781675D02*
X13902753Y-13781675D01*
X13902753Y-13781675D02*
X13883706Y-13772151D01*
X13883706Y-13772151D02*
X13874182Y-13762627D01*
X13874182Y-13762627D02*
X13864658Y-13743579D01*
X13864658Y-13743579D02*
X13855134Y-13705484D01*
X13855134Y-13705484D02*
X13855134Y-13657865D01*
X13855134Y-13657865D02*
X13864658Y-13619770D01*
X13864658Y-13619770D02*
X13874182Y-13600722D01*
X13874182Y-13600722D02*
X13883706Y-13591198D01*
X13883706Y-13591198D02*
X13902753Y-13581675D01*
X14055134Y-13762627D02*
X14064658Y-13772151D01*
X14064658Y-13772151D02*
X14055134Y-13781675D01*
X14055134Y-13781675D02*
X14045610Y-13772151D01*
X14045610Y-13772151D02*
X14055134Y-13762627D01*
X14055134Y-13762627D02*
X14055134Y-13781675D01*
X14188468Y-13581675D02*
X14207515Y-13581675D01*
X14207515Y-13581675D02*
X14226563Y-13591198D01*
X14226563Y-13591198D02*
X14236087Y-13600722D01*
X14236087Y-13600722D02*
X14245610Y-13619770D01*
X14245610Y-13619770D02*
X14255134Y-13657865D01*
X14255134Y-13657865D02*
X14255134Y-13705484D01*
X14255134Y-13705484D02*
X14245610Y-13743579D01*
X14245610Y-13743579D02*
X14236087Y-13762627D01*
X14236087Y-13762627D02*
X14226563Y-13772151D01*
X14226563Y-13772151D02*
X14207515Y-13781675D01*
X14207515Y-13781675D02*
X14188468Y-13781675D01*
X14188468Y-13781675D02*
X14169420Y-13772151D01*
X14169420Y-13772151D02*
X14159896Y-13762627D01*
X14159896Y-13762627D02*
X14150372Y-13743579D01*
X14150372Y-13743579D02*
X14140849Y-13705484D01*
X14140849Y-13705484D02*
X14140849Y-13657865D01*
X14140849Y-13657865D02*
X14150372Y-13619770D01*
X14150372Y-13619770D02*
X14159896Y-13600722D01*
X14159896Y-13600722D02*
X14169420Y-13591198D01*
X14169420Y-13591198D02*
X14188468Y-13581675D01*
X14426563Y-13648341D02*
X14426563Y-13781675D01*
X14378944Y-13572151D02*
X14331325Y-13715008D01*
X14331325Y-13715008D02*
X14455134Y-13715008D01*
X14512277Y-13581675D02*
X14645610Y-13581675D01*
X14645610Y-13581675D02*
X14559896Y-13781675D01*
X14712277Y-13600722D02*
X14721801Y-13591198D01*
X14721801Y-13591198D02*
X14740849Y-13581675D01*
X14740849Y-13581675D02*
X14788468Y-13581675D01*
X14788468Y-13581675D02*
X14807515Y-13591198D01*
X14807515Y-13591198D02*
X14817039Y-13600722D01*
X14817039Y-13600722D02*
X14826563Y-13619770D01*
X14826563Y-13619770D02*
X14826563Y-13638817D01*
X14826563Y-13638817D02*
X14817039Y-13667389D01*
X14817039Y-13667389D02*
X14702753Y-13781675D01*
X14702753Y-13781675D02*
X14826563Y-13781675D01*
X14902753Y-13581675D02*
X14902753Y-13619770D01*
X14978944Y-13581675D02*
X14978944Y-13619770D01*
X15274182Y-13857865D02*
X15264658Y-13848341D01*
X15264658Y-13848341D02*
X15245611Y-13819770D01*
X15245611Y-13819770D02*
X15236087Y-13800722D01*
X15236087Y-13800722D02*
X15226563Y-13772151D01*
X15226563Y-13772151D02*
X15217039Y-13724532D01*
X15217039Y-13724532D02*
X15217039Y-13686436D01*
X15217039Y-13686436D02*
X15226563Y-13638817D01*
X15226563Y-13638817D02*
X15236087Y-13610246D01*
X15236087Y-13610246D02*
X15245611Y-13591198D01*
X15245611Y-13591198D02*
X15264658Y-13562627D01*
X15264658Y-13562627D02*
X15274182Y-13553103D01*
X15340849Y-13600722D02*
X15350372Y-13591198D01*
X15350372Y-13591198D02*
X15369420Y-13581675D01*
X15369420Y-13581675D02*
X15417039Y-13581675D01*
X15417039Y-13581675D02*
X15436087Y-13591198D01*
X15436087Y-13591198D02*
X15445611Y-13600722D01*
X15445611Y-13600722D02*
X15455134Y-13619770D01*
X15455134Y-13619770D02*
X15455134Y-13638817D01*
X15455134Y-13638817D02*
X15445611Y-13667389D01*
X15445611Y-13667389D02*
X15331325Y-13781675D01*
X15331325Y-13781675D02*
X15455134Y-13781675D01*
X15693230Y-13781675D02*
X15693230Y-13581675D01*
X15778944Y-13781675D02*
X15778944Y-13676913D01*
X15778944Y-13676913D02*
X15769420Y-13657865D01*
X15769420Y-13657865D02*
X15750373Y-13648341D01*
X15750373Y-13648341D02*
X15721801Y-13648341D01*
X15721801Y-13648341D02*
X15702753Y-13657865D01*
X15702753Y-13657865D02*
X15693230Y-13667389D01*
X15902753Y-13781675D02*
X15883706Y-13772151D01*
X15883706Y-13772151D02*
X15874182Y-13762627D01*
X15874182Y-13762627D02*
X15864658Y-13743579D01*
X15864658Y-13743579D02*
X15864658Y-13686436D01*
X15864658Y-13686436D02*
X15874182Y-13667389D01*
X15874182Y-13667389D02*
X15883706Y-13657865D01*
X15883706Y-13657865D02*
X15902753Y-13648341D01*
X15902753Y-13648341D02*
X15931325Y-13648341D01*
X15931325Y-13648341D02*
X15950373Y-13657865D01*
X15950373Y-13657865D02*
X15959896Y-13667389D01*
X15959896Y-13667389D02*
X15969420Y-13686436D01*
X15969420Y-13686436D02*
X15969420Y-13743579D01*
X15969420Y-13743579D02*
X15959896Y-13762627D01*
X15959896Y-13762627D02*
X15950373Y-13772151D01*
X15950373Y-13772151D02*
X15931325Y-13781675D01*
X15931325Y-13781675D02*
X15902753Y-13781675D01*
X16083706Y-13781675D02*
X16064658Y-13772151D01*
X16064658Y-13772151D02*
X16055134Y-13753103D01*
X16055134Y-13753103D02*
X16055134Y-13581675D01*
X16236087Y-13772151D02*
X16217039Y-13781675D01*
X16217039Y-13781675D02*
X16178944Y-13781675D01*
X16178944Y-13781675D02*
X16159896Y-13772151D01*
X16159896Y-13772151D02*
X16150373Y-13753103D01*
X16150373Y-13753103D02*
X16150373Y-13676913D01*
X16150373Y-13676913D02*
X16159896Y-13657865D01*
X16159896Y-13657865D02*
X16178944Y-13648341D01*
X16178944Y-13648341D02*
X16217039Y-13648341D01*
X16217039Y-13648341D02*
X16236087Y-13657865D01*
X16236087Y-13657865D02*
X16245611Y-13676913D01*
X16245611Y-13676913D02*
X16245611Y-13695960D01*
X16245611Y-13695960D02*
X16150373Y-13715008D01*
X16321801Y-13772151D02*
X16340849Y-13781675D01*
X16340849Y-13781675D02*
X16378944Y-13781675D01*
X16378944Y-13781675D02*
X16397992Y-13772151D01*
X16397992Y-13772151D02*
X16407515Y-13753103D01*
X16407515Y-13753103D02*
X16407515Y-13743579D01*
X16407515Y-13743579D02*
X16397992Y-13724532D01*
X16397992Y-13724532D02*
X16378944Y-13715008D01*
X16378944Y-13715008D02*
X16350373Y-13715008D01*
X16350373Y-13715008D02*
X16331325Y-13705484D01*
X16331325Y-13705484D02*
X16321801Y-13686436D01*
X16321801Y-13686436D02*
X16321801Y-13676913D01*
X16321801Y-13676913D02*
X16331325Y-13657865D01*
X16331325Y-13657865D02*
X16350373Y-13648341D01*
X16350373Y-13648341D02*
X16378944Y-13648341D01*
X16378944Y-13648341D02*
X16397992Y-13657865D01*
X16474182Y-13857865D02*
X16483706Y-13848341D01*
X16483706Y-13848341D02*
X16502754Y-13819770D01*
X16502754Y-13819770D02*
X16512277Y-13800722D01*
X16512277Y-13800722D02*
X16521801Y-13772151D01*
X16521801Y-13772151D02*
X16531325Y-13724532D01*
X16531325Y-13724532D02*
X16531325Y-13686436D01*
X16531325Y-13686436D02*
X16521801Y-13638817D01*
X16521801Y-13638817D02*
X16512277Y-13610246D01*
X16512277Y-13610246D02*
X16502754Y-13591198D01*
X16502754Y-13591198D02*
X16483706Y-13562627D01*
X16483706Y-13562627D02*
X16474182Y-13553103D01*
D15*
X11634119Y-14019191D02*
X11699119Y-13954191D01*
X11634119Y-13889191D01*
X11569119Y-13954191D01*
X11634119Y-14019191D01*
D10*
X12064658Y-14045675D02*
X11950372Y-14045675D01*
X12007515Y-14045675D02*
X12007515Y-13845675D01*
X12007515Y-13845675D02*
X11988467Y-13874246D01*
X11988467Y-13874246D02*
X11969420Y-13893294D01*
X11969420Y-13893294D02*
X11950372Y-13902817D01*
X12150372Y-14026627D02*
X12159896Y-14036151D01*
X12159896Y-14036151D02*
X12150372Y-14045675D01*
X12150372Y-14045675D02*
X12140848Y-14036151D01*
X12140848Y-14036151D02*
X12150372Y-14026627D01*
X12150372Y-14026627D02*
X12150372Y-14045675D01*
X12226563Y-13845675D02*
X12350372Y-13845675D01*
X12350372Y-13845675D02*
X12283705Y-13921865D01*
X12283705Y-13921865D02*
X12312277Y-13921865D01*
X12312277Y-13921865D02*
X12331325Y-13931389D01*
X12331325Y-13931389D02*
X12340848Y-13940913D01*
X12340848Y-13940913D02*
X12350372Y-13959960D01*
X12350372Y-13959960D02*
X12350372Y-14007579D01*
X12350372Y-14007579D02*
X12340848Y-14026627D01*
X12340848Y-14026627D02*
X12331325Y-14036151D01*
X12331325Y-14036151D02*
X12312277Y-14045675D01*
X12312277Y-14045675D02*
X12255134Y-14045675D01*
X12255134Y-14045675D02*
X12236086Y-14036151D01*
X12236086Y-14036151D02*
X12226563Y-14026627D01*
X12474182Y-13845675D02*
X12493229Y-13845675D01*
X12493229Y-13845675D02*
X12512277Y-13855198D01*
X12512277Y-13855198D02*
X12521801Y-13864722D01*
X12521801Y-13864722D02*
X12531325Y-13883770D01*
X12531325Y-13883770D02*
X12540848Y-13921865D01*
X12540848Y-13921865D02*
X12540848Y-13969484D01*
X12540848Y-13969484D02*
X12531325Y-14007579D01*
X12531325Y-14007579D02*
X12521801Y-14026627D01*
X12521801Y-14026627D02*
X12512277Y-14036151D01*
X12512277Y-14036151D02*
X12493229Y-14045675D01*
X12493229Y-14045675D02*
X12474182Y-14045675D01*
X12474182Y-14045675D02*
X12455134Y-14036151D01*
X12455134Y-14036151D02*
X12445610Y-14026627D01*
X12445610Y-14026627D02*
X12436086Y-14007579D01*
X12436086Y-14007579D02*
X12426563Y-13969484D01*
X12426563Y-13969484D02*
X12426563Y-13921865D01*
X12426563Y-13921865D02*
X12436086Y-13883770D01*
X12436086Y-13883770D02*
X12445610Y-13864722D01*
X12445610Y-13864722D02*
X12455134Y-13855198D01*
X12455134Y-13855198D02*
X12474182Y-13845675D01*
X12664658Y-13845675D02*
X12683706Y-13845675D01*
X12683706Y-13845675D02*
X12702753Y-13855198D01*
X12702753Y-13855198D02*
X12712277Y-13864722D01*
X12712277Y-13864722D02*
X12721801Y-13883770D01*
X12721801Y-13883770D02*
X12731325Y-13921865D01*
X12731325Y-13921865D02*
X12731325Y-13969484D01*
X12731325Y-13969484D02*
X12721801Y-14007579D01*
X12721801Y-14007579D02*
X12712277Y-14026627D01*
X12712277Y-14026627D02*
X12702753Y-14036151D01*
X12702753Y-14036151D02*
X12683706Y-14045675D01*
X12683706Y-14045675D02*
X12664658Y-14045675D01*
X12664658Y-14045675D02*
X12645610Y-14036151D01*
X12645610Y-14036151D02*
X12636086Y-14026627D01*
X12636086Y-14026627D02*
X12626563Y-14007579D01*
X12626563Y-14007579D02*
X12617039Y-13969484D01*
X12617039Y-13969484D02*
X12617039Y-13921865D01*
X12617039Y-13921865D02*
X12626563Y-13883770D01*
X12626563Y-13883770D02*
X12636086Y-13864722D01*
X12636086Y-13864722D02*
X12645610Y-13855198D01*
X12645610Y-13855198D02*
X12664658Y-13845675D01*
X12817039Y-14045675D02*
X12817039Y-13912341D01*
X12817039Y-13931389D02*
X12826563Y-13921865D01*
X12826563Y-13921865D02*
X12845610Y-13912341D01*
X12845610Y-13912341D02*
X12874182Y-13912341D01*
X12874182Y-13912341D02*
X12893229Y-13921865D01*
X12893229Y-13921865D02*
X12902753Y-13940913D01*
X12902753Y-13940913D02*
X12902753Y-14045675D01*
X12902753Y-13940913D02*
X12912277Y-13921865D01*
X12912277Y-13921865D02*
X12931325Y-13912341D01*
X12931325Y-13912341D02*
X12959896Y-13912341D01*
X12959896Y-13912341D02*
X12978944Y-13921865D01*
X12978944Y-13921865D02*
X12988467Y-13940913D01*
X12988467Y-13940913D02*
X12988467Y-14045675D01*
X13083706Y-14045675D02*
X13083706Y-13912341D01*
X13083706Y-13931389D02*
X13093229Y-13921865D01*
X13093229Y-13921865D02*
X13112277Y-13912341D01*
X13112277Y-13912341D02*
X13140848Y-13912341D01*
X13140848Y-13912341D02*
X13159896Y-13921865D01*
X13159896Y-13921865D02*
X13169420Y-13940913D01*
X13169420Y-13940913D02*
X13169420Y-14045675D01*
X13169420Y-13940913D02*
X13178944Y-13921865D01*
X13178944Y-13921865D02*
X13197991Y-13912341D01*
X13197991Y-13912341D02*
X13226563Y-13912341D01*
X13226563Y-13912341D02*
X13245610Y-13921865D01*
X13245610Y-13921865D02*
X13255134Y-13940913D01*
X13255134Y-13940913D02*
X13255134Y-14045675D01*
X13645610Y-13836151D02*
X13474182Y-14093294D01*
X13902753Y-13845675D02*
X13921801Y-13845675D01*
X13921801Y-13845675D02*
X13940849Y-13855198D01*
X13940849Y-13855198D02*
X13950372Y-13864722D01*
X13950372Y-13864722D02*
X13959896Y-13883770D01*
X13959896Y-13883770D02*
X13969420Y-13921865D01*
X13969420Y-13921865D02*
X13969420Y-13969484D01*
X13969420Y-13969484D02*
X13959896Y-14007579D01*
X13959896Y-14007579D02*
X13950372Y-14026627D01*
X13950372Y-14026627D02*
X13940849Y-14036151D01*
X13940849Y-14036151D02*
X13921801Y-14045675D01*
X13921801Y-14045675D02*
X13902753Y-14045675D01*
X13902753Y-14045675D02*
X13883706Y-14036151D01*
X13883706Y-14036151D02*
X13874182Y-14026627D01*
X13874182Y-14026627D02*
X13864658Y-14007579D01*
X13864658Y-14007579D02*
X13855134Y-13969484D01*
X13855134Y-13969484D02*
X13855134Y-13921865D01*
X13855134Y-13921865D02*
X13864658Y-13883770D01*
X13864658Y-13883770D02*
X13874182Y-13864722D01*
X13874182Y-13864722D02*
X13883706Y-13855198D01*
X13883706Y-13855198D02*
X13902753Y-13845675D01*
X14055134Y-14026627D02*
X14064658Y-14036151D01*
X14064658Y-14036151D02*
X14055134Y-14045675D01*
X14055134Y-14045675D02*
X14045610Y-14036151D01*
X14045610Y-14036151D02*
X14055134Y-14026627D01*
X14055134Y-14026627D02*
X14055134Y-14045675D01*
X14188468Y-13845675D02*
X14207515Y-13845675D01*
X14207515Y-13845675D02*
X14226563Y-13855198D01*
X14226563Y-13855198D02*
X14236087Y-13864722D01*
X14236087Y-13864722D02*
X14245610Y-13883770D01*
X14245610Y-13883770D02*
X14255134Y-13921865D01*
X14255134Y-13921865D02*
X14255134Y-13969484D01*
X14255134Y-13969484D02*
X14245610Y-14007579D01*
X14245610Y-14007579D02*
X14236087Y-14026627D01*
X14236087Y-14026627D02*
X14226563Y-14036151D01*
X14226563Y-14036151D02*
X14207515Y-14045675D01*
X14207515Y-14045675D02*
X14188468Y-14045675D01*
X14188468Y-14045675D02*
X14169420Y-14036151D01*
X14169420Y-14036151D02*
X14159896Y-14026627D01*
X14159896Y-14026627D02*
X14150372Y-14007579D01*
X14150372Y-14007579D02*
X14140849Y-13969484D01*
X14140849Y-13969484D02*
X14140849Y-13921865D01*
X14140849Y-13921865D02*
X14150372Y-13883770D01*
X14150372Y-13883770D02*
X14159896Y-13864722D01*
X14159896Y-13864722D02*
X14169420Y-13855198D01*
X14169420Y-13855198D02*
X14188468Y-13845675D01*
X14436087Y-13845675D02*
X14340849Y-13845675D01*
X14340849Y-13845675D02*
X14331325Y-13940913D01*
X14331325Y-13940913D02*
X14340849Y-13931389D01*
X14340849Y-13931389D02*
X14359896Y-13921865D01*
X14359896Y-13921865D02*
X14407515Y-13921865D01*
X14407515Y-13921865D02*
X14426563Y-13931389D01*
X14426563Y-13931389D02*
X14436087Y-13940913D01*
X14436087Y-13940913D02*
X14445610Y-13959960D01*
X14445610Y-13959960D02*
X14445610Y-14007579D01*
X14445610Y-14007579D02*
X14436087Y-14026627D01*
X14436087Y-14026627D02*
X14426563Y-14036151D01*
X14426563Y-14036151D02*
X14407515Y-14045675D01*
X14407515Y-14045675D02*
X14359896Y-14045675D01*
X14359896Y-14045675D02*
X14340849Y-14036151D01*
X14340849Y-14036151D02*
X14331325Y-14026627D01*
X14636087Y-14045675D02*
X14521801Y-14045675D01*
X14578944Y-14045675D02*
X14578944Y-13845675D01*
X14578944Y-13845675D02*
X14559896Y-13874246D01*
X14559896Y-13874246D02*
X14540849Y-13893294D01*
X14540849Y-13893294D02*
X14521801Y-13902817D01*
X14712277Y-13864722D02*
X14721801Y-13855198D01*
X14721801Y-13855198D02*
X14740849Y-13845675D01*
X14740849Y-13845675D02*
X14788468Y-13845675D01*
X14788468Y-13845675D02*
X14807515Y-13855198D01*
X14807515Y-13855198D02*
X14817039Y-13864722D01*
X14817039Y-13864722D02*
X14826563Y-13883770D01*
X14826563Y-13883770D02*
X14826563Y-13902817D01*
X14826563Y-13902817D02*
X14817039Y-13931389D01*
X14817039Y-13931389D02*
X14702753Y-14045675D01*
X14702753Y-14045675D02*
X14826563Y-14045675D01*
X14902753Y-13845675D02*
X14902753Y-13883770D01*
X14978944Y-13845675D02*
X14978944Y-13883770D01*
X15274182Y-14121865D02*
X15264658Y-14112341D01*
X15264658Y-14112341D02*
X15245611Y-14083770D01*
X15245611Y-14083770D02*
X15236087Y-14064722D01*
X15236087Y-14064722D02*
X15226563Y-14036151D01*
X15226563Y-14036151D02*
X15217039Y-13988532D01*
X15217039Y-13988532D02*
X15217039Y-13950436D01*
X15217039Y-13950436D02*
X15226563Y-13902817D01*
X15226563Y-13902817D02*
X15236087Y-13874246D01*
X15236087Y-13874246D02*
X15245611Y-13855198D01*
X15245611Y-13855198D02*
X15264658Y-13826627D01*
X15264658Y-13826627D02*
X15274182Y-13817103D01*
X15340849Y-13864722D02*
X15350372Y-13855198D01*
X15350372Y-13855198D02*
X15369420Y-13845675D01*
X15369420Y-13845675D02*
X15417039Y-13845675D01*
X15417039Y-13845675D02*
X15436087Y-13855198D01*
X15436087Y-13855198D02*
X15445611Y-13864722D01*
X15445611Y-13864722D02*
X15455134Y-13883770D01*
X15455134Y-13883770D02*
X15455134Y-13902817D01*
X15455134Y-13902817D02*
X15445611Y-13931389D01*
X15445611Y-13931389D02*
X15331325Y-14045675D01*
X15331325Y-14045675D02*
X15455134Y-14045675D01*
X15578944Y-13845675D02*
X15597992Y-13845675D01*
X15597992Y-13845675D02*
X15617039Y-13855198D01*
X15617039Y-13855198D02*
X15626563Y-13864722D01*
X15626563Y-13864722D02*
X15636087Y-13883770D01*
X15636087Y-13883770D02*
X15645611Y-13921865D01*
X15645611Y-13921865D02*
X15645611Y-13969484D01*
X15645611Y-13969484D02*
X15636087Y-14007579D01*
X15636087Y-14007579D02*
X15626563Y-14026627D01*
X15626563Y-14026627D02*
X15617039Y-14036151D01*
X15617039Y-14036151D02*
X15597992Y-14045675D01*
X15597992Y-14045675D02*
X15578944Y-14045675D01*
X15578944Y-14045675D02*
X15559896Y-14036151D01*
X15559896Y-14036151D02*
X15550372Y-14026627D01*
X15550372Y-14026627D02*
X15540849Y-14007579D01*
X15540849Y-14007579D02*
X15531325Y-13969484D01*
X15531325Y-13969484D02*
X15531325Y-13921865D01*
X15531325Y-13921865D02*
X15540849Y-13883770D01*
X15540849Y-13883770D02*
X15550372Y-13864722D01*
X15550372Y-13864722D02*
X15559896Y-13855198D01*
X15559896Y-13855198D02*
X15578944Y-13845675D01*
X15883706Y-14045675D02*
X15883706Y-13845675D01*
X15969420Y-14045675D02*
X15969420Y-13940913D01*
X15969420Y-13940913D02*
X15959896Y-13921865D01*
X15959896Y-13921865D02*
X15940849Y-13912341D01*
X15940849Y-13912341D02*
X15912277Y-13912341D01*
X15912277Y-13912341D02*
X15893230Y-13921865D01*
X15893230Y-13921865D02*
X15883706Y-13931389D01*
X16093230Y-14045675D02*
X16074182Y-14036151D01*
X16074182Y-14036151D02*
X16064658Y-14026627D01*
X16064658Y-14026627D02*
X16055134Y-14007579D01*
X16055134Y-14007579D02*
X16055134Y-13950436D01*
X16055134Y-13950436D02*
X16064658Y-13931389D01*
X16064658Y-13931389D02*
X16074182Y-13921865D01*
X16074182Y-13921865D02*
X16093230Y-13912341D01*
X16093230Y-13912341D02*
X16121801Y-13912341D01*
X16121801Y-13912341D02*
X16140849Y-13921865D01*
X16140849Y-13921865D02*
X16150373Y-13931389D01*
X16150373Y-13931389D02*
X16159896Y-13950436D01*
X16159896Y-13950436D02*
X16159896Y-14007579D01*
X16159896Y-14007579D02*
X16150373Y-14026627D01*
X16150373Y-14026627D02*
X16140849Y-14036151D01*
X16140849Y-14036151D02*
X16121801Y-14045675D01*
X16121801Y-14045675D02*
X16093230Y-14045675D01*
X16274182Y-14045675D02*
X16255134Y-14036151D01*
X16255134Y-14036151D02*
X16245611Y-14017103D01*
X16245611Y-14017103D02*
X16245611Y-13845675D01*
X16426563Y-14036151D02*
X16407515Y-14045675D01*
X16407515Y-14045675D02*
X16369420Y-14045675D01*
X16369420Y-14045675D02*
X16350373Y-14036151D01*
X16350373Y-14036151D02*
X16340849Y-14017103D01*
X16340849Y-14017103D02*
X16340849Y-13940913D01*
X16340849Y-13940913D02*
X16350373Y-13921865D01*
X16350373Y-13921865D02*
X16369420Y-13912341D01*
X16369420Y-13912341D02*
X16407515Y-13912341D01*
X16407515Y-13912341D02*
X16426563Y-13921865D01*
X16426563Y-13921865D02*
X16436087Y-13940913D01*
X16436087Y-13940913D02*
X16436087Y-13959960D01*
X16436087Y-13959960D02*
X16340849Y-13979008D01*
X16512277Y-14036151D02*
X16531325Y-14045675D01*
X16531325Y-14045675D02*
X16569420Y-14045675D01*
X16569420Y-14045675D02*
X16588468Y-14036151D01*
X16588468Y-14036151D02*
X16597992Y-14017103D01*
X16597992Y-14017103D02*
X16597992Y-14007579D01*
X16597992Y-14007579D02*
X16588468Y-13988532D01*
X16588468Y-13988532D02*
X16569420Y-13979008D01*
X16569420Y-13979008D02*
X16540849Y-13979008D01*
X16540849Y-13979008D02*
X16521801Y-13969484D01*
X16521801Y-13969484D02*
X16512277Y-13950436D01*
X16512277Y-13950436D02*
X16512277Y-13940913D01*
X16512277Y-13940913D02*
X16521801Y-13921865D01*
X16521801Y-13921865D02*
X16540849Y-13912341D01*
X16540849Y-13912341D02*
X16569420Y-13912341D01*
X16569420Y-13912341D02*
X16588468Y-13921865D01*
X16664658Y-14121865D02*
X16674182Y-14112341D01*
X16674182Y-14112341D02*
X16693230Y-14083770D01*
X16693230Y-14083770D02*
X16702754Y-14064722D01*
X16702754Y-14064722D02*
X16712277Y-14036151D01*
X16712277Y-14036151D02*
X16721801Y-13988532D01*
X16721801Y-13988532D02*
X16721801Y-13950436D01*
X16721801Y-13950436D02*
X16712277Y-13902817D01*
X16712277Y-13902817D02*
X16702754Y-13874246D01*
X16702754Y-13874246D02*
X16693230Y-13855198D01*
X16693230Y-13855198D02*
X16674182Y-13826627D01*
X16674182Y-13826627D02*
X16664658Y-13817103D01*
M02*
