G04 #@! TF.GenerationSoftware,KiCad,Pcbnew,7.0.8*
G04 #@! TF.CreationDate,2024-05-10T10:59:20-03:00*
G04 #@! TF.ProjectId,on_off_module_x2,6f6e5f6f-6666-45f6-9d6f-64756c655f78,1.0*
G04 #@! TF.SameCoordinates,Original*
G04 #@! TF.FileFunction,Legend,Bot*
G04 #@! TF.FilePolarity,Positive*
%FSLAX46Y46*%
G04 Gerber Fmt 4.6, Leading zero omitted, Abs format (unit mm)*
G04 Created by KiCad (PCBNEW 7.0.8) date 2024-05-10 10:59:20*
%MOMM*%
%LPD*%
G01*
G04 APERTURE LIST*
G04 Aperture macros list*
%AMRoundRect*
0 Rectangle with rounded corners*
0 $1 Rounding radius*
0 $2 $3 $4 $5 $6 $7 $8 $9 X,Y pos of 4 corners*
0 Add a 4 corners polygon primitive as box body*
4,1,4,$2,$3,$4,$5,$6,$7,$8,$9,$2,$3,0*
0 Add four circle primitives for the rounded corners*
1,1,$1+$1,$2,$3*
1,1,$1+$1,$4,$5*
1,1,$1+$1,$6,$7*
1,1,$1+$1,$8,$9*
0 Add four rect primitives between the rounded corners*
20,1,$1+$1,$2,$3,$4,$5,0*
20,1,$1+$1,$4,$5,$6,$7,0*
20,1,$1+$1,$6,$7,$8,$9,0*
20,1,$1+$1,$8,$9,$2,$3,0*%
G04 Aperture macros list end*
%ADD10C,0.350000*%
%ADD11C,0.400000*%
%ADD12C,0.300000*%
%ADD13C,0.200000*%
%ADD14C,0.150000*%
%ADD15C,0.120000*%
%ADD16R,2.600000X2.600000*%
%ADD17C,2.600000*%
%ADD18C,2.500000*%
%ADD19R,1.700000X1.700000*%
%ADD20O,1.700000X1.700000*%
%ADD21C,3.000000*%
%ADD22C,2.400000*%
%ADD23R,2.300000X2.000000*%
%ADD24C,2.300000*%
%ADD25R,1.500000X1.500000*%
%ADD26C,1.500000*%
%ADD27RoundRect,0.200000X-0.200000X-0.275000X0.200000X-0.275000X0.200000X0.275000X-0.200000X0.275000X0*%
%ADD28RoundRect,0.200000X0.200000X0.275000X-0.200000X0.275000X-0.200000X-0.275000X0.200000X-0.275000X0*%
G04 APERTURE END LIST*
D10*
X161747200Y-105660415D02*
X165597200Y-105660415D01*
X174701200Y-108341054D02*
X174701200Y-111643054D01*
X169137246Y-107071054D02*
G75*
G03*
X167637200Y-105571054I-1500046J-46D01*
G01*
X156505847Y-114756447D02*
G75*
G03*
X158005847Y-113256469I53J1499947D01*
G01*
X145872146Y-69293754D02*
G75*
G03*
X147372200Y-70793754I1500054J54D01*
G01*
X152441846Y-72293754D02*
G75*
G03*
X150941847Y-70793754I-1499946J54D01*
G01*
X169137200Y-108341054D02*
X169137200Y-111643054D01*
X158005847Y-108385769D02*
X158005847Y-111687769D01*
X145872200Y-59617754D02*
X145872200Y-63467754D01*
X145872200Y-64867754D02*
X145872200Y-67491754D01*
X169137246Y-113211754D02*
G75*
G03*
X170637200Y-114711754I1499954J-46D01*
G01*
X152441847Y-73587754D02*
X152441847Y-77437754D01*
X152441847Y-78837754D02*
X152441847Y-82687754D01*
X152441847Y-84087754D02*
X152441847Y-87937754D01*
X152441847Y-89337754D02*
X152441847Y-93187754D01*
X152441847Y-94587754D02*
X152441847Y-98437754D01*
X152441847Y-99837754D02*
X152441847Y-103687754D01*
X152441847Y-105087754D02*
X152441847Y-108937754D01*
X152441847Y-110337754D02*
X152441847Y-111687769D01*
X152441931Y-113256469D02*
G75*
G03*
X153941847Y-114756469I1499869J-131D01*
G01*
X173201200Y-114711800D02*
G75*
G03*
X174701200Y-113211754I0J1500000D01*
G01*
X176201200Y-105615700D02*
G75*
G03*
X174701200Y-107115700I100J-1500100D01*
G01*
X177495200Y-105615700D02*
X179805200Y-105615700D01*
X148666200Y-70793754D02*
X149809200Y-70793754D01*
X159505847Y-105660347D02*
G75*
G03*
X158005847Y-107160415I53J-1500053D01*
G01*
D11*
X146957218Y-96182547D02*
X148147694Y-96182547D01*
X148147694Y-96182547D02*
X148147694Y-93682547D01*
X146481027Y-93682547D02*
X145647694Y-96182547D01*
X145647694Y-96182547D02*
X144814361Y-93682547D01*
D12*
G36*
X134408528Y-99562909D02*
G01*
X133961442Y-99711938D01*
X133961442Y-99413879D01*
X134408528Y-99562909D01*
G37*
G36*
X134651158Y-97900472D02*
G01*
X134688163Y-97937477D01*
X134732871Y-98026891D01*
X134732871Y-98412910D01*
X134247157Y-98412910D01*
X134247157Y-98026890D01*
X134291862Y-97937478D01*
X134328867Y-97900473D01*
X134418281Y-97855767D01*
X134561747Y-97855767D01*
X134651158Y-97900472D01*
G37*
G36*
X134591897Y-95198354D02*
G01*
X134688164Y-95294621D01*
X134732871Y-95384034D01*
X134732871Y-95598928D01*
X134688164Y-95688342D01*
X134591897Y-95784608D01*
X134364407Y-95841481D01*
X133901335Y-95841481D01*
X133673844Y-95784608D01*
X133577578Y-95688342D01*
X133532871Y-95598928D01*
X133532871Y-95384034D01*
X133577578Y-95294620D01*
X133673844Y-95198354D01*
X133901335Y-95141481D01*
X134364406Y-95141481D01*
X134591897Y-95198354D01*
G37*
G36*
X134591897Y-90198353D02*
G01*
X134688164Y-90294620D01*
X134732871Y-90384033D01*
X134732871Y-90598927D01*
X134688164Y-90688341D01*
X134591897Y-90784607D01*
X134364407Y-90841480D01*
X133901335Y-90841480D01*
X133673844Y-90784607D01*
X133577578Y-90688341D01*
X133532871Y-90598927D01*
X133532871Y-90384033D01*
X133577578Y-90294619D01*
X133673844Y-90198353D01*
X133901335Y-90141480D01*
X134364406Y-90141480D01*
X134591897Y-90198353D01*
G37*
G36*
X134151160Y-83400473D02*
G01*
X134188164Y-83437477D01*
X134232871Y-83526890D01*
X134232871Y-83670355D01*
X134188163Y-83759769D01*
X134151158Y-83796774D01*
X134061747Y-83841480D01*
X133703995Y-83841480D01*
X133614582Y-83796774D01*
X133577578Y-83759770D01*
X133532871Y-83670355D01*
X133532871Y-83526890D01*
X133577578Y-83437476D01*
X133614582Y-83400472D01*
X133703995Y-83355766D01*
X134061747Y-83355766D01*
X134151160Y-83400473D01*
G37*
G36*
X134232871Y-82098319D02*
G01*
X134232871Y-82313212D01*
X134188163Y-82402626D01*
X134151158Y-82439631D01*
X134061747Y-82484337D01*
X133703995Y-82484337D01*
X133614582Y-82439631D01*
X133577578Y-82402627D01*
X133532871Y-82313212D01*
X133532871Y-82098319D01*
X133547005Y-82070052D01*
X134218737Y-82070052D01*
X134232871Y-82098319D01*
G37*
G36*
X134199638Y-78603283D02*
G01*
X134232871Y-78669747D01*
X134232871Y-78884641D01*
X134199638Y-78951105D01*
X134133175Y-78984337D01*
X134065841Y-78984337D01*
X134147287Y-78577107D01*
X134199638Y-78603283D01*
G37*
G36*
X135247157Y-101784339D02*
G01*
X133018585Y-101784339D01*
X133018585Y-101420053D01*
X133232871Y-101420053D01*
X133252967Y-101495053D01*
X133307871Y-101549957D01*
X133382871Y-101570053D01*
X134168585Y-101570053D01*
X134882871Y-101570053D01*
X134957871Y-101549957D01*
X135012775Y-101495053D01*
X135032871Y-101420053D01*
X135012775Y-101345053D01*
X134957871Y-101290149D01*
X134882871Y-101270053D01*
X134318585Y-101270053D01*
X134318585Y-100712910D01*
X134882871Y-100712910D01*
X134957871Y-100692814D01*
X135012775Y-100637910D01*
X135032871Y-100562910D01*
X135012775Y-100487910D01*
X134957871Y-100433006D01*
X134882871Y-100412910D01*
X133382871Y-100412910D01*
X133307871Y-100433006D01*
X133252967Y-100487910D01*
X133232871Y-100562910D01*
X133252967Y-100637910D01*
X133307871Y-100692814D01*
X133382871Y-100712910D01*
X134018585Y-100712910D01*
X134018585Y-101270053D01*
X133382871Y-101270053D01*
X133307871Y-101290149D01*
X133252967Y-101345053D01*
X133232871Y-101420053D01*
X133018585Y-101420053D01*
X133018585Y-100032837D01*
X133235916Y-100032837D01*
X133240569Y-100110343D01*
X133283350Y-100175139D01*
X133352799Y-100209864D01*
X133430305Y-100205211D01*
X134930305Y-99705211D01*
X134955441Y-99688614D01*
X134982392Y-99675140D01*
X134987446Y-99667484D01*
X134995102Y-99662430D01*
X135008575Y-99635483D01*
X135025174Y-99610343D01*
X135025723Y-99601185D01*
X135029826Y-99592981D01*
X135028021Y-99562909D01*
X135029826Y-99532837D01*
X135025723Y-99524632D01*
X135025174Y-99515475D01*
X135008575Y-99490334D01*
X134995102Y-99463388D01*
X134987446Y-99458333D01*
X134982392Y-99450678D01*
X134955441Y-99437203D01*
X134930305Y-99420607D01*
X133430305Y-98920607D01*
X133352799Y-98915954D01*
X133283350Y-98950679D01*
X133240569Y-99015475D01*
X133235916Y-99092981D01*
X133270641Y-99162430D01*
X133335437Y-99205211D01*
X133661442Y-99313879D01*
X133661442Y-99811938D01*
X133335437Y-99920607D01*
X133270641Y-99963388D01*
X133235916Y-100032837D01*
X133018585Y-100032837D01*
X133018585Y-98562910D01*
X133232871Y-98562910D01*
X133252967Y-98637910D01*
X133307871Y-98692814D01*
X133382871Y-98712910D01*
X134097157Y-98712910D01*
X134882871Y-98712910D01*
X134957871Y-98692814D01*
X135012775Y-98637910D01*
X135032871Y-98562910D01*
X135032871Y-97991481D01*
X135023948Y-97958180D01*
X135017035Y-97924398D01*
X134945606Y-97781542D01*
X134929583Y-97763473D01*
X134917509Y-97742559D01*
X134846081Y-97671130D01*
X134825165Y-97659054D01*
X134807096Y-97643031D01*
X134664239Y-97571603D01*
X134630460Y-97564690D01*
X134597157Y-97555767D01*
X134382871Y-97555767D01*
X134349565Y-97564691D01*
X134315790Y-97571603D01*
X134172932Y-97643031D01*
X134154862Y-97659054D01*
X134133948Y-97671129D01*
X134062519Y-97742558D01*
X134050444Y-97763472D01*
X134034421Y-97781542D01*
X133962993Y-97924399D01*
X133956080Y-97958177D01*
X133947157Y-97991481D01*
X133947157Y-98412910D01*
X133382871Y-98412910D01*
X133307871Y-98433006D01*
X133252967Y-98487910D01*
X133232871Y-98562910D01*
X133018585Y-98562910D01*
X133018585Y-95634338D01*
X133232871Y-95634338D01*
X133241794Y-95667639D01*
X133248707Y-95701420D01*
X133320136Y-95844278D01*
X133336159Y-95862347D01*
X133348234Y-95883262D01*
X133491091Y-96026119D01*
X133492219Y-96026770D01*
X133492890Y-96027888D01*
X133525750Y-96046129D01*
X133558334Y-96064942D01*
X133559639Y-96064942D01*
X133560777Y-96065574D01*
X133846491Y-96137002D01*
X133864993Y-96136690D01*
X133882871Y-96141481D01*
X134382871Y-96141481D01*
X134400748Y-96136690D01*
X134419251Y-96137002D01*
X134704965Y-96065574D01*
X134706103Y-96064942D01*
X134707408Y-96064942D01*
X134739991Y-96046129D01*
X134772852Y-96027888D01*
X134773522Y-96026770D01*
X134774651Y-96026119D01*
X134917508Y-95883262D01*
X134929582Y-95862347D01*
X134945606Y-95844278D01*
X135017035Y-95701420D01*
X135023947Y-95667639D01*
X135032871Y-95634338D01*
X135032871Y-95348624D01*
X135023948Y-95315323D01*
X135017035Y-95281541D01*
X134945606Y-95138685D01*
X134929583Y-95120616D01*
X134917508Y-95099701D01*
X134774651Y-94956844D01*
X134773522Y-94956192D01*
X134772852Y-94955075D01*
X134739991Y-94936833D01*
X134707408Y-94918021D01*
X134706103Y-94918021D01*
X134704965Y-94917389D01*
X134419252Y-94845960D01*
X134400747Y-94846271D01*
X134382871Y-94841481D01*
X133882871Y-94841481D01*
X133864994Y-94846271D01*
X133846490Y-94845960D01*
X133560776Y-94917389D01*
X133559638Y-94918021D01*
X133558334Y-94918021D01*
X133525762Y-94936826D01*
X133492890Y-94955075D01*
X133492219Y-94956192D01*
X133491091Y-94956844D01*
X133348234Y-95099701D01*
X133336158Y-95120616D01*
X133320136Y-95138685D01*
X133248707Y-95281542D01*
X133241794Y-95315322D01*
X133232871Y-95348624D01*
X133232871Y-95634338D01*
X133018585Y-95634338D01*
X133018585Y-94348624D01*
X133232871Y-94348624D01*
X133252967Y-94423624D01*
X133307871Y-94478528D01*
X133382871Y-94498624D01*
X134882871Y-94498624D01*
X134883203Y-94498534D01*
X134883539Y-94498623D01*
X134920770Y-94488468D01*
X134957871Y-94478528D01*
X134958114Y-94478284D01*
X134958449Y-94478193D01*
X134985610Y-94450788D01*
X135012775Y-94423624D01*
X135012864Y-94423290D01*
X135013108Y-94423045D01*
X135022930Y-94385723D01*
X135032871Y-94348624D01*
X135032781Y-94348291D01*
X135032870Y-94347956D01*
X135022715Y-94310724D01*
X135012775Y-94273624D01*
X135012531Y-94273380D01*
X135012440Y-94273046D01*
X134985091Y-94245940D01*
X134957871Y-94218720D01*
X134957536Y-94218630D01*
X134957292Y-94218388D01*
X133947705Y-93641481D01*
X134882871Y-93641481D01*
X134957871Y-93621385D01*
X135012775Y-93566481D01*
X135032871Y-93491481D01*
X135012775Y-93416481D01*
X134957871Y-93361577D01*
X134882871Y-93341481D01*
X133382871Y-93341481D01*
X133382538Y-93341570D01*
X133382203Y-93341482D01*
X133344971Y-93351636D01*
X133307871Y-93361577D01*
X133307627Y-93361820D01*
X133307293Y-93361912D01*
X133280187Y-93389260D01*
X133252967Y-93416481D01*
X133252877Y-93416815D01*
X133252635Y-93417060D01*
X133242840Y-93454275D01*
X133232871Y-93491481D01*
X133232960Y-93491813D01*
X133232872Y-93492149D01*
X133243026Y-93529380D01*
X133252967Y-93566481D01*
X133253210Y-93566724D01*
X133253302Y-93567059D01*
X133280650Y-93594164D01*
X133307871Y-93621385D01*
X133308205Y-93621474D01*
X133308450Y-93621717D01*
X134318036Y-94198624D01*
X133382871Y-94198624D01*
X133307871Y-94218720D01*
X133252967Y-94273624D01*
X133232871Y-94348624D01*
X133018585Y-94348624D01*
X133018585Y-92777195D01*
X133804300Y-92777195D01*
X133824396Y-92852195D01*
X133879300Y-92907099D01*
X133954300Y-92927195D01*
X134029300Y-92907099D01*
X134084204Y-92852195D01*
X134104300Y-92777195D01*
X134104300Y-91634338D01*
X134084204Y-91559338D01*
X134029300Y-91504434D01*
X133954300Y-91484338D01*
X133879300Y-91504434D01*
X133824396Y-91559338D01*
X133804300Y-91634338D01*
X133804300Y-92777195D01*
X133018585Y-92777195D01*
X133018585Y-90634337D01*
X133232871Y-90634337D01*
X133241794Y-90667638D01*
X133248707Y-90701419D01*
X133320136Y-90844277D01*
X133336159Y-90862346D01*
X133348234Y-90883261D01*
X133491091Y-91026118D01*
X133492219Y-91026769D01*
X133492890Y-91027887D01*
X133525750Y-91046128D01*
X133558334Y-91064941D01*
X133559639Y-91064941D01*
X133560777Y-91065573D01*
X133846491Y-91137001D01*
X133864993Y-91136689D01*
X133882871Y-91141480D01*
X134382871Y-91141480D01*
X134400748Y-91136689D01*
X134419251Y-91137001D01*
X134704965Y-91065573D01*
X134706103Y-91064941D01*
X134707408Y-91064941D01*
X134739991Y-91046128D01*
X134772852Y-91027887D01*
X134773522Y-91026769D01*
X134774651Y-91026118D01*
X134917508Y-90883261D01*
X134929582Y-90862346D01*
X134945606Y-90844277D01*
X135017035Y-90701419D01*
X135023947Y-90667638D01*
X135032871Y-90634337D01*
X135032871Y-90348623D01*
X135023948Y-90315322D01*
X135017035Y-90281540D01*
X134945606Y-90138684D01*
X134929583Y-90120615D01*
X134917508Y-90099700D01*
X134774651Y-89956843D01*
X134773522Y-89956191D01*
X134772852Y-89955074D01*
X134739991Y-89936832D01*
X134707408Y-89918020D01*
X134706103Y-89918020D01*
X134704965Y-89917388D01*
X134419252Y-89845959D01*
X134400747Y-89846270D01*
X134382871Y-89841480D01*
X133882871Y-89841480D01*
X133864994Y-89846270D01*
X133846490Y-89845959D01*
X133560776Y-89917388D01*
X133559638Y-89918020D01*
X133558334Y-89918020D01*
X133525762Y-89936825D01*
X133492890Y-89955074D01*
X133492219Y-89956191D01*
X133491091Y-89956843D01*
X133348234Y-90099700D01*
X133336158Y-90120615D01*
X133320136Y-90138684D01*
X133248707Y-90281541D01*
X133241794Y-90315321D01*
X133232871Y-90348623D01*
X133232871Y-90634337D01*
X133018585Y-90634337D01*
X133018585Y-89348623D01*
X133232871Y-89348623D01*
X133252967Y-89423623D01*
X133307871Y-89478527D01*
X133382871Y-89498623D01*
X134168585Y-89498623D01*
X134882871Y-89498623D01*
X134957871Y-89478527D01*
X135012775Y-89423623D01*
X135032871Y-89348623D01*
X135032871Y-88634337D01*
X135012775Y-88559337D01*
X134957871Y-88504433D01*
X134882871Y-88484337D01*
X134807871Y-88504433D01*
X134752967Y-88559337D01*
X134732871Y-88634337D01*
X134732871Y-89198623D01*
X134318585Y-89198623D01*
X134318585Y-88848623D01*
X134298489Y-88773623D01*
X134243585Y-88718719D01*
X134168585Y-88698623D01*
X134093585Y-88718719D01*
X134038681Y-88773623D01*
X134018585Y-88848623D01*
X134018585Y-89198623D01*
X133382871Y-89198623D01*
X133307871Y-89218719D01*
X133252967Y-89273623D01*
X133232871Y-89348623D01*
X133018585Y-89348623D01*
X133018585Y-88062909D01*
X133232871Y-88062909D01*
X133252967Y-88137909D01*
X133307871Y-88192813D01*
X133382871Y-88212909D01*
X134168585Y-88212909D01*
X134882871Y-88212909D01*
X134957871Y-88192813D01*
X135012775Y-88137909D01*
X135032871Y-88062909D01*
X135032871Y-87348623D01*
X135012775Y-87273623D01*
X134957871Y-87218719D01*
X134882871Y-87198623D01*
X134807871Y-87218719D01*
X134752967Y-87273623D01*
X134732871Y-87348623D01*
X134732871Y-87912909D01*
X134318585Y-87912909D01*
X134318585Y-87562909D01*
X134298489Y-87487909D01*
X134243585Y-87433005D01*
X134168585Y-87412909D01*
X134093585Y-87433005D01*
X134038681Y-87487909D01*
X134018585Y-87562909D01*
X134018585Y-87912909D01*
X133382871Y-87912909D01*
X133307871Y-87933005D01*
X133252967Y-87987909D01*
X133232871Y-88062909D01*
X133018585Y-88062909D01*
X133018585Y-85634338D01*
X133232871Y-85634338D01*
X133252967Y-85709338D01*
X133307871Y-85764242D01*
X133382871Y-85784338D01*
X134882871Y-85784338D01*
X134889323Y-85782609D01*
X134895901Y-85783771D01*
X134926461Y-85772658D01*
X134957871Y-85764242D01*
X134962594Y-85759518D01*
X134968872Y-85757236D01*
X134989783Y-85732329D01*
X135012775Y-85709338D01*
X135014503Y-85702887D01*
X135018799Y-85697771D01*
X135024456Y-85665740D01*
X135032871Y-85634338D01*
X135031142Y-85627888D01*
X135032305Y-85621309D01*
X135021189Y-85590741D01*
X135012775Y-85559338D01*
X135008052Y-85554615D01*
X135005770Y-85548338D01*
X134980865Y-85527428D01*
X134957871Y-85504434D01*
X134951418Y-85502705D01*
X134946304Y-85498411D01*
X134166147Y-85134338D01*
X134946304Y-84770265D01*
X134951418Y-84765970D01*
X134957871Y-84764242D01*
X134980865Y-84741247D01*
X135005770Y-84720338D01*
X135008052Y-84714060D01*
X135012775Y-84709338D01*
X135021189Y-84677934D01*
X135032305Y-84647367D01*
X135031142Y-84640787D01*
X135032871Y-84634338D01*
X135024456Y-84602935D01*
X135018799Y-84570905D01*
X135014503Y-84565788D01*
X135012775Y-84559338D01*
X134989783Y-84536346D01*
X134968872Y-84511440D01*
X134962594Y-84509157D01*
X134957871Y-84504434D01*
X134926461Y-84496017D01*
X134895901Y-84484905D01*
X134889323Y-84486066D01*
X134882871Y-84484338D01*
X133382871Y-84484338D01*
X133307871Y-84504434D01*
X133252967Y-84559338D01*
X133232871Y-84634338D01*
X133252967Y-84709338D01*
X133307871Y-84764242D01*
X133382871Y-84784338D01*
X134206737Y-84784338D01*
X133748009Y-84998411D01*
X133737876Y-85006918D01*
X133725442Y-85011440D01*
X133708601Y-85031497D01*
X133688544Y-85048338D01*
X133684022Y-85060772D01*
X133675515Y-85070905D01*
X133670959Y-85096695D01*
X133662009Y-85121309D01*
X133664310Y-85134338D01*
X133662009Y-85147367D01*
X133670959Y-85171980D01*
X133675515Y-85197771D01*
X133684022Y-85207903D01*
X133688544Y-85220338D01*
X133708601Y-85237178D01*
X133725442Y-85257236D01*
X133737876Y-85261757D01*
X133748009Y-85270265D01*
X134206737Y-85484338D01*
X133382871Y-85484338D01*
X133307871Y-85504434D01*
X133252967Y-85559338D01*
X133232871Y-85634338D01*
X133018585Y-85634338D01*
X133018585Y-83705766D01*
X133232871Y-83705766D01*
X133241794Y-83739067D01*
X133248707Y-83772848D01*
X133320136Y-83915705D01*
X133336158Y-83933773D01*
X133348233Y-83954688D01*
X133419661Y-84026117D01*
X133440576Y-84038192D01*
X133458646Y-84054216D01*
X133601504Y-84125644D01*
X133635279Y-84132555D01*
X133668585Y-84141480D01*
X134097157Y-84141480D01*
X134130460Y-84132556D01*
X134164239Y-84125644D01*
X134307096Y-84054216D01*
X134325165Y-84038192D01*
X134346081Y-84026117D01*
X134417509Y-83954688D01*
X134429583Y-83933773D01*
X134445606Y-83915705D01*
X134517035Y-83772849D01*
X134523948Y-83739066D01*
X134532871Y-83705766D01*
X134532871Y-83491480D01*
X134523948Y-83458179D01*
X134517035Y-83424397D01*
X134445606Y-83281541D01*
X134429583Y-83263472D01*
X134417508Y-83242557D01*
X134346080Y-83171129D01*
X134325164Y-83159053D01*
X134307096Y-83143031D01*
X134164239Y-83071602D01*
X134130458Y-83064689D01*
X134097157Y-83055766D01*
X133668585Y-83055766D01*
X133635284Y-83064688D01*
X133601502Y-83071602D01*
X133458646Y-83143031D01*
X133440577Y-83159053D01*
X133419662Y-83171129D01*
X133348234Y-83242557D01*
X133336158Y-83263472D01*
X133320136Y-83281541D01*
X133248707Y-83424398D01*
X133241794Y-83458178D01*
X133232871Y-83491480D01*
X133232871Y-83705766D01*
X133018585Y-83705766D01*
X133018585Y-82348623D01*
X133232871Y-82348623D01*
X133241794Y-82381924D01*
X133248707Y-82415705D01*
X133320136Y-82558562D01*
X133336158Y-82576630D01*
X133348233Y-82597545D01*
X133419661Y-82668974D01*
X133440576Y-82681049D01*
X133458646Y-82697073D01*
X133601504Y-82768501D01*
X133635279Y-82775412D01*
X133668585Y-82784337D01*
X134097157Y-82784337D01*
X134130460Y-82775413D01*
X134164239Y-82768501D01*
X134307096Y-82697073D01*
X134325165Y-82681049D01*
X134346081Y-82668974D01*
X134417509Y-82597545D01*
X134429583Y-82576630D01*
X134445606Y-82558562D01*
X134517035Y-82415706D01*
X134523948Y-82381923D01*
X134532871Y-82348623D01*
X134532871Y-82070052D01*
X134882871Y-82070052D01*
X134957871Y-82049956D01*
X135012775Y-81995052D01*
X135032871Y-81920052D01*
X135012775Y-81845052D01*
X134957871Y-81790148D01*
X134882871Y-81770052D01*
X133382871Y-81770052D01*
X133307871Y-81790148D01*
X133252967Y-81845052D01*
X133232871Y-81920052D01*
X133251615Y-81990009D01*
X133248707Y-81995827D01*
X133241794Y-82029607D01*
X133232871Y-82062909D01*
X133232871Y-82348623D01*
X133018585Y-82348623D01*
X133018585Y-80991480D01*
X133232871Y-80991480D01*
X133241794Y-81024781D01*
X133248707Y-81058562D01*
X133320136Y-81201419D01*
X133326222Y-81208282D01*
X133329123Y-81216985D01*
X133351663Y-81236973D01*
X133371652Y-81259514D01*
X133380354Y-81262414D01*
X133387218Y-81268501D01*
X133530074Y-81339930D01*
X133563856Y-81346843D01*
X133597157Y-81355766D01*
X134382871Y-81355766D01*
X134457871Y-81335670D01*
X134512775Y-81280766D01*
X134532871Y-81205766D01*
X134512775Y-81130766D01*
X134457871Y-81075862D01*
X134382871Y-81055766D01*
X133632567Y-81055766D01*
X133566103Y-81022534D01*
X133532871Y-80956069D01*
X133532871Y-80812604D01*
X133577578Y-80723190D01*
X133587860Y-80712909D01*
X134382871Y-80712909D01*
X134457871Y-80692813D01*
X134512775Y-80637909D01*
X134532871Y-80562909D01*
X134512775Y-80487909D01*
X134457871Y-80433005D01*
X134382871Y-80412909D01*
X133382871Y-80412909D01*
X133307871Y-80433005D01*
X133252967Y-80487909D01*
X133232871Y-80562909D01*
X133252967Y-80637909D01*
X133274194Y-80659136D01*
X133248707Y-80710112D01*
X133241794Y-80743892D01*
X133232871Y-80777194D01*
X133232871Y-80991480D01*
X133018585Y-80991480D01*
X133018585Y-79625350D01*
X133233140Y-79625350D01*
X133248707Y-79701419D01*
X133320136Y-79844276D01*
X133326222Y-79851139D01*
X133329123Y-79859842D01*
X133351663Y-79879830D01*
X133371652Y-79902371D01*
X133380354Y-79905271D01*
X133387218Y-79911358D01*
X133530074Y-79982787D01*
X133563856Y-79989700D01*
X133597157Y-79998623D01*
X134882871Y-79998623D01*
X134957871Y-79978527D01*
X135012775Y-79923623D01*
X135032871Y-79848623D01*
X135012775Y-79773623D01*
X134957871Y-79718719D01*
X134882871Y-79698623D01*
X133632567Y-79698623D01*
X133566103Y-79665391D01*
X133517035Y-79567255D01*
X133465519Y-79509160D01*
X133391858Y-79484606D01*
X133315789Y-79500173D01*
X133257694Y-79551689D01*
X133233140Y-79625350D01*
X133018585Y-79625350D01*
X133018585Y-78920052D01*
X133232871Y-78920052D01*
X133241794Y-78953353D01*
X133248707Y-78987134D01*
X133320136Y-79129991D01*
X133326221Y-79136853D01*
X133329123Y-79145558D01*
X133351666Y-79165548D01*
X133371652Y-79188086D01*
X133380354Y-79190986D01*
X133387218Y-79197073D01*
X133530076Y-79268501D01*
X133563851Y-79275412D01*
X133597157Y-79284337D01*
X134168585Y-79284337D01*
X134201888Y-79275413D01*
X134235667Y-79268501D01*
X134378524Y-79197073D01*
X134385387Y-79190986D01*
X134394090Y-79188086D01*
X134414075Y-79165548D01*
X134436619Y-79145558D01*
X134439520Y-79136853D01*
X134445606Y-79129991D01*
X134517035Y-78987135D01*
X134523948Y-78953352D01*
X134532871Y-78920052D01*
X134532871Y-78634337D01*
X134523948Y-78601036D01*
X134517035Y-78567254D01*
X134445606Y-78424398D01*
X134439520Y-78417535D01*
X134436619Y-78408831D01*
X134414075Y-78388840D01*
X134394090Y-78366303D01*
X134385387Y-78363402D01*
X134378524Y-78357316D01*
X134235667Y-78285888D01*
X134201888Y-78278975D01*
X134168585Y-78270052D01*
X134025728Y-78270052D01*
X134002085Y-78276386D01*
X133977661Y-78277962D01*
X133965197Y-78286270D01*
X133950728Y-78290148D01*
X133933421Y-78307454D01*
X133913055Y-78321032D01*
X133906415Y-78334460D01*
X133895824Y-78345052D01*
X133889489Y-78368693D01*
X133878641Y-78390634D01*
X133759901Y-78984337D01*
X133632567Y-78984337D01*
X133566103Y-78951105D01*
X133532871Y-78884641D01*
X133532871Y-78669747D01*
X133588464Y-78558563D01*
X133604031Y-78482493D01*
X133579477Y-78408832D01*
X133521382Y-78357316D01*
X133445313Y-78341749D01*
X133371652Y-78366303D01*
X133320136Y-78424398D01*
X133248707Y-78567255D01*
X133241794Y-78601035D01*
X133232871Y-78634337D01*
X133232871Y-78920052D01*
X133018585Y-78920052D01*
X133018585Y-76786849D01*
X133233182Y-76786849D01*
X133258063Y-76860400D01*
X133316387Y-76911657D01*
X133392525Y-76926884D01*
X133466076Y-76902003D01*
X134132870Y-76457472D01*
X134799666Y-76902003D01*
X134873217Y-76926884D01*
X134949355Y-76911657D01*
X135007679Y-76860400D01*
X135032560Y-76786849D01*
X135017333Y-76710711D01*
X134966076Y-76652388D01*
X134403287Y-76277195D01*
X134966076Y-75902002D01*
X135017333Y-75843679D01*
X135032560Y-75767541D01*
X135007679Y-75693990D01*
X134949355Y-75642733D01*
X134873217Y-75627506D01*
X134799666Y-75652387D01*
X134132870Y-76096917D01*
X133466076Y-75652387D01*
X133392525Y-75627506D01*
X133316387Y-75642733D01*
X133258063Y-75693990D01*
X133233182Y-75767541D01*
X133248409Y-75843679D01*
X133299666Y-75902003D01*
X133862454Y-76277195D01*
X133299666Y-76652387D01*
X133248409Y-76710711D01*
X133233182Y-76786849D01*
X133018585Y-76786849D01*
X133018585Y-75348624D01*
X133232871Y-75348624D01*
X133237982Y-75367698D01*
X133237982Y-75387447D01*
X133247855Y-75404549D01*
X133252967Y-75423624D01*
X133266931Y-75437588D01*
X133276805Y-75454690D01*
X133293906Y-75464563D01*
X133307871Y-75478528D01*
X133326945Y-75483639D01*
X133344048Y-75493513D01*
X133363796Y-75493513D01*
X133382871Y-75498624D01*
X133401946Y-75493513D01*
X133421694Y-75493513D01*
X133438796Y-75483639D01*
X133457871Y-75478528D01*
X133471835Y-75464563D01*
X133488937Y-75454690D01*
X134321041Y-74622585D01*
X134478643Y-74570052D01*
X134561747Y-74570052D01*
X134651160Y-74614759D01*
X134688163Y-74651763D01*
X134732871Y-74741177D01*
X134732871Y-75027499D01*
X134688164Y-75116912D01*
X134633948Y-75171129D01*
X134595125Y-75238372D01*
X134595125Y-75316018D01*
X134633948Y-75383261D01*
X134701191Y-75422084D01*
X134778837Y-75422084D01*
X134846080Y-75383261D01*
X134917508Y-75311833D01*
X134929583Y-75290917D01*
X134945606Y-75272849D01*
X135017035Y-75129993D01*
X135023948Y-75096210D01*
X135032871Y-75062910D01*
X135032871Y-74705767D01*
X135023948Y-74672466D01*
X135017035Y-74638684D01*
X134945606Y-74495828D01*
X134929583Y-74477759D01*
X134917509Y-74456845D01*
X134846081Y-74385416D01*
X134825164Y-74373339D01*
X134807096Y-74357317D01*
X134664239Y-74285888D01*
X134630458Y-74278975D01*
X134597157Y-74270052D01*
X134454300Y-74270052D01*
X134430971Y-74276302D01*
X134406865Y-74277750D01*
X134192580Y-74349179D01*
X134163807Y-74368175D01*
X134133948Y-74385415D01*
X133532871Y-74986492D01*
X133532871Y-74420052D01*
X133512775Y-74345052D01*
X133457871Y-74290148D01*
X133382871Y-74270052D01*
X133307871Y-74290148D01*
X133252967Y-74345052D01*
X133232871Y-74420052D01*
X133232871Y-75348624D01*
X133018585Y-75348624D01*
X133018585Y-74055766D01*
X135247157Y-74055766D01*
X135247157Y-101784339D01*
G37*
D11*
X159367313Y-96182547D02*
X159367313Y-93682547D01*
X159367313Y-94873023D02*
X157938742Y-94873023D01*
X157938742Y-96182547D02*
X157938742Y-93682547D01*
X157105408Y-93682547D02*
X156272075Y-96182547D01*
X156272075Y-96182547D02*
X155438742Y-93682547D01*
D13*
G36*
X132126980Y-101064351D02*
G01*
X132197886Y-101099804D01*
X132264958Y-101166876D01*
X132299980Y-101271940D01*
X132299980Y-101393809D01*
X131499980Y-101393809D01*
X131499980Y-101271941D01*
X131535002Y-101166876D01*
X131602075Y-101099804D01*
X131672980Y-101064351D01*
X131840861Y-101022381D01*
X131959099Y-101022381D01*
X132126980Y-101064351D01*
G37*
G36*
X131944492Y-100187393D02*
G01*
X131966647Y-100231702D01*
X131966647Y-100374964D01*
X131944492Y-100419272D01*
X131900183Y-100441428D01*
X131855294Y-100441428D01*
X131909591Y-100169942D01*
X131944492Y-100187393D01*
G37*
G36*
X131966647Y-98041226D02*
G01*
X131966647Y-98184488D01*
X131936842Y-98244097D01*
X131912173Y-98268765D01*
X131852564Y-98298571D01*
X131614064Y-98298571D01*
X131554454Y-98268766D01*
X131529783Y-98244095D01*
X131499980Y-98184488D01*
X131499980Y-98041225D01*
X131509402Y-98022381D01*
X131957224Y-98022381D01*
X131966647Y-98041226D01*
G37*
G36*
X131944492Y-96235012D02*
G01*
X131966647Y-96279321D01*
X131966647Y-96422583D01*
X131944492Y-96466891D01*
X131900183Y-96489047D01*
X131855294Y-96489047D01*
X131909591Y-96217561D01*
X131944492Y-96235012D01*
G37*
G36*
X131966647Y-95374559D02*
G01*
X131966647Y-95517821D01*
X131936842Y-95577430D01*
X131912173Y-95602098D01*
X131852564Y-95631904D01*
X131614064Y-95631904D01*
X131554454Y-95602099D01*
X131529783Y-95577428D01*
X131499980Y-95517821D01*
X131499980Y-95374558D01*
X131509402Y-95355714D01*
X131957224Y-95355714D01*
X131966647Y-95374559D01*
G37*
G36*
X131912173Y-93671233D02*
G01*
X131936842Y-93695901D01*
X131966647Y-93755511D01*
X131966647Y-93898773D01*
X131957225Y-93917618D01*
X131509402Y-93917618D01*
X131499980Y-93898773D01*
X131499980Y-93755510D01*
X131529783Y-93695903D01*
X131554454Y-93671232D01*
X131614064Y-93641428D01*
X131852564Y-93641428D01*
X131912173Y-93671233D01*
G37*
G36*
X132083752Y-91398570D02*
G01*
X131785695Y-91497922D01*
X131785695Y-91299217D01*
X132083752Y-91398570D01*
G37*
G36*
X131680933Y-90089248D02*
G01*
X131658778Y-90133556D01*
X131614469Y-90155712D01*
X131566445Y-90155712D01*
X131522134Y-90133556D01*
X131499980Y-90089248D01*
X131499980Y-89898366D01*
X131509402Y-89879522D01*
X131680933Y-89879522D01*
X131680933Y-90089248D01*
G37*
G36*
X131680933Y-86517819D02*
G01*
X131658778Y-86562127D01*
X131614469Y-86584283D01*
X131566445Y-86584283D01*
X131522134Y-86562127D01*
X131499980Y-86517819D01*
X131499980Y-86326937D01*
X131509402Y-86308093D01*
X131680933Y-86308093D01*
X131680933Y-86517819D01*
G37*
G36*
X131680933Y-84232104D02*
G01*
X131658778Y-84276412D01*
X131614469Y-84298568D01*
X131566445Y-84298568D01*
X131522134Y-84276412D01*
X131499980Y-84232104D01*
X131499980Y-84041222D01*
X131509402Y-84022378D01*
X131680933Y-84022378D01*
X131680933Y-84232104D01*
G37*
G36*
X131912173Y-81671230D02*
G01*
X131936842Y-81695898D01*
X131966647Y-81755508D01*
X131966647Y-81851151D01*
X131936842Y-81910760D01*
X131912173Y-81935428D01*
X131852564Y-81965234D01*
X131614064Y-81965234D01*
X131554454Y-81935429D01*
X131529783Y-81910758D01*
X131499980Y-81851151D01*
X131499980Y-81755507D01*
X131529783Y-81695900D01*
X131554454Y-81671229D01*
X131614064Y-81641425D01*
X131852564Y-81641425D01*
X131912173Y-81671230D01*
G37*
G36*
X132642837Y-101736666D02*
G01*
X130823790Y-101736666D01*
X130823790Y-101493809D01*
X131299980Y-101493809D01*
X131304874Y-101508871D01*
X131304874Y-101524711D01*
X131314183Y-101537524D01*
X131319078Y-101552588D01*
X131331891Y-101561897D01*
X131341201Y-101574711D01*
X131356264Y-101579605D01*
X131369078Y-101588915D01*
X131384917Y-101588915D01*
X131399980Y-101593809D01*
X132399980Y-101593809D01*
X132415043Y-101588915D01*
X132430882Y-101588915D01*
X132443695Y-101579605D01*
X132458759Y-101574711D01*
X132468068Y-101561897D01*
X132480882Y-101552588D01*
X132485776Y-101537524D01*
X132495086Y-101524711D01*
X132495086Y-101508871D01*
X132499980Y-101493809D01*
X132499980Y-101255714D01*
X132494971Y-101240298D01*
X132494848Y-101224091D01*
X132447229Y-101081234D01*
X132433538Y-101062687D01*
X132423072Y-101042146D01*
X132327834Y-100946908D01*
X132313391Y-100939549D01*
X132301844Y-100928176D01*
X132206606Y-100880557D01*
X132195584Y-100878896D01*
X132186138Y-100872986D01*
X131995663Y-100825367D01*
X131983246Y-100826227D01*
X131971409Y-100822381D01*
X131828552Y-100822381D01*
X131816714Y-100826227D01*
X131804298Y-100825367D01*
X131613822Y-100872986D01*
X131604375Y-100878896D01*
X131593354Y-100880557D01*
X131498117Y-100928176D01*
X131486569Y-100939549D01*
X131472127Y-100946908D01*
X131376889Y-101042146D01*
X131366423Y-101062686D01*
X131352732Y-101081233D01*
X131305112Y-101224091D01*
X131304988Y-101240298D01*
X131299980Y-101255714D01*
X131299980Y-101493809D01*
X130823790Y-101493809D01*
X130823790Y-100398571D01*
X131299980Y-100398571D01*
X131307104Y-100420497D01*
X131310538Y-100443293D01*
X131358158Y-100538531D01*
X131358715Y-100539096D01*
X131358846Y-100539883D01*
X131380348Y-100561061D01*
X131401527Y-100582564D01*
X131402313Y-100582694D01*
X131402879Y-100583252D01*
X131498116Y-100630871D01*
X131520914Y-100634304D01*
X131542838Y-100641428D01*
X131923790Y-100641428D01*
X131945713Y-100634304D01*
X131968511Y-100630871D01*
X132063749Y-100583252D01*
X132064315Y-100582693D01*
X132065102Y-100582563D01*
X132086279Y-100561060D01*
X132107782Y-100539883D01*
X132107912Y-100539096D01*
X132108471Y-100538530D01*
X132156090Y-100443293D01*
X132159523Y-100420494D01*
X132166647Y-100398571D01*
X132166647Y-100208095D01*
X132159523Y-100186171D01*
X132156090Y-100163373D01*
X132108471Y-100068136D01*
X132107912Y-100067569D01*
X132107782Y-100066783D01*
X132086279Y-100045605D01*
X132065102Y-100024103D01*
X132064315Y-100023972D01*
X132063749Y-100023414D01*
X131968511Y-99975795D01*
X131945713Y-99972361D01*
X131923790Y-99965238D01*
X131828552Y-99965238D01*
X131822815Y-99967101D01*
X131816902Y-99965919D01*
X131793877Y-99976504D01*
X131769773Y-99984336D01*
X131766227Y-99989215D01*
X131760748Y-99991735D01*
X131748343Y-100013830D01*
X131733446Y-100034336D01*
X131733446Y-100040368D01*
X131730494Y-100045627D01*
X131651334Y-100441428D01*
X131566445Y-100441428D01*
X131522134Y-100419272D01*
X131499980Y-100374964D01*
X131499980Y-100231701D01*
X131537042Y-100157579D01*
X131546248Y-100096465D01*
X131517773Y-100041612D01*
X131462494Y-100013972D01*
X131401527Y-100024102D01*
X131358158Y-100068135D01*
X131310538Y-100163373D01*
X131307104Y-100186168D01*
X131299980Y-100208095D01*
X131299980Y-100398571D01*
X130823790Y-100398571D01*
X130823790Y-99589047D01*
X131299980Y-99589047D01*
X131307104Y-99610973D01*
X131310538Y-99633769D01*
X131358158Y-99729007D01*
X131401527Y-99773040D01*
X131462494Y-99783170D01*
X131517773Y-99755530D01*
X131546248Y-99700677D01*
X131537042Y-99639563D01*
X131499980Y-99565440D01*
X131499980Y-99422177D01*
X131522134Y-99377869D01*
X131566445Y-99355714D01*
X131566850Y-99355714D01*
X131611159Y-99377869D01*
X131633314Y-99422178D01*
X131633314Y-99541428D01*
X131640437Y-99563351D01*
X131643871Y-99586149D01*
X131691490Y-99681387D01*
X131692048Y-99681953D01*
X131692179Y-99682740D01*
X131713681Y-99703917D01*
X131734859Y-99725420D01*
X131735645Y-99725550D01*
X131736212Y-99726109D01*
X131831449Y-99773728D01*
X131854247Y-99777161D01*
X131876171Y-99784285D01*
X131923790Y-99784285D01*
X131945713Y-99777161D01*
X131968511Y-99773728D01*
X132063749Y-99726109D01*
X132064315Y-99725550D01*
X132065102Y-99725420D01*
X132086279Y-99703917D01*
X132107782Y-99682740D01*
X132107912Y-99681953D01*
X132108471Y-99681387D01*
X132156090Y-99586150D01*
X132159523Y-99563351D01*
X132166647Y-99541428D01*
X132166647Y-99398571D01*
X132159523Y-99376647D01*
X132156090Y-99353849D01*
X132108471Y-99258612D01*
X132065102Y-99214579D01*
X132004135Y-99204448D01*
X131948856Y-99232087D01*
X131920380Y-99286940D01*
X131929585Y-99348054D01*
X131966647Y-99422178D01*
X131966647Y-99517821D01*
X131944492Y-99562129D01*
X131900183Y-99584285D01*
X131899778Y-99584285D01*
X131855469Y-99562130D01*
X131833314Y-99517820D01*
X131833314Y-99398571D01*
X131826190Y-99376647D01*
X131822757Y-99353849D01*
X131775138Y-99258612D01*
X131774579Y-99258045D01*
X131774449Y-99257259D01*
X131752946Y-99236081D01*
X131731769Y-99214579D01*
X131730982Y-99214448D01*
X131730416Y-99213890D01*
X131635178Y-99166271D01*
X131612380Y-99162837D01*
X131590457Y-99155714D01*
X131542838Y-99155714D01*
X131520914Y-99162837D01*
X131498116Y-99166271D01*
X131402879Y-99213890D01*
X131402313Y-99214447D01*
X131401527Y-99214578D01*
X131380348Y-99236080D01*
X131358846Y-99257259D01*
X131358715Y-99258045D01*
X131358158Y-99258611D01*
X131310538Y-99353849D01*
X131307104Y-99376644D01*
X131299980Y-99398571D01*
X131299980Y-99589047D01*
X130823790Y-99589047D01*
X130823790Y-98858044D01*
X131304874Y-98858044D01*
X131341201Y-98908044D01*
X131399980Y-98927142D01*
X132066647Y-98927142D01*
X132125426Y-98908044D01*
X132161753Y-98858044D01*
X132161753Y-98842785D01*
X132205973Y-98842785D01*
X132209636Y-98849974D01*
X132209636Y-98858044D01*
X132214378Y-98864571D01*
X132215641Y-98872541D01*
X132226840Y-98883740D01*
X132234031Y-98897853D01*
X132281650Y-98945471D01*
X132295761Y-98952661D01*
X132306962Y-98963862D01*
X132322605Y-98966339D01*
X132336717Y-98973530D01*
X132352360Y-98971052D01*
X132368004Y-98973530D01*
X132382116Y-98966339D01*
X132397760Y-98963862D01*
X132408959Y-98952662D01*
X132423072Y-98945472D01*
X132470690Y-98897853D01*
X132477880Y-98883741D01*
X132489081Y-98872541D01*
X132490343Y-98864572D01*
X132495086Y-98858044D01*
X132495086Y-98849974D01*
X132498749Y-98842786D01*
X132496271Y-98827142D01*
X132498749Y-98811498D01*
X132495086Y-98804309D01*
X132495086Y-98796240D01*
X132490343Y-98789711D01*
X132489081Y-98781743D01*
X132477880Y-98770542D01*
X132470690Y-98756431D01*
X132423072Y-98708812D01*
X132408959Y-98701621D01*
X132397760Y-98690422D01*
X132382116Y-98687944D01*
X132368004Y-98680754D01*
X132352360Y-98683231D01*
X132336717Y-98680754D01*
X132322605Y-98687944D01*
X132306962Y-98690422D01*
X132295761Y-98701622D01*
X132281650Y-98708813D01*
X132234031Y-98756431D01*
X132226840Y-98770543D01*
X132215641Y-98781743D01*
X132214378Y-98789712D01*
X132209636Y-98796240D01*
X132209636Y-98804309D01*
X132205973Y-98811499D01*
X132208450Y-98827142D01*
X132205973Y-98842785D01*
X132161753Y-98842785D01*
X132161753Y-98796240D01*
X132125426Y-98746240D01*
X132066647Y-98727142D01*
X131399980Y-98727142D01*
X131341201Y-98746240D01*
X131304874Y-98796240D01*
X131304874Y-98858044D01*
X130823790Y-98858044D01*
X130823790Y-98255714D01*
X130966647Y-98255714D01*
X130973770Y-98277637D01*
X130977204Y-98300435D01*
X131024823Y-98395673D01*
X131068192Y-98439706D01*
X131129159Y-98449837D01*
X131184438Y-98422197D01*
X131212914Y-98367345D01*
X131203709Y-98306230D01*
X131166647Y-98232106D01*
X131166647Y-98136464D01*
X131196452Y-98076854D01*
X131221120Y-98052185D01*
X131280730Y-98022381D01*
X131299980Y-98022381D01*
X131299980Y-98208095D01*
X131307104Y-98230021D01*
X131310538Y-98252817D01*
X131358158Y-98348055D01*
X131369530Y-98359601D01*
X131376889Y-98374044D01*
X131424508Y-98421662D01*
X131438949Y-98429020D01*
X131450498Y-98440395D01*
X131545735Y-98488014D01*
X131568533Y-98491447D01*
X131590457Y-98498571D01*
X131876171Y-98498571D01*
X131898094Y-98491447D01*
X131920892Y-98488014D01*
X132016130Y-98440395D01*
X132027677Y-98429021D01*
X132042120Y-98421663D01*
X132089738Y-98374044D01*
X132097096Y-98359602D01*
X132108471Y-98348054D01*
X132156090Y-98252817D01*
X132159523Y-98230018D01*
X132166647Y-98208095D01*
X132166647Y-98017619D01*
X132159523Y-97995695D01*
X132156090Y-97972897D01*
X132152589Y-97965895D01*
X132161753Y-97953283D01*
X132161753Y-97891479D01*
X132125426Y-97841479D01*
X132066647Y-97822381D01*
X131257123Y-97822381D01*
X131235199Y-97829504D01*
X131212401Y-97832938D01*
X131117164Y-97880557D01*
X131105615Y-97891931D01*
X131091174Y-97899290D01*
X131043555Y-97946908D01*
X131036196Y-97961350D01*
X131024823Y-97972898D01*
X130977204Y-98068136D01*
X130973770Y-98090933D01*
X130966647Y-98112857D01*
X130966647Y-98255714D01*
X130823790Y-98255714D01*
X130823790Y-97477092D01*
X131304874Y-97477092D01*
X131341201Y-97527092D01*
X131399980Y-97546190D01*
X132066647Y-97546190D01*
X132125426Y-97527092D01*
X132161753Y-97477092D01*
X132161753Y-97415288D01*
X132138485Y-97383263D01*
X132156090Y-97348055D01*
X132159523Y-97325256D01*
X132166647Y-97303333D01*
X132166647Y-97160476D01*
X132159523Y-97138552D01*
X132156090Y-97115754D01*
X132108471Y-97020517D01*
X132107912Y-97019950D01*
X132107782Y-97019164D01*
X132086279Y-96997986D01*
X132065102Y-96976484D01*
X132064315Y-96976353D01*
X132063749Y-96975795D01*
X131968511Y-96928176D01*
X131945713Y-96924742D01*
X131923790Y-96917619D01*
X131399980Y-96917619D01*
X131341201Y-96936717D01*
X131304874Y-96986717D01*
X131304874Y-97048521D01*
X131341201Y-97098521D01*
X131399980Y-97117619D01*
X131900183Y-97117619D01*
X131944492Y-97139774D01*
X131966647Y-97184083D01*
X131966647Y-97279726D01*
X131936842Y-97339335D01*
X131929988Y-97346190D01*
X131399980Y-97346190D01*
X131341201Y-97365288D01*
X131304874Y-97415288D01*
X131304874Y-97477092D01*
X130823790Y-97477092D01*
X130823790Y-96446190D01*
X131299980Y-96446190D01*
X131307104Y-96468116D01*
X131310538Y-96490912D01*
X131358158Y-96586150D01*
X131358715Y-96586715D01*
X131358846Y-96587502D01*
X131380348Y-96608680D01*
X131401527Y-96630183D01*
X131402313Y-96630313D01*
X131402879Y-96630871D01*
X131498116Y-96678490D01*
X131520914Y-96681923D01*
X131542838Y-96689047D01*
X131923790Y-96689047D01*
X131945713Y-96681923D01*
X131968511Y-96678490D01*
X132063749Y-96630871D01*
X132064315Y-96630312D01*
X132065102Y-96630182D01*
X132086279Y-96608679D01*
X132107782Y-96587502D01*
X132107912Y-96586715D01*
X132108471Y-96586149D01*
X132156090Y-96490912D01*
X132159523Y-96468113D01*
X132166647Y-96446190D01*
X132166647Y-96255714D01*
X132159523Y-96233790D01*
X132156090Y-96210992D01*
X132108471Y-96115755D01*
X132107912Y-96115188D01*
X132107782Y-96114402D01*
X132086279Y-96093224D01*
X132065102Y-96071722D01*
X132064315Y-96071591D01*
X132063749Y-96071033D01*
X131968511Y-96023414D01*
X131945713Y-96019980D01*
X131923790Y-96012857D01*
X131828552Y-96012857D01*
X131822815Y-96014720D01*
X131816902Y-96013538D01*
X131793877Y-96024123D01*
X131769773Y-96031955D01*
X131766227Y-96036834D01*
X131760748Y-96039354D01*
X131748343Y-96061449D01*
X131733446Y-96081955D01*
X131733446Y-96087987D01*
X131730494Y-96093246D01*
X131651334Y-96489047D01*
X131566445Y-96489047D01*
X131522134Y-96466891D01*
X131499980Y-96422583D01*
X131499980Y-96279320D01*
X131537042Y-96205198D01*
X131546248Y-96144084D01*
X131517773Y-96089231D01*
X131462494Y-96061591D01*
X131401527Y-96071721D01*
X131358158Y-96115754D01*
X131310538Y-96210992D01*
X131307104Y-96233787D01*
X131299980Y-96255714D01*
X131299980Y-96446190D01*
X130823790Y-96446190D01*
X130823790Y-95541428D01*
X131299980Y-95541428D01*
X131307104Y-95563354D01*
X131310538Y-95586150D01*
X131358158Y-95681388D01*
X131369530Y-95692934D01*
X131376889Y-95707377D01*
X131424508Y-95754995D01*
X131438949Y-95762353D01*
X131450498Y-95773728D01*
X131545735Y-95821347D01*
X131568533Y-95824780D01*
X131590457Y-95831904D01*
X131876171Y-95831904D01*
X131898094Y-95824780D01*
X131920892Y-95821347D01*
X132016130Y-95773728D01*
X132027677Y-95762354D01*
X132042120Y-95754996D01*
X132089738Y-95707377D01*
X132097096Y-95692935D01*
X132108471Y-95681387D01*
X132156090Y-95586150D01*
X132159523Y-95563351D01*
X132166647Y-95541428D01*
X132166647Y-95355714D01*
X132399980Y-95355714D01*
X132458759Y-95336616D01*
X132495086Y-95286616D01*
X132495086Y-95224812D01*
X132458759Y-95174812D01*
X132399980Y-95155714D01*
X131399980Y-95155714D01*
X131341201Y-95174812D01*
X131304874Y-95224812D01*
X131304874Y-95286616D01*
X131314038Y-95299229D01*
X131310538Y-95306230D01*
X131307104Y-95329025D01*
X131299980Y-95350952D01*
X131299980Y-95541428D01*
X130823790Y-95541428D01*
X130823790Y-93922380D01*
X131299980Y-93922380D01*
X131307104Y-93944306D01*
X131310538Y-93967102D01*
X131314038Y-93974102D01*
X131304874Y-93986716D01*
X131304874Y-94048520D01*
X131341201Y-94098520D01*
X131399980Y-94117618D01*
X132399980Y-94117618D01*
X132458759Y-94098520D01*
X132495086Y-94048520D01*
X132495086Y-93986716D01*
X132458759Y-93936716D01*
X132399980Y-93917618D01*
X132166647Y-93917618D01*
X132166647Y-93731904D01*
X132159523Y-93709980D01*
X132156090Y-93687182D01*
X132108471Y-93591945D01*
X132097096Y-93580396D01*
X132089738Y-93565955D01*
X132042120Y-93518336D01*
X132027677Y-93510977D01*
X132016130Y-93499604D01*
X131920892Y-93451985D01*
X131898094Y-93448551D01*
X131876171Y-93441428D01*
X131590457Y-93441428D01*
X131568533Y-93448551D01*
X131545735Y-93451985D01*
X131450498Y-93499604D01*
X131438949Y-93510978D01*
X131424508Y-93518337D01*
X131376889Y-93565955D01*
X131369530Y-93580397D01*
X131358158Y-93591944D01*
X131310538Y-93687182D01*
X131307104Y-93709977D01*
X131299980Y-93731904D01*
X131299980Y-93922380D01*
X130823790Y-93922380D01*
X130823790Y-93224487D01*
X130967999Y-93224487D01*
X130996475Y-93279340D01*
X131051754Y-93306979D01*
X131112721Y-93296848D01*
X131156090Y-93252815D01*
X131196452Y-93172091D01*
X131218081Y-93150462D01*
X131401984Y-93076900D01*
X132033013Y-93302268D01*
X132094791Y-93304052D01*
X132145819Y-93269183D01*
X132166606Y-93210980D01*
X132149212Y-93151675D01*
X132100280Y-93113920D01*
X131697301Y-92969999D01*
X132100280Y-92826078D01*
X132149212Y-92788323D01*
X132166606Y-92729018D01*
X132145819Y-92670815D01*
X132094791Y-92635946D01*
X132033013Y-92637730D01*
X131366346Y-92875825D01*
X131364795Y-92877021D01*
X131362841Y-92877151D01*
X131124746Y-92972389D01*
X131109199Y-92985342D01*
X131091174Y-92994527D01*
X131043555Y-93042145D01*
X131036196Y-93056587D01*
X131024823Y-93068135D01*
X130977204Y-93163373D01*
X130967999Y-93224487D01*
X130823790Y-93224487D01*
X130823790Y-91732662D01*
X131299982Y-91732662D01*
X131319527Y-91791294D01*
X131369801Y-91827241D01*
X131431603Y-91826771D01*
X132431602Y-91493438D01*
X132455865Y-91475527D01*
X132480433Y-91457961D01*
X132480684Y-91457206D01*
X132481326Y-91456733D01*
X132490441Y-91427936D01*
X132499977Y-91399329D01*
X132499736Y-91398570D01*
X132499977Y-91397811D01*
X132490441Y-91369203D01*
X132481326Y-91340407D01*
X132480684Y-91339933D01*
X132480433Y-91339179D01*
X132455865Y-91321612D01*
X132431602Y-91303702D01*
X131431603Y-90970369D01*
X131369801Y-90969899D01*
X131319527Y-91005846D01*
X131299982Y-91064478D01*
X131318634Y-91123400D01*
X131368357Y-91160105D01*
X131585695Y-91232550D01*
X131585695Y-91564589D01*
X131368357Y-91637035D01*
X131318634Y-91673740D01*
X131299982Y-91732662D01*
X130823790Y-91732662D01*
X130823790Y-90572654D01*
X131301332Y-90572654D01*
X131310538Y-90633768D01*
X131358158Y-90729006D01*
X131358715Y-90729571D01*
X131358846Y-90730358D01*
X131380348Y-90751536D01*
X131401527Y-90773039D01*
X131402313Y-90773169D01*
X131402879Y-90773727D01*
X131498116Y-90821346D01*
X131520914Y-90824779D01*
X131542838Y-90831903D01*
X132399980Y-90831903D01*
X132458759Y-90812805D01*
X132495086Y-90762805D01*
X132495086Y-90701001D01*
X132458759Y-90651001D01*
X132399980Y-90631903D01*
X131566445Y-90631903D01*
X131522134Y-90609747D01*
X131489422Y-90544324D01*
X131446053Y-90500292D01*
X131385086Y-90490161D01*
X131329807Y-90517801D01*
X131301332Y-90572654D01*
X130823790Y-90572654D01*
X130823790Y-90112855D01*
X131299980Y-90112855D01*
X131307104Y-90134781D01*
X131310538Y-90157577D01*
X131358158Y-90252815D01*
X131358715Y-90253380D01*
X131358846Y-90254167D01*
X131380348Y-90275345D01*
X131401527Y-90296848D01*
X131402313Y-90296978D01*
X131402879Y-90297536D01*
X131498116Y-90345155D01*
X131520914Y-90348588D01*
X131542838Y-90355712D01*
X131638076Y-90355712D01*
X131659999Y-90348588D01*
X131682797Y-90345155D01*
X131778035Y-90297536D01*
X131778601Y-90296977D01*
X131779388Y-90296847D01*
X131800565Y-90275344D01*
X131822068Y-90254167D01*
X131822198Y-90253380D01*
X131822757Y-90252814D01*
X131870376Y-90157577D01*
X131873809Y-90134778D01*
X131880933Y-90112855D01*
X131880933Y-89898367D01*
X131890356Y-89879522D01*
X131900183Y-89879522D01*
X131944492Y-89901677D01*
X131966647Y-89945986D01*
X131966647Y-90089248D01*
X131929585Y-90163372D01*
X131920380Y-90224486D01*
X131948856Y-90279339D01*
X132004135Y-90306978D01*
X132065102Y-90296847D01*
X132108471Y-90252814D01*
X132156090Y-90157577D01*
X132159523Y-90134778D01*
X132166647Y-90112855D01*
X132166647Y-89922379D01*
X132159523Y-89900455D01*
X132156090Y-89877657D01*
X132108471Y-89782420D01*
X132107912Y-89781853D01*
X132107782Y-89781067D01*
X132086279Y-89759889D01*
X132065102Y-89738387D01*
X132064315Y-89738256D01*
X132063749Y-89737698D01*
X131968511Y-89690079D01*
X131945713Y-89686645D01*
X131923790Y-89679522D01*
X131399980Y-89679522D01*
X131341201Y-89698620D01*
X131304874Y-89748620D01*
X131304874Y-89810424D01*
X131314038Y-89823037D01*
X131310538Y-89830038D01*
X131307104Y-89852833D01*
X131299980Y-89874760D01*
X131299980Y-90112855D01*
X130823790Y-90112855D01*
X130823790Y-89334233D01*
X131304874Y-89334233D01*
X131341201Y-89384233D01*
X131399980Y-89403331D01*
X132066647Y-89403331D01*
X132125426Y-89384233D01*
X132161753Y-89334233D01*
X132161753Y-89272429D01*
X132138485Y-89240404D01*
X132156090Y-89205196D01*
X132159523Y-89182397D01*
X132166647Y-89160474D01*
X132166647Y-89017617D01*
X132159523Y-88995693D01*
X132156090Y-88972895D01*
X132108471Y-88877658D01*
X132107912Y-88877091D01*
X132107782Y-88876305D01*
X132086279Y-88855127D01*
X132065102Y-88833625D01*
X132064315Y-88833494D01*
X132063749Y-88832936D01*
X131968511Y-88785317D01*
X131945713Y-88781883D01*
X131923790Y-88774760D01*
X131399980Y-88774760D01*
X131341201Y-88793858D01*
X131304874Y-88843858D01*
X131304874Y-88905662D01*
X131341201Y-88955662D01*
X131399980Y-88974760D01*
X131900183Y-88974760D01*
X131944492Y-88996915D01*
X131966647Y-89041224D01*
X131966647Y-89136867D01*
X131936842Y-89196476D01*
X131929988Y-89203331D01*
X131399980Y-89203331D01*
X131341201Y-89222429D01*
X131304874Y-89272429D01*
X131304874Y-89334233D01*
X130823790Y-89334233D01*
X130823790Y-87350950D01*
X131299980Y-87350950D01*
X131304988Y-87366365D01*
X131305112Y-87382573D01*
X131352732Y-87525431D01*
X131366423Y-87543977D01*
X131376889Y-87564518D01*
X131472127Y-87659756D01*
X131486569Y-87667114D01*
X131498117Y-87678488D01*
X131593354Y-87726107D01*
X131604375Y-87727767D01*
X131613822Y-87733678D01*
X131804298Y-87781297D01*
X131816714Y-87780436D01*
X131828552Y-87784283D01*
X131971409Y-87784283D01*
X131983246Y-87780436D01*
X131995663Y-87781297D01*
X132186138Y-87733678D01*
X132195584Y-87727767D01*
X132206606Y-87726107D01*
X132301844Y-87678488D01*
X132313391Y-87667114D01*
X132327834Y-87659756D01*
X132423072Y-87564518D01*
X132433538Y-87543976D01*
X132447229Y-87525430D01*
X132494848Y-87382573D01*
X132494971Y-87366365D01*
X132499980Y-87350950D01*
X132499980Y-87255712D01*
X132494971Y-87240296D01*
X132494848Y-87224089D01*
X132447229Y-87081232D01*
X132433536Y-87062683D01*
X132423071Y-87042144D01*
X132375453Y-86994525D01*
X132320385Y-86966467D01*
X132259343Y-86976135D01*
X132215641Y-87019837D01*
X132205973Y-87080879D01*
X132234031Y-87135947D01*
X132264958Y-87166873D01*
X132299980Y-87271938D01*
X132299980Y-87334723D01*
X132264958Y-87439787D01*
X132197886Y-87506859D01*
X132126980Y-87542312D01*
X131959099Y-87584283D01*
X131840861Y-87584283D01*
X131672980Y-87542312D01*
X131602075Y-87506860D01*
X131535002Y-87439787D01*
X131499980Y-87334722D01*
X131499980Y-87271939D01*
X131535002Y-87166874D01*
X131565929Y-87135947D01*
X131593988Y-87080880D01*
X131584320Y-87019837D01*
X131540618Y-86976135D01*
X131479575Y-86966467D01*
X131424508Y-86994526D01*
X131376889Y-87042144D01*
X131366423Y-87062684D01*
X131352732Y-87081231D01*
X131305112Y-87224089D01*
X131304988Y-87240296D01*
X131299980Y-87255712D01*
X131299980Y-87350950D01*
X130823790Y-87350950D01*
X130823790Y-86541426D01*
X131299980Y-86541426D01*
X131307104Y-86563352D01*
X131310538Y-86586148D01*
X131358158Y-86681386D01*
X131358715Y-86681951D01*
X131358846Y-86682738D01*
X131380348Y-86703916D01*
X131401527Y-86725419D01*
X131402313Y-86725549D01*
X131402879Y-86726107D01*
X131498116Y-86773726D01*
X131520914Y-86777159D01*
X131542838Y-86784283D01*
X131638076Y-86784283D01*
X131659999Y-86777159D01*
X131682797Y-86773726D01*
X131778035Y-86726107D01*
X131778601Y-86725548D01*
X131779388Y-86725418D01*
X131800565Y-86703915D01*
X131822068Y-86682738D01*
X131822198Y-86681951D01*
X131822757Y-86681385D01*
X131870376Y-86586148D01*
X131873809Y-86563349D01*
X131880933Y-86541426D01*
X131880933Y-86326938D01*
X131890356Y-86308093D01*
X131900183Y-86308093D01*
X131944492Y-86330248D01*
X131966647Y-86374557D01*
X131966647Y-86517819D01*
X131929585Y-86591943D01*
X131920380Y-86653057D01*
X131948856Y-86707910D01*
X132004135Y-86735549D01*
X132065102Y-86725418D01*
X132108471Y-86681385D01*
X132156090Y-86586148D01*
X132159523Y-86563349D01*
X132166647Y-86541426D01*
X132166647Y-86350950D01*
X132159523Y-86329026D01*
X132156090Y-86306228D01*
X132108471Y-86210991D01*
X132107912Y-86210424D01*
X132107782Y-86209638D01*
X132086279Y-86188460D01*
X132065102Y-86166958D01*
X132064315Y-86166827D01*
X132063749Y-86166269D01*
X131968511Y-86118650D01*
X131945713Y-86115216D01*
X131923790Y-86108093D01*
X131399980Y-86108093D01*
X131341201Y-86127191D01*
X131304874Y-86177191D01*
X131304874Y-86238995D01*
X131314038Y-86251608D01*
X131310538Y-86258609D01*
X131307104Y-86281404D01*
X131299980Y-86303331D01*
X131299980Y-86541426D01*
X130823790Y-86541426D01*
X130823790Y-85762804D01*
X131304874Y-85762804D01*
X131341201Y-85812804D01*
X131399980Y-85831902D01*
X132066647Y-85831902D01*
X132125426Y-85812804D01*
X132161753Y-85762804D01*
X132161753Y-85701000D01*
X132125426Y-85651000D01*
X132123909Y-85650507D01*
X132156090Y-85586148D01*
X132159523Y-85563349D01*
X132166647Y-85541426D01*
X132166647Y-85446188D01*
X132147549Y-85387409D01*
X132097549Y-85351082D01*
X132035745Y-85351082D01*
X131985745Y-85387409D01*
X131966647Y-85446188D01*
X131966647Y-85517819D01*
X131936842Y-85577428D01*
X131912173Y-85602096D01*
X131852564Y-85631902D01*
X131399980Y-85631902D01*
X131341201Y-85651000D01*
X131304874Y-85701000D01*
X131304874Y-85762804D01*
X130823790Y-85762804D01*
X130823790Y-84972883D01*
X131300021Y-84972883D01*
X131309490Y-84999397D01*
X131317415Y-85026416D01*
X131319796Y-85028253D01*
X131320808Y-85031086D01*
X131344055Y-85046971D01*
X131366346Y-85064171D01*
X132033013Y-85302266D01*
X132094791Y-85304050D01*
X132145819Y-85269181D01*
X132166606Y-85210978D01*
X132149212Y-85151673D01*
X132100280Y-85113918D01*
X131697301Y-84969997D01*
X132100280Y-84826076D01*
X132149212Y-84788321D01*
X132166606Y-84729016D01*
X132145819Y-84670813D01*
X132094791Y-84635944D01*
X132033013Y-84637728D01*
X131366346Y-84875823D01*
X131344055Y-84893022D01*
X131320808Y-84908908D01*
X131319796Y-84911740D01*
X131317415Y-84913578D01*
X131309490Y-84940596D01*
X131300021Y-84967111D01*
X131300867Y-84969997D01*
X131300021Y-84972883D01*
X130823790Y-84972883D01*
X130823790Y-84255711D01*
X131299980Y-84255711D01*
X131307104Y-84277637D01*
X131310538Y-84300433D01*
X131358158Y-84395671D01*
X131358715Y-84396236D01*
X131358846Y-84397023D01*
X131380348Y-84418201D01*
X131401527Y-84439704D01*
X131402313Y-84439834D01*
X131402879Y-84440392D01*
X131498116Y-84488011D01*
X131520914Y-84491444D01*
X131542838Y-84498568D01*
X131638076Y-84498568D01*
X131659999Y-84491444D01*
X131682797Y-84488011D01*
X131778035Y-84440392D01*
X131778601Y-84439833D01*
X131779388Y-84439703D01*
X131800565Y-84418200D01*
X131822068Y-84397023D01*
X131822198Y-84396236D01*
X131822757Y-84395670D01*
X131870376Y-84300433D01*
X131873809Y-84277634D01*
X131880933Y-84255711D01*
X131880933Y-84041223D01*
X131890356Y-84022378D01*
X131900183Y-84022378D01*
X131944492Y-84044533D01*
X131966647Y-84088842D01*
X131966647Y-84232104D01*
X131929585Y-84306228D01*
X131920380Y-84367342D01*
X131948856Y-84422195D01*
X132004135Y-84449834D01*
X132065102Y-84439703D01*
X132108471Y-84395670D01*
X132156090Y-84300433D01*
X132159523Y-84277634D01*
X132166647Y-84255711D01*
X132166647Y-84065235D01*
X132159523Y-84043311D01*
X132156090Y-84020513D01*
X132108471Y-83925276D01*
X132107912Y-83924709D01*
X132107782Y-83923923D01*
X132086279Y-83902745D01*
X132065102Y-83881243D01*
X132064315Y-83881112D01*
X132063749Y-83880554D01*
X131968511Y-83832935D01*
X131945713Y-83829501D01*
X131923790Y-83822378D01*
X131399980Y-83822378D01*
X131341201Y-83841476D01*
X131304874Y-83891476D01*
X131304874Y-83953280D01*
X131314038Y-83965893D01*
X131310538Y-83972894D01*
X131307104Y-83995689D01*
X131299980Y-84017616D01*
X131299980Y-84255711D01*
X130823790Y-84255711D01*
X130823790Y-83286938D01*
X131301332Y-83286938D01*
X131310538Y-83348052D01*
X131358158Y-83443290D01*
X131358715Y-83443855D01*
X131358846Y-83444642D01*
X131380348Y-83465820D01*
X131401527Y-83487323D01*
X131402313Y-83487453D01*
X131402879Y-83488011D01*
X131498116Y-83535630D01*
X131520914Y-83539063D01*
X131542838Y-83546187D01*
X132399980Y-83546187D01*
X132458759Y-83527089D01*
X132495086Y-83477089D01*
X132495086Y-83415285D01*
X132458759Y-83365285D01*
X132399980Y-83346187D01*
X131566445Y-83346187D01*
X131522134Y-83324031D01*
X131489422Y-83258608D01*
X131446053Y-83214576D01*
X131385086Y-83204445D01*
X131329807Y-83232085D01*
X131301332Y-83286938D01*
X130823790Y-83286938D01*
X130823790Y-82953279D01*
X131304874Y-82953279D01*
X131341201Y-83003279D01*
X131399980Y-83022377D01*
X132399980Y-83022377D01*
X132458759Y-83003279D01*
X132495086Y-82953279D01*
X132495086Y-82891475D01*
X132458759Y-82841475D01*
X132399980Y-82822377D01*
X132156371Y-82822377D01*
X132159523Y-82801443D01*
X132166647Y-82779520D01*
X132166647Y-82636663D01*
X132159523Y-82614739D01*
X132156090Y-82591941D01*
X132108471Y-82496704D01*
X132107912Y-82496137D01*
X132107782Y-82495351D01*
X132086279Y-82474173D01*
X132065102Y-82452671D01*
X132064315Y-82452540D01*
X132063749Y-82451982D01*
X131968511Y-82404363D01*
X131945713Y-82400929D01*
X131923790Y-82393806D01*
X131399980Y-82393806D01*
X131341201Y-82412904D01*
X131304874Y-82462904D01*
X131304874Y-82524708D01*
X131341201Y-82574708D01*
X131399980Y-82593806D01*
X131900183Y-82593806D01*
X131944492Y-82615961D01*
X131966647Y-82660270D01*
X131966647Y-82755913D01*
X131936842Y-82815522D01*
X131929988Y-82822377D01*
X131399980Y-82822377D01*
X131341201Y-82841475D01*
X131304874Y-82891475D01*
X131304874Y-82953279D01*
X130823790Y-82953279D01*
X130823790Y-81874758D01*
X131299980Y-81874758D01*
X131307104Y-81896684D01*
X131310538Y-81919480D01*
X131358158Y-82014718D01*
X131369530Y-82026264D01*
X131376889Y-82040707D01*
X131424508Y-82088325D01*
X131438949Y-82095683D01*
X131450498Y-82107058D01*
X131545735Y-82154677D01*
X131568533Y-82158110D01*
X131590457Y-82165234D01*
X131876171Y-82165234D01*
X131898094Y-82158110D01*
X131920892Y-82154677D01*
X132016130Y-82107058D01*
X132027677Y-82095684D01*
X132042120Y-82088326D01*
X132089738Y-82040707D01*
X132097096Y-82026265D01*
X132108471Y-82014717D01*
X132156090Y-81919480D01*
X132159523Y-81896681D01*
X132166647Y-81874758D01*
X132166647Y-81731901D01*
X132159523Y-81709977D01*
X132156090Y-81687179D01*
X132108471Y-81591942D01*
X132097096Y-81580393D01*
X132089738Y-81565952D01*
X132042120Y-81518333D01*
X132027677Y-81510974D01*
X132016130Y-81499601D01*
X131920892Y-81451982D01*
X131898094Y-81448548D01*
X131876171Y-81441425D01*
X131590457Y-81441425D01*
X131568533Y-81448548D01*
X131545735Y-81451982D01*
X131450498Y-81499601D01*
X131438949Y-81510975D01*
X131424508Y-81518334D01*
X131376889Y-81565952D01*
X131369530Y-81580394D01*
X131358158Y-81591941D01*
X131310538Y-81687179D01*
X131307104Y-81709974D01*
X131299980Y-81731901D01*
X131299980Y-81874758D01*
X130823790Y-81874758D01*
X130823790Y-81298568D01*
X132642837Y-81298568D01*
X132642837Y-101736666D01*
G37*
D14*
X140480533Y-68978573D02*
X140480533Y-69692858D01*
X140480533Y-69692858D02*
X140528152Y-69835715D01*
X140528152Y-69835715D02*
X140623390Y-69930954D01*
X140623390Y-69930954D02*
X140766247Y-69978573D01*
X140766247Y-69978573D02*
X140861485Y-69978573D01*
X139528152Y-68978573D02*
X140004342Y-68978573D01*
X140004342Y-68978573D02*
X140051961Y-69454763D01*
X140051961Y-69454763D02*
X140004342Y-69407144D01*
X140004342Y-69407144D02*
X139909104Y-69359525D01*
X139909104Y-69359525D02*
X139671009Y-69359525D01*
X139671009Y-69359525D02*
X139575771Y-69407144D01*
X139575771Y-69407144D02*
X139528152Y-69454763D01*
X139528152Y-69454763D02*
X139480533Y-69550001D01*
X139480533Y-69550001D02*
X139480533Y-69788096D01*
X139480533Y-69788096D02*
X139528152Y-69883334D01*
X139528152Y-69883334D02*
X139575771Y-69930954D01*
X139575771Y-69930954D02*
X139671009Y-69978573D01*
X139671009Y-69978573D02*
X139909104Y-69978573D01*
X139909104Y-69978573D02*
X140004342Y-69930954D01*
X140004342Y-69930954D02*
X140051961Y-69883334D01*
X151910533Y-68978573D02*
X151910533Y-69692858D01*
X151910533Y-69692858D02*
X151958152Y-69835715D01*
X151958152Y-69835715D02*
X152053390Y-69930954D01*
X152053390Y-69930954D02*
X152196247Y-69978573D01*
X152196247Y-69978573D02*
X152291485Y-69978573D01*
X151005771Y-68978573D02*
X151196247Y-68978573D01*
X151196247Y-68978573D02*
X151291485Y-69026192D01*
X151291485Y-69026192D02*
X151339104Y-69073811D01*
X151339104Y-69073811D02*
X151434342Y-69216668D01*
X151434342Y-69216668D02*
X151481961Y-69407144D01*
X151481961Y-69407144D02*
X151481961Y-69788096D01*
X151481961Y-69788096D02*
X151434342Y-69883334D01*
X151434342Y-69883334D02*
X151386723Y-69930954D01*
X151386723Y-69930954D02*
X151291485Y-69978573D01*
X151291485Y-69978573D02*
X151101009Y-69978573D01*
X151101009Y-69978573D02*
X151005771Y-69930954D01*
X151005771Y-69930954D02*
X150958152Y-69883334D01*
X150958152Y-69883334D02*
X150910533Y-69788096D01*
X150910533Y-69788096D02*
X150910533Y-69550001D01*
X150910533Y-69550001D02*
X150958152Y-69454763D01*
X150958152Y-69454763D02*
X151005771Y-69407144D01*
X151005771Y-69407144D02*
X151101009Y-69359525D01*
X151101009Y-69359525D02*
X151291485Y-69359525D01*
X151291485Y-69359525D02*
X151386723Y-69407144D01*
X151386723Y-69407144D02*
X151434342Y-69454763D01*
X151434342Y-69454763D02*
X151481961Y-69550001D01*
X174780533Y-73804573D02*
X174780533Y-74518858D01*
X174780533Y-74518858D02*
X174828152Y-74661715D01*
X174828152Y-74661715D02*
X174923390Y-74756954D01*
X174923390Y-74756954D02*
X175066247Y-74804573D01*
X175066247Y-74804573D02*
X175161485Y-74804573D01*
X173780533Y-74804573D02*
X174351961Y-74804573D01*
X174066247Y-74804573D02*
X174066247Y-73804573D01*
X174066247Y-73804573D02*
X174161485Y-73947430D01*
X174161485Y-73947430D02*
X174256723Y-74042668D01*
X174256723Y-74042668D02*
X174351961Y-74090287D01*
X129055533Y-68978573D02*
X129055533Y-69692858D01*
X129055533Y-69692858D02*
X129103152Y-69835715D01*
X129103152Y-69835715D02*
X129198390Y-69930954D01*
X129198390Y-69930954D02*
X129341247Y-69978573D01*
X129341247Y-69978573D02*
X129436485Y-69978573D01*
X128150771Y-69311906D02*
X128150771Y-69978573D01*
X128388866Y-68930954D02*
X128626961Y-69645239D01*
X128626961Y-69645239D02*
X128007914Y-69645239D01*
X163340533Y-68978573D02*
X163340533Y-69692858D01*
X163340533Y-69692858D02*
X163388152Y-69835715D01*
X163388152Y-69835715D02*
X163483390Y-69930954D01*
X163483390Y-69930954D02*
X163626247Y-69978573D01*
X163626247Y-69978573D02*
X163721485Y-69978573D01*
X162959580Y-68978573D02*
X162292914Y-68978573D01*
X162292914Y-68978573D02*
X162721485Y-69978573D01*
X137529866Y-116206573D02*
X137863199Y-115730382D01*
X138101294Y-116206573D02*
X138101294Y-115206573D01*
X138101294Y-115206573D02*
X137720342Y-115206573D01*
X137720342Y-115206573D02*
X137625104Y-115254192D01*
X137625104Y-115254192D02*
X137577485Y-115301811D01*
X137577485Y-115301811D02*
X137529866Y-115397049D01*
X137529866Y-115397049D02*
X137529866Y-115539906D01*
X137529866Y-115539906D02*
X137577485Y-115635144D01*
X137577485Y-115635144D02*
X137625104Y-115682763D01*
X137625104Y-115682763D02*
X137720342Y-115730382D01*
X137720342Y-115730382D02*
X138101294Y-115730382D01*
X137196532Y-115206573D02*
X136529866Y-115206573D01*
X136529866Y-115206573D02*
X136958437Y-116206573D01*
X137529866Y-111126573D02*
X137863199Y-110650382D01*
X138101294Y-111126573D02*
X138101294Y-110126573D01*
X138101294Y-110126573D02*
X137720342Y-110126573D01*
X137720342Y-110126573D02*
X137625104Y-110174192D01*
X137625104Y-110174192D02*
X137577485Y-110221811D01*
X137577485Y-110221811D02*
X137529866Y-110317049D01*
X137529866Y-110317049D02*
X137529866Y-110459906D01*
X137529866Y-110459906D02*
X137577485Y-110555144D01*
X137577485Y-110555144D02*
X137625104Y-110602763D01*
X137625104Y-110602763D02*
X137720342Y-110650382D01*
X137720342Y-110650382D02*
X138101294Y-110650382D01*
X136625104Y-110126573D02*
X137101294Y-110126573D01*
X137101294Y-110126573D02*
X137148913Y-110602763D01*
X137148913Y-110602763D02*
X137101294Y-110555144D01*
X137101294Y-110555144D02*
X137006056Y-110507525D01*
X137006056Y-110507525D02*
X136767961Y-110507525D01*
X136767961Y-110507525D02*
X136672723Y-110555144D01*
X136672723Y-110555144D02*
X136625104Y-110602763D01*
X136625104Y-110602763D02*
X136577485Y-110698001D01*
X136577485Y-110698001D02*
X136577485Y-110936096D01*
X136577485Y-110936096D02*
X136625104Y-111031334D01*
X136625104Y-111031334D02*
X136672723Y-111078954D01*
X136672723Y-111078954D02*
X136767961Y-111126573D01*
X136767961Y-111126573D02*
X137006056Y-111126573D01*
X137006056Y-111126573D02*
X137101294Y-111078954D01*
X137101294Y-111078954D02*
X137148913Y-111031334D01*
X144626866Y-120691917D02*
X144960199Y-120215726D01*
X145198294Y-120691917D02*
X145198294Y-119691917D01*
X145198294Y-119691917D02*
X144817342Y-119691917D01*
X144817342Y-119691917D02*
X144722104Y-119739536D01*
X144722104Y-119739536D02*
X144674485Y-119787155D01*
X144674485Y-119787155D02*
X144626866Y-119882393D01*
X144626866Y-119882393D02*
X144626866Y-120025250D01*
X144626866Y-120025250D02*
X144674485Y-120120488D01*
X144674485Y-120120488D02*
X144722104Y-120168107D01*
X144722104Y-120168107D02*
X144817342Y-120215726D01*
X144817342Y-120215726D02*
X145198294Y-120215726D01*
X144245913Y-119787155D02*
X144198294Y-119739536D01*
X144198294Y-119739536D02*
X144103056Y-119691917D01*
X144103056Y-119691917D02*
X143864961Y-119691917D01*
X143864961Y-119691917D02*
X143769723Y-119739536D01*
X143769723Y-119739536D02*
X143722104Y-119787155D01*
X143722104Y-119787155D02*
X143674485Y-119882393D01*
X143674485Y-119882393D02*
X143674485Y-119977631D01*
X143674485Y-119977631D02*
X143722104Y-120120488D01*
X143722104Y-120120488D02*
X144293532Y-120691917D01*
X144293532Y-120691917D02*
X143674485Y-120691917D01*
X124052866Y-108666425D02*
X124386199Y-108190234D01*
X124624294Y-108666425D02*
X124624294Y-107666425D01*
X124624294Y-107666425D02*
X124243342Y-107666425D01*
X124243342Y-107666425D02*
X124148104Y-107714044D01*
X124148104Y-107714044D02*
X124100485Y-107761663D01*
X124100485Y-107761663D02*
X124052866Y-107856901D01*
X124052866Y-107856901D02*
X124052866Y-107999758D01*
X124052866Y-107999758D02*
X124100485Y-108094996D01*
X124100485Y-108094996D02*
X124148104Y-108142615D01*
X124148104Y-108142615D02*
X124243342Y-108190234D01*
X124243342Y-108190234D02*
X124624294Y-108190234D01*
X123719532Y-107666425D02*
X123100485Y-107666425D01*
X123100485Y-107666425D02*
X123433818Y-108047377D01*
X123433818Y-108047377D02*
X123290961Y-108047377D01*
X123290961Y-108047377D02*
X123195723Y-108094996D01*
X123195723Y-108094996D02*
X123148104Y-108142615D01*
X123148104Y-108142615D02*
X123100485Y-108237853D01*
X123100485Y-108237853D02*
X123100485Y-108475948D01*
X123100485Y-108475948D02*
X123148104Y-108571186D01*
X123148104Y-108571186D02*
X123195723Y-108618806D01*
X123195723Y-108618806D02*
X123290961Y-108666425D01*
X123290961Y-108666425D02*
X123576675Y-108666425D01*
X123576675Y-108666425D02*
X123671913Y-108618806D01*
X123671913Y-108618806D02*
X123719532Y-108571186D01*
X144626866Y-116627921D02*
X144960199Y-116151730D01*
X145198294Y-116627921D02*
X145198294Y-115627921D01*
X145198294Y-115627921D02*
X144817342Y-115627921D01*
X144817342Y-115627921D02*
X144722104Y-115675540D01*
X144722104Y-115675540D02*
X144674485Y-115723159D01*
X144674485Y-115723159D02*
X144626866Y-115818397D01*
X144626866Y-115818397D02*
X144626866Y-115961254D01*
X144626866Y-115961254D02*
X144674485Y-116056492D01*
X144674485Y-116056492D02*
X144722104Y-116104111D01*
X144722104Y-116104111D02*
X144817342Y-116151730D01*
X144817342Y-116151730D02*
X145198294Y-116151730D01*
X143674485Y-116627921D02*
X144245913Y-116627921D01*
X143960199Y-116627921D02*
X143960199Y-115627921D01*
X143960199Y-115627921D02*
X144055437Y-115770778D01*
X144055437Y-115770778D02*
X144150675Y-115866016D01*
X144150675Y-115866016D02*
X144245913Y-115913635D01*
D15*
X137125942Y-113689100D02*
X137600458Y-113689100D01*
X137125942Y-114734100D02*
X137600458Y-114734100D01*
X137125942Y-111689102D02*
X137600458Y-111689102D01*
X137125942Y-112734102D02*
X137600458Y-112734102D01*
X142110458Y-120734100D02*
X141635942Y-120734100D01*
X142110458Y-119689100D02*
X141635942Y-119689100D01*
G36*
X157895127Y-88452497D02*
G01*
X157907018Y-88496423D01*
X157931277Y-88593890D01*
X157965583Y-88735051D01*
X158007612Y-88910062D01*
X158055044Y-89109077D01*
X158105557Y-89322250D01*
X158156827Y-89539735D01*
X158206534Y-89751687D01*
X158252355Y-89948260D01*
X158291969Y-90119608D01*
X158323053Y-90255886D01*
X158343285Y-90347249D01*
X158350344Y-90383850D01*
X158349565Y-90384876D01*
X158310919Y-90380375D01*
X158222626Y-90358527D01*
X158096596Y-90322514D01*
X157944738Y-90275517D01*
X157925686Y-90269433D01*
X157772890Y-90221326D01*
X157644733Y-90182146D01*
X157554166Y-90155785D01*
X157514138Y-90146134D01*
X157510382Y-90150765D01*
X157510544Y-90201629D01*
X157523638Y-90296722D01*
X157547837Y-90421134D01*
X157551058Y-90435972D01*
X157585812Y-90597471D01*
X157620335Y-90760017D01*
X157647598Y-90890525D01*
X157687597Y-91084917D01*
X157855559Y-91061847D01*
X157911371Y-91055483D01*
X157989425Y-91055002D01*
X158011168Y-91071047D01*
X157997827Y-91096881D01*
X157955401Y-91171352D01*
X157891943Y-91279351D01*
X157815240Y-91407502D01*
X157754908Y-91507268D01*
X157690546Y-91613147D01*
X157646220Y-91685389D01*
X157629107Y-91712243D01*
X157625100Y-91711400D01*
X157582570Y-91684962D01*
X157506433Y-91629184D01*
X157409075Y-91554030D01*
X157302883Y-91469464D01*
X157200242Y-91385449D01*
X157113540Y-91311949D01*
X157055161Y-91258926D01*
X157037493Y-91236346D01*
X157048951Y-91231563D01*
X157114055Y-91214691D01*
X157208404Y-91196661D01*
X157242803Y-91190040D01*
X157318145Y-91164211D01*
X157338882Y-91134483D01*
X157335413Y-91124455D01*
X157309426Y-91040995D01*
X157272046Y-90912282D01*
X157225928Y-90748270D01*
X157173732Y-90558915D01*
X157118113Y-90354169D01*
X157061729Y-90143987D01*
X157007238Y-89938323D01*
X156957295Y-89747132D01*
X156914560Y-89580367D01*
X156881688Y-89447982D01*
X156861338Y-89359933D01*
X156856165Y-89326172D01*
X156859784Y-89325346D01*
X156908314Y-89338337D01*
X157002720Y-89373843D01*
X157131358Y-89427281D01*
X157282587Y-89494067D01*
X157322272Y-89512041D01*
X157468048Y-89577697D01*
X157587355Y-89630861D01*
X157668774Y-89666472D01*
X157700883Y-89679467D01*
X157697218Y-89661281D01*
X157675951Y-89589538D01*
X157639071Y-89472909D01*
X157589844Y-89321680D01*
X157531535Y-89146134D01*
X157352785Y-88612800D01*
X157505764Y-88612800D01*
X157523334Y-88612610D01*
X157656656Y-88591311D01*
X157772561Y-88526101D01*
X157803489Y-88503204D01*
X157865918Y-88461998D01*
X157894530Y-88451101D01*
X157895127Y-88452497D01*
G37*
G36*
X160443364Y-91858122D02*
G01*
X160493788Y-91948874D01*
X160512493Y-91988105D01*
X160511381Y-92061186D01*
X160485157Y-92129772D01*
X160474151Y-92137406D01*
X160448112Y-92145285D01*
X160403985Y-92152136D01*
X160337715Y-92158030D01*
X160245246Y-92163034D01*
X160122522Y-92167219D01*
X159965488Y-92170653D01*
X159770089Y-92173406D01*
X159532269Y-92175545D01*
X159247972Y-92177141D01*
X158913144Y-92178262D01*
X158523728Y-92178977D01*
X158075669Y-92179356D01*
X157564912Y-92179467D01*
X157414881Y-92179475D01*
X156918601Y-92179559D01*
X156483923Y-92179533D01*
X156106819Y-92179135D01*
X155783262Y-92178104D01*
X155509224Y-92176179D01*
X155280678Y-92173097D01*
X155093596Y-92168597D01*
X154943949Y-92162418D01*
X154827712Y-92154299D01*
X154740855Y-92143977D01*
X154679350Y-92131192D01*
X154639172Y-92115682D01*
X154616291Y-92097186D01*
X154606680Y-92075441D01*
X154606311Y-92050188D01*
X154611157Y-92021163D01*
X154617190Y-91988105D01*
X154635278Y-91949979D01*
X154685166Y-91860047D01*
X154712373Y-91812800D01*
X155104015Y-91812800D01*
X157564912Y-91812800D01*
X160025809Y-91812800D01*
X159977264Y-91737800D01*
X159974618Y-91733651D01*
X159941493Y-91680384D01*
X159877792Y-91577127D01*
X159787043Y-91429622D01*
X159672773Y-91243616D01*
X159538510Y-91024853D01*
X159387781Y-90779077D01*
X159224115Y-90512033D01*
X159051039Y-90229467D01*
X158880257Y-89950580D01*
X158696302Y-89650212D01*
X158517338Y-89358026D01*
X158348337Y-89082136D01*
X158194271Y-88830660D01*
X158060112Y-88611712D01*
X157950833Y-88433410D01*
X157871404Y-88303868D01*
X157786954Y-88168618D01*
X157696725Y-88030010D01*
X157622700Y-87922827D01*
X157570867Y-87855685D01*
X157547209Y-87837201D01*
X157531989Y-87859440D01*
X157486050Y-87931658D01*
X157416413Y-88043475D01*
X157329260Y-88184948D01*
X157230773Y-88346134D01*
X157222743Y-88359325D01*
X157121107Y-88526083D01*
X156998391Y-88727129D01*
X156858321Y-88956385D01*
X156704620Y-89207772D01*
X156541014Y-89475210D01*
X156371226Y-89752621D01*
X156198982Y-90033925D01*
X156028005Y-90313043D01*
X155862020Y-90583896D01*
X155704753Y-90840404D01*
X155559927Y-91076490D01*
X155431266Y-91286073D01*
X155322497Y-91463075D01*
X155237342Y-91601416D01*
X155179527Y-91695017D01*
X155152775Y-91737800D01*
X155104015Y-91812800D01*
X154712373Y-91812800D01*
X154763623Y-91723800D01*
X154867439Y-91546533D01*
X154993407Y-91333541D01*
X155138320Y-91090119D01*
X155298969Y-90821561D01*
X155472147Y-90533164D01*
X155654647Y-90230222D01*
X155843260Y-89918029D01*
X156034779Y-89601882D01*
X156225995Y-89287075D01*
X156413702Y-88978904D01*
X156594691Y-88682662D01*
X156765755Y-88403646D01*
X156923686Y-88147150D01*
X157065276Y-87918469D01*
X157187317Y-87722899D01*
X157286602Y-87565734D01*
X157359923Y-87452269D01*
X157404072Y-87387800D01*
X157479262Y-87311262D01*
X157564912Y-87279467D01*
X157639584Y-87303885D01*
X157725520Y-87387800D01*
X157768519Y-87450600D01*
X157841380Y-87563328D01*
X157940258Y-87719839D01*
X158061946Y-87914839D01*
X158203237Y-88143032D01*
X158360923Y-88399124D01*
X158531797Y-88677821D01*
X158712652Y-88973828D01*
X158900278Y-89281851D01*
X159091470Y-89596594D01*
X159283018Y-89912764D01*
X159471717Y-90225066D01*
X159654358Y-90528204D01*
X159827733Y-90816886D01*
X159988635Y-91085815D01*
X160133857Y-91329698D01*
X160260191Y-91543240D01*
X160364429Y-91721146D01*
X160417246Y-91812800D01*
X160443364Y-91858122D01*
G37*
X126710458Y-108734106D02*
X126235942Y-108734106D01*
X126710458Y-107689106D02*
X126235942Y-107689106D01*
X142110458Y-116734107D02*
X141635942Y-116734107D01*
X142110458Y-115689107D02*
X141635942Y-115689107D01*
%LPC*%
D16*
X137607200Y-67295054D03*
D17*
X142687200Y-67295054D03*
D18*
X120091200Y-62481908D03*
D19*
X156540200Y-120323754D03*
D20*
X159080200Y-120323754D03*
X161620200Y-120323754D03*
D18*
X177091200Y-119481907D03*
D21*
X171907200Y-112625755D03*
X165907200Y-98425755D03*
X177907200Y-98425755D03*
X177907200Y-110625755D03*
X165907200Y-110625755D03*
X155390200Y-112625754D03*
X149390200Y-98425754D03*
X161390200Y-98425754D03*
X161390200Y-110625754D03*
X149390200Y-110625754D03*
D16*
X149037200Y-67295054D03*
D17*
X154117200Y-67295054D03*
D19*
X120599200Y-101781754D03*
D20*
X120599200Y-104321754D03*
X120599200Y-106861754D03*
X120599200Y-109401754D03*
X120599200Y-111941754D03*
X120599200Y-114481754D03*
D16*
X176987200Y-72317754D03*
D17*
X171907200Y-72317754D03*
D22*
X164795200Y-90695054D03*
X164795200Y-75695054D03*
D23*
X157619200Y-85695054D03*
D24*
X157619200Y-80695054D03*
X128219200Y-90895054D03*
X128219200Y-75495054D03*
D18*
X120091200Y-119481908D03*
X177091200Y-62481854D03*
D16*
X126182200Y-67295054D03*
D17*
X131262200Y-67295054D03*
D16*
X160467200Y-67295054D03*
D17*
X165547200Y-67295054D03*
D25*
X173511200Y-85195054D03*
D26*
X173511200Y-83195054D03*
X173511200Y-81195054D03*
X178511200Y-85195054D03*
X178511200Y-83195054D03*
X178511200Y-81195054D03*
D27*
X136538200Y-114211600D03*
X138188200Y-114211600D03*
X136538200Y-112211602D03*
X138188200Y-112211602D03*
D28*
X142698200Y-120211600D03*
X141048200Y-120211600D03*
X127298200Y-108211606D03*
X125648200Y-108211606D03*
X142698200Y-116211607D03*
X141048200Y-116211607D03*
%LPD*%
M02*
