M48
; DRILL file {KiCad 7.0.8} date Fri May 10 00:54:30 2024
; FORMAT={-:-/ absolute / metric / decimal}
; #@! TF.CreationDate,2024-05-10T00:54:30-03:00
; #@! TF.GenerationSoftware,Kicad,Pcbnew,7.0.8
; #@! TF.FileFunction,Plated,1,2,PTH
FMAT,2
METRIC
; #@! TA.AperFunction,Plated,PTH,ViaDrill
T1C0.400
; #@! TA.AperFunction,Plated,PTH,ComponentDrill
T2C0.900
; #@! TA.AperFunction,Plated,PTH,ComponentDrill
T3C1.000
; #@! TA.AperFunction,Plated,PTH,ComponentDrill
T4C1.200
; #@! TA.AperFunction,Plated,PTH,ComponentDrill
T5C1.300
%
G90
G05
T1
X118.807Y-87.939
X119.47Y-79.844
X121.488Y-67.701
X122.551Y-97.13
X127.711Y-97.464
X127.711Y-100.004
X128.712Y-106.75
X128.712Y-108.212
X128.712Y-112.212
X139.634Y-108.212
X139.634Y-110.212
X139.634Y-120.212
X139.634Y-112.212
X139.634Y-114.212
X139.634Y-116.212
X139.903Y-97.464
X139.903Y-100.004
X144.968Y-109.148
X147.015Y-100.004
X148.27Y-119.054
X164.787Y-119.054
T2
X173.511Y-81.195
X173.511Y-83.195
X173.511Y-85.195
X178.511Y-81.195
X178.511Y-83.195
X178.511Y-85.195
T3
X120.599Y-101.782
X120.599Y-104.322
X120.599Y-106.862
X120.599Y-109.402
X120.599Y-111.942
X120.599Y-114.482
X128.219Y-75.495
X128.219Y-90.895
X156.54Y-120.324
X157.619Y-80.695
X157.619Y-85.695
X159.08Y-120.324
X161.62Y-120.324
T4
X164.795Y-75.695
X164.795Y-90.695
T5
X126.182Y-67.295
X131.262Y-67.295
X137.607Y-67.295
X142.687Y-67.295
X149.037Y-67.295
X149.39Y-98.426
X149.39Y-110.626
X154.117Y-67.295
X155.39Y-112.626
X160.467Y-67.295
X161.39Y-98.426
X161.39Y-110.626
X165.547Y-67.295
X165.907Y-98.426
X165.907Y-110.626
X171.907Y-72.318
X171.907Y-112.626
X176.987Y-72.318
X177.907Y-98.426
X177.907Y-110.626
T0
M30
