%TF.GenerationSoftware,KiCad,Pcbnew,7.0.8*%
%TF.CreationDate,2024-05-10T00:54:30-03:00*%
%TF.ProjectId,on_off_module_x2,6f6e5f6f-6666-45f6-9d6f-64756c655f78,1.0*%
%TF.SameCoordinates,Original*%
%TF.FileFunction,Drillmap*%
%TF.FilePolarity,Positive*%
%FSLAX45Y45*%
G04 Gerber Fmt 4.5, Leading zero omitted, Abs format (unit mm)*
G04 Created by KiCad (PCBNEW 7.0.8) date 2024-05-10 00:54:30*
%MOMM*%
%LPD*%
G01*
G04 APERTURE LIST*
%ADD10C,0.200000*%
%ADD11C,0.040000*%
%ADD12C,0.090000*%
%ADD13C,0.100000*%
%ADD14C,0.120000*%
%ADD15C,0.130000*%
G04 APERTURE END LIST*
D10*
X12009120Y-5948185D02*
X17709120Y-5948185D01*
X12009120Y-5948195D02*
G75*
G03*
X11709120Y-6248191I-10J-299990D01*
G01*
X18009120Y-6248185D02*
G75*
G03*
X17709120Y-5948185I-299990J10D01*
G01*
X11709115Y-11948191D02*
G75*
G03*
X12009120Y-12248191I299995J-5D01*
G01*
X11709120Y-11948191D02*
X11709120Y-6248191D01*
X12009120Y-12248191D02*
X17709120Y-12248191D01*
X18009120Y-6248185D02*
X18009120Y-11948191D01*
X17709120Y-12248185D02*
G75*
G03*
X18009120Y-11948191I10J299990D01*
G01*
D11*
X11860720Y-8773875D02*
X11900720Y-8813875D01*
X11900720Y-8773875D02*
X11860720Y-8813875D01*
X11926990Y-7964375D02*
X11966990Y-8004375D01*
X11966990Y-7964375D02*
X11926990Y-8004375D01*
X12128820Y-6750105D02*
X12168820Y-6790105D01*
X12168820Y-6750105D02*
X12128820Y-6790105D01*
X12235120Y-9692975D02*
X12275120Y-9732975D01*
X12275120Y-9692975D02*
X12235120Y-9732975D01*
X12751120Y-9726375D02*
X12791120Y-9766375D01*
X12791120Y-9726375D02*
X12751120Y-9766375D01*
X12751120Y-9980375D02*
X12791120Y-10020375D01*
X12791120Y-9980375D02*
X12751120Y-10020375D01*
X12851220Y-10654960D02*
X12891220Y-10694960D01*
X12891220Y-10654960D02*
X12851220Y-10694960D01*
X12851220Y-10801161D02*
X12891220Y-10841161D01*
X12891220Y-10801161D02*
X12851220Y-10841161D01*
X12851220Y-11201160D02*
X12891220Y-11241160D01*
X12891220Y-11201160D02*
X12851220Y-11241160D01*
X13943420Y-10801160D02*
X13983420Y-10841160D01*
X13983420Y-10801160D02*
X13943420Y-10841160D01*
X13943420Y-11001160D02*
X13983420Y-11041160D01*
X13983420Y-11001160D02*
X13943420Y-11041160D01*
X13943420Y-12001160D02*
X13983420Y-12041160D01*
X13983420Y-12001160D02*
X13943420Y-12041160D01*
X13943420Y-11201160D02*
X13983420Y-11241160D01*
X13983420Y-11201160D02*
X13943420Y-11241160D01*
X13943420Y-11401160D02*
X13983420Y-11441160D01*
X13983420Y-11401160D02*
X13943420Y-11441160D01*
X13943420Y-11601161D02*
X13983420Y-11641161D01*
X13983420Y-11601161D02*
X13943420Y-11641161D01*
X13970320Y-9726375D02*
X14010320Y-9766375D01*
X14010320Y-9726375D02*
X13970320Y-9766375D01*
X13970320Y-9980375D02*
X14010320Y-10020375D01*
X14010320Y-9980375D02*
X13970320Y-10020375D01*
X14476820Y-10894775D02*
X14516820Y-10934775D01*
X14516820Y-10894775D02*
X14476820Y-10934775D01*
X14681520Y-9980375D02*
X14721520Y-10020375D01*
X14721520Y-9980375D02*
X14681520Y-10020375D01*
X14807020Y-11885375D02*
X14847020Y-11925375D01*
X14847020Y-11885375D02*
X14807020Y-11925375D01*
X16458720Y-11885375D02*
X16498720Y-11925375D01*
X16498720Y-11885375D02*
X16458720Y-11925375D01*
D12*
X17396120Y-8119505D02*
G75*
G03*
X17396120Y-8119505I-45000J0D01*
G01*
X17396120Y-8319505D02*
G75*
G03*
X17396120Y-8319505I-45000J0D01*
G01*
X17396120Y-8519505D02*
G75*
G03*
X17396120Y-8519505I-45000J0D01*
G01*
X17896120Y-8119505D02*
G75*
G03*
X17896120Y-8119505I-45000J0D01*
G01*
X17896120Y-8319505D02*
G75*
G03*
X17896120Y-8319505I-45000J0D01*
G01*
X17896120Y-8519505D02*
G75*
G03*
X17896120Y-8519505I-45000J0D01*
G01*
D13*
X12059920Y-10128175D02*
X12059920Y-10228175D01*
X12009920Y-10178175D02*
X12109920Y-10178175D01*
X12059920Y-10382175D02*
X12059920Y-10482175D01*
X12009920Y-10432175D02*
X12109920Y-10432175D01*
X12059920Y-10636175D02*
X12059920Y-10736175D01*
X12009920Y-10686175D02*
X12109920Y-10686175D01*
X12059920Y-10890175D02*
X12059920Y-10990175D01*
X12009920Y-10940175D02*
X12109920Y-10940175D01*
X12059920Y-11144175D02*
X12059920Y-11244175D01*
X12009920Y-11194175D02*
X12109920Y-11194175D01*
X12059920Y-11398175D02*
X12059920Y-11498175D01*
X12009920Y-11448175D02*
X12109920Y-11448175D01*
X12821920Y-7499505D02*
X12821920Y-7599505D01*
X12771920Y-7549505D02*
X12871920Y-7549505D01*
X12821920Y-9039505D02*
X12821920Y-9139505D01*
X12771920Y-9089505D02*
X12871920Y-9089505D01*
X15654020Y-11982375D02*
X15654020Y-12082375D01*
X15604020Y-12032375D02*
X15704020Y-12032375D01*
X15761920Y-8019505D02*
X15761920Y-8119505D01*
X15711920Y-8069505D02*
X15811920Y-8069505D01*
X15761920Y-8519505D02*
X15761920Y-8619505D01*
X15711920Y-8569505D02*
X15811920Y-8569505D01*
X15908020Y-11982375D02*
X15908020Y-12082375D01*
X15858020Y-12032375D02*
X15958020Y-12032375D01*
X16162020Y-11982375D02*
X16162020Y-12082375D01*
X16112020Y-12032375D02*
X16212020Y-12032375D01*
D14*
X16521947Y-7611932D02*
X16521947Y-7527079D01*
X16437093Y-7527079D01*
X16437093Y-7611932D01*
X16521947Y-7611932D01*
X16521947Y-9111932D02*
X16521947Y-9027079D01*
X16437093Y-9027079D01*
X16437093Y-9111932D01*
X16521947Y-9111932D01*
D15*
X12618220Y-6794505D02*
X12683220Y-6729505D01*
X12618220Y-6664505D01*
X12553220Y-6729505D01*
X12618220Y-6794505D01*
X13126220Y-6794505D02*
X13191220Y-6729505D01*
X13126220Y-6664505D01*
X13061220Y-6729505D01*
X13126220Y-6794505D01*
X13760720Y-6794505D02*
X13825720Y-6729505D01*
X13760720Y-6664505D01*
X13695720Y-6729505D01*
X13760720Y-6794505D01*
X14268720Y-6794505D02*
X14333720Y-6729505D01*
X14268720Y-6664505D01*
X14203720Y-6729505D01*
X14268720Y-6794505D01*
X14903720Y-6794505D02*
X14968720Y-6729505D01*
X14903720Y-6664505D01*
X14838720Y-6729505D01*
X14903720Y-6794505D01*
X14939020Y-9907575D02*
X15004020Y-9842575D01*
X14939020Y-9777575D01*
X14874020Y-9842575D01*
X14939020Y-9907575D01*
X14939020Y-11127575D02*
X15004020Y-11062575D01*
X14939020Y-10997575D01*
X14874020Y-11062575D01*
X14939020Y-11127575D01*
X15411720Y-6794505D02*
X15476720Y-6729505D01*
X15411720Y-6664505D01*
X15346720Y-6729505D01*
X15411720Y-6794505D01*
X15539020Y-11327575D02*
X15604020Y-11262575D01*
X15539020Y-11197575D01*
X15474020Y-11262575D01*
X15539020Y-11327575D01*
X16046720Y-6794505D02*
X16111720Y-6729505D01*
X16046720Y-6664505D01*
X15981720Y-6729505D01*
X16046720Y-6794505D01*
X16139020Y-9907575D02*
X16204020Y-9842575D01*
X16139020Y-9777575D01*
X16074020Y-9842575D01*
X16139020Y-9907575D01*
X16139020Y-11127575D02*
X16204020Y-11062575D01*
X16139020Y-10997575D01*
X16074020Y-11062575D01*
X16139020Y-11127575D01*
X16554720Y-6794505D02*
X16619720Y-6729505D01*
X16554720Y-6664505D01*
X16489720Y-6729505D01*
X16554720Y-6794505D01*
X16590720Y-9907576D02*
X16655720Y-9842576D01*
X16590720Y-9777576D01*
X16525720Y-9842576D01*
X16590720Y-9907576D01*
X16590720Y-11127576D02*
X16655720Y-11062576D01*
X16590720Y-10997576D01*
X16525720Y-11062576D01*
X16590720Y-11127576D01*
X17190720Y-7296775D02*
X17255720Y-7231775D01*
X17190720Y-7166775D01*
X17125720Y-7231775D01*
X17190720Y-7296775D01*
X17190720Y-11327575D02*
X17255720Y-11262575D01*
X17190720Y-11197575D01*
X17125720Y-11262575D01*
X17190720Y-11327575D01*
X17698720Y-7296775D02*
X17763720Y-7231775D01*
X17698720Y-7166775D01*
X17633720Y-7231775D01*
X17698720Y-7296775D01*
X17790720Y-9907576D02*
X17855720Y-9842576D01*
X17790720Y-9777576D01*
X17725720Y-9842576D01*
X17790720Y-9907576D01*
X17790720Y-11127576D02*
X17855720Y-11062576D01*
X17790720Y-10997576D01*
X17725720Y-11062576D01*
X17790720Y-11127576D01*
D10*
X11959891Y-12569675D02*
X11959891Y-12369675D01*
X11959891Y-12369675D02*
X12007510Y-12369675D01*
X12007510Y-12369675D02*
X12036082Y-12379198D01*
X12036082Y-12379198D02*
X12055129Y-12398246D01*
X12055129Y-12398246D02*
X12064653Y-12417294D01*
X12064653Y-12417294D02*
X12074177Y-12455389D01*
X12074177Y-12455389D02*
X12074177Y-12483960D01*
X12074177Y-12483960D02*
X12064653Y-12522055D01*
X12064653Y-12522055D02*
X12055129Y-12541103D01*
X12055129Y-12541103D02*
X12036082Y-12560151D01*
X12036082Y-12560151D02*
X12007510Y-12569675D01*
X12007510Y-12569675D02*
X11959891Y-12569675D01*
X12159891Y-12569675D02*
X12159891Y-12436341D01*
X12159891Y-12474436D02*
X12169415Y-12455389D01*
X12169415Y-12455389D02*
X12178939Y-12445865D01*
X12178939Y-12445865D02*
X12197987Y-12436341D01*
X12197987Y-12436341D02*
X12217034Y-12436341D01*
X12283701Y-12569675D02*
X12283701Y-12436341D01*
X12283701Y-12369675D02*
X12274177Y-12379198D01*
X12274177Y-12379198D02*
X12283701Y-12388722D01*
X12283701Y-12388722D02*
X12293225Y-12379198D01*
X12293225Y-12379198D02*
X12283701Y-12369675D01*
X12283701Y-12369675D02*
X12283701Y-12388722D01*
X12407510Y-12569675D02*
X12388463Y-12560151D01*
X12388463Y-12560151D02*
X12378939Y-12541103D01*
X12378939Y-12541103D02*
X12378939Y-12369675D01*
X12512272Y-12569675D02*
X12493225Y-12560151D01*
X12493225Y-12560151D02*
X12483701Y-12541103D01*
X12483701Y-12541103D02*
X12483701Y-12369675D01*
X12740844Y-12569675D02*
X12740844Y-12369675D01*
X12740844Y-12369675D02*
X12807510Y-12512532D01*
X12807510Y-12512532D02*
X12874177Y-12369675D01*
X12874177Y-12369675D02*
X12874177Y-12569675D01*
X13055129Y-12569675D02*
X13055129Y-12464913D01*
X13055129Y-12464913D02*
X13045606Y-12445865D01*
X13045606Y-12445865D02*
X13026558Y-12436341D01*
X13026558Y-12436341D02*
X12988463Y-12436341D01*
X12988463Y-12436341D02*
X12969415Y-12445865D01*
X13055129Y-12560151D02*
X13036082Y-12569675D01*
X13036082Y-12569675D02*
X12988463Y-12569675D01*
X12988463Y-12569675D02*
X12969415Y-12560151D01*
X12969415Y-12560151D02*
X12959891Y-12541103D01*
X12959891Y-12541103D02*
X12959891Y-12522055D01*
X12959891Y-12522055D02*
X12969415Y-12503008D01*
X12969415Y-12503008D02*
X12988463Y-12493484D01*
X12988463Y-12493484D02*
X13036082Y-12493484D01*
X13036082Y-12493484D02*
X13055129Y-12483960D01*
X13150368Y-12436341D02*
X13150368Y-12636341D01*
X13150368Y-12445865D02*
X13169415Y-12436341D01*
X13169415Y-12436341D02*
X13207510Y-12436341D01*
X13207510Y-12436341D02*
X13226558Y-12445865D01*
X13226558Y-12445865D02*
X13236082Y-12455389D01*
X13236082Y-12455389D02*
X13245606Y-12474436D01*
X13245606Y-12474436D02*
X13245606Y-12531579D01*
X13245606Y-12531579D02*
X13236082Y-12550627D01*
X13236082Y-12550627D02*
X13226558Y-12560151D01*
X13226558Y-12560151D02*
X13207510Y-12569675D01*
X13207510Y-12569675D02*
X13169415Y-12569675D01*
X13169415Y-12569675D02*
X13150368Y-12560151D01*
X13331320Y-12550627D02*
X13340844Y-12560151D01*
X13340844Y-12560151D02*
X13331320Y-12569675D01*
X13331320Y-12569675D02*
X13321796Y-12560151D01*
X13321796Y-12560151D02*
X13331320Y-12550627D01*
X13331320Y-12550627D02*
X13331320Y-12569675D01*
X13331320Y-12445865D02*
X13340844Y-12455389D01*
X13340844Y-12455389D02*
X13331320Y-12464913D01*
X13331320Y-12464913D02*
X13321796Y-12455389D01*
X13321796Y-12455389D02*
X13331320Y-12445865D01*
X13331320Y-12445865D02*
X13331320Y-12464913D01*
D11*
X11659115Y-12878191D02*
X11699115Y-12918191D01*
X11699115Y-12878191D02*
X11659115Y-12918191D01*
D10*
X11997987Y-12789675D02*
X12017034Y-12789675D01*
X12017034Y-12789675D02*
X12036082Y-12799198D01*
X12036082Y-12799198D02*
X12045606Y-12808722D01*
X12045606Y-12808722D02*
X12055129Y-12827770D01*
X12055129Y-12827770D02*
X12064653Y-12865865D01*
X12064653Y-12865865D02*
X12064653Y-12913484D01*
X12064653Y-12913484D02*
X12055129Y-12951579D01*
X12055129Y-12951579D02*
X12045606Y-12970627D01*
X12045606Y-12970627D02*
X12036082Y-12980151D01*
X12036082Y-12980151D02*
X12017034Y-12989675D01*
X12017034Y-12989675D02*
X11997987Y-12989675D01*
X11997987Y-12989675D02*
X11978939Y-12980151D01*
X11978939Y-12980151D02*
X11969415Y-12970627D01*
X11969415Y-12970627D02*
X11959891Y-12951579D01*
X11959891Y-12951579D02*
X11950368Y-12913484D01*
X11950368Y-12913484D02*
X11950368Y-12865865D01*
X11950368Y-12865865D02*
X11959891Y-12827770D01*
X11959891Y-12827770D02*
X11969415Y-12808722D01*
X11969415Y-12808722D02*
X11978939Y-12799198D01*
X11978939Y-12799198D02*
X11997987Y-12789675D01*
X12150368Y-12970627D02*
X12159891Y-12980151D01*
X12159891Y-12980151D02*
X12150368Y-12989675D01*
X12150368Y-12989675D02*
X12140844Y-12980151D01*
X12140844Y-12980151D02*
X12150368Y-12970627D01*
X12150368Y-12970627D02*
X12150368Y-12989675D01*
X12331320Y-12856341D02*
X12331320Y-12989675D01*
X12283701Y-12780151D02*
X12236082Y-12923008D01*
X12236082Y-12923008D02*
X12359891Y-12923008D01*
X12474177Y-12789675D02*
X12493225Y-12789675D01*
X12493225Y-12789675D02*
X12512272Y-12799198D01*
X12512272Y-12799198D02*
X12521796Y-12808722D01*
X12521796Y-12808722D02*
X12531320Y-12827770D01*
X12531320Y-12827770D02*
X12540844Y-12865865D01*
X12540844Y-12865865D02*
X12540844Y-12913484D01*
X12540844Y-12913484D02*
X12531320Y-12951579D01*
X12531320Y-12951579D02*
X12521796Y-12970627D01*
X12521796Y-12970627D02*
X12512272Y-12980151D01*
X12512272Y-12980151D02*
X12493225Y-12989675D01*
X12493225Y-12989675D02*
X12474177Y-12989675D01*
X12474177Y-12989675D02*
X12455129Y-12980151D01*
X12455129Y-12980151D02*
X12445606Y-12970627D01*
X12445606Y-12970627D02*
X12436082Y-12951579D01*
X12436082Y-12951579D02*
X12426558Y-12913484D01*
X12426558Y-12913484D02*
X12426558Y-12865865D01*
X12426558Y-12865865D02*
X12436082Y-12827770D01*
X12436082Y-12827770D02*
X12445606Y-12808722D01*
X12445606Y-12808722D02*
X12455129Y-12799198D01*
X12455129Y-12799198D02*
X12474177Y-12789675D01*
X12664653Y-12789675D02*
X12683701Y-12789675D01*
X12683701Y-12789675D02*
X12702749Y-12799198D01*
X12702749Y-12799198D02*
X12712272Y-12808722D01*
X12712272Y-12808722D02*
X12721796Y-12827770D01*
X12721796Y-12827770D02*
X12731320Y-12865865D01*
X12731320Y-12865865D02*
X12731320Y-12913484D01*
X12731320Y-12913484D02*
X12721796Y-12951579D01*
X12721796Y-12951579D02*
X12712272Y-12970627D01*
X12712272Y-12970627D02*
X12702749Y-12980151D01*
X12702749Y-12980151D02*
X12683701Y-12989675D01*
X12683701Y-12989675D02*
X12664653Y-12989675D01*
X12664653Y-12989675D02*
X12645606Y-12980151D01*
X12645606Y-12980151D02*
X12636082Y-12970627D01*
X12636082Y-12970627D02*
X12626558Y-12951579D01*
X12626558Y-12951579D02*
X12617034Y-12913484D01*
X12617034Y-12913484D02*
X12617034Y-12865865D01*
X12617034Y-12865865D02*
X12626558Y-12827770D01*
X12626558Y-12827770D02*
X12636082Y-12808722D01*
X12636082Y-12808722D02*
X12645606Y-12799198D01*
X12645606Y-12799198D02*
X12664653Y-12789675D01*
X12817034Y-12989675D02*
X12817034Y-12856341D01*
X12817034Y-12875389D02*
X12826558Y-12865865D01*
X12826558Y-12865865D02*
X12845606Y-12856341D01*
X12845606Y-12856341D02*
X12874177Y-12856341D01*
X12874177Y-12856341D02*
X12893225Y-12865865D01*
X12893225Y-12865865D02*
X12902749Y-12884913D01*
X12902749Y-12884913D02*
X12902749Y-12989675D01*
X12902749Y-12884913D02*
X12912272Y-12865865D01*
X12912272Y-12865865D02*
X12931320Y-12856341D01*
X12931320Y-12856341D02*
X12959891Y-12856341D01*
X12959891Y-12856341D02*
X12978939Y-12865865D01*
X12978939Y-12865865D02*
X12988463Y-12884913D01*
X12988463Y-12884913D02*
X12988463Y-12989675D01*
X13083701Y-12989675D02*
X13083701Y-12856341D01*
X13083701Y-12875389D02*
X13093225Y-12865865D01*
X13093225Y-12865865D02*
X13112272Y-12856341D01*
X13112272Y-12856341D02*
X13140844Y-12856341D01*
X13140844Y-12856341D02*
X13159891Y-12865865D01*
X13159891Y-12865865D02*
X13169415Y-12884913D01*
X13169415Y-12884913D02*
X13169415Y-12989675D01*
X13169415Y-12884913D02*
X13178939Y-12865865D01*
X13178939Y-12865865D02*
X13197987Y-12856341D01*
X13197987Y-12856341D02*
X13226558Y-12856341D01*
X13226558Y-12856341D02*
X13245606Y-12865865D01*
X13245606Y-12865865D02*
X13255130Y-12884913D01*
X13255130Y-12884913D02*
X13255130Y-12989675D01*
X13645606Y-12780151D02*
X13474177Y-13037294D01*
X13902749Y-12789675D02*
X13921796Y-12789675D01*
X13921796Y-12789675D02*
X13940844Y-12799198D01*
X13940844Y-12799198D02*
X13950368Y-12808722D01*
X13950368Y-12808722D02*
X13959892Y-12827770D01*
X13959892Y-12827770D02*
X13969415Y-12865865D01*
X13969415Y-12865865D02*
X13969415Y-12913484D01*
X13969415Y-12913484D02*
X13959892Y-12951579D01*
X13959892Y-12951579D02*
X13950368Y-12970627D01*
X13950368Y-12970627D02*
X13940844Y-12980151D01*
X13940844Y-12980151D02*
X13921796Y-12989675D01*
X13921796Y-12989675D02*
X13902749Y-12989675D01*
X13902749Y-12989675D02*
X13883701Y-12980151D01*
X13883701Y-12980151D02*
X13874177Y-12970627D01*
X13874177Y-12970627D02*
X13864653Y-12951579D01*
X13864653Y-12951579D02*
X13855130Y-12913484D01*
X13855130Y-12913484D02*
X13855130Y-12865865D01*
X13855130Y-12865865D02*
X13864653Y-12827770D01*
X13864653Y-12827770D02*
X13874177Y-12808722D01*
X13874177Y-12808722D02*
X13883701Y-12799198D01*
X13883701Y-12799198D02*
X13902749Y-12789675D01*
X14055130Y-12970627D02*
X14064653Y-12980151D01*
X14064653Y-12980151D02*
X14055130Y-12989675D01*
X14055130Y-12989675D02*
X14045606Y-12980151D01*
X14045606Y-12980151D02*
X14055130Y-12970627D01*
X14055130Y-12970627D02*
X14055130Y-12989675D01*
X14188463Y-12789675D02*
X14207511Y-12789675D01*
X14207511Y-12789675D02*
X14226558Y-12799198D01*
X14226558Y-12799198D02*
X14236082Y-12808722D01*
X14236082Y-12808722D02*
X14245606Y-12827770D01*
X14245606Y-12827770D02*
X14255130Y-12865865D01*
X14255130Y-12865865D02*
X14255130Y-12913484D01*
X14255130Y-12913484D02*
X14245606Y-12951579D01*
X14245606Y-12951579D02*
X14236082Y-12970627D01*
X14236082Y-12970627D02*
X14226558Y-12980151D01*
X14226558Y-12980151D02*
X14207511Y-12989675D01*
X14207511Y-12989675D02*
X14188463Y-12989675D01*
X14188463Y-12989675D02*
X14169415Y-12980151D01*
X14169415Y-12980151D02*
X14159892Y-12970627D01*
X14159892Y-12970627D02*
X14150368Y-12951579D01*
X14150368Y-12951579D02*
X14140844Y-12913484D01*
X14140844Y-12913484D02*
X14140844Y-12865865D01*
X14140844Y-12865865D02*
X14150368Y-12827770D01*
X14150368Y-12827770D02*
X14159892Y-12808722D01*
X14159892Y-12808722D02*
X14169415Y-12799198D01*
X14169415Y-12799198D02*
X14188463Y-12789675D01*
X14445606Y-12989675D02*
X14331320Y-12989675D01*
X14388463Y-12989675D02*
X14388463Y-12789675D01*
X14388463Y-12789675D02*
X14369415Y-12818246D01*
X14369415Y-12818246D02*
X14350368Y-12837294D01*
X14350368Y-12837294D02*
X14331320Y-12846817D01*
X14626558Y-12789675D02*
X14531320Y-12789675D01*
X14531320Y-12789675D02*
X14521796Y-12884913D01*
X14521796Y-12884913D02*
X14531320Y-12875389D01*
X14531320Y-12875389D02*
X14550368Y-12865865D01*
X14550368Y-12865865D02*
X14597987Y-12865865D01*
X14597987Y-12865865D02*
X14617034Y-12875389D01*
X14617034Y-12875389D02*
X14626558Y-12884913D01*
X14626558Y-12884913D02*
X14636082Y-12903960D01*
X14636082Y-12903960D02*
X14636082Y-12951579D01*
X14636082Y-12951579D02*
X14626558Y-12970627D01*
X14626558Y-12970627D02*
X14617034Y-12980151D01*
X14617034Y-12980151D02*
X14597987Y-12989675D01*
X14597987Y-12989675D02*
X14550368Y-12989675D01*
X14550368Y-12989675D02*
X14531320Y-12980151D01*
X14531320Y-12980151D02*
X14521796Y-12970627D01*
X14702749Y-12789675D02*
X14836082Y-12789675D01*
X14836082Y-12789675D02*
X14750368Y-12989675D01*
X14902749Y-12789675D02*
X14902749Y-12827770D01*
X14978939Y-12789675D02*
X14978939Y-12827770D01*
X15274177Y-13065865D02*
X15264654Y-13056341D01*
X15264654Y-13056341D02*
X15245606Y-13027770D01*
X15245606Y-13027770D02*
X15236082Y-13008722D01*
X15236082Y-13008722D02*
X15226558Y-12980151D01*
X15226558Y-12980151D02*
X15217035Y-12932532D01*
X15217035Y-12932532D02*
X15217035Y-12894436D01*
X15217035Y-12894436D02*
X15226558Y-12846817D01*
X15226558Y-12846817D02*
X15236082Y-12818246D01*
X15236082Y-12818246D02*
X15245606Y-12799198D01*
X15245606Y-12799198D02*
X15264654Y-12770627D01*
X15264654Y-12770627D02*
X15274177Y-12761103D01*
X15340844Y-12808722D02*
X15350368Y-12799198D01*
X15350368Y-12799198D02*
X15369415Y-12789675D01*
X15369415Y-12789675D02*
X15417035Y-12789675D01*
X15417035Y-12789675D02*
X15436082Y-12799198D01*
X15436082Y-12799198D02*
X15445606Y-12808722D01*
X15445606Y-12808722D02*
X15455130Y-12827770D01*
X15455130Y-12827770D02*
X15455130Y-12846817D01*
X15455130Y-12846817D02*
X15445606Y-12875389D01*
X15445606Y-12875389D02*
X15331320Y-12989675D01*
X15331320Y-12989675D02*
X15455130Y-12989675D01*
X15645606Y-12989675D02*
X15531320Y-12989675D01*
X15588463Y-12989675D02*
X15588463Y-12789675D01*
X15588463Y-12789675D02*
X15569415Y-12818246D01*
X15569415Y-12818246D02*
X15550368Y-12837294D01*
X15550368Y-12837294D02*
X15531320Y-12846817D01*
X15883701Y-12989675D02*
X15883701Y-12789675D01*
X15969416Y-12989675D02*
X15969416Y-12884913D01*
X15969416Y-12884913D02*
X15959892Y-12865865D01*
X15959892Y-12865865D02*
X15940844Y-12856341D01*
X15940844Y-12856341D02*
X15912273Y-12856341D01*
X15912273Y-12856341D02*
X15893225Y-12865865D01*
X15893225Y-12865865D02*
X15883701Y-12875389D01*
X16093225Y-12989675D02*
X16074177Y-12980151D01*
X16074177Y-12980151D02*
X16064654Y-12970627D01*
X16064654Y-12970627D02*
X16055130Y-12951579D01*
X16055130Y-12951579D02*
X16055130Y-12894436D01*
X16055130Y-12894436D02*
X16064654Y-12875389D01*
X16064654Y-12875389D02*
X16074177Y-12865865D01*
X16074177Y-12865865D02*
X16093225Y-12856341D01*
X16093225Y-12856341D02*
X16121797Y-12856341D01*
X16121797Y-12856341D02*
X16140844Y-12865865D01*
X16140844Y-12865865D02*
X16150368Y-12875389D01*
X16150368Y-12875389D02*
X16159892Y-12894436D01*
X16159892Y-12894436D02*
X16159892Y-12951579D01*
X16159892Y-12951579D02*
X16150368Y-12970627D01*
X16150368Y-12970627D02*
X16140844Y-12980151D01*
X16140844Y-12980151D02*
X16121797Y-12989675D01*
X16121797Y-12989675D02*
X16093225Y-12989675D01*
X16274177Y-12989675D02*
X16255130Y-12980151D01*
X16255130Y-12980151D02*
X16245606Y-12961103D01*
X16245606Y-12961103D02*
X16245606Y-12789675D01*
X16426558Y-12980151D02*
X16407511Y-12989675D01*
X16407511Y-12989675D02*
X16369416Y-12989675D01*
X16369416Y-12989675D02*
X16350368Y-12980151D01*
X16350368Y-12980151D02*
X16340844Y-12961103D01*
X16340844Y-12961103D02*
X16340844Y-12884913D01*
X16340844Y-12884913D02*
X16350368Y-12865865D01*
X16350368Y-12865865D02*
X16369416Y-12856341D01*
X16369416Y-12856341D02*
X16407511Y-12856341D01*
X16407511Y-12856341D02*
X16426558Y-12865865D01*
X16426558Y-12865865D02*
X16436082Y-12884913D01*
X16436082Y-12884913D02*
X16436082Y-12903960D01*
X16436082Y-12903960D02*
X16340844Y-12923008D01*
X16512273Y-12980151D02*
X16531320Y-12989675D01*
X16531320Y-12989675D02*
X16569416Y-12989675D01*
X16569416Y-12989675D02*
X16588463Y-12980151D01*
X16588463Y-12980151D02*
X16597987Y-12961103D01*
X16597987Y-12961103D02*
X16597987Y-12951579D01*
X16597987Y-12951579D02*
X16588463Y-12932532D01*
X16588463Y-12932532D02*
X16569416Y-12923008D01*
X16569416Y-12923008D02*
X16540844Y-12923008D01*
X16540844Y-12923008D02*
X16521797Y-12913484D01*
X16521797Y-12913484D02*
X16512273Y-12894436D01*
X16512273Y-12894436D02*
X16512273Y-12884913D01*
X16512273Y-12884913D02*
X16521797Y-12865865D01*
X16521797Y-12865865D02*
X16540844Y-12856341D01*
X16540844Y-12856341D02*
X16569416Y-12856341D01*
X16569416Y-12856341D02*
X16588463Y-12865865D01*
X16664654Y-13065865D02*
X16674178Y-13056341D01*
X16674178Y-13056341D02*
X16693225Y-13027770D01*
X16693225Y-13027770D02*
X16702749Y-13008722D01*
X16702749Y-13008722D02*
X16712273Y-12980151D01*
X16712273Y-12980151D02*
X16721797Y-12932532D01*
X16721797Y-12932532D02*
X16721797Y-12894436D01*
X16721797Y-12894436D02*
X16712273Y-12846817D01*
X16712273Y-12846817D02*
X16702749Y-12818246D01*
X16702749Y-12818246D02*
X16693225Y-12799198D01*
X16693225Y-12799198D02*
X16674178Y-12770627D01*
X16674178Y-12770627D02*
X16664654Y-12761103D01*
D12*
X11699115Y-13162191D02*
G75*
G03*
X11699115Y-13162191I-45000J0D01*
G01*
D10*
X11997987Y-13053675D02*
X12017034Y-13053675D01*
X12017034Y-13053675D02*
X12036082Y-13063198D01*
X12036082Y-13063198D02*
X12045606Y-13072722D01*
X12045606Y-13072722D02*
X12055129Y-13091770D01*
X12055129Y-13091770D02*
X12064653Y-13129865D01*
X12064653Y-13129865D02*
X12064653Y-13177484D01*
X12064653Y-13177484D02*
X12055129Y-13215579D01*
X12055129Y-13215579D02*
X12045606Y-13234627D01*
X12045606Y-13234627D02*
X12036082Y-13244151D01*
X12036082Y-13244151D02*
X12017034Y-13253675D01*
X12017034Y-13253675D02*
X11997987Y-13253675D01*
X11997987Y-13253675D02*
X11978939Y-13244151D01*
X11978939Y-13244151D02*
X11969415Y-13234627D01*
X11969415Y-13234627D02*
X11959891Y-13215579D01*
X11959891Y-13215579D02*
X11950368Y-13177484D01*
X11950368Y-13177484D02*
X11950368Y-13129865D01*
X11950368Y-13129865D02*
X11959891Y-13091770D01*
X11959891Y-13091770D02*
X11969415Y-13072722D01*
X11969415Y-13072722D02*
X11978939Y-13063198D01*
X11978939Y-13063198D02*
X11997987Y-13053675D01*
X12150368Y-13234627D02*
X12159891Y-13244151D01*
X12159891Y-13244151D02*
X12150368Y-13253675D01*
X12150368Y-13253675D02*
X12140844Y-13244151D01*
X12140844Y-13244151D02*
X12150368Y-13234627D01*
X12150368Y-13234627D02*
X12150368Y-13253675D01*
X12255129Y-13253675D02*
X12293225Y-13253675D01*
X12293225Y-13253675D02*
X12312272Y-13244151D01*
X12312272Y-13244151D02*
X12321796Y-13234627D01*
X12321796Y-13234627D02*
X12340844Y-13206055D01*
X12340844Y-13206055D02*
X12350368Y-13167960D01*
X12350368Y-13167960D02*
X12350368Y-13091770D01*
X12350368Y-13091770D02*
X12340844Y-13072722D01*
X12340844Y-13072722D02*
X12331320Y-13063198D01*
X12331320Y-13063198D02*
X12312272Y-13053675D01*
X12312272Y-13053675D02*
X12274177Y-13053675D01*
X12274177Y-13053675D02*
X12255129Y-13063198D01*
X12255129Y-13063198D02*
X12245606Y-13072722D01*
X12245606Y-13072722D02*
X12236082Y-13091770D01*
X12236082Y-13091770D02*
X12236082Y-13139389D01*
X12236082Y-13139389D02*
X12245606Y-13158436D01*
X12245606Y-13158436D02*
X12255129Y-13167960D01*
X12255129Y-13167960D02*
X12274177Y-13177484D01*
X12274177Y-13177484D02*
X12312272Y-13177484D01*
X12312272Y-13177484D02*
X12331320Y-13167960D01*
X12331320Y-13167960D02*
X12340844Y-13158436D01*
X12340844Y-13158436D02*
X12350368Y-13139389D01*
X12474177Y-13053675D02*
X12493225Y-13053675D01*
X12493225Y-13053675D02*
X12512272Y-13063198D01*
X12512272Y-13063198D02*
X12521796Y-13072722D01*
X12521796Y-13072722D02*
X12531320Y-13091770D01*
X12531320Y-13091770D02*
X12540844Y-13129865D01*
X12540844Y-13129865D02*
X12540844Y-13177484D01*
X12540844Y-13177484D02*
X12531320Y-13215579D01*
X12531320Y-13215579D02*
X12521796Y-13234627D01*
X12521796Y-13234627D02*
X12512272Y-13244151D01*
X12512272Y-13244151D02*
X12493225Y-13253675D01*
X12493225Y-13253675D02*
X12474177Y-13253675D01*
X12474177Y-13253675D02*
X12455129Y-13244151D01*
X12455129Y-13244151D02*
X12445606Y-13234627D01*
X12445606Y-13234627D02*
X12436082Y-13215579D01*
X12436082Y-13215579D02*
X12426558Y-13177484D01*
X12426558Y-13177484D02*
X12426558Y-13129865D01*
X12426558Y-13129865D02*
X12436082Y-13091770D01*
X12436082Y-13091770D02*
X12445606Y-13072722D01*
X12445606Y-13072722D02*
X12455129Y-13063198D01*
X12455129Y-13063198D02*
X12474177Y-13053675D01*
X12664653Y-13053675D02*
X12683701Y-13053675D01*
X12683701Y-13053675D02*
X12702749Y-13063198D01*
X12702749Y-13063198D02*
X12712272Y-13072722D01*
X12712272Y-13072722D02*
X12721796Y-13091770D01*
X12721796Y-13091770D02*
X12731320Y-13129865D01*
X12731320Y-13129865D02*
X12731320Y-13177484D01*
X12731320Y-13177484D02*
X12721796Y-13215579D01*
X12721796Y-13215579D02*
X12712272Y-13234627D01*
X12712272Y-13234627D02*
X12702749Y-13244151D01*
X12702749Y-13244151D02*
X12683701Y-13253675D01*
X12683701Y-13253675D02*
X12664653Y-13253675D01*
X12664653Y-13253675D02*
X12645606Y-13244151D01*
X12645606Y-13244151D02*
X12636082Y-13234627D01*
X12636082Y-13234627D02*
X12626558Y-13215579D01*
X12626558Y-13215579D02*
X12617034Y-13177484D01*
X12617034Y-13177484D02*
X12617034Y-13129865D01*
X12617034Y-13129865D02*
X12626558Y-13091770D01*
X12626558Y-13091770D02*
X12636082Y-13072722D01*
X12636082Y-13072722D02*
X12645606Y-13063198D01*
X12645606Y-13063198D02*
X12664653Y-13053675D01*
X12817034Y-13253675D02*
X12817034Y-13120341D01*
X12817034Y-13139389D02*
X12826558Y-13129865D01*
X12826558Y-13129865D02*
X12845606Y-13120341D01*
X12845606Y-13120341D02*
X12874177Y-13120341D01*
X12874177Y-13120341D02*
X12893225Y-13129865D01*
X12893225Y-13129865D02*
X12902749Y-13148913D01*
X12902749Y-13148913D02*
X12902749Y-13253675D01*
X12902749Y-13148913D02*
X12912272Y-13129865D01*
X12912272Y-13129865D02*
X12931320Y-13120341D01*
X12931320Y-13120341D02*
X12959891Y-13120341D01*
X12959891Y-13120341D02*
X12978939Y-13129865D01*
X12978939Y-13129865D02*
X12988463Y-13148913D01*
X12988463Y-13148913D02*
X12988463Y-13253675D01*
X13083701Y-13253675D02*
X13083701Y-13120341D01*
X13083701Y-13139389D02*
X13093225Y-13129865D01*
X13093225Y-13129865D02*
X13112272Y-13120341D01*
X13112272Y-13120341D02*
X13140844Y-13120341D01*
X13140844Y-13120341D02*
X13159891Y-13129865D01*
X13159891Y-13129865D02*
X13169415Y-13148913D01*
X13169415Y-13148913D02*
X13169415Y-13253675D01*
X13169415Y-13148913D02*
X13178939Y-13129865D01*
X13178939Y-13129865D02*
X13197987Y-13120341D01*
X13197987Y-13120341D02*
X13226558Y-13120341D01*
X13226558Y-13120341D02*
X13245606Y-13129865D01*
X13245606Y-13129865D02*
X13255130Y-13148913D01*
X13255130Y-13148913D02*
X13255130Y-13253675D01*
X13645606Y-13044151D02*
X13474177Y-13301294D01*
X13902749Y-13053675D02*
X13921796Y-13053675D01*
X13921796Y-13053675D02*
X13940844Y-13063198D01*
X13940844Y-13063198D02*
X13950368Y-13072722D01*
X13950368Y-13072722D02*
X13959892Y-13091770D01*
X13959892Y-13091770D02*
X13969415Y-13129865D01*
X13969415Y-13129865D02*
X13969415Y-13177484D01*
X13969415Y-13177484D02*
X13959892Y-13215579D01*
X13959892Y-13215579D02*
X13950368Y-13234627D01*
X13950368Y-13234627D02*
X13940844Y-13244151D01*
X13940844Y-13244151D02*
X13921796Y-13253675D01*
X13921796Y-13253675D02*
X13902749Y-13253675D01*
X13902749Y-13253675D02*
X13883701Y-13244151D01*
X13883701Y-13244151D02*
X13874177Y-13234627D01*
X13874177Y-13234627D02*
X13864653Y-13215579D01*
X13864653Y-13215579D02*
X13855130Y-13177484D01*
X13855130Y-13177484D02*
X13855130Y-13129865D01*
X13855130Y-13129865D02*
X13864653Y-13091770D01*
X13864653Y-13091770D02*
X13874177Y-13072722D01*
X13874177Y-13072722D02*
X13883701Y-13063198D01*
X13883701Y-13063198D02*
X13902749Y-13053675D01*
X14055130Y-13234627D02*
X14064653Y-13244151D01*
X14064653Y-13244151D02*
X14055130Y-13253675D01*
X14055130Y-13253675D02*
X14045606Y-13244151D01*
X14045606Y-13244151D02*
X14055130Y-13234627D01*
X14055130Y-13234627D02*
X14055130Y-13253675D01*
X14188463Y-13053675D02*
X14207511Y-13053675D01*
X14207511Y-13053675D02*
X14226558Y-13063198D01*
X14226558Y-13063198D02*
X14236082Y-13072722D01*
X14236082Y-13072722D02*
X14245606Y-13091770D01*
X14245606Y-13091770D02*
X14255130Y-13129865D01*
X14255130Y-13129865D02*
X14255130Y-13177484D01*
X14255130Y-13177484D02*
X14245606Y-13215579D01*
X14245606Y-13215579D02*
X14236082Y-13234627D01*
X14236082Y-13234627D02*
X14226558Y-13244151D01*
X14226558Y-13244151D02*
X14207511Y-13253675D01*
X14207511Y-13253675D02*
X14188463Y-13253675D01*
X14188463Y-13253675D02*
X14169415Y-13244151D01*
X14169415Y-13244151D02*
X14159892Y-13234627D01*
X14159892Y-13234627D02*
X14150368Y-13215579D01*
X14150368Y-13215579D02*
X14140844Y-13177484D01*
X14140844Y-13177484D02*
X14140844Y-13129865D01*
X14140844Y-13129865D02*
X14150368Y-13091770D01*
X14150368Y-13091770D02*
X14159892Y-13072722D01*
X14159892Y-13072722D02*
X14169415Y-13063198D01*
X14169415Y-13063198D02*
X14188463Y-13053675D01*
X14321796Y-13053675D02*
X14445606Y-13053675D01*
X14445606Y-13053675D02*
X14378939Y-13129865D01*
X14378939Y-13129865D02*
X14407511Y-13129865D01*
X14407511Y-13129865D02*
X14426558Y-13139389D01*
X14426558Y-13139389D02*
X14436082Y-13148913D01*
X14436082Y-13148913D02*
X14445606Y-13167960D01*
X14445606Y-13167960D02*
X14445606Y-13215579D01*
X14445606Y-13215579D02*
X14436082Y-13234627D01*
X14436082Y-13234627D02*
X14426558Y-13244151D01*
X14426558Y-13244151D02*
X14407511Y-13253675D01*
X14407511Y-13253675D02*
X14350368Y-13253675D01*
X14350368Y-13253675D02*
X14331320Y-13244151D01*
X14331320Y-13244151D02*
X14321796Y-13234627D01*
X14626558Y-13053675D02*
X14531320Y-13053675D01*
X14531320Y-13053675D02*
X14521796Y-13148913D01*
X14521796Y-13148913D02*
X14531320Y-13139389D01*
X14531320Y-13139389D02*
X14550368Y-13129865D01*
X14550368Y-13129865D02*
X14597987Y-13129865D01*
X14597987Y-13129865D02*
X14617034Y-13139389D01*
X14617034Y-13139389D02*
X14626558Y-13148913D01*
X14626558Y-13148913D02*
X14636082Y-13167960D01*
X14636082Y-13167960D02*
X14636082Y-13215579D01*
X14636082Y-13215579D02*
X14626558Y-13234627D01*
X14626558Y-13234627D02*
X14617034Y-13244151D01*
X14617034Y-13244151D02*
X14597987Y-13253675D01*
X14597987Y-13253675D02*
X14550368Y-13253675D01*
X14550368Y-13253675D02*
X14531320Y-13244151D01*
X14531320Y-13244151D02*
X14521796Y-13234627D01*
X14807511Y-13120341D02*
X14807511Y-13253675D01*
X14759892Y-13044151D02*
X14712273Y-13187008D01*
X14712273Y-13187008D02*
X14836082Y-13187008D01*
X14902749Y-13053675D02*
X14902749Y-13091770D01*
X14978939Y-13053675D02*
X14978939Y-13091770D01*
X15274177Y-13329865D02*
X15264654Y-13320341D01*
X15264654Y-13320341D02*
X15245606Y-13291770D01*
X15245606Y-13291770D02*
X15236082Y-13272722D01*
X15236082Y-13272722D02*
X15226558Y-13244151D01*
X15226558Y-13244151D02*
X15217035Y-13196532D01*
X15217035Y-13196532D02*
X15217035Y-13158436D01*
X15217035Y-13158436D02*
X15226558Y-13110817D01*
X15226558Y-13110817D02*
X15236082Y-13082246D01*
X15236082Y-13082246D02*
X15245606Y-13063198D01*
X15245606Y-13063198D02*
X15264654Y-13034627D01*
X15264654Y-13034627D02*
X15274177Y-13025103D01*
X15436082Y-13053675D02*
X15397987Y-13053675D01*
X15397987Y-13053675D02*
X15378939Y-13063198D01*
X15378939Y-13063198D02*
X15369415Y-13072722D01*
X15369415Y-13072722D02*
X15350368Y-13101294D01*
X15350368Y-13101294D02*
X15340844Y-13139389D01*
X15340844Y-13139389D02*
X15340844Y-13215579D01*
X15340844Y-13215579D02*
X15350368Y-13234627D01*
X15350368Y-13234627D02*
X15359892Y-13244151D01*
X15359892Y-13244151D02*
X15378939Y-13253675D01*
X15378939Y-13253675D02*
X15417035Y-13253675D01*
X15417035Y-13253675D02*
X15436082Y-13244151D01*
X15436082Y-13244151D02*
X15445606Y-13234627D01*
X15445606Y-13234627D02*
X15455130Y-13215579D01*
X15455130Y-13215579D02*
X15455130Y-13167960D01*
X15455130Y-13167960D02*
X15445606Y-13148913D01*
X15445606Y-13148913D02*
X15436082Y-13139389D01*
X15436082Y-13139389D02*
X15417035Y-13129865D01*
X15417035Y-13129865D02*
X15378939Y-13129865D01*
X15378939Y-13129865D02*
X15359892Y-13139389D01*
X15359892Y-13139389D02*
X15350368Y-13148913D01*
X15350368Y-13148913D02*
X15340844Y-13167960D01*
X15693225Y-13253675D02*
X15693225Y-13053675D01*
X15778939Y-13253675D02*
X15778939Y-13148913D01*
X15778939Y-13148913D02*
X15769416Y-13129865D01*
X15769416Y-13129865D02*
X15750368Y-13120341D01*
X15750368Y-13120341D02*
X15721796Y-13120341D01*
X15721796Y-13120341D02*
X15702749Y-13129865D01*
X15702749Y-13129865D02*
X15693225Y-13139389D01*
X15902749Y-13253675D02*
X15883701Y-13244151D01*
X15883701Y-13244151D02*
X15874177Y-13234627D01*
X15874177Y-13234627D02*
X15864654Y-13215579D01*
X15864654Y-13215579D02*
X15864654Y-13158436D01*
X15864654Y-13158436D02*
X15874177Y-13139389D01*
X15874177Y-13139389D02*
X15883701Y-13129865D01*
X15883701Y-13129865D02*
X15902749Y-13120341D01*
X15902749Y-13120341D02*
X15931320Y-13120341D01*
X15931320Y-13120341D02*
X15950368Y-13129865D01*
X15950368Y-13129865D02*
X15959892Y-13139389D01*
X15959892Y-13139389D02*
X15969416Y-13158436D01*
X15969416Y-13158436D02*
X15969416Y-13215579D01*
X15969416Y-13215579D02*
X15959892Y-13234627D01*
X15959892Y-13234627D02*
X15950368Y-13244151D01*
X15950368Y-13244151D02*
X15931320Y-13253675D01*
X15931320Y-13253675D02*
X15902749Y-13253675D01*
X16083701Y-13253675D02*
X16064654Y-13244151D01*
X16064654Y-13244151D02*
X16055130Y-13225103D01*
X16055130Y-13225103D02*
X16055130Y-13053675D01*
X16236082Y-13244151D02*
X16217035Y-13253675D01*
X16217035Y-13253675D02*
X16178939Y-13253675D01*
X16178939Y-13253675D02*
X16159892Y-13244151D01*
X16159892Y-13244151D02*
X16150368Y-13225103D01*
X16150368Y-13225103D02*
X16150368Y-13148913D01*
X16150368Y-13148913D02*
X16159892Y-13129865D01*
X16159892Y-13129865D02*
X16178939Y-13120341D01*
X16178939Y-13120341D02*
X16217035Y-13120341D01*
X16217035Y-13120341D02*
X16236082Y-13129865D01*
X16236082Y-13129865D02*
X16245606Y-13148913D01*
X16245606Y-13148913D02*
X16245606Y-13167960D01*
X16245606Y-13167960D02*
X16150368Y-13187008D01*
X16321797Y-13244151D02*
X16340844Y-13253675D01*
X16340844Y-13253675D02*
X16378939Y-13253675D01*
X16378939Y-13253675D02*
X16397987Y-13244151D01*
X16397987Y-13244151D02*
X16407511Y-13225103D01*
X16407511Y-13225103D02*
X16407511Y-13215579D01*
X16407511Y-13215579D02*
X16397987Y-13196532D01*
X16397987Y-13196532D02*
X16378939Y-13187008D01*
X16378939Y-13187008D02*
X16350368Y-13187008D01*
X16350368Y-13187008D02*
X16331320Y-13177484D01*
X16331320Y-13177484D02*
X16321797Y-13158436D01*
X16321797Y-13158436D02*
X16321797Y-13148913D01*
X16321797Y-13148913D02*
X16331320Y-13129865D01*
X16331320Y-13129865D02*
X16350368Y-13120341D01*
X16350368Y-13120341D02*
X16378939Y-13120341D01*
X16378939Y-13120341D02*
X16397987Y-13129865D01*
X16474178Y-13329865D02*
X16483701Y-13320341D01*
X16483701Y-13320341D02*
X16502749Y-13291770D01*
X16502749Y-13291770D02*
X16512273Y-13272722D01*
X16512273Y-13272722D02*
X16521797Y-13244151D01*
X16521797Y-13244151D02*
X16531320Y-13196532D01*
X16531320Y-13196532D02*
X16531320Y-13158436D01*
X16531320Y-13158436D02*
X16521797Y-13110817D01*
X16521797Y-13110817D02*
X16512273Y-13082246D01*
X16512273Y-13082246D02*
X16502749Y-13063198D01*
X16502749Y-13063198D02*
X16483701Y-13034627D01*
X16483701Y-13034627D02*
X16474178Y-13025103D01*
D13*
X11649115Y-13376191D02*
X11649115Y-13476191D01*
X11599115Y-13426191D02*
X11699115Y-13426191D01*
D10*
X12064653Y-13517675D02*
X11950368Y-13517675D01*
X12007510Y-13517675D02*
X12007510Y-13317675D01*
X12007510Y-13317675D02*
X11988463Y-13346246D01*
X11988463Y-13346246D02*
X11969415Y-13365294D01*
X11969415Y-13365294D02*
X11950368Y-13374817D01*
X12150368Y-13498627D02*
X12159891Y-13508151D01*
X12159891Y-13508151D02*
X12150368Y-13517675D01*
X12150368Y-13517675D02*
X12140844Y-13508151D01*
X12140844Y-13508151D02*
X12150368Y-13498627D01*
X12150368Y-13498627D02*
X12150368Y-13517675D01*
X12283701Y-13317675D02*
X12302749Y-13317675D01*
X12302749Y-13317675D02*
X12321796Y-13327198D01*
X12321796Y-13327198D02*
X12331320Y-13336722D01*
X12331320Y-13336722D02*
X12340844Y-13355770D01*
X12340844Y-13355770D02*
X12350368Y-13393865D01*
X12350368Y-13393865D02*
X12350368Y-13441484D01*
X12350368Y-13441484D02*
X12340844Y-13479579D01*
X12340844Y-13479579D02*
X12331320Y-13498627D01*
X12331320Y-13498627D02*
X12321796Y-13508151D01*
X12321796Y-13508151D02*
X12302749Y-13517675D01*
X12302749Y-13517675D02*
X12283701Y-13517675D01*
X12283701Y-13517675D02*
X12264653Y-13508151D01*
X12264653Y-13508151D02*
X12255129Y-13498627D01*
X12255129Y-13498627D02*
X12245606Y-13479579D01*
X12245606Y-13479579D02*
X12236082Y-13441484D01*
X12236082Y-13441484D02*
X12236082Y-13393865D01*
X12236082Y-13393865D02*
X12245606Y-13355770D01*
X12245606Y-13355770D02*
X12255129Y-13336722D01*
X12255129Y-13336722D02*
X12264653Y-13327198D01*
X12264653Y-13327198D02*
X12283701Y-13317675D01*
X12474177Y-13317675D02*
X12493225Y-13317675D01*
X12493225Y-13317675D02*
X12512272Y-13327198D01*
X12512272Y-13327198D02*
X12521796Y-13336722D01*
X12521796Y-13336722D02*
X12531320Y-13355770D01*
X12531320Y-13355770D02*
X12540844Y-13393865D01*
X12540844Y-13393865D02*
X12540844Y-13441484D01*
X12540844Y-13441484D02*
X12531320Y-13479579D01*
X12531320Y-13479579D02*
X12521796Y-13498627D01*
X12521796Y-13498627D02*
X12512272Y-13508151D01*
X12512272Y-13508151D02*
X12493225Y-13517675D01*
X12493225Y-13517675D02*
X12474177Y-13517675D01*
X12474177Y-13517675D02*
X12455129Y-13508151D01*
X12455129Y-13508151D02*
X12445606Y-13498627D01*
X12445606Y-13498627D02*
X12436082Y-13479579D01*
X12436082Y-13479579D02*
X12426558Y-13441484D01*
X12426558Y-13441484D02*
X12426558Y-13393865D01*
X12426558Y-13393865D02*
X12436082Y-13355770D01*
X12436082Y-13355770D02*
X12445606Y-13336722D01*
X12445606Y-13336722D02*
X12455129Y-13327198D01*
X12455129Y-13327198D02*
X12474177Y-13317675D01*
X12664653Y-13317675D02*
X12683701Y-13317675D01*
X12683701Y-13317675D02*
X12702749Y-13327198D01*
X12702749Y-13327198D02*
X12712272Y-13336722D01*
X12712272Y-13336722D02*
X12721796Y-13355770D01*
X12721796Y-13355770D02*
X12731320Y-13393865D01*
X12731320Y-13393865D02*
X12731320Y-13441484D01*
X12731320Y-13441484D02*
X12721796Y-13479579D01*
X12721796Y-13479579D02*
X12712272Y-13498627D01*
X12712272Y-13498627D02*
X12702749Y-13508151D01*
X12702749Y-13508151D02*
X12683701Y-13517675D01*
X12683701Y-13517675D02*
X12664653Y-13517675D01*
X12664653Y-13517675D02*
X12645606Y-13508151D01*
X12645606Y-13508151D02*
X12636082Y-13498627D01*
X12636082Y-13498627D02*
X12626558Y-13479579D01*
X12626558Y-13479579D02*
X12617034Y-13441484D01*
X12617034Y-13441484D02*
X12617034Y-13393865D01*
X12617034Y-13393865D02*
X12626558Y-13355770D01*
X12626558Y-13355770D02*
X12636082Y-13336722D01*
X12636082Y-13336722D02*
X12645606Y-13327198D01*
X12645606Y-13327198D02*
X12664653Y-13317675D01*
X12817034Y-13517675D02*
X12817034Y-13384341D01*
X12817034Y-13403389D02*
X12826558Y-13393865D01*
X12826558Y-13393865D02*
X12845606Y-13384341D01*
X12845606Y-13384341D02*
X12874177Y-13384341D01*
X12874177Y-13384341D02*
X12893225Y-13393865D01*
X12893225Y-13393865D02*
X12902749Y-13412913D01*
X12902749Y-13412913D02*
X12902749Y-13517675D01*
X12902749Y-13412913D02*
X12912272Y-13393865D01*
X12912272Y-13393865D02*
X12931320Y-13384341D01*
X12931320Y-13384341D02*
X12959891Y-13384341D01*
X12959891Y-13384341D02*
X12978939Y-13393865D01*
X12978939Y-13393865D02*
X12988463Y-13412913D01*
X12988463Y-13412913D02*
X12988463Y-13517675D01*
X13083701Y-13517675D02*
X13083701Y-13384341D01*
X13083701Y-13403389D02*
X13093225Y-13393865D01*
X13093225Y-13393865D02*
X13112272Y-13384341D01*
X13112272Y-13384341D02*
X13140844Y-13384341D01*
X13140844Y-13384341D02*
X13159891Y-13393865D01*
X13159891Y-13393865D02*
X13169415Y-13412913D01*
X13169415Y-13412913D02*
X13169415Y-13517675D01*
X13169415Y-13412913D02*
X13178939Y-13393865D01*
X13178939Y-13393865D02*
X13197987Y-13384341D01*
X13197987Y-13384341D02*
X13226558Y-13384341D01*
X13226558Y-13384341D02*
X13245606Y-13393865D01*
X13245606Y-13393865D02*
X13255130Y-13412913D01*
X13255130Y-13412913D02*
X13255130Y-13517675D01*
X13645606Y-13308151D02*
X13474177Y-13565294D01*
X13902749Y-13317675D02*
X13921796Y-13317675D01*
X13921796Y-13317675D02*
X13940844Y-13327198D01*
X13940844Y-13327198D02*
X13950368Y-13336722D01*
X13950368Y-13336722D02*
X13959892Y-13355770D01*
X13959892Y-13355770D02*
X13969415Y-13393865D01*
X13969415Y-13393865D02*
X13969415Y-13441484D01*
X13969415Y-13441484D02*
X13959892Y-13479579D01*
X13959892Y-13479579D02*
X13950368Y-13498627D01*
X13950368Y-13498627D02*
X13940844Y-13508151D01*
X13940844Y-13508151D02*
X13921796Y-13517675D01*
X13921796Y-13517675D02*
X13902749Y-13517675D01*
X13902749Y-13517675D02*
X13883701Y-13508151D01*
X13883701Y-13508151D02*
X13874177Y-13498627D01*
X13874177Y-13498627D02*
X13864653Y-13479579D01*
X13864653Y-13479579D02*
X13855130Y-13441484D01*
X13855130Y-13441484D02*
X13855130Y-13393865D01*
X13855130Y-13393865D02*
X13864653Y-13355770D01*
X13864653Y-13355770D02*
X13874177Y-13336722D01*
X13874177Y-13336722D02*
X13883701Y-13327198D01*
X13883701Y-13327198D02*
X13902749Y-13317675D01*
X14055130Y-13498627D02*
X14064653Y-13508151D01*
X14064653Y-13508151D02*
X14055130Y-13517675D01*
X14055130Y-13517675D02*
X14045606Y-13508151D01*
X14045606Y-13508151D02*
X14055130Y-13498627D01*
X14055130Y-13498627D02*
X14055130Y-13517675D01*
X14188463Y-13317675D02*
X14207511Y-13317675D01*
X14207511Y-13317675D02*
X14226558Y-13327198D01*
X14226558Y-13327198D02*
X14236082Y-13336722D01*
X14236082Y-13336722D02*
X14245606Y-13355770D01*
X14245606Y-13355770D02*
X14255130Y-13393865D01*
X14255130Y-13393865D02*
X14255130Y-13441484D01*
X14255130Y-13441484D02*
X14245606Y-13479579D01*
X14245606Y-13479579D02*
X14236082Y-13498627D01*
X14236082Y-13498627D02*
X14226558Y-13508151D01*
X14226558Y-13508151D02*
X14207511Y-13517675D01*
X14207511Y-13517675D02*
X14188463Y-13517675D01*
X14188463Y-13517675D02*
X14169415Y-13508151D01*
X14169415Y-13508151D02*
X14159892Y-13498627D01*
X14159892Y-13498627D02*
X14150368Y-13479579D01*
X14150368Y-13479579D02*
X14140844Y-13441484D01*
X14140844Y-13441484D02*
X14140844Y-13393865D01*
X14140844Y-13393865D02*
X14150368Y-13355770D01*
X14150368Y-13355770D02*
X14159892Y-13336722D01*
X14159892Y-13336722D02*
X14169415Y-13327198D01*
X14169415Y-13327198D02*
X14188463Y-13317675D01*
X14321796Y-13317675D02*
X14445606Y-13317675D01*
X14445606Y-13317675D02*
X14378939Y-13393865D01*
X14378939Y-13393865D02*
X14407511Y-13393865D01*
X14407511Y-13393865D02*
X14426558Y-13403389D01*
X14426558Y-13403389D02*
X14436082Y-13412913D01*
X14436082Y-13412913D02*
X14445606Y-13431960D01*
X14445606Y-13431960D02*
X14445606Y-13479579D01*
X14445606Y-13479579D02*
X14436082Y-13498627D01*
X14436082Y-13498627D02*
X14426558Y-13508151D01*
X14426558Y-13508151D02*
X14407511Y-13517675D01*
X14407511Y-13517675D02*
X14350368Y-13517675D01*
X14350368Y-13517675D02*
X14331320Y-13508151D01*
X14331320Y-13508151D02*
X14321796Y-13498627D01*
X14540844Y-13517675D02*
X14578939Y-13517675D01*
X14578939Y-13517675D02*
X14597987Y-13508151D01*
X14597987Y-13508151D02*
X14607511Y-13498627D01*
X14607511Y-13498627D02*
X14626558Y-13470055D01*
X14626558Y-13470055D02*
X14636082Y-13431960D01*
X14636082Y-13431960D02*
X14636082Y-13355770D01*
X14636082Y-13355770D02*
X14626558Y-13336722D01*
X14626558Y-13336722D02*
X14617034Y-13327198D01*
X14617034Y-13327198D02*
X14597987Y-13317675D01*
X14597987Y-13317675D02*
X14559892Y-13317675D01*
X14559892Y-13317675D02*
X14540844Y-13327198D01*
X14540844Y-13327198D02*
X14531320Y-13336722D01*
X14531320Y-13336722D02*
X14521796Y-13355770D01*
X14521796Y-13355770D02*
X14521796Y-13403389D01*
X14521796Y-13403389D02*
X14531320Y-13422436D01*
X14531320Y-13422436D02*
X14540844Y-13431960D01*
X14540844Y-13431960D02*
X14559892Y-13441484D01*
X14559892Y-13441484D02*
X14597987Y-13441484D01*
X14597987Y-13441484D02*
X14617034Y-13431960D01*
X14617034Y-13431960D02*
X14626558Y-13422436D01*
X14626558Y-13422436D02*
X14636082Y-13403389D01*
X14807511Y-13384341D02*
X14807511Y-13517675D01*
X14759892Y-13308151D02*
X14712273Y-13451008D01*
X14712273Y-13451008D02*
X14836082Y-13451008D01*
X14902749Y-13317675D02*
X14902749Y-13355770D01*
X14978939Y-13317675D02*
X14978939Y-13355770D01*
X15274177Y-13593865D02*
X15264654Y-13584341D01*
X15264654Y-13584341D02*
X15245606Y-13555770D01*
X15245606Y-13555770D02*
X15236082Y-13536722D01*
X15236082Y-13536722D02*
X15226558Y-13508151D01*
X15226558Y-13508151D02*
X15217035Y-13460532D01*
X15217035Y-13460532D02*
X15217035Y-13422436D01*
X15217035Y-13422436D02*
X15226558Y-13374817D01*
X15226558Y-13374817D02*
X15236082Y-13346246D01*
X15236082Y-13346246D02*
X15245606Y-13327198D01*
X15245606Y-13327198D02*
X15264654Y-13298627D01*
X15264654Y-13298627D02*
X15274177Y-13289103D01*
X15455130Y-13517675D02*
X15340844Y-13517675D01*
X15397987Y-13517675D02*
X15397987Y-13317675D01*
X15397987Y-13317675D02*
X15378939Y-13346246D01*
X15378939Y-13346246D02*
X15359892Y-13365294D01*
X15359892Y-13365294D02*
X15340844Y-13374817D01*
X15521796Y-13317675D02*
X15645606Y-13317675D01*
X15645606Y-13317675D02*
X15578939Y-13393865D01*
X15578939Y-13393865D02*
X15607511Y-13393865D01*
X15607511Y-13393865D02*
X15626558Y-13403389D01*
X15626558Y-13403389D02*
X15636082Y-13412913D01*
X15636082Y-13412913D02*
X15645606Y-13431960D01*
X15645606Y-13431960D02*
X15645606Y-13479579D01*
X15645606Y-13479579D02*
X15636082Y-13498627D01*
X15636082Y-13498627D02*
X15626558Y-13508151D01*
X15626558Y-13508151D02*
X15607511Y-13517675D01*
X15607511Y-13517675D02*
X15550368Y-13517675D01*
X15550368Y-13517675D02*
X15531320Y-13508151D01*
X15531320Y-13508151D02*
X15521796Y-13498627D01*
X15883701Y-13517675D02*
X15883701Y-13317675D01*
X15969416Y-13517675D02*
X15969416Y-13412913D01*
X15969416Y-13412913D02*
X15959892Y-13393865D01*
X15959892Y-13393865D02*
X15940844Y-13384341D01*
X15940844Y-13384341D02*
X15912273Y-13384341D01*
X15912273Y-13384341D02*
X15893225Y-13393865D01*
X15893225Y-13393865D02*
X15883701Y-13403389D01*
X16093225Y-13517675D02*
X16074177Y-13508151D01*
X16074177Y-13508151D02*
X16064654Y-13498627D01*
X16064654Y-13498627D02*
X16055130Y-13479579D01*
X16055130Y-13479579D02*
X16055130Y-13422436D01*
X16055130Y-13422436D02*
X16064654Y-13403389D01*
X16064654Y-13403389D02*
X16074177Y-13393865D01*
X16074177Y-13393865D02*
X16093225Y-13384341D01*
X16093225Y-13384341D02*
X16121797Y-13384341D01*
X16121797Y-13384341D02*
X16140844Y-13393865D01*
X16140844Y-13393865D02*
X16150368Y-13403389D01*
X16150368Y-13403389D02*
X16159892Y-13422436D01*
X16159892Y-13422436D02*
X16159892Y-13479579D01*
X16159892Y-13479579D02*
X16150368Y-13498627D01*
X16150368Y-13498627D02*
X16140844Y-13508151D01*
X16140844Y-13508151D02*
X16121797Y-13517675D01*
X16121797Y-13517675D02*
X16093225Y-13517675D01*
X16274177Y-13517675D02*
X16255130Y-13508151D01*
X16255130Y-13508151D02*
X16245606Y-13489103D01*
X16245606Y-13489103D02*
X16245606Y-13317675D01*
X16426558Y-13508151D02*
X16407511Y-13517675D01*
X16407511Y-13517675D02*
X16369416Y-13517675D01*
X16369416Y-13517675D02*
X16350368Y-13508151D01*
X16350368Y-13508151D02*
X16340844Y-13489103D01*
X16340844Y-13489103D02*
X16340844Y-13412913D01*
X16340844Y-13412913D02*
X16350368Y-13393865D01*
X16350368Y-13393865D02*
X16369416Y-13384341D01*
X16369416Y-13384341D02*
X16407511Y-13384341D01*
X16407511Y-13384341D02*
X16426558Y-13393865D01*
X16426558Y-13393865D02*
X16436082Y-13412913D01*
X16436082Y-13412913D02*
X16436082Y-13431960D01*
X16436082Y-13431960D02*
X16340844Y-13451008D01*
X16512273Y-13508151D02*
X16531320Y-13517675D01*
X16531320Y-13517675D02*
X16569416Y-13517675D01*
X16569416Y-13517675D02*
X16588463Y-13508151D01*
X16588463Y-13508151D02*
X16597987Y-13489103D01*
X16597987Y-13489103D02*
X16597987Y-13479579D01*
X16597987Y-13479579D02*
X16588463Y-13460532D01*
X16588463Y-13460532D02*
X16569416Y-13451008D01*
X16569416Y-13451008D02*
X16540844Y-13451008D01*
X16540844Y-13451008D02*
X16521797Y-13441484D01*
X16521797Y-13441484D02*
X16512273Y-13422436D01*
X16512273Y-13422436D02*
X16512273Y-13412913D01*
X16512273Y-13412913D02*
X16521797Y-13393865D01*
X16521797Y-13393865D02*
X16540844Y-13384341D01*
X16540844Y-13384341D02*
X16569416Y-13384341D01*
X16569416Y-13384341D02*
X16588463Y-13393865D01*
X16664654Y-13593865D02*
X16674178Y-13584341D01*
X16674178Y-13584341D02*
X16693225Y-13555770D01*
X16693225Y-13555770D02*
X16702749Y-13536722D01*
X16702749Y-13536722D02*
X16712273Y-13508151D01*
X16712273Y-13508151D02*
X16721797Y-13460532D01*
X16721797Y-13460532D02*
X16721797Y-13422436D01*
X16721797Y-13422436D02*
X16712273Y-13374817D01*
X16712273Y-13374817D02*
X16702749Y-13346246D01*
X16702749Y-13346246D02*
X16693225Y-13327198D01*
X16693225Y-13327198D02*
X16674178Y-13298627D01*
X16674178Y-13298627D02*
X16664654Y-13289103D01*
D14*
X11681541Y-13732618D02*
X11681541Y-13647764D01*
X11596688Y-13647764D01*
X11596688Y-13732618D01*
X11681541Y-13732618D01*
D10*
X12064653Y-13781675D02*
X11950368Y-13781675D01*
X12007510Y-13781675D02*
X12007510Y-13581675D01*
X12007510Y-13581675D02*
X11988463Y-13610246D01*
X11988463Y-13610246D02*
X11969415Y-13629294D01*
X11969415Y-13629294D02*
X11950368Y-13638817D01*
X12150368Y-13762627D02*
X12159891Y-13772151D01*
X12159891Y-13772151D02*
X12150368Y-13781675D01*
X12150368Y-13781675D02*
X12140844Y-13772151D01*
X12140844Y-13772151D02*
X12150368Y-13762627D01*
X12150368Y-13762627D02*
X12150368Y-13781675D01*
X12236082Y-13600722D02*
X12245606Y-13591198D01*
X12245606Y-13591198D02*
X12264653Y-13581675D01*
X12264653Y-13581675D02*
X12312272Y-13581675D01*
X12312272Y-13581675D02*
X12331320Y-13591198D01*
X12331320Y-13591198D02*
X12340844Y-13600722D01*
X12340844Y-13600722D02*
X12350368Y-13619770D01*
X12350368Y-13619770D02*
X12350368Y-13638817D01*
X12350368Y-13638817D02*
X12340844Y-13667389D01*
X12340844Y-13667389D02*
X12226558Y-13781675D01*
X12226558Y-13781675D02*
X12350368Y-13781675D01*
X12474177Y-13581675D02*
X12493225Y-13581675D01*
X12493225Y-13581675D02*
X12512272Y-13591198D01*
X12512272Y-13591198D02*
X12521796Y-13600722D01*
X12521796Y-13600722D02*
X12531320Y-13619770D01*
X12531320Y-13619770D02*
X12540844Y-13657865D01*
X12540844Y-13657865D02*
X12540844Y-13705484D01*
X12540844Y-13705484D02*
X12531320Y-13743579D01*
X12531320Y-13743579D02*
X12521796Y-13762627D01*
X12521796Y-13762627D02*
X12512272Y-13772151D01*
X12512272Y-13772151D02*
X12493225Y-13781675D01*
X12493225Y-13781675D02*
X12474177Y-13781675D01*
X12474177Y-13781675D02*
X12455129Y-13772151D01*
X12455129Y-13772151D02*
X12445606Y-13762627D01*
X12445606Y-13762627D02*
X12436082Y-13743579D01*
X12436082Y-13743579D02*
X12426558Y-13705484D01*
X12426558Y-13705484D02*
X12426558Y-13657865D01*
X12426558Y-13657865D02*
X12436082Y-13619770D01*
X12436082Y-13619770D02*
X12445606Y-13600722D01*
X12445606Y-13600722D02*
X12455129Y-13591198D01*
X12455129Y-13591198D02*
X12474177Y-13581675D01*
X12664653Y-13581675D02*
X12683701Y-13581675D01*
X12683701Y-13581675D02*
X12702749Y-13591198D01*
X12702749Y-13591198D02*
X12712272Y-13600722D01*
X12712272Y-13600722D02*
X12721796Y-13619770D01*
X12721796Y-13619770D02*
X12731320Y-13657865D01*
X12731320Y-13657865D02*
X12731320Y-13705484D01*
X12731320Y-13705484D02*
X12721796Y-13743579D01*
X12721796Y-13743579D02*
X12712272Y-13762627D01*
X12712272Y-13762627D02*
X12702749Y-13772151D01*
X12702749Y-13772151D02*
X12683701Y-13781675D01*
X12683701Y-13781675D02*
X12664653Y-13781675D01*
X12664653Y-13781675D02*
X12645606Y-13772151D01*
X12645606Y-13772151D02*
X12636082Y-13762627D01*
X12636082Y-13762627D02*
X12626558Y-13743579D01*
X12626558Y-13743579D02*
X12617034Y-13705484D01*
X12617034Y-13705484D02*
X12617034Y-13657865D01*
X12617034Y-13657865D02*
X12626558Y-13619770D01*
X12626558Y-13619770D02*
X12636082Y-13600722D01*
X12636082Y-13600722D02*
X12645606Y-13591198D01*
X12645606Y-13591198D02*
X12664653Y-13581675D01*
X12817034Y-13781675D02*
X12817034Y-13648341D01*
X12817034Y-13667389D02*
X12826558Y-13657865D01*
X12826558Y-13657865D02*
X12845606Y-13648341D01*
X12845606Y-13648341D02*
X12874177Y-13648341D01*
X12874177Y-13648341D02*
X12893225Y-13657865D01*
X12893225Y-13657865D02*
X12902749Y-13676913D01*
X12902749Y-13676913D02*
X12902749Y-13781675D01*
X12902749Y-13676913D02*
X12912272Y-13657865D01*
X12912272Y-13657865D02*
X12931320Y-13648341D01*
X12931320Y-13648341D02*
X12959891Y-13648341D01*
X12959891Y-13648341D02*
X12978939Y-13657865D01*
X12978939Y-13657865D02*
X12988463Y-13676913D01*
X12988463Y-13676913D02*
X12988463Y-13781675D01*
X13083701Y-13781675D02*
X13083701Y-13648341D01*
X13083701Y-13667389D02*
X13093225Y-13657865D01*
X13093225Y-13657865D02*
X13112272Y-13648341D01*
X13112272Y-13648341D02*
X13140844Y-13648341D01*
X13140844Y-13648341D02*
X13159891Y-13657865D01*
X13159891Y-13657865D02*
X13169415Y-13676913D01*
X13169415Y-13676913D02*
X13169415Y-13781675D01*
X13169415Y-13676913D02*
X13178939Y-13657865D01*
X13178939Y-13657865D02*
X13197987Y-13648341D01*
X13197987Y-13648341D02*
X13226558Y-13648341D01*
X13226558Y-13648341D02*
X13245606Y-13657865D01*
X13245606Y-13657865D02*
X13255130Y-13676913D01*
X13255130Y-13676913D02*
X13255130Y-13781675D01*
X13645606Y-13572151D02*
X13474177Y-13829294D01*
X13902749Y-13581675D02*
X13921796Y-13581675D01*
X13921796Y-13581675D02*
X13940844Y-13591198D01*
X13940844Y-13591198D02*
X13950368Y-13600722D01*
X13950368Y-13600722D02*
X13959892Y-13619770D01*
X13959892Y-13619770D02*
X13969415Y-13657865D01*
X13969415Y-13657865D02*
X13969415Y-13705484D01*
X13969415Y-13705484D02*
X13959892Y-13743579D01*
X13959892Y-13743579D02*
X13950368Y-13762627D01*
X13950368Y-13762627D02*
X13940844Y-13772151D01*
X13940844Y-13772151D02*
X13921796Y-13781675D01*
X13921796Y-13781675D02*
X13902749Y-13781675D01*
X13902749Y-13781675D02*
X13883701Y-13772151D01*
X13883701Y-13772151D02*
X13874177Y-13762627D01*
X13874177Y-13762627D02*
X13864653Y-13743579D01*
X13864653Y-13743579D02*
X13855130Y-13705484D01*
X13855130Y-13705484D02*
X13855130Y-13657865D01*
X13855130Y-13657865D02*
X13864653Y-13619770D01*
X13864653Y-13619770D02*
X13874177Y-13600722D01*
X13874177Y-13600722D02*
X13883701Y-13591198D01*
X13883701Y-13591198D02*
X13902749Y-13581675D01*
X14055130Y-13762627D02*
X14064653Y-13772151D01*
X14064653Y-13772151D02*
X14055130Y-13781675D01*
X14055130Y-13781675D02*
X14045606Y-13772151D01*
X14045606Y-13772151D02*
X14055130Y-13762627D01*
X14055130Y-13762627D02*
X14055130Y-13781675D01*
X14188463Y-13581675D02*
X14207511Y-13581675D01*
X14207511Y-13581675D02*
X14226558Y-13591198D01*
X14226558Y-13591198D02*
X14236082Y-13600722D01*
X14236082Y-13600722D02*
X14245606Y-13619770D01*
X14245606Y-13619770D02*
X14255130Y-13657865D01*
X14255130Y-13657865D02*
X14255130Y-13705484D01*
X14255130Y-13705484D02*
X14245606Y-13743579D01*
X14245606Y-13743579D02*
X14236082Y-13762627D01*
X14236082Y-13762627D02*
X14226558Y-13772151D01*
X14226558Y-13772151D02*
X14207511Y-13781675D01*
X14207511Y-13781675D02*
X14188463Y-13781675D01*
X14188463Y-13781675D02*
X14169415Y-13772151D01*
X14169415Y-13772151D02*
X14159892Y-13762627D01*
X14159892Y-13762627D02*
X14150368Y-13743579D01*
X14150368Y-13743579D02*
X14140844Y-13705484D01*
X14140844Y-13705484D02*
X14140844Y-13657865D01*
X14140844Y-13657865D02*
X14150368Y-13619770D01*
X14150368Y-13619770D02*
X14159892Y-13600722D01*
X14159892Y-13600722D02*
X14169415Y-13591198D01*
X14169415Y-13591198D02*
X14188463Y-13581675D01*
X14426558Y-13648341D02*
X14426558Y-13781675D01*
X14378939Y-13572151D02*
X14331320Y-13715008D01*
X14331320Y-13715008D02*
X14455130Y-13715008D01*
X14512273Y-13581675D02*
X14645606Y-13581675D01*
X14645606Y-13581675D02*
X14559892Y-13781675D01*
X14712273Y-13600722D02*
X14721796Y-13591198D01*
X14721796Y-13591198D02*
X14740844Y-13581675D01*
X14740844Y-13581675D02*
X14788463Y-13581675D01*
X14788463Y-13581675D02*
X14807511Y-13591198D01*
X14807511Y-13591198D02*
X14817034Y-13600722D01*
X14817034Y-13600722D02*
X14826558Y-13619770D01*
X14826558Y-13619770D02*
X14826558Y-13638817D01*
X14826558Y-13638817D02*
X14817034Y-13667389D01*
X14817034Y-13667389D02*
X14702749Y-13781675D01*
X14702749Y-13781675D02*
X14826558Y-13781675D01*
X14902749Y-13581675D02*
X14902749Y-13619770D01*
X14978939Y-13581675D02*
X14978939Y-13619770D01*
X15274177Y-13857865D02*
X15264654Y-13848341D01*
X15264654Y-13848341D02*
X15245606Y-13819770D01*
X15245606Y-13819770D02*
X15236082Y-13800722D01*
X15236082Y-13800722D02*
X15226558Y-13772151D01*
X15226558Y-13772151D02*
X15217035Y-13724532D01*
X15217035Y-13724532D02*
X15217035Y-13686436D01*
X15217035Y-13686436D02*
X15226558Y-13638817D01*
X15226558Y-13638817D02*
X15236082Y-13610246D01*
X15236082Y-13610246D02*
X15245606Y-13591198D01*
X15245606Y-13591198D02*
X15264654Y-13562627D01*
X15264654Y-13562627D02*
X15274177Y-13553103D01*
X15340844Y-13600722D02*
X15350368Y-13591198D01*
X15350368Y-13591198D02*
X15369415Y-13581675D01*
X15369415Y-13581675D02*
X15417035Y-13581675D01*
X15417035Y-13581675D02*
X15436082Y-13591198D01*
X15436082Y-13591198D02*
X15445606Y-13600722D01*
X15445606Y-13600722D02*
X15455130Y-13619770D01*
X15455130Y-13619770D02*
X15455130Y-13638817D01*
X15455130Y-13638817D02*
X15445606Y-13667389D01*
X15445606Y-13667389D02*
X15331320Y-13781675D01*
X15331320Y-13781675D02*
X15455130Y-13781675D01*
X15693225Y-13781675D02*
X15693225Y-13581675D01*
X15778939Y-13781675D02*
X15778939Y-13676913D01*
X15778939Y-13676913D02*
X15769416Y-13657865D01*
X15769416Y-13657865D02*
X15750368Y-13648341D01*
X15750368Y-13648341D02*
X15721796Y-13648341D01*
X15721796Y-13648341D02*
X15702749Y-13657865D01*
X15702749Y-13657865D02*
X15693225Y-13667389D01*
X15902749Y-13781675D02*
X15883701Y-13772151D01*
X15883701Y-13772151D02*
X15874177Y-13762627D01*
X15874177Y-13762627D02*
X15864654Y-13743579D01*
X15864654Y-13743579D02*
X15864654Y-13686436D01*
X15864654Y-13686436D02*
X15874177Y-13667389D01*
X15874177Y-13667389D02*
X15883701Y-13657865D01*
X15883701Y-13657865D02*
X15902749Y-13648341D01*
X15902749Y-13648341D02*
X15931320Y-13648341D01*
X15931320Y-13648341D02*
X15950368Y-13657865D01*
X15950368Y-13657865D02*
X15959892Y-13667389D01*
X15959892Y-13667389D02*
X15969416Y-13686436D01*
X15969416Y-13686436D02*
X15969416Y-13743579D01*
X15969416Y-13743579D02*
X15959892Y-13762627D01*
X15959892Y-13762627D02*
X15950368Y-13772151D01*
X15950368Y-13772151D02*
X15931320Y-13781675D01*
X15931320Y-13781675D02*
X15902749Y-13781675D01*
X16083701Y-13781675D02*
X16064654Y-13772151D01*
X16064654Y-13772151D02*
X16055130Y-13753103D01*
X16055130Y-13753103D02*
X16055130Y-13581675D01*
X16236082Y-13772151D02*
X16217035Y-13781675D01*
X16217035Y-13781675D02*
X16178939Y-13781675D01*
X16178939Y-13781675D02*
X16159892Y-13772151D01*
X16159892Y-13772151D02*
X16150368Y-13753103D01*
X16150368Y-13753103D02*
X16150368Y-13676913D01*
X16150368Y-13676913D02*
X16159892Y-13657865D01*
X16159892Y-13657865D02*
X16178939Y-13648341D01*
X16178939Y-13648341D02*
X16217035Y-13648341D01*
X16217035Y-13648341D02*
X16236082Y-13657865D01*
X16236082Y-13657865D02*
X16245606Y-13676913D01*
X16245606Y-13676913D02*
X16245606Y-13695960D01*
X16245606Y-13695960D02*
X16150368Y-13715008D01*
X16321797Y-13772151D02*
X16340844Y-13781675D01*
X16340844Y-13781675D02*
X16378939Y-13781675D01*
X16378939Y-13781675D02*
X16397987Y-13772151D01*
X16397987Y-13772151D02*
X16407511Y-13753103D01*
X16407511Y-13753103D02*
X16407511Y-13743579D01*
X16407511Y-13743579D02*
X16397987Y-13724532D01*
X16397987Y-13724532D02*
X16378939Y-13715008D01*
X16378939Y-13715008D02*
X16350368Y-13715008D01*
X16350368Y-13715008D02*
X16331320Y-13705484D01*
X16331320Y-13705484D02*
X16321797Y-13686436D01*
X16321797Y-13686436D02*
X16321797Y-13676913D01*
X16321797Y-13676913D02*
X16331320Y-13657865D01*
X16331320Y-13657865D02*
X16350368Y-13648341D01*
X16350368Y-13648341D02*
X16378939Y-13648341D01*
X16378939Y-13648341D02*
X16397987Y-13657865D01*
X16474178Y-13857865D02*
X16483701Y-13848341D01*
X16483701Y-13848341D02*
X16502749Y-13819770D01*
X16502749Y-13819770D02*
X16512273Y-13800722D01*
X16512273Y-13800722D02*
X16521797Y-13772151D01*
X16521797Y-13772151D02*
X16531320Y-13724532D01*
X16531320Y-13724532D02*
X16531320Y-13686436D01*
X16531320Y-13686436D02*
X16521797Y-13638817D01*
X16521797Y-13638817D02*
X16512273Y-13610246D01*
X16512273Y-13610246D02*
X16502749Y-13591198D01*
X16502749Y-13591198D02*
X16483701Y-13562627D01*
X16483701Y-13562627D02*
X16474178Y-13553103D01*
D15*
X11634115Y-14019191D02*
X11699115Y-13954191D01*
X11634115Y-13889191D01*
X11569115Y-13954191D01*
X11634115Y-14019191D01*
D10*
X12064653Y-14045675D02*
X11950368Y-14045675D01*
X12007510Y-14045675D02*
X12007510Y-13845675D01*
X12007510Y-13845675D02*
X11988463Y-13874246D01*
X11988463Y-13874246D02*
X11969415Y-13893294D01*
X11969415Y-13893294D02*
X11950368Y-13902817D01*
X12150368Y-14026627D02*
X12159891Y-14036151D01*
X12159891Y-14036151D02*
X12150368Y-14045675D01*
X12150368Y-14045675D02*
X12140844Y-14036151D01*
X12140844Y-14036151D02*
X12150368Y-14026627D01*
X12150368Y-14026627D02*
X12150368Y-14045675D01*
X12226558Y-13845675D02*
X12350368Y-13845675D01*
X12350368Y-13845675D02*
X12283701Y-13921865D01*
X12283701Y-13921865D02*
X12312272Y-13921865D01*
X12312272Y-13921865D02*
X12331320Y-13931389D01*
X12331320Y-13931389D02*
X12340844Y-13940913D01*
X12340844Y-13940913D02*
X12350368Y-13959960D01*
X12350368Y-13959960D02*
X12350368Y-14007579D01*
X12350368Y-14007579D02*
X12340844Y-14026627D01*
X12340844Y-14026627D02*
X12331320Y-14036151D01*
X12331320Y-14036151D02*
X12312272Y-14045675D01*
X12312272Y-14045675D02*
X12255129Y-14045675D01*
X12255129Y-14045675D02*
X12236082Y-14036151D01*
X12236082Y-14036151D02*
X12226558Y-14026627D01*
X12474177Y-13845675D02*
X12493225Y-13845675D01*
X12493225Y-13845675D02*
X12512272Y-13855198D01*
X12512272Y-13855198D02*
X12521796Y-13864722D01*
X12521796Y-13864722D02*
X12531320Y-13883770D01*
X12531320Y-13883770D02*
X12540844Y-13921865D01*
X12540844Y-13921865D02*
X12540844Y-13969484D01*
X12540844Y-13969484D02*
X12531320Y-14007579D01*
X12531320Y-14007579D02*
X12521796Y-14026627D01*
X12521796Y-14026627D02*
X12512272Y-14036151D01*
X12512272Y-14036151D02*
X12493225Y-14045675D01*
X12493225Y-14045675D02*
X12474177Y-14045675D01*
X12474177Y-14045675D02*
X12455129Y-14036151D01*
X12455129Y-14036151D02*
X12445606Y-14026627D01*
X12445606Y-14026627D02*
X12436082Y-14007579D01*
X12436082Y-14007579D02*
X12426558Y-13969484D01*
X12426558Y-13969484D02*
X12426558Y-13921865D01*
X12426558Y-13921865D02*
X12436082Y-13883770D01*
X12436082Y-13883770D02*
X12445606Y-13864722D01*
X12445606Y-13864722D02*
X12455129Y-13855198D01*
X12455129Y-13855198D02*
X12474177Y-13845675D01*
X12664653Y-13845675D02*
X12683701Y-13845675D01*
X12683701Y-13845675D02*
X12702749Y-13855198D01*
X12702749Y-13855198D02*
X12712272Y-13864722D01*
X12712272Y-13864722D02*
X12721796Y-13883770D01*
X12721796Y-13883770D02*
X12731320Y-13921865D01*
X12731320Y-13921865D02*
X12731320Y-13969484D01*
X12731320Y-13969484D02*
X12721796Y-14007579D01*
X12721796Y-14007579D02*
X12712272Y-14026627D01*
X12712272Y-14026627D02*
X12702749Y-14036151D01*
X12702749Y-14036151D02*
X12683701Y-14045675D01*
X12683701Y-14045675D02*
X12664653Y-14045675D01*
X12664653Y-14045675D02*
X12645606Y-14036151D01*
X12645606Y-14036151D02*
X12636082Y-14026627D01*
X12636082Y-14026627D02*
X12626558Y-14007579D01*
X12626558Y-14007579D02*
X12617034Y-13969484D01*
X12617034Y-13969484D02*
X12617034Y-13921865D01*
X12617034Y-13921865D02*
X12626558Y-13883770D01*
X12626558Y-13883770D02*
X12636082Y-13864722D01*
X12636082Y-13864722D02*
X12645606Y-13855198D01*
X12645606Y-13855198D02*
X12664653Y-13845675D01*
X12817034Y-14045675D02*
X12817034Y-13912341D01*
X12817034Y-13931389D02*
X12826558Y-13921865D01*
X12826558Y-13921865D02*
X12845606Y-13912341D01*
X12845606Y-13912341D02*
X12874177Y-13912341D01*
X12874177Y-13912341D02*
X12893225Y-13921865D01*
X12893225Y-13921865D02*
X12902749Y-13940913D01*
X12902749Y-13940913D02*
X12902749Y-14045675D01*
X12902749Y-13940913D02*
X12912272Y-13921865D01*
X12912272Y-13921865D02*
X12931320Y-13912341D01*
X12931320Y-13912341D02*
X12959891Y-13912341D01*
X12959891Y-13912341D02*
X12978939Y-13921865D01*
X12978939Y-13921865D02*
X12988463Y-13940913D01*
X12988463Y-13940913D02*
X12988463Y-14045675D01*
X13083701Y-14045675D02*
X13083701Y-13912341D01*
X13083701Y-13931389D02*
X13093225Y-13921865D01*
X13093225Y-13921865D02*
X13112272Y-13912341D01*
X13112272Y-13912341D02*
X13140844Y-13912341D01*
X13140844Y-13912341D02*
X13159891Y-13921865D01*
X13159891Y-13921865D02*
X13169415Y-13940913D01*
X13169415Y-13940913D02*
X13169415Y-14045675D01*
X13169415Y-13940913D02*
X13178939Y-13921865D01*
X13178939Y-13921865D02*
X13197987Y-13912341D01*
X13197987Y-13912341D02*
X13226558Y-13912341D01*
X13226558Y-13912341D02*
X13245606Y-13921865D01*
X13245606Y-13921865D02*
X13255130Y-13940913D01*
X13255130Y-13940913D02*
X13255130Y-14045675D01*
X13645606Y-13836151D02*
X13474177Y-14093294D01*
X13902749Y-13845675D02*
X13921796Y-13845675D01*
X13921796Y-13845675D02*
X13940844Y-13855198D01*
X13940844Y-13855198D02*
X13950368Y-13864722D01*
X13950368Y-13864722D02*
X13959892Y-13883770D01*
X13959892Y-13883770D02*
X13969415Y-13921865D01*
X13969415Y-13921865D02*
X13969415Y-13969484D01*
X13969415Y-13969484D02*
X13959892Y-14007579D01*
X13959892Y-14007579D02*
X13950368Y-14026627D01*
X13950368Y-14026627D02*
X13940844Y-14036151D01*
X13940844Y-14036151D02*
X13921796Y-14045675D01*
X13921796Y-14045675D02*
X13902749Y-14045675D01*
X13902749Y-14045675D02*
X13883701Y-14036151D01*
X13883701Y-14036151D02*
X13874177Y-14026627D01*
X13874177Y-14026627D02*
X13864653Y-14007579D01*
X13864653Y-14007579D02*
X13855130Y-13969484D01*
X13855130Y-13969484D02*
X13855130Y-13921865D01*
X13855130Y-13921865D02*
X13864653Y-13883770D01*
X13864653Y-13883770D02*
X13874177Y-13864722D01*
X13874177Y-13864722D02*
X13883701Y-13855198D01*
X13883701Y-13855198D02*
X13902749Y-13845675D01*
X14055130Y-14026627D02*
X14064653Y-14036151D01*
X14064653Y-14036151D02*
X14055130Y-14045675D01*
X14055130Y-14045675D02*
X14045606Y-14036151D01*
X14045606Y-14036151D02*
X14055130Y-14026627D01*
X14055130Y-14026627D02*
X14055130Y-14045675D01*
X14188463Y-13845675D02*
X14207511Y-13845675D01*
X14207511Y-13845675D02*
X14226558Y-13855198D01*
X14226558Y-13855198D02*
X14236082Y-13864722D01*
X14236082Y-13864722D02*
X14245606Y-13883770D01*
X14245606Y-13883770D02*
X14255130Y-13921865D01*
X14255130Y-13921865D02*
X14255130Y-13969484D01*
X14255130Y-13969484D02*
X14245606Y-14007579D01*
X14245606Y-14007579D02*
X14236082Y-14026627D01*
X14236082Y-14026627D02*
X14226558Y-14036151D01*
X14226558Y-14036151D02*
X14207511Y-14045675D01*
X14207511Y-14045675D02*
X14188463Y-14045675D01*
X14188463Y-14045675D02*
X14169415Y-14036151D01*
X14169415Y-14036151D02*
X14159892Y-14026627D01*
X14159892Y-14026627D02*
X14150368Y-14007579D01*
X14150368Y-14007579D02*
X14140844Y-13969484D01*
X14140844Y-13969484D02*
X14140844Y-13921865D01*
X14140844Y-13921865D02*
X14150368Y-13883770D01*
X14150368Y-13883770D02*
X14159892Y-13864722D01*
X14159892Y-13864722D02*
X14169415Y-13855198D01*
X14169415Y-13855198D02*
X14188463Y-13845675D01*
X14436082Y-13845675D02*
X14340844Y-13845675D01*
X14340844Y-13845675D02*
X14331320Y-13940913D01*
X14331320Y-13940913D02*
X14340844Y-13931389D01*
X14340844Y-13931389D02*
X14359892Y-13921865D01*
X14359892Y-13921865D02*
X14407511Y-13921865D01*
X14407511Y-13921865D02*
X14426558Y-13931389D01*
X14426558Y-13931389D02*
X14436082Y-13940913D01*
X14436082Y-13940913D02*
X14445606Y-13959960D01*
X14445606Y-13959960D02*
X14445606Y-14007579D01*
X14445606Y-14007579D02*
X14436082Y-14026627D01*
X14436082Y-14026627D02*
X14426558Y-14036151D01*
X14426558Y-14036151D02*
X14407511Y-14045675D01*
X14407511Y-14045675D02*
X14359892Y-14045675D01*
X14359892Y-14045675D02*
X14340844Y-14036151D01*
X14340844Y-14036151D02*
X14331320Y-14026627D01*
X14636082Y-14045675D02*
X14521796Y-14045675D01*
X14578939Y-14045675D02*
X14578939Y-13845675D01*
X14578939Y-13845675D02*
X14559892Y-13874246D01*
X14559892Y-13874246D02*
X14540844Y-13893294D01*
X14540844Y-13893294D02*
X14521796Y-13902817D01*
X14712273Y-13864722D02*
X14721796Y-13855198D01*
X14721796Y-13855198D02*
X14740844Y-13845675D01*
X14740844Y-13845675D02*
X14788463Y-13845675D01*
X14788463Y-13845675D02*
X14807511Y-13855198D01*
X14807511Y-13855198D02*
X14817034Y-13864722D01*
X14817034Y-13864722D02*
X14826558Y-13883770D01*
X14826558Y-13883770D02*
X14826558Y-13902817D01*
X14826558Y-13902817D02*
X14817034Y-13931389D01*
X14817034Y-13931389D02*
X14702749Y-14045675D01*
X14702749Y-14045675D02*
X14826558Y-14045675D01*
X14902749Y-13845675D02*
X14902749Y-13883770D01*
X14978939Y-13845675D02*
X14978939Y-13883770D01*
X15274177Y-14121865D02*
X15264654Y-14112341D01*
X15264654Y-14112341D02*
X15245606Y-14083770D01*
X15245606Y-14083770D02*
X15236082Y-14064722D01*
X15236082Y-14064722D02*
X15226558Y-14036151D01*
X15226558Y-14036151D02*
X15217035Y-13988532D01*
X15217035Y-13988532D02*
X15217035Y-13950436D01*
X15217035Y-13950436D02*
X15226558Y-13902817D01*
X15226558Y-13902817D02*
X15236082Y-13874246D01*
X15236082Y-13874246D02*
X15245606Y-13855198D01*
X15245606Y-13855198D02*
X15264654Y-13826627D01*
X15264654Y-13826627D02*
X15274177Y-13817103D01*
X15340844Y-13864722D02*
X15350368Y-13855198D01*
X15350368Y-13855198D02*
X15369415Y-13845675D01*
X15369415Y-13845675D02*
X15417035Y-13845675D01*
X15417035Y-13845675D02*
X15436082Y-13855198D01*
X15436082Y-13855198D02*
X15445606Y-13864722D01*
X15445606Y-13864722D02*
X15455130Y-13883770D01*
X15455130Y-13883770D02*
X15455130Y-13902817D01*
X15455130Y-13902817D02*
X15445606Y-13931389D01*
X15445606Y-13931389D02*
X15331320Y-14045675D01*
X15331320Y-14045675D02*
X15455130Y-14045675D01*
X15578939Y-13845675D02*
X15597987Y-13845675D01*
X15597987Y-13845675D02*
X15617035Y-13855198D01*
X15617035Y-13855198D02*
X15626558Y-13864722D01*
X15626558Y-13864722D02*
X15636082Y-13883770D01*
X15636082Y-13883770D02*
X15645606Y-13921865D01*
X15645606Y-13921865D02*
X15645606Y-13969484D01*
X15645606Y-13969484D02*
X15636082Y-14007579D01*
X15636082Y-14007579D02*
X15626558Y-14026627D01*
X15626558Y-14026627D02*
X15617035Y-14036151D01*
X15617035Y-14036151D02*
X15597987Y-14045675D01*
X15597987Y-14045675D02*
X15578939Y-14045675D01*
X15578939Y-14045675D02*
X15559892Y-14036151D01*
X15559892Y-14036151D02*
X15550368Y-14026627D01*
X15550368Y-14026627D02*
X15540844Y-14007579D01*
X15540844Y-14007579D02*
X15531320Y-13969484D01*
X15531320Y-13969484D02*
X15531320Y-13921865D01*
X15531320Y-13921865D02*
X15540844Y-13883770D01*
X15540844Y-13883770D02*
X15550368Y-13864722D01*
X15550368Y-13864722D02*
X15559892Y-13855198D01*
X15559892Y-13855198D02*
X15578939Y-13845675D01*
X15883701Y-14045675D02*
X15883701Y-13845675D01*
X15969416Y-14045675D02*
X15969416Y-13940913D01*
X15969416Y-13940913D02*
X15959892Y-13921865D01*
X15959892Y-13921865D02*
X15940844Y-13912341D01*
X15940844Y-13912341D02*
X15912273Y-13912341D01*
X15912273Y-13912341D02*
X15893225Y-13921865D01*
X15893225Y-13921865D02*
X15883701Y-13931389D01*
X16093225Y-14045675D02*
X16074177Y-14036151D01*
X16074177Y-14036151D02*
X16064654Y-14026627D01*
X16064654Y-14026627D02*
X16055130Y-14007579D01*
X16055130Y-14007579D02*
X16055130Y-13950436D01*
X16055130Y-13950436D02*
X16064654Y-13931389D01*
X16064654Y-13931389D02*
X16074177Y-13921865D01*
X16074177Y-13921865D02*
X16093225Y-13912341D01*
X16093225Y-13912341D02*
X16121797Y-13912341D01*
X16121797Y-13912341D02*
X16140844Y-13921865D01*
X16140844Y-13921865D02*
X16150368Y-13931389D01*
X16150368Y-13931389D02*
X16159892Y-13950436D01*
X16159892Y-13950436D02*
X16159892Y-14007579D01*
X16159892Y-14007579D02*
X16150368Y-14026627D01*
X16150368Y-14026627D02*
X16140844Y-14036151D01*
X16140844Y-14036151D02*
X16121797Y-14045675D01*
X16121797Y-14045675D02*
X16093225Y-14045675D01*
X16274177Y-14045675D02*
X16255130Y-14036151D01*
X16255130Y-14036151D02*
X16245606Y-14017103D01*
X16245606Y-14017103D02*
X16245606Y-13845675D01*
X16426558Y-14036151D02*
X16407511Y-14045675D01*
X16407511Y-14045675D02*
X16369416Y-14045675D01*
X16369416Y-14045675D02*
X16350368Y-14036151D01*
X16350368Y-14036151D02*
X16340844Y-14017103D01*
X16340844Y-14017103D02*
X16340844Y-13940913D01*
X16340844Y-13940913D02*
X16350368Y-13921865D01*
X16350368Y-13921865D02*
X16369416Y-13912341D01*
X16369416Y-13912341D02*
X16407511Y-13912341D01*
X16407511Y-13912341D02*
X16426558Y-13921865D01*
X16426558Y-13921865D02*
X16436082Y-13940913D01*
X16436082Y-13940913D02*
X16436082Y-13959960D01*
X16436082Y-13959960D02*
X16340844Y-13979008D01*
X16512273Y-14036151D02*
X16531320Y-14045675D01*
X16531320Y-14045675D02*
X16569416Y-14045675D01*
X16569416Y-14045675D02*
X16588463Y-14036151D01*
X16588463Y-14036151D02*
X16597987Y-14017103D01*
X16597987Y-14017103D02*
X16597987Y-14007579D01*
X16597987Y-14007579D02*
X16588463Y-13988532D01*
X16588463Y-13988532D02*
X16569416Y-13979008D01*
X16569416Y-13979008D02*
X16540844Y-13979008D01*
X16540844Y-13979008D02*
X16521797Y-13969484D01*
X16521797Y-13969484D02*
X16512273Y-13950436D01*
X16512273Y-13950436D02*
X16512273Y-13940913D01*
X16512273Y-13940913D02*
X16521797Y-13921865D01*
X16521797Y-13921865D02*
X16540844Y-13912341D01*
X16540844Y-13912341D02*
X16569416Y-13912341D01*
X16569416Y-13912341D02*
X16588463Y-13921865D01*
X16664654Y-14121865D02*
X16674178Y-14112341D01*
X16674178Y-14112341D02*
X16693225Y-14083770D01*
X16693225Y-14083770D02*
X16702749Y-14064722D01*
X16702749Y-14064722D02*
X16712273Y-14036151D01*
X16712273Y-14036151D02*
X16721797Y-13988532D01*
X16721797Y-13988532D02*
X16721797Y-13950436D01*
X16721797Y-13950436D02*
X16712273Y-13902817D01*
X16712273Y-13902817D02*
X16702749Y-13874246D01*
X16702749Y-13874246D02*
X16693225Y-13855198D01*
X16693225Y-13855198D02*
X16674178Y-13826627D01*
X16674178Y-13826627D02*
X16664654Y-13817103D01*
M02*
