G04 #@! TF.GenerationSoftware,KiCad,Pcbnew,7.0.8*
G04 #@! TF.CreationDate,2024-05-10T00:54:24-03:00*
G04 #@! TF.ProjectId,on_off_module_x2,6f6e5f6f-6666-45f6-9d6f-64756c655f78,1.0*
G04 #@! TF.SameCoordinates,Original*
G04 #@! TF.FileFunction,Copper,L1,Top*
G04 #@! TF.FilePolarity,Positive*
%FSLAX46Y46*%
G04 Gerber Fmt 4.6, Leading zero omitted, Abs format (unit mm)*
G04 Created by KiCad (PCBNEW 7.0.8) date 2024-05-10 00:54:24*
%MOMM*%
%LPD*%
G01*
G04 APERTURE LIST*
G04 Aperture macros list*
%AMRoundRect*
0 Rectangle with rounded corners*
0 $1 Rounding radius*
0 $2 $3 $4 $5 $6 $7 $8 $9 X,Y pos of 4 corners*
0 Add a 4 corners polygon primitive as box body*
4,1,4,$2,$3,$4,$5,$6,$7,$8,$9,$2,$3,0*
0 Add four circle primitives for the rounded corners*
1,1,$1+$1,$2,$3*
1,1,$1+$1,$4,$5*
1,1,$1+$1,$6,$7*
1,1,$1+$1,$8,$9*
0 Add four rect primitives between the rounded corners*
20,1,$1+$1,$2,$3,$4,$5,0*
20,1,$1+$1,$4,$5,$6,$7,0*
20,1,$1+$1,$6,$7,$8,$9,0*
20,1,$1+$1,$8,$9,$2,$3,0*%
G04 Aperture macros list end*
G04 #@! TA.AperFunction,ComponentPad*
%ADD10R,2.600000X2.600000*%
G04 #@! TD*
G04 #@! TA.AperFunction,ComponentPad*
%ADD11C,2.600000*%
G04 #@! TD*
G04 #@! TA.AperFunction,SMDPad,CuDef*
%ADD12RoundRect,0.225000X-0.250000X0.225000X-0.250000X-0.225000X0.250000X-0.225000X0.250000X0.225000X0*%
G04 #@! TD*
G04 #@! TA.AperFunction,SMDPad,CuDef*
%ADD13RoundRect,0.150000X-0.587500X-0.150000X0.587500X-0.150000X0.587500X0.150000X-0.587500X0.150000X0*%
G04 #@! TD*
G04 #@! TA.AperFunction,SMDPad,CuDef*
%ADD14RoundRect,0.125000X0.125000X0.125000X-0.125000X0.125000X-0.125000X-0.125000X0.125000X-0.125000X0*%
G04 #@! TD*
G04 #@! TA.AperFunction,ComponentPad*
%ADD15R,1.700000X1.700000*%
G04 #@! TD*
G04 #@! TA.AperFunction,ComponentPad*
%ADD16O,1.700000X1.700000*%
G04 #@! TD*
G04 #@! TA.AperFunction,SMDPad,CuDef*
%ADD17RoundRect,0.218750X0.218750X0.256250X-0.218750X0.256250X-0.218750X-0.256250X0.218750X-0.256250X0*%
G04 #@! TD*
G04 #@! TA.AperFunction,ComponentPad*
%ADD18C,3.000000*%
G04 #@! TD*
G04 #@! TA.AperFunction,SMDPad,CuDef*
%ADD19RoundRect,0.200000X-0.275000X0.200000X-0.275000X-0.200000X0.275000X-0.200000X0.275000X0.200000X0*%
G04 #@! TD*
G04 #@! TA.AperFunction,SMDPad,CuDef*
%ADD20R,1.500000X2.000000*%
G04 #@! TD*
G04 #@! TA.AperFunction,SMDPad,CuDef*
%ADD21R,3.800000X2.000000*%
G04 #@! TD*
G04 #@! TA.AperFunction,SMDPad,CuDef*
%ADD22RoundRect,0.250000X-0.425000X0.450000X-0.425000X-0.450000X0.425000X-0.450000X0.425000X0.450000X0*%
G04 #@! TD*
G04 #@! TA.AperFunction,SMDPad,CuDef*
%ADD23R,2.500000X1.100000*%
G04 #@! TD*
G04 #@! TA.AperFunction,SMDPad,CuDef*
%ADD24R,1.100000X2.500000*%
G04 #@! TD*
G04 #@! TA.AperFunction,ComponentPad*
%ADD25C,2.400000*%
G04 #@! TD*
G04 #@! TA.AperFunction,SMDPad,CuDef*
%ADD26R,2.000000X1.780000*%
G04 #@! TD*
G04 #@! TA.AperFunction,ComponentPad*
%ADD27C,2.300000*%
G04 #@! TD*
G04 #@! TA.AperFunction,ComponentPad*
%ADD28R,2.300000X2.000000*%
G04 #@! TD*
G04 #@! TA.AperFunction,SMDPad,CuDef*
%ADD29RoundRect,0.250000X-0.550000X1.500000X-0.550000X-1.500000X0.550000X-1.500000X0.550000X1.500000X0*%
G04 #@! TD*
G04 #@! TA.AperFunction,SMDPad,CuDef*
%ADD30RoundRect,0.200000X-0.200000X-0.275000X0.200000X-0.275000X0.200000X0.275000X-0.200000X0.275000X0*%
G04 #@! TD*
G04 #@! TA.AperFunction,ComponentPad*
%ADD31C,1.500000*%
G04 #@! TD*
G04 #@! TA.AperFunction,ComponentPad*
%ADD32R,1.500000X1.500000*%
G04 #@! TD*
G04 #@! TA.AperFunction,ViaPad*
%ADD33C,0.800000*%
G04 #@! TD*
G04 #@! TA.AperFunction,Conductor*
%ADD34C,0.500000*%
G04 #@! TD*
G04 #@! TA.AperFunction,Conductor*
%ADD35C,1.000000*%
G04 #@! TD*
G04 #@! TA.AperFunction,Conductor*
%ADD36C,0.250000*%
G04 #@! TD*
G04 APERTURE END LIST*
D10*
X160467200Y-67295054D03*
D11*
X165547200Y-67295054D03*
D10*
X149037200Y-67295054D03*
D11*
X154117200Y-67295054D03*
D10*
X137607200Y-67295054D03*
D11*
X142687200Y-67295054D03*
X131262200Y-67295054D03*
D10*
X126182200Y-67295054D03*
D12*
X144968201Y-106211600D03*
X144968201Y-107761600D03*
D13*
X150825200Y-115817754D03*
X150825200Y-117717754D03*
X152700200Y-116767754D03*
D14*
X157513200Y-116767754D03*
X155313200Y-116767754D03*
D15*
X156540200Y-120323754D03*
D16*
X159080200Y-120323754D03*
X161620200Y-120323754D03*
D14*
X173769200Y-116767754D03*
X171569200Y-116767754D03*
D17*
X120223700Y-68971054D03*
X118648700Y-68971054D03*
D18*
X171907200Y-112625755D03*
X165907200Y-98425755D03*
X177907200Y-98425755D03*
X177907200Y-110625755D03*
X165907200Y-110625755D03*
D19*
X164787200Y-115942754D03*
X164787200Y-117592754D03*
D18*
X155390200Y-112625754D03*
X149390200Y-98425754D03*
X161390200Y-98425754D03*
X161390200Y-110625754D03*
X149390200Y-110625754D03*
D15*
X120599200Y-101781754D03*
D16*
X120599200Y-104321754D03*
X120599200Y-106861754D03*
X120599200Y-109401754D03*
X120599200Y-111941754D03*
X120599200Y-114481754D03*
D11*
X171907200Y-72317754D03*
D10*
X176987200Y-72317754D03*
D20*
X118807200Y-89945753D03*
X121107200Y-89945753D03*
D21*
X121107200Y-83645753D03*
D20*
X123407200Y-89945753D03*
D19*
X148270200Y-115942754D03*
X148270200Y-117592754D03*
D22*
X119503200Y-92811754D03*
X119503200Y-95511754D03*
D23*
X141873200Y-120211600D03*
X141873200Y-118211600D03*
X141873200Y-116211600D03*
X141873200Y-114211600D03*
X141873200Y-112211600D03*
X141873200Y-110211600D03*
X141873200Y-108211600D03*
X141873200Y-106211600D03*
X126473200Y-106211600D03*
X126473200Y-108211600D03*
X126473200Y-110211600D03*
X126473200Y-112211600D03*
X126473200Y-114211600D03*
X126473200Y-116211600D03*
X126473200Y-118211600D03*
X126473200Y-120211600D03*
D24*
X139183200Y-104511600D03*
X137183200Y-104511600D03*
X135183200Y-104511600D03*
X133183200Y-104511600D03*
X131183200Y-104511600D03*
X129183200Y-104511600D03*
D25*
X164795200Y-75695054D03*
X164795200Y-90695054D03*
D26*
X137617200Y-97463754D03*
X137617200Y-100003754D03*
X145237200Y-100003754D03*
X145237200Y-97463754D03*
D27*
X128219200Y-75495054D03*
X128219200Y-90895054D03*
X157619200Y-80695054D03*
D28*
X157619200Y-85695054D03*
D22*
X122551200Y-92811754D03*
X122551200Y-95511754D03*
D29*
X121361200Y-74443754D03*
X121361200Y-79843754D03*
D30*
X118631200Y-71003054D03*
X120281200Y-71003054D03*
D26*
X125425200Y-97463754D03*
X125425200Y-100003754D03*
X133045200Y-100003754D03*
X133045200Y-97463754D03*
D31*
X178511200Y-81195054D03*
X178511200Y-83195054D03*
X178511200Y-85195054D03*
X173511200Y-81195054D03*
X173511200Y-83195054D03*
D32*
X173511200Y-85195054D03*
D13*
X167335200Y-115817754D03*
X167335200Y-117717754D03*
X169210200Y-116767754D03*
D33*
X147015200Y-100003754D03*
X118807199Y-87938754D03*
X121488200Y-67701054D03*
X122551200Y-97129754D03*
X144968201Y-109147754D03*
X119469900Y-79843754D03*
X164787200Y-119053754D03*
X127711200Y-100003754D03*
X139903200Y-100003754D03*
X128712199Y-106749602D03*
X148270200Y-119053754D03*
X139634200Y-110211602D03*
X139634200Y-108211600D03*
X139634201Y-116211607D03*
X139634200Y-120211600D03*
X128712199Y-108211606D03*
X128712199Y-112211602D03*
X139903200Y-97463754D03*
X139634201Y-112211602D03*
X127711200Y-97463754D03*
X139634201Y-114211600D03*
D34*
X122551200Y-95511754D02*
X122551200Y-97129754D01*
X163461200Y-115942754D02*
X164787200Y-115942754D01*
X161747200Y-117656754D02*
X163461200Y-115942754D01*
X154635200Y-117656754D02*
X161747200Y-117656754D01*
X152222200Y-120069754D02*
X154635200Y-117656754D01*
X146253200Y-103813754D02*
X146253200Y-118545754D01*
X133045200Y-100765754D02*
X134061200Y-101781754D01*
X144221200Y-101781754D02*
X146253200Y-103813754D01*
X147777200Y-120069754D02*
X152222200Y-120069754D01*
X134061200Y-101781754D02*
X144221200Y-101781754D01*
X133045200Y-100003754D02*
X133045200Y-100765754D01*
X146253200Y-118545754D02*
X147777200Y-120069754D01*
D35*
X153873200Y-71555754D02*
X149612500Y-67295054D01*
X149612500Y-67295054D02*
X149037200Y-67295054D01*
X153873200Y-90908754D02*
X153873200Y-71555754D01*
X161390200Y-98425754D02*
X153873200Y-90908754D01*
X162619200Y-75695054D02*
X157619200Y-80695054D01*
X164795200Y-75695054D02*
X162619200Y-75695054D01*
X164795200Y-90695054D02*
X162619200Y-90695054D01*
X162619200Y-90695054D02*
X157619200Y-85695054D01*
X169875200Y-88752354D02*
X167932500Y-90695054D01*
X171697900Y-83195054D02*
X169875200Y-85017754D01*
X169875200Y-85017754D02*
X169875200Y-88752354D01*
X173511200Y-83195054D02*
X171697900Y-83195054D01*
X164033200Y-64697754D02*
X165547200Y-66211754D01*
X155651200Y-64697754D02*
X164033200Y-64697754D01*
X154117200Y-66231754D02*
X155651200Y-64697754D01*
X165547200Y-66211754D02*
X165547200Y-67295054D01*
X154117200Y-67295054D02*
X154117200Y-66231754D01*
X165547200Y-74943054D02*
X164795200Y-75695054D01*
X165547200Y-67295054D02*
X165547200Y-74943054D01*
X171964500Y-67295054D02*
X165547200Y-67295054D01*
X176987200Y-72317754D02*
X171964500Y-67295054D01*
X171907200Y-72317754D02*
X171907200Y-79591054D01*
X171907200Y-79591054D02*
X173511200Y-81195054D01*
X172185200Y-94947754D02*
X172185200Y-112347755D01*
X167932500Y-90695054D02*
X172185200Y-94947754D01*
X164795200Y-90695054D02*
X167932500Y-90695054D01*
X172185200Y-112347755D02*
X171907200Y-112625755D01*
D34*
X124663200Y-94923754D02*
X122551200Y-92811754D01*
X131775200Y-94923754D02*
X124663200Y-94923754D01*
X133045200Y-96193754D02*
X131775200Y-94923754D01*
X124663200Y-104321754D02*
X124663200Y-102543754D01*
X120599200Y-106861754D02*
X122123200Y-106861754D01*
X122123200Y-106861754D02*
X124663200Y-104321754D01*
X118901200Y-92811754D02*
X119503200Y-92811754D01*
X118059200Y-97717754D02*
X118059200Y-93653754D01*
X121107200Y-98987754D02*
X119329200Y-98987754D01*
X119329200Y-98987754D02*
X118059200Y-97717754D01*
X124663200Y-102543754D02*
X121107200Y-98987754D01*
X118059200Y-93653754D02*
X118901200Y-92811754D01*
X142682201Y-102543754D02*
X124663200Y-102543754D01*
X144968201Y-104829754D02*
X142682201Y-102543754D01*
X144968201Y-106211600D02*
X144968201Y-104829754D01*
X119503200Y-95511754D02*
X122551200Y-95511754D01*
X121107200Y-89945753D02*
X121107200Y-91207754D01*
X121107200Y-91207754D02*
X119503200Y-92811754D01*
X124409200Y-88943753D02*
X123407200Y-89945753D01*
X124409200Y-77491754D02*
X124409200Y-88943753D01*
X122412500Y-75495054D02*
X124409200Y-77491754D01*
X123407200Y-91955754D02*
X122551200Y-92811754D01*
X123407200Y-89945753D02*
X123407200Y-91955754D01*
X122412500Y-75495054D02*
X128219200Y-75495054D01*
X121361200Y-74443754D02*
X122412500Y-75495054D01*
X120281200Y-71003054D02*
X120281200Y-73363754D01*
X120281200Y-73363754D02*
X121361200Y-74443754D01*
X121361201Y-79843754D02*
X119563901Y-79843754D01*
X119563901Y-79843754D02*
X119469900Y-79937755D01*
D35*
X155390200Y-106868754D02*
X155390200Y-112625754D01*
X158953200Y-103305754D02*
X155390200Y-106868754D01*
X166827200Y-103305754D02*
X158953200Y-103305754D01*
X172185200Y-97947754D02*
X166827200Y-103305754D01*
D34*
X143967200Y-94923754D02*
X145237200Y-96193754D01*
X173769200Y-116767754D02*
X174701200Y-116767754D01*
X133045200Y-97209754D02*
X133045200Y-96193754D01*
X157513200Y-116767754D02*
X158191200Y-116767754D01*
X174701200Y-116767754D02*
X177907200Y-113561754D01*
X145237200Y-96193754D02*
X145237200Y-97209754D01*
X134315200Y-94923754D02*
X143967200Y-94923754D01*
X123407200Y-89945754D02*
X123407198Y-89945755D01*
X145237200Y-97463754D02*
X145999200Y-97463754D01*
X145999200Y-97463754D02*
X147015200Y-98479754D01*
X147015200Y-98479754D02*
X147015200Y-100003754D01*
X158191200Y-116767754D02*
X161390200Y-113568754D01*
X161390200Y-113568754D02*
X161390200Y-110625754D01*
X133045200Y-96193754D02*
X134315200Y-94923754D01*
X177907200Y-113561754D02*
X177907200Y-110625755D01*
X164787200Y-117592754D02*
X164787200Y-119053754D01*
X148270200Y-117592754D02*
X148270200Y-119053754D01*
D36*
X167210200Y-117592754D02*
X167335200Y-117717754D01*
D34*
X137363200Y-100003754D02*
X139903200Y-100003754D01*
D36*
X120223700Y-68965554D02*
X121488200Y-67701054D01*
D34*
X118807199Y-87938754D02*
X118807200Y-89945754D01*
D36*
X120223700Y-68971054D02*
X120223700Y-68965554D01*
D34*
X164787200Y-117592754D02*
X167210200Y-117592754D01*
X127173200Y-106211600D02*
X128174197Y-106211600D01*
X144968201Y-107761600D02*
X144968201Y-109147754D01*
D36*
X150700200Y-117592754D02*
X150825200Y-117717754D01*
D34*
X128174197Y-106211600D02*
X128712199Y-106749602D01*
X148270200Y-117592754D02*
X150700200Y-117592754D01*
X125425200Y-100003754D02*
X127711200Y-100003754D01*
X141173200Y-106211600D02*
X144968201Y-106211600D01*
X121107200Y-83645754D02*
X121107200Y-89945754D01*
D36*
X141173200Y-106211600D02*
X141189200Y-106227600D01*
X118648700Y-70985554D02*
X118631200Y-71003054D01*
X118648700Y-68971054D02*
X118648700Y-70985554D01*
D34*
X149390200Y-112284754D02*
X149390200Y-110625754D01*
X152700200Y-116767754D02*
X155313200Y-116767754D01*
X152700200Y-115594754D02*
X149390200Y-112284754D01*
X152700200Y-116767754D02*
X152700200Y-115594754D01*
X169210200Y-116767754D02*
X171569200Y-116767754D01*
X169210200Y-116767754D02*
X169210200Y-115594754D01*
X165907200Y-112291754D02*
X165907200Y-110625755D01*
X169210200Y-115594754D02*
X165907200Y-112291754D01*
X139634200Y-110211602D02*
X141173200Y-110211601D01*
X141173200Y-108211600D02*
X139634200Y-108211600D01*
D36*
X124155200Y-117021754D02*
X124155200Y-110671754D01*
X124409200Y-117275754D02*
X124155200Y-117021754D01*
X127173200Y-118211600D02*
X125330047Y-118211600D01*
X125330047Y-118211600D02*
X124394201Y-117275754D01*
X124155200Y-110671754D02*
X122123200Y-108639754D01*
X122123200Y-108639754D02*
X120599200Y-108639754D01*
X127173200Y-120211600D02*
X125298047Y-120211600D01*
X123393200Y-112449754D02*
X122123200Y-111179754D01*
X125298047Y-120211600D02*
X123393200Y-118306753D01*
X123393200Y-118306753D02*
X123393200Y-112449754D01*
X122123200Y-111179754D02*
X120599200Y-111179754D01*
D34*
X148270200Y-115942754D02*
X150700200Y-115942754D01*
X148270200Y-113958754D02*
X148270200Y-115942754D01*
X145237200Y-100003754D02*
X147015200Y-101781754D01*
X147015200Y-112703754D02*
X148270200Y-113958754D01*
D36*
X150700200Y-115942754D02*
X150825200Y-115817754D01*
D34*
X147015200Y-101781754D02*
X147015200Y-112703754D01*
D36*
X139634208Y-116211600D02*
X139634201Y-116211607D01*
X141173200Y-116211600D02*
X139634208Y-116211600D01*
X141173200Y-120211600D02*
X139634200Y-120211600D01*
X127173203Y-108211606D02*
X127173200Y-108211602D01*
X128712199Y-108211606D02*
X127173203Y-108211606D01*
X128712199Y-112211602D02*
X127173200Y-112211602D01*
D34*
X164787200Y-115942754D02*
X167210200Y-115942754D01*
D36*
X167210200Y-115942754D02*
X167335200Y-115817754D01*
X139903200Y-97463754D02*
X137363200Y-97463754D01*
X141173200Y-112211602D02*
X139634201Y-112211602D01*
X125425200Y-97463754D02*
X127711200Y-97463754D01*
X141173200Y-114211600D02*
X139634201Y-114211600D01*
M02*
