G04 #@! TF.GenerationSoftware,KiCad,Pcbnew,7.0.8*
G04 #@! TF.CreationDate,2024-06-27T14:34:40-03:00*
G04 #@! TF.ProjectId,sensor_module,73656e73-6f72-45f6-9d6f-64756c652e6b,1.0*
G04 #@! TF.SameCoordinates,Original*
G04 #@! TF.FileFunction,Soldermask,Bot*
G04 #@! TF.FilePolarity,Negative*
%FSLAX46Y46*%
G04 Gerber Fmt 4.6, Leading zero omitted, Abs format (unit mm)*
G04 Created by KiCad (PCBNEW 7.0.8) date 2024-06-27 14:34:40*
%MOMM*%
%LPD*%
G01*
G04 APERTURE LIST*
G04 Aperture macros list*
%AMRoundRect*
0 Rectangle with rounded corners*
0 $1 Rounding radius*
0 $2 $3 $4 $5 $6 $7 $8 $9 X,Y pos of 4 corners*
0 Add a 4 corners polygon primitive as box body*
4,1,4,$2,$3,$4,$5,$6,$7,$8,$9,$2,$3,0*
0 Add four circle primitives for the rounded corners*
1,1,$1+$1,$2,$3*
1,1,$1+$1,$4,$5*
1,1,$1+$1,$6,$7*
1,1,$1+$1,$8,$9*
0 Add four rect primitives between the rounded corners*
20,1,$1+$1,$2,$3,$4,$5,0*
20,1,$1+$1,$4,$5,$6,$7,0*
20,1,$1+$1,$6,$7,$8,$9,0*
20,1,$1+$1,$8,$9,$2,$3,0*%
G04 Aperture macros list end*
%ADD10C,1.500000*%
%ADD11C,2.500000*%
%ADD12RoundRect,0.102000X-0.611000X-0.611000X0.611000X-0.611000X0.611000X0.611000X-0.611000X0.611000X0*%
%ADD13C,1.426000*%
%ADD14R,2.000000X2.000000*%
%ADD15C,2.000000*%
%ADD16R,2.000000X2.300000*%
%ADD17C,2.300000*%
%ADD18R,1.700000X1.700000*%
%ADD19O,1.700000X1.700000*%
%ADD20R,2.600000X2.600000*%
%ADD21C,2.600000*%
%ADD22R,1.800000X1.800000*%
%ADD23C,1.800000*%
%ADD24C,1.524800*%
%ADD25RoundRect,0.102000X-0.825500X0.825500X-0.825500X-0.825500X0.825500X-0.825500X0.825500X0.825500X0*%
%ADD26C,1.855000*%
%ADD27C,2.400000*%
%ADD28R,1.500000X1.500000*%
G04 APERTURE END LIST*
D10*
X151560000Y-138303000D03*
X148160000Y-138303000D03*
D11*
X114860000Y-92458000D03*
D12*
X171704000Y-126365001D03*
D13*
X174244000Y-123825001D03*
X176784000Y-126365001D03*
D14*
X146500000Y-89223000D03*
D15*
X145110000Y-92583000D03*
X146500000Y-95943000D03*
X153220000Y-95943000D03*
X154610000Y-92583000D03*
X153220000Y-89223000D03*
D14*
X181356000Y-87122000D03*
D15*
X173756000Y-87122000D03*
D16*
X130516000Y-94149500D03*
D17*
X125516000Y-94149500D03*
X135716000Y-123549500D03*
X120316000Y-123549500D03*
D18*
X163307000Y-119659000D03*
D19*
X160767000Y-119659000D03*
X158227000Y-119659000D03*
D12*
X164084000Y-134366000D03*
D13*
X166624000Y-131826000D03*
X169164000Y-134366000D03*
D12*
X171704000Y-134366000D03*
D13*
X174244000Y-131826000D03*
X176784000Y-134366000D03*
D20*
X142494000Y-77419000D03*
D21*
X137414000Y-77419000D03*
D11*
X114860000Y-124458000D03*
D22*
X166370000Y-76454000D03*
D23*
X166370000Y-73914000D03*
D12*
X164084000Y-126365000D03*
D13*
X166624000Y-123825000D03*
X169164000Y-126365000D03*
D24*
X147320000Y-108458000D03*
X149860000Y-110998000D03*
X152400000Y-108458000D03*
D11*
X184860000Y-124458000D03*
D25*
X153670000Y-114964000D03*
D26*
X151130000Y-114964000D03*
X148590000Y-114964000D03*
X146050000Y-114964000D03*
D11*
X184860000Y-92458000D03*
D27*
X135516000Y-87757000D03*
X120516000Y-87757000D03*
D18*
X143510000Y-144526000D03*
D19*
X146050000Y-144526000D03*
X148590000Y-144526000D03*
X151130000Y-144526000D03*
X153670000Y-144526000D03*
X156210000Y-144526000D03*
D28*
X125516000Y-81978001D03*
D10*
X125516000Y-79978001D03*
X125516000Y-77978001D03*
X130516000Y-81978001D03*
X130516000Y-79978001D03*
X130516000Y-77978001D03*
M02*
