  0
SECTION
  2
HEADER
  9
$ANGBASE
  50
0.0
  9
$ANGDIR
  70
1
  9
$MEASUREMENT
  70
1
  0
ENDSEC
  0
SECTION
  2
TABLES
  0
TABLE
  2
LTYPE
  70
4
  0
LTYPE
  5
40F
  2
CONTINUOUS
  70
0
  3
Solid line
  72
65
  73
0
  40
0.0
  0
LTYPE
  5
410
  2
DASHDOT
 70
0
  3
Dash Dot ____ _ ____ _
 72
65
 73
4
 40
2.0
 49
1.25
 49
-0.25
 49
0.25
 49
-0.25
  0
LTYPE
  5
411
  2
DASHED
 70
0
  3
Dashed __ __ __ __ __
 72
65
 73
2
 40
0.75
 49
0.5
 49
-0.25
  0
LTYPE
  5
43B
  2
DOTTED
 70
0
  3
Dotted .  .  .  .
 72
65
 73
2
 40
0.2
 49
0.0
 49
-0.2
  0
ENDTAB
  0
TABLE
  2
STYLE
  70
4
  0
STYLE
  2
KICAD
  70
0
  40
0
  41
1
  42
1
  50
0
  71
0
  3
isocp.shx
  0
STYLE
  2
KICADB
  70
0
  40
0
  41
1
  42
1
  50
0
  71
0
  3
isocp.shx
  0
STYLE
  2
KICADI
  70
0
  40
0
  41
1
  42
1
  50
15
  71
0
  3
isocp.shx
  0
STYLE
  2
KICADBI
  70
0
  40
0
  41
1
  42
1
  50
15
  71
0
  3
isocp.shx
  0
ENDTAB
  0
TABLE
  2
LAYER
  70
1
  0
LAYER
  2
BLACK
  70
0
  62
7
  6
CONTINUOUS
  0
ENDTAB
  0
ENDSEC
  0
SECTION
  2
ENTITIES
0
LINE
8
BLACK
6
CONTINUOUS
10
144.36
20
-145.376
11
142.66
21
-145.376
0
LINE
8
BLACK
6
CONTINUOUS
10
142.66
20
-145.376
11
142.66
21
-143.676
0
LINE
8
BLACK
6
CONTINUOUS
10
142.66
20
-143.676
11
144.36
21
-143.676
0
LINE
8
BLACK
6
CONTINUOUS
10
144.36
20
-143.676
11
144.36
21
-145.376
0
LINE
8
BLACK
6
CONTINUOUS
10
146.313
20
-143.718
11
146.475
21
-143.79
0
LINE
8
BLACK
6
CONTINUOUS
10
146.475
20
-143.79
11
146.619
21
-143.894
0
LINE
8
BLACK
6
CONTINUOUS
10
146.619
20
-143.894
11
146.738
21
-144.026
0
LINE
8
BLACK
6
CONTINUOUS
10
146.738
20
-144.026
11
146.827
21
-144.18
0
LINE
8
BLACK
6
CONTINUOUS
10
146.827
20
-144.18
11
146.881
21
-144.349
0
LINE
8
BLACK
6
CONTINUOUS
10
146.881
20
-144.349
11
146.9
21
-144.526
0
LINE
8
BLACK
6
CONTINUOUS
10
146.9
20
-144.526
11
146.881
21
-144.703
0
LINE
8
BLACK
6
CONTINUOUS
10
146.881
20
-144.703
11
146.827
21
-144.872
0
LINE
8
BLACK
6
CONTINUOUS
10
146.827
20
-144.872
11
146.738
21
-145.026
0
LINE
8
BLACK
6
CONTINUOUS
10
146.738
20
-145.026
11
146.619
21
-145.158
0
LINE
8
BLACK
6
CONTINUOUS
10
146.619
20
-145.158
11
146.475
21
-145.262
0
LINE
8
BLACK
6
CONTINUOUS
10
146.475
20
-145.262
11
146.313
21
-145.334
0
LINE
8
BLACK
6
CONTINUOUS
10
146.313
20
-145.334
11
146.139
21
-145.371
0
LINE
8
BLACK
6
CONTINUOUS
10
146.139
20
-145.371
11
145.961
21
-145.371
0
LINE
8
BLACK
6
CONTINUOUS
10
145.961
20
-145.371
11
145.787
21
-145.334
0
LINE
8
BLACK
6
CONTINUOUS
10
145.787
20
-145.334
11
145.625
21
-145.262
0
LINE
8
BLACK
6
CONTINUOUS
10
145.625
20
-145.262
11
145.481
21
-145.158
0
LINE
8
BLACK
6
CONTINUOUS
10
145.481
20
-145.158
11
145.362
21
-145.026
0
LINE
8
BLACK
6
CONTINUOUS
10
145.362
20
-145.026
11
145.273
21
-144.872
0
LINE
8
BLACK
6
CONTINUOUS
10
145.273
20
-144.872
11
145.219
21
-144.703
0
LINE
8
BLACK
6
CONTINUOUS
10
145.219
20
-144.703
11
145.2
21
-144.526
0
LINE
8
BLACK
6
CONTINUOUS
10
145.2
20
-144.526
11
145.219
21
-144.349
0
LINE
8
BLACK
6
CONTINUOUS
10
145.219
20
-144.349
11
145.273
21
-144.18
0
LINE
8
BLACK
6
CONTINUOUS
10
145.273
20
-144.18
11
145.362
21
-144.026
0
LINE
8
BLACK
6
CONTINUOUS
10
145.362
20
-144.026
11
145.481
21
-143.894
0
LINE
8
BLACK
6
CONTINUOUS
10
145.481
20
-143.894
11
145.625
21
-143.79
0
LINE
8
BLACK
6
CONTINUOUS
10
145.625
20
-143.79
11
145.787
21
-143.718
0
LINE
8
BLACK
6
CONTINUOUS
10
145.787
20
-143.718
11
145.961
21
-143.681
0
LINE
8
BLACK
6
CONTINUOUS
10
145.961
20
-143.681
11
146.139
21
-143.681
0
LINE
8
BLACK
6
CONTINUOUS
10
146.139
20
-143.681
11
146.313
21
-143.718
0
LINE
8
BLACK
6
CONTINUOUS
10
148.853
20
-143.718
11
149.015
21
-143.79
0
LINE
8
BLACK
6
CONTINUOUS
10
149.015
20
-143.79
11
149.159
21
-143.894
0
LINE
8
BLACK
6
CONTINUOUS
10
149.159
20
-143.894
11
149.278
21
-144.026
0
LINE
8
BLACK
6
CONTINUOUS
10
149.278
20
-144.026
11
149.367
21
-144.18
0
LINE
8
BLACK
6
CONTINUOUS
10
149.367
20
-144.18
11
149.421
21
-144.349
0
LINE
8
BLACK
6
CONTINUOUS
10
149.421
20
-144.349
11
149.44
21
-144.526
0
LINE
8
BLACK
6
CONTINUOUS
10
149.44
20
-144.526
11
149.421
21
-144.703
0
LINE
8
BLACK
6
CONTINUOUS
10
149.421
20
-144.703
11
149.367
21
-144.872
0
LINE
8
BLACK
6
CONTINUOUS
10
149.367
20
-144.872
11
149.278
21
-145.026
0
LINE
8
BLACK
6
CONTINUOUS
10
149.278
20
-145.026
11
149.159
21
-145.158
0
LINE
8
BLACK
6
CONTINUOUS
10
149.159
20
-145.158
11
149.015
21
-145.262
0
LINE
8
BLACK
6
CONTINUOUS
10
149.015
20
-145.262
11
148.853
21
-145.334
0
LINE
8
BLACK
6
CONTINUOUS
10
148.853
20
-145.334
11
148.679
21
-145.371
0
LINE
8
BLACK
6
CONTINUOUS
10
148.679
20
-145.371
11
148.501
21
-145.371
0
LINE
8
BLACK
6
CONTINUOUS
10
148.501
20
-145.371
11
148.327
21
-145.334
0
LINE
8
BLACK
6
CONTINUOUS
10
148.327
20
-145.334
11
148.165
21
-145.262
0
LINE
8
BLACK
6
CONTINUOUS
10
148.165
20
-145.262
11
148.021
21
-145.158
0
LINE
8
BLACK
6
CONTINUOUS
10
148.021
20
-145.158
11
147.902
21
-145.026
0
LINE
8
BLACK
6
CONTINUOUS
10
147.902
20
-145.026
11
147.813
21
-144.872
0
LINE
8
BLACK
6
CONTINUOUS
10
147.813
20
-144.872
11
147.759
21
-144.703
0
LINE
8
BLACK
6
CONTINUOUS
10
147.759
20
-144.703
11
147.74
21
-144.526
0
LINE
8
BLACK
6
CONTINUOUS
10
147.74
20
-144.526
11
147.759
21
-144.349
0
LINE
8
BLACK
6
CONTINUOUS
10
147.759
20
-144.349
11
147.813
21
-144.18
0
LINE
8
BLACK
6
CONTINUOUS
10
147.813
20
-144.18
11
147.902
21
-144.026
0
LINE
8
BLACK
6
CONTINUOUS
10
147.902
20
-144.026
11
148.021
21
-143.894
0
LINE
8
BLACK
6
CONTINUOUS
10
148.021
20
-143.894
11
148.165
21
-143.79
0
LINE
8
BLACK
6
CONTINUOUS
10
148.165
20
-143.79
11
148.327
21
-143.718
0
LINE
8
BLACK
6
CONTINUOUS
10
148.327
20
-143.718
11
148.501
21
-143.681
0
LINE
8
BLACK
6
CONTINUOUS
10
148.501
20
-143.681
11
148.679
21
-143.681
0
LINE
8
BLACK
6
CONTINUOUS
10
148.679
20
-143.681
11
148.853
21
-143.718
0
LINE
8
BLACK
6
CONTINUOUS
10
151.393
20
-143.718
11
151.555
21
-143.79
0
LINE
8
BLACK
6
CONTINUOUS
10
151.555
20
-143.79
11
151.699
21
-143.894
0
LINE
8
BLACK
6
CONTINUOUS
10
151.699
20
-143.894
11
151.818
21
-144.026
0
LINE
8
BLACK
6
CONTINUOUS
10
151.818
20
-144.026
11
151.907
21
-144.18
0
LINE
8
BLACK
6
CONTINUOUS
10
151.907
20
-144.18
11
151.961
21
-144.349
0
LINE
8
BLACK
6
CONTINUOUS
10
151.961
20
-144.349
11
151.98
21
-144.526
0
LINE
8
BLACK
6
CONTINUOUS
10
151.98
20
-144.526
11
151.961
21
-144.703
0
LINE
8
BLACK
6
CONTINUOUS
10
151.961
20
-144.703
11
151.907
21
-144.872
0
LINE
8
BLACK
6
CONTINUOUS
10
151.907
20
-144.872
11
151.818
21
-145.026
0
LINE
8
BLACK
6
CONTINUOUS
10
151.818
20
-145.026
11
151.699
21
-145.158
0
LINE
8
BLACK
6
CONTINUOUS
10
151.699
20
-145.158
11
151.555
21
-145.262
0
LINE
8
BLACK
6
CONTINUOUS
10
151.555
20
-145.262
11
151.393
21
-145.334
0
LINE
8
BLACK
6
CONTINUOUS
10
151.393
20
-145.334
11
151.219
21
-145.371
0
LINE
8
BLACK
6
CONTINUOUS
10
151.219
20
-145.371
11
151.041
21
-145.371
0
LINE
8
BLACK
6
CONTINUOUS
10
151.041
20
-145.371
11
150.867
21
-145.334
0
LINE
8
BLACK
6
CONTINUOUS
10
150.867
20
-145.334
11
150.705
21
-145.262
0
LINE
8
BLACK
6
CONTINUOUS
10
150.705
20
-145.262
11
150.561
21
-145.158
0
LINE
8
BLACK
6
CONTINUOUS
10
150.561
20
-145.158
11
150.442
21
-145.026
0
LINE
8
BLACK
6
CONTINUOUS
10
150.442
20
-145.026
11
150.353
21
-144.872
0
LINE
8
BLACK
6
CONTINUOUS
10
150.353
20
-144.872
11
150.299
21
-144.703
0
LINE
8
BLACK
6
CONTINUOUS
10
150.299
20
-144.703
11
150.28
21
-144.526
0
LINE
8
BLACK
6
CONTINUOUS
10
150.28
20
-144.526
11
150.299
21
-144.349
0
LINE
8
BLACK
6
CONTINUOUS
10
150.299
20
-144.349
11
150.353
21
-144.18
0
LINE
8
BLACK
6
CONTINUOUS
10
150.353
20
-144.18
11
150.442
21
-144.026
0
LINE
8
BLACK
6
CONTINUOUS
10
150.442
20
-144.026
11
150.561
21
-143.894
0
LINE
8
BLACK
6
CONTINUOUS
10
150.561
20
-143.894
11
150.705
21
-143.79
0
LINE
8
BLACK
6
CONTINUOUS
10
150.705
20
-143.79
11
150.867
21
-143.718
0
LINE
8
BLACK
6
CONTINUOUS
10
150.867
20
-143.718
11
151.041
21
-143.681
0
LINE
8
BLACK
6
CONTINUOUS
10
151.041
20
-143.681
11
151.219
21
-143.681
0
LINE
8
BLACK
6
CONTINUOUS
10
151.219
20
-143.681
11
151.393
21
-143.718
0
LINE
8
BLACK
6
CONTINUOUS
10
153.933
20
-143.718
11
154.095
21
-143.79
0
LINE
8
BLACK
6
CONTINUOUS
10
154.095
20
-143.79
11
154.239
21
-143.894
0
LINE
8
BLACK
6
CONTINUOUS
10
154.239
20
-143.894
11
154.358
21
-144.026
0
LINE
8
BLACK
6
CONTINUOUS
10
154.358
20
-144.026
11
154.447
21
-144.18
0
LINE
8
BLACK
6
CONTINUOUS
10
154.447
20
-144.18
11
154.501
21
-144.349
0
LINE
8
BLACK
6
CONTINUOUS
10
154.501
20
-144.349
11
154.52
21
-144.526
0
LINE
8
BLACK
6
CONTINUOUS
10
154.52
20
-144.526
11
154.501
21
-144.703
0
LINE
8
BLACK
6
CONTINUOUS
10
154.501
20
-144.703
11
154.447
21
-144.872
0
LINE
8
BLACK
6
CONTINUOUS
10
154.447
20
-144.872
11
154.358
21
-145.026
0
LINE
8
BLACK
6
CONTINUOUS
10
154.358
20
-145.026
11
154.239
21
-145.158
0
LINE
8
BLACK
6
CONTINUOUS
10
154.239
20
-145.158
11
154.095
21
-145.262
0
LINE
8
BLACK
6
CONTINUOUS
10
154.095
20
-145.262
11
153.933
21
-145.334
0
LINE
8
BLACK
6
CONTINUOUS
10
153.933
20
-145.334
11
153.759
21
-145.371
0
LINE
8
BLACK
6
CONTINUOUS
10
153.759
20
-145.371
11
153.581
21
-145.371
0
LINE
8
BLACK
6
CONTINUOUS
10
153.581
20
-145.371
11
153.407
21
-145.334
0
LINE
8
BLACK
6
CONTINUOUS
10
153.407
20
-145.334
11
153.245
21
-145.262
0
LINE
8
BLACK
6
CONTINUOUS
10
153.245
20
-145.262
11
153.101
21
-145.158
0
LINE
8
BLACK
6
CONTINUOUS
10
153.101
20
-145.158
11
152.982
21
-145.026
0
LINE
8
BLACK
6
CONTINUOUS
10
152.982
20
-145.026
11
152.893
21
-144.872
0
LINE
8
BLACK
6
CONTINUOUS
10
152.893
20
-144.872
11
152.839
21
-144.703
0
LINE
8
BLACK
6
CONTINUOUS
10
152.839
20
-144.703
11
152.82
21
-144.526
0
LINE
8
BLACK
6
CONTINUOUS
10
152.82
20
-144.526
11
152.839
21
-144.349
0
LINE
8
BLACK
6
CONTINUOUS
10
152.839
20
-144.349
11
152.893
21
-144.18
0
LINE
8
BLACK
6
CONTINUOUS
10
152.893
20
-144.18
11
152.982
21
-144.026
0
LINE
8
BLACK
6
CONTINUOUS
10
152.982
20
-144.026
11
153.101
21
-143.894
0
LINE
8
BLACK
6
CONTINUOUS
10
153.101
20
-143.894
11
153.245
21
-143.79
0
LINE
8
BLACK
6
CONTINUOUS
10
153.245
20
-143.79
11
153.407
21
-143.718
0
LINE
8
BLACK
6
CONTINUOUS
10
153.407
20
-143.718
11
153.581
21
-143.681
0
LINE
8
BLACK
6
CONTINUOUS
10
153.581
20
-143.681
11
153.759
21
-143.681
0
LINE
8
BLACK
6
CONTINUOUS
10
153.759
20
-143.681
11
153.933
21
-143.718
0
LINE
8
BLACK
6
CONTINUOUS
10
156.473
20
-143.718
11
156.635
21
-143.79
0
LINE
8
BLACK
6
CONTINUOUS
10
156.635
20
-143.79
11
156.779
21
-143.894
0
LINE
8
BLACK
6
CONTINUOUS
10
156.779
20
-143.894
11
156.898
21
-144.026
0
LINE
8
BLACK
6
CONTINUOUS
10
156.898
20
-144.026
11
156.987
21
-144.18
0
LINE
8
BLACK
6
CONTINUOUS
10
156.987
20
-144.18
11
157.041
21
-144.349
0
LINE
8
BLACK
6
CONTINUOUS
10
157.041
20
-144.349
11
157.06
21
-144.526
0
LINE
8
BLACK
6
CONTINUOUS
10
157.06
20
-144.526
11
157.041
21
-144.703
0
LINE
8
BLACK
6
CONTINUOUS
10
157.041
20
-144.703
11
156.987
21
-144.872
0
LINE
8
BLACK
6
CONTINUOUS
10
156.987
20
-144.872
11
156.898
21
-145.026
0
LINE
8
BLACK
6
CONTINUOUS
10
156.898
20
-145.026
11
156.779
21
-145.158
0
LINE
8
BLACK
6
CONTINUOUS
10
156.779
20
-145.158
11
156.635
21
-145.262
0
LINE
8
BLACK
6
CONTINUOUS
10
156.635
20
-145.262
11
156.473
21
-145.334
0
LINE
8
BLACK
6
CONTINUOUS
10
156.473
20
-145.334
11
156.299
21
-145.371
0
LINE
8
BLACK
6
CONTINUOUS
10
156.299
20
-145.371
11
156.121
21
-145.371
0
LINE
8
BLACK
6
CONTINUOUS
10
156.121
20
-145.371
11
155.947
21
-145.334
0
LINE
8
BLACK
6
CONTINUOUS
10
155.947
20
-145.334
11
155.785
21
-145.262
0
LINE
8
BLACK
6
CONTINUOUS
10
155.785
20
-145.262
11
155.641
21
-145.158
0
LINE
8
BLACK
6
CONTINUOUS
10
155.641
20
-145.158
11
155.522
21
-145.026
0
LINE
8
BLACK
6
CONTINUOUS
10
155.522
20
-145.026
11
155.433
21
-144.872
0
LINE
8
BLACK
6
CONTINUOUS
10
155.433
20
-144.872
11
155.379
21
-144.703
0
LINE
8
BLACK
6
CONTINUOUS
10
155.379
20
-144.703
11
155.36
21
-144.526
0
LINE
8
BLACK
6
CONTINUOUS
10
155.36
20
-144.526
11
155.379
21
-144.349
0
LINE
8
BLACK
6
CONTINUOUS
10
155.379
20
-144.349
11
155.433
21
-144.18
0
LINE
8
BLACK
6
CONTINUOUS
10
155.433
20
-144.18
11
155.522
21
-144.026
0
LINE
8
BLACK
6
CONTINUOUS
10
155.522
20
-144.026
11
155.641
21
-143.894
0
LINE
8
BLACK
6
CONTINUOUS
10
155.641
20
-143.894
11
155.785
21
-143.79
0
LINE
8
BLACK
6
CONTINUOUS
10
155.785
20
-143.79
11
155.947
21
-143.718
0
LINE
8
BLACK
6
CONTINUOUS
10
155.947
20
-143.718
11
156.121
21
-143.681
0
LINE
8
BLACK
6
CONTINUOUS
10
156.121
20
-143.681
11
156.299
21
-143.681
0
LINE
8
BLACK
6
CONTINUOUS
10
156.299
20
-143.681
11
156.473
21
-143.718
0
LINE
8
BLACK
6
CONTINUOUS
10
148.327
20
-137.572
11
148.485
21
-137.627
0
LINE
8
BLACK
6
CONTINUOUS
10
148.485
20
-137.627
11
148.628
21
-137.717
0
LINE
8
BLACK
6
CONTINUOUS
10
148.628
20
-137.717
11
148.746
21
-137.835
0
LINE
8
BLACK
6
CONTINUOUS
10
148.746
20
-137.835
11
148.836
21
-137.978
0
LINE
8
BLACK
6
CONTINUOUS
10
148.836
20
-137.978
11
148.891
21
-138.136
0
LINE
8
BLACK
6
CONTINUOUS
10
148.891
20
-138.136
11
148.91
21
-138.303
0
LINE
8
BLACK
6
CONTINUOUS
10
148.91
20
-138.303
11
148.891
21
-138.47
0
LINE
8
BLACK
6
CONTINUOUS
10
148.891
20
-138.47
11
148.836
21
-138.628
0
LINE
8
BLACK
6
CONTINUOUS
10
148.836
20
-138.628
11
148.746
21
-138.771
0
LINE
8
BLACK
6
CONTINUOUS
10
148.746
20
-138.771
11
148.628
21
-138.889
0
LINE
8
BLACK
6
CONTINUOUS
10
148.628
20
-138.889
11
148.485
21
-138.979
0
LINE
8
BLACK
6
CONTINUOUS
10
148.485
20
-138.979
11
148.327
21
-139.034
0
LINE
8
BLACK
6
CONTINUOUS
10
148.327
20
-139.034
11
148.16
21
-139.053
0
LINE
8
BLACK
6
CONTINUOUS
10
148.16
20
-139.053
11
147.993
21
-139.034
0
LINE
8
BLACK
6
CONTINUOUS
10
147.993
20
-139.034
11
147.835
21
-138.979
0
LINE
8
BLACK
6
CONTINUOUS
10
147.835
20
-138.979
11
147.692
21
-138.889
0
LINE
8
BLACK
6
CONTINUOUS
10
147.692
20
-138.889
11
147.574
21
-138.771
0
LINE
8
BLACK
6
CONTINUOUS
10
147.574
20
-138.771
11
147.484
21
-138.628
0
LINE
8
BLACK
6
CONTINUOUS
10
147.484
20
-138.628
11
147.429
21
-138.47
0
LINE
8
BLACK
6
CONTINUOUS
10
147.429
20
-138.47
11
147.41
21
-138.303
0
LINE
8
BLACK
6
CONTINUOUS
10
147.41
20
-138.303
11
147.429
21
-138.136
0
LINE
8
BLACK
6
CONTINUOUS
10
147.429
20
-138.136
11
147.484
21
-137.978
0
LINE
8
BLACK
6
CONTINUOUS
10
147.484
20
-137.978
11
147.574
21
-137.835
0
LINE
8
BLACK
6
CONTINUOUS
10
147.574
20
-137.835
11
147.692
21
-137.717
0
LINE
8
BLACK
6
CONTINUOUS
10
147.692
20
-137.717
11
147.835
21
-137.627
0
LINE
8
BLACK
6
CONTINUOUS
10
147.835
20
-137.627
11
147.993
21
-137.572
0
LINE
8
BLACK
6
CONTINUOUS
10
147.993
20
-137.572
11
148.16
21
-137.553
0
LINE
8
BLACK
6
CONTINUOUS
10
148.16
20
-137.553
11
148.327
21
-137.572
0
LINE
8
BLACK
6
CONTINUOUS
10
151.727
20
-137.572
11
151.885
21
-137.627
0
LINE
8
BLACK
6
CONTINUOUS
10
151.885
20
-137.627
11
152.028
21
-137.717
0
LINE
8
BLACK
6
CONTINUOUS
10
152.028
20
-137.717
11
152.146
21
-137.835
0
LINE
8
BLACK
6
CONTINUOUS
10
152.146
20
-137.835
11
152.236
21
-137.978
0
LINE
8
BLACK
6
CONTINUOUS
10
152.236
20
-137.978
11
152.291
21
-138.136
0
LINE
8
BLACK
6
CONTINUOUS
10
152.291
20
-138.136
11
152.31
21
-138.303
0
LINE
8
BLACK
6
CONTINUOUS
10
152.31
20
-138.303
11
152.291
21
-138.47
0
LINE
8
BLACK
6
CONTINUOUS
10
152.291
20
-138.47
11
152.236
21
-138.628
0
LINE
8
BLACK
6
CONTINUOUS
10
152.236
20
-138.628
11
152.146
21
-138.771
0
LINE
8
BLACK
6
CONTINUOUS
10
152.146
20
-138.771
11
152.028
21
-138.889
0
LINE
8
BLACK
6
CONTINUOUS
10
152.028
20
-138.889
11
151.885
21
-138.979
0
LINE
8
BLACK
6
CONTINUOUS
10
151.885
20
-138.979
11
151.727
21
-139.034
0
LINE
8
BLACK
6
CONTINUOUS
10
151.727
20
-139.034
11
151.56
21
-139.053
0
LINE
8
BLACK
6
CONTINUOUS
10
151.56
20
-139.053
11
151.393
21
-139.034
0
LINE
8
BLACK
6
CONTINUOUS
10
151.393
20
-139.034
11
151.235
21
-138.979
0
LINE
8
BLACK
6
CONTINUOUS
10
151.235
20
-138.979
11
151.092
21
-138.889
0
LINE
8
BLACK
6
CONTINUOUS
10
151.092
20
-138.889
11
150.974
21
-138.771
0
LINE
8
BLACK
6
CONTINUOUS
10
150.974
20
-138.771
11
150.884
21
-138.628
0
LINE
8
BLACK
6
CONTINUOUS
10
150.884
20
-138.628
11
150.829
21
-138.47
0
LINE
8
BLACK
6
CONTINUOUS
10
150.829
20
-138.47
11
150.81
21
-138.303
0
LINE
8
BLACK
6
CONTINUOUS
10
150.81
20
-138.303
11
150.829
21
-138.136
0
LINE
8
BLACK
6
CONTINUOUS
10
150.829
20
-138.136
11
150.884
21
-137.978
0
LINE
8
BLACK
6
CONTINUOUS
10
150.884
20
-137.978
11
150.974
21
-137.835
0
LINE
8
BLACK
6
CONTINUOUS
10
150.974
20
-137.835
11
151.092
21
-137.717
0
LINE
8
BLACK
6
CONTINUOUS
10
151.092
20
-137.717
11
151.235
21
-137.627
0
LINE
8
BLACK
6
CONTINUOUS
10
151.235
20
-137.627
11
151.393
21
-137.572
0
LINE
8
BLACK
6
CONTINUOUS
10
151.393
20
-137.572
11
151.56
21
-137.553
0
LINE
8
BLACK
6
CONTINUOUS
10
151.56
20
-137.553
11
151.727
21
-137.572
0
LINE
8
BLACK
6
CONTINUOUS
10
164.734
20
-133.661
11
164.767
21
-133.683
0
LINE
8
BLACK
6
CONTINUOUS
10
164.767
20
-133.683
11
164.789
21
-133.716
0
LINE
8
BLACK
6
CONTINUOUS
10
164.789
20
-133.716
11
164.797
21
-133.755
0
LINE
8
BLACK
6
CONTINUOUS
10
164.797
20
-133.755
11
164.797
21
-134.977
0
LINE
8
BLACK
6
CONTINUOUS
10
164.797
20
-134.977
11
164.789
21
-135.016
0
LINE
8
BLACK
6
CONTINUOUS
10
164.789
20
-135.016
11
164.767
21
-135.049
0
LINE
8
BLACK
6
CONTINUOUS
10
164.767
20
-135.049
11
164.734
21
-135.071
0
LINE
8
BLACK
6
CONTINUOUS
10
164.734
20
-135.071
11
164.695
21
-135.079
0
LINE
8
BLACK
6
CONTINUOUS
10
164.695
20
-135.079
11
163.473
21
-135.079
0
LINE
8
BLACK
6
CONTINUOUS
10
163.473
20
-135.079
11
163.434
21
-135.071
0
LINE
8
BLACK
6
CONTINUOUS
10
163.434
20
-135.071
11
163.401
21
-135.049
0
LINE
8
BLACK
6
CONTINUOUS
10
163.401
20
-135.049
11
163.379
21
-135.016
0
LINE
8
BLACK
6
CONTINUOUS
10
163.379
20
-135.016
11
163.371
21
-134.977
0
LINE
8
BLACK
6
CONTINUOUS
10
163.371
20
-134.977
11
163.371
21
-133.755
0
LINE
8
BLACK
6
CONTINUOUS
10
163.371
20
-133.755
11
163.379
21
-133.716
0
LINE
8
BLACK
6
CONTINUOUS
10
163.379
20
-133.716
11
163.401
21
-133.683
0
LINE
8
BLACK
6
CONTINUOUS
10
163.401
20
-133.683
11
163.434
21
-133.661
0
LINE
8
BLACK
6
CONTINUOUS
10
163.434
20
-133.661
11
163.473
21
-133.653
0
LINE
8
BLACK
6
CONTINUOUS
10
163.473
20
-133.653
11
164.695
21
-133.653
0
LINE
8
BLACK
6
CONTINUOUS
10
164.695
20
-133.653
11
164.734
21
-133.661
0
LINE
8
BLACK
6
CONTINUOUS
10
169.323
20
-133.671
11
169.473
21
-133.724
0
LINE
8
BLACK
6
CONTINUOUS
10
169.473
20
-133.724
11
169.609
21
-133.809
0
LINE
8
BLACK
6
CONTINUOUS
10
169.609
20
-133.809
11
169.721
21
-133.921
0
LINE
8
BLACK
6
CONTINUOUS
10
169.721
20
-133.921
11
169.806
21
-134.057
0
LINE
8
BLACK
6
CONTINUOUS
10
169.806
20
-134.057
11
169.859
21
-134.207
0
LINE
8
BLACK
6
CONTINUOUS
10
169.859
20
-134.207
11
169.877
21
-134.366
0
LINE
8
BLACK
6
CONTINUOUS
10
169.877
20
-134.366
11
169.859
21
-134.525
0
LINE
8
BLACK
6
CONTINUOUS
10
169.859
20
-134.525
11
169.806
21
-134.675
0
LINE
8
BLACK
6
CONTINUOUS
10
169.806
20
-134.675
11
169.721
21
-134.811
0
LINE
8
BLACK
6
CONTINUOUS
10
169.721
20
-134.811
11
169.609
21
-134.923
0
LINE
8
BLACK
6
CONTINUOUS
10
169.609
20
-134.923
11
169.473
21
-135.008
0
LINE
8
BLACK
6
CONTINUOUS
10
169.473
20
-135.008
11
169.323
21
-135.061
0
LINE
8
BLACK
6
CONTINUOUS
10
169.323
20
-135.061
11
169.164
21
-135.079
0
LINE
8
BLACK
6
CONTINUOUS
10
169.164
20
-135.079
11
169.005
21
-135.061
0
LINE
8
BLACK
6
CONTINUOUS
10
169.005
20
-135.061
11
168.855
21
-135.008
0
LINE
8
BLACK
6
CONTINUOUS
10
168.855
20
-135.008
11
168.719
21
-134.923
0
LINE
8
BLACK
6
CONTINUOUS
10
168.719
20
-134.923
11
168.607
21
-134.811
0
LINE
8
BLACK
6
CONTINUOUS
10
168.607
20
-134.811
11
168.522
21
-134.675
0
LINE
8
BLACK
6
CONTINUOUS
10
168.522
20
-134.675
11
168.469
21
-134.525
0
LINE
8
BLACK
6
CONTINUOUS
10
168.469
20
-134.525
11
168.451
21
-134.366
0
LINE
8
BLACK
6
CONTINUOUS
10
168.451
20
-134.366
11
168.469
21
-134.207
0
LINE
8
BLACK
6
CONTINUOUS
10
168.469
20
-134.207
11
168.522
21
-134.057
0
LINE
8
BLACK
6
CONTINUOUS
10
168.522
20
-134.057
11
168.607
21
-133.921
0
LINE
8
BLACK
6
CONTINUOUS
10
168.607
20
-133.921
11
168.719
21
-133.809
0
LINE
8
BLACK
6
CONTINUOUS
10
168.719
20
-133.809
11
168.855
21
-133.724
0
LINE
8
BLACK
6
CONTINUOUS
10
168.855
20
-133.724
11
169.005
21
-133.671
0
LINE
8
BLACK
6
CONTINUOUS
10
169.005
20
-133.671
11
169.164
21
-133.653
0
LINE
8
BLACK
6
CONTINUOUS
10
169.164
20
-133.653
11
169.323
21
-133.671
0
LINE
8
BLACK
6
CONTINUOUS
10
172.354
20
-133.661
11
172.387
21
-133.683
0
LINE
8
BLACK
6
CONTINUOUS
10
172.387
20
-133.683
11
172.409
21
-133.716
0
LINE
8
BLACK
6
CONTINUOUS
10
172.409
20
-133.716
11
172.417
21
-133.755
0
LINE
8
BLACK
6
CONTINUOUS
10
172.417
20
-133.755
11
172.417
21
-134.977
0
LINE
8
BLACK
6
CONTINUOUS
10
172.417
20
-134.977
11
172.409
21
-135.016
0
LINE
8
BLACK
6
CONTINUOUS
10
172.409
20
-135.016
11
172.387
21
-135.049
0
LINE
8
BLACK
6
CONTINUOUS
10
172.387
20
-135.049
11
172.354
21
-135.071
0
LINE
8
BLACK
6
CONTINUOUS
10
172.354
20
-135.071
11
172.315
21
-135.079
0
LINE
8
BLACK
6
CONTINUOUS
10
172.315
20
-135.079
11
171.093
21
-135.079
0
LINE
8
BLACK
6
CONTINUOUS
10
171.093
20
-135.079
11
171.054
21
-135.071
0
LINE
8
BLACK
6
CONTINUOUS
10
171.054
20
-135.071
11
171.021
21
-135.049
0
LINE
8
BLACK
6
CONTINUOUS
10
171.021
20
-135.049
11
170.999
21
-135.016
0
LINE
8
BLACK
6
CONTINUOUS
10
170.999
20
-135.016
11
170.991
21
-134.977
0
LINE
8
BLACK
6
CONTINUOUS
10
170.991
20
-134.977
11
170.991
21
-133.755
0
LINE
8
BLACK
6
CONTINUOUS
10
170.991
20
-133.755
11
170.999
21
-133.716
0
LINE
8
BLACK
6
CONTINUOUS
10
170.999
20
-133.716
11
171.021
21
-133.683
0
LINE
8
BLACK
6
CONTINUOUS
10
171.021
20
-133.683
11
171.054
21
-133.661
0
LINE
8
BLACK
6
CONTINUOUS
10
171.054
20
-133.661
11
171.093
21
-133.653
0
LINE
8
BLACK
6
CONTINUOUS
10
171.093
20
-133.653
11
172.315
21
-133.653
0
LINE
8
BLACK
6
CONTINUOUS
10
172.315
20
-133.653
11
172.354
21
-133.661
0
LINE
8
BLACK
6
CONTINUOUS
10
176.943
20
-133.671
11
177.093
21
-133.724
0
LINE
8
BLACK
6
CONTINUOUS
10
177.093
20
-133.724
11
177.229
21
-133.809
0
LINE
8
BLACK
6
CONTINUOUS
10
177.229
20
-133.809
11
177.341
21
-133.921
0
LINE
8
BLACK
6
CONTINUOUS
10
177.341
20
-133.921
11
177.426
21
-134.057
0
LINE
8
BLACK
6
CONTINUOUS
10
177.426
20
-134.057
11
177.479
21
-134.207
0
LINE
8
BLACK
6
CONTINUOUS
10
177.479
20
-134.207
11
177.497
21
-134.366
0
LINE
8
BLACK
6
CONTINUOUS
10
177.497
20
-134.366
11
177.479
21
-134.525
0
LINE
8
BLACK
6
CONTINUOUS
10
177.479
20
-134.525
11
177.426
21
-134.675
0
LINE
8
BLACK
6
CONTINUOUS
10
177.426
20
-134.675
11
177.341
21
-134.811
0
LINE
8
BLACK
6
CONTINUOUS
10
177.341
20
-134.811
11
177.229
21
-134.923
0
LINE
8
BLACK
6
CONTINUOUS
10
177.229
20
-134.923
11
177.093
21
-135.008
0
LINE
8
BLACK
6
CONTINUOUS
10
177.093
20
-135.008
11
176.943
21
-135.061
0
LINE
8
BLACK
6
CONTINUOUS
10
176.943
20
-135.061
11
176.784
21
-135.079
0
LINE
8
BLACK
6
CONTINUOUS
10
176.784
20
-135.079
11
176.625
21
-135.061
0
LINE
8
BLACK
6
CONTINUOUS
10
176.625
20
-135.061
11
176.475
21
-135.008
0
LINE
8
BLACK
6
CONTINUOUS
10
176.475
20
-135.008
11
176.339
21
-134.923
0
LINE
8
BLACK
6
CONTINUOUS
10
176.339
20
-134.923
11
176.227
21
-134.811
0
LINE
8
BLACK
6
CONTINUOUS
10
176.227
20
-134.811
11
176.142
21
-134.675
0
LINE
8
BLACK
6
CONTINUOUS
10
176.142
20
-134.675
11
176.089
21
-134.525
0
LINE
8
BLACK
6
CONTINUOUS
10
176.089
20
-134.525
11
176.071
21
-134.366
0
LINE
8
BLACK
6
CONTINUOUS
10
176.071
20
-134.366
11
176.089
21
-134.207
0
LINE
8
BLACK
6
CONTINUOUS
10
176.089
20
-134.207
11
176.142
21
-134.057
0
LINE
8
BLACK
6
CONTINUOUS
10
176.142
20
-134.057
11
176.227
21
-133.921
0
LINE
8
BLACK
6
CONTINUOUS
10
176.227
20
-133.921
11
176.339
21
-133.809
0
LINE
8
BLACK
6
CONTINUOUS
10
176.339
20
-133.809
11
176.475
21
-133.724
0
LINE
8
BLACK
6
CONTINUOUS
10
176.475
20
-133.724
11
176.625
21
-133.671
0
LINE
8
BLACK
6
CONTINUOUS
10
176.625
20
-133.671
11
176.784
21
-133.653
0
LINE
8
BLACK
6
CONTINUOUS
10
176.784
20
-133.653
11
176.943
21
-133.671
0
LINE
8
BLACK
6
CONTINUOUS
10
166.783
20
-131.131
11
166.933
21
-131.184
0
LINE
8
BLACK
6
CONTINUOUS
10
166.933
20
-131.184
11
167.069
21
-131.269
0
LINE
8
BLACK
6
CONTINUOUS
10
167.069
20
-131.269
11
167.181
21
-131.381
0
LINE
8
BLACK
6
CONTINUOUS
10
167.181
20
-131.381
11
167.266
21
-131.517
0
LINE
8
BLACK
6
CONTINUOUS
10
167.266
20
-131.517
11
167.319
21
-131.667
0
LINE
8
BLACK
6
CONTINUOUS
10
167.319
20
-131.667
11
167.337
21
-131.826
0
LINE
8
BLACK
6
CONTINUOUS
10
167.337
20
-131.826
11
167.319
21
-131.985
0
LINE
8
BLACK
6
CONTINUOUS
10
167.319
20
-131.985
11
167.266
21
-132.135
0
LINE
8
BLACK
6
CONTINUOUS
10
167.266
20
-132.135
11
167.181
21
-132.271
0
LINE
8
BLACK
6
CONTINUOUS
10
167.181
20
-132.271
11
167.069
21
-132.383
0
LINE
8
BLACK
6
CONTINUOUS
10
167.069
20
-132.383
11
166.933
21
-132.468
0
LINE
8
BLACK
6
CONTINUOUS
10
166.933
20
-132.468
11
166.783
21
-132.521
0
LINE
8
BLACK
6
CONTINUOUS
10
166.783
20
-132.521
11
166.624
21
-132.539
0
LINE
8
BLACK
6
CONTINUOUS
10
166.624
20
-132.539
11
166.465
21
-132.521
0
LINE
8
BLACK
6
CONTINUOUS
10
166.465
20
-132.521
11
166.315
21
-132.468
0
LINE
8
BLACK
6
CONTINUOUS
10
166.315
20
-132.468
11
166.179
21
-132.383
0
LINE
8
BLACK
6
CONTINUOUS
10
166.179
20
-132.383
11
166.067
21
-132.271
0
LINE
8
BLACK
6
CONTINUOUS
10
166.067
20
-132.271
11
165.982
21
-132.135
0
LINE
8
BLACK
6
CONTINUOUS
10
165.982
20
-132.135
11
165.929
21
-131.985
0
LINE
8
BLACK
6
CONTINUOUS
10
165.929
20
-131.985
11
165.911
21
-131.826
0
LINE
8
BLACK
6
CONTINUOUS
10
165.911
20
-131.826
11
165.929
21
-131.667
0
LINE
8
BLACK
6
CONTINUOUS
10
165.929
20
-131.667
11
165.982
21
-131.517
0
LINE
8
BLACK
6
CONTINUOUS
10
165.982
20
-131.517
11
166.067
21
-131.381
0
LINE
8
BLACK
6
CONTINUOUS
10
166.067
20
-131.381
11
166.179
21
-131.269
0
LINE
8
BLACK
6
CONTINUOUS
10
166.179
20
-131.269
11
166.315
21
-131.184
0
LINE
8
BLACK
6
CONTINUOUS
10
166.315
20
-131.184
11
166.465
21
-131.131
0
LINE
8
BLACK
6
CONTINUOUS
10
166.465
20
-131.131
11
166.624
21
-131.113
0
LINE
8
BLACK
6
CONTINUOUS
10
166.624
20
-131.113
11
166.783
21
-131.131
0
LINE
8
BLACK
6
CONTINUOUS
10
174.403
20
-131.131
11
174.553
21
-131.184
0
LINE
8
BLACK
6
CONTINUOUS
10
174.553
20
-131.184
11
174.689
21
-131.269
0
LINE
8
BLACK
6
CONTINUOUS
10
174.689
20
-131.269
11
174.801
21
-131.381
0
LINE
8
BLACK
6
CONTINUOUS
10
174.801
20
-131.381
11
174.886
21
-131.517
0
LINE
8
BLACK
6
CONTINUOUS
10
174.886
20
-131.517
11
174.939
21
-131.667
0
LINE
8
BLACK
6
CONTINUOUS
10
174.939
20
-131.667
11
174.957
21
-131.826
0
LINE
8
BLACK
6
CONTINUOUS
10
174.957
20
-131.826
11
174.939
21
-131.985
0
LINE
8
BLACK
6
CONTINUOUS
10
174.939
20
-131.985
11
174.886
21
-132.135
0
LINE
8
BLACK
6
CONTINUOUS
10
174.886
20
-132.135
11
174.801
21
-132.271
0
LINE
8
BLACK
6
CONTINUOUS
10
174.801
20
-132.271
11
174.689
21
-132.383
0
LINE
8
BLACK
6
CONTINUOUS
10
174.689
20
-132.383
11
174.553
21
-132.468
0
LINE
8
BLACK
6
CONTINUOUS
10
174.553
20
-132.468
11
174.403
21
-132.521
0
LINE
8
BLACK
6
CONTINUOUS
10
174.403
20
-132.521
11
174.244
21
-132.539
0
LINE
8
BLACK
6
CONTINUOUS
10
174.244
20
-132.539
11
174.085
21
-132.521
0
LINE
8
BLACK
6
CONTINUOUS
10
174.085
20
-132.521
11
173.935
21
-132.468
0
LINE
8
BLACK
6
CONTINUOUS
10
173.935
20
-132.468
11
173.799
21
-132.383
0
LINE
8
BLACK
6
CONTINUOUS
10
173.799
20
-132.383
11
173.687
21
-132.271
0
LINE
8
BLACK
6
CONTINUOUS
10
173.687
20
-132.271
11
173.602
21
-132.135
0
LINE
8
BLACK
6
CONTINUOUS
10
173.602
20
-132.135
11
173.549
21
-131.985
0
LINE
8
BLACK
6
CONTINUOUS
10
173.549
20
-131.985
11
173.531
21
-131.826
0
LINE
8
BLACK
6
CONTINUOUS
10
173.531
20
-131.826
11
173.549
21
-131.667
0
LINE
8
BLACK
6
CONTINUOUS
10
173.549
20
-131.667
11
173.602
21
-131.517
0
LINE
8
BLACK
6
CONTINUOUS
10
173.602
20
-131.517
11
173.687
21
-131.381
0
LINE
8
BLACK
6
CONTINUOUS
10
173.687
20
-131.381
11
173.799
21
-131.269
0
LINE
8
BLACK
6
CONTINUOUS
10
173.799
20
-131.269
11
173.935
21
-131.184
0
LINE
8
BLACK
6
CONTINUOUS
10
173.935
20
-131.184
11
174.085
21
-131.131
0
LINE
8
BLACK
6
CONTINUOUS
10
174.085
20
-131.131
11
174.244
21
-131.113
0
LINE
8
BLACK
6
CONTINUOUS
10
174.244
20
-131.113
11
174.403
21
-131.131
0
LINE
8
BLACK
6
CONTINUOUS
10
172.354
20
-125.66
11
172.387
21
-125.682
0
LINE
8
BLACK
6
CONTINUOUS
10
172.387
20
-125.682
11
172.409
21
-125.715
0
LINE
8
BLACK
6
CONTINUOUS
10
172.409
20
-125.715
11
172.417
21
-125.754
0
LINE
8
BLACK
6
CONTINUOUS
10
172.417
20
-125.754
11
172.417
21
-126.976
0
LINE
8
BLACK
6
CONTINUOUS
10
172.417
20
-126.976
11
172.409
21
-127.015
0
LINE
8
BLACK
6
CONTINUOUS
10
172.409
20
-127.015
11
172.387
21
-127.048
0
LINE
8
BLACK
6
CONTINUOUS
10
172.387
20
-127.048
11
172.354
21
-127.07
0
LINE
8
BLACK
6
CONTINUOUS
10
172.354
20
-127.07
11
172.315
21
-127.078
0
LINE
8
BLACK
6
CONTINUOUS
10
172.315
20
-127.078
11
171.093
21
-127.078
0
LINE
8
BLACK
6
CONTINUOUS
10
171.093
20
-127.078
11
171.054
21
-127.07
0
LINE
8
BLACK
6
CONTINUOUS
10
171.054
20
-127.07
11
171.021
21
-127.048
0
LINE
8
BLACK
6
CONTINUOUS
10
171.021
20
-127.048
11
170.999
21
-127.015
0
LINE
8
BLACK
6
CONTINUOUS
10
170.999
20
-127.015
11
170.991
21
-126.976
0
LINE
8
BLACK
6
CONTINUOUS
10
170.991
20
-126.976
11
170.991
21
-125.754
0
LINE
8
BLACK
6
CONTINUOUS
10
170.991
20
-125.754
11
170.999
21
-125.715
0
LINE
8
BLACK
6
CONTINUOUS
10
170.999
20
-125.715
11
171.021
21
-125.682
0
LINE
8
BLACK
6
CONTINUOUS
10
171.021
20
-125.682
11
171.054
21
-125.66
0
LINE
8
BLACK
6
CONTINUOUS
10
171.054
20
-125.66
11
171.093
21
-125.652
0
LINE
8
BLACK
6
CONTINUOUS
10
171.093
20
-125.652
11
172.315
21
-125.652
0
LINE
8
BLACK
6
CONTINUOUS
10
172.315
20
-125.652
11
172.354
21
-125.66
0
LINE
8
BLACK
6
CONTINUOUS
10
176.943
20
-125.67
11
177.093
21
-125.723
0
LINE
8
BLACK
6
CONTINUOUS
10
177.093
20
-125.723
11
177.229
21
-125.808
0
LINE
8
BLACK
6
CONTINUOUS
10
177.229
20
-125.808
11
177.341
21
-125.92
0
LINE
8
BLACK
6
CONTINUOUS
10
177.341
20
-125.92
11
177.426
21
-126.056
0
LINE
8
BLACK
6
CONTINUOUS
10
177.426
20
-126.056
11
177.479
21
-126.206
0
LINE
8
BLACK
6
CONTINUOUS
10
177.479
20
-126.206
11
177.497
21
-126.365
0
LINE
8
BLACK
6
CONTINUOUS
10
177.497
20
-126.365
11
177.479
21
-126.524
0
LINE
8
BLACK
6
CONTINUOUS
10
177.479
20
-126.524
11
177.426
21
-126.674
0
LINE
8
BLACK
6
CONTINUOUS
10
177.426
20
-126.674
11
177.341
21
-126.81
0
LINE
8
BLACK
6
CONTINUOUS
10
177.341
20
-126.81
11
177.229
21
-126.922
0
LINE
8
BLACK
6
CONTINUOUS
10
177.229
20
-126.922
11
177.093
21
-127.007
0
LINE
8
BLACK
6
CONTINUOUS
10
177.093
20
-127.007
11
176.943
21
-127.06
0
LINE
8
BLACK
6
CONTINUOUS
10
176.943
20
-127.06
11
176.784
21
-127.078
0
LINE
8
BLACK
6
CONTINUOUS
10
176.784
20
-127.078
11
176.625
21
-127.06
0
LINE
8
BLACK
6
CONTINUOUS
10
176.625
20
-127.06
11
176.475
21
-127.007
0
LINE
8
BLACK
6
CONTINUOUS
10
176.475
20
-127.007
11
176.339
21
-126.922
0
LINE
8
BLACK
6
CONTINUOUS
10
176.339
20
-126.922
11
176.227
21
-126.81
0
LINE
8
BLACK
6
CONTINUOUS
10
176.227
20
-126.81
11
176.142
21
-126.674
0
LINE
8
BLACK
6
CONTINUOUS
10
176.142
20
-126.674
11
176.089
21
-126.524
0
LINE
8
BLACK
6
CONTINUOUS
10
176.089
20
-126.524
11
176.071
21
-126.365
0
LINE
8
BLACK
6
CONTINUOUS
10
176.071
20
-126.365
11
176.089
21
-126.206
0
LINE
8
BLACK
6
CONTINUOUS
10
176.089
20
-126.206
11
176.142
21
-126.056
0
LINE
8
BLACK
6
CONTINUOUS
10
176.142
20
-126.056
11
176.227
21
-125.92
0
LINE
8
BLACK
6
CONTINUOUS
10
176.227
20
-125.92
11
176.339
21
-125.808
0
LINE
8
BLACK
6
CONTINUOUS
10
176.339
20
-125.808
11
176.475
21
-125.723
0
LINE
8
BLACK
6
CONTINUOUS
10
176.475
20
-125.723
11
176.625
21
-125.67
0
LINE
8
BLACK
6
CONTINUOUS
10
176.625
20
-125.67
11
176.784
21
-125.652
0
LINE
8
BLACK
6
CONTINUOUS
10
176.784
20
-125.652
11
176.943
21
-125.67
0
LINE
8
BLACK
6
CONTINUOUS
10
164.734
20
-125.66
11
164.767
21
-125.682
0
LINE
8
BLACK
6
CONTINUOUS
10
164.767
20
-125.682
11
164.789
21
-125.715
0
LINE
8
BLACK
6
CONTINUOUS
10
164.789
20
-125.715
11
164.797
21
-125.754
0
LINE
8
BLACK
6
CONTINUOUS
10
164.797
20
-125.754
11
164.797
21
-126.976
0
LINE
8
BLACK
6
CONTINUOUS
10
164.797
20
-126.976
11
164.789
21
-127.015
0
LINE
8
BLACK
6
CONTINUOUS
10
164.789
20
-127.015
11
164.767
21
-127.048
0
LINE
8
BLACK
6
CONTINUOUS
10
164.767
20
-127.048
11
164.734
21
-127.07
0
LINE
8
BLACK
6
CONTINUOUS
10
164.734
20
-127.07
11
164.695
21
-127.078
0
LINE
8
BLACK
6
CONTINUOUS
10
164.695
20
-127.078
11
163.473
21
-127.078
0
LINE
8
BLACK
6
CONTINUOUS
10
163.473
20
-127.078
11
163.434
21
-127.07
0
LINE
8
BLACK
6
CONTINUOUS
10
163.434
20
-127.07
11
163.401
21
-127.048
0
LINE
8
BLACK
6
CONTINUOUS
10
163.401
20
-127.048
11
163.379
21
-127.015
0
LINE
8
BLACK
6
CONTINUOUS
10
163.379
20
-127.015
11
163.371
21
-126.976
0
LINE
8
BLACK
6
CONTINUOUS
10
163.371
20
-126.976
11
163.371
21
-125.754
0
LINE
8
BLACK
6
CONTINUOUS
10
163.371
20
-125.754
11
163.379
21
-125.715
0
LINE
8
BLACK
6
CONTINUOUS
10
163.379
20
-125.715
11
163.401
21
-125.682
0
LINE
8
BLACK
6
CONTINUOUS
10
163.401
20
-125.682
11
163.434
21
-125.66
0
LINE
8
BLACK
6
CONTINUOUS
10
163.434
20
-125.66
11
163.473
21
-125.652
0
LINE
8
BLACK
6
CONTINUOUS
10
163.473
20
-125.652
11
164.695
21
-125.652
0
LINE
8
BLACK
6
CONTINUOUS
10
164.695
20
-125.652
11
164.734
21
-125.66
0
LINE
8
BLACK
6
CONTINUOUS
10
169.323
20
-125.67
11
169.473
21
-125.723
0
LINE
8
BLACK
6
CONTINUOUS
10
169.473
20
-125.723
11
169.609
21
-125.808
0
LINE
8
BLACK
6
CONTINUOUS
10
169.609
20
-125.808
11
169.721
21
-125.92
0
LINE
8
BLACK
6
CONTINUOUS
10
169.721
20
-125.92
11
169.806
21
-126.056
0
LINE
8
BLACK
6
CONTINUOUS
10
169.806
20
-126.056
11
169.859
21
-126.206
0
LINE
8
BLACK
6
CONTINUOUS
10
169.859
20
-126.206
11
169.877
21
-126.365
0
LINE
8
BLACK
6
CONTINUOUS
10
169.877
20
-126.365
11
169.859
21
-126.524
0
LINE
8
BLACK
6
CONTINUOUS
10
169.859
20
-126.524
11
169.806
21
-126.674
0
LINE
8
BLACK
6
CONTINUOUS
10
169.806
20
-126.674
11
169.721
21
-126.81
0
LINE
8
BLACK
6
CONTINUOUS
10
169.721
20
-126.81
11
169.609
21
-126.922
0
LINE
8
BLACK
6
CONTINUOUS
10
169.609
20
-126.922
11
169.473
21
-127.007
0
LINE
8
BLACK
6
CONTINUOUS
10
169.473
20
-127.007
11
169.323
21
-127.06
0
LINE
8
BLACK
6
CONTINUOUS
10
169.323
20
-127.06
11
169.164
21
-127.078
0
LINE
8
BLACK
6
CONTINUOUS
10
169.164
20
-127.078
11
169.005
21
-127.06
0
LINE
8
BLACK
6
CONTINUOUS
10
169.005
20
-127.06
11
168.855
21
-127.007
0
LINE
8
BLACK
6
CONTINUOUS
10
168.855
20
-127.007
11
168.719
21
-126.922
0
LINE
8
BLACK
6
CONTINUOUS
10
168.719
20
-126.922
11
168.607
21
-126.81
0
LINE
8
BLACK
6
CONTINUOUS
10
168.607
20
-126.81
11
168.522
21
-126.674
0
LINE
8
BLACK
6
CONTINUOUS
10
168.522
20
-126.674
11
168.469
21
-126.524
0
LINE
8
BLACK
6
CONTINUOUS
10
168.469
20
-126.524
11
168.451
21
-126.365
0
LINE
8
BLACK
6
CONTINUOUS
10
168.451
20
-126.365
11
168.469
21
-126.206
0
LINE
8
BLACK
6
CONTINUOUS
10
168.469
20
-126.206
11
168.522
21
-126.056
0
LINE
8
BLACK
6
CONTINUOUS
10
168.522
20
-126.056
11
168.607
21
-125.92
0
LINE
8
BLACK
6
CONTINUOUS
10
168.607
20
-125.92
11
168.719
21
-125.808
0
LINE
8
BLACK
6
CONTINUOUS
10
168.719
20
-125.808
11
168.855
21
-125.723
0
LINE
8
BLACK
6
CONTINUOUS
10
168.855
20
-125.723
11
169.005
21
-125.67
0
LINE
8
BLACK
6
CONTINUOUS
10
169.005
20
-125.67
11
169.164
21
-125.652
0
LINE
8
BLACK
6
CONTINUOUS
10
169.164
20
-125.652
11
169.323
21
-125.67
0
LINE
8
BLACK
6
CONTINUOUS
10
115.077
20
-123.227
11
115.288
21
-123.283
0
LINE
8
BLACK
6
CONTINUOUS
10
115.288
20
-123.283
11
115.485
21
-123.375
0
LINE
8
BLACK
6
CONTINUOUS
10
115.485
20
-123.375
11
115.663
21
-123.5
0
LINE
8
BLACK
6
CONTINUOUS
10
115.663
20
-123.5
11
115.818
21
-123.655
0
LINE
8
BLACK
6
CONTINUOUS
10
115.818
20
-123.655
11
115.943
21
-123.833
0
LINE
8
BLACK
6
CONTINUOUS
10
115.943
20
-123.833
11
116.035
21
-124.03
0
LINE
8
BLACK
6
CONTINUOUS
10
116.035
20
-124.03
11
116.091
21
-124.241
0
LINE
8
BLACK
6
CONTINUOUS
10
116.091
20
-124.241
11
116.11
21
-124.458
0
LINE
8
BLACK
6
CONTINUOUS
10
116.11
20
-124.458
11
116.091
21
-124.675
0
LINE
8
BLACK
6
CONTINUOUS
10
116.091
20
-124.675
11
116.035
21
-124.886
0
LINE
8
BLACK
6
CONTINUOUS
10
116.035
20
-124.886
11
115.943
21
-125.083
0
LINE
8
BLACK
6
CONTINUOUS
10
115.943
20
-125.083
11
115.818
21
-125.261
0
LINE
8
BLACK
6
CONTINUOUS
10
115.818
20
-125.261
11
115.663
21
-125.416
0
LINE
8
BLACK
6
CONTINUOUS
10
115.663
20
-125.416
11
115.485
21
-125.541
0
LINE
8
BLACK
6
CONTINUOUS
10
115.485
20
-125.541
11
115.288
21
-125.633
0
LINE
8
BLACK
6
CONTINUOUS
10
115.288
20
-125.633
11
115.077
21
-125.689
0
LINE
8
BLACK
6
CONTINUOUS
10
115.077
20
-125.689
11
114.86
21
-125.708
0
LINE
8
BLACK
6
CONTINUOUS
10
114.86
20
-125.708
11
114.643
21
-125.689
0
LINE
8
BLACK
6
CONTINUOUS
10
114.643
20
-125.689
11
114.432
21
-125.633
0
LINE
8
BLACK
6
CONTINUOUS
10
114.432
20
-125.633
11
114.235
21
-125.541
0
LINE
8
BLACK
6
CONTINUOUS
10
114.235
20
-125.541
11
114.057
21
-125.416
0
LINE
8
BLACK
6
CONTINUOUS
10
114.057
20
-125.416
11
113.902
21
-125.261
0
LINE
8
BLACK
6
CONTINUOUS
10
113.902
20
-125.261
11
113.777
21
-125.083
0
LINE
8
BLACK
6
CONTINUOUS
10
113.777
20
-125.083
11
113.685
21
-124.886
0
LINE
8
BLACK
6
CONTINUOUS
10
113.685
20
-124.886
11
113.629
21
-124.675
0
LINE
8
BLACK
6
CONTINUOUS
10
113.629
20
-124.675
11
113.61
21
-124.458
0
LINE
8
BLACK
6
CONTINUOUS
10
113.61
20
-124.458
11
113.629
21
-124.241
0
LINE
8
BLACK
6
CONTINUOUS
10
113.629
20
-124.241
11
113.685
21
-124.03
0
LINE
8
BLACK
6
CONTINUOUS
10
113.685
20
-124.03
11
113.777
21
-123.833
0
LINE
8
BLACK
6
CONTINUOUS
10
113.777
20
-123.833
11
113.902
21
-123.655
0
LINE
8
BLACK
6
CONTINUOUS
10
113.902
20
-123.655
11
114.057
21
-123.5
0
LINE
8
BLACK
6
CONTINUOUS
10
114.057
20
-123.5
11
114.235
21
-123.375
0
LINE
8
BLACK
6
CONTINUOUS
10
114.235
20
-123.375
11
114.432
21
-123.283
0
LINE
8
BLACK
6
CONTINUOUS
10
114.432
20
-123.283
11
114.643
21
-123.227
0
LINE
8
BLACK
6
CONTINUOUS
10
114.643
20
-123.227
11
114.86
21
-123.208
0
LINE
8
BLACK
6
CONTINUOUS
10
114.86
20
-123.208
11
115.077
21
-123.227
0
LINE
8
BLACK
6
CONTINUOUS
10
185.077
20
-123.227
11
185.288
21
-123.283
0
LINE
8
BLACK
6
CONTINUOUS
10
185.288
20
-123.283
11
185.485
21
-123.375
0
LINE
8
BLACK
6
CONTINUOUS
10
185.485
20
-123.375
11
185.663
21
-123.5
0
LINE
8
BLACK
6
CONTINUOUS
10
185.663
20
-123.5
11
185.818
21
-123.655
0
LINE
8
BLACK
6
CONTINUOUS
10
185.818
20
-123.655
11
185.943
21
-123.833
0
LINE
8
BLACK
6
CONTINUOUS
10
185.943
20
-123.833
11
186.035
21
-124.03
0
LINE
8
BLACK
6
CONTINUOUS
10
186.035
20
-124.03
11
186.091
21
-124.241
0
LINE
8
BLACK
6
CONTINUOUS
10
186.091
20
-124.241
11
186.11
21
-124.458
0
LINE
8
BLACK
6
CONTINUOUS
10
186.11
20
-124.458
11
186.091
21
-124.675
0
LINE
8
BLACK
6
CONTINUOUS
10
186.091
20
-124.675
11
186.035
21
-124.886
0
LINE
8
BLACK
6
CONTINUOUS
10
186.035
20
-124.886
11
185.943
21
-125.083
0
LINE
8
BLACK
6
CONTINUOUS
10
185.943
20
-125.083
11
185.818
21
-125.261
0
LINE
8
BLACK
6
CONTINUOUS
10
185.818
20
-125.261
11
185.663
21
-125.416
0
LINE
8
BLACK
6
CONTINUOUS
10
185.663
20
-125.416
11
185.485
21
-125.541
0
LINE
8
BLACK
6
CONTINUOUS
10
185.485
20
-125.541
11
185.288
21
-125.633
0
LINE
8
BLACK
6
CONTINUOUS
10
185.288
20
-125.633
11
185.077
21
-125.689
0
LINE
8
BLACK
6
CONTINUOUS
10
185.077
20
-125.689
11
184.86
21
-125.708
0
LINE
8
BLACK
6
CONTINUOUS
10
184.86
20
-125.708
11
184.643
21
-125.689
0
LINE
8
BLACK
6
CONTINUOUS
10
184.643
20
-125.689
11
184.432
21
-125.633
0
LINE
8
BLACK
6
CONTINUOUS
10
184.432
20
-125.633
11
184.235
21
-125.541
0
LINE
8
BLACK
6
CONTINUOUS
10
184.235
20
-125.541
11
184.057
21
-125.416
0
LINE
8
BLACK
6
CONTINUOUS
10
184.057
20
-125.416
11
183.902
21
-125.261
0
LINE
8
BLACK
6
CONTINUOUS
10
183.902
20
-125.261
11
183.777
21
-125.083
0
LINE
8
BLACK
6
CONTINUOUS
10
183.777
20
-125.083
11
183.685
21
-124.886
0
LINE
8
BLACK
6
CONTINUOUS
10
183.685
20
-124.886
11
183.629
21
-124.675
0
LINE
8
BLACK
6
CONTINUOUS
10
183.629
20
-124.675
11
183.61
21
-124.458
0
LINE
8
BLACK
6
CONTINUOUS
10
183.61
20
-124.458
11
183.629
21
-124.241
0
LINE
8
BLACK
6
CONTINUOUS
10
183.629
20
-124.241
11
183.685
21
-124.03
0
LINE
8
BLACK
6
CONTINUOUS
10
183.685
20
-124.03
11
183.777
21
-123.833
0
LINE
8
BLACK
6
CONTINUOUS
10
183.777
20
-123.833
11
183.902
21
-123.655
0
LINE
8
BLACK
6
CONTINUOUS
10
183.902
20
-123.655
11
184.057
21
-123.5
0
LINE
8
BLACK
6
CONTINUOUS
10
184.057
20
-123.5
11
184.235
21
-123.375
0
LINE
8
BLACK
6
CONTINUOUS
10
184.235
20
-123.375
11
184.432
21
-123.283
0
LINE
8
BLACK
6
CONTINUOUS
10
184.432
20
-123.283
11
184.643
21
-123.227
0
LINE
8
BLACK
6
CONTINUOUS
10
184.643
20
-123.227
11
184.86
21
-123.208
0
LINE
8
BLACK
6
CONTINUOUS
10
184.86
20
-123.208
11
185.077
21
-123.227
0
LINE
8
BLACK
6
CONTINUOUS
10
120.631
20
-122.443
11
120.829
21
-122.52
0
LINE
8
BLACK
6
CONTINUOUS
10
120.829
20
-122.52
11
121.009
21
-122.632
0
LINE
8
BLACK
6
CONTINUOUS
10
121.009
20
-122.632
11
121.166
21
-122.775
0
LINE
8
BLACK
6
CONTINUOUS
10
121.166
20
-122.775
11
121.294
21
-122.944
0
LINE
8
BLACK
6
CONTINUOUS
10
121.294
20
-122.944
11
121.388
21
-123.134
0
LINE
8
BLACK
6
CONTINUOUS
10
121.388
20
-123.134
11
121.446
21
-123.338
0
LINE
8
BLACK
6
CONTINUOUS
10
121.446
20
-123.338
11
121.466
21
-123.549
0
LINE
8
BLACK
6
CONTINUOUS
10
121.466
20
-123.549
11
121.446
21
-123.761
0
LINE
8
BLACK
6
CONTINUOUS
10
121.446
20
-123.761
11
121.388
21
-123.965
0
LINE
8
BLACK
6
CONTINUOUS
10
121.388
20
-123.965
11
121.294
21
-124.155
0
LINE
8
BLACK
6
CONTINUOUS
10
121.294
20
-124.155
11
121.166
21
-124.324
0
LINE
8
BLACK
6
CONTINUOUS
10
121.166
20
-124.324
11
121.009
21
-124.467
0
LINE
8
BLACK
6
CONTINUOUS
10
121.009
20
-124.467
11
120.829
21
-124.579
0
LINE
8
BLACK
6
CONTINUOUS
10
120.829
20
-124.579
11
120.631
21
-124.656
0
LINE
8
BLACK
6
CONTINUOUS
10
120.631
20
-124.656
11
120.422
21
-124.695
0
LINE
8
BLACK
6
CONTINUOUS
10
120.422
20
-124.695
11
120.21
21
-124.695
0
LINE
8
BLACK
6
CONTINUOUS
10
120.21
20
-124.695
11
120.001
21
-124.656
0
LINE
8
BLACK
6
CONTINUOUS
10
120.001
20
-124.656
11
119.803
21
-124.579
0
LINE
8
BLACK
6
CONTINUOUS
10
119.803
20
-124.579
11
119.623
21
-124.467
0
LINE
8
BLACK
6
CONTINUOUS
10
119.623
20
-124.467
11
119.466
21
-124.324
0
LINE
8
BLACK
6
CONTINUOUS
10
119.466
20
-124.324
11
119.338
21
-124.155
0
LINE
8
BLACK
6
CONTINUOUS
10
119.338
20
-124.155
11
119.244
21
-123.965
0
LINE
8
BLACK
6
CONTINUOUS
10
119.244
20
-123.965
11
119.186
21
-123.761
0
LINE
8
BLACK
6
CONTINUOUS
10
119.186
20
-123.761
11
119.166
21
-123.549
0
LINE
8
BLACK
6
CONTINUOUS
10
119.166
20
-123.549
11
119.186
21
-123.338
0
LINE
8
BLACK
6
CONTINUOUS
10
119.186
20
-123.338
11
119.244
21
-123.134
0
LINE
8
BLACK
6
CONTINUOUS
10
119.244
20
-123.134
11
119.338
21
-122.944
0
LINE
8
BLACK
6
CONTINUOUS
10
119.338
20
-122.944
11
119.466
21
-122.775
0
LINE
8
BLACK
6
CONTINUOUS
10
119.466
20
-122.775
11
119.623
21
-122.632
0
LINE
8
BLACK
6
CONTINUOUS
10
119.623
20
-122.632
11
119.803
21
-122.52
0
LINE
8
BLACK
6
CONTINUOUS
10
119.803
20
-122.52
11
120.001
21
-122.443
0
LINE
8
BLACK
6
CONTINUOUS
10
120.001
20
-122.443
11
120.21
21
-122.404
0
LINE
8
BLACK
6
CONTINUOUS
10
120.21
20
-122.404
11
120.422
21
-122.404
0
LINE
8
BLACK
6
CONTINUOUS
10
120.422
20
-122.404
11
120.631
21
-122.443
0
LINE
8
BLACK
6
CONTINUOUS
10
136.031
20
-122.443
11
136.229
21
-122.52
0
LINE
8
BLACK
6
CONTINUOUS
10
136.229
20
-122.52
11
136.409
21
-122.632
0
LINE
8
BLACK
6
CONTINUOUS
10
136.409
20
-122.632
11
136.566
21
-122.775
0
LINE
8
BLACK
6
CONTINUOUS
10
136.566
20
-122.775
11
136.694
21
-122.944
0
LINE
8
BLACK
6
CONTINUOUS
10
136.694
20
-122.944
11
136.788
21
-123.134
0
LINE
8
BLACK
6
CONTINUOUS
10
136.788
20
-123.134
11
136.846
21
-123.338
0
LINE
8
BLACK
6
CONTINUOUS
10
136.846
20
-123.338
11
136.866
21
-123.549
0
LINE
8
BLACK
6
CONTINUOUS
10
136.866
20
-123.549
11
136.846
21
-123.761
0
LINE
8
BLACK
6
CONTINUOUS
10
136.846
20
-123.761
11
136.788
21
-123.965
0
LINE
8
BLACK
6
CONTINUOUS
10
136.788
20
-123.965
11
136.694
21
-124.155
0
LINE
8
BLACK
6
CONTINUOUS
10
136.694
20
-124.155
11
136.566
21
-124.324
0
LINE
8
BLACK
6
CONTINUOUS
10
136.566
20
-124.324
11
136.409
21
-124.467
0
LINE
8
BLACK
6
CONTINUOUS
10
136.409
20
-124.467
11
136.229
21
-124.579
0
LINE
8
BLACK
6
CONTINUOUS
10
136.229
20
-124.579
11
136.031
21
-124.656
0
LINE
8
BLACK
6
CONTINUOUS
10
136.031
20
-124.656
11
135.822
21
-124.695
0
LINE
8
BLACK
6
CONTINUOUS
10
135.822
20
-124.695
11
135.61
21
-124.695
0
LINE
8
BLACK
6
CONTINUOUS
10
135.61
20
-124.695
11
135.401
21
-124.656
0
LINE
8
BLACK
6
CONTINUOUS
10
135.401
20
-124.656
11
135.203
21
-124.579
0
LINE
8
BLACK
6
CONTINUOUS
10
135.203
20
-124.579
11
135.023
21
-124.467
0
LINE
8
BLACK
6
CONTINUOUS
10
135.023
20
-124.467
11
134.866
21
-124.324
0
LINE
8
BLACK
6
CONTINUOUS
10
134.866
20
-124.324
11
134.738
21
-124.155
0
LINE
8
BLACK
6
CONTINUOUS
10
134.738
20
-124.155
11
134.644
21
-123.965
0
LINE
8
BLACK
6
CONTINUOUS
10
134.644
20
-123.965
11
134.586
21
-123.761
0
LINE
8
BLACK
6
CONTINUOUS
10
134.586
20
-123.761
11
134.566
21
-123.549
0
LINE
8
BLACK
6
CONTINUOUS
10
134.566
20
-123.549
11
134.586
21
-123.338
0
LINE
8
BLACK
6
CONTINUOUS
10
134.586
20
-123.338
11
134.644
21
-123.134
0
LINE
8
BLACK
6
CONTINUOUS
10
134.644
20
-123.134
11
134.738
21
-122.944
0
LINE
8
BLACK
6
CONTINUOUS
10
134.738
20
-122.944
11
134.866
21
-122.775
0
LINE
8
BLACK
6
CONTINUOUS
10
134.866
20
-122.775
11
135.023
21
-122.632
0
LINE
8
BLACK
6
CONTINUOUS
10
135.023
20
-122.632
11
135.203
21
-122.52
0
LINE
8
BLACK
6
CONTINUOUS
10
135.203
20
-122.52
11
135.401
21
-122.443
0
LINE
8
BLACK
6
CONTINUOUS
10
135.401
20
-122.443
11
135.61
21
-122.404
0
LINE
8
BLACK
6
CONTINUOUS
10
135.61
20
-122.404
11
135.822
21
-122.404
0
LINE
8
BLACK
6
CONTINUOUS
10
135.822
20
-122.404
11
136.031
21
-122.443
0
LINE
8
BLACK
6
CONTINUOUS
10
174.403
20
-123.13
11
174.553
21
-123.183
0
LINE
8
BLACK
6
CONTINUOUS
10
174.553
20
-123.183
11
174.689
21
-123.268
0
LINE
8
BLACK
6
CONTINUOUS
10
174.689
20
-123.268
11
174.801
21
-123.38
0
LINE
8
BLACK
6
CONTINUOUS
10
174.801
20
-123.38
11
174.886
21
-123.516
0
LINE
8
BLACK
6
CONTINUOUS
10
174.886
20
-123.516
11
174.939
21
-123.666
0
LINE
8
BLACK
6
CONTINUOUS
10
174.939
20
-123.666
11
174.957
21
-123.825
0
LINE
8
BLACK
6
CONTINUOUS
10
174.957
20
-123.825
11
174.939
21
-123.984
0
LINE
8
BLACK
6
CONTINUOUS
10
174.939
20
-123.984
11
174.886
21
-124.134
0
LINE
8
BLACK
6
CONTINUOUS
10
174.886
20
-124.134
11
174.801
21
-124.27
0
LINE
8
BLACK
6
CONTINUOUS
10
174.801
20
-124.27
11
174.689
21
-124.382
0
LINE
8
BLACK
6
CONTINUOUS
10
174.689
20
-124.382
11
174.553
21
-124.467
0
LINE
8
BLACK
6
CONTINUOUS
10
174.553
20
-124.467
11
174.403
21
-124.52
0
LINE
8
BLACK
6
CONTINUOUS
10
174.403
20
-124.52
11
174.244
21
-124.538
0
LINE
8
BLACK
6
CONTINUOUS
10
174.244
20
-124.538
11
174.085
21
-124.52
0
LINE
8
BLACK
6
CONTINUOUS
10
174.085
20
-124.52
11
173.935
21
-124.467
0
LINE
8
BLACK
6
CONTINUOUS
10
173.935
20
-124.467
11
173.799
21
-124.382
0
LINE
8
BLACK
6
CONTINUOUS
10
173.799
20
-124.382
11
173.687
21
-124.27
0
LINE
8
BLACK
6
CONTINUOUS
10
173.687
20
-124.27
11
173.602
21
-124.134
0
LINE
8
BLACK
6
CONTINUOUS
10
173.602
20
-124.134
11
173.549
21
-123.984
0
LINE
8
BLACK
6
CONTINUOUS
10
173.549
20
-123.984
11
173.531
21
-123.825
0
LINE
8
BLACK
6
CONTINUOUS
10
173.531
20
-123.825
11
173.549
21
-123.666
0
LINE
8
BLACK
6
CONTINUOUS
10
173.549
20
-123.666
11
173.602
21
-123.516
0
LINE
8
BLACK
6
CONTINUOUS
10
173.602
20
-123.516
11
173.687
21
-123.38
0
LINE
8
BLACK
6
CONTINUOUS
10
173.687
20
-123.38
11
173.799
21
-123.268
0
LINE
8
BLACK
6
CONTINUOUS
10
173.799
20
-123.268
11
173.935
21
-123.183
0
LINE
8
BLACK
6
CONTINUOUS
10
173.935
20
-123.183
11
174.085
21
-123.13
0
LINE
8
BLACK
6
CONTINUOUS
10
174.085
20
-123.13
11
174.244
21
-123.112
0
LINE
8
BLACK
6
CONTINUOUS
10
174.244
20
-123.112
11
174.403
21
-123.13
0
LINE
8
BLACK
6
CONTINUOUS
10
166.783
20
-123.13
11
166.933
21
-123.183
0
LINE
8
BLACK
6
CONTINUOUS
10
166.933
20
-123.183
11
167.069
21
-123.268
0
LINE
8
BLACK
6
CONTINUOUS
10
167.069
20
-123.268
11
167.181
21
-123.38
0
LINE
8
BLACK
6
CONTINUOUS
10
167.181
20
-123.38
11
167.266
21
-123.516
0
LINE
8
BLACK
6
CONTINUOUS
10
167.266
20
-123.516
11
167.319
21
-123.666
0
LINE
8
BLACK
6
CONTINUOUS
10
167.319
20
-123.666
11
167.337
21
-123.825
0
LINE
8
BLACK
6
CONTINUOUS
10
167.337
20
-123.825
11
167.319
21
-123.984
0
LINE
8
BLACK
6
CONTINUOUS
10
167.319
20
-123.984
11
167.266
21
-124.134
0
LINE
8
BLACK
6
CONTINUOUS
10
167.266
20
-124.134
11
167.181
21
-124.27
0
LINE
8
BLACK
6
CONTINUOUS
10
167.181
20
-124.27
11
167.069
21
-124.382
0
LINE
8
BLACK
6
CONTINUOUS
10
167.069
20
-124.382
11
166.933
21
-124.467
0
LINE
8
BLACK
6
CONTINUOUS
10
166.933
20
-124.467
11
166.783
21
-124.52
0
LINE
8
BLACK
6
CONTINUOUS
10
166.783
20
-124.52
11
166.624
21
-124.538
0
LINE
8
BLACK
6
CONTINUOUS
10
166.624
20
-124.538
11
166.465
21
-124.52
0
LINE
8
BLACK
6
CONTINUOUS
10
166.465
20
-124.52
11
166.315
21
-124.467
0
LINE
8
BLACK
6
CONTINUOUS
10
166.315
20
-124.467
11
166.179
21
-124.382
0
LINE
8
BLACK
6
CONTINUOUS
10
166.179
20
-124.382
11
166.067
21
-124.27
0
LINE
8
BLACK
6
CONTINUOUS
10
166.067
20
-124.27
11
165.982
21
-124.134
0
LINE
8
BLACK
6
CONTINUOUS
10
165.982
20
-124.134
11
165.929
21
-123.984
0
LINE
8
BLACK
6
CONTINUOUS
10
165.929
20
-123.984
11
165.911
21
-123.825
0
LINE
8
BLACK
6
CONTINUOUS
10
165.911
20
-123.825
11
165.929
21
-123.666
0
LINE
8
BLACK
6
CONTINUOUS
10
165.929
20
-123.666
11
165.982
21
-123.516
0
LINE
8
BLACK
6
CONTINUOUS
10
165.982
20
-123.516
11
166.067
21
-123.38
0
LINE
8
BLACK
6
CONTINUOUS
10
166.067
20
-123.38
11
166.179
21
-123.268
0
LINE
8
BLACK
6
CONTINUOUS
10
166.179
20
-123.268
11
166.315
21
-123.183
0
LINE
8
BLACK
6
CONTINUOUS
10
166.315
20
-123.183
11
166.465
21
-123.13
0
LINE
8
BLACK
6
CONTINUOUS
10
166.465
20
-123.13
11
166.624
21
-123.112
0
LINE
8
BLACK
6
CONTINUOUS
10
166.624
20
-123.112
11
166.783
21
-123.13
0
LINE
8
BLACK
6
CONTINUOUS
10
164.157
20
-120.509
11
162.457
21
-120.509
0
LINE
8
BLACK
6
CONTINUOUS
10
162.457
20
-120.509
11
162.457
21
-118.809
0
LINE
8
BLACK
6
CONTINUOUS
10
162.457
20
-118.809
11
164.157
21
-118.809
0
LINE
8
BLACK
6
CONTINUOUS
10
164.157
20
-118.809
11
164.157
21
-120.509
0
LINE
8
BLACK
6
CONTINUOUS
10
158.49
20
-118.851
11
158.652
21
-118.923
0
LINE
8
BLACK
6
CONTINUOUS
10
158.652
20
-118.923
11
158.796
21
-119.027
0
LINE
8
BLACK
6
CONTINUOUS
10
158.796
20
-119.027
11
158.915
21
-119.159
0
LINE
8
BLACK
6
CONTINUOUS
10
158.915
20
-119.159
11
159.004
21
-119.313
0
LINE
8
BLACK
6
CONTINUOUS
10
159.004
20
-119.313
11
159.058
21
-119.482
0
LINE
8
BLACK
6
CONTINUOUS
10
159.058
20
-119.482
11
159.077
21
-119.659
0
LINE
8
BLACK
6
CONTINUOUS
10
159.077
20
-119.659
11
159.058
21
-119.836
0
LINE
8
BLACK
6
CONTINUOUS
10
159.058
20
-119.836
11
159.004
21
-120.005
0
LINE
8
BLACK
6
CONTINUOUS
10
159.004
20
-120.005
11
158.915
21
-120.159
0
LINE
8
BLACK
6
CONTINUOUS
10
158.915
20
-120.159
11
158.796
21
-120.291
0
LINE
8
BLACK
6
CONTINUOUS
10
158.796
20
-120.291
11
158.652
21
-120.395
0
LINE
8
BLACK
6
CONTINUOUS
10
158.652
20
-120.395
11
158.49
21
-120.467
0
LINE
8
BLACK
6
CONTINUOUS
10
158.49
20
-120.467
11
158.316
21
-120.504
0
LINE
8
BLACK
6
CONTINUOUS
10
158.316
20
-120.504
11
158.138
21
-120.504
0
LINE
8
BLACK
6
CONTINUOUS
10
158.138
20
-120.504
11
157.964
21
-120.467
0
LINE
8
BLACK
6
CONTINUOUS
10
157.964
20
-120.467
11
157.802
21
-120.395
0
LINE
8
BLACK
6
CONTINUOUS
10
157.802
20
-120.395
11
157.658
21
-120.291
0
LINE
8
BLACK
6
CONTINUOUS
10
157.658
20
-120.291
11
157.539
21
-120.159
0
LINE
8
BLACK
6
CONTINUOUS
10
157.539
20
-120.159
11
157.45
21
-120.005
0
LINE
8
BLACK
6
CONTINUOUS
10
157.45
20
-120.005
11
157.396
21
-119.836
0
LINE
8
BLACK
6
CONTINUOUS
10
157.396
20
-119.836
11
157.377
21
-119.659
0
LINE
8
BLACK
6
CONTINUOUS
10
157.377
20
-119.659
11
157.396
21
-119.482
0
LINE
8
BLACK
6
CONTINUOUS
10
157.396
20
-119.482
11
157.45
21
-119.313
0
LINE
8
BLACK
6
CONTINUOUS
10
157.45
20
-119.313
11
157.539
21
-119.159
0
LINE
8
BLACK
6
CONTINUOUS
10
157.539
20
-119.159
11
157.658
21
-119.027
0
LINE
8
BLACK
6
CONTINUOUS
10
157.658
20
-119.027
11
157.802
21
-118.923
0
LINE
8
BLACK
6
CONTINUOUS
10
157.802
20
-118.923
11
157.964
21
-118.851
0
LINE
8
BLACK
6
CONTINUOUS
10
157.964
20
-118.851
11
158.138
21
-118.814
0
LINE
8
BLACK
6
CONTINUOUS
10
158.138
20
-118.814
11
158.316
21
-118.814
0
LINE
8
BLACK
6
CONTINUOUS
10
158.316
20
-118.814
11
158.49
21
-118.851
0
LINE
8
BLACK
6
CONTINUOUS
10
161.03
20
-118.851
11
161.192
21
-118.923
0
LINE
8
BLACK
6
CONTINUOUS
10
161.192
20
-118.923
11
161.336
21
-119.027
0
LINE
8
BLACK
6
CONTINUOUS
10
161.336
20
-119.027
11
161.455
21
-119.159
0
LINE
8
BLACK
6
CONTINUOUS
10
161.455
20
-119.159
11
161.544
21
-119.313
0
LINE
8
BLACK
6
CONTINUOUS
10
161.544
20
-119.313
11
161.598
21
-119.482
0
LINE
8
BLACK
6
CONTINUOUS
10
161.598
20
-119.482
11
161.617
21
-119.659
0
LINE
8
BLACK
6
CONTINUOUS
10
161.617
20
-119.659
11
161.598
21
-119.836
0
LINE
8
BLACK
6
CONTINUOUS
10
161.598
20
-119.836
11
161.544
21
-120.005
0
LINE
8
BLACK
6
CONTINUOUS
10
161.544
20
-120.005
11
161.455
21
-120.159
0
LINE
8
BLACK
6
CONTINUOUS
10
161.455
20
-120.159
11
161.336
21
-120.291
0
LINE
8
BLACK
6
CONTINUOUS
10
161.336
20
-120.291
11
161.192
21
-120.395
0
LINE
8
BLACK
6
CONTINUOUS
10
161.192
20
-120.395
11
161.03
21
-120.467
0
LINE
8
BLACK
6
CONTINUOUS
10
161.03
20
-120.467
11
160.856
21
-120.504
0
LINE
8
BLACK
6
CONTINUOUS
10
160.856
20
-120.504
11
160.678
21
-120.504
0
LINE
8
BLACK
6
CONTINUOUS
10
160.678
20
-120.504
11
160.504
21
-120.467
0
LINE
8
BLACK
6
CONTINUOUS
10
160.504
20
-120.467
11
160.342
21
-120.395
0
LINE
8
BLACK
6
CONTINUOUS
10
160.342
20
-120.395
11
160.198
21
-120.291
0
LINE
8
BLACK
6
CONTINUOUS
10
160.198
20
-120.291
11
160.079
21
-120.159
0
LINE
8
BLACK
6
CONTINUOUS
10
160.079
20
-120.159
11
159.99
21
-120.005
0
LINE
8
BLACK
6
CONTINUOUS
10
159.99
20
-120.005
11
159.936
21
-119.836
0
LINE
8
BLACK
6
CONTINUOUS
10
159.936
20
-119.836
11
159.917
21
-119.659
0
LINE
8
BLACK
6
CONTINUOUS
10
159.917
20
-119.659
11
159.936
21
-119.482
0
LINE
8
BLACK
6
CONTINUOUS
10
159.936
20
-119.482
11
159.99
21
-119.313
0
LINE
8
BLACK
6
CONTINUOUS
10
159.99
20
-119.313
11
160.079
21
-119.159
0
LINE
8
BLACK
6
CONTINUOUS
10
160.079
20
-119.159
11
160.198
21
-119.027
0
LINE
8
BLACK
6
CONTINUOUS
10
160.198
20
-119.027
11
160.342
21
-118.923
0
LINE
8
BLACK
6
CONTINUOUS
10
160.342
20
-118.923
11
160.504
21
-118.851
0
LINE
8
BLACK
6
CONTINUOUS
10
160.504
20
-118.851
11
160.678
21
-118.814
0
LINE
8
BLACK
6
CONTINUOUS
10
160.678
20
-118.814
11
160.856
21
-118.814
0
LINE
8
BLACK
6
CONTINUOUS
10
160.856
20
-118.814
11
161.03
21
-118.851
0
LINE
8
BLACK
6
CONTINUOUS
10
154.535
20
-114.044
11
154.568
21
-114.066
0
LINE
8
BLACK
6
CONTINUOUS
10
154.568
20
-114.066
11
154.59
21
-114.099
0
LINE
8
BLACK
6
CONTINUOUS
10
154.59
20
-114.099
11
154.597
21
-114.138
0
LINE
8
BLACK
6
CONTINUOUS
10
154.597
20
-114.138
11
154.597
21
-115.789
0
LINE
8
BLACK
6
CONTINUOUS
10
154.597
20
-115.789
11
154.59
21
-115.829
0
LINE
8
BLACK
6
CONTINUOUS
10
154.59
20
-115.829
11
154.568
21
-115.862
0
LINE
8
BLACK
6
CONTINUOUS
10
154.568
20
-115.862
11
154.535
21
-115.884
0
LINE
8
BLACK
6
CONTINUOUS
10
154.535
20
-115.884
11
154.495
21
-115.891
0
LINE
8
BLACK
6
CONTINUOUS
10
154.495
20
-115.891
11
152.844
21
-115.891
0
LINE
8
BLACK
6
CONTINUOUS
10
152.844
20
-115.891
11
152.805
21
-115.884
0
LINE
8
BLACK
6
CONTINUOUS
10
152.805
20
-115.884
11
152.772
21
-115.862
0
LINE
8
BLACK
6
CONTINUOUS
10
152.772
20
-115.862
11
152.75
21
-115.829
0
LINE
8
BLACK
6
CONTINUOUS
10
152.75
20
-115.829
11
152.743
21
-115.789
0
LINE
8
BLACK
6
CONTINUOUS
10
152.743
20
-115.789
11
152.743
21
-114.138
0
LINE
8
BLACK
6
CONTINUOUS
10
152.743
20
-114.138
11
152.75
21
-114.099
0
LINE
8
BLACK
6
CONTINUOUS
10
152.75
20
-114.099
11
152.772
21
-114.066
0
LINE
8
BLACK
6
CONTINUOUS
10
152.772
20
-114.066
11
152.805
21
-114.044
0
LINE
8
BLACK
6
CONTINUOUS
10
152.805
20
-114.044
11
152.844
21
-114.036
0
LINE
8
BLACK
6
CONTINUOUS
10
152.844
20
-114.036
11
154.495
21
-114.036
0
LINE
8
BLACK
6
CONTINUOUS
10
154.495
20
-114.036
11
154.535
21
-114.044
0
LINE
8
BLACK
6
CONTINUOUS
10
146.337
20
-114.082
11
146.514
21
-114.161
0
LINE
8
BLACK
6
CONTINUOUS
10
146.514
20
-114.161
11
146.671
21
-114.275
0
LINE
8
BLACK
6
CONTINUOUS
10
146.671
20
-114.275
11
146.8
21
-114.419
0
LINE
8
BLACK
6
CONTINUOUS
10
146.8
20
-114.419
11
146.897
21
-114.587
0
LINE
8
BLACK
6
CONTINUOUS
10
146.897
20
-114.587
11
146.957
21
-114.771
0
LINE
8
BLACK
6
CONTINUOUS
10
146.957
20
-114.771
11
146.977
21
-114.964
0
LINE
8
BLACK
6
CONTINUOUS
10
146.977
20
-114.964
11
146.957
21
-115.157
0
LINE
8
BLACK
6
CONTINUOUS
10
146.957
20
-115.157
11
146.897
21
-115.341
0
LINE
8
BLACK
6
CONTINUOUS
10
146.897
20
-115.341
11
146.8
21
-115.509
0
LINE
8
BLACK
6
CONTINUOUS
10
146.8
20
-115.509
11
146.671
21
-115.653
0
LINE
8
BLACK
6
CONTINUOUS
10
146.671
20
-115.653
11
146.514
21
-115.767
0
LINE
8
BLACK
6
CONTINUOUS
10
146.514
20
-115.767
11
146.337
21
-115.846
0
LINE
8
BLACK
6
CONTINUOUS
10
146.337
20
-115.846
11
146.147
21
-115.886
0
LINE
8
BLACK
6
CONTINUOUS
10
146.147
20
-115.886
11
145.953
21
-115.886
0
LINE
8
BLACK
6
CONTINUOUS
10
145.953
20
-115.886
11
145.763
21
-115.846
0
LINE
8
BLACK
6
CONTINUOUS
10
145.763
20
-115.846
11
145.586
21
-115.767
0
LINE
8
BLACK
6
CONTINUOUS
10
145.586
20
-115.767
11
145.429
21
-115.653
0
LINE
8
BLACK
6
CONTINUOUS
10
145.429
20
-115.653
11
145.3
21
-115.509
0
LINE
8
BLACK
6
CONTINUOUS
10
145.3
20
-115.509
11
145.203
21
-115.341
0
LINE
8
BLACK
6
CONTINUOUS
10
145.203
20
-115.341
11
145.143
21
-115.157
0
LINE
8
BLACK
6
CONTINUOUS
10
145.143
20
-115.157
11
145.123
21
-114.964
0
LINE
8
BLACK
6
CONTINUOUS
10
145.123
20
-114.964
11
145.143
21
-114.771
0
LINE
8
BLACK
6
CONTINUOUS
10
145.143
20
-114.771
11
145.203
21
-114.587
0
LINE
8
BLACK
6
CONTINUOUS
10
145.203
20
-114.587
11
145.3
21
-114.419
0
LINE
8
BLACK
6
CONTINUOUS
10
145.3
20
-114.419
11
145.429
21
-114.275
0
LINE
8
BLACK
6
CONTINUOUS
10
145.429
20
-114.275
11
145.586
21
-114.161
0
LINE
8
BLACK
6
CONTINUOUS
10
145.586
20
-114.161
11
145.763
21
-114.082
0
LINE
8
BLACK
6
CONTINUOUS
10
145.763
20
-114.082
11
145.953
21
-114.042
0
LINE
8
BLACK
6
CONTINUOUS
10
145.953
20
-114.042
11
146.147
21
-114.042
0
LINE
8
BLACK
6
CONTINUOUS
10
146.147
20
-114.042
11
146.337
21
-114.082
0
LINE
8
BLACK
6
CONTINUOUS
10
148.877
20
-114.082
11
149.054
21
-114.161
0
LINE
8
BLACK
6
CONTINUOUS
10
149.054
20
-114.161
11
149.211
21
-114.275
0
LINE
8
BLACK
6
CONTINUOUS
10
149.211
20
-114.275
11
149.34
21
-114.419
0
LINE
8
BLACK
6
CONTINUOUS
10
149.34
20
-114.419
11
149.437
21
-114.587
0
LINE
8
BLACK
6
CONTINUOUS
10
149.437
20
-114.587
11
149.497
21
-114.771
0
LINE
8
BLACK
6
CONTINUOUS
10
149.497
20
-114.771
11
149.517
21
-114.964
0
LINE
8
BLACK
6
CONTINUOUS
10
149.517
20
-114.964
11
149.497
21
-115.157
0
LINE
8
BLACK
6
CONTINUOUS
10
149.497
20
-115.157
11
149.437
21
-115.341
0
LINE
8
BLACK
6
CONTINUOUS
10
149.437
20
-115.341
11
149.34
21
-115.509
0
LINE
8
BLACK
6
CONTINUOUS
10
149.34
20
-115.509
11
149.211
21
-115.653
0
LINE
8
BLACK
6
CONTINUOUS
10
149.211
20
-115.653
11
149.054
21
-115.767
0
LINE
8
BLACK
6
CONTINUOUS
10
149.054
20
-115.767
11
148.877
21
-115.846
0
LINE
8
BLACK
6
CONTINUOUS
10
148.877
20
-115.846
11
148.687
21
-115.886
0
LINE
8
BLACK
6
CONTINUOUS
10
148.687
20
-115.886
11
148.493
21
-115.886
0
LINE
8
BLACK
6
CONTINUOUS
10
148.493
20
-115.886
11
148.303
21
-115.846
0
LINE
8
BLACK
6
CONTINUOUS
10
148.303
20
-115.846
11
148.126
21
-115.767
0
LINE
8
BLACK
6
CONTINUOUS
10
148.126
20
-115.767
11
147.969
21
-115.653
0
LINE
8
BLACK
6
CONTINUOUS
10
147.969
20
-115.653
11
147.84
21
-115.509
0
LINE
8
BLACK
6
CONTINUOUS
10
147.84
20
-115.509
11
147.743
21
-115.341
0
LINE
8
BLACK
6
CONTINUOUS
10
147.743
20
-115.341
11
147.683
21
-115.157
0
LINE
8
BLACK
6
CONTINUOUS
10
147.683
20
-115.157
11
147.662
21
-114.964
0
LINE
8
BLACK
6
CONTINUOUS
10
147.662
20
-114.964
11
147.683
21
-114.771
0
LINE
8
BLACK
6
CONTINUOUS
10
147.683
20
-114.771
11
147.743
21
-114.587
0
LINE
8
BLACK
6
CONTINUOUS
10
147.743
20
-114.587
11
147.84
21
-114.419
0
LINE
8
BLACK
6
CONTINUOUS
10
147.84
20
-114.419
11
147.969
21
-114.275
0
LINE
8
BLACK
6
CONTINUOUS
10
147.969
20
-114.275
11
148.126
21
-114.161
0
LINE
8
BLACK
6
CONTINUOUS
10
148.126
20
-114.161
11
148.303
21
-114.082
0
LINE
8
BLACK
6
CONTINUOUS
10
148.303
20
-114.082
11
148.493
21
-114.042
0
LINE
8
BLACK
6
CONTINUOUS
10
148.493
20
-114.042
11
148.687
21
-114.042
0
LINE
8
BLACK
6
CONTINUOUS
10
148.687
20
-114.042
11
148.877
21
-114.082
0
LINE
8
BLACK
6
CONTINUOUS
10
151.417
20
-114.082
11
151.594
21
-114.161
0
LINE
8
BLACK
6
CONTINUOUS
10
151.594
20
-114.161
11
151.751
21
-114.275
0
LINE
8
BLACK
6
CONTINUOUS
10
151.751
20
-114.275
11
151.88
21
-114.419
0
LINE
8
BLACK
6
CONTINUOUS
10
151.88
20
-114.419
11
151.977
21
-114.587
0
LINE
8
BLACK
6
CONTINUOUS
10
151.977
20
-114.587
11
152.037
21
-114.771
0
LINE
8
BLACK
6
CONTINUOUS
10
152.037
20
-114.771
11
152.058
21
-114.964
0
LINE
8
BLACK
6
CONTINUOUS
10
152.058
20
-114.964
11
152.037
21
-115.157
0
LINE
8
BLACK
6
CONTINUOUS
10
152.037
20
-115.157
11
151.977
21
-115.341
0
LINE
8
BLACK
6
CONTINUOUS
10
151.977
20
-115.341
11
151.88
21
-115.509
0
LINE
8
BLACK
6
CONTINUOUS
10
151.88
20
-115.509
11
151.751
21
-115.653
0
LINE
8
BLACK
6
CONTINUOUS
10
151.751
20
-115.653
11
151.594
21
-115.767
0
LINE
8
BLACK
6
CONTINUOUS
10
151.594
20
-115.767
11
151.417
21
-115.846
0
LINE
8
BLACK
6
CONTINUOUS
10
151.417
20
-115.846
11
151.227
21
-115.886
0
LINE
8
BLACK
6
CONTINUOUS
10
151.227
20
-115.886
11
151.033
21
-115.886
0
LINE
8
BLACK
6
CONTINUOUS
10
151.033
20
-115.886
11
150.843
21
-115.846
0
LINE
8
BLACK
6
CONTINUOUS
10
150.843
20
-115.846
11
150.666
21
-115.767
0
LINE
8
BLACK
6
CONTINUOUS
10
150.666
20
-115.767
11
150.509
21
-115.653
0
LINE
8
BLACK
6
CONTINUOUS
10
150.509
20
-115.653
11
150.38
21
-115.509
0
LINE
8
BLACK
6
CONTINUOUS
10
150.38
20
-115.509
11
150.283
21
-115.341
0
LINE
8
BLACK
6
CONTINUOUS
10
150.283
20
-115.341
11
150.223
21
-115.157
0
LINE
8
BLACK
6
CONTINUOUS
10
150.223
20
-115.157
11
150.202
21
-114.964
0
LINE
8
BLACK
6
CONTINUOUS
10
150.202
20
-114.964
11
150.223
21
-114.771
0
LINE
8
BLACK
6
CONTINUOUS
10
150.223
20
-114.771
11
150.283
21
-114.587
0
LINE
8
BLACK
6
CONTINUOUS
10
150.283
20
-114.587
11
150.38
21
-114.419
0
LINE
8
BLACK
6
CONTINUOUS
10
150.38
20
-114.419
11
150.509
21
-114.275
0
LINE
8
BLACK
6
CONTINUOUS
10
150.509
20
-114.275
11
150.666
21
-114.161
0
LINE
8
BLACK
6
CONTINUOUS
10
150.666
20
-114.161
11
150.843
21
-114.082
0
LINE
8
BLACK
6
CONTINUOUS
10
150.843
20
-114.082
11
151.033
21
-114.042
0
LINE
8
BLACK
6
CONTINUOUS
10
151.033
20
-114.042
11
151.227
21
-114.042
0
LINE
8
BLACK
6
CONTINUOUS
10
151.227
20
-114.042
11
151.417
21
-114.082
0
LINE
8
BLACK
6
CONTINUOUS
10
150.03
20
-110.255
11
150.191
21
-110.311
0
LINE
8
BLACK
6
CONTINUOUS
10
150.191
20
-110.311
11
150.335
21
-110.402
0
LINE
8
BLACK
6
CONTINUOUS
10
150.335
20
-110.402
11
150.456
21
-110.523
0
LINE
8
BLACK
6
CONTINUOUS
10
150.456
20
-110.523
11
150.547
21
-110.667
0
LINE
8
BLACK
6
CONTINUOUS
10
150.547
20
-110.667
11
150.603
21
-110.828
0
LINE
8
BLACK
6
CONTINUOUS
10
150.603
20
-110.828
11
150.622
21
-110.998
0
LINE
8
BLACK
6
CONTINUOUS
10
150.622
20
-110.998
11
150.603
21
-111.168
0
LINE
8
BLACK
6
CONTINUOUS
10
150.603
20
-111.168
11
150.547
21
-111.329
0
LINE
8
BLACK
6
CONTINUOUS
10
150.547
20
-111.329
11
150.456
21
-111.473
0
LINE
8
BLACK
6
CONTINUOUS
10
150.456
20
-111.473
11
150.335
21
-111.594
0
LINE
8
BLACK
6
CONTINUOUS
10
150.335
20
-111.594
11
150.191
21
-111.685
0
LINE
8
BLACK
6
CONTINUOUS
10
150.191
20
-111.685
11
150.03
21
-111.741
0
LINE
8
BLACK
6
CONTINUOUS
10
150.03
20
-111.741
11
149.86
21
-111.76
0
LINE
8
BLACK
6
CONTINUOUS
10
149.86
20
-111.76
11
149.69
21
-111.741
0
LINE
8
BLACK
6
CONTINUOUS
10
149.69
20
-111.741
11
149.529
21
-111.685
0
LINE
8
BLACK
6
CONTINUOUS
10
149.529
20
-111.685
11
149.385
21
-111.594
0
LINE
8
BLACK
6
CONTINUOUS
10
149.385
20
-111.594
11
149.264
21
-111.473
0
LINE
8
BLACK
6
CONTINUOUS
10
149.264
20
-111.473
11
149.173
21
-111.329
0
LINE
8
BLACK
6
CONTINUOUS
10
149.173
20
-111.329
11
149.117
21
-111.168
0
LINE
8
BLACK
6
CONTINUOUS
10
149.117
20
-111.168
11
149.098
21
-110.998
0
LINE
8
BLACK
6
CONTINUOUS
10
149.098
20
-110.998
11
149.117
21
-110.828
0
LINE
8
BLACK
6
CONTINUOUS
10
149.117
20
-110.828
11
149.173
21
-110.667
0
LINE
8
BLACK
6
CONTINUOUS
10
149.173
20
-110.667
11
149.264
21
-110.523
0
LINE
8
BLACK
6
CONTINUOUS
10
149.264
20
-110.523
11
149.385
21
-110.402
0
LINE
8
BLACK
6
CONTINUOUS
10
149.385
20
-110.402
11
149.529
21
-110.311
0
LINE
8
BLACK
6
CONTINUOUS
10
149.529
20
-110.311
11
149.69
21
-110.255
0
LINE
8
BLACK
6
CONTINUOUS
10
149.69
20
-110.255
11
149.86
21
-110.236
0
LINE
8
BLACK
6
CONTINUOUS
10
149.86
20
-110.236
11
150.03
21
-110.255
0
LINE
8
BLACK
6
CONTINUOUS
10
147.49
20
-107.715
11
147.651
21
-107.771
0
LINE
8
BLACK
6
CONTINUOUS
10
147.651
20
-107.771
11
147.795
21
-107.862
0
LINE
8
BLACK
6
CONTINUOUS
10
147.795
20
-107.862
11
147.916
21
-107.983
0
LINE
8
BLACK
6
CONTINUOUS
10
147.916
20
-107.983
11
148.007
21
-108.127
0
LINE
8
BLACK
6
CONTINUOUS
10
148.007
20
-108.127
11
148.063
21
-108.288
0
LINE
8
BLACK
6
CONTINUOUS
10
148.063
20
-108.288
11
148.082
21
-108.458
0
LINE
8
BLACK
6
CONTINUOUS
10
148.082
20
-108.458
11
148.063
21
-108.628
0
LINE
8
BLACK
6
CONTINUOUS
10
148.063
20
-108.628
11
148.007
21
-108.789
0
LINE
8
BLACK
6
CONTINUOUS
10
148.007
20
-108.789
11
147.916
21
-108.933
0
LINE
8
BLACK
6
CONTINUOUS
10
147.916
20
-108.933
11
147.795
21
-109.054
0
LINE
8
BLACK
6
CONTINUOUS
10
147.795
20
-109.054
11
147.651
21
-109.145
0
LINE
8
BLACK
6
CONTINUOUS
10
147.651
20
-109.145
11
147.49
21
-109.201
0
LINE
8
BLACK
6
CONTINUOUS
10
147.49
20
-109.201
11
147.32
21
-109.22
0
LINE
8
BLACK
6
CONTINUOUS
10
147.32
20
-109.22
11
147.15
21
-109.201
0
LINE
8
BLACK
6
CONTINUOUS
10
147.15
20
-109.201
11
146.989
21
-109.145
0
LINE
8
BLACK
6
CONTINUOUS
10
146.989
20
-109.145
11
146.845
21
-109.054
0
LINE
8
BLACK
6
CONTINUOUS
10
146.845
20
-109.054
11
146.724
21
-108.933
0
LINE
8
BLACK
6
CONTINUOUS
10
146.724
20
-108.933
11
146.633
21
-108.789
0
LINE
8
BLACK
6
CONTINUOUS
10
146.633
20
-108.789
11
146.577
21
-108.628
0
LINE
8
BLACK
6
CONTINUOUS
10
146.577
20
-108.628
11
146.558
21
-108.458
0
LINE
8
BLACK
6
CONTINUOUS
10
146.558
20
-108.458
11
146.577
21
-108.288
0
LINE
8
BLACK
6
CONTINUOUS
10
146.577
20
-108.288
11
146.633
21
-108.127
0
LINE
8
BLACK
6
CONTINUOUS
10
146.633
20
-108.127
11
146.724
21
-107.983
0
LINE
8
BLACK
6
CONTINUOUS
10
146.724
20
-107.983
11
146.845
21
-107.862
0
LINE
8
BLACK
6
CONTINUOUS
10
146.845
20
-107.862
11
146.989
21
-107.771
0
LINE
8
BLACK
6
CONTINUOUS
10
146.989
20
-107.771
11
147.15
21
-107.715
0
LINE
8
BLACK
6
CONTINUOUS
10
147.15
20
-107.715
11
147.32
21
-107.696
0
LINE
8
BLACK
6
CONTINUOUS
10
147.32
20
-107.696
11
147.49
21
-107.715
0
LINE
8
BLACK
6
CONTINUOUS
10
152.57
20
-107.715
11
152.731
21
-107.771
0
LINE
8
BLACK
6
CONTINUOUS
10
152.731
20
-107.771
11
152.875
21
-107.862
0
LINE
8
BLACK
6
CONTINUOUS
10
152.875
20
-107.862
11
152.996
21
-107.983
0
LINE
8
BLACK
6
CONTINUOUS
10
152.996
20
-107.983
11
153.087
21
-108.127
0
LINE
8
BLACK
6
CONTINUOUS
10
153.087
20
-108.127
11
153.143
21
-108.288
0
LINE
8
BLACK
6
CONTINUOUS
10
153.143
20
-108.288
11
153.162
21
-108.458
0
LINE
8
BLACK
6
CONTINUOUS
10
153.162
20
-108.458
11
153.143
21
-108.628
0
LINE
8
BLACK
6
CONTINUOUS
10
153.143
20
-108.628
11
153.087
21
-108.789
0
LINE
8
BLACK
6
CONTINUOUS
10
153.087
20
-108.789
11
152.996
21
-108.933
0
LINE
8
BLACK
6
CONTINUOUS
10
152.996
20
-108.933
11
152.875
21
-109.054
0
LINE
8
BLACK
6
CONTINUOUS
10
152.875
20
-109.054
11
152.731
21
-109.145
0
LINE
8
BLACK
6
CONTINUOUS
10
152.731
20
-109.145
11
152.57
21
-109.201
0
LINE
8
BLACK
6
CONTINUOUS
10
152.57
20
-109.201
11
152.4
21
-109.22
0
LINE
8
BLACK
6
CONTINUOUS
10
152.4
20
-109.22
11
152.23
21
-109.201
0
LINE
8
BLACK
6
CONTINUOUS
10
152.23
20
-109.201
11
152.069
21
-109.145
0
LINE
8
BLACK
6
CONTINUOUS
10
152.069
20
-109.145
11
151.925
21
-109.054
0
LINE
8
BLACK
6
CONTINUOUS
10
151.925
20
-109.054
11
151.804
21
-108.933
0
LINE
8
BLACK
6
CONTINUOUS
10
151.804
20
-108.933
11
151.713
21
-108.789
0
LINE
8
BLACK
6
CONTINUOUS
10
151.713
20
-108.789
11
151.657
21
-108.628
0
LINE
8
BLACK
6
CONTINUOUS
10
151.657
20
-108.628
11
151.638
21
-108.458
0
LINE
8
BLACK
6
CONTINUOUS
10
151.638
20
-108.458
11
151.657
21
-108.288
0
LINE
8
BLACK
6
CONTINUOUS
10
151.657
20
-108.288
11
151.713
21
-108.127
0
LINE
8
BLACK
6
CONTINUOUS
10
151.713
20
-108.127
11
151.804
21
-107.983
0
LINE
8
BLACK
6
CONTINUOUS
10
151.804
20
-107.983
11
151.925
21
-107.862
0
LINE
8
BLACK
6
CONTINUOUS
10
151.925
20
-107.862
11
152.069
21
-107.771
0
LINE
8
BLACK
6
CONTINUOUS
10
152.069
20
-107.771
11
152.23
21
-107.715
0
LINE
8
BLACK
6
CONTINUOUS
10
152.23
20
-107.715
11
152.4
21
-107.696
0
LINE
8
BLACK
6
CONTINUOUS
10
152.4
20
-107.696
11
152.57
21
-107.715
0
LINE
8
BLACK
6
CONTINUOUS
10
146.695
20
-94.9622
11
146.883
21
-95.0191
0
LINE
8
BLACK
6
CONTINUOUS
10
146.883
20
-95.0191
11
147.056
21
-95.1115
0
LINE
8
BLACK
6
CONTINUOUS
10
147.056
20
-95.1115
11
147.207
21
-95.2359
0
LINE
8
BLACK
6
CONTINUOUS
10
147.207
20
-95.2359
11
147.331
21
-95.3874
0
LINE
8
BLACK
6
CONTINUOUS
10
147.331
20
-95.3874
11
147.424
21
-95.5603
0
LINE
8
BLACK
6
CONTINUOUS
10
147.424
20
-95.5603
11
147.481
21
-95.7479
0
LINE
8
BLACK
6
CONTINUOUS
10
147.481
20
-95.7479
11
147.5
21
-95.943
0
LINE
8
BLACK
6
CONTINUOUS
10
147.5
20
-95.943
11
147.481
21
-96.1381
0
LINE
8
BLACK
6
CONTINUOUS
10
147.481
20
-96.1381
11
147.424
21
-96.3257
0
LINE
8
BLACK
6
CONTINUOUS
10
147.424
20
-96.3257
11
147.331
21
-96.4986
0
LINE
8
BLACK
6
CONTINUOUS
10
147.331
20
-96.4986
11
147.207
21
-96.6501
0
LINE
8
BLACK
6
CONTINUOUS
10
147.207
20
-96.6501
11
147.056
21
-96.7745
0
LINE
8
BLACK
6
CONTINUOUS
10
147.056
20
-96.7745
11
146.883
21
-96.8669
0
LINE
8
BLACK
6
CONTINUOUS
10
146.883
20
-96.8669
11
146.695
21
-96.9238
0
LINE
8
BLACK
6
CONTINUOUS
10
146.695
20
-96.9238
11
146.5
21
-96.943
0
LINE
8
BLACK
6
CONTINUOUS
10
146.5
20
-96.943
11
146.305
21
-96.9238
0
LINE
8
BLACK
6
CONTINUOUS
10
146.305
20
-96.9238
11
146.117
21
-96.8669
0
LINE
8
BLACK
6
CONTINUOUS
10
146.117
20
-96.8669
11
145.944
21
-96.7745
0
LINE
8
BLACK
6
CONTINUOUS
10
145.944
20
-96.7745
11
145.793
21
-96.6501
0
LINE
8
BLACK
6
CONTINUOUS
10
145.793
20
-96.6501
11
145.669
21
-96.4986
0
LINE
8
BLACK
6
CONTINUOUS
10
145.669
20
-96.4986
11
145.576
21
-96.3257
0
LINE
8
BLACK
6
CONTINUOUS
10
145.576
20
-96.3257
11
145.519
21
-96.1381
0
LINE
8
BLACK
6
CONTINUOUS
10
145.519
20
-96.1381
11
145.5
21
-95.943
0
LINE
8
BLACK
6
CONTINUOUS
10
145.5
20
-95.943
11
145.519
21
-95.7479
0
LINE
8
BLACK
6
CONTINUOUS
10
145.519
20
-95.7479
11
145.576
21
-95.5603
0
LINE
8
BLACK
6
CONTINUOUS
10
145.576
20
-95.5603
11
145.669
21
-95.3874
0
LINE
8
BLACK
6
CONTINUOUS
10
145.669
20
-95.3874
11
145.793
21
-95.2359
0
LINE
8
BLACK
6
CONTINUOUS
10
145.793
20
-95.2359
11
145.944
21
-95.1115
0
LINE
8
BLACK
6
CONTINUOUS
10
145.944
20
-95.1115
11
146.117
21
-95.0191
0
LINE
8
BLACK
6
CONTINUOUS
10
146.117
20
-95.0191
11
146.305
21
-94.9622
0
LINE
8
BLACK
6
CONTINUOUS
10
146.305
20
-94.9622
11
146.5
21
-94.943
0
LINE
8
BLACK
6
CONTINUOUS
10
146.5
20
-94.943
11
146.695
21
-94.9622
0
LINE
8
BLACK
6
CONTINUOUS
10
153.415
20
-94.9622
11
153.603
21
-95.0191
0
LINE
8
BLACK
6
CONTINUOUS
10
153.603
20
-95.0191
11
153.776
21
-95.1115
0
LINE
8
BLACK
6
CONTINUOUS
10
153.776
20
-95.1115
11
153.927
21
-95.2359
0
LINE
8
BLACK
6
CONTINUOUS
10
153.927
20
-95.2359
11
154.051
21
-95.3874
0
LINE
8
BLACK
6
CONTINUOUS
10
154.051
20
-95.3874
11
154.144
21
-95.5603
0
LINE
8
BLACK
6
CONTINUOUS
10
154.144
20
-95.5603
11
154.201
21
-95.7479
0
LINE
8
BLACK
6
CONTINUOUS
10
154.201
20
-95.7479
11
154.22
21
-95.943
0
LINE
8
BLACK
6
CONTINUOUS
10
154.22
20
-95.943
11
154.201
21
-96.1381
0
LINE
8
BLACK
6
CONTINUOUS
10
154.201
20
-96.1381
11
154.144
21
-96.3257
0
LINE
8
BLACK
6
CONTINUOUS
10
154.144
20
-96.3257
11
154.051
21
-96.4986
0
LINE
8
BLACK
6
CONTINUOUS
10
154.051
20
-96.4986
11
153.927
21
-96.6501
0
LINE
8
BLACK
6
CONTINUOUS
10
153.927
20
-96.6501
11
153.776
21
-96.7745
0
LINE
8
BLACK
6
CONTINUOUS
10
153.776
20
-96.7745
11
153.603
21
-96.8669
0
LINE
8
BLACK
6
CONTINUOUS
10
153.603
20
-96.8669
11
153.415
21
-96.9238
0
LINE
8
BLACK
6
CONTINUOUS
10
153.415
20
-96.9238
11
153.22
21
-96.943
0
LINE
8
BLACK
6
CONTINUOUS
10
153.22
20
-96.943
11
153.025
21
-96.9238
0
LINE
8
BLACK
6
CONTINUOUS
10
153.025
20
-96.9238
11
152.837
21
-96.8669
0
LINE
8
BLACK
6
CONTINUOUS
10
152.837
20
-96.8669
11
152.664
21
-96.7745
0
LINE
8
BLACK
6
CONTINUOUS
10
152.664
20
-96.7745
11
152.513
21
-96.6501
0
LINE
8
BLACK
6
CONTINUOUS
10
152.513
20
-96.6501
11
152.389
21
-96.4986
0
LINE
8
BLACK
6
CONTINUOUS
10
152.389
20
-96.4986
11
152.296
21
-96.3257
0
LINE
8
BLACK
6
CONTINUOUS
10
152.296
20
-96.3257
11
152.239
21
-96.1381
0
LINE
8
BLACK
6
CONTINUOUS
10
152.239
20
-96.1381
11
152.22
21
-95.943
0
LINE
8
BLACK
6
CONTINUOUS
10
152.22
20
-95.943
11
152.239
21
-95.7479
0
LINE
8
BLACK
6
CONTINUOUS
10
152.239
20
-95.7479
11
152.296
21
-95.5603
0
LINE
8
BLACK
6
CONTINUOUS
10
152.296
20
-95.5603
11
152.389
21
-95.3874
0
LINE
8
BLACK
6
CONTINUOUS
10
152.389
20
-95.3874
11
152.513
21
-95.2359
0
LINE
8
BLACK
6
CONTINUOUS
10
152.513
20
-95.2359
11
152.664
21
-95.1115
0
LINE
8
BLACK
6
CONTINUOUS
10
152.664
20
-95.1115
11
152.837
21
-95.0191
0
LINE
8
BLACK
6
CONTINUOUS
10
152.837
20
-95.0191
11
153.025
21
-94.9622
0
LINE
8
BLACK
6
CONTINUOUS
10
153.025
20
-94.9622
11
153.22
21
-94.943
0
LINE
8
BLACK
6
CONTINUOUS
10
153.22
20
-94.943
11
153.415
21
-94.9622
0
LINE
8
BLACK
6
CONTINUOUS
10
131.516
20
-95.2995
11
129.516
21
-95.2995
0
LINE
8
BLACK
6
CONTINUOUS
10
129.516
20
-95.2995
11
129.516
21
-92.9995
0
LINE
8
BLACK
6
CONTINUOUS
10
129.516
20
-92.9995
11
131.516
21
-92.9995
0
LINE
8
BLACK
6
CONTINUOUS
10
131.516
20
-92.9995
11
131.516
21
-95.2995
0
LINE
8
BLACK
6
CONTINUOUS
10
125.831
20
-93.0434
11
126.029
21
-93.1201
0
LINE
8
BLACK
6
CONTINUOUS
10
126.029
20
-93.1201
11
126.209
21
-93.2318
0
LINE
8
BLACK
6
CONTINUOUS
10
126.209
20
-93.2318
11
126.366
21
-93.3747
0
LINE
8
BLACK
6
CONTINUOUS
10
126.366
20
-93.3747
11
126.494
21
-93.5441
0
LINE
8
BLACK
6
CONTINUOUS
10
126.494
20
-93.5441
11
126.588
21
-93.7341
0
LINE
8
BLACK
6
CONTINUOUS
10
126.588
20
-93.7341
11
126.646
21
-93.9382
0
LINE
8
BLACK
6
CONTINUOUS
10
126.646
20
-93.9382
11
126.666
21
-94.1495
0
LINE
8
BLACK
6
CONTINUOUS
10
126.666
20
-94.1495
11
126.646
21
-94.3608
0
LINE
8
BLACK
6
CONTINUOUS
10
126.646
20
-94.3608
11
126.588
21
-94.5649
0
LINE
8
BLACK
6
CONTINUOUS
10
126.588
20
-94.5649
11
126.494
21
-94.7549
0
LINE
8
BLACK
6
CONTINUOUS
10
126.494
20
-94.7549
11
126.366
21
-94.9243
0
LINE
8
BLACK
6
CONTINUOUS
10
126.366
20
-94.9243
11
126.209
21
-95.0672
0
LINE
8
BLACK
6
CONTINUOUS
10
126.209
20
-95.0672
11
126.029
21
-95.1789
0
LINE
8
BLACK
6
CONTINUOUS
10
126.029
20
-95.1789
11
125.831
21
-95.2556
0
LINE
8
BLACK
6
CONTINUOUS
10
125.831
20
-95.2556
11
125.622
21
-95.2946
0
LINE
8
BLACK
6
CONTINUOUS
10
125.622
20
-95.2946
11
125.41
21
-95.2946
0
LINE
8
BLACK
6
CONTINUOUS
10
125.41
20
-95.2946
11
125.201
21
-95.2556
0
LINE
8
BLACK
6
CONTINUOUS
10
125.201
20
-95.2556
11
125.003
21
-95.1789
0
LINE
8
BLACK
6
CONTINUOUS
10
125.003
20
-95.1789
11
124.823
21
-95.0672
0
LINE
8
BLACK
6
CONTINUOUS
10
124.823
20
-95.0672
11
124.666
21
-94.9243
0
LINE
8
BLACK
6
CONTINUOUS
10
124.666
20
-94.9243
11
124.538
21
-94.7549
0
LINE
8
BLACK
6
CONTINUOUS
10
124.538
20
-94.7549
11
124.444
21
-94.5649
0
LINE
8
BLACK
6
CONTINUOUS
10
124.444
20
-94.5649
11
124.386
21
-94.3608
0
LINE
8
BLACK
6
CONTINUOUS
10
124.386
20
-94.3608
11
124.366
21
-94.1495
0
LINE
8
BLACK
6
CONTINUOUS
10
124.366
20
-94.1495
11
124.386
21
-93.9382
0
LINE
8
BLACK
6
CONTINUOUS
10
124.386
20
-93.9382
11
124.444
21
-93.7341
0
LINE
8
BLACK
6
CONTINUOUS
10
124.444
20
-93.7341
11
124.538
21
-93.5441
0
LINE
8
BLACK
6
CONTINUOUS
10
124.538
20
-93.5441
11
124.666
21
-93.3747
0
LINE
8
BLACK
6
CONTINUOUS
10
124.666
20
-93.3747
11
124.823
21
-93.2318
0
LINE
8
BLACK
6
CONTINUOUS
10
124.823
20
-93.2318
11
125.003
21
-93.1201
0
LINE
8
BLACK
6
CONTINUOUS
10
125.003
20
-93.1201
11
125.201
21
-93.0434
0
LINE
8
BLACK
6
CONTINUOUS
10
125.201
20
-93.0434
11
125.41
21
-93.0044
0
LINE
8
BLACK
6
CONTINUOUS
10
125.41
20
-93.0044
11
125.622
21
-93.0044
0
LINE
8
BLACK
6
CONTINUOUS
10
125.622
20
-93.0044
11
125.831
21
-93.0434
0
LINE
8
BLACK
6
CONTINUOUS
10
115.077
20
-91.227
11
115.288
21
-91.2834
0
LINE
8
BLACK
6
CONTINUOUS
10
115.288
20
-91.2834
11
115.485
21
-91.3755
0
LINE
8
BLACK
6
CONTINUOUS
10
115.485
20
-91.3755
11
115.663
21
-91.5004
0
LINE
8
BLACK
6
CONTINUOUS
10
115.663
20
-91.5004
11
115.818
21
-91.6545
0
LINE
8
BLACK
6
CONTINUOUS
10
115.818
20
-91.6545
11
115.943
21
-91.833
0
LINE
8
BLACK
6
CONTINUOUS
10
115.943
20
-91.833
11
116.035
21
-92.0305
0
LINE
8
BLACK
6
CONTINUOUS
10
116.035
20
-92.0305
11
116.091
21
-92.2409
0
LINE
8
BLACK
6
CONTINUOUS
10
116.091
20
-92.2409
11
116.11
21
-92.458
0
LINE
8
BLACK
6
CONTINUOUS
10
116.11
20
-92.458
11
116.091
21
-92.6751
0
LINE
8
BLACK
6
CONTINUOUS
10
116.091
20
-92.6751
11
116.035
21
-92.8855
0
LINE
8
BLACK
6
CONTINUOUS
10
116.035
20
-92.8855
11
115.943
21
-93.083
0
LINE
8
BLACK
6
CONTINUOUS
10
115.943
20
-93.083
11
115.818
21
-93.2615
0
LINE
8
BLACK
6
CONTINUOUS
10
115.818
20
-93.2615
11
115.663
21
-93.4156
0
LINE
8
BLACK
6
CONTINUOUS
10
115.663
20
-93.4156
11
115.485
21
-93.5405
0
LINE
8
BLACK
6
CONTINUOUS
10
115.485
20
-93.5405
11
115.288
21
-93.6326
0
LINE
8
BLACK
6
CONTINUOUS
10
115.288
20
-93.6326
11
115.077
21
-93.689
0
LINE
8
BLACK
6
CONTINUOUS
10
115.077
20
-93.689
11
114.86
21
-93.708
0
LINE
8
BLACK
6
CONTINUOUS
10
114.86
20
-93.708
11
114.643
21
-93.689
0
LINE
8
BLACK
6
CONTINUOUS
10
114.643
20
-93.689
11
114.432
21
-93.6326
0
LINE
8
BLACK
6
CONTINUOUS
10
114.432
20
-93.6326
11
114.235
21
-93.5405
0
LINE
8
BLACK
6
CONTINUOUS
10
114.235
20
-93.5405
11
114.057
21
-93.4156
0
LINE
8
BLACK
6
CONTINUOUS
10
114.057
20
-93.4156
11
113.902
21
-93.2615
0
LINE
8
BLACK
6
CONTINUOUS
10
113.902
20
-93.2615
11
113.777
21
-93.083
0
LINE
8
BLACK
6
CONTINUOUS
10
113.777
20
-93.083
11
113.685
21
-92.8855
0
LINE
8
BLACK
6
CONTINUOUS
10
113.685
20
-92.8855
11
113.629
21
-92.6751
0
LINE
8
BLACK
6
CONTINUOUS
10
113.629
20
-92.6751
11
113.61
21
-92.458
0
LINE
8
BLACK
6
CONTINUOUS
10
113.61
20
-92.458
11
113.629
21
-92.2409
0
LINE
8
BLACK
6
CONTINUOUS
10
113.629
20
-92.2409
11
113.685
21
-92.0305
0
LINE
8
BLACK
6
CONTINUOUS
10
113.685
20
-92.0305
11
113.777
21
-91.833
0
LINE
8
BLACK
6
CONTINUOUS
10
113.777
20
-91.833
11
113.902
21
-91.6545
0
LINE
8
BLACK
6
CONTINUOUS
10
113.902
20
-91.6545
11
114.057
21
-91.5004
0
LINE
8
BLACK
6
CONTINUOUS
10
114.057
20
-91.5004
11
114.235
21
-91.3755
0
LINE
8
BLACK
6
CONTINUOUS
10
114.235
20
-91.3755
11
114.432
21
-91.2834
0
LINE
8
BLACK
6
CONTINUOUS
10
114.432
20
-91.2834
11
114.643
21
-91.227
0
LINE
8
BLACK
6
CONTINUOUS
10
114.643
20
-91.227
11
114.86
21
-91.208
0
LINE
8
BLACK
6
CONTINUOUS
10
114.86
20
-91.208
11
115.077
21
-91.227
0
LINE
8
BLACK
6
CONTINUOUS
10
185.077
20
-91.227
11
185.288
21
-91.2834
0
LINE
8
BLACK
6
CONTINUOUS
10
185.288
20
-91.2834
11
185.485
21
-91.3755
0
LINE
8
BLACK
6
CONTINUOUS
10
185.485
20
-91.3755
11
185.663
21
-91.5004
0
LINE
8
BLACK
6
CONTINUOUS
10
185.663
20
-91.5004
11
185.818
21
-91.6545
0
LINE
8
BLACK
6
CONTINUOUS
10
185.818
20
-91.6545
11
185.943
21
-91.833
0
LINE
8
BLACK
6
CONTINUOUS
10
185.943
20
-91.833
11
186.035
21
-92.0305
0
LINE
8
BLACK
6
CONTINUOUS
10
186.035
20
-92.0305
11
186.091
21
-92.2409
0
LINE
8
BLACK
6
CONTINUOUS
10
186.091
20
-92.2409
11
186.11
21
-92.458
0
LINE
8
BLACK
6
CONTINUOUS
10
186.11
20
-92.458
11
186.091
21
-92.6751
0
LINE
8
BLACK
6
CONTINUOUS
10
186.091
20
-92.6751
11
186.035
21
-92.8855
0
LINE
8
BLACK
6
CONTINUOUS
10
186.035
20
-92.8855
11
185.943
21
-93.083
0
LINE
8
BLACK
6
CONTINUOUS
10
185.943
20
-93.083
11
185.818
21
-93.2615
0
LINE
8
BLACK
6
CONTINUOUS
10
185.818
20
-93.2615
11
185.663
21
-93.4156
0
LINE
8
BLACK
6
CONTINUOUS
10
185.663
20
-93.4156
11
185.485
21
-93.5405
0
LINE
8
BLACK
6
CONTINUOUS
10
185.485
20
-93.5405
11
185.288
21
-93.6326
0
LINE
8
BLACK
6
CONTINUOUS
10
185.288
20
-93.6326
11
185.077
21
-93.689
0
LINE
8
BLACK
6
CONTINUOUS
10
185.077
20
-93.689
11
184.86
21
-93.708
0
LINE
8
BLACK
6
CONTINUOUS
10
184.86
20
-93.708
11
184.643
21
-93.689
0
LINE
8
BLACK
6
CONTINUOUS
10
184.643
20
-93.689
11
184.432
21
-93.6326
0
LINE
8
BLACK
6
CONTINUOUS
10
184.432
20
-93.6326
11
184.235
21
-93.5405
0
LINE
8
BLACK
6
CONTINUOUS
10
184.235
20
-93.5405
11
184.057
21
-93.4156
0
LINE
8
BLACK
6
CONTINUOUS
10
184.057
20
-93.4156
11
183.902
21
-93.2615
0
LINE
8
BLACK
6
CONTINUOUS
10
183.902
20
-93.2615
11
183.777
21
-93.083
0
LINE
8
BLACK
6
CONTINUOUS
10
183.777
20
-93.083
11
183.685
21
-92.8855
0
LINE
8
BLACK
6
CONTINUOUS
10
183.685
20
-92.8855
11
183.629
21
-92.6751
0
LINE
8
BLACK
6
CONTINUOUS
10
183.629
20
-92.6751
11
183.61
21
-92.458
0
LINE
8
BLACK
6
CONTINUOUS
10
183.61
20
-92.458
11
183.629
21
-92.2409
0
LINE
8
BLACK
6
CONTINUOUS
10
183.629
20
-92.2409
11
183.685
21
-92.0305
0
LINE
8
BLACK
6
CONTINUOUS
10
183.685
20
-92.0305
11
183.777
21
-91.833
0
LINE
8
BLACK
6
CONTINUOUS
10
183.777
20
-91.833
11
183.902
21
-91.6545
0
LINE
8
BLACK
6
CONTINUOUS
10
183.902
20
-91.6545
11
184.057
21
-91.5004
0
LINE
8
BLACK
6
CONTINUOUS
10
184.057
20
-91.5004
11
184.235
21
-91.3755
0
LINE
8
BLACK
6
CONTINUOUS
10
184.235
20
-91.3755
11
184.432
21
-91.2834
0
LINE
8
BLACK
6
CONTINUOUS
10
184.432
20
-91.2834
11
184.643
21
-91.227
0
LINE
8
BLACK
6
CONTINUOUS
10
184.643
20
-91.227
11
184.86
21
-91.208
0
LINE
8
BLACK
6
CONTINUOUS
10
184.86
20
-91.208
11
185.077
21
-91.227
0
LINE
8
BLACK
6
CONTINUOUS
10
145.305
20
-91.6022
11
145.493
21
-91.6591
0
LINE
8
BLACK
6
CONTINUOUS
10
145.493
20
-91.6591
11
145.666
21
-91.7515
0
LINE
8
BLACK
6
CONTINUOUS
10
145.666
20
-91.7515
11
145.817
21
-91.8759
0
LINE
8
BLACK
6
CONTINUOUS
10
145.817
20
-91.8759
11
145.941
21
-92.0274
0
LINE
8
BLACK
6
CONTINUOUS
10
145.941
20
-92.0274
11
146.034
21
-92.2003
0
LINE
8
BLACK
6
CONTINUOUS
10
146.034
20
-92.2003
11
146.091
21
-92.3879
0
LINE
8
BLACK
6
CONTINUOUS
10
146.091
20
-92.3879
11
146.11
21
-92.583
0
LINE
8
BLACK
6
CONTINUOUS
10
146.11
20
-92.583
11
146.091
21
-92.7781
0
LINE
8
BLACK
6
CONTINUOUS
10
146.091
20
-92.7781
11
146.034
21
-92.9657
0
LINE
8
BLACK
6
CONTINUOUS
10
146.034
20
-92.9657
11
145.941
21
-93.1386
0
LINE
8
BLACK
6
CONTINUOUS
10
145.941
20
-93.1386
11
145.817
21
-93.2901
0
LINE
8
BLACK
6
CONTINUOUS
10
145.817
20
-93.2901
11
145.666
21
-93.4145
0
LINE
8
BLACK
6
CONTINUOUS
10
145.666
20
-93.4145
11
145.493
21
-93.5069
0
LINE
8
BLACK
6
CONTINUOUS
10
145.493
20
-93.5069
11
145.305
21
-93.5638
0
LINE
8
BLACK
6
CONTINUOUS
10
145.305
20
-93.5638
11
145.11
21
-93.583
0
LINE
8
BLACK
6
CONTINUOUS
10
145.11
20
-93.583
11
144.915
21
-93.5638
0
LINE
8
BLACK
6
CONTINUOUS
10
144.915
20
-93.5638
11
144.727
21
-93.5069
0
LINE
8
BLACK
6
CONTINUOUS
10
144.727
20
-93.5069
11
144.554
21
-93.4145
0
LINE
8
BLACK
6
CONTINUOUS
10
144.554
20
-93.4145
11
144.403
21
-93.2901
0
LINE
8
BLACK
6
CONTINUOUS
10
144.403
20
-93.2901
11
144.279
21
-93.1386
0
LINE
8
BLACK
6
CONTINUOUS
10
144.279
20
-93.1386
11
144.186
21
-92.9657
0
LINE
8
BLACK
6
CONTINUOUS
10
144.186
20
-92.9657
11
144.129
21
-92.7781
0
LINE
8
BLACK
6
CONTINUOUS
10
144.129
20
-92.7781
11
144.11
21
-92.583
0
LINE
8
BLACK
6
CONTINUOUS
10
144.11
20
-92.583
11
144.129
21
-92.3879
0
LINE
8
BLACK
6
CONTINUOUS
10
144.129
20
-92.3879
11
144.186
21
-92.2003
0
LINE
8
BLACK
6
CONTINUOUS
10
144.186
20
-92.2003
11
144.279
21
-92.0274
0
LINE
8
BLACK
6
CONTINUOUS
10
144.279
20
-92.0274
11
144.403
21
-91.8759
0
LINE
8
BLACK
6
CONTINUOUS
10
144.403
20
-91.8759
11
144.554
21
-91.7515
0
LINE
8
BLACK
6
CONTINUOUS
10
144.554
20
-91.7515
11
144.727
21
-91.6591
0
LINE
8
BLACK
6
CONTINUOUS
10
144.727
20
-91.6591
11
144.915
21
-91.6022
0
LINE
8
BLACK
6
CONTINUOUS
10
144.915
20
-91.6022
11
145.11
21
-91.583
0
LINE
8
BLACK
6
CONTINUOUS
10
145.11
20
-91.583
11
145.305
21
-91.6022
0
LINE
8
BLACK
6
CONTINUOUS
10
154.805
20
-91.6022
11
154.993
21
-91.6591
0
LINE
8
BLACK
6
CONTINUOUS
10
154.993
20
-91.6591
11
155.166
21
-91.7515
0
LINE
8
BLACK
6
CONTINUOUS
10
155.166
20
-91.7515
11
155.317
21
-91.8759
0
LINE
8
BLACK
6
CONTINUOUS
10
155.317
20
-91.8759
11
155.441
21
-92.0274
0
LINE
8
BLACK
6
CONTINUOUS
10
155.441
20
-92.0274
11
155.534
21
-92.2003
0
LINE
8
BLACK
6
CONTINUOUS
10
155.534
20
-92.2003
11
155.591
21
-92.3879
0
LINE
8
BLACK
6
CONTINUOUS
10
155.591
20
-92.3879
11
155.61
21
-92.583
0
LINE
8
BLACK
6
CONTINUOUS
10
155.61
20
-92.583
11
155.591
21
-92.7781
0
LINE
8
BLACK
6
CONTINUOUS
10
155.591
20
-92.7781
11
155.534
21
-92.9657
0
LINE
8
BLACK
6
CONTINUOUS
10
155.534
20
-92.9657
11
155.441
21
-93.1386
0
LINE
8
BLACK
6
CONTINUOUS
10
155.441
20
-93.1386
11
155.317
21
-93.2901
0
LINE
8
BLACK
6
CONTINUOUS
10
155.317
20
-93.2901
11
155.166
21
-93.4145
0
LINE
8
BLACK
6
CONTINUOUS
10
155.166
20
-93.4145
11
154.993
21
-93.5069
0
LINE
8
BLACK
6
CONTINUOUS
10
154.993
20
-93.5069
11
154.805
21
-93.5638
0
LINE
8
BLACK
6
CONTINUOUS
10
154.805
20
-93.5638
11
154.61
21
-93.583
0
LINE
8
BLACK
6
CONTINUOUS
10
154.61
20
-93.583
11
154.415
21
-93.5638
0
LINE
8
BLACK
6
CONTINUOUS
10
154.415
20
-93.5638
11
154.227
21
-93.5069
0
LINE
8
BLACK
6
CONTINUOUS
10
154.227
20
-93.5069
11
154.054
21
-93.4145
0
LINE
8
BLACK
6
CONTINUOUS
10
154.054
20
-93.4145
11
153.903
21
-93.2901
0
LINE
8
BLACK
6
CONTINUOUS
10
153.903
20
-93.2901
11
153.779
21
-93.1386
0
LINE
8
BLACK
6
CONTINUOUS
10
153.779
20
-93.1386
11
153.686
21
-92.9657
0
LINE
8
BLACK
6
CONTINUOUS
10
153.686
20
-92.9657
11
153.629
21
-92.7781
0
LINE
8
BLACK
6
CONTINUOUS
10
153.629
20
-92.7781
11
153.61
21
-92.583
0
LINE
8
BLACK
6
CONTINUOUS
10
153.61
20
-92.583
11
153.629
21
-92.3879
0
LINE
8
BLACK
6
CONTINUOUS
10
153.629
20
-92.3879
11
153.686
21
-92.2003
0
LINE
8
BLACK
6
CONTINUOUS
10
153.686
20
-92.2003
11
153.779
21
-92.0274
0
LINE
8
BLACK
6
CONTINUOUS
10
153.779
20
-92.0274
11
153.903
21
-91.8759
0
LINE
8
BLACK
6
CONTINUOUS
10
153.903
20
-91.8759
11
154.054
21
-91.7515
0
LINE
8
BLACK
6
CONTINUOUS
10
154.054
20
-91.7515
11
154.227
21
-91.6591
0
LINE
8
BLACK
6
CONTINUOUS
10
154.227
20
-91.6591
11
154.415
21
-91.6022
0
LINE
8
BLACK
6
CONTINUOUS
10
154.415
20
-91.6022
11
154.61
21
-91.583
0
LINE
8
BLACK
6
CONTINUOUS
10
154.61
20
-91.583
11
154.805
21
-91.6022
0
LINE
8
BLACK
6
CONTINUOUS
10
147.5
20
-90.223
11
145.5
21
-90.223
0
LINE
8
BLACK
6
CONTINUOUS
10
145.5
20
-90.223
11
145.5
21
-88.223
0
LINE
8
BLACK
6
CONTINUOUS
10
145.5
20
-88.223
11
147.5
21
-88.223
0
LINE
8
BLACK
6
CONTINUOUS
10
147.5
20
-88.223
11
147.5
21
-90.223
0
LINE
8
BLACK
6
CONTINUOUS
10
153.415
20
-88.2422
11
153.603
21
-88.2991
0
LINE
8
BLACK
6
CONTINUOUS
10
153.603
20
-88.2991
11
153.776
21
-88.3915
0
LINE
8
BLACK
6
CONTINUOUS
10
153.776
20
-88.3915
11
153.927
21
-88.5159
0
LINE
8
BLACK
6
CONTINUOUS
10
153.927
20
-88.5159
11
154.051
21
-88.6674
0
LINE
8
BLACK
6
CONTINUOUS
10
154.051
20
-88.6674
11
154.144
21
-88.8403
0
LINE
8
BLACK
6
CONTINUOUS
10
154.144
20
-88.8403
11
154.201
21
-89.0279
0
LINE
8
BLACK
6
CONTINUOUS
10
154.201
20
-89.0279
11
154.22
21
-89.223
0
LINE
8
BLACK
6
CONTINUOUS
10
154.22
20
-89.223
11
154.201
21
-89.4181
0
LINE
8
BLACK
6
CONTINUOUS
10
154.201
20
-89.4181
11
154.144
21
-89.6057
0
LINE
8
BLACK
6
CONTINUOUS
10
154.144
20
-89.6057
11
154.051
21
-89.7786
0
LINE
8
BLACK
6
CONTINUOUS
10
154.051
20
-89.7786
11
153.927
21
-89.9301
0
LINE
8
BLACK
6
CONTINUOUS
10
153.927
20
-89.9301
11
153.776
21
-90.0545
0
LINE
8
BLACK
6
CONTINUOUS
10
153.776
20
-90.0545
11
153.603
21
-90.1469
0
LINE
8
BLACK
6
CONTINUOUS
10
153.603
20
-90.1469
11
153.415
21
-90.2038
0
LINE
8
BLACK
6
CONTINUOUS
10
153.415
20
-90.2038
11
153.22
21
-90.223
0
LINE
8
BLACK
6
CONTINUOUS
10
153.22
20
-90.223
11
153.025
21
-90.2038
0
LINE
8
BLACK
6
CONTINUOUS
10
153.025
20
-90.2038
11
152.837
21
-90.1469
0
LINE
8
BLACK
6
CONTINUOUS
10
152.837
20
-90.1469
11
152.664
21
-90.0545
0
LINE
8
BLACK
6
CONTINUOUS
10
152.664
20
-90.0545
11
152.513
21
-89.9301
0
LINE
8
BLACK
6
CONTINUOUS
10
152.513
20
-89.9301
11
152.389
21
-89.7786
0
LINE
8
BLACK
6
CONTINUOUS
10
152.389
20
-89.7786
11
152.296
21
-89.6057
0
LINE
8
BLACK
6
CONTINUOUS
10
152.296
20
-89.6057
11
152.239
21
-89.4181
0
LINE
8
BLACK
6
CONTINUOUS
10
152.239
20
-89.4181
11
152.22
21
-89.223
0
LINE
8
BLACK
6
CONTINUOUS
10
152.22
20
-89.223
11
152.239
21
-89.0279
0
LINE
8
BLACK
6
CONTINUOUS
10
152.239
20
-89.0279
11
152.296
21
-88.8403
0
LINE
8
BLACK
6
CONTINUOUS
10
152.296
20
-88.8403
11
152.389
21
-88.6674
0
LINE
8
BLACK
6
CONTINUOUS
10
152.389
20
-88.6674
11
152.513
21
-88.5159
0
LINE
8
BLACK
6
CONTINUOUS
10
152.513
20
-88.5159
11
152.664
21
-88.3915
0
LINE
8
BLACK
6
CONTINUOUS
10
152.664
20
-88.3915
11
152.837
21
-88.2991
0
LINE
8
BLACK
6
CONTINUOUS
10
152.837
20
-88.2991
11
153.025
21
-88.2422
0
LINE
8
BLACK
6
CONTINUOUS
10
153.025
20
-88.2422
11
153.22
21
-88.223
0
LINE
8
BLACK
6
CONTINUOUS
10
153.22
20
-88.223
11
153.415
21
-88.2422
0
LINE
8
BLACK
6
CONTINUOUS
10
120.844
20
-86.6028
11
121.051
21
-86.6828
0
LINE
8
BLACK
6
CONTINUOUS
10
121.051
20
-86.6828
11
121.239
21
-86.7994
0
LINE
8
BLACK
6
CONTINUOUS
10
121.239
20
-86.7994
11
121.403
21
-86.9486
0
LINE
8
BLACK
6
CONTINUOUS
10
121.403
20
-86.9486
11
121.536
21
-87.1253
0
LINE
8
BLACK
6
CONTINUOUS
10
121.536
20
-87.1253
11
121.635
21
-87.3235
0
LINE
8
BLACK
6
CONTINUOUS
10
121.635
20
-87.3235
11
121.696
21
-87.5365
0
LINE
8
BLACK
6
CONTINUOUS
10
121.696
20
-87.5365
11
121.716
21
-87.757
0
LINE
8
BLACK
6
CONTINUOUS
10
121.716
20
-87.757
11
121.696
21
-87.9775
0
LINE
8
BLACK
6
CONTINUOUS
10
121.696
20
-87.9775
11
121.635
21
-88.1905
0
LINE
8
BLACK
6
CONTINUOUS
10
121.635
20
-88.1905
11
121.536
21
-88.3887
0
LINE
8
BLACK
6
CONTINUOUS
10
121.536
20
-88.3887
11
121.403
21
-88.5654
0
LINE
8
BLACK
6
CONTINUOUS
10
121.403
20
-88.5654
11
121.239
21
-88.7146
0
LINE
8
BLACK
6
CONTINUOUS
10
121.239
20
-88.7146
11
121.051
21
-88.8312
0
LINE
8
BLACK
6
CONTINUOUS
10
121.051
20
-88.8312
11
120.844
21
-88.9112
0
LINE
8
BLACK
6
CONTINUOUS
10
120.844
20
-88.9112
11
120.627
21
-88.9519
0
LINE
8
BLACK
6
CONTINUOUS
10
120.627
20
-88.9519
11
120.405
21
-88.9519
0
LINE
8
BLACK
6
CONTINUOUS
10
120.405
20
-88.9519
11
120.188
21
-88.9112
0
LINE
8
BLACK
6
CONTINUOUS
10
120.188
20
-88.9112
11
119.981
21
-88.8312
0
LINE
8
BLACK
6
CONTINUOUS
10
119.981
20
-88.8312
11
119.793
21
-88.7146
0
LINE
8
BLACK
6
CONTINUOUS
10
119.793
20
-88.7146
11
119.629
21
-88.5654
0
LINE
8
BLACK
6
CONTINUOUS
10
119.629
20
-88.5654
11
119.496
21
-88.3887
0
LINE
8
BLACK
6
CONTINUOUS
10
119.496
20
-88.3887
11
119.397
21
-88.1905
0
LINE
8
BLACK
6
CONTINUOUS
10
119.397
20
-88.1905
11
119.336
21
-87.9775
0
LINE
8
BLACK
6
CONTINUOUS
10
119.336
20
-87.9775
11
119.316
21
-87.757
0
LINE
8
BLACK
6
CONTINUOUS
10
119.316
20
-87.757
11
119.336
21
-87.5365
0
LINE
8
BLACK
6
CONTINUOUS
10
119.336
20
-87.5365
11
119.397
21
-87.3235
0
LINE
8
BLACK
6
CONTINUOUS
10
119.397
20
-87.3235
11
119.496
21
-87.1253
0
LINE
8
BLACK
6
CONTINUOUS
10
119.496
20
-87.1253
11
119.629
21
-86.9486
0
LINE
8
BLACK
6
CONTINUOUS
10
119.629
20
-86.9486
11
119.793
21
-86.7994
0
LINE
8
BLACK
6
CONTINUOUS
10
119.793
20
-86.7994
11
119.981
21
-86.6828
0
LINE
8
BLACK
6
CONTINUOUS
10
119.981
20
-86.6828
11
120.188
21
-86.6028
0
LINE
8
BLACK
6
CONTINUOUS
10
120.188
20
-86.6028
11
120.405
21
-86.5621
0
LINE
8
BLACK
6
CONTINUOUS
10
120.405
20
-86.5621
11
120.627
21
-86.5621
0
LINE
8
BLACK
6
CONTINUOUS
10
120.627
20
-86.5621
11
120.844
21
-86.6028
0
LINE
8
BLACK
6
CONTINUOUS
10
135.844
20
-86.6028
11
136.051
21
-86.6828
0
LINE
8
BLACK
6
CONTINUOUS
10
136.051
20
-86.6828
11
136.239
21
-86.7994
0
LINE
8
BLACK
6
CONTINUOUS
10
136.239
20
-86.7994
11
136.403
21
-86.9486
0
LINE
8
BLACK
6
CONTINUOUS
10
136.403
20
-86.9486
11
136.536
21
-87.1253
0
LINE
8
BLACK
6
CONTINUOUS
10
136.536
20
-87.1253
11
136.635
21
-87.3235
0
LINE
8
BLACK
6
CONTINUOUS
10
136.635
20
-87.3235
11
136.696
21
-87.5365
0
LINE
8
BLACK
6
CONTINUOUS
10
136.696
20
-87.5365
11
136.716
21
-87.757
0
LINE
8
BLACK
6
CONTINUOUS
10
136.716
20
-87.757
11
136.696
21
-87.9775
0
LINE
8
BLACK
6
CONTINUOUS
10
136.696
20
-87.9775
11
136.635
21
-88.1905
0
LINE
8
BLACK
6
CONTINUOUS
10
136.635
20
-88.1905
11
136.536
21
-88.3887
0
LINE
8
BLACK
6
CONTINUOUS
10
136.536
20
-88.3887
11
136.403
21
-88.5654
0
LINE
8
BLACK
6
CONTINUOUS
10
136.403
20
-88.5654
11
136.239
21
-88.7146
0
LINE
8
BLACK
6
CONTINUOUS
10
136.239
20
-88.7146
11
136.051
21
-88.8312
0
LINE
8
BLACK
6
CONTINUOUS
10
136.051
20
-88.8312
11
135.844
21
-88.9112
0
LINE
8
BLACK
6
CONTINUOUS
10
135.844
20
-88.9112
11
135.627
21
-88.9519
0
LINE
8
BLACK
6
CONTINUOUS
10
135.627
20
-88.9519
11
135.405
21
-88.9519
0
LINE
8
BLACK
6
CONTINUOUS
10
135.405
20
-88.9519
11
135.188
21
-88.9112
0
LINE
8
BLACK
6
CONTINUOUS
10
135.188
20
-88.9112
11
134.981
21
-88.8312
0
LINE
8
BLACK
6
CONTINUOUS
10
134.981
20
-88.8312
11
134.793
21
-88.7146
0
LINE
8
BLACK
6
CONTINUOUS
10
134.793
20
-88.7146
11
134.629
21
-88.5654
0
LINE
8
BLACK
6
CONTINUOUS
10
134.629
20
-88.5654
11
134.496
21
-88.3887
0
LINE
8
BLACK
6
CONTINUOUS
10
134.496
20
-88.3887
11
134.397
21
-88.1905
0
LINE
8
BLACK
6
CONTINUOUS
10
134.397
20
-88.1905
11
134.336
21
-87.9775
0
LINE
8
BLACK
6
CONTINUOUS
10
134.336
20
-87.9775
11
134.316
21
-87.757
0
LINE
8
BLACK
6
CONTINUOUS
10
134.316
20
-87.757
11
134.336
21
-87.5365
0
LINE
8
BLACK
6
CONTINUOUS
10
134.336
20
-87.5365
11
134.397
21
-87.3235
0
LINE
8
BLACK
6
CONTINUOUS
10
134.397
20
-87.3235
11
134.496
21
-87.1253
0
LINE
8
BLACK
6
CONTINUOUS
10
134.496
20
-87.1253
11
134.629
21
-86.9486
0
LINE
8
BLACK
6
CONTINUOUS
10
134.629
20
-86.9486
11
134.793
21
-86.7994
0
LINE
8
BLACK
6
CONTINUOUS
10
134.793
20
-86.7994
11
134.981
21
-86.6828
0
LINE
8
BLACK
6
CONTINUOUS
10
134.981
20
-86.6828
11
135.188
21
-86.6028
0
LINE
8
BLACK
6
CONTINUOUS
10
135.188
20
-86.6028
11
135.405
21
-86.5621
0
LINE
8
BLACK
6
CONTINUOUS
10
135.405
20
-86.5621
11
135.627
21
-86.5621
0
LINE
8
BLACK
6
CONTINUOUS
10
135.627
20
-86.5621
11
135.844
21
-86.6028
0
LINE
8
BLACK
6
CONTINUOUS
10
173.951
20
-86.1412
11
174.139
21
-86.1981
0
LINE
8
BLACK
6
CONTINUOUS
10
174.139
20
-86.1981
11
174.312
21
-86.2905
0
LINE
8
BLACK
6
CONTINUOUS
10
174.312
20
-86.2905
11
174.463
21
-86.4149
0
LINE
8
BLACK
6
CONTINUOUS
10
174.463
20
-86.4149
11
174.587
21
-86.5664
0
LINE
8
BLACK
6
CONTINUOUS
10
174.587
20
-86.5664
11
174.68
21
-86.7393
0
LINE
8
BLACK
6
CONTINUOUS
10
174.68
20
-86.7393
11
174.737
21
-86.9269
0
LINE
8
BLACK
6
CONTINUOUS
10
174.737
20
-86.9269
11
174.756
21
-87.122
0
LINE
8
BLACK
6
CONTINUOUS
10
174.756
20
-87.122
11
174.737
21
-87.3171
0
LINE
8
BLACK
6
CONTINUOUS
10
174.737
20
-87.3171
11
174.68
21
-87.5047
0
LINE
8
BLACK
6
CONTINUOUS
10
174.68
20
-87.5047
11
174.587
21
-87.6776
0
LINE
8
BLACK
6
CONTINUOUS
10
174.587
20
-87.6776
11
174.463
21
-87.8291
0
LINE
8
BLACK
6
CONTINUOUS
10
174.463
20
-87.8291
11
174.312
21
-87.9535
0
LINE
8
BLACK
6
CONTINUOUS
10
174.312
20
-87.9535
11
174.139
21
-88.0459
0
LINE
8
BLACK
6
CONTINUOUS
10
174.139
20
-88.0459
11
173.951
21
-88.1028
0
LINE
8
BLACK
6
CONTINUOUS
10
173.951
20
-88.1028
11
173.756
21
-88.122
0
LINE
8
BLACK
6
CONTINUOUS
10
173.756
20
-88.122
11
173.561
21
-88.1028
0
LINE
8
BLACK
6
CONTINUOUS
10
173.561
20
-88.1028
11
173.373
21
-88.0459
0
LINE
8
BLACK
6
CONTINUOUS
10
173.373
20
-88.0459
11
173.2
21
-87.9535
0
LINE
8
BLACK
6
CONTINUOUS
10
173.2
20
-87.9535
11
173.049
21
-87.8291
0
LINE
8
BLACK
6
CONTINUOUS
10
173.049
20
-87.8291
11
172.925
21
-87.6776
0
LINE
8
BLACK
6
CONTINUOUS
10
172.925
20
-87.6776
11
172.832
21
-87.5047
0
LINE
8
BLACK
6
CONTINUOUS
10
172.832
20
-87.5047
11
172.775
21
-87.3171
0
LINE
8
BLACK
6
CONTINUOUS
10
172.775
20
-87.3171
11
172.756
21
-87.122
0
LINE
8
BLACK
6
CONTINUOUS
10
172.756
20
-87.122
11
172.775
21
-86.9269
0
LINE
8
BLACK
6
CONTINUOUS
10
172.775
20
-86.9269
11
172.832
21
-86.7393
0
LINE
8
BLACK
6
CONTINUOUS
10
172.832
20
-86.7393
11
172.925
21
-86.5664
0
LINE
8
BLACK
6
CONTINUOUS
10
172.925
20
-86.5664
11
173.049
21
-86.4149
0
LINE
8
BLACK
6
CONTINUOUS
10
173.049
20
-86.4149
11
173.2
21
-86.2905
0
LINE
8
BLACK
6
CONTINUOUS
10
173.2
20
-86.2905
11
173.373
21
-86.1981
0
LINE
8
BLACK
6
CONTINUOUS
10
173.373
20
-86.1981
11
173.561
21
-86.1412
0
LINE
8
BLACK
6
CONTINUOUS
10
173.561
20
-86.1412
11
173.756
21
-86.122
0
LINE
8
BLACK
6
CONTINUOUS
10
173.756
20
-86.122
11
173.951
21
-86.1412
0
LINE
8
BLACK
6
CONTINUOUS
10
182.356
20
-88.122
11
180.356
21
-88.122
0
LINE
8
BLACK
6
CONTINUOUS
10
180.356
20
-88.122
11
180.356
21
-86.122
0
LINE
8
BLACK
6
CONTINUOUS
10
180.356
20
-86.122
11
182.356
21
-86.122
0
LINE
8
BLACK
6
CONTINUOUS
10
182.356
20
-86.122
11
182.356
21
-88.122
0
LINE
8
BLACK
6
CONTINUOUS
10
126.266
20
-82.728
11
124.766
21
-82.728
0
LINE
8
BLACK
6
CONTINUOUS
10
124.766
20
-82.728
11
124.766
21
-81.228
0
LINE
8
BLACK
6
CONTINUOUS
10
124.766
20
-81.228
11
126.266
21
-81.228
0
LINE
8
BLACK
6
CONTINUOUS
10
126.266
20
-81.228
11
126.266
21
-82.728
0
LINE
8
BLACK
6
CONTINUOUS
10
130.683
20
-81.2468
11
130.841
21
-81.3023
0
LINE
8
BLACK
6
CONTINUOUS
10
130.841
20
-81.3023
11
130.984
21
-81.3916
0
LINE
8
BLACK
6
CONTINUOUS
10
130.984
20
-81.3916
11
131.102
21
-81.5104
0
LINE
8
BLACK
6
CONTINUOUS
10
131.102
20
-81.5104
11
131.192
21
-81.6526
0
LINE
8
BLACK
6
CONTINUOUS
10
131.192
20
-81.6526
11
131.247
21
-81.8111
0
LINE
8
BLACK
6
CONTINUOUS
10
131.247
20
-81.8111
11
131.266
21
-81.978
0
LINE
8
BLACK
6
CONTINUOUS
10
131.266
20
-81.978
11
131.247
21
-82.1449
0
LINE
8
BLACK
6
CONTINUOUS
10
131.247
20
-82.1449
11
131.192
21
-82.3034
0
LINE
8
BLACK
6
CONTINUOUS
10
131.192
20
-82.3034
11
131.102
21
-82.4456
0
LINE
8
BLACK
6
CONTINUOUS
10
131.102
20
-82.4456
11
130.984
21
-82.5644
0
LINE
8
BLACK
6
CONTINUOUS
10
130.984
20
-82.5644
11
130.841
21
-82.6537
0
LINE
8
BLACK
6
CONTINUOUS
10
130.841
20
-82.6537
11
130.683
21
-82.7092
0
LINE
8
BLACK
6
CONTINUOUS
10
130.683
20
-82.7092
11
130.516
21
-82.728
0
LINE
8
BLACK
6
CONTINUOUS
10
130.516
20
-82.728
11
130.349
21
-82.7092
0
LINE
8
BLACK
6
CONTINUOUS
10
130.349
20
-82.7092
11
130.191
21
-82.6537
0
LINE
8
BLACK
6
CONTINUOUS
10
130.191
20
-82.6537
11
130.048
21
-82.5644
0
LINE
8
BLACK
6
CONTINUOUS
10
130.048
20
-82.5644
11
129.93
21
-82.4456
0
LINE
8
BLACK
6
CONTINUOUS
10
129.93
20
-82.4456
11
129.84
21
-82.3034
0
LINE
8
BLACK
6
CONTINUOUS
10
129.84
20
-82.3034
11
129.785
21
-82.1449
0
LINE
8
BLACK
6
CONTINUOUS
10
129.785
20
-82.1449
11
129.766
21
-81.978
0
LINE
8
BLACK
6
CONTINUOUS
10
129.766
20
-81.978
11
129.785
21
-81.8111
0
LINE
8
BLACK
6
CONTINUOUS
10
129.785
20
-81.8111
11
129.84
21
-81.6526
0
LINE
8
BLACK
6
CONTINUOUS
10
129.84
20
-81.6526
11
129.93
21
-81.5104
0
LINE
8
BLACK
6
CONTINUOUS
10
129.93
20
-81.5104
11
130.048
21
-81.3916
0
LINE
8
BLACK
6
CONTINUOUS
10
130.048
20
-81.3916
11
130.191
21
-81.3023
0
LINE
8
BLACK
6
CONTINUOUS
10
130.191
20
-81.3023
11
130.349
21
-81.2468
0
LINE
8
BLACK
6
CONTINUOUS
10
130.349
20
-81.2468
11
130.516
21
-81.228
0
LINE
8
BLACK
6
CONTINUOUS
10
130.516
20
-81.228
11
130.683
21
-81.2468
0
LINE
8
BLACK
6
CONTINUOUS
10
125.683
20
-79.2468
11
125.841
21
-79.3023
0
LINE
8
BLACK
6
CONTINUOUS
10
125.841
20
-79.3023
11
125.984
21
-79.3916
0
LINE
8
BLACK
6
CONTINUOUS
10
125.984
20
-79.3916
11
126.102
21
-79.5104
0
LINE
8
BLACK
6
CONTINUOUS
10
126.102
20
-79.5104
11
126.192
21
-79.6526
0
LINE
8
BLACK
6
CONTINUOUS
10
126.192
20
-79.6526
11
126.247
21
-79.8111
0
LINE
8
BLACK
6
CONTINUOUS
10
126.247
20
-79.8111
11
126.266
21
-79.978
0
LINE
8
BLACK
6
CONTINUOUS
10
126.266
20
-79.978
11
126.247
21
-80.1449
0
LINE
8
BLACK
6
CONTINUOUS
10
126.247
20
-80.1449
11
126.192
21
-80.3034
0
LINE
8
BLACK
6
CONTINUOUS
10
126.192
20
-80.3034
11
126.102
21
-80.4456
0
LINE
8
BLACK
6
CONTINUOUS
10
126.102
20
-80.4456
11
125.984
21
-80.5644
0
LINE
8
BLACK
6
CONTINUOUS
10
125.984
20
-80.5644
11
125.841
21
-80.6537
0
LINE
8
BLACK
6
CONTINUOUS
10
125.841
20
-80.6537
11
125.683
21
-80.7092
0
LINE
8
BLACK
6
CONTINUOUS
10
125.683
20
-80.7092
11
125.516
21
-80.728
0
LINE
8
BLACK
6
CONTINUOUS
10
125.516
20
-80.728
11
125.349
21
-80.7092
0
LINE
8
BLACK
6
CONTINUOUS
10
125.349
20
-80.7092
11
125.191
21
-80.6537
0
LINE
8
BLACK
6
CONTINUOUS
10
125.191
20
-80.6537
11
125.048
21
-80.5644
0
LINE
8
BLACK
6
CONTINUOUS
10
125.048
20
-80.5644
11
124.93
21
-80.4456
0
LINE
8
BLACK
6
CONTINUOUS
10
124.93
20
-80.4456
11
124.84
21
-80.3034
0
LINE
8
BLACK
6
CONTINUOUS
10
124.84
20
-80.3034
11
124.785
21
-80.1449
0
LINE
8
BLACK
6
CONTINUOUS
10
124.785
20
-80.1449
11
124.766
21
-79.978
0
LINE
8
BLACK
6
CONTINUOUS
10
124.766
20
-79.978
11
124.785
21
-79.8111
0
LINE
8
BLACK
6
CONTINUOUS
10
124.785
20
-79.8111
11
124.84
21
-79.6526
0
LINE
8
BLACK
6
CONTINUOUS
10
124.84
20
-79.6526
11
124.93
21
-79.5104
0
LINE
8
BLACK
6
CONTINUOUS
10
124.93
20
-79.5104
11
125.048
21
-79.3916
0
LINE
8
BLACK
6
CONTINUOUS
10
125.048
20
-79.3916
11
125.191
21
-79.3023
0
LINE
8
BLACK
6
CONTINUOUS
10
125.191
20
-79.3023
11
125.349
21
-79.2468
0
LINE
8
BLACK
6
CONTINUOUS
10
125.349
20
-79.2468
11
125.516
21
-79.228
0
LINE
8
BLACK
6
CONTINUOUS
10
125.516
20
-79.228
11
125.683
21
-79.2468
0
LINE
8
BLACK
6
CONTINUOUS
10
130.683
20
-79.2468
11
130.841
21
-79.3023
0
LINE
8
BLACK
6
CONTINUOUS
10
130.841
20
-79.3023
11
130.984
21
-79.3916
0
LINE
8
BLACK
6
CONTINUOUS
10
130.984
20
-79.3916
11
131.102
21
-79.5104
0
LINE
8
BLACK
6
CONTINUOUS
10
131.102
20
-79.5104
11
131.192
21
-79.6526
0
LINE
8
BLACK
6
CONTINUOUS
10
131.192
20
-79.6526
11
131.247
21
-79.8111
0
LINE
8
BLACK
6
CONTINUOUS
10
131.247
20
-79.8111
11
131.266
21
-79.978
0
LINE
8
BLACK
6
CONTINUOUS
10
131.266
20
-79.978
11
131.247
21
-80.1449
0
LINE
8
BLACK
6
CONTINUOUS
10
131.247
20
-80.1449
11
131.192
21
-80.3034
0
LINE
8
BLACK
6
CONTINUOUS
10
131.192
20
-80.3034
11
131.102
21
-80.4456
0
LINE
8
BLACK
6
CONTINUOUS
10
131.102
20
-80.4456
11
130.984
21
-80.5644
0
LINE
8
BLACK
6
CONTINUOUS
10
130.984
20
-80.5644
11
130.841
21
-80.6537
0
LINE
8
BLACK
6
CONTINUOUS
10
130.841
20
-80.6537
11
130.683
21
-80.7092
0
LINE
8
BLACK
6
CONTINUOUS
10
130.683
20
-80.7092
11
130.516
21
-80.728
0
LINE
8
BLACK
6
CONTINUOUS
10
130.516
20
-80.728
11
130.349
21
-80.7092
0
LINE
8
BLACK
6
CONTINUOUS
10
130.349
20
-80.7092
11
130.191
21
-80.6537
0
LINE
8
BLACK
6
CONTINUOUS
10
130.191
20
-80.6537
11
130.048
21
-80.5644
0
LINE
8
BLACK
6
CONTINUOUS
10
130.048
20
-80.5644
11
129.93
21
-80.4456
0
LINE
8
BLACK
6
CONTINUOUS
10
129.93
20
-80.4456
11
129.84
21
-80.3034
0
LINE
8
BLACK
6
CONTINUOUS
10
129.84
20
-80.3034
11
129.785
21
-80.1449
0
LINE
8
BLACK
6
CONTINUOUS
10
129.785
20
-80.1449
11
129.766
21
-79.978
0
LINE
8
BLACK
6
CONTINUOUS
10
129.766
20
-79.978
11
129.785
21
-79.8111
0
LINE
8
BLACK
6
CONTINUOUS
10
129.785
20
-79.8111
11
129.84
21
-79.6526
0
LINE
8
BLACK
6
CONTINUOUS
10
129.84
20
-79.6526
11
129.93
21
-79.5104
0
LINE
8
BLACK
6
CONTINUOUS
10
129.93
20
-79.5104
11
130.048
21
-79.3916
0
LINE
8
BLACK
6
CONTINUOUS
10
130.048
20
-79.3916
11
130.191
21
-79.3023
0
LINE
8
BLACK
6
CONTINUOUS
10
130.191
20
-79.3023
11
130.349
21
-79.2468
0
LINE
8
BLACK
6
CONTINUOUS
10
130.349
20
-79.2468
11
130.516
21
-79.228
0
LINE
8
BLACK
6
CONTINUOUS
10
130.516
20
-79.228
11
130.683
21
-79.2468
0
LINE
8
BLACK
6
CONTINUOUS
10
125.683
20
-77.2468
11
125.841
21
-77.3023
0
LINE
8
BLACK
6
CONTINUOUS
10
125.841
20
-77.3023
11
125.984
21
-77.3916
0
LINE
8
BLACK
6
CONTINUOUS
10
125.984
20
-77.3916
11
126.102
21
-77.5104
0
LINE
8
BLACK
6
CONTINUOUS
10
126.102
20
-77.5104
11
126.192
21
-77.6526
0
LINE
8
BLACK
6
CONTINUOUS
10
126.192
20
-77.6526
11
126.247
21
-77.8111
0
LINE
8
BLACK
6
CONTINUOUS
10
126.247
20
-77.8111
11
126.266
21
-77.978
0
LINE
8
BLACK
6
CONTINUOUS
10
126.266
20
-77.978
11
126.247
21
-78.1449
0
LINE
8
BLACK
6
CONTINUOUS
10
126.247
20
-78.1449
11
126.192
21
-78.3034
0
LINE
8
BLACK
6
CONTINUOUS
10
126.192
20
-78.3034
11
126.102
21
-78.4456
0
LINE
8
BLACK
6
CONTINUOUS
10
126.102
20
-78.4456
11
125.984
21
-78.5644
0
LINE
8
BLACK
6
CONTINUOUS
10
125.984
20
-78.5644
11
125.841
21
-78.6537
0
LINE
8
BLACK
6
CONTINUOUS
10
125.841
20
-78.6537
11
125.683
21
-78.7092
0
LINE
8
BLACK
6
CONTINUOUS
10
125.683
20
-78.7092
11
125.516
21
-78.728
0
LINE
8
BLACK
6
CONTINUOUS
10
125.516
20
-78.728
11
125.349
21
-78.7092
0
LINE
8
BLACK
6
CONTINUOUS
10
125.349
20
-78.7092
11
125.191
21
-78.6537
0
LINE
8
BLACK
6
CONTINUOUS
10
125.191
20
-78.6537
11
125.048
21
-78.5644
0
LINE
8
BLACK
6
CONTINUOUS
10
125.048
20
-78.5644
11
124.93
21
-78.4456
0
LINE
8
BLACK
6
CONTINUOUS
10
124.93
20
-78.4456
11
124.84
21
-78.3034
0
LINE
8
BLACK
6
CONTINUOUS
10
124.84
20
-78.3034
11
124.785
21
-78.1449
0
LINE
8
BLACK
6
CONTINUOUS
10
124.785
20
-78.1449
11
124.766
21
-77.978
0
LINE
8
BLACK
6
CONTINUOUS
10
124.766
20
-77.978
11
124.785
21
-77.8111
0
LINE
8
BLACK
6
CONTINUOUS
10
124.785
20
-77.8111
11
124.84
21
-77.6526
0
LINE
8
BLACK
6
CONTINUOUS
10
124.84
20
-77.6526
11
124.93
21
-77.5104
0
LINE
8
BLACK
6
CONTINUOUS
10
124.93
20
-77.5104
11
125.048
21
-77.3916
0
LINE
8
BLACK
6
CONTINUOUS
10
125.048
20
-77.3916
11
125.191
21
-77.3023
0
LINE
8
BLACK
6
CONTINUOUS
10
125.191
20
-77.3023
11
125.349
21
-77.2468
0
LINE
8
BLACK
6
CONTINUOUS
10
125.349
20
-77.2468
11
125.516
21
-77.228
0
LINE
8
BLACK
6
CONTINUOUS
10
125.516
20
-77.228
11
125.683
21
-77.2468
0
LINE
8
BLACK
6
CONTINUOUS
10
130.683
20
-77.2468
11
130.841
21
-77.3023
0
LINE
8
BLACK
6
CONTINUOUS
10
130.841
20
-77.3023
11
130.984
21
-77.3916
0
LINE
8
BLACK
6
CONTINUOUS
10
130.984
20
-77.3916
11
131.102
21
-77.5104
0
LINE
8
BLACK
6
CONTINUOUS
10
131.102
20
-77.5104
11
131.192
21
-77.6526
0
LINE
8
BLACK
6
CONTINUOUS
10
131.192
20
-77.6526
11
131.247
21
-77.8111
0
LINE
8
BLACK
6
CONTINUOUS
10
131.247
20
-77.8111
11
131.266
21
-77.978
0
LINE
8
BLACK
6
CONTINUOUS
10
131.266
20
-77.978
11
131.247
21
-78.1449
0
LINE
8
BLACK
6
CONTINUOUS
10
131.247
20
-78.1449
11
131.192
21
-78.3034
0
LINE
8
BLACK
6
CONTINUOUS
10
131.192
20
-78.3034
11
131.102
21
-78.4456
0
LINE
8
BLACK
6
CONTINUOUS
10
131.102
20
-78.4456
11
130.984
21
-78.5644
0
LINE
8
BLACK
6
CONTINUOUS
10
130.984
20
-78.5644
11
130.841
21
-78.6537
0
LINE
8
BLACK
6
CONTINUOUS
10
130.841
20
-78.6537
11
130.683
21
-78.7092
0
LINE
8
BLACK
6
CONTINUOUS
10
130.683
20
-78.7092
11
130.516
21
-78.728
0
LINE
8
BLACK
6
CONTINUOUS
10
130.516
20
-78.728
11
130.349
21
-78.7092
0
LINE
8
BLACK
6
CONTINUOUS
10
130.349
20
-78.7092
11
130.191
21
-78.6537
0
LINE
8
BLACK
6
CONTINUOUS
10
130.191
20
-78.6537
11
130.048
21
-78.5644
0
LINE
8
BLACK
6
CONTINUOUS
10
130.048
20
-78.5644
11
129.93
21
-78.4456
0
LINE
8
BLACK
6
CONTINUOUS
10
129.93
20
-78.4456
11
129.84
21
-78.3034
0
LINE
8
BLACK
6
CONTINUOUS
10
129.84
20
-78.3034
11
129.785
21
-78.1449
0
LINE
8
BLACK
6
CONTINUOUS
10
129.785
20
-78.1449
11
129.766
21
-77.978
0
LINE
8
BLACK
6
CONTINUOUS
10
129.766
20
-77.978
11
129.785
21
-77.8111
0
LINE
8
BLACK
6
CONTINUOUS
10
129.785
20
-77.8111
11
129.84
21
-77.6526
0
LINE
8
BLACK
6
CONTINUOUS
10
129.84
20
-77.6526
11
129.93
21
-77.5104
0
LINE
8
BLACK
6
CONTINUOUS
10
129.93
20
-77.5104
11
130.048
21
-77.3916
0
LINE
8
BLACK
6
CONTINUOUS
10
130.048
20
-77.3916
11
130.191
21
-77.3023
0
LINE
8
BLACK
6
CONTINUOUS
10
130.191
20
-77.3023
11
130.349
21
-77.2468
0
LINE
8
BLACK
6
CONTINUOUS
10
130.349
20
-77.2468
11
130.516
21
-77.228
0
LINE
8
BLACK
6
CONTINUOUS
10
130.516
20
-77.228
11
130.683
21
-77.2468
0
LINE
8
BLACK
6
CONTINUOUS
10
137.64
20
-76.1388
11
137.859
21
-76.1974
0
LINE
8
BLACK
6
CONTINUOUS
10
137.859
20
-76.1974
11
138.064
21
-76.2932
0
LINE
8
BLACK
6
CONTINUOUS
10
138.064
20
-76.2932
11
138.25
21
-76.4231
0
LINE
8
BLACK
6
CONTINUOUS
10
138.25
20
-76.4231
11
138.41
21
-76.5834
0
LINE
8
BLACK
6
CONTINUOUS
10
138.41
20
-76.5834
11
138.54
21
-76.769
0
LINE
8
BLACK
6
CONTINUOUS
10
138.54
20
-76.769
11
138.636
21
-76.9744
0
LINE
8
BLACK
6
CONTINUOUS
10
138.636
20
-76.9744
11
138.694
21
-77.1933
0
LINE
8
BLACK
6
CONTINUOUS
10
138.694
20
-77.1933
11
138.714
21
-77.419
0
LINE
8
BLACK
6
CONTINUOUS
10
138.714
20
-77.419
11
138.694
21
-77.6447
0
LINE
8
BLACK
6
CONTINUOUS
10
138.694
20
-77.6447
11
138.636
21
-77.8636
0
LINE
8
BLACK
6
CONTINUOUS
10
138.636
20
-77.8636
11
138.54
21
-78.069
0
LINE
8
BLACK
6
CONTINUOUS
10
138.54
20
-78.069
11
138.41
21
-78.2546
0
LINE
8
BLACK
6
CONTINUOUS
10
138.41
20
-78.2546
11
138.25
21
-78.4149
0
LINE
8
BLACK
6
CONTINUOUS
10
138.25
20
-78.4149
11
138.064
21
-78.5448
0
LINE
8
BLACK
6
CONTINUOUS
10
138.064
20
-78.5448
11
137.859
21
-78.6406
0
LINE
8
BLACK
6
CONTINUOUS
10
137.859
20
-78.6406
11
137.64
21
-78.6992
0
LINE
8
BLACK
6
CONTINUOUS
10
137.64
20
-78.6992
11
137.414
21
-78.719
0
LINE
8
BLACK
6
CONTINUOUS
10
137.414
20
-78.719
11
137.188
21
-78.6992
0
LINE
8
BLACK
6
CONTINUOUS
10
137.188
20
-78.6992
11
136.969
21
-78.6406
0
LINE
8
BLACK
6
CONTINUOUS
10
136.969
20
-78.6406
11
136.764
21
-78.5448
0
LINE
8
BLACK
6
CONTINUOUS
10
136.764
20
-78.5448
11
136.578
21
-78.4149
0
LINE
8
BLACK
6
CONTINUOUS
10
136.578
20
-78.4149
11
136.418
21
-78.2546
0
LINE
8
BLACK
6
CONTINUOUS
10
136.418
20
-78.2546
11
136.288
21
-78.069
0
LINE
8
BLACK
6
CONTINUOUS
10
136.288
20
-78.069
11
136.192
21
-77.8636
0
LINE
8
BLACK
6
CONTINUOUS
10
136.192
20
-77.8636
11
136.134
21
-77.6447
0
LINE
8
BLACK
6
CONTINUOUS
10
136.134
20
-77.6447
11
136.114
21
-77.419
0
LINE
8
BLACK
6
CONTINUOUS
10
136.114
20
-77.419
11
136.134
21
-77.1933
0
LINE
8
BLACK
6
CONTINUOUS
10
136.134
20
-77.1933
11
136.192
21
-76.9744
0
LINE
8
BLACK
6
CONTINUOUS
10
136.192
20
-76.9744
11
136.288
21
-76.769
0
LINE
8
BLACK
6
CONTINUOUS
10
136.288
20
-76.769
11
136.418
21
-76.5834
0
LINE
8
BLACK
6
CONTINUOUS
10
136.418
20
-76.5834
11
136.578
21
-76.4231
0
LINE
8
BLACK
6
CONTINUOUS
10
136.578
20
-76.4231
11
136.764
21
-76.2932
0
LINE
8
BLACK
6
CONTINUOUS
10
136.764
20
-76.2932
11
136.969
21
-76.1974
0
LINE
8
BLACK
6
CONTINUOUS
10
136.969
20
-76.1974
11
137.188
21
-76.1388
0
LINE
8
BLACK
6
CONTINUOUS
10
137.188
20
-76.1388
11
137.414
21
-76.119
0
LINE
8
BLACK
6
CONTINUOUS
10
137.414
20
-76.119
11
137.64
21
-76.1388
0
LINE
8
BLACK
6
CONTINUOUS
10
143.794
20
-78.719
11
141.194
21
-78.719
0
LINE
8
BLACK
6
CONTINUOUS
10
141.194
20
-78.719
11
141.194
21
-76.119
0
LINE
8
BLACK
6
CONTINUOUS
10
141.194
20
-76.119
11
143.794
21
-76.119
0
LINE
8
BLACK
6
CONTINUOUS
10
143.794
20
-76.119
11
143.794
21
-78.719
0
LINE
8
BLACK
6
CONTINUOUS
10
167.27
20
-77.354
11
165.47
21
-77.354
0
LINE
8
BLACK
6
CONTINUOUS
10
165.47
20
-77.354
11
165.47
21
-75.554
0
LINE
8
BLACK
6
CONTINUOUS
10
165.47
20
-75.554
11
167.27
21
-75.554
0
LINE
8
BLACK
6
CONTINUOUS
10
167.27
20
-75.554
11
167.27
21
-77.354
0
LINE
8
BLACK
6
CONTINUOUS
10
166.648
20
-73.058
11
166.82
21
-73.1346
0
LINE
8
BLACK
6
CONTINUOUS
10
166.82
20
-73.1346
11
166.972
21
-73.2452
0
LINE
8
BLACK
6
CONTINUOUS
10
166.972
20
-73.2452
11
167.098
21
-73.385
0
LINE
8
BLACK
6
CONTINUOUS
10
167.098
20
-73.385
11
167.192
21
-73.5479
0
LINE
8
BLACK
6
CONTINUOUS
10
167.192
20
-73.5479
11
167.25
21
-73.7269
0
LINE
8
BLACK
6
CONTINUOUS
10
167.25
20
-73.7269
11
167.27
21
-73.914
0
LINE
8
BLACK
6
CONTINUOUS
10
167.27
20
-73.914
11
167.25
21
-74.1011
0
LINE
8
BLACK
6
CONTINUOUS
10
167.25
20
-74.1011
11
167.192
21
-74.2801
0
LINE
8
BLACK
6
CONTINUOUS
10
167.192
20
-74.2801
11
167.098
21
-74.443
0
LINE
8
BLACK
6
CONTINUOUS
10
167.098
20
-74.443
11
166.972
21
-74.5828
0
LINE
8
BLACK
6
CONTINUOUS
10
166.972
20
-74.5828
11
166.82
21
-74.6934
0
LINE
8
BLACK
6
CONTINUOUS
10
166.82
20
-74.6934
11
166.648
21
-74.77
0
LINE
8
BLACK
6
CONTINUOUS
10
166.648
20
-74.77
11
166.464
21
-74.8091
0
LINE
8
BLACK
6
CONTINUOUS
10
166.464
20
-74.8091
11
166.276
21
-74.8091
0
LINE
8
BLACK
6
CONTINUOUS
10
166.276
20
-74.8091
11
166.092
21
-74.77
0
LINE
8
BLACK
6
CONTINUOUS
10
166.092
20
-74.77
11
165.92
21
-74.6934
0
LINE
8
BLACK
6
CONTINUOUS
10
165.92
20
-74.6934
11
165.768
21
-74.5828
0
LINE
8
BLACK
6
CONTINUOUS
10
165.768
20
-74.5828
11
165.642
21
-74.443
0
LINE
8
BLACK
6
CONTINUOUS
10
165.642
20
-74.443
11
165.548
21
-74.2801
0
LINE
8
BLACK
6
CONTINUOUS
10
165.548
20
-74.2801
11
165.49
21
-74.1011
0
LINE
8
BLACK
6
CONTINUOUS
10
165.49
20
-74.1011
11
165.47
21
-73.914
0
LINE
8
BLACK
6
CONTINUOUS
10
165.47
20
-73.914
11
165.49
21
-73.7269
0
LINE
8
BLACK
6
CONTINUOUS
10
165.49
20
-73.7269
11
165.548
21
-73.5479
0
LINE
8
BLACK
6
CONTINUOUS
10
165.548
20
-73.5479
11
165.642
21
-73.385
0
LINE
8
BLACK
6
CONTINUOUS
10
165.642
20
-73.385
11
165.768
21
-73.2452
0
LINE
8
BLACK
6
CONTINUOUS
10
165.768
20
-73.2452
11
165.92
21
-73.1346
0
LINE
8
BLACK
6
CONTINUOUS
10
165.92
20
-73.1346
11
166.092
21
-73.058
0
LINE
8
BLACK
6
CONTINUOUS
10
166.092
20
-73.058
11
166.276
21
-73.0189
0
LINE
8
BLACK
6
CONTINUOUS
10
166.276
20
-73.0189
11
166.464
21
-73.0189
0
LINE
8
BLACK
6
CONTINUOUS
10
166.464
20
-73.0189
11
166.648
21
-73.058
  0
ENDSEC
  0
EOF
