<?xml version="1.0" standalone="no"?>
 <!DOCTYPE svg PUBLIC "-//W3C//DTD SVG 1.1//EN" 
 "http://www.w3.org/Graphics/SVG/1.1/DTD/svg11.dtd"> 
<svg
  xmlns:svg="http://www.w3.org/2000/svg"
  xmlns="http://www.w3.org/2000/svg"
  xmlns:xlink="http://www.w3.org/1999/xlink"
  version="1.1"
  width="297.0022mm" height="210.0072mm" viewBox="0.0000 0.0000 297.0022 210.0072">
<title>SVG Image created as sensor_module-B_Silkscreen.svg date 2024/06/27 17:33:00 </title>
  <desc>Image generated by PCBNEW </desc>
<g style="fill:#000000; fill-opacity:1.0000;stroke:#000000; stroke-opacity:1.0000;
stroke-linecap:round; stroke-linejoin:round;"
 transform="translate(0 0) scale(1 1)">
</g>
<g style="fill:#000000; fill-opacity:0.0; 
stroke:#000000; stroke-width:0.0000; stroke-opacity:1; 
stroke-linecap:round; stroke-linejoin:round;">
</g>
<g style="fill:#000000; fill-opacity:0.0; 
stroke:#000000; stroke-width:0.3500; stroke-opacity:1; 
stroke-linecap:round; stroke-linejoin:round;">
<path d="M135.8900 101.5492
L132.0400 101.5492
" />
<path d="M130.6400 101.5492
L126.7900 101.5492
" />
<path d="M125.3900 101.5492
L121.5400 101.5492
" />
<path d="M120.1400 101.5492
L116.2900 101.5492
" />
<path d="M114.8900 101.5492
L111.8616 101.5492
" />
<path d="M142.8750 83.2536
L142.2400 83.2536
" />
<path d="M145.8544 80.5180
L145.8544 76.6680
" />
<path d="M145.8544 75.2680
L145.8544 71.4180
" />
<path d="M144.3544 83.2536 A1.5001 1.5001 0.0 0 0 145.8544 81.7536" />
<path d="M140.5650 83.2536 A1.5001 1.5001 0.0 0 0 139.0650 84.7536" />
<path d="M139.0650 98.9330
L139.0650 95.0830
" />
<path d="M139.0650 93.6830
L139.0650 89.8330
" />
<path d="M139.0650 88.4330
L139.0650 86.2330
" />
<path d="M137.5650 101.5492 A1.5001 1.5001 0.0 0 0 139.0650 100.0492" />
</g>
<g style="fill:#000000; fill-opacity:0.0; 
stroke:#000000; stroke-width:0.4000; stroke-opacity:1; 
stroke-linecap:round; stroke-linejoin:round;">
<text x="120.6500" y="107.1680"
transform="scale(-1 1) translate(-241.300000 0)"
textLength="4.8667" font-size="3.3333" lengthAdjust="spacingAndGlyphs"
text-anchor="middle" opacity="0">LV</text>
<g class="stroked-text"><desc>LV</desc>
<path d="M120.9476 107.0537
L122.1381 107.0537
" />
<path d="M122.1381 107.0537
L122.1381 104.5537
" />
<path d="M120.4714 104.5537
L119.6381 107.0537
" />
<path d="M119.6381 107.0537
L118.8048 104.5537
" />
</g><text x="120.6500" y="98.7860"
transform="scale(-1 1) translate(-241.300000 0)"
textLength="5.4619" font-size="3.3333" lengthAdjust="spacingAndGlyphs"
text-anchor="middle" opacity="0">HV</text>
<g class="stroked-text"><desc>HV</desc>
<path d="M122.4357 98.6717
L122.4357 96.1717
" />
<path d="M122.4357 97.3622
L121.0071 97.3622
" />
<path d="M121.0071 98.6717
L121.0071 96.1717
" />
<path d="M120.1738 96.1717
L119.3405 98.6717
" />
<path d="M119.3405 98.6717
L118.5071 96.1717
" />
</g></g>
<g style="fill:#000000; fill-opacity:0.0; 
stroke:#000000; stroke-width:0.2000; stroke-opacity:1; 
stroke-linecap:round; stroke-linejoin:round;">
</g>
<g style="fill:#000000; fill-opacity:1.0000; 
stroke:#000000; stroke-width:0.0000; stroke-opacity:1; 
stroke-linecap:round; stroke-linejoin:round;">
<path style="fill:#000000; fill-opacity:1.0000; 
stroke:#000000; stroke-width:0.0000; stroke-opacity:1; 
stroke-linecap:round; stroke-linejoin:round;fill-rule:evenodd;"
d="M 136.3346,118.7104
136.3593,118.7350
136.3891,118.7946
136.3891,119.0331
136.3593,119.0927
136.3346,119.1174
136.2750,119.1472
136.1317,119.1472
136.1129,119.1378
136.1129,118.6900
136.1317,118.6806
136.2750,118.6806
Z" /> 
<path style="fill:#000000; fill-opacity:1.0000; 
stroke:#000000; stroke-width:0.0000; stroke-opacity:1; 
stroke-linecap:round; stroke-linejoin:round;fill-rule:evenodd;"
d="M 120.0013,118.7104
120.0259,118.7350
120.0557,118.7946
120.0557,119.0331
120.0259,119.0927
120.0013,119.1174
119.9417,119.1472
119.8460,119.1472
119.7864,119.1174
119.7617,119.0927
119.7319,119.0331
119.7319,118.7946
119.7617,118.7350
119.7864,118.7104
119.8460,118.6806
119.9417,118.6806
Z" /> 
<path style="fill:#000000; fill-opacity:1.0000; 
stroke:#000000; stroke-width:0.0000; stroke-opacity:1; 
stroke-linecap:round; stroke-linejoin:round;fill-rule:evenodd;"
d="M 122.3669,118.9884
122.3891,119.0327
122.3891,119.0808
122.3669,119.1251
122.3226,119.1472
122.1317,119.1472
122.1129,119.1378
122.1129,118.9663
122.3226,118.9663
Z" /> 
<path style="fill:#000000; fill-opacity:1.0000; 
stroke:#000000; stroke-width:0.0000; stroke-opacity:1; 
stroke-linecap:round; stroke-linejoin:round;fill-rule:evenodd;"
d="M 124.6526,118.9884
124.6748,119.0327
124.6748,119.0808
124.6526,119.1251
124.6083,119.1472
124.4175,119.1472
124.3986,119.1378
124.3986,118.9663
124.6083,118.9663
Z" /> 
<path style="fill:#000000; fill-opacity:1.0000; 
stroke:#000000; stroke-width:0.0000; stroke-opacity:1; 
stroke-linecap:round; stroke-linejoin:round;fill-rule:evenodd;"
d="M 128.2241,118.9884
128.2462,119.0327
128.2462,119.0808
128.2241,119.1251
128.1798,119.1472
127.9889,119.1472
127.9700,119.1378
127.9700,118.9663
128.1798,118.9663
Z" /> 
<path style="fill:#000000; fill-opacity:1.0000; 
stroke:#000000; stroke-width:0.0000; stroke-opacity:1; 
stroke-linecap:round; stroke-linejoin:round;fill-rule:evenodd;"
d="M 132.0081,118.6900
132.0081,119.1378
131.9893,119.1472
131.8460,119.1472
131.7864,119.1174
131.7617,119.0927
131.7319,119.0331
131.7319,118.7946
131.7617,118.7350
131.7864,118.7104
131.8460,118.6806
131.9893,118.6806
Z" /> 
<path style="fill:#000000; fill-opacity:1.0000; 
stroke:#000000; stroke-width:0.0000; stroke-opacity:1; 
stroke-linecap:round; stroke-linejoin:round;fill-rule:evenodd;"
d="M 133.6679,118.7104
133.6926,118.7350
133.7224,118.7946
133.7224,119.0331
133.6926,119.0927
133.6679,119.1174
133.6083,119.1472
133.4651,119.1472
133.4462,119.1378
133.4462,118.6900
133.4651,118.6806
133.6083,118.6806
Z" /> 
<path style="fill:#000000; fill-opacity:1.0000; 
stroke:#000000; stroke-width:0.0000; stroke-opacity:1; 
stroke-linecap:round; stroke-linejoin:round;fill-rule:evenodd;"
d="M 134.5574,118.7027
134.5796,118.7470
134.5796,118.7919
134.3081,118.7376
134.3255,118.7027
134.3698,118.6806
134.5131,118.6806
Z" /> 
<path style="fill:#000000; fill-opacity:1.0000; 
stroke:#000000; stroke-width:0.0000; stroke-opacity:1; 
stroke-linecap:round; stroke-linejoin:round;fill-rule:evenodd;"
d="M 138.5098,118.7027
138.5319,118.7470
138.5319,118.7919
138.2605,118.7376
138.2779,118.7027
138.3222,118.6806
138.4655,118.6806
Z" /> 
<path style="fill:#000000; fill-opacity:1.0000; 
stroke:#000000; stroke-width:0.0000; stroke-opacity:1; 
stroke-linecap:round; stroke-linejoin:round;fill-rule:evenodd;"
d="M 139.4843,119.1472
139.3625,119.1472
139.2574,119.1122
139.1903,119.0451
139.1549,118.9742
139.1129,118.8063
139.1129,118.6881
139.1549,118.5202
139.1903,118.4493
139.2574,118.3822
139.3625,118.3472
139.4843,118.3472
Z" /> 
<path style="fill:#000000; fill-opacity:1.0000; 
stroke:#000000; stroke-width:0.0000; stroke-opacity:1; 
stroke-linecap:round; stroke-linejoin:round;fill-rule:evenodd;"
d="M 129.5884,118.8615
129.3897,118.8615
129.4891,118.5634
Z" /> 
<path style="fill:#000000; fill-opacity:1.0000; 
stroke:#000000; stroke-width:0.0000; stroke-opacity:1; 
stroke-linecap:round; stroke-linejoin:round;fill-rule:evenodd;"
d="M 139.8272,119.8234
119.3891,119.8234
119.3891,119.0567
119.5319,119.0567
119.5391,119.0787
119.5425,119.1015
119.5901,119.1967
119.6015,119.2082
119.6088,119.2227
119.6565,119.2703
119.6709,119.2777
119.6825,119.2890
119.7777,119.3367
119.8005,119.3401
119.8224,119.3472
119.9653,119.3472
119.9872,119.3401
120.0100,119.3367
120.1052,119.2890
120.1168,119.2777
120.1312,119.2703
120.1543,119.2472
120.4843,119.2472
120.5034,119.3060
120.5534,119.3423
120.6152,119.3423
120.6652,119.3060
120.6843,119.2472
120.6843,118.7470
120.7065,118.7027
120.7508,118.6806
120.8464,118.6806
120.9060,118.7104
120.9129,118.7172
120.9129,119.2472
120.9320,119.3060
120.9820,119.3423
121.0438,119.3423
121.0938,119.3060
121.1081,119.2621
121.2950,119.2621
121.3226,119.3174
121.3775,119.3459
121.4386,119.3367
121.5338,119.2890
121.5344,119.2885
121.5352,119.2884
121.5564,119.2668
121.5763,119.2472
121.9129,119.2472
121.9320,119.3060
121.9820,119.3423
122.0438,119.3423
122.0564,119.3332
122.0634,119.3367
122.0862,119.3401
122.1081,119.3472
122.3462,119.3472
122.3681,119.3401
122.3909,119.3367
122.4862,119.2890
122.4868,119.2885
122.4875,119.2884
122.5087,119.2668
122.5302,119.2457
122.5303,119.2449
122.5309,119.2443
122.5785,119.1491
122.5820,119.1263
122.5891,119.1044
122.5891,119.0091
122.5820,118.9872
122.5785,118.9644
122.5309,118.8692
122.5303,118.8686
122.5302,118.8678
122.5087,118.8466
122.4875,118.8251
122.4868,118.8250
122.4862,118.8244
122.3909,118.7768
122.3681,118.7734
122.3462,118.7663
122.1317,118.7663
122.1129,118.7568
122.1129,118.7470
122.1350,118.7027
122.1794,118.6806
122.3226,118.6806
122.3967,118.7176
122.4579,118.7268
122.5127,118.6983
122.5403,118.6431
122.5302,118.5821
122.5001,118.5524
122.7265,118.5524
122.7282,118.6142
122.9663,119.2809
122.9835,119.3031
122.9994,119.3264
123.0023,119.3274
123.0041,119.3298
123.0311,119.3377
123.0576,119.3472
123.0605,119.3463
123.0634,119.3472
123.0899,119.3377
123.1169,119.3298
123.1188,119.3274
123.1216,119.3264
123.1375,119.3031
123.1547,119.2809
123.3928,118.6142
123.3929,118.6115
123.4416,118.6115
123.4779,118.6615
123.5367,118.6806
123.6083,118.6806
123.6679,118.7104
123.6926,118.7350
123.7224,118.7946
123.7224,119.2472
123.7415,119.3060
123.7915,119.3423
123.8533,119.3423
123.9033,119.3060
123.9224,119.2472
124.1986,119.2472
124.2177,119.3060
124.2677,119.3423
124.3295,119.3423
124.3421,119.3332
124.3491,119.3367
124.3719,119.3401
124.3938,119.3472
124.6319,119.3472
124.6539,119.3401
124.6767,119.3367
124.7719,119.2890
124.7725,119.2885
124.7733,119.2884
124.7944,119.2668
124.8159,119.2457
124.8161,119.2449
124.8166,119.2443
124.8550,119.1676
125.0570,119.1676
125.0850,119.2227
125.1327,119.2703
125.1532,119.2808
125.1717,119.2945
125.3146,119.3421
125.3308,119.3422
125.3462,119.3472
125.4415,119.3472
125.4569,119.3422
125.4731,119.3421
125.6159,119.2945
125.6345,119.2808
125.6550,119.2703
125.6781,119.2472
126.8653,119.2472
126.8844,119.3060
126.9344,119.3423
126.9962,119.3423
127.0462,119.3060
127.0653,119.2472
127.0653,118.7470
127.0874,118.7027
127.1317,118.6806
127.2274,118.6806
127.2870,118.7104
127.2938,118.7172
127.2938,119.2472
127.3129,119.3060
127.3629,119.3423
127.4247,119.3423
127.4747,119.3060
127.4938,119.2472
127.7700,119.2472
127.7891,119.3060
127.8391,119.3423
127.9009,119.3423
127.9136,119.3332
127.9206,119.3367
127.9434,119.3401
127.9653,119.3472
128.2034,119.3472
128.2253,119.3401
128.2481,119.3367
128.3433,119.2890
128.3439,119.2885
128.3447,119.2884
128.3659,119.2668
128.3707,119.2621
128.5807,119.2621
128.6083,119.3174
128.6632,119.3459
128.7243,119.3367
128.8195,119.2890
128.8201,119.2885
128.8209,119.2884
128.8317,119.2774
129.0604,119.2774
129.0964,119.3277
129.1550,119.3472
129.2139,119.3286
129.2506,119.2788
129.3231,119.0615
129.6551,119.0615
129.7276,119.2788
129.7643,119.3286
129.8232,119.3472
129.8818,119.3277
129.9178,119.2774
129.9173,119.2156
129.6962,118.5524
130.7265,118.5524
130.7282,118.6142
130.9663,119.2809
130.9675,119.2824
130.9677,119.2844
131.0629,119.5225
131.0759,119.5380
131.0850,119.5560
131.1327,119.6036
131.1471,119.6110
131.1586,119.6224
131.2539,119.6700
131.3150,119.6792
131.3699,119.6507
131.3975,119.5954
131.3874,119.5345
131.3433,119.4911
131.2626,119.4507
131.2410,119.4291
131.2254,119.3901
135.9129,119.3901
135.9200,119.4120
135.9235,119.4348
135.9711,119.5300
135.9824,119.5416
135.9898,119.5560
136.0374,119.6036
136.0519,119.6110
136.0634,119.6224
136.1586,119.6700
136.1814,119.6734
136.2034,119.6806
136.3462,119.6806
136.3682,119.6734
136.3910,119.6700
136.4862,119.6224
136.5302,119.5790
136.5404,119.5180
136.5127,119.4628
136.4579,119.4343
136.3967,119.4435
136.3226,119.4806
136.2270,119.4806
136.1674,119.4507
136.1427,119.4261
136.1129,119.3665
136.1129,119.3472
136.2986,119.3472
136.3205,119.3401
136.3433,119.3367
136.4386,119.2890
136.4501,119.2777
136.4646,119.2703
136.4877,119.2472
136.8177,119.2472
136.8368,119.3060
136.8868,119.3423
136.9486,119.3423
136.9986,119.3060
137.0177,119.2472
137.0177,119.1044
137.2462,119.1044
137.2534,119.1263
137.2568,119.1491
137.3044,119.2443
137.3050,119.2449
137.3051,119.2457
137.3266,119.2668
137.3478,119.2884
137.3486,119.2885
137.3491,119.2890
137.4444,119.3367
137.4672,119.3401
137.4891,119.3472
137.6796,119.3472
137.7015,119.3401
137.7243,119.3367
137.8195,119.2890
137.8636,119.2457
137.8737,119.1847
137.8460,119.1294
137.7912,119.1010
137.7301,119.1102
137.6560,119.1472
137.5127,119.1472
137.4684,119.1251
137.4462,119.0808
137.4462,119.0803
137.4684,119.0360
137.5127,119.0139
137.6319,119.0139
137.6539,119.0068
137.6767,119.0033
137.7719,118.9557
137.7725,118.9552
137.7733,118.9550
137.7944,118.9335
137.8159,118.9123
137.8161,118.9116
137.8166,118.9110
137.8628,118.8186
138.0558,118.8186
138.0576,118.8244
138.0564,118.8303
138.0670,118.8533
138.0749,118.8774
138.0797,118.8810
138.0822,118.8865
138.1043,118.8989
138.1249,118.9138
138.1309,118.9138
138.1361,118.9167
138.5319,118.9959
138.5319,119.0808
138.5098,119.1251
138.4655,119.1472
138.3222,119.1472
138.2481,119.1102
138.1870,119.1010
138.1321,119.1294
138.1045,119.1847
138.1146,119.2457
138.1587,119.2890
138.2539,119.3367
138.2767,119.3401
138.2986,119.3472
138.4891,119.3472
138.5110,119.3401
138.5338,119.3367
138.6290,119.2890
138.6296,119.2885
138.6304,119.2884
138.6516,119.2668
138.6731,119.2457
138.6732,119.2449
138.6738,119.2443
138.7214,119.1491
138.7248,119.1263
138.7319,119.1044
138.7319,118.8186
138.9129,118.8186
138.9167,118.8305
138.9159,118.8429
138.9635,119.0334
138.9694,119.0428
138.9711,119.0538
139.0187,119.1491
139.0301,119.1606
139.0374,119.1751
139.1327,119.2703
139.1532,119.2808
139.1717,119.2945
139.3146,119.3421
139.3308,119.3422
139.3462,119.3472
139.5843,119.3472
139.5994,119.3423
139.6152,119.3423
139.6280,119.3330
139.6431,119.3281
139.6524,119.3153
139.6652,119.3060
139.6701,119.2909
139.6794,119.2781
139.6794,119.2623
139.6843,119.2472
139.6843,118.2472
139.6794,118.2322
139.6794,118.2163
139.6701,118.2035
139.6652,118.1884
139.6524,118.1791
139.6431,118.1663
139.6280,118.1614
139.6152,118.1521
139.5994,118.1521
139.5843,118.1472
139.3462,118.1472
139.3308,118.1522
139.3146,118.1524
139.1717,118.2000
139.1532,118.2137
139.1327,118.2241
139.0374,118.3194
139.0301,118.3338
139.0187,118.3454
138.9711,118.4406
138.9694,118.4516
138.9635,118.4611
138.9159,118.6515
138.9167,118.6640
138.9129,118.6758
138.9129,118.8186
138.7319,118.8186
138.7319,118.7234
138.7248,118.7015
138.7214,118.6787
138.6738,118.5835
138.6732,118.5829
138.6731,118.5821
138.6516,118.5609
138.6304,118.5394
138.6296,118.5393
138.6290,118.5387
138.5338,118.4911
138.5110,118.4877
138.4891,118.4806
138.2986,118.4806
138.2767,118.4877
138.2539,118.4911
138.1587,118.5387
138.1581,118.5393
138.1573,118.5394
138.1361,118.5609
138.1146,118.5821
138.1145,118.5829
138.1139,118.5835
138.0663,118.6787
138.0629,118.7015
138.0558,118.7234
138.0558,118.8186
137.8628,118.8186
137.8642,118.8158
137.8677,118.7930
137.8748,118.7710
137.8748,118.7234
137.8677,118.7015
137.8642,118.6787
137.8166,118.5835
137.8161,118.5829
137.8159,118.5821
137.7944,118.5609
137.7733,118.5394
137.7725,118.5393
137.7719,118.5387
137.6767,118.4911
137.6539,118.4877
137.6319,118.4806
137.4891,118.4806
137.4672,118.4877
137.4444,118.4911
137.3491,118.5387
137.3051,118.5821
137.2950,118.6431
137.3226,118.6983
137.3775,118.7268
137.4386,118.7176
137.5127,118.6806
137.6083,118.6806
137.6526,118.7027
137.6748,118.7470
137.6748,118.7474
137.6526,118.7917
137.6083,118.8139
137.4891,118.8139
137.4672,118.8210
137.4444,118.8244
137.3491,118.8721
137.3486,118.8726
137.3478,118.8728
137.3266,118.8943
137.3051,118.9154
137.3050,118.9162
137.3044,118.9168
137.2568,119.0120
137.2534,119.0348
137.2462,119.0567
137.2462,119.1044
137.0177,119.1044
137.0177,118.5806
136.9986,118.5218
136.9486,118.4854
136.8868,118.4854
136.8368,118.5218
136.8177,118.5806
136.8177,119.2472
136.4877,119.2472
136.5122,119.2227
136.5195,119.2082
136.5309,119.1967
136.5785,119.1015
136.5820,119.0787
136.5891,119.0567
136.5891,118.7710
136.5820,118.7491
136.5785,118.7263
136.5309,118.6311
136.5195,118.6195
136.5122,118.6051
136.4646,118.5575
136.4501,118.5501
136.4386,118.5387
136.3433,118.4911
136.3205,118.4877
136.2986,118.4806
136.1081,118.4806
136.0862,118.4877
136.0634,118.4911
136.0564,118.4946
136.0438,118.4854
135.9820,118.4854
135.9320,118.5218
135.9129,118.5806
135.9129,119.3901
131.2254,119.3901
131.1674,119.2452
131.2347,119.0567
131.5319,119.0567
131.5391,119.0787
131.5425,119.1015
131.5901,119.1967
131.6015,119.2082
131.6089,119.2227
131.6565,119.2703
131.6709,119.2777
131.6825,119.2890
131.7777,119.3367
131.8005,119.3401
131.8224,119.3472
132.0129,119.3472
132.0348,119.3401
132.0576,119.3367
132.0646,119.3332
132.0772,119.3423
132.1390,119.3423
132.1890,119.3060
132.2081,119.2472
133.2462,119.2472
133.2653,119.3060
133.3153,119.3423
133.3771,119.3423
133.3897,119.3332
133.3967,119.3367
133.4195,119.3401
133.4415,119.3472
133.6319,119.3472
133.6539,119.3401
133.6767,119.3367
133.7719,119.2890
133.7834,119.2777
133.7979,119.2703
133.8455,119.2227
133.8529,119.2082
133.8642,119.1967
133.9119,119.1015
133.9153,119.0787
133.9224,119.0567
133.9224,118.8186
134.1034,118.8186
134.1052,118.8244
134.1041,118.8303
134.1146,118.8533
134.1225,118.8774
134.1273,118.8810
134.1299,118.8865
134.1520,118.8989
134.1725,118.9138
134.1785,118.9138
134.1838,118.9167
134.5796,118.9959
134.5796,119.0808
134.5574,119.1251
134.5131,119.1472
134.3698,119.1472
134.2957,119.1102
134.2346,119.1010
134.1797,119.1294
134.1521,119.1847
134.1622,119.2457
134.2063,119.2890
134.3015,119.3367
134.3243,119.3401
134.3462,119.3472
134.5367,119.3472
134.5586,119.3401
134.5814,119.3367
134.6767,119.2890
134.6772,119.2885
134.6780,119.2884
134.6992,119.2668
134.7191,119.2472
135.0081,119.2472
135.0272,119.3060
135.0772,119.3423
135.1390,119.3423
135.1890,119.3060
135.2081,119.2472
135.2081,118.7470
135.2303,118.7027
135.2746,118.6806
135.3702,118.6806
135.4298,118.7104
135.4367,118.7172
135.4367,119.2472
135.4558,119.3060
135.5058,119.3423
135.5676,119.3423
135.6176,119.3060
135.6367,119.2472
135.6367,118.5806
135.6176,118.5218
135.5676,118.4854
135.5058,118.4854
135.4738,118.5087
135.4386,118.4911
135.4158,118.4877
135.3938,118.4806
135.2510,118.4806
135.2291,118.4877
135.2063,118.4911
135.1110,118.5387
135.1105,118.5393
135.1097,118.5394
135.0885,118.5609
135.0670,118.5821
135.0669,118.5829
135.0663,118.5835
135.0187,118.6787
135.0153,118.7015
135.0081,118.7234
135.0081,119.2472
134.7191,119.2472
134.7207,119.2457
134.7208,119.2449
134.7214,119.2443
134.7690,119.1491
134.7724,119.1263
134.7796,119.1044
134.7796,118.7234
134.7724,118.7015
134.7690,118.6787
134.7214,118.5835
134.7208,118.5829
134.7207,118.5821
134.6992,118.5609
134.6780,118.5394
134.6772,118.5393
134.6767,118.5387
134.5814,118.4911
134.5586,118.4877
134.5367,118.4806
134.3462,118.4806
134.3243,118.4877
134.3015,118.4911
134.2063,118.5387
134.2057,118.5393
134.2049,118.5394
134.1837,118.5609
134.1622,118.5821
134.1621,118.5829
134.1615,118.5835
134.1139,118.6787
134.1105,118.7015
134.1034,118.7234
134.1034,118.8186
133.9224,118.8186
133.9224,118.7710
133.9153,118.7491
133.9119,118.7263
133.8642,118.6311
133.8529,118.6195
133.8455,118.6051
133.7979,118.5575
133.7834,118.5501
133.7719,118.5387
133.6767,118.4911
133.6539,118.4877
133.6319,118.4806
133.4462,118.4806
133.4462,118.3105
136.7713,118.3105
136.7785,118.3246
136.7809,118.3402
136.7921,118.3514
136.7993,118.3655
136.8469,118.4132
136.8611,118.4204
136.8723,118.4316
136.8802,118.4328
136.8868,118.4376
136.8948,118.4376
136.9020,118.4412
136.9177,118.4387
136.9333,118.4412
136.9405,118.4376
136.9486,118.4376
136.9551,118.4328
136.9631,118.4316
136.9743,118.4204
136.9884,118.4132
137.0360,118.3655
137.0432,118.3514
137.0544,118.3402
137.0569,118.3246
137.0640,118.3105
137.0616,118.2948
137.0640,118.2792
137.0569,118.2651
137.0544,118.2494
137.0432,118.2382
137.0360,118.2241
136.9884,118.1765
136.9743,118.1693
136.9631,118.1581
136.9551,118.1569
136.9486,118.1521
136.9405,118.1521
136.9333,118.1485
136.9177,118.1509
136.9020,118.1485
136.8948,118.1521
136.8868,118.1521
136.8802,118.1569
136.8723,118.1581
136.8611,118.1693
136.8469,118.1765
136.7993,118.2241
136.7921,118.2382
136.7809,118.2494
136.7785,118.2651
136.7713,118.2792
136.7737,118.2948
136.7713,118.3105
133.4462,118.3105
133.4462,118.2472
133.4271,118.1884
133.3771,118.1521
133.3153,118.1521
133.2653,118.1884
133.2462,118.2472
133.2462,119.2472
132.2081,119.2472
132.2081,118.2472
132.1890,118.1884
132.1390,118.1521
132.0772,118.1521
132.0272,118.1884
132.0081,118.2472
132.0081,118.4806
131.8224,118.4806
131.8005,118.4877
131.7777,118.4911
131.6825,118.5387
131.6709,118.5501
131.6565,118.5575
131.6089,118.6051
131.6015,118.6195
131.5901,118.6311
131.5425,118.7263
131.5391,118.7491
131.5319,118.7710
131.5319,119.0567
131.2347,119.0567
131.3928,118.6142
131.3946,118.5524
131.3597,118.5014
131.3015,118.4806
131.2422,118.4980
131.2044,118.5469
131.0605,118.9499
130.9166,118.5469
130.8788,118.4980
130.8195,118.4806
130.7613,118.5014
130.7265,118.5524
129.6962,118.5524
129.5840,118.2156
129.5660,118.1913
129.5485,118.1668
129.5477,118.1665
129.5472,118.1659
129.5184,118.1567
129.4898,118.1472
129.4891,118.1475
129.4883,118.1472
129.4597,118.1568
129.4309,118.1659
129.4304,118.1665
129.4297,118.1668
129.4121,118.1913
129.3942,118.2156
129.0609,119.2156
129.0604,119.2774
128.8317,119.2774
128.8421,119.2668
128.8636,119.2457
128.8637,119.2449
128.8642,119.2443
128.9119,119.1491
128.9153,119.1263
128.9224,119.1044
128.9224,118.2472
128.9033,118.1884
128.8533,118.1521
128.7915,118.1521
128.7415,118.1884
128.7224,118.2472
128.7224,119.0808
128.7003,119.1251
128.6348,119.1578
128.5908,119.2011
128.5807,119.2621
128.3707,119.2621
128.3874,119.2457
128.3875,119.2449
128.3881,119.2443
128.4357,119.1491
128.4391,119.1263
128.4462,119.1044
128.4462,119.0091
128.4391,118.9872
128.4357,118.9644
128.3881,118.8692
128.3875,118.8686
128.3874,118.8678
128.3659,118.8466
128.3447,118.8251
128.3439,118.8250
128.3433,118.8244
128.2481,118.7768
128.2253,118.7734
128.2034,118.7663
127.9889,118.7663
127.9700,118.7568
127.9700,118.7470
127.9922,118.7027
128.0365,118.6806
128.1798,118.6806
128.2539,118.7176
128.3150,118.7268
128.3699,118.6983
128.3975,118.6431
128.3874,118.5821
128.3433,118.5387
128.2481,118.4911
128.2253,118.4877
128.2034,118.4806
128.0129,118.4806
127.9910,118.4877
127.9682,118.4911
127.8729,118.5387
127.8724,118.5393
127.8716,118.5394
127.8504,118.5609
127.8289,118.5821
127.8288,118.5829
127.8282,118.5835
127.7806,118.6787
127.7772,118.7015
127.7700,118.7234
127.7700,119.2472
127.4938,119.2472
127.4938,118.5806
127.4747,118.5218
127.4247,118.4854
127.3629,118.4854
127.3309,118.5087
127.2957,118.4911
127.2729,118.4877
127.2510,118.4806
127.1081,118.4806
127.0862,118.4877
127.0634,118.4911
126.9682,118.5387
126.9676,118.5393
126.9668,118.5394
126.9456,118.5609
126.9241,118.5821
126.9240,118.5829
126.9235,118.5835
126.8758,118.6787
126.8724,118.7015
126.8653,118.7234
126.8653,119.2472
125.6781,119.2472
125.7503,119.1751
125.7576,119.1606
125.7690,119.1491
125.8166,119.0538
125.8183,119.0428
125.8242,119.0334
125.8718,118.8429
125.8710,118.8305
125.8748,118.8186
125.8748,118.6758
125.8710,118.6640
125.8718,118.6515
125.8242,118.4611
125.8183,118.4516
125.8166,118.4406
125.7690,118.3454
125.7576,118.3338
125.7503,118.3194
125.6550,118.2241
125.6345,118.2137
125.6159,118.2000
125.4731,118.1524
125.4569,118.1522
125.4415,118.1472
125.3462,118.1472
125.3308,118.1522
125.3146,118.1524
125.1717,118.2000
125.1532,118.2137
125.1327,118.2241
125.0850,118.2717
125.0570,118.3268
125.0666,118.3879
125.1104,118.4316
125.1714,118.4412
125.2265,118.4132
125.2574,118.3822
125.3625,118.3472
125.4252,118.3472
125.5303,118.3822
125.5974,118.4493
125.6328,118.5202
125.6748,118.6881
125.6748,118.8063
125.6328,118.9742
125.5974,119.0451
125.5303,119.1122
125.4252,119.1472
125.3625,119.1472
125.2574,119.1122
125.2265,119.0813
125.1714,119.0532
125.1104,119.0629
125.0666,119.1066
125.0570,119.1676
124.8550,119.1676
124.8642,119.1491
124.8677,119.1263
124.8748,119.1044
124.8748,119.0091
124.8677,118.9872
124.8642,118.9644
124.8166,118.8692
124.8161,118.8686
124.8159,118.8678
124.7944,118.8466
124.7733,118.8251
124.7725,118.8250
124.7719,118.8244
124.6767,118.7768
124.6539,118.7734
124.6319,118.7663
124.4175,118.7663
124.3986,118.7568
124.3986,118.7470
124.4208,118.7027
124.4651,118.6806
124.6083,118.6806
124.6825,118.7176
124.7436,118.7268
124.7984,118.6983
124.8261,118.6431
124.8159,118.5821
124.7719,118.5387
124.6767,118.4911
124.6539,118.4877
124.6319,118.4806
124.4415,118.4806
124.4195,118.4877
124.3967,118.4911
124.3015,118.5387
124.3009,118.5393
124.3002,118.5394
124.2790,118.5609
124.2575,118.5821
124.2573,118.5829
124.2568,118.5835
124.2092,118.6787
124.2057,118.7015
124.1986,118.7234
124.1986,119.2472
123.9224,119.2472
123.9224,118.5806
123.9033,118.5218
123.8533,118.4854
123.7915,118.4854
123.7415,118.5218
123.7410,118.5233
123.6767,118.4911
123.6539,118.4877
123.6319,118.4806
123.5367,118.4806
123.4779,118.4997
123.4416,118.5497
123.4416,118.6115
123.3929,118.6115
123.3946,118.5524
123.3597,118.5014
123.3015,118.4806
123.2422,118.4980
123.2044,118.5469
123.0605,118.9499
122.9166,118.5469
122.8788,118.4980
122.8195,118.4806
122.7613,118.5014
122.7265,118.5524
122.5001,118.5524
122.4862,118.5387
122.3909,118.4911
122.3681,118.4877
122.3462,118.4806
122.1557,118.4806
122.1338,118.4877
122.1110,118.4911
122.0158,118.5387
122.0152,118.5393
122.0144,118.5394
121.9933,118.5609
121.9718,118.5821
121.9716,118.5829
121.9711,118.5835
121.9234,118.6787
121.9200,118.7015
121.9129,118.7234
121.9129,119.2472
121.5763,119.2472
121.5778,119.2457
121.5780,119.2449
121.5785,119.2443
121.6261,119.1491
121.6296,119.1263
121.6367,119.1044
121.6367,118.2472
121.6176,118.1884
121.5676,118.1521
121.5058,118.1521
121.4558,118.1884
121.4367,118.2472
121.4367,119.0808
121.4145,119.1251
121.3491,119.1578
121.3051,119.2011
121.2950,119.2621
121.1081,119.2621
121.1129,119.2472
121.1129,118.2472
121.0938,118.1884
121.0438,118.1521
120.9820,118.1521
120.9320,118.1884
120.9129,118.2472
120.9129,118.4908
120.8920,118.4877
120.8700,118.4806
120.7272,118.4806
120.7053,118.4877
120.6825,118.4911
120.5872,118.5387
120.5867,118.5393
120.5859,118.5394
120.5647,118.5609
120.5432,118.5821
120.5431,118.5829
120.5425,118.5835
120.4949,118.6787
120.4914,118.7015
120.4843,118.7234
120.4843,119.2472
120.1543,119.2472
120.1788,119.2227
120.1862,119.2082
120.1976,119.1967
120.2452,119.1015
120.2486,119.0787
120.2557,119.0567
120.2557,118.7710
120.2486,118.7491
120.2452,118.7263
120.1976,118.6311
120.1862,118.6195
120.1788,118.6051
120.1312,118.5575
120.1168,118.5501
120.1052,118.5387
120.0100,118.4911
119.9872,118.4877
119.9653,118.4806
119.8224,118.4806
119.8005,118.4877
119.7777,118.4911
119.6825,118.5387
119.6709,118.5501
119.6565,118.5575
119.6088,118.6051
119.6015,118.6195
119.5901,118.6311
119.5425,118.7263
119.5391,118.7491
119.5319,118.7710
119.5319,119.0567
119.3891,119.0567
119.3891,118.0044
139.8272,118.0044
Z" /> 
</g>
<g style="fill:#000000; fill-opacity:1.0000; 
stroke:#000000; stroke-width:0.3000; stroke-opacity:1; 
stroke-linecap:round; stroke-linejoin:round;">
</g>
<g style="fill:#000000; fill-opacity:1.0000; 
stroke:#000000; stroke-width:0.0000; stroke-opacity:1; 
stroke-linecap:round; stroke-linejoin:round;">
<path style="fill:#000000; fill-opacity:1.0000; 
stroke:#000000; stroke-width:0.0000; stroke-opacity:1; 
stroke-linecap:round; stroke-linejoin:round;fill-rule:evenodd;"
d="M 118.5591,116.4476
118.5923,116.5140
118.5923,116.5814
118.1851,116.4999
118.2112,116.4476
118.2777,116.4143
118.4926,116.4143
Z" /> 
<path style="fill:#000000; fill-opacity:1.0000; 
stroke:#000000; stroke-width:0.0000; stroke-opacity:1; 
stroke-linecap:round; stroke-linejoin:round;fill-rule:evenodd;"
d="M 122.0106,116.4590
122.0476,116.4960
122.0923,116.5855
122.0923,116.9432
122.0476,117.0326
122.0106,117.0696
121.9212,117.1143
121.7063,117.1143
121.6780,117.1002
121.6780,116.4285
121.7063,116.4143
121.9212,116.4143
Z" /> 
<path style="fill:#000000; fill-opacity:1.0000; 
stroke:#000000; stroke-width:0.0000; stroke-opacity:1; 
stroke-linecap:round; stroke-linejoin:round;fill-rule:evenodd;"
d="M 123.3677,116.4590
123.4047,116.4960
123.4494,116.5855
123.4494,116.9432
123.4047,117.0326
123.3677,117.0696
123.2783,117.1143
123.1348,117.1143
123.0454,117.0696
123.0084,117.0326
122.9637,116.9432
122.9637,116.5855
123.0084,116.4960
123.0454,116.4590
123.1348,116.4143
123.2783,116.4143
Z" /> 
<path style="fill:#000000; fill-opacity:1.0000; 
stroke:#000000; stroke-width:0.0000; stroke-opacity:1; 
stroke-linecap:round; stroke-linejoin:round;fill-rule:evenodd;"
d="M 128.5106,116.4590
128.5476,116.4960
128.5923,116.5855
128.5923,116.9432
128.5476,117.0326
128.5106,117.0696
128.4212,117.1143
128.2777,117.1143
128.1883,117.0696
128.1513,117.0326
128.1066,116.9432
128.1066,116.5855
128.1513,116.4960
128.1883,116.4590
128.2777,116.4143
128.4212,116.4143
Z" /> 
<path style="fill:#000000; fill-opacity:1.0000; 
stroke:#000000; stroke-width:0.0000; stroke-opacity:1; 
stroke-linecap:round; stroke-linejoin:round;fill-rule:evenodd;"
d="M 132.4162,116.4476
132.4494,116.5140
132.4494,116.5814
132.0422,116.4999
132.0684,116.4476
132.1348,116.4143
132.3497,116.4143
Z" /> 
<path style="fill:#000000; fill-opacity:1.0000; 
stroke:#000000; stroke-width:0.0000; stroke-opacity:1; 
stroke-linecap:round; stroke-linejoin:round;fill-rule:evenodd;"
d="M 136.4494,116.4000
136.0634,116.4000
135.9740,116.3553
135.9370,116.3183
135.8923,116.2289
135.8923,116.0855
135.9370,115.9960
135.9740,115.9590
136.0634,115.9143
136.4494,115.9143
Z" /> 
<path style="fill:#000000; fill-opacity:1.0000; 
stroke:#000000; stroke-width:0.0000; stroke-opacity:1; 
stroke-linecap:round; stroke-linejoin:round;fill-rule:evenodd;"
d="M 137.7485,116.6858
137.4504,116.6858
137.5994,116.2387
Z" /> 
<path style="fill:#000000; fill-opacity:1.0000; 
stroke:#000000; stroke-width:0.0000; stroke-opacity:1; 
stroke-linecap:round; stroke-linejoin:round;fill-rule:evenodd;"
d="M 139.8209,117.6286
117.6637,117.6286
117.6637,116.6215
117.8780,116.6215
117.8843,116.6451
117.8859,116.6695
117.8942,116.6820
117.8981,116.6965
117.9154,116.7138
117.9290,116.7341
117.9424,116.7408
117.9530,116.7514
117.9766,116.7577
117.9986,116.7686
118.5923,116.8873
118.5923,117.0146
118.5591,117.0811
118.4926,117.1143
118.2777,117.1143
118.1665,117.0587
118.0904,117.0432
118.0168,117.0677
117.9653,117.1258
117.9497,117.2019
117.9743,117.2755
118.0323,117.3271
118.1752,117.3985
118.2090,117.4054
118.2423,117.4143
118.5280,117.4143
118.5613,117.4054
118.5951,117.3985
118.7379,117.3271
118.7448,117.3210
118.7535,117.3181
118.7735,117.2955
118.7960,117.2755
118.7989,117.2668
118.8050,117.2600
118.8073,117.2553
119.0926,117.2553
119.1081,117.3314
119.1596,117.3895
119.2333,117.4141
119.3094,117.3985
119.4522,117.3271
119.4591,117.3210
119.4678,117.3181
119.4878,117.2955
119.5103,117.2755
119.5132,117.2668
119.5155,117.2643
120.0209,117.2643
120.0410,117.3393
120.0959,117.3942
120.1709,117.4143
120.2459,117.3942
120.2671,117.3730
120.3181,117.3985
120.3518,117.4054
120.3851,117.4143
120.5994,117.4143
120.6327,117.4054
120.6665,117.3985
120.8094,117.3271
120.8162,117.3210
120.8249,117.3181
120.8449,117.2955
120.8675,117.2755
120.8704,117.2668
120.8726,117.2643
121.3780,117.2643
121.3981,117.3393
121.4530,117.3942
121.5280,117.4143
121.5980,117.3956
121.6038,117.3985
121.6376,117.4054
121.6709,117.4143
121.9566,117.4143
121.9899,117.4054
122.0237,117.3985
122.1665,117.3271
122.1846,117.3110
122.2055,117.2990
122.2769,117.2275
122.2890,117.2066
122.3050,117.1886
122.3764,117.0457
122.3834,117.0119
122.3923,116.9786
122.6637,116.9786
122.6726,117.0119
122.6795,117.0457
122.7510,117.1886
122.7670,117.2066
122.7791,117.2275
122.8505,117.2990
122.8714,117.3110
122.8895,117.3271
123.0323,117.3985
123.0661,117.4054
123.0994,117.4143
123.3137,117.4143
123.3470,117.4054
123.3808,117.3985
123.5237,117.3271
123.5417,117.3110
123.5626,117.2990
123.5973,117.2643
124.0923,117.2643
124.1124,117.3393
124.1673,117.3942
124.2423,117.4143
124.3173,117.3942
124.3722,117.3393
124.3923,117.2643
124.3923,116.4405
124.6064,116.8992
124.6149,116.9093
124.6194,116.9218
124.6394,116.9386
124.6563,116.9587
124.6687,116.9632
124.6789,116.9717
124.7046,116.9762
124.7293,116.9852
124.7423,116.9829
124.7553,116.9852
124.7799,116.9762
124.8057,116.9717
124.8159,116.9632
124.8283,116.9587
124.8451,116.9386
124.8652,116.9218
124.8697,116.9093
124.8782,116.8992
125.0923,116.4405
125.0923,117.2643
125.1124,117.3393
125.1673,117.3942
125.2423,117.4143
125.3173,117.3942
125.3722,117.3393
125.3923,117.2643
125.3923,116.2643
126.7351,116.2643
126.7552,116.3393
126.8101,116.3942
126.8851,116.4143
126.9926,116.4143
127.0820,116.4590
127.1190,116.4960
127.1637,116.5855
127.1637,117.2643
127.1838,117.3393
127.2387,117.3942
127.3137,117.4143
127.3887,117.3942
127.4436,117.3393
127.4637,117.2643
127.4637,116.9786
127.8066,116.9786
127.8155,117.0119
127.8224,117.0457
127.8938,117.1886
127.9099,117.2066
127.9219,117.2275
127.9934,117.2990
128.0143,117.3110
128.0323,117.3271
128.1752,117.3985
128.2090,117.4054
128.2423,117.4143
128.4566,117.4143
128.4899,117.4054
128.5237,117.3985
128.6665,117.3271
128.6846,117.3110
128.7055,117.2990
128.7769,117.2275
128.7890,117.2066
128.8050,117.1886
128.8743,117.0500
129.1637,117.0500
129.1726,117.0833
129.1796,117.1171
129.2510,117.2600
129.2571,117.2668
129.2600,117.2755
129.2825,117.2955
129.3025,117.3181
129.3112,117.3210
129.3181,117.3271
129.4609,117.3985
129.4947,117.4054
129.5280,117.4143
129.8137,117.4143
129.8470,117.4054
129.8808,117.3985
130.0237,117.3271
130.0817,117.2755
130.0855,117.2643
130.4494,117.2643
130.4695,117.3393
130.5244,117.3942
130.5994,117.4143
130.6744,117.3942
130.7293,117.3393
130.7494,117.2643
130.7494,116.5140
130.7827,116.4476
130.8491,116.4143
130.9926,116.4143
131.0820,116.4590
131.0923,116.4693
131.0923,117.2643
131.1124,117.3393
131.1673,117.3942
131.2423,117.4143
131.3173,117.3942
131.3722,117.3393
131.3923,117.2643
131.3923,116.6215
131.7351,116.6215
131.7415,116.6451
131.7431,116.6695
131.7514,116.6820
131.7552,116.6965
131.7725,116.7138
131.7861,116.7341
131.7996,116.7408
131.8101,116.7514
131.8338,116.7577
131.8557,116.7686
132.4494,116.8873
132.4494,117.0146
132.4162,117.0811
132.3497,117.1143
132.1348,117.1143
132.0237,117.0587
131.9476,117.0432
131.8739,117.0677
131.8224,117.1258
131.8068,117.2019
131.8314,117.2755
131.8895,117.3271
132.0323,117.3985
132.0661,117.4054
132.0994,117.4143
132.3851,117.4143
132.4184,117.4054
132.4522,117.3985
132.5951,117.3271
132.6019,117.3210
132.6106,117.3181
132.6306,117.2955
132.6532,117.2755
132.6561,117.2668
132.6622,117.2600
132.7336,117.1171
132.7405,117.0833
132.7494,117.0500
132.7494,116.9786
133.0209,116.9786
133.0298,117.0119
133.0367,117.0457
133.1081,117.1886
133.1241,117.2066
133.1362,117.2275
133.2076,117.2990
133.2286,117.3110
133.2466,117.3271
133.3895,117.3985
133.4233,117.4054
133.4566,117.4143
133.8137,117.4143
133.8370,117.4081
133.8611,117.4066
134.0754,117.3352
134.1402,117.2924
134.1750,117.2230
134.1703,117.1455
134.1275,117.0807
134.0581,117.0459
133.9806,117.0506
133.7894,117.1143
133.4920,117.1143
133.4026,117.0696
133.3656,117.0326
133.3209,116.9432
133.3209,116.8712
133.3656,116.7818
133.4026,116.7447
133.5089,116.6916
133.7787,116.6241
133.7931,116.6161
133.8094,116.6128
133.9522,116.5413
133.9703,116.5253
133.9912,116.5133
134.0626,116.4418
134.0747,116.4209
134.0907,116.4028
134.1600,116.2643
135.5923,116.2643
135.6012,116.2976
135.6081,116.3314
135.6795,116.4743
135.6956,116.4923
135.7076,116.5133
135.7791,116.5847
135.8000,116.5968
135.8181,116.6128
135.9609,116.6842
135.9947,116.6911
136.0280,116.7000
136.4494,116.7000
136.4494,117.2643
136.4695,117.3393
136.5244,117.3942
136.5994,117.4143
136.6744,117.3942
136.7293,117.3393
136.7414,117.2944
136.9525,117.2944
136.9872,117.3638
137.0520,117.4066
137.1295,117.4113
137.1989,117.3766
137.2417,117.3118
137.3504,116.9858
137.8485,116.9858
137.9571,117.3118
137.9999,117.3766
138.0694,117.4113
138.1469,117.4066
138.2117,117.3638
138.2464,117.2944
138.2446,117.2643
138.4494,117.2643
138.4695,117.3393
138.5244,117.3942
138.5994,117.4143
138.6744,117.3942
138.7293,117.3393
138.7494,117.2643
138.7494,116.6286
139.3066,116.6286
139.3066,117.2643
139.3267,117.3393
139.3816,117.3942
139.4566,117.4143
139.5316,117.3942
139.5865,117.3393
139.6066,117.2643
139.6066,115.7643
139.5865,115.6893
139.5316,115.6344
139.4566,115.6143
139.3816,115.6344
139.3267,115.6893
139.3066,115.7643
139.3066,116.3286
138.7494,116.3286
138.7494,115.7643
138.7293,115.6893
138.6744,115.6344
138.5994,115.6143
138.5244,115.6344
138.4695,115.6893
138.4494,115.7643
138.4494,117.2643
138.2446,117.2643
138.2417,117.2169
137.7417,115.7169
137.7251,115.6918
137.7117,115.6648
137.7040,115.6598
137.6989,115.6521
137.6720,115.6386
137.6469,115.6220
137.6377,115.6215
137.6295,115.6174
137.5994,115.6192
137.5694,115.6174
137.5611,115.6215
137.5520,115.6220
137.5269,115.6386
137.4999,115.6521
137.4948,115.6598
137.4872,115.6648
137.4737,115.6918
137.4571,115.7169
136.9571,117.2169
136.9525,117.2944
136.7414,117.2944
136.7494,117.2643
136.7494,115.7643
136.7293,115.6893
136.6744,115.6344
136.5994,115.6143
136.0280,115.6143
135.9947,115.6232
135.9609,115.6302
135.8181,115.7016
135.8000,115.7176
135.7791,115.7297
135.7076,115.8011
135.6956,115.8220
135.6795,115.8401
135.6081,115.9830
135.6012,116.0167
135.5923,116.0500
135.5923,116.2643
134.1600,116.2643
134.1622,116.2600
134.1691,116.2262
134.1780,116.1929
134.1780,116.0500
134.1691,116.0167
134.1622,115.9830
134.0907,115.8401
134.0747,115.8220
134.0626,115.8011
133.9912,115.7297
133.9703,115.7176
133.9522,115.7016
133.8094,115.6302
133.7756,115.6233
133.7423,115.6143
133.3851,115.6143
133.3618,115.6206
133.3377,115.6220
133.1234,115.6935
133.0586,115.7362
133.0239,115.8057
133.0286,115.8832
133.0713,115.9480
133.1408,115.9827
133.2183,115.9781
133.4095,115.9143
133.7069,115.9143
133.7963,115.9590
133.8333,115.9960
133.8780,116.0855
133.8780,116.1575
133.8333,116.2469
133.7963,116.2839
133.6899,116.3371
133.4202,116.4045
133.4057,116.4126
133.3895,116.4159
133.2466,116.4873
133.2286,116.5033
133.2076,116.5154
133.1362,116.5868
133.1241,116.6077
133.1081,116.6258
133.0367,116.7687
133.0298,116.8025
133.0209,116.8358
133.0209,116.9786
132.7494,116.9786
132.7494,116.4786
132.7405,116.4453
132.7336,116.4115
132.6622,116.2687
132.6561,116.2618
132.6532,116.2531
132.6306,116.2331
132.6106,116.2106
132.6019,116.2077
132.5951,116.2016
132.4522,116.1302
132.4184,116.1233
132.3851,116.1143
132.0994,116.1143
132.0661,116.1232
132.0323,116.1302
131.8895,116.2016
131.8826,116.2077
131.8739,116.2106
131.8539,116.2331
131.8314,116.2531
131.8285,116.2618
131.8224,116.2687
131.7510,116.4115
131.7441,116.4453
131.7351,116.4786
131.7351,116.6215
131.3923,116.6215
131.3923,116.2643
131.3722,116.1893
131.3173,116.1344
131.2423,116.1143
131.1673,116.1344
131.1461,116.1557
131.0951,116.1302
131.0613,116.1233
131.0280,116.1143
130.8137,116.1143
130.7804,116.1232
130.7466,116.1302
130.6038,116.2016
130.5969,116.2077
130.5882,116.2106
130.5682,116.2331
130.5457,116.2531
130.5428,116.2618
130.5367,116.2687
130.4653,116.4115
130.4584,116.4453
130.4494,116.4786
130.4494,117.2643
130.0855,117.2643
130.1063,117.2019
130.0907,117.1258
130.0392,117.0677
129.9656,117.0432
129.8895,117.0587
129.7783,117.1143
129.5634,117.1143
129.4969,117.0811
129.4637,117.0146
129.4637,117.0140
129.4969,116.9476
129.5634,116.9143
129.7423,116.9143
129.7756,116.9054
129.8094,116.8985
129.9522,116.8271
129.9591,116.8210
129.9678,116.8181
129.9878,116.7955
130.0103,116.7755
130.0132,116.7668
130.0193,116.7600
130.0907,116.6171
130.0976,116.5833
130.1066,116.5500
130.1066,116.4786
130.0976,116.4453
130.0907,116.4115
130.0193,116.2687
130.0132,116.2618
130.0103,116.2531
129.9878,116.2331
129.9678,116.2106
129.9591,116.2077
129.9522,116.2016
129.8094,116.1302
129.7756,116.1233
129.7423,116.1143
129.5280,116.1143
129.4947,116.1232
129.4609,116.1302
129.3181,116.2016
129.2600,116.2531
129.2354,116.3268
129.2510,116.4028
129.3025,116.4609
129.3762,116.4855
129.4522,116.4699
129.5634,116.4143
129.7069,116.4143
129.7733,116.4476
129.8066,116.5140
129.8066,116.5146
129.7733,116.5811
129.7069,116.6143
129.5280,116.6143
129.4947,116.6232
129.4609,116.6302
129.3181,116.7016
129.3112,116.7077
129.3025,116.7106
129.2825,116.7331
129.2600,116.7531
129.2571,116.7618
129.2510,116.7687
129.1796,116.9115
129.1726,116.9453
129.1637,116.9786
129.1637,117.0500
128.8743,117.0500
128.8764,117.0457
128.8834,117.0119
128.8923,116.9786
128.8923,116.5500
128.8834,116.5167
128.8764,116.4830
128.8050,116.3401
128.7890,116.3220
128.7769,116.3011
128.7055,116.2297
128.6846,116.2176
128.6665,116.2016
128.5237,116.1302
128.4899,116.1233
128.4566,116.1143
128.2423,116.1143
128.2090,116.1232
128.1752,116.1302
128.0323,116.2016
128.0143,116.2176
127.9934,116.2297
127.9219,116.3011
127.9099,116.3220
127.8938,116.3401
127.8224,116.4830
127.8155,116.5167
127.8066,116.5500
127.8066,116.9786
127.4637,116.9786
127.4637,116.2643
127.4436,116.1893
127.3887,116.1344
127.3137,116.1143
127.2387,116.1344
127.1937,116.1795
127.0951,116.1302
127.0613,116.1233
127.0280,116.1143
126.8851,116.1143
126.8101,116.1344
126.7552,116.1893
126.7351,116.2643
125.3923,116.2643
125.3923,115.7643
125.3906,115.7579
125.3917,115.7513
125.3806,115.7207
125.3722,115.6893
125.3675,115.6846
125.3652,115.6783
125.3403,115.6574
125.3173,115.6344
125.3108,115.6327
125.3057,115.6284
125.2737,115.6227
125.2423,115.6143
125.2358,115.6161
125.2293,115.6149
125.1987,115.6260
125.1673,115.6344
125.1626,115.6391
125.1563,115.6414
125.1354,115.6663
125.1124,115.6893
125.1107,115.6958
125.1064,115.7009
124.7423,116.4811
124.3782,115.7009
124.3739,115.6958
124.3722,115.6893
124.3492,115.6663
124.3283,115.6414
124.3220,115.6391
124.3173,115.6344
124.2859,115.6260
124.2553,115.6149
124.2487,115.6161
124.2423,115.6143
124.2109,115.6227
124.1789,115.6284
124.1737,115.6327
124.1673,115.6344
124.1443,115.6574
124.1194,115.6783
124.1171,115.6846
124.1124,115.6893
124.1040,115.7207
124.0929,115.7513
124.0940,115.7579
124.0923,115.7643
124.0923,117.2643
123.5973,117.2643
123.6341,117.2275
123.6461,117.2066
123.6622,117.1886
123.7336,117.0457
123.7405,117.0119
123.7494,116.9786
123.7494,116.5500
123.7405,116.5167
123.7336,116.4830
123.6622,116.3401
123.6461,116.3220
123.6341,116.3011
123.5626,116.2297
123.5417,116.2176
123.5237,116.2016
123.3808,116.1302
123.3470,116.1233
123.3137,116.1143
123.0994,116.1143
123.0661,116.1232
123.0323,116.1302
122.8895,116.2016
122.8714,116.2176
122.8505,116.2297
122.7791,116.3011
122.7670,116.3220
122.7510,116.3401
122.6795,116.4830
122.6726,116.5167
122.6637,116.5500
122.6637,116.9786
122.3923,116.9786
122.3923,116.5500
122.3834,116.5167
122.3764,116.4830
122.3050,116.3401
122.2890,116.3220
122.2769,116.3011
122.2055,116.2297
122.1846,116.2176
122.1665,116.2016
122.0237,116.1302
121.9899,116.1233
121.9566,116.1143
121.6780,116.1143
121.6780,115.7643
121.6579,115.6893
121.6030,115.6344
121.5280,115.6143
121.4530,115.6344
121.3981,115.6893
121.3780,115.7643
121.3780,117.2643
120.8726,117.2643
120.8764,117.2600
120.9479,117.1171
120.9548,117.0833
120.9637,117.0500
120.9637,116.2643
120.9436,116.1893
120.8887,116.1344
120.8137,116.1143
120.7387,116.1344
120.6838,116.1893
120.6637,116.2643
120.6637,117.0146
120.6305,117.0811
120.5640,117.1143
120.4206,117.1143
120.3311,117.0696
120.3209,117.0593
120.3209,116.2643
120.3008,116.1893
120.2459,116.1344
120.1709,116.1143
120.0959,116.1344
120.0410,116.1893
120.0209,116.2643
120.0209,117.2643
119.5155,117.2643
119.5193,117.2600
119.5907,117.1171
119.5976,117.0833
119.6066,117.0500
119.6066,115.7643
119.5865,115.6893
119.5316,115.6344
119.4566,115.6143
119.3816,115.6344
119.3267,115.6893
119.3066,115.7643
119.3066,117.0146
119.2733,117.0811
119.1752,117.1302
119.1171,117.1817
119.0926,117.2553
118.8073,117.2553
118.8764,117.1171
118.8834,117.0833
118.8923,117.0500
118.8923,116.4786
118.8834,116.4453
118.8764,116.4115
118.8050,116.2687
118.7989,116.2618
118.7960,116.2531
118.7735,116.2331
118.7535,116.2106
118.7448,116.2077
118.7379,116.2016
118.5951,116.1302
118.5613,116.1233
118.5280,116.1143
118.2423,116.1143
118.2090,116.1232
118.1752,116.1302
118.0323,116.2016
118.0255,116.2077
118.0168,116.2106
117.9968,116.2331
117.9743,116.2531
117.9714,116.2618
117.9653,116.2687
117.8938,116.4115
117.8869,116.4453
117.8780,116.4786
117.8780,116.6215
117.6637,116.6215
117.6637,115.4000
139.8209,115.4000
Z" /> 
<path style="fill:#000000; fill-opacity:1.0000; 
stroke:#000000; stroke-width:0.0000; stroke-opacity:1; 
stroke-linecap:round; stroke-linejoin:round;fill-rule:evenodd;"
d="M 120.9635,90.9417
120.9754,90.9856
120.9997,91.0831
121.0340,91.2243
121.0760,91.3993
121.1234,91.5983
121.1740,91.8114
121.2252,92.0289
121.2749,92.2409
121.3208,92.4375
121.3604,92.6088
121.3915,92.7451
121.4117,92.8364
121.4187,92.8730
121.4180,92.8741
121.3793,92.8696
121.2910,92.8477
121.1650,92.8117
121.0131,92.7647
120.9941,92.7586
120.8413,92.7105
120.7131,92.6713
120.6226,92.6450
120.5825,92.6353
120.5788,92.6400
120.5789,92.6908
120.5920,92.7859
120.6162,92.9103
120.6195,92.9252
120.6542,93.0867
120.6887,93.2492
120.7160,93.3797
120.7560,93.5741
120.9240,93.5510
120.9798,93.5447
121.0578,93.5442
121.0796,93.5602
121.0662,93.5861
121.0238,93.6606
120.9603,93.7686
120.8836,93.8967
120.8233,93.9965
120.7589,94.1023
120.7146,94.1746
120.6975,94.2014
120.6935,94.2006
120.6510,94.1742
120.5748,94.1184
120.4775,94.0432
120.3713,93.9587
120.2686,93.8746
120.1819,93.8011
120.1236,93.7481
120.1059,93.7255
120.1174,93.7208
120.1825,93.7039
120.2768,93.6859
120.3112,93.6792
120.3865,93.6534
120.4073,93.6237
120.4038,93.6137
120.3778,93.5302
120.3404,93.4015
120.2943,93.2375
120.2421,93.0481
120.1865,92.8434
120.1301,92.6332
120.0756,92.4275
120.0257,92.2363
119.9830,92.0696
119.9501,91.9372
119.9297,91.8491
119.9246,91.8154
119.9282,91.8145
119.9767,91.8275
120.0711,91.8630
120.1998,91.9165
120.3510,91.9833
120.3907,92.0012
120.5364,92.0669
120.6558,92.1201
120.7372,92.1557
120.7693,92.1687
120.7656,92.1505
120.7444,92.0787
120.7075,91.9621
120.6582,91.8109
120.5999,91.6353
120.4212,91.1020
120.5742,91.1020
120.5917,91.1018
120.7251,91.0805
120.8410,91.0153
120.8719,90.9924
120.9343,90.9512
120.9629,90.9403
Z" /> 
<path style="fill:#000000; fill-opacity:1.0000; 
stroke:#000000; stroke-width:0.0000; stroke-opacity:1; 
stroke-linecap:round; stroke-linejoin:round;fill-rule:evenodd;"
d="M 123.5118,94.3473
123.5622,94.4381
123.5809,94.4773
123.5798,94.5504
123.5536,94.6190
123.5426,94.6266
123.5165,94.6345
123.4724,94.6413
123.4061,94.6472
123.3136,94.6522
123.1909,94.6564
123.0339,94.6599
122.8385,94.6626
122.6007,94.6647
122.3164,94.6663
121.9815,94.6675
121.5921,94.6682
121.1441,94.6686
120.6333,94.6687
120.4833,94.6687
119.9870,94.6688
119.5523,94.6687
119.1752,94.6683
118.8517,94.6673
118.5776,94.6654
118.3491,94.6623
118.1620,94.6578
118.0123,94.6516
117.8961,94.6435
117.8093,94.6332
117.7477,94.6204
117.7076,94.6049
117.6847,94.5864
117.6751,94.5646
117.6747,94.5394
117.6796,94.5104
117.6856,94.4773
117.7037,94.4392
117.7536,94.3492
117.7808,94.3020
118.1724,94.3020
120.6333,94.3020
123.0942,94.3020
123.0457,94.2270
123.0430,94.2229
123.0099,94.1696
122.9462,94.0663
122.8554,93.9188
122.7412,93.7328
122.6069,93.5141
122.4562,93.2683
122.2925,93.0012
122.1194,92.7187
121.9487,92.4398
121.7647,92.1394
121.5857,91.8472
121.4167,91.5713
121.2627,91.3199
121.1285,91.1009
121.0192,90.9226
120.9398,90.7931
120.8554,90.6578
120.7651,90.5192
120.6911,90.4120
120.6393,90.3449
120.6156,90.3264
120.6004,90.3486
120.5544,90.4209
120.4848,90.5327
120.3977,90.6741
120.2992,90.8353
120.2911,90.8485
120.1895,91.0153
120.0668,91.2163
119.9267,91.4456
119.7730,91.6970
119.6094,91.9644
119.4396,92.2418
119.2674,92.5231
119.0964,92.8022
118.9304,93.0731
118.7732,93.3296
118.6283,93.5657
118.4997,93.7753
118.3909,93.9523
118.3057,94.0906
118.2479,94.1842
118.2212,94.2270
118.1724,94.3020
117.7808,94.3020
117.8320,94.2130
117.9358,94.0357
118.0618,93.8227
118.2067,93.5793
118.3674,93.3108
118.5405,93.0224
118.7230,92.7194
118.9117,92.4072
119.1032,92.0911
119.2944,91.7763
119.4821,91.4681
119.6631,91.1719
119.8342,90.8928
119.9921,90.6363
120.1337,90.4077
120.2557,90.2121
120.3550,90.0549
120.4283,89.9415
120.4725,89.8770
120.5477,89.8005
120.6333,89.7687
120.7080,89.7931
120.7939,89.8770
120.8369,89.9398
120.9098,90.0525
121.0087,90.2090
121.1303,90.4040
121.2716,90.6322
121.4293,90.8883
121.6002,91.1670
121.7811,91.4630
121.9687,91.7711
122.1599,92.0858
122.3514,92.4020
122.5401,92.7143
122.7228,93.0174
122.8961,93.3061
123.0570,93.5750
123.2023,93.8189
123.3286,94.0324
123.4328,94.2103
123.4856,94.3020
Z" /> 
<g >
</g>
<g >
</g>
<g >
</g>
<g >
</g>
<g >
</g>
<g >
</g>
<g >
</g>
<g >
</g>
<g >
</g>
<g >
</g>
<g >
</g>
<g >
</g>
<g >
</g>
<g >
</g>
<g >
</g>
<g >
</g>
<g >
</g>
<g >
</g>
<g >
</g>
<g >
</g>
<g >
</g>
<g >
</g>
<g >
</g>
<g >
</g>
<g >
</g>
<g >
</g>
<g >
</g>
<g >
</g>
<g >
</g>
<g >
</g>
<g >
</g>
<g >
</g>
<g >
</g>
<g >
</g>
<g >
</g>
<g >
</g>
<g >
</g>
<g >
</g>
<g >
</g>
<g >
</g>
<g >
</g>
<g >
</g>
<g >
</g>
<g >
</g>
<g >
</g>
<g >
</g>
<g >
</g>
<g >
</g>
<g >
</g>
<g >
</g>
<g >
</g>
<g >
</g>
<g >
</g>
<g >
</g>
<g >
</g>
<g >
</g>
<g >
</g>
<g >
</g>
<g >
</g>
<g >
</g>
<g >
</g>
<g >
</g>
<g >
</g>
<g >
</g>
<g >
</g>
<g >
</g>
<g >
</g>
<g >
</g>
<g >
</g>
</g> 
</svg>
