  0
SECTION
  2
HEADER
  9
$ANGBASE
  50
0.0
  9
$ANGDIR
  70
1
  9
$MEASUREMENT
  70
1
  0
ENDSEC
  0
SECTION
  2
TABLES
  0
TABLE
  2
LTYPE
  70
4
  0
LTYPE
  5
40F
  2
CONTINUOUS
  70
0
  3
Solid line
  72
65
  73
0
  40
0.0
  0
LTYPE
  5
410
  2
DASHDOT
 70
0
  3
Dash Dot ____ _ ____ _
 72
65
 73
4
 40
2.0
 49
1.25
 49
-0.25
 49
0.25
 49
-0.25
  0
LTYPE
  5
411
  2
DASHED
 70
0
  3
Dashed __ __ __ __ __
 72
65
 73
2
 40
0.75
 49
0.5
 49
-0.25
  0
LTYPE
  5
43B
  2
DOTTED
 70
0
  3
Dotted .  .  .  .
 72
65
 73
2
 40
0.2
 49
0.0
 49
-0.2
  0
ENDTAB
  0
TABLE
  2
STYLE
  70
4
  0
STYLE
  2
KICAD
  70
0
  40
0
  41
1
  42
1
  50
0
  71
0
  3
isocp.shx
  0
STYLE
  2
KICADB
  70
0
  40
0
  41
1
  42
1
  50
0
  71
0
  3
isocp.shx
  0
STYLE
  2
KICADI
  70
0
  40
0
  41
1
  42
1
  50
15
  71
0
  3
isocp.shx
  0
STYLE
  2
KICADBI
  70
0
  40
0
  41
1
  42
1
  50
15
  71
0
  3
isocp.shx
  0
ENDTAB
  0
TABLE
  2
LAYER
  70
1
  0
LAYER
  2
BLACK
  70
0
  62
7
  6
CONTINUOUS
  0
ENDTAB
  0
ENDSEC
  0
SECTION
  2
ENTITIES
0
LINE
8
BLACK
6
CONTINUOUS
10
136.335
20
-118.71
11
136.359
21
-118.735
0
LINE
8
BLACK
6
CONTINUOUS
10
136.359
20
-118.735
11
136.389
21
-118.795
0
LINE
8
BLACK
6
CONTINUOUS
10
136.389
20
-118.795
11
136.389
21
-119.033
0
LINE
8
BLACK
6
CONTINUOUS
10
136.389
20
-119.033
11
136.359
21
-119.093
0
LINE
8
BLACK
6
CONTINUOUS
10
136.359
20
-119.093
11
136.335
21
-119.117
0
LINE
8
BLACK
6
CONTINUOUS
10
136.335
20
-119.117
11
136.275
21
-119.147
0
LINE
8
BLACK
6
CONTINUOUS
10
136.275
20
-119.147
11
136.132
21
-119.147
0
LINE
8
BLACK
6
CONTINUOUS
10
136.132
20
-119.147
11
136.113
21
-119.138
0
LINE
8
BLACK
6
CONTINUOUS
10
136.113
20
-119.138
11
136.113
21
-118.69
0
LINE
8
BLACK
6
CONTINUOUS
10
136.113
20
-118.69
11
136.132
21
-118.681
0
LINE
8
BLACK
6
CONTINUOUS
10
136.132
20
-118.681
11
136.275
21
-118.681
0
LINE
8
BLACK
6
CONTINUOUS
10
136.275
20
-118.681
11
136.335
21
-118.71
0
LINE
8
BLACK
6
CONTINUOUS
10
120.001
20
-118.71
11
120.026
21
-118.735
0
LINE
8
BLACK
6
CONTINUOUS
10
120.026
20
-118.735
11
120.056
21
-118.795
0
LINE
8
BLACK
6
CONTINUOUS
10
120.056
20
-118.795
11
120.056
21
-119.033
0
LINE
8
BLACK
6
CONTINUOUS
10
120.056
20
-119.033
11
120.026
21
-119.093
0
LINE
8
BLACK
6
CONTINUOUS
10
120.026
20
-119.093
11
120.001
21
-119.117
0
LINE
8
BLACK
6
CONTINUOUS
10
120.001
20
-119.117
11
119.942
21
-119.147
0
LINE
8
BLACK
6
CONTINUOUS
10
119.942
20
-119.147
11
119.846
21
-119.147
0
LINE
8
BLACK
6
CONTINUOUS
10
119.846
20
-119.147
11
119.786
21
-119.117
0
LINE
8
BLACK
6
CONTINUOUS
10
119.786
20
-119.117
11
119.762
21
-119.093
0
LINE
8
BLACK
6
CONTINUOUS
10
119.762
20
-119.093
11
119.732
21
-119.033
0
LINE
8
BLACK
6
CONTINUOUS
10
119.732
20
-119.033
11
119.732
21
-118.795
0
LINE
8
BLACK
6
CONTINUOUS
10
119.732
20
-118.795
11
119.762
21
-118.735
0
LINE
8
BLACK
6
CONTINUOUS
10
119.762
20
-118.735
11
119.786
21
-118.71
0
LINE
8
BLACK
6
CONTINUOUS
10
119.786
20
-118.71
11
119.846
21
-118.681
0
LINE
8
BLACK
6
CONTINUOUS
10
119.846
20
-118.681
11
119.942
21
-118.681
0
LINE
8
BLACK
6
CONTINUOUS
10
119.942
20
-118.681
11
120.001
21
-118.71
0
LINE
8
BLACK
6
CONTINUOUS
10
122.367
20
-118.988
11
122.389
21
-119.033
0
LINE
8
BLACK
6
CONTINUOUS
10
122.389
20
-119.033
11
122.389
21
-119.081
0
LINE
8
BLACK
6
CONTINUOUS
10
122.389
20
-119.081
11
122.367
21
-119.125
0
LINE
8
BLACK
6
CONTINUOUS
10
122.367
20
-119.125
11
122.323
21
-119.147
0
LINE
8
BLACK
6
CONTINUOUS
10
122.323
20
-119.147
11
122.132
21
-119.147
0
LINE
8
BLACK
6
CONTINUOUS
10
122.132
20
-119.147
11
122.113
21
-119.138
0
LINE
8
BLACK
6
CONTINUOUS
10
122.113
20
-119.138
11
122.113
21
-118.966
0
LINE
8
BLACK
6
CONTINUOUS
10
122.113
20
-118.966
11
122.323
21
-118.966
0
LINE
8
BLACK
6
CONTINUOUS
10
122.323
20
-118.966
11
122.367
21
-118.988
0
LINE
8
BLACK
6
CONTINUOUS
10
124.653
20
-118.988
11
124.675
21
-119.033
0
LINE
8
BLACK
6
CONTINUOUS
10
124.675
20
-119.033
11
124.675
21
-119.081
0
LINE
8
BLACK
6
CONTINUOUS
10
124.675
20
-119.081
11
124.653
21
-119.125
0
LINE
8
BLACK
6
CONTINUOUS
10
124.653
20
-119.125
11
124.608
21
-119.147
0
LINE
8
BLACK
6
CONTINUOUS
10
124.608
20
-119.147
11
124.417
21
-119.147
0
LINE
8
BLACK
6
CONTINUOUS
10
124.417
20
-119.147
11
124.399
21
-119.138
0
LINE
8
BLACK
6
CONTINUOUS
10
124.399
20
-119.138
11
124.399
21
-118.966
0
LINE
8
BLACK
6
CONTINUOUS
10
124.399
20
-118.966
11
124.608
21
-118.966
0
LINE
8
BLACK
6
CONTINUOUS
10
124.608
20
-118.966
11
124.653
21
-118.988
0
LINE
8
BLACK
6
CONTINUOUS
10
128.224
20
-118.988
11
128.246
21
-119.033
0
LINE
8
BLACK
6
CONTINUOUS
10
128.246
20
-119.033
11
128.246
21
-119.081
0
LINE
8
BLACK
6
CONTINUOUS
10
128.246
20
-119.081
11
128.224
21
-119.125
0
LINE
8
BLACK
6
CONTINUOUS
10
128.224
20
-119.125
11
128.18
21
-119.147
0
LINE
8
BLACK
6
CONTINUOUS
10
128.18
20
-119.147
11
127.989
21
-119.147
0
LINE
8
BLACK
6
CONTINUOUS
10
127.989
20
-119.147
11
127.97
21
-119.138
0
LINE
8
BLACK
6
CONTINUOUS
10
127.97
20
-119.138
11
127.97
21
-118.966
0
LINE
8
BLACK
6
CONTINUOUS
10
127.97
20
-118.966
11
128.18
21
-118.966
0
LINE
8
BLACK
6
CONTINUOUS
10
128.18
20
-118.966
11
128.224
21
-118.988
0
LINE
8
BLACK
6
CONTINUOUS
10
132.008
20
-118.69
11
132.008
21
-119.138
0
LINE
8
BLACK
6
CONTINUOUS
10
132.008
20
-119.138
11
131.989
21
-119.147
0
LINE
8
BLACK
6
CONTINUOUS
10
131.989
20
-119.147
11
131.846
21
-119.147
0
LINE
8
BLACK
6
CONTINUOUS
10
131.846
20
-119.147
11
131.786
21
-119.117
0
LINE
8
BLACK
6
CONTINUOUS
10
131.786
20
-119.117
11
131.762
21
-119.093
0
LINE
8
BLACK
6
CONTINUOUS
10
131.762
20
-119.093
11
131.732
21
-119.033
0
LINE
8
BLACK
6
CONTINUOUS
10
131.732
20
-119.033
11
131.732
21
-118.795
0
LINE
8
BLACK
6
CONTINUOUS
10
131.732
20
-118.795
11
131.762
21
-118.735
0
LINE
8
BLACK
6
CONTINUOUS
10
131.762
20
-118.735
11
131.786
21
-118.71
0
LINE
8
BLACK
6
CONTINUOUS
10
131.786
20
-118.71
11
131.846
21
-118.681
0
LINE
8
BLACK
6
CONTINUOUS
10
131.846
20
-118.681
11
131.989
21
-118.681
0
LINE
8
BLACK
6
CONTINUOUS
10
131.989
20
-118.681
11
132.008
21
-118.69
0
LINE
8
BLACK
6
CONTINUOUS
10
133.668
20
-118.71
11
133.693
21
-118.735
0
LINE
8
BLACK
6
CONTINUOUS
10
133.693
20
-118.735
11
133.722
21
-118.795
0
LINE
8
BLACK
6
CONTINUOUS
10
133.722
20
-118.795
11
133.722
21
-119.033
0
LINE
8
BLACK
6
CONTINUOUS
10
133.722
20
-119.033
11
133.693
21
-119.093
0
LINE
8
BLACK
6
CONTINUOUS
10
133.693
20
-119.093
11
133.668
21
-119.117
0
LINE
8
BLACK
6
CONTINUOUS
10
133.668
20
-119.117
11
133.608
21
-119.147
0
LINE
8
BLACK
6
CONTINUOUS
10
133.608
20
-119.147
11
133.465
21
-119.147
0
LINE
8
BLACK
6
CONTINUOUS
10
133.465
20
-119.147
11
133.446
21
-119.138
0
LINE
8
BLACK
6
CONTINUOUS
10
133.446
20
-119.138
11
133.446
21
-118.69
0
LINE
8
BLACK
6
CONTINUOUS
10
133.446
20
-118.69
11
133.465
21
-118.681
0
LINE
8
BLACK
6
CONTINUOUS
10
133.465
20
-118.681
11
133.608
21
-118.681
0
LINE
8
BLACK
6
CONTINUOUS
10
133.608
20
-118.681
11
133.668
21
-118.71
0
LINE
8
BLACK
6
CONTINUOUS
10
134.557
20
-118.703
11
134.58
21
-118.747
0
LINE
8
BLACK
6
CONTINUOUS
10
134.58
20
-118.747
11
134.58
21
-118.792
0
LINE
8
BLACK
6
CONTINUOUS
10
134.58
20
-118.792
11
134.308
21
-118.738
0
LINE
8
BLACK
6
CONTINUOUS
10
134.308
20
-118.738
11
134.326
21
-118.703
0
LINE
8
BLACK
6
CONTINUOUS
10
134.326
20
-118.703
11
134.37
21
-118.681
0
LINE
8
BLACK
6
CONTINUOUS
10
134.37
20
-118.681
11
134.513
21
-118.681
0
LINE
8
BLACK
6
CONTINUOUS
10
134.513
20
-118.681
11
134.557
21
-118.703
0
LINE
8
BLACK
6
CONTINUOUS
10
138.51
20
-118.703
11
138.532
21
-118.747
0
LINE
8
BLACK
6
CONTINUOUS
10
138.532
20
-118.747
11
138.532
21
-118.792
0
LINE
8
BLACK
6
CONTINUOUS
10
138.532
20
-118.792
11
138.26
21
-118.738
0
LINE
8
BLACK
6
CONTINUOUS
10
138.26
20
-118.738
11
138.278
21
-118.703
0
LINE
8
BLACK
6
CONTINUOUS
10
138.278
20
-118.703
11
138.322
21
-118.681
0
LINE
8
BLACK
6
CONTINUOUS
10
138.322
20
-118.681
11
138.465
21
-118.681
0
LINE
8
BLACK
6
CONTINUOUS
10
138.465
20
-118.681
11
138.51
21
-118.703
0
LINE
8
BLACK
6
CONTINUOUS
10
139.484
20
-119.147
11
139.362
21
-119.147
0
LINE
8
BLACK
6
CONTINUOUS
10
139.362
20
-119.147
11
139.257
21
-119.112
0
LINE
8
BLACK
6
CONTINUOUS
10
139.257
20
-119.112
11
139.19
21
-119.045
0
LINE
8
BLACK
6
CONTINUOUS
10
139.19
20
-119.045
11
139.155
21
-118.974
0
LINE
8
BLACK
6
CONTINUOUS
10
139.155
20
-118.974
11
139.113
21
-118.806
0
LINE
8
BLACK
6
CONTINUOUS
10
139.113
20
-118.806
11
139.113
21
-118.688
0
LINE
8
BLACK
6
CONTINUOUS
10
139.113
20
-118.688
11
139.155
21
-118.52
0
LINE
8
BLACK
6
CONTINUOUS
10
139.155
20
-118.52
11
139.19
21
-118.449
0
LINE
8
BLACK
6
CONTINUOUS
10
139.19
20
-118.449
11
139.257
21
-118.382
0
LINE
8
BLACK
6
CONTINUOUS
10
139.257
20
-118.382
11
139.362
21
-118.347
0
LINE
8
BLACK
6
CONTINUOUS
10
139.362
20
-118.347
11
139.484
21
-118.347
0
LINE
8
BLACK
6
CONTINUOUS
10
139.484
20
-118.347
11
139.484
21
-119.147
0
LINE
8
BLACK
6
CONTINUOUS
10
129.588
20
-118.862
11
129.39
21
-118.862
0
LINE
8
BLACK
6
CONTINUOUS
10
129.39
20
-118.862
11
129.489
21
-118.563
0
LINE
8
BLACK
6
CONTINUOUS
10
129.489
20
-118.563
11
129.588
21
-118.862
0
LINE
8
BLACK
6
CONTINUOUS
10
139.827
20
-119.823
11
119.389
21
-119.823
0
LINE
8
BLACK
6
CONTINUOUS
10
119.389
20
-119.823
11
119.389
21
-118.004
0
LINE
8
BLACK
6
CONTINUOUS
10
119.389
20
-118.004
11
139.827
21
-118.004
0
LINE
8
BLACK
6
CONTINUOUS
10
139.827
20
-118.004
11
139.827
21
-119.823
0
LINE
8
BLACK
6
CONTINUOUS
10
136.086
20
-118.488
11
136.063
21
-118.491
0
LINE
8
BLACK
6
CONTINUOUS
10
136.063
20
-118.491
11
136.056
21
-118.495
0
LINE
8
BLACK
6
CONTINUOUS
10
136.056
20
-118.495
11
136.044
21
-118.485
0
LINE
8
BLACK
6
CONTINUOUS
10
136.044
20
-118.485
11
135.982
21
-118.485
0
LINE
8
BLACK
6
CONTINUOUS
10
135.982
20
-118.485
11
135.932
21
-118.522
0
LINE
8
BLACK
6
CONTINUOUS
10
135.932
20
-118.522
11
135.913
21
-118.581
0
LINE
8
BLACK
6
CONTINUOUS
10
135.913
20
-118.581
11
135.913
21
-119.39
0
LINE
8
BLACK
6
CONTINUOUS
10
135.913
20
-119.39
11
135.92
21
-119.412
0
LINE
8
BLACK
6
CONTINUOUS
10
135.92
20
-119.412
11
135.923
21
-119.435
0
LINE
8
BLACK
6
CONTINUOUS
10
135.923
20
-119.435
11
135.971
21
-119.53
0
LINE
8
BLACK
6
CONTINUOUS
10
135.971
20
-119.53
11
135.982
21
-119.542
0
LINE
8
BLACK
6
CONTINUOUS
10
135.982
20
-119.542
11
135.99
21
-119.556
0
LINE
8
BLACK
6
CONTINUOUS
10
135.99
20
-119.556
11
136.037
21
-119.604
0
LINE
8
BLACK
6
CONTINUOUS
10
136.037
20
-119.604
11
136.052
21
-119.611
0
LINE
8
BLACK
6
CONTINUOUS
10
136.052
20
-119.611
11
136.063
21
-119.622
0
LINE
8
BLACK
6
CONTINUOUS
10
136.063
20
-119.622
11
136.159
21
-119.67
0
LINE
8
BLACK
6
CONTINUOUS
10
136.159
20
-119.67
11
136.181
21
-119.673
0
LINE
8
BLACK
6
CONTINUOUS
10
136.181
20
-119.673
11
136.203
21
-119.681
0
LINE
8
BLACK
6
CONTINUOUS
10
136.203
20
-119.681
11
136.346
21
-119.681
0
LINE
8
BLACK
6
CONTINUOUS
10
136.346
20
-119.681
11
136.368
21
-119.673
0
LINE
8
BLACK
6
CONTINUOUS
10
136.368
20
-119.673
11
136.391
21
-119.67
0
LINE
8
BLACK
6
CONTINUOUS
10
136.391
20
-119.67
11
136.486
21
-119.622
0
LINE
8
BLACK
6
CONTINUOUS
10
136.486
20
-119.622
11
136.53
21
-119.579
0
LINE
8
BLACK
6
CONTINUOUS
10
136.53
20
-119.579
11
136.54
21
-119.518
0
LINE
8
BLACK
6
CONTINUOUS
10
136.54
20
-119.518
11
136.513
21
-119.463
0
LINE
8
BLACK
6
CONTINUOUS
10
136.513
20
-119.463
11
136.458
21
-119.434
0
LINE
8
BLACK
6
CONTINUOUS
10
136.458
20
-119.434
11
136.397
21
-119.443
0
LINE
8
BLACK
6
CONTINUOUS
10
136.397
20
-119.443
11
136.323
21
-119.481
0
LINE
8
BLACK
6
CONTINUOUS
10
136.323
20
-119.481
11
136.227
21
-119.481
0
LINE
8
BLACK
6
CONTINUOUS
10
136.227
20
-119.481
11
136.167
21
-119.451
0
LINE
8
BLACK
6
CONTINUOUS
10
136.167
20
-119.451
11
136.143
21
-119.426
0
LINE
8
BLACK
6
CONTINUOUS
10
136.143
20
-119.426
11
136.113
21
-119.366
0
LINE
8
BLACK
6
CONTINUOUS
10
136.113
20
-119.366
11
136.113
21
-119.347
0
LINE
8
BLACK
6
CONTINUOUS
10
136.113
20
-119.347
11
136.299
21
-119.347
0
LINE
8
BLACK
6
CONTINUOUS
10
136.299
20
-119.347
11
136.321
21
-119.34
0
LINE
8
BLACK
6
CONTINUOUS
10
136.321
20
-119.34
11
136.343
21
-119.337
0
LINE
8
BLACK
6
CONTINUOUS
10
136.343
20
-119.337
11
136.439
21
-119.289
0
LINE
8
BLACK
6
CONTINUOUS
10
136.439
20
-119.289
11
136.45
21
-119.278
0
LINE
8
BLACK
6
CONTINUOUS
10
136.45
20
-119.278
11
136.465
21
-119.27
0
LINE
8
BLACK
6
CONTINUOUS
10
136.465
20
-119.27
11
136.512
21
-119.223
0
LINE
8
BLACK
6
CONTINUOUS
10
136.512
20
-119.223
11
136.52
21
-119.208
0
LINE
8
BLACK
6
CONTINUOUS
10
136.52
20
-119.208
11
136.531
21
-119.197
0
LINE
8
BLACK
6
CONTINUOUS
10
136.531
20
-119.197
11
136.579
21
-119.101
0
LINE
8
BLACK
6
CONTINUOUS
10
136.579
20
-119.101
11
136.582
21
-119.079
0
LINE
8
BLACK
6
CONTINUOUS
10
136.582
20
-119.079
11
136.589
21
-119.057
0
LINE
8
BLACK
6
CONTINUOUS
10
136.589
20
-119.057
11
136.589
21
-118.771
0
LINE
8
BLACK
6
CONTINUOUS
10
136.589
20
-118.771
11
136.582
21
-118.749
0
LINE
8
BLACK
6
CONTINUOUS
10
136.582
20
-118.749
11
136.579
21
-118.726
0
LINE
8
BLACK
6
CONTINUOUS
10
136.579
20
-118.726
11
136.531
21
-118.631
0
LINE
8
BLACK
6
CONTINUOUS
10
136.531
20
-118.631
11
136.52
21
-118.62
0
LINE
8
BLACK
6
CONTINUOUS
10
136.52
20
-118.62
11
136.512
21
-118.605
0
LINE
8
BLACK
6
CONTINUOUS
10
136.512
20
-118.605
11
136.465
21
-118.557
0
LINE
8
BLACK
6
CONTINUOUS
10
136.465
20
-118.557
11
136.45
21
-118.55
0
LINE
8
BLACK
6
CONTINUOUS
10
136.45
20
-118.55
11
136.439
21
-118.539
0
LINE
8
BLACK
6
CONTINUOUS
10
136.439
20
-118.539
11
136.343
21
-118.491
0
LINE
8
BLACK
6
CONTINUOUS
10
136.343
20
-118.491
11
136.321
21
-118.488
0
LINE
8
BLACK
6
CONTINUOUS
10
136.321
20
-118.488
11
136.299
21
-118.481
0
LINE
8
BLACK
6
CONTINUOUS
10
136.299
20
-118.481
11
136.108
21
-118.481
0
LINE
8
BLACK
6
CONTINUOUS
10
136.108
20
-118.481
11
136.086
21
-118.488
0
LINE
8
BLACK
6
CONTINUOUS
10
131.242
20
-118.498
11
131.204
21
-118.547
0
LINE
8
BLACK
6
CONTINUOUS
10
131.204
20
-118.547
11
131.061
21
-118.95
0
LINE
8
BLACK
6
CONTINUOUS
10
131.061
20
-118.95
11
130.917
21
-118.547
0
LINE
8
BLACK
6
CONTINUOUS
10
130.917
20
-118.547
11
130.879
21
-118.498
0
LINE
8
BLACK
6
CONTINUOUS
10
130.879
20
-118.498
11
130.82
21
-118.481
0
LINE
8
BLACK
6
CONTINUOUS
10
130.82
20
-118.481
11
130.761
21
-118.501
0
LINE
8
BLACK
6
CONTINUOUS
10
130.761
20
-118.501
11
130.726
21
-118.552
0
LINE
8
BLACK
6
CONTINUOUS
10
130.726
20
-118.552
11
130.728
21
-118.614
0
LINE
8
BLACK
6
CONTINUOUS
10
130.728
20
-118.614
11
130.966
21
-119.281
0
LINE
8
BLACK
6
CONTINUOUS
10
130.966
20
-119.281
11
130.968
21
-119.282
0
LINE
8
BLACK
6
CONTINUOUS
10
130.968
20
-119.282
11
130.968
21
-119.284
0
LINE
8
BLACK
6
CONTINUOUS
10
130.968
20
-119.284
11
131.063
21
-119.522
0
LINE
8
BLACK
6
CONTINUOUS
10
131.063
20
-119.522
11
131.076
21
-119.538
0
LINE
8
BLACK
6
CONTINUOUS
10
131.076
20
-119.538
11
131.085
21
-119.556
0
LINE
8
BLACK
6
CONTINUOUS
10
131.085
20
-119.556
11
131.133
21
-119.604
0
LINE
8
BLACK
6
CONTINUOUS
10
131.133
20
-119.604
11
131.147
21
-119.611
0
LINE
8
BLACK
6
CONTINUOUS
10
131.147
20
-119.611
11
131.159
21
-119.622
0
LINE
8
BLACK
6
CONTINUOUS
10
131.159
20
-119.622
11
131.254
21
-119.67
0
LINE
8
BLACK
6
CONTINUOUS
10
131.254
20
-119.67
11
131.315
21
-119.679
0
LINE
8
BLACK
6
CONTINUOUS
10
131.315
20
-119.679
11
131.37
21
-119.651
0
LINE
8
BLACK
6
CONTINUOUS
10
131.37
20
-119.651
11
131.397
21
-119.595
0
LINE
8
BLACK
6
CONTINUOUS
10
131.397
20
-119.595
11
131.387
21
-119.534
0
LINE
8
BLACK
6
CONTINUOUS
10
131.387
20
-119.534
11
131.343
21
-119.491
0
LINE
8
BLACK
6
CONTINUOUS
10
131.343
20
-119.491
11
131.263
21
-119.451
0
LINE
8
BLACK
6
CONTINUOUS
10
131.263
20
-119.451
11
131.241
21
-119.429
0
LINE
8
BLACK
6
CONTINUOUS
10
131.241
20
-119.429
11
131.167
21
-119.245
0
LINE
8
BLACK
6
CONTINUOUS
10
131.167
20
-119.245
11
131.393
21
-118.614
0
LINE
8
BLACK
6
CONTINUOUS
10
131.393
20
-118.614
11
131.395
21
-118.552
0
LINE
8
BLACK
6
CONTINUOUS
10
131.395
20
-118.552
11
131.36
21
-118.501
0
LINE
8
BLACK
6
CONTINUOUS
10
131.36
20
-118.501
11
131.301
21
-118.481
0
LINE
8
BLACK
6
CONTINUOUS
10
131.301
20
-118.481
11
131.242
21
-118.498
0
LINE
8
BLACK
6
CONTINUOUS
10
119.8
20
-118.488
11
119.778
21
-118.491
0
LINE
8
BLACK
6
CONTINUOUS
10
119.778
20
-118.491
11
119.682
21
-118.539
0
LINE
8
BLACK
6
CONTINUOUS
10
119.682
20
-118.539
11
119.671
21
-118.55
0
LINE
8
BLACK
6
CONTINUOUS
10
119.671
20
-118.55
11
119.656
21
-118.557
0
LINE
8
BLACK
6
CONTINUOUS
10
119.656
20
-118.557
11
119.609
21
-118.605
0
LINE
8
BLACK
6
CONTINUOUS
10
119.609
20
-118.605
11
119.601
21
-118.62
0
LINE
8
BLACK
6
CONTINUOUS
10
119.601
20
-118.62
11
119.59
21
-118.631
0
LINE
8
BLACK
6
CONTINUOUS
10
119.59
20
-118.631
11
119.542
21
-118.726
0
LINE
8
BLACK
6
CONTINUOUS
10
119.542
20
-118.726
11
119.539
21
-118.749
0
LINE
8
BLACK
6
CONTINUOUS
10
119.539
20
-118.749
11
119.532
21
-118.771
0
LINE
8
BLACK
6
CONTINUOUS
10
119.532
20
-118.771
11
119.532
21
-119.057
0
LINE
8
BLACK
6
CONTINUOUS
10
119.532
20
-119.057
11
119.539
21
-119.079
0
LINE
8
BLACK
6
CONTINUOUS
10
119.539
20
-119.079
11
119.542
21
-119.101
0
LINE
8
BLACK
6
CONTINUOUS
10
119.542
20
-119.101
11
119.59
21
-119.197
0
LINE
8
BLACK
6
CONTINUOUS
10
119.59
20
-119.197
11
119.601
21
-119.208
0
LINE
8
BLACK
6
CONTINUOUS
10
119.601
20
-119.208
11
119.609
21
-119.223
0
LINE
8
BLACK
6
CONTINUOUS
10
119.609
20
-119.223
11
119.656
21
-119.27
0
LINE
8
BLACK
6
CONTINUOUS
10
119.656
20
-119.27
11
119.671
21
-119.278
0
LINE
8
BLACK
6
CONTINUOUS
10
119.671
20
-119.278
11
119.682
21
-119.289
0
LINE
8
BLACK
6
CONTINUOUS
10
119.682
20
-119.289
11
119.778
21
-119.337
0
LINE
8
BLACK
6
CONTINUOUS
10
119.778
20
-119.337
11
119.8
21
-119.34
0
LINE
8
BLACK
6
CONTINUOUS
10
119.8
20
-119.34
11
119.822
21
-119.347
0
LINE
8
BLACK
6
CONTINUOUS
10
119.822
20
-119.347
11
119.965
21
-119.347
0
LINE
8
BLACK
6
CONTINUOUS
10
119.965
20
-119.347
11
119.987
21
-119.34
0
LINE
8
BLACK
6
CONTINUOUS
10
119.987
20
-119.34
11
120.01
21
-119.337
0
LINE
8
BLACK
6
CONTINUOUS
10
120.01
20
-119.337
11
120.105
21
-119.289
0
LINE
8
BLACK
6
CONTINUOUS
10
120.105
20
-119.289
11
120.117
21
-119.278
0
LINE
8
BLACK
6
CONTINUOUS
10
120.117
20
-119.278
11
120.131
21
-119.27
0
LINE
8
BLACK
6
CONTINUOUS
10
120.131
20
-119.27
11
120.179
21
-119.223
0
LINE
8
BLACK
6
CONTINUOUS
10
120.179
20
-119.223
11
120.186
21
-119.208
0
LINE
8
BLACK
6
CONTINUOUS
10
120.186
20
-119.208
11
120.198
21
-119.197
0
LINE
8
BLACK
6
CONTINUOUS
10
120.198
20
-119.197
11
120.245
21
-119.101
0
LINE
8
BLACK
6
CONTINUOUS
10
120.245
20
-119.101
11
120.249
21
-119.079
0
LINE
8
BLACK
6
CONTINUOUS
10
120.249
20
-119.079
11
120.256
21
-119.057
0
LINE
8
BLACK
6
CONTINUOUS
10
120.256
20
-119.057
11
120.256
21
-118.771
0
LINE
8
BLACK
6
CONTINUOUS
10
120.256
20
-118.771
11
120.249
21
-118.749
0
LINE
8
BLACK
6
CONTINUOUS
10
120.249
20
-118.749
11
120.245
21
-118.726
0
LINE
8
BLACK
6
CONTINUOUS
10
120.245
20
-118.726
11
120.198
21
-118.631
0
LINE
8
BLACK
6
CONTINUOUS
10
120.198
20
-118.631
11
120.186
21
-118.62
0
LINE
8
BLACK
6
CONTINUOUS
10
120.186
20
-118.62
11
120.179
21
-118.605
0
LINE
8
BLACK
6
CONTINUOUS
10
120.179
20
-118.605
11
120.131
21
-118.557
0
LINE
8
BLACK
6
CONTINUOUS
10
120.131
20
-118.557
11
120.117
21
-118.55
0
LINE
8
BLACK
6
CONTINUOUS
10
120.117
20
-118.55
11
120.105
21
-118.539
0
LINE
8
BLACK
6
CONTINUOUS
10
120.105
20
-118.539
11
120.01
21
-118.491
0
LINE
8
BLACK
6
CONTINUOUS
10
120.01
20
-118.491
11
119.987
21
-118.488
0
LINE
8
BLACK
6
CONTINUOUS
10
119.987
20
-118.488
11
119.965
21
-118.481
0
LINE
8
BLACK
6
CONTINUOUS
10
119.965
20
-118.481
11
119.822
21
-118.481
0
LINE
8
BLACK
6
CONTINUOUS
10
119.822
20
-118.481
11
119.8
21
-118.488
0
LINE
8
BLACK
6
CONTINUOUS
10
122.134
20
-118.488
11
122.111
21
-118.491
0
LINE
8
BLACK
6
CONTINUOUS
10
122.111
20
-118.491
11
122.016
21
-118.539
0
LINE
8
BLACK
6
CONTINUOUS
10
122.016
20
-118.539
11
122.015
21
-118.539
0
LINE
8
BLACK
6
CONTINUOUS
10
122.015
20
-118.539
11
122.014
21
-118.539
0
LINE
8
BLACK
6
CONTINUOUS
10
122.014
20
-118.539
11
121.993
21
-118.561
0
LINE
8
BLACK
6
CONTINUOUS
10
121.993
20
-118.561
11
121.972
21
-118.582
0
LINE
8
BLACK
6
CONTINUOUS
10
121.972
20
-118.582
11
121.972
21
-118.583
0
LINE
8
BLACK
6
CONTINUOUS
10
121.972
20
-118.583
11
121.971
21
-118.583
0
LINE
8
BLACK
6
CONTINUOUS
10
121.971
20
-118.583
11
121.923
21
-118.679
0
LINE
8
BLACK
6
CONTINUOUS
10
121.923
20
-118.679
11
121.92
21
-118.701
0
LINE
8
BLACK
6
CONTINUOUS
10
121.92
20
-118.701
11
121.913
21
-118.723
0
LINE
8
BLACK
6
CONTINUOUS
10
121.913
20
-118.723
11
121.913
21
-119.247
0
LINE
8
BLACK
6
CONTINUOUS
10
121.913
20
-119.247
11
121.932
21
-119.306
0
LINE
8
BLACK
6
CONTINUOUS
10
121.932
20
-119.306
11
121.982
21
-119.342
0
LINE
8
BLACK
6
CONTINUOUS
10
121.982
20
-119.342
11
122.044
21
-119.342
0
LINE
8
BLACK
6
CONTINUOUS
10
122.044
20
-119.342
11
122.056
21
-119.333
0
LINE
8
BLACK
6
CONTINUOUS
10
122.056
20
-119.333
11
122.063
21
-119.337
0
LINE
8
BLACK
6
CONTINUOUS
10
122.063
20
-119.337
11
122.086
21
-119.34
0
LINE
8
BLACK
6
CONTINUOUS
10
122.086
20
-119.34
11
122.108
21
-119.347
0
LINE
8
BLACK
6
CONTINUOUS
10
122.108
20
-119.347
11
122.346
21
-119.347
0
LINE
8
BLACK
6
CONTINUOUS
10
122.346
20
-119.347
11
122.368
21
-119.34
0
LINE
8
BLACK
6
CONTINUOUS
10
122.368
20
-119.34
11
122.391
21
-119.337
0
LINE
8
BLACK
6
CONTINUOUS
10
122.391
20
-119.337
11
122.486
21
-119.289
0
LINE
8
BLACK
6
CONTINUOUS
10
122.486
20
-119.289
11
122.487
21
-119.288
0
LINE
8
BLACK
6
CONTINUOUS
10
122.487
20
-119.288
11
122.488
21
-119.288
0
LINE
8
BLACK
6
CONTINUOUS
10
122.488
20
-119.288
11
122.509
21
-119.267
0
LINE
8
BLACK
6
CONTINUOUS
10
122.509
20
-119.267
11
122.53
21
-119.246
0
LINE
8
BLACK
6
CONTINUOUS
10
122.53
20
-119.246
11
122.53
21
-119.245
0
LINE
8
BLACK
6
CONTINUOUS
10
122.53
20
-119.245
11
122.531
21
-119.244
0
LINE
8
BLACK
6
CONTINUOUS
10
122.531
20
-119.244
11
122.579
21
-119.149
0
LINE
8
BLACK
6
CONTINUOUS
10
122.579
20
-119.149
11
122.582
21
-119.126
0
LINE
8
BLACK
6
CONTINUOUS
10
122.582
20
-119.126
11
122.589
21
-119.104
0
LINE
8
BLACK
6
CONTINUOUS
10
122.589
20
-119.104
11
122.589
21
-119.009
0
LINE
8
BLACK
6
CONTINUOUS
10
122.589
20
-119.009
11
122.582
21
-118.987
0
LINE
8
BLACK
6
CONTINUOUS
10
122.582
20
-118.987
11
122.579
21
-118.964
0
LINE
8
BLACK
6
CONTINUOUS
10
122.579
20
-118.964
11
122.531
21
-118.869
0
LINE
8
BLACK
6
CONTINUOUS
10
122.531
20
-118.869
11
122.53
21
-118.869
0
LINE
8
BLACK
6
CONTINUOUS
10
122.53
20
-118.869
11
122.53
21
-118.868
0
LINE
8
BLACK
6
CONTINUOUS
10
122.53
20
-118.868
11
122.509
21
-118.847
0
LINE
8
BLACK
6
CONTINUOUS
10
122.509
20
-118.847
11
122.488
21
-118.825
0
LINE
8
BLACK
6
CONTINUOUS
10
122.488
20
-118.825
11
122.487
21
-118.825
0
LINE
8
BLACK
6
CONTINUOUS
10
122.487
20
-118.825
11
122.486
21
-118.824
0
LINE
8
BLACK
6
CONTINUOUS
10
122.486
20
-118.824
11
122.391
21
-118.777
0
LINE
8
BLACK
6
CONTINUOUS
10
122.391
20
-118.777
11
122.368
21
-118.773
0
LINE
8
BLACK
6
CONTINUOUS
10
122.368
20
-118.773
11
122.346
21
-118.766
0
LINE
8
BLACK
6
CONTINUOUS
10
122.346
20
-118.766
11
122.132
21
-118.766
0
LINE
8
BLACK
6
CONTINUOUS
10
122.132
20
-118.766
11
122.113
21
-118.757
0
LINE
8
BLACK
6
CONTINUOUS
10
122.113
20
-118.757
11
122.113
21
-118.747
0
LINE
8
BLACK
6
CONTINUOUS
10
122.113
20
-118.747
11
122.135
21
-118.703
0
LINE
8
BLACK
6
CONTINUOUS
10
122.135
20
-118.703
11
122.179
21
-118.681
0
LINE
8
BLACK
6
CONTINUOUS
10
122.179
20
-118.681
11
122.323
21
-118.681
0
LINE
8
BLACK
6
CONTINUOUS
10
122.323
20
-118.681
11
122.397
21
-118.718
0
LINE
8
BLACK
6
CONTINUOUS
10
122.397
20
-118.718
11
122.458
21
-118.727
0
LINE
8
BLACK
6
CONTINUOUS
10
122.458
20
-118.727
11
122.513
21
-118.698
0
LINE
8
BLACK
6
CONTINUOUS
10
122.513
20
-118.698
11
122.54
21
-118.643
0
LINE
8
BLACK
6
CONTINUOUS
10
122.54
20
-118.643
11
122.53
21
-118.582
0
LINE
8
BLACK
6
CONTINUOUS
10
122.53
20
-118.582
11
122.486
21
-118.539
0
LINE
8
BLACK
6
CONTINUOUS
10
122.486
20
-118.539
11
122.391
21
-118.491
0
LINE
8
BLACK
6
CONTINUOUS
10
122.391
20
-118.491
11
122.368
21
-118.488
0
LINE
8
BLACK
6
CONTINUOUS
10
122.368
20
-118.488
11
122.346
21
-118.481
0
LINE
8
BLACK
6
CONTINUOUS
10
122.346
20
-118.481
11
122.156
21
-118.481
0
LINE
8
BLACK
6
CONTINUOUS
10
122.156
20
-118.481
11
122.134
21
-118.488
0
LINE
8
BLACK
6
CONTINUOUS
10
124.42
20
-118.488
11
124.397
21
-118.491
0
LINE
8
BLACK
6
CONTINUOUS
10
124.397
20
-118.491
11
124.302
21
-118.539
0
LINE
8
BLACK
6
CONTINUOUS
10
124.302
20
-118.539
11
124.301
21
-118.539
0
LINE
8
BLACK
6
CONTINUOUS
10
124.301
20
-118.539
11
124.3
21
-118.539
0
LINE
8
BLACK
6
CONTINUOUS
10
124.3
20
-118.539
11
124.279
21
-118.561
0
LINE
8
BLACK
6
CONTINUOUS
10
124.279
20
-118.561
11
124.257
21
-118.582
0
LINE
8
BLACK
6
CONTINUOUS
10
124.257
20
-118.582
11
124.257
21
-118.583
0
LINE
8
BLACK
6
CONTINUOUS
10
124.257
20
-118.583
11
124.257
21
-118.583
0
LINE
8
BLACK
6
CONTINUOUS
10
124.257
20
-118.583
11
124.209
21
-118.679
0
LINE
8
BLACK
6
CONTINUOUS
10
124.209
20
-118.679
11
124.206
21
-118.701
0
LINE
8
BLACK
6
CONTINUOUS
10
124.206
20
-118.701
11
124.199
21
-118.723
0
LINE
8
BLACK
6
CONTINUOUS
10
124.199
20
-118.723
11
124.199
21
-119.247
0
LINE
8
BLACK
6
CONTINUOUS
10
124.199
20
-119.247
11
124.218
21
-119.306
0
LINE
8
BLACK
6
CONTINUOUS
10
124.218
20
-119.306
11
124.268
21
-119.342
0
LINE
8
BLACK
6
CONTINUOUS
10
124.268
20
-119.342
11
124.33
21
-119.342
0
LINE
8
BLACK
6
CONTINUOUS
10
124.33
20
-119.342
11
124.342
21
-119.333
0
LINE
8
BLACK
6
CONTINUOUS
10
124.342
20
-119.333
11
124.349
21
-119.337
0
LINE
8
BLACK
6
CONTINUOUS
10
124.349
20
-119.337
11
124.372
21
-119.34
0
LINE
8
BLACK
6
CONTINUOUS
10
124.372
20
-119.34
11
124.394
21
-119.347
0
LINE
8
BLACK
6
CONTINUOUS
10
124.394
20
-119.347
11
124.632
21
-119.347
0
LINE
8
BLACK
6
CONTINUOUS
10
124.632
20
-119.347
11
124.654
21
-119.34
0
LINE
8
BLACK
6
CONTINUOUS
10
124.654
20
-119.34
11
124.677
21
-119.337
0
LINE
8
BLACK
6
CONTINUOUS
10
124.677
20
-119.337
11
124.772
21
-119.289
0
LINE
8
BLACK
6
CONTINUOUS
10
124.772
20
-119.289
11
124.772
21
-119.288
0
LINE
8
BLACK
6
CONTINUOUS
10
124.772
20
-119.288
11
124.773
21
-119.288
0
LINE
8
BLACK
6
CONTINUOUS
10
124.773
20
-119.288
11
124.794
21
-119.267
0
LINE
8
BLACK
6
CONTINUOUS
10
124.794
20
-119.267
11
124.816
21
-119.246
0
LINE
8
BLACK
6
CONTINUOUS
10
124.816
20
-119.246
11
124.816
21
-119.245
0
LINE
8
BLACK
6
CONTINUOUS
10
124.816
20
-119.245
11
124.817
21
-119.244
0
LINE
8
BLACK
6
CONTINUOUS
10
124.817
20
-119.244
11
124.864
21
-119.149
0
LINE
8
BLACK
6
CONTINUOUS
10
124.864
20
-119.149
11
124.868
21
-119.126
0
LINE
8
BLACK
6
CONTINUOUS
10
124.868
20
-119.126
11
124.875
21
-119.104
0
LINE
8
BLACK
6
CONTINUOUS
10
124.875
20
-119.104
11
124.875
21
-119.009
0
LINE
8
BLACK
6
CONTINUOUS
10
124.875
20
-119.009
11
124.868
21
-118.987
0
LINE
8
BLACK
6
CONTINUOUS
10
124.868
20
-118.987
11
124.864
21
-118.964
0
LINE
8
BLACK
6
CONTINUOUS
10
124.864
20
-118.964
11
124.817
21
-118.869
0
LINE
8
BLACK
6
CONTINUOUS
10
124.817
20
-118.869
11
124.816
21
-118.869
0
LINE
8
BLACK
6
CONTINUOUS
10
124.816
20
-118.869
11
124.816
21
-118.868
0
LINE
8
BLACK
6
CONTINUOUS
10
124.816
20
-118.868
11
124.794
21
-118.847
0
LINE
8
BLACK
6
CONTINUOUS
10
124.794
20
-118.847
11
124.773
21
-118.825
0
LINE
8
BLACK
6
CONTINUOUS
10
124.773
20
-118.825
11
124.772
21
-118.825
0
LINE
8
BLACK
6
CONTINUOUS
10
124.772
20
-118.825
11
124.772
21
-118.824
0
LINE
8
BLACK
6
CONTINUOUS
10
124.772
20
-118.824
11
124.677
21
-118.777
0
LINE
8
BLACK
6
CONTINUOUS
10
124.677
20
-118.777
11
124.654
21
-118.773
0
LINE
8
BLACK
6
CONTINUOUS
10
124.654
20
-118.773
11
124.632
21
-118.766
0
LINE
8
BLACK
6
CONTINUOUS
10
124.632
20
-118.766
11
124.417
21
-118.766
0
LINE
8
BLACK
6
CONTINUOUS
10
124.417
20
-118.766
11
124.399
21
-118.757
0
LINE
8
BLACK
6
CONTINUOUS
10
124.399
20
-118.757
11
124.399
21
-118.747
0
LINE
8
BLACK
6
CONTINUOUS
10
124.399
20
-118.747
11
124.421
21
-118.703
0
LINE
8
BLACK
6
CONTINUOUS
10
124.421
20
-118.703
11
124.465
21
-118.681
0
LINE
8
BLACK
6
CONTINUOUS
10
124.465
20
-118.681
11
124.608
21
-118.681
0
LINE
8
BLACK
6
CONTINUOUS
10
124.608
20
-118.681
11
124.682
21
-118.718
0
LINE
8
BLACK
6
CONTINUOUS
10
124.682
20
-118.718
11
124.744
21
-118.727
0
LINE
8
BLACK
6
CONTINUOUS
10
124.744
20
-118.727
11
124.798
21
-118.698
0
LINE
8
BLACK
6
CONTINUOUS
10
124.798
20
-118.698
11
124.826
21
-118.643
0
LINE
8
BLACK
6
CONTINUOUS
10
124.826
20
-118.643
11
124.816
21
-118.582
0
LINE
8
BLACK
6
CONTINUOUS
10
124.816
20
-118.582
11
124.772
21
-118.539
0
LINE
8
BLACK
6
CONTINUOUS
10
124.772
20
-118.539
11
124.677
21
-118.491
0
LINE
8
BLACK
6
CONTINUOUS
10
124.677
20
-118.491
11
124.654
21
-118.488
0
LINE
8
BLACK
6
CONTINUOUS
10
124.654
20
-118.488
11
124.632
21
-118.481
0
LINE
8
BLACK
6
CONTINUOUS
10
124.632
20
-118.481
11
124.441
21
-118.481
0
LINE
8
BLACK
6
CONTINUOUS
10
124.441
20
-118.481
11
124.42
21
-118.488
0
LINE
8
BLACK
6
CONTINUOUS
10
125.331
20
-118.152
11
125.315
21
-118.152
0
LINE
8
BLACK
6
CONTINUOUS
10
125.315
20
-118.152
11
125.172
21
-118.2
0
LINE
8
BLACK
6
CONTINUOUS
10
125.172
20
-118.2
11
125.153
21
-118.214
0
LINE
8
BLACK
6
CONTINUOUS
10
125.153
20
-118.214
11
125.133
21
-118.224
0
LINE
8
BLACK
6
CONTINUOUS
10
125.133
20
-118.224
11
125.085
21
-118.272
0
LINE
8
BLACK
6
CONTINUOUS
10
125.085
20
-118.272
11
125.057
21
-118.327
0
LINE
8
BLACK
6
CONTINUOUS
10
125.057
20
-118.327
11
125.067
21
-118.388
0
LINE
8
BLACK
6
CONTINUOUS
10
125.067
20
-118.388
11
125.11
21
-118.432
0
LINE
8
BLACK
6
CONTINUOUS
10
125.11
20
-118.432
11
125.171
21
-118.441
0
LINE
8
BLACK
6
CONTINUOUS
10
125.171
20
-118.441
11
125.226
21
-118.413
0
LINE
8
BLACK
6
CONTINUOUS
10
125.226
20
-118.413
11
125.257
21
-118.382
0
LINE
8
BLACK
6
CONTINUOUS
10
125.257
20
-118.382
11
125.362
21
-118.347
0
LINE
8
BLACK
6
CONTINUOUS
10
125.362
20
-118.347
11
125.425
21
-118.347
0
LINE
8
BLACK
6
CONTINUOUS
10
125.425
20
-118.347
11
125.53
21
-118.382
0
LINE
8
BLACK
6
CONTINUOUS
10
125.53
20
-118.382
11
125.597
21
-118.449
0
LINE
8
BLACK
6
CONTINUOUS
10
125.597
20
-118.449
11
125.633
21
-118.52
0
LINE
8
BLACK
6
CONTINUOUS
10
125.633
20
-118.52
11
125.675
21
-118.688
0
LINE
8
BLACK
6
CONTINUOUS
10
125.675
20
-118.688
11
125.675
21
-118.806
0
LINE
8
BLACK
6
CONTINUOUS
10
125.675
20
-118.806
11
125.633
21
-118.974
0
LINE
8
BLACK
6
CONTINUOUS
10
125.633
20
-118.974
11
125.597
21
-119.045
0
LINE
8
BLACK
6
CONTINUOUS
10
125.597
20
-119.045
11
125.53
21
-119.112
0
LINE
8
BLACK
6
CONTINUOUS
10
125.53
20
-119.112
11
125.425
21
-119.147
0
LINE
8
BLACK
6
CONTINUOUS
10
125.425
20
-119.147
11
125.362
21
-119.147
0
LINE
8
BLACK
6
CONTINUOUS
10
125.362
20
-119.147
11
125.257
21
-119.112
0
LINE
8
BLACK
6
CONTINUOUS
10
125.257
20
-119.112
11
125.226
21
-119.081
0
LINE
8
BLACK
6
CONTINUOUS
10
125.226
20
-119.081
11
125.171
21
-119.053
0
LINE
8
BLACK
6
CONTINUOUS
10
125.171
20
-119.053
11
125.11
21
-119.063
0
LINE
8
BLACK
6
CONTINUOUS
10
125.11
20
-119.063
11
125.067
21
-119.107
0
LINE
8
BLACK
6
CONTINUOUS
10
125.067
20
-119.107
11
125.057
21
-119.168
0
LINE
8
BLACK
6
CONTINUOUS
10
125.057
20
-119.168
11
125.085
21
-119.223
0
LINE
8
BLACK
6
CONTINUOUS
10
125.085
20
-119.223
11
125.133
21
-119.27
0
LINE
8
BLACK
6
CONTINUOUS
10
125.133
20
-119.27
11
125.153
21
-119.281
0
LINE
8
BLACK
6
CONTINUOUS
10
125.153
20
-119.281
11
125.172
21
-119.294
0
LINE
8
BLACK
6
CONTINUOUS
10
125.172
20
-119.294
11
125.315
21
-119.342
0
LINE
8
BLACK
6
CONTINUOUS
10
125.315
20
-119.342
11
125.331
21
-119.342
0
LINE
8
BLACK
6
CONTINUOUS
10
125.331
20
-119.342
11
125.346
21
-119.347
0
LINE
8
BLACK
6
CONTINUOUS
10
125.346
20
-119.347
11
125.441
21
-119.347
0
LINE
8
BLACK
6
CONTINUOUS
10
125.441
20
-119.347
11
125.457
21
-119.342
0
LINE
8
BLACK
6
CONTINUOUS
10
125.457
20
-119.342
11
125.473
21
-119.342
0
LINE
8
BLACK
6
CONTINUOUS
10
125.473
20
-119.342
11
125.616
21
-119.294
0
LINE
8
BLACK
6
CONTINUOUS
10
125.616
20
-119.294
11
125.634
21
-119.281
0
LINE
8
BLACK
6
CONTINUOUS
10
125.634
20
-119.281
11
125.655
21
-119.27
0
LINE
8
BLACK
6
CONTINUOUS
10
125.655
20
-119.27
11
125.75
21
-119.175
0
LINE
8
BLACK
6
CONTINUOUS
10
125.75
20
-119.175
11
125.758
21
-119.161
0
LINE
8
BLACK
6
CONTINUOUS
10
125.758
20
-119.161
11
125.769
21
-119.149
0
LINE
8
BLACK
6
CONTINUOUS
10
125.769
20
-119.149
11
125.817
21
-119.054
0
LINE
8
BLACK
6
CONTINUOUS
10
125.817
20
-119.054
11
125.818
21
-119.043
0
LINE
8
BLACK
6
CONTINUOUS
10
125.818
20
-119.043
11
125.824
21
-119.033
0
LINE
8
BLACK
6
CONTINUOUS
10
125.824
20
-119.033
11
125.872
21
-118.843
0
LINE
8
BLACK
6
CONTINUOUS
10
125.872
20
-118.843
11
125.871
21
-118.83
0
LINE
8
BLACK
6
CONTINUOUS
10
125.871
20
-118.83
11
125.875
21
-118.819
0
LINE
8
BLACK
6
CONTINUOUS
10
125.875
20
-118.819
11
125.875
21
-118.676
0
LINE
8
BLACK
6
CONTINUOUS
10
125.875
20
-118.676
11
125.871
21
-118.664
0
LINE
8
BLACK
6
CONTINUOUS
10
125.871
20
-118.664
11
125.872
21
-118.652
0
LINE
8
BLACK
6
CONTINUOUS
10
125.872
20
-118.652
11
125.824
21
-118.461
0
LINE
8
BLACK
6
CONTINUOUS
10
125.824
20
-118.461
11
125.818
21
-118.452
0
LINE
8
BLACK
6
CONTINUOUS
10
125.818
20
-118.452
11
125.817
21
-118.441
0
LINE
8
BLACK
6
CONTINUOUS
10
125.817
20
-118.441
11
125.769
21
-118.345
0
LINE
8
BLACK
6
CONTINUOUS
10
125.769
20
-118.345
11
125.758
21
-118.334
0
LINE
8
BLACK
6
CONTINUOUS
10
125.758
20
-118.334
11
125.75
21
-118.319
0
LINE
8
BLACK
6
CONTINUOUS
10
125.75
20
-118.319
11
125.655
21
-118.224
0
LINE
8
BLACK
6
CONTINUOUS
10
125.655
20
-118.224
11
125.634
21
-118.214
0
LINE
8
BLACK
6
CONTINUOUS
10
125.634
20
-118.214
11
125.616
21
-118.2
0
LINE
8
BLACK
6
CONTINUOUS
10
125.616
20
-118.2
11
125.473
21
-118.152
0
LINE
8
BLACK
6
CONTINUOUS
10
125.473
20
-118.152
11
125.457
21
-118.152
0
LINE
8
BLACK
6
CONTINUOUS
10
125.457
20
-118.152
11
125.441
21
-118.147
0
LINE
8
BLACK
6
CONTINUOUS
10
125.441
20
-118.147
11
125.346
21
-118.147
0
LINE
8
BLACK
6
CONTINUOUS
10
125.346
20
-118.147
11
125.331
21
-118.152
0
LINE
8
BLACK
6
CONTINUOUS
10
127.991
20
-118.488
11
127.968
21
-118.491
0
LINE
8
BLACK
6
CONTINUOUS
10
127.968
20
-118.491
11
127.873
21
-118.539
0
LINE
8
BLACK
6
CONTINUOUS
10
127.873
20
-118.539
11
127.872
21
-118.539
0
LINE
8
BLACK
6
CONTINUOUS
10
127.872
20
-118.539
11
127.872
21
-118.539
0
LINE
8
BLACK
6
CONTINUOUS
10
127.872
20
-118.539
11
127.85
21
-118.561
0
LINE
8
BLACK
6
CONTINUOUS
10
127.85
20
-118.561
11
127.829
21
-118.582
0
LINE
8
BLACK
6
CONTINUOUS
10
127.829
20
-118.582
11
127.829
21
-118.583
0
LINE
8
BLACK
6
CONTINUOUS
10
127.829
20
-118.583
11
127.828
21
-118.583
0
LINE
8
BLACK
6
CONTINUOUS
10
127.828
20
-118.583
11
127.781
21
-118.679
0
LINE
8
BLACK
6
CONTINUOUS
10
127.781
20
-118.679
11
127.777
21
-118.701
0
LINE
8
BLACK
6
CONTINUOUS
10
127.777
20
-118.701
11
127.77
21
-118.723
0
LINE
8
BLACK
6
CONTINUOUS
10
127.77
20
-118.723
11
127.77
21
-119.247
0
LINE
8
BLACK
6
CONTINUOUS
10
127.77
20
-119.247
11
127.789
21
-119.306
0
LINE
8
BLACK
6
CONTINUOUS
10
127.789
20
-119.306
11
127.839
21
-119.342
0
LINE
8
BLACK
6
CONTINUOUS
10
127.839
20
-119.342
11
127.901
21
-119.342
0
LINE
8
BLACK
6
CONTINUOUS
10
127.901
20
-119.342
11
127.914
21
-119.333
0
LINE
8
BLACK
6
CONTINUOUS
10
127.914
20
-119.333
11
127.921
21
-119.337
0
LINE
8
BLACK
6
CONTINUOUS
10
127.921
20
-119.337
11
127.943
21
-119.34
0
LINE
8
BLACK
6
CONTINUOUS
10
127.943
20
-119.34
11
127.965
21
-119.347
0
LINE
8
BLACK
6
CONTINUOUS
10
127.965
20
-119.347
11
128.203
21
-119.347
0
LINE
8
BLACK
6
CONTINUOUS
10
128.203
20
-119.347
11
128.225
21
-119.34
0
LINE
8
BLACK
6
CONTINUOUS
10
128.225
20
-119.34
11
128.248
21
-119.337
0
LINE
8
BLACK
6
CONTINUOUS
10
128.248
20
-119.337
11
128.343
21
-119.289
0
LINE
8
BLACK
6
CONTINUOUS
10
128.343
20
-119.289
11
128.344
21
-119.288
0
LINE
8
BLACK
6
CONTINUOUS
10
128.344
20
-119.288
11
128.345
21
-119.288
0
LINE
8
BLACK
6
CONTINUOUS
10
128.345
20
-119.288
11
128.366
21
-119.267
0
LINE
8
BLACK
6
CONTINUOUS
10
128.366
20
-119.267
11
128.387
21
-119.246
0
LINE
8
BLACK
6
CONTINUOUS
10
128.387
20
-119.246
11
128.387
21
-119.245
0
LINE
8
BLACK
6
CONTINUOUS
10
128.387
20
-119.245
11
128.388
21
-119.244
0
LINE
8
BLACK
6
CONTINUOUS
10
128.388
20
-119.244
11
128.436
21
-119.149
0
LINE
8
BLACK
6
CONTINUOUS
10
128.436
20
-119.149
11
128.439
21
-119.126
0
LINE
8
BLACK
6
CONTINUOUS
10
128.439
20
-119.126
11
128.446
21
-119.104
0
LINE
8
BLACK
6
CONTINUOUS
10
128.446
20
-119.104
11
128.446
21
-119.009
0
LINE
8
BLACK
6
CONTINUOUS
10
128.446
20
-119.009
11
128.439
21
-118.987
0
LINE
8
BLACK
6
CONTINUOUS
10
128.439
20
-118.987
11
128.436
21
-118.964
0
LINE
8
BLACK
6
CONTINUOUS
10
128.436
20
-118.964
11
128.388
21
-118.869
0
LINE
8
BLACK
6
CONTINUOUS
10
128.388
20
-118.869
11
128.387
21
-118.869
0
LINE
8
BLACK
6
CONTINUOUS
10
128.387
20
-118.869
11
128.387
21
-118.868
0
LINE
8
BLACK
6
CONTINUOUS
10
128.387
20
-118.868
11
128.366
21
-118.847
0
LINE
8
BLACK
6
CONTINUOUS
10
128.366
20
-118.847
11
128.345
21
-118.825
0
LINE
8
BLACK
6
CONTINUOUS
10
128.345
20
-118.825
11
128.344
21
-118.825
0
LINE
8
BLACK
6
CONTINUOUS
10
128.344
20
-118.825
11
128.343
21
-118.824
0
LINE
8
BLACK
6
CONTINUOUS
10
128.343
20
-118.824
11
128.248
21
-118.777
0
LINE
8
BLACK
6
CONTINUOUS
10
128.248
20
-118.777
11
128.225
21
-118.773
0
LINE
8
BLACK
6
CONTINUOUS
10
128.225
20
-118.773
11
128.203
21
-118.766
0
LINE
8
BLACK
6
CONTINUOUS
10
128.203
20
-118.766
11
127.989
21
-118.766
0
LINE
8
BLACK
6
CONTINUOUS
10
127.989
20
-118.766
11
127.97
21
-118.757
0
LINE
8
BLACK
6
CONTINUOUS
10
127.97
20
-118.757
11
127.97
21
-118.747
0
LINE
8
BLACK
6
CONTINUOUS
10
127.97
20
-118.747
11
127.992
21
-118.703
0
LINE
8
BLACK
6
CONTINUOUS
10
127.992
20
-118.703
11
128.037
21
-118.681
0
LINE
8
BLACK
6
CONTINUOUS
10
128.037
20
-118.681
11
128.18
21
-118.681
0
LINE
8
BLACK
6
CONTINUOUS
10
128.18
20
-118.681
11
128.254
21
-118.718
0
LINE
8
BLACK
6
CONTINUOUS
10
128.254
20
-118.718
11
128.315
21
-118.727
0
LINE
8
BLACK
6
CONTINUOUS
10
128.315
20
-118.727
11
128.37
21
-118.698
0
LINE
8
BLACK
6
CONTINUOUS
10
128.37
20
-118.698
11
128.397
21
-118.643
0
LINE
8
BLACK
6
CONTINUOUS
10
128.397
20
-118.643
11
128.387
21
-118.582
0
LINE
8
BLACK
6
CONTINUOUS
10
128.387
20
-118.582
11
128.343
21
-118.539
0
LINE
8
BLACK
6
CONTINUOUS
10
128.343
20
-118.539
11
128.248
21
-118.491
0
LINE
8
BLACK
6
CONTINUOUS
10
128.248
20
-118.491
11
128.225
21
-118.488
0
LINE
8
BLACK
6
CONTINUOUS
10
128.225
20
-118.488
11
128.203
21
-118.481
0
LINE
8
BLACK
6
CONTINUOUS
10
128.203
20
-118.481
11
128.013
21
-118.481
0
LINE
8
BLACK
6
CONTINUOUS
10
128.013
20
-118.481
11
127.991
21
-118.488
0
LINE
8
BLACK
6
CONTINUOUS
10
132.027
20
-118.188
11
132.008
21
-118.247
0
LINE
8
BLACK
6
CONTINUOUS
10
132.008
20
-118.247
11
132.008
21
-118.481
0
LINE
8
BLACK
6
CONTINUOUS
10
132.008
20
-118.481
11
131.822
21
-118.481
0
LINE
8
BLACK
6
CONTINUOUS
10
131.822
20
-118.481
11
131.8
21
-118.488
0
LINE
8
BLACK
6
CONTINUOUS
10
131.8
20
-118.488
11
131.778
21
-118.491
0
LINE
8
BLACK
6
CONTINUOUS
10
131.778
20
-118.491
11
131.682
21
-118.539
0
LINE
8
BLACK
6
CONTINUOUS
10
131.682
20
-118.539
11
131.671
21
-118.55
0
LINE
8
BLACK
6
CONTINUOUS
10
131.671
20
-118.55
11
131.656
21
-118.557
0
LINE
8
BLACK
6
CONTINUOUS
10
131.656
20
-118.557
11
131.609
21
-118.605
0
LINE
8
BLACK
6
CONTINUOUS
10
131.609
20
-118.605
11
131.601
21
-118.62
0
LINE
8
BLACK
6
CONTINUOUS
10
131.601
20
-118.62
11
131.59
21
-118.631
0
LINE
8
BLACK
6
CONTINUOUS
10
131.59
20
-118.631
11
131.542
21
-118.726
0
LINE
8
BLACK
6
CONTINUOUS
10
131.542
20
-118.726
11
131.539
21
-118.749
0
LINE
8
BLACK
6
CONTINUOUS
10
131.539
20
-118.749
11
131.532
21
-118.771
0
LINE
8
BLACK
6
CONTINUOUS
10
131.532
20
-118.771
11
131.532
21
-119.057
0
LINE
8
BLACK
6
CONTINUOUS
10
131.532
20
-119.057
11
131.539
21
-119.079
0
LINE
8
BLACK
6
CONTINUOUS
10
131.539
20
-119.079
11
131.542
21
-119.101
0
LINE
8
BLACK
6
CONTINUOUS
10
131.542
20
-119.101
11
131.59
21
-119.197
0
LINE
8
BLACK
6
CONTINUOUS
10
131.59
20
-119.197
11
131.601
21
-119.208
0
LINE
8
BLACK
6
CONTINUOUS
10
131.601
20
-119.208
11
131.609
21
-119.223
0
LINE
8
BLACK
6
CONTINUOUS
10
131.609
20
-119.223
11
131.656
21
-119.27
0
LINE
8
BLACK
6
CONTINUOUS
10
131.656
20
-119.27
11
131.671
21
-119.278
0
LINE
8
BLACK
6
CONTINUOUS
10
131.671
20
-119.278
11
131.682
21
-119.289
0
LINE
8
BLACK
6
CONTINUOUS
10
131.682
20
-119.289
11
131.778
21
-119.337
0
LINE
8
BLACK
6
CONTINUOUS
10
131.778
20
-119.337
11
131.8
21
-119.34
0
LINE
8
BLACK
6
CONTINUOUS
10
131.8
20
-119.34
11
131.822
21
-119.347
0
LINE
8
BLACK
6
CONTINUOUS
10
131.822
20
-119.347
11
132.013
21
-119.347
0
LINE
8
BLACK
6
CONTINUOUS
10
132.013
20
-119.347
11
132.035
21
-119.34
0
LINE
8
BLACK
6
CONTINUOUS
10
132.035
20
-119.34
11
132.058
21
-119.337
0
LINE
8
BLACK
6
CONTINUOUS
10
132.058
20
-119.337
11
132.065
21
-119.333
0
LINE
8
BLACK
6
CONTINUOUS
10
132.065
20
-119.333
11
132.077
21
-119.342
0
LINE
8
BLACK
6
CONTINUOUS
10
132.077
20
-119.342
11
132.139
21
-119.342
0
LINE
8
BLACK
6
CONTINUOUS
10
132.139
20
-119.342
11
132.189
21
-119.306
0
LINE
8
BLACK
6
CONTINUOUS
10
132.189
20
-119.306
11
132.208
21
-119.247
0
LINE
8
BLACK
6
CONTINUOUS
10
132.208
20
-119.247
11
132.208
21
-118.247
0
LINE
8
BLACK
6
CONTINUOUS
10
132.208
20
-118.247
11
132.189
21
-118.188
0
LINE
8
BLACK
6
CONTINUOUS
10
132.189
20
-118.188
11
132.139
21
-118.152
0
LINE
8
BLACK
6
CONTINUOUS
10
132.139
20
-118.152
11
132.077
21
-118.152
0
LINE
8
BLACK
6
CONTINUOUS
10
132.077
20
-118.152
11
132.027
21
-118.188
0
LINE
8
BLACK
6
CONTINUOUS
10
133.265
20
-118.188
11
133.246
21
-118.247
0
LINE
8
BLACK
6
CONTINUOUS
10
133.246
20
-118.247
11
133.246
21
-119.247
0
LINE
8
BLACK
6
CONTINUOUS
10
133.246
20
-119.247
11
133.265
21
-119.306
0
LINE
8
BLACK
6
CONTINUOUS
10
133.265
20
-119.306
11
133.315
21
-119.342
0
LINE
8
BLACK
6
CONTINUOUS
10
133.315
20
-119.342
11
133.377
21
-119.342
0
LINE
8
BLACK
6
CONTINUOUS
10
133.377
20
-119.342
11
133.39
21
-119.333
0
LINE
8
BLACK
6
CONTINUOUS
10
133.39
20
-119.333
11
133.397
21
-119.337
0
LINE
8
BLACK
6
CONTINUOUS
10
133.397
20
-119.337
11
133.42
21
-119.34
0
LINE
8
BLACK
6
CONTINUOUS
10
133.42
20
-119.34
11
133.441
21
-119.347
0
LINE
8
BLACK
6
CONTINUOUS
10
133.441
20
-119.347
11
133.632
21
-119.347
0
LINE
8
BLACK
6
CONTINUOUS
10
133.632
20
-119.347
11
133.654
21
-119.34
0
LINE
8
BLACK
6
CONTINUOUS
10
133.654
20
-119.34
11
133.677
21
-119.337
0
LINE
8
BLACK
6
CONTINUOUS
10
133.677
20
-119.337
11
133.772
21
-119.289
0
LINE
8
BLACK
6
CONTINUOUS
10
133.772
20
-119.289
11
133.783
21
-119.278
0
LINE
8
BLACK
6
CONTINUOUS
10
133.783
20
-119.278
11
133.798
21
-119.27
0
LINE
8
BLACK
6
CONTINUOUS
10
133.798
20
-119.27
11
133.846
21
-119.223
0
LINE
8
BLACK
6
CONTINUOUS
10
133.846
20
-119.223
11
133.853
21
-119.208
0
LINE
8
BLACK
6
CONTINUOUS
10
133.853
20
-119.208
11
133.864
21
-119.197
0
LINE
8
BLACK
6
CONTINUOUS
10
133.864
20
-119.197
11
133.912
21
-119.101
0
LINE
8
BLACK
6
CONTINUOUS
10
133.912
20
-119.101
11
133.915
21
-119.079
0
LINE
8
BLACK
6
CONTINUOUS
10
133.915
20
-119.079
11
133.922
21
-119.057
0
LINE
8
BLACK
6
CONTINUOUS
10
133.922
20
-119.057
11
133.922
21
-118.771
0
LINE
8
BLACK
6
CONTINUOUS
10
133.922
20
-118.771
11
133.915
21
-118.749
0
LINE
8
BLACK
6
CONTINUOUS
10
133.915
20
-118.749
11
133.912
21
-118.726
0
LINE
8
BLACK
6
CONTINUOUS
10
133.912
20
-118.726
11
133.864
21
-118.631
0
LINE
8
BLACK
6
CONTINUOUS
10
133.864
20
-118.631
11
133.853
21
-118.62
0
LINE
8
BLACK
6
CONTINUOUS
10
133.853
20
-118.62
11
133.846
21
-118.605
0
LINE
8
BLACK
6
CONTINUOUS
10
133.846
20
-118.605
11
133.798
21
-118.557
0
LINE
8
BLACK
6
CONTINUOUS
10
133.798
20
-118.557
11
133.783
21
-118.55
0
LINE
8
BLACK
6
CONTINUOUS
10
133.783
20
-118.55
11
133.772
21
-118.539
0
LINE
8
BLACK
6
CONTINUOUS
10
133.772
20
-118.539
11
133.677
21
-118.491
0
LINE
8
BLACK
6
CONTINUOUS
10
133.677
20
-118.491
11
133.654
21
-118.488
0
LINE
8
BLACK
6
CONTINUOUS
10
133.654
20
-118.488
11
133.632
21
-118.481
0
LINE
8
BLACK
6
CONTINUOUS
10
133.632
20
-118.481
11
133.446
21
-118.481
0
LINE
8
BLACK
6
CONTINUOUS
10
133.446
20
-118.481
11
133.446
21
-118.247
0
LINE
8
BLACK
6
CONTINUOUS
10
133.446
20
-118.247
11
133.427
21
-118.188
0
LINE
8
BLACK
6
CONTINUOUS
10
133.427
20
-118.188
11
133.377
21
-118.152
0
LINE
8
BLACK
6
CONTINUOUS
10
133.377
20
-118.152
11
133.315
21
-118.152
0
LINE
8
BLACK
6
CONTINUOUS
10
133.315
20
-118.152
11
133.265
21
-118.188
0
LINE
8
BLACK
6
CONTINUOUS
10
134.324
20
-118.488
11
134.302
21
-118.491
0
LINE
8
BLACK
6
CONTINUOUS
10
134.302
20
-118.491
11
134.206
21
-118.539
0
LINE
8
BLACK
6
CONTINUOUS
10
134.206
20
-118.539
11
134.206
21
-118.539
0
LINE
8
BLACK
6
CONTINUOUS
10
134.206
20
-118.539
11
134.205
21
-118.539
0
LINE
8
BLACK
6
CONTINUOUS
10
134.205
20
-118.539
11
134.184
21
-118.561
0
LINE
8
BLACK
6
CONTINUOUS
10
134.184
20
-118.561
11
134.162
21
-118.582
0
LINE
8
BLACK
6
CONTINUOUS
10
134.162
20
-118.582
11
134.162
21
-118.583
0
LINE
8
BLACK
6
CONTINUOUS
10
134.162
20
-118.583
11
134.162
21
-118.583
0
LINE
8
BLACK
6
CONTINUOUS
10
134.162
20
-118.583
11
134.114
21
-118.679
0
LINE
8
BLACK
6
CONTINUOUS
10
134.114
20
-118.679
11
134.11
21
-118.701
0
LINE
8
BLACK
6
CONTINUOUS
10
134.11
20
-118.701
11
134.103
21
-118.723
0
LINE
8
BLACK
6
CONTINUOUS
10
134.103
20
-118.723
11
134.103
21
-118.819
0
LINE
8
BLACK
6
CONTINUOUS
10
134.103
20
-118.819
11
134.105
21
-118.824
0
LINE
8
BLACK
6
CONTINUOUS
10
134.105
20
-118.824
11
134.104
21
-118.83
0
LINE
8
BLACK
6
CONTINUOUS
10
134.104
20
-118.83
11
134.115
21
-118.853
0
LINE
8
BLACK
6
CONTINUOUS
10
134.115
20
-118.853
11
134.122
21
-118.877
0
LINE
8
BLACK
6
CONTINUOUS
10
134.122
20
-118.877
11
134.127
21
-118.881
0
LINE
8
BLACK
6
CONTINUOUS
10
134.127
20
-118.881
11
134.13
21
-118.886
0
LINE
8
BLACK
6
CONTINUOUS
10
134.13
20
-118.886
11
134.152
21
-118.899
0
LINE
8
BLACK
6
CONTINUOUS
10
134.152
20
-118.899
11
134.172
21
-118.914
0
LINE
8
BLACK
6
CONTINUOUS
10
134.172
20
-118.914
11
134.179
21
-118.914
0
LINE
8
BLACK
6
CONTINUOUS
10
134.179
20
-118.914
11
134.184
21
-118.917
0
LINE
8
BLACK
6
CONTINUOUS
10
134.184
20
-118.917
11
134.58
21
-118.996
0
LINE
8
BLACK
6
CONTINUOUS
10
134.58
20
-118.996
11
134.58
21
-119.081
0
LINE
8
BLACK
6
CONTINUOUS
10
134.58
20
-119.081
11
134.557
21
-119.125
0
LINE
8
BLACK
6
CONTINUOUS
10
134.557
20
-119.125
11
134.513
21
-119.147
0
LINE
8
BLACK
6
CONTINUOUS
10
134.513
20
-119.147
11
134.37
21
-119.147
0
LINE
8
BLACK
6
CONTINUOUS
10
134.37
20
-119.147
11
134.296
21
-119.11
0
LINE
8
BLACK
6
CONTINUOUS
10
134.296
20
-119.11
11
134.235
21
-119.101
0
LINE
8
BLACK
6
CONTINUOUS
10
134.235
20
-119.101
11
134.18
21
-119.129
0
LINE
8
BLACK
6
CONTINUOUS
10
134.18
20
-119.129
11
134.152
21
-119.185
0
LINE
8
BLACK
6
CONTINUOUS
10
134.152
20
-119.185
11
134.162
21
-119.246
0
LINE
8
BLACK
6
CONTINUOUS
10
134.162
20
-119.246
11
134.206
21
-119.289
0
LINE
8
BLACK
6
CONTINUOUS
10
134.206
20
-119.289
11
134.302
21
-119.337
0
LINE
8
BLACK
6
CONTINUOUS
10
134.302
20
-119.337
11
134.324
21
-119.34
0
LINE
8
BLACK
6
CONTINUOUS
10
134.324
20
-119.34
11
134.346
21
-119.347
0
LINE
8
BLACK
6
CONTINUOUS
10
134.346
20
-119.347
11
134.537
21
-119.347
0
LINE
8
BLACK
6
CONTINUOUS
10
134.537
20
-119.347
11
134.559
21
-119.34
0
LINE
8
BLACK
6
CONTINUOUS
10
134.559
20
-119.34
11
134.581
21
-119.337
0
LINE
8
BLACK
6
CONTINUOUS
10
134.581
20
-119.337
11
134.677
21
-119.289
0
LINE
8
BLACK
6
CONTINUOUS
10
134.677
20
-119.289
11
134.677
21
-119.288
0
LINE
8
BLACK
6
CONTINUOUS
10
134.677
20
-119.288
11
134.678
21
-119.288
0
LINE
8
BLACK
6
CONTINUOUS
10
134.678
20
-119.288
11
134.699
21
-119.267
0
LINE
8
BLACK
6
CONTINUOUS
10
134.699
20
-119.267
11
134.721
21
-119.246
0
LINE
8
BLACK
6
CONTINUOUS
10
134.721
20
-119.246
11
134.721
21
-119.245
0
LINE
8
BLACK
6
CONTINUOUS
10
134.721
20
-119.245
11
134.721
21
-119.244
0
LINE
8
BLACK
6
CONTINUOUS
10
134.721
20
-119.244
11
134.769
21
-119.149
0
LINE
8
BLACK
6
CONTINUOUS
10
134.769
20
-119.149
11
134.772
21
-119.126
0
LINE
8
BLACK
6
CONTINUOUS
10
134.772
20
-119.126
11
134.78
21
-119.104
0
LINE
8
BLACK
6
CONTINUOUS
10
134.78
20
-119.104
11
134.78
21
-118.723
0
LINE
8
BLACK
6
CONTINUOUS
10
134.78
20
-118.723
11
134.772
21
-118.701
0
LINE
8
BLACK
6
CONTINUOUS
10
134.772
20
-118.701
11
134.769
21
-118.679
0
LINE
8
BLACK
6
CONTINUOUS
10
134.769
20
-118.679
11
134.721
21
-118.583
0
LINE
8
BLACK
6
CONTINUOUS
10
134.721
20
-118.583
11
134.721
21
-118.583
0
LINE
8
BLACK
6
CONTINUOUS
10
134.721
20
-118.583
11
134.721
21
-118.582
0
LINE
8
BLACK
6
CONTINUOUS
10
134.721
20
-118.582
11
134.699
21
-118.561
0
LINE
8
BLACK
6
CONTINUOUS
10
134.699
20
-118.561
11
134.678
21
-118.539
0
LINE
8
BLACK
6
CONTINUOUS
10
134.678
20
-118.539
11
134.677
21
-118.539
0
LINE
8
BLACK
6
CONTINUOUS
10
134.677
20
-118.539
11
134.677
21
-118.539
0
LINE
8
BLACK
6
CONTINUOUS
10
134.677
20
-118.539
11
134.581
21
-118.491
0
LINE
8
BLACK
6
CONTINUOUS
10
134.581
20
-118.491
11
134.559
21
-118.488
0
LINE
8
BLACK
6
CONTINUOUS
10
134.559
20
-118.488
11
134.537
21
-118.481
0
LINE
8
BLACK
6
CONTINUOUS
10
134.537
20
-118.481
11
134.346
21
-118.481
0
LINE
8
BLACK
6
CONTINUOUS
10
134.346
20
-118.481
11
134.324
21
-118.488
0
LINE
8
BLACK
6
CONTINUOUS
10
137.467
20
-118.488
11
137.444
21
-118.491
0
LINE
8
BLACK
6
CONTINUOUS
10
137.444
20
-118.491
11
137.349
21
-118.539
0
LINE
8
BLACK
6
CONTINUOUS
10
137.349
20
-118.539
11
137.305
21
-118.582
0
LINE
8
BLACK
6
CONTINUOUS
10
137.305
20
-118.582
11
137.295
21
-118.643
0
LINE
8
BLACK
6
CONTINUOUS
10
137.295
20
-118.643
11
137.323
21
-118.698
0
LINE
8
BLACK
6
CONTINUOUS
10
137.323
20
-118.698
11
137.377
21
-118.727
0
LINE
8
BLACK
6
CONTINUOUS
10
137.377
20
-118.727
11
137.439
21
-118.718
0
LINE
8
BLACK
6
CONTINUOUS
10
137.439
20
-118.718
11
137.513
21
-118.681
0
LINE
8
BLACK
6
CONTINUOUS
10
137.513
20
-118.681
11
137.608
21
-118.681
0
LINE
8
BLACK
6
CONTINUOUS
10
137.608
20
-118.681
11
137.653
21
-118.703
0
LINE
8
BLACK
6
CONTINUOUS
10
137.653
20
-118.703
11
137.675
21
-118.747
0
LINE
8
BLACK
6
CONTINUOUS
10
137.675
20
-118.747
11
137.675
21
-118.747
0
LINE
8
BLACK
6
CONTINUOUS
10
137.675
20
-118.747
11
137.653
21
-118.792
0
LINE
8
BLACK
6
CONTINUOUS
10
137.653
20
-118.792
11
137.608
21
-118.814
0
LINE
8
BLACK
6
CONTINUOUS
10
137.608
20
-118.814
11
137.489
21
-118.814
0
LINE
8
BLACK
6
CONTINUOUS
10
137.489
20
-118.814
11
137.467
21
-118.821
0
LINE
8
BLACK
6
CONTINUOUS
10
137.467
20
-118.821
11
137.444
21
-118.824
0
LINE
8
BLACK
6
CONTINUOUS
10
137.444
20
-118.824
11
137.349
21
-118.872
0
LINE
8
BLACK
6
CONTINUOUS
10
137.349
20
-118.872
11
137.349
21
-118.873
0
LINE
8
BLACK
6
CONTINUOUS
10
137.349
20
-118.873
11
137.348
21
-118.873
0
LINE
8
BLACK
6
CONTINUOUS
10
137.348
20
-118.873
11
137.327
21
-118.894
0
LINE
8
BLACK
6
CONTINUOUS
10
137.327
20
-118.894
11
137.305
21
-118.915
0
LINE
8
BLACK
6
CONTINUOUS
10
137.305
20
-118.915
11
137.305
21
-118.916
0
LINE
8
BLACK
6
CONTINUOUS
10
137.305
20
-118.916
11
137.304
21
-118.917
0
LINE
8
BLACK
6
CONTINUOUS
10
137.304
20
-118.917
11
137.257
21
-119.012
0
LINE
8
BLACK
6
CONTINUOUS
10
137.257
20
-119.012
11
137.253
21
-119.035
0
LINE
8
BLACK
6
CONTINUOUS
10
137.253
20
-119.035
11
137.246
21
-119.057
0
LINE
8
BLACK
6
CONTINUOUS
10
137.246
20
-119.057
11
137.246
21
-119.104
0
LINE
8
BLACK
6
CONTINUOUS
10
137.246
20
-119.104
11
137.253
21
-119.126
0
LINE
8
BLACK
6
CONTINUOUS
10
137.253
20
-119.126
11
137.257
21
-119.149
0
LINE
8
BLACK
6
CONTINUOUS
10
137.257
20
-119.149
11
137.304
21
-119.244
0
LINE
8
BLACK
6
CONTINUOUS
10
137.304
20
-119.244
11
137.305
21
-119.245
0
LINE
8
BLACK
6
CONTINUOUS
10
137.305
20
-119.245
11
137.305
21
-119.246
0
LINE
8
BLACK
6
CONTINUOUS
10
137.305
20
-119.246
11
137.327
21
-119.267
0
LINE
8
BLACK
6
CONTINUOUS
10
137.327
20
-119.267
11
137.348
21
-119.288
0
LINE
8
BLACK
6
CONTINUOUS
10
137.348
20
-119.288
11
137.349
21
-119.288
0
LINE
8
BLACK
6
CONTINUOUS
10
137.349
20
-119.288
11
137.349
21
-119.289
0
LINE
8
BLACK
6
CONTINUOUS
10
137.349
20
-119.289
11
137.444
21
-119.337
0
LINE
8
BLACK
6
CONTINUOUS
10
137.444
20
-119.337
11
137.467
21
-119.34
0
LINE
8
BLACK
6
CONTINUOUS
10
137.467
20
-119.34
11
137.489
21
-119.347
0
LINE
8
BLACK
6
CONTINUOUS
10
137.489
20
-119.347
11
137.68
21
-119.347
0
LINE
8
BLACK
6
CONTINUOUS
10
137.68
20
-119.347
11
137.701
21
-119.34
0
LINE
8
BLACK
6
CONTINUOUS
10
137.701
20
-119.34
11
137.724
21
-119.337
0
LINE
8
BLACK
6
CONTINUOUS
10
137.724
20
-119.337
11
137.82
21
-119.289
0
LINE
8
BLACK
6
CONTINUOUS
10
137.82
20
-119.289
11
137.864
21
-119.246
0
LINE
8
BLACK
6
CONTINUOUS
10
137.864
20
-119.246
11
137.874
21
-119.185
0
LINE
8
BLACK
6
CONTINUOUS
10
137.874
20
-119.185
11
137.846
21
-119.129
0
LINE
8
BLACK
6
CONTINUOUS
10
137.846
20
-119.129
11
137.791
21
-119.101
0
LINE
8
BLACK
6
CONTINUOUS
10
137.791
20
-119.101
11
137.73
21
-119.11
0
LINE
8
BLACK
6
CONTINUOUS
10
137.73
20
-119.11
11
137.656
21
-119.147
0
LINE
8
BLACK
6
CONTINUOUS
10
137.656
20
-119.147
11
137.513
21
-119.147
0
LINE
8
BLACK
6
CONTINUOUS
10
137.513
20
-119.147
11
137.468
21
-119.125
0
LINE
8
BLACK
6
CONTINUOUS
10
137.468
20
-119.125
11
137.446
21
-119.081
0
LINE
8
BLACK
6
CONTINUOUS
10
137.446
20
-119.081
11
137.446
21
-119.08
0
LINE
8
BLACK
6
CONTINUOUS
10
137.446
20
-119.08
11
137.468
21
-119.036
0
LINE
8
BLACK
6
CONTINUOUS
10
137.468
20
-119.036
11
137.513
21
-119.014
0
LINE
8
BLACK
6
CONTINUOUS
10
137.513
20
-119.014
11
137.632
21
-119.014
0
LINE
8
BLACK
6
CONTINUOUS
10
137.632
20
-119.014
11
137.654
21
-119.007
0
LINE
8
BLACK
6
CONTINUOUS
10
137.654
20
-119.007
11
137.677
21
-119.003
0
LINE
8
BLACK
6
CONTINUOUS
10
137.677
20
-119.003
11
137.772
21
-118.956
0
LINE
8
BLACK
6
CONTINUOUS
10
137.772
20
-118.956
11
137.772
21
-118.955
0
LINE
8
BLACK
6
CONTINUOUS
10
137.772
20
-118.955
11
137.773
21
-118.955
0
LINE
8
BLACK
6
CONTINUOUS
10
137.773
20
-118.955
11
137.794
21
-118.934
0
LINE
8
BLACK
6
CONTINUOUS
10
137.794
20
-118.934
11
137.816
21
-118.912
0
LINE
8
BLACK
6
CONTINUOUS
10
137.816
20
-118.912
11
137.816
21
-118.912
0
LINE
8
BLACK
6
CONTINUOUS
10
137.816
20
-118.912
11
137.817
21
-118.911
0
LINE
8
BLACK
6
CONTINUOUS
10
137.817
20
-118.911
11
137.864
21
-118.816
0
LINE
8
BLACK
6
CONTINUOUS
10
137.864
20
-118.816
11
137.868
21
-118.793
0
LINE
8
BLACK
6
CONTINUOUS
10
137.868
20
-118.793
11
137.875
21
-118.771
0
LINE
8
BLACK
6
CONTINUOUS
10
137.875
20
-118.771
11
137.875
21
-118.723
0
LINE
8
BLACK
6
CONTINUOUS
10
137.875
20
-118.723
11
137.868
21
-118.701
0
LINE
8
BLACK
6
CONTINUOUS
10
137.868
20
-118.701
11
137.864
21
-118.679
0
LINE
8
BLACK
6
CONTINUOUS
10
137.864
20
-118.679
11
137.817
21
-118.583
0
LINE
8
BLACK
6
CONTINUOUS
10
137.817
20
-118.583
11
137.816
21
-118.583
0
LINE
8
BLACK
6
CONTINUOUS
10
137.816
20
-118.583
11
137.816
21
-118.582
0
LINE
8
BLACK
6
CONTINUOUS
10
137.816
20
-118.582
11
137.794
21
-118.561
0
LINE
8
BLACK
6
CONTINUOUS
10
137.794
20
-118.561
11
137.773
21
-118.539
0
LINE
8
BLACK
6
CONTINUOUS
10
137.773
20
-118.539
11
137.772
21
-118.539
0
LINE
8
BLACK
6
CONTINUOUS
10
137.772
20
-118.539
11
137.772
21
-118.539
0
LINE
8
BLACK
6
CONTINUOUS
10
137.772
20
-118.539
11
137.677
21
-118.491
0
LINE
8
BLACK
6
CONTINUOUS
10
137.677
20
-118.491
11
137.654
21
-118.488
0
LINE
8
BLACK
6
CONTINUOUS
10
137.654
20
-118.488
11
137.632
21
-118.481
0
LINE
8
BLACK
6
CONTINUOUS
10
137.632
20
-118.481
11
137.489
21
-118.481
0
LINE
8
BLACK
6
CONTINUOUS
10
137.489
20
-118.481
11
137.467
21
-118.488
0
LINE
8
BLACK
6
CONTINUOUS
10
138.277
20
-118.488
11
138.254
21
-118.491
0
LINE
8
BLACK
6
CONTINUOUS
10
138.254
20
-118.491
11
138.159
21
-118.539
0
LINE
8
BLACK
6
CONTINUOUS
10
138.159
20
-118.539
11
138.158
21
-118.539
0
LINE
8
BLACK
6
CONTINUOUS
10
138.158
20
-118.539
11
138.157
21
-118.539
0
LINE
8
BLACK
6
CONTINUOUS
10
138.157
20
-118.539
11
138.136
21
-118.561
0
LINE
8
BLACK
6
CONTINUOUS
10
138.136
20
-118.561
11
138.115
21
-118.582
0
LINE
8
BLACK
6
CONTINUOUS
10
138.115
20
-118.582
11
138.114
21
-118.583
0
LINE
8
BLACK
6
CONTINUOUS
10
138.114
20
-118.583
11
138.114
21
-118.583
0
LINE
8
BLACK
6
CONTINUOUS
10
138.114
20
-118.583
11
138.066
21
-118.679
0
LINE
8
BLACK
6
CONTINUOUS
10
138.066
20
-118.679
11
138.063
21
-118.701
0
LINE
8
BLACK
6
CONTINUOUS
10
138.063
20
-118.701
11
138.056
21
-118.723
0
LINE
8
BLACK
6
CONTINUOUS
10
138.056
20
-118.723
11
138.056
21
-118.819
0
LINE
8
BLACK
6
CONTINUOUS
10
138.056
20
-118.819
11
138.058
21
-118.824
0
LINE
8
BLACK
6
CONTINUOUS
10
138.058
20
-118.824
11
138.056
21
-118.83
0
LINE
8
BLACK
6
CONTINUOUS
10
138.056
20
-118.83
11
138.067
21
-118.853
0
LINE
8
BLACK
6
CONTINUOUS
10
138.067
20
-118.853
11
138.075
21
-118.877
0
LINE
8
BLACK
6
CONTINUOUS
10
138.075
20
-118.877
11
138.08
21
-118.881
0
LINE
8
BLACK
6
CONTINUOUS
10
138.08
20
-118.881
11
138.082
21
-118.886
0
LINE
8
BLACK
6
CONTINUOUS
10
138.082
20
-118.886
11
138.104
21
-118.899
0
LINE
8
BLACK
6
CONTINUOUS
10
138.104
20
-118.899
11
138.125
21
-118.914
0
LINE
8
BLACK
6
CONTINUOUS
10
138.125
20
-118.914
11
138.131
21
-118.914
0
LINE
8
BLACK
6
CONTINUOUS
10
138.131
20
-118.914
11
138.136
21
-118.917
0
LINE
8
BLACK
6
CONTINUOUS
10
138.136
20
-118.917
11
138.532
21
-118.996
0
LINE
8
BLACK
6
CONTINUOUS
10
138.532
20
-118.996
11
138.532
21
-119.081
0
LINE
8
BLACK
6
CONTINUOUS
10
138.532
20
-119.081
11
138.51
21
-119.125
0
LINE
8
BLACK
6
CONTINUOUS
10
138.51
20
-119.125
11
138.465
21
-119.147
0
LINE
8
BLACK
6
CONTINUOUS
10
138.465
20
-119.147
11
138.322
21
-119.147
0
LINE
8
BLACK
6
CONTINUOUS
10
138.322
20
-119.147
11
138.248
21
-119.11
0
LINE
8
BLACK
6
CONTINUOUS
10
138.248
20
-119.11
11
138.187
21
-119.101
0
LINE
8
BLACK
6
CONTINUOUS
10
138.187
20
-119.101
11
138.132
21
-119.129
0
LINE
8
BLACK
6
CONTINUOUS
10
138.132
20
-119.129
11
138.104
21
-119.185
0
LINE
8
BLACK
6
CONTINUOUS
10
138.104
20
-119.185
11
138.115
21
-119.246
0
LINE
8
BLACK
6
CONTINUOUS
10
138.115
20
-119.246
11
138.159
21
-119.289
0
LINE
8
BLACK
6
CONTINUOUS
10
138.159
20
-119.289
11
138.254
21
-119.337
0
LINE
8
BLACK
6
CONTINUOUS
10
138.254
20
-119.337
11
138.277
21
-119.34
0
LINE
8
BLACK
6
CONTINUOUS
10
138.277
20
-119.34
11
138.299
21
-119.347
0
LINE
8
BLACK
6
CONTINUOUS
10
138.299
20
-119.347
11
138.489
21
-119.347
0
LINE
8
BLACK
6
CONTINUOUS
10
138.489
20
-119.347
11
138.511
21
-119.34
0
LINE
8
BLACK
6
CONTINUOUS
10
138.511
20
-119.34
11
138.534
21
-119.337
0
LINE
8
BLACK
6
CONTINUOUS
10
138.534
20
-119.337
11
138.629
21
-119.289
0
LINE
8
BLACK
6
CONTINUOUS
10
138.629
20
-119.289
11
138.63
21
-119.288
0
LINE
8
BLACK
6
CONTINUOUS
10
138.63
20
-119.288
11
138.63
21
-119.288
0
LINE
8
BLACK
6
CONTINUOUS
10
138.63
20
-119.288
11
138.652
21
-119.267
0
LINE
8
BLACK
6
CONTINUOUS
10
138.652
20
-119.267
11
138.673
21
-119.246
0
LINE
8
BLACK
6
CONTINUOUS
10
138.673
20
-119.246
11
138.673
21
-119.245
0
LINE
8
BLACK
6
CONTINUOUS
10
138.673
20
-119.245
11
138.674
21
-119.244
0
LINE
8
BLACK
6
CONTINUOUS
10
138.674
20
-119.244
11
138.721
21
-119.149
0
LINE
8
BLACK
6
CONTINUOUS
10
138.721
20
-119.149
11
138.725
21
-119.126
0
LINE
8
BLACK
6
CONTINUOUS
10
138.725
20
-119.126
11
138.732
21
-119.104
0
LINE
8
BLACK
6
CONTINUOUS
10
138.732
20
-119.104
11
138.732
21
-118.723
0
LINE
8
BLACK
6
CONTINUOUS
10
138.732
20
-118.723
11
138.725
21
-118.701
0
LINE
8
BLACK
6
CONTINUOUS
10
138.725
20
-118.701
11
138.721
21
-118.679
0
LINE
8
BLACK
6
CONTINUOUS
10
138.721
20
-118.679
11
138.674
21
-118.583
0
LINE
8
BLACK
6
CONTINUOUS
10
138.674
20
-118.583
11
138.673
21
-118.583
0
LINE
8
BLACK
6
CONTINUOUS
10
138.673
20
-118.583
11
138.673
21
-118.582
0
LINE
8
BLACK
6
CONTINUOUS
10
138.673
20
-118.582
11
138.652
21
-118.561
0
LINE
8
BLACK
6
CONTINUOUS
10
138.652
20
-118.561
11
138.63
21
-118.539
0
LINE
8
BLACK
6
CONTINUOUS
10
138.63
20
-118.539
11
138.63
21
-118.539
0
LINE
8
BLACK
6
CONTINUOUS
10
138.63
20
-118.539
11
138.629
21
-118.539
0
LINE
8
BLACK
6
CONTINUOUS
10
138.629
20
-118.539
11
138.534
21
-118.491
0
LINE
8
BLACK
6
CONTINUOUS
10
138.534
20
-118.491
11
138.511
21
-118.488
0
LINE
8
BLACK
6
CONTINUOUS
10
138.511
20
-118.488
11
138.489
21
-118.481
0
LINE
8
BLACK
6
CONTINUOUS
10
138.489
20
-118.481
11
138.299
21
-118.481
0
LINE
8
BLACK
6
CONTINUOUS
10
138.299
20
-118.481
11
138.277
21
-118.488
0
LINE
8
BLACK
6
CONTINUOUS
10
139.331
20
-118.152
11
139.315
21
-118.152
0
LINE
8
BLACK
6
CONTINUOUS
10
139.315
20
-118.152
11
139.172
21
-118.2
0
LINE
8
BLACK
6
CONTINUOUS
10
139.172
20
-118.2
11
139.153
21
-118.214
0
LINE
8
BLACK
6
CONTINUOUS
10
139.153
20
-118.214
11
139.133
21
-118.224
0
LINE
8
BLACK
6
CONTINUOUS
10
139.133
20
-118.224
11
139.037
21
-118.319
0
LINE
8
BLACK
6
CONTINUOUS
10
139.037
20
-118.319
11
139.03
21
-118.334
0
LINE
8
BLACK
6
CONTINUOUS
10
139.03
20
-118.334
11
139.019
21
-118.345
0
LINE
8
BLACK
6
CONTINUOUS
10
139.019
20
-118.345
11
138.971
21
-118.441
0
LINE
8
BLACK
6
CONTINUOUS
10
138.971
20
-118.441
11
138.969
21
-118.452
0
LINE
8
BLACK
6
CONTINUOUS
10
138.969
20
-118.452
11
138.964
21
-118.461
0
LINE
8
BLACK
6
CONTINUOUS
10
138.964
20
-118.461
11
138.916
21
-118.652
0
LINE
8
BLACK
6
CONTINUOUS
10
138.916
20
-118.652
11
138.917
21
-118.664
0
LINE
8
BLACK
6
CONTINUOUS
10
138.917
20
-118.664
11
138.913
21
-118.676
0
LINE
8
BLACK
6
CONTINUOUS
10
138.913
20
-118.676
11
138.913
21
-118.819
0
LINE
8
BLACK
6
CONTINUOUS
10
138.913
20
-118.819
11
138.917
21
-118.83
0
LINE
8
BLACK
6
CONTINUOUS
10
138.917
20
-118.83
11
138.916
21
-118.843
0
LINE
8
BLACK
6
CONTINUOUS
10
138.916
20
-118.843
11
138.964
21
-119.033
0
LINE
8
BLACK
6
CONTINUOUS
10
138.964
20
-119.033
11
138.969
21
-119.043
0
LINE
8
BLACK
6
CONTINUOUS
10
138.969
20
-119.043
11
138.971
21
-119.054
0
LINE
8
BLACK
6
CONTINUOUS
10
138.971
20
-119.054
11
139.019
21
-119.149
0
LINE
8
BLACK
6
CONTINUOUS
10
139.019
20
-119.149
11
139.03
21
-119.161
0
LINE
8
BLACK
6
CONTINUOUS
10
139.03
20
-119.161
11
139.037
21
-119.175
0
LINE
8
BLACK
6
CONTINUOUS
10
139.037
20
-119.175
11
139.133
21
-119.27
0
LINE
8
BLACK
6
CONTINUOUS
10
139.133
20
-119.27
11
139.153
21
-119.281
0
LINE
8
BLACK
6
CONTINUOUS
10
139.153
20
-119.281
11
139.172
21
-119.294
0
LINE
8
BLACK
6
CONTINUOUS
10
139.172
20
-119.294
11
139.315
21
-119.342
0
LINE
8
BLACK
6
CONTINUOUS
10
139.315
20
-119.342
11
139.331
21
-119.342
0
LINE
8
BLACK
6
CONTINUOUS
10
139.331
20
-119.342
11
139.346
21
-119.347
0
LINE
8
BLACK
6
CONTINUOUS
10
139.346
20
-119.347
11
139.584
21
-119.347
0
LINE
8
BLACK
6
CONTINUOUS
10
139.584
20
-119.347
11
139.599
21
-119.342
0
LINE
8
BLACK
6
CONTINUOUS
10
139.599
20
-119.342
11
139.615
21
-119.342
0
LINE
8
BLACK
6
CONTINUOUS
10
139.615
20
-119.342
11
139.628
21
-119.333
0
LINE
8
BLACK
6
CONTINUOUS
10
139.628
20
-119.333
11
139.643
21
-119.328
0
LINE
8
BLACK
6
CONTINUOUS
10
139.643
20
-119.328
11
139.652
21
-119.315
0
LINE
8
BLACK
6
CONTINUOUS
10
139.652
20
-119.315
11
139.665
21
-119.306
0
LINE
8
BLACK
6
CONTINUOUS
10
139.665
20
-119.306
11
139.67
21
-119.291
0
LINE
8
BLACK
6
CONTINUOUS
10
139.67
20
-119.291
11
139.679
21
-119.278
0
LINE
8
BLACK
6
CONTINUOUS
10
139.679
20
-119.278
11
139.679
21
-119.262
0
LINE
8
BLACK
6
CONTINUOUS
10
139.679
20
-119.262
11
139.684
21
-119.247
0
LINE
8
BLACK
6
CONTINUOUS
10
139.684
20
-119.247
11
139.684
21
-118.247
0
LINE
8
BLACK
6
CONTINUOUS
10
139.684
20
-118.247
11
139.679
21
-118.232
0
LINE
8
BLACK
6
CONTINUOUS
10
139.679
20
-118.232
11
139.679
21
-118.216
0
LINE
8
BLACK
6
CONTINUOUS
10
139.679
20
-118.216
11
139.67
21
-118.204
0
LINE
8
BLACK
6
CONTINUOUS
10
139.67
20
-118.204
11
139.665
21
-118.188
0
LINE
8
BLACK
6
CONTINUOUS
10
139.665
20
-118.188
11
139.652
21
-118.179
0
LINE
8
BLACK
6
CONTINUOUS
10
139.652
20
-118.179
11
139.643
21
-118.166
0
LINE
8
BLACK
6
CONTINUOUS
10
139.643
20
-118.166
11
139.628
21
-118.161
0
LINE
8
BLACK
6
CONTINUOUS
10
139.628
20
-118.161
11
139.615
21
-118.152
0
LINE
8
BLACK
6
CONTINUOUS
10
139.615
20
-118.152
11
139.599
21
-118.152
0
LINE
8
BLACK
6
CONTINUOUS
10
139.599
20
-118.152
11
139.584
21
-118.147
0
LINE
8
BLACK
6
CONTINUOUS
10
139.584
20
-118.147
11
139.346
21
-118.147
0
LINE
8
BLACK
6
CONTINUOUS
10
139.346
20
-118.147
11
139.331
21
-118.152
0
LINE
8
BLACK
6
CONTINUOUS
10
129.46
20
-118.157
11
129.431
21
-118.166
0
LINE
8
BLACK
6
CONTINUOUS
10
129.431
20
-118.166
11
129.43
21
-118.167
0
LINE
8
BLACK
6
CONTINUOUS
10
129.43
20
-118.167
11
129.43
21
-118.167
0
LINE
8
BLACK
6
CONTINUOUS
10
129.43
20
-118.167
11
129.412
21
-118.191
0
LINE
8
BLACK
6
CONTINUOUS
10
129.412
20
-118.191
11
129.394
21
-118.216
0
LINE
8
BLACK
6
CONTINUOUS
10
129.394
20
-118.216
11
129.061
21
-119.216
0
LINE
8
BLACK
6
CONTINUOUS
10
129.061
20
-119.216
11
129.06
21
-119.277
0
LINE
8
BLACK
6
CONTINUOUS
10
129.06
20
-119.277
11
129.096
21
-119.328
0
LINE
8
BLACK
6
CONTINUOUS
10
129.096
20
-119.328
11
129.155
21
-119.347
0
LINE
8
BLACK
6
CONTINUOUS
10
129.155
20
-119.347
11
129.214
21
-119.329
0
LINE
8
BLACK
6
CONTINUOUS
10
129.214
20
-119.329
11
129.251
21
-119.279
0
LINE
8
BLACK
6
CONTINUOUS
10
129.251
20
-119.279
11
129.323
21
-119.062
0
LINE
8
BLACK
6
CONTINUOUS
10
129.323
20
-119.062
11
129.655
21
-119.062
0
LINE
8
BLACK
6
CONTINUOUS
10
129.655
20
-119.062
11
129.728
21
-119.279
0
LINE
8
BLACK
6
CONTINUOUS
10
129.728
20
-119.279
11
129.764
21
-119.329
0
LINE
8
BLACK
6
CONTINUOUS
10
129.764
20
-119.329
11
129.823
21
-119.347
0
LINE
8
BLACK
6
CONTINUOUS
10
129.823
20
-119.347
11
129.882
21
-119.328
0
LINE
8
BLACK
6
CONTINUOUS
10
129.882
20
-119.328
11
129.918
21
-119.277
0
LINE
8
BLACK
6
CONTINUOUS
10
129.918
20
-119.277
11
129.917
21
-119.216
0
LINE
8
BLACK
6
CONTINUOUS
10
129.917
20
-119.216
11
129.584
21
-118.216
0
LINE
8
BLACK
6
CONTINUOUS
10
129.584
20
-118.216
11
129.566
21
-118.191
0
LINE
8
BLACK
6
CONTINUOUS
10
129.566
20
-118.191
11
129.548
21
-118.167
0
LINE
8
BLACK
6
CONTINUOUS
10
129.548
20
-118.167
11
129.548
21
-118.167
0
LINE
8
BLACK
6
CONTINUOUS
10
129.548
20
-118.167
11
129.547
21
-118.166
0
LINE
8
BLACK
6
CONTINUOUS
10
129.547
20
-118.166
11
129.518
21
-118.157
0
LINE
8
BLACK
6
CONTINUOUS
10
129.518
20
-118.157
11
129.49
21
-118.147
0
LINE
8
BLACK
6
CONTINUOUS
10
129.49
20
-118.147
11
129.489
21
-118.147
0
LINE
8
BLACK
6
CONTINUOUS
10
129.489
20
-118.147
11
129.488
21
-118.147
0
LINE
8
BLACK
6
CONTINUOUS
10
129.488
20
-118.147
11
129.46
21
-118.157
0
LINE
8
BLACK
6
CONTINUOUS
10
123.242
20
-118.498
11
123.204
21
-118.547
0
LINE
8
BLACK
6
CONTINUOUS
10
123.204
20
-118.547
11
123.061
21
-118.95
0
LINE
8
BLACK
6
CONTINUOUS
10
123.061
20
-118.95
11
122.917
21
-118.547
0
LINE
8
BLACK
6
CONTINUOUS
10
122.917
20
-118.547
11
122.879
21
-118.498
0
LINE
8
BLACK
6
CONTINUOUS
10
122.879
20
-118.498
11
122.82
21
-118.481
0
LINE
8
BLACK
6
CONTINUOUS
10
122.82
20
-118.481
11
122.761
21
-118.501
0
LINE
8
BLACK
6
CONTINUOUS
10
122.761
20
-118.501
11
122.726
21
-118.552
0
LINE
8
BLACK
6
CONTINUOUS
10
122.726
20
-118.552
11
122.728
21
-118.614
0
LINE
8
BLACK
6
CONTINUOUS
10
122.728
20
-118.614
11
122.966
21
-119.281
0
LINE
8
BLACK
6
CONTINUOUS
10
122.966
20
-119.281
11
122.984
21
-119.303
0
LINE
8
BLACK
6
CONTINUOUS
10
122.984
20
-119.303
11
122.999
21
-119.326
0
LINE
8
BLACK
6
CONTINUOUS
10
122.999
20
-119.326
11
123.002
21
-119.327
0
LINE
8
BLACK
6
CONTINUOUS
10
123.002
20
-119.327
11
123.004
21
-119.33
0
LINE
8
BLACK
6
CONTINUOUS
10
123.004
20
-119.33
11
123.031
21
-119.338
0
LINE
8
BLACK
6
CONTINUOUS
10
123.031
20
-119.338
11
123.058
21
-119.347
0
LINE
8
BLACK
6
CONTINUOUS
10
123.058
20
-119.347
11
123.061
21
-119.346
0
LINE
8
BLACK
6
CONTINUOUS
10
123.061
20
-119.346
11
123.063
21
-119.347
0
LINE
8
BLACK
6
CONTINUOUS
10
123.063
20
-119.347
11
123.09
21
-119.338
0
LINE
8
BLACK
6
CONTINUOUS
10
123.09
20
-119.338
11
123.117
21
-119.33
0
LINE
8
BLACK
6
CONTINUOUS
10
123.117
20
-119.33
11
123.119
21
-119.327
0
LINE
8
BLACK
6
CONTINUOUS
10
123.119
20
-119.327
11
123.122
21
-119.326
0
LINE
8
BLACK
6
CONTINUOUS
10
123.122
20
-119.326
11
123.137
21
-119.303
0
LINE
8
BLACK
6
CONTINUOUS
10
123.137
20
-119.303
11
123.155
21
-119.281
0
LINE
8
BLACK
6
CONTINUOUS
10
123.155
20
-119.281
11
123.393
21
-118.614
0
LINE
8
BLACK
6
CONTINUOUS
10
123.393
20
-118.614
11
123.395
21
-118.552
0
LINE
8
BLACK
6
CONTINUOUS
10
123.395
20
-118.552
11
123.36
21
-118.501
0
LINE
8
BLACK
6
CONTINUOUS
10
123.36
20
-118.501
11
123.301
21
-118.481
0
LINE
8
BLACK
6
CONTINUOUS
10
123.301
20
-118.481
11
123.242
21
-118.498
0
LINE
8
BLACK
6
CONTINUOUS
10
121.456
20
-118.188
11
121.437
21
-118.247
0
LINE
8
BLACK
6
CONTINUOUS
10
121.437
20
-118.247
11
121.437
21
-119.081
0
LINE
8
BLACK
6
CONTINUOUS
10
121.437
20
-119.081
11
121.415
21
-119.125
0
LINE
8
BLACK
6
CONTINUOUS
10
121.415
20
-119.125
11
121.349
21
-119.158
0
LINE
8
BLACK
6
CONTINUOUS
10
121.349
20
-119.158
11
121.305
21
-119.201
0
LINE
8
BLACK
6
CONTINUOUS
10
121.305
20
-119.201
11
121.295
21
-119.262
0
LINE
8
BLACK
6
CONTINUOUS
10
121.295
20
-119.262
11
121.323
21
-119.317
0
LINE
8
BLACK
6
CONTINUOUS
10
121.323
20
-119.317
11
121.377
21
-119.346
0
LINE
8
BLACK
6
CONTINUOUS
10
121.377
20
-119.346
11
121.439
21
-119.337
0
LINE
8
BLACK
6
CONTINUOUS
10
121.439
20
-119.337
11
121.534
21
-119.289
0
LINE
8
BLACK
6
CONTINUOUS
10
121.534
20
-119.289
11
121.534
21
-119.288
0
LINE
8
BLACK
6
CONTINUOUS
10
121.534
20
-119.288
11
121.535
21
-119.288
0
LINE
8
BLACK
6
CONTINUOUS
10
121.535
20
-119.288
11
121.556
21
-119.267
0
LINE
8
BLACK
6
CONTINUOUS
10
121.556
20
-119.267
11
121.578
21
-119.246
0
LINE
8
BLACK
6
CONTINUOUS
10
121.578
20
-119.246
11
121.578
21
-119.245
0
LINE
8
BLACK
6
CONTINUOUS
10
121.578
20
-119.245
11
121.579
21
-119.244
0
LINE
8
BLACK
6
CONTINUOUS
10
121.579
20
-119.244
11
121.626
21
-119.149
0
LINE
8
BLACK
6
CONTINUOUS
10
121.626
20
-119.149
11
121.63
21
-119.126
0
LINE
8
BLACK
6
CONTINUOUS
10
121.63
20
-119.126
11
121.637
21
-119.104
0
LINE
8
BLACK
6
CONTINUOUS
10
121.637
20
-119.104
11
121.637
21
-118.247
0
LINE
8
BLACK
6
CONTINUOUS
10
121.637
20
-118.247
11
121.618
21
-118.188
0
LINE
8
BLACK
6
CONTINUOUS
10
121.618
20
-118.188
11
121.568
21
-118.152
0
LINE
8
BLACK
6
CONTINUOUS
10
121.568
20
-118.152
11
121.506
21
-118.152
0
LINE
8
BLACK
6
CONTINUOUS
10
121.506
20
-118.152
11
121.456
21
-118.188
0
LINE
8
BLACK
6
CONTINUOUS
10
128.742
20
-118.188
11
128.722
21
-118.247
0
LINE
8
BLACK
6
CONTINUOUS
10
128.722
20
-118.247
11
128.722
21
-119.081
0
LINE
8
BLACK
6
CONTINUOUS
10
128.722
20
-119.081
11
128.7
21
-119.125
0
LINE
8
BLACK
6
CONTINUOUS
10
128.7
20
-119.125
11
128.635
21
-119.158
0
LINE
8
BLACK
6
CONTINUOUS
10
128.635
20
-119.158
11
128.591
21
-119.201
0
LINE
8
BLACK
6
CONTINUOUS
10
128.591
20
-119.201
11
128.581
21
-119.262
0
LINE
8
BLACK
6
CONTINUOUS
10
128.581
20
-119.262
11
128.608
21
-119.317
0
LINE
8
BLACK
6
CONTINUOUS
10
128.608
20
-119.317
11
128.663
21
-119.346
0
LINE
8
BLACK
6
CONTINUOUS
10
128.663
20
-119.346
11
128.724
21
-119.337
0
LINE
8
BLACK
6
CONTINUOUS
10
128.724
20
-119.337
11
128.82
21
-119.289
0
LINE
8
BLACK
6
CONTINUOUS
10
128.82
20
-119.289
11
128.82
21
-119.288
0
LINE
8
BLACK
6
CONTINUOUS
10
128.82
20
-119.288
11
128.821
21
-119.288
0
LINE
8
BLACK
6
CONTINUOUS
10
128.821
20
-119.288
11
128.842
21
-119.267
0
LINE
8
BLACK
6
CONTINUOUS
10
128.842
20
-119.267
11
128.864
21
-119.246
0
LINE
8
BLACK
6
CONTINUOUS
10
128.864
20
-119.246
11
128.864
21
-119.245
0
LINE
8
BLACK
6
CONTINUOUS
10
128.864
20
-119.245
11
128.864
21
-119.244
0
LINE
8
BLACK
6
CONTINUOUS
10
128.864
20
-119.244
11
128.912
21
-119.149
0
LINE
8
BLACK
6
CONTINUOUS
10
128.912
20
-119.149
11
128.915
21
-119.126
0
LINE
8
BLACK
6
CONTINUOUS
10
128.915
20
-119.126
11
128.922
21
-119.104
0
LINE
8
BLACK
6
CONTINUOUS
10
128.922
20
-119.104
11
128.922
21
-118.247
0
LINE
8
BLACK
6
CONTINUOUS
10
128.922
20
-118.247
11
128.903
21
-118.188
0
LINE
8
BLACK
6
CONTINUOUS
10
128.903
20
-118.188
11
128.853
21
-118.152
0
LINE
8
BLACK
6
CONTINUOUS
10
128.853
20
-118.152
11
128.792
21
-118.152
0
LINE
8
BLACK
6
CONTINUOUS
10
128.792
20
-118.152
11
128.742
21
-118.188
0
LINE
8
BLACK
6
CONTINUOUS
10
120.932
20
-118.188
11
120.913
21
-118.247
0
LINE
8
BLACK
6
CONTINUOUS
10
120.913
20
-118.247
11
120.913
21
-118.491
0
LINE
8
BLACK
6
CONTINUOUS
10
120.913
20
-118.491
11
120.892
21
-118.488
0
LINE
8
BLACK
6
CONTINUOUS
10
120.892
20
-118.488
11
120.87
21
-118.481
0
LINE
8
BLACK
6
CONTINUOUS
10
120.87
20
-118.481
11
120.727
21
-118.481
0
LINE
8
BLACK
6
CONTINUOUS
10
120.727
20
-118.481
11
120.705
21
-118.488
0
LINE
8
BLACK
6
CONTINUOUS
10
120.705
20
-118.488
11
120.682
21
-118.491
0
LINE
8
BLACK
6
CONTINUOUS
10
120.682
20
-118.491
11
120.587
21
-118.539
0
LINE
8
BLACK
6
CONTINUOUS
10
120.587
20
-118.539
11
120.587
21
-118.539
0
LINE
8
BLACK
6
CONTINUOUS
10
120.587
20
-118.539
11
120.586
21
-118.539
0
LINE
8
BLACK
6
CONTINUOUS
10
120.586
20
-118.539
11
120.565
21
-118.561
0
LINE
8
BLACK
6
CONTINUOUS
10
120.565
20
-118.561
11
120.543
21
-118.582
0
LINE
8
BLACK
6
CONTINUOUS
10
120.543
20
-118.582
11
120.543
21
-118.583
0
LINE
8
BLACK
6
CONTINUOUS
10
120.543
20
-118.583
11
120.542
21
-118.583
0
LINE
8
BLACK
6
CONTINUOUS
10
120.542
20
-118.583
11
120.495
21
-118.679
0
LINE
8
BLACK
6
CONTINUOUS
10
120.495
20
-118.679
11
120.491
21
-118.701
0
LINE
8
BLACK
6
CONTINUOUS
10
120.491
20
-118.701
11
120.484
21
-118.723
0
LINE
8
BLACK
6
CONTINUOUS
10
120.484
20
-118.723
11
120.484
21
-119.247
0
LINE
8
BLACK
6
CONTINUOUS
10
120.484
20
-119.247
11
120.503
21
-119.306
0
LINE
8
BLACK
6
CONTINUOUS
10
120.503
20
-119.306
11
120.553
21
-119.342
0
LINE
8
BLACK
6
CONTINUOUS
10
120.553
20
-119.342
11
120.615
21
-119.342
0
LINE
8
BLACK
6
CONTINUOUS
10
120.615
20
-119.342
11
120.665
21
-119.306
0
LINE
8
BLACK
6
CONTINUOUS
10
120.665
20
-119.306
11
120.684
21
-119.247
0
LINE
8
BLACK
6
CONTINUOUS
10
120.684
20
-119.247
11
120.684
21
-118.747
0
LINE
8
BLACK
6
CONTINUOUS
10
120.684
20
-118.747
11
120.706
21
-118.703
0
LINE
8
BLACK
6
CONTINUOUS
10
120.706
20
-118.703
11
120.751
21
-118.681
0
LINE
8
BLACK
6
CONTINUOUS
10
120.751
20
-118.681
11
120.846
21
-118.681
0
LINE
8
BLACK
6
CONTINUOUS
10
120.846
20
-118.681
11
120.906
21
-118.71
0
LINE
8
BLACK
6
CONTINUOUS
10
120.906
20
-118.71
11
120.913
21
-118.717
0
LINE
8
BLACK
6
CONTINUOUS
10
120.913
20
-118.717
11
120.913
21
-119.247
0
LINE
8
BLACK
6
CONTINUOUS
10
120.913
20
-119.247
11
120.932
21
-119.306
0
LINE
8
BLACK
6
CONTINUOUS
10
120.932
20
-119.306
11
120.982
21
-119.342
0
LINE
8
BLACK
6
CONTINUOUS
10
120.982
20
-119.342
11
121.044
21
-119.342
0
LINE
8
BLACK
6
CONTINUOUS
10
121.044
20
-119.342
11
121.094
21
-119.306
0
LINE
8
BLACK
6
CONTINUOUS
10
121.094
20
-119.306
11
121.113
21
-119.247
0
LINE
8
BLACK
6
CONTINUOUS
10
121.113
20
-119.247
11
121.113
21
-118.247
0
LINE
8
BLACK
6
CONTINUOUS
10
121.113
20
-118.247
11
121.094
21
-118.188
0
LINE
8
BLACK
6
CONTINUOUS
10
121.094
20
-118.188
11
121.044
21
-118.152
0
LINE
8
BLACK
6
CONTINUOUS
10
121.044
20
-118.152
11
120.982
21
-118.152
0
LINE
8
BLACK
6
CONTINUOUS
10
120.982
20
-118.152
11
120.932
21
-118.188
0
LINE
8
BLACK
6
CONTINUOUS
10
123.478
20
-118.5
11
123.442
21
-118.55
0
LINE
8
BLACK
6
CONTINUOUS
10
123.442
20
-118.55
11
123.442
21
-118.611
0
LINE
8
BLACK
6
CONTINUOUS
10
123.442
20
-118.611
11
123.478
21
-118.661
0
LINE
8
BLACK
6
CONTINUOUS
10
123.478
20
-118.661
11
123.537
21
-118.681
0
LINE
8
BLACK
6
CONTINUOUS
10
123.537
20
-118.681
11
123.608
21
-118.681
0
LINE
8
BLACK
6
CONTINUOUS
10
123.608
20
-118.681
11
123.668
21
-118.71
0
LINE
8
BLACK
6
CONTINUOUS
10
123.668
20
-118.71
11
123.693
21
-118.735
0
LINE
8
BLACK
6
CONTINUOUS
10
123.693
20
-118.735
11
123.722
21
-118.795
0
LINE
8
BLACK
6
CONTINUOUS
10
123.722
20
-118.795
11
123.722
21
-119.247
0
LINE
8
BLACK
6
CONTINUOUS
10
123.722
20
-119.247
11
123.742
21
-119.306
0
LINE
8
BLACK
6
CONTINUOUS
10
123.742
20
-119.306
11
123.792
21
-119.342
0
LINE
8
BLACK
6
CONTINUOUS
10
123.792
20
-119.342
11
123.853
21
-119.342
0
LINE
8
BLACK
6
CONTINUOUS
10
123.853
20
-119.342
11
123.903
21
-119.306
0
LINE
8
BLACK
6
CONTINUOUS
10
123.903
20
-119.306
11
123.922
21
-119.247
0
LINE
8
BLACK
6
CONTINUOUS
10
123.922
20
-119.247
11
123.922
21
-118.581
0
LINE
8
BLACK
6
CONTINUOUS
10
123.922
20
-118.581
11
123.903
21
-118.522
0
LINE
8
BLACK
6
CONTINUOUS
10
123.903
20
-118.522
11
123.853
21
-118.485
0
LINE
8
BLACK
6
CONTINUOUS
10
123.853
20
-118.485
11
123.792
21
-118.485
0
LINE
8
BLACK
6
CONTINUOUS
10
123.792
20
-118.485
11
123.742
21
-118.522
0
LINE
8
BLACK
6
CONTINUOUS
10
123.742
20
-118.522
11
123.741
21
-118.523
0
LINE
8
BLACK
6
CONTINUOUS
10
123.741
20
-118.523
11
123.677
21
-118.491
0
LINE
8
BLACK
6
CONTINUOUS
10
123.677
20
-118.491
11
123.654
21
-118.488
0
LINE
8
BLACK
6
CONTINUOUS
10
123.654
20
-118.488
11
123.632
21
-118.481
0
LINE
8
BLACK
6
CONTINUOUS
10
123.632
20
-118.481
11
123.537
21
-118.481
0
LINE
8
BLACK
6
CONTINUOUS
10
123.537
20
-118.481
11
123.478
21
-118.5
0
LINE
8
BLACK
6
CONTINUOUS
10
127.086
20
-118.488
11
127.063
21
-118.491
0
LINE
8
BLACK
6
CONTINUOUS
10
127.063
20
-118.491
11
126.968
21
-118.539
0
LINE
8
BLACK
6
CONTINUOUS
10
126.968
20
-118.539
11
126.968
21
-118.539
0
LINE
8
BLACK
6
CONTINUOUS
10
126.968
20
-118.539
11
126.967
21
-118.539
0
LINE
8
BLACK
6
CONTINUOUS
10
126.967
20
-118.539
11
126.946
21
-118.561
0
LINE
8
BLACK
6
CONTINUOUS
10
126.946
20
-118.561
11
126.924
21
-118.582
0
LINE
8
BLACK
6
CONTINUOUS
10
126.924
20
-118.582
11
126.924
21
-118.583
0
LINE
8
BLACK
6
CONTINUOUS
10
126.924
20
-118.583
11
126.923
21
-118.583
0
LINE
8
BLACK
6
CONTINUOUS
10
126.923
20
-118.583
11
126.876
21
-118.679
0
LINE
8
BLACK
6
CONTINUOUS
10
126.876
20
-118.679
11
126.872
21
-118.701
0
LINE
8
BLACK
6
CONTINUOUS
10
126.872
20
-118.701
11
126.865
21
-118.723
0
LINE
8
BLACK
6
CONTINUOUS
10
126.865
20
-118.723
11
126.865
21
-119.247
0
LINE
8
BLACK
6
CONTINUOUS
10
126.865
20
-119.247
11
126.884
21
-119.306
0
LINE
8
BLACK
6
CONTINUOUS
10
126.884
20
-119.306
11
126.934
21
-119.342
0
LINE
8
BLACK
6
CONTINUOUS
10
126.934
20
-119.342
11
126.996
21
-119.342
0
LINE
8
BLACK
6
CONTINUOUS
10
126.996
20
-119.342
11
127.046
21
-119.306
0
LINE
8
BLACK
6
CONTINUOUS
10
127.046
20
-119.306
11
127.065
21
-119.247
0
LINE
8
BLACK
6
CONTINUOUS
10
127.065
20
-119.247
11
127.065
21
-118.747
0
LINE
8
BLACK
6
CONTINUOUS
10
127.065
20
-118.747
11
127.087
21
-118.703
0
LINE
8
BLACK
6
CONTINUOUS
10
127.087
20
-118.703
11
127.132
21
-118.681
0
LINE
8
BLACK
6
CONTINUOUS
10
127.132
20
-118.681
11
127.227
21
-118.681
0
LINE
8
BLACK
6
CONTINUOUS
10
127.227
20
-118.681
11
127.287
21
-118.71
0
LINE
8
BLACK
6
CONTINUOUS
10
127.287
20
-118.71
11
127.294
21
-118.717
0
LINE
8
BLACK
6
CONTINUOUS
10
127.294
20
-118.717
11
127.294
21
-119.247
0
LINE
8
BLACK
6
CONTINUOUS
10
127.294
20
-119.247
11
127.313
21
-119.306
0
LINE
8
BLACK
6
CONTINUOUS
10
127.313
20
-119.306
11
127.363
21
-119.342
0
LINE
8
BLACK
6
CONTINUOUS
10
127.363
20
-119.342
11
127.425
21
-119.342
0
LINE
8
BLACK
6
CONTINUOUS
10
127.425
20
-119.342
11
127.475
21
-119.306
0
LINE
8
BLACK
6
CONTINUOUS
10
127.475
20
-119.306
11
127.494
21
-119.247
0
LINE
8
BLACK
6
CONTINUOUS
10
127.494
20
-119.247
11
127.494
21
-118.581
0
LINE
8
BLACK
6
CONTINUOUS
10
127.494
20
-118.581
11
127.475
21
-118.522
0
LINE
8
BLACK
6
CONTINUOUS
10
127.475
20
-118.522
11
127.425
21
-118.485
0
LINE
8
BLACK
6
CONTINUOUS
10
127.425
20
-118.485
11
127.363
21
-118.485
0
LINE
8
BLACK
6
CONTINUOUS
10
127.363
20
-118.485
11
127.331
21
-118.509
0
LINE
8
BLACK
6
CONTINUOUS
10
127.331
20
-118.509
11
127.296
21
-118.491
0
LINE
8
BLACK
6
CONTINUOUS
10
127.296
20
-118.491
11
127.273
21
-118.488
0
LINE
8
BLACK
6
CONTINUOUS
10
127.273
20
-118.488
11
127.251
21
-118.481
0
LINE
8
BLACK
6
CONTINUOUS
10
127.251
20
-118.481
11
127.108
21
-118.481
0
LINE
8
BLACK
6
CONTINUOUS
10
127.108
20
-118.481
11
127.086
21
-118.488
0
LINE
8
BLACK
6
CONTINUOUS
10
135.229
20
-118.488
11
135.206
21
-118.491
0
LINE
8
BLACK
6
CONTINUOUS
10
135.206
20
-118.491
11
135.111
21
-118.539
0
LINE
8
BLACK
6
CONTINUOUS
10
135.111
20
-118.539
11
135.11
21
-118.539
0
LINE
8
BLACK
6
CONTINUOUS
10
135.11
20
-118.539
11
135.11
21
-118.539
0
LINE
8
BLACK
6
CONTINUOUS
10
135.11
20
-118.539
11
135.089
21
-118.561
0
LINE
8
BLACK
6
CONTINUOUS
10
135.089
20
-118.561
11
135.067
21
-118.582
0
LINE
8
BLACK
6
CONTINUOUS
10
135.067
20
-118.582
11
135.067
21
-118.583
0
LINE
8
BLACK
6
CONTINUOUS
10
135.067
20
-118.583
11
135.066
21
-118.583
0
LINE
8
BLACK
6
CONTINUOUS
10
135.066
20
-118.583
11
135.019
21
-118.679
0
LINE
8
BLACK
6
CONTINUOUS
10
135.019
20
-118.679
11
135.015
21
-118.701
0
LINE
8
BLACK
6
CONTINUOUS
10
135.015
20
-118.701
11
135.008
21
-118.723
0
LINE
8
BLACK
6
CONTINUOUS
10
135.008
20
-118.723
11
135.008
21
-119.247
0
LINE
8
BLACK
6
CONTINUOUS
10
135.008
20
-119.247
11
135.027
21
-119.306
0
LINE
8
BLACK
6
CONTINUOUS
10
135.027
20
-119.306
11
135.077
21
-119.342
0
LINE
8
BLACK
6
CONTINUOUS
10
135.077
20
-119.342
11
135.139
21
-119.342
0
LINE
8
BLACK
6
CONTINUOUS
10
135.139
20
-119.342
11
135.189
21
-119.306
0
LINE
8
BLACK
6
CONTINUOUS
10
135.189
20
-119.306
11
135.208
21
-119.247
0
LINE
8
BLACK
6
CONTINUOUS
10
135.208
20
-119.247
11
135.208
21
-118.747
0
LINE
8
BLACK
6
CONTINUOUS
10
135.208
20
-118.747
11
135.23
21
-118.703
0
LINE
8
BLACK
6
CONTINUOUS
10
135.23
20
-118.703
11
135.275
21
-118.681
0
LINE
8
BLACK
6
CONTINUOUS
10
135.275
20
-118.681
11
135.37
21
-118.681
0
LINE
8
BLACK
6
CONTINUOUS
10
135.37
20
-118.681
11
135.43
21
-118.71
0
LINE
8
BLACK
6
CONTINUOUS
10
135.43
20
-118.71
11
135.437
21
-118.717
0
LINE
8
BLACK
6
CONTINUOUS
10
135.437
20
-118.717
11
135.437
21
-119.247
0
LINE
8
BLACK
6
CONTINUOUS
10
135.437
20
-119.247
11
135.456
21
-119.306
0
LINE
8
BLACK
6
CONTINUOUS
10
135.456
20
-119.306
11
135.506
21
-119.342
0
LINE
8
BLACK
6
CONTINUOUS
10
135.506
20
-119.342
11
135.568
21
-119.342
0
LINE
8
BLACK
6
CONTINUOUS
10
135.568
20
-119.342
11
135.618
21
-119.306
0
LINE
8
BLACK
6
CONTINUOUS
10
135.618
20
-119.306
11
135.637
21
-119.247
0
LINE
8
BLACK
6
CONTINUOUS
10
135.637
20
-119.247
11
135.637
21
-118.581
0
LINE
8
BLACK
6
CONTINUOUS
10
135.637
20
-118.581
11
135.618
21
-118.522
0
LINE
8
BLACK
6
CONTINUOUS
10
135.618
20
-118.522
11
135.568
21
-118.485
0
LINE
8
BLACK
6
CONTINUOUS
10
135.568
20
-118.485
11
135.506
21
-118.485
0
LINE
8
BLACK
6
CONTINUOUS
10
135.506
20
-118.485
11
135.474
21
-118.509
0
LINE
8
BLACK
6
CONTINUOUS
10
135.474
20
-118.509
11
135.439
21
-118.491
0
LINE
8
BLACK
6
CONTINUOUS
10
135.439
20
-118.491
11
135.416
21
-118.488
0
LINE
8
BLACK
6
CONTINUOUS
10
135.416
20
-118.488
11
135.394
21
-118.481
0
LINE
8
BLACK
6
CONTINUOUS
10
135.394
20
-118.481
11
135.251
21
-118.481
0
LINE
8
BLACK
6
CONTINUOUS
10
135.251
20
-118.481
11
135.229
21
-118.488
0
LINE
8
BLACK
6
CONTINUOUS
10
136.837
20
-118.522
11
136.818
21
-118.581
0
LINE
8
BLACK
6
CONTINUOUS
10
136.818
20
-118.581
11
136.818
21
-119.247
0
LINE
8
BLACK
6
CONTINUOUS
10
136.818
20
-119.247
11
136.837
21
-119.306
0
LINE
8
BLACK
6
CONTINUOUS
10
136.837
20
-119.306
11
136.887
21
-119.342
0
LINE
8
BLACK
6
CONTINUOUS
10
136.887
20
-119.342
11
136.949
21
-119.342
0
LINE
8
BLACK
6
CONTINUOUS
10
136.949
20
-119.342
11
136.999
21
-119.306
0
LINE
8
BLACK
6
CONTINUOUS
10
136.999
20
-119.306
11
137.018
21
-119.247
0
LINE
8
BLACK
6
CONTINUOUS
10
137.018
20
-119.247
11
137.018
21
-118.581
0
LINE
8
BLACK
6
CONTINUOUS
10
137.018
20
-118.581
11
136.999
21
-118.522
0
LINE
8
BLACK
6
CONTINUOUS
10
136.999
20
-118.522
11
136.949
21
-118.485
0
LINE
8
BLACK
6
CONTINUOUS
10
136.949
20
-118.485
11
136.887
21
-118.485
0
LINE
8
BLACK
6
CONTINUOUS
10
136.887
20
-118.485
11
136.837
21
-118.522
0
LINE
8
BLACK
6
CONTINUOUS
10
136.918
20
-118.151
11
136.902
21
-118.148
0
LINE
8
BLACK
6
CONTINUOUS
10
136.902
20
-118.148
11
136.895
21
-118.152
0
LINE
8
BLACK
6
CONTINUOUS
10
136.895
20
-118.152
11
136.887
21
-118.152
0
LINE
8
BLACK
6
CONTINUOUS
10
136.887
20
-118.152
11
136.88
21
-118.157
0
LINE
8
BLACK
6
CONTINUOUS
10
136.88
20
-118.157
11
136.872
21
-118.158
0
LINE
8
BLACK
6
CONTINUOUS
10
136.872
20
-118.158
11
136.861
21
-118.169
0
LINE
8
BLACK
6
CONTINUOUS
10
136.861
20
-118.169
11
136.847
21
-118.177
0
LINE
8
BLACK
6
CONTINUOUS
10
136.847
20
-118.177
11
136.799
21
-118.224
0
LINE
8
BLACK
6
CONTINUOUS
10
136.799
20
-118.224
11
136.792
21
-118.238
0
LINE
8
BLACK
6
CONTINUOUS
10
136.792
20
-118.238
11
136.781
21
-118.249
0
LINE
8
BLACK
6
CONTINUOUS
10
136.781
20
-118.249
11
136.778
21
-118.265
0
LINE
8
BLACK
6
CONTINUOUS
10
136.778
20
-118.265
11
136.771
21
-118.279
0
LINE
8
BLACK
6
CONTINUOUS
10
136.771
20
-118.279
11
136.774
21
-118.295
0
LINE
8
BLACK
6
CONTINUOUS
10
136.774
20
-118.295
11
136.771
21
-118.31
0
LINE
8
BLACK
6
CONTINUOUS
10
136.771
20
-118.31
11
136.778
21
-118.325
0
LINE
8
BLACK
6
CONTINUOUS
10
136.778
20
-118.325
11
136.781
21
-118.34
0
LINE
8
BLACK
6
CONTINUOUS
10
136.781
20
-118.34
11
136.792
21
-118.351
0
LINE
8
BLACK
6
CONTINUOUS
10
136.792
20
-118.351
11
136.799
21
-118.366
0
LINE
8
BLACK
6
CONTINUOUS
10
136.799
20
-118.366
11
136.847
21
-118.413
0
LINE
8
BLACK
6
CONTINUOUS
10
136.847
20
-118.413
11
136.861
21
-118.42
0
LINE
8
BLACK
6
CONTINUOUS
10
136.861
20
-118.42
11
136.872
21
-118.432
0
LINE
8
BLACK
6
CONTINUOUS
10
136.872
20
-118.432
11
136.88
21
-118.433
0
LINE
8
BLACK
6
CONTINUOUS
10
136.88
20
-118.433
11
136.887
21
-118.438
0
LINE
8
BLACK
6
CONTINUOUS
10
136.887
20
-118.438
11
136.895
21
-118.438
0
LINE
8
BLACK
6
CONTINUOUS
10
136.895
20
-118.438
11
136.902
21
-118.441
0
LINE
8
BLACK
6
CONTINUOUS
10
136.902
20
-118.441
11
136.918
21
-118.439
0
LINE
8
BLACK
6
CONTINUOUS
10
136.918
20
-118.439
11
136.933
21
-118.441
0
LINE
8
BLACK
6
CONTINUOUS
10
136.933
20
-118.441
11
136.94
21
-118.438
0
LINE
8
BLACK
6
CONTINUOUS
10
136.94
20
-118.438
11
136.949
21
-118.438
0
LINE
8
BLACK
6
CONTINUOUS
10
136.949
20
-118.438
11
136.955
21
-118.433
0
LINE
8
BLACK
6
CONTINUOUS
10
136.955
20
-118.433
11
136.963
21
-118.432
0
LINE
8
BLACK
6
CONTINUOUS
10
136.963
20
-118.432
11
136.974
21
-118.42
0
LINE
8
BLACK
6
CONTINUOUS
10
136.974
20
-118.42
11
136.988
21
-118.413
0
LINE
8
BLACK
6
CONTINUOUS
10
136.988
20
-118.413
11
137.036
21
-118.366
0
LINE
8
BLACK
6
CONTINUOUS
10
137.036
20
-118.366
11
137.043
21
-118.351
0
LINE
8
BLACK
6
CONTINUOUS
10
137.043
20
-118.351
11
137.054
21
-118.34
0
LINE
8
BLACK
6
CONTINUOUS
10
137.054
20
-118.34
11
137.057
21
-118.325
0
LINE
8
BLACK
6
CONTINUOUS
10
137.057
20
-118.325
11
137.064
21
-118.31
0
LINE
8
BLACK
6
CONTINUOUS
10
137.064
20
-118.31
11
137.062
21
-118.295
0
LINE
8
BLACK
6
CONTINUOUS
10
137.062
20
-118.295
11
137.064
21
-118.279
0
LINE
8
BLACK
6
CONTINUOUS
10
137.064
20
-118.279
11
137.057
21
-118.265
0
LINE
8
BLACK
6
CONTINUOUS
10
137.057
20
-118.265
11
137.054
21
-118.249
0
LINE
8
BLACK
6
CONTINUOUS
10
137.054
20
-118.249
11
137.043
21
-118.238
0
LINE
8
BLACK
6
CONTINUOUS
10
137.043
20
-118.238
11
137.036
21
-118.224
0
LINE
8
BLACK
6
CONTINUOUS
10
137.036
20
-118.224
11
136.988
21
-118.177
0
LINE
8
BLACK
6
CONTINUOUS
10
136.988
20
-118.177
11
136.974
21
-118.169
0
LINE
8
BLACK
6
CONTINUOUS
10
136.974
20
-118.169
11
136.963
21
-118.158
0
LINE
8
BLACK
6
CONTINUOUS
10
136.963
20
-118.158
11
136.955
21
-118.157
0
LINE
8
BLACK
6
CONTINUOUS
10
136.955
20
-118.157
11
136.949
21
-118.152
0
LINE
8
BLACK
6
CONTINUOUS
10
136.949
20
-118.152
11
136.94
21
-118.152
0
LINE
8
BLACK
6
CONTINUOUS
10
136.94
20
-118.152
11
136.933
21
-118.148
0
LINE
8
BLACK
6
CONTINUOUS
10
136.933
20
-118.148
11
136.918
21
-118.151
0
LINE
8
BLACK
6
CONTINUOUS
10
118.559
20
-116.448
11
118.592
21
-116.514
0
LINE
8
BLACK
6
CONTINUOUS
10
118.592
20
-116.514
11
118.592
21
-116.581
0
LINE
8
BLACK
6
CONTINUOUS
10
118.592
20
-116.581
11
118.185
21
-116.5
0
LINE
8
BLACK
6
CONTINUOUS
10
118.185
20
-116.5
11
118.211
21
-116.448
0
LINE
8
BLACK
6
CONTINUOUS
10
118.211
20
-116.448
11
118.278
21
-116.414
0
LINE
8
BLACK
6
CONTINUOUS
10
118.278
20
-116.414
11
118.493
21
-116.414
0
LINE
8
BLACK
6
CONTINUOUS
10
118.493
20
-116.414
11
118.559
21
-116.448
0
LINE
8
BLACK
6
CONTINUOUS
10
122.011
20
-116.459
11
122.048
21
-116.496
0
LINE
8
BLACK
6
CONTINUOUS
10
122.048
20
-116.496
11
122.092
21
-116.585
0
LINE
8
BLACK
6
CONTINUOUS
10
122.092
20
-116.585
11
122.092
21
-116.943
0
LINE
8
BLACK
6
CONTINUOUS
10
122.092
20
-116.943
11
122.048
21
-117.033
0
LINE
8
BLACK
6
CONTINUOUS
10
122.048
20
-117.033
11
122.011
21
-117.07
0
LINE
8
BLACK
6
CONTINUOUS
10
122.011
20
-117.07
11
121.921
21
-117.114
0
LINE
8
BLACK
6
CONTINUOUS
10
121.921
20
-117.114
11
121.706
21
-117.114
0
LINE
8
BLACK
6
CONTINUOUS
10
121.706
20
-117.114
11
121.678
21
-117.1
0
LINE
8
BLACK
6
CONTINUOUS
10
121.678
20
-117.1
11
121.678
21
-116.428
0
LINE
8
BLACK
6
CONTINUOUS
10
121.678
20
-116.428
11
121.706
21
-116.414
0
LINE
8
BLACK
6
CONTINUOUS
10
121.706
20
-116.414
11
121.921
21
-116.414
0
LINE
8
BLACK
6
CONTINUOUS
10
121.921
20
-116.414
11
122.011
21
-116.459
0
LINE
8
BLACK
6
CONTINUOUS
10
123.368
20
-116.459
11
123.405
21
-116.496
0
LINE
8
BLACK
6
CONTINUOUS
10
123.405
20
-116.496
11
123.449
21
-116.585
0
LINE
8
BLACK
6
CONTINUOUS
10
123.449
20
-116.585
11
123.449
21
-116.943
0
LINE
8
BLACK
6
CONTINUOUS
10
123.449
20
-116.943
11
123.405
21
-117.033
0
LINE
8
BLACK
6
CONTINUOUS
10
123.405
20
-117.033
11
123.368
21
-117.07
0
LINE
8
BLACK
6
CONTINUOUS
10
123.368
20
-117.07
11
123.278
21
-117.114
0
LINE
8
BLACK
6
CONTINUOUS
10
123.278
20
-117.114
11
123.135
21
-117.114
0
LINE
8
BLACK
6
CONTINUOUS
10
123.135
20
-117.114
11
123.045
21
-117.07
0
LINE
8
BLACK
6
CONTINUOUS
10
123.045
20
-117.07
11
123.008
21
-117.033
0
LINE
8
BLACK
6
CONTINUOUS
10
123.008
20
-117.033
11
122.964
21
-116.943
0
LINE
8
BLACK
6
CONTINUOUS
10
122.964
20
-116.943
11
122.964
21
-116.585
0
LINE
8
BLACK
6
CONTINUOUS
10
122.964
20
-116.585
11
123.008
21
-116.496
0
LINE
8
BLACK
6
CONTINUOUS
10
123.008
20
-116.496
11
123.045
21
-116.459
0
LINE
8
BLACK
6
CONTINUOUS
10
123.045
20
-116.459
11
123.135
21
-116.414
0
LINE
8
BLACK
6
CONTINUOUS
10
123.135
20
-116.414
11
123.278
21
-116.414
0
LINE
8
BLACK
6
CONTINUOUS
10
123.278
20
-116.414
11
123.368
21
-116.459
0
LINE
8
BLACK
6
CONTINUOUS
10
128.511
20
-116.459
11
128.548
21
-116.496
0
LINE
8
BLACK
6
CONTINUOUS
10
128.548
20
-116.496
11
128.592
21
-116.585
0
LINE
8
BLACK
6
CONTINUOUS
10
128.592
20
-116.585
11
128.592
21
-116.943
0
LINE
8
BLACK
6
CONTINUOUS
10
128.592
20
-116.943
11
128.548
21
-117.033
0
LINE
8
BLACK
6
CONTINUOUS
10
128.548
20
-117.033
11
128.511
21
-117.07
0
LINE
8
BLACK
6
CONTINUOUS
10
128.511
20
-117.07
11
128.421
21
-117.114
0
LINE
8
BLACK
6
CONTINUOUS
10
128.421
20
-117.114
11
128.278
21
-117.114
0
LINE
8
BLACK
6
CONTINUOUS
10
128.278
20
-117.114
11
128.188
21
-117.07
0
LINE
8
BLACK
6
CONTINUOUS
10
128.188
20
-117.07
11
128.151
21
-117.033
0
LINE
8
BLACK
6
CONTINUOUS
10
128.151
20
-117.033
11
128.107
21
-116.943
0
LINE
8
BLACK
6
CONTINUOUS
10
128.107
20
-116.943
11
128.107
21
-116.585
0
LINE
8
BLACK
6
CONTINUOUS
10
128.107
20
-116.585
11
128.151
21
-116.496
0
LINE
8
BLACK
6
CONTINUOUS
10
128.151
20
-116.496
11
128.188
21
-116.459
0
LINE
8
BLACK
6
CONTINUOUS
10
128.188
20
-116.459
11
128.278
21
-116.414
0
LINE
8
BLACK
6
CONTINUOUS
10
128.278
20
-116.414
11
128.421
21
-116.414
0
LINE
8
BLACK
6
CONTINUOUS
10
128.421
20
-116.414
11
128.511
21
-116.459
0
LINE
8
BLACK
6
CONTINUOUS
10
132.416
20
-116.448
11
132.449
21
-116.514
0
LINE
8
BLACK
6
CONTINUOUS
10
132.449
20
-116.514
11
132.449
21
-116.581
0
LINE
8
BLACK
6
CONTINUOUS
10
132.449
20
-116.581
11
132.042
21
-116.5
0
LINE
8
BLACK
6
CONTINUOUS
10
132.042
20
-116.5
11
132.068
21
-116.448
0
LINE
8
BLACK
6
CONTINUOUS
10
132.068
20
-116.448
11
132.135
21
-116.414
0
LINE
8
BLACK
6
CONTINUOUS
10
132.135
20
-116.414
11
132.35
21
-116.414
0
LINE
8
BLACK
6
CONTINUOUS
10
132.35
20
-116.414
11
132.416
21
-116.448
0
LINE
8
BLACK
6
CONTINUOUS
10
136.449
20
-116.4
11
136.063
21
-116.4
0
LINE
8
BLACK
6
CONTINUOUS
10
136.063
20
-116.4
11
135.974
21
-116.355
0
LINE
8
BLACK
6
CONTINUOUS
10
135.974
20
-116.355
11
135.937
21
-116.318
0
LINE
8
BLACK
6
CONTINUOUS
10
135.937
20
-116.318
11
135.892
21
-116.229
0
LINE
8
BLACK
6
CONTINUOUS
10
135.892
20
-116.229
11
135.892
21
-116.085
0
LINE
8
BLACK
6
CONTINUOUS
10
135.892
20
-116.085
11
135.937
21
-115.996
0
LINE
8
BLACK
6
CONTINUOUS
10
135.937
20
-115.996
11
135.974
21
-115.959
0
LINE
8
BLACK
6
CONTINUOUS
10
135.974
20
-115.959
11
136.063
21
-115.914
0
LINE
8
BLACK
6
CONTINUOUS
10
136.063
20
-115.914
11
136.449
21
-115.914
0
LINE
8
BLACK
6
CONTINUOUS
10
136.449
20
-115.914
11
136.449
21
-116.4
0
LINE
8
BLACK
6
CONTINUOUS
10
137.748
20
-116.686
11
137.45
21
-116.686
0
LINE
8
BLACK
6
CONTINUOUS
10
137.45
20
-116.686
11
137.599
21
-116.239
0
LINE
8
BLACK
6
CONTINUOUS
10
137.599
20
-116.239
11
137.748
21
-116.686
0
LINE
8
BLACK
6
CONTINUOUS
10
139.821
20
-117.629
11
117.664
21
-117.629
0
LINE
8
BLACK
6
CONTINUOUS
10
117.664
20
-117.629
11
117.664
21
-115.4
0
LINE
8
BLACK
6
CONTINUOUS
10
117.664
20
-115.4
11
139.821
21
-115.4
0
LINE
8
BLACK
6
CONTINUOUS
10
139.821
20
-115.4
11
139.821
21
-117.629
0
LINE
8
BLACK
6
CONTINUOUS
10
118.209
20
-116.123
11
118.175
21
-116.13
0
LINE
8
BLACK
6
CONTINUOUS
10
118.175
20
-116.13
11
118.032
21
-116.202
0
LINE
8
BLACK
6
CONTINUOUS
10
118.032
20
-116.202
11
118.025
21
-116.208
0
LINE
8
BLACK
6
CONTINUOUS
10
118.025
20
-116.208
11
118.017
21
-116.211
0
LINE
8
BLACK
6
CONTINUOUS
10
118.017
20
-116.211
11
117.997
21
-116.233
0
LINE
8
BLACK
6
CONTINUOUS
10
117.997
20
-116.233
11
117.974
21
-116.253
0
LINE
8
BLACK
6
CONTINUOUS
10
117.974
20
-116.253
11
117.971
21
-116.262
0
LINE
8
BLACK
6
CONTINUOUS
10
117.971
20
-116.262
11
117.965
21
-116.269
0
LINE
8
BLACK
6
CONTINUOUS
10
117.965
20
-116.269
11
117.894
21
-116.412
0
LINE
8
BLACK
6
CONTINUOUS
10
117.894
20
-116.412
11
117.887
21
-116.445
0
LINE
8
BLACK
6
CONTINUOUS
10
117.887
20
-116.445
11
117.878
21
-116.479
0
LINE
8
BLACK
6
CONTINUOUS
10
117.878
20
-116.479
11
117.878
21
-116.621
0
LINE
8
BLACK
6
CONTINUOUS
10
117.878
20
-116.621
11
117.884
21
-116.645
0
LINE
8
BLACK
6
CONTINUOUS
10
117.884
20
-116.645
11
117.886
21
-116.67
0
LINE
8
BLACK
6
CONTINUOUS
10
117.886
20
-116.67
11
117.894
21
-116.682
0
LINE
8
BLACK
6
CONTINUOUS
10
117.894
20
-116.682
11
117.898
21
-116.696
0
LINE
8
BLACK
6
CONTINUOUS
10
117.898
20
-116.696
11
117.915
21
-116.714
0
LINE
8
BLACK
6
CONTINUOUS
10
117.915
20
-116.714
11
117.929
21
-116.734
0
LINE
8
BLACK
6
CONTINUOUS
10
117.929
20
-116.734
11
117.942
21
-116.741
0
LINE
8
BLACK
6
CONTINUOUS
10
117.942
20
-116.741
11
117.953
21
-116.751
0
LINE
8
BLACK
6
CONTINUOUS
10
117.953
20
-116.751
11
117.977
21
-116.758
0
LINE
8
BLACK
6
CONTINUOUS
10
117.977
20
-116.758
11
117.999
21
-116.769
0
LINE
8
BLACK
6
CONTINUOUS
10
117.999
20
-116.769
11
118.592
21
-116.887
0
LINE
8
BLACK
6
CONTINUOUS
10
118.592
20
-116.887
11
118.592
21
-117.015
0
LINE
8
BLACK
6
CONTINUOUS
10
118.592
20
-117.015
11
118.559
21
-117.081
0
LINE
8
BLACK
6
CONTINUOUS
10
118.559
20
-117.081
11
118.493
21
-117.114
0
LINE
8
BLACK
6
CONTINUOUS
10
118.493
20
-117.114
11
118.278
21
-117.114
0
LINE
8
BLACK
6
CONTINUOUS
10
118.278
20
-117.114
11
118.167
21
-117.059
0
LINE
8
BLACK
6
CONTINUOUS
10
118.167
20
-117.059
11
118.09
21
-117.043
0
LINE
8
BLACK
6
CONTINUOUS
10
118.09
20
-117.043
11
118.017
21
-117.068
0
LINE
8
BLACK
6
CONTINUOUS
10
118.017
20
-117.068
11
117.965
21
-117.126
0
LINE
8
BLACK
6
CONTINUOUS
10
117.965
20
-117.126
11
117.95
21
-117.202
0
LINE
8
BLACK
6
CONTINUOUS
10
117.95
20
-117.202
11
117.974
21
-117.276
0
LINE
8
BLACK
6
CONTINUOUS
10
117.974
20
-117.276
11
118.032
21
-117.327
0
LINE
8
BLACK
6
CONTINUOUS
10
118.032
20
-117.327
11
118.175
21
-117.398
0
LINE
8
BLACK
6
CONTINUOUS
10
118.175
20
-117.398
11
118.209
21
-117.405
0
LINE
8
BLACK
6
CONTINUOUS
10
118.209
20
-117.405
11
118.242
21
-117.414
0
LINE
8
BLACK
6
CONTINUOUS
10
118.242
20
-117.414
11
118.528
21
-117.414
0
LINE
8
BLACK
6
CONTINUOUS
10
118.528
20
-117.414
11
118.561
21
-117.405
0
LINE
8
BLACK
6
CONTINUOUS
10
118.561
20
-117.405
11
118.595
21
-117.398
0
LINE
8
BLACK
6
CONTINUOUS
10
118.595
20
-117.398
11
118.738
21
-117.327
0
LINE
8
BLACK
6
CONTINUOUS
10
118.738
20
-117.327
11
118.745
21
-117.321
0
LINE
8
BLACK
6
CONTINUOUS
10
118.745
20
-117.321
11
118.754
21
-117.318
0
LINE
8
BLACK
6
CONTINUOUS
10
118.754
20
-117.318
11
118.773
21
-117.296
0
LINE
8
BLACK
6
CONTINUOUS
10
118.773
20
-117.296
11
118.796
21
-117.276
0
LINE
8
BLACK
6
CONTINUOUS
10
118.796
20
-117.276
11
118.799
21
-117.267
0
LINE
8
BLACK
6
CONTINUOUS
10
118.799
20
-117.267
11
118.805
21
-117.26
0
LINE
8
BLACK
6
CONTINUOUS
10
118.805
20
-117.26
11
118.876
21
-117.117
0
LINE
8
BLACK
6
CONTINUOUS
10
118.876
20
-117.117
11
118.883
21
-117.083
0
LINE
8
BLACK
6
CONTINUOUS
10
118.883
20
-117.083
11
118.892
21
-117.05
0
LINE
8
BLACK
6
CONTINUOUS
10
118.892
20
-117.05
11
118.892
21
-116.479
0
LINE
8
BLACK
6
CONTINUOUS
10
118.892
20
-116.479
11
118.883
21
-116.445
0
LINE
8
BLACK
6
CONTINUOUS
10
118.883
20
-116.445
11
118.876
21
-116.412
0
LINE
8
BLACK
6
CONTINUOUS
10
118.876
20
-116.412
11
118.805
21
-116.269
0
LINE
8
BLACK
6
CONTINUOUS
10
118.805
20
-116.269
11
118.799
21
-116.262
0
LINE
8
BLACK
6
CONTINUOUS
10
118.799
20
-116.262
11
118.796
21
-116.253
0
LINE
8
BLACK
6
CONTINUOUS
10
118.796
20
-116.253
11
118.773
21
-116.233
0
LINE
8
BLACK
6
CONTINUOUS
10
118.773
20
-116.233
11
118.754
21
-116.211
0
LINE
8
BLACK
6
CONTINUOUS
10
118.754
20
-116.211
11
118.745
21
-116.208
0
LINE
8
BLACK
6
CONTINUOUS
10
118.745
20
-116.208
11
118.738
21
-116.202
0
LINE
8
BLACK
6
CONTINUOUS
10
118.738
20
-116.202
11
118.595
21
-116.13
0
LINE
8
BLACK
6
CONTINUOUS
10
118.595
20
-116.13
11
118.561
21
-116.123
0
LINE
8
BLACK
6
CONTINUOUS
10
118.561
20
-116.123
11
118.528
21
-116.114
0
LINE
8
BLACK
6
CONTINUOUS
10
118.528
20
-116.114
11
118.242
21
-116.114
0
LINE
8
BLACK
6
CONTINUOUS
10
118.242
20
-116.114
11
118.209
21
-116.123
0
LINE
8
BLACK
6
CONTINUOUS
10
120.739
20
-116.134
11
120.684
21
-116.189
0
LINE
8
BLACK
6
CONTINUOUS
10
120.684
20
-116.189
11
120.664
21
-116.264
0
LINE
8
BLACK
6
CONTINUOUS
10
120.664
20
-116.264
11
120.664
21
-117.015
0
LINE
8
BLACK
6
CONTINUOUS
10
120.664
20
-117.015
11
120.63
21
-117.081
0
LINE
8
BLACK
6
CONTINUOUS
10
120.63
20
-117.081
11
120.564
21
-117.114
0
LINE
8
BLACK
6
CONTINUOUS
10
120.564
20
-117.114
11
120.421
21
-117.114
0
LINE
8
BLACK
6
CONTINUOUS
10
120.421
20
-117.114
11
120.331
21
-117.07
0
LINE
8
BLACK
6
CONTINUOUS
10
120.331
20
-117.07
11
120.321
21
-117.059
0
LINE
8
BLACK
6
CONTINUOUS
10
120.321
20
-117.059
11
120.321
21
-116.264
0
LINE
8
BLACK
6
CONTINUOUS
10
120.321
20
-116.264
11
120.301
21
-116.189
0
LINE
8
BLACK
6
CONTINUOUS
10
120.301
20
-116.189
11
120.246
21
-116.134
0
LINE
8
BLACK
6
CONTINUOUS
10
120.246
20
-116.134
11
120.171
21
-116.114
0
LINE
8
BLACK
6
CONTINUOUS
10
120.171
20
-116.114
11
120.096
21
-116.134
0
LINE
8
BLACK
6
CONTINUOUS
10
120.096
20
-116.134
11
120.041
21
-116.189
0
LINE
8
BLACK
6
CONTINUOUS
10
120.041
20
-116.189
11
120.021
21
-116.264
0
LINE
8
BLACK
6
CONTINUOUS
10
120.021
20
-116.264
11
120.021
21
-117.264
0
LINE
8
BLACK
6
CONTINUOUS
10
120.021
20
-117.264
11
120.041
21
-117.339
0
LINE
8
BLACK
6
CONTINUOUS
10
120.041
20
-117.339
11
120.096
21
-117.394
0
LINE
8
BLACK
6
CONTINUOUS
10
120.096
20
-117.394
11
120.171
21
-117.414
0
LINE
8
BLACK
6
CONTINUOUS
10
120.171
20
-117.414
11
120.246
21
-117.394
0
LINE
8
BLACK
6
CONTINUOUS
10
120.246
20
-117.394
11
120.267
21
-117.373
0
LINE
8
BLACK
6
CONTINUOUS
10
120.267
20
-117.373
11
120.318
21
-117.398
0
LINE
8
BLACK
6
CONTINUOUS
10
120.318
20
-117.398
11
120.352
21
-117.405
0
LINE
8
BLACK
6
CONTINUOUS
10
120.352
20
-117.405
11
120.385
21
-117.414
0
LINE
8
BLACK
6
CONTINUOUS
10
120.385
20
-117.414
11
120.599
21
-117.414
0
LINE
8
BLACK
6
CONTINUOUS
10
120.599
20
-117.414
11
120.633
21
-117.405
0
LINE
8
BLACK
6
CONTINUOUS
10
120.633
20
-117.405
11
120.667
21
-117.398
0
LINE
8
BLACK
6
CONTINUOUS
10
120.667
20
-117.398
11
120.809
21
-117.327
0
LINE
8
BLACK
6
CONTINUOUS
10
120.809
20
-117.327
11
120.816
21
-117.321
0
LINE
8
BLACK
6
CONTINUOUS
10
120.816
20
-117.321
11
120.825
21
-117.318
0
LINE
8
BLACK
6
CONTINUOUS
10
120.825
20
-117.318
11
120.845
21
-117.296
0
LINE
8
BLACK
6
CONTINUOUS
10
120.845
20
-117.296
11
120.867
21
-117.276
0
LINE
8
BLACK
6
CONTINUOUS
10
120.867
20
-117.276
11
120.87
21
-117.267
0
LINE
8
BLACK
6
CONTINUOUS
10
120.87
20
-117.267
11
120.876
21
-117.26
0
LINE
8
BLACK
6
CONTINUOUS
10
120.876
20
-117.26
11
120.948
21
-117.117
0
LINE
8
BLACK
6
CONTINUOUS
10
120.948
20
-117.117
11
120.955
21
-117.083
0
LINE
8
BLACK
6
CONTINUOUS
10
120.955
20
-117.083
11
120.964
21
-117.05
0
LINE
8
BLACK
6
CONTINUOUS
10
120.964
20
-117.05
11
120.964
21
-116.264
0
LINE
8
BLACK
6
CONTINUOUS
10
120.964
20
-116.264
11
120.944
21
-116.189
0
LINE
8
BLACK
6
CONTINUOUS
10
120.944
20
-116.189
11
120.889
21
-116.134
0
LINE
8
BLACK
6
CONTINUOUS
10
120.889
20
-116.134
11
120.814
21
-116.114
0
LINE
8
BLACK
6
CONTINUOUS
10
120.814
20
-116.114
11
120.739
21
-116.134
0
LINE
8
BLACK
6
CONTINUOUS
10
121.453
20
-115.634
11
121.398
21
-115.689
0
LINE
8
BLACK
6
CONTINUOUS
10
121.398
20
-115.689
11
121.378
21
-115.764
0
LINE
8
BLACK
6
CONTINUOUS
10
121.378
20
-115.764
11
121.378
21
-117.264
0
LINE
8
BLACK
6
CONTINUOUS
10
121.378
20
-117.264
11
121.398
21
-117.339
0
LINE
8
BLACK
6
CONTINUOUS
10
121.398
20
-117.339
11
121.453
21
-117.394
0
LINE
8
BLACK
6
CONTINUOUS
10
121.453
20
-117.394
11
121.528
21
-117.414
0
LINE
8
BLACK
6
CONTINUOUS
10
121.528
20
-117.414
11
121.598
21
-117.396
0
LINE
8
BLACK
6
CONTINUOUS
10
121.598
20
-117.396
11
121.604
21
-117.398
0
LINE
8
BLACK
6
CONTINUOUS
10
121.604
20
-117.398
11
121.638
21
-117.405
0
LINE
8
BLACK
6
CONTINUOUS
10
121.638
20
-117.405
11
121.671
21
-117.414
0
LINE
8
BLACK
6
CONTINUOUS
10
121.671
20
-117.414
11
121.957
21
-117.414
0
LINE
8
BLACK
6
CONTINUOUS
10
121.957
20
-117.414
11
121.99
21
-117.405
0
LINE
8
BLACK
6
CONTINUOUS
10
121.99
20
-117.405
11
122.024
21
-117.398
0
LINE
8
BLACK
6
CONTINUOUS
10
122.024
20
-117.398
11
122.167
21
-117.327
0
LINE
8
BLACK
6
CONTINUOUS
10
122.167
20
-117.327
11
122.185
21
-117.311
0
LINE
8
BLACK
6
CONTINUOUS
10
122.185
20
-117.311
11
122.205
21
-117.299
0
LINE
8
BLACK
6
CONTINUOUS
10
122.205
20
-117.299
11
122.277
21
-117.228
0
LINE
8
BLACK
6
CONTINUOUS
10
122.277
20
-117.228
11
122.289
21
-117.207
0
LINE
8
BLACK
6
CONTINUOUS
10
122.289
20
-117.207
11
122.305
21
-117.189
0
LINE
8
BLACK
6
CONTINUOUS
10
122.305
20
-117.189
11
122.376
21
-117.046
0
LINE
8
BLACK
6
CONTINUOUS
10
122.376
20
-117.046
11
122.383
21
-117.012
0
LINE
8
BLACK
6
CONTINUOUS
10
122.383
20
-117.012
11
122.392
21
-116.979
0
LINE
8
BLACK
6
CONTINUOUS
10
122.392
20
-116.979
11
122.392
21
-116.55
0
LINE
8
BLACK
6
CONTINUOUS
10
122.392
20
-116.55
11
122.383
21
-116.517
0
LINE
8
BLACK
6
CONTINUOUS
10
122.383
20
-116.517
11
122.376
21
-116.483
0
LINE
8
BLACK
6
CONTINUOUS
10
122.376
20
-116.483
11
122.305
21
-116.34
0
LINE
8
BLACK
6
CONTINUOUS
10
122.305
20
-116.34
11
122.289
21
-116.322
0
LINE
8
BLACK
6
CONTINUOUS
10
122.289
20
-116.322
11
122.277
21
-116.301
0
LINE
8
BLACK
6
CONTINUOUS
10
122.277
20
-116.301
11
122.205
21
-116.23
0
LINE
8
BLACK
6
CONTINUOUS
10
122.205
20
-116.23
11
122.185
21
-116.218
0
LINE
8
BLACK
6
CONTINUOUS
10
122.185
20
-116.218
11
122.167
21
-116.202
0
LINE
8
BLACK
6
CONTINUOUS
10
122.167
20
-116.202
11
122.024
21
-116.13
0
LINE
8
BLACK
6
CONTINUOUS
10
122.024
20
-116.13
11
121.99
21
-116.123
0
LINE
8
BLACK
6
CONTINUOUS
10
121.99
20
-116.123
11
121.957
21
-116.114
0
LINE
8
BLACK
6
CONTINUOUS
10
121.957
20
-116.114
11
121.678
21
-116.114
0
LINE
8
BLACK
6
CONTINUOUS
10
121.678
20
-116.114
11
121.678
21
-115.764
0
LINE
8
BLACK
6
CONTINUOUS
10
121.678
20
-115.764
11
121.658
21
-115.689
0
LINE
8
BLACK
6
CONTINUOUS
10
121.658
20
-115.689
11
121.603
21
-115.634
0
LINE
8
BLACK
6
CONTINUOUS
10
121.603
20
-115.634
11
121.528
21
-115.614
0
LINE
8
BLACK
6
CONTINUOUS
10
121.528
20
-115.614
11
121.453
21
-115.634
0
LINE
8
BLACK
6
CONTINUOUS
10
123.066
20
-116.123
11
123.032
21
-116.13
0
LINE
8
BLACK
6
CONTINUOUS
10
123.032
20
-116.13
11
122.889
21
-116.202
0
LINE
8
BLACK
6
CONTINUOUS
10
122.889
20
-116.202
11
122.871
21
-116.218
0
LINE
8
BLACK
6
CONTINUOUS
10
122.871
20
-116.218
11
122.851
21
-116.23
0
LINE
8
BLACK
6
CONTINUOUS
10
122.851
20
-116.23
11
122.779
21
-116.301
0
LINE
8
BLACK
6
CONTINUOUS
10
122.779
20
-116.301
11
122.767
21
-116.322
0
LINE
8
BLACK
6
CONTINUOUS
10
122.767
20
-116.322
11
122.751
21
-116.34
0
LINE
8
BLACK
6
CONTINUOUS
10
122.751
20
-116.34
11
122.68
21
-116.483
0
LINE
8
BLACK
6
CONTINUOUS
10
122.68
20
-116.483
11
122.673
21
-116.517
0
LINE
8
BLACK
6
CONTINUOUS
10
122.673
20
-116.517
11
122.664
21
-116.55
0
LINE
8
BLACK
6
CONTINUOUS
10
122.664
20
-116.55
11
122.664
21
-116.979
0
LINE
8
BLACK
6
CONTINUOUS
10
122.664
20
-116.979
11
122.673
21
-117.012
0
LINE
8
BLACK
6
CONTINUOUS
10
122.673
20
-117.012
11
122.68
21
-117.046
0
LINE
8
BLACK
6
CONTINUOUS
10
122.68
20
-117.046
11
122.751
21
-117.189
0
LINE
8
BLACK
6
CONTINUOUS
10
122.751
20
-117.189
11
122.767
21
-117.207
0
LINE
8
BLACK
6
CONTINUOUS
10
122.767
20
-117.207
11
122.779
21
-117.228
0
LINE
8
BLACK
6
CONTINUOUS
10
122.779
20
-117.228
11
122.851
21
-117.299
0
LINE
8
BLACK
6
CONTINUOUS
10
122.851
20
-117.299
11
122.871
21
-117.311
0
LINE
8
BLACK
6
CONTINUOUS
10
122.871
20
-117.311
11
122.889
21
-117.327
0
LINE
8
BLACK
6
CONTINUOUS
10
122.889
20
-117.327
11
123.032
21
-117.398
0
LINE
8
BLACK
6
CONTINUOUS
10
123.032
20
-117.398
11
123.066
21
-117.405
0
LINE
8
BLACK
6
CONTINUOUS
10
123.066
20
-117.405
11
123.099
21
-117.414
0
LINE
8
BLACK
6
CONTINUOUS
10
123.099
20
-117.414
11
123.314
21
-117.414
0
LINE
8
BLACK
6
CONTINUOUS
10
123.314
20
-117.414
11
123.347
21
-117.405
0
LINE
8
BLACK
6
CONTINUOUS
10
123.347
20
-117.405
11
123.381
21
-117.398
0
LINE
8
BLACK
6
CONTINUOUS
10
123.381
20
-117.398
11
123.524
21
-117.327
0
LINE
8
BLACK
6
CONTINUOUS
10
123.524
20
-117.327
11
123.542
21
-117.311
0
LINE
8
BLACK
6
CONTINUOUS
10
123.542
20
-117.311
11
123.563
21
-117.299
0
LINE
8
BLACK
6
CONTINUOUS
10
123.563
20
-117.299
11
123.634
21
-117.228
0
LINE
8
BLACK
6
CONTINUOUS
10
123.634
20
-117.228
11
123.646
21
-117.207
0
LINE
8
BLACK
6
CONTINUOUS
10
123.646
20
-117.207
11
123.662
21
-117.189
0
LINE
8
BLACK
6
CONTINUOUS
10
123.662
20
-117.189
11
123.734
21
-117.046
0
LINE
8
BLACK
6
CONTINUOUS
10
123.734
20
-117.046
11
123.741
21
-117.012
0
LINE
8
BLACK
6
CONTINUOUS
10
123.741
20
-117.012
11
123.749
21
-116.979
0
LINE
8
BLACK
6
CONTINUOUS
10
123.749
20
-116.979
11
123.749
21
-116.55
0
LINE
8
BLACK
6
CONTINUOUS
10
123.749
20
-116.55
11
123.741
21
-116.517
0
LINE
8
BLACK
6
CONTINUOUS
10
123.741
20
-116.517
11
123.734
21
-116.483
0
LINE
8
BLACK
6
CONTINUOUS
10
123.734
20
-116.483
11
123.662
21
-116.34
0
LINE
8
BLACK
6
CONTINUOUS
10
123.662
20
-116.34
11
123.646
21
-116.322
0
LINE
8
BLACK
6
CONTINUOUS
10
123.646
20
-116.322
11
123.634
21
-116.301
0
LINE
8
BLACK
6
CONTINUOUS
10
123.634
20
-116.301
11
123.563
21
-116.23
0
LINE
8
BLACK
6
CONTINUOUS
10
123.563
20
-116.23
11
123.542
21
-116.218
0
LINE
8
BLACK
6
CONTINUOUS
10
123.542
20
-116.218
11
123.524
21
-116.202
0
LINE
8
BLACK
6
CONTINUOUS
10
123.524
20
-116.202
11
123.381
21
-116.13
0
LINE
8
BLACK
6
CONTINUOUS
10
123.381
20
-116.13
11
123.347
21
-116.123
0
LINE
8
BLACK
6
CONTINUOUS
10
123.347
20
-116.123
11
123.314
21
-116.114
0
LINE
8
BLACK
6
CONTINUOUS
10
123.314
20
-116.114
11
123.099
21
-116.114
0
LINE
8
BLACK
6
CONTINUOUS
10
123.099
20
-116.114
11
123.066
21
-116.123
0
LINE
8
BLACK
6
CONTINUOUS
10
125.236
20
-115.616
11
125.229
21
-115.615
0
LINE
8
BLACK
6
CONTINUOUS
10
125.229
20
-115.615
11
125.199
21
-115.626
0
LINE
8
BLACK
6
CONTINUOUS
10
125.199
20
-115.626
11
125.167
21
-115.634
0
LINE
8
BLACK
6
CONTINUOUS
10
125.167
20
-115.634
11
125.163
21
-115.639
0
LINE
8
BLACK
6
CONTINUOUS
10
125.163
20
-115.639
11
125.156
21
-115.641
0
LINE
8
BLACK
6
CONTINUOUS
10
125.156
20
-115.641
11
125.135
21
-115.666
0
LINE
8
BLACK
6
CONTINUOUS
10
125.135
20
-115.666
11
125.112
21
-115.689
0
LINE
8
BLACK
6
CONTINUOUS
10
125.112
20
-115.689
11
125.111
21
-115.696
0
LINE
8
BLACK
6
CONTINUOUS
10
125.111
20
-115.696
11
125.106
21
-115.701
0
LINE
8
BLACK
6
CONTINUOUS
10
125.106
20
-115.701
11
124.742
21
-116.481
0
LINE
8
BLACK
6
CONTINUOUS
10
124.742
20
-116.481
11
124.378
21
-115.701
0
LINE
8
BLACK
6
CONTINUOUS
10
124.378
20
-115.701
11
124.374
21
-115.696
0
LINE
8
BLACK
6
CONTINUOUS
10
124.374
20
-115.696
11
124.372
21
-115.689
0
LINE
8
BLACK
6
CONTINUOUS
10
124.372
20
-115.689
11
124.349
21
-115.666
0
LINE
8
BLACK
6
CONTINUOUS
10
124.349
20
-115.666
11
124.328
21
-115.641
0
LINE
8
BLACK
6
CONTINUOUS
10
124.328
20
-115.641
11
124.322
21
-115.639
0
LINE
8
BLACK
6
CONTINUOUS
10
124.322
20
-115.639
11
124.317
21
-115.634
0
LINE
8
BLACK
6
CONTINUOUS
10
124.317
20
-115.634
11
124.286
21
-115.626
0
LINE
8
BLACK
6
CONTINUOUS
10
124.286
20
-115.626
11
124.255
21
-115.615
0
LINE
8
BLACK
6
CONTINUOUS
10
124.255
20
-115.615
11
124.249
21
-115.616
0
LINE
8
BLACK
6
CONTINUOUS
10
124.249
20
-115.616
11
124.242
21
-115.614
0
LINE
8
BLACK
6
CONTINUOUS
10
124.242
20
-115.614
11
124.211
21
-115.623
0
LINE
8
BLACK
6
CONTINUOUS
10
124.211
20
-115.623
11
124.179
21
-115.628
0
LINE
8
BLACK
6
CONTINUOUS
10
124.179
20
-115.628
11
124.174
21
-115.633
0
LINE
8
BLACK
6
CONTINUOUS
10
124.174
20
-115.633
11
124.167
21
-115.634
0
LINE
8
BLACK
6
CONTINUOUS
10
124.167
20
-115.634
11
124.144
21
-115.657
0
LINE
8
BLACK
6
CONTINUOUS
10
124.144
20
-115.657
11
124.119
21
-115.678
0
LINE
8
BLACK
6
CONTINUOUS
10
124.119
20
-115.678
11
124.117
21
-115.685
0
LINE
8
BLACK
6
CONTINUOUS
10
124.117
20
-115.685
11
124.112
21
-115.689
0
LINE
8
BLACK
6
CONTINUOUS
10
124.112
20
-115.689
11
124.104
21
-115.721
0
LINE
8
BLACK
6
CONTINUOUS
10
124.104
20
-115.721
11
124.093
21
-115.751
0
LINE
8
BLACK
6
CONTINUOUS
10
124.093
20
-115.751
11
124.094
21
-115.758
0
LINE
8
BLACK
6
CONTINUOUS
10
124.094
20
-115.758
11
124.092
21
-115.764
0
LINE
8
BLACK
6
CONTINUOUS
10
124.092
20
-115.764
11
124.092
21
-117.264
0
LINE
8
BLACK
6
CONTINUOUS
10
124.092
20
-117.264
11
124.112
21
-117.339
0
LINE
8
BLACK
6
CONTINUOUS
10
124.112
20
-117.339
11
124.167
21
-117.394
0
LINE
8
BLACK
6
CONTINUOUS
10
124.167
20
-117.394
11
124.242
21
-117.414
0
LINE
8
BLACK
6
CONTINUOUS
10
124.242
20
-117.414
11
124.317
21
-117.394
0
LINE
8
BLACK
6
CONTINUOUS
10
124.317
20
-117.394
11
124.372
21
-117.339
0
LINE
8
BLACK
6
CONTINUOUS
10
124.372
20
-117.339
11
124.392
21
-117.264
0
LINE
8
BLACK
6
CONTINUOUS
10
124.392
20
-117.264
11
124.392
21
-116.44
0
LINE
8
BLACK
6
CONTINUOUS
10
124.392
20
-116.44
11
124.606
21
-116.899
0
LINE
8
BLACK
6
CONTINUOUS
10
124.606
20
-116.899
11
124.615
21
-116.909
0
LINE
8
BLACK
6
CONTINUOUS
10
124.615
20
-116.909
11
124.619
21
-116.922
0
LINE
8
BLACK
6
CONTINUOUS
10
124.619
20
-116.922
11
124.639
21
-116.939
0
LINE
8
BLACK
6
CONTINUOUS
10
124.639
20
-116.939
11
124.656
21
-116.959
0
LINE
8
BLACK
6
CONTINUOUS
10
124.656
20
-116.959
11
124.669
21
-116.963
0
LINE
8
BLACK
6
CONTINUOUS
10
124.669
20
-116.963
11
124.679
21
-116.972
0
LINE
8
BLACK
6
CONTINUOUS
10
124.679
20
-116.972
11
124.705
21
-116.976
0
LINE
8
BLACK
6
CONTINUOUS
10
124.705
20
-116.976
11
124.729
21
-116.985
0
LINE
8
BLACK
6
CONTINUOUS
10
124.729
20
-116.985
11
124.742
21
-116.983
0
LINE
8
BLACK
6
CONTINUOUS
10
124.742
20
-116.983
11
124.755
21
-116.985
0
LINE
8
BLACK
6
CONTINUOUS
10
124.755
20
-116.985
11
124.78
21
-116.976
0
LINE
8
BLACK
6
CONTINUOUS
10
124.78
20
-116.976
11
124.806
21
-116.972
0
LINE
8
BLACK
6
CONTINUOUS
10
124.806
20
-116.972
11
124.816
21
-116.963
0
LINE
8
BLACK
6
CONTINUOUS
10
124.816
20
-116.963
11
124.828
21
-116.959
0
LINE
8
BLACK
6
CONTINUOUS
10
124.828
20
-116.959
11
124.845
21
-116.939
0
LINE
8
BLACK
6
CONTINUOUS
10
124.845
20
-116.939
11
124.865
21
-116.922
0
LINE
8
BLACK
6
CONTINUOUS
10
124.865
20
-116.922
11
124.87
21
-116.909
0
LINE
8
BLACK
6
CONTINUOUS
10
124.87
20
-116.909
11
124.878
21
-116.899
0
LINE
8
BLACK
6
CONTINUOUS
10
124.878
20
-116.899
11
125.092
21
-116.44
0
LINE
8
BLACK
6
CONTINUOUS
10
125.092
20
-116.44
11
125.092
21
-117.264
0
LINE
8
BLACK
6
CONTINUOUS
10
125.092
20
-117.264
11
125.112
21
-117.339
0
LINE
8
BLACK
6
CONTINUOUS
10
125.112
20
-117.339
11
125.167
21
-117.394
0
LINE
8
BLACK
6
CONTINUOUS
10
125.167
20
-117.394
11
125.242
21
-117.414
0
LINE
8
BLACK
6
CONTINUOUS
10
125.242
20
-117.414
11
125.317
21
-117.394
0
LINE
8
BLACK
6
CONTINUOUS
10
125.317
20
-117.394
11
125.372
21
-117.339
0
LINE
8
BLACK
6
CONTINUOUS
10
125.372
20
-117.339
11
125.392
21
-117.264
0
LINE
8
BLACK
6
CONTINUOUS
10
125.392
20
-117.264
11
125.392
21
-115.764
0
LINE
8
BLACK
6
CONTINUOUS
10
125.392
20
-115.764
11
125.391
21
-115.758
0
LINE
8
BLACK
6
CONTINUOUS
10
125.391
20
-115.758
11
125.392
21
-115.751
0
LINE
8
BLACK
6
CONTINUOUS
10
125.392
20
-115.751
11
125.381
21
-115.721
0
LINE
8
BLACK
6
CONTINUOUS
10
125.381
20
-115.721
11
125.372
21
-115.689
0
LINE
8
BLACK
6
CONTINUOUS
10
125.372
20
-115.689
11
125.367
21
-115.685
0
LINE
8
BLACK
6
CONTINUOUS
10
125.367
20
-115.685
11
125.365
21
-115.678
0
LINE
8
BLACK
6
CONTINUOUS
10
125.365
20
-115.678
11
125.34
21
-115.657
0
LINE
8
BLACK
6
CONTINUOUS
10
125.34
20
-115.657
11
125.317
21
-115.634
0
LINE
8
BLACK
6
CONTINUOUS
10
125.317
20
-115.634
11
125.311
21
-115.633
0
LINE
8
BLACK
6
CONTINUOUS
10
125.311
20
-115.633
11
125.306
21
-115.628
0
LINE
8
BLACK
6
CONTINUOUS
10
125.306
20
-115.628
11
125.274
21
-115.623
0
LINE
8
BLACK
6
CONTINUOUS
10
125.274
20
-115.623
11
125.242
21
-115.614
0
LINE
8
BLACK
6
CONTINUOUS
10
125.242
20
-115.614
11
125.236
21
-115.616
0
LINE
8
BLACK
6
CONTINUOUS
10
126.81
20
-116.134
11
126.755
21
-116.189
0
LINE
8
BLACK
6
CONTINUOUS
10
126.755
20
-116.189
11
126.735
21
-116.264
0
LINE
8
BLACK
6
CONTINUOUS
10
126.735
20
-116.264
11
126.755
21
-116.339
0
LINE
8
BLACK
6
CONTINUOUS
10
126.755
20
-116.339
11
126.81
21
-116.394
0
LINE
8
BLACK
6
CONTINUOUS
10
126.81
20
-116.394
11
126.885
21
-116.414
0
LINE
8
BLACK
6
CONTINUOUS
10
126.885
20
-116.414
11
126.993
21
-116.414
0
LINE
8
BLACK
6
CONTINUOUS
10
126.993
20
-116.414
11
127.082
21
-116.459
0
LINE
8
BLACK
6
CONTINUOUS
10
127.082
20
-116.459
11
127.119
21
-116.496
0
LINE
8
BLACK
6
CONTINUOUS
10
127.119
20
-116.496
11
127.164
21
-116.585
0
LINE
8
BLACK
6
CONTINUOUS
10
127.164
20
-116.585
11
127.164
21
-117.264
0
LINE
8
BLACK
6
CONTINUOUS
10
127.164
20
-117.264
11
127.184
21
-117.339
0
LINE
8
BLACK
6
CONTINUOUS
10
127.184
20
-117.339
11
127.239
21
-117.394
0
LINE
8
BLACK
6
CONTINUOUS
10
127.239
20
-117.394
11
127.314
21
-117.414
0
LINE
8
BLACK
6
CONTINUOUS
10
127.314
20
-117.414
11
127.389
21
-117.394
0
LINE
8
BLACK
6
CONTINUOUS
10
127.389
20
-117.394
11
127.444
21
-117.339
0
LINE
8
BLACK
6
CONTINUOUS
10
127.444
20
-117.339
11
127.464
21
-117.264
0
LINE
8
BLACK
6
CONTINUOUS
10
127.464
20
-117.264
11
127.464
21
-116.264
0
LINE
8
BLACK
6
CONTINUOUS
10
127.464
20
-116.264
11
127.444
21
-116.189
0
LINE
8
BLACK
6
CONTINUOUS
10
127.444
20
-116.189
11
127.389
21
-116.134
0
LINE
8
BLACK
6
CONTINUOUS
10
127.389
20
-116.134
11
127.314
21
-116.114
0
LINE
8
BLACK
6
CONTINUOUS
10
127.314
20
-116.114
11
127.239
21
-116.134
0
LINE
8
BLACK
6
CONTINUOUS
10
127.239
20
-116.134
11
127.194
21
-116.179
0
LINE
8
BLACK
6
CONTINUOUS
10
127.194
20
-116.179
11
127.095
21
-116.13
0
LINE
8
BLACK
6
CONTINUOUS
10
127.095
20
-116.13
11
127.061
21
-116.123
0
LINE
8
BLACK
6
CONTINUOUS
10
127.061
20
-116.123
11
127.028
21
-116.114
0
LINE
8
BLACK
6
CONTINUOUS
10
127.028
20
-116.114
11
126.885
21
-116.114
0
LINE
8
BLACK
6
CONTINUOUS
10
126.885
20
-116.114
11
126.81
21
-116.134
0
LINE
8
BLACK
6
CONTINUOUS
10
128.209
20
-116.123
11
128.175
21
-116.13
0
LINE
8
BLACK
6
CONTINUOUS
10
128.175
20
-116.13
11
128.032
21
-116.202
0
LINE
8
BLACK
6
CONTINUOUS
10
128.032
20
-116.202
11
128.014
21
-116.218
0
LINE
8
BLACK
6
CONTINUOUS
10
128.014
20
-116.218
11
127.993
21
-116.23
0
LINE
8
BLACK
6
CONTINUOUS
10
127.993
20
-116.23
11
127.922
21
-116.301
0
LINE
8
BLACK
6
CONTINUOUS
10
127.922
20
-116.301
11
127.91
21
-116.322
0
LINE
8
BLACK
6
CONTINUOUS
10
127.91
20
-116.322
11
127.894
21
-116.34
0
LINE
8
BLACK
6
CONTINUOUS
10
127.894
20
-116.34
11
127.822
21
-116.483
0
LINE
8
BLACK
6
CONTINUOUS
10
127.822
20
-116.483
11
127.815
21
-116.517
0
LINE
8
BLACK
6
CONTINUOUS
10
127.815
20
-116.517
11
127.807
21
-116.55
0
LINE
8
BLACK
6
CONTINUOUS
10
127.807
20
-116.55
11
127.807
21
-116.979
0
LINE
8
BLACK
6
CONTINUOUS
10
127.807
20
-116.979
11
127.815
21
-117.012
0
LINE
8
BLACK
6
CONTINUOUS
10
127.815
20
-117.012
11
127.822
21
-117.046
0
LINE
8
BLACK
6
CONTINUOUS
10
127.822
20
-117.046
11
127.894
21
-117.189
0
LINE
8
BLACK
6
CONTINUOUS
10
127.894
20
-117.189
11
127.91
21
-117.207
0
LINE
8
BLACK
6
CONTINUOUS
10
127.91
20
-117.207
11
127.922
21
-117.228
0
LINE
8
BLACK
6
CONTINUOUS
10
127.922
20
-117.228
11
127.993
21
-117.299
0
LINE
8
BLACK
6
CONTINUOUS
10
127.993
20
-117.299
11
128.014
21
-117.311
0
LINE
8
BLACK
6
CONTINUOUS
10
128.014
20
-117.311
11
128.032
21
-117.327
0
LINE
8
BLACK
6
CONTINUOUS
10
128.032
20
-117.327
11
128.175
21
-117.398
0
LINE
8
BLACK
6
CONTINUOUS
10
128.175
20
-117.398
11
128.209
21
-117.405
0
LINE
8
BLACK
6
CONTINUOUS
10
128.209
20
-117.405
11
128.242
21
-117.414
0
LINE
8
BLACK
6
CONTINUOUS
10
128.242
20
-117.414
11
128.457
21
-117.414
0
LINE
8
BLACK
6
CONTINUOUS
10
128.457
20
-117.414
11
128.49
21
-117.405
0
LINE
8
BLACK
6
CONTINUOUS
10
128.49
20
-117.405
11
128.524
21
-117.398
0
LINE
8
BLACK
6
CONTINUOUS
10
128.524
20
-117.398
11
128.667
21
-117.327
0
LINE
8
BLACK
6
CONTINUOUS
10
128.667
20
-117.327
11
128.685
21
-117.311
0
LINE
8
BLACK
6
CONTINUOUS
10
128.685
20
-117.311
11
128.705
21
-117.299
0
LINE
8
BLACK
6
CONTINUOUS
10
128.705
20
-117.299
11
128.777
21
-117.228
0
LINE
8
BLACK
6
CONTINUOUS
10
128.777
20
-117.228
11
128.789
21
-117.207
0
LINE
8
BLACK
6
CONTINUOUS
10
128.789
20
-117.207
11
128.805
21
-117.189
0
LINE
8
BLACK
6
CONTINUOUS
10
128.805
20
-117.189
11
128.876
21
-117.046
0
LINE
8
BLACK
6
CONTINUOUS
10
128.876
20
-117.046
11
128.883
21
-117.012
0
LINE
8
BLACK
6
CONTINUOUS
10
128.883
20
-117.012
11
128.892
21
-116.979
0
LINE
8
BLACK
6
CONTINUOUS
10
128.892
20
-116.979
11
128.892
21
-116.55
0
LINE
8
BLACK
6
CONTINUOUS
10
128.892
20
-116.55
11
128.883
21
-116.517
0
LINE
8
BLACK
6
CONTINUOUS
10
128.883
20
-116.517
11
128.876
21
-116.483
0
LINE
8
BLACK
6
CONTINUOUS
10
128.876
20
-116.483
11
128.805
21
-116.34
0
LINE
8
BLACK
6
CONTINUOUS
10
128.805
20
-116.34
11
128.789
21
-116.322
0
LINE
8
BLACK
6
CONTINUOUS
10
128.789
20
-116.322
11
128.777
21
-116.301
0
LINE
8
BLACK
6
CONTINUOUS
10
128.777
20
-116.301
11
128.705
21
-116.23
0
LINE
8
BLACK
6
CONTINUOUS
10
128.705
20
-116.23
11
128.685
21
-116.218
0
LINE
8
BLACK
6
CONTINUOUS
10
128.685
20
-116.218
11
128.667
21
-116.202
0
LINE
8
BLACK
6
CONTINUOUS
10
128.667
20
-116.202
11
128.524
21
-116.13
0
LINE
8
BLACK
6
CONTINUOUS
10
128.524
20
-116.13
11
128.49
21
-116.123
0
LINE
8
BLACK
6
CONTINUOUS
10
128.49
20
-116.123
11
128.457
21
-116.114
0
LINE
8
BLACK
6
CONTINUOUS
10
128.457
20
-116.114
11
128.242
21
-116.114
0
LINE
8
BLACK
6
CONTINUOUS
10
128.242
20
-116.114
11
128.209
21
-116.123
0
LINE
8
BLACK
6
CONTINUOUS
10
129.495
20
-116.123
11
129.461
21
-116.13
0
LINE
8
BLACK
6
CONTINUOUS
10
129.461
20
-116.13
11
129.318
21
-116.202
0
LINE
8
BLACK
6
CONTINUOUS
10
129.318
20
-116.202
11
129.26
21
-116.253
0
LINE
8
BLACK
6
CONTINUOUS
10
129.26
20
-116.253
11
129.235
21
-116.327
0
LINE
8
BLACK
6
CONTINUOUS
10
129.235
20
-116.327
11
129.251
21
-116.403
0
LINE
8
BLACK
6
CONTINUOUS
10
129.251
20
-116.403
11
129.302
21
-116.461
0
LINE
8
BLACK
6
CONTINUOUS
10
129.302
20
-116.461
11
129.376
21
-116.485
0
LINE
8
BLACK
6
CONTINUOUS
10
129.376
20
-116.485
11
129.452
21
-116.47
0
LINE
8
BLACK
6
CONTINUOUS
10
129.452
20
-116.47
11
129.563
21
-116.414
0
LINE
8
BLACK
6
CONTINUOUS
10
129.563
20
-116.414
11
129.707
21
-116.414
0
LINE
8
BLACK
6
CONTINUOUS
10
129.707
20
-116.414
11
129.773
21
-116.448
0
LINE
8
BLACK
6
CONTINUOUS
10
129.773
20
-116.448
11
129.807
21
-116.514
0
LINE
8
BLACK
6
CONTINUOUS
10
129.807
20
-116.514
11
129.807
21
-116.515
0
LINE
8
BLACK
6
CONTINUOUS
10
129.807
20
-116.515
11
129.773
21
-116.581
0
LINE
8
BLACK
6
CONTINUOUS
10
129.773
20
-116.581
11
129.707
21
-116.614
0
LINE
8
BLACK
6
CONTINUOUS
10
129.707
20
-116.614
11
129.528
21
-116.614
0
LINE
8
BLACK
6
CONTINUOUS
10
129.528
20
-116.614
11
129.495
21
-116.623
0
LINE
8
BLACK
6
CONTINUOUS
10
129.495
20
-116.623
11
129.461
21
-116.63
0
LINE
8
BLACK
6
CONTINUOUS
10
129.461
20
-116.63
11
129.318
21
-116.702
0
LINE
8
BLACK
6
CONTINUOUS
10
129.318
20
-116.702
11
129.311
21
-116.708
0
LINE
8
BLACK
6
CONTINUOUS
10
129.311
20
-116.708
11
129.302
21
-116.711
0
LINE
8
BLACK
6
CONTINUOUS
10
129.302
20
-116.711
11
129.283
21
-116.733
0
LINE
8
BLACK
6
CONTINUOUS
10
129.283
20
-116.733
11
129.26
21
-116.753
0
LINE
8
BLACK
6
CONTINUOUS
10
129.26
20
-116.753
11
129.257
21
-116.762
0
LINE
8
BLACK
6
CONTINUOUS
10
129.257
20
-116.762
11
129.251
21
-116.769
0
LINE
8
BLACK
6
CONTINUOUS
10
129.251
20
-116.769
11
129.18
21
-116.912
0
LINE
8
BLACK
6
CONTINUOUS
10
129.18
20
-116.912
11
129.173
21
-116.945
0
LINE
8
BLACK
6
CONTINUOUS
10
129.173
20
-116.945
11
129.164
21
-116.979
0
LINE
8
BLACK
6
CONTINUOUS
10
129.164
20
-116.979
11
129.164
21
-117.05
0
LINE
8
BLACK
6
CONTINUOUS
10
129.164
20
-117.05
11
129.173
21
-117.083
0
LINE
8
BLACK
6
CONTINUOUS
10
129.173
20
-117.083
11
129.18
21
-117.117
0
LINE
8
BLACK
6
CONTINUOUS
10
129.18
20
-117.117
11
129.251
21
-117.26
0
LINE
8
BLACK
6
CONTINUOUS
10
129.251
20
-117.26
11
129.257
21
-117.267
0
LINE
8
BLACK
6
CONTINUOUS
10
129.257
20
-117.267
11
129.26
21
-117.276
0
LINE
8
BLACK
6
CONTINUOUS
10
129.26
20
-117.276
11
129.283
21
-117.296
0
LINE
8
BLACK
6
CONTINUOUS
10
129.283
20
-117.296
11
129.302
21
-117.318
0
LINE
8
BLACK
6
CONTINUOUS
10
129.302
20
-117.318
11
129.311
21
-117.321
0
LINE
8
BLACK
6
CONTINUOUS
10
129.311
20
-117.321
11
129.318
21
-117.327
0
LINE
8
BLACK
6
CONTINUOUS
10
129.318
20
-117.327
11
129.461
21
-117.398
0
LINE
8
BLACK
6
CONTINUOUS
10
129.461
20
-117.398
11
129.495
21
-117.405
0
LINE
8
BLACK
6
CONTINUOUS
10
129.495
20
-117.405
11
129.528
21
-117.414
0
LINE
8
BLACK
6
CONTINUOUS
10
129.528
20
-117.414
11
129.814
21
-117.414
0
LINE
8
BLACK
6
CONTINUOUS
10
129.814
20
-117.414
11
129.847
21
-117.405
0
LINE
8
BLACK
6
CONTINUOUS
10
129.847
20
-117.405
11
129.881
21
-117.398
0
LINE
8
BLACK
6
CONTINUOUS
10
129.881
20
-117.398
11
130.024
21
-117.327
0
LINE
8
BLACK
6
CONTINUOUS
10
130.024
20
-117.327
11
130.082
21
-117.276
0
LINE
8
BLACK
6
CONTINUOUS
10
130.082
20
-117.276
11
130.106
21
-117.202
0
LINE
8
BLACK
6
CONTINUOUS
10
130.106
20
-117.202
11
130.091
21
-117.126
0
LINE
8
BLACK
6
CONTINUOUS
10
130.091
20
-117.126
11
130.039
21
-117.068
0
LINE
8
BLACK
6
CONTINUOUS
10
130.039
20
-117.068
11
129.966
21
-117.043
0
LINE
8
BLACK
6
CONTINUOUS
10
129.966
20
-117.043
11
129.889
21
-117.059
0
LINE
8
BLACK
6
CONTINUOUS
10
129.889
20
-117.059
11
129.778
21
-117.114
0
LINE
8
BLACK
6
CONTINUOUS
10
129.778
20
-117.114
11
129.563
21
-117.114
0
LINE
8
BLACK
6
CONTINUOUS
10
129.563
20
-117.114
11
129.497
21
-117.081
0
LINE
8
BLACK
6
CONTINUOUS
10
129.497
20
-117.081
11
129.464
21
-117.015
0
LINE
8
BLACK
6
CONTINUOUS
10
129.464
20
-117.015
11
129.464
21
-117.014
0
LINE
8
BLACK
6
CONTINUOUS
10
129.464
20
-117.014
11
129.497
21
-116.948
0
LINE
8
BLACK
6
CONTINUOUS
10
129.497
20
-116.948
11
129.563
21
-116.914
0
LINE
8
BLACK
6
CONTINUOUS
10
129.563
20
-116.914
11
129.742
21
-116.914
0
LINE
8
BLACK
6
CONTINUOUS
10
129.742
20
-116.914
11
129.776
21
-116.905
0
LINE
8
BLACK
6
CONTINUOUS
10
129.776
20
-116.905
11
129.809
21
-116.898
0
LINE
8
BLACK
6
CONTINUOUS
10
129.809
20
-116.898
11
129.952
21
-116.827
0
LINE
8
BLACK
6
CONTINUOUS
10
129.952
20
-116.827
11
129.959
21
-116.821
0
LINE
8
BLACK
6
CONTINUOUS
10
129.959
20
-116.821
11
129.968
21
-116.818
0
LINE
8
BLACK
6
CONTINUOUS
10
129.968
20
-116.818
11
129.988
21
-116.796
0
LINE
8
BLACK
6
CONTINUOUS
10
129.988
20
-116.796
11
130.01
21
-116.776
0
LINE
8
BLACK
6
CONTINUOUS
10
130.01
20
-116.776
11
130.013
21
-116.767
0
LINE
8
BLACK
6
CONTINUOUS
10
130.013
20
-116.767
11
130.019
21
-116.76
0
LINE
8
BLACK
6
CONTINUOUS
10
130.019
20
-116.76
11
130.091
21
-116.617
0
LINE
8
BLACK
6
CONTINUOUS
10
130.091
20
-116.617
11
130.098
21
-116.583
0
LINE
8
BLACK
6
CONTINUOUS
10
130.098
20
-116.583
11
130.107
21
-116.55
0
LINE
8
BLACK
6
CONTINUOUS
10
130.107
20
-116.55
11
130.107
21
-116.479
0
LINE
8
BLACK
6
CONTINUOUS
10
130.107
20
-116.479
11
130.098
21
-116.445
0
LINE
8
BLACK
6
CONTINUOUS
10
130.098
20
-116.445
11
130.091
21
-116.412
0
LINE
8
BLACK
6
CONTINUOUS
10
130.091
20
-116.412
11
130.019
21
-116.269
0
LINE
8
BLACK
6
CONTINUOUS
10
130.019
20
-116.269
11
130.013
21
-116.262
0
LINE
8
BLACK
6
CONTINUOUS
10
130.013
20
-116.262
11
130.01
21
-116.253
0
LINE
8
BLACK
6
CONTINUOUS
10
130.01
20
-116.253
11
129.988
21
-116.233
0
LINE
8
BLACK
6
CONTINUOUS
10
129.988
20
-116.233
11
129.968
21
-116.211
0
LINE
8
BLACK
6
CONTINUOUS
10
129.968
20
-116.211
11
129.959
21
-116.208
0
LINE
8
BLACK
6
CONTINUOUS
10
129.959
20
-116.208
11
129.952
21
-116.202
0
LINE
8
BLACK
6
CONTINUOUS
10
129.952
20
-116.202
11
129.809
21
-116.13
0
LINE
8
BLACK
6
CONTINUOUS
10
129.809
20
-116.13
11
129.776
21
-116.123
0
LINE
8
BLACK
6
CONTINUOUS
10
129.776
20
-116.123
11
129.742
21
-116.114
0
LINE
8
BLACK
6
CONTINUOUS
10
129.742
20
-116.114
11
129.528
21
-116.114
0
LINE
8
BLACK
6
CONTINUOUS
10
129.528
20
-116.114
11
129.495
21
-116.123
0
LINE
8
BLACK
6
CONTINUOUS
10
130.78
20
-116.123
11
130.747
21
-116.13
0
LINE
8
BLACK
6
CONTINUOUS
10
130.747
20
-116.13
11
130.604
21
-116.202
0
LINE
8
BLACK
6
CONTINUOUS
10
130.604
20
-116.202
11
130.597
21
-116.208
0
LINE
8
BLACK
6
CONTINUOUS
10
130.597
20
-116.208
11
130.588
21
-116.211
0
LINE
8
BLACK
6
CONTINUOUS
10
130.588
20
-116.211
11
130.568
21
-116.233
0
LINE
8
BLACK
6
CONTINUOUS
10
130.568
20
-116.233
11
130.546
21
-116.253
0
LINE
8
BLACK
6
CONTINUOUS
10
130.546
20
-116.253
11
130.543
21
-116.262
0
LINE
8
BLACK
6
CONTINUOUS
10
130.543
20
-116.262
11
130.537
21
-116.269
0
LINE
8
BLACK
6
CONTINUOUS
10
130.537
20
-116.269
11
130.465
21
-116.412
0
LINE
8
BLACK
6
CONTINUOUS
10
130.465
20
-116.412
11
130.458
21
-116.445
0
LINE
8
BLACK
6
CONTINUOUS
10
130.458
20
-116.445
11
130.449
21
-116.479
0
LINE
8
BLACK
6
CONTINUOUS
10
130.449
20
-116.479
11
130.449
21
-117.264
0
LINE
8
BLACK
6
CONTINUOUS
10
130.449
20
-117.264
11
130.47
21
-117.339
0
LINE
8
BLACK
6
CONTINUOUS
10
130.47
20
-117.339
11
130.524
21
-117.394
0
LINE
8
BLACK
6
CONTINUOUS
10
130.524
20
-117.394
11
130.599
21
-117.414
0
LINE
8
BLACK
6
CONTINUOUS
10
130.599
20
-117.414
11
130.674
21
-117.394
0
LINE
8
BLACK
6
CONTINUOUS
10
130.674
20
-117.394
11
130.729
21
-117.339
0
LINE
8
BLACK
6
CONTINUOUS
10
130.729
20
-117.339
11
130.749
21
-117.264
0
LINE
8
BLACK
6
CONTINUOUS
10
130.749
20
-117.264
11
130.749
21
-116.514
0
LINE
8
BLACK
6
CONTINUOUS
10
130.749
20
-116.514
11
130.783
21
-116.448
0
LINE
8
BLACK
6
CONTINUOUS
10
130.783
20
-116.448
11
130.849
21
-116.414
0
LINE
8
BLACK
6
CONTINUOUS
10
130.849
20
-116.414
11
130.993
21
-116.414
0
LINE
8
BLACK
6
CONTINUOUS
10
130.993
20
-116.414
11
131.082
21
-116.459
0
LINE
8
BLACK
6
CONTINUOUS
10
131.082
20
-116.459
11
131.092
21
-116.469
0
LINE
8
BLACK
6
CONTINUOUS
10
131.092
20
-116.469
11
131.092
21
-117.264
0
LINE
8
BLACK
6
CONTINUOUS
10
131.092
20
-117.264
11
131.112
21
-117.339
0
LINE
8
BLACK
6
CONTINUOUS
10
131.112
20
-117.339
11
131.167
21
-117.394
0
LINE
8
BLACK
6
CONTINUOUS
10
131.167
20
-117.394
11
131.242
21
-117.414
0
LINE
8
BLACK
6
CONTINUOUS
10
131.242
20
-117.414
11
131.317
21
-117.394
0
LINE
8
BLACK
6
CONTINUOUS
10
131.317
20
-117.394
11
131.372
21
-117.339
0
LINE
8
BLACK
6
CONTINUOUS
10
131.372
20
-117.339
11
131.392
21
-117.264
0
LINE
8
BLACK
6
CONTINUOUS
10
131.392
20
-117.264
11
131.392
21
-116.264
0
LINE
8
BLACK
6
CONTINUOUS
10
131.392
20
-116.264
11
131.372
21
-116.189
0
LINE
8
BLACK
6
CONTINUOUS
10
131.372
20
-116.189
11
131.317
21
-116.134
0
LINE
8
BLACK
6
CONTINUOUS
10
131.317
20
-116.134
11
131.242
21
-116.114
0
LINE
8
BLACK
6
CONTINUOUS
10
131.242
20
-116.114
11
131.167
21
-116.134
0
LINE
8
BLACK
6
CONTINUOUS
10
131.167
20
-116.134
11
131.146
21
-116.156
0
LINE
8
BLACK
6
CONTINUOUS
10
131.146
20
-116.156
11
131.095
21
-116.13
0
LINE
8
BLACK
6
CONTINUOUS
10
131.095
20
-116.13
11
131.061
21
-116.123
0
LINE
8
BLACK
6
CONTINUOUS
10
131.061
20
-116.123
11
131.028
21
-116.114
0
LINE
8
BLACK
6
CONTINUOUS
10
131.028
20
-116.114
11
130.814
21
-116.114
0
LINE
8
BLACK
6
CONTINUOUS
10
130.814
20
-116.114
11
130.78
21
-116.123
0
LINE
8
BLACK
6
CONTINUOUS
10
132.066
20
-116.123
11
132.032
21
-116.13
0
LINE
8
BLACK
6
CONTINUOUS
10
132.032
20
-116.13
11
131.889
21
-116.202
0
LINE
8
BLACK
6
CONTINUOUS
10
131.889
20
-116.202
11
131.883
21
-116.208
0
LINE
8
BLACK
6
CONTINUOUS
10
131.883
20
-116.208
11
131.874
21
-116.211
0
LINE
8
BLACK
6
CONTINUOUS
10
131.874
20
-116.211
11
131.854
21
-116.233
0
LINE
8
BLACK
6
CONTINUOUS
10
131.854
20
-116.233
11
131.831
21
-116.253
0
LINE
8
BLACK
6
CONTINUOUS
10
131.831
20
-116.253
11
131.828
21
-116.262
0
LINE
8
BLACK
6
CONTINUOUS
10
131.828
20
-116.262
11
131.822
21
-116.269
0
LINE
8
BLACK
6
CONTINUOUS
10
131.822
20
-116.269
11
131.751
21
-116.412
0
LINE
8
BLACK
6
CONTINUOUS
10
131.751
20
-116.412
11
131.744
21
-116.445
0
LINE
8
BLACK
6
CONTINUOUS
10
131.744
20
-116.445
11
131.735
21
-116.479
0
LINE
8
BLACK
6
CONTINUOUS
10
131.735
20
-116.479
11
131.735
21
-116.621
0
LINE
8
BLACK
6
CONTINUOUS
10
131.735
20
-116.621
11
131.741
21
-116.645
0
LINE
8
BLACK
6
CONTINUOUS
10
131.741
20
-116.645
11
131.743
21
-116.67
0
LINE
8
BLACK
6
CONTINUOUS
10
131.743
20
-116.67
11
131.751
21
-116.682
0
LINE
8
BLACK
6
CONTINUOUS
10
131.751
20
-116.682
11
131.755
21
-116.696
0
LINE
8
BLACK
6
CONTINUOUS
10
131.755
20
-116.696
11
131.773
21
-116.714
0
LINE
8
BLACK
6
CONTINUOUS
10
131.773
20
-116.714
11
131.786
21
-116.734
0
LINE
8
BLACK
6
CONTINUOUS
10
131.786
20
-116.734
11
131.8
21
-116.741
0
LINE
8
BLACK
6
CONTINUOUS
10
131.8
20
-116.741
11
131.81
21
-116.751
0
LINE
8
BLACK
6
CONTINUOUS
10
131.81
20
-116.751
11
131.834
21
-116.758
0
LINE
8
BLACK
6
CONTINUOUS
10
131.834
20
-116.758
11
131.856
21
-116.769
0
LINE
8
BLACK
6
CONTINUOUS
10
131.856
20
-116.769
11
132.449
21
-116.887
0
LINE
8
BLACK
6
CONTINUOUS
10
132.449
20
-116.887
11
132.449
21
-117.015
0
LINE
8
BLACK
6
CONTINUOUS
10
132.449
20
-117.015
11
132.416
21
-117.081
0
LINE
8
BLACK
6
CONTINUOUS
10
132.416
20
-117.081
11
132.35
21
-117.114
0
LINE
8
BLACK
6
CONTINUOUS
10
132.35
20
-117.114
11
132.135
21
-117.114
0
LINE
8
BLACK
6
CONTINUOUS
10
132.135
20
-117.114
11
132.024
21
-117.059
0
LINE
8
BLACK
6
CONTINUOUS
10
132.024
20
-117.059
11
131.948
21
-117.043
0
LINE
8
BLACK
6
CONTINUOUS
10
131.948
20
-117.043
11
131.874
21
-117.068
0
LINE
8
BLACK
6
CONTINUOUS
10
131.874
20
-117.068
11
131.822
21
-117.126
0
LINE
8
BLACK
6
CONTINUOUS
10
131.822
20
-117.126
11
131.807
21
-117.202
0
LINE
8
BLACK
6
CONTINUOUS
10
131.807
20
-117.202
11
131.831
21
-117.276
0
LINE
8
BLACK
6
CONTINUOUS
10
131.831
20
-117.276
11
131.889
21
-117.327
0
LINE
8
BLACK
6
CONTINUOUS
10
131.889
20
-117.327
11
132.032
21
-117.398
0
LINE
8
BLACK
6
CONTINUOUS
10
132.032
20
-117.398
11
132.066
21
-117.405
0
LINE
8
BLACK
6
CONTINUOUS
10
132.066
20
-117.405
11
132.099
21
-117.414
0
LINE
8
BLACK
6
CONTINUOUS
10
132.099
20
-117.414
11
132.385
21
-117.414
0
LINE
8
BLACK
6
CONTINUOUS
10
132.385
20
-117.414
11
132.418
21
-117.405
0
LINE
8
BLACK
6
CONTINUOUS
10
132.418
20
-117.405
11
132.452
21
-117.398
0
LINE
8
BLACK
6
CONTINUOUS
10
132.452
20
-117.398
11
132.595
21
-117.327
0
LINE
8
BLACK
6
CONTINUOUS
10
132.595
20
-117.327
11
132.602
21
-117.321
0
LINE
8
BLACK
6
CONTINUOUS
10
132.602
20
-117.321
11
132.611
21
-117.318
0
LINE
8
BLACK
6
CONTINUOUS
10
132.611
20
-117.318
11
132.631
21
-117.296
0
LINE
8
BLACK
6
CONTINUOUS
10
132.631
20
-117.296
11
132.653
21
-117.276
0
LINE
8
BLACK
6
CONTINUOUS
10
132.653
20
-117.276
11
132.656
21
-117.267
0
LINE
8
BLACK
6
CONTINUOUS
10
132.656
20
-117.267
11
132.662
21
-117.26
0
LINE
8
BLACK
6
CONTINUOUS
10
132.662
20
-117.26
11
132.734
21
-117.117
0
LINE
8
BLACK
6
CONTINUOUS
10
132.734
20
-117.117
11
132.741
21
-117.083
0
LINE
8
BLACK
6
CONTINUOUS
10
132.741
20
-117.083
11
132.749
21
-117.05
0
LINE
8
BLACK
6
CONTINUOUS
10
132.749
20
-117.05
11
132.749
21
-116.479
0
LINE
8
BLACK
6
CONTINUOUS
10
132.749
20
-116.479
11
132.741
21
-116.445
0
LINE
8
BLACK
6
CONTINUOUS
10
132.741
20
-116.445
11
132.734
21
-116.412
0
LINE
8
BLACK
6
CONTINUOUS
10
132.734
20
-116.412
11
132.662
21
-116.269
0
LINE
8
BLACK
6
CONTINUOUS
10
132.662
20
-116.269
11
132.656
21
-116.262
0
LINE
8
BLACK
6
CONTINUOUS
10
132.656
20
-116.262
11
132.653
21
-116.253
0
LINE
8
BLACK
6
CONTINUOUS
10
132.653
20
-116.253
11
132.631
21
-116.233
0
LINE
8
BLACK
6
CONTINUOUS
10
132.631
20
-116.233
11
132.611
21
-116.211
0
LINE
8
BLACK
6
CONTINUOUS
10
132.611
20
-116.211
11
132.602
21
-116.208
0
LINE
8
BLACK
6
CONTINUOUS
10
132.602
20
-116.208
11
132.595
21
-116.202
0
LINE
8
BLACK
6
CONTINUOUS
10
132.595
20
-116.202
11
132.452
21
-116.13
0
LINE
8
BLACK
6
CONTINUOUS
10
132.452
20
-116.13
11
132.418
21
-116.123
0
LINE
8
BLACK
6
CONTINUOUS
10
132.418
20
-116.123
11
132.385
21
-116.114
0
LINE
8
BLACK
6
CONTINUOUS
10
132.385
20
-116.114
11
132.099
21
-116.114
0
LINE
8
BLACK
6
CONTINUOUS
10
132.099
20
-116.114
11
132.066
21
-116.123
0
LINE
8
BLACK
6
CONTINUOUS
10
133.362
20
-115.621
11
133.338
21
-115.622
0
LINE
8
BLACK
6
CONTINUOUS
10
133.338
20
-115.622
11
133.123
21
-115.693
0
LINE
8
BLACK
6
CONTINUOUS
10
133.123
20
-115.693
11
133.059
21
-115.736
0
LINE
8
BLACK
6
CONTINUOUS
10
133.059
20
-115.736
11
133.024
21
-115.806
0
LINE
8
BLACK
6
CONTINUOUS
10
133.024
20
-115.806
11
133.029
21
-115.883
0
LINE
8
BLACK
6
CONTINUOUS
10
133.029
20
-115.883
11
133.071
21
-115.948
0
LINE
8
BLACK
6
CONTINUOUS
10
133.071
20
-115.948
11
133.141
21
-115.983
0
LINE
8
BLACK
6
CONTINUOUS
10
133.141
20
-115.983
11
133.218
21
-115.978
0
LINE
8
BLACK
6
CONTINUOUS
10
133.218
20
-115.978
11
133.409
21
-115.914
0
LINE
8
BLACK
6
CONTINUOUS
10
133.409
20
-115.914
11
133.707
21
-115.914
0
LINE
8
BLACK
6
CONTINUOUS
10
133.707
20
-115.914
11
133.796
21
-115.959
0
LINE
8
BLACK
6
CONTINUOUS
10
133.796
20
-115.959
11
133.833
21
-115.996
0
LINE
8
BLACK
6
CONTINUOUS
10
133.833
20
-115.996
11
133.878
21
-116.085
0
LINE
8
BLACK
6
CONTINUOUS
10
133.878
20
-116.085
11
133.878
21
-116.157
0
LINE
8
BLACK
6
CONTINUOUS
10
133.878
20
-116.157
11
133.833
21
-116.247
0
LINE
8
BLACK
6
CONTINUOUS
10
133.833
20
-116.247
11
133.796
21
-116.284
0
LINE
8
BLACK
6
CONTINUOUS
10
133.796
20
-116.284
11
133.69
21
-116.337
0
LINE
8
BLACK
6
CONTINUOUS
10
133.69
20
-116.337
11
133.42
21
-116.405
0
LINE
8
BLACK
6
CONTINUOUS
10
133.42
20
-116.405
11
133.406
21
-116.413
0
LINE
8
BLACK
6
CONTINUOUS
10
133.406
20
-116.413
11
133.389
21
-116.416
0
LINE
8
BLACK
6
CONTINUOUS
10
133.389
20
-116.416
11
133.247
21
-116.487
0
LINE
8
BLACK
6
CONTINUOUS
10
133.247
20
-116.487
11
133.229
21
-116.503
0
LINE
8
BLACK
6
CONTINUOUS
10
133.229
20
-116.503
11
133.208
21
-116.515
0
LINE
8
BLACK
6
CONTINUOUS
10
133.208
20
-116.515
11
133.136
21
-116.587
0
LINE
8
BLACK
6
CONTINUOUS
10
133.136
20
-116.587
11
133.124
21
-116.608
0
LINE
8
BLACK
6
CONTINUOUS
10
133.124
20
-116.608
11
133.108
21
-116.626
0
LINE
8
BLACK
6
CONTINUOUS
10
133.108
20
-116.626
11
133.037
21
-116.769
0
LINE
8
BLACK
6
CONTINUOUS
10
133.037
20
-116.769
11
133.03
21
-116.802
0
LINE
8
BLACK
6
CONTINUOUS
10
133.03
20
-116.802
11
133.021
21
-116.836
0
LINE
8
BLACK
6
CONTINUOUS
10
133.021
20
-116.836
11
133.021
21
-116.979
0
LINE
8
BLACK
6
CONTINUOUS
10
133.021
20
-116.979
11
133.03
21
-117.012
0
LINE
8
BLACK
6
CONTINUOUS
10
133.03
20
-117.012
11
133.037
21
-117.046
0
LINE
8
BLACK
6
CONTINUOUS
10
133.037
20
-117.046
11
133.108
21
-117.189
0
LINE
8
BLACK
6
CONTINUOUS
10
133.108
20
-117.189
11
133.124
21
-117.207
0
LINE
8
BLACK
6
CONTINUOUS
10
133.124
20
-117.207
11
133.136
21
-117.228
0
LINE
8
BLACK
6
CONTINUOUS
10
133.136
20
-117.228
11
133.208
21
-117.299
0
LINE
8
BLACK
6
CONTINUOUS
10
133.208
20
-117.299
11
133.229
21
-117.311
0
LINE
8
BLACK
6
CONTINUOUS
10
133.229
20
-117.311
11
133.247
21
-117.327
0
LINE
8
BLACK
6
CONTINUOUS
10
133.247
20
-117.327
11
133.389
21
-117.398
0
LINE
8
BLACK
6
CONTINUOUS
10
133.389
20
-117.398
11
133.423
21
-117.405
0
LINE
8
BLACK
6
CONTINUOUS
10
133.423
20
-117.405
11
133.457
21
-117.414
0
LINE
8
BLACK
6
CONTINUOUS
10
133.457
20
-117.414
11
133.814
21
-117.414
0
LINE
8
BLACK
6
CONTINUOUS
10
133.814
20
-117.414
11
133.837
21
-117.408
0
LINE
8
BLACK
6
CONTINUOUS
10
133.837
20
-117.408
11
133.861
21
-117.407
0
LINE
8
BLACK
6
CONTINUOUS
10
133.861
20
-117.407
11
134.075
21
-117.335
0
LINE
8
BLACK
6
CONTINUOUS
10
134.075
20
-117.335
11
134.14
21
-117.292
0
LINE
8
BLACK
6
CONTINUOUS
10
134.14
20
-117.292
11
134.175
21
-117.223
0
LINE
8
BLACK
6
CONTINUOUS
10
134.175
20
-117.223
11
134.17
21
-117.145
0
LINE
8
BLACK
6
CONTINUOUS
10
134.17
20
-117.145
11
134.128
21
-117.081
0
LINE
8
BLACK
6
CONTINUOUS
10
134.128
20
-117.081
11
134.058
21
-117.046
0
LINE
8
BLACK
6
CONTINUOUS
10
134.058
20
-117.046
11
133.981
21
-117.051
0
LINE
8
BLACK
6
CONTINUOUS
10
133.981
20
-117.051
11
133.789
21
-117.114
0
LINE
8
BLACK
6
CONTINUOUS
10
133.789
20
-117.114
11
133.492
21
-117.114
0
LINE
8
BLACK
6
CONTINUOUS
10
133.492
20
-117.114
11
133.403
21
-117.07
0
LINE
8
BLACK
6
CONTINUOUS
10
133.403
20
-117.07
11
133.366
21
-117.033
0
LINE
8
BLACK
6
CONTINUOUS
10
133.366
20
-117.033
11
133.321
21
-116.943
0
LINE
8
BLACK
6
CONTINUOUS
10
133.321
20
-116.943
11
133.321
21
-116.871
0
LINE
8
BLACK
6
CONTINUOUS
10
133.321
20
-116.871
11
133.366
21
-116.782
0
LINE
8
BLACK
6
CONTINUOUS
10
133.366
20
-116.782
11
133.403
21
-116.745
0
LINE
8
BLACK
6
CONTINUOUS
10
133.403
20
-116.745
11
133.509
21
-116.692
0
LINE
8
BLACK
6
CONTINUOUS
10
133.509
20
-116.692
11
133.779
21
-116.624
0
LINE
8
BLACK
6
CONTINUOUS
10
133.779
20
-116.624
11
133.793
21
-116.616
0
LINE
8
BLACK
6
CONTINUOUS
10
133.793
20
-116.616
11
133.809
21
-116.613
0
LINE
8
BLACK
6
CONTINUOUS
10
133.809
20
-116.613
11
133.952
21
-116.541
0
LINE
8
BLACK
6
CONTINUOUS
10
133.952
20
-116.541
11
133.97
21
-116.525
0
LINE
8
BLACK
6
CONTINUOUS
10
133.97
20
-116.525
11
133.991
21
-116.513
0
LINE
8
BLACK
6
CONTINUOUS
10
133.991
20
-116.513
11
134.063
21
-116.442
0
LINE
8
BLACK
6
CONTINUOUS
10
134.063
20
-116.442
11
134.075
21
-116.421
0
LINE
8
BLACK
6
CONTINUOUS
10
134.075
20
-116.421
11
134.091
21
-116.403
0
LINE
8
BLACK
6
CONTINUOUS
10
134.091
20
-116.403
11
134.162
21
-116.26
0
LINE
8
BLACK
6
CONTINUOUS
10
134.162
20
-116.26
11
134.169
21
-116.226
0
LINE
8
BLACK
6
CONTINUOUS
10
134.169
20
-116.226
11
134.178
21
-116.193
0
LINE
8
BLACK
6
CONTINUOUS
10
134.178
20
-116.193
11
134.178
21
-116.05
0
LINE
8
BLACK
6
CONTINUOUS
10
134.178
20
-116.05
11
134.169
21
-116.017
0
LINE
8
BLACK
6
CONTINUOUS
10
134.169
20
-116.017
11
134.162
21
-115.983
0
LINE
8
BLACK
6
CONTINUOUS
10
134.162
20
-115.983
11
134.091
21
-115.84
0
LINE
8
BLACK
6
CONTINUOUS
10
134.091
20
-115.84
11
134.075
21
-115.822
0
LINE
8
BLACK
6
CONTINUOUS
10
134.075
20
-115.822
11
134.063
21
-115.801
0
LINE
8
BLACK
6
CONTINUOUS
10
134.063
20
-115.801
11
133.991
21
-115.73
0
LINE
8
BLACK
6
CONTINUOUS
10
133.991
20
-115.73
11
133.97
21
-115.718
0
LINE
8
BLACK
6
CONTINUOUS
10
133.97
20
-115.718
11
133.952
21
-115.702
0
LINE
8
BLACK
6
CONTINUOUS
10
133.952
20
-115.702
11
133.809
21
-115.63
0
LINE
8
BLACK
6
CONTINUOUS
10
133.809
20
-115.63
11
133.776
21
-115.623
0
LINE
8
BLACK
6
CONTINUOUS
10
133.776
20
-115.623
11
133.742
21
-115.614
0
LINE
8
BLACK
6
CONTINUOUS
10
133.742
20
-115.614
11
133.385
21
-115.614
0
LINE
8
BLACK
6
CONTINUOUS
10
133.385
20
-115.614
11
133.362
21
-115.621
0
LINE
8
BLACK
6
CONTINUOUS
10
135.995
20
-115.623
11
135.961
21
-115.63
0
LINE
8
BLACK
6
CONTINUOUS
10
135.961
20
-115.63
11
135.818
21
-115.702
0
LINE
8
BLACK
6
CONTINUOUS
10
135.818
20
-115.702
11
135.8
21
-115.718
0
LINE
8
BLACK
6
CONTINUOUS
10
135.8
20
-115.718
11
135.779
21
-115.73
0
LINE
8
BLACK
6
CONTINUOUS
10
135.779
20
-115.73
11
135.708
21
-115.801
0
LINE
8
BLACK
6
CONTINUOUS
10
135.708
20
-115.801
11
135.696
21
-115.822
0
LINE
8
BLACK
6
CONTINUOUS
10
135.696
20
-115.822
11
135.68
21
-115.84
0
LINE
8
BLACK
6
CONTINUOUS
10
135.68
20
-115.84
11
135.608
21
-115.983
0
LINE
8
BLACK
6
CONTINUOUS
10
135.608
20
-115.983
11
135.601
21
-116.017
0
LINE
8
BLACK
6
CONTINUOUS
10
135.601
20
-116.017
11
135.592
21
-116.05
0
LINE
8
BLACK
6
CONTINUOUS
10
135.592
20
-116.05
11
135.592
21
-116.264
0
LINE
8
BLACK
6
CONTINUOUS
10
135.592
20
-116.264
11
135.601
21
-116.298
0
LINE
8
BLACK
6
CONTINUOUS
10
135.601
20
-116.298
11
135.608
21
-116.331
0
LINE
8
BLACK
6
CONTINUOUS
10
135.608
20
-116.331
11
135.68
21
-116.474
0
LINE
8
BLACK
6
CONTINUOUS
10
135.68
20
-116.474
11
135.696
21
-116.492
0
LINE
8
BLACK
6
CONTINUOUS
10
135.696
20
-116.492
11
135.708
21
-116.513
0
LINE
8
BLACK
6
CONTINUOUS
10
135.708
20
-116.513
11
135.779
21
-116.585
0
LINE
8
BLACK
6
CONTINUOUS
10
135.779
20
-116.585
11
135.8
21
-116.597
0
LINE
8
BLACK
6
CONTINUOUS
10
135.8
20
-116.597
11
135.818
21
-116.613
0
LINE
8
BLACK
6
CONTINUOUS
10
135.818
20
-116.613
11
135.961
21
-116.684
0
LINE
8
BLACK
6
CONTINUOUS
10
135.961
20
-116.684
11
135.995
21
-116.691
0
LINE
8
BLACK
6
CONTINUOUS
10
135.995
20
-116.691
11
136.028
21
-116.7
0
LINE
8
BLACK
6
CONTINUOUS
10
136.028
20
-116.7
11
136.449
21
-116.7
0
LINE
8
BLACK
6
CONTINUOUS
10
136.449
20
-116.7
11
136.449
21
-117.264
0
LINE
8
BLACK
6
CONTINUOUS
10
136.449
20
-117.264
11
136.47
21
-117.339
0
LINE
8
BLACK
6
CONTINUOUS
10
136.47
20
-117.339
11
136.524
21
-117.394
0
LINE
8
BLACK
6
CONTINUOUS
10
136.524
20
-117.394
11
136.599
21
-117.414
0
LINE
8
BLACK
6
CONTINUOUS
10
136.599
20
-117.414
11
136.674
21
-117.394
0
LINE
8
BLACK
6
CONTINUOUS
10
136.674
20
-117.394
11
136.729
21
-117.339
0
LINE
8
BLACK
6
CONTINUOUS
10
136.729
20
-117.339
11
136.749
21
-117.264
0
LINE
8
BLACK
6
CONTINUOUS
10
136.749
20
-117.264
11
136.749
21
-115.764
0
LINE
8
BLACK
6
CONTINUOUS
10
136.749
20
-115.764
11
136.729
21
-115.689
0
LINE
8
BLACK
6
CONTINUOUS
10
136.729
20
-115.689
11
136.674
21
-115.634
0
LINE
8
BLACK
6
CONTINUOUS
10
136.674
20
-115.634
11
136.599
21
-115.614
0
LINE
8
BLACK
6
CONTINUOUS
10
136.599
20
-115.614
11
136.028
21
-115.614
0
LINE
8
BLACK
6
CONTINUOUS
10
136.028
20
-115.614
11
135.995
21
-115.623
0
LINE
8
BLACK
6
CONTINUOUS
10
139.382
20
-115.634
11
139.327
21
-115.689
0
LINE
8
BLACK
6
CONTINUOUS
10
139.327
20
-115.689
11
139.307
21
-115.764
0
LINE
8
BLACK
6
CONTINUOUS
10
139.307
20
-115.764
11
139.307
21
-116.329
0
LINE
8
BLACK
6
CONTINUOUS
10
139.307
20
-116.329
11
138.749
21
-116.329
0
LINE
8
BLACK
6
CONTINUOUS
10
138.749
20
-116.329
11
138.749
21
-115.764
0
LINE
8
BLACK
6
CONTINUOUS
10
138.749
20
-115.764
11
138.729
21
-115.689
0
LINE
8
BLACK
6
CONTINUOUS
10
138.729
20
-115.689
11
138.674
21
-115.634
0
LINE
8
BLACK
6
CONTINUOUS
10
138.674
20
-115.634
11
138.599
21
-115.614
0
LINE
8
BLACK
6
CONTINUOUS
10
138.599
20
-115.614
11
138.524
21
-115.634
0
LINE
8
BLACK
6
CONTINUOUS
10
138.524
20
-115.634
11
138.47
21
-115.689
0
LINE
8
BLACK
6
CONTINUOUS
10
138.47
20
-115.689
11
138.449
21
-115.764
0
LINE
8
BLACK
6
CONTINUOUS
10
138.449
20
-115.764
11
138.449
21
-117.264
0
LINE
8
BLACK
6
CONTINUOUS
10
138.449
20
-117.264
11
138.47
21
-117.339
0
LINE
8
BLACK
6
CONTINUOUS
10
138.47
20
-117.339
11
138.524
21
-117.394
0
LINE
8
BLACK
6
CONTINUOUS
10
138.524
20
-117.394
11
138.599
21
-117.414
0
LINE
8
BLACK
6
CONTINUOUS
10
138.599
20
-117.414
11
138.674
21
-117.394
0
LINE
8
BLACK
6
CONTINUOUS
10
138.674
20
-117.394
11
138.729
21
-117.339
0
LINE
8
BLACK
6
CONTINUOUS
10
138.729
20
-117.339
11
138.749
21
-117.264
0
LINE
8
BLACK
6
CONTINUOUS
10
138.749
20
-117.264
11
138.749
21
-116.629
0
LINE
8
BLACK
6
CONTINUOUS
10
138.749
20
-116.629
11
139.307
21
-116.629
0
LINE
8
BLACK
6
CONTINUOUS
10
139.307
20
-116.629
11
139.307
21
-117.264
0
LINE
8
BLACK
6
CONTINUOUS
10
139.307
20
-117.264
11
139.327
21
-117.339
0
LINE
8
BLACK
6
CONTINUOUS
10
139.327
20
-117.339
11
139.382
21
-117.394
0
LINE
8
BLACK
6
CONTINUOUS
10
139.382
20
-117.394
11
139.457
21
-117.414
0
LINE
8
BLACK
6
CONTINUOUS
10
139.457
20
-117.414
11
139.532
21
-117.394
0
LINE
8
BLACK
6
CONTINUOUS
10
139.532
20
-117.394
11
139.586
21
-117.339
0
LINE
8
BLACK
6
CONTINUOUS
10
139.586
20
-117.339
11
139.607
21
-117.264
0
LINE
8
BLACK
6
CONTINUOUS
10
139.607
20
-117.264
11
139.607
21
-115.764
0
LINE
8
BLACK
6
CONTINUOUS
10
139.607
20
-115.764
11
139.586
21
-115.689
0
LINE
8
BLACK
6
CONTINUOUS
10
139.586
20
-115.689
11
139.532
21
-115.634
0
LINE
8
BLACK
6
CONTINUOUS
10
139.532
20
-115.634
11
139.457
21
-115.614
0
LINE
8
BLACK
6
CONTINUOUS
10
139.457
20
-115.614
11
139.382
21
-115.634
0
LINE
8
BLACK
6
CONTINUOUS
10
119.382
20
-115.634
11
119.327
21
-115.689
0
LINE
8
BLACK
6
CONTINUOUS
10
119.327
20
-115.689
11
119.307
21
-115.764
0
LINE
8
BLACK
6
CONTINUOUS
10
119.307
20
-115.764
11
119.307
21
-117.015
0
LINE
8
BLACK
6
CONTINUOUS
10
119.307
20
-117.015
11
119.273
21
-117.081
0
LINE
8
BLACK
6
CONTINUOUS
10
119.273
20
-117.081
11
119.175
21
-117.13
0
LINE
8
BLACK
6
CONTINUOUS
10
119.175
20
-117.13
11
119.117
21
-117.182
0
LINE
8
BLACK
6
CONTINUOUS
10
119.117
20
-117.182
11
119.093
21
-117.255
0
LINE
8
BLACK
6
CONTINUOUS
10
119.093
20
-117.255
11
119.108
21
-117.331
0
LINE
8
BLACK
6
CONTINUOUS
10
119.108
20
-117.331
11
119.16
21
-117.39
0
LINE
8
BLACK
6
CONTINUOUS
10
119.16
20
-117.39
11
119.233
21
-117.414
0
LINE
8
BLACK
6
CONTINUOUS
10
119.233
20
-117.414
11
119.309
21
-117.398
0
LINE
8
BLACK
6
CONTINUOUS
10
119.309
20
-117.398
11
119.452
21
-117.327
0
LINE
8
BLACK
6
CONTINUOUS
10
119.452
20
-117.327
11
119.459
21
-117.321
0
LINE
8
BLACK
6
CONTINUOUS
10
119.459
20
-117.321
11
119.468
21
-117.318
0
LINE
8
BLACK
6
CONTINUOUS
10
119.468
20
-117.318
11
119.488
21
-117.296
0
LINE
8
BLACK
6
CONTINUOUS
10
119.488
20
-117.296
11
119.51
21
-117.276
0
LINE
8
BLACK
6
CONTINUOUS
10
119.51
20
-117.276
11
119.513
21
-117.267
0
LINE
8
BLACK
6
CONTINUOUS
10
119.513
20
-117.267
11
119.519
21
-117.26
0
LINE
8
BLACK
6
CONTINUOUS
10
119.519
20
-117.26
11
119.591
21
-117.117
0
LINE
8
BLACK
6
CONTINUOUS
10
119.591
20
-117.117
11
119.598
21
-117.083
0
LINE
8
BLACK
6
CONTINUOUS
10
119.598
20
-117.083
11
119.607
21
-117.05
0
LINE
8
BLACK
6
CONTINUOUS
10
119.607
20
-117.05
11
119.607
21
-115.764
0
LINE
8
BLACK
6
CONTINUOUS
10
119.607
20
-115.764
11
119.586
21
-115.689
0
LINE
8
BLACK
6
CONTINUOUS
10
119.586
20
-115.689
11
119.532
21
-115.634
0
LINE
8
BLACK
6
CONTINUOUS
10
119.532
20
-115.634
11
119.457
21
-115.614
0
LINE
8
BLACK
6
CONTINUOUS
10
119.457
20
-115.614
11
119.382
21
-115.634
0
LINE
8
BLACK
6
CONTINUOUS
10
137.599
20
-115.619
11
137.569
21
-115.617
0
LINE
8
BLACK
6
CONTINUOUS
10
137.569
20
-115.617
11
137.561
21
-115.621
0
LINE
8
BLACK
6
CONTINUOUS
10
137.561
20
-115.621
11
137.552
21
-115.622
0
LINE
8
BLACK
6
CONTINUOUS
10
137.552
20
-115.622
11
137.527
21
-115.639
0
LINE
8
BLACK
6
CONTINUOUS
10
137.527
20
-115.639
11
137.5
21
-115.652
0
LINE
8
BLACK
6
CONTINUOUS
10
137.5
20
-115.652
11
137.495
21
-115.66
0
LINE
8
BLACK
6
CONTINUOUS
10
137.495
20
-115.66
11
137.487
21
-115.665
0
LINE
8
BLACK
6
CONTINUOUS
10
137.487
20
-115.665
11
137.474
21
-115.692
0
LINE
8
BLACK
6
CONTINUOUS
10
137.474
20
-115.692
11
137.457
21
-115.717
0
LINE
8
BLACK
6
CONTINUOUS
10
137.457
20
-115.717
11
136.957
21
-117.217
0
LINE
8
BLACK
6
CONTINUOUS
10
136.957
20
-117.217
11
136.952
21
-117.294
0
LINE
8
BLACK
6
CONTINUOUS
10
136.952
20
-117.294
11
136.987
21
-117.364
0
LINE
8
BLACK
6
CONTINUOUS
10
136.987
20
-117.364
11
137.052
21
-117.407
0
LINE
8
BLACK
6
CONTINUOUS
10
137.052
20
-117.407
11
137.129
21
-117.411
0
LINE
8
BLACK
6
CONTINUOUS
10
137.129
20
-117.411
11
137.199
21
-117.377
0
LINE
8
BLACK
6
CONTINUOUS
10
137.199
20
-117.377
11
137.242
21
-117.312
0
LINE
8
BLACK
6
CONTINUOUS
10
137.242
20
-117.312
11
137.35
21
-116.986
0
LINE
8
BLACK
6
CONTINUOUS
10
137.35
20
-116.986
11
137.848
21
-116.986
0
LINE
8
BLACK
6
CONTINUOUS
10
137.848
20
-116.986
11
137.957
21
-117.312
0
LINE
8
BLACK
6
CONTINUOUS
10
137.957
20
-117.312
11
138
21
-117.377
0
LINE
8
BLACK
6
CONTINUOUS
10
138
20
-117.377
11
138.069
21
-117.411
0
LINE
8
BLACK
6
CONTINUOUS
10
138.069
20
-117.411
11
138.147
21
-117.407
0
LINE
8
BLACK
6
CONTINUOUS
10
138.147
20
-117.407
11
138.212
21
-117.364
0
LINE
8
BLACK
6
CONTINUOUS
10
138.212
20
-117.364
11
138.246
21
-117.294
0
LINE
8
BLACK
6
CONTINUOUS
10
138.246
20
-117.294
11
138.242
21
-117.217
0
LINE
8
BLACK
6
CONTINUOUS
10
138.242
20
-117.217
11
137.742
21
-115.717
0
LINE
8
BLACK
6
CONTINUOUS
10
137.742
20
-115.717
11
137.725
21
-115.692
0
LINE
8
BLACK
6
CONTINUOUS
10
137.725
20
-115.692
11
137.712
21
-115.665
0
LINE
8
BLACK
6
CONTINUOUS
10
137.712
20
-115.665
11
137.704
21
-115.66
0
LINE
8
BLACK
6
CONTINUOUS
10
137.704
20
-115.66
11
137.699
21
-115.652
0
LINE
8
BLACK
6
CONTINUOUS
10
137.699
20
-115.652
11
137.672
21
-115.639
0
LINE
8
BLACK
6
CONTINUOUS
10
137.672
20
-115.639
11
137.647
21
-115.622
0
LINE
8
BLACK
6
CONTINUOUS
10
137.647
20
-115.622
11
137.638
21
-115.621
0
LINE
8
BLACK
6
CONTINUOUS
10
137.638
20
-115.621
11
137.629
21
-115.617
0
LINE
8
BLACK
6
CONTINUOUS
10
137.629
20
-115.617
11
137.599
21
-115.619
0
LINE
8
BLACK
6
CONTINUOUS
10
122.263
20
-104.397
11
122.318
21
-104.467
0
LINE
8
BLACK
6
CONTINUOUS
10
122.318
20
-104.467
11
122.338
21
-104.554
0
LINE
8
BLACK
6
CONTINUOUS
10
122.338
20
-104.554
11
122.338
21
-107.054
0
LINE
8
BLACK
6
CONTINUOUS
10
122.338
20
-107.054
11
122.333
21
-107.076
0
LINE
8
BLACK
6
CONTINUOUS
10
122.333
20
-107.076
11
122.333
21
-107.098
0
LINE
8
BLACK
6
CONTINUOUS
10
122.333
20
-107.098
11
122.323
21
-107.119
0
LINE
8
BLACK
6
CONTINUOUS
10
122.323
20
-107.119
11
122.318
21
-107.141
0
LINE
8
BLACK
6
CONTINUOUS
10
122.318
20
-107.141
11
122.304
21
-107.158
0
LINE
8
BLACK
6
CONTINUOUS
10
122.304
20
-107.158
11
122.294
21
-107.178
0
LINE
8
BLACK
6
CONTINUOUS
10
122.294
20
-107.178
11
122.277
21
-107.192
0
LINE
8
BLACK
6
CONTINUOUS
10
122.277
20
-107.192
11
122.263
21
-107.21
0
LINE
8
BLACK
6
CONTINUOUS
10
122.263
20
-107.21
11
122.242
21
-107.22
0
LINE
8
BLACK
6
CONTINUOUS
10
122.242
20
-107.22
11
122.225
21
-107.234
0
LINE
8
BLACK
6
CONTINUOUS
10
122.225
20
-107.234
11
122.203
21
-107.239
0
LINE
8
BLACK
6
CONTINUOUS
10
122.203
20
-107.239
11
122.183
21
-107.249
0
LINE
8
BLACK
6
CONTINUOUS
10
122.183
20
-107.249
11
122.16
21
-107.249
0
LINE
8
BLACK
6
CONTINUOUS
10
122.16
20
-107.249
11
122.138
21
-107.254
0
LINE
8
BLACK
6
CONTINUOUS
10
122.138
20
-107.254
11
120.948
21
-107.254
0
LINE
8
BLACK
6
CONTINUOUS
10
120.948
20
-107.254
11
120.861
21
-107.234
0
LINE
8
BLACK
6
CONTINUOUS
10
120.861
20
-107.234
11
120.791
21
-107.178
0
LINE
8
BLACK
6
CONTINUOUS
10
120.791
20
-107.178
11
120.753
21
-107.098
0
LINE
8
BLACK
6
CONTINUOUS
10
120.753
20
-107.098
11
120.753
21
-107.009
0
LINE
8
BLACK
6
CONTINUOUS
10
120.753
20
-107.009
11
120.791
21
-106.929
0
LINE
8
BLACK
6
CONTINUOUS
10
120.791
20
-106.929
11
120.861
21
-106.874
0
LINE
8
BLACK
6
CONTINUOUS
10
120.861
20
-106.874
11
120.948
21
-106.854
0
LINE
8
BLACK
6
CONTINUOUS
10
120.948
20
-106.854
11
121.938
21
-106.854
0
LINE
8
BLACK
6
CONTINUOUS
10
121.938
20
-106.854
11
121.938
21
-104.554
0
LINE
8
BLACK
6
CONTINUOUS
10
121.938
20
-104.554
11
121.958
21
-104.467
0
LINE
8
BLACK
6
CONTINUOUS
10
121.958
20
-104.467
11
122.013
21
-104.397
0
LINE
8
BLACK
6
CONTINUOUS
10
122.013
20
-104.397
11
122.094
21
-104.359
0
LINE
8
BLACK
6
CONTINUOUS
10
122.094
20
-104.359
11
122.183
21
-104.359
0
LINE
8
BLACK
6
CONTINUOUS
10
122.183
20
-104.359
11
122.263
21
-104.397
0
LINE
8
BLACK
6
CONTINUOUS
10
120.575
20
-104.383
11
120.639
21
-104.445
0
LINE
8
BLACK
6
CONTINUOUS
10
120.639
20
-104.445
11
120.67
21
-104.528
0
LINE
8
BLACK
6
CONTINUOUS
10
120.67
20
-104.528
11
120.661
21
-104.617
0
LINE
8
BLACK
6
CONTINUOUS
10
120.661
20
-104.617
11
119.828
21
-107.117
0
LINE
8
BLACK
6
CONTINUOUS
10
119.828
20
-107.117
11
119.815
21
-107.139
0
LINE
8
BLACK
6
CONTINUOUS
10
119.815
20
-107.139
11
119.806
21
-107.163
0
LINE
8
BLACK
6
CONTINUOUS
10
119.806
20
-107.163
11
119.792
21
-107.176
0
LINE
8
BLACK
6
CONTINUOUS
10
119.792
20
-107.176
11
119.782
21
-107.193
0
LINE
8
BLACK
6
CONTINUOUS
10
119.782
20
-107.193
11
119.76
21
-107.207
0
LINE
8
BLACK
6
CONTINUOUS
10
119.76
20
-107.207
11
119.742
21
-107.225
0
LINE
8
BLACK
6
CONTINUOUS
10
119.742
20
-107.225
11
119.723
21
-107.231
0
LINE
8
BLACK
6
CONTINUOUS
10
119.723
20
-107.231
11
119.707
21
-107.242
0
LINE
8
BLACK
6
CONTINUOUS
10
119.707
20
-107.242
11
119.682
21
-107.245
0
LINE
8
BLACK
6
CONTINUOUS
10
119.682
20
-107.245
11
119.658
21
-107.253
0
LINE
8
BLACK
6
CONTINUOUS
10
119.658
20
-107.253
11
119.638
21
-107.25
0
LINE
8
BLACK
6
CONTINUOUS
10
119.638
20
-107.25
11
119.619
21
-107.253
0
LINE
8
BLACK
6
CONTINUOUS
10
119.619
20
-107.253
11
119.594
21
-107.245
0
LINE
8
BLACK
6
CONTINUOUS
10
119.594
20
-107.245
11
119.569
21
-107.242
0
LINE
8
BLACK
6
CONTINUOUS
10
119.569
20
-107.242
11
119.553
21
-107.231
0
LINE
8
BLACK
6
CONTINUOUS
10
119.553
20
-107.231
11
119.534
21
-107.225
0
LINE
8
BLACK
6
CONTINUOUS
10
119.534
20
-107.225
11
119.516
21
-107.207
0
LINE
8
BLACK
6
CONTINUOUS
10
119.516
20
-107.207
11
119.495
21
-107.193
0
LINE
8
BLACK
6
CONTINUOUS
10
119.495
20
-107.193
11
119.484
21
-107.176
0
LINE
8
BLACK
6
CONTINUOUS
10
119.484
20
-107.176
11
119.47
21
-107.163
0
LINE
8
BLACK
6
CONTINUOUS
10
119.47
20
-107.163
11
119.462
21
-107.139
0
LINE
8
BLACK
6
CONTINUOUS
10
119.462
20
-107.139
11
119.448
21
-107.117
0
LINE
8
BLACK
6
CONTINUOUS
10
119.448
20
-107.117
11
118.615
21
-104.617
0
LINE
8
BLACK
6
CONTINUOUS
10
118.615
20
-104.617
11
118.606
21
-104.528
0
LINE
8
BLACK
6
CONTINUOUS
10
118.606
20
-104.528
11
118.637
21
-104.445
0
LINE
8
BLACK
6
CONTINUOUS
10
118.637
20
-104.445
11
118.701
21
-104.383
0
LINE
8
BLACK
6
CONTINUOUS
10
118.701
20
-104.383
11
118.785
21
-104.355
0
LINE
8
BLACK
6
CONTINUOUS
10
118.785
20
-104.355
11
118.874
21
-104.366
0
LINE
8
BLACK
6
CONTINUOUS
10
118.874
20
-104.366
11
118.948
21
-104.414
0
LINE
8
BLACK
6
CONTINUOUS
10
118.948
20
-104.414
11
118.994
21
-104.491
0
LINE
8
BLACK
6
CONTINUOUS
10
118.994
20
-104.491
11
119.638
21
-106.421
0
LINE
8
BLACK
6
CONTINUOUS
10
119.638
20
-106.421
11
120.282
21
-104.491
0
LINE
8
BLACK
6
CONTINUOUS
10
120.282
20
-104.491
11
120.328
21
-104.414
0
LINE
8
BLACK
6
CONTINUOUS
10
120.328
20
-104.414
11
120.403
21
-104.366
0
LINE
8
BLACK
6
CONTINUOUS
10
120.403
20
-104.366
11
120.491
21
-104.355
0
LINE
8
BLACK
6
CONTINUOUS
10
120.491
20
-104.355
11
120.575
21
-104.383
0
LINE
8
BLACK
6
CONTINUOUS
10
135.932
20
-101.379
11
136.006
21
-101.418
0
LINE
8
BLACK
6
CONTINUOUS
10
136.006
20
-101.418
11
136.054
21
-101.487
0
LINE
8
BLACK
6
CONTINUOUS
10
136.054
20
-101.487
11
136.064
21
-101.57
0
LINE
8
BLACK
6
CONTINUOUS
10
136.064
20
-101.57
11
136.034
21
-101.649
0
LINE
8
BLACK
6
CONTINUOUS
10
136.034
20
-101.649
11
135.971
21
-101.704
0
LINE
8
BLACK
6
CONTINUOUS
10
135.971
20
-101.704
11
135.89
21
-101.724
0
LINE
8
BLACK
6
CONTINUOUS
10
135.89
20
-101.724
11
111.862
21
-101.724
0
LINE
8
BLACK
6
CONTINUOUS
10
111.862
20
-101.724
11
111.82
21
-101.719
0
LINE
8
BLACK
6
CONTINUOUS
10
111.82
20
-101.719
11
111.746
21
-101.68
0
LINE
8
BLACK
6
CONTINUOUS
10
111.746
20
-101.68
11
111.698
21
-101.611
0
LINE
8
BLACK
6
CONTINUOUS
10
111.698
20
-101.611
11
111.688
21
-101.528
0
LINE
8
BLACK
6
CONTINUOUS
10
111.688
20
-101.528
11
111.718
21
-101.45
0
LINE
8
BLACK
6
CONTINUOUS
10
111.718
20
-101.45
11
111.78
21
-101.394
0
LINE
8
BLACK
6
CONTINUOUS
10
111.78
20
-101.394
11
111.862
21
-101.374
0
LINE
8
BLACK
6
CONTINUOUS
10
111.862
20
-101.374
11
135.89
21
-101.374
0
LINE
8
BLACK
6
CONTINUOUS
10
135.89
20
-101.374
11
135.932
21
-101.379
0
LINE
8
BLACK
6
CONTINUOUS
10
139.132
20
-99.8875
11
139.189
21
-99.9255
0
LINE
8
BLACK
6
CONTINUOUS
10
139.189
20
-99.9255
11
139.227
21
-99.9822
0
LINE
8
BLACK
6
CONTINUOUS
10
139.227
20
-99.9822
11
139.24
21
-100.049
0
LINE
8
BLACK
6
CONTINUOUS
10
139.24
20
-100.049
11
139.223
21
-100.288
0
LINE
8
BLACK
6
CONTINUOUS
10
139.223
20
-100.288
11
139.172
21
-100.521
0
LINE
8
BLACK
6
CONTINUOUS
10
139.172
20
-100.521
11
139.089
21
-100.745
0
LINE
8
BLACK
6
CONTINUOUS
10
139.089
20
-100.745
11
138.974
21
-100.955
0
LINE
8
BLACK
6
CONTINUOUS
10
138.974
20
-100.955
11
138.831
21
-101.146
0
LINE
8
BLACK
6
CONTINUOUS
10
138.831
20
-101.146
11
138.662
21
-101.315
0
LINE
8
BLACK
6
CONTINUOUS
10
138.662
20
-101.315
11
138.471
21
-101.458
0
LINE
8
BLACK
6
CONTINUOUS
10
138.471
20
-101.458
11
138.261
21
-101.573
0
LINE
8
BLACK
6
CONTINUOUS
10
138.261
20
-101.573
11
138.037
21
-101.656
0
LINE
8
BLACK
6
CONTINUOUS
10
138.037
20
-101.656
11
137.803
21
-101.707
0
LINE
8
BLACK
6
CONTINUOUS
10
137.803
20
-101.707
11
137.565
21
-101.724
0
LINE
8
BLACK
6
CONTINUOUS
10
137.565
20
-101.724
11
137.498
21
-101.711
0
LINE
8
BLACK
6
CONTINUOUS
10
137.498
20
-101.711
11
137.441
21
-101.673
0
LINE
8
BLACK
6
CONTINUOUS
10
137.441
20
-101.673
11
137.403
21
-101.616
0
LINE
8
BLACK
6
CONTINUOUS
10
137.403
20
-101.616
11
137.39
21
-101.549
0
LINE
8
BLACK
6
CONTINUOUS
10
137.39
20
-101.549
11
137.403
21
-101.482
0
LINE
8
BLACK
6
CONTINUOUS
10
137.403
20
-101.482
11
137.441
21
-101.425
0
LINE
8
BLACK
6
CONTINUOUS
10
137.441
20
-101.425
11
137.498
21
-101.388
0
LINE
8
BLACK
6
CONTINUOUS
10
137.498
20
-101.388
11
137.565
21
-101.374
0
LINE
8
BLACK
6
CONTINUOUS
10
137.565
20
-101.374
11
137.669
21
-101.374
0
LINE
8
BLACK
6
CONTINUOUS
10
137.669
20
-101.374
11
137.875
21
-101.342
0
LINE
8
BLACK
6
CONTINUOUS
10
137.875
20
-101.342
11
138.074
21
-101.277
0
LINE
8
BLACK
6
CONTINUOUS
10
138.074
20
-101.277
11
138.259
21
-101.182
0
LINE
8
BLACK
6
CONTINUOUS
10
138.259
20
-101.182
11
138.428
21
-101.06
0
LINE
8
BLACK
6
CONTINUOUS
10
138.428
20
-101.06
11
138.576
21
-100.912
0
LINE
8
BLACK
6
CONTINUOUS
10
138.576
20
-100.912
11
138.698
21
-100.744
0
LINE
8
BLACK
6
CONTINUOUS
10
138.698
20
-100.744
11
138.793
21
-100.558
0
LINE
8
BLACK
6
CONTINUOUS
10
138.793
20
-100.558
11
138.857
21
-100.359
0
LINE
8
BLACK
6
CONTINUOUS
10
138.857
20
-100.359
11
138.89
21
-100.153
0
LINE
8
BLACK
6
CONTINUOUS
10
138.89
20
-100.153
11
138.89
21
-100.049
0
LINE
8
BLACK
6
CONTINUOUS
10
138.89
20
-100.049
11
138.903
21
-99.9822
0
LINE
8
BLACK
6
CONTINUOUS
10
138.903
20
-99.9822
11
138.941
21
-99.9254
0
LINE
8
BLACK
6
CONTINUOUS
10
138.941
20
-99.9254
11
138.998
21
-99.8875
0
LINE
8
BLACK
6
CONTINUOUS
10
138.998
20
-99.8875
11
139.065
21
-99.8742
0
LINE
8
BLACK
6
CONTINUOUS
10
139.065
20
-99.8742
11
139.132
21
-99.8875
0
LINE
8
BLACK
6
CONTINUOUS
10
139.164
20
-86.089
11
139.22
21
-86.1517
0
LINE
8
BLACK
6
CONTINUOUS
10
139.22
20
-86.1517
11
139.24
21
-86.233
0
LINE
8
BLACK
6
CONTINUOUS
10
139.24
20
-86.233
11
139.24
21
-98.933
0
LINE
8
BLACK
6
CONTINUOUS
10
139.24
20
-98.933
11
139.235
21
-98.9749
0
LINE
8
BLACK
6
CONTINUOUS
10
139.235
20
-98.9749
11
139.196
21
-99.049
0
LINE
8
BLACK
6
CONTINUOUS
10
139.196
20
-99.049
11
139.127
21
-99.0966
0
LINE
8
BLACK
6
CONTINUOUS
10
139.127
20
-99.0966
11
139.044
21
-99.1067
0
LINE
8
BLACK
6
CONTINUOUS
10
139.044
20
-99.1067
11
138.966
21
-99.077
0
LINE
8
BLACK
6
CONTINUOUS
10
138.966
20
-99.077
11
138.91
21
-99.0143
0
LINE
8
BLACK
6
CONTINUOUS
10
138.91
20
-99.0143
11
138.89
21
-98.933
0
LINE
8
BLACK
6
CONTINUOUS
10
138.89
20
-98.933
11
138.89
21
-86.233
0
LINE
8
BLACK
6
CONTINUOUS
10
138.89
20
-86.233
11
138.895
21
-86.1911
0
LINE
8
BLACK
6
CONTINUOUS
10
138.895
20
-86.1911
11
138.934
21
-86.117
0
LINE
8
BLACK
6
CONTINUOUS
10
138.934
20
-86.117
11
139.003
21
-86.0694
0
LINE
8
BLACK
6
CONTINUOUS
10
139.003
20
-86.0694
11
139.086
21
-86.0593
0
LINE
8
BLACK
6
CONTINUOUS
10
139.086
20
-86.0593
11
139.164
21
-86.089
0
LINE
8
BLACK
6
CONTINUOUS
10
120.278
20
-96.0008
11
120.342
21
-96.0628
0
LINE
8
BLACK
6
CONTINUOUS
10
120.342
20
-96.0628
11
120.372
21
-96.1464
0
LINE
8
BLACK
6
CONTINUOUS
10
120.372
20
-96.1464
11
120.364
21
-96.235
0
LINE
8
BLACK
6
CONTINUOUS
10
120.364
20
-96.235
11
119.53
21
-98.735
0
LINE
8
BLACK
6
CONTINUOUS
10
119.53
20
-98.735
11
119.517
21
-98.7568
0
LINE
8
BLACK
6
CONTINUOUS
10
119.517
20
-98.7568
11
119.508
21
-98.7807
0
LINE
8
BLACK
6
CONTINUOUS
10
119.508
20
-98.7807
11
119.494
21
-98.7943
0
LINE
8
BLACK
6
CONTINUOUS
10
119.494
20
-98.7943
11
119.484
21
-98.8111
0
LINE
8
BLACK
6
CONTINUOUS
10
119.484
20
-98.8111
11
119.463
21
-98.8249
0
LINE
8
BLACK
6
CONTINUOUS
10
119.463
20
-98.8249
11
119.444
21
-98.8427
0
LINE
8
BLACK
6
CONTINUOUS
10
119.444
20
-98.8427
11
119.426
21
-98.8488
0
LINE
8
BLACK
6
CONTINUOUS
10
119.426
20
-98.8488
11
119.409
21
-98.8595
0
LINE
8
BLACK
6
CONTINUOUS
10
119.409
20
-98.8595
11
119.384
21
-98.8627
0
LINE
8
BLACK
6
CONTINUOUS
10
119.384
20
-98.8627
11
119.36
21
-98.8708
0
LINE
8
BLACK
6
CONTINUOUS
10
119.36
20
-98.8708
11
119.34
21
-98.8683
0
LINE
8
BLACK
6
CONTINUOUS
10
119.34
20
-98.8683
11
119.321
21
-98.8708
0
LINE
8
BLACK
6
CONTINUOUS
10
119.321
20
-98.8708
11
119.297
21
-98.8627
0
LINE
8
BLACK
6
CONTINUOUS
10
119.297
20
-98.8627
11
119.272
21
-98.8595
0
LINE
8
BLACK
6
CONTINUOUS
10
119.272
20
-98.8595
11
119.255
21
-98.8489
0
LINE
8
BLACK
6
CONTINUOUS
10
119.255
20
-98.8489
11
119.237
21
-98.8427
0
LINE
8
BLACK
6
CONTINUOUS
10
119.237
20
-98.8427
11
119.218
21
-98.8249
0
LINE
8
BLACK
6
CONTINUOUS
10
119.218
20
-98.8249
11
119.197
21
-98.8111
0
LINE
8
BLACK
6
CONTINUOUS
10
119.197
20
-98.8111
11
119.187
21
-98.7943
0
LINE
8
BLACK
6
CONTINUOUS
10
119.187
20
-98.7943
11
119.173
21
-98.7807
0
LINE
8
BLACK
6
CONTINUOUS
10
119.173
20
-98.7807
11
119.164
21
-98.7568
0
LINE
8
BLACK
6
CONTINUOUS
10
119.164
20
-98.7568
11
119.151
21
-98.735
0
LINE
8
BLACK
6
CONTINUOUS
10
119.151
20
-98.735
11
118.317
21
-96.235
0
LINE
8
BLACK
6
CONTINUOUS
10
118.317
20
-96.235
11
118.309
21
-96.1464
0
LINE
8
BLACK
6
CONTINUOUS
10
118.309
20
-96.1464
11
118.339
21
-96.0628
0
LINE
8
BLACK
6
CONTINUOUS
10
118.339
20
-96.0628
11
118.403
21
-96.0008
0
LINE
8
BLACK
6
CONTINUOUS
10
118.403
20
-96.0008
11
118.488
21
-95.9727
0
LINE
8
BLACK
6
CONTINUOUS
10
118.488
20
-95.9727
11
118.576
21
-95.984
0
LINE
8
BLACK
6
CONTINUOUS
10
118.576
20
-95.984
11
118.651
21
-96.0324
0
LINE
8
BLACK
6
CONTINUOUS
10
118.651
20
-96.0324
11
118.697
21
-96.1085
0
LINE
8
BLACK
6
CONTINUOUS
10
118.697
20
-96.1085
11
119.34
21
-98.0393
0
LINE
8
BLACK
6
CONTINUOUS
10
119.34
20
-98.0393
11
119.984
21
-96.1085
0
LINE
8
BLACK
6
CONTINUOUS
10
119.984
20
-96.1085
11
120.03
21
-96.0324
0
LINE
8
BLACK
6
CONTINUOUS
10
120.03
20
-96.0324
11
120.105
21
-95.984
0
LINE
8
BLACK
6
CONTINUOUS
10
120.105
20
-95.984
11
120.193
21
-95.9727
0
LINE
8
BLACK
6
CONTINUOUS
10
120.193
20
-95.9727
11
120.278
21
-96.0008
0
LINE
8
BLACK
6
CONTINUOUS
10
121.132
20
-96.0154
11
121.187
21
-96.085
0
LINE
8
BLACK
6
CONTINUOUS
10
121.187
20
-96.085
11
121.207
21
-96.1717
0
LINE
8
BLACK
6
CONTINUOUS
10
121.207
20
-96.1717
11
121.207
21
-97.1622
0
LINE
8
BLACK
6
CONTINUOUS
10
121.207
20
-97.1622
11
122.236
21
-97.1622
0
LINE
8
BLACK
6
CONTINUOUS
10
122.236
20
-97.1622
11
122.236
21
-96.1717
0
LINE
8
BLACK
6
CONTINUOUS
10
122.236
20
-96.1717
11
122.256
21
-96.085
0
LINE
8
BLACK
6
CONTINUOUS
10
122.256
20
-96.085
11
122.311
21
-96.0154
0
LINE
8
BLACK
6
CONTINUOUS
10
122.311
20
-96.0154
11
122.391
21
-95.9768
0
LINE
8
BLACK
6
CONTINUOUS
10
122.391
20
-95.9768
11
122.48
21
-95.9768
0
LINE
8
BLACK
6
CONTINUOUS
10
122.48
20
-95.9768
11
122.56
21
-96.0154
0
LINE
8
BLACK
6
CONTINUOUS
10
122.56
20
-96.0154
11
122.616
21
-96.085
0
LINE
8
BLACK
6
CONTINUOUS
10
122.616
20
-96.085
11
122.636
21
-96.1717
0
LINE
8
BLACK
6
CONTINUOUS
10
122.636
20
-96.1717
11
122.636
21
-98.6717
0
LINE
8
BLACK
6
CONTINUOUS
10
122.636
20
-98.6717
11
122.616
21
-98.7585
0
LINE
8
BLACK
6
CONTINUOUS
10
122.616
20
-98.7585
11
122.56
21
-98.8281
0
LINE
8
BLACK
6
CONTINUOUS
10
122.56
20
-98.8281
11
122.48
21
-98.8667
0
LINE
8
BLACK
6
CONTINUOUS
10
122.48
20
-98.8667
11
122.391
21
-98.8667
0
LINE
8
BLACK
6
CONTINUOUS
10
122.391
20
-98.8667
11
122.311
21
-98.8281
0
LINE
8
BLACK
6
CONTINUOUS
10
122.311
20
-98.8281
11
122.256
21
-98.7585
0
LINE
8
BLACK
6
CONTINUOUS
10
122.256
20
-98.7585
11
122.236
21
-98.6717
0
LINE
8
BLACK
6
CONTINUOUS
10
122.236
20
-98.6717
11
122.236
21
-97.5622
0
LINE
8
BLACK
6
CONTINUOUS
10
122.236
20
-97.5622
11
121.207
21
-97.5622
0
LINE
8
BLACK
6
CONTINUOUS
10
121.207
20
-97.5622
11
121.207
21
-98.6717
0
LINE
8
BLACK
6
CONTINUOUS
10
121.207
20
-98.6717
11
121.187
21
-98.7585
0
LINE
8
BLACK
6
CONTINUOUS
10
121.187
20
-98.7585
11
121.132
21
-98.8281
0
LINE
8
BLACK
6
CONTINUOUS
10
121.132
20
-98.8281
11
121.052
21
-98.8667
0
LINE
8
BLACK
6
CONTINUOUS
10
121.052
20
-98.8667
11
120.963
21
-98.8667
0
LINE
8
BLACK
6
CONTINUOUS
10
120.963
20
-98.8667
11
120.882
21
-98.8281
0
LINE
8
BLACK
6
CONTINUOUS
10
120.882
20
-98.8281
11
120.827
21
-98.7585
0
LINE
8
BLACK
6
CONTINUOUS
10
120.827
20
-98.7585
11
120.807
21
-98.6717
0
LINE
8
BLACK
6
CONTINUOUS
10
120.807
20
-98.6717
11
120.807
21
-96.1717
0
LINE
8
BLACK
6
CONTINUOUS
10
120.807
20
-96.1717
11
120.827
21
-96.085
0
LINE
8
BLACK
6
CONTINUOUS
10
120.827
20
-96.085
11
120.882
21
-96.0154
0
LINE
8
BLACK
6
CONTINUOUS
10
120.882
20
-96.0154
11
120.963
21
-95.9768
0
LINE
8
BLACK
6
CONTINUOUS
10
120.963
20
-95.9768
11
121.052
21
-95.9768
0
LINE
8
BLACK
6
CONTINUOUS
10
121.052
20
-95.9768
11
121.132
21
-96.0154
0
LINE
8
BLACK
6
CONTINUOUS
10
120.964
20
-90.9417
11
120.975
21
-90.9856
0
LINE
8
BLACK
6
CONTINUOUS
10
120.975
20
-90.9856
11
121
21
-91.0831
0
LINE
8
BLACK
6
CONTINUOUS
10
121
20
-91.0831
11
121.034
21
-91.2243
0
LINE
8
BLACK
6
CONTINUOUS
10
121.034
20
-91.2243
11
121.076
21
-91.3993
0
LINE
8
BLACK
6
CONTINUOUS
10
121.076
20
-91.3993
11
121.123
21
-91.5983
0
LINE
8
BLACK
6
CONTINUOUS
10
121.123
20
-91.5983
11
121.174
21
-91.8114
0
LINE
8
BLACK
6
CONTINUOUS
10
121.174
20
-91.8114
11
121.225
21
-92.0289
0
LINE
8
BLACK
6
CONTINUOUS
10
121.225
20
-92.0289
11
121.275
21
-92.2409
0
LINE
8
BLACK
6
CONTINUOUS
10
121.275
20
-92.2409
11
121.321
21
-92.4375
0
LINE
8
BLACK
6
CONTINUOUS
10
121.321
20
-92.4375
11
121.36
21
-92.6088
0
LINE
8
BLACK
6
CONTINUOUS
10
121.36
20
-92.6088
11
121.391
21
-92.7451
0
LINE
8
BLACK
6
CONTINUOUS
10
121.391
20
-92.7451
11
121.412
21
-92.8364
0
LINE
8
BLACK
6
CONTINUOUS
10
121.412
20
-92.8364
11
121.419
21
-92.873
0
LINE
8
BLACK
6
CONTINUOUS
10
121.419
20
-92.873
11
121.418
21
-92.8741
0
LINE
8
BLACK
6
CONTINUOUS
10
121.418
20
-92.8741
11
121.379
21
-92.8696
0
LINE
8
BLACK
6
CONTINUOUS
10
121.379
20
-92.8696
11
121.291
21
-92.8477
0
LINE
8
BLACK
6
CONTINUOUS
10
121.291
20
-92.8477
11
121.165
21
-92.8117
0
LINE
8
BLACK
6
CONTINUOUS
10
121.165
20
-92.8117
11
121.013
21
-92.7647
0
LINE
8
BLACK
6
CONTINUOUS
10
121.013
20
-92.7647
11
120.994
21
-92.7586
0
LINE
8
BLACK
6
CONTINUOUS
10
120.994
20
-92.7586
11
120.841
21
-92.7105
0
LINE
8
BLACK
6
CONTINUOUS
10
120.841
20
-92.7105
11
120.713
21
-92.6713
0
LINE
8
BLACK
6
CONTINUOUS
10
120.713
20
-92.6713
11
120.623
21
-92.645
0
LINE
8
BLACK
6
CONTINUOUS
10
120.623
20
-92.645
11
120.583
21
-92.6353
0
LINE
8
BLACK
6
CONTINUOUS
10
120.583
20
-92.6353
11
120.579
21
-92.64
0
LINE
8
BLACK
6
CONTINUOUS
10
120.579
20
-92.64
11
120.579
21
-92.6908
0
LINE
8
BLACK
6
CONTINUOUS
10
120.579
20
-92.6908
11
120.592
21
-92.7859
0
LINE
8
BLACK
6
CONTINUOUS
10
120.592
20
-92.7859
11
120.616
21
-92.9103
0
LINE
8
BLACK
6
CONTINUOUS
10
120.616
20
-92.9103
11
120.619
21
-92.9252
0
LINE
8
BLACK
6
CONTINUOUS
10
120.619
20
-92.9252
11
120.654
21
-93.0867
0
LINE
8
BLACK
6
CONTINUOUS
10
120.654
20
-93.0867
11
120.689
21
-93.2492
0
LINE
8
BLACK
6
CONTINUOUS
10
120.689
20
-93.2492
11
120.716
21
-93.3797
0
LINE
8
BLACK
6
CONTINUOUS
10
120.716
20
-93.3797
11
120.756
21
-93.5741
0
LINE
8
BLACK
6
CONTINUOUS
10
120.756
20
-93.5741
11
120.924
21
-93.551
0
LINE
8
BLACK
6
CONTINUOUS
10
120.924
20
-93.551
11
120.98
21
-93.5447
0
LINE
8
BLACK
6
CONTINUOUS
10
120.98
20
-93.5447
11
121.058
21
-93.5442
0
LINE
8
BLACK
6
CONTINUOUS
10
121.058
20
-93.5442
11
121.08
21
-93.5602
0
LINE
8
BLACK
6
CONTINUOUS
10
121.08
20
-93.5602
11
121.066
21
-93.5861
0
LINE
8
BLACK
6
CONTINUOUS
10
121.066
20
-93.5861
11
121.024
21
-93.6606
0
LINE
8
BLACK
6
CONTINUOUS
10
121.024
20
-93.6606
11
120.96
21
-93.7686
0
LINE
8
BLACK
6
CONTINUOUS
10
120.96
20
-93.7686
11
120.884
21
-93.8967
0
LINE
8
BLACK
6
CONTINUOUS
10
120.884
20
-93.8967
11
120.823
21
-93.9965
0
LINE
8
BLACK
6
CONTINUOUS
10
120.823
20
-93.9965
11
120.759
21
-94.1023
0
LINE
8
BLACK
6
CONTINUOUS
10
120.759
20
-94.1023
11
120.715
21
-94.1746
0
LINE
8
BLACK
6
CONTINUOUS
10
120.715
20
-94.1746
11
120.698
21
-94.2014
0
LINE
8
BLACK
6
CONTINUOUS
10
120.698
20
-94.2014
11
120.694
21
-94.2006
0
LINE
8
BLACK
6
CONTINUOUS
10
120.694
20
-94.2006
11
120.651
21
-94.1742
0
LINE
8
BLACK
6
CONTINUOUS
10
120.651
20
-94.1742
11
120.575
21
-94.1184
0
LINE
8
BLACK
6
CONTINUOUS
10
120.575
20
-94.1184
11
120.477
21
-94.0432
0
LINE
8
BLACK
6
CONTINUOUS
10
120.477
20
-94.0432
11
120.371
21
-93.9587
0
LINE
8
BLACK
6
CONTINUOUS
10
120.371
20
-93.9587
11
120.269
21
-93.8746
0
LINE
8
BLACK
6
CONTINUOUS
10
120.269
20
-93.8746
11
120.182
21
-93.8011
0
LINE
8
BLACK
6
CONTINUOUS
10
120.182
20
-93.8011
11
120.124
21
-93.7481
0
LINE
8
BLACK
6
CONTINUOUS
10
120.124
20
-93.7481
11
120.106
21
-93.7255
0
LINE
8
BLACK
6
CONTINUOUS
10
120.106
20
-93.7255
11
120.117
21
-93.7208
0
LINE
8
BLACK
6
CONTINUOUS
10
120.117
20
-93.7208
11
120.182
21
-93.7039
0
LINE
8
BLACK
6
CONTINUOUS
10
120.182
20
-93.7039
11
120.277
21
-93.6859
0
LINE
8
BLACK
6
CONTINUOUS
10
120.277
20
-93.6859
11
120.311
21
-93.6792
0
LINE
8
BLACK
6
CONTINUOUS
10
120.311
20
-93.6792
11
120.387
21
-93.6534
0
LINE
8
BLACK
6
CONTINUOUS
10
120.387
20
-93.6534
11
120.407
21
-93.6237
0
LINE
8
BLACK
6
CONTINUOUS
10
120.407
20
-93.6237
11
120.404
21
-93.6137
0
LINE
8
BLACK
6
CONTINUOUS
10
120.404
20
-93.6137
11
120.378
21
-93.5302
0
LINE
8
BLACK
6
CONTINUOUS
10
120.378
20
-93.5302
11
120.34
21
-93.4015
0
LINE
8
BLACK
6
CONTINUOUS
10
120.34
20
-93.4015
11
120.294
21
-93.2375
0
LINE
8
BLACK
6
CONTINUOUS
10
120.294
20
-93.2375
11
120.242
21
-93.0481
0
LINE
8
BLACK
6
CONTINUOUS
10
120.242
20
-93.0481
11
120.187
21
-92.8434
0
LINE
8
BLACK
6
CONTINUOUS
10
120.187
20
-92.8434
11
120.13
21
-92.6332
0
LINE
8
BLACK
6
CONTINUOUS
10
120.13
20
-92.6332
11
120.076
21
-92.4275
0
LINE
8
BLACK
6
CONTINUOUS
10
120.076
20
-92.4275
11
120.026
21
-92.2363
0
LINE
8
BLACK
6
CONTINUOUS
10
120.026
20
-92.2363
11
119.983
21
-92.0696
0
LINE
8
BLACK
6
CONTINUOUS
10
119.983
20
-92.0696
11
119.95
21
-91.9372
0
LINE
8
BLACK
6
CONTINUOUS
10
119.95
20
-91.9372
11
119.93
21
-91.8491
0
LINE
8
BLACK
6
CONTINUOUS
10
119.93
20
-91.8491
11
119.925
21
-91.8154
0
LINE
8
BLACK
6
CONTINUOUS
10
119.925
20
-91.8154
11
119.928
21
-91.8145
0
LINE
8
BLACK
6
CONTINUOUS
10
119.928
20
-91.8145
11
119.977
21
-91.8275
0
LINE
8
BLACK
6
CONTINUOUS
10
119.977
20
-91.8275
11
120.071
21
-91.863
0
LINE
8
BLACK
6
CONTINUOUS
10
120.071
20
-91.863
11
120.2
21
-91.9165
0
LINE
8
BLACK
6
CONTINUOUS
10
120.2
20
-91.9165
11
120.351
21
-91.9833
0
LINE
8
BLACK
6
CONTINUOUS
10
120.351
20
-91.9833
11
120.391
21
-92.0012
0
LINE
8
BLACK
6
CONTINUOUS
10
120.391
20
-92.0012
11
120.536
21
-92.0669
0
LINE
8
BLACK
6
CONTINUOUS
10
120.536
20
-92.0669
11
120.656
21
-92.1201
0
LINE
8
BLACK
6
CONTINUOUS
10
120.656
20
-92.1201
11
120.737
21
-92.1557
0
LINE
8
BLACK
6
CONTINUOUS
10
120.737
20
-92.1557
11
120.769
21
-92.1687
0
LINE
8
BLACK
6
CONTINUOUS
10
120.769
20
-92.1687
11
120.766
21
-92.1505
0
LINE
8
BLACK
6
CONTINUOUS
10
120.766
20
-92.1505
11
120.744
21
-92.0787
0
LINE
8
BLACK
6
CONTINUOUS
10
120.744
20
-92.0787
11
120.707
21
-91.9621
0
LINE
8
BLACK
6
CONTINUOUS
10
120.707
20
-91.9621
11
120.658
21
-91.8109
0
LINE
8
BLACK
6
CONTINUOUS
10
120.658
20
-91.8109
11
120.6
21
-91.6353
0
LINE
8
BLACK
6
CONTINUOUS
10
120.6
20
-91.6353
11
120.421
21
-91.102
0
LINE
8
BLACK
6
CONTINUOUS
10
120.421
20
-91.102
11
120.574
21
-91.102
0
LINE
8
BLACK
6
CONTINUOUS
10
120.574
20
-91.102
11
120.592
21
-91.1018
0
LINE
8
BLACK
6
CONTINUOUS
10
120.592
20
-91.1018
11
120.725
21
-91.0805
0
LINE
8
BLACK
6
CONTINUOUS
10
120.725
20
-91.0805
11
120.841
21
-91.0153
0
LINE
8
BLACK
6
CONTINUOUS
10
120.841
20
-91.0153
11
120.872
21
-90.9924
0
LINE
8
BLACK
6
CONTINUOUS
10
120.872
20
-90.9924
11
120.934
21
-90.9512
0
LINE
8
BLACK
6
CONTINUOUS
10
120.934
20
-90.9512
11
120.963
21
-90.9403
0
LINE
8
BLACK
6
CONTINUOUS
10
120.963
20
-90.9403
11
120.964
21
-90.9417
0
LINE
8
BLACK
6
CONTINUOUS
10
123.512
20
-94.3473
11
123.562
21
-94.4381
0
LINE
8
BLACK
6
CONTINUOUS
10
123.562
20
-94.4381
11
123.581
21
-94.4773
0
LINE
8
BLACK
6
CONTINUOUS
10
123.581
20
-94.4773
11
123.58
21
-94.5504
0
LINE
8
BLACK
6
CONTINUOUS
10
123.58
20
-94.5504
11
123.554
21
-94.619
0
LINE
8
BLACK
6
CONTINUOUS
10
123.554
20
-94.619
11
123.543
21
-94.6266
0
LINE
8
BLACK
6
CONTINUOUS
10
123.543
20
-94.6266
11
123.517
21
-94.6345
0
LINE
8
BLACK
6
CONTINUOUS
10
123.517
20
-94.6345
11
123.472
21
-94.6413
0
LINE
8
BLACK
6
CONTINUOUS
10
123.472
20
-94.6413
11
123.406
21
-94.6472
0
LINE
8
BLACK
6
CONTINUOUS
10
123.406
20
-94.6472
11
123.314
21
-94.6522
0
LINE
8
BLACK
6
CONTINUOUS
10
123.314
20
-94.6522
11
123.191
21
-94.6564
0
LINE
8
BLACK
6
CONTINUOUS
10
123.191
20
-94.6564
11
123.034
21
-94.6599
0
LINE
8
BLACK
6
CONTINUOUS
10
123.034
20
-94.6599
11
122.838
21
-94.6626
0
LINE
8
BLACK
6
CONTINUOUS
10
122.838
20
-94.6626
11
122.601
21
-94.6647
0
LINE
8
BLACK
6
CONTINUOUS
10
122.601
20
-94.6647
11
122.316
21
-94.6663
0
LINE
8
BLACK
6
CONTINUOUS
10
122.316
20
-94.6663
11
121.982
21
-94.6675
0
LINE
8
BLACK
6
CONTINUOUS
10
121.982
20
-94.6675
11
121.592
21
-94.6682
0
LINE
8
BLACK
6
CONTINUOUS
10
121.592
20
-94.6682
11
121.144
21
-94.6686
0
LINE
8
BLACK
6
CONTINUOUS
10
121.144
20
-94.6686
11
120.633
21
-94.6687
0
LINE
8
BLACK
6
CONTINUOUS
10
120.633
20
-94.6687
11
120.483
21
-94.6687
0
LINE
8
BLACK
6
CONTINUOUS
10
120.483
20
-94.6687
11
119.987
21
-94.6688
0
LINE
8
BLACK
6
CONTINUOUS
10
119.987
20
-94.6688
11
119.552
21
-94.6687
0
LINE
8
BLACK
6
CONTINUOUS
10
119.552
20
-94.6687
11
119.175
21
-94.6683
0
LINE
8
BLACK
6
CONTINUOUS
10
119.175
20
-94.6683
11
118.852
21
-94.6673
0
LINE
8
BLACK
6
CONTINUOUS
10
118.852
20
-94.6673
11
118.578
21
-94.6654
0
LINE
8
BLACK
6
CONTINUOUS
10
118.578
20
-94.6654
11
118.349
21
-94.6623
0
LINE
8
BLACK
6
CONTINUOUS
10
118.349
20
-94.6623
11
118.162
21
-94.6578
0
LINE
8
BLACK
6
CONTINUOUS
10
118.162
20
-94.6578
11
118.012
21
-94.6516
0
LINE
8
BLACK
6
CONTINUOUS
10
118.012
20
-94.6516
11
117.896
21
-94.6435
0
LINE
8
BLACK
6
CONTINUOUS
10
117.896
20
-94.6435
11
117.809
21
-94.6332
0
LINE
8
BLACK
6
CONTINUOUS
10
117.809
20
-94.6332
11
117.748
21
-94.6204
0
LINE
8
BLACK
6
CONTINUOUS
10
117.748
20
-94.6204
11
117.708
21
-94.6049
0
LINE
8
BLACK
6
CONTINUOUS
10
117.708
20
-94.6049
11
117.685
21
-94.5864
0
LINE
8
BLACK
6
CONTINUOUS
10
117.685
20
-94.5864
11
117.675
21
-94.5646
0
LINE
8
BLACK
6
CONTINUOUS
10
117.675
20
-94.5646
11
117.675
21
-94.5394
0
LINE
8
BLACK
6
CONTINUOUS
10
117.675
20
-94.5394
11
117.68
21
-94.5104
0
LINE
8
BLACK
6
CONTINUOUS
10
117.68
20
-94.5104
11
117.686
21
-94.4773
0
LINE
8
BLACK
6
CONTINUOUS
10
117.686
20
-94.4773
11
117.704
21
-94.4392
0
LINE
8
BLACK
6
CONTINUOUS
10
117.704
20
-94.4392
11
117.754
21
-94.3492
0
LINE
8
BLACK
6
CONTINUOUS
10
117.754
20
-94.3492
11
117.832
21
-94.213
0
LINE
8
BLACK
6
CONTINUOUS
10
117.832
20
-94.213
11
117.936
21
-94.0357
0
LINE
8
BLACK
6
CONTINUOUS
10
117.936
20
-94.0357
11
118.062
21
-93.8227
0
LINE
8
BLACK
6
CONTINUOUS
10
118.062
20
-93.8227
11
118.207
21
-93.5793
0
LINE
8
BLACK
6
CONTINUOUS
10
118.207
20
-93.5793
11
118.367
21
-93.3108
0
LINE
8
BLACK
6
CONTINUOUS
10
118.367
20
-93.3108
11
118.541
21
-93.0224
0
LINE
8
BLACK
6
CONTINUOUS
10
118.541
20
-93.0224
11
118.723
21
-92.7194
0
LINE
8
BLACK
6
CONTINUOUS
10
118.723
20
-92.7194
11
118.912
21
-92.4072
0
LINE
8
BLACK
6
CONTINUOUS
10
118.912
20
-92.4072
11
119.103
21
-92.0911
0
LINE
8
BLACK
6
CONTINUOUS
10
119.103
20
-92.0911
11
119.294
21
-91.7763
0
LINE
8
BLACK
6
CONTINUOUS
10
119.294
20
-91.7763
11
119.482
21
-91.4681
0
LINE
8
BLACK
6
CONTINUOUS
10
119.482
20
-91.4681
11
119.663
21
-91.1719
0
LINE
8
BLACK
6
CONTINUOUS
10
119.663
20
-91.1719
11
119.834
21
-90.8928
0
LINE
8
BLACK
6
CONTINUOUS
10
119.834
20
-90.8928
11
119.992
21
-90.6363
0
LINE
8
BLACK
6
CONTINUOUS
10
119.992
20
-90.6363
11
120.134
21
-90.4077
0
LINE
8
BLACK
6
CONTINUOUS
10
120.134
20
-90.4077
11
120.256
21
-90.2121
0
LINE
8
BLACK
6
CONTINUOUS
10
120.256
20
-90.2121
11
120.355
21
-90.0549
0
LINE
8
BLACK
6
CONTINUOUS
10
120.355
20
-90.0549
11
120.428
21
-89.9415
0
LINE
8
BLACK
6
CONTINUOUS
10
120.428
20
-89.9415
11
120.472
21
-89.877
0
LINE
8
BLACK
6
CONTINUOUS
10
120.472
20
-89.877
11
120.548
21
-89.8005
0
LINE
8
BLACK
6
CONTINUOUS
10
120.548
20
-89.8005
11
120.633
21
-89.7687
0
LINE
8
BLACK
6
CONTINUOUS
10
120.633
20
-89.7687
11
120.708
21
-89.7931
0
LINE
8
BLACK
6
CONTINUOUS
10
120.708
20
-89.7931
11
120.794
21
-89.877
0
LINE
8
BLACK
6
CONTINUOUS
10
120.794
20
-89.877
11
120.837
21
-89.9398
0
LINE
8
BLACK
6
CONTINUOUS
10
120.837
20
-89.9398
11
120.91
21
-90.0525
0
LINE
8
BLACK
6
CONTINUOUS
10
120.91
20
-90.0525
11
121.009
21
-90.209
0
LINE
8
BLACK
6
CONTINUOUS
10
121.009
20
-90.209
11
121.13
21
-90.404
0
LINE
8
BLACK
6
CONTINUOUS
10
121.13
20
-90.404
11
121.272
21
-90.6322
0
LINE
8
BLACK
6
CONTINUOUS
10
121.272
20
-90.6322
11
121.429
21
-90.8883
0
LINE
8
BLACK
6
CONTINUOUS
10
121.429
20
-90.8883
11
121.6
21
-91.167
0
LINE
8
BLACK
6
CONTINUOUS
10
121.6
20
-91.167
11
121.781
21
-91.463
0
LINE
8
BLACK
6
CONTINUOUS
10
121.781
20
-91.463
11
121.969
21
-91.7711
0
LINE
8
BLACK
6
CONTINUOUS
10
121.969
20
-91.7711
11
122.16
21
-92.0858
0
LINE
8
BLACK
6
CONTINUOUS
10
122.16
20
-92.0858
11
122.351
21
-92.402
0
LINE
8
BLACK
6
CONTINUOUS
10
122.351
20
-92.402
11
122.54
21
-92.7143
0
LINE
8
BLACK
6
CONTINUOUS
10
122.54
20
-92.7143
11
122.723
21
-93.0174
0
LINE
8
BLACK
6
CONTINUOUS
10
122.723
20
-93.0174
11
122.896
21
-93.3061
0
LINE
8
BLACK
6
CONTINUOUS
10
122.896
20
-93.3061
11
123.057
21
-93.575
0
LINE
8
BLACK
6
CONTINUOUS
10
123.057
20
-93.575
11
123.202
21
-93.8189
0
LINE
8
BLACK
6
CONTINUOUS
10
123.202
20
-93.8189
11
123.329
21
-94.0324
0
LINE
8
BLACK
6
CONTINUOUS
10
123.329
20
-94.0324
11
123.433
21
-94.2103
0
LINE
8
BLACK
6
CONTINUOUS
10
123.433
20
-94.2103
11
123.486
21
-94.302
0
LINE
8
BLACK
6
CONTINUOUS
10
123.486
20
-94.302
11
123.512
21
-94.3473
0
LINE
8
BLACK
6
CONTINUOUS
10
123.046
20
-94.227
11
123.043
21
-94.2229
0
LINE
8
BLACK
6
CONTINUOUS
10
123.043
20
-94.2229
11
123.01
21
-94.1696
0
LINE
8
BLACK
6
CONTINUOUS
10
123.01
20
-94.1696
11
122.946
21
-94.0663
0
LINE
8
BLACK
6
CONTINUOUS
10
122.946
20
-94.0663
11
122.855
21
-93.9188
0
LINE
8
BLACK
6
CONTINUOUS
10
122.855
20
-93.9188
11
122.741
21
-93.7328
0
LINE
8
BLACK
6
CONTINUOUS
10
122.741
20
-93.7328
11
122.607
21
-93.5141
0
LINE
8
BLACK
6
CONTINUOUS
10
122.607
20
-93.5141
11
122.456
21
-93.2683
0
LINE
8
BLACK
6
CONTINUOUS
10
122.456
20
-93.2683
11
122.293
21
-93.0012
0
LINE
8
BLACK
6
CONTINUOUS
10
122.293
20
-93.0012
11
122.119
21
-92.7187
0
LINE
8
BLACK
6
CONTINUOUS
10
122.119
20
-92.7187
11
121.949
21
-92.4398
0
LINE
8
BLACK
6
CONTINUOUS
10
121.949
20
-92.4398
11
121.765
21
-92.1394
0
LINE
8
BLACK
6
CONTINUOUS
10
121.765
20
-92.1394
11
121.586
21
-91.8472
0
LINE
8
BLACK
6
CONTINUOUS
10
121.586
20
-91.8472
11
121.417
21
-91.5713
0
LINE
8
BLACK
6
CONTINUOUS
10
121.417
20
-91.5713
11
121.263
21
-91.3199
0
LINE
8
BLACK
6
CONTINUOUS
10
121.263
20
-91.3199
11
121.129
21
-91.1009
0
LINE
8
BLACK
6
CONTINUOUS
10
121.129
20
-91.1009
11
121.019
21
-90.9226
0
LINE
8
BLACK
6
CONTINUOUS
10
121.019
20
-90.9226
11
120.94
21
-90.7931
0
LINE
8
BLACK
6
CONTINUOUS
10
120.94
20
-90.7931
11
120.855
21
-90.6578
0
LINE
8
BLACK
6
CONTINUOUS
10
120.855
20
-90.6578
11
120.765
21
-90.5192
0
LINE
8
BLACK
6
CONTINUOUS
10
120.765
20
-90.5192
11
120.691
21
-90.412
0
LINE
8
BLACK
6
CONTINUOUS
10
120.691
20
-90.412
11
120.639
21
-90.3449
0
LINE
8
BLACK
6
CONTINUOUS
10
120.639
20
-90.3449
11
120.616
21
-90.3264
0
LINE
8
BLACK
6
CONTINUOUS
10
120.616
20
-90.3264
11
120.6
21
-90.3486
0
LINE
8
BLACK
6
CONTINUOUS
10
120.6
20
-90.3486
11
120.554
21
-90.4209
0
LINE
8
BLACK
6
CONTINUOUS
10
120.554
20
-90.4209
11
120.485
21
-90.5327
0
LINE
8
BLACK
6
CONTINUOUS
10
120.485
20
-90.5327
11
120.398
21
-90.6741
0
LINE
8
BLACK
6
CONTINUOUS
10
120.398
20
-90.6741
11
120.299
21
-90.8353
0
LINE
8
BLACK
6
CONTINUOUS
10
120.299
20
-90.8353
11
120.291
21
-90.8485
0
LINE
8
BLACK
6
CONTINUOUS
10
120.291
20
-90.8485
11
120.19
21
-91.0153
0
LINE
8
BLACK
6
CONTINUOUS
10
120.19
20
-91.0153
11
120.067
21
-91.2163
0
LINE
8
BLACK
6
CONTINUOUS
10
120.067
20
-91.2163
11
119.927
21
-91.4456
0
LINE
8
BLACK
6
CONTINUOUS
10
119.927
20
-91.4456
11
119.773
21
-91.697
0
LINE
8
BLACK
6
CONTINUOUS
10
119.773
20
-91.697
11
119.609
21
-91.9644
0
LINE
8
BLACK
6
CONTINUOUS
10
119.609
20
-91.9644
11
119.44
21
-92.2418
0
LINE
8
BLACK
6
CONTINUOUS
10
119.44
20
-92.2418
11
119.267
21
-92.5231
0
LINE
8
BLACK
6
CONTINUOUS
10
119.267
20
-92.5231
11
119.096
21
-92.8022
0
LINE
8
BLACK
6
CONTINUOUS
10
119.096
20
-92.8022
11
118.93
21
-93.0731
0
LINE
8
BLACK
6
CONTINUOUS
10
118.93
20
-93.0731
11
118.773
21
-93.3296
0
LINE
8
BLACK
6
CONTINUOUS
10
118.773
20
-93.3296
11
118.628
21
-93.5657
0
LINE
8
BLACK
6
CONTINUOUS
10
118.628
20
-93.5657
11
118.5
21
-93.7753
0
LINE
8
BLACK
6
CONTINUOUS
10
118.5
20
-93.7753
11
118.391
21
-93.9523
0
LINE
8
BLACK
6
CONTINUOUS
10
118.391
20
-93.9523
11
118.306
21
-94.0906
0
LINE
8
BLACK
6
CONTINUOUS
10
118.306
20
-94.0906
11
118.248
21
-94.1842
0
LINE
8
BLACK
6
CONTINUOUS
10
118.248
20
-94.1842
11
118.221
21
-94.227
0
LINE
8
BLACK
6
CONTINUOUS
10
118.221
20
-94.227
11
118.172
21
-94.302
0
LINE
8
BLACK
6
CONTINUOUS
10
118.172
20
-94.302
11
120.633
21
-94.302
0
LINE
8
BLACK
6
CONTINUOUS
10
120.633
20
-94.302
11
123.094
21
-94.302
0
LINE
8
BLACK
6
CONTINUOUS
10
123.094
20
-94.302
11
123.046
21
-94.227
0
LINE
8
BLACK
6
CONTINUOUS
10
140.565
20
-83.0786
11
140.632
21
-83.0919
0
LINE
8
BLACK
6
CONTINUOUS
10
140.632
20
-83.0919
11
140.689
21
-83.1299
0
LINE
8
BLACK
6
CONTINUOUS
10
140.689
20
-83.1299
11
140.727
21
-83.1867
0
LINE
8
BLACK
6
CONTINUOUS
10
140.727
20
-83.1867
11
140.74
21
-83.2536
0
LINE
8
BLACK
6
CONTINUOUS
10
140.74
20
-83.2536
11
140.727
21
-83.3206
0
LINE
8
BLACK
6
CONTINUOUS
10
140.727
20
-83.3206
11
140.689
21
-83.3774
0
LINE
8
BLACK
6
CONTINUOUS
10
140.689
20
-83.3774
11
140.632
21
-83.4153
0
LINE
8
BLACK
6
CONTINUOUS
10
140.632
20
-83.4153
11
140.565
21
-83.4286
0
LINE
8
BLACK
6
CONTINUOUS
10
140.565
20
-83.4286
11
140.565
21
-83.4286
0
LINE
8
BLACK
6
CONTINUOUS
10
140.565
20
-83.4286
11
140.461
21
-83.4286
0
LINE
8
BLACK
6
CONTINUOUS
10
140.461
20
-83.4286
11
140.255
21
-83.4612
0
LINE
8
BLACK
6
CONTINUOUS
10
140.255
20
-83.4612
11
140.056
21
-83.5257
0
LINE
8
BLACK
6
CONTINUOUS
10
140.056
20
-83.5257
11
139.871
21
-83.6204
0
LINE
8
BLACK
6
CONTINUOUS
10
139.871
20
-83.6204
11
139.702
21
-83.743
0
LINE
8
BLACK
6
CONTINUOUS
10
139.702
20
-83.743
11
139.554
21
-83.8905
0
LINE
8
BLACK
6
CONTINUOUS
10
139.554
20
-83.8905
11
139.432
21
-84.0592
0
LINE
8
BLACK
6
CONTINUOUS
10
139.432
20
-84.0592
11
139.337
21
-84.245
0
LINE
8
BLACK
6
CONTINUOUS
10
139.337
20
-84.245
11
139.273
21
-84.4434
0
LINE
8
BLACK
6
CONTINUOUS
10
139.273
20
-84.4434
11
139.24
21
-84.6494
0
LINE
8
BLACK
6
CONTINUOUS
10
139.24
20
-84.6494
11
139.24
21
-84.7536
0
LINE
8
BLACK
6
CONTINUOUS
10
139.24
20
-84.7536
11
139.227
21
-84.8206
0
LINE
8
BLACK
6
CONTINUOUS
10
139.227
20
-84.8206
11
139.189
21
-84.8774
0
LINE
8
BLACK
6
CONTINUOUS
10
139.189
20
-84.8774
11
139.132
21
-84.9153
0
LINE
8
BLACK
6
CONTINUOUS
10
139.132
20
-84.9153
11
139.065
21
-84.9286
0
LINE
8
BLACK
6
CONTINUOUS
10
139.065
20
-84.9286
11
138.998
21
-84.9153
0
LINE
8
BLACK
6
CONTINUOUS
10
138.998
20
-84.9153
11
138.941
21
-84.8774
0
LINE
8
BLACK
6
CONTINUOUS
10
138.941
20
-84.8774
11
138.903
21
-84.8206
0
LINE
8
BLACK
6
CONTINUOUS
10
138.903
20
-84.8206
11
138.89
21
-84.7536
0
LINE
8
BLACK
6
CONTINUOUS
10
138.89
20
-84.7536
11
138.907
21
-84.5152
0
LINE
8
BLACK
6
CONTINUOUS
10
138.907
20
-84.5152
11
138.958
21
-84.2817
0
LINE
8
BLACK
6
CONTINUOUS
10
138.958
20
-84.2817
11
139.041
21
-84.0578
0
LINE
8
BLACK
6
CONTINUOUS
10
139.041
20
-84.0578
11
139.156
21
-83.8481
0
LINE
8
BLACK
6
CONTINUOUS
10
139.156
20
-83.8481
11
139.299
21
-83.6568
0
LINE
8
BLACK
6
CONTINUOUS
10
139.299
20
-83.6568
11
139.468
21
-83.4878
0
LINE
8
BLACK
6
CONTINUOUS
10
139.468
20
-83.4878
11
139.659
21
-83.3445
0
LINE
8
BLACK
6
CONTINUOUS
10
139.659
20
-83.3445
11
139.869
21
-83.23
0
LINE
8
BLACK
6
CONTINUOUS
10
139.869
20
-83.23
11
140.093
21
-83.1465
0
LINE
8
BLACK
6
CONTINUOUS
10
140.093
20
-83.1465
11
140.327
21
-83.0957
0
LINE
8
BLACK
6
CONTINUOUS
10
140.327
20
-83.0957
11
140.565
21
-83.0786
0
LINE
8
BLACK
6
CONTINUOUS
10
140.565
20
-83.0786
11
140.565
21
-83.0786
0
LINE
8
BLACK
6
CONTINUOUS
10
142.917
20
-83.0837
11
142.991
21
-83.1226
0
LINE
8
BLACK
6
CONTINUOUS
10
142.991
20
-83.1226
11
143.039
21
-83.1916
0
LINE
8
BLACK
6
CONTINUOUS
10
143.039
20
-83.1916
11
143.049
21
-83.2747
0
LINE
8
BLACK
6
CONTINUOUS
10
143.049
20
-83.2747
11
143.019
21
-83.353
0
LINE
8
BLACK
6
CONTINUOUS
10
143.019
20
-83.353
11
142.956
21
-83.4086
0
LINE
8
BLACK
6
CONTINUOUS
10
142.956
20
-83.4086
11
142.875
21
-83.4286
0
LINE
8
BLACK
6
CONTINUOUS
10
142.875
20
-83.4286
11
142.24
21
-83.4286
0
LINE
8
BLACK
6
CONTINUOUS
10
142.24
20
-83.4286
11
142.198
21
-83.4235
0
LINE
8
BLACK
6
CONTINUOUS
10
142.198
20
-83.4235
11
142.124
21
-83.3846
0
LINE
8
BLACK
6
CONTINUOUS
10
142.124
20
-83.3846
11
142.076
21
-83.3157
0
LINE
8
BLACK
6
CONTINUOUS
10
142.076
20
-83.3157
11
142.066
21
-83.2325
0
LINE
8
BLACK
6
CONTINUOUS
10
142.066
20
-83.2325
11
142.096
21
-83.1542
0
LINE
8
BLACK
6
CONTINUOUS
10
142.096
20
-83.1542
11
142.159
21
-83.0987
0
LINE
8
BLACK
6
CONTINUOUS
10
142.159
20
-83.0987
11
142.24
21
-83.0786
0
LINE
8
BLACK
6
CONTINUOUS
10
142.24
20
-83.0786
11
142.875
21
-83.0786
0
LINE
8
BLACK
6
CONTINUOUS
10
142.875
20
-83.0786
11
142.917
21
-83.0837
0
LINE
8
BLACK
6
CONTINUOUS
10
145.921
20
-81.592
11
145.978
21
-81.6299
0
LINE
8
BLACK
6
CONTINUOUS
10
145.978
20
-81.6299
11
146.016
21
-81.6867
0
LINE
8
BLACK
6
CONTINUOUS
10
146.016
20
-81.6867
11
146.029
21
-81.7536
0
LINE
8
BLACK
6
CONTINUOUS
10
146.029
20
-81.7536
11
146.012
21
-81.992
0
LINE
8
BLACK
6
CONTINUOUS
10
146.012
20
-81.992
11
145.961
21
-82.2255
0
LINE
8
BLACK
6
CONTINUOUS
10
145.961
20
-82.2255
11
145.878
21
-82.4494
0
LINE
8
BLACK
6
CONTINUOUS
10
145.878
20
-82.4494
11
145.763
21
-82.6592
0
LINE
8
BLACK
6
CONTINUOUS
10
145.763
20
-82.6592
11
145.62
21
-82.8505
0
LINE
8
BLACK
6
CONTINUOUS
10
145.62
20
-82.8505
11
145.451
21
-83.0194
0
LINE
8
BLACK
6
CONTINUOUS
10
145.451
20
-83.0194
11
145.26
21
-83.1627
0
LINE
8
BLACK
6
CONTINUOUS
10
145.26
20
-83.1627
11
145.05
21
-83.2772
0
LINE
8
BLACK
6
CONTINUOUS
10
145.05
20
-83.2772
11
144.826
21
-83.3607
0
LINE
8
BLACK
6
CONTINUOUS
10
144.826
20
-83.3607
11
144.593
21
-83.4115
0
LINE
8
BLACK
6
CONTINUOUS
10
144.593
20
-83.4115
11
144.354
21
-83.4286
0
LINE
8
BLACK
6
CONTINUOUS
10
144.354
20
-83.4286
11
144.354
21
-83.4286
0
LINE
8
BLACK
6
CONTINUOUS
10
144.354
20
-83.4286
11
144.287
21
-83.4153
0
LINE
8
BLACK
6
CONTINUOUS
10
144.287
20
-83.4153
11
144.231
21
-83.3774
0
LINE
8
BLACK
6
CONTINUOUS
10
144.231
20
-83.3774
11
144.193
21
-83.3206
0
LINE
8
BLACK
6
CONTINUOUS
10
144.193
20
-83.3206
11
144.179
21
-83.2536
0
LINE
8
BLACK
6
CONTINUOUS
10
144.179
20
-83.2536
11
144.193
21
-83.1867
0
LINE
8
BLACK
6
CONTINUOUS
10
144.193
20
-83.1867
11
144.231
21
-83.1299
0
LINE
8
BLACK
6
CONTINUOUS
10
144.231
20
-83.1299
11
144.287
21
-83.092
0
LINE
8
BLACK
6
CONTINUOUS
10
144.287
20
-83.092
11
144.354
21
-83.0786
0
LINE
8
BLACK
6
CONTINUOUS
10
144.354
20
-83.0786
11
144.354
21
-83.0786
0
LINE
8
BLACK
6
CONTINUOUS
10
144.354
20
-83.0786
11
144.459
21
-83.0786
0
LINE
8
BLACK
6
CONTINUOUS
10
144.459
20
-83.0786
11
144.665
21
-83.0459
0
LINE
8
BLACK
6
CONTINUOUS
10
144.665
20
-83.0459
11
144.863
21
-82.9815
0
LINE
8
BLACK
6
CONTINUOUS
10
144.863
20
-82.9815
11
145.049
21
-82.8868
0
LINE
8
BLACK
6
CONTINUOUS
10
145.049
20
-82.8868
11
145.218
21
-82.7642
0
LINE
8
BLACK
6
CONTINUOUS
10
145.218
20
-82.7642
11
145.365
21
-82.6168
0
LINE
8
BLACK
6
CONTINUOUS
10
145.365
20
-82.6168
11
145.488
21
-82.448
0
LINE
8
BLACK
6
CONTINUOUS
10
145.488
20
-82.448
11
145.582
21
-82.2622
0
LINE
8
BLACK
6
CONTINUOUS
10
145.582
20
-82.2622
11
145.647
21
-82.0639
0
LINE
8
BLACK
6
CONTINUOUS
10
145.647
20
-82.0639
11
145.679
21
-81.8579
0
LINE
8
BLACK
6
CONTINUOUS
10
145.679
20
-81.8579
11
145.679
21
-81.7536
0
LINE
8
BLACK
6
CONTINUOUS
10
145.679
20
-81.7536
11
145.693
21
-81.6866
0
LINE
8
BLACK
6
CONTINUOUS
10
145.693
20
-81.6866
11
145.731
21
-81.6299
0
LINE
8
BLACK
6
CONTINUOUS
10
145.731
20
-81.6299
11
145.787
21
-81.5919
0
LINE
8
BLACK
6
CONTINUOUS
10
145.787
20
-81.5919
11
145.854
21
-81.5786
0
LINE
8
BLACK
6
CONTINUOUS
10
145.854
20
-81.5786
11
145.921
21
-81.592
0
LINE
8
BLACK
6
CONTINUOUS
10
145.954
20
-70.849
11
146.009
21
-70.9117
0
LINE
8
BLACK
6
CONTINUOUS
10
146.009
20
-70.9117
11
146.029
21
-70.993
0
LINE
8
BLACK
6
CONTINUOUS
10
146.029
20
-70.993
11
146.029
21
-80.518
0
LINE
8
BLACK
6
CONTINUOUS
10
146.029
20
-80.518
11
146.024
21
-80.5599
0
LINE
8
BLACK
6
CONTINUOUS
10
146.024
20
-80.5599
11
145.985
21
-80.634
0
LINE
8
BLACK
6
CONTINUOUS
10
145.985
20
-80.634
11
145.916
21
-80.6816
0
LINE
8
BLACK
6
CONTINUOUS
10
145.916
20
-80.6816
11
145.833
21
-80.6917
0
LINE
8
BLACK
6
CONTINUOUS
10
145.833
20
-80.6917
11
145.755
21
-80.662
0
LINE
8
BLACK
6
CONTINUOUS
10
145.755
20
-80.662
11
145.699
21
-80.5993
0
LINE
8
BLACK
6
CONTINUOUS
10
145.699
20
-80.5993
11
145.679
21
-80.518
0
LINE
8
BLACK
6
CONTINUOUS
10
145.679
20
-80.518
11
145.679
21
-70.993
0
LINE
8
BLACK
6
CONTINUOUS
10
145.679
20
-70.993
11
145.684
21
-70.9511
0
LINE
8
BLACK
6
CONTINUOUS
10
145.684
20
-70.9511
11
145.723
21
-70.877
0
LINE
8
BLACK
6
CONTINUOUS
10
145.723
20
-70.877
11
145.792
21
-70.8294
0
LINE
8
BLACK
6
CONTINUOUS
10
145.792
20
-70.8294
11
145.875
21
-70.8193
0
LINE
8
BLACK
6
CONTINUOUS
10
145.875
20
-70.8193
11
145.954
21
-70.849
  0
ENDSEC
  0
EOF
