G04 #@! TF.GenerationSoftware,KiCad,Pcbnew,7.0.8*
G04 #@! TF.CreationDate,2024-06-27T14:34:40-03:00*
G04 #@! TF.ProjectId,sensor_module,73656e73-6f72-45f6-9d6f-64756c652e6b,1.0*
G04 #@! TF.SameCoordinates,Original*
G04 #@! TF.FileFunction,Paste,Top*
G04 #@! TF.FilePolarity,Positive*
%FSLAX46Y46*%
G04 Gerber Fmt 4.6, Leading zero omitted, Abs format (unit mm)*
G04 Created by KiCad (PCBNEW 7.0.8) date 2024-06-27 14:34:40*
%MOMM*%
%LPD*%
G01*
G04 APERTURE LIST*
G04 Aperture macros list*
%AMRoundRect*
0 Rectangle with rounded corners*
0 $1 Rounding radius*
0 $2 $3 $4 $5 $6 $7 $8 $9 X,Y pos of 4 corners*
0 Add a 4 corners polygon primitive as box body*
4,1,4,$2,$3,$4,$5,$6,$7,$8,$9,$2,$3,0*
0 Add four circle primitives for the rounded corners*
1,1,$1+$1,$2,$3*
1,1,$1+$1,$4,$5*
1,1,$1+$1,$6,$7*
1,1,$1+$1,$8,$9*
0 Add four rect primitives between the rounded corners*
20,1,$1+$1,$2,$3,$4,$5,0*
20,1,$1+$1,$4,$5,$6,$7,0*
20,1,$1+$1,$6,$7,$8,$9,0*
20,1,$1+$1,$8,$9,$2,$3,0*%
G04 Aperture macros list end*
%ADD10RoundRect,0.200000X-0.275000X0.200000X-0.275000X-0.200000X0.275000X-0.200000X0.275000X0.200000X0*%
%ADD11RoundRect,0.200000X-0.200000X-0.275000X0.200000X-0.275000X0.200000X0.275000X-0.200000X0.275000X0*%
%ADD12RoundRect,0.200000X0.200000X0.275000X-0.200000X0.275000X-0.200000X-0.275000X0.200000X-0.275000X0*%
%ADD13RoundRect,0.250000X-0.450000X-0.425000X0.450000X-0.425000X0.450000X0.425000X-0.450000X0.425000X0*%
%ADD14RoundRect,0.225000X-0.250000X0.225000X-0.250000X-0.225000X0.250000X-0.225000X0.250000X0.225000X0*%
%ADD15RoundRect,0.150000X0.150000X-0.820000X0.150000X0.820000X-0.150000X0.820000X-0.150000X-0.820000X0*%
%ADD16R,2.000000X1.500000*%
%ADD17R,2.000000X3.800000*%
%ADD18R,1.100000X2.500000*%
%ADD19R,2.500000X1.100000*%
%ADD20RoundRect,0.200000X0.275000X-0.200000X0.275000X0.200000X-0.275000X0.200000X-0.275000X-0.200000X0*%
%ADD21RoundRect,0.218750X-0.218750X-0.256250X0.218750X-0.256250X0.218750X0.256250X-0.218750X0.256250X0*%
%ADD22RoundRect,0.225000X-0.225000X-0.250000X0.225000X-0.250000X0.225000X0.250000X-0.225000X0.250000X0*%
%ADD23RoundRect,0.225000X0.250000X-0.225000X0.250000X0.225000X-0.250000X0.225000X-0.250000X-0.225000X0*%
%ADD24RoundRect,0.250000X1.250000X0.550000X-1.250000X0.550000X-1.250000X-0.550000X1.250000X-0.550000X0*%
%ADD25RoundRect,0.225000X0.225000X0.250000X-0.225000X0.250000X-0.225000X-0.250000X0.225000X-0.250000X0*%
%ADD26RoundRect,0.250000X-1.250000X-0.550000X1.250000X-0.550000X1.250000X0.550000X-1.250000X0.550000X0*%
%ADD27RoundRect,0.218750X0.218750X0.256250X-0.218750X0.256250X-0.218750X-0.256250X0.218750X-0.256250X0*%
%ADD28RoundRect,0.250000X-1.500000X-0.550000X1.500000X-0.550000X1.500000X0.550000X-1.500000X0.550000X0*%
%ADD29RoundRect,0.077500X0.232500X-0.577500X0.232500X0.577500X-0.232500X0.577500X-0.232500X-0.577500X0*%
G04 APERTURE END LIST*
D10*
X169672000Y-73914000D03*
X169672000Y-75564000D03*
D11*
X164783000Y-81153000D03*
X166433000Y-81153000D03*
D12*
X161714000Y-123375000D03*
X160064000Y-123375000D03*
D13*
X139285999Y-139644000D03*
X141985999Y-139644000D03*
D14*
X172720000Y-94761000D03*
X172720000Y-96311000D03*
D15*
X155067000Y-77410000D03*
X156337000Y-77410000D03*
X157607000Y-77410000D03*
X158877000Y-77410000D03*
X158877000Y-72450000D03*
X157607000Y-72450000D03*
X156337000Y-72450000D03*
X155067000Y-72450000D03*
D16*
X136246000Y-133364000D03*
X136246000Y-131064000D03*
D17*
X129946000Y-131064000D03*
D16*
X136246000Y-128764000D03*
D18*
X181252500Y-100758000D03*
X179252500Y-100758000D03*
X177252500Y-100758000D03*
X175252500Y-100758000D03*
X173252500Y-100758000D03*
X171252500Y-100758000D03*
X169252500Y-100758000D03*
X167252500Y-100758000D03*
X167252500Y-116158000D03*
X169252500Y-116158000D03*
X171252500Y-116158000D03*
X173252500Y-116158000D03*
X175252500Y-116158000D03*
X177252500Y-116158000D03*
X179252500Y-116158000D03*
X181252500Y-116158000D03*
D19*
X165552500Y-103448000D03*
X165552500Y-105448000D03*
X165552500Y-107448000D03*
X165552500Y-109448000D03*
X165552500Y-111448000D03*
X165552500Y-113448000D03*
D14*
X152712004Y-77410001D03*
X152712004Y-78960001D03*
D20*
X150807006Y-75695000D03*
X150807006Y-74045000D03*
D21*
X160121500Y-125476000D03*
X161696500Y-125476000D03*
D10*
X152712004Y-74045000D03*
X152712004Y-75695000D03*
D12*
X169252504Y-119253000D03*
X167602504Y-119253000D03*
D11*
X142431000Y-117348000D03*
X144081000Y-117348000D03*
D22*
X161023000Y-82889498D03*
X162573000Y-82889498D03*
D23*
X148902003Y-78960001D03*
X148902003Y-77410001D03*
D24*
X161290000Y-104648000D03*
X156890000Y-104648000D03*
D12*
X162623001Y-84625998D03*
X160973001Y-84625998D03*
X170878000Y-142621000D03*
X169228000Y-142621000D03*
D11*
X179134000Y-123375001D03*
X180784000Y-123375001D03*
D15*
X156337000Y-141418000D03*
X157607000Y-141418000D03*
X158877000Y-141418000D03*
X160147000Y-141418000D03*
X160147000Y-136458000D03*
X158877000Y-136458000D03*
X157607000Y-136458000D03*
X156337000Y-136458000D03*
D14*
X164973000Y-94761000D03*
X164973000Y-96311000D03*
D13*
X139365999Y-131389000D03*
X142065999Y-131389000D03*
D25*
X166383000Y-82889498D03*
X164833000Y-82889498D03*
D10*
X145288000Y-138303000D03*
X145288000Y-139953000D03*
D22*
X167252501Y-97663001D03*
X168802501Y-97663001D03*
D11*
X164783000Y-84625998D03*
X166433000Y-84625998D03*
D26*
X156890000Y-111633000D03*
X161290000Y-111633000D03*
D13*
X139365999Y-136694000D03*
X142065999Y-136694000D03*
D12*
X162623001Y-81153000D03*
X160973001Y-81153000D03*
D22*
X166662999Y-94786000D03*
X168212999Y-94786000D03*
D11*
X113221000Y-109728000D03*
X114871000Y-109728000D03*
D12*
X170433000Y-84625998D03*
X168783000Y-84625998D03*
D13*
X139365999Y-128439000D03*
X142065999Y-128439000D03*
D16*
X136245999Y-141619000D03*
X136245999Y-139319000D03*
D17*
X129945999Y-139319000D03*
D16*
X136245999Y-137019000D03*
D27*
X114808000Y-107188000D03*
X113233000Y-107188000D03*
D28*
X120316000Y-130810000D03*
X125716000Y-130810000D03*
D11*
X179602504Y-97663000D03*
X181252504Y-97663000D03*
D20*
X160967002Y-79060000D03*
X160967002Y-77410000D03*
X150807006Y-79010001D03*
X150807006Y-77360001D03*
D21*
X169322000Y-140843000D03*
X170897000Y-140843000D03*
D10*
X170814999Y-94711000D03*
X170814999Y-96361000D03*
D11*
X175602501Y-97663001D03*
X177252501Y-97663001D03*
D29*
X161163000Y-92666000D03*
X162433000Y-92666000D03*
X163703000Y-92666000D03*
X164973000Y-92666000D03*
X166243000Y-92666000D03*
X167513000Y-92666000D03*
X168783000Y-92666000D03*
X170053000Y-92666000D03*
X170053000Y-87166000D03*
X168783000Y-87166000D03*
X167513000Y-87166000D03*
X166243000Y-87166000D03*
X164973000Y-87166000D03*
X163703000Y-87166000D03*
X162433000Y-87166000D03*
X161163000Y-87166000D03*
D27*
X180746500Y-125349000D03*
X179171500Y-125349000D03*
M02*
