G04 #@! TF.GenerationSoftware,KiCad,Pcbnew,7.0.8*
G04 #@! TF.CreationDate,2024-06-27T14:34:40-03:00*
G04 #@! TF.ProjectId,sensor_module,73656e73-6f72-45f6-9d6f-64756c652e6b,1.0*
G04 #@! TF.SameCoordinates,Original*
G04 #@! TF.FileFunction,Copper,L2,Bot*
G04 #@! TF.FilePolarity,Positive*
%FSLAX46Y46*%
G04 Gerber Fmt 4.6, Leading zero omitted, Abs format (unit mm)*
G04 Created by KiCad (PCBNEW 7.0.8) date 2024-06-27 14:34:40*
%MOMM*%
%LPD*%
G01*
G04 APERTURE LIST*
G04 #@! TA.AperFunction,ComponentPad*
%ADD10C,1.500000*%
G04 #@! TD*
G04 #@! TA.AperFunction,ComponentPad*
%ADD11R,1.222000X1.222000*%
G04 #@! TD*
G04 #@! TA.AperFunction,ComponentPad*
%ADD12C,1.222000*%
G04 #@! TD*
G04 #@! TA.AperFunction,ComponentPad*
%ADD13R,2.000000X2.000000*%
G04 #@! TD*
G04 #@! TA.AperFunction,ComponentPad*
%ADD14C,2.000000*%
G04 #@! TD*
G04 #@! TA.AperFunction,ComponentPad*
%ADD15R,2.000000X2.300000*%
G04 #@! TD*
G04 #@! TA.AperFunction,ComponentPad*
%ADD16C,2.300000*%
G04 #@! TD*
G04 #@! TA.AperFunction,ComponentPad*
%ADD17R,1.700000X1.700000*%
G04 #@! TD*
G04 #@! TA.AperFunction,ComponentPad*
%ADD18O,1.700000X1.700000*%
G04 #@! TD*
G04 #@! TA.AperFunction,ComponentPad*
%ADD19R,2.600000X2.600000*%
G04 #@! TD*
G04 #@! TA.AperFunction,ComponentPad*
%ADD20C,2.600000*%
G04 #@! TD*
G04 #@! TA.AperFunction,ComponentPad*
%ADD21R,1.800000X1.800000*%
G04 #@! TD*
G04 #@! TA.AperFunction,ComponentPad*
%ADD22C,1.800000*%
G04 #@! TD*
G04 #@! TA.AperFunction,ComponentPad*
%ADD23C,1.320800*%
G04 #@! TD*
G04 #@! TA.AperFunction,ComponentPad*
%ADD24R,1.651000X1.651000*%
G04 #@! TD*
G04 #@! TA.AperFunction,ComponentPad*
%ADD25C,1.651000*%
G04 #@! TD*
G04 #@! TA.AperFunction,ComponentPad*
%ADD26C,2.400000*%
G04 #@! TD*
G04 #@! TA.AperFunction,ComponentPad*
%ADD27R,1.500000X1.500000*%
G04 #@! TD*
G04 #@! TA.AperFunction,ViaPad*
%ADD28C,0.800000*%
G04 #@! TD*
G04 #@! TA.AperFunction,Conductor*
%ADD29C,0.250000*%
G04 #@! TD*
G04 APERTURE END LIST*
D10*
X151560000Y-138303000D03*
X148160000Y-138303000D03*
D11*
X171704000Y-126365001D03*
D12*
X174244000Y-123825001D03*
X176784000Y-126365001D03*
D13*
X146500000Y-89223000D03*
D14*
X145110000Y-92583000D03*
X146500000Y-95943000D03*
X153220000Y-95943000D03*
X154610000Y-92583000D03*
X153220000Y-89223000D03*
D13*
X181356000Y-87122000D03*
D14*
X173756000Y-87122000D03*
D15*
X130516000Y-94149500D03*
D16*
X125516000Y-94149500D03*
X135716000Y-123549500D03*
X120316000Y-123549500D03*
D17*
X163307000Y-119659000D03*
D18*
X160767000Y-119659000D03*
X158227000Y-119659000D03*
D11*
X164084000Y-134366000D03*
D12*
X166624000Y-131826000D03*
X169164000Y-134366000D03*
D11*
X171704000Y-134366000D03*
D12*
X174244000Y-131826000D03*
X176784000Y-134366000D03*
D19*
X142494000Y-77419000D03*
D20*
X137414000Y-77419000D03*
D21*
X166370000Y-76454000D03*
D22*
X166370000Y-73914000D03*
D11*
X164084000Y-126365000D03*
D12*
X166624000Y-123825000D03*
X169164000Y-126365000D03*
D23*
X147320000Y-108458000D03*
X149860000Y-110998000D03*
X152400000Y-108458000D03*
D24*
X153670000Y-114964000D03*
D25*
X151130000Y-114964000D03*
X148590000Y-114964000D03*
X146050000Y-114964000D03*
D26*
X135516000Y-87757000D03*
X120516000Y-87757000D03*
D17*
X143510000Y-144526000D03*
D18*
X146050000Y-144526000D03*
X148590000Y-144526000D03*
X151130000Y-144526000D03*
X153670000Y-144526000D03*
X156210000Y-144526000D03*
D27*
X125516000Y-81978001D03*
D10*
X125516000Y-79978001D03*
X125516000Y-77978001D03*
X130516000Y-81978001D03*
X130516000Y-79978001D03*
X130516000Y-77978001D03*
D28*
X141985999Y-141478000D03*
X158750000Y-125476000D03*
X160967002Y-76200000D03*
X170942000Y-85852000D03*
X161290000Y-141418000D03*
X138176000Y-141619000D03*
X148902003Y-75946000D03*
X127508000Y-129032000D03*
X164084000Y-76454000D03*
X168783000Y-91186000D03*
X164973000Y-97790000D03*
X166370000Y-118110000D03*
X167894000Y-140843000D03*
X138176000Y-133364000D03*
X170814999Y-97663001D03*
X162306000Y-109728000D03*
X150807006Y-72644000D03*
X114808000Y-108458000D03*
X142065999Y-126746000D03*
X153924000Y-78960001D03*
X180746500Y-126746000D03*
X175252500Y-102870000D03*
X139365999Y-125222000D03*
X139365999Y-133364000D03*
X175252500Y-114046000D03*
X163703000Y-88646000D03*
X155702000Y-97790000D03*
X161290000Y-102870000D03*
X167894000Y-81153000D03*
X171252500Y-112522000D03*
X171958000Y-121666000D03*
X166243000Y-91186000D03*
X170180000Y-104902000D03*
X154178000Y-135890000D03*
X157734000Y-138176000D03*
X160274000Y-99568000D03*
X179252500Y-114046000D03*
X181252500Y-114046000D03*
X173252500Y-114046000D03*
X169672000Y-78232000D03*
X157607000Y-79248000D03*
X160274000Y-98298000D03*
X153670000Y-137160000D03*
X158496000Y-138938000D03*
X167513000Y-91186000D03*
X173252500Y-102870000D03*
X171196000Y-75564000D03*
X171252500Y-102870000D03*
X177252500Y-114046000D03*
X169252500Y-102870000D03*
X168148000Y-122936000D03*
X169252500Y-112522000D03*
X162433000Y-94234000D03*
D29*
X181356000Y-96766500D02*
X175252500Y-102870000D01*
X181356000Y-87122000D02*
X181356000Y-96766500D01*
X120516000Y-87757000D02*
X132461000Y-87757000D01*
X142494000Y-77724000D02*
X142494000Y-77419000D01*
X132461000Y-87757000D02*
X142494000Y-77724000D01*
X163307000Y-125588000D02*
X164084000Y-126365000D01*
X163307000Y-119659000D02*
X163307000Y-125588000D01*
X165862000Y-110236000D02*
X179070000Y-110236000D01*
X158750000Y-117348000D02*
X165862000Y-110236000D01*
X172974000Y-128778000D02*
X171704000Y-127508000D01*
X182372000Y-113538000D02*
X182372000Y-118110000D01*
X139365999Y-133364000D02*
X139365999Y-125222000D01*
X139365999Y-121492001D02*
X139365999Y-125222000D01*
X179578000Y-125476000D02*
X176276000Y-128778000D01*
X179578000Y-120904000D02*
X179578000Y-125476000D01*
X139365999Y-121492001D02*
X143510000Y-117348000D01*
X143510000Y-117348000D02*
X158750000Y-117348000D01*
X182372000Y-118110000D02*
X179578000Y-120904000D01*
X176276000Y-128778000D02*
X172974000Y-128778000D01*
X171704000Y-127508000D02*
X171704000Y-126365001D01*
X179070000Y-110236000D02*
X182372000Y-113538000D01*
X163703000Y-89789000D02*
X163703000Y-88646000D01*
X155702000Y-97790000D02*
X163703000Y-89789000D01*
X161290000Y-93472000D02*
X167894000Y-86868000D01*
X161290000Y-102870000D02*
X161290000Y-93472000D01*
X167894000Y-86868000D02*
X167894000Y-81153000D01*
X170180000Y-101600000D02*
X166243000Y-97663000D01*
X170180000Y-104902000D02*
X170180000Y-101600000D01*
X166243000Y-97663000D02*
X166243000Y-91186000D01*
X171252500Y-112522000D02*
X171252500Y-120960500D01*
X171252500Y-120960500D02*
X171958000Y-121666000D01*
X157734000Y-138176000D02*
X157734000Y-136906000D01*
X148590000Y-100584000D02*
X159258000Y-100584000D01*
X162814000Y-131826000D02*
X166624000Y-131826000D01*
X133858000Y-131064000D02*
X133858000Y-115316000D01*
X154178000Y-135890000D02*
X138684000Y-135890000D01*
X138684000Y-135890000D02*
X133858000Y-131064000D01*
X157734000Y-136906000D02*
X162814000Y-131826000D01*
X159258000Y-100584000D02*
X160274000Y-99568000D01*
X133858000Y-115316000D02*
X148590000Y-100584000D01*
X171450000Y-123952000D02*
X179252500Y-116149500D01*
X179252500Y-116149500D02*
X179252500Y-114046000D01*
X151130000Y-144526000D02*
X151130000Y-143510000D01*
X168656000Y-123952000D02*
X171450000Y-123952000D01*
X151130000Y-143510000D02*
X153670000Y-140970000D01*
X153670000Y-140970000D02*
X153670000Y-138938000D01*
X153670000Y-138938000D02*
X168656000Y-123952000D01*
X154432000Y-141224000D02*
X154432000Y-139192000D01*
X168910000Y-124714000D02*
X171958000Y-124714000D01*
X171958000Y-124714000D02*
X181252500Y-115419500D01*
X153670000Y-144526000D02*
X153670000Y-141986000D01*
X153670000Y-141986000D02*
X154432000Y-141224000D01*
X181252500Y-115419500D02*
X181252500Y-114046000D01*
X154432000Y-139192000D02*
X168910000Y-124714000D01*
X160767000Y-117109000D02*
X160767000Y-119659000D01*
X166624000Y-111252000D02*
X160767000Y-117109000D01*
X173252500Y-114046000D02*
X173252500Y-112800500D01*
X173252500Y-112800500D02*
X171704000Y-111252000D01*
X171704000Y-111252000D02*
X166624000Y-111252000D01*
X169672000Y-78232000D02*
X158623000Y-78232000D01*
X158623000Y-78232000D02*
X157607000Y-79248000D01*
X153670000Y-137160000D02*
X152908000Y-136398000D01*
X148336000Y-99822000D02*
X158750000Y-99822000D01*
X138176000Y-136398000D02*
X133096000Y-131318000D01*
X158496000Y-138938000D02*
X160782000Y-138938000D01*
X160782000Y-138938000D02*
X164084000Y-135636000D01*
X158750000Y-99822000D02*
X160274000Y-98298000D01*
X152908000Y-136398000D02*
X138176000Y-136398000D01*
X164084000Y-135636000D02*
X164084000Y-134366000D01*
X133096000Y-115062000D02*
X148336000Y-99822000D01*
X133096000Y-131318000D02*
X133096000Y-115062000D01*
X174244000Y-106680000D02*
X176784000Y-106680000D01*
X171704000Y-131572000D02*
X171704000Y-134366000D01*
X172974000Y-130302000D02*
X171704000Y-131572000D01*
X180340000Y-125730000D02*
X175768000Y-130302000D01*
X167513000Y-91186000D02*
X167513000Y-97155000D01*
X172212000Y-104648000D02*
X174244000Y-106680000D01*
X172212000Y-101854000D02*
X172212000Y-104648000D01*
X183134000Y-118364000D02*
X180340000Y-121158000D01*
X175768000Y-130302000D02*
X172974000Y-130302000D01*
X180340000Y-121158000D02*
X180340000Y-125730000D01*
X167513000Y-97155000D02*
X172212000Y-101854000D01*
X183134000Y-113030000D02*
X183134000Y-118364000D01*
X176784000Y-106680000D02*
X183134000Y-113030000D01*
X171196000Y-75564000D02*
X171958000Y-76326000D01*
X171958000Y-76326000D02*
X171958000Y-94996000D01*
X173252500Y-96290500D02*
X173252500Y-102870000D01*
X171958000Y-94996000D02*
X173252500Y-96290500D01*
X151130000Y-114964000D02*
X151130000Y-113792000D01*
X165354000Y-109220000D02*
X168402000Y-109220000D01*
X171252500Y-106369500D02*
X171252500Y-102870000D01*
X151130000Y-113792000D02*
X151638000Y-113284000D01*
X151638000Y-113284000D02*
X161290000Y-113284000D01*
X168402000Y-109220000D02*
X171252500Y-106369500D01*
X161290000Y-113284000D02*
X165354000Y-109220000D01*
X166878000Y-102870000D02*
X169252500Y-102870000D01*
X162433000Y-94234000D02*
X162433000Y-98425000D01*
X169252500Y-112522000D02*
X169252500Y-121831500D01*
X162433000Y-98425000D02*
X166878000Y-102870000D01*
X169252500Y-121831500D02*
X168148000Y-122936000D01*
G04 #@! TA.AperFunction,Conductor*
G36*
X167035026Y-70503623D02*
G01*
X176380424Y-76299878D01*
X176387253Y-76304786D01*
X176606130Y-76485830D01*
X176729613Y-76587969D01*
X177234564Y-77022053D01*
X177665376Y-77401827D01*
X177697454Y-77430105D01*
X178188916Y-77879038D01*
X178638838Y-78301521D01*
X179107774Y-78756536D01*
X179116513Y-78765016D01*
X179552982Y-79201485D01*
X180016477Y-79679160D01*
X180180356Y-79853682D01*
X180438957Y-80129078D01*
X180887899Y-80620551D01*
X181065746Y-80822298D01*
X181256893Y-81039133D01*
X181295895Y-81083375D01*
X181302657Y-81091242D01*
X181730052Y-81588412D01*
X182013207Y-81930737D01*
X182018124Y-81937579D01*
X187814377Y-91282974D01*
X187833000Y-91348331D01*
X187833000Y-125567890D01*
X187814594Y-125632897D01*
X182190721Y-134767958D01*
X182186131Y-134774443D01*
X182122975Y-134852554D01*
X181730027Y-135327616D01*
X181295924Y-135832589D01*
X180887893Y-136295454D01*
X180438957Y-136786920D01*
X180016464Y-137236852D01*
X179552982Y-137714513D01*
X179116513Y-138150982D01*
X178638852Y-138614464D01*
X178188920Y-139036957D01*
X177697454Y-139485893D01*
X177234589Y-139893924D01*
X176729617Y-140328025D01*
X176260606Y-140715968D01*
X176253651Y-140720955D01*
X167034947Y-146412511D01*
X166969805Y-146431000D01*
X132750332Y-146431000D01*
X132684974Y-146412377D01*
X131045853Y-145395752D01*
X142459500Y-145395752D01*
X142471131Y-145454229D01*
X142471132Y-145454230D01*
X142515447Y-145520552D01*
X142581769Y-145564867D01*
X142581770Y-145564868D01*
X142640247Y-145576499D01*
X142640250Y-145576500D01*
X142640252Y-145576500D01*
X144379750Y-145576500D01*
X144379751Y-145576499D01*
X144394568Y-145573552D01*
X144438229Y-145564868D01*
X144438229Y-145564867D01*
X144438231Y-145564867D01*
X144504552Y-145520552D01*
X144548867Y-145454231D01*
X144548867Y-145454229D01*
X144548868Y-145454229D01*
X144558922Y-145403682D01*
X144560500Y-145395748D01*
X144560500Y-144526000D01*
X144994417Y-144526000D01*
X145014699Y-144731932D01*
X145021638Y-144754807D01*
X145074768Y-144929954D01*
X145172315Y-145112450D01*
X145172317Y-145112452D01*
X145303589Y-145272410D01*
X145400209Y-145351702D01*
X145463550Y-145403685D01*
X145646046Y-145501232D01*
X145844066Y-145561300D01*
X145844065Y-145561300D01*
X145862529Y-145563118D01*
X146050000Y-145581583D01*
X146255934Y-145561300D01*
X146453954Y-145501232D01*
X146636450Y-145403685D01*
X146796410Y-145272410D01*
X146927685Y-145112450D01*
X147025232Y-144929954D01*
X147085300Y-144731934D01*
X147105583Y-144526000D01*
X147534417Y-144526000D01*
X147554699Y-144731932D01*
X147561638Y-144754807D01*
X147614768Y-144929954D01*
X147712315Y-145112450D01*
X147712317Y-145112452D01*
X147843589Y-145272410D01*
X147940209Y-145351702D01*
X148003550Y-145403685D01*
X148186046Y-145501232D01*
X148384066Y-145561300D01*
X148384065Y-145561300D01*
X148402529Y-145563118D01*
X148590000Y-145581583D01*
X148795934Y-145561300D01*
X148993954Y-145501232D01*
X149176450Y-145403685D01*
X149336410Y-145272410D01*
X149467685Y-145112450D01*
X149565232Y-144929954D01*
X149625300Y-144731934D01*
X149645583Y-144526000D01*
X149625300Y-144320066D01*
X149565232Y-144122046D01*
X149467685Y-143939550D01*
X149392897Y-143848420D01*
X149336410Y-143779589D01*
X149186121Y-143656252D01*
X149176450Y-143648315D01*
X148993954Y-143550768D01*
X148795934Y-143490700D01*
X148795932Y-143490699D01*
X148795934Y-143490699D01*
X148590000Y-143470417D01*
X148384067Y-143490699D01*
X148249736Y-143531448D01*
X148194476Y-143548211D01*
X148186043Y-143550769D01*
X148120027Y-143586056D01*
X148003550Y-143648315D01*
X148003548Y-143648316D01*
X148003547Y-143648317D01*
X147843589Y-143779589D01*
X147712317Y-143939547D01*
X147614769Y-144122043D01*
X147554699Y-144320067D01*
X147534417Y-144526000D01*
X147105583Y-144526000D01*
X147085300Y-144320066D01*
X147025232Y-144122046D01*
X146927685Y-143939550D01*
X146852897Y-143848420D01*
X146796410Y-143779589D01*
X146646121Y-143656252D01*
X146636450Y-143648315D01*
X146453954Y-143550768D01*
X146255934Y-143490700D01*
X146255932Y-143490699D01*
X146255934Y-143490699D01*
X146050000Y-143470417D01*
X145844067Y-143490699D01*
X145709736Y-143531448D01*
X145654476Y-143548211D01*
X145646043Y-143550769D01*
X145580027Y-143586056D01*
X145463550Y-143648315D01*
X145463548Y-143648316D01*
X145463547Y-143648317D01*
X145303589Y-143779589D01*
X145172317Y-143939547D01*
X145074769Y-144122043D01*
X145014699Y-144320067D01*
X144994417Y-144526000D01*
X144560500Y-144526000D01*
X144560500Y-143656252D01*
X144560500Y-143656249D01*
X144560499Y-143656247D01*
X144548868Y-143597770D01*
X144548867Y-143597769D01*
X144504552Y-143531447D01*
X144438230Y-143487132D01*
X144438229Y-143487131D01*
X144379752Y-143475500D01*
X144379748Y-143475500D01*
X142640252Y-143475500D01*
X142640247Y-143475500D01*
X142581770Y-143487131D01*
X142581769Y-143487132D01*
X142515447Y-143531447D01*
X142471132Y-143597769D01*
X142471131Y-143597770D01*
X142459500Y-143656247D01*
X142459500Y-145395752D01*
X131045853Y-145395752D01*
X130046616Y-144776000D01*
X123339581Y-140616125D01*
X123332739Y-140611208D01*
X122990384Y-140328028D01*
X122758258Y-140128480D01*
X122485391Y-139893909D01*
X122064687Y-139523044D01*
X122022541Y-139485890D01*
X121531079Y-139036958D01*
X121314542Y-138833626D01*
X121081161Y-138614478D01*
X120760154Y-138303000D01*
X146905225Y-138303000D01*
X146924287Y-138520884D01*
X146924289Y-138520894D01*
X146980894Y-138732150D01*
X146980898Y-138732159D01*
X147073335Y-138930391D01*
X147116873Y-138992571D01*
X147116875Y-138992572D01*
X147762046Y-138347400D01*
X147774835Y-138428148D01*
X147832359Y-138541045D01*
X147921955Y-138630641D01*
X148034852Y-138688165D01*
X148115599Y-138700953D01*
X147470426Y-139346124D01*
X147532611Y-139389666D01*
X147532613Y-139389667D01*
X147730840Y-139482101D01*
X147730849Y-139482105D01*
X147942105Y-139538710D01*
X147942115Y-139538712D01*
X148159999Y-139557775D01*
X148160001Y-139557775D01*
X148377884Y-139538712D01*
X148377894Y-139538710D01*
X148589150Y-139482105D01*
X148589159Y-139482101D01*
X148787387Y-139389666D01*
X148849572Y-139346124D01*
X148204401Y-138700953D01*
X148285148Y-138688165D01*
X148398045Y-138630641D01*
X148487641Y-138541045D01*
X148545165Y-138428148D01*
X148557953Y-138347400D01*
X149203124Y-138992572D01*
X149246666Y-138930387D01*
X149339101Y-138732159D01*
X149339105Y-138732150D01*
X149395710Y-138520894D01*
X149395712Y-138520884D01*
X149414775Y-138303000D01*
X150604901Y-138303000D01*
X150623252Y-138489331D01*
X150623253Y-138489333D01*
X150677604Y-138668502D01*
X150765862Y-138833623D01*
X150765864Y-138833626D01*
X150884642Y-138978357D01*
X151029373Y-139097135D01*
X151029376Y-139097137D01*
X151152960Y-139163193D01*
X151194499Y-139185396D01*
X151366440Y-139237554D01*
X151373666Y-139239746D01*
X151373668Y-139239747D01*
X151389609Y-139241317D01*
X151560000Y-139258099D01*
X151746331Y-139239747D01*
X151925501Y-139185396D01*
X152090625Y-139097136D01*
X152235357Y-138978357D01*
X152354136Y-138833625D01*
X152442396Y-138668501D01*
X152496747Y-138489331D01*
X152515099Y-138303000D01*
X152496747Y-138116669D01*
X152442396Y-137937499D01*
X152441614Y-137936036D01*
X152354137Y-137772376D01*
X152354135Y-137772373D01*
X152235357Y-137627642D01*
X152090626Y-137508864D01*
X152090623Y-137508862D01*
X151925502Y-137420604D01*
X151746333Y-137366253D01*
X151746331Y-137366252D01*
X151560000Y-137347901D01*
X151373668Y-137366252D01*
X151373666Y-137366253D01*
X151194497Y-137420604D01*
X151029376Y-137508862D01*
X151029373Y-137508864D01*
X150884642Y-137627642D01*
X150765864Y-137772373D01*
X150765862Y-137772376D01*
X150677604Y-137937497D01*
X150623253Y-138116666D01*
X150623252Y-138116668D01*
X150604901Y-138303000D01*
X149414775Y-138303000D01*
X149414775Y-138302999D01*
X149395712Y-138085115D01*
X149395710Y-138085105D01*
X149339105Y-137873849D01*
X149339101Y-137873840D01*
X149246668Y-137675615D01*
X149203123Y-137613428D01*
X148557953Y-138258598D01*
X148545165Y-138177852D01*
X148487641Y-138064955D01*
X148398045Y-137975359D01*
X148285148Y-137917835D01*
X148204401Y-137905046D01*
X148849572Y-137259875D01*
X148849571Y-137259873D01*
X148787391Y-137216335D01*
X148589159Y-137123898D01*
X148589150Y-137123894D01*
X148377894Y-137067289D01*
X148377884Y-137067287D01*
X148160001Y-137048225D01*
X148159999Y-137048225D01*
X147942115Y-137067287D01*
X147942105Y-137067289D01*
X147730849Y-137123894D01*
X147730840Y-137123898D01*
X147532614Y-137216332D01*
X147532612Y-137216333D01*
X147470428Y-137259875D01*
X147470427Y-137259875D01*
X148115599Y-137905046D01*
X148034852Y-137917835D01*
X147921955Y-137975359D01*
X147832359Y-138064955D01*
X147774835Y-138177852D01*
X147762046Y-138258598D01*
X147116875Y-137613427D01*
X147116875Y-137613428D01*
X147073333Y-137675612D01*
X147073332Y-137675614D01*
X146980898Y-137873840D01*
X146980894Y-137873849D01*
X146924289Y-138085105D01*
X146924287Y-138085115D01*
X146905225Y-138302999D01*
X146905225Y-138303000D01*
X120760154Y-138303000D01*
X120603485Y-138150982D01*
X120167017Y-137714514D01*
X120128422Y-137674738D01*
X119703522Y-137236839D01*
X119281039Y-136786917D01*
X118832100Y-136295448D01*
X118612873Y-136046760D01*
X118424101Y-135832619D01*
X117989941Y-135327580D01*
X117706786Y-134985254D01*
X117701882Y-134978430D01*
X115449457Y-131346808D01*
X132766735Y-131346808D01*
X132777212Y-131385910D01*
X132778383Y-131391190D01*
X132785411Y-131431043D01*
X132787235Y-131436055D01*
X132794197Y-131452861D01*
X132796445Y-131457681D01*
X132796446Y-131457684D01*
X132810452Y-131477687D01*
X132819655Y-131490831D01*
X132822561Y-131495392D01*
X132842806Y-131530455D01*
X132873815Y-131556475D01*
X132877805Y-131560131D01*
X137933863Y-136616189D01*
X137937518Y-136620178D01*
X137963541Y-136651190D01*
X137963543Y-136651191D01*
X137963545Y-136651194D01*
X137963547Y-136651195D01*
X137963548Y-136651196D01*
X137998599Y-136671433D01*
X138003163Y-136674340D01*
X138030590Y-136693545D01*
X138036316Y-136697554D01*
X138036319Y-136697554D01*
X138041176Y-136699820D01*
X138057933Y-136706760D01*
X138062950Y-136708586D01*
X138062952Y-136708586D01*
X138062955Y-136708588D01*
X138102818Y-136715616D01*
X138108076Y-136716782D01*
X138147193Y-136727264D01*
X138187518Y-136723735D01*
X138192922Y-136723500D01*
X152721812Y-136723500D01*
X152788851Y-136743185D01*
X152809493Y-136759819D01*
X153037988Y-136988314D01*
X153071473Y-137049637D01*
X153073246Y-137092179D01*
X153064318Y-137159997D01*
X153064318Y-137160001D01*
X153084955Y-137316760D01*
X153084956Y-137316762D01*
X153145464Y-137462841D01*
X153241718Y-137588282D01*
X153367159Y-137684536D01*
X153513238Y-137745044D01*
X153591619Y-137755363D01*
X153669999Y-137765682D01*
X153670000Y-137765682D01*
X153670001Y-137765682D01*
X153722254Y-137758802D01*
X153826762Y-137745044D01*
X153972841Y-137684536D01*
X154098282Y-137588282D01*
X154194536Y-137462841D01*
X154255044Y-137316762D01*
X154275682Y-137160000D01*
X154266754Y-137092188D01*
X154261923Y-137055492D01*
X154255044Y-137003238D01*
X154194536Y-136857159D01*
X154098282Y-136731718D01*
X154077596Y-136715845D01*
X154036395Y-136659417D01*
X154032241Y-136589671D01*
X154066455Y-136528751D01*
X154128172Y-136495999D01*
X154169273Y-136494533D01*
X154178000Y-136495682D01*
X154178001Y-136495682D01*
X154230254Y-136488802D01*
X154334762Y-136475044D01*
X154480841Y-136414536D01*
X154606282Y-136318282D01*
X154702536Y-136192841D01*
X154763044Y-136046762D01*
X154783682Y-135890000D01*
X154781637Y-135874469D01*
X154763044Y-135733239D01*
X154763044Y-135733238D01*
X154702536Y-135587159D01*
X154606282Y-135461718D01*
X154480841Y-135365464D01*
X154334762Y-135304956D01*
X154334760Y-135304955D01*
X154178001Y-135284318D01*
X154177999Y-135284318D01*
X154021239Y-135304955D01*
X154021237Y-135304956D01*
X153875160Y-135365463D01*
X153749716Y-135461719D01*
X153708077Y-135515986D01*
X153651649Y-135557189D01*
X153609701Y-135564500D01*
X138870188Y-135564500D01*
X138803149Y-135544815D01*
X138782507Y-135528181D01*
X134219819Y-130965493D01*
X134186334Y-130904170D01*
X134183500Y-130877812D01*
X134183500Y-124631912D01*
X134203185Y-124564873D01*
X134255989Y-124519118D01*
X134325147Y-124509174D01*
X134367565Y-124528545D01*
X134382801Y-124529145D01*
X135232923Y-123679023D01*
X135256507Y-123759344D01*
X135334239Y-123880298D01*
X135442900Y-123974452D01*
X135573685Y-124034180D01*
X135583466Y-124035586D01*
X134736354Y-124882697D01*
X134743157Y-124888507D01*
X134964599Y-125024207D01*
X134964602Y-125024209D01*
X135204537Y-125123593D01*
X135204554Y-125123598D01*
X135457088Y-125184225D01*
X135457087Y-125184225D01*
X135716000Y-125204601D01*
X135974912Y-125184225D01*
X136227445Y-125123598D01*
X136227462Y-125123593D01*
X136467397Y-125024209D01*
X136467400Y-125024207D01*
X136688844Y-124888505D01*
X136695644Y-124882697D01*
X135848533Y-124035586D01*
X135858315Y-124034180D01*
X135989100Y-123974452D01*
X136097761Y-123880298D01*
X136175493Y-123759344D01*
X136199076Y-123679023D01*
X137049197Y-124529144D01*
X137055005Y-124522344D01*
X137190707Y-124300900D01*
X137190709Y-124300897D01*
X137290093Y-124060962D01*
X137290098Y-124060945D01*
X137350725Y-123808412D01*
X137371101Y-123549500D01*
X137350725Y-123290587D01*
X137290098Y-123038054D01*
X137290093Y-123038037D01*
X137190709Y-122798102D01*
X137190707Y-122798099D01*
X137055007Y-122576657D01*
X137049197Y-122569854D01*
X136199076Y-123419975D01*
X136175493Y-123339656D01*
X136097761Y-123218702D01*
X135989100Y-123124548D01*
X135858315Y-123064820D01*
X135848534Y-123063413D01*
X136695645Y-122216301D01*
X136688843Y-122210493D01*
X136688842Y-122210492D01*
X136467400Y-122074792D01*
X136467397Y-122074790D01*
X136227462Y-121975406D01*
X136227445Y-121975401D01*
X135974911Y-121914774D01*
X135974912Y-121914774D01*
X135716000Y-121894398D01*
X135457087Y-121914774D01*
X135204554Y-121975401D01*
X135204537Y-121975406D01*
X134964602Y-122074790D01*
X134964599Y-122074792D01*
X134743155Y-122210493D01*
X134736353Y-122216300D01*
X135583466Y-123063413D01*
X135573685Y-123064820D01*
X135442900Y-123124548D01*
X135334239Y-123218702D01*
X135256507Y-123339656D01*
X135232923Y-123419976D01*
X134382800Y-122569853D01*
X134366755Y-122570485D01*
X134343297Y-122585803D01*
X134273429Y-122586309D01*
X134214378Y-122548962D01*
X134184893Y-122485619D01*
X134183500Y-122467082D01*
X134183500Y-115502188D01*
X134203185Y-115435149D01*
X134219819Y-115414507D01*
X134670325Y-114964001D01*
X144719437Y-114964001D01*
X144739650Y-115195044D01*
X144739651Y-115195051D01*
X144799678Y-115419074D01*
X144799681Y-115419080D01*
X144897699Y-115629281D01*
X144952665Y-115707781D01*
X145610680Y-115049766D01*
X145611749Y-115064028D01*
X145660703Y-115188760D01*
X145744248Y-115293522D01*
X145854960Y-115369004D01*
X145964698Y-115402854D01*
X145306218Y-116061333D01*
X145384718Y-116116301D01*
X145594919Y-116214318D01*
X145594925Y-116214321D01*
X145818948Y-116274348D01*
X145818955Y-116274349D01*
X146049998Y-116294563D01*
X146050002Y-116294563D01*
X146281044Y-116274349D01*
X146281051Y-116274348D01*
X146505074Y-116214321D01*
X146505085Y-116214317D01*
X146715279Y-116116302D01*
X146715283Y-116116300D01*
X146793780Y-116061333D01*
X146133397Y-115400950D01*
X146182499Y-115393550D01*
X146303224Y-115335412D01*
X146401450Y-115244272D01*
X146468447Y-115128228D01*
X146486906Y-115047353D01*
X147147333Y-115707780D01*
X147202300Y-115629283D01*
X147202302Y-115629279D01*
X147300317Y-115419085D01*
X147300322Y-115419071D01*
X147354698Y-115216136D01*
X147391063Y-115156475D01*
X147453910Y-115125946D01*
X147523285Y-115134241D01*
X147577163Y-115178726D01*
X147593133Y-115212233D01*
X147637512Y-115358530D01*
X147637516Y-115358540D01*
X147732780Y-115536767D01*
X147732785Y-115536773D01*
X147860997Y-115693002D01*
X148017226Y-115821214D01*
X148017232Y-115821219D01*
X148195459Y-115916483D01*
X148195460Y-115916483D01*
X148195467Y-115916487D01*
X148388869Y-115975154D01*
X148388868Y-115975154D01*
X148406901Y-115976930D01*
X148590000Y-115994964D01*
X148791131Y-115975154D01*
X148984533Y-115916487D01*
X149028345Y-115893068D01*
X149162767Y-115821219D01*
X149162769Y-115821216D01*
X149162773Y-115821215D01*
X149319002Y-115693002D01*
X149447215Y-115536773D01*
X149447216Y-115536769D01*
X149447219Y-115536767D01*
X149542483Y-115358540D01*
X149542487Y-115358533D01*
X149601154Y-115165131D01*
X149620964Y-114964000D01*
X149601154Y-114762869D01*
X149542487Y-114569467D01*
X149533765Y-114553149D01*
X149447219Y-114391232D01*
X149447214Y-114391226D01*
X149319002Y-114234997D01*
X149162773Y-114106785D01*
X149162767Y-114106780D01*
X148984540Y-114011516D01*
X148984537Y-114011515D01*
X148984536Y-114011514D01*
X148984533Y-114011513D01*
X148791131Y-113952846D01*
X148791129Y-113952845D01*
X148791131Y-113952845D01*
X148590000Y-113933036D01*
X148388870Y-113952845D01*
X148274679Y-113987484D01*
X148195467Y-114011513D01*
X148195464Y-114011514D01*
X148195462Y-114011515D01*
X148195459Y-114011516D01*
X148017232Y-114106780D01*
X148017226Y-114106785D01*
X147860997Y-114234997D01*
X147732785Y-114391226D01*
X147732780Y-114391232D01*
X147637516Y-114569459D01*
X147637512Y-114569469D01*
X147593133Y-114715766D01*
X147554836Y-114774204D01*
X147491023Y-114802661D01*
X147421956Y-114792100D01*
X147369563Y-114745875D01*
X147354698Y-114711864D01*
X147300318Y-114508917D01*
X147202300Y-114298719D01*
X147147333Y-114220217D01*
X146489319Y-114878232D01*
X146488251Y-114863972D01*
X146439297Y-114739240D01*
X146355752Y-114634478D01*
X146245040Y-114558996D01*
X146135301Y-114525146D01*
X146793781Y-113866665D01*
X146715281Y-113811699D01*
X146505080Y-113713681D01*
X146505074Y-113713678D01*
X146281051Y-113653651D01*
X146281044Y-113653650D01*
X146050002Y-113633437D01*
X146049998Y-113633437D01*
X145818955Y-113653650D01*
X145818948Y-113653651D01*
X145594917Y-113713681D01*
X145384715Y-113811701D01*
X145306218Y-113866664D01*
X145306217Y-113866665D01*
X145966602Y-114527049D01*
X145917501Y-114534450D01*
X145796776Y-114592588D01*
X145698550Y-114683728D01*
X145631553Y-114799772D01*
X145613093Y-114880645D01*
X144952665Y-114220217D01*
X144952664Y-114220218D01*
X144897701Y-114298715D01*
X144799681Y-114508917D01*
X144739651Y-114732948D01*
X144739650Y-114732955D01*
X144719437Y-114963998D01*
X144719437Y-114964001D01*
X134670325Y-114964001D01*
X138636326Y-110998000D01*
X148994358Y-110998000D01*
X149013274Y-111177977D01*
X149013275Y-111177980D01*
X149069194Y-111350081D01*
X149069196Y-111350085D01*
X149069197Y-111350088D01*
X149159681Y-111506812D01*
X149280766Y-111641292D01*
X149280769Y-111641294D01*
X149280772Y-111641297D01*
X149390577Y-111721075D01*
X149427180Y-111747669D01*
X149490642Y-111775923D01*
X149592502Y-111821274D01*
X149769516Y-111858900D01*
X149950484Y-111858900D01*
X150127498Y-111821274D01*
X150292821Y-111747668D01*
X150439228Y-111641297D01*
X150463970Y-111613819D01*
X150496671Y-111577500D01*
X150560319Y-111506812D01*
X150650803Y-111350088D01*
X150706726Y-111177977D01*
X150725642Y-110998000D01*
X150706726Y-110818023D01*
X150650803Y-110645912D01*
X150560319Y-110489188D01*
X150552267Y-110480245D01*
X150439233Y-110354707D01*
X150439230Y-110354705D01*
X150439229Y-110354704D01*
X150439228Y-110354703D01*
X150366024Y-110301517D01*
X150292819Y-110248330D01*
X150165894Y-110191820D01*
X150127498Y-110174726D01*
X150127496Y-110174725D01*
X150127495Y-110174725D01*
X149950484Y-110137100D01*
X149769516Y-110137100D01*
X149592504Y-110174725D01*
X149427180Y-110248330D01*
X149280769Y-110354705D01*
X149280766Y-110354707D01*
X149159681Y-110489187D01*
X149069196Y-110645914D01*
X149069194Y-110645918D01*
X149013275Y-110818019D01*
X149013274Y-110818023D01*
X148994358Y-110998000D01*
X138636326Y-110998000D01*
X141176326Y-108458000D01*
X146454358Y-108458000D01*
X146473274Y-108637977D01*
X146473275Y-108637980D01*
X146529194Y-108810081D01*
X146529196Y-108810085D01*
X146529197Y-108810088D01*
X146590739Y-108916682D01*
X146619681Y-108966812D01*
X146740766Y-109101292D01*
X146740769Y-109101294D01*
X146740772Y-109101297D01*
X146850577Y-109181075D01*
X146887180Y-109207669D01*
X146950642Y-109235923D01*
X147052502Y-109281274D01*
X147229516Y-109318900D01*
X147410484Y-109318900D01*
X147587498Y-109281274D01*
X147752821Y-109207668D01*
X147899228Y-109101297D01*
X147913873Y-109085033D01*
X147939485Y-109056586D01*
X148020319Y-108966812D01*
X148110803Y-108810088D01*
X148166726Y-108637977D01*
X148185642Y-108458000D01*
X151234629Y-108458000D01*
X151254471Y-108672131D01*
X151313325Y-108878984D01*
X151409178Y-109071482D01*
X151409183Y-109071491D01*
X151419411Y-109085033D01*
X151996452Y-108507993D01*
X152008673Y-108585150D01*
X152067117Y-108699854D01*
X152158146Y-108790883D01*
X152272850Y-108849327D01*
X152350005Y-108861547D01*
X151775437Y-109436114D01*
X151880551Y-109501197D01*
X152081083Y-109578883D01*
X152292475Y-109618400D01*
X152507525Y-109618400D01*
X152718916Y-109578883D01*
X152718926Y-109578880D01*
X152919450Y-109501197D01*
X152919452Y-109501196D01*
X153024561Y-109436114D01*
X152449995Y-108861547D01*
X152527150Y-108849327D01*
X152641854Y-108790883D01*
X152732883Y-108699854D01*
X152791327Y-108585150D01*
X152803547Y-108507994D01*
X153380587Y-109085033D01*
X153380588Y-109085033D01*
X153390817Y-109071489D01*
X153486674Y-108878984D01*
X153545528Y-108672131D01*
X153565370Y-108458000D01*
X153545528Y-108243868D01*
X153486674Y-108037015D01*
X153390816Y-107844508D01*
X153380587Y-107830964D01*
X152803547Y-108408005D01*
X152791327Y-108330850D01*
X152732883Y-108216146D01*
X152641854Y-108125117D01*
X152527150Y-108066673D01*
X152449994Y-108054452D01*
X153024561Y-107479884D01*
X153024560Y-107479883D01*
X152919454Y-107414804D01*
X152919448Y-107414802D01*
X152718916Y-107337116D01*
X152507525Y-107297600D01*
X152292475Y-107297600D01*
X152081083Y-107337116D01*
X152081082Y-107337116D01*
X151880552Y-107414801D01*
X151775437Y-107479884D01*
X152350006Y-108054452D01*
X152272850Y-108066673D01*
X152158146Y-108125117D01*
X152067117Y-108216146D01*
X152008673Y-108330850D01*
X151996452Y-108408006D01*
X151419411Y-107830965D01*
X151419410Y-107830965D01*
X151409182Y-107844510D01*
X151313325Y-108037015D01*
X151254471Y-108243868D01*
X151234629Y-108458000D01*
X148185642Y-108458000D01*
X148166726Y-108278023D01*
X148110803Y-108105912D01*
X148020319Y-107949188D01*
X148012267Y-107940245D01*
X147899233Y-107814707D01*
X147899230Y-107814705D01*
X147899229Y-107814704D01*
X147899228Y-107814703D01*
X147826024Y-107761517D01*
X147752819Y-107708330D01*
X147625894Y-107651820D01*
X147587498Y-107634726D01*
X147587496Y-107634725D01*
X147587495Y-107634725D01*
X147410484Y-107597100D01*
X147229516Y-107597100D01*
X147052504Y-107634725D01*
X146887180Y-107708330D01*
X146740769Y-107814705D01*
X146740766Y-107814707D01*
X146619681Y-107949187D01*
X146568974Y-108037015D01*
X146530044Y-108104446D01*
X146529196Y-108105914D01*
X146529194Y-108105918D01*
X146473275Y-108278019D01*
X146473274Y-108278023D01*
X146454358Y-108458000D01*
X141176326Y-108458000D01*
X148688508Y-100945819D01*
X148749831Y-100912334D01*
X148776189Y-100909500D01*
X159241078Y-100909500D01*
X159246481Y-100909735D01*
X159286807Y-100913264D01*
X159325940Y-100902777D01*
X159331162Y-100901619D01*
X159371045Y-100894588D01*
X159371050Y-100894584D01*
X159376099Y-100892747D01*
X159392824Y-100885819D01*
X159397681Y-100883554D01*
X159397684Y-100883554D01*
X159430841Y-100860335D01*
X159435390Y-100857438D01*
X159470455Y-100837194D01*
X159496481Y-100806176D01*
X159500122Y-100802202D01*
X160102315Y-100200009D01*
X160163636Y-100166526D01*
X160206180Y-100164753D01*
X160273999Y-100173682D01*
X160274000Y-100173682D01*
X160274001Y-100173682D01*
X160326254Y-100166802D01*
X160430762Y-100153044D01*
X160576841Y-100092536D01*
X160702282Y-99996282D01*
X160742125Y-99944357D01*
X160798552Y-99903155D01*
X160868298Y-99899000D01*
X160929218Y-99933212D01*
X160961971Y-99994929D01*
X160964500Y-100019844D01*
X160964500Y-102301699D01*
X160944815Y-102368738D01*
X160915988Y-102400074D01*
X160861720Y-102441715D01*
X160765463Y-102567160D01*
X160704956Y-102713237D01*
X160704955Y-102713239D01*
X160684318Y-102869998D01*
X160684318Y-102870001D01*
X160704955Y-103026760D01*
X160704956Y-103026762D01*
X160764101Y-103169552D01*
X160765464Y-103172841D01*
X160861718Y-103298282D01*
X160987159Y-103394536D01*
X161133238Y-103455044D01*
X161211619Y-103465363D01*
X161289999Y-103475682D01*
X161290000Y-103475682D01*
X161290001Y-103475682D01*
X161342254Y-103468802D01*
X161446762Y-103455044D01*
X161592841Y-103394536D01*
X161718282Y-103298282D01*
X161814536Y-103172841D01*
X161875044Y-103026762D01*
X161895682Y-102870000D01*
X161875044Y-102713238D01*
X161814536Y-102567159D01*
X161718282Y-102441718D01*
X161718280Y-102441716D01*
X161718279Y-102441715D01*
X161664012Y-102400074D01*
X161622810Y-102343646D01*
X161615500Y-102301699D01*
X161615500Y-94452953D01*
X161635185Y-94385914D01*
X161687989Y-94340159D01*
X161757147Y-94330215D01*
X161820703Y-94359240D01*
X161854060Y-94405498D01*
X161908464Y-94536841D01*
X162004718Y-94662282D01*
X162058987Y-94703924D01*
X162100189Y-94760349D01*
X162107500Y-94802298D01*
X162107500Y-98408078D01*
X162107264Y-98413485D01*
X162103735Y-98453808D01*
X162114212Y-98492910D01*
X162115383Y-98498190D01*
X162122411Y-98538043D01*
X162124235Y-98543055D01*
X162131197Y-98559861D01*
X162133445Y-98564681D01*
X162133446Y-98564684D01*
X162147452Y-98584687D01*
X162156655Y-98597831D01*
X162159561Y-98602392D01*
X162179806Y-98637455D01*
X162210815Y-98663475D01*
X162214805Y-98667131D01*
X166635868Y-103088195D01*
X166639523Y-103092184D01*
X166665541Y-103123190D01*
X166665543Y-103123191D01*
X166665545Y-103123194D01*
X166700605Y-103143435D01*
X166705159Y-103146337D01*
X166738316Y-103169554D01*
X166738319Y-103169554D01*
X166743176Y-103171820D01*
X166759933Y-103178760D01*
X166764953Y-103180587D01*
X166764955Y-103180588D01*
X166804830Y-103187618D01*
X166810087Y-103188784D01*
X166849193Y-103199263D01*
X166889510Y-103195735D01*
X166894912Y-103195500D01*
X168684201Y-103195500D01*
X168751240Y-103215185D01*
X168782577Y-103244014D01*
X168820547Y-103293499D01*
X168824218Y-103298282D01*
X168949659Y-103394536D01*
X169095738Y-103455044D01*
X169174119Y-103465363D01*
X169252499Y-103475682D01*
X169252500Y-103475682D01*
X169252501Y-103475682D01*
X169304754Y-103468802D01*
X169409262Y-103455044D01*
X169555341Y-103394536D01*
X169655016Y-103318052D01*
X169720182Y-103292860D01*
X169788627Y-103306898D01*
X169838617Y-103355712D01*
X169854500Y-103416430D01*
X169854500Y-104333699D01*
X169834815Y-104400738D01*
X169805988Y-104432074D01*
X169751720Y-104473715D01*
X169655463Y-104599160D01*
X169594956Y-104745237D01*
X169594955Y-104745239D01*
X169574318Y-104901998D01*
X169574318Y-104902001D01*
X169594955Y-105058760D01*
X169594956Y-105058762D01*
X169650799Y-105193580D01*
X169655464Y-105204841D01*
X169751718Y-105330282D01*
X169877159Y-105426536D01*
X170023238Y-105487044D01*
X170101619Y-105497363D01*
X170179999Y-105507682D01*
X170180000Y-105507682D01*
X170180001Y-105507682D01*
X170232254Y-105500802D01*
X170336762Y-105487044D01*
X170482841Y-105426536D01*
X170608282Y-105330282D01*
X170704536Y-105204841D01*
X170704537Y-105204839D01*
X170704624Y-105204726D01*
X170761052Y-105163523D01*
X170830798Y-105159368D01*
X170891718Y-105193580D01*
X170924471Y-105255297D01*
X170927000Y-105280212D01*
X170927000Y-106183312D01*
X170907315Y-106250351D01*
X170890681Y-106270993D01*
X168303493Y-108858181D01*
X168242170Y-108891666D01*
X168215812Y-108894500D01*
X165370922Y-108894500D01*
X165365518Y-108894264D01*
X165360107Y-108893790D01*
X165325192Y-108890735D01*
X165325191Y-108890735D01*
X165286091Y-108901212D01*
X165280811Y-108902383D01*
X165240959Y-108909410D01*
X165235961Y-108911229D01*
X165219117Y-108918206D01*
X165214313Y-108920446D01*
X165181166Y-108943656D01*
X165176606Y-108946562D01*
X165141548Y-108966804D01*
X165141540Y-108966810D01*
X165115523Y-108997815D01*
X165111868Y-109001804D01*
X163135112Y-110978562D01*
X161191493Y-112922181D01*
X161130170Y-112955666D01*
X161103812Y-112958500D01*
X151654910Y-112958500D01*
X151649506Y-112958264D01*
X151643993Y-112957781D01*
X151609192Y-112954736D01*
X151570105Y-112965210D01*
X151564825Y-112966381D01*
X151524957Y-112973411D01*
X151519983Y-112975221D01*
X151503118Y-112982207D01*
X151498313Y-112984447D01*
X151465162Y-113007659D01*
X151460603Y-113010563D01*
X151425545Y-113030805D01*
X151399523Y-113061815D01*
X151395869Y-113065803D01*
X150911803Y-113549870D01*
X150907814Y-113553525D01*
X150876805Y-113579545D01*
X150856562Y-113614606D01*
X150853656Y-113619166D01*
X150830446Y-113652313D01*
X150828206Y-113657117D01*
X150821229Y-113673961D01*
X150819410Y-113678959D01*
X150812383Y-113718811D01*
X150811212Y-113724091D01*
X150800735Y-113763191D01*
X150804264Y-113803513D01*
X150804500Y-113808920D01*
X150804500Y-113900291D01*
X150784815Y-113967330D01*
X150738953Y-114009649D01*
X150557232Y-114106780D01*
X150557226Y-114106785D01*
X150400997Y-114234997D01*
X150272785Y-114391226D01*
X150272780Y-114391232D01*
X150177516Y-114569459D01*
X150177515Y-114569462D01*
X150177514Y-114569464D01*
X150177513Y-114569467D01*
X150153484Y-114648679D01*
X150118845Y-114762870D01*
X150099036Y-114964000D01*
X150118845Y-115165129D01*
X150133134Y-115212233D01*
X150177513Y-115358533D01*
X150177514Y-115358536D01*
X150177515Y-115358537D01*
X150177516Y-115358540D01*
X150272780Y-115536767D01*
X150272785Y-115536773D01*
X150400997Y-115693002D01*
X150557226Y-115821214D01*
X150557232Y-115821219D01*
X150735459Y-115916483D01*
X150735460Y-115916483D01*
X150735467Y-115916487D01*
X150928869Y-115975154D01*
X150928868Y-115975154D01*
X150946901Y-115976930D01*
X151130000Y-115994964D01*
X151331131Y-115975154D01*
X151524533Y-115916487D01*
X151568345Y-115893068D01*
X151702767Y-115821219D01*
X151702769Y-115821216D01*
X151702773Y-115821215D01*
X151717350Y-115809252D01*
X152644000Y-115809252D01*
X152655631Y-115867729D01*
X152655632Y-115867730D01*
X152699947Y-115934052D01*
X152766269Y-115978367D01*
X152766270Y-115978368D01*
X152824747Y-115989999D01*
X152824750Y-115990000D01*
X152824752Y-115990000D01*
X154515250Y-115990000D01*
X154515251Y-115989999D01*
X154530068Y-115987052D01*
X154573729Y-115978368D01*
X154573729Y-115978367D01*
X154573731Y-115978367D01*
X154640052Y-115934052D01*
X154684367Y-115867731D01*
X154684367Y-115867729D01*
X154684368Y-115867729D01*
X154695999Y-115809252D01*
X154696000Y-115809250D01*
X154696000Y-114118749D01*
X154695999Y-114118747D01*
X154684368Y-114060270D01*
X154684367Y-114060269D01*
X154640052Y-113993947D01*
X154573730Y-113949632D01*
X154573729Y-113949631D01*
X154515252Y-113938000D01*
X154515248Y-113938000D01*
X152824752Y-113938000D01*
X152824747Y-113938000D01*
X152766270Y-113949631D01*
X152766269Y-113949632D01*
X152699947Y-113993947D01*
X152655632Y-114060269D01*
X152655631Y-114060270D01*
X152644000Y-114118747D01*
X152644000Y-115809252D01*
X151717350Y-115809252D01*
X151859002Y-115693002D01*
X151987215Y-115536773D01*
X151987216Y-115536769D01*
X151987219Y-115536767D01*
X152082483Y-115358540D01*
X152082487Y-115358533D01*
X152141154Y-115165131D01*
X152160964Y-114964000D01*
X152141154Y-114762869D01*
X152082487Y-114569467D01*
X152073765Y-114553149D01*
X151987219Y-114391232D01*
X151987214Y-114391226D01*
X151859002Y-114234997D01*
X151702773Y-114106785D01*
X151702771Y-114106783D01*
X151571809Y-114036782D01*
X151521965Y-113987819D01*
X151506505Y-113919682D01*
X151530337Y-113854002D01*
X151542568Y-113839758D01*
X151736509Y-113645816D01*
X151797832Y-113612334D01*
X151824189Y-113609500D01*
X161273078Y-113609500D01*
X161278481Y-113609735D01*
X161318807Y-113613264D01*
X161357940Y-113602777D01*
X161363162Y-113601619D01*
X161403045Y-113594588D01*
X161403050Y-113594584D01*
X161408099Y-113592747D01*
X161424824Y-113585819D01*
X161429681Y-113583554D01*
X161429684Y-113583554D01*
X161462841Y-113560335D01*
X161467390Y-113557438D01*
X161502455Y-113537194D01*
X161528481Y-113506176D01*
X161532122Y-113502202D01*
X165452507Y-109581819D01*
X165513830Y-109548334D01*
X165540188Y-109545500D01*
X168385078Y-109545500D01*
X168390481Y-109545735D01*
X168430807Y-109549264D01*
X168469940Y-109538777D01*
X168475162Y-109537619D01*
X168515045Y-109530588D01*
X168515050Y-109530584D01*
X168520099Y-109528747D01*
X168536824Y-109521819D01*
X168541681Y-109519554D01*
X168541684Y-109519554D01*
X168574841Y-109496335D01*
X168579390Y-109493438D01*
X168614455Y-109473194D01*
X168640481Y-109442176D01*
X168644122Y-109438202D01*
X171470704Y-106611620D01*
X171474666Y-106607989D01*
X171505694Y-106581955D01*
X171525938Y-106546890D01*
X171528835Y-106542341D01*
X171552054Y-106509184D01*
X171552054Y-106509181D01*
X171554319Y-106504324D01*
X171561247Y-106487599D01*
X171563084Y-106482550D01*
X171563088Y-106482545D01*
X171570119Y-106442662D01*
X171571277Y-106437440D01*
X171581764Y-106398307D01*
X171578235Y-106357978D01*
X171578000Y-106352575D01*
X171578000Y-103438298D01*
X171597685Y-103371259D01*
X171626510Y-103339925D01*
X171680782Y-103298282D01*
X171680783Y-103298279D01*
X171687014Y-103293499D01*
X171752183Y-103268305D01*
X171820628Y-103282344D01*
X171870618Y-103331158D01*
X171886500Y-103391875D01*
X171886500Y-104631078D01*
X171886264Y-104636481D01*
X171885790Y-104641892D01*
X171882735Y-104676808D01*
X171893212Y-104715910D01*
X171894383Y-104721190D01*
X171901411Y-104761043D01*
X171903235Y-104766055D01*
X171910197Y-104782861D01*
X171912445Y-104787681D01*
X171912446Y-104787684D01*
X171926452Y-104807687D01*
X171935655Y-104820831D01*
X171938561Y-104825392D01*
X171958806Y-104860455D01*
X171989815Y-104886475D01*
X171993805Y-104890131D01*
X174001863Y-106898189D01*
X174005518Y-106902178D01*
X174031541Y-106933190D01*
X174031543Y-106933191D01*
X174031545Y-106933194D01*
X174031547Y-106933195D01*
X174031548Y-106933196D01*
X174066599Y-106953433D01*
X174071162Y-106956339D01*
X174104316Y-106979554D01*
X174104319Y-106979554D01*
X174109176Y-106981820D01*
X174125933Y-106988760D01*
X174130950Y-106990586D01*
X174130952Y-106990586D01*
X174130955Y-106990588D01*
X174170818Y-106997616D01*
X174176076Y-106998782D01*
X174215193Y-107009264D01*
X174255518Y-107005735D01*
X174260922Y-107005500D01*
X176597812Y-107005500D01*
X176664851Y-107025185D01*
X176685493Y-107041819D01*
X179430422Y-109786748D01*
X179463907Y-109848071D01*
X179458923Y-109917763D01*
X179417051Y-109973696D01*
X179351587Y-109998113D01*
X179283314Y-109983261D01*
X179280739Y-109981815D01*
X179247393Y-109962562D01*
X179242831Y-109959655D01*
X179229687Y-109950452D01*
X179209684Y-109936446D01*
X179209681Y-109936445D01*
X179204861Y-109934197D01*
X179188055Y-109927235D01*
X179183043Y-109925411D01*
X179143190Y-109918383D01*
X179137910Y-109917212D01*
X179098808Y-109906735D01*
X179063892Y-109909790D01*
X179058481Y-109910264D01*
X179053078Y-109910500D01*
X165878922Y-109910500D01*
X165873518Y-109910264D01*
X165868107Y-109909790D01*
X165833192Y-109906735D01*
X165833191Y-109906735D01*
X165794091Y-109917212D01*
X165788811Y-109918383D01*
X165748959Y-109925410D01*
X165743961Y-109927229D01*
X165727117Y-109934206D01*
X165722313Y-109936446D01*
X165689166Y-109959656D01*
X165684606Y-109962562D01*
X165649548Y-109982804D01*
X165649540Y-109982810D01*
X165623523Y-110013815D01*
X165619868Y-110017804D01*
X162128481Y-113509193D01*
X158651493Y-116986181D01*
X158590170Y-117019666D01*
X158563812Y-117022500D01*
X143526910Y-117022500D01*
X143521506Y-117022264D01*
X143515993Y-117021781D01*
X143481192Y-117018736D01*
X143442105Y-117029210D01*
X143436825Y-117030381D01*
X143396957Y-117037411D01*
X143391983Y-117039221D01*
X143375118Y-117046207D01*
X143370313Y-117048447D01*
X143337162Y-117071659D01*
X143332603Y-117074563D01*
X143297545Y-117094805D01*
X143271523Y-117125815D01*
X143267869Y-117129803D01*
X139147802Y-121249871D01*
X139143813Y-121253526D01*
X139112804Y-121279546D01*
X139092561Y-121314607D01*
X139089655Y-121319167D01*
X139066445Y-121352314D01*
X139064205Y-121357118D01*
X139057228Y-121373962D01*
X139055409Y-121378960D01*
X139048382Y-121418812D01*
X139047211Y-121424092D01*
X139036734Y-121463192D01*
X139040263Y-121503514D01*
X139040499Y-121508921D01*
X139040499Y-124653699D01*
X139020814Y-124720738D01*
X138991987Y-124752074D01*
X138937719Y-124793715D01*
X138841462Y-124919160D01*
X138780955Y-125065237D01*
X138780954Y-125065239D01*
X138760317Y-125221998D01*
X138760317Y-125222001D01*
X138780954Y-125378760D01*
X138780955Y-125378762D01*
X138833164Y-125504807D01*
X138841463Y-125524841D01*
X138937717Y-125650282D01*
X138991986Y-125691924D01*
X139033188Y-125748349D01*
X139040499Y-125790298D01*
X139040499Y-132795699D01*
X139020814Y-132862738D01*
X138991987Y-132894074D01*
X138937719Y-132935715D01*
X138841462Y-133061160D01*
X138780955Y-133207237D01*
X138780954Y-133207239D01*
X138760317Y-133363998D01*
X138760317Y-133364001D01*
X138780954Y-133520760D01*
X138780955Y-133520762D01*
X138841463Y-133666841D01*
X138937717Y-133792282D01*
X139063158Y-133888536D01*
X139209237Y-133949044D01*
X139287618Y-133959363D01*
X139365998Y-133969682D01*
X139365999Y-133969682D01*
X139366000Y-133969682D01*
X139418253Y-133962802D01*
X139522761Y-133949044D01*
X139668840Y-133888536D01*
X139794281Y-133792282D01*
X139890535Y-133666841D01*
X139951043Y-133520762D01*
X139971681Y-133364000D01*
X139951043Y-133207238D01*
X139890535Y-133061159D01*
X139794281Y-132935718D01*
X139794279Y-132935716D01*
X139794278Y-132935715D01*
X139740011Y-132894074D01*
X139698809Y-132837646D01*
X139691499Y-132795699D01*
X139691499Y-125790298D01*
X139711184Y-125723259D01*
X139740009Y-125691925D01*
X139794281Y-125650282D01*
X139890535Y-125524841D01*
X139951043Y-125378762D01*
X139971681Y-125222000D01*
X139969390Y-125204601D01*
X139951043Y-125065239D01*
X139951043Y-125065238D01*
X139890535Y-124919159D01*
X139794281Y-124793718D01*
X139794279Y-124793716D01*
X139794278Y-124793715D01*
X139740011Y-124752074D01*
X139698809Y-124695646D01*
X139691499Y-124653699D01*
X139691499Y-121678189D01*
X139711184Y-121611150D01*
X139727818Y-121590508D01*
X141409326Y-119909000D01*
X156896364Y-119909000D01*
X156953567Y-120122486D01*
X156953570Y-120122492D01*
X157053399Y-120336578D01*
X157188894Y-120530082D01*
X157355917Y-120697105D01*
X157549421Y-120832600D01*
X157763507Y-120932429D01*
X157763516Y-120932433D01*
X157977000Y-120989634D01*
X157977000Y-120094501D01*
X158084685Y-120143680D01*
X158191237Y-120159000D01*
X158262763Y-120159000D01*
X158369315Y-120143680D01*
X158477000Y-120094501D01*
X158477000Y-120989633D01*
X158690483Y-120932433D01*
X158690492Y-120932429D01*
X158904578Y-120832600D01*
X159098082Y-120697105D01*
X159265105Y-120530082D01*
X159400600Y-120336578D01*
X159500429Y-120122492D01*
X159500433Y-120122483D01*
X159533158Y-120000350D01*
X159569522Y-119940690D01*
X159632369Y-119910160D01*
X159701745Y-119918454D01*
X159755623Y-119962939D01*
X159771593Y-119996447D01*
X159791768Y-120062954D01*
X159889315Y-120245450D01*
X159889317Y-120245452D01*
X160020589Y-120405410D01*
X160117209Y-120484702D01*
X160180550Y-120536685D01*
X160363046Y-120634232D01*
X160561066Y-120694300D01*
X160561065Y-120694300D01*
X160579529Y-120696118D01*
X160767000Y-120714583D01*
X160972934Y-120694300D01*
X161170954Y-120634232D01*
X161353450Y-120536685D01*
X161513410Y-120405410D01*
X161644685Y-120245450D01*
X161742232Y-120062954D01*
X161802300Y-119864934D01*
X161822583Y-119659000D01*
X161802300Y-119453066D01*
X161742232Y-119255046D01*
X161644685Y-119072550D01*
X161569897Y-118981420D01*
X161513410Y-118912589D01*
X161363121Y-118789252D01*
X161353450Y-118781315D01*
X161170954Y-118683768D01*
X161169049Y-118682979D01*
X161168203Y-118682298D01*
X161165581Y-118680896D01*
X161165846Y-118680398D01*
X161114645Y-118639138D01*
X161092579Y-118572844D01*
X161092500Y-118568417D01*
X161092500Y-117295188D01*
X161112185Y-117228149D01*
X161128819Y-117207507D01*
X166722507Y-111613819D01*
X166783830Y-111580334D01*
X166810188Y-111577500D01*
X171517812Y-111577500D01*
X171584851Y-111597185D01*
X171605493Y-111613819D01*
X172890681Y-112899007D01*
X172924166Y-112960330D01*
X172927000Y-112986688D01*
X172927000Y-113477699D01*
X172907315Y-113544738D01*
X172878488Y-113576074D01*
X172824220Y-113617715D01*
X172727963Y-113743160D01*
X172667456Y-113889237D01*
X172667455Y-113889239D01*
X172646818Y-114045998D01*
X172646818Y-114046001D01*
X172667455Y-114202760D01*
X172667456Y-114202762D01*
X172727964Y-114348841D01*
X172824218Y-114474282D01*
X172949659Y-114570536D01*
X173095738Y-114631044D01*
X173174119Y-114641363D01*
X173252499Y-114651682D01*
X173252500Y-114651682D01*
X173252501Y-114651682D01*
X173304754Y-114644802D01*
X173409262Y-114631044D01*
X173555341Y-114570536D01*
X173680782Y-114474282D01*
X173777036Y-114348841D01*
X173837544Y-114202762D01*
X173856303Y-114060270D01*
X173858182Y-114046001D01*
X174646818Y-114046001D01*
X174667455Y-114202760D01*
X174667456Y-114202762D01*
X174727964Y-114348841D01*
X174824218Y-114474282D01*
X174949659Y-114570536D01*
X175095738Y-114631044D01*
X175174119Y-114641363D01*
X175252499Y-114651682D01*
X175252500Y-114651682D01*
X175252501Y-114651682D01*
X175304754Y-114644802D01*
X175409262Y-114631044D01*
X175555341Y-114570536D01*
X175680782Y-114474282D01*
X175777036Y-114348841D01*
X175837544Y-114202762D01*
X175856303Y-114060270D01*
X175858182Y-114046001D01*
X176646818Y-114046001D01*
X176667455Y-114202760D01*
X176667456Y-114202762D01*
X176727964Y-114348841D01*
X176824218Y-114474282D01*
X176949659Y-114570536D01*
X177095738Y-114631044D01*
X177174119Y-114641363D01*
X177252499Y-114651682D01*
X177252500Y-114651682D01*
X177252501Y-114651682D01*
X177304754Y-114644802D01*
X177409262Y-114631044D01*
X177555341Y-114570536D01*
X177680782Y-114474282D01*
X177777036Y-114348841D01*
X177837544Y-114202762D01*
X177856303Y-114060270D01*
X177858182Y-114046001D01*
X177858182Y-114045998D01*
X177843310Y-113933036D01*
X177837544Y-113889238D01*
X177777036Y-113743159D01*
X177680782Y-113617718D01*
X177555341Y-113521464D01*
X177525716Y-113509193D01*
X177409262Y-113460956D01*
X177409260Y-113460955D01*
X177252501Y-113440318D01*
X177252499Y-113440318D01*
X177095739Y-113460955D01*
X177095737Y-113460956D01*
X176949660Y-113521463D01*
X176824218Y-113617718D01*
X176727963Y-113743160D01*
X176667456Y-113889237D01*
X176667455Y-113889239D01*
X176646818Y-114045998D01*
X176646818Y-114046001D01*
X175858182Y-114046001D01*
X175858182Y-114045998D01*
X175843310Y-113933036D01*
X175837544Y-113889238D01*
X175777036Y-113743159D01*
X175680782Y-113617718D01*
X175555341Y-113521464D01*
X175525716Y-113509193D01*
X175409262Y-113460956D01*
X175409260Y-113460955D01*
X175252501Y-113440318D01*
X175252499Y-113440318D01*
X175095739Y-113460955D01*
X175095737Y-113460956D01*
X174949660Y-113521463D01*
X174824218Y-113617718D01*
X174727963Y-113743160D01*
X174667456Y-113889237D01*
X174667455Y-113889239D01*
X174646818Y-114045998D01*
X174646818Y-114046001D01*
X173858182Y-114046001D01*
X173858182Y-114045998D01*
X173843310Y-113933036D01*
X173837544Y-113889238D01*
X173777036Y-113743159D01*
X173680782Y-113617718D01*
X173680780Y-113617716D01*
X173680779Y-113617715D01*
X173626512Y-113576074D01*
X173585310Y-113519646D01*
X173578000Y-113477699D01*
X173578000Y-112817420D01*
X173578236Y-112812013D01*
X173581764Y-112771693D01*
X173571282Y-112732576D01*
X173570116Y-112727318D01*
X173563088Y-112687455D01*
X173563086Y-112687452D01*
X173563086Y-112687450D01*
X173561260Y-112682433D01*
X173554320Y-112665676D01*
X173552054Y-112660819D01*
X173552054Y-112660816D01*
X173528839Y-112627662D01*
X173525933Y-112623099D01*
X173505696Y-112588048D01*
X173505695Y-112588047D01*
X173505694Y-112588045D01*
X173474677Y-112562018D01*
X173470693Y-112558367D01*
X172733600Y-111821274D01*
X171946119Y-111033793D01*
X171942474Y-111029814D01*
X171916456Y-110998807D01*
X171916455Y-110998806D01*
X171905058Y-110992226D01*
X171881392Y-110978561D01*
X171876831Y-110975655D01*
X171863687Y-110966452D01*
X171843684Y-110952446D01*
X171843681Y-110952445D01*
X171838861Y-110950197D01*
X171822055Y-110943235D01*
X171817043Y-110941411D01*
X171777190Y-110934383D01*
X171771910Y-110933212D01*
X171732808Y-110922735D01*
X171697892Y-110925790D01*
X171692481Y-110926264D01*
X171687078Y-110926500D01*
X166640922Y-110926500D01*
X166635518Y-110926264D01*
X166630107Y-110925790D01*
X166595192Y-110922735D01*
X166595191Y-110922735D01*
X166556091Y-110933212D01*
X166550811Y-110934383D01*
X166510959Y-110941410D01*
X166505961Y-110943229D01*
X166489117Y-110950206D01*
X166484313Y-110952446D01*
X166451166Y-110975656D01*
X166446606Y-110978562D01*
X166411548Y-110998804D01*
X166411540Y-110998810D01*
X166385523Y-111029815D01*
X166381869Y-111033804D01*
X160548803Y-116866870D01*
X160544814Y-116870525D01*
X160513805Y-116896545D01*
X160493562Y-116931606D01*
X160490656Y-116936166D01*
X160467446Y-116969313D01*
X160465206Y-116974117D01*
X160458229Y-116990961D01*
X160456410Y-116995959D01*
X160449383Y-117035811D01*
X160448212Y-117041091D01*
X160437735Y-117080191D01*
X160441264Y-117120513D01*
X160441500Y-117125920D01*
X160441500Y-118568417D01*
X160421815Y-118635456D01*
X160369011Y-118681211D01*
X160364951Y-118682979D01*
X160363045Y-118683768D01*
X160275114Y-118730769D01*
X160180550Y-118781315D01*
X160180548Y-118781316D01*
X160180547Y-118781317D01*
X160020589Y-118912589D01*
X159889317Y-119072547D01*
X159791767Y-119255046D01*
X159771593Y-119321552D01*
X159733296Y-119379990D01*
X159669483Y-119408447D01*
X159600416Y-119397886D01*
X159548023Y-119351661D01*
X159533158Y-119317649D01*
X159500433Y-119195516D01*
X159500429Y-119195507D01*
X159400600Y-118981422D01*
X159400599Y-118981420D01*
X159265113Y-118787926D01*
X159265108Y-118787920D01*
X159098082Y-118620894D01*
X158904578Y-118485399D01*
X158690492Y-118385570D01*
X158690486Y-118385567D01*
X158477000Y-118328364D01*
X158477000Y-119223498D01*
X158369315Y-119174320D01*
X158262763Y-119159000D01*
X158191237Y-119159000D01*
X158084685Y-119174320D01*
X157977000Y-119223498D01*
X157977000Y-118328364D01*
X157976999Y-118328364D01*
X157763513Y-118385567D01*
X157763507Y-118385570D01*
X157549422Y-118485399D01*
X157549420Y-118485400D01*
X157355926Y-118620886D01*
X157355920Y-118620891D01*
X157188891Y-118787920D01*
X157188886Y-118787926D01*
X157053400Y-118981420D01*
X157053399Y-118981422D01*
X156953570Y-119195507D01*
X156953567Y-119195513D01*
X156896364Y-119408999D01*
X156896364Y-119409000D01*
X157793314Y-119409000D01*
X157767507Y-119449156D01*
X157727000Y-119587111D01*
X157727000Y-119730889D01*
X157767507Y-119868844D01*
X157793314Y-119909000D01*
X156896364Y-119909000D01*
X141409326Y-119909000D01*
X143608508Y-117709819D01*
X143669831Y-117676334D01*
X143696189Y-117673500D01*
X158733078Y-117673500D01*
X158738481Y-117673735D01*
X158778807Y-117677264D01*
X158817940Y-117666777D01*
X158823162Y-117665619D01*
X158863045Y-117658588D01*
X158863050Y-117658584D01*
X158868099Y-117656747D01*
X158884824Y-117649819D01*
X158889681Y-117647554D01*
X158889684Y-117647554D01*
X158922841Y-117624335D01*
X158927390Y-117621438D01*
X158962455Y-117601194D01*
X158988481Y-117570176D01*
X158992122Y-117566202D01*
X165960507Y-110597819D01*
X166021830Y-110564334D01*
X166048188Y-110561500D01*
X178883812Y-110561500D01*
X178950851Y-110581185D01*
X178971493Y-110597819D01*
X181694608Y-113320934D01*
X181728093Y-113382257D01*
X181723109Y-113451949D01*
X181681237Y-113507882D01*
X181615773Y-113532299D01*
X181559474Y-113523176D01*
X181555338Y-113521463D01*
X181409262Y-113460956D01*
X181409260Y-113460955D01*
X181252501Y-113440318D01*
X181252499Y-113440318D01*
X181095739Y-113460955D01*
X181095737Y-113460956D01*
X180949660Y-113521463D01*
X180824218Y-113617718D01*
X180727963Y-113743160D01*
X180667456Y-113889237D01*
X180667455Y-113889239D01*
X180646818Y-114045998D01*
X180646818Y-114046001D01*
X180667455Y-114202760D01*
X180667456Y-114202762D01*
X180727964Y-114348841D01*
X180824218Y-114474282D01*
X180878487Y-114515924D01*
X180919689Y-114572349D01*
X180927000Y-114614298D01*
X180927000Y-115233312D01*
X180907315Y-115300351D01*
X180890681Y-115320993D01*
X179701750Y-116509923D01*
X179640427Y-116543408D01*
X179570735Y-116538424D01*
X179514802Y-116496552D01*
X179490385Y-116431088D01*
X179505237Y-116362815D01*
X179506651Y-116360295D01*
X179525940Y-116326885D01*
X179528828Y-116322352D01*
X179552054Y-116289184D01*
X179552054Y-116289181D01*
X179554319Y-116284324D01*
X179561247Y-116267599D01*
X179563087Y-116262546D01*
X179563088Y-116262545D01*
X179570121Y-116222650D01*
X179571277Y-116217437D01*
X179581763Y-116178307D01*
X179578235Y-116137989D01*
X179578000Y-116132586D01*
X179578000Y-114614298D01*
X179597685Y-114547259D01*
X179626510Y-114515925D01*
X179680782Y-114474282D01*
X179777036Y-114348841D01*
X179837544Y-114202762D01*
X179856303Y-114060270D01*
X179858182Y-114046001D01*
X179858182Y-114045998D01*
X179843310Y-113933036D01*
X179837544Y-113889238D01*
X179777036Y-113743159D01*
X179680782Y-113617718D01*
X179555341Y-113521464D01*
X179525716Y-113509193D01*
X179409262Y-113460956D01*
X179409260Y-113460955D01*
X179252501Y-113440318D01*
X179252499Y-113440318D01*
X179095739Y-113460955D01*
X179095737Y-113460956D01*
X178949660Y-113521463D01*
X178824218Y-113617718D01*
X178727963Y-113743160D01*
X178667456Y-113889237D01*
X178667455Y-113889239D01*
X178646818Y-114045998D01*
X178646818Y-114046001D01*
X178667455Y-114202760D01*
X178667456Y-114202762D01*
X178727964Y-114348841D01*
X178824218Y-114474282D01*
X178878487Y-114515924D01*
X178919689Y-114572349D01*
X178927000Y-114614298D01*
X178927000Y-115963311D01*
X178907315Y-116030350D01*
X178890681Y-116050992D01*
X171351493Y-123590181D01*
X171290170Y-123623666D01*
X171263812Y-123626500D01*
X168672910Y-123626500D01*
X168667506Y-123626264D01*
X168661993Y-123625781D01*
X168627192Y-123622736D01*
X168616387Y-123623682D01*
X168616118Y-123620617D01*
X168563692Y-123619363D01*
X168505835Y-123580192D01*
X168478340Y-123515960D01*
X168489936Y-123447059D01*
X168525977Y-123402881D01*
X168576282Y-123364282D01*
X168672536Y-123238841D01*
X168733044Y-123092762D01*
X168748825Y-122972890D01*
X168753682Y-122936001D01*
X168753682Y-122935999D01*
X168744753Y-122868180D01*
X168755518Y-122799145D01*
X168780008Y-122764316D01*
X169470704Y-122073620D01*
X169474666Y-122069989D01*
X169505694Y-122043955D01*
X169525938Y-122008890D01*
X169528835Y-122004341D01*
X169552054Y-121971184D01*
X169552054Y-121971181D01*
X169554319Y-121966324D01*
X169561247Y-121949599D01*
X169563084Y-121944550D01*
X169563088Y-121944545D01*
X169570119Y-121904662D01*
X169571277Y-121899440D01*
X169581764Y-121860307D01*
X169578235Y-121819978D01*
X169578000Y-121814575D01*
X169578000Y-113090298D01*
X169597685Y-113023259D01*
X169626510Y-112991925D01*
X169680782Y-112950282D01*
X169777036Y-112824841D01*
X169837544Y-112678762D01*
X169858182Y-112522001D01*
X170646818Y-112522001D01*
X170667455Y-112678760D01*
X170667456Y-112678762D01*
X170727964Y-112824841D01*
X170824218Y-112950282D01*
X170878487Y-112991924D01*
X170919689Y-113048349D01*
X170927000Y-113090298D01*
X170927000Y-120943578D01*
X170926764Y-120948985D01*
X170923235Y-120989308D01*
X170933712Y-121028410D01*
X170934883Y-121033690D01*
X170941911Y-121073543D01*
X170943735Y-121078555D01*
X170950697Y-121095361D01*
X170952945Y-121100181D01*
X170952946Y-121100184D01*
X170966952Y-121120187D01*
X170976155Y-121133331D01*
X170979061Y-121137892D01*
X170999306Y-121172955D01*
X171030315Y-121198975D01*
X171034305Y-121202631D01*
X171325988Y-121494314D01*
X171359473Y-121555637D01*
X171361246Y-121598179D01*
X171352318Y-121665997D01*
X171352318Y-121666001D01*
X171372955Y-121822760D01*
X171372956Y-121822762D01*
X171433464Y-121968841D01*
X171529718Y-122094282D01*
X171655159Y-122190536D01*
X171801238Y-122251044D01*
X171879619Y-122261363D01*
X171957999Y-122271682D01*
X171958000Y-122271682D01*
X171958001Y-122271682D01*
X172010254Y-122264802D01*
X172114762Y-122251044D01*
X172260841Y-122190536D01*
X172386282Y-122094282D01*
X172482536Y-121968841D01*
X172543044Y-121822762D01*
X172563682Y-121666000D01*
X172543044Y-121509238D01*
X172482536Y-121363159D01*
X172386282Y-121237718D01*
X172260841Y-121141464D01*
X172252217Y-121137892D01*
X172114762Y-121080956D01*
X172114760Y-121080955D01*
X171958001Y-121060318D01*
X171957997Y-121060318D01*
X171890179Y-121069246D01*
X171821144Y-121058480D01*
X171786314Y-121033988D01*
X171614319Y-120861993D01*
X171580834Y-120800670D01*
X171578000Y-120774312D01*
X171578000Y-113090298D01*
X171597685Y-113023259D01*
X171626510Y-112991925D01*
X171680782Y-112950282D01*
X171777036Y-112824841D01*
X171837544Y-112678762D01*
X171858182Y-112522000D01*
X171837544Y-112365238D01*
X171777036Y-112219159D01*
X171680782Y-112093718D01*
X171555341Y-111997464D01*
X171409262Y-111936956D01*
X171409260Y-111936955D01*
X171252501Y-111916318D01*
X171252499Y-111916318D01*
X171095739Y-111936955D01*
X171095737Y-111936956D01*
X170949660Y-111997463D01*
X170824218Y-112093718D01*
X170727963Y-112219160D01*
X170667456Y-112365237D01*
X170667455Y-112365239D01*
X170646818Y-112521998D01*
X170646818Y-112522001D01*
X169858182Y-112522001D01*
X169858182Y-112522000D01*
X169837544Y-112365238D01*
X169777036Y-112219159D01*
X169680782Y-112093718D01*
X169555341Y-111997464D01*
X169409262Y-111936956D01*
X169409260Y-111936955D01*
X169252501Y-111916318D01*
X169252499Y-111916318D01*
X169095739Y-111936955D01*
X169095737Y-111936956D01*
X168949660Y-111997463D01*
X168824218Y-112093718D01*
X168727963Y-112219160D01*
X168667456Y-112365237D01*
X168667455Y-112365239D01*
X168646818Y-112521998D01*
X168646818Y-112522001D01*
X168667455Y-112678760D01*
X168667456Y-112678762D01*
X168727964Y-112824841D01*
X168824218Y-112950282D01*
X168878487Y-112991924D01*
X168919689Y-113048349D01*
X168927000Y-113090298D01*
X168927000Y-121645311D01*
X168907315Y-121712350D01*
X168890681Y-121732992D01*
X168319684Y-122303988D01*
X168258361Y-122337473D01*
X168215818Y-122339246D01*
X168148001Y-122330318D01*
X168147999Y-122330318D01*
X167991239Y-122350955D01*
X167991237Y-122350956D01*
X167845160Y-122411463D01*
X167719718Y-122507718D01*
X167623463Y-122633160D01*
X167562956Y-122779237D01*
X167562955Y-122779239D01*
X167542318Y-122935998D01*
X167542318Y-122936001D01*
X167562955Y-123092760D01*
X167562956Y-123092762D01*
X167623464Y-123238841D01*
X167719718Y-123364282D01*
X167845159Y-123460536D01*
X167991238Y-123521044D01*
X168065449Y-123530814D01*
X168147999Y-123541682D01*
X168148000Y-123541682D01*
X168148001Y-123541682D01*
X168230551Y-123530814D01*
X168304762Y-123521044D01*
X168304762Y-123521043D01*
X168312326Y-123520048D01*
X168381361Y-123530814D01*
X168433617Y-123577193D01*
X168452502Y-123644462D01*
X168432021Y-123711263D01*
X168423491Y-123722704D01*
X168417518Y-123729821D01*
X168413867Y-123733805D01*
X165107181Y-127040491D01*
X165045858Y-127073976D01*
X164976166Y-127068992D01*
X164920233Y-127027120D01*
X164895816Y-126961656D01*
X164895500Y-126952810D01*
X164895500Y-125734249D01*
X164895499Y-125734247D01*
X164883868Y-125675770D01*
X164883867Y-125675769D01*
X164839552Y-125609447D01*
X164773230Y-125565132D01*
X164773229Y-125565131D01*
X164714752Y-125553500D01*
X164714748Y-125553500D01*
X163784188Y-125553500D01*
X163717149Y-125533815D01*
X163696507Y-125517181D01*
X163668819Y-125489493D01*
X163635334Y-125428170D01*
X163632500Y-125401812D01*
X163632500Y-123825002D01*
X165807365Y-123825002D01*
X165827838Y-124006713D01*
X165827839Y-124006716D01*
X165888237Y-124179326D01*
X165964626Y-124300897D01*
X165985529Y-124334164D01*
X166114836Y-124463471D01*
X166269675Y-124560763D01*
X166442282Y-124621160D01*
X166442283Y-124621160D01*
X166442286Y-124621161D01*
X166623997Y-124641635D01*
X166624000Y-124641635D01*
X166624003Y-124641635D01*
X166805713Y-124621161D01*
X166805714Y-124621160D01*
X166805718Y-124621160D01*
X166978325Y-124560763D01*
X167133164Y-124463471D01*
X167262471Y-124334164D01*
X167359763Y-124179325D01*
X167420160Y-124006718D01*
X167420160Y-124006714D01*
X167420161Y-124006713D01*
X167440635Y-123825002D01*
X167440635Y-123824997D01*
X167420161Y-123643286D01*
X167420160Y-123643283D01*
X167419505Y-123641412D01*
X167359763Y-123470675D01*
X167339393Y-123438257D01*
X167277438Y-123339656D01*
X167262471Y-123315836D01*
X167133164Y-123186529D01*
X166978326Y-123089237D01*
X166805716Y-123028839D01*
X166805713Y-123028838D01*
X166624003Y-123008365D01*
X166623997Y-123008365D01*
X166442286Y-123028838D01*
X166442283Y-123028839D01*
X166269673Y-123089237D01*
X166114835Y-123186529D01*
X165985529Y-123315835D01*
X165888237Y-123470673D01*
X165827839Y-123643283D01*
X165827838Y-123643286D01*
X165807365Y-123824997D01*
X165807365Y-123825002D01*
X163632500Y-123825002D01*
X163632500Y-120833500D01*
X163652185Y-120766461D01*
X163704989Y-120720706D01*
X163756500Y-120709500D01*
X164176750Y-120709500D01*
X164176751Y-120709499D01*
X164191568Y-120706552D01*
X164235229Y-120697868D01*
X164235229Y-120697867D01*
X164235231Y-120697867D01*
X164301552Y-120653552D01*
X164345867Y-120587231D01*
X164345867Y-120587229D01*
X164345868Y-120587229D01*
X164355922Y-120536682D01*
X164357500Y-120528748D01*
X164357500Y-118789252D01*
X164357500Y-118789249D01*
X164357499Y-118789247D01*
X164345868Y-118730770D01*
X164345867Y-118730769D01*
X164301552Y-118664447D01*
X164235230Y-118620132D01*
X164235229Y-118620131D01*
X164176752Y-118608500D01*
X164176748Y-118608500D01*
X162437252Y-118608500D01*
X162437247Y-118608500D01*
X162378770Y-118620131D01*
X162378769Y-118620132D01*
X162312447Y-118664447D01*
X162268132Y-118730769D01*
X162268131Y-118730770D01*
X162256500Y-118789247D01*
X162256500Y-120528752D01*
X162268131Y-120587229D01*
X162268132Y-120587230D01*
X162312447Y-120653552D01*
X162378769Y-120697867D01*
X162378770Y-120697868D01*
X162437247Y-120709499D01*
X162437250Y-120709500D01*
X162437252Y-120709500D01*
X162857500Y-120709500D01*
X162924539Y-120729185D01*
X162970294Y-120781989D01*
X162981500Y-120833500D01*
X162981500Y-125571078D01*
X162981264Y-125576485D01*
X162977735Y-125616808D01*
X162988212Y-125655910D01*
X162989383Y-125661190D01*
X162996411Y-125701043D01*
X162998235Y-125706055D01*
X163005197Y-125722861D01*
X163007445Y-125727681D01*
X163007446Y-125727684D01*
X163012045Y-125734252D01*
X163030655Y-125760831D01*
X163033561Y-125765392D01*
X163053806Y-125800455D01*
X163084815Y-125826475D01*
X163088805Y-125830131D01*
X163236181Y-125977507D01*
X163269666Y-126038830D01*
X163272500Y-126065188D01*
X163272500Y-126995752D01*
X163284131Y-127054229D01*
X163284132Y-127054230D01*
X163328447Y-127120552D01*
X163394769Y-127164867D01*
X163394770Y-127164868D01*
X163453247Y-127176499D01*
X163453250Y-127176500D01*
X164671810Y-127176500D01*
X164738849Y-127196185D01*
X164784604Y-127248989D01*
X164794548Y-127318147D01*
X164765523Y-127381703D01*
X164759491Y-127388181D01*
X153451803Y-138695870D01*
X153447814Y-138699525D01*
X153416805Y-138725545D01*
X153396562Y-138760606D01*
X153393656Y-138765166D01*
X153370446Y-138798313D01*
X153368206Y-138803117D01*
X153361229Y-138819961D01*
X153359410Y-138824959D01*
X153352383Y-138864811D01*
X153351212Y-138870091D01*
X153340735Y-138909191D01*
X153344264Y-138949513D01*
X153344500Y-138954920D01*
X153344500Y-140783811D01*
X153324815Y-140850850D01*
X153308181Y-140871492D01*
X150911803Y-143267870D01*
X150907814Y-143271525D01*
X150876805Y-143297545D01*
X150856562Y-143332606D01*
X150853656Y-143337166D01*
X150830446Y-143370313D01*
X150828206Y-143375117D01*
X150821229Y-143391961D01*
X150819410Y-143396959D01*
X150812383Y-143436812D01*
X150811212Y-143442093D01*
X150804887Y-143465698D01*
X150768522Y-143525359D01*
X150730949Y-143546698D01*
X150731670Y-143548438D01*
X150726051Y-143550765D01*
X150660027Y-143586056D01*
X150543550Y-143648315D01*
X150543548Y-143648316D01*
X150543547Y-143648317D01*
X150383589Y-143779589D01*
X150252317Y-143939547D01*
X150154769Y-144122043D01*
X150094699Y-144320067D01*
X150074417Y-144526000D01*
X150094699Y-144731932D01*
X150101638Y-144754807D01*
X150154768Y-144929954D01*
X150252315Y-145112450D01*
X150252317Y-145112452D01*
X150383589Y-145272410D01*
X150480209Y-145351702D01*
X150543550Y-145403685D01*
X150726046Y-145501232D01*
X150924066Y-145561300D01*
X150924065Y-145561300D01*
X150942529Y-145563118D01*
X151130000Y-145581583D01*
X151335934Y-145561300D01*
X151533954Y-145501232D01*
X151716450Y-145403685D01*
X151876410Y-145272410D01*
X152007685Y-145112450D01*
X152105232Y-144929954D01*
X152165300Y-144731934D01*
X152185583Y-144526000D01*
X152165300Y-144320066D01*
X152105232Y-144122046D01*
X152007685Y-143939550D01*
X151932897Y-143848420D01*
X151876410Y-143779589D01*
X151716451Y-143648315D01*
X151691573Y-143635018D01*
X151641728Y-143586056D01*
X151626268Y-143517918D01*
X151650100Y-143452238D01*
X151662338Y-143437986D01*
X153132820Y-141967505D01*
X153194142Y-141934021D01*
X153263834Y-141939005D01*
X153319767Y-141980877D01*
X153344184Y-142046341D01*
X153344500Y-142055187D01*
X153344500Y-143435417D01*
X153324815Y-143502456D01*
X153272011Y-143548211D01*
X153267951Y-143549979D01*
X153266045Y-143550768D01*
X153200027Y-143586056D01*
X153083550Y-143648315D01*
X153083548Y-143648316D01*
X153083547Y-143648317D01*
X152923589Y-143779589D01*
X152792317Y-143939547D01*
X152694769Y-144122043D01*
X152634699Y-144320067D01*
X152614417Y-144526000D01*
X152634699Y-144731932D01*
X152641638Y-144754807D01*
X152694768Y-144929954D01*
X152792315Y-145112450D01*
X152792317Y-145112452D01*
X152923589Y-145272410D01*
X153020209Y-145351702D01*
X153083550Y-145403685D01*
X153266046Y-145501232D01*
X153464066Y-145561300D01*
X153464065Y-145561300D01*
X153482529Y-145563118D01*
X153670000Y-145581583D01*
X153875934Y-145561300D01*
X154073954Y-145501232D01*
X154256450Y-145403685D01*
X154416410Y-145272410D01*
X154547685Y-145112450D01*
X154645232Y-144929954D01*
X154665406Y-144863446D01*
X154703702Y-144805010D01*
X154767514Y-144776553D01*
X154836581Y-144787112D01*
X154888975Y-144833336D01*
X154903841Y-144867349D01*
X154936567Y-144989486D01*
X154936570Y-144989492D01*
X155036399Y-145203578D01*
X155171894Y-145397082D01*
X155338917Y-145564105D01*
X155532421Y-145699600D01*
X155746507Y-145799429D01*
X155746516Y-145799433D01*
X155960000Y-145856634D01*
X155960000Y-144961501D01*
X156067685Y-145010680D01*
X156174237Y-145026000D01*
X156245763Y-145026000D01*
X156352315Y-145010680D01*
X156460000Y-144961501D01*
X156460000Y-145856633D01*
X156673483Y-145799433D01*
X156673492Y-145799429D01*
X156887578Y-145699600D01*
X157081082Y-145564105D01*
X157248105Y-145397082D01*
X157383600Y-145203578D01*
X157483429Y-144989492D01*
X157483432Y-144989486D01*
X157540636Y-144776000D01*
X156643686Y-144776000D01*
X156669493Y-144735844D01*
X156710000Y-144597889D01*
X156710000Y-144454111D01*
X156669493Y-144316156D01*
X156643686Y-144276000D01*
X157540636Y-144276000D01*
X157540635Y-144275999D01*
X157483432Y-144062513D01*
X157483429Y-144062507D01*
X157383600Y-143848422D01*
X157383599Y-143848420D01*
X157248113Y-143654926D01*
X157248108Y-143654920D01*
X157081082Y-143487894D01*
X156887578Y-143352399D01*
X156673492Y-143252570D01*
X156673486Y-143252567D01*
X156460000Y-143195364D01*
X156460000Y-144090498D01*
X156352315Y-144041320D01*
X156245763Y-144026000D01*
X156174237Y-144026000D01*
X156067685Y-144041320D01*
X155960000Y-144090498D01*
X155960000Y-143195364D01*
X155959999Y-143195364D01*
X155746513Y-143252567D01*
X155746507Y-143252570D01*
X155532422Y-143352399D01*
X155532420Y-143352400D01*
X155338926Y-143487886D01*
X155338920Y-143487891D01*
X155171891Y-143654920D01*
X155171886Y-143654926D01*
X155036400Y-143848420D01*
X155036399Y-143848422D01*
X154936570Y-144062507D01*
X154936567Y-144062514D01*
X154903841Y-144184650D01*
X154867476Y-144244310D01*
X154804629Y-144274839D01*
X154735253Y-144266544D01*
X154681375Y-144222059D01*
X154665406Y-144188553D01*
X154645232Y-144122046D01*
X154547685Y-143939550D01*
X154472897Y-143848420D01*
X154416410Y-143779589D01*
X154266121Y-143656252D01*
X154256450Y-143648315D01*
X154073954Y-143550768D01*
X154072049Y-143549979D01*
X154071203Y-143549298D01*
X154068581Y-143547896D01*
X154068846Y-143547398D01*
X154017645Y-143506138D01*
X153995579Y-143439844D01*
X153995500Y-143435417D01*
X153995500Y-142172187D01*
X154015185Y-142105148D01*
X154031815Y-142084510D01*
X154650215Y-141466109D01*
X154654166Y-141462489D01*
X154685194Y-141436455D01*
X154705438Y-141401390D01*
X154708335Y-141396841D01*
X154731554Y-141363684D01*
X154731554Y-141363681D01*
X154733819Y-141358824D01*
X154740747Y-141342099D01*
X154742584Y-141337050D01*
X154742588Y-141337045D01*
X154749619Y-141297162D01*
X154750777Y-141291940D01*
X154761264Y-141252807D01*
X154757735Y-141212478D01*
X154757500Y-141207075D01*
X154757500Y-139378187D01*
X154777185Y-139311148D01*
X154793814Y-139290511D01*
X157196821Y-136887504D01*
X157258142Y-136854021D01*
X157327834Y-136859005D01*
X157383767Y-136900877D01*
X157408184Y-136966341D01*
X157408500Y-136975187D01*
X157408500Y-137607699D01*
X157388815Y-137674738D01*
X157359988Y-137706074D01*
X157305720Y-137747715D01*
X157209463Y-137873160D01*
X157148956Y-138019237D01*
X157148955Y-138019239D01*
X157128318Y-138175998D01*
X157128318Y-138176001D01*
X157148955Y-138332760D01*
X157148956Y-138332762D01*
X157182383Y-138413463D01*
X157209464Y-138478841D01*
X157305718Y-138604282D01*
X157431159Y-138700536D01*
X157577238Y-138761044D01*
X157734000Y-138781682D01*
X157753799Y-138779075D01*
X157822833Y-138789840D01*
X157875090Y-138836219D01*
X157893976Y-138903488D01*
X157892925Y-138918196D01*
X157890318Y-138938001D01*
X157910955Y-139094760D01*
X157910956Y-139094762D01*
X157959843Y-139212787D01*
X157971464Y-139240841D01*
X158067718Y-139366282D01*
X158193159Y-139462536D01*
X158339238Y-139523044D01*
X158417619Y-139533363D01*
X158495999Y-139543682D01*
X158496000Y-139543682D01*
X158496001Y-139543682D01*
X158548254Y-139536802D01*
X158652762Y-139523044D01*
X158798841Y-139462536D01*
X158924282Y-139366282D01*
X158965923Y-139312013D01*
X159022351Y-139270811D01*
X159064299Y-139263500D01*
X160765078Y-139263500D01*
X160770481Y-139263735D01*
X160810807Y-139267264D01*
X160849940Y-139256777D01*
X160855162Y-139255619D01*
X160895045Y-139248588D01*
X160895050Y-139248584D01*
X160900099Y-139246747D01*
X160916824Y-139239819D01*
X160921681Y-139237554D01*
X160921684Y-139237554D01*
X160954841Y-139214335D01*
X160959390Y-139211438D01*
X160994455Y-139191194D01*
X161020481Y-139160176D01*
X161024122Y-139156202D01*
X164302210Y-135878115D01*
X164306172Y-135874484D01*
X164337194Y-135848455D01*
X164357444Y-135813379D01*
X164360328Y-135808852D01*
X164383554Y-135775684D01*
X164383554Y-135775681D01*
X164385819Y-135770824D01*
X164392747Y-135754099D01*
X164394587Y-135749046D01*
X164394588Y-135749045D01*
X164401621Y-135709150D01*
X164402777Y-135703937D01*
X164413263Y-135664807D01*
X164409735Y-135624489D01*
X164409500Y-135619086D01*
X164409500Y-135301500D01*
X164429185Y-135234461D01*
X164481989Y-135188706D01*
X164533500Y-135177500D01*
X164714750Y-135177500D01*
X164714751Y-135177499D01*
X164729568Y-135174552D01*
X164773229Y-135165868D01*
X164773229Y-135165867D01*
X164773231Y-135165867D01*
X164839552Y-135121552D01*
X164883867Y-135055231D01*
X164883867Y-135055229D01*
X164883868Y-135055229D01*
X164895499Y-134996752D01*
X164895500Y-134996750D01*
X164895500Y-134366002D01*
X168347365Y-134366002D01*
X168367838Y-134547713D01*
X168367839Y-134547716D01*
X168428237Y-134720326D01*
X168511322Y-134852554D01*
X168525529Y-134875164D01*
X168654836Y-135004471D01*
X168809675Y-135101763D01*
X168982282Y-135162160D01*
X168982283Y-135162160D01*
X168982286Y-135162161D01*
X169163997Y-135182635D01*
X169164000Y-135182635D01*
X169164003Y-135182635D01*
X169345713Y-135162161D01*
X169345714Y-135162160D01*
X169345718Y-135162160D01*
X169518325Y-135101763D01*
X169673164Y-135004471D01*
X169802471Y-134875164D01*
X169899763Y-134720325D01*
X169960160Y-134547718D01*
X169980635Y-134366000D01*
X169980635Y-134365997D01*
X169960161Y-134184286D01*
X169960160Y-134184283D01*
X169958001Y-134178114D01*
X169899763Y-134011675D01*
X169802471Y-133856836D01*
X169673164Y-133727529D01*
X169518326Y-133630237D01*
X169345716Y-133569839D01*
X169345713Y-133569838D01*
X169164003Y-133549365D01*
X169163997Y-133549365D01*
X168982286Y-133569838D01*
X168982283Y-133569839D01*
X168809673Y-133630237D01*
X168654835Y-133727529D01*
X168525529Y-133856835D01*
X168428237Y-134011673D01*
X168367839Y-134184283D01*
X168367838Y-134184286D01*
X168347365Y-134365997D01*
X168347365Y-134366002D01*
X164895500Y-134366002D01*
X164895500Y-133735249D01*
X164895499Y-133735247D01*
X164883868Y-133676770D01*
X164883867Y-133676769D01*
X164839552Y-133610447D01*
X164773230Y-133566132D01*
X164773229Y-133566131D01*
X164714752Y-133554500D01*
X164714748Y-133554500D01*
X163453252Y-133554500D01*
X163453247Y-133554500D01*
X163394770Y-133566131D01*
X163394769Y-133566132D01*
X163328447Y-133610447D01*
X163284132Y-133676769D01*
X163284131Y-133676770D01*
X163272500Y-133735247D01*
X163272500Y-134996752D01*
X163284131Y-135055229D01*
X163284132Y-135055230D01*
X163328447Y-135121552D01*
X163394769Y-135165867D01*
X163394770Y-135165868D01*
X163453247Y-135177499D01*
X163453250Y-135177500D01*
X163453252Y-135177500D01*
X163634500Y-135177500D01*
X163701539Y-135197185D01*
X163747294Y-135249989D01*
X163758500Y-135301500D01*
X163758500Y-135449811D01*
X163738815Y-135516850D01*
X163722181Y-135537492D01*
X160683493Y-138576181D01*
X160622170Y-138609666D01*
X160595812Y-138612500D01*
X159064299Y-138612500D01*
X158997260Y-138592815D01*
X158965923Y-138563986D01*
X158924283Y-138509719D01*
X158924282Y-138509718D01*
X158798841Y-138413464D01*
X158652762Y-138352956D01*
X158652760Y-138352955D01*
X158496001Y-138332318D01*
X158496000Y-138332318D01*
X158488837Y-138333260D01*
X158476196Y-138334925D01*
X158407161Y-138324157D01*
X158354907Y-138277776D01*
X158336023Y-138210506D01*
X158337074Y-138195807D01*
X158339682Y-138176000D01*
X158336388Y-138150983D01*
X158319044Y-138019239D01*
X158319044Y-138019238D01*
X158258536Y-137873159D01*
X158162282Y-137747718D01*
X158162280Y-137747716D01*
X158162279Y-137747715D01*
X158108012Y-137706074D01*
X158066810Y-137649646D01*
X158059500Y-137607699D01*
X158059500Y-137092188D01*
X158079185Y-137025149D01*
X158095819Y-137004507D01*
X162912507Y-132187819D01*
X162973830Y-132154334D01*
X163000188Y-132151500D01*
X165801593Y-132151500D01*
X165868632Y-132171185D01*
X165906585Y-132209526D01*
X165985529Y-132335164D01*
X166114836Y-132464471D01*
X166269675Y-132561763D01*
X166442282Y-132622160D01*
X166442283Y-132622160D01*
X166442286Y-132622161D01*
X166623997Y-132642635D01*
X166624000Y-132642635D01*
X166624003Y-132642635D01*
X166805713Y-132622161D01*
X166805714Y-132622160D01*
X166805718Y-132622160D01*
X166978325Y-132561763D01*
X167133164Y-132464471D01*
X167262471Y-132335164D01*
X167359763Y-132180325D01*
X167420160Y-132007718D01*
X167440635Y-131826000D01*
X167440635Y-131825997D01*
X167420161Y-131644286D01*
X167420160Y-131644283D01*
X167418454Y-131639408D01*
X167359763Y-131471675D01*
X167351770Y-131458955D01*
X167288872Y-131358853D01*
X167262471Y-131316836D01*
X167133164Y-131187529D01*
X167048809Y-131134525D01*
X166978326Y-131090237D01*
X166805716Y-131029839D01*
X166805713Y-131029838D01*
X166624003Y-131009365D01*
X166623997Y-131009365D01*
X166442286Y-131029838D01*
X166442283Y-131029839D01*
X166269673Y-131090237D01*
X166114835Y-131187529D01*
X165985529Y-131316835D01*
X165966697Y-131346807D01*
X165909952Y-131437117D01*
X165906587Y-131442472D01*
X165854252Y-131488763D01*
X165801593Y-131500500D01*
X162883187Y-131500500D01*
X162816148Y-131480815D01*
X162770393Y-131428011D01*
X162760449Y-131358853D01*
X162789474Y-131295297D01*
X162795492Y-131288833D01*
X167838995Y-126245330D01*
X167900314Y-126211848D01*
X167970006Y-126216832D01*
X168025939Y-126258704D01*
X168050356Y-126324168D01*
X168050143Y-126344452D01*
X168048240Y-126364994D01*
X168048240Y-126365000D01*
X168067237Y-126570019D01*
X168067238Y-126570021D01*
X168123583Y-126768054D01*
X168123589Y-126768069D01*
X168215360Y-126952370D01*
X168215364Y-126952376D01*
X168218679Y-126956764D01*
X168218681Y-126956765D01*
X168805354Y-126370091D01*
X168803300Y-126394888D01*
X168832549Y-126510388D01*
X168897715Y-126610133D01*
X168991738Y-126683313D01*
X169104427Y-126722000D01*
X169160553Y-126722000D01*
X168575321Y-127307230D01*
X168666661Y-127363786D01*
X168666663Y-127363787D01*
X168858650Y-127438163D01*
X168858660Y-127438166D01*
X169061054Y-127476000D01*
X169266946Y-127476000D01*
X169469339Y-127438166D01*
X169469349Y-127438163D01*
X169661336Y-127363787D01*
X169661338Y-127363786D01*
X169752676Y-127307231D01*
X169752677Y-127307230D01*
X169167448Y-126722000D01*
X169193579Y-126722000D01*
X169281520Y-126707325D01*
X169386306Y-126650618D01*
X169467001Y-126562960D01*
X169514861Y-126453850D01*
X169521865Y-126369312D01*
X170109318Y-126956765D01*
X170112638Y-126952371D01*
X170112640Y-126952367D01*
X170204410Y-126768069D01*
X170204416Y-126768054D01*
X170260761Y-126570021D01*
X170260762Y-126570019D01*
X170279760Y-126365000D01*
X170279760Y-126364999D01*
X170260762Y-126159980D01*
X170260761Y-126159978D01*
X170204416Y-125961945D01*
X170204410Y-125961930D01*
X170112637Y-125777627D01*
X170109319Y-125773234D01*
X170109318Y-125773234D01*
X169522645Y-126359906D01*
X169524700Y-126335112D01*
X169495451Y-126219612D01*
X169430285Y-126119867D01*
X169336262Y-126046687D01*
X169223573Y-126008000D01*
X169167447Y-126008000D01*
X169752677Y-125422768D01*
X169752676Y-125422767D01*
X169661340Y-125366214D01*
X169661334Y-125366211D01*
X169469340Y-125291833D01*
X169434866Y-125285389D01*
X169372585Y-125253721D01*
X169337312Y-125193409D01*
X169340246Y-125123601D01*
X169380455Y-125066460D01*
X169445173Y-125040129D01*
X169457651Y-125039500D01*
X171941078Y-125039500D01*
X171946481Y-125039735D01*
X171986807Y-125043264D01*
X172025940Y-125032777D01*
X172031162Y-125031619D01*
X172071045Y-125024588D01*
X172071050Y-125024584D01*
X172076099Y-125022747D01*
X172092824Y-125015819D01*
X172097681Y-125013554D01*
X172097684Y-125013554D01*
X172130841Y-124990335D01*
X172135390Y-124987438D01*
X172170455Y-124967194D01*
X172196481Y-124936176D01*
X172200122Y-124932202D01*
X173233139Y-123899185D01*
X173294460Y-123865702D01*
X173364152Y-123870686D01*
X173420085Y-123912558D01*
X173444038Y-123972984D01*
X173447838Y-124006713D01*
X173447839Y-124006717D01*
X173508237Y-124179327D01*
X173538400Y-124227330D01*
X173605529Y-124334165D01*
X173734836Y-124463472D01*
X173807570Y-124509174D01*
X173889671Y-124560762D01*
X173889675Y-124560764D01*
X174062282Y-124621161D01*
X174062283Y-124621161D01*
X174062286Y-124621162D01*
X174243997Y-124641636D01*
X174244000Y-124641636D01*
X174244003Y-124641636D01*
X174425713Y-124621162D01*
X174425714Y-124621161D01*
X174425718Y-124621161D01*
X174598325Y-124560764D01*
X174753164Y-124463472D01*
X174882471Y-124334165D01*
X174979763Y-124179326D01*
X175040160Y-124006719D01*
X175054405Y-123880298D01*
X175060635Y-123825003D01*
X175060635Y-123824998D01*
X175040161Y-123643287D01*
X175040160Y-123643284D01*
X175040159Y-123643282D01*
X174979763Y-123470676D01*
X174964923Y-123447059D01*
X174912910Y-123364281D01*
X174882471Y-123315837D01*
X174753164Y-123186530D01*
X174669288Y-123133827D01*
X174598326Y-123089238D01*
X174425716Y-123028840D01*
X174425712Y-123028839D01*
X174391983Y-123025039D01*
X174327569Y-122997972D01*
X174288014Y-122940377D01*
X174285877Y-122870540D01*
X174318184Y-122814140D01*
X181470704Y-115661620D01*
X181474666Y-115657989D01*
X181505694Y-115631955D01*
X181525938Y-115596890D01*
X181528835Y-115592341D01*
X181552054Y-115559184D01*
X181552054Y-115559181D01*
X181554319Y-115554324D01*
X181561247Y-115537599D01*
X181563084Y-115532550D01*
X181563088Y-115532545D01*
X181570119Y-115492662D01*
X181571277Y-115487440D01*
X181581764Y-115448307D01*
X181578235Y-115407981D01*
X181578000Y-115402578D01*
X181578000Y-114614298D01*
X181597685Y-114547259D01*
X181626510Y-114515925D01*
X181680782Y-114474282D01*
X181777036Y-114348841D01*
X181807939Y-114274233D01*
X181851780Y-114219831D01*
X181918074Y-114197766D01*
X181985773Y-114215045D01*
X182033384Y-114266182D01*
X182046500Y-114321687D01*
X182046500Y-117923811D01*
X182026815Y-117990850D01*
X182010181Y-118011492D01*
X179359803Y-120661870D01*
X179355814Y-120665525D01*
X179324805Y-120691545D01*
X179304562Y-120726606D01*
X179301656Y-120731166D01*
X179278446Y-120764313D01*
X179276206Y-120769117D01*
X179269229Y-120785961D01*
X179267410Y-120790959D01*
X179260383Y-120830811D01*
X179259212Y-120836091D01*
X179248735Y-120875191D01*
X179252264Y-120915513D01*
X179252500Y-120920920D01*
X179252500Y-125289811D01*
X179232815Y-125356850D01*
X179216181Y-125377492D01*
X178109008Y-126484664D01*
X178047685Y-126518149D01*
X177977993Y-126513165D01*
X177922060Y-126471293D01*
X177897643Y-126405829D01*
X177897856Y-126385539D01*
X177899759Y-126364998D01*
X177880762Y-126159981D01*
X177880761Y-126159979D01*
X177824416Y-125961946D01*
X177824410Y-125961931D01*
X177732637Y-125777628D01*
X177729319Y-125773235D01*
X177729318Y-125773235D01*
X177142645Y-126359908D01*
X177144700Y-126335113D01*
X177115451Y-126219613D01*
X177050285Y-126119868D01*
X176956262Y-126046688D01*
X176843573Y-126008001D01*
X176787447Y-126008001D01*
X177372677Y-125422769D01*
X177372676Y-125422768D01*
X177281340Y-125366215D01*
X177281334Y-125366212D01*
X177089340Y-125291834D01*
X176886946Y-125254001D01*
X176681054Y-125254001D01*
X176478660Y-125291834D01*
X176478659Y-125291834D01*
X176286666Y-125366212D01*
X176195321Y-125422769D01*
X176780554Y-126008001D01*
X176754421Y-126008001D01*
X176666480Y-126022676D01*
X176561694Y-126079383D01*
X176480999Y-126167041D01*
X176433139Y-126276151D01*
X176426133Y-126360688D01*
X175838680Y-125773235D01*
X175838679Y-125773235D01*
X175835362Y-125777628D01*
X175743589Y-125961931D01*
X175743583Y-125961946D01*
X175687238Y-126159979D01*
X175687237Y-126159981D01*
X175668240Y-126365000D01*
X175668240Y-126365001D01*
X175687237Y-126570020D01*
X175687238Y-126570022D01*
X175743583Y-126768055D01*
X175743589Y-126768070D01*
X175835360Y-126952371D01*
X175835364Y-126952377D01*
X175838679Y-126956765D01*
X175838681Y-126956766D01*
X176425354Y-126370092D01*
X176423300Y-126394889D01*
X176452549Y-126510389D01*
X176517715Y-126610134D01*
X176611738Y-126683314D01*
X176724427Y-126722001D01*
X176780553Y-126722001D01*
X176195321Y-127307231D01*
X176286661Y-127363787D01*
X176286663Y-127363788D01*
X176478650Y-127438164D01*
X176478660Y-127438167D01*
X176681054Y-127476001D01*
X176818310Y-127476001D01*
X176885349Y-127495686D01*
X176931104Y-127548490D01*
X176941048Y-127617648D01*
X176912023Y-127681204D01*
X176905991Y-127687682D01*
X176177493Y-128416181D01*
X176116170Y-128449666D01*
X176089812Y-128452500D01*
X173160189Y-128452500D01*
X173093150Y-128432815D01*
X173072508Y-128416181D01*
X172065819Y-127409492D01*
X172032334Y-127348169D01*
X172029500Y-127321811D01*
X172029500Y-127300501D01*
X172049185Y-127233462D01*
X172101989Y-127187707D01*
X172153500Y-127176501D01*
X172334750Y-127176501D01*
X172334751Y-127176500D01*
X172349568Y-127173553D01*
X172393229Y-127164869D01*
X172393229Y-127164868D01*
X172393231Y-127164868D01*
X172459552Y-127120553D01*
X172503867Y-127054232D01*
X172503867Y-127054230D01*
X172503868Y-127054230D01*
X172515499Y-126995753D01*
X172515500Y-126995751D01*
X172515500Y-125734250D01*
X172515499Y-125734248D01*
X172503868Y-125675771D01*
X172503867Y-125675770D01*
X172459552Y-125609448D01*
X172393230Y-125565133D01*
X172393229Y-125565132D01*
X172334752Y-125553501D01*
X172334748Y-125553501D01*
X171073252Y-125553501D01*
X171073247Y-125553501D01*
X171014770Y-125565132D01*
X171014769Y-125565133D01*
X170948447Y-125609448D01*
X170904132Y-125675770D01*
X170904131Y-125675771D01*
X170892500Y-125734248D01*
X170892500Y-126995753D01*
X170904131Y-127054230D01*
X170904132Y-127054231D01*
X170948447Y-127120553D01*
X171014769Y-127164868D01*
X171014770Y-127164869D01*
X171073247Y-127176500D01*
X171073250Y-127176501D01*
X171073252Y-127176501D01*
X171254500Y-127176501D01*
X171321539Y-127196186D01*
X171367294Y-127248990D01*
X171378500Y-127300501D01*
X171378500Y-127491078D01*
X171378264Y-127496485D01*
X171374735Y-127536808D01*
X171385212Y-127575910D01*
X171386383Y-127581190D01*
X171393411Y-127621043D01*
X171395235Y-127626055D01*
X171402197Y-127642861D01*
X171404445Y-127647681D01*
X171404446Y-127647684D01*
X171418452Y-127667687D01*
X171427655Y-127680831D01*
X171430561Y-127685392D01*
X171450806Y-127720455D01*
X171481815Y-127746475D01*
X171485805Y-127750131D01*
X172731868Y-128996195D01*
X172735523Y-129000184D01*
X172761541Y-129031190D01*
X172761543Y-129031191D01*
X172761545Y-129031194D01*
X172796605Y-129051435D01*
X172801159Y-129054337D01*
X172834316Y-129077554D01*
X172834319Y-129077554D01*
X172839176Y-129079820D01*
X172855933Y-129086760D01*
X172860953Y-129088587D01*
X172860955Y-129088588D01*
X172900830Y-129095618D01*
X172906087Y-129096784D01*
X172945193Y-129107263D01*
X172985510Y-129103735D01*
X172990912Y-129103500D01*
X176206812Y-129103500D01*
X176273851Y-129123185D01*
X176319606Y-129175989D01*
X176329550Y-129245147D01*
X176300525Y-129308703D01*
X176294493Y-129315181D01*
X175669493Y-129940181D01*
X175608170Y-129973666D01*
X175581812Y-129976500D01*
X172990913Y-129976500D01*
X172985511Y-129976264D01*
X172978126Y-129975618D01*
X172945192Y-129972736D01*
X172945191Y-129972736D01*
X172906099Y-129983211D01*
X172900819Y-129984382D01*
X172860954Y-129991412D01*
X172855962Y-129993229D01*
X172839117Y-130000206D01*
X172834313Y-130002446D01*
X172801163Y-130025658D01*
X172796602Y-130028564D01*
X172761548Y-130048804D01*
X172761545Y-130048806D01*
X172761543Y-130048807D01*
X172761542Y-130048809D01*
X172735523Y-130079815D01*
X172731869Y-130083803D01*
X171485803Y-131329870D01*
X171481814Y-131333525D01*
X171450805Y-131359545D01*
X171430562Y-131394606D01*
X171427656Y-131399166D01*
X171404446Y-131432313D01*
X171402206Y-131437117D01*
X171395229Y-131453961D01*
X171393410Y-131458959D01*
X171386383Y-131498811D01*
X171385212Y-131504091D01*
X171374735Y-131543191D01*
X171378264Y-131583513D01*
X171378500Y-131588920D01*
X171378500Y-133430500D01*
X171358815Y-133497539D01*
X171306011Y-133543294D01*
X171254500Y-133554500D01*
X171073247Y-133554500D01*
X171014770Y-133566131D01*
X171014769Y-133566132D01*
X170948447Y-133610447D01*
X170904132Y-133676769D01*
X170904131Y-133676770D01*
X170892500Y-133735247D01*
X170892500Y-134996752D01*
X170904131Y-135055229D01*
X170904132Y-135055230D01*
X170948447Y-135121552D01*
X171014769Y-135165867D01*
X171014770Y-135165868D01*
X171073247Y-135177499D01*
X171073250Y-135177500D01*
X171073252Y-135177500D01*
X172334750Y-135177500D01*
X172334751Y-135177499D01*
X172349568Y-135174552D01*
X172393229Y-135165868D01*
X172393229Y-135165867D01*
X172393231Y-135165867D01*
X172459552Y-135121552D01*
X172503867Y-135055231D01*
X172503867Y-135055229D01*
X172503868Y-135055229D01*
X172515499Y-134996752D01*
X172515500Y-134996750D01*
X172515500Y-134366002D01*
X175967365Y-134366002D01*
X175987838Y-134547713D01*
X175987839Y-134547716D01*
X176048237Y-134720326D01*
X176131322Y-134852554D01*
X176145529Y-134875164D01*
X176274836Y-135004471D01*
X176429675Y-135101763D01*
X176602282Y-135162160D01*
X176602283Y-135162160D01*
X176602286Y-135162161D01*
X176783997Y-135182635D01*
X176784000Y-135182635D01*
X176784003Y-135182635D01*
X176965713Y-135162161D01*
X176965714Y-135162160D01*
X176965718Y-135162160D01*
X177138325Y-135101763D01*
X177293164Y-135004471D01*
X177422471Y-134875164D01*
X177519763Y-134720325D01*
X177580160Y-134547718D01*
X177600635Y-134366000D01*
X177600635Y-134365997D01*
X177580161Y-134184286D01*
X177580160Y-134184283D01*
X177578001Y-134178114D01*
X177519763Y-134011675D01*
X177422471Y-133856836D01*
X177293164Y-133727529D01*
X177138326Y-133630237D01*
X176965716Y-133569839D01*
X176965713Y-133569838D01*
X176784003Y-133549365D01*
X176783997Y-133549365D01*
X176602286Y-133569838D01*
X176602283Y-133569839D01*
X176429673Y-133630237D01*
X176274835Y-133727529D01*
X176145529Y-133856835D01*
X176048237Y-134011673D01*
X175987839Y-134184283D01*
X175987838Y-134184286D01*
X175967365Y-134365997D01*
X175967365Y-134366002D01*
X172515500Y-134366002D01*
X172515500Y-133735249D01*
X172515499Y-133735247D01*
X172503868Y-133676770D01*
X172503867Y-133676769D01*
X172459552Y-133610447D01*
X172393230Y-133566132D01*
X172393229Y-133566131D01*
X172334752Y-133554500D01*
X172334748Y-133554500D01*
X172153500Y-133554500D01*
X172086461Y-133534815D01*
X172040706Y-133482011D01*
X172029500Y-133430500D01*
X172029500Y-131826002D01*
X173427365Y-131826002D01*
X173447838Y-132007713D01*
X173447839Y-132007716D01*
X173508237Y-132180326D01*
X173605529Y-132335164D01*
X173734836Y-132464471D01*
X173889675Y-132561763D01*
X174062282Y-132622160D01*
X174062283Y-132622160D01*
X174062286Y-132622161D01*
X174243997Y-132642635D01*
X174244000Y-132642635D01*
X174244003Y-132642635D01*
X174425713Y-132622161D01*
X174425714Y-132622160D01*
X174425718Y-132622160D01*
X174598325Y-132561763D01*
X174753164Y-132464471D01*
X174882471Y-132335164D01*
X174979763Y-132180325D01*
X175040160Y-132007718D01*
X175060635Y-131826000D01*
X175060635Y-131825997D01*
X175040161Y-131644286D01*
X175040160Y-131644283D01*
X175038454Y-131639408D01*
X174979763Y-131471675D01*
X174971770Y-131458955D01*
X174908872Y-131358853D01*
X174882471Y-131316836D01*
X174753164Y-131187529D01*
X174668809Y-131134525D01*
X174598326Y-131090237D01*
X174425716Y-131029839D01*
X174425713Y-131029838D01*
X174244003Y-131009365D01*
X174243997Y-131009365D01*
X174062286Y-131029838D01*
X174062283Y-131029839D01*
X173889673Y-131090237D01*
X173734835Y-131187529D01*
X173605529Y-131316835D01*
X173508237Y-131471673D01*
X173447839Y-131644283D01*
X173447838Y-131644286D01*
X173427365Y-131825997D01*
X173427365Y-131826002D01*
X172029500Y-131826002D01*
X172029500Y-131758188D01*
X172049185Y-131691149D01*
X172065819Y-131670507D01*
X173072508Y-130663819D01*
X173133831Y-130630334D01*
X173160189Y-130627500D01*
X175751078Y-130627500D01*
X175756481Y-130627735D01*
X175796807Y-130631264D01*
X175835940Y-130620777D01*
X175841162Y-130619619D01*
X175881045Y-130612588D01*
X175881050Y-130612584D01*
X175886099Y-130610747D01*
X175902824Y-130603819D01*
X175907681Y-130601554D01*
X175907684Y-130601554D01*
X175940841Y-130578335D01*
X175945390Y-130575438D01*
X175980455Y-130555194D01*
X176006481Y-130524176D01*
X176010122Y-130520202D01*
X180558210Y-125972115D01*
X180562172Y-125968484D01*
X180593194Y-125942455D01*
X180613444Y-125907378D01*
X180616333Y-125902845D01*
X180639553Y-125869684D01*
X180639555Y-125869676D01*
X180641816Y-125864828D01*
X180648754Y-125848079D01*
X180650583Y-125843052D01*
X180650588Y-125843045D01*
X180657622Y-125803147D01*
X180658779Y-125797929D01*
X180669263Y-125758807D01*
X180665735Y-125718489D01*
X180665500Y-125713086D01*
X180665500Y-124582335D01*
X183359500Y-124582335D01*
X183360445Y-124587998D01*
X183400429Y-124827616D01*
X183481169Y-125062802D01*
X183481172Y-125062811D01*
X183584639Y-125254001D01*
X183599526Y-125281509D01*
X183752262Y-125477744D01*
X183888747Y-125603387D01*
X183935217Y-125646166D01*
X184143393Y-125782173D01*
X184371118Y-125882063D01*
X184471164Y-125907398D01*
X184612179Y-125943108D01*
X184612181Y-125943108D01*
X184612186Y-125943109D01*
X184745376Y-125954145D01*
X184797933Y-125958500D01*
X184797935Y-125958500D01*
X184922065Y-125958500D01*
X184922067Y-125958500D01*
X184983284Y-125953427D01*
X185107813Y-125943109D01*
X185107816Y-125943108D01*
X185107821Y-125943108D01*
X185348881Y-125882063D01*
X185576607Y-125782173D01*
X185784785Y-125646164D01*
X185967738Y-125477744D01*
X186120474Y-125281509D01*
X186238828Y-125062810D01*
X186319571Y-124827614D01*
X186360500Y-124582335D01*
X186360500Y-124333665D01*
X186319571Y-124088386D01*
X186238828Y-123853190D01*
X186120474Y-123634491D01*
X185967738Y-123438256D01*
X185784785Y-123269836D01*
X185784782Y-123269833D01*
X185576606Y-123133826D01*
X185348881Y-123033936D01*
X185107824Y-122972892D01*
X185107813Y-122972890D01*
X184942548Y-122959197D01*
X184922067Y-122957500D01*
X184797933Y-122957500D01*
X184778521Y-122959108D01*
X184612186Y-122972890D01*
X184612175Y-122972892D01*
X184371118Y-123033936D01*
X184143393Y-123133826D01*
X183935217Y-123269833D01*
X183752261Y-123438257D01*
X183599524Y-123634493D01*
X183481172Y-123853188D01*
X183481169Y-123853197D01*
X183400429Y-124088383D01*
X183372574Y-124255317D01*
X183359500Y-124333665D01*
X183359500Y-124582335D01*
X180665500Y-124582335D01*
X180665500Y-121344187D01*
X180685185Y-121277148D01*
X180701814Y-121256511D01*
X183352204Y-118606120D01*
X183356166Y-118602489D01*
X183387194Y-118576455D01*
X183407438Y-118541390D01*
X183410335Y-118536841D01*
X183433554Y-118503684D01*
X183433554Y-118503681D01*
X183435819Y-118498824D01*
X183442747Y-118482099D01*
X183444584Y-118477050D01*
X183444588Y-118477045D01*
X183451619Y-118437162D01*
X183452777Y-118431940D01*
X183463264Y-118392807D01*
X183459735Y-118352478D01*
X183459500Y-118347075D01*
X183459500Y-113046912D01*
X183459736Y-113041506D01*
X183461333Y-113023259D01*
X183463263Y-113001193D01*
X183463262Y-113001192D01*
X183463263Y-113001191D01*
X183452785Y-112962090D01*
X183451618Y-112956830D01*
X183444588Y-112916955D01*
X183444587Y-112916953D01*
X183442760Y-112911933D01*
X183435820Y-112895176D01*
X183433554Y-112890319D01*
X183433554Y-112890316D01*
X183410339Y-112857162D01*
X183407433Y-112852599D01*
X183387196Y-112817548D01*
X183387195Y-112817547D01*
X183387194Y-112817545D01*
X183356177Y-112791518D01*
X183352193Y-112787867D01*
X180351074Y-109786748D01*
X177026119Y-106461793D01*
X177022474Y-106457814D01*
X176996456Y-106426807D01*
X176996455Y-106426806D01*
X176985058Y-106420226D01*
X176961392Y-106406561D01*
X176956831Y-106403655D01*
X176943687Y-106394452D01*
X176923684Y-106380446D01*
X176923681Y-106380445D01*
X176918861Y-106378197D01*
X176902055Y-106371235D01*
X176897043Y-106369411D01*
X176857190Y-106362383D01*
X176851910Y-106361212D01*
X176812808Y-106350735D01*
X176777892Y-106353790D01*
X176772481Y-106354264D01*
X176767078Y-106354500D01*
X174430188Y-106354500D01*
X174363149Y-106334815D01*
X174342507Y-106318181D01*
X172573819Y-104549493D01*
X172540334Y-104488170D01*
X172537500Y-104461812D01*
X172537500Y-103289915D01*
X172557185Y-103222876D01*
X172609989Y-103177121D01*
X172679147Y-103167177D01*
X172742703Y-103196202D01*
X172759876Y-103214429D01*
X172820547Y-103293499D01*
X172824218Y-103298282D01*
X172949659Y-103394536D01*
X173095738Y-103455044D01*
X173174119Y-103465363D01*
X173252499Y-103475682D01*
X173252500Y-103475682D01*
X173252501Y-103475682D01*
X173304754Y-103468802D01*
X173409262Y-103455044D01*
X173555341Y-103394536D01*
X173680782Y-103298282D01*
X173777036Y-103172841D01*
X173837544Y-103026762D01*
X173858182Y-102870001D01*
X174646818Y-102870001D01*
X174667455Y-103026760D01*
X174667456Y-103026762D01*
X174726601Y-103169552D01*
X174727964Y-103172841D01*
X174824218Y-103298282D01*
X174949659Y-103394536D01*
X175095738Y-103455044D01*
X175174119Y-103465363D01*
X175252499Y-103475682D01*
X175252500Y-103475682D01*
X175252501Y-103475682D01*
X175304754Y-103468802D01*
X175409262Y-103455044D01*
X175555341Y-103394536D01*
X175680782Y-103298282D01*
X175777036Y-103172841D01*
X175837544Y-103026762D01*
X175858182Y-102870000D01*
X175849253Y-102802180D01*
X175860018Y-102733145D01*
X175884508Y-102698316D01*
X181574210Y-97008615D01*
X181578172Y-97004984D01*
X181609194Y-96978955D01*
X181629444Y-96943878D01*
X181632333Y-96939345D01*
X181655553Y-96906184D01*
X181655555Y-96906176D01*
X181657816Y-96901328D01*
X181664754Y-96884579D01*
X181666583Y-96879552D01*
X181666588Y-96879545D01*
X181673622Y-96839647D01*
X181674779Y-96834429D01*
X181685263Y-96795307D01*
X181681735Y-96754989D01*
X181681500Y-96749586D01*
X181681500Y-92582334D01*
X183359500Y-92582334D01*
X183400429Y-92827616D01*
X183481169Y-93062802D01*
X183481172Y-93062811D01*
X183599524Y-93281506D01*
X183599526Y-93281509D01*
X183752262Y-93477744D01*
X183853030Y-93570507D01*
X183935217Y-93646166D01*
X184143393Y-93782173D01*
X184371118Y-93882063D01*
X184612175Y-93943107D01*
X184612179Y-93943108D01*
X184612181Y-93943108D01*
X184612186Y-93943109D01*
X184745376Y-93954145D01*
X184797933Y-93958500D01*
X184797935Y-93958500D01*
X184922065Y-93958500D01*
X184922067Y-93958500D01*
X184983284Y-93953427D01*
X185107813Y-93943109D01*
X185107816Y-93943108D01*
X185107821Y-93943108D01*
X185348881Y-93882063D01*
X185576607Y-93782173D01*
X185784785Y-93646164D01*
X185967738Y-93477744D01*
X186120474Y-93281509D01*
X186238828Y-93062810D01*
X186319571Y-92827614D01*
X186360500Y-92582335D01*
X186360500Y-92333665D01*
X186319571Y-92088386D01*
X186238828Y-91853190D01*
X186120474Y-91634491D01*
X185967738Y-91438256D01*
X185784785Y-91269836D01*
X185784782Y-91269833D01*
X185576606Y-91133826D01*
X185348881Y-91033936D01*
X185107824Y-90972892D01*
X185107813Y-90972890D01*
X184942548Y-90959197D01*
X184922067Y-90957500D01*
X184797933Y-90957500D01*
X184778521Y-90959108D01*
X184612186Y-90972890D01*
X184612175Y-90972892D01*
X184371118Y-91033936D01*
X184143393Y-91133826D01*
X183935217Y-91269833D01*
X183752261Y-91438257D01*
X183599524Y-91634493D01*
X183481172Y-91853188D01*
X183481169Y-91853197D01*
X183400429Y-92088383D01*
X183359500Y-92333665D01*
X183359500Y-92582334D01*
X181681500Y-92582334D01*
X181681500Y-88446500D01*
X181701185Y-88379461D01*
X181753989Y-88333706D01*
X181805500Y-88322500D01*
X182375750Y-88322500D01*
X182375751Y-88322499D01*
X182390568Y-88319552D01*
X182434229Y-88310868D01*
X182434229Y-88310867D01*
X182434231Y-88310867D01*
X182500552Y-88266552D01*
X182544867Y-88200231D01*
X182544867Y-88200229D01*
X182544868Y-88200229D01*
X182556499Y-88141752D01*
X182556500Y-88141750D01*
X182556500Y-86102249D01*
X182556499Y-86102247D01*
X182544868Y-86043770D01*
X182544867Y-86043769D01*
X182500552Y-85977447D01*
X182434230Y-85933132D01*
X182434229Y-85933131D01*
X182375752Y-85921500D01*
X182375748Y-85921500D01*
X180336252Y-85921500D01*
X180336247Y-85921500D01*
X180277770Y-85933131D01*
X180277769Y-85933132D01*
X180211447Y-85977447D01*
X180167132Y-86043769D01*
X180167131Y-86043770D01*
X180155500Y-86102247D01*
X180155500Y-88141752D01*
X180167131Y-88200229D01*
X180167132Y-88200230D01*
X180211447Y-88266552D01*
X180277769Y-88310867D01*
X180277770Y-88310868D01*
X180336247Y-88322499D01*
X180336250Y-88322500D01*
X180336252Y-88322500D01*
X180906500Y-88322500D01*
X180973539Y-88342185D01*
X181019294Y-88394989D01*
X181030500Y-88446500D01*
X181030500Y-96580311D01*
X181010815Y-96647350D01*
X180994181Y-96667992D01*
X175424184Y-102237988D01*
X175362861Y-102271473D01*
X175320318Y-102273246D01*
X175252501Y-102264318D01*
X175252499Y-102264318D01*
X175095739Y-102284955D01*
X175095737Y-102284956D01*
X174949660Y-102345463D01*
X174824218Y-102441718D01*
X174727963Y-102567160D01*
X174667456Y-102713237D01*
X174667455Y-102713239D01*
X174646818Y-102869998D01*
X174646818Y-102870001D01*
X173858182Y-102870001D01*
X173858182Y-102870000D01*
X173837544Y-102713238D01*
X173777036Y-102567159D01*
X173680782Y-102441718D01*
X173680780Y-102441716D01*
X173680779Y-102441715D01*
X173626512Y-102400074D01*
X173585310Y-102343646D01*
X173578000Y-102301699D01*
X173578000Y-96307409D01*
X173578236Y-96302002D01*
X173581763Y-96261691D01*
X173571286Y-96222592D01*
X173570117Y-96217324D01*
X173563088Y-96177455D01*
X173563087Y-96177454D01*
X173563087Y-96177451D01*
X173561265Y-96172447D01*
X173554315Y-96155668D01*
X173552054Y-96150819D01*
X173552053Y-96150818D01*
X173552053Y-96150816D01*
X173528833Y-96117654D01*
X173525935Y-96113104D01*
X173522345Y-96106887D01*
X173505694Y-96078045D01*
X173505691Y-96078042D01*
X173505690Y-96078041D01*
X173488689Y-96063776D01*
X173474682Y-96052022D01*
X173470710Y-96048383D01*
X172319819Y-94897492D01*
X172286334Y-94836169D01*
X172283500Y-94809811D01*
X172283500Y-88027170D01*
X172303185Y-87960131D01*
X172355989Y-87914376D01*
X172425147Y-87904432D01*
X172488703Y-87933457D01*
X172511309Y-87959349D01*
X172532564Y-87991882D01*
X173272923Y-87251523D01*
X173296507Y-87331844D01*
X173374239Y-87452798D01*
X173482900Y-87546952D01*
X173613685Y-87606680D01*
X173623466Y-87608086D01*
X172885942Y-88345609D01*
X172932768Y-88382055D01*
X172932770Y-88382056D01*
X173151385Y-88500364D01*
X173151396Y-88500369D01*
X173386506Y-88581083D01*
X173631707Y-88622000D01*
X173880293Y-88622000D01*
X174125493Y-88581083D01*
X174360603Y-88500369D01*
X174360614Y-88500364D01*
X174579228Y-88382057D01*
X174579231Y-88382055D01*
X174626056Y-88345609D01*
X173888533Y-87608086D01*
X173898315Y-87606680D01*
X174029100Y-87546952D01*
X174137761Y-87452798D01*
X174215493Y-87331844D01*
X174239076Y-87251524D01*
X174979434Y-87991882D01*
X175079731Y-87838369D01*
X175179587Y-87610717D01*
X175240612Y-87369738D01*
X175240614Y-87369729D01*
X175261141Y-87122005D01*
X175261141Y-87121994D01*
X175240614Y-86874270D01*
X175240612Y-86874261D01*
X175179587Y-86633282D01*
X175079731Y-86405630D01*
X174979434Y-86252116D01*
X174239076Y-86992475D01*
X174215493Y-86912156D01*
X174137761Y-86791202D01*
X174029100Y-86697048D01*
X173898315Y-86637320D01*
X173888534Y-86635913D01*
X174626057Y-85898390D01*
X174626056Y-85898389D01*
X174579229Y-85861943D01*
X174360614Y-85743635D01*
X174360603Y-85743630D01*
X174125493Y-85662916D01*
X173880293Y-85622000D01*
X173631707Y-85622000D01*
X173386506Y-85662916D01*
X173151396Y-85743630D01*
X173151390Y-85743632D01*
X172932761Y-85861949D01*
X172885942Y-85898388D01*
X172885942Y-85898390D01*
X173623466Y-86635913D01*
X173613685Y-86637320D01*
X173482900Y-86697048D01*
X173374239Y-86791202D01*
X173296507Y-86912156D01*
X173272923Y-86992475D01*
X172532564Y-86252116D01*
X172511309Y-86284650D01*
X172458162Y-86330007D01*
X172388931Y-86339431D01*
X172325595Y-86309929D01*
X172288264Y-86250869D01*
X172283500Y-86216829D01*
X172283500Y-76342920D01*
X172283736Y-76337513D01*
X172287264Y-76297193D01*
X172284731Y-76287740D01*
X172276782Y-76258076D01*
X172275616Y-76252818D01*
X172268588Y-76212955D01*
X172268586Y-76212952D01*
X172268586Y-76212950D01*
X172266760Y-76207933D01*
X172259820Y-76191176D01*
X172257554Y-76186319D01*
X172257554Y-76186316D01*
X172246311Y-76170260D01*
X172234340Y-76153163D01*
X172231433Y-76148599D01*
X172211196Y-76113548D01*
X172211195Y-76113547D01*
X172211194Y-76113545D01*
X172180177Y-76087518D01*
X172176193Y-76083867D01*
X171828011Y-75735685D01*
X171794526Y-75674362D01*
X171792753Y-75631818D01*
X171801682Y-75564000D01*
X171801682Y-75563998D01*
X171781044Y-75407239D01*
X171781044Y-75407238D01*
X171720536Y-75261159D01*
X171624282Y-75135718D01*
X171498841Y-75039464D01*
X171486410Y-75034315D01*
X171352762Y-74978956D01*
X171352760Y-74978955D01*
X171196001Y-74958318D01*
X171195999Y-74958318D01*
X171039239Y-74978955D01*
X171039237Y-74978956D01*
X170893160Y-75039463D01*
X170767718Y-75135718D01*
X170671463Y-75261160D01*
X170610956Y-75407237D01*
X170610955Y-75407239D01*
X170590318Y-75563998D01*
X170590318Y-75564001D01*
X170610955Y-75720760D01*
X170610956Y-75720762D01*
X170671464Y-75866841D01*
X170767718Y-75992282D01*
X170893159Y-76088536D01*
X171039238Y-76149044D01*
X171111246Y-76158524D01*
X171195999Y-76169682D01*
X171196000Y-76169682D01*
X171196001Y-76169682D01*
X171231708Y-76164980D01*
X171263818Y-76160753D01*
X171332853Y-76171518D01*
X171367685Y-76196011D01*
X171596181Y-76424507D01*
X171629666Y-76485830D01*
X171632500Y-76512188D01*
X171632500Y-94979078D01*
X171632264Y-94984485D01*
X171628735Y-95024808D01*
X171639212Y-95063910D01*
X171640383Y-95069190D01*
X171647411Y-95109043D01*
X171649235Y-95114055D01*
X171656197Y-95130861D01*
X171658445Y-95135681D01*
X171658446Y-95135684D01*
X171672452Y-95155687D01*
X171681655Y-95168831D01*
X171684561Y-95173392D01*
X171704806Y-95208455D01*
X171735815Y-95234475D01*
X171739805Y-95238131D01*
X172890681Y-96389007D01*
X172924166Y-96450330D01*
X172927000Y-96476688D01*
X172927000Y-102301699D01*
X172907315Y-102368738D01*
X172878488Y-102400074D01*
X172824220Y-102441715D01*
X172809485Y-102460918D01*
X172773220Y-102508181D01*
X172759876Y-102525571D01*
X172703448Y-102566773D01*
X172633702Y-102570928D01*
X172572781Y-102536715D01*
X172540029Y-102474998D01*
X172537500Y-102450084D01*
X172537500Y-101870921D01*
X172537736Y-101865514D01*
X172541264Y-101825194D01*
X172530778Y-101786065D01*
X172529619Y-101780833D01*
X172522588Y-101740955D01*
X172522587Y-101740954D01*
X172522587Y-101740951D01*
X172520764Y-101735942D01*
X172513820Y-101719176D01*
X172511554Y-101714319D01*
X172511554Y-101714316D01*
X172488339Y-101681162D01*
X172485433Y-101676599D01*
X172465196Y-101641548D01*
X172465195Y-101641547D01*
X172465194Y-101641545D01*
X172434177Y-101615518D01*
X172430193Y-101611867D01*
X167874819Y-97056493D01*
X167841334Y-96995170D01*
X167838500Y-96968812D01*
X167838500Y-91754298D01*
X167858185Y-91687259D01*
X167887010Y-91655925D01*
X167941282Y-91614282D01*
X168037536Y-91488841D01*
X168098044Y-91342762D01*
X168118682Y-91186000D01*
X168098044Y-91029238D01*
X168037536Y-90883159D01*
X167941282Y-90757718D01*
X167815841Y-90661464D01*
X167669762Y-90600956D01*
X167669760Y-90600955D01*
X167513001Y-90580318D01*
X167512999Y-90580318D01*
X167356239Y-90600955D01*
X167356237Y-90600956D01*
X167210160Y-90661463D01*
X167084718Y-90757718D01*
X166988458Y-90883166D01*
X166985387Y-90888487D01*
X166934821Y-90936703D01*
X166866214Y-90949927D01*
X166801349Y-90923959D01*
X166770613Y-90888487D01*
X166767541Y-90883166D01*
X166767536Y-90883159D01*
X166671282Y-90757718D01*
X166545841Y-90661464D01*
X166399762Y-90600956D01*
X166399760Y-90600955D01*
X166243001Y-90580318D01*
X166242999Y-90580318D01*
X166086239Y-90600955D01*
X166086237Y-90600956D01*
X165940160Y-90661463D01*
X165814718Y-90757718D01*
X165718463Y-90883160D01*
X165657956Y-91029237D01*
X165657955Y-91029239D01*
X165637318Y-91185998D01*
X165637318Y-91186001D01*
X165657955Y-91342760D01*
X165657956Y-91342762D01*
X165718464Y-91488841D01*
X165814718Y-91614282D01*
X165868987Y-91655924D01*
X165910189Y-91712349D01*
X165917500Y-91754298D01*
X165917500Y-97646078D01*
X165917264Y-97651485D01*
X165913735Y-97691808D01*
X165924212Y-97730910D01*
X165925383Y-97736190D01*
X165932411Y-97776043D01*
X165934235Y-97781055D01*
X165941197Y-97797861D01*
X165943445Y-97802681D01*
X165943446Y-97802684D01*
X165957452Y-97822687D01*
X165966655Y-97835831D01*
X165969561Y-97840392D01*
X165989806Y-97875455D01*
X166020815Y-97901475D01*
X166024805Y-97905131D01*
X169818181Y-101698507D01*
X169851666Y-101759830D01*
X169854500Y-101786188D01*
X169854500Y-102323569D01*
X169834815Y-102390608D01*
X169782011Y-102436363D01*
X169712853Y-102446307D01*
X169655014Y-102421945D01*
X169555342Y-102345464D01*
X169409262Y-102284956D01*
X169409260Y-102284955D01*
X169252501Y-102264318D01*
X169252499Y-102264318D01*
X169095739Y-102284955D01*
X169095737Y-102284956D01*
X168949660Y-102345463D01*
X168824216Y-102441719D01*
X168782577Y-102495986D01*
X168726149Y-102537189D01*
X168684201Y-102544500D01*
X167064189Y-102544500D01*
X166997150Y-102524815D01*
X166976508Y-102508181D01*
X162794819Y-98326492D01*
X162761334Y-98265169D01*
X162758500Y-98238811D01*
X162758500Y-94802298D01*
X162778185Y-94735259D01*
X162807010Y-94703925D01*
X162861282Y-94662282D01*
X162957536Y-94536841D01*
X163018044Y-94390762D01*
X163038682Y-94234000D01*
X163018044Y-94077238D01*
X162957536Y-93931159D01*
X162861282Y-93805718D01*
X162735841Y-93709464D01*
X162678817Y-93685844D01*
X162589762Y-93648956D01*
X162589760Y-93648955D01*
X162433001Y-93628318D01*
X162432999Y-93628318D01*
X162276239Y-93648955D01*
X162276237Y-93648956D01*
X162130160Y-93709463D01*
X162004718Y-93805718D01*
X161908463Y-93931160D01*
X161854061Y-94062499D01*
X161810220Y-94116902D01*
X161743926Y-94138967D01*
X161676226Y-94121688D01*
X161628616Y-94070550D01*
X161615500Y-94015046D01*
X161615500Y-93658188D01*
X161635185Y-93591149D01*
X161651819Y-93570507D01*
X164854774Y-90367552D01*
X168112210Y-87110115D01*
X168116172Y-87106484D01*
X168147194Y-87080455D01*
X168167444Y-87045379D01*
X168170328Y-87040852D01*
X168193554Y-87007684D01*
X168193554Y-87007681D01*
X168195819Y-87002824D01*
X168202747Y-86986099D01*
X168204587Y-86981046D01*
X168204588Y-86981045D01*
X168211621Y-86941150D01*
X168212777Y-86935937D01*
X168223263Y-86896807D01*
X168219735Y-86856489D01*
X168219500Y-86851086D01*
X168219500Y-81721298D01*
X168239185Y-81654259D01*
X168268010Y-81622925D01*
X168322282Y-81581282D01*
X168418536Y-81455841D01*
X168479044Y-81309762D01*
X168499682Y-81153000D01*
X168491551Y-81091242D01*
X168479044Y-80996239D01*
X168479044Y-80996238D01*
X168418536Y-80850159D01*
X168322282Y-80724718D01*
X168196841Y-80628464D01*
X168177737Y-80620551D01*
X168050762Y-80567956D01*
X168050760Y-80567955D01*
X167894001Y-80547318D01*
X167893999Y-80547318D01*
X167737239Y-80567955D01*
X167737237Y-80567956D01*
X167591160Y-80628463D01*
X167465718Y-80724718D01*
X167369463Y-80850160D01*
X167308956Y-80996237D01*
X167308955Y-80996239D01*
X167288318Y-81152998D01*
X167288318Y-81153001D01*
X167308955Y-81309760D01*
X167308956Y-81309762D01*
X167369464Y-81455841D01*
X167465718Y-81581282D01*
X167519987Y-81622924D01*
X167561189Y-81679349D01*
X167568500Y-81721298D01*
X167568500Y-86681811D01*
X167548815Y-86748850D01*
X167532181Y-86769492D01*
X164152252Y-90149420D01*
X164090929Y-90182905D01*
X164021237Y-90177921D01*
X163965304Y-90136049D01*
X163940887Y-90070585D01*
X163955739Y-90002312D01*
X163957158Y-89999784D01*
X163976440Y-89966385D01*
X163979328Y-89961852D01*
X164002554Y-89928684D01*
X164002555Y-89928679D01*
X164004819Y-89923824D01*
X164011747Y-89907099D01*
X164013584Y-89902050D01*
X164013588Y-89902045D01*
X164020619Y-89862162D01*
X164021777Y-89856940D01*
X164032264Y-89817807D01*
X164028735Y-89777478D01*
X164028500Y-89772075D01*
X164028500Y-89214298D01*
X164048185Y-89147259D01*
X164077010Y-89115925D01*
X164131282Y-89074282D01*
X164227536Y-88948841D01*
X164288044Y-88802762D01*
X164308682Y-88646000D01*
X164305522Y-88622000D01*
X164288044Y-88489239D01*
X164288044Y-88489238D01*
X164227536Y-88343159D01*
X164131282Y-88217718D01*
X164005841Y-88121464D01*
X163992420Y-88115905D01*
X163859762Y-88060956D01*
X163859760Y-88060955D01*
X163703001Y-88040318D01*
X163702999Y-88040318D01*
X163546239Y-88060955D01*
X163546237Y-88060956D01*
X163400160Y-88121463D01*
X163274718Y-88217718D01*
X163178463Y-88343160D01*
X163117956Y-88489237D01*
X163117955Y-88489239D01*
X163097318Y-88645998D01*
X163097318Y-88646001D01*
X163117955Y-88802760D01*
X163117956Y-88802762D01*
X163172094Y-88933464D01*
X163178464Y-88948841D01*
X163274718Y-89074282D01*
X163328987Y-89115924D01*
X163370189Y-89172349D01*
X163377500Y-89214298D01*
X163377500Y-89602811D01*
X163357815Y-89669850D01*
X163341181Y-89690492D01*
X155873684Y-97157988D01*
X155812361Y-97191473D01*
X155769818Y-97193246D01*
X155702001Y-97184318D01*
X155701999Y-97184318D01*
X155545239Y-97204955D01*
X155545237Y-97204956D01*
X155399160Y-97265463D01*
X155273718Y-97361718D01*
X155177463Y-97487160D01*
X155116956Y-97633237D01*
X155116955Y-97633239D01*
X155096318Y-97789998D01*
X155096318Y-97790001D01*
X155116955Y-97946760D01*
X155116956Y-97946762D01*
X155177464Y-98092841D01*
X155273718Y-98218282D01*
X155399159Y-98314536D01*
X155545238Y-98375044D01*
X155623619Y-98385363D01*
X155701999Y-98395682D01*
X155702000Y-98395682D01*
X155702001Y-98395682D01*
X155754254Y-98388802D01*
X155858762Y-98375044D01*
X156004841Y-98314536D01*
X156130282Y-98218282D01*
X156226536Y-98092841D01*
X156287044Y-97946762D01*
X156307682Y-97790000D01*
X156305844Y-97776043D01*
X156298753Y-97722180D01*
X156309518Y-97653145D01*
X156334008Y-97618316D01*
X160840752Y-93111572D01*
X160902073Y-93078089D01*
X160971765Y-93083073D01*
X161027698Y-93124945D01*
X161052115Y-93190409D01*
X161037263Y-93258682D01*
X161035816Y-93261258D01*
X161016562Y-93294605D01*
X161013656Y-93299166D01*
X160990446Y-93332313D01*
X160988206Y-93337117D01*
X160981229Y-93353961D01*
X160979410Y-93358959D01*
X160972383Y-93398811D01*
X160971212Y-93404091D01*
X160960735Y-93443191D01*
X160964264Y-93483513D01*
X160964500Y-93488920D01*
X160964500Y-97846155D01*
X160944815Y-97913194D01*
X160892011Y-97958949D01*
X160822853Y-97968893D01*
X160759297Y-97939868D01*
X160742127Y-97921645D01*
X160702282Y-97869718D01*
X160576841Y-97773464D01*
X160430762Y-97712956D01*
X160430760Y-97712955D01*
X160274001Y-97692318D01*
X160273999Y-97692318D01*
X160117239Y-97712955D01*
X160117237Y-97712956D01*
X159971160Y-97773463D01*
X159845718Y-97869718D01*
X159749463Y-97995160D01*
X159688956Y-98141237D01*
X159688955Y-98141239D01*
X159668318Y-98297998D01*
X159668318Y-98298001D01*
X159677246Y-98365818D01*
X159666480Y-98434853D01*
X159641988Y-98469684D01*
X158651493Y-99460181D01*
X158590170Y-99493666D01*
X158563812Y-99496500D01*
X148352922Y-99496500D01*
X148347518Y-99496264D01*
X148342107Y-99495790D01*
X148307192Y-99492735D01*
X148307191Y-99492735D01*
X148268091Y-99503212D01*
X148262811Y-99504383D01*
X148222959Y-99511410D01*
X148217961Y-99513229D01*
X148201117Y-99520206D01*
X148196313Y-99522446D01*
X148163166Y-99545656D01*
X148158606Y-99548562D01*
X148123548Y-99568804D01*
X148123540Y-99568810D01*
X148097523Y-99599815D01*
X148093869Y-99603804D01*
X132877803Y-114819870D01*
X132873814Y-114823525D01*
X132842805Y-114849545D01*
X132822562Y-114884606D01*
X132819656Y-114889166D01*
X132796446Y-114922313D01*
X132794206Y-114927117D01*
X132787229Y-114943961D01*
X132785410Y-114948959D01*
X132778383Y-114988811D01*
X132777212Y-114994091D01*
X132766735Y-115033191D01*
X132770264Y-115073513D01*
X132770500Y-115078920D01*
X132770500Y-131301078D01*
X132770264Y-131306485D01*
X132766735Y-131346808D01*
X115449457Y-131346808D01*
X112035883Y-125843046D01*
X111905623Y-125633026D01*
X111887000Y-125567668D01*
X111887000Y-124582335D01*
X113359500Y-124582335D01*
X113360445Y-124587998D01*
X113400429Y-124827616D01*
X113481169Y-125062802D01*
X113481172Y-125062811D01*
X113584639Y-125254001D01*
X113599526Y-125281509D01*
X113752262Y-125477744D01*
X113888747Y-125603387D01*
X113935217Y-125646166D01*
X114143393Y-125782173D01*
X114371118Y-125882063D01*
X114471164Y-125907398D01*
X114612179Y-125943108D01*
X114612181Y-125943108D01*
X114612186Y-125943109D01*
X114745376Y-125954145D01*
X114797933Y-125958500D01*
X114797935Y-125958500D01*
X114922065Y-125958500D01*
X114922067Y-125958500D01*
X114983284Y-125953427D01*
X115107813Y-125943109D01*
X115107816Y-125943108D01*
X115107821Y-125943108D01*
X115348881Y-125882063D01*
X115576607Y-125782173D01*
X115784785Y-125646164D01*
X115967738Y-125477744D01*
X116120474Y-125281509D01*
X116238828Y-125062810D01*
X116319571Y-124827614D01*
X116360500Y-124582335D01*
X116360500Y-124333665D01*
X116319571Y-124088386D01*
X116238828Y-123853190D01*
X116120474Y-123634491D01*
X116054323Y-123549500D01*
X118960341Y-123549500D01*
X118980936Y-123784903D01*
X118980938Y-123784913D01*
X119042094Y-124013155D01*
X119042096Y-124013159D01*
X119042097Y-124013163D01*
X119119580Y-124179325D01*
X119141965Y-124227330D01*
X119141967Y-124227334D01*
X119250281Y-124382021D01*
X119277505Y-124420901D01*
X119444599Y-124587995D01*
X119507319Y-124631912D01*
X119638165Y-124723532D01*
X119638167Y-124723533D01*
X119638170Y-124723535D01*
X119852337Y-124823403D01*
X120080592Y-124884563D01*
X120268918Y-124901039D01*
X120315999Y-124905159D01*
X120316000Y-124905159D01*
X120316001Y-124905159D01*
X120355234Y-124901726D01*
X120551408Y-124884563D01*
X120779663Y-124823403D01*
X120993830Y-124723535D01*
X121187401Y-124587995D01*
X121354495Y-124420901D01*
X121490035Y-124227330D01*
X121589903Y-124013163D01*
X121651063Y-123784908D01*
X121671659Y-123549500D01*
X121651063Y-123314092D01*
X121589903Y-123085837D01*
X121490035Y-122871671D01*
X121449751Y-122814138D01*
X121354494Y-122678097D01*
X121187402Y-122511006D01*
X121187395Y-122511001D01*
X121182706Y-122507718D01*
X121124673Y-122467082D01*
X120993834Y-122375467D01*
X120993830Y-122375465D01*
X120941268Y-122350955D01*
X120779663Y-122275597D01*
X120779659Y-122275596D01*
X120779655Y-122275594D01*
X120551413Y-122214438D01*
X120551403Y-122214436D01*
X120316001Y-122193841D01*
X120315999Y-122193841D01*
X120080596Y-122214436D01*
X120080586Y-122214438D01*
X119852344Y-122275594D01*
X119852335Y-122275598D01*
X119638171Y-122375464D01*
X119638169Y-122375465D01*
X119444597Y-122511005D01*
X119277505Y-122678097D01*
X119141965Y-122871669D01*
X119141964Y-122871671D01*
X119042098Y-123085835D01*
X119042094Y-123085844D01*
X118980938Y-123314086D01*
X118980936Y-123314096D01*
X118960341Y-123549499D01*
X118960341Y-123549500D01*
X116054323Y-123549500D01*
X115967738Y-123438256D01*
X115784785Y-123269836D01*
X115784782Y-123269833D01*
X115576606Y-123133826D01*
X115348881Y-123033936D01*
X115107824Y-122972892D01*
X115107813Y-122972890D01*
X114942548Y-122959197D01*
X114922067Y-122957500D01*
X114797933Y-122957500D01*
X114778521Y-122959108D01*
X114612186Y-122972890D01*
X114612175Y-122972892D01*
X114371118Y-123033936D01*
X114143393Y-123133826D01*
X113935217Y-123269833D01*
X113752261Y-123438257D01*
X113599524Y-123634493D01*
X113481172Y-123853188D01*
X113481169Y-123853197D01*
X113400429Y-124088383D01*
X113372574Y-124255317D01*
X113359500Y-124333665D01*
X113359500Y-124582335D01*
X111887000Y-124582335D01*
X111887000Y-95943000D01*
X145294357Y-95943000D01*
X145314884Y-96164535D01*
X145314885Y-96164537D01*
X145375769Y-96378523D01*
X145375775Y-96378538D01*
X145474938Y-96577683D01*
X145474943Y-96577691D01*
X145609020Y-96755238D01*
X145773437Y-96905123D01*
X145773439Y-96905125D01*
X145962595Y-97022245D01*
X145962596Y-97022245D01*
X145962599Y-97022247D01*
X146170060Y-97102618D01*
X146388757Y-97143500D01*
X146388759Y-97143500D01*
X146611241Y-97143500D01*
X146611243Y-97143500D01*
X146829940Y-97102618D01*
X147037401Y-97022247D01*
X147226562Y-96905124D01*
X147390981Y-96755236D01*
X147525058Y-96577689D01*
X147624229Y-96378528D01*
X147685115Y-96164536D01*
X147705643Y-95943000D01*
X152014357Y-95943000D01*
X152034884Y-96164535D01*
X152034885Y-96164537D01*
X152095769Y-96378523D01*
X152095775Y-96378538D01*
X152194938Y-96577683D01*
X152194943Y-96577691D01*
X152329020Y-96755238D01*
X152493437Y-96905123D01*
X152493439Y-96905125D01*
X152682595Y-97022245D01*
X152682596Y-97022245D01*
X152682599Y-97022247D01*
X152890060Y-97102618D01*
X153108757Y-97143500D01*
X153108759Y-97143500D01*
X153331241Y-97143500D01*
X153331243Y-97143500D01*
X153549940Y-97102618D01*
X153757401Y-97022247D01*
X153946562Y-96905124D01*
X154110981Y-96755236D01*
X154245058Y-96577689D01*
X154344229Y-96378528D01*
X154405115Y-96164536D01*
X154425643Y-95943000D01*
X154405115Y-95721464D01*
X154344229Y-95507472D01*
X154344224Y-95507461D01*
X154245061Y-95308316D01*
X154245056Y-95308308D01*
X154110979Y-95130761D01*
X153946562Y-94980876D01*
X153946560Y-94980874D01*
X153757404Y-94863754D01*
X153757398Y-94863752D01*
X153750741Y-94861173D01*
X153549940Y-94783382D01*
X153331243Y-94742500D01*
X153108757Y-94742500D01*
X152890060Y-94783382D01*
X152776607Y-94827334D01*
X152682601Y-94863752D01*
X152682595Y-94863754D01*
X152493439Y-94980874D01*
X152493437Y-94980876D01*
X152329020Y-95130761D01*
X152194943Y-95308308D01*
X152194938Y-95308316D01*
X152095775Y-95507461D01*
X152095769Y-95507476D01*
X152034885Y-95721462D01*
X152034884Y-95721464D01*
X152014357Y-95942999D01*
X152014357Y-95943000D01*
X147705643Y-95943000D01*
X147685115Y-95721464D01*
X147624229Y-95507472D01*
X147624224Y-95507461D01*
X147525061Y-95308316D01*
X147525056Y-95308308D01*
X147390979Y-95130761D01*
X147226562Y-94980876D01*
X147226560Y-94980874D01*
X147037404Y-94863754D01*
X147037398Y-94863752D01*
X147030741Y-94861173D01*
X146829940Y-94783382D01*
X146611243Y-94742500D01*
X146388757Y-94742500D01*
X146170060Y-94783382D01*
X146056607Y-94827334D01*
X145962601Y-94863752D01*
X145962595Y-94863754D01*
X145773439Y-94980874D01*
X145773437Y-94980876D01*
X145609020Y-95130761D01*
X145474943Y-95308308D01*
X145474938Y-95308316D01*
X145375775Y-95507461D01*
X145375769Y-95507476D01*
X145314885Y-95721462D01*
X145314884Y-95721464D01*
X145294357Y-95942999D01*
X145294357Y-95943000D01*
X111887000Y-95943000D01*
X111887000Y-94149500D01*
X124160341Y-94149500D01*
X124180936Y-94384903D01*
X124180938Y-94384913D01*
X124242094Y-94613155D01*
X124242096Y-94613159D01*
X124242097Y-94613163D01*
X124301778Y-94741149D01*
X124341965Y-94827330D01*
X124341967Y-94827334D01*
X124367469Y-94863754D01*
X124477505Y-95020901D01*
X124644599Y-95187995D01*
X124673819Y-95208455D01*
X124838165Y-95323532D01*
X124838167Y-95323533D01*
X124838170Y-95323535D01*
X125052337Y-95423403D01*
X125280592Y-95484563D01*
X125457034Y-95500000D01*
X125515999Y-95505159D01*
X125516000Y-95505159D01*
X125516001Y-95505159D01*
X125574966Y-95500000D01*
X125751408Y-95484563D01*
X125979663Y-95423403D01*
X126193830Y-95323535D01*
X126199947Y-95319252D01*
X129315500Y-95319252D01*
X129327131Y-95377729D01*
X129327132Y-95377730D01*
X129371447Y-95444052D01*
X129437769Y-95488367D01*
X129437770Y-95488368D01*
X129496247Y-95499999D01*
X129496250Y-95500000D01*
X129496252Y-95500000D01*
X131535750Y-95500000D01*
X131535751Y-95499999D01*
X131550568Y-95497052D01*
X131594229Y-95488368D01*
X131594229Y-95488367D01*
X131594231Y-95488367D01*
X131660552Y-95444052D01*
X131704867Y-95377731D01*
X131704867Y-95377729D01*
X131704868Y-95377729D01*
X131716499Y-95319252D01*
X131716500Y-95319250D01*
X131716500Y-92979749D01*
X131716499Y-92979747D01*
X131704868Y-92921270D01*
X131704867Y-92921269D01*
X131660552Y-92854947D01*
X131594230Y-92810632D01*
X131594229Y-92810631D01*
X131535752Y-92799000D01*
X131535748Y-92799000D01*
X129496252Y-92799000D01*
X129496247Y-92799000D01*
X129437770Y-92810631D01*
X129437769Y-92810632D01*
X129371447Y-92854947D01*
X129327132Y-92921269D01*
X129327131Y-92921270D01*
X129315500Y-92979747D01*
X129315500Y-95319252D01*
X126199947Y-95319252D01*
X126387401Y-95187995D01*
X126554495Y-95020901D01*
X126690035Y-94827330D01*
X126789903Y-94613163D01*
X126851063Y-94384908D01*
X126871659Y-94149500D01*
X126870737Y-94138967D01*
X126864047Y-94062499D01*
X126851063Y-93914092D01*
X126796234Y-93709464D01*
X126789905Y-93685844D01*
X126789904Y-93685843D01*
X126789903Y-93685837D01*
X126690035Y-93471671D01*
X126670094Y-93443191D01*
X126554494Y-93278097D01*
X126387402Y-93111006D01*
X126387395Y-93111001D01*
X126193834Y-92975467D01*
X126193830Y-92975465D01*
X126193828Y-92975464D01*
X125979663Y-92875597D01*
X125979659Y-92875596D01*
X125979655Y-92875594D01*
X125751413Y-92814438D01*
X125751403Y-92814436D01*
X125516001Y-92793841D01*
X125515999Y-92793841D01*
X125280596Y-92814436D01*
X125280586Y-92814438D01*
X125052344Y-92875594D01*
X125052335Y-92875598D01*
X124838171Y-92975464D01*
X124838169Y-92975465D01*
X124644597Y-93111005D01*
X124477505Y-93278097D01*
X124341965Y-93471669D01*
X124341964Y-93471671D01*
X124242098Y-93685835D01*
X124242094Y-93685844D01*
X124180938Y-93914086D01*
X124180936Y-93914096D01*
X124160341Y-94149499D01*
X124160341Y-94149500D01*
X111887000Y-94149500D01*
X111887000Y-92582334D01*
X113359500Y-92582334D01*
X113400429Y-92827616D01*
X113481169Y-93062802D01*
X113481172Y-93062811D01*
X113599524Y-93281506D01*
X113599526Y-93281509D01*
X113752262Y-93477744D01*
X113853030Y-93570507D01*
X113935217Y-93646166D01*
X114143393Y-93782173D01*
X114371118Y-93882063D01*
X114612175Y-93943107D01*
X114612179Y-93943108D01*
X114612181Y-93943108D01*
X114612186Y-93943109D01*
X114745376Y-93954145D01*
X114797933Y-93958500D01*
X114797935Y-93958500D01*
X114922065Y-93958500D01*
X114922067Y-93958500D01*
X114983284Y-93953427D01*
X115107813Y-93943109D01*
X115107816Y-93943108D01*
X115107821Y-93943108D01*
X115348881Y-93882063D01*
X115576607Y-93782173D01*
X115784785Y-93646164D01*
X115967738Y-93477744D01*
X116120474Y-93281509D01*
X116238828Y-93062810D01*
X116319571Y-92827614D01*
X116360389Y-92583000D01*
X143904357Y-92583000D01*
X143924884Y-92804535D01*
X143924885Y-92804537D01*
X143985769Y-93018523D01*
X143985775Y-93018538D01*
X144084938Y-93217683D01*
X144084943Y-93217691D01*
X144219020Y-93395238D01*
X144383437Y-93545123D01*
X144383439Y-93545125D01*
X144572595Y-93662245D01*
X144572596Y-93662245D01*
X144572599Y-93662247D01*
X144780060Y-93742618D01*
X144998757Y-93783500D01*
X144998759Y-93783500D01*
X145221241Y-93783500D01*
X145221243Y-93783500D01*
X145439940Y-93742618D01*
X145647401Y-93662247D01*
X145836562Y-93545124D01*
X145994138Y-93401474D01*
X146000979Y-93395238D01*
X146037889Y-93346362D01*
X146135058Y-93217689D01*
X146234229Y-93018528D01*
X146295115Y-92804536D01*
X146315643Y-92583000D01*
X153404357Y-92583000D01*
X153424884Y-92804535D01*
X153424885Y-92804537D01*
X153485769Y-93018523D01*
X153485775Y-93018538D01*
X153584938Y-93217683D01*
X153584943Y-93217691D01*
X153719020Y-93395238D01*
X153883437Y-93545123D01*
X153883439Y-93545125D01*
X154072595Y-93662245D01*
X154072596Y-93662245D01*
X154072599Y-93662247D01*
X154280060Y-93742618D01*
X154498757Y-93783500D01*
X154498759Y-93783500D01*
X154721241Y-93783500D01*
X154721243Y-93783500D01*
X154939940Y-93742618D01*
X155147401Y-93662247D01*
X155336562Y-93545124D01*
X155494138Y-93401474D01*
X155500979Y-93395238D01*
X155537889Y-93346362D01*
X155635058Y-93217689D01*
X155734229Y-93018528D01*
X155795115Y-92804536D01*
X155815643Y-92583000D01*
X155795115Y-92361464D01*
X155734229Y-92147472D01*
X155734224Y-92147461D01*
X155635061Y-91948316D01*
X155635056Y-91948308D01*
X155500979Y-91770761D01*
X155336562Y-91620876D01*
X155336560Y-91620874D01*
X155147404Y-91503754D01*
X155147398Y-91503752D01*
X154939940Y-91423382D01*
X154721243Y-91382500D01*
X154498757Y-91382500D01*
X154280060Y-91423382D01*
X154148864Y-91474207D01*
X154072601Y-91503752D01*
X154072595Y-91503754D01*
X153883439Y-91620874D01*
X153883437Y-91620876D01*
X153719020Y-91770761D01*
X153584943Y-91948308D01*
X153584938Y-91948316D01*
X153485775Y-92147461D01*
X153485769Y-92147476D01*
X153424885Y-92361462D01*
X153424884Y-92361464D01*
X153404357Y-92582999D01*
X153404357Y-92583000D01*
X146315643Y-92583000D01*
X146295115Y-92361464D01*
X146234229Y-92147472D01*
X146234224Y-92147461D01*
X146135061Y-91948316D01*
X146135056Y-91948308D01*
X146000979Y-91770761D01*
X145836562Y-91620876D01*
X145836560Y-91620874D01*
X145647404Y-91503754D01*
X145647398Y-91503752D01*
X145439940Y-91423382D01*
X145221243Y-91382500D01*
X144998757Y-91382500D01*
X144780060Y-91423382D01*
X144648864Y-91474207D01*
X144572601Y-91503752D01*
X144572595Y-91503754D01*
X144383439Y-91620874D01*
X144383437Y-91620876D01*
X144219020Y-91770761D01*
X144084943Y-91948308D01*
X144084938Y-91948316D01*
X143985775Y-92147461D01*
X143985769Y-92147476D01*
X143924885Y-92361462D01*
X143924884Y-92361464D01*
X143904357Y-92582999D01*
X143904357Y-92583000D01*
X116360389Y-92583000D01*
X116360500Y-92582335D01*
X116360500Y-92333665D01*
X116319571Y-92088386D01*
X116238828Y-91853190D01*
X116120474Y-91634491D01*
X115967738Y-91438256D01*
X115784785Y-91269836D01*
X115784782Y-91269833D01*
X115576606Y-91133826D01*
X115348881Y-91033936D01*
X115107824Y-90972892D01*
X115107813Y-90972890D01*
X114942548Y-90959197D01*
X114922067Y-90957500D01*
X114797933Y-90957500D01*
X114778521Y-90959108D01*
X114612186Y-90972890D01*
X114612175Y-90972892D01*
X114371118Y-91033936D01*
X114143393Y-91133826D01*
X113935217Y-91269833D01*
X113752261Y-91438257D01*
X113599524Y-91634493D01*
X113481172Y-91853188D01*
X113481169Y-91853197D01*
X113400429Y-92088383D01*
X113359500Y-92333665D01*
X113359500Y-92582334D01*
X111887000Y-92582334D01*
X111887000Y-91348331D01*
X111905622Y-91282974D01*
X112550794Y-90242752D01*
X145299500Y-90242752D01*
X145311131Y-90301229D01*
X145311132Y-90301230D01*
X145355447Y-90367552D01*
X145421769Y-90411867D01*
X145421770Y-90411868D01*
X145480247Y-90423499D01*
X145480250Y-90423500D01*
X145480252Y-90423500D01*
X147519750Y-90423500D01*
X147519751Y-90423499D01*
X147534568Y-90420552D01*
X147578229Y-90411868D01*
X147578229Y-90411867D01*
X147578231Y-90411867D01*
X147644552Y-90367552D01*
X147688867Y-90301231D01*
X147688867Y-90301229D01*
X147688868Y-90301229D01*
X147700499Y-90242752D01*
X147700500Y-90242750D01*
X147700500Y-89223000D01*
X152014357Y-89223000D01*
X152034884Y-89444535D01*
X152034885Y-89444537D01*
X152095769Y-89658523D01*
X152095775Y-89658538D01*
X152194938Y-89857683D01*
X152194943Y-89857691D01*
X152329020Y-90035238D01*
X152493437Y-90185123D01*
X152493439Y-90185125D01*
X152682595Y-90302245D01*
X152682596Y-90302245D01*
X152682599Y-90302247D01*
X152890060Y-90382618D01*
X153108757Y-90423500D01*
X153108759Y-90423500D01*
X153331241Y-90423500D01*
X153331243Y-90423500D01*
X153549940Y-90382618D01*
X153757401Y-90302247D01*
X153946562Y-90185124D01*
X154110981Y-90035236D01*
X154245058Y-89857689D01*
X154344229Y-89658528D01*
X154405115Y-89444536D01*
X154425643Y-89223000D01*
X154419170Y-89153149D01*
X154405115Y-89001464D01*
X154405114Y-89001462D01*
X154345208Y-88790915D01*
X154344229Y-88787472D01*
X154344224Y-88787461D01*
X154245061Y-88588316D01*
X154245056Y-88588308D01*
X154110979Y-88410761D01*
X153946562Y-88260876D01*
X153946560Y-88260874D01*
X153757404Y-88143754D01*
X153757398Y-88143752D01*
X153549940Y-88063382D01*
X153331243Y-88022500D01*
X153108757Y-88022500D01*
X152890060Y-88063382D01*
X152830995Y-88086264D01*
X152682601Y-88143752D01*
X152682595Y-88143754D01*
X152493439Y-88260874D01*
X152493437Y-88260876D01*
X152329020Y-88410761D01*
X152194943Y-88588308D01*
X152194938Y-88588316D01*
X152095775Y-88787461D01*
X152095769Y-88787476D01*
X152034885Y-89001462D01*
X152034884Y-89001464D01*
X152014357Y-89222999D01*
X152014357Y-89223000D01*
X147700500Y-89223000D01*
X147700500Y-88203249D01*
X147700499Y-88203247D01*
X147688868Y-88144770D01*
X147688867Y-88144769D01*
X147644552Y-88078447D01*
X147578230Y-88034132D01*
X147578229Y-88034131D01*
X147519752Y-88022500D01*
X147519748Y-88022500D01*
X145480252Y-88022500D01*
X145480247Y-88022500D01*
X145421770Y-88034131D01*
X145421769Y-88034132D01*
X145355447Y-88078447D01*
X145311132Y-88144769D01*
X145311131Y-88144770D01*
X145299500Y-88203247D01*
X145299500Y-90242752D01*
X112550794Y-90242752D01*
X114092517Y-87757006D01*
X119110700Y-87757006D01*
X119129864Y-87988297D01*
X119129866Y-87988308D01*
X119186842Y-88213300D01*
X119280075Y-88425848D01*
X119407016Y-88620147D01*
X119407019Y-88620151D01*
X119407021Y-88620153D01*
X119564216Y-88790913D01*
X119564219Y-88790915D01*
X119564222Y-88790918D01*
X119747365Y-88933464D01*
X119747371Y-88933468D01*
X119747374Y-88933470D01*
X119951497Y-89043936D01*
X119986225Y-89055858D01*
X120171015Y-89119297D01*
X120171017Y-89119297D01*
X120171019Y-89119298D01*
X120399951Y-89157500D01*
X120399952Y-89157500D01*
X120632048Y-89157500D01*
X120632049Y-89157500D01*
X120860981Y-89119298D01*
X121080503Y-89043936D01*
X121284626Y-88933470D01*
X121467784Y-88790913D01*
X121624979Y-88620153D01*
X121751924Y-88425849D01*
X121845157Y-88213300D01*
X121854587Y-88176060D01*
X121890126Y-88115905D01*
X121952546Y-88084512D01*
X121974793Y-88082500D01*
X132444078Y-88082500D01*
X132449481Y-88082735D01*
X132489807Y-88086264D01*
X132528940Y-88075777D01*
X132534162Y-88074619D01*
X132574045Y-88067588D01*
X132574050Y-88067584D01*
X132579099Y-88065747D01*
X132595824Y-88058819D01*
X132600681Y-88056554D01*
X132600684Y-88056554D01*
X132633841Y-88033335D01*
X132638390Y-88030438D01*
X132673455Y-88010194D01*
X132699481Y-87979176D01*
X132703122Y-87975202D01*
X132921318Y-87757006D01*
X134110700Y-87757006D01*
X134129864Y-87988297D01*
X134129866Y-87988308D01*
X134186842Y-88213300D01*
X134280075Y-88425848D01*
X134407016Y-88620147D01*
X134407019Y-88620151D01*
X134407021Y-88620153D01*
X134564216Y-88790913D01*
X134564219Y-88790915D01*
X134564222Y-88790918D01*
X134747365Y-88933464D01*
X134747371Y-88933468D01*
X134747374Y-88933470D01*
X134951497Y-89043936D01*
X134986225Y-89055858D01*
X135171015Y-89119297D01*
X135171017Y-89119297D01*
X135171019Y-89119298D01*
X135399951Y-89157500D01*
X135399952Y-89157500D01*
X135632048Y-89157500D01*
X135632049Y-89157500D01*
X135860981Y-89119298D01*
X136080503Y-89043936D01*
X136284626Y-88933470D01*
X136467784Y-88790913D01*
X136624979Y-88620153D01*
X136751924Y-88425849D01*
X136845157Y-88213300D01*
X136902134Y-87988305D01*
X136904469Y-87960131D01*
X136921300Y-87757006D01*
X136921300Y-87756993D01*
X136902135Y-87525702D01*
X136902133Y-87525691D01*
X136845157Y-87300699D01*
X136751924Y-87088151D01*
X136624983Y-86893852D01*
X136624980Y-86893849D01*
X136624979Y-86893847D01*
X136467784Y-86723087D01*
X136467779Y-86723083D01*
X136467777Y-86723081D01*
X136284634Y-86580535D01*
X136284628Y-86580531D01*
X136080504Y-86470064D01*
X136080495Y-86470061D01*
X135860984Y-86394702D01*
X135689282Y-86366050D01*
X135632049Y-86356500D01*
X135399951Y-86356500D01*
X135354164Y-86364140D01*
X135171015Y-86394702D01*
X134951504Y-86470061D01*
X134951495Y-86470064D01*
X134747371Y-86580531D01*
X134747365Y-86580535D01*
X134564222Y-86723081D01*
X134564219Y-86723084D01*
X134407016Y-86893852D01*
X134280075Y-87088151D01*
X134186842Y-87300699D01*
X134129866Y-87525691D01*
X134129864Y-87525702D01*
X134110700Y-87756993D01*
X134110700Y-87757006D01*
X132921318Y-87757006D01*
X141430325Y-79248001D01*
X157001318Y-79248001D01*
X157021955Y-79404760D01*
X157021956Y-79404762D01*
X157082464Y-79550841D01*
X157178718Y-79676282D01*
X157304159Y-79772536D01*
X157450238Y-79833044D01*
X157528619Y-79843363D01*
X157606999Y-79853682D01*
X157607000Y-79853682D01*
X157607001Y-79853682D01*
X157659254Y-79846802D01*
X157763762Y-79833044D01*
X157909841Y-79772536D01*
X158035282Y-79676282D01*
X158131536Y-79550841D01*
X158192044Y-79404762D01*
X158212682Y-79248000D01*
X158203753Y-79180180D01*
X158214518Y-79111145D01*
X158239008Y-79076316D01*
X158721507Y-78593819D01*
X158782830Y-78560334D01*
X158809188Y-78557500D01*
X169103701Y-78557500D01*
X169170740Y-78577185D01*
X169202076Y-78606013D01*
X169243718Y-78660282D01*
X169369159Y-78756536D01*
X169515238Y-78817044D01*
X169593619Y-78827363D01*
X169671999Y-78837682D01*
X169672000Y-78837682D01*
X169672001Y-78837682D01*
X169724254Y-78830802D01*
X169828762Y-78817044D01*
X169974841Y-78756536D01*
X170100282Y-78660282D01*
X170196536Y-78534841D01*
X170257044Y-78388762D01*
X170277682Y-78232000D01*
X170257044Y-78075238D01*
X170196536Y-77929159D01*
X170100282Y-77803718D01*
X169974841Y-77707464D01*
X169828762Y-77646956D01*
X169828760Y-77646955D01*
X169672001Y-77626318D01*
X169671999Y-77626318D01*
X169515239Y-77646955D01*
X169515237Y-77646956D01*
X169369160Y-77707463D01*
X169243716Y-77803719D01*
X169202077Y-77857986D01*
X169145649Y-77899189D01*
X169103701Y-77906500D01*
X167728701Y-77906500D01*
X167661662Y-77886815D01*
X167615907Y-77834011D01*
X167605963Y-77764853D01*
X167629435Y-77708189D01*
X167713350Y-77596093D01*
X167713354Y-77596086D01*
X167763596Y-77461379D01*
X167763598Y-77461372D01*
X167769999Y-77401844D01*
X167770000Y-77401827D01*
X167770000Y-76704000D01*
X166745278Y-76704000D01*
X166793625Y-76620260D01*
X166823810Y-76488008D01*
X166813673Y-76352735D01*
X166764113Y-76226459D01*
X166746203Y-76204000D01*
X167770000Y-76204000D01*
X167770000Y-75506172D01*
X167769999Y-75506155D01*
X167763598Y-75446627D01*
X167763596Y-75446620D01*
X167713354Y-75311913D01*
X167713350Y-75311906D01*
X167627190Y-75196812D01*
X167627187Y-75196809D01*
X167512093Y-75110649D01*
X167512086Y-75110645D01*
X167377379Y-75060403D01*
X167377372Y-75060401D01*
X167317844Y-75054000D01*
X167055141Y-75054000D01*
X166988102Y-75034315D01*
X166942347Y-74981511D01*
X166932403Y-74912353D01*
X166961428Y-74848797D01*
X166989864Y-74824573D01*
X167036039Y-74795982D01*
X167036038Y-74795982D01*
X167036041Y-74795981D01*
X167186764Y-74658579D01*
X167309673Y-74495821D01*
X167400582Y-74313250D01*
X167456397Y-74117083D01*
X167475215Y-73914000D01*
X167456397Y-73710917D01*
X167400582Y-73514750D01*
X167374292Y-73461953D01*
X167356272Y-73425764D01*
X167309673Y-73332179D01*
X167186764Y-73169421D01*
X167186762Y-73169418D01*
X167036041Y-73032019D01*
X167036039Y-73032017D01*
X166862642Y-72924655D01*
X166862635Y-72924651D01*
X166767546Y-72887814D01*
X166672456Y-72850976D01*
X166471976Y-72813500D01*
X166268024Y-72813500D01*
X166067544Y-72850976D01*
X166067541Y-72850976D01*
X166067541Y-72850977D01*
X165877364Y-72924651D01*
X165877357Y-72924655D01*
X165703960Y-73032017D01*
X165703958Y-73032019D01*
X165553237Y-73169418D01*
X165430327Y-73332178D01*
X165339422Y-73514739D01*
X165339417Y-73514752D01*
X165283602Y-73710917D01*
X165264785Y-73913999D01*
X165264785Y-73914000D01*
X165283602Y-74117082D01*
X165339417Y-74313247D01*
X165339422Y-74313260D01*
X165430327Y-74495821D01*
X165553237Y-74658581D01*
X165703958Y-74795980D01*
X165703960Y-74795982D01*
X165750136Y-74824573D01*
X165796772Y-74876601D01*
X165807876Y-74945583D01*
X165779923Y-75009617D01*
X165721788Y-75048373D01*
X165684859Y-75054000D01*
X165422155Y-75054000D01*
X165362627Y-75060401D01*
X165362620Y-75060403D01*
X165227913Y-75110645D01*
X165227906Y-75110649D01*
X165112812Y-75196809D01*
X165112809Y-75196812D01*
X165026649Y-75311906D01*
X165026645Y-75311913D01*
X164976403Y-75446620D01*
X164976401Y-75446627D01*
X164970000Y-75506155D01*
X164970000Y-76204000D01*
X165994722Y-76204000D01*
X165946375Y-76287740D01*
X165916190Y-76419992D01*
X165926327Y-76555265D01*
X165975887Y-76681541D01*
X165993797Y-76704000D01*
X164970000Y-76704000D01*
X164970000Y-77401844D01*
X164976401Y-77461372D01*
X164976403Y-77461379D01*
X165026645Y-77596086D01*
X165026649Y-77596093D01*
X165110565Y-77708189D01*
X165134983Y-77773653D01*
X165120132Y-77841926D01*
X165070727Y-77891332D01*
X165011299Y-77906500D01*
X158639922Y-77906500D01*
X158634518Y-77906264D01*
X158629107Y-77905790D01*
X158594192Y-77902735D01*
X158594191Y-77902735D01*
X158555091Y-77913212D01*
X158549811Y-77914383D01*
X158509959Y-77921410D01*
X158504961Y-77923229D01*
X158488117Y-77930206D01*
X158483313Y-77932446D01*
X158450166Y-77955656D01*
X158445606Y-77958562D01*
X158410548Y-77978804D01*
X158410540Y-77978810D01*
X158384523Y-78009815D01*
X158380869Y-78013804D01*
X157778684Y-78615988D01*
X157717361Y-78649473D01*
X157674818Y-78651246D01*
X157607001Y-78642318D01*
X157606999Y-78642318D01*
X157450239Y-78662955D01*
X157450237Y-78662956D01*
X157304160Y-78723463D01*
X157178718Y-78819718D01*
X157082463Y-78945160D01*
X157021956Y-79091237D01*
X157021955Y-79091239D01*
X157001318Y-79247998D01*
X157001318Y-79248001D01*
X141430325Y-79248001D01*
X141722507Y-78955819D01*
X141783830Y-78922334D01*
X141810188Y-78919500D01*
X143813750Y-78919500D01*
X143813751Y-78919499D01*
X143828568Y-78916552D01*
X143872229Y-78907868D01*
X143872229Y-78907867D01*
X143872231Y-78907867D01*
X143938552Y-78863552D01*
X143982867Y-78797231D01*
X143982867Y-78797229D01*
X143982868Y-78797229D01*
X143994499Y-78738752D01*
X143994500Y-78738750D01*
X143994500Y-76099249D01*
X143994499Y-76099247D01*
X143982868Y-76040770D01*
X143982867Y-76040769D01*
X143938552Y-75974447D01*
X143872230Y-75930132D01*
X143872229Y-75930131D01*
X143813752Y-75918500D01*
X143813748Y-75918500D01*
X141174252Y-75918500D01*
X141174247Y-75918500D01*
X141115770Y-75930131D01*
X141115769Y-75930132D01*
X141049447Y-75974447D01*
X141005132Y-76040769D01*
X141005131Y-76040770D01*
X140993500Y-76099247D01*
X140993500Y-78712811D01*
X140973815Y-78779850D01*
X140957181Y-78800492D01*
X132362493Y-87395181D01*
X132301170Y-87428666D01*
X132274812Y-87431500D01*
X121974793Y-87431500D01*
X121907754Y-87411815D01*
X121861999Y-87359011D01*
X121854587Y-87337939D01*
X121845157Y-87300700D01*
X121751924Y-87088151D01*
X121624983Y-86893852D01*
X121624980Y-86893849D01*
X121624979Y-86893847D01*
X121467784Y-86723087D01*
X121467779Y-86723083D01*
X121467777Y-86723081D01*
X121284634Y-86580535D01*
X121284628Y-86580531D01*
X121080504Y-86470064D01*
X121080495Y-86470061D01*
X120860984Y-86394702D01*
X120689282Y-86366050D01*
X120632049Y-86356500D01*
X120399951Y-86356500D01*
X120354164Y-86364140D01*
X120171015Y-86394702D01*
X119951504Y-86470061D01*
X119951495Y-86470064D01*
X119747371Y-86580531D01*
X119747365Y-86580535D01*
X119564222Y-86723081D01*
X119564219Y-86723084D01*
X119407016Y-86893852D01*
X119280075Y-87088151D01*
X119186842Y-87300699D01*
X119129866Y-87525691D01*
X119129864Y-87525702D01*
X119110700Y-87756993D01*
X119110700Y-87757006D01*
X114092517Y-87757006D01*
X117701879Y-81937571D01*
X117706790Y-81930739D01*
X117706792Y-81930737D01*
X117989934Y-81588427D01*
X118424113Y-81083365D01*
X118832078Y-80620575D01*
X119281058Y-80129061D01*
X119422905Y-79978001D01*
X124560901Y-79978001D01*
X124579252Y-80164332D01*
X124579253Y-80164334D01*
X124633604Y-80343503D01*
X124721862Y-80508624D01*
X124721864Y-80508627D01*
X124840642Y-80653358D01*
X124985373Y-80772136D01*
X124985376Y-80772138D01*
X125026545Y-80794143D01*
X125076389Y-80843105D01*
X125091850Y-80911242D01*
X125068019Y-80976922D01*
X125012461Y-81019291D01*
X124968092Y-81027501D01*
X124746247Y-81027501D01*
X124687770Y-81039132D01*
X124687769Y-81039133D01*
X124621447Y-81083448D01*
X124577132Y-81149770D01*
X124577131Y-81149771D01*
X124565500Y-81208248D01*
X124565500Y-82747753D01*
X124577131Y-82806230D01*
X124577132Y-82806231D01*
X124621447Y-82872553D01*
X124687769Y-82916868D01*
X124687770Y-82916869D01*
X124746247Y-82928500D01*
X124746250Y-82928501D01*
X124746252Y-82928501D01*
X126285750Y-82928501D01*
X126285751Y-82928500D01*
X126300568Y-82925553D01*
X126344229Y-82916869D01*
X126344229Y-82916868D01*
X126344231Y-82916868D01*
X126410552Y-82872553D01*
X126454867Y-82806232D01*
X126454867Y-82806230D01*
X126454868Y-82806230D01*
X126466499Y-82747753D01*
X126466500Y-82747751D01*
X126466500Y-81978001D01*
X129560901Y-81978001D01*
X129579252Y-82164332D01*
X129579253Y-82164334D01*
X129633604Y-82343503D01*
X129721862Y-82508624D01*
X129721864Y-82508627D01*
X129840642Y-82653358D01*
X129985373Y-82772136D01*
X129985376Y-82772138D01*
X130150497Y-82860396D01*
X130150499Y-82860397D01*
X130329666Y-82914747D01*
X130329668Y-82914748D01*
X130346374Y-82916393D01*
X130516000Y-82933100D01*
X130702331Y-82914748D01*
X130881501Y-82860397D01*
X131046625Y-82772137D01*
X131191357Y-82653358D01*
X131310136Y-82508626D01*
X131398396Y-82343502D01*
X131452747Y-82164332D01*
X131471099Y-81978001D01*
X131452747Y-81791670D01*
X131398396Y-81612500D01*
X131310136Y-81447376D01*
X131310135Y-81447374D01*
X131191357Y-81302643D01*
X131046626Y-81183865D01*
X131046623Y-81183863D01*
X130881500Y-81095604D01*
X130875877Y-81093275D01*
X130876718Y-81091242D01*
X130826552Y-81058374D01*
X130798089Y-80994564D01*
X130808643Y-80925496D01*
X130854862Y-80873098D01*
X130876146Y-80863377D01*
X130875877Y-80862727D01*
X130881497Y-80860398D01*
X130881501Y-80860397D01*
X131046625Y-80772137D01*
X131191357Y-80653358D01*
X131310136Y-80508626D01*
X131398396Y-80343502D01*
X131452747Y-80164332D01*
X131471099Y-79978001D01*
X131452747Y-79791670D01*
X131398396Y-79612500D01*
X131310136Y-79447376D01*
X131310135Y-79447374D01*
X131191357Y-79302643D01*
X131046626Y-79183865D01*
X131046623Y-79183863D01*
X130881500Y-79095604D01*
X130875877Y-79093275D01*
X130876718Y-79091242D01*
X130826552Y-79058374D01*
X130798089Y-78994564D01*
X130808643Y-78925496D01*
X130854862Y-78873098D01*
X130876146Y-78863377D01*
X130875877Y-78862727D01*
X130881497Y-78860398D01*
X130881501Y-78860397D01*
X131046625Y-78772137D01*
X131191357Y-78653358D01*
X131310136Y-78508626D01*
X131398396Y-78343502D01*
X131452747Y-78164332D01*
X131471099Y-77978001D01*
X131452747Y-77791670D01*
X131398396Y-77612500D01*
X131310136Y-77447376D01*
X131310135Y-77447374D01*
X131286853Y-77419005D01*
X135908357Y-77419005D01*
X135928890Y-77666812D01*
X135928892Y-77666824D01*
X135989936Y-77907881D01*
X136089826Y-78135606D01*
X136225833Y-78343782D01*
X136225836Y-78343785D01*
X136394256Y-78526738D01*
X136590491Y-78679474D01*
X136590493Y-78679475D01*
X136775969Y-78779850D01*
X136809190Y-78797828D01*
X137044386Y-78878571D01*
X137289665Y-78919500D01*
X137538335Y-78919500D01*
X137783614Y-78878571D01*
X138018810Y-78797828D01*
X138237509Y-78679474D01*
X138433744Y-78526738D01*
X138602164Y-78343785D01*
X138738173Y-78135607D01*
X138838063Y-77907881D01*
X138899108Y-77666821D01*
X138903609Y-77612500D01*
X138919643Y-77419005D01*
X138919643Y-77418994D01*
X138899109Y-77171187D01*
X138899107Y-77171175D01*
X138838063Y-76930118D01*
X138738173Y-76702393D01*
X138602166Y-76494217D01*
X138533837Y-76419992D01*
X138433744Y-76311262D01*
X138237509Y-76158526D01*
X138237507Y-76158525D01*
X138237506Y-76158524D01*
X138018811Y-76040172D01*
X138018802Y-76040169D01*
X137783616Y-75959429D01*
X137538335Y-75918500D01*
X137289665Y-75918500D01*
X137044383Y-75959429D01*
X136809197Y-76040169D01*
X136809188Y-76040172D01*
X136590493Y-76158524D01*
X136394257Y-76311261D01*
X136225833Y-76494217D01*
X136089826Y-76702393D01*
X135989936Y-76930118D01*
X135928892Y-77171175D01*
X135928890Y-77171187D01*
X135908357Y-77418994D01*
X135908357Y-77419005D01*
X131286853Y-77419005D01*
X131191357Y-77302643D01*
X131046626Y-77183865D01*
X131046623Y-77183863D01*
X130881502Y-77095605D01*
X130702333Y-77041254D01*
X130702331Y-77041253D01*
X130516000Y-77022902D01*
X130329668Y-77041253D01*
X130329666Y-77041254D01*
X130150497Y-77095605D01*
X129985376Y-77183863D01*
X129985373Y-77183865D01*
X129840642Y-77302643D01*
X129721864Y-77447374D01*
X129721862Y-77447377D01*
X129633604Y-77612498D01*
X129579253Y-77791667D01*
X129579252Y-77791669D01*
X129560901Y-77978001D01*
X129579252Y-78164332D01*
X129579253Y-78164334D01*
X129633604Y-78343503D01*
X129721862Y-78508624D01*
X129721864Y-78508627D01*
X129840642Y-78653358D01*
X129985373Y-78772136D01*
X129985376Y-78772138D01*
X130150499Y-78860397D01*
X130156123Y-78862727D01*
X130155282Y-78864757D01*
X130205456Y-78897640D01*
X130233912Y-78961452D01*
X130223350Y-79030519D01*
X130177125Y-79082912D01*
X130155854Y-79092625D01*
X130156123Y-79093275D01*
X130150499Y-79095604D01*
X129985376Y-79183863D01*
X129985373Y-79183865D01*
X129840642Y-79302643D01*
X129721864Y-79447374D01*
X129721862Y-79447377D01*
X129633604Y-79612498D01*
X129579253Y-79791667D01*
X129579252Y-79791669D01*
X129560901Y-79978001D01*
X129579252Y-80164332D01*
X129579253Y-80164334D01*
X129633604Y-80343503D01*
X129721862Y-80508624D01*
X129721864Y-80508627D01*
X129840642Y-80653358D01*
X129985373Y-80772136D01*
X129985376Y-80772138D01*
X130150499Y-80860397D01*
X130156123Y-80862727D01*
X130155282Y-80864757D01*
X130205456Y-80897640D01*
X130233912Y-80961452D01*
X130223350Y-81030519D01*
X130177125Y-81082912D01*
X130155854Y-81092625D01*
X130156123Y-81093275D01*
X130150499Y-81095604D01*
X129985376Y-81183863D01*
X129985373Y-81183865D01*
X129840642Y-81302643D01*
X129721864Y-81447374D01*
X129721862Y-81447377D01*
X129633604Y-81612498D01*
X129579253Y-81791667D01*
X129579252Y-81791669D01*
X129560901Y-81978001D01*
X126466500Y-81978001D01*
X126466500Y-81208250D01*
X126466499Y-81208248D01*
X126454868Y-81149771D01*
X126454867Y-81149770D01*
X126410552Y-81083448D01*
X126344230Y-81039133D01*
X126344229Y-81039132D01*
X126285752Y-81027501D01*
X126285748Y-81027501D01*
X126063908Y-81027501D01*
X125996869Y-81007816D01*
X125951114Y-80955012D01*
X125941170Y-80885854D01*
X125970195Y-80822298D01*
X126005455Y-80794143D01*
X126046623Y-80772138D01*
X126046626Y-80772136D01*
X126191357Y-80653358D01*
X126310135Y-80508627D01*
X126310137Y-80508624D01*
X126398395Y-80343503D01*
X126398396Y-80343502D01*
X126452747Y-80164332D01*
X126471099Y-79978001D01*
X126452747Y-79791670D01*
X126398396Y-79612500D01*
X126310136Y-79447376D01*
X126310135Y-79447374D01*
X126191357Y-79302643D01*
X126046626Y-79183865D01*
X126046623Y-79183863D01*
X125881500Y-79095604D01*
X125875877Y-79093275D01*
X125876718Y-79091242D01*
X125826552Y-79058374D01*
X125798089Y-78994564D01*
X125808643Y-78925496D01*
X125854862Y-78873098D01*
X125876146Y-78863377D01*
X125875877Y-78862727D01*
X125881497Y-78860398D01*
X125881501Y-78860397D01*
X126046625Y-78772137D01*
X126191357Y-78653358D01*
X126310136Y-78508626D01*
X126398396Y-78343502D01*
X126452747Y-78164332D01*
X126471099Y-77978001D01*
X126452747Y-77791670D01*
X126398396Y-77612500D01*
X126310136Y-77447376D01*
X126310135Y-77447374D01*
X126191357Y-77302643D01*
X126046626Y-77183865D01*
X126046623Y-77183863D01*
X125881502Y-77095605D01*
X125702333Y-77041254D01*
X125702331Y-77041253D01*
X125516000Y-77022902D01*
X125329668Y-77041253D01*
X125329666Y-77041254D01*
X125150497Y-77095605D01*
X124985376Y-77183863D01*
X124985373Y-77183865D01*
X124840642Y-77302643D01*
X124721864Y-77447374D01*
X124721862Y-77447377D01*
X124633604Y-77612498D01*
X124579253Y-77791667D01*
X124579252Y-77791669D01*
X124560901Y-77978001D01*
X124579252Y-78164332D01*
X124579253Y-78164334D01*
X124633604Y-78343503D01*
X124721862Y-78508624D01*
X124721864Y-78508627D01*
X124840642Y-78653358D01*
X124985373Y-78772136D01*
X124985376Y-78772138D01*
X125150499Y-78860397D01*
X125156123Y-78862727D01*
X125155282Y-78864757D01*
X125205456Y-78897640D01*
X125233912Y-78961452D01*
X125223350Y-79030519D01*
X125177125Y-79082912D01*
X125155854Y-79092625D01*
X125156123Y-79093275D01*
X125150499Y-79095604D01*
X124985376Y-79183863D01*
X124985373Y-79183865D01*
X124840642Y-79302643D01*
X124721864Y-79447374D01*
X124721862Y-79447377D01*
X124633604Y-79612498D01*
X124579253Y-79791667D01*
X124579252Y-79791669D01*
X124560901Y-79978001D01*
X119422905Y-79978001D01*
X119703488Y-79679195D01*
X120167049Y-79201452D01*
X120603451Y-78765050D01*
X121081194Y-78301489D01*
X121531083Y-77879038D01*
X122022555Y-77430096D01*
X122485304Y-77022166D01*
X122990467Y-76587900D01*
X123332739Y-76304789D01*
X123339566Y-76299883D01*
X132684974Y-70503623D01*
X132750332Y-70485000D01*
X166969668Y-70485000D01*
X167035026Y-70503623D01*
G37*
G04 #@! TD.AperFunction*
M02*
