  0
SECTION
  2
HEADER
  9
$ANGBASE
  50
0.0
  9
$ANGDIR
  70
1
  9
$MEASUREMENT
  70
1
  0
ENDSEC
  0
SECTION
  2
TABLES
  0
TABLE
  2
LTYPE
  70
4
  0
LTYPE
  5
40F
  2
CONTINUOUS
  70
0
  3
Solid line
  72
65
  73
0
  40
0.0
  0
LTYPE
  5
410
  2
DASHDOT
 70
0
  3
Dash Dot ____ _ ____ _
 72
65
 73
4
 40
2.0
 49
1.25
 49
-0.25
 49
0.25
 49
-0.25
  0
LTYPE
  5
411
  2
DASHED
 70
0
  3
Dashed __ __ __ __ __
 72
65
 73
2
 40
0.75
 49
0.5
 49
-0.25
  0
LTYPE
  5
43B
  2
DOTTED
 70
0
  3
Dotted .  .  .  .
 72
65
 73
2
 40
0.2
 49
0.0
 49
-0.2
  0
ENDTAB
  0
TABLE
  2
STYLE
  70
4
  0
STYLE
  2
KICAD
  70
0
  40
0
  41
1
  42
1
  50
0
  71
0
  3
isocp.shx
  0
STYLE
  2
KICADB
  70
0
  40
0
  41
1
  42
1
  50
0
  71
0
  3
isocp.shx
  0
STYLE
  2
KICADI
  70
0
  40
0
  41
1
  42
1
  50
15
  71
0
  3
isocp.shx
  0
STYLE
  2
KICADBI
  70
0
  40
0
  41
1
  42
1
  50
15
  71
0
  3
isocp.shx
  0
ENDTAB
  0
TABLE
  2
LAYER
  70
1
  0
LAYER
  2
BLACK
  70
0
  62
7
  6
CONTINUOUS
  0
ENDTAB
  0
ENDSEC
  0
SECTION
  2
ENTITIES
0
LINE
8
BLACK
6
CONTINUOUS
10
167.012
20
-70.4109
11
167.026
21
-70.4124
0
LINE
8
BLACK
6
CONTINUOUS
10
167.026
20
-70.4124
11
167.026
21
-70.4124
0
LINE
8
BLACK
6
CONTINUOUS
10
167.026
20
-70.4124
11
168.164
21
-70.9468
0
LINE
8
BLACK
6
CONTINUOUS
10
168.164
20
-70.9468
11
169.286
21
-71.5153
0
LINE
8
BLACK
6
CONTINUOUS
10
169.286
20
-71.5153
11
170.39
21
-72.1172
0
LINE
8
BLACK
6
CONTINUOUS
10
170.39
20
-72.1172
11
171.475
21
-72.7522
0
LINE
8
BLACK
6
CONTINUOUS
10
171.475
20
-72.7522
11
172.541
21
-73.4196
0
LINE
8
BLACK
6
CONTINUOUS
10
172.541
20
-73.4196
11
173.586
21
-74.1187
0
LINE
8
BLACK
6
CONTINUOUS
10
173.586
20
-74.1187
11
174.61
21
-74.8491
0
LINE
8
BLACK
6
CONTINUOUS
10
174.61
20
-74.8491
11
175.611
21
-75.6099
0
LINE
8
BLACK
6
CONTINUOUS
10
175.611
20
-75.6099
11
176.589
21
-76.4006
0
LINE
8
BLACK
6
CONTINUOUS
10
176.589
20
-76.4006
11
177.543
21
-77.2204
0
LINE
8
BLACK
6
CONTINUOUS
10
177.543
20
-77.2204
11
178.471
21
-78.0685
0
LINE
8
BLACK
6
CONTINUOUS
10
178.471
20
-78.0685
11
179.374
21
-78.9443
0
LINE
8
BLACK
6
CONTINUOUS
10
179.374
20
-78.9443
11
180.249
21
-79.8468
0
LINE
8
BLACK
6
CONTINUOUS
10
180.249
20
-79.8468
11
181.098
21
-80.7752
0
LINE
8
BLACK
6
CONTINUOUS
10
181.098
20
-80.7752
11
181.917
21
-81.7289
0
LINE
8
BLACK
6
CONTINUOUS
10
181.917
20
-81.7289
11
182.708
21
-82.7067
0
LINE
8
BLACK
6
CONTINUOUS
10
182.708
20
-82.7067
11
183.469
21
-83.708
0
LINE
8
BLACK
6
CONTINUOUS
10
183.469
20
-83.708
11
184.199
21
-84.7317
0
LINE
8
BLACK
6
CONTINUOUS
10
184.199
20
-84.7317
11
184.898
21
-85.7769
0
LINE
8
BLACK
6
CONTINUOUS
10
184.898
20
-85.7769
11
185.566
21
-86.8428
0
LINE
8
BLACK
6
CONTINUOUS
10
185.566
20
-86.8428
11
186.201
21
-87.9283
0
LINE
8
BLACK
6
CONTINUOUS
10
186.201
20
-87.9283
11
186.803
21
-89.0324
0
LINE
8
BLACK
6
CONTINUOUS
10
186.803
20
-89.0324
11
187.371
21
-90.1541
0
LINE
8
BLACK
6
CONTINUOUS
10
187.371
20
-90.1541
11
187.906
21
-91.2924
0
LINE
8
BLACK
6
CONTINUOUS
10
187.906
20
-91.2924
11
187.907
21
-91.3059
0
LINE
8
BLACK
6
CONTINUOUS
10
187.907
20
-91.3059
11
187.91
21
-91.313
0
LINE
8
BLACK
6
CONTINUOUS
10
187.91
20
-91.313
11
187.91
21
-125.603
0
LINE
8
BLACK
6
CONTINUOUS
10
187.91
20
-125.603
11
187.907
21
-125.61
0
LINE
8
BLACK
6
CONTINUOUS
10
187.907
20
-125.61
11
187.906
21
-125.624
0
LINE
8
BLACK
6
CONTINUOUS
10
187.906
20
-125.624
11
187.906
21
-125.624
0
LINE
8
BLACK
6
CONTINUOUS
10
187.906
20
-125.624
11
187.371
21
-126.762
0
LINE
8
BLACK
6
CONTINUOUS
10
187.371
20
-126.762
11
186.803
21
-127.884
0
LINE
8
BLACK
6
CONTINUOUS
10
186.803
20
-127.884
11
186.201
21
-128.988
0
LINE
8
BLACK
6
CONTINUOUS
10
186.201
20
-128.988
11
185.566
21
-130.073
0
LINE
8
BLACK
6
CONTINUOUS
10
185.566
20
-130.073
11
184.898
21
-131.139
0
LINE
8
BLACK
6
CONTINUOUS
10
184.898
20
-131.139
11
184.199
21
-132.184
0
LINE
8
BLACK
6
CONTINUOUS
10
184.199
20
-132.184
11
183.469
21
-133.208
0
LINE
8
BLACK
6
CONTINUOUS
10
183.469
20
-133.208
11
182.708
21
-134.209
0
LINE
8
BLACK
6
CONTINUOUS
10
182.708
20
-134.209
11
181.917
21
-135.187
0
LINE
8
BLACK
6
CONTINUOUS
10
181.917
20
-135.187
11
181.098
21
-136.141
0
LINE
8
BLACK
6
CONTINUOUS
10
181.098
20
-136.141
11
180.249
21
-137.069
0
LINE
8
BLACK
6
CONTINUOUS
10
180.249
20
-137.069
11
179.374
21
-137.972
0
LINE
8
BLACK
6
CONTINUOUS
10
179.374
20
-137.972
11
178.471
21
-138.847
0
LINE
8
BLACK
6
CONTINUOUS
10
178.471
20
-138.847
11
177.543
21
-139.696
0
LINE
8
BLACK
6
CONTINUOUS
10
177.543
20
-139.696
11
176.589
21
-140.515
0
LINE
8
BLACK
6
CONTINUOUS
10
176.589
20
-140.515
11
175.611
21
-141.306
0
LINE
8
BLACK
6
CONTINUOUS
10
175.611
20
-141.306
11
174.61
21
-142.067
0
LINE
8
BLACK
6
CONTINUOUS
10
174.61
20
-142.067
11
173.586
21
-142.797
0
LINE
8
BLACK
6
CONTINUOUS
10
173.586
20
-142.797
11
172.541
21
-143.496
0
LINE
8
BLACK
6
CONTINUOUS
10
172.541
20
-143.496
11
171.475
21
-144.164
0
LINE
8
BLACK
6
CONTINUOUS
10
171.475
20
-144.164
11
170.39
21
-144.799
0
LINE
8
BLACK
6
CONTINUOUS
10
170.39
20
-144.799
11
169.286
21
-145.401
0
LINE
8
BLACK
6
CONTINUOUS
10
169.286
20
-145.401
11
168.164
21
-145.969
0
LINE
8
BLACK
6
CONTINUOUS
10
168.164
20
-145.969
11
167.026
21
-146.504
0
LINE
8
BLACK
6
CONTINUOUS
10
167.026
20
-146.504
11
167.026
21
-146.504
0
LINE
8
BLACK
6
CONTINUOUS
10
167.026
20
-146.504
11
167.012
21
-146.505
0
LINE
8
BLACK
6
CONTINUOUS
10
167.012
20
-146.505
11
167.005
21
-146.508
0
LINE
8
BLACK
6
CONTINUOUS
10
167.005
20
-146.508
11
132.715
21
-146.508
0
LINE
8
BLACK
6
CONTINUOUS
10
132.715
20
-146.508
11
132.708
21
-146.505
0
LINE
8
BLACK
6
CONTINUOUS
10
132.708
20
-146.505
11
132.694
21
-146.504
0
LINE
8
BLACK
6
CONTINUOUS
10
132.694
20
-146.504
11
132.694
21
-146.504
0
LINE
8
BLACK
6
CONTINUOUS
10
132.694
20
-146.504
11
131.556
21
-145.969
0
LINE
8
BLACK
6
CONTINUOUS
10
131.556
20
-145.969
11
130.434
21
-145.401
0
LINE
8
BLACK
6
CONTINUOUS
10
130.434
20
-145.401
11
129.33
21
-144.799
0
LINE
8
BLACK
6
CONTINUOUS
10
129.33
20
-144.799
11
128.245
21
-144.164
0
LINE
8
BLACK
6
CONTINUOUS
10
128.245
20
-144.164
11
127.179
21
-143.496
0
LINE
8
BLACK
6
CONTINUOUS
10
127.179
20
-143.496
11
126.134
21
-142.797
0
LINE
8
BLACK
6
CONTINUOUS
10
126.134
20
-142.797
11
125.11
21
-142.067
0
LINE
8
BLACK
6
CONTINUOUS
10
125.11
20
-142.067
11
124.109
21
-141.306
0
LINE
8
BLACK
6
CONTINUOUS
10
124.109
20
-141.306
11
123.131
21
-140.515
0
LINE
8
BLACK
6
CONTINUOUS
10
123.131
20
-140.515
11
122.177
21
-139.696
0
LINE
8
BLACK
6
CONTINUOUS
10
122.177
20
-139.696
11
121.249
21
-138.847
0
LINE
8
BLACK
6
CONTINUOUS
10
121.249
20
-138.847
11
120.346
21
-137.972
0
LINE
8
BLACK
6
CONTINUOUS
10
120.346
20
-137.972
11
119.471
21
-137.069
0
LINE
8
BLACK
6
CONTINUOUS
10
119.471
20
-137.069
11
118.622
21
-136.141
0
LINE
8
BLACK
6
CONTINUOUS
10
118.622
20
-136.141
11
117.803
21
-135.187
0
LINE
8
BLACK
6
CONTINUOUS
10
117.803
20
-135.187
11
117.012
21
-134.209
0
LINE
8
BLACK
6
CONTINUOUS
10
117.012
20
-134.209
11
116.251
21
-133.208
0
LINE
8
BLACK
6
CONTINUOUS
10
116.251
20
-133.208
11
115.521
21
-132.184
0
LINE
8
BLACK
6
CONTINUOUS
10
115.521
20
-132.184
11
114.822
21
-131.139
0
LINE
8
BLACK
6
CONTINUOUS
10
114.822
20
-131.139
11
114.154
21
-130.073
0
LINE
8
BLACK
6
CONTINUOUS
10
114.154
20
-130.073
11
113.519
21
-128.988
0
LINE
8
BLACK
6
CONTINUOUS
10
113.519
20
-128.988
11
112.917
21
-127.884
0
LINE
8
BLACK
6
CONTINUOUS
10
112.917
20
-127.884
11
112.349
21
-126.762
0
LINE
8
BLACK
6
CONTINUOUS
10
112.349
20
-126.762
11
111.814
21
-125.624
0
LINE
8
BLACK
6
CONTINUOUS
10
111.814
20
-125.624
11
111.813
21
-125.61
0
LINE
8
BLACK
6
CONTINUOUS
10
111.813
20
-125.61
11
111.81
21
-125.603
0
LINE
8
BLACK
6
CONTINUOUS
10
111.81
20
-125.603
11
111.81
21
-91.313
0
LINE
8
BLACK
6
CONTINUOUS
10
111.81
20
-91.313
11
111.813
21
-91.3059
0
LINE
8
BLACK
6
CONTINUOUS
10
111.813
20
-91.3059
11
111.814
21
-91.2924
0
LINE
8
BLACK
6
CONTINUOUS
10
111.814
20
-91.2924
11
111.814
21
-91.2924
0
LINE
8
BLACK
6
CONTINUOUS
10
111.814
20
-91.2924
11
112.349
21
-90.1541
0
LINE
8
BLACK
6
CONTINUOUS
10
112.349
20
-90.1541
11
112.917
21
-89.0324
0
LINE
8
BLACK
6
CONTINUOUS
10
112.917
20
-89.0324
11
113.519
21
-87.9283
0
LINE
8
BLACK
6
CONTINUOUS
10
113.519
20
-87.9283
11
114.154
21
-86.8428
0
LINE
8
BLACK
6
CONTINUOUS
10
114.154
20
-86.8428
11
114.822
21
-85.7769
0
LINE
8
BLACK
6
CONTINUOUS
10
114.822
20
-85.7769
11
115.521
21
-84.7317
0
LINE
8
BLACK
6
CONTINUOUS
10
115.521
20
-84.7317
11
116.251
21
-83.708
0
LINE
8
BLACK
6
CONTINUOUS
10
116.251
20
-83.708
11
117.012
21
-82.7067
0
LINE
8
BLACK
6
CONTINUOUS
10
117.012
20
-82.7067
11
117.803
21
-81.7289
0
LINE
8
BLACK
6
CONTINUOUS
10
117.803
20
-81.7289
11
118.622
21
-80.7752
0
LINE
8
BLACK
6
CONTINUOUS
10
118.622
20
-80.7752
11
119.471
21
-79.8468
0
LINE
8
BLACK
6
CONTINUOUS
10
119.471
20
-79.8468
11
120.346
21
-78.9443
0
LINE
8
BLACK
6
CONTINUOUS
10
120.346
20
-78.9443
11
121.249
21
-78.0685
0
LINE
8
BLACK
6
CONTINUOUS
10
121.249
20
-78.0685
11
122.177
21
-77.2204
0
LINE
8
BLACK
6
CONTINUOUS
10
122.177
20
-77.2204
11
123.131
21
-76.4006
0
LINE
8
BLACK
6
CONTINUOUS
10
123.131
20
-76.4006
11
124.109
21
-75.6099
0
LINE
8
BLACK
6
CONTINUOUS
10
124.109
20
-75.6099
11
125.11
21
-74.8491
0
LINE
8
BLACK
6
CONTINUOUS
10
125.11
20
-74.8491
11
126.134
21
-74.1187
0
LINE
8
BLACK
6
CONTINUOUS
10
126.134
20
-74.1187
11
127.179
21
-73.4196
0
LINE
8
BLACK
6
CONTINUOUS
10
127.179
20
-73.4196
11
128.245
21
-72.7522
0
LINE
8
BLACK
6
CONTINUOUS
10
128.245
20
-72.7522
11
129.33
21
-72.1172
0
LINE
8
BLACK
6
CONTINUOUS
10
129.33
20
-72.1172
11
130.434
21
-71.5153
0
LINE
8
BLACK
6
CONTINUOUS
10
130.434
20
-71.5153
11
131.556
21
-70.9468
0
LINE
8
BLACK
6
CONTINUOUS
10
131.556
20
-70.9468
11
132.694
21
-70.4124
0
LINE
8
BLACK
6
CONTINUOUS
10
132.694
20
-70.4124
11
132.708
21
-70.4109
0
LINE
8
BLACK
6
CONTINUOUS
10
132.708
20
-70.4109
11
132.715
21
-70.408
0
LINE
8
BLACK
6
CONTINUOUS
10
132.715
20
-70.408
11
167.005
21
-70.408
0
LINE
8
BLACK
6
CONTINUOUS
10
167.005
20
-70.408
11
167.012
21
-70.4109
0
LINE
8
BLACK
6
CONTINUOUS
10
132.726
20
-70.508
11
132.164
21
-70.7616
0
LINE
8
BLACK
6
CONTINUOUS
10
132.164
20
-70.7616
11
131.036
21
-71.3118
0
LINE
8
BLACK
6
CONTINUOUS
10
131.036
20
-71.3118
11
129.926
21
-71.8957
0
LINE
8
BLACK
6
CONTINUOUS
10
129.926
20
-71.8957
11
128.833
21
-72.5129
0
LINE
8
BLACK
6
CONTINUOUS
10
128.833
20
-72.5129
11
127.76
21
-73.1626
0
LINE
8
BLACK
6
CONTINUOUS
10
127.76
20
-73.1626
11
126.707
21
-73.8444
0
LINE
8
BLACK
6
CONTINUOUS
10
126.707
20
-73.8444
11
125.674
21
-74.5576
0
LINE
8
BLACK
6
CONTINUOUS
10
125.674
20
-74.5576
11
124.664
21
-75.3016
0
LINE
8
BLACK
6
CONTINUOUS
10
124.664
20
-75.3016
11
123.677
21
-76.0757
0
LINE
8
BLACK
6
CONTINUOUS
10
123.677
20
-76.0757
11
122.713
21
-76.8792
0
LINE
8
BLACK
6
CONTINUOUS
10
122.713
20
-76.8792
11
121.774
21
-77.7113
0
LINE
8
BLACK
6
CONTINUOUS
10
121.774
20
-77.7113
11
120.861
21
-78.5714
0
LINE
8
BLACK
6
CONTINUOUS
10
120.861
20
-78.5714
11
119.973
21
-79.4586
0
LINE
8
BLACK
6
CONTINUOUS
10
119.973
20
-79.4586
11
119.113
21
-80.3721
0
LINE
8
BLACK
6
CONTINUOUS
10
119.113
20
-80.3721
11
118.281
21
-81.3111
0
LINE
8
BLACK
6
CONTINUOUS
10
118.281
20
-81.3111
11
117.478
21
-82.2747
0
LINE
8
BLACK
6
CONTINUOUS
10
117.478
20
-82.2747
11
116.704
21
-83.2621
0
LINE
8
BLACK
6
CONTINUOUS
10
116.704
20
-83.2621
11
115.96
21
-84.2724
0
LINE
8
BLACK
6
CONTINUOUS
10
115.96
20
-84.2724
11
115.246
21
-85.3047
0
LINE
8
BLACK
6
CONTINUOUS
10
115.246
20
-85.3047
11
114.565
21
-86.3579
0
LINE
8
BLACK
6
CONTINUOUS
10
114.565
20
-86.3579
11
113.915
21
-87.4312
0
LINE
8
BLACK
6
CONTINUOUS
10
113.915
20
-87.4312
11
113.298
21
-88.5237
0
LINE
8
BLACK
6
CONTINUOUS
10
113.298
20
-88.5237
11
112.714
21
-89.6342
0
LINE
8
BLACK
6
CONTINUOUS
10
112.714
20
-89.6342
11
112.164
21
-90.7617
0
LINE
8
BLACK
6
CONTINUOUS
10
112.164
20
-90.7617
11
111.91
21
-91.3238
0
LINE
8
BLACK
6
CONTINUOUS
10
111.91
20
-91.3238
11
111.91
21
-125.592
0
LINE
8
BLACK
6
CONTINUOUS
10
111.91
20
-125.592
11
112.164
21
-126.154
0
LINE
8
BLACK
6
CONTINUOUS
10
112.164
20
-126.154
11
112.714
21
-127.282
0
LINE
8
BLACK
6
CONTINUOUS
10
112.714
20
-127.282
11
113.298
21
-128.392
0
LINE
8
BLACK
6
CONTINUOUS
10
113.298
20
-128.392
11
113.915
21
-129.485
0
LINE
8
BLACK
6
CONTINUOUS
10
113.915
20
-129.485
11
114.565
21
-130.558
0
LINE
8
BLACK
6
CONTINUOUS
10
114.565
20
-130.558
11
115.246
21
-131.611
0
LINE
8
BLACK
6
CONTINUOUS
10
115.246
20
-131.611
11
115.96
21
-132.644
0
LINE
8
BLACK
6
CONTINUOUS
10
115.96
20
-132.644
11
116.704
21
-133.654
0
LINE
8
BLACK
6
CONTINUOUS
10
116.704
20
-133.654
11
117.478
21
-134.641
0
LINE
8
BLACK
6
CONTINUOUS
10
117.478
20
-134.641
11
118.281
21
-135.605
0
LINE
8
BLACK
6
CONTINUOUS
10
118.281
20
-135.605
11
119.113
21
-136.544
0
LINE
8
BLACK
6
CONTINUOUS
10
119.113
20
-136.544
11
119.973
21
-137.457
0
LINE
8
BLACK
6
CONTINUOUS
10
119.973
20
-137.457
11
120.861
21
-138.345
0
LINE
8
BLACK
6
CONTINUOUS
10
120.861
20
-138.345
11
121.774
21
-139.205
0
LINE
8
BLACK
6
CONTINUOUS
10
121.774
20
-139.205
11
122.713
21
-140.037
0
LINE
8
BLACK
6
CONTINUOUS
10
122.713
20
-140.037
11
123.677
21
-140.84
0
LINE
8
BLACK
6
CONTINUOUS
10
123.677
20
-140.84
11
124.664
21
-141.614
0
LINE
8
BLACK
6
CONTINUOUS
10
124.664
20
-141.614
11
125.674
21
-142.358
0
LINE
8
BLACK
6
CONTINUOUS
10
125.674
20
-142.358
11
126.707
21
-143.072
0
LINE
8
BLACK
6
CONTINUOUS
10
126.707
20
-143.072
11
127.76
21
-143.753
0
LINE
8
BLACK
6
CONTINUOUS
10
127.76
20
-143.753
11
128.833
21
-144.403
0
LINE
8
BLACK
6
CONTINUOUS
10
128.833
20
-144.403
11
129.926
21
-145.02
0
LINE
8
BLACK
6
CONTINUOUS
10
129.926
20
-145.02
11
131.036
21
-145.604
0
LINE
8
BLACK
6
CONTINUOUS
10
131.036
20
-145.604
11
132.164
21
-146.154
0
LINE
8
BLACK
6
CONTINUOUS
10
132.164
20
-146.154
11
132.726
21
-146.408
0
LINE
8
BLACK
6
CONTINUOUS
10
132.726
20
-146.408
11
166.994
21
-146.408
0
LINE
8
BLACK
6
CONTINUOUS
10
166.994
20
-146.408
11
167.556
21
-146.154
0
LINE
8
BLACK
6
CONTINUOUS
10
167.556
20
-146.154
11
168.684
21
-145.604
0
LINE
8
BLACK
6
CONTINUOUS
10
168.684
20
-145.604
11
169.794
21
-145.02
0
LINE
8
BLACK
6
CONTINUOUS
10
169.794
20
-145.02
11
170.887
21
-144.403
0
LINE
8
BLACK
6
CONTINUOUS
10
170.887
20
-144.403
11
171.96
21
-143.753
0
LINE
8
BLACK
6
CONTINUOUS
10
171.96
20
-143.753
11
173.013
21
-143.072
0
LINE
8
BLACK
6
CONTINUOUS
10
173.013
20
-143.072
11
174.046
21
-142.358
0
LINE
8
BLACK
6
CONTINUOUS
10
174.046
20
-142.358
11
175.056
21
-141.614
0
LINE
8
BLACK
6
CONTINUOUS
10
175.056
20
-141.614
11
176.043
21
-140.84
0
LINE
8
BLACK
6
CONTINUOUS
10
176.043
20
-140.84
11
177.007
21
-140.037
0
LINE
8
BLACK
6
CONTINUOUS
10
177.007
20
-140.037
11
177.946
21
-139.205
0
LINE
8
BLACK
6
CONTINUOUS
10
177.946
20
-139.205
11
178.859
21
-138.345
0
LINE
8
BLACK
6
CONTINUOUS
10
178.859
20
-138.345
11
179.747
21
-137.457
0
LINE
8
BLACK
6
CONTINUOUS
10
179.747
20
-137.457
11
180.607
21
-136.544
0
LINE
8
BLACK
6
CONTINUOUS
10
180.607
20
-136.544
11
181.439
21
-135.605
0
LINE
8
BLACK
6
CONTINUOUS
10
181.439
20
-135.605
11
182.242
21
-134.641
0
LINE
8
BLACK
6
CONTINUOUS
10
182.242
20
-134.641
11
183.016
21
-133.654
0
LINE
8
BLACK
6
CONTINUOUS
10
183.016
20
-133.654
11
183.76
21
-132.644
0
LINE
8
BLACK
6
CONTINUOUS
10
183.76
20
-132.644
11
184.474
21
-131.611
0
LINE
8
BLACK
6
CONTINUOUS
10
184.474
20
-131.611
11
185.155
21
-130.558
0
LINE
8
BLACK
6
CONTINUOUS
10
185.155
20
-130.558
11
185.805
21
-129.485
0
LINE
8
BLACK
6
CONTINUOUS
10
185.805
20
-129.485
11
186.422
21
-128.392
0
LINE
8
BLACK
6
CONTINUOUS
10
186.422
20
-128.392
11
187.006
21
-127.282
0
LINE
8
BLACK
6
CONTINUOUS
10
187.006
20
-127.282
11
187.556
21
-126.154
0
LINE
8
BLACK
6
CONTINUOUS
10
187.556
20
-126.154
11
187.81
21
-125.592
0
LINE
8
BLACK
6
CONTINUOUS
10
187.81
20
-125.592
11
187.81
21
-91.3238
0
LINE
8
BLACK
6
CONTINUOUS
10
187.81
20
-91.3238
11
187.556
21
-90.7617
0
LINE
8
BLACK
6
CONTINUOUS
10
187.556
20
-90.7617
11
187.006
21
-89.6342
0
LINE
8
BLACK
6
CONTINUOUS
10
187.006
20
-89.6342
11
186.422
21
-88.5237
0
LINE
8
BLACK
6
CONTINUOUS
10
186.422
20
-88.5237
11
185.805
21
-87.4312
0
LINE
8
BLACK
6
CONTINUOUS
10
185.805
20
-87.4312
11
185.155
21
-86.3579
0
LINE
8
BLACK
6
CONTINUOUS
10
185.155
20
-86.3579
11
184.474
21
-85.3047
0
LINE
8
BLACK
6
CONTINUOUS
10
184.474
20
-85.3047
11
183.76
21
-84.2724
0
LINE
8
BLACK
6
CONTINUOUS
10
183.76
20
-84.2724
11
183.016
21
-83.2621
0
LINE
8
BLACK
6
CONTINUOUS
10
183.016
20
-83.2621
11
182.242
21
-82.2747
0
LINE
8
BLACK
6
CONTINUOUS
10
182.242
20
-82.2747
11
181.439
21
-81.3111
0
LINE
8
BLACK
6
CONTINUOUS
10
181.439
20
-81.3111
11
180.607
21
-80.3721
0
LINE
8
BLACK
6
CONTINUOUS
10
180.607
20
-80.3721
11
179.747
21
-79.4586
0
LINE
8
BLACK
6
CONTINUOUS
10
179.747
20
-79.4586
11
178.859
21
-78.5714
0
LINE
8
BLACK
6
CONTINUOUS
10
178.859
20
-78.5714
11
177.946
21
-77.7113
0
LINE
8
BLACK
6
CONTINUOUS
10
177.946
20
-77.7113
11
177.007
21
-76.8792
0
LINE
8
BLACK
6
CONTINUOUS
10
177.007
20
-76.8792
11
176.043
21
-76.0757
0
LINE
8
BLACK
6
CONTINUOUS
10
176.043
20
-76.0757
11
175.056
21
-75.3016
0
LINE
8
BLACK
6
CONTINUOUS
10
175.056
20
-75.3016
11
174.046
21
-74.5576
0
LINE
8
BLACK
6
CONTINUOUS
10
174.046
20
-74.5576
11
173.013
21
-73.8444
0
LINE
8
BLACK
6
CONTINUOUS
10
173.013
20
-73.8444
11
171.96
21
-73.1626
0
LINE
8
BLACK
6
CONTINUOUS
10
171.96
20
-73.1626
11
170.887
21
-72.5129
0
LINE
8
BLACK
6
CONTINUOUS
10
170.887
20
-72.5129
11
169.794
21
-71.8957
0
LINE
8
BLACK
6
CONTINUOUS
10
169.794
20
-71.8957
11
168.684
21
-71.3118
0
LINE
8
BLACK
6
CONTINUOUS
10
168.684
20
-71.3118
11
167.556
21
-70.7616
0
LINE
8
BLACK
6
CONTINUOUS
10
167.556
20
-70.7616
11
166.994
21
-70.508
0
LINE
8
BLACK
6
CONTINUOUS
10
166.994
20
-70.508
11
132.726
21
-70.508
  0
ENDSEC
  0
EOF
