G04 #@! TF.GenerationSoftware,KiCad,Pcbnew,7.0.8*
G04 #@! TF.CreationDate,2024-06-27T14:34:40-03:00*
G04 #@! TF.ProjectId,sensor_module,73656e73-6f72-45f6-9d6f-64756c652e6b,1.0*
G04 #@! TF.SameCoordinates,Original*
G04 #@! TF.FileFunction,Legend,Bot*
G04 #@! TF.FilePolarity,Positive*
%FSLAX46Y46*%
G04 Gerber Fmt 4.6, Leading zero omitted, Abs format (unit mm)*
G04 Created by KiCad (PCBNEW 7.0.8) date 2024-06-27 14:34:40*
%MOMM*%
%LPD*%
G01*
G04 APERTURE LIST*
G04 Aperture macros list*
%AMRoundRect*
0 Rectangle with rounded corners*
0 $1 Rounding radius*
0 $2 $3 $4 $5 $6 $7 $8 $9 X,Y pos of 4 corners*
0 Add a 4 corners polygon primitive as box body*
4,1,4,$2,$3,$4,$5,$6,$7,$8,$9,$2,$3,0*
0 Add four circle primitives for the rounded corners*
1,1,$1+$1,$2,$3*
1,1,$1+$1,$4,$5*
1,1,$1+$1,$6,$7*
1,1,$1+$1,$8,$9*
0 Add four rect primitives between the rounded corners*
20,1,$1+$1,$2,$3,$4,$5,0*
20,1,$1+$1,$4,$5,$6,$7,0*
20,1,$1+$1,$6,$7,$8,$9,0*
20,1,$1+$1,$8,$9,$2,$3,0*%
G04 Aperture macros list end*
%ADD10C,0.350000*%
%ADD11C,0.400000*%
%ADD12C,0.200000*%
%ADD13C,0.300000*%
%ADD14C,1.500000*%
%ADD15C,2.500000*%
%ADD16RoundRect,0.102000X-0.611000X-0.611000X0.611000X-0.611000X0.611000X0.611000X-0.611000X0.611000X0*%
%ADD17C,1.426000*%
%ADD18R,2.000000X2.000000*%
%ADD19C,2.000000*%
%ADD20R,2.000000X2.300000*%
%ADD21C,2.300000*%
%ADD22R,1.700000X1.700000*%
%ADD23O,1.700000X1.700000*%
%ADD24R,2.600000X2.600000*%
%ADD25C,2.600000*%
%ADD26R,1.800000X1.800000*%
%ADD27C,1.800000*%
%ADD28C,1.524800*%
%ADD29RoundRect,0.102000X-0.825500X0.825500X-0.825500X-0.825500X0.825500X-0.825500X0.825500X0.825500X0*%
%ADD30C,1.855000*%
%ADD31C,2.400000*%
%ADD32R,1.500000X1.500000*%
G04 APERTURE END LIST*
D10*
X135890000Y-101549200D02*
X132040000Y-101549200D01*
X130640000Y-101549200D02*
X126790000Y-101549200D01*
X125390000Y-101549200D02*
X121540000Y-101549200D01*
X120140000Y-101549200D02*
X116290000Y-101549200D01*
X114890000Y-101549200D02*
X111861600Y-101549200D01*
X142875000Y-83253632D02*
X142240000Y-83253632D01*
X145854369Y-80518000D02*
X145854369Y-76668000D01*
X145854369Y-75268000D02*
X145854369Y-71418000D01*
X144354369Y-83253569D02*
G75*
G03*
X145854369Y-81753632I-69J1500069D01*
G01*
X140565000Y-83253600D02*
G75*
G03*
X139065000Y-84753632I100J-1500100D01*
G01*
X139065000Y-98933000D02*
X139065000Y-95083000D01*
X139065000Y-93683000D02*
X139065000Y-89833000D01*
X139065000Y-88433000D02*
X139065000Y-86233000D01*
X137565000Y-101549200D02*
G75*
G03*
X139065000Y-100049200I-100J1500100D01*
G01*
D11*
X120947618Y-107053747D02*
X122138094Y-107053747D01*
X122138094Y-107053747D02*
X122138094Y-104553747D01*
X120471427Y-104553747D02*
X119638094Y-107053747D01*
X119638094Y-107053747D02*
X118804761Y-104553747D01*
X122435713Y-98671747D02*
X122435713Y-96171747D01*
X122435713Y-97362223D02*
X121007142Y-97362223D01*
X121007142Y-98671747D02*
X121007142Y-96171747D01*
X120173808Y-96171747D02*
X119340475Y-98671747D01*
X119340475Y-98671747D02*
X118507142Y-96171747D01*
D12*
G36*
X136334612Y-118710358D02*
G01*
X136359281Y-118735026D01*
X136389086Y-118794636D01*
X136389086Y-119033136D01*
X136359281Y-119092744D01*
X136334612Y-119117414D01*
X136275003Y-119147220D01*
X136131741Y-119147220D01*
X136112896Y-119137797D01*
X136112896Y-118689975D01*
X136131741Y-118680553D01*
X136275003Y-118680553D01*
X136334612Y-118710358D01*
G37*
G36*
X120001275Y-118710358D02*
G01*
X120025944Y-118735026D01*
X120055749Y-118794636D01*
X120055749Y-119033136D01*
X120025944Y-119092744D01*
X120001275Y-119117414D01*
X119941666Y-119147220D01*
X119846023Y-119147220D01*
X119786413Y-119117415D01*
X119761746Y-119092747D01*
X119731940Y-119033135D01*
X119731940Y-118794636D01*
X119761745Y-118735026D01*
X119786413Y-118710357D01*
X119846023Y-118680553D01*
X119941666Y-118680553D01*
X120001275Y-118710358D01*
G37*
G36*
X122366928Y-118988422D02*
G01*
X122389083Y-119032731D01*
X122389083Y-119080755D01*
X122366928Y-119125064D01*
X122322619Y-119147220D01*
X122131738Y-119147220D01*
X122112893Y-119137797D01*
X122112893Y-118966267D01*
X122322619Y-118966267D01*
X122366928Y-118988422D01*
G37*
G36*
X124652643Y-118988422D02*
G01*
X124674798Y-119032731D01*
X124674798Y-119080755D01*
X124652643Y-119125064D01*
X124608334Y-119147220D01*
X124417453Y-119147220D01*
X124398608Y-119137797D01*
X124398608Y-118966267D01*
X124608334Y-118966267D01*
X124652643Y-118988422D01*
G37*
G36*
X128224072Y-118988422D02*
G01*
X128246227Y-119032731D01*
X128246227Y-119080755D01*
X128224072Y-119125064D01*
X128179763Y-119147220D01*
X127988882Y-119147220D01*
X127970037Y-119137797D01*
X127970037Y-118966267D01*
X128179763Y-118966267D01*
X128224072Y-118988422D01*
G37*
G36*
X132008133Y-118689975D02*
G01*
X132008133Y-119137797D01*
X131989288Y-119147220D01*
X131846026Y-119147220D01*
X131786416Y-119117415D01*
X131761749Y-119092747D01*
X131731943Y-119033135D01*
X131731943Y-118794636D01*
X131761748Y-118735026D01*
X131786416Y-118710357D01*
X131846026Y-118680553D01*
X131989288Y-118680553D01*
X132008133Y-118689975D01*
G37*
G36*
X133667945Y-118710358D02*
G01*
X133692614Y-118735026D01*
X133722419Y-118794636D01*
X133722419Y-119033136D01*
X133692614Y-119092744D01*
X133667945Y-119117414D01*
X133608336Y-119147220D01*
X133465074Y-119147220D01*
X133446229Y-119137797D01*
X133446229Y-118689975D01*
X133465074Y-118680553D01*
X133608336Y-118680553D01*
X133667945Y-118710358D01*
G37*
G36*
X134557407Y-118702708D02*
G01*
X134579562Y-118747017D01*
X134579562Y-118791905D01*
X134308076Y-118737608D01*
X134325527Y-118702707D01*
X134369836Y-118680553D01*
X134513098Y-118680553D01*
X134557407Y-118702708D01*
G37*
G36*
X138509788Y-118702708D02*
G01*
X138531943Y-118747017D01*
X138531943Y-118791905D01*
X138260457Y-118737608D01*
X138277908Y-118702707D01*
X138322217Y-118680553D01*
X138465479Y-118680553D01*
X138509788Y-118702708D01*
G37*
G36*
X139484324Y-119147220D02*
G01*
X139362455Y-119147220D01*
X139257390Y-119112198D01*
X139190320Y-119045128D01*
X139154866Y-118974219D01*
X139112896Y-118806338D01*
X139112896Y-118688101D01*
X139154866Y-118520219D01*
X139190319Y-118449313D01*
X139257391Y-118382241D01*
X139362455Y-118347220D01*
X139484324Y-118347220D01*
X139484324Y-119147220D01*
G37*
G36*
X129588438Y-118861505D02*
G01*
X129389733Y-118861505D01*
X129489085Y-118563447D01*
X129588438Y-118861505D01*
G37*
G36*
X139827181Y-119823410D02*
G01*
X119389083Y-119823410D01*
X119389083Y-119056743D01*
X119531940Y-119056743D01*
X119539063Y-119078666D01*
X119542497Y-119101464D01*
X119590116Y-119196702D01*
X119601489Y-119208249D01*
X119608848Y-119222691D01*
X119656466Y-119270311D01*
X119670909Y-119277670D01*
X119682457Y-119289044D01*
X119777694Y-119336663D01*
X119800492Y-119340096D01*
X119822416Y-119347220D01*
X119965273Y-119347220D01*
X119987196Y-119340096D01*
X120009994Y-119336663D01*
X120105232Y-119289044D01*
X120116780Y-119277669D01*
X120131222Y-119270311D01*
X120154313Y-119247220D01*
X120484321Y-119247220D01*
X120503419Y-119305999D01*
X120553419Y-119342326D01*
X120615223Y-119342326D01*
X120665223Y-119305999D01*
X120684321Y-119247220D01*
X120684321Y-118747017D01*
X120706476Y-118702707D01*
X120750785Y-118680553D01*
X120846428Y-118680553D01*
X120906037Y-118710358D01*
X120912892Y-118717212D01*
X120912892Y-119247220D01*
X120931990Y-119305999D01*
X120981990Y-119342326D01*
X121043794Y-119342326D01*
X121093794Y-119305999D01*
X121108053Y-119262113D01*
X121294960Y-119262113D01*
X121322599Y-119317392D01*
X121377452Y-119345868D01*
X121438566Y-119336663D01*
X121533804Y-119289044D01*
X121534370Y-119288485D01*
X121535158Y-119288355D01*
X121556351Y-119266836D01*
X121576268Y-119247220D01*
X121912893Y-119247220D01*
X121931991Y-119305999D01*
X121981991Y-119342326D01*
X122043795Y-119342326D01*
X122056407Y-119333162D01*
X122063409Y-119336663D01*
X122086207Y-119340096D01*
X122108131Y-119347220D01*
X122346226Y-119347220D01*
X122368149Y-119340096D01*
X122390947Y-119336663D01*
X122486185Y-119289044D01*
X122486751Y-119288485D01*
X122487539Y-119288355D01*
X122508732Y-119266836D01*
X122530218Y-119245675D01*
X122530348Y-119244888D01*
X122530907Y-119244322D01*
X122578526Y-119149083D01*
X122581959Y-119126285D01*
X122589083Y-119104362D01*
X122589083Y-119009124D01*
X122581959Y-118987200D01*
X122578526Y-118964402D01*
X122530907Y-118869165D01*
X122530348Y-118868598D01*
X122530218Y-118867812D01*
X122508715Y-118846634D01*
X122487538Y-118825132D01*
X122486751Y-118825001D01*
X122486185Y-118824443D01*
X122390947Y-118776824D01*
X122368149Y-118773390D01*
X122346226Y-118766267D01*
X122131738Y-118766267D01*
X122112893Y-118756844D01*
X122112893Y-118747017D01*
X122135048Y-118702707D01*
X122179357Y-118680553D01*
X122322619Y-118680553D01*
X122396742Y-118717615D01*
X122457857Y-118726820D01*
X122512709Y-118698344D01*
X122540349Y-118643065D01*
X122530218Y-118582098D01*
X122500074Y-118552409D01*
X122726459Y-118552409D01*
X122728243Y-118614187D01*
X122966338Y-119280853D01*
X122983533Y-119303139D01*
X122999423Y-119326392D01*
X123002255Y-119327403D01*
X123004093Y-119329785D01*
X123031111Y-119337709D01*
X123057626Y-119347179D01*
X123060512Y-119346332D01*
X123063398Y-119347179D01*
X123089912Y-119337709D01*
X123116931Y-119329785D01*
X123118768Y-119327403D01*
X123121601Y-119326392D01*
X123137486Y-119303144D01*
X123154686Y-119280854D01*
X123392781Y-118614187D01*
X123392860Y-118611455D01*
X123441597Y-118611455D01*
X123477924Y-118661455D01*
X123536703Y-118680553D01*
X123608334Y-118680553D01*
X123667943Y-118710358D01*
X123692612Y-118735026D01*
X123722417Y-118794636D01*
X123722417Y-119247220D01*
X123741515Y-119305999D01*
X123791515Y-119342326D01*
X123853319Y-119342326D01*
X123903319Y-119305999D01*
X123922417Y-119247220D01*
X124198608Y-119247220D01*
X124217706Y-119305999D01*
X124267706Y-119342326D01*
X124329510Y-119342326D01*
X124342122Y-119333162D01*
X124349124Y-119336663D01*
X124371922Y-119340096D01*
X124393846Y-119347220D01*
X124631941Y-119347220D01*
X124653864Y-119340096D01*
X124676662Y-119336663D01*
X124771900Y-119289044D01*
X124772466Y-119288485D01*
X124773254Y-119288355D01*
X124794447Y-119266836D01*
X124815933Y-119245675D01*
X124816063Y-119244888D01*
X124816622Y-119244322D01*
X124854971Y-119167623D01*
X125056981Y-119167623D01*
X125085040Y-119222691D01*
X125132658Y-119270311D01*
X125153200Y-119280777D01*
X125171747Y-119294469D01*
X125314604Y-119342088D01*
X125330811Y-119342211D01*
X125346227Y-119347220D01*
X125441465Y-119347220D01*
X125456880Y-119342211D01*
X125473088Y-119342088D01*
X125615944Y-119294469D01*
X125634491Y-119280777D01*
X125655033Y-119270311D01*
X125678124Y-119247220D01*
X126865275Y-119247220D01*
X126884373Y-119305999D01*
X126934373Y-119342326D01*
X126996177Y-119342326D01*
X127046177Y-119305999D01*
X127065275Y-119247220D01*
X127065275Y-118747017D01*
X127087430Y-118702707D01*
X127131739Y-118680553D01*
X127227382Y-118680553D01*
X127286991Y-118710358D01*
X127293846Y-118717212D01*
X127293846Y-119247220D01*
X127312944Y-119305999D01*
X127362944Y-119342326D01*
X127424748Y-119342326D01*
X127474748Y-119305999D01*
X127493846Y-119247220D01*
X127770037Y-119247220D01*
X127789135Y-119305999D01*
X127839135Y-119342326D01*
X127900939Y-119342326D01*
X127913551Y-119333162D01*
X127920553Y-119336663D01*
X127943351Y-119340096D01*
X127965275Y-119347220D01*
X128203370Y-119347220D01*
X128225293Y-119340096D01*
X128248091Y-119336663D01*
X128343329Y-119289044D01*
X128343895Y-119288485D01*
X128344683Y-119288355D01*
X128365876Y-119266836D01*
X128370672Y-119262113D01*
X128580676Y-119262113D01*
X128608315Y-119317392D01*
X128663168Y-119345868D01*
X128724282Y-119336663D01*
X128819520Y-119289044D01*
X128820086Y-119288485D01*
X128820874Y-119288355D01*
X128831664Y-119277399D01*
X129060414Y-119277399D01*
X129096361Y-119327673D01*
X129154993Y-119347218D01*
X129213915Y-119328566D01*
X129250620Y-119278843D01*
X129323066Y-119061505D01*
X129655104Y-119061505D01*
X129727550Y-119278842D01*
X129764255Y-119328566D01*
X129823177Y-119347217D01*
X129881809Y-119327673D01*
X129917756Y-119277399D01*
X129917286Y-119215597D01*
X129696224Y-118552409D01*
X130726461Y-118552409D01*
X130728245Y-118614187D01*
X130966340Y-119280853D01*
X130967536Y-119282403D01*
X130967666Y-119284359D01*
X131062904Y-119522454D01*
X131075855Y-119537998D01*
X131085041Y-119556026D01*
X131132660Y-119603644D01*
X131147101Y-119611002D01*
X131158650Y-119622377D01*
X131253887Y-119669996D01*
X131315002Y-119679201D01*
X131369854Y-119650725D01*
X131397494Y-119595446D01*
X131387363Y-119534479D01*
X131343330Y-119491110D01*
X131262606Y-119450748D01*
X131240976Y-119429118D01*
X131225360Y-119390077D01*
X135912896Y-119390077D01*
X135920019Y-119412000D01*
X135923453Y-119434798D01*
X135971072Y-119530036D01*
X135982445Y-119541583D01*
X135989804Y-119556026D01*
X136037423Y-119603644D01*
X136051864Y-119611002D01*
X136063413Y-119622377D01*
X136158650Y-119669996D01*
X136181448Y-119673429D01*
X136203372Y-119680553D01*
X136346229Y-119680553D01*
X136368152Y-119673429D01*
X136390950Y-119669996D01*
X136486188Y-119622377D01*
X136530221Y-119579008D01*
X136540352Y-119518041D01*
X136512712Y-119462762D01*
X136457860Y-119434286D01*
X136396745Y-119443491D01*
X136322622Y-119480553D01*
X136226979Y-119480553D01*
X136167369Y-119450748D01*
X136142701Y-119426079D01*
X136112896Y-119366469D01*
X136112896Y-119347220D01*
X136298610Y-119347220D01*
X136320533Y-119340096D01*
X136343331Y-119336663D01*
X136438569Y-119289044D01*
X136450117Y-119277669D01*
X136464559Y-119270311D01*
X136487650Y-119247220D01*
X136817657Y-119247220D01*
X136836755Y-119305999D01*
X136886755Y-119342326D01*
X136948559Y-119342326D01*
X136998559Y-119305999D01*
X137017657Y-119247220D01*
X137017657Y-119104362D01*
X137246229Y-119104362D01*
X137253352Y-119126285D01*
X137256786Y-119149083D01*
X137304405Y-119244322D01*
X137304963Y-119244888D01*
X137305094Y-119245675D01*
X137326579Y-119266836D01*
X137347773Y-119288355D01*
X137348560Y-119288485D01*
X137349127Y-119289044D01*
X137444364Y-119336663D01*
X137467162Y-119340096D01*
X137489086Y-119347220D01*
X137679562Y-119347220D01*
X137701485Y-119340096D01*
X137724283Y-119336663D01*
X137819521Y-119289044D01*
X137863554Y-119245675D01*
X137873685Y-119184708D01*
X137846045Y-119129429D01*
X137791193Y-119100953D01*
X137730078Y-119110158D01*
X137655955Y-119147220D01*
X137512693Y-119147220D01*
X137468383Y-119125065D01*
X137446229Y-119080755D01*
X137446229Y-119080350D01*
X137468384Y-119036040D01*
X137512693Y-119013886D01*
X137631943Y-119013886D01*
X137653866Y-119006762D01*
X137676664Y-119003329D01*
X137771902Y-118955710D01*
X137772468Y-118955151D01*
X137773255Y-118955021D01*
X137794432Y-118933518D01*
X137815935Y-118912341D01*
X137816065Y-118911554D01*
X137816624Y-118910988D01*
X137862794Y-118818648D01*
X138055753Y-118818648D01*
X138057616Y-118824384D01*
X138056434Y-118830298D01*
X138067019Y-118853323D01*
X138074851Y-118877427D01*
X138079730Y-118880971D01*
X138082249Y-118886451D01*
X138104345Y-118898856D01*
X138124851Y-118913754D01*
X138130883Y-118913754D01*
X138136141Y-118916706D01*
X138531943Y-118995866D01*
X138531943Y-119080755D01*
X138509788Y-119125064D01*
X138465479Y-119147220D01*
X138322217Y-119147220D01*
X138248093Y-119110158D01*
X138186979Y-119100953D01*
X138132126Y-119129429D01*
X138104487Y-119184708D01*
X138114618Y-119245675D01*
X138158651Y-119289044D01*
X138253888Y-119336663D01*
X138276686Y-119340096D01*
X138298610Y-119347220D01*
X138489086Y-119347220D01*
X138511009Y-119340096D01*
X138533807Y-119336663D01*
X138629045Y-119289044D01*
X138629611Y-119288485D01*
X138630399Y-119288355D01*
X138651592Y-119266836D01*
X138673078Y-119245675D01*
X138673208Y-119244888D01*
X138673767Y-119244322D01*
X138721386Y-119149083D01*
X138724819Y-119126285D01*
X138731943Y-119104362D01*
X138731943Y-118818648D01*
X138912896Y-118818648D01*
X138916742Y-118830485D01*
X138915882Y-118842902D01*
X138963501Y-119033377D01*
X138969411Y-119042823D01*
X138971072Y-119053845D01*
X139018691Y-119149083D01*
X139030065Y-119160631D01*
X139037423Y-119175072D01*
X139132661Y-119270312D01*
X139153205Y-119280780D01*
X139171749Y-119294469D01*
X139314606Y-119342088D01*
X139330813Y-119342211D01*
X139346229Y-119347220D01*
X139584324Y-119347220D01*
X139599387Y-119342326D01*
X139615226Y-119342326D01*
X139628039Y-119333016D01*
X139643103Y-119328122D01*
X139652412Y-119315308D01*
X139665226Y-119305999D01*
X139670120Y-119290935D01*
X139679430Y-119278122D01*
X139679430Y-119262282D01*
X139684324Y-119247220D01*
X139684324Y-118247220D01*
X139679430Y-118232157D01*
X139679430Y-118216318D01*
X139670120Y-118203504D01*
X139665226Y-118188441D01*
X139652412Y-118179131D01*
X139643103Y-118166318D01*
X139628039Y-118161423D01*
X139615226Y-118152114D01*
X139599387Y-118152114D01*
X139584324Y-118147220D01*
X139346229Y-118147220D01*
X139330813Y-118152228D01*
X139314606Y-118152352D01*
X139171749Y-118199971D01*
X139153202Y-118213661D01*
X139132661Y-118224128D01*
X139037423Y-118319366D01*
X139030064Y-118333808D01*
X139018691Y-118345356D01*
X138971072Y-118440594D01*
X138969411Y-118451615D01*
X138963501Y-118461062D01*
X138915882Y-118651537D01*
X138916742Y-118663953D01*
X138912896Y-118675791D01*
X138912896Y-118818648D01*
X138731943Y-118818648D01*
X138731943Y-118723410D01*
X138724819Y-118701486D01*
X138721386Y-118678688D01*
X138673767Y-118583451D01*
X138673208Y-118582884D01*
X138673078Y-118582098D01*
X138651575Y-118560920D01*
X138630398Y-118539418D01*
X138629611Y-118539287D01*
X138629045Y-118538729D01*
X138533807Y-118491110D01*
X138511009Y-118487676D01*
X138489086Y-118480553D01*
X138298610Y-118480553D01*
X138276686Y-118487676D01*
X138253888Y-118491110D01*
X138158651Y-118538729D01*
X138158084Y-118539287D01*
X138157298Y-118539418D01*
X138136120Y-118560920D01*
X138114618Y-118582098D01*
X138114487Y-118582884D01*
X138113929Y-118583451D01*
X138066310Y-118678689D01*
X138062876Y-118701486D01*
X138055753Y-118723410D01*
X138055753Y-118818648D01*
X137862794Y-118818648D01*
X137864243Y-118815751D01*
X137867676Y-118792952D01*
X137874800Y-118771029D01*
X137874800Y-118723410D01*
X137867676Y-118701486D01*
X137864243Y-118678688D01*
X137816624Y-118583451D01*
X137816065Y-118582884D01*
X137815935Y-118582098D01*
X137794432Y-118560920D01*
X137773255Y-118539418D01*
X137772468Y-118539287D01*
X137771902Y-118538729D01*
X137676664Y-118491110D01*
X137653866Y-118487676D01*
X137631943Y-118480553D01*
X137489086Y-118480553D01*
X137467162Y-118487676D01*
X137444364Y-118491110D01*
X137349127Y-118538729D01*
X137305094Y-118582098D01*
X137294963Y-118643065D01*
X137322602Y-118698344D01*
X137377455Y-118726820D01*
X137438569Y-118717615D01*
X137512693Y-118680553D01*
X137608336Y-118680553D01*
X137652645Y-118702708D01*
X137674800Y-118747017D01*
X137674800Y-118747422D01*
X137652645Y-118791730D01*
X137608336Y-118813886D01*
X137489086Y-118813886D01*
X137467162Y-118821009D01*
X137444364Y-118824443D01*
X137349127Y-118872062D01*
X137348560Y-118872620D01*
X137347774Y-118872751D01*
X137326596Y-118894253D01*
X137305094Y-118915431D01*
X137304963Y-118916217D01*
X137304405Y-118916784D01*
X137256786Y-119012022D01*
X137253352Y-119034819D01*
X137246229Y-119056743D01*
X137246229Y-119104362D01*
X137017657Y-119104362D01*
X137017657Y-118580553D01*
X136998559Y-118521774D01*
X136948559Y-118485447D01*
X136886755Y-118485447D01*
X136836755Y-118521774D01*
X136817657Y-118580553D01*
X136817657Y-119247220D01*
X136487650Y-119247220D01*
X136512178Y-119222691D01*
X136519535Y-119208250D01*
X136530910Y-119196702D01*
X136578529Y-119101465D01*
X136581962Y-119078666D01*
X136589086Y-119056743D01*
X136589086Y-118771029D01*
X136581962Y-118749105D01*
X136578529Y-118726307D01*
X136530910Y-118631070D01*
X136519535Y-118619521D01*
X136512177Y-118605080D01*
X136464559Y-118557461D01*
X136450116Y-118550102D01*
X136438569Y-118538729D01*
X136343331Y-118491110D01*
X136320533Y-118487676D01*
X136298610Y-118480553D01*
X136108134Y-118480553D01*
X136086210Y-118487676D01*
X136063412Y-118491110D01*
X136056410Y-118494610D01*
X136043798Y-118485447D01*
X135981994Y-118485447D01*
X135931994Y-118521774D01*
X135912896Y-118580553D01*
X135912896Y-119390077D01*
X131225360Y-119390077D01*
X131167415Y-119245215D01*
X131234727Y-119056743D01*
X131531943Y-119056743D01*
X131539066Y-119078666D01*
X131542500Y-119101464D01*
X131590119Y-119196702D01*
X131601492Y-119208249D01*
X131608851Y-119222691D01*
X131656469Y-119270311D01*
X131670912Y-119277670D01*
X131682460Y-119289044D01*
X131777697Y-119336663D01*
X131800495Y-119340096D01*
X131822419Y-119347220D01*
X132012895Y-119347220D01*
X132034818Y-119340096D01*
X132057616Y-119336663D01*
X132064617Y-119333162D01*
X132077231Y-119342326D01*
X132139035Y-119342326D01*
X132189035Y-119305999D01*
X132208133Y-119247220D01*
X133246229Y-119247220D01*
X133265327Y-119305999D01*
X133315327Y-119342326D01*
X133377131Y-119342326D01*
X133389743Y-119333162D01*
X133396745Y-119336663D01*
X133419543Y-119340096D01*
X133441467Y-119347220D01*
X133631943Y-119347220D01*
X133653866Y-119340096D01*
X133676664Y-119336663D01*
X133771902Y-119289044D01*
X133783450Y-119277669D01*
X133797892Y-119270311D01*
X133845511Y-119222691D01*
X133852868Y-119208250D01*
X133864243Y-119196702D01*
X133911862Y-119101465D01*
X133915295Y-119078666D01*
X133922419Y-119056743D01*
X133922419Y-118818648D01*
X134103372Y-118818648D01*
X134105235Y-118824384D01*
X134104053Y-118830298D01*
X134114638Y-118853323D01*
X134122470Y-118877427D01*
X134127349Y-118880971D01*
X134129868Y-118886451D01*
X134151964Y-118898856D01*
X134172470Y-118913754D01*
X134178502Y-118913754D01*
X134183760Y-118916706D01*
X134579562Y-118995866D01*
X134579562Y-119080755D01*
X134557407Y-119125064D01*
X134513098Y-119147220D01*
X134369836Y-119147220D01*
X134295712Y-119110158D01*
X134234598Y-119100953D01*
X134179745Y-119129429D01*
X134152106Y-119184708D01*
X134162237Y-119245675D01*
X134206270Y-119289044D01*
X134301507Y-119336663D01*
X134324305Y-119340096D01*
X134346229Y-119347220D01*
X134536705Y-119347220D01*
X134558628Y-119340096D01*
X134581426Y-119336663D01*
X134676664Y-119289044D01*
X134677230Y-119288485D01*
X134678018Y-119288355D01*
X134699211Y-119266836D01*
X134719128Y-119247220D01*
X135008134Y-119247220D01*
X135027232Y-119305999D01*
X135077232Y-119342326D01*
X135139036Y-119342326D01*
X135189036Y-119305999D01*
X135208134Y-119247220D01*
X135208134Y-118747017D01*
X135230289Y-118702707D01*
X135274598Y-118680553D01*
X135370241Y-118680553D01*
X135429850Y-118710358D01*
X135436705Y-118717212D01*
X135436705Y-119247220D01*
X135455803Y-119305999D01*
X135505803Y-119342326D01*
X135567607Y-119342326D01*
X135617607Y-119305999D01*
X135636705Y-119247220D01*
X135636705Y-118580553D01*
X135617607Y-118521774D01*
X135567607Y-118485447D01*
X135505803Y-118485447D01*
X135473777Y-118508714D01*
X135438569Y-118491110D01*
X135415771Y-118487676D01*
X135393848Y-118480553D01*
X135250991Y-118480553D01*
X135229067Y-118487676D01*
X135206269Y-118491110D01*
X135111032Y-118538729D01*
X135110465Y-118539287D01*
X135109679Y-118539418D01*
X135088501Y-118560920D01*
X135066999Y-118582098D01*
X135066868Y-118582884D01*
X135066310Y-118583451D01*
X135018691Y-118678689D01*
X135015257Y-118701486D01*
X135008134Y-118723410D01*
X135008134Y-119247220D01*
X134719128Y-119247220D01*
X134720697Y-119245675D01*
X134720827Y-119244888D01*
X134721386Y-119244322D01*
X134769005Y-119149083D01*
X134772438Y-119126285D01*
X134779562Y-119104362D01*
X134779562Y-118723410D01*
X134772438Y-118701486D01*
X134769005Y-118678688D01*
X134721386Y-118583451D01*
X134720827Y-118582884D01*
X134720697Y-118582098D01*
X134699194Y-118560920D01*
X134678017Y-118539418D01*
X134677230Y-118539287D01*
X134676664Y-118538729D01*
X134581426Y-118491110D01*
X134558628Y-118487676D01*
X134536705Y-118480553D01*
X134346229Y-118480553D01*
X134324305Y-118487676D01*
X134301507Y-118491110D01*
X134206270Y-118538729D01*
X134205703Y-118539287D01*
X134204917Y-118539418D01*
X134183739Y-118560920D01*
X134162237Y-118582098D01*
X134162106Y-118582884D01*
X134161548Y-118583451D01*
X134113929Y-118678689D01*
X134110495Y-118701486D01*
X134103372Y-118723410D01*
X134103372Y-118818648D01*
X133922419Y-118818648D01*
X133922419Y-118771029D01*
X133915295Y-118749105D01*
X133911862Y-118726307D01*
X133864243Y-118631070D01*
X133852868Y-118619521D01*
X133845510Y-118605080D01*
X133797892Y-118557461D01*
X133783449Y-118550102D01*
X133771902Y-118538729D01*
X133676664Y-118491110D01*
X133653866Y-118487676D01*
X133631943Y-118480553D01*
X133446229Y-118480553D01*
X133446229Y-118310482D01*
X136771269Y-118310482D01*
X136778459Y-118324593D01*
X136780937Y-118340238D01*
X136792136Y-118351437D01*
X136799327Y-118365550D01*
X136846946Y-118413168D01*
X136861057Y-118420358D01*
X136872258Y-118431559D01*
X136880227Y-118432821D01*
X136886755Y-118437564D01*
X136894824Y-118437564D01*
X136902013Y-118441227D01*
X136917656Y-118438749D01*
X136933300Y-118441227D01*
X136940489Y-118437564D01*
X136948559Y-118437564D01*
X136955087Y-118432821D01*
X136963056Y-118431559D01*
X136974255Y-118420359D01*
X136988368Y-118413169D01*
X137035986Y-118365550D01*
X137043176Y-118351438D01*
X137054377Y-118340238D01*
X137056854Y-118324594D01*
X137064045Y-118310483D01*
X137061567Y-118294839D01*
X137064045Y-118279195D01*
X137056854Y-118265083D01*
X137054377Y-118249440D01*
X137043176Y-118238239D01*
X137035986Y-118224128D01*
X136988368Y-118176509D01*
X136974255Y-118169318D01*
X136963056Y-118158119D01*
X136955087Y-118156856D01*
X136948559Y-118152114D01*
X136940489Y-118152114D01*
X136933300Y-118148451D01*
X136917656Y-118150928D01*
X136902013Y-118148451D01*
X136894824Y-118152114D01*
X136886755Y-118152114D01*
X136880227Y-118156856D01*
X136872258Y-118158119D01*
X136861057Y-118169319D01*
X136846946Y-118176510D01*
X136799327Y-118224128D01*
X136792136Y-118238240D01*
X136780937Y-118249440D01*
X136778459Y-118265084D01*
X136771269Y-118279196D01*
X136773746Y-118294839D01*
X136771269Y-118310482D01*
X133446229Y-118310482D01*
X133446229Y-118247220D01*
X133427131Y-118188441D01*
X133377131Y-118152114D01*
X133315327Y-118152114D01*
X133265327Y-118188441D01*
X133246229Y-118247220D01*
X133246229Y-119247220D01*
X132208133Y-119247220D01*
X132208133Y-118247220D01*
X132189035Y-118188441D01*
X132139035Y-118152114D01*
X132077231Y-118152114D01*
X132027231Y-118188441D01*
X132008133Y-118247220D01*
X132008133Y-118480553D01*
X131822419Y-118480553D01*
X131800495Y-118487676D01*
X131777697Y-118491110D01*
X131682460Y-118538729D01*
X131670911Y-118550103D01*
X131656470Y-118557462D01*
X131608851Y-118605080D01*
X131601492Y-118619522D01*
X131590119Y-118631070D01*
X131542500Y-118726308D01*
X131539066Y-118749105D01*
X131531943Y-118771029D01*
X131531943Y-119056743D01*
X131234727Y-119056743D01*
X131392783Y-118614187D01*
X131394567Y-118552409D01*
X131359698Y-118501381D01*
X131301495Y-118480594D01*
X131242190Y-118497988D01*
X131204435Y-118546920D01*
X131060514Y-118949898D01*
X130916593Y-118546919D01*
X130878838Y-118497988D01*
X130819533Y-118480594D01*
X130761330Y-118501381D01*
X130726461Y-118552409D01*
X129696224Y-118552409D01*
X129583953Y-118215597D01*
X129566030Y-118191318D01*
X129548476Y-118166767D01*
X129547721Y-118166515D01*
X129547248Y-118165874D01*
X129518422Y-118156749D01*
X129489844Y-118147223D01*
X129489086Y-118147462D01*
X129488326Y-118147222D01*
X129459687Y-118156768D01*
X129430922Y-118165874D01*
X129430448Y-118166515D01*
X129429694Y-118166767D01*
X129412127Y-118191334D01*
X129394217Y-118215598D01*
X129060884Y-119215597D01*
X129060414Y-119277399D01*
X128831664Y-119277399D01*
X128842067Y-119266836D01*
X128863553Y-119245675D01*
X128863683Y-119244888D01*
X128864242Y-119244322D01*
X128911861Y-119149083D01*
X128915294Y-119126285D01*
X128922418Y-119104362D01*
X128922418Y-118247220D01*
X128903320Y-118188441D01*
X128853320Y-118152114D01*
X128791516Y-118152114D01*
X128741516Y-118188441D01*
X128722418Y-118247220D01*
X128722418Y-119080755D01*
X128700263Y-119125064D01*
X128634840Y-119157777D01*
X128590807Y-119201146D01*
X128580676Y-119262113D01*
X128370672Y-119262113D01*
X128387362Y-119245675D01*
X128387492Y-119244888D01*
X128388051Y-119244322D01*
X128435670Y-119149083D01*
X128439103Y-119126285D01*
X128446227Y-119104362D01*
X128446227Y-119009124D01*
X128439103Y-118987200D01*
X128435670Y-118964402D01*
X128388051Y-118869165D01*
X128387492Y-118868598D01*
X128387362Y-118867812D01*
X128365859Y-118846634D01*
X128344682Y-118825132D01*
X128343895Y-118825001D01*
X128343329Y-118824443D01*
X128248091Y-118776824D01*
X128225293Y-118773390D01*
X128203370Y-118766267D01*
X127988882Y-118766267D01*
X127970037Y-118756844D01*
X127970037Y-118747017D01*
X127992192Y-118702707D01*
X128036501Y-118680553D01*
X128179763Y-118680553D01*
X128253886Y-118717615D01*
X128315001Y-118726820D01*
X128369853Y-118698344D01*
X128397493Y-118643065D01*
X128387362Y-118582098D01*
X128343329Y-118538729D01*
X128248091Y-118491110D01*
X128225293Y-118487676D01*
X128203370Y-118480553D01*
X128012894Y-118480553D01*
X127990970Y-118487676D01*
X127968172Y-118491110D01*
X127872935Y-118538729D01*
X127872368Y-118539287D01*
X127871582Y-118539418D01*
X127850404Y-118560920D01*
X127828902Y-118582098D01*
X127828771Y-118582884D01*
X127828213Y-118583451D01*
X127780594Y-118678689D01*
X127777160Y-118701486D01*
X127770037Y-118723410D01*
X127770037Y-119247220D01*
X127493846Y-119247220D01*
X127493846Y-118580553D01*
X127474748Y-118521774D01*
X127424748Y-118485447D01*
X127362944Y-118485447D01*
X127330918Y-118508714D01*
X127295710Y-118491110D01*
X127272912Y-118487676D01*
X127250989Y-118480553D01*
X127108132Y-118480553D01*
X127086208Y-118487676D01*
X127063410Y-118491110D01*
X126968173Y-118538729D01*
X126967606Y-118539287D01*
X126966820Y-118539418D01*
X126945642Y-118560920D01*
X126924140Y-118582098D01*
X126924009Y-118582884D01*
X126923451Y-118583451D01*
X126875832Y-118678689D01*
X126872398Y-118701486D01*
X126865275Y-118723410D01*
X126865275Y-119247220D01*
X125678124Y-119247220D01*
X125750271Y-119175072D01*
X125757629Y-119160630D01*
X125769003Y-119149083D01*
X125816622Y-119053846D01*
X125818282Y-119042824D01*
X125824193Y-119033378D01*
X125871812Y-118842902D01*
X125870951Y-118830485D01*
X125874798Y-118818648D01*
X125874798Y-118675791D01*
X125870951Y-118663953D01*
X125871812Y-118651537D01*
X125824193Y-118461061D01*
X125818282Y-118451614D01*
X125816622Y-118440593D01*
X125769003Y-118345356D01*
X125757629Y-118333808D01*
X125750271Y-118319366D01*
X125655033Y-118224128D01*
X125634489Y-118213660D01*
X125615944Y-118199971D01*
X125473088Y-118152352D01*
X125456880Y-118152228D01*
X125441465Y-118147220D01*
X125346227Y-118147220D01*
X125330811Y-118152228D01*
X125314604Y-118152352D01*
X125171747Y-118199971D01*
X125153198Y-118213663D01*
X125132659Y-118224129D01*
X125085040Y-118271747D01*
X125056982Y-118326815D01*
X125066650Y-118387857D01*
X125110352Y-118431559D01*
X125171394Y-118441227D01*
X125226462Y-118413169D01*
X125257388Y-118382241D01*
X125362453Y-118347220D01*
X125425238Y-118347220D01*
X125530302Y-118382241D01*
X125597375Y-118449314D01*
X125632827Y-118520219D01*
X125674798Y-118688100D01*
X125674798Y-118806338D01*
X125632827Y-118974219D01*
X125597374Y-119045125D01*
X125530303Y-119112198D01*
X125425238Y-119147220D01*
X125362453Y-119147220D01*
X125257388Y-119112198D01*
X125226462Y-119081271D01*
X125171395Y-119053212D01*
X125110353Y-119062879D01*
X125066650Y-119106581D01*
X125056981Y-119167623D01*
X124854971Y-119167623D01*
X124864241Y-119149083D01*
X124867674Y-119126285D01*
X124874798Y-119104362D01*
X124874798Y-119009124D01*
X124867674Y-118987200D01*
X124864241Y-118964402D01*
X124816622Y-118869165D01*
X124816063Y-118868598D01*
X124815933Y-118867812D01*
X124794430Y-118846634D01*
X124773253Y-118825132D01*
X124772466Y-118825001D01*
X124771900Y-118824443D01*
X124676662Y-118776824D01*
X124653864Y-118773390D01*
X124631941Y-118766267D01*
X124417453Y-118766267D01*
X124398608Y-118756844D01*
X124398608Y-118747017D01*
X124420763Y-118702707D01*
X124465072Y-118680553D01*
X124608334Y-118680553D01*
X124682457Y-118717615D01*
X124743572Y-118726820D01*
X124798424Y-118698344D01*
X124826064Y-118643065D01*
X124815933Y-118582098D01*
X124771900Y-118538729D01*
X124676662Y-118491110D01*
X124653864Y-118487676D01*
X124631941Y-118480553D01*
X124441465Y-118480553D01*
X124419541Y-118487676D01*
X124396743Y-118491110D01*
X124301506Y-118538729D01*
X124300939Y-118539287D01*
X124300153Y-118539418D01*
X124278975Y-118560920D01*
X124257473Y-118582098D01*
X124257342Y-118582884D01*
X124256784Y-118583451D01*
X124209165Y-118678689D01*
X124205731Y-118701486D01*
X124198608Y-118723410D01*
X124198608Y-119247220D01*
X123922417Y-119247220D01*
X123922417Y-118580553D01*
X123903319Y-118521774D01*
X123853319Y-118485447D01*
X123791515Y-118485447D01*
X123741515Y-118521774D01*
X123741022Y-118523290D01*
X123676662Y-118491110D01*
X123653864Y-118487676D01*
X123631941Y-118480553D01*
X123536703Y-118480553D01*
X123477924Y-118499651D01*
X123441597Y-118549651D01*
X123441597Y-118611455D01*
X123392860Y-118611455D01*
X123394565Y-118552409D01*
X123359696Y-118501381D01*
X123301493Y-118480594D01*
X123242188Y-118497988D01*
X123204433Y-118546920D01*
X123060512Y-118949898D01*
X122916591Y-118546919D01*
X122878836Y-118497988D01*
X122819531Y-118480594D01*
X122761328Y-118501381D01*
X122726459Y-118552409D01*
X122500074Y-118552409D01*
X122486185Y-118538729D01*
X122390947Y-118491110D01*
X122368149Y-118487676D01*
X122346226Y-118480553D01*
X122155750Y-118480553D01*
X122133826Y-118487676D01*
X122111028Y-118491110D01*
X122015791Y-118538729D01*
X122015224Y-118539287D01*
X122014438Y-118539418D01*
X121993260Y-118560920D01*
X121971758Y-118582098D01*
X121971627Y-118582884D01*
X121971069Y-118583451D01*
X121923450Y-118678689D01*
X121920016Y-118701486D01*
X121912893Y-118723410D01*
X121912893Y-119247220D01*
X121576268Y-119247220D01*
X121577837Y-119245675D01*
X121577967Y-119244888D01*
X121578526Y-119244322D01*
X121626145Y-119149083D01*
X121629578Y-119126285D01*
X121636702Y-119104362D01*
X121636702Y-118247220D01*
X121617604Y-118188441D01*
X121567604Y-118152114D01*
X121505800Y-118152114D01*
X121455800Y-118188441D01*
X121436702Y-118247220D01*
X121436702Y-119080755D01*
X121414547Y-119125064D01*
X121349124Y-119157777D01*
X121305091Y-119201146D01*
X121294960Y-119262113D01*
X121108053Y-119262113D01*
X121112892Y-119247220D01*
X121112892Y-118247220D01*
X121093794Y-118188441D01*
X121043794Y-118152114D01*
X120981990Y-118152114D01*
X120931990Y-118188441D01*
X120912892Y-118247220D01*
X120912892Y-118490829D01*
X120891958Y-118487676D01*
X120870035Y-118480553D01*
X120727178Y-118480553D01*
X120705254Y-118487676D01*
X120682456Y-118491110D01*
X120587219Y-118538729D01*
X120586652Y-118539287D01*
X120585866Y-118539418D01*
X120564688Y-118560920D01*
X120543186Y-118582098D01*
X120543055Y-118582884D01*
X120542497Y-118583451D01*
X120494878Y-118678689D01*
X120491444Y-118701486D01*
X120484321Y-118723410D01*
X120484321Y-119247220D01*
X120154313Y-119247220D01*
X120178841Y-119222691D01*
X120186198Y-119208250D01*
X120197573Y-119196702D01*
X120245192Y-119101465D01*
X120248625Y-119078666D01*
X120255749Y-119056743D01*
X120255749Y-118771029D01*
X120248625Y-118749105D01*
X120245192Y-118726307D01*
X120197573Y-118631070D01*
X120186198Y-118619521D01*
X120178840Y-118605080D01*
X120131222Y-118557461D01*
X120116779Y-118550102D01*
X120105232Y-118538729D01*
X120009994Y-118491110D01*
X119987196Y-118487676D01*
X119965273Y-118480553D01*
X119822416Y-118480553D01*
X119800492Y-118487676D01*
X119777694Y-118491110D01*
X119682457Y-118538729D01*
X119670908Y-118550103D01*
X119656467Y-118557462D01*
X119608848Y-118605080D01*
X119601489Y-118619522D01*
X119590116Y-118631070D01*
X119542497Y-118726308D01*
X119539063Y-118749105D01*
X119531940Y-118771029D01*
X119531940Y-119056743D01*
X119389083Y-119056743D01*
X119389083Y-118004363D01*
X139827181Y-118004363D01*
X139827181Y-119823410D01*
G37*
D13*
G36*
X118559053Y-116447560D02*
G01*
X118592285Y-116514023D01*
X118592285Y-116581357D01*
X118185055Y-116499911D01*
X118211231Y-116447560D01*
X118277695Y-116414328D01*
X118492590Y-116414328D01*
X118559053Y-116447560D01*
G37*
G36*
X122010575Y-116459035D02*
G01*
X122047579Y-116496039D01*
X122092285Y-116585451D01*
X122092285Y-116943204D01*
X122047578Y-117032617D01*
X122010573Y-117069622D01*
X121921161Y-117114328D01*
X121706267Y-117114328D01*
X121678000Y-117100194D01*
X121678000Y-116428461D01*
X121706267Y-116414328D01*
X121921161Y-116414328D01*
X122010575Y-116459035D01*
G37*
G36*
X123367718Y-116459035D02*
G01*
X123404722Y-116496039D01*
X123449428Y-116585451D01*
X123449428Y-116943204D01*
X123404721Y-117032617D01*
X123367716Y-117069622D01*
X123278304Y-117114328D01*
X123134838Y-117114328D01*
X123045425Y-117069622D01*
X123008421Y-117032618D01*
X122963714Y-116943203D01*
X122963714Y-116585452D01*
X123008421Y-116496038D01*
X123045425Y-116459034D01*
X123134838Y-116414328D01*
X123278304Y-116414328D01*
X123367718Y-116459035D01*
G37*
G36*
X128510575Y-116459035D02*
G01*
X128547579Y-116496039D01*
X128592285Y-116585451D01*
X128592285Y-116943204D01*
X128547578Y-117032617D01*
X128510573Y-117069622D01*
X128421161Y-117114328D01*
X128277695Y-117114328D01*
X128188282Y-117069622D01*
X128151278Y-117032618D01*
X128106571Y-116943203D01*
X128106571Y-116585452D01*
X128151278Y-116496038D01*
X128188282Y-116459034D01*
X128277695Y-116414328D01*
X128421161Y-116414328D01*
X128510575Y-116459035D01*
G37*
G36*
X132416196Y-116447560D02*
G01*
X132449428Y-116514023D01*
X132449428Y-116581357D01*
X132042198Y-116499911D01*
X132068374Y-116447560D01*
X132134838Y-116414328D01*
X132349733Y-116414328D01*
X132416196Y-116447560D01*
G37*
G36*
X136449428Y-116400042D02*
G01*
X136063409Y-116400042D01*
X135973995Y-116355335D01*
X135936990Y-116318330D01*
X135892285Y-116228918D01*
X135892285Y-116085451D01*
X135936990Y-115996040D01*
X135973995Y-115959035D01*
X136063409Y-115914328D01*
X136449428Y-115914328D01*
X136449428Y-116400042D01*
G37*
G36*
X137748457Y-116685757D02*
G01*
X137450398Y-116685757D01*
X137599427Y-116238669D01*
X137748457Y-116685757D01*
G37*
G36*
X139820857Y-117628614D02*
G01*
X117663714Y-117628614D01*
X117663714Y-116621471D01*
X117878000Y-116621471D01*
X117884334Y-116645113D01*
X117885910Y-116669538D01*
X117894218Y-116682001D01*
X117898096Y-116696471D01*
X117915402Y-116713777D01*
X117928980Y-116734144D01*
X117942408Y-116740783D01*
X117953000Y-116751375D01*
X117976642Y-116757709D01*
X117998583Y-116768558D01*
X118592285Y-116887298D01*
X118592285Y-117014632D01*
X118559053Y-117081096D01*
X118492590Y-117114328D01*
X118277695Y-117114328D01*
X118166510Y-117058736D01*
X118090440Y-117043169D01*
X118016779Y-117067723D01*
X117965264Y-117125818D01*
X117949697Y-117201888D01*
X117974251Y-117275549D01*
X118032346Y-117327064D01*
X118175204Y-117398492D01*
X118208979Y-117405403D01*
X118242285Y-117414328D01*
X118528000Y-117414328D01*
X118561303Y-117405404D01*
X118595082Y-117398492D01*
X118737939Y-117327064D01*
X118744803Y-117320976D01*
X118753506Y-117318076D01*
X118773489Y-117295540D01*
X118796034Y-117275549D01*
X118798935Y-117266843D01*
X118805021Y-117259981D01*
X118807342Y-117255340D01*
X119092554Y-117255340D01*
X119108121Y-117331410D01*
X119159636Y-117389505D01*
X119233297Y-117414059D01*
X119309367Y-117398492D01*
X119452224Y-117327064D01*
X119459086Y-117320978D01*
X119467791Y-117318077D01*
X119487778Y-117295536D01*
X119510319Y-117275549D01*
X119513220Y-117266844D01*
X119515451Y-117264328D01*
X120020857Y-117264328D01*
X120040953Y-117339328D01*
X120095857Y-117394232D01*
X120170857Y-117414328D01*
X120245857Y-117394232D01*
X120267084Y-117373004D01*
X120318061Y-117398492D01*
X120351836Y-117405403D01*
X120385142Y-117414328D01*
X120599428Y-117414328D01*
X120632731Y-117405404D01*
X120666510Y-117398492D01*
X120809367Y-117327064D01*
X120816229Y-117320978D01*
X120824934Y-117318077D01*
X120844921Y-117295536D01*
X120867462Y-117275549D01*
X120870363Y-117266844D01*
X120872594Y-117264328D01*
X121378000Y-117264328D01*
X121398096Y-117339328D01*
X121453000Y-117394232D01*
X121528000Y-117414328D01*
X121597957Y-117395583D01*
X121603776Y-117398492D01*
X121637551Y-117405403D01*
X121670857Y-117414328D01*
X121956571Y-117414328D01*
X121989874Y-117405404D01*
X122023653Y-117398492D01*
X122166510Y-117327064D01*
X122184579Y-117311040D01*
X122205494Y-117298966D01*
X122276923Y-117227537D01*
X122288997Y-117206622D01*
X122305021Y-117188553D01*
X122376449Y-117045695D01*
X122383360Y-117011919D01*
X122392285Y-116978614D01*
X122663714Y-116978614D01*
X122672637Y-117011915D01*
X122679550Y-117045696D01*
X122750979Y-117188553D01*
X122767001Y-117206621D01*
X122779076Y-117227536D01*
X122850504Y-117298965D01*
X122871419Y-117311040D01*
X122889489Y-117327064D01*
X123032347Y-117398492D01*
X123066122Y-117405403D01*
X123099428Y-117414328D01*
X123313714Y-117414328D01*
X123347017Y-117405404D01*
X123380796Y-117398492D01*
X123523653Y-117327064D01*
X123541722Y-117311040D01*
X123562637Y-117298966D01*
X123597275Y-117264328D01*
X124092286Y-117264328D01*
X124112382Y-117339328D01*
X124167286Y-117394232D01*
X124242286Y-117414328D01*
X124317286Y-117394232D01*
X124372190Y-117339328D01*
X124392286Y-117264328D01*
X124392286Y-116440461D01*
X124606359Y-116899190D01*
X124614866Y-116909322D01*
X124619388Y-116921757D01*
X124639443Y-116938595D01*
X124656286Y-116958656D01*
X124668722Y-116963178D01*
X124678853Y-116971684D01*
X124704637Y-116976238D01*
X124729257Y-116985191D01*
X124742288Y-116982889D01*
X124755315Y-116985190D01*
X124779923Y-116976241D01*
X124805719Y-116971685D01*
X124815853Y-116963175D01*
X124828286Y-116958655D01*
X124845123Y-116938600D01*
X124865184Y-116921758D01*
X124869706Y-116909321D01*
X124878213Y-116899190D01*
X125092286Y-116440462D01*
X125092286Y-117264328D01*
X125112382Y-117339328D01*
X125167286Y-117394232D01*
X125242286Y-117414328D01*
X125317286Y-117394232D01*
X125372190Y-117339328D01*
X125392286Y-117264328D01*
X125392286Y-116264328D01*
X126735142Y-116264328D01*
X126755238Y-116339328D01*
X126810142Y-116394232D01*
X126885142Y-116414328D01*
X126992589Y-116414328D01*
X127082003Y-116459035D01*
X127119007Y-116496039D01*
X127163714Y-116585452D01*
X127163714Y-117264328D01*
X127183810Y-117339328D01*
X127238714Y-117394232D01*
X127313714Y-117414328D01*
X127388714Y-117394232D01*
X127443618Y-117339328D01*
X127463714Y-117264328D01*
X127463714Y-116978614D01*
X127806571Y-116978614D01*
X127815494Y-117011915D01*
X127822407Y-117045696D01*
X127893836Y-117188553D01*
X127909858Y-117206621D01*
X127921933Y-117227536D01*
X127993361Y-117298965D01*
X128014276Y-117311040D01*
X128032346Y-117327064D01*
X128175204Y-117398492D01*
X128208979Y-117405403D01*
X128242285Y-117414328D01*
X128456571Y-117414328D01*
X128489874Y-117405404D01*
X128523653Y-117398492D01*
X128666510Y-117327064D01*
X128684579Y-117311040D01*
X128705494Y-117298966D01*
X128776923Y-117227537D01*
X128788997Y-117206622D01*
X128805021Y-117188553D01*
X128874276Y-117050042D01*
X129163714Y-117050042D01*
X129172637Y-117083343D01*
X129179550Y-117117124D01*
X129250979Y-117259982D01*
X129257064Y-117266844D01*
X129259966Y-117275549D01*
X129282506Y-117295536D01*
X129302494Y-117318077D01*
X129311198Y-117320978D01*
X129318061Y-117327064D01*
X129460919Y-117398492D01*
X129494694Y-117405403D01*
X129528000Y-117414328D01*
X129813714Y-117414328D01*
X129847017Y-117405404D01*
X129880796Y-117398492D01*
X130023653Y-117327064D01*
X130081748Y-117275549D01*
X130085488Y-117264328D01*
X130449429Y-117264328D01*
X130469525Y-117339328D01*
X130524429Y-117394232D01*
X130599429Y-117414328D01*
X130674429Y-117394232D01*
X130729333Y-117339328D01*
X130749429Y-117264328D01*
X130749429Y-116514023D01*
X130782660Y-116447560D01*
X130849124Y-116414328D01*
X130992590Y-116414328D01*
X131082004Y-116459035D01*
X131092286Y-116469317D01*
X131092286Y-117264328D01*
X131112382Y-117339328D01*
X131167286Y-117394232D01*
X131242286Y-117414328D01*
X131317286Y-117394232D01*
X131372190Y-117339328D01*
X131392286Y-117264328D01*
X131392286Y-116621471D01*
X131735143Y-116621471D01*
X131741477Y-116645113D01*
X131743053Y-116669538D01*
X131751361Y-116682001D01*
X131755239Y-116696471D01*
X131772545Y-116713777D01*
X131786123Y-116734144D01*
X131799551Y-116740783D01*
X131810143Y-116751375D01*
X131833785Y-116757709D01*
X131855726Y-116768558D01*
X132449428Y-116887298D01*
X132449428Y-117014632D01*
X132416196Y-117081096D01*
X132349733Y-117114328D01*
X132134838Y-117114328D01*
X132023653Y-117058736D01*
X131947583Y-117043169D01*
X131873922Y-117067723D01*
X131822407Y-117125818D01*
X131806840Y-117201888D01*
X131831394Y-117275549D01*
X131889489Y-117327064D01*
X132032347Y-117398492D01*
X132066122Y-117405403D01*
X132099428Y-117414328D01*
X132385143Y-117414328D01*
X132418446Y-117405404D01*
X132452225Y-117398492D01*
X132595082Y-117327064D01*
X132601946Y-117320976D01*
X132610649Y-117318076D01*
X132630632Y-117295540D01*
X132653177Y-117275549D01*
X132656078Y-117266843D01*
X132662164Y-117259981D01*
X132733593Y-117117123D01*
X132740506Y-117083338D01*
X132749428Y-117050042D01*
X132749428Y-116978614D01*
X133020856Y-116978614D01*
X133029779Y-117011915D01*
X133036692Y-117045696D01*
X133108121Y-117188553D01*
X133124143Y-117206621D01*
X133136219Y-117227537D01*
X133207648Y-117298966D01*
X133228562Y-117311040D01*
X133246632Y-117327064D01*
X133389490Y-117398492D01*
X133423265Y-117405403D01*
X133456571Y-117414328D01*
X133813714Y-117414328D01*
X133837039Y-117408078D01*
X133861148Y-117406631D01*
X134075433Y-117335203D01*
X134140229Y-117292421D01*
X134174954Y-117222972D01*
X134170301Y-117145466D01*
X134127520Y-117080670D01*
X134058071Y-117045945D01*
X133980565Y-117050597D01*
X133789371Y-117114328D01*
X133491981Y-117114328D01*
X133402567Y-117069621D01*
X133365563Y-117032617D01*
X133320856Y-116943203D01*
X133320856Y-116871167D01*
X133365563Y-116781753D01*
X133402568Y-116744748D01*
X133508927Y-116691569D01*
X133778665Y-116624135D01*
X133793142Y-116616098D01*
X133809367Y-116612778D01*
X133952224Y-116541349D01*
X133970292Y-116525326D01*
X133991207Y-116513252D01*
X134062636Y-116441824D01*
X134074711Y-116420908D01*
X134090735Y-116402839D01*
X134159990Y-116264328D01*
X135592285Y-116264328D01*
X135601208Y-116297631D01*
X135608121Y-116331410D01*
X135679549Y-116474267D01*
X135695572Y-116492336D01*
X135707647Y-116513251D01*
X135779076Y-116584680D01*
X135799990Y-116596754D01*
X135818060Y-116612778D01*
X135960918Y-116684206D01*
X135994693Y-116691117D01*
X136027999Y-116700042D01*
X136449428Y-116700042D01*
X136449428Y-117264328D01*
X136469524Y-117339328D01*
X136524428Y-117394232D01*
X136599428Y-117414328D01*
X136674428Y-117394232D01*
X136729332Y-117339328D01*
X136741370Y-117294400D01*
X136952472Y-117294400D01*
X136987197Y-117363849D01*
X137051993Y-117406630D01*
X137129499Y-117411283D01*
X137198948Y-117376558D01*
X137241729Y-117311762D01*
X137350398Y-116985757D01*
X137848457Y-116985757D01*
X137957125Y-117311762D01*
X137999906Y-117376559D01*
X138069355Y-117411283D01*
X138146861Y-117406631D01*
X138211658Y-117363849D01*
X138246382Y-117294400D01*
X138244577Y-117264328D01*
X138449428Y-117264328D01*
X138469524Y-117339328D01*
X138524428Y-117394232D01*
X138599428Y-117414328D01*
X138674428Y-117394232D01*
X138729332Y-117339328D01*
X138749428Y-117264328D01*
X138749428Y-116628614D01*
X139306571Y-116628614D01*
X139306571Y-117264328D01*
X139326667Y-117339328D01*
X139381571Y-117394232D01*
X139456571Y-117414328D01*
X139531571Y-117394232D01*
X139586475Y-117339328D01*
X139606571Y-117264328D01*
X139606571Y-115764328D01*
X139586475Y-115689328D01*
X139531571Y-115634424D01*
X139456571Y-115614328D01*
X139381571Y-115634424D01*
X139326667Y-115689328D01*
X139306571Y-115764328D01*
X139306571Y-116328614D01*
X138749428Y-116328614D01*
X138749428Y-115764328D01*
X138729332Y-115689328D01*
X138674428Y-115634424D01*
X138599428Y-115614328D01*
X138524428Y-115634424D01*
X138469524Y-115689328D01*
X138449428Y-115764328D01*
X138449428Y-117264328D01*
X138244577Y-117264328D01*
X138241730Y-117216894D01*
X137741729Y-115716894D01*
X137725133Y-115691758D01*
X137711658Y-115664807D01*
X137704001Y-115659751D01*
X137698948Y-115652098D01*
X137672005Y-115638626D01*
X137646861Y-115622025D01*
X137637703Y-115621475D01*
X137629499Y-115617373D01*
X137599430Y-115619178D01*
X137569355Y-115617373D01*
X137561148Y-115621476D01*
X137551993Y-115622026D01*
X137526857Y-115638621D01*
X137499906Y-115652097D01*
X137494850Y-115659753D01*
X137487197Y-115664807D01*
X137473723Y-115691753D01*
X137457125Y-115716894D01*
X136957125Y-117216894D01*
X136952472Y-117294400D01*
X136741370Y-117294400D01*
X136749428Y-117264328D01*
X136749428Y-115764328D01*
X136729332Y-115689328D01*
X136674428Y-115634424D01*
X136599428Y-115614328D01*
X136027999Y-115614328D01*
X135994698Y-115623250D01*
X135960916Y-115630164D01*
X135818060Y-115701593D01*
X135799991Y-115717615D01*
X135779077Y-115729690D01*
X135707648Y-115801118D01*
X135695572Y-115822033D01*
X135679549Y-115840103D01*
X135608121Y-115982960D01*
X135601208Y-116016738D01*
X135592285Y-116050042D01*
X135592285Y-116264328D01*
X134159990Y-116264328D01*
X134162163Y-116259981D01*
X134169074Y-116226205D01*
X134177999Y-116192900D01*
X134177999Y-116050042D01*
X134169074Y-116016736D01*
X134162163Y-115982961D01*
X134090735Y-115840103D01*
X134074711Y-115822033D01*
X134062636Y-115801118D01*
X133991207Y-115729690D01*
X133970292Y-115717615D01*
X133952224Y-115701593D01*
X133809367Y-115630164D01*
X133775586Y-115623251D01*
X133742285Y-115614328D01*
X133385142Y-115614328D01*
X133361813Y-115620578D01*
X133337707Y-115622026D01*
X133123422Y-115693455D01*
X133058625Y-115736236D01*
X133023901Y-115805685D01*
X133028554Y-115883191D01*
X133071335Y-115947988D01*
X133140784Y-115982712D01*
X133218290Y-115978059D01*
X133409485Y-115914328D01*
X133706875Y-115914328D01*
X133796289Y-115959035D01*
X133833293Y-115996039D01*
X133877999Y-116085451D01*
X133877999Y-116157490D01*
X133833293Y-116246902D01*
X133796289Y-116283906D01*
X133689928Y-116337087D01*
X133420191Y-116404521D01*
X133405714Y-116412557D01*
X133389488Y-116415878D01*
X133246632Y-116487307D01*
X133228563Y-116503329D01*
X133207648Y-116515405D01*
X133136219Y-116586834D01*
X133124143Y-116607749D01*
X133108121Y-116625818D01*
X133036692Y-116768675D01*
X133029779Y-116802455D01*
X133020856Y-116835757D01*
X133020856Y-116978614D01*
X132749428Y-116978614D01*
X132749428Y-116478614D01*
X132740503Y-116445308D01*
X132733592Y-116411533D01*
X132662164Y-116268675D01*
X132656077Y-116261811D01*
X132653177Y-116253109D01*
X132630639Y-116233123D01*
X132610649Y-116210580D01*
X132601944Y-116207678D01*
X132595082Y-116201593D01*
X132452225Y-116130164D01*
X132418444Y-116123251D01*
X132385143Y-116114328D01*
X132099428Y-116114328D01*
X132066127Y-116123250D01*
X132032345Y-116130164D01*
X131889489Y-116201593D01*
X131882626Y-116207678D01*
X131873922Y-116210580D01*
X131853931Y-116233123D01*
X131831394Y-116253109D01*
X131828493Y-116261811D01*
X131822407Y-116268675D01*
X131750979Y-116411532D01*
X131744066Y-116445310D01*
X131735143Y-116478614D01*
X131735143Y-116621471D01*
X131392286Y-116621471D01*
X131392286Y-116264328D01*
X131372190Y-116189328D01*
X131317286Y-116134424D01*
X131242286Y-116114328D01*
X131167286Y-116134424D01*
X131146057Y-116155652D01*
X131095082Y-116130164D01*
X131061301Y-116123251D01*
X131028000Y-116114328D01*
X130813714Y-116114328D01*
X130780413Y-116123250D01*
X130746631Y-116130164D01*
X130603775Y-116201593D01*
X130596912Y-116207678D01*
X130588208Y-116210580D01*
X130568217Y-116233123D01*
X130545680Y-116253109D01*
X130542779Y-116261811D01*
X130536693Y-116268675D01*
X130465265Y-116411532D01*
X130458352Y-116445310D01*
X130449429Y-116478614D01*
X130449429Y-117264328D01*
X130085488Y-117264328D01*
X130106302Y-117201888D01*
X130090735Y-117125818D01*
X130039220Y-117067723D01*
X129965559Y-117043169D01*
X129889490Y-117058736D01*
X129778304Y-117114328D01*
X129563410Y-117114328D01*
X129496946Y-117081096D01*
X129463714Y-117014632D01*
X129463714Y-117014024D01*
X129496946Y-116947559D01*
X129563410Y-116914328D01*
X129742286Y-116914328D01*
X129775589Y-116905404D01*
X129809368Y-116898492D01*
X129952225Y-116827064D01*
X129959089Y-116820976D01*
X129967792Y-116818076D01*
X129987775Y-116795540D01*
X130010320Y-116775549D01*
X130013221Y-116766843D01*
X130019307Y-116759981D01*
X130090736Y-116617123D01*
X130097649Y-116583338D01*
X130106571Y-116550042D01*
X130106571Y-116478614D01*
X130097646Y-116445308D01*
X130090735Y-116411533D01*
X130019307Y-116268675D01*
X130013220Y-116261811D01*
X130010320Y-116253109D01*
X129987782Y-116233123D01*
X129967792Y-116210580D01*
X129959087Y-116207678D01*
X129952225Y-116201593D01*
X129809368Y-116130164D01*
X129775587Y-116123251D01*
X129742286Y-116114328D01*
X129528000Y-116114328D01*
X129494699Y-116123250D01*
X129460917Y-116130164D01*
X129318061Y-116201593D01*
X129259966Y-116253109D01*
X129235412Y-116326770D01*
X129250979Y-116402839D01*
X129302495Y-116460934D01*
X129376156Y-116485488D01*
X129452225Y-116469921D01*
X129563410Y-116414328D01*
X129706876Y-116414328D01*
X129773339Y-116447560D01*
X129806571Y-116514023D01*
X129806571Y-116514632D01*
X129773339Y-116581096D01*
X129706876Y-116614328D01*
X129528000Y-116614328D01*
X129494699Y-116623250D01*
X129460917Y-116630164D01*
X129318061Y-116701593D01*
X129311197Y-116707679D01*
X129302495Y-116710580D01*
X129282506Y-116733120D01*
X129259966Y-116753109D01*
X129257065Y-116761811D01*
X129250979Y-116768675D01*
X129179550Y-116911532D01*
X129172637Y-116945312D01*
X129163714Y-116978614D01*
X129163714Y-117050042D01*
X128874276Y-117050042D01*
X128876449Y-117045695D01*
X128883360Y-117011919D01*
X128892285Y-116978614D01*
X128892285Y-116550042D01*
X128883360Y-116516736D01*
X128876449Y-116482961D01*
X128805021Y-116340103D01*
X128788997Y-116322033D01*
X128776922Y-116301118D01*
X128705493Y-116229690D01*
X128684578Y-116217615D01*
X128666510Y-116201593D01*
X128523653Y-116130164D01*
X128489872Y-116123251D01*
X128456571Y-116114328D01*
X128242285Y-116114328D01*
X128208984Y-116123250D01*
X128175202Y-116130164D01*
X128032346Y-116201593D01*
X128014277Y-116217615D01*
X127993362Y-116229691D01*
X127921934Y-116301119D01*
X127909858Y-116322034D01*
X127893836Y-116340103D01*
X127822407Y-116482960D01*
X127815494Y-116516740D01*
X127806571Y-116550042D01*
X127806571Y-116978614D01*
X127463714Y-116978614D01*
X127463714Y-116264328D01*
X127443618Y-116189328D01*
X127388714Y-116134424D01*
X127313714Y-116114328D01*
X127238714Y-116134424D01*
X127193676Y-116179461D01*
X127095081Y-116130164D01*
X127061300Y-116123251D01*
X127027999Y-116114328D01*
X126885142Y-116114328D01*
X126810142Y-116134424D01*
X126755238Y-116189328D01*
X126735142Y-116264328D01*
X125392286Y-116264328D01*
X125392286Y-115764328D01*
X125390557Y-115757875D01*
X125391719Y-115751298D01*
X125380606Y-115720737D01*
X125372190Y-115689328D01*
X125367466Y-115684604D01*
X125365184Y-115678327D01*
X125340277Y-115657415D01*
X125317286Y-115634424D01*
X125310835Y-115632695D01*
X125305719Y-115628400D01*
X125273688Y-115622742D01*
X125242286Y-115614328D01*
X125235836Y-115616056D01*
X125229257Y-115614894D01*
X125198689Y-115626009D01*
X125167286Y-115634424D01*
X125162563Y-115639146D01*
X125156286Y-115641429D01*
X125135376Y-115666333D01*
X125112382Y-115689328D01*
X125110653Y-115695780D01*
X125106359Y-115700895D01*
X124742286Y-116481051D01*
X124378213Y-115700895D01*
X124373918Y-115695780D01*
X124372190Y-115689328D01*
X124349192Y-115666330D01*
X124328286Y-115641430D01*
X124322009Y-115639147D01*
X124317286Y-115634424D01*
X124285872Y-115626006D01*
X124255315Y-115614895D01*
X124248737Y-115616056D01*
X124242286Y-115614328D01*
X124210872Y-115622745D01*
X124178853Y-115628401D01*
X124173738Y-115632695D01*
X124167286Y-115634424D01*
X124144288Y-115657421D01*
X124119388Y-115678328D01*
X124117105Y-115684604D01*
X124112382Y-115689328D01*
X124103964Y-115720741D01*
X124092853Y-115751299D01*
X124094014Y-115757876D01*
X124092286Y-115764328D01*
X124092286Y-117264328D01*
X123597275Y-117264328D01*
X123634066Y-117227537D01*
X123646140Y-117206622D01*
X123662164Y-117188553D01*
X123733592Y-117045695D01*
X123740503Y-117011919D01*
X123749428Y-116978614D01*
X123749428Y-116550042D01*
X123740503Y-116516736D01*
X123733592Y-116482961D01*
X123662164Y-116340103D01*
X123646140Y-116322033D01*
X123634065Y-116301118D01*
X123562636Y-116229690D01*
X123541721Y-116217615D01*
X123523653Y-116201593D01*
X123380796Y-116130164D01*
X123347015Y-116123251D01*
X123313714Y-116114328D01*
X123099428Y-116114328D01*
X123066127Y-116123250D01*
X123032345Y-116130164D01*
X122889489Y-116201593D01*
X122871420Y-116217615D01*
X122850505Y-116229691D01*
X122779077Y-116301119D01*
X122767001Y-116322034D01*
X122750979Y-116340103D01*
X122679550Y-116482960D01*
X122672637Y-116516740D01*
X122663714Y-116550042D01*
X122663714Y-116978614D01*
X122392285Y-116978614D01*
X122392285Y-116550042D01*
X122383360Y-116516736D01*
X122376449Y-116482961D01*
X122305021Y-116340103D01*
X122288997Y-116322033D01*
X122276922Y-116301118D01*
X122205493Y-116229690D01*
X122184578Y-116217615D01*
X122166510Y-116201593D01*
X122023653Y-116130164D01*
X121989872Y-116123251D01*
X121956571Y-116114328D01*
X121678000Y-116114328D01*
X121678000Y-115764328D01*
X121657904Y-115689328D01*
X121603000Y-115634424D01*
X121528000Y-115614328D01*
X121453000Y-115634424D01*
X121398096Y-115689328D01*
X121378000Y-115764328D01*
X121378000Y-117264328D01*
X120872594Y-117264328D01*
X120876449Y-117259982D01*
X120947878Y-117117124D01*
X120954790Y-117083343D01*
X120963714Y-117050042D01*
X120963714Y-116264328D01*
X120943618Y-116189328D01*
X120888714Y-116134424D01*
X120813714Y-116114328D01*
X120738714Y-116134424D01*
X120683810Y-116189328D01*
X120663714Y-116264328D01*
X120663714Y-117014632D01*
X120630481Y-117081096D01*
X120564018Y-117114328D01*
X120420552Y-117114328D01*
X120331139Y-117069622D01*
X120320857Y-117059339D01*
X120320857Y-116264328D01*
X120300761Y-116189328D01*
X120245857Y-116134424D01*
X120170857Y-116114328D01*
X120095857Y-116134424D01*
X120040953Y-116189328D01*
X120020857Y-116264328D01*
X120020857Y-117264328D01*
X119515451Y-117264328D01*
X119519306Y-117259982D01*
X119590735Y-117117124D01*
X119597647Y-117083343D01*
X119606571Y-117050042D01*
X119606571Y-115764328D01*
X119586475Y-115689328D01*
X119531571Y-115634424D01*
X119456571Y-115614328D01*
X119381571Y-115634424D01*
X119326667Y-115689328D01*
X119306571Y-115764328D01*
X119306571Y-117014632D01*
X119273338Y-117081096D01*
X119175203Y-117130164D01*
X119117108Y-117181679D01*
X119092554Y-117255340D01*
X118807342Y-117255340D01*
X118876450Y-117117123D01*
X118883363Y-117083338D01*
X118892285Y-117050042D01*
X118892285Y-116478614D01*
X118883360Y-116445308D01*
X118876449Y-116411533D01*
X118805021Y-116268675D01*
X118798934Y-116261811D01*
X118796034Y-116253109D01*
X118773496Y-116233123D01*
X118753506Y-116210580D01*
X118744801Y-116207678D01*
X118737939Y-116201593D01*
X118595082Y-116130164D01*
X118561301Y-116123251D01*
X118528000Y-116114328D01*
X118242285Y-116114328D01*
X118208984Y-116123250D01*
X118175202Y-116130164D01*
X118032346Y-116201593D01*
X118025483Y-116207678D01*
X118016779Y-116210580D01*
X117996788Y-116233123D01*
X117974251Y-116253109D01*
X117971350Y-116261811D01*
X117965264Y-116268675D01*
X117893836Y-116411532D01*
X117886923Y-116445310D01*
X117878000Y-116478614D01*
X117878000Y-116621471D01*
X117663714Y-116621471D01*
X117663714Y-115400042D01*
X139820857Y-115400042D01*
X139820857Y-117628614D01*
G37*
G36*
X120963527Y-90941697D02*
G01*
X120975418Y-90985623D01*
X120999677Y-91083090D01*
X121033983Y-91224251D01*
X121076012Y-91399262D01*
X121123444Y-91598277D01*
X121173957Y-91811450D01*
X121225227Y-92028935D01*
X121274934Y-92240887D01*
X121320755Y-92437460D01*
X121360369Y-92608808D01*
X121391453Y-92745086D01*
X121411685Y-92836449D01*
X121418744Y-92873050D01*
X121417965Y-92874076D01*
X121379319Y-92869575D01*
X121291026Y-92847727D01*
X121164996Y-92811714D01*
X121013138Y-92764717D01*
X120994086Y-92758633D01*
X120841290Y-92710526D01*
X120713133Y-92671346D01*
X120622566Y-92644985D01*
X120582538Y-92635334D01*
X120578782Y-92639965D01*
X120578944Y-92690829D01*
X120592038Y-92785922D01*
X120616237Y-92910334D01*
X120619458Y-92925172D01*
X120654212Y-93086671D01*
X120688735Y-93249217D01*
X120715998Y-93379725D01*
X120755997Y-93574117D01*
X120923959Y-93551047D01*
X120979771Y-93544683D01*
X121057825Y-93544202D01*
X121079568Y-93560247D01*
X121066227Y-93586081D01*
X121023801Y-93660552D01*
X120960343Y-93768551D01*
X120883640Y-93896702D01*
X120823308Y-93996468D01*
X120758946Y-94102347D01*
X120714620Y-94174589D01*
X120697507Y-94201443D01*
X120693500Y-94200600D01*
X120650970Y-94174162D01*
X120574833Y-94118384D01*
X120477475Y-94043230D01*
X120371283Y-93958664D01*
X120268642Y-93874649D01*
X120181940Y-93801149D01*
X120123561Y-93748126D01*
X120105893Y-93725546D01*
X120117351Y-93720763D01*
X120182455Y-93703891D01*
X120276804Y-93685861D01*
X120311203Y-93679240D01*
X120386545Y-93653411D01*
X120407282Y-93623683D01*
X120403813Y-93613655D01*
X120377826Y-93530195D01*
X120340446Y-93401482D01*
X120294328Y-93237470D01*
X120242132Y-93048115D01*
X120186513Y-92843369D01*
X120130129Y-92633187D01*
X120075638Y-92427523D01*
X120025695Y-92236332D01*
X119982960Y-92069567D01*
X119950088Y-91937182D01*
X119929738Y-91849133D01*
X119924565Y-91815372D01*
X119928184Y-91814546D01*
X119976714Y-91827537D01*
X120071120Y-91863043D01*
X120199758Y-91916481D01*
X120350987Y-91983267D01*
X120390672Y-92001241D01*
X120536448Y-92066897D01*
X120655755Y-92120061D01*
X120737174Y-92155672D01*
X120769283Y-92168667D01*
X120765618Y-92150481D01*
X120744351Y-92078738D01*
X120707471Y-91962109D01*
X120658244Y-91810880D01*
X120599935Y-91635334D01*
X120421185Y-91102000D01*
X120574164Y-91102000D01*
X120591734Y-91101810D01*
X120725056Y-91080511D01*
X120840961Y-91015301D01*
X120871889Y-90992404D01*
X120934318Y-90951198D01*
X120962930Y-90940301D01*
X120963527Y-90941697D01*
G37*
G36*
X123511764Y-94347322D02*
G01*
X123562188Y-94438074D01*
X123580893Y-94477305D01*
X123579781Y-94550386D01*
X123553557Y-94618972D01*
X123542551Y-94626606D01*
X123516512Y-94634485D01*
X123472385Y-94641336D01*
X123406115Y-94647230D01*
X123313646Y-94652234D01*
X123190922Y-94656419D01*
X123033888Y-94659853D01*
X122838489Y-94662606D01*
X122600669Y-94664745D01*
X122316372Y-94666341D01*
X121981544Y-94667462D01*
X121592128Y-94668177D01*
X121144069Y-94668556D01*
X120633312Y-94668667D01*
X120483281Y-94668675D01*
X119987001Y-94668759D01*
X119552323Y-94668733D01*
X119175219Y-94668335D01*
X118851662Y-94667304D01*
X118577624Y-94665379D01*
X118349078Y-94662297D01*
X118161996Y-94657797D01*
X118012349Y-94651618D01*
X117896112Y-94643499D01*
X117809255Y-94633177D01*
X117747750Y-94620392D01*
X117707572Y-94604882D01*
X117684691Y-94586386D01*
X117675080Y-94564641D01*
X117674711Y-94539388D01*
X117679557Y-94510363D01*
X117685590Y-94477305D01*
X117703678Y-94439179D01*
X117753566Y-94349247D01*
X117780773Y-94302000D01*
X118172415Y-94302000D01*
X120633312Y-94302000D01*
X123094209Y-94302000D01*
X123045664Y-94227000D01*
X123043018Y-94222851D01*
X123009893Y-94169584D01*
X122946192Y-94066327D01*
X122855443Y-93918822D01*
X122741173Y-93732816D01*
X122606910Y-93514053D01*
X122456181Y-93268277D01*
X122292515Y-93001233D01*
X122119439Y-92718667D01*
X121948657Y-92439780D01*
X121764702Y-92139412D01*
X121585738Y-91847226D01*
X121416737Y-91571336D01*
X121262671Y-91319860D01*
X121128512Y-91100912D01*
X121019233Y-90922610D01*
X120939804Y-90793068D01*
X120855354Y-90657818D01*
X120765125Y-90519210D01*
X120691100Y-90412027D01*
X120639267Y-90344885D01*
X120615609Y-90326401D01*
X120600389Y-90348640D01*
X120554450Y-90420858D01*
X120484813Y-90532675D01*
X120397660Y-90674148D01*
X120299173Y-90835334D01*
X120291143Y-90848525D01*
X120189507Y-91015283D01*
X120066791Y-91216329D01*
X119926721Y-91445585D01*
X119773020Y-91696972D01*
X119609414Y-91964410D01*
X119439626Y-92241821D01*
X119267382Y-92523125D01*
X119096405Y-92802243D01*
X118930420Y-93073096D01*
X118773153Y-93329604D01*
X118628327Y-93565690D01*
X118499666Y-93775273D01*
X118390897Y-93952275D01*
X118305742Y-94090616D01*
X118247927Y-94184217D01*
X118221175Y-94227000D01*
X118172415Y-94302000D01*
X117780773Y-94302000D01*
X117832023Y-94213000D01*
X117935839Y-94035733D01*
X118061807Y-93822741D01*
X118206720Y-93579319D01*
X118367369Y-93310761D01*
X118540547Y-93022364D01*
X118723047Y-92719422D01*
X118911660Y-92407229D01*
X119103179Y-92091082D01*
X119294395Y-91776275D01*
X119482102Y-91468104D01*
X119663091Y-91171862D01*
X119834155Y-90892846D01*
X119992086Y-90636350D01*
X120133676Y-90407669D01*
X120255717Y-90212099D01*
X120355002Y-90054934D01*
X120428323Y-89941469D01*
X120472472Y-89877000D01*
X120547662Y-89800462D01*
X120633312Y-89768667D01*
X120707984Y-89793085D01*
X120793920Y-89877000D01*
X120836919Y-89939800D01*
X120909780Y-90052528D01*
X121008658Y-90209039D01*
X121130346Y-90404039D01*
X121271637Y-90632232D01*
X121429323Y-90888324D01*
X121600197Y-91167021D01*
X121781052Y-91463028D01*
X121968678Y-91771051D01*
X122159870Y-92085794D01*
X122351418Y-92401964D01*
X122540117Y-92714266D01*
X122722758Y-93017404D01*
X122896133Y-93306086D01*
X123057035Y-93575015D01*
X123202257Y-93818898D01*
X123328591Y-94032440D01*
X123432829Y-94210346D01*
X123485646Y-94302000D01*
X123511764Y-94347322D01*
G37*
%LPC*%
D14*
X151560000Y-138303000D03*
X148160000Y-138303000D03*
D15*
X114860000Y-92458000D03*
D16*
X171704000Y-126365001D03*
D17*
X174244000Y-123825001D03*
X176784000Y-126365001D03*
D18*
X146500000Y-89223000D03*
D19*
X145110000Y-92583000D03*
X146500000Y-95943000D03*
X153220000Y-95943000D03*
X154610000Y-92583000D03*
X153220000Y-89223000D03*
D18*
X181356000Y-87122000D03*
D19*
X173756000Y-87122000D03*
D20*
X130516000Y-94149500D03*
D21*
X125516000Y-94149500D03*
X135716000Y-123549500D03*
X120316000Y-123549500D03*
D22*
X163307000Y-119659000D03*
D23*
X160767000Y-119659000D03*
X158227000Y-119659000D03*
D16*
X164084000Y-134366000D03*
D17*
X166624000Y-131826000D03*
X169164000Y-134366000D03*
D16*
X171704000Y-134366000D03*
D17*
X174244000Y-131826000D03*
X176784000Y-134366000D03*
D24*
X142494000Y-77419000D03*
D25*
X137414000Y-77419000D03*
D15*
X114860000Y-124458000D03*
D26*
X166370000Y-76454000D03*
D27*
X166370000Y-73914000D03*
D16*
X164084000Y-126365000D03*
D17*
X166624000Y-123825000D03*
X169164000Y-126365000D03*
D28*
X147320000Y-108458000D03*
X149860000Y-110998000D03*
X152400000Y-108458000D03*
D15*
X184860000Y-124458000D03*
D29*
X153670000Y-114964000D03*
D30*
X151130000Y-114964000D03*
X148590000Y-114964000D03*
X146050000Y-114964000D03*
D15*
X184860000Y-92458000D03*
D31*
X135516000Y-87757000D03*
X120516000Y-87757000D03*
D22*
X143510000Y-144526000D03*
D23*
X146050000Y-144526000D03*
X148590000Y-144526000D03*
X151130000Y-144526000D03*
X153670000Y-144526000D03*
X156210000Y-144526000D03*
D32*
X125516000Y-81978001D03*
D14*
X125516000Y-79978001D03*
X125516000Y-77978001D03*
X130516000Y-81978001D03*
X130516000Y-79978001D03*
X130516000Y-77978001D03*
%LPD*%
M02*
