<?xml version="1.0" standalone="no"?>
 <!DOCTYPE svg PUBLIC "-//W3C//DTD SVG 1.1//EN" 
 "http://www.w3.org/Graphics/SVG/1.1/DTD/svg11.dtd"> 
<svg
  xmlns:svg="http://www.w3.org/2000/svg"
  xmlns="http://www.w3.org/2000/svg"
  xmlns:xlink="http://www.w3.org/1999/xlink"
  version="1.1"
  width="297.0022mm" height="210.0072mm" viewBox="0.0000 0.0000 297.0022 210.0072">
<title>SVG Image created as sensor_module-F_Mask.svg date 2024/06/27 17:33:00 </title>
  <desc>Image generated by PCBNEW </desc>
<g style="fill:#000000; fill-opacity:1.0000;stroke:#000000; stroke-opacity:1.0000;
stroke-linecap:round; stroke-linejoin:round;"
 transform="translate(0 0) scale(1 1)">
</g>
<g style="fill:#000000; fill-opacity:0.0; 
stroke:#000000; stroke-width:0.0000; stroke-opacity:1; 
stroke-linecap:round; stroke-linejoin:round;">
<g >
</g>
<g style="fill:#000000; fill-opacity:0.0; 
stroke:#000000; stroke-width:0.0000; stroke-opacity:1; 
stroke-linecap:round; stroke-linejoin:round;">
</g>
<g style="fill:#000000; fill-opacity:1.0000; 
stroke:#000000; stroke-width:0.0000; stroke-opacity:1; 
stroke-linecap:round; stroke-linejoin:round;">
<path style="fill:#000000; fill-opacity:1.0000; 
stroke:#000000; stroke-width:0.0000; stroke-opacity:1; 
stroke-linecap:round; stroke-linejoin:round;fill-rule:evenodd;"
d="M 169.9470,73.5140
170.0235,73.5292
170.0884,73.5726
170.1318,73.6375
170.1470,73.7140
170.1470,74.1140
170.1318,74.1905
170.0884,74.2554
170.0235,74.2988
169.9470,74.3140
169.3970,74.3140
169.3205,74.2988
169.2556,74.2554
169.2122,74.1905
169.1970,74.1140
169.1970,73.7140
169.2122,73.6375
169.2556,73.5726
169.3205,73.5292
169.3970,73.5140
Z" /> 
<path style="fill:#000000; fill-opacity:1.0000; 
stroke:#000000; stroke-width:0.0000; stroke-opacity:1; 
stroke-linecap:round; stroke-linejoin:round;fill-rule:evenodd;"
d="M 169.9470,75.1640
170.0235,75.1792
170.0884,75.2226
170.1318,75.2875
170.1470,75.3640
170.1470,75.7640
170.1318,75.8405
170.0884,75.9054
170.0235,75.9488
169.9470,75.9640
169.3970,75.9640
169.3205,75.9488
169.2556,75.9054
169.2122,75.8405
169.1970,75.7640
169.1970,75.3640
169.2122,75.2875
169.2556,75.2226
169.3205,75.1792
169.3970,75.1640
Z" /> 
</g>
<g >
</g>
<g style="fill:#000000; fill-opacity:1.0000; 
stroke:#000000; stroke-width:0.0000; stroke-opacity:1; 
stroke-linecap:round; stroke-linejoin:round;">
<path style="fill:#000000; fill-opacity:1.0000; 
stroke:#000000; stroke-width:0.0000; stroke-opacity:1; 
stroke-linecap:round; stroke-linejoin:round;fill-rule:evenodd;"
d="M 164.3830,80.8780
164.3982,80.8015
164.4416,80.7366
164.5065,80.6932
164.5830,80.6780
164.9830,80.6780
165.0595,80.6932
165.1244,80.7366
165.1678,80.8015
165.1830,80.8780
165.1830,81.4280
165.1678,81.5045
165.1244,81.5694
165.0595,81.6128
164.9830,81.6280
164.5830,81.6280
164.5065,81.6128
164.4416,81.5694
164.3982,81.5045
164.3830,81.4280
Z" /> 
<path style="fill:#000000; fill-opacity:1.0000; 
stroke:#000000; stroke-width:0.0000; stroke-opacity:1; 
stroke-linecap:round; stroke-linejoin:round;fill-rule:evenodd;"
d="M 166.0330,80.8780
166.0482,80.8015
166.0916,80.7366
166.1565,80.6932
166.2330,80.6780
166.6330,80.6780
166.7095,80.6932
166.7744,80.7366
166.8178,80.8015
166.8330,80.8780
166.8330,81.4280
166.8178,81.5045
166.7744,81.5694
166.7095,81.6128
166.6330,81.6280
166.2330,81.6280
166.1565,81.6128
166.0916,81.5694
166.0482,81.5045
166.0330,81.4280
Z" /> 
</g>
<g >
</g>
<g style="fill:#000000; fill-opacity:1.0000; 
stroke:#000000; stroke-width:0.0000; stroke-opacity:1; 
stroke-linecap:round; stroke-linejoin:round;">
<path style="fill:#000000; fill-opacity:1.0000; 
stroke:#000000; stroke-width:0.0000; stroke-opacity:1; 
stroke-linecap:round; stroke-linejoin:round;fill-rule:evenodd;"
d="M 162.1140,123.6500
162.0988,123.7265
162.0554,123.7914
161.9905,123.8348
161.9140,123.8500
161.5140,123.8500
161.4375,123.8348
161.3726,123.7914
161.3292,123.7265
161.3140,123.6500
161.3140,123.1000
161.3292,123.0235
161.3726,122.9586
161.4375,122.9152
161.5140,122.9000
161.9140,122.9000
161.9905,122.9152
162.0554,122.9586
162.0988,123.0235
162.1140,123.1000
Z" /> 
<path style="fill:#000000; fill-opacity:1.0000; 
stroke:#000000; stroke-width:0.0000; stroke-opacity:1; 
stroke-linecap:round; stroke-linejoin:round;fill-rule:evenodd;"
d="M 160.4640,123.6500
160.4488,123.7265
160.4054,123.7914
160.3405,123.8348
160.2640,123.8500
159.8640,123.8500
159.7875,123.8348
159.7226,123.7914
159.6792,123.7265
159.6640,123.6500
159.6640,123.1000
159.6792,123.0235
159.7226,122.9586
159.7875,122.9152
159.8640,122.9000
160.2640,122.9000
160.3405,122.9152
160.4054,122.9586
160.4488,123.0235
160.4640,123.1000
Z" /> 
</g>
<g >
</g>
<g style="fill:#000000; fill-opacity:1.0000; 
stroke:#000000; stroke-width:0.0000; stroke-opacity:1; 
stroke-linecap:round; stroke-linejoin:round;">
<path style="fill:#000000; fill-opacity:1.0000; 
stroke:#000000; stroke-width:0.0000; stroke-opacity:1; 
stroke-linecap:round; stroke-linejoin:round;fill-rule:evenodd;"
d="M 138.5860,139.2190
138.6050,139.1233
138.6592,139.0422
138.7403,138.9880
138.8360,138.9690
139.7360,138.9690
139.8317,138.9880
139.9128,139.0422
139.9670,139.1233
139.9860,139.2190
139.9860,140.0690
139.9670,140.1647
139.9128,140.2458
139.8317,140.3000
139.7360,140.3190
138.8360,140.3190
138.7403,140.3000
138.6592,140.2458
138.6050,140.1647
138.5860,140.0690
Z" /> 
<path style="fill:#000000; fill-opacity:1.0000; 
stroke:#000000; stroke-width:0.0000; stroke-opacity:1; 
stroke-linecap:round; stroke-linejoin:round;fill-rule:evenodd;"
d="M 141.2860,139.2190
141.3050,139.1233
141.3592,139.0422
141.4403,138.9880
141.5360,138.9690
142.4360,138.9690
142.5317,138.9880
142.6128,139.0422
142.6670,139.1233
142.6860,139.2190
142.6860,140.0690
142.6670,140.1647
142.6128,140.2458
142.5317,140.3000
142.4360,140.3190
141.5360,140.3190
141.4403,140.3000
141.3592,140.2458
141.3050,140.1647
141.2860,140.0690
Z" /> 
</g>
<g >
</g>
<g style="fill:#000000; fill-opacity:1.0000; 
stroke:#000000; stroke-width:0.0000; stroke-opacity:1; 
stroke-linecap:round; stroke-linejoin:round;">
<path style="fill:#000000; fill-opacity:1.0000; 
stroke:#000000; stroke-width:0.0000; stroke-opacity:1; 
stroke-linecap:round; stroke-linejoin:round;fill-rule:evenodd;"
d="M 172.9700,94.3110
173.0561,94.3281
173.1291,94.3769
173.1779,94.4499
173.1950,94.5360
173.1950,94.9860
173.1779,95.0721
173.1291,95.1451
173.0561,95.1939
172.9700,95.2110
172.4700,95.2110
172.3839,95.1939
172.3109,95.1451
172.2621,95.0721
172.2450,94.9860
172.2450,94.5360
172.2621,94.4499
172.3109,94.3769
172.3839,94.3281
172.4700,94.3110
Z" /> 
<path style="fill:#000000; fill-opacity:1.0000; 
stroke:#000000; stroke-width:0.0000; stroke-opacity:1; 
stroke-linecap:round; stroke-linejoin:round;fill-rule:evenodd;"
d="M 172.9700,95.8610
173.0561,95.8781
173.1291,95.9269
173.1779,95.9999
173.1950,96.0860
173.1950,96.5360
173.1779,96.6221
173.1291,96.6951
173.0561,96.7439
172.9700,96.7610
172.4700,96.7610
172.3839,96.7439
172.3109,96.6951
172.2621,96.6221
172.2450,96.5360
172.2450,96.0860
172.2621,95.9999
172.3109,95.9269
172.3839,95.8781
172.4700,95.8610
Z" /> 
</g>
<g >
</g>
<g style="fill:#000000; fill-opacity:1.0000; 
stroke:#000000; stroke-width:0.0000; stroke-opacity:1; 
stroke-linecap:round; stroke-linejoin:round;">
<circle cx="151.5600" cy="138.3030" r="0.7500" /> 
</g>
<g style="fill:#000000; fill-opacity:1.0000; 
stroke:#000000; stroke-width:0.0212; stroke-opacity:1; 
stroke-linecap:round; stroke-linejoin:round;">
</g>
<g style="fill:#000000; fill-opacity:1.0000; 
stroke:#000000; stroke-width:0.0000; stroke-opacity:1; 
stroke-linecap:round; stroke-linejoin:round;">
<circle cx="148.1600" cy="138.3030" r="0.7500" /> 
</g>
<g style="fill:#000000; fill-opacity:1.0000; 
stroke:#000000; stroke-width:0.0212; stroke-opacity:1; 
stroke-linecap:round; stroke-linejoin:round;">
</g>
<g >
</g>
<g style="fill:#000000; fill-opacity:1.0000; 
stroke:#000000; stroke-width:0.0212; stroke-opacity:1; 
stroke-linecap:round; stroke-linejoin:round;">
</g>
<g style="fill:#000000; fill-opacity:1.0000; 
stroke:#000000; stroke-width:0.0000; stroke-opacity:1; 
stroke-linecap:round; stroke-linejoin:round;">
<circle cx="114.8600" cy="92.4580" r="1.2500" /> 
</g>
<g style="fill:#000000; fill-opacity:1.0000; 
stroke:#000000; stroke-width:0.0212; stroke-opacity:1; 
stroke-linecap:round; stroke-linejoin:round;">
</g>
<g >
</g>
<g style="fill:#000000; fill-opacity:1.0000; 
stroke:#000000; stroke-width:0.0212; stroke-opacity:1; 
stroke-linecap:round; stroke-linejoin:round;">
</g>
<g style="fill:#000000; fill-opacity:1.0000; 
stroke:#000000; stroke-width:0.0000; stroke-opacity:1; 
stroke-linecap:round; stroke-linejoin:round;">
<path style="fill:#000000; fill-opacity:1.0000; 
stroke:#000000; stroke-width:0.0000; stroke-opacity:1; 
stroke-linecap:round; stroke-linejoin:round;fill-rule:evenodd;"
d="M 154.9170,78.3800
154.8596,78.3686
154.8109,78.3361
154.7784,78.2874
154.7670,78.2300
154.7670,76.5900
154.7784,76.5326
154.8109,76.4839
154.8596,76.4514
154.9170,76.4400
155.2170,76.4400
155.2744,76.4514
155.3231,76.4839
155.3556,76.5326
155.3670,76.5900
155.3670,78.2300
155.3556,78.2874
155.3231,78.3361
155.2744,78.3686
155.2170,78.3800
Z" /> 
<path style="fill:#000000; fill-opacity:1.0000; 
stroke:#000000; stroke-width:0.0000; stroke-opacity:1; 
stroke-linecap:round; stroke-linejoin:round;fill-rule:evenodd;"
d="M 156.1870,78.3800
156.1296,78.3686
156.0809,78.3361
156.0484,78.2874
156.0370,78.2300
156.0370,76.5900
156.0484,76.5326
156.0809,76.4839
156.1296,76.4514
156.1870,76.4400
156.4870,76.4400
156.5444,76.4514
156.5931,76.4839
156.6256,76.5326
156.6370,76.5900
156.6370,78.2300
156.6256,78.2874
156.5931,78.3361
156.5444,78.3686
156.4870,78.3800
Z" /> 
<path style="fill:#000000; fill-opacity:1.0000; 
stroke:#000000; stroke-width:0.0000; stroke-opacity:1; 
stroke-linecap:round; stroke-linejoin:round;fill-rule:evenodd;"
d="M 157.4570,78.3800
157.3996,78.3686
157.3509,78.3361
157.3184,78.2874
157.3070,78.2300
157.3070,76.5900
157.3184,76.5326
157.3509,76.4839
157.3996,76.4514
157.4570,76.4400
157.7570,76.4400
157.8144,76.4514
157.8631,76.4839
157.8956,76.5326
157.9070,76.5900
157.9070,78.2300
157.8956,78.2874
157.8631,78.3361
157.8144,78.3686
157.7570,78.3800
Z" /> 
<path style="fill:#000000; fill-opacity:1.0000; 
stroke:#000000; stroke-width:0.0000; stroke-opacity:1; 
stroke-linecap:round; stroke-linejoin:round;fill-rule:evenodd;"
d="M 158.7270,78.3800
158.6696,78.3686
158.6209,78.3361
158.5884,78.2874
158.5770,78.2300
158.5770,76.5900
158.5884,76.5326
158.6209,76.4839
158.6696,76.4514
158.7270,76.4400
159.0270,76.4400
159.0844,76.4514
159.1331,76.4839
159.1656,76.5326
159.1770,76.5900
159.1770,78.2300
159.1656,78.2874
159.1331,78.3361
159.0844,78.3686
159.0270,78.3800
Z" /> 
<path style="fill:#000000; fill-opacity:1.0000; 
stroke:#000000; stroke-width:0.0000; stroke-opacity:1; 
stroke-linecap:round; stroke-linejoin:round;fill-rule:evenodd;"
d="M 158.7270,73.4200
158.6696,73.4086
158.6209,73.3761
158.5884,73.3274
158.5770,73.2700
158.5770,71.6300
158.5884,71.5726
158.6209,71.5239
158.6696,71.4914
158.7270,71.4800
159.0270,71.4800
159.0844,71.4914
159.1331,71.5239
159.1656,71.5726
159.1770,71.6300
159.1770,73.2700
159.1656,73.3274
159.1331,73.3761
159.0844,73.4086
159.0270,73.4200
Z" /> 
<path style="fill:#000000; fill-opacity:1.0000; 
stroke:#000000; stroke-width:0.0000; stroke-opacity:1; 
stroke-linecap:round; stroke-linejoin:round;fill-rule:evenodd;"
d="M 157.4570,73.4200
157.3996,73.4086
157.3509,73.3761
157.3184,73.3274
157.3070,73.2700
157.3070,71.6300
157.3184,71.5726
157.3509,71.5239
157.3996,71.4914
157.4570,71.4800
157.7570,71.4800
157.8144,71.4914
157.8631,71.5239
157.8956,71.5726
157.9070,71.6300
157.9070,73.2700
157.8956,73.3274
157.8631,73.3761
157.8144,73.4086
157.7570,73.4200
Z" /> 
<path style="fill:#000000; fill-opacity:1.0000; 
stroke:#000000; stroke-width:0.0000; stroke-opacity:1; 
stroke-linecap:round; stroke-linejoin:round;fill-rule:evenodd;"
d="M 156.1870,73.4200
156.1296,73.4086
156.0809,73.3761
156.0484,73.3274
156.0370,73.2700
156.0370,71.6300
156.0484,71.5726
156.0809,71.5239
156.1296,71.4914
156.1870,71.4800
156.4870,71.4800
156.5444,71.4914
156.5931,71.5239
156.6256,71.5726
156.6370,71.6300
156.6370,73.2700
156.6256,73.3274
156.5931,73.3761
156.5444,73.4086
156.4870,73.4200
Z" /> 
<path style="fill:#000000; fill-opacity:1.0000; 
stroke:#000000; stroke-width:0.0000; stroke-opacity:1; 
stroke-linecap:round; stroke-linejoin:round;fill-rule:evenodd;"
d="M 154.9170,73.4200
154.8596,73.4086
154.8109,73.3761
154.7784,73.3274
154.7670,73.2700
154.7670,71.6300
154.7784,71.5726
154.8109,71.5239
154.8596,71.4914
154.9170,71.4800
155.2170,71.4800
155.2744,71.4914
155.3231,71.5239
155.3556,71.5726
155.3670,71.6300
155.3670,73.2700
155.3556,73.3274
155.3231,73.3761
155.2744,73.4086
155.2170,73.4200
Z" /> 
</g>
<g >
</g>
<g style="fill:#000000; fill-opacity:1.0000; 
stroke:#000000; stroke-width:0.0000; stroke-opacity:1; 
stroke-linecap:round; stroke-linejoin:round;">
<path style="fill:#000000; fill-opacity:1.0000; 
stroke:#000000; stroke-width:0.0000; stroke-opacity:1; 
stroke-linecap:round; stroke-linejoin:round;fill-rule:evenodd;"
d="M 137.2460,132.6140
137.2460,134.1140
135.2460,134.1140
135.2460,132.6140
Z" /> 
<path style="fill:#000000; fill-opacity:1.0000; 
stroke:#000000; stroke-width:0.0000; stroke-opacity:1; 
stroke-linecap:round; stroke-linejoin:round;fill-rule:evenodd;"
d="M 137.2460,130.3140
137.2460,131.8140
135.2460,131.8140
135.2460,130.3140
Z" /> 
<path style="fill:#000000; fill-opacity:1.0000; 
stroke:#000000; stroke-width:0.0000; stroke-opacity:1; 
stroke-linecap:round; stroke-linejoin:round;fill-rule:evenodd;"
d="M 130.9460,129.1640
130.9460,132.9640
128.9460,132.9640
128.9460,129.1640
Z" /> 
<path style="fill:#000000; fill-opacity:1.0000; 
stroke:#000000; stroke-width:0.0000; stroke-opacity:1; 
stroke-linecap:round; stroke-linejoin:round;fill-rule:evenodd;"
d="M 137.2460,128.0140
137.2460,129.5140
135.2460,129.5140
135.2460,128.0140
Z" /> 
</g>
<g >
</g>
<g style="fill:#000000; fill-opacity:1.0000; 
stroke:#000000; stroke-width:0.0000; stroke-opacity:1; 
stroke-linecap:round; stroke-linejoin:round;">
<path style="fill:#000000; fill-opacity:1.0000; 
stroke:#000000; stroke-width:0.0000; stroke-opacity:1; 
stroke-linecap:round; stroke-linejoin:round;fill-rule:evenodd;"
d="M 180.7025,99.5080
181.8025,99.5080
181.8025,102.0080
180.7025,102.0080
Z" /> 
<path style="fill:#000000; fill-opacity:1.0000; 
stroke:#000000; stroke-width:0.0000; stroke-opacity:1; 
stroke-linecap:round; stroke-linejoin:round;fill-rule:evenodd;"
d="M 178.7025,99.5080
179.8025,99.5080
179.8025,102.0080
178.7025,102.0080
Z" /> 
<path style="fill:#000000; fill-opacity:1.0000; 
stroke:#000000; stroke-width:0.0000; stroke-opacity:1; 
stroke-linecap:round; stroke-linejoin:round;fill-rule:evenodd;"
d="M 176.7025,99.5080
177.8025,99.5080
177.8025,102.0080
176.7025,102.0080
Z" /> 
<path style="fill:#000000; fill-opacity:1.0000; 
stroke:#000000; stroke-width:0.0000; stroke-opacity:1; 
stroke-linecap:round; stroke-linejoin:round;fill-rule:evenodd;"
d="M 174.7025,99.5080
175.8025,99.5080
175.8025,102.0080
174.7025,102.0080
Z" /> 
<path style="fill:#000000; fill-opacity:1.0000; 
stroke:#000000; stroke-width:0.0000; stroke-opacity:1; 
stroke-linecap:round; stroke-linejoin:round;fill-rule:evenodd;"
d="M 172.7025,99.5080
173.8025,99.5080
173.8025,102.0080
172.7025,102.0080
Z" /> 
<path style="fill:#000000; fill-opacity:1.0000; 
stroke:#000000; stroke-width:0.0000; stroke-opacity:1; 
stroke-linecap:round; stroke-linejoin:round;fill-rule:evenodd;"
d="M 170.7025,99.5080
171.8025,99.5080
171.8025,102.0080
170.7025,102.0080
Z" /> 
<path style="fill:#000000; fill-opacity:1.0000; 
stroke:#000000; stroke-width:0.0000; stroke-opacity:1; 
stroke-linecap:round; stroke-linejoin:round;fill-rule:evenodd;"
d="M 168.7025,99.5080
169.8025,99.5080
169.8025,102.0080
168.7025,102.0080
Z" /> 
<path style="fill:#000000; fill-opacity:1.0000; 
stroke:#000000; stroke-width:0.0000; stroke-opacity:1; 
stroke-linecap:round; stroke-linejoin:round;fill-rule:evenodd;"
d="M 166.7025,99.5080
167.8025,99.5080
167.8025,102.0080
166.7025,102.0080
Z" /> 
<path style="fill:#000000; fill-opacity:1.0000; 
stroke:#000000; stroke-width:0.0000; stroke-opacity:1; 
stroke-linecap:round; stroke-linejoin:round;fill-rule:evenodd;"
d="M 166.7025,114.9080
167.8025,114.9080
167.8025,117.4080
166.7025,117.4080
Z" /> 
<path style="fill:#000000; fill-opacity:1.0000; 
stroke:#000000; stroke-width:0.0000; stroke-opacity:1; 
stroke-linecap:round; stroke-linejoin:round;fill-rule:evenodd;"
d="M 168.7025,114.9080
169.8025,114.9080
169.8025,117.4080
168.7025,117.4080
Z" /> 
<path style="fill:#000000; fill-opacity:1.0000; 
stroke:#000000; stroke-width:0.0000; stroke-opacity:1; 
stroke-linecap:round; stroke-linejoin:round;fill-rule:evenodd;"
d="M 170.7025,114.9080
171.8025,114.9080
171.8025,117.4080
170.7025,117.4080
Z" /> 
<path style="fill:#000000; fill-opacity:1.0000; 
stroke:#000000; stroke-width:0.0000; stroke-opacity:1; 
stroke-linecap:round; stroke-linejoin:round;fill-rule:evenodd;"
d="M 172.7025,114.9080
173.8025,114.9080
173.8025,117.4080
172.7025,117.4080
Z" /> 
<path style="fill:#000000; fill-opacity:1.0000; 
stroke:#000000; stroke-width:0.0000; stroke-opacity:1; 
stroke-linecap:round; stroke-linejoin:round;fill-rule:evenodd;"
d="M 174.7025,114.9080
175.8025,114.9080
175.8025,117.4080
174.7025,117.4080
Z" /> 
<path style="fill:#000000; fill-opacity:1.0000; 
stroke:#000000; stroke-width:0.0000; stroke-opacity:1; 
stroke-linecap:round; stroke-linejoin:round;fill-rule:evenodd;"
d="M 176.7025,114.9080
177.8025,114.9080
177.8025,117.4080
176.7025,117.4080
Z" /> 
<path style="fill:#000000; fill-opacity:1.0000; 
stroke:#000000; stroke-width:0.0000; stroke-opacity:1; 
stroke-linecap:round; stroke-linejoin:round;fill-rule:evenodd;"
d="M 178.7025,114.9080
179.8025,114.9080
179.8025,117.4080
178.7025,117.4080
Z" /> 
<path style="fill:#000000; fill-opacity:1.0000; 
stroke:#000000; stroke-width:0.0000; stroke-opacity:1; 
stroke-linecap:round; stroke-linejoin:round;fill-rule:evenodd;"
d="M 180.7025,114.9080
181.8025,114.9080
181.8025,117.4080
180.7025,117.4080
Z" /> 
<path style="fill:#000000; fill-opacity:1.0000; 
stroke:#000000; stroke-width:0.0000; stroke-opacity:1; 
stroke-linecap:round; stroke-linejoin:round;fill-rule:evenodd;"
d="M 164.3025,103.9980
164.3025,102.8980
166.8025,102.8980
166.8025,103.9980
Z" /> 
<path style="fill:#000000; fill-opacity:1.0000; 
stroke:#000000; stroke-width:0.0000; stroke-opacity:1; 
stroke-linecap:round; stroke-linejoin:round;fill-rule:evenodd;"
d="M 164.3025,105.9980
164.3025,104.8980
166.8025,104.8980
166.8025,105.9980
Z" /> 
<path style="fill:#000000; fill-opacity:1.0000; 
stroke:#000000; stroke-width:0.0000; stroke-opacity:1; 
stroke-linecap:round; stroke-linejoin:round;fill-rule:evenodd;"
d="M 164.3025,107.9980
164.3025,106.8980
166.8025,106.8980
166.8025,107.9980
Z" /> 
<path style="fill:#000000; fill-opacity:1.0000; 
stroke:#000000; stroke-width:0.0000; stroke-opacity:1; 
stroke-linecap:round; stroke-linejoin:round;fill-rule:evenodd;"
d="M 164.3025,109.9980
164.3025,108.8980
166.8025,108.8980
166.8025,109.9980
Z" /> 
<path style="fill:#000000; fill-opacity:1.0000; 
stroke:#000000; stroke-width:0.0000; stroke-opacity:1; 
stroke-linecap:round; stroke-linejoin:round;fill-rule:evenodd;"
d="M 164.3025,111.9980
164.3025,110.8980
166.8025,110.8980
166.8025,111.9980
Z" /> 
<path style="fill:#000000; fill-opacity:1.0000; 
stroke:#000000; stroke-width:0.0000; stroke-opacity:1; 
stroke-linecap:round; stroke-linejoin:round;fill-rule:evenodd;"
d="M 164.3025,113.9980
164.3025,112.8980
166.8025,112.8980
166.8025,113.9980
Z" /> 
</g>
<g >
</g>
<g style="fill:#000000; fill-opacity:1.0000; 
stroke:#000000; stroke-width:0.0000; stroke-opacity:1; 
stroke-linecap:round; stroke-linejoin:round;">
<path style="fill:#000000; fill-opacity:1.0000; 
stroke:#000000; stroke-width:0.0000; stroke-opacity:1; 
stroke-linecap:round; stroke-linejoin:round;fill-rule:evenodd;"
d="M 170.9910,125.7540
170.9988,125.7150
171.0209,125.6819
171.0540,125.6598
171.0930,125.6520
172.3150,125.6520
172.3540,125.6598
172.3871,125.6819
172.4092,125.7150
172.4170,125.7540
172.4170,126.9760
172.4092,127.0150
172.3871,127.0481
172.3540,127.0702
172.3150,127.0780
171.0930,127.0780
171.0540,127.0702
171.0209,127.0481
170.9988,127.0150
170.9910,126.9760
Z" /> 
<circle cx="174.2440" cy="123.8250" r="0.7130" /> 
</g>
<g style="fill:#000000; fill-opacity:1.0000; 
stroke:#000000; stroke-width:0.0212; stroke-opacity:1; 
stroke-linecap:round; stroke-linejoin:round;">
</g>
<g style="fill:#000000; fill-opacity:1.0000; 
stroke:#000000; stroke-width:0.0000; stroke-opacity:1; 
stroke-linecap:round; stroke-linejoin:round;">
<circle cx="176.7840" cy="126.3650" r="0.7130" /> 
</g>
<g style="fill:#000000; fill-opacity:1.0000; 
stroke:#000000; stroke-width:0.0212; stroke-opacity:1; 
stroke-linecap:round; stroke-linejoin:round;">
</g>
<g >
</g>
<g style="fill:#000000; fill-opacity:1.0000; 
stroke:#000000; stroke-width:0.0212; stroke-opacity:1; 
stroke-linecap:round; stroke-linejoin:round;">
</g>
<g style="fill:#000000; fill-opacity:1.0000; 
stroke:#000000; stroke-width:0.0000; stroke-opacity:1; 
stroke-linecap:round; stroke-linejoin:round;">
<path style="fill:#000000; fill-opacity:1.0000; 
stroke:#000000; stroke-width:0.0000; stroke-opacity:1; 
stroke-linecap:round; stroke-linejoin:round;fill-rule:evenodd;"
d="M 152.9620,76.9600
153.0481,76.9771
153.1211,77.0259
153.1699,77.0989
153.1870,77.1850
153.1870,77.6350
153.1699,77.7211
153.1211,77.7941
153.0481,77.8429
152.9620,77.8600
152.4620,77.8600
152.3759,77.8429
152.3029,77.7941
152.2541,77.7211
152.2370,77.6350
152.2370,77.1850
152.2541,77.0989
152.3029,77.0259
152.3759,76.9771
152.4620,76.9600
Z" /> 
<path style="fill:#000000; fill-opacity:1.0000; 
stroke:#000000; stroke-width:0.0000; stroke-opacity:1; 
stroke-linecap:round; stroke-linejoin:round;fill-rule:evenodd;"
d="M 152.9620,78.5100
153.0481,78.5271
153.1211,78.5759
153.1699,78.6489
153.1870,78.7350
153.1870,79.1850
153.1699,79.2711
153.1211,79.3441
153.0481,79.3929
152.9620,79.4100
152.4620,79.4100
152.3759,79.3929
152.3029,79.3441
152.2541,79.2711
152.2370,79.1850
152.2370,78.7350
152.2541,78.6489
152.3029,78.5759
152.3759,78.5271
152.4620,78.5100
Z" /> 
</g>
<g >
</g>
<g style="fill:#000000; fill-opacity:1.0000; 
stroke:#000000; stroke-width:0.0000; stroke-opacity:1; 
stroke-linecap:round; stroke-linejoin:round;">
<path style="fill:#000000; fill-opacity:1.0000; 
stroke:#000000; stroke-width:0.0000; stroke-opacity:1; 
stroke-linecap:round; stroke-linejoin:round;fill-rule:evenodd;"
d="M 150.5320,76.0950
150.4555,76.0798
150.3906,76.0364
150.3472,75.9715
150.3320,75.8950
150.3320,75.4950
150.3472,75.4185
150.3906,75.3536
150.4555,75.3102
150.5320,75.2950
151.0820,75.2950
151.1585,75.3102
151.2234,75.3536
151.2668,75.4185
151.2820,75.4950
151.2820,75.8950
151.2668,75.9715
151.2234,76.0364
151.1585,76.0798
151.0820,76.0950
Z" /> 
<path style="fill:#000000; fill-opacity:1.0000; 
stroke:#000000; stroke-width:0.0000; stroke-opacity:1; 
stroke-linecap:round; stroke-linejoin:round;fill-rule:evenodd;"
d="M 150.5320,74.4450
150.4555,74.4298
150.3906,74.3864
150.3472,74.3215
150.3320,74.2450
150.3320,73.8450
150.3472,73.7685
150.3906,73.7036
150.4555,73.6602
150.5320,73.6450
151.0820,73.6450
151.1585,73.6602
151.2234,73.7036
151.2668,73.7685
151.2820,73.8450
151.2820,74.2450
151.2668,74.3215
151.2234,74.3864
151.1585,74.4298
151.0820,74.4450
Z" /> 
</g>
<g >
</g>
<g style="fill:#000000; fill-opacity:1.0000; 
stroke:#000000; stroke-width:0.0000; stroke-opacity:1; 
stroke-linecap:round; stroke-linejoin:round;">
<path style="fill:#000000; fill-opacity:1.0000; 
stroke:#000000; stroke-width:0.0000; stroke-opacity:1; 
stroke-linecap:round; stroke-linejoin:round;fill-rule:evenodd;"
d="M 145.5000,90.2230
145.5000,88.2230
147.5000,88.2230
147.5000,90.2230
Z" /> 
<circle cx="145.1100" cy="92.5830" r="1.0000" /> 
</g>
<g style="fill:#000000; fill-opacity:1.0000; 
stroke:#000000; stroke-width:0.0212; stroke-opacity:1; 
stroke-linecap:round; stroke-linejoin:round;">
</g>
<g style="fill:#000000; fill-opacity:1.0000; 
stroke:#000000; stroke-width:0.0000; stroke-opacity:1; 
stroke-linecap:round; stroke-linejoin:round;">
<circle cx="146.5000" cy="95.9430" r="1.0000" /> 
</g>
<g style="fill:#000000; fill-opacity:1.0000; 
stroke:#000000; stroke-width:0.0212; stroke-opacity:1; 
stroke-linecap:round; stroke-linejoin:round;">
</g>
<g style="fill:#000000; fill-opacity:1.0000; 
stroke:#000000; stroke-width:0.0000; stroke-opacity:1; 
stroke-linecap:round; stroke-linejoin:round;">
<circle cx="153.2200" cy="95.9430" r="1.0000" /> 
</g>
<g style="fill:#000000; fill-opacity:1.0000; 
stroke:#000000; stroke-width:0.0212; stroke-opacity:1; 
stroke-linecap:round; stroke-linejoin:round;">
</g>
<g style="fill:#000000; fill-opacity:1.0000; 
stroke:#000000; stroke-width:0.0000; stroke-opacity:1; 
stroke-linecap:round; stroke-linejoin:round;">
<circle cx="154.6100" cy="92.5830" r="1.0000" /> 
</g>
<g style="fill:#000000; fill-opacity:1.0000; 
stroke:#000000; stroke-width:0.0212; stroke-opacity:1; 
stroke-linecap:round; stroke-linejoin:round;">
</g>
<g style="fill:#000000; fill-opacity:1.0000; 
stroke:#000000; stroke-width:0.0000; stroke-opacity:1; 
stroke-linecap:round; stroke-linejoin:round;">
<circle cx="153.2200" cy="89.2230" r="1.0000" /> 
</g>
<g style="fill:#000000; fill-opacity:1.0000; 
stroke:#000000; stroke-width:0.0212; stroke-opacity:1; 
stroke-linecap:round; stroke-linejoin:round;">
</g>
<g >
</g>
<g style="fill:#000000; fill-opacity:1.0000; 
stroke:#000000; stroke-width:0.0212; stroke-opacity:1; 
stroke-linecap:round; stroke-linejoin:round;">
</g>
<g style="fill:#000000; fill-opacity:1.0000; 
stroke:#000000; stroke-width:0.0000; stroke-opacity:1; 
stroke-linecap:round; stroke-linejoin:round;">
<path style="fill:#000000; fill-opacity:1.0000; 
stroke:#000000; stroke-width:0.0000; stroke-opacity:1; 
stroke-linecap:round; stroke-linejoin:round;fill-rule:evenodd;"
d="M 182.3560,86.1220
182.3560,88.1220
180.3560,88.1220
180.3560,86.1220
Z" /> 
<circle cx="173.7560" cy="87.1220" r="1.0000" /> 
</g>
<g style="fill:#000000; fill-opacity:1.0000; 
stroke:#000000; stroke-width:0.0212; stroke-opacity:1; 
stroke-linecap:round; stroke-linejoin:round;">
</g>
<g >
</g>
<g style="fill:#000000; fill-opacity:1.0000; 
stroke:#000000; stroke-width:0.0212; stroke-opacity:1; 
stroke-linecap:round; stroke-linejoin:round;">
</g>
<g style="fill:#000000; fill-opacity:1.0000; 
stroke:#000000; stroke-width:0.0000; stroke-opacity:1; 
stroke-linecap:round; stroke-linejoin:round;">
<path style="fill:#000000; fill-opacity:1.0000; 
stroke:#000000; stroke-width:0.0000; stroke-opacity:1; 
stroke-linecap:round; stroke-linejoin:round;fill-rule:evenodd;"
d="M 159.6840,125.2197
159.7007,125.1360
159.7481,125.0651
159.8190,125.0177
159.9027,125.0010
160.3402,125.0010
160.4240,125.0177
160.4949,125.0651
160.5423,125.1360
160.5590,125.2197
160.5590,125.7322
160.5423,125.8160
160.4949,125.8869
160.4240,125.9343
160.3402,125.9510
159.9027,125.9510
159.8190,125.9343
159.7481,125.8869
159.7007,125.8160
159.6840,125.7322
Z" /> 
<path style="fill:#000000; fill-opacity:1.0000; 
stroke:#000000; stroke-width:0.0000; stroke-opacity:1; 
stroke-linecap:round; stroke-linejoin:round;fill-rule:evenodd;"
d="M 161.2590,125.2197
161.2757,125.1360
161.3231,125.0651
161.3940,125.0177
161.4777,125.0010
161.9152,125.0010
161.9990,125.0177
162.0699,125.0651
162.1173,125.1360
162.1340,125.2197
162.1340,125.7322
162.1173,125.8160
162.0699,125.8869
161.9990,125.9343
161.9152,125.9510
161.4777,125.9510
161.3940,125.9343
161.3231,125.8869
161.2757,125.8160
161.2590,125.7322
Z" /> 
</g>
<g >
</g>
<g style="fill:#000000; fill-opacity:1.0000; 
stroke:#000000; stroke-width:0.0000; stroke-opacity:1; 
stroke-linecap:round; stroke-linejoin:round;">
<path style="fill:#000000; fill-opacity:1.0000; 
stroke:#000000; stroke-width:0.0000; stroke-opacity:1; 
stroke-linecap:round; stroke-linejoin:round;fill-rule:evenodd;"
d="M 152.9870,73.6450
153.0635,73.6602
153.1284,73.7036
153.1718,73.7685
153.1870,73.8450
153.1870,74.2450
153.1718,74.3215
153.1284,74.3864
153.0635,74.4298
152.9870,74.4450
152.4370,74.4450
152.3605,74.4298
152.2956,74.3864
152.2522,74.3215
152.2370,74.2450
152.2370,73.8450
152.2522,73.7685
152.2956,73.7036
152.3605,73.6602
152.4370,73.6450
Z" /> 
<path style="fill:#000000; fill-opacity:1.0000; 
stroke:#000000; stroke-width:0.0000; stroke-opacity:1; 
stroke-linecap:round; stroke-linejoin:round;fill-rule:evenodd;"
d="M 152.9870,75.2950
153.0635,75.3102
153.1284,75.3536
153.1718,75.4185
153.1870,75.4950
153.1870,75.8950
153.1718,75.9715
153.1284,76.0364
153.0635,76.0798
152.9870,76.0950
152.4370,76.0950
152.3605,76.0798
152.2956,76.0364
152.2522,75.9715
152.2370,75.8950
152.2370,75.4950
152.2522,75.4185
152.2956,75.3536
152.3605,75.3102
152.4370,75.2950
Z" /> 
</g>
<g >
</g>
<g style="fill:#000000; fill-opacity:1.0000; 
stroke:#000000; stroke-width:0.0000; stroke-opacity:1; 
stroke-linecap:round; stroke-linejoin:round;">
<path style="fill:#000000; fill-opacity:1.0000; 
stroke:#000000; stroke-width:0.0000; stroke-opacity:1; 
stroke-linecap:round; stroke-linejoin:round;fill-rule:evenodd;"
d="M 169.6525,119.5280
169.6373,119.6045
169.5939,119.6694
169.5290,119.7128
169.4525,119.7280
169.0525,119.7280
168.9760,119.7128
168.9111,119.6694
168.8677,119.6045
168.8525,119.5280
168.8525,118.9780
168.8677,118.9015
168.9111,118.8366
168.9760,118.7932
169.0525,118.7780
169.4525,118.7780
169.5290,118.7932
169.5939,118.8366
169.6373,118.9015
169.6525,118.9780
Z" /> 
<path style="fill:#000000; fill-opacity:1.0000; 
stroke:#000000; stroke-width:0.0000; stroke-opacity:1; 
stroke-linecap:round; stroke-linejoin:round;fill-rule:evenodd;"
d="M 168.0025,119.5280
167.9873,119.6045
167.9439,119.6694
167.8790,119.7128
167.8025,119.7280
167.4025,119.7280
167.3260,119.7128
167.2611,119.6694
167.2177,119.6045
167.2025,119.5280
167.2025,118.9780
167.2177,118.9015
167.2611,118.8366
167.3260,118.7932
167.4025,118.7780
167.8025,118.7780
167.8790,118.7932
167.9439,118.8366
167.9873,118.9015
168.0025,118.9780
Z" /> 
</g>
<g >
</g>
<g style="fill:#000000; fill-opacity:1.0000; 
stroke:#000000; stroke-width:0.0000; stroke-opacity:1; 
stroke-linecap:round; stroke-linejoin:round;">
<path style="fill:#000000; fill-opacity:1.0000; 
stroke:#000000; stroke-width:0.0000; stroke-opacity:1; 
stroke-linecap:round; stroke-linejoin:round;fill-rule:evenodd;"
d="M 142.0310,117.0730
142.0462,116.9965
142.0896,116.9316
142.1545,116.8882
142.2310,116.8730
142.6310,116.8730
142.7075,116.8882
142.7724,116.9316
142.8158,116.9965
142.8310,117.0730
142.8310,117.6230
142.8158,117.6995
142.7724,117.7644
142.7075,117.8078
142.6310,117.8230
142.2310,117.8230
142.1545,117.8078
142.0896,117.7644
142.0462,117.6995
142.0310,117.6230
Z" /> 
<path style="fill:#000000; fill-opacity:1.0000; 
stroke:#000000; stroke-width:0.0000; stroke-opacity:1; 
stroke-linecap:round; stroke-linejoin:round;fill-rule:evenodd;"
d="M 143.6810,117.0730
143.6962,116.9965
143.7396,116.9316
143.8045,116.8882
143.8810,116.8730
144.2810,116.8730
144.3575,116.8882
144.4224,116.9316
144.4658,116.9965
144.4810,117.0730
144.4810,117.6230
144.4658,117.6995
144.4224,117.7644
144.3575,117.8078
144.2810,117.8230
143.8810,117.8230
143.8045,117.8078
143.7396,117.7644
143.6962,117.6995
143.6810,117.6230
Z" /> 
</g>
<g >
</g>
<g style="fill:#000000; fill-opacity:1.0000; 
stroke:#000000; stroke-width:0.0000; stroke-opacity:1; 
stroke-linecap:round; stroke-linejoin:round;">
<path style="fill:#000000; fill-opacity:1.0000; 
stroke:#000000; stroke-width:0.0000; stroke-opacity:1; 
stroke-linecap:round; stroke-linejoin:round;fill-rule:evenodd;"
d="M 129.5160,92.9995
131.5160,92.9995
131.5160,95.2995
129.5160,95.2995
Z" /> 
<circle cx="125.5160" cy="94.1495" r="1.1500" /> 
</g>
<g style="fill:#000000; fill-opacity:1.0000; 
stroke:#000000; stroke-width:0.0212; stroke-opacity:1; 
stroke-linecap:round; stroke-linejoin:round;">
</g>
<g style="fill:#000000; fill-opacity:1.0000; 
stroke:#000000; stroke-width:0.0000; stroke-opacity:1; 
stroke-linecap:round; stroke-linejoin:round;">
<circle cx="135.7160" cy="123.5495" r="1.1500" /> 
</g>
<g style="fill:#000000; fill-opacity:1.0000; 
stroke:#000000; stroke-width:0.0212; stroke-opacity:1; 
stroke-linecap:round; stroke-linejoin:round;">
</g>
<g style="fill:#000000; fill-opacity:1.0000; 
stroke:#000000; stroke-width:0.0000; stroke-opacity:1; 
stroke-linecap:round; stroke-linejoin:round;">
<circle cx="120.3160" cy="123.5495" r="1.1500" /> 
</g>
<g style="fill:#000000; fill-opacity:1.0000; 
stroke:#000000; stroke-width:0.0212; stroke-opacity:1; 
stroke-linecap:round; stroke-linejoin:round;">
</g>
<g >
</g>
<g style="fill:#000000; fill-opacity:1.0000; 
stroke:#000000; stroke-width:0.0212; stroke-opacity:1; 
stroke-linecap:round; stroke-linejoin:round;">
</g>
<g style="fill:#000000; fill-opacity:1.0000; 
stroke:#000000; stroke-width:0.0000; stroke-opacity:1; 
stroke-linecap:round; stroke-linejoin:round;">
<path style="fill:#000000; fill-opacity:1.0000; 
stroke:#000000; stroke-width:0.0000; stroke-opacity:1; 
stroke-linecap:round; stroke-linejoin:round;fill-rule:evenodd;"
d="M 160.5730,82.6395
160.5901,82.5534
160.6389,82.4804
160.7119,82.4316
160.7980,82.4145
161.2480,82.4145
161.3341,82.4316
161.4071,82.4804
161.4559,82.5534
161.4730,82.6395
161.4730,83.1395
161.4559,83.2256
161.4071,83.2986
161.3341,83.3474
161.2480,83.3645
160.7980,83.3645
160.7119,83.3474
160.6389,83.2986
160.5901,83.2256
160.5730,83.1395
Z" /> 
<path style="fill:#000000; fill-opacity:1.0000; 
stroke:#000000; stroke-width:0.0000; stroke-opacity:1; 
stroke-linecap:round; stroke-linejoin:round;fill-rule:evenodd;"
d="M 162.1230,82.6395
162.1401,82.5534
162.1889,82.4804
162.2619,82.4316
162.3480,82.4145
162.7980,82.4145
162.8841,82.4316
162.9571,82.4804
163.0059,82.5534
163.0230,82.6395
163.0230,83.1395
163.0059,83.2256
162.9571,83.2986
162.8841,83.3474
162.7980,83.3645
162.3480,83.3645
162.2619,83.3474
162.1889,83.2986
162.1401,83.2256
162.1230,83.1395
Z" /> 
</g>
<g >
</g>
<g style="fill:#000000; fill-opacity:1.0000; 
stroke:#000000; stroke-width:0.0000; stroke-opacity:1; 
stroke-linecap:round; stroke-linejoin:round;">
<path style="fill:#000000; fill-opacity:1.0000; 
stroke:#000000; stroke-width:0.0000; stroke-opacity:1; 
stroke-linecap:round; stroke-linejoin:round;fill-rule:evenodd;"
d="M 148.6520,79.4100
148.5659,79.3929
148.4929,79.3441
148.4441,79.2711
148.4270,79.1850
148.4270,78.7350
148.4441,78.6489
148.4929,78.5759
148.5659,78.5271
148.6520,78.5100
149.1520,78.5100
149.2381,78.5271
149.3111,78.5759
149.3599,78.6489
149.3770,78.7350
149.3770,79.1850
149.3599,79.2711
149.3111,79.3441
149.2381,79.3929
149.1520,79.4100
Z" /> 
<path style="fill:#000000; fill-opacity:1.0000; 
stroke:#000000; stroke-width:0.0000; stroke-opacity:1; 
stroke-linecap:round; stroke-linejoin:round;fill-rule:evenodd;"
d="M 148.6520,77.8600
148.5659,77.8429
148.4929,77.7941
148.4441,77.7211
148.4270,77.6350
148.4270,77.1850
148.4441,77.0989
148.4929,77.0259
148.5659,76.9771
148.6520,76.9600
149.1520,76.9600
149.2381,76.9771
149.3111,77.0259
149.3599,77.0989
149.3770,77.1850
149.3770,77.6350
149.3599,77.7211
149.3111,77.7941
149.2381,77.8429
149.1520,77.8600
Z" /> 
</g>
<g >
</g>
<g style="fill:#000000; fill-opacity:1.0000; 
stroke:#000000; stroke-width:0.0000; stroke-opacity:1; 
stroke-linecap:round; stroke-linejoin:round;">
<path style="fill:#000000; fill-opacity:1.0000; 
stroke:#000000; stroke-width:0.0000; stroke-opacity:1; 
stroke-linecap:round; stroke-linejoin:round;fill-rule:evenodd;"
d="M 162.4570,118.8090
164.1570,118.8090
164.1570,120.5090
162.4570,120.5090
Z" /> 
<circle cx="160.7670" cy="119.6590" r="0.8500" /> 
<circle cx="158.2270" cy="119.6590" r="0.8500" /> 
</g>
<g >
</g>
<g style="fill:#000000; fill-opacity:1.0000; 
stroke:#000000; stroke-width:0.0000; stroke-opacity:1; 
stroke-linecap:round; stroke-linejoin:round;">
<path style="fill:#000000; fill-opacity:1.0000; 
stroke:#000000; stroke-width:0.0000; stroke-opacity:1; 
stroke-linecap:round; stroke-linejoin:round;fill-rule:evenodd;"
d="M 162.7900,105.1980
162.7710,105.2937
162.7168,105.3748
162.6357,105.4290
162.5400,105.4480
160.0400,105.4480
159.9443,105.4290
159.8632,105.3748
159.8090,105.2937
159.7900,105.1980
159.7900,104.0980
159.8090,104.0023
159.8632,103.9212
159.9443,103.8670
160.0400,103.8480
162.5400,103.8480
162.6357,103.8670
162.7168,103.9212
162.7710,104.0023
162.7900,104.0980
Z" /> 
<path style="fill:#000000; fill-opacity:1.0000; 
stroke:#000000; stroke-width:0.0000; stroke-opacity:1; 
stroke-linecap:round; stroke-linejoin:round;fill-rule:evenodd;"
d="M 158.3900,105.1980
158.3710,105.2937
158.3168,105.3748
158.2357,105.4290
158.1400,105.4480
155.6400,105.4480
155.5443,105.4290
155.4632,105.3748
155.4090,105.2937
155.3900,105.1980
155.3900,104.0980
155.4090,104.0023
155.4632,103.9212
155.5443,103.8670
155.6400,103.8480
158.1400,103.8480
158.2357,103.8670
158.3168,103.9212
158.3710,104.0023
158.3900,104.0980
Z" /> 
</g>
<g >
</g>
<g style="fill:#000000; fill-opacity:1.0000; 
stroke:#000000; stroke-width:0.0000; stroke-opacity:1; 
stroke-linecap:round; stroke-linejoin:round;">
<path style="fill:#000000; fill-opacity:1.0000; 
stroke:#000000; stroke-width:0.0000; stroke-opacity:1; 
stroke-linecap:round; stroke-linejoin:round;fill-rule:evenodd;"
d="M 163.0230,84.9010
163.0078,84.9775
162.9644,85.0424
162.8995,85.0858
162.8230,85.1010
162.4230,85.1010
162.3465,85.0858
162.2816,85.0424
162.2382,84.9775
162.2230,84.9010
162.2230,84.3510
162.2382,84.2745
162.2816,84.2096
162.3465,84.1662
162.4230,84.1510
162.8230,84.1510
162.8995,84.1662
162.9644,84.2096
163.0078,84.2745
163.0230,84.3510
Z" /> 
<path style="fill:#000000; fill-opacity:1.0000; 
stroke:#000000; stroke-width:0.0000; stroke-opacity:1; 
stroke-linecap:round; stroke-linejoin:round;fill-rule:evenodd;"
d="M 161.3730,84.9010
161.3578,84.9775
161.3144,85.0424
161.2495,85.0858
161.1730,85.1010
160.7730,85.1010
160.6965,85.0858
160.6316,85.0424
160.5882,84.9775
160.5730,84.9010
160.5730,84.3510
160.5882,84.2745
160.6316,84.2096
160.6965,84.1662
160.7730,84.1510
161.1730,84.1510
161.2495,84.1662
161.3144,84.2096
161.3578,84.2745
161.3730,84.3510
Z" /> 
</g>
<g >
</g>
<g style="fill:#000000; fill-opacity:1.0000; 
stroke:#000000; stroke-width:0.0000; stroke-opacity:1; 
stroke-linecap:round; stroke-linejoin:round;">
<path style="fill:#000000; fill-opacity:1.0000; 
stroke:#000000; stroke-width:0.0000; stroke-opacity:1; 
stroke-linecap:round; stroke-linejoin:round;fill-rule:evenodd;"
d="M 163.3710,133.7550
163.3788,133.7160
163.4009,133.6829
163.4340,133.6608
163.4730,133.6530
164.6950,133.6530
164.7340,133.6608
164.7671,133.6829
164.7892,133.7160
164.7970,133.7550
164.7970,134.9770
164.7892,135.0160
164.7671,135.0491
164.7340,135.0712
164.6950,135.0790
163.4730,135.0790
163.4340,135.0712
163.4009,135.0491
163.3788,135.0160
163.3710,134.9770
Z" /> 
<circle cx="166.6240" cy="131.8260" r="0.7130" /> 
</g>
<g style="fill:#000000; fill-opacity:1.0000; 
stroke:#000000; stroke-width:0.0212; stroke-opacity:1; 
stroke-linecap:round; stroke-linejoin:round;">
</g>
<g style="fill:#000000; fill-opacity:1.0000; 
stroke:#000000; stroke-width:0.0000; stroke-opacity:1; 
stroke-linecap:round; stroke-linejoin:round;">
<circle cx="169.1640" cy="134.3660" r="0.7130" /> 
</g>
<g style="fill:#000000; fill-opacity:1.0000; 
stroke:#000000; stroke-width:0.0212; stroke-opacity:1; 
stroke-linecap:round; stroke-linejoin:round;">
</g>
<g >
</g>
<g style="fill:#000000; fill-opacity:1.0000; 
stroke:#000000; stroke-width:0.0212; stroke-opacity:1; 
stroke-linecap:round; stroke-linejoin:round;">
</g>
<g style="fill:#000000; fill-opacity:1.0000; 
stroke:#000000; stroke-width:0.0000; stroke-opacity:1; 
stroke-linecap:round; stroke-linejoin:round;">
<path style="fill:#000000; fill-opacity:1.0000; 
stroke:#000000; stroke-width:0.0000; stroke-opacity:1; 
stroke-linecap:round; stroke-linejoin:round;fill-rule:evenodd;"
d="M 171.2780,142.8960
171.2628,142.9725
171.2194,143.0374
171.1545,143.0808
171.0780,143.0960
170.6780,143.0960
170.6015,143.0808
170.5366,143.0374
170.4932,142.9725
170.4780,142.8960
170.4780,142.3460
170.4932,142.2695
170.5366,142.2046
170.6015,142.1612
170.6780,142.1460
171.0780,142.1460
171.1545,142.1612
171.2194,142.2046
171.2628,142.2695
171.2780,142.3460
Z" /> 
<path style="fill:#000000; fill-opacity:1.0000; 
stroke:#000000; stroke-width:0.0000; stroke-opacity:1; 
stroke-linecap:round; stroke-linejoin:round;fill-rule:evenodd;"
d="M 169.6280,142.8960
169.6128,142.9725
169.5694,143.0374
169.5045,143.0808
169.4280,143.0960
169.0280,143.0960
168.9515,143.0808
168.8866,143.0374
168.8432,142.9725
168.8280,142.8960
168.8280,142.3460
168.8432,142.2695
168.8866,142.2046
168.9515,142.1612
169.0280,142.1460
169.4280,142.1460
169.5045,142.1612
169.5694,142.2046
169.6128,142.2695
169.6280,142.3460
Z" /> 
</g>
<g >
</g>
<g style="fill:#000000; fill-opacity:1.0000; 
stroke:#000000; stroke-width:0.0000; stroke-opacity:1; 
stroke-linecap:round; stroke-linejoin:round;">
<path style="fill:#000000; fill-opacity:1.0000; 
stroke:#000000; stroke-width:0.0000; stroke-opacity:1; 
stroke-linecap:round; stroke-linejoin:round;fill-rule:evenodd;"
d="M 178.7340,123.1000
178.7492,123.0235
178.7926,122.9586
178.8575,122.9152
178.9340,122.9000
179.3340,122.9000
179.4105,122.9152
179.4754,122.9586
179.5188,123.0235
179.5340,123.1000
179.5340,123.6500
179.5188,123.7265
179.4754,123.7914
179.4105,123.8348
179.3340,123.8500
178.9340,123.8500
178.8575,123.8348
178.7926,123.7914
178.7492,123.7265
178.7340,123.6500
Z" /> 
<path style="fill:#000000; fill-opacity:1.0000; 
stroke:#000000; stroke-width:0.0000; stroke-opacity:1; 
stroke-linecap:round; stroke-linejoin:round;fill-rule:evenodd;"
d="M 180.3840,123.1000
180.3992,123.0235
180.4426,122.9586
180.5075,122.9152
180.5840,122.9000
180.9840,122.9000
181.0605,122.9152
181.1254,122.9586
181.1688,123.0235
181.1840,123.1000
181.1840,123.6500
181.1688,123.7265
181.1254,123.7914
181.0605,123.8348
180.9840,123.8500
180.5840,123.8500
180.5075,123.8348
180.4426,123.7914
180.3992,123.7265
180.3840,123.6500
Z" /> 
</g>
<g >
</g>
<g style="fill:#000000; fill-opacity:1.0000; 
stroke:#000000; stroke-width:0.0000; stroke-opacity:1; 
stroke-linecap:round; stroke-linejoin:round;">
<path style="fill:#000000; fill-opacity:1.0000; 
stroke:#000000; stroke-width:0.0000; stroke-opacity:1; 
stroke-linecap:round; stroke-linejoin:round;fill-rule:evenodd;"
d="M 170.9910,133.7550
170.9988,133.7160
171.0209,133.6829
171.0540,133.6608
171.0930,133.6530
172.3150,133.6530
172.3540,133.6608
172.3871,133.6829
172.4092,133.7160
172.4170,133.7550
172.4170,134.9770
172.4092,135.0160
172.3871,135.0491
172.3540,135.0712
172.3150,135.0790
171.0930,135.0790
171.0540,135.0712
171.0209,135.0491
170.9988,135.0160
170.9910,134.9770
Z" /> 
<circle cx="174.2440" cy="131.8260" r="0.7130" /> 
</g>
<g style="fill:#000000; fill-opacity:1.0000; 
stroke:#000000; stroke-width:0.0212; stroke-opacity:1; 
stroke-linecap:round; stroke-linejoin:round;">
</g>
<g style="fill:#000000; fill-opacity:1.0000; 
stroke:#000000; stroke-width:0.0000; stroke-opacity:1; 
stroke-linecap:round; stroke-linejoin:round;">
<circle cx="176.7840" cy="134.3660" r="0.7130" /> 
</g>
<g style="fill:#000000; fill-opacity:1.0000; 
stroke:#000000; stroke-width:0.0212; stroke-opacity:1; 
stroke-linecap:round; stroke-linejoin:round;">
</g>
<g >
</g>
<g style="fill:#000000; fill-opacity:1.0000; 
stroke:#000000; stroke-width:0.0212; stroke-opacity:1; 
stroke-linecap:round; stroke-linejoin:round;">
</g>
<g style="fill:#000000; fill-opacity:1.0000; 
stroke:#000000; stroke-width:0.0000; stroke-opacity:1; 
stroke-linecap:round; stroke-linejoin:round;">
<path style="fill:#000000; fill-opacity:1.0000; 
stroke:#000000; stroke-width:0.0000; stroke-opacity:1; 
stroke-linecap:round; stroke-linejoin:round;fill-rule:evenodd;"
d="M 156.1870,142.3880
156.1296,142.3766
156.0809,142.3441
156.0484,142.2954
156.0370,142.2380
156.0370,140.5980
156.0484,140.5406
156.0809,140.4919
156.1296,140.4594
156.1870,140.4480
156.4870,140.4480
156.5444,140.4594
156.5931,140.4919
156.6256,140.5406
156.6370,140.5980
156.6370,142.2380
156.6256,142.2954
156.5931,142.3441
156.5444,142.3766
156.4870,142.3880
Z" /> 
<path style="fill:#000000; fill-opacity:1.0000; 
stroke:#000000; stroke-width:0.0000; stroke-opacity:1; 
stroke-linecap:round; stroke-linejoin:round;fill-rule:evenodd;"
d="M 157.4570,142.3880
157.3996,142.3766
157.3509,142.3441
157.3184,142.2954
157.3070,142.2380
157.3070,140.5980
157.3184,140.5406
157.3509,140.4919
157.3996,140.4594
157.4570,140.4480
157.7570,140.4480
157.8144,140.4594
157.8631,140.4919
157.8956,140.5406
157.9070,140.5980
157.9070,142.2380
157.8956,142.2954
157.8631,142.3441
157.8144,142.3766
157.7570,142.3880
Z" /> 
<path style="fill:#000000; fill-opacity:1.0000; 
stroke:#000000; stroke-width:0.0000; stroke-opacity:1; 
stroke-linecap:round; stroke-linejoin:round;fill-rule:evenodd;"
d="M 158.7270,142.3880
158.6696,142.3766
158.6209,142.3441
158.5884,142.2954
158.5770,142.2380
158.5770,140.5980
158.5884,140.5406
158.6209,140.4919
158.6696,140.4594
158.7270,140.4480
159.0270,140.4480
159.0844,140.4594
159.1331,140.4919
159.1656,140.5406
159.1770,140.5980
159.1770,142.2380
159.1656,142.2954
159.1331,142.3441
159.0844,142.3766
159.0270,142.3880
Z" /> 
<path style="fill:#000000; fill-opacity:1.0000; 
stroke:#000000; stroke-width:0.0000; stroke-opacity:1; 
stroke-linecap:round; stroke-linejoin:round;fill-rule:evenodd;"
d="M 159.9970,142.3880
159.9396,142.3766
159.8909,142.3441
159.8584,142.2954
159.8470,142.2380
159.8470,140.5980
159.8584,140.5406
159.8909,140.4919
159.9396,140.4594
159.9970,140.4480
160.2970,140.4480
160.3544,140.4594
160.4031,140.4919
160.4356,140.5406
160.4470,140.5980
160.4470,142.2380
160.4356,142.2954
160.4031,142.3441
160.3544,142.3766
160.2970,142.3880
Z" /> 
<path style="fill:#000000; fill-opacity:1.0000; 
stroke:#000000; stroke-width:0.0000; stroke-opacity:1; 
stroke-linecap:round; stroke-linejoin:round;fill-rule:evenodd;"
d="M 159.9970,137.4280
159.9396,137.4166
159.8909,137.3841
159.8584,137.3354
159.8470,137.2780
159.8470,135.6380
159.8584,135.5806
159.8909,135.5319
159.9396,135.4994
159.9970,135.4880
160.2970,135.4880
160.3544,135.4994
160.4031,135.5319
160.4356,135.5806
160.4470,135.6380
160.4470,137.2780
160.4356,137.3354
160.4031,137.3841
160.3544,137.4166
160.2970,137.4280
Z" /> 
<path style="fill:#000000; fill-opacity:1.0000; 
stroke:#000000; stroke-width:0.0000; stroke-opacity:1; 
stroke-linecap:round; stroke-linejoin:round;fill-rule:evenodd;"
d="M 158.7270,137.4280
158.6696,137.4166
158.6209,137.3841
158.5884,137.3354
158.5770,137.2780
158.5770,135.6380
158.5884,135.5806
158.6209,135.5319
158.6696,135.4994
158.7270,135.4880
159.0270,135.4880
159.0844,135.4994
159.1331,135.5319
159.1656,135.5806
159.1770,135.6380
159.1770,137.2780
159.1656,137.3354
159.1331,137.3841
159.0844,137.4166
159.0270,137.4280
Z" /> 
<path style="fill:#000000; fill-opacity:1.0000; 
stroke:#000000; stroke-width:0.0000; stroke-opacity:1; 
stroke-linecap:round; stroke-linejoin:round;fill-rule:evenodd;"
d="M 157.4570,137.4280
157.3996,137.4166
157.3509,137.3841
157.3184,137.3354
157.3070,137.2780
157.3070,135.6380
157.3184,135.5806
157.3509,135.5319
157.3996,135.4994
157.4570,135.4880
157.7570,135.4880
157.8144,135.4994
157.8631,135.5319
157.8956,135.5806
157.9070,135.6380
157.9070,137.2780
157.8956,137.3354
157.8631,137.3841
157.8144,137.4166
157.7570,137.4280
Z" /> 
<path style="fill:#000000; fill-opacity:1.0000; 
stroke:#000000; stroke-width:0.0000; stroke-opacity:1; 
stroke-linecap:round; stroke-linejoin:round;fill-rule:evenodd;"
d="M 156.1870,137.4280
156.1296,137.4166
156.0809,137.3841
156.0484,137.3354
156.0370,137.2780
156.0370,135.6380
156.0484,135.5806
156.0809,135.5319
156.1296,135.4994
156.1870,135.4880
156.4870,135.4880
156.5444,135.4994
156.5931,135.5319
156.6256,135.5806
156.6370,135.6380
156.6370,137.2780
156.6256,137.3354
156.5931,137.3841
156.5444,137.4166
156.4870,137.4280
Z" /> 
</g>
<g >
</g>
<g style="fill:#000000; fill-opacity:1.0000; 
stroke:#000000; stroke-width:0.0000; stroke-opacity:1; 
stroke-linecap:round; stroke-linejoin:round;">
<path style="fill:#000000; fill-opacity:1.0000; 
stroke:#000000; stroke-width:0.0000; stroke-opacity:1; 
stroke-linecap:round; stroke-linejoin:round;fill-rule:evenodd;"
d="M 165.2230,94.3110
165.3091,94.3281
165.3821,94.3769
165.4309,94.4499
165.4480,94.5360
165.4480,94.9860
165.4309,95.0721
165.3821,95.1451
165.3091,95.1939
165.2230,95.2110
164.7230,95.2110
164.6369,95.1939
164.5639,95.1451
164.5151,95.0721
164.4980,94.9860
164.4980,94.5360
164.5151,94.4499
164.5639,94.3769
164.6369,94.3281
164.7230,94.3110
Z" /> 
<path style="fill:#000000; fill-opacity:1.0000; 
stroke:#000000; stroke-width:0.0000; stroke-opacity:1; 
stroke-linecap:round; stroke-linejoin:round;fill-rule:evenodd;"
d="M 165.2230,95.8610
165.3091,95.8781
165.3821,95.9269
165.4309,95.9999
165.4480,96.0860
165.4480,96.5360
165.4309,96.6221
165.3821,96.6951
165.3091,96.7439
165.2230,96.7610
164.7230,96.7610
164.6369,96.7439
164.5639,96.6951
164.5151,96.6221
164.4980,96.5360
164.4980,96.0860
164.5151,95.9999
164.5639,95.9269
164.6369,95.8781
164.7230,95.8610
Z" /> 
</g>
<g >
</g>
<g style="fill:#000000; fill-opacity:1.0000; 
stroke:#000000; stroke-width:0.0000; stroke-opacity:1; 
stroke-linecap:round; stroke-linejoin:round;">
<path style="fill:#000000; fill-opacity:1.0000; 
stroke:#000000; stroke-width:0.0000; stroke-opacity:1; 
stroke-linecap:round; stroke-linejoin:round;fill-rule:evenodd;"
d="M 138.6660,130.9640
138.6850,130.8683
138.7392,130.7872
138.8203,130.7330
138.9160,130.7140
139.8160,130.7140
139.9117,130.7330
139.9928,130.7872
140.0470,130.8683
140.0660,130.9640
140.0660,131.8140
140.0470,131.9097
139.9928,131.9908
139.9117,132.0450
139.8160,132.0640
138.9160,132.0640
138.8203,132.0450
138.7392,131.9908
138.6850,131.9097
138.6660,131.8140
Z" /> 
<path style="fill:#000000; fill-opacity:1.0000; 
stroke:#000000; stroke-width:0.0000; stroke-opacity:1; 
stroke-linecap:round; stroke-linejoin:round;fill-rule:evenodd;"
d="M 141.3660,130.9640
141.3850,130.8683
141.4392,130.7872
141.5203,130.7330
141.6160,130.7140
142.5160,130.7140
142.6117,130.7330
142.6928,130.7872
142.7470,130.8683
142.7660,130.9640
142.7660,131.8140
142.7470,131.9097
142.6928,131.9908
142.6117,132.0450
142.5160,132.0640
141.6160,132.0640
141.5203,132.0450
141.4392,131.9908
141.3850,131.9097
141.3660,131.8140
Z" /> 
</g>
<g >
</g>
<g style="fill:#000000; fill-opacity:1.0000; 
stroke:#000000; stroke-width:0.0000; stroke-opacity:1; 
stroke-linecap:round; stroke-linejoin:round;">
<path style="fill:#000000; fill-opacity:1.0000; 
stroke:#000000; stroke-width:0.0000; stroke-opacity:1; 
stroke-linecap:round; stroke-linejoin:round;fill-rule:evenodd;"
d="M 166.8330,83.1395
166.8159,83.2256
166.7671,83.2986
166.6941,83.3474
166.6080,83.3645
166.1580,83.3645
166.0719,83.3474
165.9989,83.2986
165.9501,83.2256
165.9330,83.1395
165.9330,82.6395
165.9501,82.5534
165.9989,82.4804
166.0719,82.4316
166.1580,82.4145
166.6080,82.4145
166.6941,82.4316
166.7671,82.4804
166.8159,82.5534
166.8330,82.6395
Z" /> 
<path style="fill:#000000; fill-opacity:1.0000; 
stroke:#000000; stroke-width:0.0000; stroke-opacity:1; 
stroke-linecap:round; stroke-linejoin:round;fill-rule:evenodd;"
d="M 165.2830,83.1395
165.2659,83.2256
165.2171,83.2986
165.1441,83.3474
165.0580,83.3645
164.6080,83.3645
164.5219,83.3474
164.4489,83.2986
164.4001,83.2256
164.3830,83.1395
164.3830,82.6395
164.4001,82.5534
164.4489,82.4804
164.5219,82.4316
164.6080,82.4145
165.0580,82.4145
165.1441,82.4316
165.2171,82.4804
165.2659,82.5534
165.2830,82.6395
Z" /> 
</g>
<g >
</g>
<g style="fill:#000000; fill-opacity:1.0000; 
stroke:#000000; stroke-width:0.0000; stroke-opacity:1; 
stroke-linecap:round; stroke-linejoin:round;">
<path style="fill:#000000; fill-opacity:1.0000; 
stroke:#000000; stroke-width:0.0000; stroke-opacity:1; 
stroke-linecap:round; stroke-linejoin:round;fill-rule:evenodd;"
d="M 145.5630,137.9030
145.6395,137.9182
145.7044,137.9616
145.7478,138.0265
145.7630,138.1030
145.7630,138.5030
145.7478,138.5795
145.7044,138.6444
145.6395,138.6878
145.5630,138.7030
145.0130,138.7030
144.9365,138.6878
144.8716,138.6444
144.8282,138.5795
144.8130,138.5030
144.8130,138.1030
144.8282,138.0265
144.8716,137.9616
144.9365,137.9182
145.0130,137.9030
Z" /> 
<path style="fill:#000000; fill-opacity:1.0000; 
stroke:#000000; stroke-width:0.0000; stroke-opacity:1; 
stroke-linecap:round; stroke-linejoin:round;fill-rule:evenodd;"
d="M 145.5630,139.5530
145.6395,139.5682
145.7044,139.6116
145.7478,139.6765
145.7630,139.7530
145.7630,140.1530
145.7478,140.2295
145.7044,140.2944
145.6395,140.3378
145.5630,140.3530
145.0130,140.3530
144.9365,140.3378
144.8716,140.2944
144.8282,140.2295
144.8130,140.1530
144.8130,139.7530
144.8282,139.6765
144.8716,139.6116
144.9365,139.5682
145.0130,139.5530
Z" /> 
</g>
<g >
</g>
<g style="fill:#000000; fill-opacity:1.0000; 
stroke:#000000; stroke-width:0.0000; stroke-opacity:1; 
stroke-linecap:round; stroke-linejoin:round;">
<path style="fill:#000000; fill-opacity:1.0000; 
stroke:#000000; stroke-width:0.0000; stroke-opacity:1; 
stroke-linecap:round; stroke-linejoin:round;fill-rule:evenodd;"
d="M 143.7940,76.1190
143.7940,78.7190
141.1940,78.7190
141.1940,76.1190
Z" /> 
<circle cx="137.4140" cy="77.4190" r="1.3000" /> 
</g>
<g style="fill:#000000; fill-opacity:1.0000; 
stroke:#000000; stroke-width:0.0212; stroke-opacity:1; 
stroke-linecap:round; stroke-linejoin:round;">
</g>
<g >
</g>
<g style="fill:#000000; fill-opacity:1.0000; 
stroke:#000000; stroke-width:0.0212; stroke-opacity:1; 
stroke-linecap:round; stroke-linejoin:round;">
</g>
<g style="fill:#000000; fill-opacity:1.0000; 
stroke:#000000; stroke-width:0.0000; stroke-opacity:1; 
stroke-linecap:round; stroke-linejoin:round;">
<circle cx="114.8600" cy="124.4580" r="1.2500" /> 
</g>
<g style="fill:#000000; fill-opacity:1.0000; 
stroke:#000000; stroke-width:0.0212; stroke-opacity:1; 
stroke-linecap:round; stroke-linejoin:round;">
</g>
<g >
</g>
<g style="fill:#000000; fill-opacity:1.0000; 
stroke:#000000; stroke-width:0.0212; stroke-opacity:1; 
stroke-linecap:round; stroke-linejoin:round;">
</g>
<g style="fill:#000000; fill-opacity:1.0000; 
stroke:#000000; stroke-width:0.0000; stroke-opacity:1; 
stroke-linecap:round; stroke-linejoin:round;">
<path style="fill:#000000; fill-opacity:1.0000; 
stroke:#000000; stroke-width:0.0000; stroke-opacity:1; 
stroke-linecap:round; stroke-linejoin:round;fill-rule:evenodd;"
d="M 166.8025,97.4130
166.8196,97.3269
166.8684,97.2539
166.9414,97.2051
167.0275,97.1880
167.4775,97.1880
167.5636,97.2051
167.6366,97.2539
167.6854,97.3269
167.7025,97.4130
167.7025,97.9130
167.6854,97.9991
167.6366,98.0721
167.5636,98.1209
167.4775,98.1380
167.0275,98.1380
166.9414,98.1209
166.8684,98.0721
166.8196,97.9991
166.8025,97.9130
Z" /> 
<path style="fill:#000000; fill-opacity:1.0000; 
stroke:#000000; stroke-width:0.0000; stroke-opacity:1; 
stroke-linecap:round; stroke-linejoin:round;fill-rule:evenodd;"
d="M 168.3525,97.4130
168.3696,97.3269
168.4184,97.2539
168.4914,97.2051
168.5775,97.1880
169.0275,97.1880
169.1136,97.2051
169.1866,97.2539
169.2354,97.3269
169.2525,97.4130
169.2525,97.9130
169.2354,97.9991
169.1866,98.0721
169.1136,98.1209
169.0275,98.1380
168.5775,98.1380
168.4914,98.1209
168.4184,98.0721
168.3696,97.9991
168.3525,97.9130
Z" /> 
</g>
<g >
</g>
<g style="fill:#000000; fill-opacity:1.0000; 
stroke:#000000; stroke-width:0.0000; stroke-opacity:1; 
stroke-linecap:round; stroke-linejoin:round;">
<path style="fill:#000000; fill-opacity:1.0000; 
stroke:#000000; stroke-width:0.0000; stroke-opacity:1; 
stroke-linecap:round; stroke-linejoin:round;fill-rule:evenodd;"
d="M 167.2700,77.3540
165.4700,77.3540
165.4700,75.5540
167.2700,75.5540
Z" /> 
<circle cx="166.3700" cy="73.9140" r="0.9000" /> 
</g>
<g style="fill:#000000; fill-opacity:1.0000; 
stroke:#000000; stroke-width:0.0212; stroke-opacity:1; 
stroke-linecap:round; stroke-linejoin:round;">
</g>
<g >
</g>
<g style="fill:#000000; fill-opacity:1.0000; 
stroke:#000000; stroke-width:0.0212; stroke-opacity:1; 
stroke-linecap:round; stroke-linejoin:round;">
</g>
<g style="fill:#000000; fill-opacity:1.0000; 
stroke:#000000; stroke-width:0.0000; stroke-opacity:1; 
stroke-linecap:round; stroke-linejoin:round;">
<path style="fill:#000000; fill-opacity:1.0000; 
stroke:#000000; stroke-width:0.0000; stroke-opacity:1; 
stroke-linecap:round; stroke-linejoin:round;fill-rule:evenodd;"
d="M 164.3830,84.3510
164.3982,84.2745
164.4416,84.2096
164.5065,84.1662
164.5830,84.1510
164.9830,84.1510
165.0595,84.1662
165.1244,84.2096
165.1678,84.2745
165.1830,84.3510
165.1830,84.9010
165.1678,84.9775
165.1244,85.0424
165.0595,85.0858
164.9830,85.1010
164.5830,85.1010
164.5065,85.0858
164.4416,85.0424
164.3982,84.9775
164.3830,84.9010
Z" /> 
<path style="fill:#000000; fill-opacity:1.0000; 
stroke:#000000; stroke-width:0.0000; stroke-opacity:1; 
stroke-linecap:round; stroke-linejoin:round;fill-rule:evenodd;"
d="M 166.0330,84.3510
166.0482,84.2745
166.0916,84.2096
166.1565,84.1662
166.2330,84.1510
166.6330,84.1510
166.7095,84.1662
166.7744,84.2096
166.8178,84.2745
166.8330,84.3510
166.8330,84.9010
166.8178,84.9775
166.7744,85.0424
166.7095,85.0858
166.6330,85.1010
166.2330,85.1010
166.1565,85.0858
166.0916,85.0424
166.0482,84.9775
166.0330,84.9010
Z" /> 
</g>
<g >
</g>
<g style="fill:#000000; fill-opacity:1.0000; 
stroke:#000000; stroke-width:0.0000; stroke-opacity:1; 
stroke-linecap:round; stroke-linejoin:round;">
<path style="fill:#000000; fill-opacity:1.0000; 
stroke:#000000; stroke-width:0.0000; stroke-opacity:1; 
stroke-linecap:round; stroke-linejoin:round;fill-rule:evenodd;"
d="M 163.3710,125.7540
163.3788,125.7150
163.4009,125.6819
163.4340,125.6598
163.4730,125.6520
164.6950,125.6520
164.7340,125.6598
164.7671,125.6819
164.7892,125.7150
164.7970,125.7540
164.7970,126.9760
164.7892,127.0150
164.7671,127.0481
164.7340,127.0702
164.6950,127.0780
163.4730,127.0780
163.4340,127.0702
163.4009,127.0481
163.3788,127.0150
163.3710,126.9760
Z" /> 
<circle cx="166.6240" cy="123.8250" r="0.7130" /> 
</g>
<g style="fill:#000000; fill-opacity:1.0000; 
stroke:#000000; stroke-width:0.0212; stroke-opacity:1; 
stroke-linecap:round; stroke-linejoin:round;">
</g>
<g style="fill:#000000; fill-opacity:1.0000; 
stroke:#000000; stroke-width:0.0000; stroke-opacity:1; 
stroke-linecap:round; stroke-linejoin:round;">
<circle cx="169.1640" cy="126.3650" r="0.7130" /> 
</g>
<g style="fill:#000000; fill-opacity:1.0000; 
stroke:#000000; stroke-width:0.0212; stroke-opacity:1; 
stroke-linecap:round; stroke-linejoin:round;">
</g>
<g >
</g>
<g style="fill:#000000; fill-opacity:1.0000; 
stroke:#000000; stroke-width:0.0212; stroke-opacity:1; 
stroke-linecap:round; stroke-linejoin:round;">
</g>
<g style="fill:#000000; fill-opacity:1.0000; 
stroke:#000000; stroke-width:0.0000; stroke-opacity:1; 
stroke-linecap:round; stroke-linejoin:round;">
<path style="fill:#000000; fill-opacity:1.0000; 
stroke:#000000; stroke-width:0.0000; stroke-opacity:1; 
stroke-linecap:round; stroke-linejoin:round;fill-rule:evenodd;"
d="M 155.3900,111.0830
155.4090,110.9873
155.4632,110.9062
155.5443,110.8520
155.6400,110.8330
158.1400,110.8330
158.2357,110.8520
158.3168,110.9062
158.3710,110.9873
158.3900,111.0830
158.3900,112.1830
158.3710,112.2787
158.3168,112.3598
158.2357,112.4140
158.1400,112.4330
155.6400,112.4330
155.5443,112.4140
155.4632,112.3598
155.4090,112.2787
155.3900,112.1830
Z" /> 
<path style="fill:#000000; fill-opacity:1.0000; 
stroke:#000000; stroke-width:0.0000; stroke-opacity:1; 
stroke-linecap:round; stroke-linejoin:round;fill-rule:evenodd;"
d="M 159.7900,111.0830
159.8090,110.9873
159.8632,110.9062
159.9443,110.8520
160.0400,110.8330
162.5400,110.8330
162.6357,110.8520
162.7168,110.9062
162.7710,110.9873
162.7900,111.0830
162.7900,112.1830
162.7710,112.2787
162.7168,112.3598
162.6357,112.4140
162.5400,112.4330
160.0400,112.4330
159.9443,112.4140
159.8632,112.3598
159.8090,112.2787
159.7900,112.1830
Z" /> 
</g>
<g >
</g>
<g style="fill:#000000; fill-opacity:1.0000; 
stroke:#000000; stroke-width:0.0000; stroke-opacity:1; 
stroke-linecap:round; stroke-linejoin:round;">
<path style="fill:#000000; fill-opacity:1.0000; 
stroke:#000000; stroke-width:0.0000; stroke-opacity:1; 
stroke-linecap:round; stroke-linejoin:round;fill-rule:evenodd;"
d="M 138.6660,136.2690
138.6850,136.1733
138.7392,136.0922
138.8203,136.0380
138.9160,136.0190
139.8160,136.0190
139.9117,136.0380
139.9928,136.0922
140.0470,136.1733
140.0660,136.2690
140.0660,137.1190
140.0470,137.2147
139.9928,137.2958
139.9117,137.3500
139.8160,137.3690
138.9160,137.3690
138.8203,137.3500
138.7392,137.2958
138.6850,137.2147
138.6660,137.1190
Z" /> 
<path style="fill:#000000; fill-opacity:1.0000; 
stroke:#000000; stroke-width:0.0000; stroke-opacity:1; 
stroke-linecap:round; stroke-linejoin:round;fill-rule:evenodd;"
d="M 141.3660,136.2690
141.3850,136.1733
141.4392,136.0922
141.5203,136.0380
141.6160,136.0190
142.5160,136.0190
142.6117,136.0380
142.6928,136.0922
142.7470,136.1733
142.7660,136.2690
142.7660,137.1190
142.7470,137.2147
142.6928,137.2958
142.6117,137.3500
142.5160,137.3690
141.6160,137.3690
141.5203,137.3500
141.4392,137.2958
141.3850,137.2147
141.3660,137.1190
Z" /> 
</g>
<g >
</g>
<g style="fill:#000000; fill-opacity:1.0000; 
stroke:#000000; stroke-width:0.0000; stroke-opacity:1; 
stroke-linecap:round; stroke-linejoin:round;">
<circle cx="147.3200" cy="108.4580" r="0.7624" /> 
</g>
<g style="fill:#000000; fill-opacity:1.0000; 
stroke:#000000; stroke-width:0.0212; stroke-opacity:1; 
stroke-linecap:round; stroke-linejoin:round;">
</g>
<g style="fill:#000000; fill-opacity:1.0000; 
stroke:#000000; stroke-width:0.0000; stroke-opacity:1; 
stroke-linecap:round; stroke-linejoin:round;">
<circle cx="149.8600" cy="110.9980" r="0.7624" /> 
</g>
<g style="fill:#000000; fill-opacity:1.0000; 
stroke:#000000; stroke-width:0.0212; stroke-opacity:1; 
stroke-linecap:round; stroke-linejoin:round;">
</g>
<g style="fill:#000000; fill-opacity:1.0000; 
stroke:#000000; stroke-width:0.0000; stroke-opacity:1; 
stroke-linecap:round; stroke-linejoin:round;">
<circle cx="152.4000" cy="108.4580" r="0.7624" /> 
</g>
<g style="fill:#000000; fill-opacity:1.0000; 
stroke:#000000; stroke-width:0.0212; stroke-opacity:1; 
stroke-linecap:round; stroke-linejoin:round;">
</g>
<g >
</g>
<g style="fill:#000000; fill-opacity:1.0000; 
stroke:#000000; stroke-width:0.0212; stroke-opacity:1; 
stroke-linecap:round; stroke-linejoin:round;">
</g>
<g style="fill:#000000; fill-opacity:1.0000; 
stroke:#000000; stroke-width:0.0000; stroke-opacity:1; 
stroke-linecap:round; stroke-linejoin:round;">
<circle cx="184.8600" cy="124.4580" r="1.2500" /> 
</g>
<g style="fill:#000000; fill-opacity:1.0000; 
stroke:#000000; stroke-width:0.0212; stroke-opacity:1; 
stroke-linecap:round; stroke-linejoin:round;">
</g>
<g >
</g>
<g style="fill:#000000; fill-opacity:1.0000; 
stroke:#000000; stroke-width:0.0212; stroke-opacity:1; 
stroke-linecap:round; stroke-linejoin:round;">
</g>
<g style="fill:#000000; fill-opacity:1.0000; 
stroke:#000000; stroke-width:0.0000; stroke-opacity:1; 
stroke-linecap:round; stroke-linejoin:round;">
<path style="fill:#000000; fill-opacity:1.0000; 
stroke:#000000; stroke-width:0.0000; stroke-opacity:1; 
stroke-linecap:round; stroke-linejoin:round;fill-rule:evenodd;"
d="M 163.0230,81.4280
163.0078,81.5045
162.9644,81.5694
162.8995,81.6128
162.8230,81.6280
162.4230,81.6280
162.3465,81.6128
162.2816,81.5694
162.2382,81.5045
162.2230,81.4280
162.2230,80.8780
162.2382,80.8015
162.2816,80.7366
162.3465,80.6932
162.4230,80.6780
162.8230,80.6780
162.8995,80.6932
162.9644,80.7366
163.0078,80.8015
163.0230,80.8780
Z" /> 
<path style="fill:#000000; fill-opacity:1.0000; 
stroke:#000000; stroke-width:0.0000; stroke-opacity:1; 
stroke-linecap:round; stroke-linejoin:round;fill-rule:evenodd;"
d="M 161.3730,81.4280
161.3578,81.5045
161.3144,81.5694
161.2495,81.6128
161.1730,81.6280
160.7730,81.6280
160.6965,81.6128
160.6316,81.5694
160.5882,81.5045
160.5730,81.4280
160.5730,80.8780
160.5882,80.8015
160.6316,80.7366
160.6965,80.6932
160.7730,80.6780
161.1730,80.6780
161.2495,80.6932
161.3144,80.7366
161.3578,80.8015
161.3730,80.8780
Z" /> 
</g>
<g >
</g>
<g style="fill:#000000; fill-opacity:1.0000; 
stroke:#000000; stroke-width:0.0000; stroke-opacity:1; 
stroke-linecap:round; stroke-linejoin:round;">
<path style="fill:#000000; fill-opacity:1.0000; 
stroke:#000000; stroke-width:0.0000; stroke-opacity:1; 
stroke-linecap:round; stroke-linejoin:round;fill-rule:evenodd;"
d="M 154.4955,114.0365
154.5345,114.0443
154.5676,114.0664
154.5897,114.0995
154.5975,114.1385
154.5975,115.7895
154.5897,115.8285
154.5676,115.8616
154.5345,115.8837
154.4955,115.8915
152.8445,115.8915
152.8055,115.8837
152.7724,115.8616
152.7503,115.8285
152.7425,115.7895
152.7425,114.1385
152.7503,114.0995
152.7724,114.0664
152.8055,114.0443
152.8445,114.0365
Z" /> 
<circle cx="151.1300" cy="114.9640" r="0.9275" /> 
</g>
<g style="fill:#000000; fill-opacity:1.0000; 
stroke:#000000; stroke-width:0.0212; stroke-opacity:1; 
stroke-linecap:round; stroke-linejoin:round;">
</g>
<g style="fill:#000000; fill-opacity:1.0000; 
stroke:#000000; stroke-width:0.0000; stroke-opacity:1; 
stroke-linecap:round; stroke-linejoin:round;">
<circle cx="148.5900" cy="114.9640" r="0.9275" /> 
</g>
<g style="fill:#000000; fill-opacity:1.0000; 
stroke:#000000; stroke-width:0.0212; stroke-opacity:1; 
stroke-linecap:round; stroke-linejoin:round;">
</g>
<g style="fill:#000000; fill-opacity:1.0000; 
stroke:#000000; stroke-width:0.0000; stroke-opacity:1; 
stroke-linecap:round; stroke-linejoin:round;">
<circle cx="146.0500" cy="114.9640" r="0.9275" /> 
</g>
<g style="fill:#000000; fill-opacity:1.0000; 
stroke:#000000; stroke-width:0.0212; stroke-opacity:1; 
stroke-linecap:round; stroke-linejoin:round;">
</g>
<g >
</g>
<g style="fill:#000000; fill-opacity:1.0000; 
stroke:#000000; stroke-width:0.0212; stroke-opacity:1; 
stroke-linecap:round; stroke-linejoin:round;">
</g>
<g style="fill:#000000; fill-opacity:1.0000; 
stroke:#000000; stroke-width:0.0000; stroke-opacity:1; 
stroke-linecap:round; stroke-linejoin:round;">
<path style="fill:#000000; fill-opacity:1.0000; 
stroke:#000000; stroke-width:0.0000; stroke-opacity:1; 
stroke-linecap:round; stroke-linejoin:round;fill-rule:evenodd;"
d="M 166.2130,94.5360
166.2301,94.4499
166.2789,94.3769
166.3519,94.3281
166.4380,94.3110
166.8880,94.3110
166.9741,94.3281
167.0471,94.3769
167.0959,94.4499
167.1130,94.5360
167.1130,95.0360
167.0959,95.1221
167.0471,95.1951
166.9741,95.2439
166.8880,95.2610
166.4380,95.2610
166.3519,95.2439
166.2789,95.1951
166.2301,95.1221
166.2130,95.0360
Z" /> 
<path style="fill:#000000; fill-opacity:1.0000; 
stroke:#000000; stroke-width:0.0000; stroke-opacity:1; 
stroke-linecap:round; stroke-linejoin:round;fill-rule:evenodd;"
d="M 167.7630,94.5360
167.7801,94.4499
167.8289,94.3769
167.9019,94.3281
167.9880,94.3110
168.4380,94.3110
168.5241,94.3281
168.5971,94.3769
168.6459,94.4499
168.6630,94.5360
168.6630,95.0360
168.6459,95.1221
168.5971,95.1951
168.5241,95.2439
168.4380,95.2610
167.9880,95.2610
167.9019,95.2439
167.8289,95.1951
167.7801,95.1221
167.7630,95.0360
Z" /> 
</g>
<g >
</g>
<g style="fill:#000000; fill-opacity:1.0000; 
stroke:#000000; stroke-width:0.0000; stroke-opacity:1; 
stroke-linecap:round; stroke-linejoin:round;">
<circle cx="184.8600" cy="92.4580" r="1.2500" /> 
</g>
<g style="fill:#000000; fill-opacity:1.0000; 
stroke:#000000; stroke-width:0.0212; stroke-opacity:1; 
stroke-linecap:round; stroke-linejoin:round;">
</g>
<g >
</g>
<g style="fill:#000000; fill-opacity:1.0000; 
stroke:#000000; stroke-width:0.0212; stroke-opacity:1; 
stroke-linecap:round; stroke-linejoin:round;">
</g>
<g style="fill:#000000; fill-opacity:1.0000; 
stroke:#000000; stroke-width:0.0000; stroke-opacity:1; 
stroke-linecap:round; stroke-linejoin:round;">
<path style="fill:#000000; fill-opacity:1.0000; 
stroke:#000000; stroke-width:0.0000; stroke-opacity:1; 
stroke-linecap:round; stroke-linejoin:round;fill-rule:evenodd;"
d="M 112.8210,109.4530
112.8362,109.3765
112.8796,109.3116
112.9445,109.2682
113.0210,109.2530
113.4210,109.2530
113.4975,109.2682
113.5624,109.3116
113.6058,109.3765
113.6210,109.4530
113.6210,110.0030
113.6058,110.0795
113.5624,110.1444
113.4975,110.1878
113.4210,110.2030
113.0210,110.2030
112.9445,110.1878
112.8796,110.1444
112.8362,110.0795
112.8210,110.0030
Z" /> 
<path style="fill:#000000; fill-opacity:1.0000; 
stroke:#000000; stroke-width:0.0000; stroke-opacity:1; 
stroke-linecap:round; stroke-linejoin:round;fill-rule:evenodd;"
d="M 114.4710,109.4530
114.4862,109.3765
114.5296,109.3116
114.5945,109.2682
114.6710,109.2530
115.0710,109.2530
115.1475,109.2682
115.2124,109.3116
115.2558,109.3765
115.2710,109.4530
115.2710,110.0030
115.2558,110.0795
115.2124,110.1444
115.1475,110.1878
115.0710,110.2030
114.6710,110.2030
114.5945,110.1878
114.5296,110.1444
114.4862,110.0795
114.4710,110.0030
Z" /> 
</g>
<g >
</g>
<g style="fill:#000000; fill-opacity:1.0000; 
stroke:#000000; stroke-width:0.0000; stroke-opacity:1; 
stroke-linecap:round; stroke-linejoin:round;">
<path style="fill:#000000; fill-opacity:1.0000; 
stroke:#000000; stroke-width:0.0000; stroke-opacity:1; 
stroke-linecap:round; stroke-linejoin:round;fill-rule:evenodd;"
d="M 170.8330,84.9010
170.8178,84.9775
170.7744,85.0424
170.7095,85.0858
170.6330,85.1010
170.2330,85.1010
170.1565,85.0858
170.0916,85.0424
170.0482,84.9775
170.0330,84.9010
170.0330,84.3510
170.0482,84.2745
170.0916,84.2096
170.1565,84.1662
170.2330,84.1510
170.6330,84.1510
170.7095,84.1662
170.7744,84.2096
170.8178,84.2745
170.8330,84.3510
Z" /> 
<path style="fill:#000000; fill-opacity:1.0000; 
stroke:#000000; stroke-width:0.0000; stroke-opacity:1; 
stroke-linecap:round; stroke-linejoin:round;fill-rule:evenodd;"
d="M 169.1830,84.9010
169.1678,84.9775
169.1244,85.0424
169.0595,85.0858
168.9830,85.1010
168.5830,85.1010
168.5065,85.0858
168.4416,85.0424
168.3982,84.9775
168.3830,84.9010
168.3830,84.3510
168.3982,84.2745
168.4416,84.2096
168.5065,84.1662
168.5830,84.1510
168.9830,84.1510
169.0595,84.1662
169.1244,84.2096
169.1678,84.2745
169.1830,84.3510
Z" /> 
</g>
<g >
</g>
<g style="fill:#000000; fill-opacity:1.0000; 
stroke:#000000; stroke-width:0.0000; stroke-opacity:1; 
stroke-linecap:round; stroke-linejoin:round;">
<path style="fill:#000000; fill-opacity:1.0000; 
stroke:#000000; stroke-width:0.0000; stroke-opacity:1; 
stroke-linecap:round; stroke-linejoin:round;fill-rule:evenodd;"
d="M 138.6660,128.0140
138.6850,127.9183
138.7392,127.8372
138.8203,127.7830
138.9160,127.7640
139.8160,127.7640
139.9117,127.7830
139.9928,127.8372
140.0470,127.9183
140.0660,128.0140
140.0660,128.8640
140.0470,128.9597
139.9928,129.0408
139.9117,129.0950
139.8160,129.1140
138.9160,129.1140
138.8203,129.0950
138.7392,129.0408
138.6850,128.9597
138.6660,128.8640
Z" /> 
<path style="fill:#000000; fill-opacity:1.0000; 
stroke:#000000; stroke-width:0.0000; stroke-opacity:1; 
stroke-linecap:round; stroke-linejoin:round;fill-rule:evenodd;"
d="M 141.3660,128.0140
141.3850,127.9183
141.4392,127.8372
141.5203,127.7830
141.6160,127.7640
142.5160,127.7640
142.6117,127.7830
142.6928,127.8372
142.7470,127.9183
142.7660,128.0140
142.7660,128.8640
142.7470,128.9597
142.6928,129.0408
142.6117,129.0950
142.5160,129.1140
141.6160,129.1140
141.5203,129.0950
141.4392,129.0408
141.3850,128.9597
141.3660,128.8640
Z" /> 
</g>
<g >
</g>
<g style="fill:#000000; fill-opacity:1.0000; 
stroke:#000000; stroke-width:0.0000; stroke-opacity:1; 
stroke-linecap:round; stroke-linejoin:round;">
<path style="fill:#000000; fill-opacity:1.0000; 
stroke:#000000; stroke-width:0.0000; stroke-opacity:1; 
stroke-linecap:round; stroke-linejoin:round;fill-rule:evenodd;"
d="M 137.2460,140.8690
137.2460,142.3690
135.2460,142.3690
135.2460,140.8690
Z" /> 
<path style="fill:#000000; fill-opacity:1.0000; 
stroke:#000000; stroke-width:0.0000; stroke-opacity:1; 
stroke-linecap:round; stroke-linejoin:round;fill-rule:evenodd;"
d="M 137.2460,138.5690
137.2460,140.0690
135.2460,140.0690
135.2460,138.5690
Z" /> 
<path style="fill:#000000; fill-opacity:1.0000; 
stroke:#000000; stroke-width:0.0000; stroke-opacity:1; 
stroke-linecap:round; stroke-linejoin:round;fill-rule:evenodd;"
d="M 130.9460,137.4190
130.9460,141.2190
128.9460,141.2190
128.9460,137.4190
Z" /> 
<path style="fill:#000000; fill-opacity:1.0000; 
stroke:#000000; stroke-width:0.0000; stroke-opacity:1; 
stroke-linecap:round; stroke-linejoin:round;fill-rule:evenodd;"
d="M 137.2460,136.2690
137.2460,137.7690
135.2460,137.7690
135.2460,136.2690
Z" /> 
</g>
<g >
</g>
<g style="fill:#000000; fill-opacity:1.0000; 
stroke:#000000; stroke-width:0.0000; stroke-opacity:1; 
stroke-linecap:round; stroke-linejoin:round;">
<path style="fill:#000000; fill-opacity:1.0000; 
stroke:#000000; stroke-width:0.0000; stroke-opacity:1; 
stroke-linecap:round; stroke-linejoin:round;fill-rule:evenodd;"
d="M 115.2455,107.4442
115.2288,107.5280
115.1814,107.5989
115.1105,107.6463
115.0267,107.6630
114.5892,107.6630
114.5055,107.6463
114.4346,107.5989
114.3872,107.5280
114.3705,107.4442
114.3705,106.9317
114.3872,106.8480
114.4346,106.7771
114.5055,106.7297
114.5892,106.7130
115.0267,106.7130
115.1105,106.7297
115.1814,106.7771
115.2288,106.8480
115.2455,106.9317
Z" /> 
<path style="fill:#000000; fill-opacity:1.0000; 
stroke:#000000; stroke-width:0.0000; stroke-opacity:1; 
stroke-linecap:round; stroke-linejoin:round;fill-rule:evenodd;"
d="M 113.6705,107.4442
113.6538,107.5280
113.6064,107.5989
113.5355,107.6463
113.4517,107.6630
113.0142,107.6630
112.9305,107.6463
112.8596,107.5989
112.8122,107.5280
112.7955,107.4442
112.7955,106.9317
112.8122,106.8480
112.8596,106.7771
112.9305,106.7297
113.0142,106.7130
113.4517,106.7130
113.5355,106.7297
113.6064,106.7771
113.6538,106.8480
113.6705,106.9317
Z" /> 
</g>
<g >
</g>
<g style="fill:#000000; fill-opacity:1.0000; 
stroke:#000000; stroke-width:0.0000; stroke-opacity:1; 
stroke-linecap:round; stroke-linejoin:round;">
<circle cx="135.5160" cy="87.7570" r="1.2000" /> 
</g>
<g style="fill:#000000; fill-opacity:1.0000; 
stroke:#000000; stroke-width:0.0212; stroke-opacity:1; 
stroke-linecap:round; stroke-linejoin:round;">
</g>
<g style="fill:#000000; fill-opacity:1.0000; 
stroke:#000000; stroke-width:0.0000; stroke-opacity:1; 
stroke-linecap:round; stroke-linejoin:round;">
<circle cx="120.5160" cy="87.7570" r="1.2000" /> 
</g>
<g style="fill:#000000; fill-opacity:1.0000; 
stroke:#000000; stroke-width:0.0212; stroke-opacity:1; 
stroke-linecap:round; stroke-linejoin:round;">
</g>
<g >
</g>
<g style="fill:#000000; fill-opacity:1.0000; 
stroke:#000000; stroke-width:0.0212; stroke-opacity:1; 
stroke-linecap:round; stroke-linejoin:round;">
</g>
<g style="fill:#000000; fill-opacity:1.0000; 
stroke:#000000; stroke-width:0.0000; stroke-opacity:1; 
stroke-linecap:round; stroke-linejoin:round;">
<path style="fill:#000000; fill-opacity:1.0000; 
stroke:#000000; stroke-width:0.0000; stroke-opacity:1; 
stroke-linecap:round; stroke-linejoin:round;fill-rule:evenodd;"
d="M 118.5660,130.2600
118.5850,130.1643
118.6392,130.0832
118.7203,130.0290
118.8160,130.0100
121.8160,130.0100
121.9117,130.0290
121.9928,130.0832
122.0470,130.1643
122.0660,130.2600
122.0660,131.3600
122.0470,131.4557
121.9928,131.5368
121.9117,131.5910
121.8160,131.6100
118.8160,131.6100
118.7203,131.5910
118.6392,131.5368
118.5850,131.4557
118.5660,131.3600
Z" /> 
<path style="fill:#000000; fill-opacity:1.0000; 
stroke:#000000; stroke-width:0.0000; stroke-opacity:1; 
stroke-linecap:round; stroke-linejoin:round;fill-rule:evenodd;"
d="M 123.9660,130.2600
123.9850,130.1643
124.0392,130.0832
124.1203,130.0290
124.2160,130.0100
127.2160,130.0100
127.3117,130.0290
127.3928,130.0832
127.4470,130.1643
127.4660,130.2600
127.4660,131.3600
127.4470,131.4557
127.3928,131.5368
127.3117,131.5910
127.2160,131.6100
124.2160,131.6100
124.1203,131.5910
124.0392,131.5368
123.9850,131.4557
123.9660,131.3600
Z" /> 
</g>
<g >
</g>
<g style="fill:#000000; fill-opacity:1.0000; 
stroke:#000000; stroke-width:0.0000; stroke-opacity:1; 
stroke-linecap:round; stroke-linejoin:round;">
<path style="fill:#000000; fill-opacity:1.0000; 
stroke:#000000; stroke-width:0.0000; stroke-opacity:1; 
stroke-linecap:round; stroke-linejoin:round;fill-rule:evenodd;"
d="M 179.2025,97.3880
179.2177,97.3115
179.2611,97.2466
179.3260,97.2032
179.4025,97.1880
179.8025,97.1880
179.8790,97.2032
179.9439,97.2466
179.9873,97.3115
180.0025,97.3880
180.0025,97.9380
179.9873,98.0145
179.9439,98.0794
179.8790,98.1228
179.8025,98.1380
179.4025,98.1380
179.3260,98.1228
179.2611,98.0794
179.2177,98.0145
179.2025,97.9380
Z" /> 
<path style="fill:#000000; fill-opacity:1.0000; 
stroke:#000000; stroke-width:0.0000; stroke-opacity:1; 
stroke-linecap:round; stroke-linejoin:round;fill-rule:evenodd;"
d="M 180.8525,97.3880
180.8677,97.3115
180.9111,97.2466
180.9760,97.2032
181.0525,97.1880
181.4525,97.1880
181.5290,97.2032
181.5939,97.2466
181.6373,97.3115
181.6525,97.3880
181.6525,97.9380
181.6373,98.0145
181.5939,98.0794
181.5290,98.1228
181.4525,98.1380
181.0525,98.1380
180.9760,98.1228
180.9111,98.0794
180.8677,98.0145
180.8525,97.9380
Z" /> 
</g>
<g >
</g>
<g style="fill:#000000; fill-opacity:1.0000; 
stroke:#000000; stroke-width:0.0000; stroke-opacity:1; 
stroke-linecap:round; stroke-linejoin:round;">
<path style="fill:#000000; fill-opacity:1.0000; 
stroke:#000000; stroke-width:0.0000; stroke-opacity:1; 
stroke-linecap:round; stroke-linejoin:round;fill-rule:evenodd;"
d="M 160.6920,79.4600
160.6155,79.4448
160.5506,79.4014
160.5072,79.3365
160.4920,79.2600
160.4920,78.8600
160.5072,78.7835
160.5506,78.7186
160.6155,78.6752
160.6920,78.6600
161.2420,78.6600
161.3185,78.6752
161.3834,78.7186
161.4268,78.7835
161.4420,78.8600
161.4420,79.2600
161.4268,79.3365
161.3834,79.4014
161.3185,79.4448
161.2420,79.4600
Z" /> 
<path style="fill:#000000; fill-opacity:1.0000; 
stroke:#000000; stroke-width:0.0000; stroke-opacity:1; 
stroke-linecap:round; stroke-linejoin:round;fill-rule:evenodd;"
d="M 160.6920,77.8100
160.6155,77.7948
160.5506,77.7514
160.5072,77.6865
160.4920,77.6100
160.4920,77.2100
160.5072,77.1335
160.5506,77.0686
160.6155,77.0252
160.6920,77.0100
161.2420,77.0100
161.3185,77.0252
161.3834,77.0686
161.4268,77.1335
161.4420,77.2100
161.4420,77.6100
161.4268,77.6865
161.3834,77.7514
161.3185,77.7948
161.2420,77.8100
Z" /> 
</g>
<g >
</g>
<g style="fill:#000000; fill-opacity:1.0000; 
stroke:#000000; stroke-width:0.0000; stroke-opacity:1; 
stroke-linecap:round; stroke-linejoin:round;">
<path style="fill:#000000; fill-opacity:1.0000; 
stroke:#000000; stroke-width:0.0000; stroke-opacity:1; 
stroke-linecap:round; stroke-linejoin:round;fill-rule:evenodd;"
d="M 150.5320,79.4100
150.4555,79.3948
150.3906,79.3514
150.3472,79.2865
150.3320,79.2100
150.3320,78.8100
150.3472,78.7335
150.3906,78.6686
150.4555,78.6252
150.5320,78.6100
151.0820,78.6100
151.1585,78.6252
151.2234,78.6686
151.2668,78.7335
151.2820,78.8100
151.2820,79.2100
151.2668,79.2865
151.2234,79.3514
151.1585,79.3948
151.0820,79.4100
Z" /> 
<path style="fill:#000000; fill-opacity:1.0000; 
stroke:#000000; stroke-width:0.0000; stroke-opacity:1; 
stroke-linecap:round; stroke-linejoin:round;fill-rule:evenodd;"
d="M 150.5320,77.7600
150.4555,77.7448
150.3906,77.7014
150.3472,77.6365
150.3320,77.5600
150.3320,77.1600
150.3472,77.0835
150.3906,77.0186
150.4555,76.9752
150.5320,76.9600
151.0820,76.9600
151.1585,76.9752
151.2234,77.0186
151.2668,77.0835
151.2820,77.1600
151.2820,77.5600
151.2668,77.6365
151.2234,77.7014
151.1585,77.7448
151.0820,77.7600
Z" /> 
</g>
<g >
</g>
<g style="fill:#000000; fill-opacity:1.0000; 
stroke:#000000; stroke-width:0.0000; stroke-opacity:1; 
stroke-linecap:round; stroke-linejoin:round;">
<path style="fill:#000000; fill-opacity:1.0000; 
stroke:#000000; stroke-width:0.0000; stroke-opacity:1; 
stroke-linecap:round; stroke-linejoin:round;fill-rule:evenodd;"
d="M 168.8845,140.5867
168.9012,140.5030
168.9486,140.4321
169.0195,140.3847
169.1033,140.3680
169.5408,140.3680
169.6245,140.3847
169.6954,140.4321
169.7428,140.5030
169.7595,140.5867
169.7595,141.0992
169.7428,141.1830
169.6954,141.2539
169.6245,141.3013
169.5408,141.3180
169.1033,141.3180
169.0195,141.3013
168.9486,141.2539
168.9012,141.1830
168.8845,141.0992
Z" /> 
<path style="fill:#000000; fill-opacity:1.0000; 
stroke:#000000; stroke-width:0.0000; stroke-opacity:1; 
stroke-linecap:round; stroke-linejoin:round;fill-rule:evenodd;"
d="M 170.4595,140.5867
170.4762,140.5030
170.5236,140.4321
170.5945,140.3847
170.6782,140.3680
171.1157,140.3680
171.1995,140.3847
171.2704,140.4321
171.3178,140.5030
171.3345,140.5867
171.3345,141.0992
171.3178,141.1830
171.2704,141.2539
171.1995,141.3013
171.1157,141.3180
170.6782,141.3180
170.5945,141.3013
170.5236,141.2539
170.4762,141.1830
170.4595,141.0992
Z" /> 
</g>
<g >
</g>
<g style="fill:#000000; fill-opacity:1.0000; 
stroke:#000000; stroke-width:0.0000; stroke-opacity:1; 
stroke-linecap:round; stroke-linejoin:round;">
<path style="fill:#000000; fill-opacity:1.0000; 
stroke:#000000; stroke-width:0.0000; stroke-opacity:1; 
stroke-linecap:round; stroke-linejoin:round;fill-rule:evenodd;"
d="M 171.0900,94.3110
171.1665,94.3262
171.2314,94.3696
171.2748,94.4345
171.2900,94.5110
171.2900,94.9110
171.2748,94.9875
171.2314,95.0524
171.1665,95.0958
171.0900,95.1110
170.5400,95.1110
170.4635,95.0958
170.3986,95.0524
170.3552,94.9875
170.3400,94.9110
170.3400,94.5110
170.3552,94.4345
170.3986,94.3696
170.4635,94.3262
170.5400,94.3110
Z" /> 
<path style="fill:#000000; fill-opacity:1.0000; 
stroke:#000000; stroke-width:0.0000; stroke-opacity:1; 
stroke-linecap:round; stroke-linejoin:round;fill-rule:evenodd;"
d="M 171.0900,95.9610
171.1665,95.9762
171.2314,96.0196
171.2748,96.0845
171.2900,96.1610
171.2900,96.5610
171.2748,96.6375
171.2314,96.7024
171.1665,96.7458
171.0900,96.7610
170.5400,96.7610
170.4635,96.7458
170.3986,96.7024
170.3552,96.6375
170.3400,96.5610
170.3400,96.1610
170.3552,96.0845
170.3986,96.0196
170.4635,95.9762
170.5400,95.9610
Z" /> 
</g>
<g >
</g>
<g style="fill:#000000; fill-opacity:1.0000; 
stroke:#000000; stroke-width:0.0000; stroke-opacity:1; 
stroke-linecap:round; stroke-linejoin:round;">
<path style="fill:#000000; fill-opacity:1.0000; 
stroke:#000000; stroke-width:0.0000; stroke-opacity:1; 
stroke-linecap:round; stroke-linejoin:round;fill-rule:evenodd;"
d="M 175.2025,97.3880
175.2177,97.3115
175.2611,97.2466
175.3260,97.2032
175.4025,97.1880
175.8025,97.1880
175.8790,97.2032
175.9439,97.2466
175.9873,97.3115
176.0025,97.3880
176.0025,97.9380
175.9873,98.0145
175.9439,98.0794
175.8790,98.1228
175.8025,98.1380
175.4025,98.1380
175.3260,98.1228
175.2611,98.0794
175.2177,98.0145
175.2025,97.9380
Z" /> 
<path style="fill:#000000; fill-opacity:1.0000; 
stroke:#000000; stroke-width:0.0000; stroke-opacity:1; 
stroke-linecap:round; stroke-linejoin:round;fill-rule:evenodd;"
d="M 176.8525,97.3880
176.8677,97.3115
176.9111,97.2466
176.9760,97.2032
177.0525,97.1880
177.4525,97.1880
177.5290,97.2032
177.5939,97.2466
177.6373,97.3115
177.6525,97.3880
177.6525,97.9380
177.6373,98.0145
177.5939,98.0794
177.5290,98.1228
177.4525,98.1380
177.0525,98.1380
176.9760,98.1228
176.9111,98.0794
176.8677,98.0145
176.8525,97.9380
Z" /> 
</g>
<g >
</g>
<g style="fill:#000000; fill-opacity:1.0000; 
stroke:#000000; stroke-width:0.0000; stroke-opacity:1; 
stroke-linecap:round; stroke-linejoin:round;">
<path style="fill:#000000; fill-opacity:1.0000; 
stroke:#000000; stroke-width:0.0000; stroke-opacity:1; 
stroke-linecap:round; stroke-linejoin:round;fill-rule:evenodd;"
d="M 160.9305,93.4230
160.8618,93.4093
160.8036,93.3704
160.7647,93.3122
160.7510,93.2435
160.7510,92.0885
160.7647,92.0198
160.8036,91.9616
160.8618,91.9227
160.9305,91.9090
161.3955,91.9090
161.4642,91.9227
161.5224,91.9616
161.5613,92.0198
161.5750,92.0885
161.5750,93.2435
161.5613,93.3122
161.5224,93.3704
161.4642,93.4093
161.3955,93.4230
Z" /> 
<path style="fill:#000000; fill-opacity:1.0000; 
stroke:#000000; stroke-width:0.0000; stroke-opacity:1; 
stroke-linecap:round; stroke-linejoin:round;fill-rule:evenodd;"
d="M 162.2005,93.4230
162.1318,93.4093
162.0736,93.3704
162.0347,93.3122
162.0210,93.2435
162.0210,92.0885
162.0347,92.0198
162.0736,91.9616
162.1318,91.9227
162.2005,91.9090
162.6655,91.9090
162.7342,91.9227
162.7924,91.9616
162.8313,92.0198
162.8450,92.0885
162.8450,93.2435
162.8313,93.3122
162.7924,93.3704
162.7342,93.4093
162.6655,93.4230
Z" /> 
<path style="fill:#000000; fill-opacity:1.0000; 
stroke:#000000; stroke-width:0.0000; stroke-opacity:1; 
stroke-linecap:round; stroke-linejoin:round;fill-rule:evenodd;"
d="M 163.4705,93.4230
163.4018,93.4093
163.3436,93.3704
163.3047,93.3122
163.2910,93.2435
163.2910,92.0885
163.3047,92.0198
163.3436,91.9616
163.4018,91.9227
163.4705,91.9090
163.9355,91.9090
164.0042,91.9227
164.0624,91.9616
164.1013,92.0198
164.1150,92.0885
164.1150,93.2435
164.1013,93.3122
164.0624,93.3704
164.0042,93.4093
163.9355,93.4230
Z" /> 
<path style="fill:#000000; fill-opacity:1.0000; 
stroke:#000000; stroke-width:0.0000; stroke-opacity:1; 
stroke-linecap:round; stroke-linejoin:round;fill-rule:evenodd;"
d="M 164.7405,93.4230
164.6718,93.4093
164.6136,93.3704
164.5747,93.3122
164.5610,93.2435
164.5610,92.0885
164.5747,92.0198
164.6136,91.9616
164.6718,91.9227
164.7405,91.9090
165.2055,91.9090
165.2742,91.9227
165.3324,91.9616
165.3713,92.0198
165.3850,92.0885
165.3850,93.2435
165.3713,93.3122
165.3324,93.3704
165.2742,93.4093
165.2055,93.4230
Z" /> 
<path style="fill:#000000; fill-opacity:1.0000; 
stroke:#000000; stroke-width:0.0000; stroke-opacity:1; 
stroke-linecap:round; stroke-linejoin:round;fill-rule:evenodd;"
d="M 166.0105,93.4230
165.9418,93.4093
165.8836,93.3704
165.8447,93.3122
165.8310,93.2435
165.8310,92.0885
165.8447,92.0198
165.8836,91.9616
165.9418,91.9227
166.0105,91.9090
166.4755,91.9090
166.5442,91.9227
166.6024,91.9616
166.6413,92.0198
166.6550,92.0885
166.6550,93.2435
166.6413,93.3122
166.6024,93.3704
166.5442,93.4093
166.4755,93.4230
Z" /> 
<path style="fill:#000000; fill-opacity:1.0000; 
stroke:#000000; stroke-width:0.0000; stroke-opacity:1; 
stroke-linecap:round; stroke-linejoin:round;fill-rule:evenodd;"
d="M 167.2805,93.4230
167.2118,93.4093
167.1536,93.3704
167.1147,93.3122
167.1010,93.2435
167.1010,92.0885
167.1147,92.0198
167.1536,91.9616
167.2118,91.9227
167.2805,91.9090
167.7455,91.9090
167.8142,91.9227
167.8724,91.9616
167.9113,92.0198
167.9250,92.0885
167.9250,93.2435
167.9113,93.3122
167.8724,93.3704
167.8142,93.4093
167.7455,93.4230
Z" /> 
<path style="fill:#000000; fill-opacity:1.0000; 
stroke:#000000; stroke-width:0.0000; stroke-opacity:1; 
stroke-linecap:round; stroke-linejoin:round;fill-rule:evenodd;"
d="M 168.5505,93.4230
168.4818,93.4093
168.4236,93.3704
168.3847,93.3122
168.3710,93.2435
168.3710,92.0885
168.3847,92.0198
168.4236,91.9616
168.4818,91.9227
168.5505,91.9090
169.0155,91.9090
169.0842,91.9227
169.1424,91.9616
169.1813,92.0198
169.1950,92.0885
169.1950,93.2435
169.1813,93.3122
169.1424,93.3704
169.0842,93.4093
169.0155,93.4230
Z" /> 
<path style="fill:#000000; fill-opacity:1.0000; 
stroke:#000000; stroke-width:0.0000; stroke-opacity:1; 
stroke-linecap:round; stroke-linejoin:round;fill-rule:evenodd;"
d="M 169.8205,93.4230
169.7518,93.4093
169.6936,93.3704
169.6547,93.3122
169.6410,93.2435
169.6410,92.0885
169.6547,92.0198
169.6936,91.9616
169.7518,91.9227
169.8205,91.9090
170.2855,91.9090
170.3542,91.9227
170.4124,91.9616
170.4513,92.0198
170.4650,92.0885
170.4650,93.2435
170.4513,93.3122
170.4124,93.3704
170.3542,93.4093
170.2855,93.4230
Z" /> 
<path style="fill:#000000; fill-opacity:1.0000; 
stroke:#000000; stroke-width:0.0000; stroke-opacity:1; 
stroke-linecap:round; stroke-linejoin:round;fill-rule:evenodd;"
d="M 169.8205,87.9230
169.7518,87.9093
169.6936,87.8704
169.6547,87.8122
169.6410,87.7435
169.6410,86.5885
169.6547,86.5198
169.6936,86.4616
169.7518,86.4227
169.8205,86.4090
170.2855,86.4090
170.3542,86.4227
170.4124,86.4616
170.4513,86.5198
170.4650,86.5885
170.4650,87.7435
170.4513,87.8122
170.4124,87.8704
170.3542,87.9093
170.2855,87.9230
Z" /> 
<path style="fill:#000000; fill-opacity:1.0000; 
stroke:#000000; stroke-width:0.0000; stroke-opacity:1; 
stroke-linecap:round; stroke-linejoin:round;fill-rule:evenodd;"
d="M 168.5505,87.9230
168.4818,87.9093
168.4236,87.8704
168.3847,87.8122
168.3710,87.7435
168.3710,86.5885
168.3847,86.5198
168.4236,86.4616
168.4818,86.4227
168.5505,86.4090
169.0155,86.4090
169.0842,86.4227
169.1424,86.4616
169.1813,86.5198
169.1950,86.5885
169.1950,87.7435
169.1813,87.8122
169.1424,87.8704
169.0842,87.9093
169.0155,87.9230
Z" /> 
<path style="fill:#000000; fill-opacity:1.0000; 
stroke:#000000; stroke-width:0.0000; stroke-opacity:1; 
stroke-linecap:round; stroke-linejoin:round;fill-rule:evenodd;"
d="M 167.2805,87.9230
167.2118,87.9093
167.1536,87.8704
167.1147,87.8122
167.1010,87.7435
167.1010,86.5885
167.1147,86.5198
167.1536,86.4616
167.2118,86.4227
167.2805,86.4090
167.7455,86.4090
167.8142,86.4227
167.8724,86.4616
167.9113,86.5198
167.9250,86.5885
167.9250,87.7435
167.9113,87.8122
167.8724,87.8704
167.8142,87.9093
167.7455,87.9230
Z" /> 
<path style="fill:#000000; fill-opacity:1.0000; 
stroke:#000000; stroke-width:0.0000; stroke-opacity:1; 
stroke-linecap:round; stroke-linejoin:round;fill-rule:evenodd;"
d="M 166.0105,87.9230
165.9418,87.9093
165.8836,87.8704
165.8447,87.8122
165.8310,87.7435
165.8310,86.5885
165.8447,86.5198
165.8836,86.4616
165.9418,86.4227
166.0105,86.4090
166.4755,86.4090
166.5442,86.4227
166.6024,86.4616
166.6413,86.5198
166.6550,86.5885
166.6550,87.7435
166.6413,87.8122
166.6024,87.8704
166.5442,87.9093
166.4755,87.9230
Z" /> 
<path style="fill:#000000; fill-opacity:1.0000; 
stroke:#000000; stroke-width:0.0000; stroke-opacity:1; 
stroke-linecap:round; stroke-linejoin:round;fill-rule:evenodd;"
d="M 164.7405,87.9230
164.6718,87.9093
164.6136,87.8704
164.5747,87.8122
164.5610,87.7435
164.5610,86.5885
164.5747,86.5198
164.6136,86.4616
164.6718,86.4227
164.7405,86.4090
165.2055,86.4090
165.2742,86.4227
165.3324,86.4616
165.3713,86.5198
165.3850,86.5885
165.3850,87.7435
165.3713,87.8122
165.3324,87.8704
165.2742,87.9093
165.2055,87.9230
Z" /> 
<path style="fill:#000000; fill-opacity:1.0000; 
stroke:#000000; stroke-width:0.0000; stroke-opacity:1; 
stroke-linecap:round; stroke-linejoin:round;fill-rule:evenodd;"
d="M 163.4705,87.9230
163.4018,87.9093
163.3436,87.8704
163.3047,87.8122
163.2910,87.7435
163.2910,86.5885
163.3047,86.5198
163.3436,86.4616
163.4018,86.4227
163.4705,86.4090
163.9355,86.4090
164.0042,86.4227
164.0624,86.4616
164.1013,86.5198
164.1150,86.5885
164.1150,87.7435
164.1013,87.8122
164.0624,87.8704
164.0042,87.9093
163.9355,87.9230
Z" /> 
<path style="fill:#000000; fill-opacity:1.0000; 
stroke:#000000; stroke-width:0.0000; stroke-opacity:1; 
stroke-linecap:round; stroke-linejoin:round;fill-rule:evenodd;"
d="M 162.2005,87.9230
162.1318,87.9093
162.0736,87.8704
162.0347,87.8122
162.0210,87.7435
162.0210,86.5885
162.0347,86.5198
162.0736,86.4616
162.1318,86.4227
162.2005,86.4090
162.6655,86.4090
162.7342,86.4227
162.7924,86.4616
162.8313,86.5198
162.8450,86.5885
162.8450,87.7435
162.8313,87.8122
162.7924,87.8704
162.7342,87.9093
162.6655,87.9230
Z" /> 
<path style="fill:#000000; fill-opacity:1.0000; 
stroke:#000000; stroke-width:0.0000; stroke-opacity:1; 
stroke-linecap:round; stroke-linejoin:round;fill-rule:evenodd;"
d="M 160.9305,87.9230
160.8618,87.9093
160.8036,87.8704
160.7647,87.8122
160.7510,87.7435
160.7510,86.5885
160.7647,86.5198
160.8036,86.4616
160.8618,86.4227
160.9305,86.4090
161.3955,86.4090
161.4642,86.4227
161.5224,86.4616
161.5613,86.5198
161.5750,86.5885
161.5750,87.7435
161.5613,87.8122
161.5224,87.8704
161.4642,87.9093
161.3955,87.9230
Z" /> 
</g>
<g >
</g>
<g style="fill:#000000; fill-opacity:1.0000; 
stroke:#000000; stroke-width:0.0000; stroke-opacity:1; 
stroke-linecap:round; stroke-linejoin:round;">
<path style="fill:#000000; fill-opacity:1.0000; 
stroke:#000000; stroke-width:0.0000; stroke-opacity:1; 
stroke-linecap:round; stroke-linejoin:round;fill-rule:evenodd;"
d="M 181.1840,125.6052
181.1673,125.6890
181.1199,125.7599
181.0490,125.8073
180.9652,125.8240
180.5277,125.8240
180.4440,125.8073
180.3731,125.7599
180.3257,125.6890
180.3090,125.6052
180.3090,125.0927
180.3257,125.0090
180.3731,124.9381
180.4440,124.8907
180.5277,124.8740
180.9652,124.8740
181.0490,124.8907
181.1199,124.9381
181.1673,125.0090
181.1840,125.0927
Z" /> 
<path style="fill:#000000; fill-opacity:1.0000; 
stroke:#000000; stroke-width:0.0000; stroke-opacity:1; 
stroke-linecap:round; stroke-linejoin:round;fill-rule:evenodd;"
d="M 179.6090,125.6052
179.5923,125.6890
179.5449,125.7599
179.4740,125.8073
179.3902,125.8240
178.9527,125.8240
178.8690,125.8073
178.7981,125.7599
178.7507,125.6890
178.7340,125.6052
178.7340,125.0927
178.7507,125.0090
178.7981,124.9381
178.8690,124.8907
178.9527,124.8740
179.3902,124.8740
179.4740,124.8907
179.5449,124.9381
179.5923,125.0090
179.6090,125.0927
Z" /> 
</g>
<g >
</g>
<g style="fill:#000000; fill-opacity:1.0000; 
stroke:#000000; stroke-width:0.0000; stroke-opacity:1; 
stroke-linecap:round; stroke-linejoin:round;">
<path style="fill:#000000; fill-opacity:1.0000; 
stroke:#000000; stroke-width:0.0000; stroke-opacity:1; 
stroke-linecap:round; stroke-linejoin:round;fill-rule:evenodd;"
d="M 144.3600,145.3760
142.6600,145.3760
142.6600,143.6760
144.3600,143.6760
Z" /> 
<circle cx="146.0500" cy="144.5260" r="0.8500" /> 
<circle cx="148.5900" cy="144.5260" r="0.8500" /> 
<circle cx="151.1300" cy="144.5260" r="0.8500" /> 
<circle cx="153.6700" cy="144.5260" r="0.8500" /> 
<circle cx="156.2100" cy="144.5260" r="0.8500" /> 
</g>
<g >
</g>
<g style="fill:#000000; fill-opacity:1.0000; 
stroke:#000000; stroke-width:0.0000; stroke-opacity:1; 
stroke-linecap:round; stroke-linejoin:round;">
<path style="fill:#000000; fill-opacity:1.0000; 
stroke:#000000; stroke-width:0.0000; stroke-opacity:1; 
stroke-linecap:round; stroke-linejoin:round;fill-rule:evenodd;"
d="M 126.2660,82.7280
124.7660,82.7280
124.7660,81.2280
126.2660,81.2280
Z" /> 
<circle cx="125.5160" cy="79.9780" r="0.7500" /> 
</g>
<g style="fill:#000000; fill-opacity:1.0000; 
stroke:#000000; stroke-width:0.0212; stroke-opacity:1; 
stroke-linecap:round; stroke-linejoin:round;">
</g>
<g style="fill:#000000; fill-opacity:1.0000; 
stroke:#000000; stroke-width:0.0000; stroke-opacity:1; 
stroke-linecap:round; stroke-linejoin:round;">
<circle cx="125.5160" cy="77.9780" r="0.7500" /> 
</g>
<g style="fill:#000000; fill-opacity:1.0000; 
stroke:#000000; stroke-width:0.0212; stroke-opacity:1; 
stroke-linecap:round; stroke-linejoin:round;">
</g>
<g style="fill:#000000; fill-opacity:1.0000; 
stroke:#000000; stroke-width:0.0000; stroke-opacity:1; 
stroke-linecap:round; stroke-linejoin:round;">
<circle cx="130.5160" cy="81.9780" r="0.7500" /> 
</g>
<g style="fill:#000000; fill-opacity:1.0000; 
stroke:#000000; stroke-width:0.0212; stroke-opacity:1; 
stroke-linecap:round; stroke-linejoin:round;">
</g>
<g style="fill:#000000; fill-opacity:1.0000; 
stroke:#000000; stroke-width:0.0000; stroke-opacity:1; 
stroke-linecap:round; stroke-linejoin:round;">
<circle cx="130.5160" cy="79.9780" r="0.7500" /> 
</g>
<g style="fill:#000000; fill-opacity:1.0000; 
stroke:#000000; stroke-width:0.0212; stroke-opacity:1; 
stroke-linecap:round; stroke-linejoin:round;">
</g>
<g style="fill:#000000; fill-opacity:1.0000; 
stroke:#000000; stroke-width:0.0000; stroke-opacity:1; 
stroke-linecap:round; stroke-linejoin:round;">
<circle cx="130.5160" cy="77.9780" r="0.7500" /> 
</g>
<g style="fill:#000000; fill-opacity:1.0000; 
stroke:#000000; stroke-width:0.0212; stroke-opacity:1; 
stroke-linecap:round; stroke-linejoin:round;">
</g>
<g >
</g>
<g >
</g>
<g >
</g>
<g >
</g>
</g> 
</svg>
