G04 #@! TF.GenerationSoftware,KiCad,Pcbnew,7.0.8*
G04 #@! TF.CreationDate,2024-06-27T14:34:40-03:00*
G04 #@! TF.ProjectId,sensor_module,73656e73-6f72-45f6-9d6f-64756c652e6b,1.0*
G04 #@! TF.SameCoordinates,Original*
G04 #@! TF.FileFunction,Legend,Top*
G04 #@! TF.FilePolarity,Positive*
%FSLAX46Y46*%
G04 Gerber Fmt 4.6, Leading zero omitted, Abs format (unit mm)*
G04 Created by KiCad (PCBNEW 7.0.8) date 2024-06-27 14:34:40*
%MOMM*%
%LPD*%
G01*
G04 APERTURE LIST*
G04 Aperture macros list*
%AMRoundRect*
0 Rectangle with rounded corners*
0 $1 Rounding radius*
0 $2 $3 $4 $5 $6 $7 $8 $9 X,Y pos of 4 corners*
0 Add a 4 corners polygon primitive as box body*
4,1,4,$2,$3,$4,$5,$6,$7,$8,$9,$2,$3,0*
0 Add four circle primitives for the rounded corners*
1,1,$1+$1,$2,$3*
1,1,$1+$1,$4,$5*
1,1,$1+$1,$6,$7*
1,1,$1+$1,$8,$9*
0 Add four rect primitives between the rounded corners*
20,1,$1+$1,$2,$3,$4,$5,0*
20,1,$1+$1,$4,$5,$6,$7,0*
20,1,$1+$1,$6,$7,$8,$9,0*
20,1,$1+$1,$8,$9,$2,$3,0*%
G04 Aperture macros list end*
%ADD10C,0.050000*%
%ADD11C,0.350000*%
%ADD12C,0.150000*%
%ADD13C,0.200000*%
%ADD14C,0.120000*%
%ADD15C,0.152400*%
%ADD16C,0.127000*%
%ADD17C,0.050800*%
%ADD18C,0.508000*%
%ADD19RoundRect,0.200000X-0.275000X0.200000X-0.275000X-0.200000X0.275000X-0.200000X0.275000X0.200000X0*%
%ADD20RoundRect,0.200000X-0.200000X-0.275000X0.200000X-0.275000X0.200000X0.275000X-0.200000X0.275000X0*%
%ADD21RoundRect,0.200000X0.200000X0.275000X-0.200000X0.275000X-0.200000X-0.275000X0.200000X-0.275000X0*%
%ADD22RoundRect,0.250000X-0.450000X-0.425000X0.450000X-0.425000X0.450000X0.425000X-0.450000X0.425000X0*%
%ADD23RoundRect,0.225000X-0.250000X0.225000X-0.250000X-0.225000X0.250000X-0.225000X0.250000X0.225000X0*%
%ADD24C,1.500000*%
%ADD25C,2.500000*%
%ADD26RoundRect,0.150000X0.150000X-0.820000X0.150000X0.820000X-0.150000X0.820000X-0.150000X-0.820000X0*%
%ADD27R,2.000000X1.500000*%
%ADD28R,2.000000X3.800000*%
%ADD29R,1.100000X2.500000*%
%ADD30R,2.500000X1.100000*%
%ADD31RoundRect,0.102000X-0.611000X-0.611000X0.611000X-0.611000X0.611000X0.611000X-0.611000X0.611000X0*%
%ADD32C,1.426000*%
%ADD33RoundRect,0.200000X0.275000X-0.200000X0.275000X0.200000X-0.275000X0.200000X-0.275000X-0.200000X0*%
%ADD34R,2.000000X2.000000*%
%ADD35C,2.000000*%
%ADD36RoundRect,0.218750X-0.218750X-0.256250X0.218750X-0.256250X0.218750X0.256250X-0.218750X0.256250X0*%
%ADD37R,2.000000X2.300000*%
%ADD38C,2.300000*%
%ADD39RoundRect,0.225000X-0.225000X-0.250000X0.225000X-0.250000X0.225000X0.250000X-0.225000X0.250000X0*%
%ADD40RoundRect,0.225000X0.250000X-0.225000X0.250000X0.225000X-0.250000X0.225000X-0.250000X-0.225000X0*%
%ADD41R,1.700000X1.700000*%
%ADD42O,1.700000X1.700000*%
%ADD43RoundRect,0.250000X1.250000X0.550000X-1.250000X0.550000X-1.250000X-0.550000X1.250000X-0.550000X0*%
%ADD44RoundRect,0.225000X0.225000X0.250000X-0.225000X0.250000X-0.225000X-0.250000X0.225000X-0.250000X0*%
%ADD45R,2.600000X2.600000*%
%ADD46C,2.600000*%
%ADD47R,1.800000X1.800000*%
%ADD48C,1.800000*%
%ADD49RoundRect,0.250000X-1.250000X-0.550000X1.250000X-0.550000X1.250000X0.550000X-1.250000X0.550000X0*%
%ADD50C,1.524800*%
%ADD51RoundRect,0.102000X-0.825500X0.825500X-0.825500X-0.825500X0.825500X-0.825500X0.825500X0.825500X0*%
%ADD52C,1.855000*%
%ADD53RoundRect,0.218750X0.218750X0.256250X-0.218750X0.256250X-0.218750X-0.256250X0.218750X-0.256250X0*%
%ADD54C,2.400000*%
%ADD55RoundRect,0.250000X-1.500000X-0.550000X1.500000X-0.550000X1.500000X0.550000X-1.500000X0.550000X0*%
%ADD56RoundRect,0.179500X0.232500X-0.577500X0.232500X0.577500X-0.232500X0.577500X-0.232500X-0.577500X0*%
%ADD57R,1.500000X1.500000*%
G04 APERTURE END LIST*
D10*
X177558700Y-134213600D02*
X180555900Y-134213600D01*
X180555900Y-134696200D01*
X177558700Y-134696200D01*
X177558700Y-134213600D01*
G36*
X177558700Y-134213600D02*
G01*
X180555900Y-134213600D01*
X180555900Y-134696200D01*
X177558700Y-134696200D01*
X177558700Y-134213600D01*
G37*
X172820000Y-137960100D02*
X173455000Y-137960100D01*
X173455000Y-139915900D01*
X172820000Y-139915900D01*
X172820000Y-137960100D01*
G36*
X172820000Y-137960100D02*
G01*
X173455000Y-137960100D01*
X173455000Y-139915900D01*
X172820000Y-139915900D01*
X172820000Y-137960100D01*
G37*
X160299400Y-132384800D02*
X160934400Y-132384800D01*
X160934400Y-134696200D01*
X160299400Y-134696200D01*
X160299400Y-132384800D01*
G36*
X160299400Y-132384800D02*
G01*
X160934400Y-132384800D01*
X160934400Y-134696200D01*
X160299400Y-134696200D01*
X160299400Y-132384800D01*
G37*
D11*
X142875000Y-83253632D02*
X142240000Y-83253632D01*
D10*
X177622200Y-127723900D02*
X178257200Y-127723900D01*
X178257200Y-129933700D01*
X177622200Y-129933700D01*
X177622200Y-127723900D01*
G36*
X177622200Y-127723900D02*
G01*
X178257200Y-127723900D01*
X178257200Y-129933700D01*
X177622200Y-129933700D01*
X177622200Y-127723900D01*
G37*
X166760500Y-139534900D02*
X173415300Y-139534900D01*
X173415300Y-139915900D01*
X166760500Y-139915900D01*
X166760500Y-139534900D01*
G36*
X166760500Y-139534900D02*
G01*
X173415300Y-139534900D01*
X173415300Y-139915900D01*
X166760500Y-139915900D01*
X166760500Y-139534900D01*
G37*
X137955100Y-72212200D02*
X141942900Y-72212200D01*
X141942900Y-73583800D01*
X137955100Y-73583800D01*
X137955100Y-72212200D01*
G36*
X137955100Y-72212200D02*
G01*
X141942900Y-72212200D01*
X141942900Y-73583800D01*
X137955100Y-73583800D01*
X137955100Y-72212200D01*
G37*
X157861000Y-127724500D02*
X163245800Y-127724500D01*
X163245800Y-128181700D01*
X157861000Y-128181700D01*
X157861000Y-127724500D01*
G36*
X157861000Y-127724500D02*
G01*
X163245800Y-127724500D01*
X163245800Y-128181700D01*
X157861000Y-128181700D01*
X157861000Y-127724500D01*
G37*
X157861000Y-127723900D02*
X158496000Y-127723900D01*
X158496000Y-129933700D01*
X157861000Y-129933700D01*
X157861000Y-127723900D01*
G36*
X157861000Y-127723900D02*
G01*
X158496000Y-127723900D01*
X158496000Y-129933700D01*
X157861000Y-129933700D01*
X157861000Y-127723900D01*
G37*
D12*
X169545000Y-80772000D02*
X166135458Y-82740500D01*
D10*
X162610800Y-127723900D02*
X163245800Y-127723900D01*
X163245800Y-129933700D01*
X162610800Y-129933700D01*
X162610800Y-127723900D01*
G36*
X162610800Y-127723900D02*
G01*
X163245800Y-127723900D01*
X163245800Y-129933700D01*
X162610800Y-129933700D01*
X162610800Y-127723900D01*
G37*
D12*
X170444786Y-82187683D02*
X170190787Y-81747743D01*
X170757727Y-81713713D01*
X170444786Y-82187683D01*
G36*
X170444786Y-82187683D02*
G01*
X170190787Y-81747743D01*
X170757727Y-81713713D01*
X170444786Y-82187683D01*
G37*
D10*
X137955100Y-70434200D02*
X139225100Y-70434200D01*
X139225100Y-73583800D01*
X137955100Y-73583800D01*
X137955100Y-70434200D01*
G36*
X137955100Y-70434200D02*
G01*
X139225100Y-70434200D01*
X139225100Y-73583800D01*
X137955100Y-73583800D01*
X137955100Y-70434200D01*
G37*
D11*
X145854369Y-80518000D02*
X145854369Y-76668000D01*
X145854369Y-75268000D02*
X145854369Y-71418000D01*
D10*
X160299400Y-134213600D02*
X163296600Y-134213600D01*
X163296600Y-134696200D01*
X160299400Y-134696200D01*
X160299400Y-134213600D01*
G36*
X160299400Y-134213600D02*
G01*
X163296600Y-134213600D01*
X163296600Y-134696200D01*
X160299400Y-134696200D01*
X160299400Y-134213600D01*
G37*
X157861000Y-129451100D02*
X163245800Y-129451100D01*
X163245800Y-129933700D01*
X157861000Y-129933700D01*
X157861000Y-129451100D01*
G36*
X157861000Y-129451100D02*
G01*
X163245800Y-129451100D01*
X163245800Y-129933700D01*
X157861000Y-129933700D01*
X157861000Y-129451100D01*
G37*
X137955100Y-70434200D02*
X141942900Y-70434200D01*
X141942900Y-70891400D01*
X137955100Y-70891400D01*
X137955100Y-70434200D01*
G36*
X137955100Y-70434200D02*
G01*
X141942900Y-70434200D01*
X141942900Y-70891400D01*
X137955100Y-70891400D01*
X137955100Y-70434200D01*
G37*
D11*
X139065000Y-98933000D02*
X139065000Y-95083000D01*
X139065000Y-93683000D02*
X139065000Y-89833000D01*
X139065000Y-88433000D02*
X139065000Y-86233000D01*
X135890000Y-101549200D02*
X132040000Y-101549200D01*
X130640000Y-101549200D02*
X126790000Y-101549200D01*
X125390000Y-101549200D02*
X121540000Y-101549200D01*
X120140000Y-101549200D02*
X116290000Y-101549200D01*
X114890000Y-101549200D02*
X111861600Y-101549200D01*
X137565000Y-101549200D02*
G75*
G03*
X139065000Y-100049200I-100J1500100D01*
G01*
D10*
X166724000Y-137960100D02*
X167359000Y-137960100D01*
X167359000Y-139915900D01*
X166724000Y-139915900D01*
X166724000Y-137960100D01*
G36*
X166724000Y-137960100D02*
G01*
X167359000Y-137960100D01*
X167359000Y-139915900D01*
X166724000Y-139915900D01*
X166724000Y-137960100D01*
G37*
X177622200Y-129451100D02*
X183921400Y-129451100D01*
X183921400Y-129933700D01*
X177622200Y-129933700D01*
X177622200Y-129451100D01*
G36*
X177622200Y-129451100D02*
G01*
X183921400Y-129451100D01*
X183921400Y-129933700D01*
X177622200Y-129933700D01*
X177622200Y-129451100D01*
G37*
X177558700Y-132384800D02*
X178396900Y-132384800D01*
X178396900Y-134696200D01*
X177558700Y-134696200D01*
X177558700Y-132384800D01*
G36*
X177558700Y-132384800D02*
G01*
X178396900Y-132384800D01*
X178396900Y-134696200D01*
X177558700Y-134696200D01*
X177558700Y-132384800D01*
G37*
X179717700Y-132384800D02*
X180555900Y-132384800D01*
X180555900Y-134696200D01*
X179717700Y-134696200D01*
X179717700Y-132384800D01*
G36*
X179717700Y-132384800D02*
G01*
X180555900Y-132384800D01*
X180555900Y-134696200D01*
X179717700Y-134696200D01*
X179717700Y-132384800D01*
G37*
X177622200Y-127724500D02*
X183921400Y-127724500D01*
X183921400Y-128181700D01*
X177622200Y-128181700D01*
X177622200Y-127724500D01*
G36*
X177622200Y-127724500D02*
G01*
X183921400Y-127724500D01*
X183921400Y-128181700D01*
X177622200Y-128181700D01*
X177622200Y-127724500D01*
G37*
X183311800Y-127723900D02*
X183946800Y-127723900D01*
X183946800Y-129933700D01*
X183311800Y-129933700D01*
X183311800Y-127723900D01*
G36*
X183311800Y-127723900D02*
G01*
X183946800Y-127723900D01*
X183946800Y-129933700D01*
X183311800Y-129933700D01*
X183311800Y-127723900D01*
G37*
D11*
X140565000Y-83253600D02*
G75*
G03*
X139065000Y-84753632I100J-1500100D01*
G01*
D12*
X169672000Y-80991970D02*
X169418001Y-80552030D01*
X169984941Y-80518000D01*
X169672000Y-80991970D01*
G36*
X169672000Y-80991970D02*
G01*
X169418001Y-80552030D01*
X169984941Y-80518000D01*
X169672000Y-80991970D01*
G37*
D10*
X177584100Y-132384800D02*
X180530500Y-132384800D01*
X180530500Y-132892800D01*
X177584100Y-132892800D01*
X177584100Y-132384800D01*
G36*
X177584100Y-132384800D02*
G01*
X180530500Y-132384800D01*
X180530500Y-132892800D01*
X177584100Y-132892800D01*
X177584100Y-132384800D01*
G37*
D12*
X170317786Y-81967713D02*
X166243000Y-84455000D01*
D10*
X166760500Y-137960700D02*
X173415300Y-137960700D01*
X173415300Y-138265500D01*
X166760500Y-138265500D01*
X166760500Y-137960700D01*
G36*
X166760500Y-137960700D02*
G01*
X173415300Y-137960700D01*
X173415300Y-138265500D01*
X166760500Y-138265500D01*
X166760500Y-137960700D01*
G37*
X140672900Y-70434200D02*
X141942900Y-70434200D01*
X141942900Y-73583800D01*
X140672900Y-73583800D01*
X140672900Y-70434200D01*
G36*
X140672900Y-70434200D02*
G01*
X141942900Y-70434200D01*
X141942900Y-73583800D01*
X140672900Y-73583800D01*
X140672900Y-70434200D01*
G37*
X162661600Y-132486400D02*
X163296600Y-132486400D01*
X163296600Y-134696200D01*
X162661600Y-134696200D01*
X162661600Y-132486400D01*
G36*
X162661600Y-132486400D02*
G01*
X163296600Y-132486400D01*
X163296600Y-134696200D01*
X162661600Y-134696200D01*
X162661600Y-132486400D01*
G37*
X160324800Y-132384800D02*
X163322000Y-132384800D01*
X163322000Y-132892800D01*
X160324800Y-132892800D01*
X160324800Y-132384800D01*
G36*
X160324800Y-132384800D02*
G01*
X163322000Y-132384800D01*
X163322000Y-132892800D01*
X160324800Y-132892800D01*
X160324800Y-132384800D01*
G37*
D11*
X144354369Y-83253569D02*
G75*
G03*
X145854369Y-81753632I-69J1500069D01*
G01*
D13*
X127772219Y-116057612D02*
X128486504Y-116057612D01*
X128486504Y-116057612D02*
X128629361Y-116105231D01*
X128629361Y-116105231D02*
X128724600Y-116200469D01*
X128724600Y-116200469D02*
X128772219Y-116343326D01*
X128772219Y-116343326D02*
X128772219Y-116438564D01*
X128772219Y-115105231D02*
X128772219Y-115581421D01*
X128772219Y-115581421D02*
X127772219Y-115581421D01*
X128676980Y-114200469D02*
X128724600Y-114248088D01*
X128724600Y-114248088D02*
X128772219Y-114390945D01*
X128772219Y-114390945D02*
X128772219Y-114486183D01*
X128772219Y-114486183D02*
X128724600Y-114629040D01*
X128724600Y-114629040D02*
X128629361Y-114724278D01*
X128629361Y-114724278D02*
X128534123Y-114771897D01*
X128534123Y-114771897D02*
X128343647Y-114819516D01*
X128343647Y-114819516D02*
X128200790Y-114819516D01*
X128200790Y-114819516D02*
X128010314Y-114771897D01*
X128010314Y-114771897D02*
X127915076Y-114724278D01*
X127915076Y-114724278D02*
X127819838Y-114629040D01*
X127819838Y-114629040D02*
X127772219Y-114486183D01*
X127772219Y-114486183D02*
X127772219Y-114390945D01*
X127772219Y-114390945D02*
X127819838Y-114248088D01*
X127819838Y-114248088D02*
X127867457Y-114200469D01*
X127772219Y-113486183D02*
X128486504Y-113486183D01*
X128486504Y-113486183D02*
X128629361Y-113533802D01*
X128629361Y-113533802D02*
X128724600Y-113629040D01*
X128724600Y-113629040D02*
X128772219Y-113771897D01*
X128772219Y-113771897D02*
X128772219Y-113867135D01*
X128772219Y-112533802D02*
X128772219Y-113009992D01*
X128772219Y-113009992D02*
X127772219Y-113009992D01*
X128676980Y-111629040D02*
X128724600Y-111676659D01*
X128724600Y-111676659D02*
X128772219Y-111819516D01*
X128772219Y-111819516D02*
X128772219Y-111914754D01*
X128772219Y-111914754D02*
X128724600Y-112057611D01*
X128724600Y-112057611D02*
X128629361Y-112152849D01*
X128629361Y-112152849D02*
X128534123Y-112200468D01*
X128534123Y-112200468D02*
X128343647Y-112248087D01*
X128343647Y-112248087D02*
X128200790Y-112248087D01*
X128200790Y-112248087D02*
X128010314Y-112200468D01*
X128010314Y-112200468D02*
X127915076Y-112152849D01*
X127915076Y-112152849D02*
X127819838Y-112057611D01*
X127819838Y-112057611D02*
X127772219Y-111914754D01*
X127772219Y-111914754D02*
X127772219Y-111819516D01*
X127772219Y-111819516D02*
X127819838Y-111676659D01*
X127819838Y-111676659D02*
X127867457Y-111629040D01*
X127772219Y-110914754D02*
X128486504Y-110914754D01*
X128486504Y-110914754D02*
X128629361Y-110962373D01*
X128629361Y-110962373D02*
X128724600Y-111057611D01*
X128724600Y-111057611D02*
X128772219Y-111200468D01*
X128772219Y-111200468D02*
X128772219Y-111295706D01*
X128772219Y-109962373D02*
X128772219Y-110438563D01*
X128772219Y-110438563D02*
X127772219Y-110438563D01*
X128676980Y-109057611D02*
X128724600Y-109105230D01*
X128724600Y-109105230D02*
X128772219Y-109248087D01*
X128772219Y-109248087D02*
X128772219Y-109343325D01*
X128772219Y-109343325D02*
X128724600Y-109486182D01*
X128724600Y-109486182D02*
X128629361Y-109581420D01*
X128629361Y-109581420D02*
X128534123Y-109629039D01*
X128534123Y-109629039D02*
X128343647Y-109676658D01*
X128343647Y-109676658D02*
X128200790Y-109676658D01*
X128200790Y-109676658D02*
X128010314Y-109629039D01*
X128010314Y-109629039D02*
X127915076Y-109581420D01*
X127915076Y-109581420D02*
X127819838Y-109486182D01*
X127819838Y-109486182D02*
X127772219Y-109343325D01*
X127772219Y-109343325D02*
X127772219Y-109248087D01*
X127772219Y-109248087D02*
X127819838Y-109105230D01*
X127819838Y-109105230D02*
X127867457Y-109057611D01*
X127772219Y-108343325D02*
X128486504Y-108343325D01*
X128486504Y-108343325D02*
X128629361Y-108390944D01*
X128629361Y-108390944D02*
X128724600Y-108486182D01*
X128724600Y-108486182D02*
X128772219Y-108629039D01*
X128772219Y-108629039D02*
X128772219Y-108724277D01*
X128772219Y-107390944D02*
X128772219Y-107867134D01*
X128772219Y-107867134D02*
X127772219Y-107867134D01*
X128676980Y-106486182D02*
X128724600Y-106533801D01*
X128724600Y-106533801D02*
X128772219Y-106676658D01*
X128772219Y-106676658D02*
X128772219Y-106771896D01*
X128772219Y-106771896D02*
X128724600Y-106914753D01*
X128724600Y-106914753D02*
X128629361Y-107009991D01*
X128629361Y-107009991D02*
X128534123Y-107057610D01*
X128534123Y-107057610D02*
X128343647Y-107105229D01*
X128343647Y-107105229D02*
X128200790Y-107105229D01*
X128200790Y-107105229D02*
X128010314Y-107057610D01*
X128010314Y-107057610D02*
X127915076Y-107009991D01*
X127915076Y-107009991D02*
X127819838Y-106914753D01*
X127819838Y-106914753D02*
X127772219Y-106771896D01*
X127772219Y-106771896D02*
X127772219Y-106676658D01*
X127772219Y-106676658D02*
X127819838Y-106533801D01*
X127819838Y-106533801D02*
X127867457Y-106486182D01*
D12*
X171283333Y-74876819D02*
X170950000Y-74400628D01*
X170711905Y-74876819D02*
X170711905Y-73876819D01*
X170711905Y-73876819D02*
X171092857Y-73876819D01*
X171092857Y-73876819D02*
X171188095Y-73924438D01*
X171188095Y-73924438D02*
X171235714Y-73972057D01*
X171235714Y-73972057D02*
X171283333Y-74067295D01*
X171283333Y-74067295D02*
X171283333Y-74210152D01*
X171283333Y-74210152D02*
X171235714Y-74305390D01*
X171235714Y-74305390D02*
X171188095Y-74353009D01*
X171188095Y-74353009D02*
X171092857Y-74400628D01*
X171092857Y-74400628D02*
X170711905Y-74400628D01*
X172188095Y-73876819D02*
X171711905Y-73876819D01*
X171711905Y-73876819D02*
X171664286Y-74353009D01*
X171664286Y-74353009D02*
X171711905Y-74305390D01*
X171711905Y-74305390D02*
X171807143Y-74257771D01*
X171807143Y-74257771D02*
X172045238Y-74257771D01*
X172045238Y-74257771D02*
X172140476Y-74305390D01*
X172140476Y-74305390D02*
X172188095Y-74353009D01*
X172188095Y-74353009D02*
X172235714Y-74448247D01*
X172235714Y-74448247D02*
X172235714Y-74686342D01*
X172235714Y-74686342D02*
X172188095Y-74781580D01*
X172188095Y-74781580D02*
X172140476Y-74829200D01*
X172140476Y-74829200D02*
X172045238Y-74876819D01*
X172045238Y-74876819D02*
X171807143Y-74876819D01*
X171807143Y-74876819D02*
X171711905Y-74829200D01*
X171711905Y-74829200D02*
X171664286Y-74781580D01*
X164965142Y-80177819D02*
X164631809Y-79701628D01*
X164393714Y-80177819D02*
X164393714Y-79177819D01*
X164393714Y-79177819D02*
X164774666Y-79177819D01*
X164774666Y-79177819D02*
X164869904Y-79225438D01*
X164869904Y-79225438D02*
X164917523Y-79273057D01*
X164917523Y-79273057D02*
X164965142Y-79368295D01*
X164965142Y-79368295D02*
X164965142Y-79511152D01*
X164965142Y-79511152D02*
X164917523Y-79606390D01*
X164917523Y-79606390D02*
X164869904Y-79654009D01*
X164869904Y-79654009D02*
X164774666Y-79701628D01*
X164774666Y-79701628D02*
X164393714Y-79701628D01*
X165917523Y-80177819D02*
X165346095Y-80177819D01*
X165631809Y-80177819D02*
X165631809Y-79177819D01*
X165631809Y-79177819D02*
X165536571Y-79320676D01*
X165536571Y-79320676D02*
X165441333Y-79415914D01*
X165441333Y-79415914D02*
X165346095Y-79463533D01*
X166822285Y-79177819D02*
X166346095Y-79177819D01*
X166346095Y-79177819D02*
X166298476Y-79654009D01*
X166298476Y-79654009D02*
X166346095Y-79606390D01*
X166346095Y-79606390D02*
X166441333Y-79558771D01*
X166441333Y-79558771D02*
X166679428Y-79558771D01*
X166679428Y-79558771D02*
X166774666Y-79606390D01*
X166774666Y-79606390D02*
X166822285Y-79654009D01*
X166822285Y-79654009D02*
X166869904Y-79749247D01*
X166869904Y-79749247D02*
X166869904Y-79987342D01*
X166869904Y-79987342D02*
X166822285Y-80082580D01*
X166822285Y-80082580D02*
X166774666Y-80130200D01*
X166774666Y-80130200D02*
X166679428Y-80177819D01*
X166679428Y-80177819D02*
X166441333Y-80177819D01*
X166441333Y-80177819D02*
X166346095Y-80130200D01*
X166346095Y-80130200D02*
X166298476Y-80082580D01*
X157345142Y-123829819D02*
X157011809Y-123353628D01*
X156773714Y-123829819D02*
X156773714Y-122829819D01*
X156773714Y-122829819D02*
X157154666Y-122829819D01*
X157154666Y-122829819D02*
X157249904Y-122877438D01*
X157249904Y-122877438D02*
X157297523Y-122925057D01*
X157297523Y-122925057D02*
X157345142Y-123020295D01*
X157345142Y-123020295D02*
X157345142Y-123163152D01*
X157345142Y-123163152D02*
X157297523Y-123258390D01*
X157297523Y-123258390D02*
X157249904Y-123306009D01*
X157249904Y-123306009D02*
X157154666Y-123353628D01*
X157154666Y-123353628D02*
X156773714Y-123353628D01*
X158297523Y-123829819D02*
X157726095Y-123829819D01*
X158011809Y-123829819D02*
X158011809Y-122829819D01*
X158011809Y-122829819D02*
X157916571Y-122972676D01*
X157916571Y-122972676D02*
X157821333Y-123067914D01*
X157821333Y-123067914D02*
X157726095Y-123115533D01*
X158868952Y-123258390D02*
X158773714Y-123210771D01*
X158773714Y-123210771D02*
X158726095Y-123163152D01*
X158726095Y-123163152D02*
X158678476Y-123067914D01*
X158678476Y-123067914D02*
X158678476Y-123020295D01*
X158678476Y-123020295D02*
X158726095Y-122925057D01*
X158726095Y-122925057D02*
X158773714Y-122877438D01*
X158773714Y-122877438D02*
X158868952Y-122829819D01*
X158868952Y-122829819D02*
X159059428Y-122829819D01*
X159059428Y-122829819D02*
X159154666Y-122877438D01*
X159154666Y-122877438D02*
X159202285Y-122925057D01*
X159202285Y-122925057D02*
X159249904Y-123020295D01*
X159249904Y-123020295D02*
X159249904Y-123067914D01*
X159249904Y-123067914D02*
X159202285Y-123163152D01*
X159202285Y-123163152D02*
X159154666Y-123210771D01*
X159154666Y-123210771D02*
X159059428Y-123258390D01*
X159059428Y-123258390D02*
X158868952Y-123258390D01*
X158868952Y-123258390D02*
X158773714Y-123306009D01*
X158773714Y-123306009D02*
X158726095Y-123353628D01*
X158726095Y-123353628D02*
X158678476Y-123448866D01*
X158678476Y-123448866D02*
X158678476Y-123639342D01*
X158678476Y-123639342D02*
X158726095Y-123734580D01*
X158726095Y-123734580D02*
X158773714Y-123782200D01*
X158773714Y-123782200D02*
X158868952Y-123829819D01*
X158868952Y-123829819D02*
X159059428Y-123829819D01*
X159059428Y-123829819D02*
X159154666Y-123782200D01*
X159154666Y-123782200D02*
X159202285Y-123734580D01*
X159202285Y-123734580D02*
X159249904Y-123639342D01*
X159249904Y-123639342D02*
X159249904Y-123448866D01*
X159249904Y-123448866D02*
X159202285Y-123353628D01*
X159202285Y-123353628D02*
X159154666Y-123306009D01*
X159154666Y-123306009D02*
X159059428Y-123258390D01*
X140549332Y-141837580D02*
X140501713Y-141885200D01*
X140501713Y-141885200D02*
X140358856Y-141932819D01*
X140358856Y-141932819D02*
X140263618Y-141932819D01*
X140263618Y-141932819D02*
X140120761Y-141885200D01*
X140120761Y-141885200D02*
X140025523Y-141789961D01*
X140025523Y-141789961D02*
X139977904Y-141694723D01*
X139977904Y-141694723D02*
X139930285Y-141504247D01*
X139930285Y-141504247D02*
X139930285Y-141361390D01*
X139930285Y-141361390D02*
X139977904Y-141170914D01*
X139977904Y-141170914D02*
X140025523Y-141075676D01*
X140025523Y-141075676D02*
X140120761Y-140980438D01*
X140120761Y-140980438D02*
X140263618Y-140932819D01*
X140263618Y-140932819D02*
X140358856Y-140932819D01*
X140358856Y-140932819D02*
X140501713Y-140980438D01*
X140501713Y-140980438D02*
X140549332Y-141028057D01*
X141406475Y-141266152D02*
X141406475Y-141932819D01*
X141168380Y-140885200D02*
X140930285Y-141599485D01*
X140930285Y-141599485D02*
X141549332Y-141599485D01*
X174363142Y-95101580D02*
X174315523Y-95149200D01*
X174315523Y-95149200D02*
X174172666Y-95196819D01*
X174172666Y-95196819D02*
X174077428Y-95196819D01*
X174077428Y-95196819D02*
X173934571Y-95149200D01*
X173934571Y-95149200D02*
X173839333Y-95053961D01*
X173839333Y-95053961D02*
X173791714Y-94958723D01*
X173791714Y-94958723D02*
X173744095Y-94768247D01*
X173744095Y-94768247D02*
X173744095Y-94625390D01*
X173744095Y-94625390D02*
X173791714Y-94434914D01*
X173791714Y-94434914D02*
X173839333Y-94339676D01*
X173839333Y-94339676D02*
X173934571Y-94244438D01*
X173934571Y-94244438D02*
X174077428Y-94196819D01*
X174077428Y-94196819D02*
X174172666Y-94196819D01*
X174172666Y-94196819D02*
X174315523Y-94244438D01*
X174315523Y-94244438D02*
X174363142Y-94292057D01*
X175315523Y-95196819D02*
X174744095Y-95196819D01*
X175029809Y-95196819D02*
X175029809Y-94196819D01*
X175029809Y-94196819D02*
X174934571Y-94339676D01*
X174934571Y-94339676D02*
X174839333Y-94434914D01*
X174839333Y-94434914D02*
X174744095Y-94482533D01*
X175934571Y-94196819D02*
X176029809Y-94196819D01*
X176029809Y-94196819D02*
X176125047Y-94244438D01*
X176125047Y-94244438D02*
X176172666Y-94292057D01*
X176172666Y-94292057D02*
X176220285Y-94387295D01*
X176220285Y-94387295D02*
X176267904Y-94577771D01*
X176267904Y-94577771D02*
X176267904Y-94815866D01*
X176267904Y-94815866D02*
X176220285Y-95006342D01*
X176220285Y-95006342D02*
X176172666Y-95101580D01*
X176172666Y-95101580D02*
X176125047Y-95149200D01*
X176125047Y-95149200D02*
X176029809Y-95196819D01*
X176029809Y-95196819D02*
X175934571Y-95196819D01*
X175934571Y-95196819D02*
X175839333Y-95149200D01*
X175839333Y-95149200D02*
X175791714Y-95101580D01*
X175791714Y-95101580D02*
X175744095Y-95006342D01*
X175744095Y-95006342D02*
X175696476Y-94815866D01*
X175696476Y-94815866D02*
X175696476Y-94577771D01*
X175696476Y-94577771D02*
X175744095Y-94387295D01*
X175744095Y-94387295D02*
X175791714Y-94292057D01*
X175791714Y-94292057D02*
X175839333Y-94244438D01*
X175839333Y-94244438D02*
X175934571Y-94196819D01*
X148947333Y-141932819D02*
X148471143Y-141932819D01*
X148471143Y-141932819D02*
X148471143Y-140932819D01*
X149280667Y-141932819D02*
X149280667Y-140932819D01*
X149280667Y-140932819D02*
X149518762Y-140932819D01*
X149518762Y-140932819D02*
X149661619Y-140980438D01*
X149661619Y-140980438D02*
X149756857Y-141075676D01*
X149756857Y-141075676D02*
X149804476Y-141170914D01*
X149804476Y-141170914D02*
X149852095Y-141361390D01*
X149852095Y-141361390D02*
X149852095Y-141504247D01*
X149852095Y-141504247D02*
X149804476Y-141694723D01*
X149804476Y-141694723D02*
X149756857Y-141789961D01*
X149756857Y-141789961D02*
X149661619Y-141885200D01*
X149661619Y-141885200D02*
X149518762Y-141932819D01*
X149518762Y-141932819D02*
X149280667Y-141932819D01*
X150852095Y-141932819D02*
X150518762Y-141456628D01*
X150280667Y-141932819D02*
X150280667Y-140932819D01*
X150280667Y-140932819D02*
X150661619Y-140932819D01*
X150661619Y-140932819D02*
X150756857Y-140980438D01*
X150756857Y-140980438D02*
X150804476Y-141028057D01*
X150804476Y-141028057D02*
X150852095Y-141123295D01*
X150852095Y-141123295D02*
X150852095Y-141266152D01*
X150852095Y-141266152D02*
X150804476Y-141361390D01*
X150804476Y-141361390D02*
X150756857Y-141409009D01*
X150756857Y-141409009D02*
X150661619Y-141456628D01*
X150661619Y-141456628D02*
X150280667Y-141456628D01*
X151804476Y-141932819D02*
X151233048Y-141932819D01*
X151518762Y-141932819D02*
X151518762Y-140932819D01*
X151518762Y-140932819D02*
X151423524Y-141075676D01*
X151423524Y-141075676D02*
X151328286Y-141170914D01*
X151328286Y-141170914D02*
X151233048Y-141218533D01*
X160020095Y-72860819D02*
X160020095Y-73670342D01*
X160020095Y-73670342D02*
X160067714Y-73765580D01*
X160067714Y-73765580D02*
X160115333Y-73813200D01*
X160115333Y-73813200D02*
X160210571Y-73860819D01*
X160210571Y-73860819D02*
X160401047Y-73860819D01*
X160401047Y-73860819D02*
X160496285Y-73813200D01*
X160496285Y-73813200D02*
X160543904Y-73765580D01*
X160543904Y-73765580D02*
X160591523Y-73670342D01*
X160591523Y-73670342D02*
X160591523Y-72860819D01*
X161496285Y-72860819D02*
X161305809Y-72860819D01*
X161305809Y-72860819D02*
X161210571Y-72908438D01*
X161210571Y-72908438D02*
X161162952Y-72956057D01*
X161162952Y-72956057D02*
X161067714Y-73098914D01*
X161067714Y-73098914D02*
X161020095Y-73289390D01*
X161020095Y-73289390D02*
X161020095Y-73670342D01*
X161020095Y-73670342D02*
X161067714Y-73765580D01*
X161067714Y-73765580D02*
X161115333Y-73813200D01*
X161115333Y-73813200D02*
X161210571Y-73860819D01*
X161210571Y-73860819D02*
X161401047Y-73860819D01*
X161401047Y-73860819D02*
X161496285Y-73813200D01*
X161496285Y-73813200D02*
X161543904Y-73765580D01*
X161543904Y-73765580D02*
X161591523Y-73670342D01*
X161591523Y-73670342D02*
X161591523Y-73432247D01*
X161591523Y-73432247D02*
X161543904Y-73337009D01*
X161543904Y-73337009D02*
X161496285Y-73289390D01*
X161496285Y-73289390D02*
X161401047Y-73241771D01*
X161401047Y-73241771D02*
X161210571Y-73241771D01*
X161210571Y-73241771D02*
X161115333Y-73289390D01*
X161115333Y-73289390D02*
X161067714Y-73337009D01*
X161067714Y-73337009D02*
X161020095Y-73432247D01*
X128778095Y-127216819D02*
X128778095Y-128026342D01*
X128778095Y-128026342D02*
X128825714Y-128121580D01*
X128825714Y-128121580D02*
X128873333Y-128169200D01*
X128873333Y-128169200D02*
X128968571Y-128216819D01*
X128968571Y-128216819D02*
X129159047Y-128216819D01*
X129159047Y-128216819D02*
X129254285Y-128169200D01*
X129254285Y-128169200D02*
X129301904Y-128121580D01*
X129301904Y-128121580D02*
X129349523Y-128026342D01*
X129349523Y-128026342D02*
X129349523Y-127216819D01*
X129778095Y-127312057D02*
X129825714Y-127264438D01*
X129825714Y-127264438D02*
X129920952Y-127216819D01*
X129920952Y-127216819D02*
X130159047Y-127216819D01*
X130159047Y-127216819D02*
X130254285Y-127264438D01*
X130254285Y-127264438D02*
X130301904Y-127312057D01*
X130301904Y-127312057D02*
X130349523Y-127407295D01*
X130349523Y-127407295D02*
X130349523Y-127502533D01*
X130349523Y-127502533D02*
X130301904Y-127645390D01*
X130301904Y-127645390D02*
X129730476Y-128216819D01*
X129730476Y-128216819D02*
X130349523Y-128216819D01*
X184658095Y-97752819D02*
X184658095Y-98562342D01*
X184658095Y-98562342D02*
X184705714Y-98657580D01*
X184705714Y-98657580D02*
X184753333Y-98705200D01*
X184753333Y-98705200D02*
X184848571Y-98752819D01*
X184848571Y-98752819D02*
X185039047Y-98752819D01*
X185039047Y-98752819D02*
X185134285Y-98705200D01*
X185134285Y-98705200D02*
X185181904Y-98657580D01*
X185181904Y-98657580D02*
X185229523Y-98562342D01*
X185229523Y-98562342D02*
X185229523Y-97752819D01*
X185610476Y-97752819D02*
X186229523Y-97752819D01*
X186229523Y-97752819D02*
X185896190Y-98133771D01*
X185896190Y-98133771D02*
X186039047Y-98133771D01*
X186039047Y-98133771D02*
X186134285Y-98181390D01*
X186134285Y-98181390D02*
X186181904Y-98229009D01*
X186181904Y-98229009D02*
X186229523Y-98324247D01*
X186229523Y-98324247D02*
X186229523Y-98562342D01*
X186229523Y-98562342D02*
X186181904Y-98657580D01*
X186181904Y-98657580D02*
X186134285Y-98705200D01*
X186134285Y-98705200D02*
X186039047Y-98752819D01*
X186039047Y-98752819D02*
X185753333Y-98752819D01*
X185753333Y-98752819D02*
X185658095Y-98705200D01*
X185658095Y-98705200D02*
X185610476Y-98657580D01*
X172772085Y-122376094D02*
X172772085Y-121373338D01*
X172772085Y-121373338D02*
X173154087Y-121373338D01*
X173154087Y-121373338D02*
X173249588Y-121421088D01*
X173249588Y-121421088D02*
X173297338Y-121468838D01*
X173297338Y-121468838D02*
X173345088Y-121564339D01*
X173345088Y-121564339D02*
X173345088Y-121707590D01*
X173345088Y-121707590D02*
X173297338Y-121803090D01*
X173297338Y-121803090D02*
X173249588Y-121850841D01*
X173249588Y-121850841D02*
X173154087Y-121898591D01*
X173154087Y-121898591D02*
X172772085Y-121898591D01*
X173965842Y-121373338D02*
X174156843Y-121373338D01*
X174156843Y-121373338D02*
X174252344Y-121421088D01*
X174252344Y-121421088D02*
X174347844Y-121516589D01*
X174347844Y-121516589D02*
X174395595Y-121707590D01*
X174395595Y-121707590D02*
X174395595Y-122041842D01*
X174395595Y-122041842D02*
X174347844Y-122232843D01*
X174347844Y-122232843D02*
X174252344Y-122328344D01*
X174252344Y-122328344D02*
X174156843Y-122376094D01*
X174156843Y-122376094D02*
X173965842Y-122376094D01*
X173965842Y-122376094D02*
X173870342Y-122328344D01*
X173870342Y-122328344D02*
X173774841Y-122232843D01*
X173774841Y-122232843D02*
X173727091Y-122041842D01*
X173727091Y-122041842D02*
X173727091Y-121707590D01*
X173727091Y-121707590D02*
X173774841Y-121516589D01*
X173774841Y-121516589D02*
X173870342Y-121421088D01*
X173870342Y-121421088D02*
X173965842Y-121373338D01*
X174682096Y-121373338D02*
X175255100Y-121373338D01*
X174968598Y-122376094D02*
X174968598Y-121373338D01*
X175541602Y-121468838D02*
X175589352Y-121421088D01*
X175589352Y-121421088D02*
X175684853Y-121373338D01*
X175684853Y-121373338D02*
X175923604Y-121373338D01*
X175923604Y-121373338D02*
X176019105Y-121421088D01*
X176019105Y-121421088D02*
X176066855Y-121468838D01*
X176066855Y-121468838D02*
X176114605Y-121564339D01*
X176114605Y-121564339D02*
X176114605Y-121659840D01*
X176114605Y-121659840D02*
X176066855Y-121803090D01*
X176066855Y-121803090D02*
X175493851Y-122376094D01*
X175493851Y-122376094D02*
X176114605Y-122376094D01*
G36*
X181038487Y-128392877D02*
G01*
X181110429Y-128464819D01*
X181150771Y-128626186D01*
X181150771Y-128941051D01*
X181110429Y-129102417D01*
X181038486Y-129174361D01*
X180969971Y-129208619D01*
X180814905Y-129208619D01*
X180746389Y-129174361D01*
X180674446Y-129102417D01*
X180634105Y-128941051D01*
X180634105Y-128626186D01*
X180674446Y-128464819D01*
X180746389Y-128392877D01*
X180814905Y-128358619D01*
X180969971Y-128358619D01*
X181038487Y-128392877D01*
G37*
G36*
X183347251Y-129501476D02*
G01*
X178246010Y-129501476D01*
X178246010Y-128569333D01*
X178388867Y-128569333D01*
X178390400Y-128573546D01*
X178389359Y-128577907D01*
X178396785Y-128602874D01*
X178444404Y-128698112D01*
X178445593Y-128699237D01*
X178458453Y-128717604D01*
X178506072Y-128765223D01*
X178507553Y-128765914D01*
X178525564Y-128779272D01*
X178620802Y-128826891D01*
X178624330Y-128827297D01*
X178636153Y-128832570D01*
X178818643Y-128878192D01*
X178895630Y-128916686D01*
X178926037Y-128947093D01*
X178960295Y-129015609D01*
X178960295Y-129075437D01*
X178926036Y-129143953D01*
X178895629Y-129174361D01*
X178827114Y-129208619D01*
X178618894Y-129208619D01*
X178487584Y-129164849D01*
X178436300Y-129166250D01*
X178397915Y-129200287D01*
X178390390Y-129251036D01*
X178417245Y-129294748D01*
X178440150Y-129307151D01*
X178583006Y-129354770D01*
X178584641Y-129354725D01*
X178606724Y-129358619D01*
X178844819Y-129358619D01*
X178849032Y-129357085D01*
X178853393Y-129358127D01*
X178878360Y-129350701D01*
X178973598Y-129303082D01*
X178974722Y-129301894D01*
X178993091Y-129289032D01*
X178998504Y-129283619D01*
X179388867Y-129283619D01*
X179406414Y-129331828D01*
X179450843Y-129357480D01*
X179501367Y-129348571D01*
X179534344Y-129309271D01*
X179538867Y-129283619D01*
X179538867Y-128621686D01*
X179729236Y-129029621D01*
X179743002Y-129043379D01*
X179754163Y-129059328D01*
X179760722Y-129061087D01*
X179765524Y-129065886D01*
X179784913Y-129067577D01*
X179803715Y-129072621D01*
X179809868Y-129069753D01*
X179816633Y-129070344D01*
X179832575Y-129059172D01*
X179850217Y-129050953D01*
X179855916Y-129042818D01*
X179858649Y-129040904D01*
X179859508Y-129037691D01*
X179865164Y-129029620D01*
X180055533Y-128621686D01*
X180055533Y-129283619D01*
X180073080Y-129331828D01*
X180117509Y-129357480D01*
X180168033Y-129348571D01*
X180201010Y-129309271D01*
X180205533Y-129283619D01*
X180205533Y-128950285D01*
X180484105Y-128950285D01*
X180485290Y-128953542D01*
X180486344Y-128968475D01*
X180533963Y-129158951D01*
X180538105Y-129165083D01*
X180538750Y-129172457D01*
X180553691Y-129193794D01*
X180648929Y-129289033D01*
X180650411Y-129289724D01*
X180668421Y-129303082D01*
X180763659Y-129350701D01*
X180768112Y-129351213D01*
X180771548Y-129354096D01*
X180797200Y-129358619D01*
X180987676Y-129358619D01*
X180991889Y-129357085D01*
X180996250Y-129358127D01*
X181021217Y-129350701D01*
X181116455Y-129303082D01*
X181117580Y-129301892D01*
X181135947Y-129289033D01*
X181141361Y-129283619D01*
X181579343Y-129283619D01*
X181596890Y-129331828D01*
X181641319Y-129357480D01*
X181691843Y-129348571D01*
X181724820Y-129309271D01*
X181729343Y-129283619D01*
X181729343Y-128886113D01*
X181789085Y-128826370D01*
X182165771Y-129328619D01*
X182208734Y-129356658D01*
X182259668Y-129350522D01*
X182294742Y-129313081D01*
X182296354Y-129283619D01*
X182579343Y-129283619D01*
X182586006Y-129301927D01*
X182589391Y-129321119D01*
X182594575Y-129325469D01*
X182596890Y-129331828D01*
X182613763Y-129341570D01*
X182628691Y-129354096D01*
X182638433Y-129355813D01*
X182641319Y-129357480D01*
X182644601Y-129356901D01*
X182654343Y-129358619D01*
X183130533Y-129358619D01*
X183178742Y-129341072D01*
X183204394Y-129296643D01*
X183195485Y-129246119D01*
X183156185Y-129213142D01*
X183130533Y-129208619D01*
X182729343Y-129208619D01*
X182729343Y-128834809D01*
X182987676Y-128834809D01*
X183035885Y-128817262D01*
X183061537Y-128772833D01*
X183052628Y-128722309D01*
X183013328Y-128689332D01*
X182987676Y-128684809D01*
X182729343Y-128684809D01*
X182729343Y-128358619D01*
X183130533Y-128358619D01*
X183178742Y-128341072D01*
X183204394Y-128296643D01*
X183195485Y-128246119D01*
X183156185Y-128213142D01*
X183130533Y-128208619D01*
X182654343Y-128208619D01*
X182636034Y-128215282D01*
X182616843Y-128218667D01*
X182612492Y-128223851D01*
X182606134Y-128226166D01*
X182596391Y-128243039D01*
X182583866Y-128257967D01*
X182582148Y-128267709D01*
X182580482Y-128270595D01*
X182581060Y-128273877D01*
X182579343Y-128283619D01*
X182579343Y-129283619D01*
X182296354Y-129283619D01*
X182297544Y-129261855D01*
X182285771Y-129238619D01*
X181896228Y-128719227D01*
X182278804Y-128336652D01*
X182300485Y-128290156D01*
X182287208Y-128240601D01*
X182245182Y-128211175D01*
X182194075Y-128215646D01*
X182172738Y-128230586D01*
X181729343Y-128673981D01*
X181729343Y-128283619D01*
X181711796Y-128235410D01*
X181667367Y-128209758D01*
X181616843Y-128218667D01*
X181583866Y-128257967D01*
X181579343Y-128283619D01*
X181579343Y-129283619D01*
X181141361Y-129283619D01*
X181231186Y-129193793D01*
X181234313Y-129187085D01*
X181240303Y-129182740D01*
X181250913Y-129158951D01*
X181298532Y-128968475D01*
X181298171Y-128965026D01*
X181300771Y-128950285D01*
X181300771Y-128616952D01*
X181299585Y-128613694D01*
X181298532Y-128598762D01*
X181250913Y-128408286D01*
X181246771Y-128402153D01*
X181246126Y-128394780D01*
X181231185Y-128373443D01*
X181135947Y-128278205D01*
X181134465Y-128277514D01*
X181116455Y-128264156D01*
X181021217Y-128216537D01*
X181016763Y-128216024D01*
X181013328Y-128213142D01*
X180987676Y-128208619D01*
X180797200Y-128208619D01*
X180792986Y-128210152D01*
X180788625Y-128209111D01*
X180763659Y-128216537D01*
X180668421Y-128264156D01*
X180667297Y-128265342D01*
X180648929Y-128278205D01*
X180553691Y-128373443D01*
X180550563Y-128380150D01*
X180544573Y-128384497D01*
X180533963Y-128408286D01*
X180486344Y-128598762D01*
X180486704Y-128602210D01*
X180484105Y-128616952D01*
X180484105Y-128950285D01*
X180205533Y-128950285D01*
X180205533Y-128283619D01*
X180202107Y-128274206D01*
X180202983Y-128264229D01*
X180193589Y-128250804D01*
X180187986Y-128235410D01*
X180179313Y-128230402D01*
X180173570Y-128222195D01*
X180157744Y-128217949D01*
X180143557Y-128209758D01*
X180133693Y-128211497D01*
X180124019Y-128208902D01*
X180109167Y-128215821D01*
X180093033Y-128218667D01*
X180086594Y-128226339D01*
X180077516Y-128230570D01*
X180062569Y-128251902D01*
X179797199Y-128820550D01*
X179531831Y-128251903D01*
X179524745Y-128244822D01*
X179521320Y-128235410D01*
X179507130Y-128227217D01*
X179495543Y-128215637D01*
X179485566Y-128214766D01*
X179476891Y-128209758D01*
X179460755Y-128212603D01*
X179444434Y-128211180D01*
X179436230Y-128216927D01*
X179426367Y-128218667D01*
X179415835Y-128231217D01*
X179402418Y-128240619D01*
X179399828Y-128250293D01*
X179393390Y-128257967D01*
X179388867Y-128283619D01*
X179388867Y-129283619D01*
X178998504Y-129283619D01*
X179040709Y-129241413D01*
X179041399Y-129239931D01*
X179054758Y-129221921D01*
X179102377Y-129126683D01*
X179102889Y-129122229D01*
X179105772Y-129118794D01*
X179110295Y-129093142D01*
X179110295Y-128997904D01*
X179108761Y-128993690D01*
X179109803Y-128989329D01*
X179102377Y-128964363D01*
X179054758Y-128869125D01*
X179053568Y-128867999D01*
X179040709Y-128849633D01*
X178993090Y-128802014D01*
X178991608Y-128801323D01*
X178973598Y-128787965D01*
X178878360Y-128740346D01*
X178874831Y-128739939D01*
X178863009Y-128734667D01*
X178680519Y-128689044D01*
X178603532Y-128650551D01*
X178573125Y-128620144D01*
X178538867Y-128551628D01*
X178538867Y-128491800D01*
X178573125Y-128423284D01*
X178603532Y-128392877D01*
X178672048Y-128358619D01*
X178880268Y-128358619D01*
X179011577Y-128402389D01*
X179062861Y-128400988D01*
X179101247Y-128366950D01*
X179108772Y-128316202D01*
X179081917Y-128272489D01*
X179059012Y-128260087D01*
X178916155Y-128212468D01*
X178914520Y-128212512D01*
X178892438Y-128208619D01*
X178654343Y-128208619D01*
X178650129Y-128210152D01*
X178645768Y-128209111D01*
X178620802Y-128216537D01*
X178525564Y-128264156D01*
X178524438Y-128265345D01*
X178506072Y-128278205D01*
X178458453Y-128325824D01*
X178457762Y-128327305D01*
X178444404Y-128345316D01*
X178396785Y-128440554D01*
X178396272Y-128445007D01*
X178393390Y-128448443D01*
X178388867Y-128474095D01*
X178388867Y-128569333D01*
X178246010Y-128569333D01*
X178246010Y-128065762D01*
X183347251Y-128065762D01*
X183347251Y-129501476D01*
G37*
X152741333Y-80877580D02*
X152693714Y-80925200D01*
X152693714Y-80925200D02*
X152550857Y-80972819D01*
X152550857Y-80972819D02*
X152455619Y-80972819D01*
X152455619Y-80972819D02*
X152312762Y-80925200D01*
X152312762Y-80925200D02*
X152217524Y-80829961D01*
X152217524Y-80829961D02*
X152169905Y-80734723D01*
X152169905Y-80734723D02*
X152122286Y-80544247D01*
X152122286Y-80544247D02*
X152122286Y-80401390D01*
X152122286Y-80401390D02*
X152169905Y-80210914D01*
X152169905Y-80210914D02*
X152217524Y-80115676D01*
X152217524Y-80115676D02*
X152312762Y-80020438D01*
X152312762Y-80020438D02*
X152455619Y-79972819D01*
X152455619Y-79972819D02*
X152550857Y-79972819D01*
X152550857Y-79972819D02*
X152693714Y-80020438D01*
X152693714Y-80020438D02*
X152741333Y-80068057D01*
X153217524Y-80972819D02*
X153408000Y-80972819D01*
X153408000Y-80972819D02*
X153503238Y-80925200D01*
X153503238Y-80925200D02*
X153550857Y-80877580D01*
X153550857Y-80877580D02*
X153646095Y-80734723D01*
X153646095Y-80734723D02*
X153693714Y-80544247D01*
X153693714Y-80544247D02*
X153693714Y-80163295D01*
X153693714Y-80163295D02*
X153646095Y-80068057D01*
X153646095Y-80068057D02*
X153598476Y-80020438D01*
X153598476Y-80020438D02*
X153503238Y-79972819D01*
X153503238Y-79972819D02*
X153312762Y-79972819D01*
X153312762Y-79972819D02*
X153217524Y-80020438D01*
X153217524Y-80020438D02*
X153169905Y-80068057D01*
X153169905Y-80068057D02*
X153122286Y-80163295D01*
X153122286Y-80163295D02*
X153122286Y-80401390D01*
X153122286Y-80401390D02*
X153169905Y-80496628D01*
X153169905Y-80496628D02*
X153217524Y-80544247D01*
X153217524Y-80544247D02*
X153312762Y-80591866D01*
X153312762Y-80591866D02*
X153503238Y-80591866D01*
X153503238Y-80591866D02*
X153598476Y-80544247D01*
X153598476Y-80544247D02*
X153646095Y-80496628D01*
X153646095Y-80496628D02*
X153693714Y-80401390D01*
X147947142Y-74622819D02*
X147613809Y-74146628D01*
X147375714Y-74622819D02*
X147375714Y-73622819D01*
X147375714Y-73622819D02*
X147756666Y-73622819D01*
X147756666Y-73622819D02*
X147851904Y-73670438D01*
X147851904Y-73670438D02*
X147899523Y-73718057D01*
X147899523Y-73718057D02*
X147947142Y-73813295D01*
X147947142Y-73813295D02*
X147947142Y-73956152D01*
X147947142Y-73956152D02*
X147899523Y-74051390D01*
X147899523Y-74051390D02*
X147851904Y-74099009D01*
X147851904Y-74099009D02*
X147756666Y-74146628D01*
X147756666Y-74146628D02*
X147375714Y-74146628D01*
X148899523Y-74622819D02*
X148328095Y-74622819D01*
X148613809Y-74622819D02*
X148613809Y-73622819D01*
X148613809Y-73622819D02*
X148518571Y-73765676D01*
X148518571Y-73765676D02*
X148423333Y-73860914D01*
X148423333Y-73860914D02*
X148328095Y-73908533D01*
X149518571Y-73622819D02*
X149613809Y-73622819D01*
X149613809Y-73622819D02*
X149709047Y-73670438D01*
X149709047Y-73670438D02*
X149756666Y-73718057D01*
X149756666Y-73718057D02*
X149804285Y-73813295D01*
X149804285Y-73813295D02*
X149851904Y-74003771D01*
X149851904Y-74003771D02*
X149851904Y-74241866D01*
X149851904Y-74241866D02*
X149804285Y-74432342D01*
X149804285Y-74432342D02*
X149756666Y-74527580D01*
X149756666Y-74527580D02*
X149709047Y-74575200D01*
X149709047Y-74575200D02*
X149613809Y-74622819D01*
X149613809Y-74622819D02*
X149518571Y-74622819D01*
X149518571Y-74622819D02*
X149423333Y-74575200D01*
X149423333Y-74575200D02*
X149375714Y-74527580D01*
X149375714Y-74527580D02*
X149328095Y-74432342D01*
X149328095Y-74432342D02*
X149280476Y-74241866D01*
X149280476Y-74241866D02*
X149280476Y-74003771D01*
X149280476Y-74003771D02*
X149328095Y-73813295D01*
X149328095Y-73813295D02*
X149375714Y-73718057D01*
X149375714Y-73718057D02*
X149423333Y-73670438D01*
X149423333Y-73670438D02*
X149518571Y-73622819D01*
X139954095Y-85814819D02*
X139954095Y-86624342D01*
X139954095Y-86624342D02*
X140001714Y-86719580D01*
X140001714Y-86719580D02*
X140049333Y-86767200D01*
X140049333Y-86767200D02*
X140144571Y-86814819D01*
X140144571Y-86814819D02*
X140335047Y-86814819D01*
X140335047Y-86814819D02*
X140430285Y-86767200D01*
X140430285Y-86767200D02*
X140477904Y-86719580D01*
X140477904Y-86719580D02*
X140525523Y-86624342D01*
X140525523Y-86624342D02*
X140525523Y-85814819D01*
X141477904Y-85814819D02*
X141001714Y-85814819D01*
X141001714Y-85814819D02*
X140954095Y-86291009D01*
X140954095Y-86291009D02*
X141001714Y-86243390D01*
X141001714Y-86243390D02*
X141096952Y-86195771D01*
X141096952Y-86195771D02*
X141335047Y-86195771D01*
X141335047Y-86195771D02*
X141430285Y-86243390D01*
X141430285Y-86243390D02*
X141477904Y-86291009D01*
X141477904Y-86291009D02*
X141525523Y-86386247D01*
X141525523Y-86386247D02*
X141525523Y-86624342D01*
X141525523Y-86624342D02*
X141477904Y-86719580D01*
X141477904Y-86719580D02*
X141430285Y-86767200D01*
X141430285Y-86767200D02*
X141335047Y-86814819D01*
X141335047Y-86814819D02*
X141096952Y-86814819D01*
X141096952Y-86814819D02*
X141001714Y-86767200D01*
X141001714Y-86767200D02*
X140954095Y-86719580D01*
X176665047Y-79941009D02*
X176807904Y-79988628D01*
X176807904Y-79988628D02*
X176855523Y-80036247D01*
X176855523Y-80036247D02*
X176903142Y-80131485D01*
X176903142Y-80131485D02*
X176903142Y-80274342D01*
X176903142Y-80274342D02*
X176855523Y-80369580D01*
X176855523Y-80369580D02*
X176807904Y-80417200D01*
X176807904Y-80417200D02*
X176712666Y-80464819D01*
X176712666Y-80464819D02*
X176331714Y-80464819D01*
X176331714Y-80464819D02*
X176331714Y-79464819D01*
X176331714Y-79464819D02*
X176665047Y-79464819D01*
X176665047Y-79464819D02*
X176760285Y-79512438D01*
X176760285Y-79512438D02*
X176807904Y-79560057D01*
X176807904Y-79560057D02*
X176855523Y-79655295D01*
X176855523Y-79655295D02*
X176855523Y-79750533D01*
X176855523Y-79750533D02*
X176807904Y-79845771D01*
X176807904Y-79845771D02*
X176760285Y-79893390D01*
X176760285Y-79893390D02*
X176665047Y-79941009D01*
X176665047Y-79941009D02*
X176331714Y-79941009D01*
X177236476Y-79464819D02*
X177903142Y-79464819D01*
X177903142Y-79464819D02*
X177236476Y-80464819D01*
X177236476Y-80464819D02*
X177903142Y-80464819D01*
X178807904Y-80464819D02*
X178236476Y-80464819D01*
X178522190Y-80464819D02*
X178522190Y-79464819D01*
X178522190Y-79464819D02*
X178426952Y-79607676D01*
X178426952Y-79607676D02*
X178331714Y-79702914D01*
X178331714Y-79702914D02*
X178236476Y-79750533D01*
X160150905Y-127454819D02*
X160150905Y-126454819D01*
X160150905Y-126454819D02*
X160389000Y-126454819D01*
X160389000Y-126454819D02*
X160531857Y-126502438D01*
X160531857Y-126502438D02*
X160627095Y-126597676D01*
X160627095Y-126597676D02*
X160674714Y-126692914D01*
X160674714Y-126692914D02*
X160722333Y-126883390D01*
X160722333Y-126883390D02*
X160722333Y-127026247D01*
X160722333Y-127026247D02*
X160674714Y-127216723D01*
X160674714Y-127216723D02*
X160627095Y-127311961D01*
X160627095Y-127311961D02*
X160531857Y-127407200D01*
X160531857Y-127407200D02*
X160389000Y-127454819D01*
X160389000Y-127454819D02*
X160150905Y-127454819D01*
X161055667Y-126454819D02*
X161674714Y-126454819D01*
X161674714Y-126454819D02*
X161341381Y-126835771D01*
X161341381Y-126835771D02*
X161484238Y-126835771D01*
X161484238Y-126835771D02*
X161579476Y-126883390D01*
X161579476Y-126883390D02*
X161627095Y-126931009D01*
X161627095Y-126931009D02*
X161674714Y-127026247D01*
X161674714Y-127026247D02*
X161674714Y-127264342D01*
X161674714Y-127264342D02*
X161627095Y-127359580D01*
X161627095Y-127359580D02*
X161579476Y-127407200D01*
X161579476Y-127407200D02*
X161484238Y-127454819D01*
X161484238Y-127454819D02*
X161198524Y-127454819D01*
X161198524Y-127454819D02*
X161103286Y-127407200D01*
X161103286Y-127407200D02*
X161055667Y-127359580D01*
X152545337Y-73098819D02*
X152212004Y-72622628D01*
X151973909Y-73098819D02*
X151973909Y-72098819D01*
X151973909Y-72098819D02*
X152354861Y-72098819D01*
X152354861Y-72098819D02*
X152450099Y-72146438D01*
X152450099Y-72146438D02*
X152497718Y-72194057D01*
X152497718Y-72194057D02*
X152545337Y-72289295D01*
X152545337Y-72289295D02*
X152545337Y-72432152D01*
X152545337Y-72432152D02*
X152497718Y-72527390D01*
X152497718Y-72527390D02*
X152450099Y-72575009D01*
X152450099Y-72575009D02*
X152354861Y-72622628D01*
X152354861Y-72622628D02*
X151973909Y-72622628D01*
X153021528Y-73098819D02*
X153212004Y-73098819D01*
X153212004Y-73098819D02*
X153307242Y-73051200D01*
X153307242Y-73051200D02*
X153354861Y-73003580D01*
X153354861Y-73003580D02*
X153450099Y-72860723D01*
X153450099Y-72860723D02*
X153497718Y-72670247D01*
X153497718Y-72670247D02*
X153497718Y-72289295D01*
X153497718Y-72289295D02*
X153450099Y-72194057D01*
X153450099Y-72194057D02*
X153402480Y-72146438D01*
X153402480Y-72146438D02*
X153307242Y-72098819D01*
X153307242Y-72098819D02*
X153116766Y-72098819D01*
X153116766Y-72098819D02*
X153021528Y-72146438D01*
X153021528Y-72146438D02*
X152973909Y-72194057D01*
X152973909Y-72194057D02*
X152926290Y-72289295D01*
X152926290Y-72289295D02*
X152926290Y-72527390D01*
X152926290Y-72527390D02*
X152973909Y-72622628D01*
X152973909Y-72622628D02*
X153021528Y-72670247D01*
X153021528Y-72670247D02*
X153116766Y-72717866D01*
X153116766Y-72717866D02*
X153307242Y-72717866D01*
X153307242Y-72717866D02*
X153402480Y-72670247D01*
X153402480Y-72670247D02*
X153450099Y-72622628D01*
X153450099Y-72622628D02*
X153497718Y-72527390D01*
X170775333Y-119707819D02*
X170442000Y-119231628D01*
X170203905Y-119707819D02*
X170203905Y-118707819D01*
X170203905Y-118707819D02*
X170584857Y-118707819D01*
X170584857Y-118707819D02*
X170680095Y-118755438D01*
X170680095Y-118755438D02*
X170727714Y-118803057D01*
X170727714Y-118803057D02*
X170775333Y-118898295D01*
X170775333Y-118898295D02*
X170775333Y-119041152D01*
X170775333Y-119041152D02*
X170727714Y-119136390D01*
X170727714Y-119136390D02*
X170680095Y-119184009D01*
X170680095Y-119184009D02*
X170584857Y-119231628D01*
X170584857Y-119231628D02*
X170203905Y-119231628D01*
X171108667Y-118707819D02*
X171727714Y-118707819D01*
X171727714Y-118707819D02*
X171394381Y-119088771D01*
X171394381Y-119088771D02*
X171537238Y-119088771D01*
X171537238Y-119088771D02*
X171632476Y-119136390D01*
X171632476Y-119136390D02*
X171680095Y-119184009D01*
X171680095Y-119184009D02*
X171727714Y-119279247D01*
X171727714Y-119279247D02*
X171727714Y-119517342D01*
X171727714Y-119517342D02*
X171680095Y-119612580D01*
X171680095Y-119612580D02*
X171632476Y-119660200D01*
X171632476Y-119660200D02*
X171537238Y-119707819D01*
X171537238Y-119707819D02*
X171251524Y-119707819D01*
X171251524Y-119707819D02*
X171156286Y-119660200D01*
X171156286Y-119660200D02*
X171108667Y-119612580D01*
X142613142Y-116372819D02*
X142279809Y-115896628D01*
X142041714Y-116372819D02*
X142041714Y-115372819D01*
X142041714Y-115372819D02*
X142422666Y-115372819D01*
X142422666Y-115372819D02*
X142517904Y-115420438D01*
X142517904Y-115420438D02*
X142565523Y-115468057D01*
X142565523Y-115468057D02*
X142613142Y-115563295D01*
X142613142Y-115563295D02*
X142613142Y-115706152D01*
X142613142Y-115706152D02*
X142565523Y-115801390D01*
X142565523Y-115801390D02*
X142517904Y-115849009D01*
X142517904Y-115849009D02*
X142422666Y-115896628D01*
X142422666Y-115896628D02*
X142041714Y-115896628D01*
X143565523Y-116372819D02*
X142994095Y-116372819D01*
X143279809Y-116372819D02*
X143279809Y-115372819D01*
X143279809Y-115372819D02*
X143184571Y-115515676D01*
X143184571Y-115515676D02*
X143089333Y-115610914D01*
X143089333Y-115610914D02*
X142994095Y-115658533D01*
X144517904Y-116372819D02*
X143946476Y-116372819D01*
X144232190Y-116372819D02*
X144232190Y-115372819D01*
X144232190Y-115372819D02*
X144136952Y-115515676D01*
X144136952Y-115515676D02*
X144041714Y-115610914D01*
X144041714Y-115610914D02*
X143946476Y-115658533D01*
X114863714Y-97736819D02*
X114863714Y-96736819D01*
X114863714Y-96736819D02*
X115244666Y-96736819D01*
X115244666Y-96736819D02*
X115339904Y-96784438D01*
X115339904Y-96784438D02*
X115387523Y-96832057D01*
X115387523Y-96832057D02*
X115435142Y-96927295D01*
X115435142Y-96927295D02*
X115435142Y-97070152D01*
X115435142Y-97070152D02*
X115387523Y-97165390D01*
X115387523Y-97165390D02*
X115339904Y-97213009D01*
X115339904Y-97213009D02*
X115244666Y-97260628D01*
X115244666Y-97260628D02*
X114863714Y-97260628D01*
X115816095Y-97689200D02*
X115958952Y-97736819D01*
X115958952Y-97736819D02*
X116197047Y-97736819D01*
X116197047Y-97736819D02*
X116292285Y-97689200D01*
X116292285Y-97689200D02*
X116339904Y-97641580D01*
X116339904Y-97641580D02*
X116387523Y-97546342D01*
X116387523Y-97546342D02*
X116387523Y-97451104D01*
X116387523Y-97451104D02*
X116339904Y-97355866D01*
X116339904Y-97355866D02*
X116292285Y-97308247D01*
X116292285Y-97308247D02*
X116197047Y-97260628D01*
X116197047Y-97260628D02*
X116006571Y-97213009D01*
X116006571Y-97213009D02*
X115911333Y-97165390D01*
X115911333Y-97165390D02*
X115863714Y-97117771D01*
X115863714Y-97117771D02*
X115816095Y-97022533D01*
X115816095Y-97022533D02*
X115816095Y-96927295D01*
X115816095Y-96927295D02*
X115863714Y-96832057D01*
X115863714Y-96832057D02*
X115911333Y-96784438D01*
X115911333Y-96784438D02*
X116006571Y-96736819D01*
X116006571Y-96736819D02*
X116244666Y-96736819D01*
X116244666Y-96736819D02*
X116387523Y-96784438D01*
X117339904Y-97736819D02*
X116768476Y-97736819D01*
X117054190Y-97736819D02*
X117054190Y-96736819D01*
X117054190Y-96736819D02*
X116958952Y-96879676D01*
X116958952Y-96879676D02*
X116863714Y-96974914D01*
X116863714Y-96974914D02*
X116768476Y-97022533D01*
X158107142Y-83249078D02*
X158059523Y-83296698D01*
X158059523Y-83296698D02*
X157916666Y-83344317D01*
X157916666Y-83344317D02*
X157821428Y-83344317D01*
X157821428Y-83344317D02*
X157678571Y-83296698D01*
X157678571Y-83296698D02*
X157583333Y-83201459D01*
X157583333Y-83201459D02*
X157535714Y-83106221D01*
X157535714Y-83106221D02*
X157488095Y-82915745D01*
X157488095Y-82915745D02*
X157488095Y-82772888D01*
X157488095Y-82772888D02*
X157535714Y-82582412D01*
X157535714Y-82582412D02*
X157583333Y-82487174D01*
X157583333Y-82487174D02*
X157678571Y-82391936D01*
X157678571Y-82391936D02*
X157821428Y-82344317D01*
X157821428Y-82344317D02*
X157916666Y-82344317D01*
X157916666Y-82344317D02*
X158059523Y-82391936D01*
X158059523Y-82391936D02*
X158107142Y-82439555D01*
X159059523Y-83344317D02*
X158488095Y-83344317D01*
X158773809Y-83344317D02*
X158773809Y-82344317D01*
X158773809Y-82344317D02*
X158678571Y-82487174D01*
X158678571Y-82487174D02*
X158583333Y-82582412D01*
X158583333Y-82582412D02*
X158488095Y-82630031D01*
X159440476Y-82439555D02*
X159488095Y-82391936D01*
X159488095Y-82391936D02*
X159583333Y-82344317D01*
X159583333Y-82344317D02*
X159821428Y-82344317D01*
X159821428Y-82344317D02*
X159916666Y-82391936D01*
X159916666Y-82391936D02*
X159964285Y-82439555D01*
X159964285Y-82439555D02*
X160011904Y-82534793D01*
X160011904Y-82534793D02*
X160011904Y-82630031D01*
X160011904Y-82630031D02*
X159964285Y-82772888D01*
X159964285Y-82772888D02*
X159392857Y-83344317D01*
X159392857Y-83344317D02*
X160011904Y-83344317D01*
X146899333Y-78591580D02*
X146851714Y-78639200D01*
X146851714Y-78639200D02*
X146708857Y-78686819D01*
X146708857Y-78686819D02*
X146613619Y-78686819D01*
X146613619Y-78686819D02*
X146470762Y-78639200D01*
X146470762Y-78639200D02*
X146375524Y-78543961D01*
X146375524Y-78543961D02*
X146327905Y-78448723D01*
X146327905Y-78448723D02*
X146280286Y-78258247D01*
X146280286Y-78258247D02*
X146280286Y-78115390D01*
X146280286Y-78115390D02*
X146327905Y-77924914D01*
X146327905Y-77924914D02*
X146375524Y-77829676D01*
X146375524Y-77829676D02*
X146470762Y-77734438D01*
X146470762Y-77734438D02*
X146613619Y-77686819D01*
X146613619Y-77686819D02*
X146708857Y-77686819D01*
X146708857Y-77686819D02*
X146851714Y-77734438D01*
X146851714Y-77734438D02*
X146899333Y-77782057D01*
X147470762Y-78115390D02*
X147375524Y-78067771D01*
X147375524Y-78067771D02*
X147327905Y-78020152D01*
X147327905Y-78020152D02*
X147280286Y-77924914D01*
X147280286Y-77924914D02*
X147280286Y-77877295D01*
X147280286Y-77877295D02*
X147327905Y-77782057D01*
X147327905Y-77782057D02*
X147375524Y-77734438D01*
X147375524Y-77734438D02*
X147470762Y-77686819D01*
X147470762Y-77686819D02*
X147661238Y-77686819D01*
X147661238Y-77686819D02*
X147756476Y-77734438D01*
X147756476Y-77734438D02*
X147804095Y-77782057D01*
X147804095Y-77782057D02*
X147851714Y-77877295D01*
X147851714Y-77877295D02*
X147851714Y-77924914D01*
X147851714Y-77924914D02*
X147804095Y-78020152D01*
X147804095Y-78020152D02*
X147756476Y-78067771D01*
X147756476Y-78067771D02*
X147661238Y-78115390D01*
X147661238Y-78115390D02*
X147470762Y-78115390D01*
X147470762Y-78115390D02*
X147375524Y-78163009D01*
X147375524Y-78163009D02*
X147327905Y-78210628D01*
X147327905Y-78210628D02*
X147280286Y-78305866D01*
X147280286Y-78305866D02*
X147280286Y-78496342D01*
X147280286Y-78496342D02*
X147327905Y-78591580D01*
X147327905Y-78591580D02*
X147375524Y-78639200D01*
X147375524Y-78639200D02*
X147470762Y-78686819D01*
X147470762Y-78686819D02*
X147661238Y-78686819D01*
X147661238Y-78686819D02*
X147756476Y-78639200D01*
X147756476Y-78639200D02*
X147804095Y-78591580D01*
X147804095Y-78591580D02*
X147851714Y-78496342D01*
X147851714Y-78496342D02*
X147851714Y-78305866D01*
X147851714Y-78305866D02*
X147804095Y-78210628D01*
X147804095Y-78210628D02*
X147756476Y-78163009D01*
X147756476Y-78163009D02*
X147661238Y-78115390D01*
X165528666Y-119723819D02*
X165528666Y-120438104D01*
X165528666Y-120438104D02*
X165481047Y-120580961D01*
X165481047Y-120580961D02*
X165385809Y-120676200D01*
X165385809Y-120676200D02*
X165242952Y-120723819D01*
X165242952Y-120723819D02*
X165147714Y-120723819D01*
X165909619Y-119723819D02*
X166528666Y-119723819D01*
X166528666Y-119723819D02*
X166195333Y-120104771D01*
X166195333Y-120104771D02*
X166338190Y-120104771D01*
X166338190Y-120104771D02*
X166433428Y-120152390D01*
X166433428Y-120152390D02*
X166481047Y-120200009D01*
X166481047Y-120200009D02*
X166528666Y-120295247D01*
X166528666Y-120295247D02*
X166528666Y-120533342D01*
X166528666Y-120533342D02*
X166481047Y-120628580D01*
X166481047Y-120628580D02*
X166433428Y-120676200D01*
X166433428Y-120676200D02*
X166338190Y-120723819D01*
X166338190Y-120723819D02*
X166052476Y-120723819D01*
X166052476Y-120723819D02*
X165957238Y-120676200D01*
X165957238Y-120676200D02*
X165909619Y-120628580D01*
X156964286Y-117929819D02*
X156964286Y-116929819D01*
X156964286Y-116929819D02*
X157345238Y-116929819D01*
X157345238Y-116929819D02*
X157440476Y-116977438D01*
X157440476Y-116977438D02*
X157488095Y-117025057D01*
X157488095Y-117025057D02*
X157535714Y-117120295D01*
X157535714Y-117120295D02*
X157535714Y-117263152D01*
X157535714Y-117263152D02*
X157488095Y-117358390D01*
X157488095Y-117358390D02*
X157440476Y-117406009D01*
X157440476Y-117406009D02*
X157345238Y-117453628D01*
X157345238Y-117453628D02*
X156964286Y-117453628D01*
X158535714Y-117929819D02*
X158202381Y-117453628D01*
X157964286Y-117929819D02*
X157964286Y-116929819D01*
X157964286Y-116929819D02*
X158345238Y-116929819D01*
X158345238Y-116929819D02*
X158440476Y-116977438D01*
X158440476Y-116977438D02*
X158488095Y-117025057D01*
X158488095Y-117025057D02*
X158535714Y-117120295D01*
X158535714Y-117120295D02*
X158535714Y-117263152D01*
X158535714Y-117263152D02*
X158488095Y-117358390D01*
X158488095Y-117358390D02*
X158440476Y-117406009D01*
X158440476Y-117406009D02*
X158345238Y-117453628D01*
X158345238Y-117453628D02*
X157964286Y-117453628D01*
X159154762Y-116929819D02*
X159345238Y-116929819D01*
X159345238Y-116929819D02*
X159440476Y-116977438D01*
X159440476Y-116977438D02*
X159535714Y-117072676D01*
X159535714Y-117072676D02*
X159583333Y-117263152D01*
X159583333Y-117263152D02*
X159583333Y-117596485D01*
X159583333Y-117596485D02*
X159535714Y-117786961D01*
X159535714Y-117786961D02*
X159440476Y-117882200D01*
X159440476Y-117882200D02*
X159345238Y-117929819D01*
X159345238Y-117929819D02*
X159154762Y-117929819D01*
X159154762Y-117929819D02*
X159059524Y-117882200D01*
X159059524Y-117882200D02*
X158964286Y-117786961D01*
X158964286Y-117786961D02*
X158916667Y-117596485D01*
X158916667Y-117596485D02*
X158916667Y-117263152D01*
X158916667Y-117263152D02*
X158964286Y-117072676D01*
X158964286Y-117072676D02*
X159059524Y-116977438D01*
X159059524Y-116977438D02*
X159154762Y-116929819D01*
X160535714Y-116977438D02*
X160440476Y-116929819D01*
X160440476Y-116929819D02*
X160297619Y-116929819D01*
X160297619Y-116929819D02*
X160154762Y-116977438D01*
X160154762Y-116977438D02*
X160059524Y-117072676D01*
X160059524Y-117072676D02*
X160011905Y-117167914D01*
X160011905Y-117167914D02*
X159964286Y-117358390D01*
X159964286Y-117358390D02*
X159964286Y-117501247D01*
X159964286Y-117501247D02*
X160011905Y-117691723D01*
X160011905Y-117691723D02*
X160059524Y-117786961D01*
X160059524Y-117786961D02*
X160154762Y-117882200D01*
X160154762Y-117882200D02*
X160297619Y-117929819D01*
X160297619Y-117929819D02*
X160392857Y-117929819D01*
X160392857Y-117929819D02*
X160535714Y-117882200D01*
X160535714Y-117882200D02*
X160583333Y-117834580D01*
X160583333Y-117834580D02*
X160583333Y-117501247D01*
X160583333Y-117501247D02*
X160392857Y-117501247D01*
X162456904Y-117929819D02*
X162123571Y-117453628D01*
X161885476Y-117929819D02*
X161885476Y-116929819D01*
X161885476Y-116929819D02*
X162266428Y-116929819D01*
X162266428Y-116929819D02*
X162361666Y-116977438D01*
X162361666Y-116977438D02*
X162409285Y-117025057D01*
X162409285Y-117025057D02*
X162456904Y-117120295D01*
X162456904Y-117120295D02*
X162456904Y-117263152D01*
X162456904Y-117263152D02*
X162409285Y-117358390D01*
X162409285Y-117358390D02*
X162361666Y-117406009D01*
X162361666Y-117406009D02*
X162266428Y-117453628D01*
X162266428Y-117453628D02*
X161885476Y-117453628D01*
X162885476Y-116929819D02*
X162885476Y-117739342D01*
X162885476Y-117739342D02*
X162933095Y-117834580D01*
X162933095Y-117834580D02*
X162980714Y-117882200D01*
X162980714Y-117882200D02*
X163075952Y-117929819D01*
X163075952Y-117929819D02*
X163266428Y-117929819D01*
X163266428Y-117929819D02*
X163361666Y-117882200D01*
X163361666Y-117882200D02*
X163409285Y-117834580D01*
X163409285Y-117834580D02*
X163456904Y-117739342D01*
X163456904Y-117739342D02*
X163456904Y-116929819D01*
X163933095Y-117929819D02*
X163933095Y-116929819D01*
X163933095Y-116929819D02*
X164504523Y-117929819D01*
X164504523Y-117929819D02*
X164504523Y-116929819D01*
X158447142Y-101451580D02*
X158399523Y-101499200D01*
X158399523Y-101499200D02*
X158256666Y-101546819D01*
X158256666Y-101546819D02*
X158161428Y-101546819D01*
X158161428Y-101546819D02*
X158018571Y-101499200D01*
X158018571Y-101499200D02*
X157923333Y-101403961D01*
X157923333Y-101403961D02*
X157875714Y-101308723D01*
X157875714Y-101308723D02*
X157828095Y-101118247D01*
X157828095Y-101118247D02*
X157828095Y-100975390D01*
X157828095Y-100975390D02*
X157875714Y-100784914D01*
X157875714Y-100784914D02*
X157923333Y-100689676D01*
X157923333Y-100689676D02*
X158018571Y-100594438D01*
X158018571Y-100594438D02*
X158161428Y-100546819D01*
X158161428Y-100546819D02*
X158256666Y-100546819D01*
X158256666Y-100546819D02*
X158399523Y-100594438D01*
X158399523Y-100594438D02*
X158447142Y-100642057D01*
X159399523Y-101546819D02*
X158828095Y-101546819D01*
X159113809Y-101546819D02*
X159113809Y-100546819D01*
X159113809Y-100546819D02*
X159018571Y-100689676D01*
X159018571Y-100689676D02*
X158923333Y-100784914D01*
X158923333Y-100784914D02*
X158828095Y-100832533D01*
X159732857Y-100546819D02*
X160351904Y-100546819D01*
X160351904Y-100546819D02*
X160018571Y-100927771D01*
X160018571Y-100927771D02*
X160161428Y-100927771D01*
X160161428Y-100927771D02*
X160256666Y-100975390D01*
X160256666Y-100975390D02*
X160304285Y-101023009D01*
X160304285Y-101023009D02*
X160351904Y-101118247D01*
X160351904Y-101118247D02*
X160351904Y-101356342D01*
X160351904Y-101356342D02*
X160304285Y-101451580D01*
X160304285Y-101451580D02*
X160256666Y-101499200D01*
X160256666Y-101499200D02*
X160161428Y-101546819D01*
X160161428Y-101546819D02*
X159875714Y-101546819D01*
X159875714Y-101546819D02*
X159780476Y-101499200D01*
X159780476Y-101499200D02*
X159732857Y-101451580D01*
X158107142Y-85080817D02*
X157773809Y-84604626D01*
X157535714Y-85080817D02*
X157535714Y-84080817D01*
X157535714Y-84080817D02*
X157916666Y-84080817D01*
X157916666Y-84080817D02*
X158011904Y-84128436D01*
X158011904Y-84128436D02*
X158059523Y-84176055D01*
X158059523Y-84176055D02*
X158107142Y-84271293D01*
X158107142Y-84271293D02*
X158107142Y-84414150D01*
X158107142Y-84414150D02*
X158059523Y-84509388D01*
X158059523Y-84509388D02*
X158011904Y-84557007D01*
X158011904Y-84557007D02*
X157916666Y-84604626D01*
X157916666Y-84604626D02*
X157535714Y-84604626D01*
X159059523Y-85080817D02*
X158488095Y-85080817D01*
X158773809Y-85080817D02*
X158773809Y-84080817D01*
X158773809Y-84080817D02*
X158678571Y-84223674D01*
X158678571Y-84223674D02*
X158583333Y-84318912D01*
X158583333Y-84318912D02*
X158488095Y-84366531D01*
X159916666Y-84414150D02*
X159916666Y-85080817D01*
X159678571Y-84033198D02*
X159440476Y-84747483D01*
X159440476Y-84747483D02*
X160059523Y-84747483D01*
X159388615Y-132078894D02*
X159388615Y-131076138D01*
X159388615Y-131076138D02*
X159770617Y-131076138D01*
X159770617Y-131076138D02*
X159866118Y-131123888D01*
X159866118Y-131123888D02*
X159913868Y-131171638D01*
X159913868Y-131171638D02*
X159961618Y-131267139D01*
X159961618Y-131267139D02*
X159961618Y-131410390D01*
X159961618Y-131410390D02*
X159913868Y-131505890D01*
X159913868Y-131505890D02*
X159866118Y-131553641D01*
X159866118Y-131553641D02*
X159770617Y-131601391D01*
X159770617Y-131601391D02*
X159388615Y-131601391D01*
X160582372Y-131076138D02*
X160773373Y-131076138D01*
X160773373Y-131076138D02*
X160868874Y-131123888D01*
X160868874Y-131123888D02*
X160964374Y-131219389D01*
X160964374Y-131219389D02*
X161012125Y-131410390D01*
X161012125Y-131410390D02*
X161012125Y-131744642D01*
X161012125Y-131744642D02*
X160964374Y-131935643D01*
X160964374Y-131935643D02*
X160868874Y-132031144D01*
X160868874Y-132031144D02*
X160773373Y-132078894D01*
X160773373Y-132078894D02*
X160582372Y-132078894D01*
X160582372Y-132078894D02*
X160486872Y-132031144D01*
X160486872Y-132031144D02*
X160391371Y-131935643D01*
X160391371Y-131935643D02*
X160343621Y-131744642D01*
X160343621Y-131744642D02*
X160343621Y-131410390D01*
X160343621Y-131410390D02*
X160391371Y-131219389D01*
X160391371Y-131219389D02*
X160486872Y-131123888D01*
X160486872Y-131123888D02*
X160582372Y-131076138D01*
X161298626Y-131076138D02*
X161871630Y-131076138D01*
X161585128Y-132078894D02*
X161585128Y-131076138D01*
X162110381Y-131076138D02*
X162731135Y-131076138D01*
X162731135Y-131076138D02*
X162396883Y-131458140D01*
X162396883Y-131458140D02*
X162540134Y-131458140D01*
X162540134Y-131458140D02*
X162635635Y-131505890D01*
X162635635Y-131505890D02*
X162683385Y-131553641D01*
X162683385Y-131553641D02*
X162731135Y-131649141D01*
X162731135Y-131649141D02*
X162731135Y-131887893D01*
X162731135Y-131887893D02*
X162683385Y-131983393D01*
X162683385Y-131983393D02*
X162635635Y-132031144D01*
X162635635Y-132031144D02*
X162540134Y-132078894D01*
X162540134Y-132078894D02*
X162253632Y-132078894D01*
X162253632Y-132078894D02*
X162158132Y-132031144D01*
X162158132Y-132031144D02*
X162110381Y-131983393D01*
G36*
X169140311Y-138502077D02*
G01*
X169212253Y-138574019D01*
X169252595Y-138735386D01*
X169252595Y-139050251D01*
X169212253Y-139211617D01*
X169140310Y-139283561D01*
X169071795Y-139317819D01*
X168916729Y-139317819D01*
X168848213Y-139283561D01*
X168776270Y-139211617D01*
X168735929Y-139050251D01*
X168735929Y-138735386D01*
X168776270Y-138574019D01*
X168848213Y-138502077D01*
X168916729Y-138467819D01*
X169071795Y-138467819D01*
X169140311Y-138502077D01*
G37*
G36*
X171426025Y-138502077D02*
G01*
X171497967Y-138574019D01*
X171538309Y-138735386D01*
X171538309Y-139050251D01*
X171497967Y-139211617D01*
X171426024Y-139283561D01*
X171357509Y-139317819D01*
X171202443Y-139317819D01*
X171133927Y-139283561D01*
X171061984Y-139211617D01*
X171021643Y-139050251D01*
X171021643Y-138735386D01*
X171061984Y-138574019D01*
X171133927Y-138502077D01*
X171202443Y-138467819D01*
X171357509Y-138467819D01*
X171426025Y-138502077D01*
G37*
G36*
X172831166Y-139610676D02*
G01*
X167347834Y-139610676D01*
X167347834Y-139392819D01*
X167490691Y-139392819D01*
X167508238Y-139441028D01*
X167552667Y-139466680D01*
X167603191Y-139457771D01*
X167636168Y-139418471D01*
X167640691Y-139392819D01*
X167640691Y-138730886D01*
X167831060Y-139138821D01*
X167844826Y-139152579D01*
X167855987Y-139168528D01*
X167862546Y-139170287D01*
X167867348Y-139175086D01*
X167886737Y-139176777D01*
X167905539Y-139181821D01*
X167911692Y-139178953D01*
X167918457Y-139179544D01*
X167934399Y-139168372D01*
X167952041Y-139160153D01*
X167957740Y-139152018D01*
X167960473Y-139150104D01*
X167961332Y-139146891D01*
X167966988Y-139138820D01*
X168157357Y-138730886D01*
X168157357Y-139392819D01*
X168174904Y-139441028D01*
X168219333Y-139466680D01*
X168269857Y-139457771D01*
X168302834Y-139418471D01*
X168307357Y-139392819D01*
X168307357Y-139059485D01*
X168585929Y-139059485D01*
X168587114Y-139062742D01*
X168588168Y-139077675D01*
X168635787Y-139268151D01*
X168639929Y-139274283D01*
X168640574Y-139281657D01*
X168655515Y-139302994D01*
X168750753Y-139398233D01*
X168752235Y-139398924D01*
X168770245Y-139412282D01*
X168865483Y-139459901D01*
X168869936Y-139460413D01*
X168873372Y-139463296D01*
X168899024Y-139467819D01*
X169089500Y-139467819D01*
X169093713Y-139466285D01*
X169098074Y-139467327D01*
X169123041Y-139459901D01*
X169218279Y-139412282D01*
X169219404Y-139411092D01*
X169237771Y-139398233D01*
X169333010Y-139302993D01*
X169336137Y-139296285D01*
X169342127Y-139291940D01*
X169352737Y-139268151D01*
X169400356Y-139077675D01*
X169399995Y-139074226D01*
X169402595Y-139059485D01*
X169402595Y-138726152D01*
X169401409Y-138722894D01*
X169400356Y-138707962D01*
X169352737Y-138517486D01*
X169348595Y-138511353D01*
X169347950Y-138503980D01*
X169333009Y-138482643D01*
X169237771Y-138387405D01*
X169236289Y-138386714D01*
X169226960Y-138379795D01*
X169539449Y-138379795D01*
X169548358Y-138430319D01*
X169587658Y-138463296D01*
X169613310Y-138467819D01*
X169824024Y-138467819D01*
X169824024Y-139392819D01*
X169841571Y-139441028D01*
X169886000Y-139466680D01*
X169936524Y-139457771D01*
X169969501Y-139418471D01*
X169974024Y-139392819D01*
X170443072Y-139392819D01*
X170460619Y-139441028D01*
X170505048Y-139466680D01*
X170555572Y-139457771D01*
X170588549Y-139418471D01*
X170593072Y-139392819D01*
X170593072Y-139059485D01*
X170871643Y-139059485D01*
X170872828Y-139062742D01*
X170873882Y-139077675D01*
X170921501Y-139268151D01*
X170925643Y-139274283D01*
X170926288Y-139281657D01*
X170941229Y-139302994D01*
X171036467Y-139398233D01*
X171037949Y-139398924D01*
X171055959Y-139412282D01*
X171151197Y-139459901D01*
X171155650Y-139460413D01*
X171159086Y-139463296D01*
X171184738Y-139467819D01*
X171375214Y-139467819D01*
X171379427Y-139466285D01*
X171383788Y-139467327D01*
X171408755Y-139459901D01*
X171503993Y-139412282D01*
X171505118Y-139411092D01*
X171523485Y-139398233D01*
X171528899Y-139392819D01*
X171966881Y-139392819D01*
X171984428Y-139441028D01*
X172028857Y-139466680D01*
X172079381Y-139457771D01*
X172112358Y-139418471D01*
X172116881Y-139392819D01*
X172116881Y-138675235D01*
X172548191Y-139430030D01*
X172553484Y-139434511D01*
X172555856Y-139441028D01*
X172572593Y-139450691D01*
X172587344Y-139463181D01*
X172594278Y-139463211D01*
X172600285Y-139466680D01*
X172619318Y-139463323D01*
X172638646Y-139463410D01*
X172643979Y-139458975D01*
X172650809Y-139457771D01*
X172663233Y-139442964D01*
X172678093Y-139430608D01*
X172679327Y-139423784D01*
X172683786Y-139418471D01*
X172688309Y-139392819D01*
X172688309Y-138392819D01*
X172670762Y-138344610D01*
X172626333Y-138318958D01*
X172575809Y-138327867D01*
X172542832Y-138367167D01*
X172538309Y-138392819D01*
X172538309Y-139110402D01*
X172106999Y-138355609D01*
X172101706Y-138351127D01*
X172099334Y-138344610D01*
X172082594Y-138334945D01*
X172067846Y-138322457D01*
X172060911Y-138322426D01*
X172054905Y-138318958D01*
X172035871Y-138322314D01*
X172016544Y-138322228D01*
X172011210Y-138326662D01*
X172004381Y-138327867D01*
X171991956Y-138342673D01*
X171977097Y-138355030D01*
X171975862Y-138361853D01*
X171971404Y-138367167D01*
X171966881Y-138392819D01*
X171966881Y-139392819D01*
X171528899Y-139392819D01*
X171618724Y-139302993D01*
X171621851Y-139296285D01*
X171627841Y-139291940D01*
X171638451Y-139268151D01*
X171686070Y-139077675D01*
X171685709Y-139074226D01*
X171688309Y-139059485D01*
X171688309Y-138726152D01*
X171687123Y-138722894D01*
X171686070Y-138707962D01*
X171638451Y-138517486D01*
X171634309Y-138511353D01*
X171633664Y-138503980D01*
X171618723Y-138482643D01*
X171523485Y-138387405D01*
X171522003Y-138386714D01*
X171503993Y-138373356D01*
X171408755Y-138325737D01*
X171404301Y-138325224D01*
X171400866Y-138322342D01*
X171375214Y-138317819D01*
X171184738Y-138317819D01*
X171180524Y-138319352D01*
X171176163Y-138318311D01*
X171151197Y-138325737D01*
X171055959Y-138373356D01*
X171054835Y-138374542D01*
X171036467Y-138387405D01*
X170941229Y-138482643D01*
X170938101Y-138489350D01*
X170932111Y-138493697D01*
X170921501Y-138517486D01*
X170873882Y-138707962D01*
X170874242Y-138711410D01*
X170871643Y-138726152D01*
X170871643Y-139059485D01*
X170593072Y-139059485D01*
X170593072Y-138392819D01*
X170575525Y-138344610D01*
X170531096Y-138318958D01*
X170480572Y-138327867D01*
X170447595Y-138367167D01*
X170443072Y-138392819D01*
X170443072Y-139392819D01*
X169974024Y-139392819D01*
X169974024Y-138467819D01*
X170184738Y-138467819D01*
X170232947Y-138450272D01*
X170258599Y-138405843D01*
X170249690Y-138355319D01*
X170210390Y-138322342D01*
X170184738Y-138317819D01*
X169613310Y-138317819D01*
X169565101Y-138335366D01*
X169539449Y-138379795D01*
X169226960Y-138379795D01*
X169218279Y-138373356D01*
X169123041Y-138325737D01*
X169118587Y-138325224D01*
X169115152Y-138322342D01*
X169089500Y-138317819D01*
X168899024Y-138317819D01*
X168894810Y-138319352D01*
X168890449Y-138318311D01*
X168865483Y-138325737D01*
X168770245Y-138373356D01*
X168769121Y-138374542D01*
X168750753Y-138387405D01*
X168655515Y-138482643D01*
X168652387Y-138489350D01*
X168646397Y-138493697D01*
X168635787Y-138517486D01*
X168588168Y-138707962D01*
X168588528Y-138711410D01*
X168585929Y-138726152D01*
X168585929Y-139059485D01*
X168307357Y-139059485D01*
X168307357Y-138392819D01*
X168303931Y-138383406D01*
X168304807Y-138373429D01*
X168295413Y-138360004D01*
X168289810Y-138344610D01*
X168281137Y-138339602D01*
X168275394Y-138331395D01*
X168259568Y-138327149D01*
X168245381Y-138318958D01*
X168235517Y-138320697D01*
X168225843Y-138318102D01*
X168210991Y-138325021D01*
X168194857Y-138327867D01*
X168188418Y-138335539D01*
X168179340Y-138339770D01*
X168164393Y-138361102D01*
X167899023Y-138929750D01*
X167633655Y-138361103D01*
X167626569Y-138354022D01*
X167623144Y-138344610D01*
X167608954Y-138336417D01*
X167597367Y-138324837D01*
X167587390Y-138323966D01*
X167578715Y-138318958D01*
X167562579Y-138321803D01*
X167546258Y-138320380D01*
X167538054Y-138326127D01*
X167528191Y-138327867D01*
X167517659Y-138340417D01*
X167504242Y-138349819D01*
X167501652Y-138359493D01*
X167495214Y-138367167D01*
X167490691Y-138392819D01*
X167490691Y-139392819D01*
X167347834Y-139392819D01*
X167347834Y-138174962D01*
X172831166Y-138174962D01*
X172831166Y-139610676D01*
G37*
G36*
X162709475Y-134263217D02*
G01*
X160941606Y-134263217D01*
X160941606Y-133033095D01*
X161084463Y-133033095D01*
X161093372Y-133083619D01*
X161132672Y-133116596D01*
X161158324Y-133121119D01*
X161369038Y-133121119D01*
X161369038Y-134046119D01*
X161386585Y-134094328D01*
X161431014Y-134119980D01*
X161481538Y-134111071D01*
X161514515Y-134071771D01*
X161518613Y-134048531D01*
X161892887Y-134048531D01*
X161911974Y-134096151D01*
X161957206Y-134120360D01*
X162007417Y-134109832D01*
X162026822Y-134092456D01*
X162229752Y-133834180D01*
X162432683Y-134092456D01*
X162476265Y-134119522D01*
X162527049Y-134112244D01*
X162561273Y-134074024D01*
X162562923Y-134022747D01*
X162550631Y-133999782D01*
X162325134Y-133712785D01*
X162550631Y-133425789D01*
X162566618Y-133377040D01*
X162547531Y-133329420D01*
X162502299Y-133305211D01*
X162452088Y-133315739D01*
X162432683Y-133333115D01*
X162229752Y-133591390D01*
X162026822Y-133333115D01*
X161983240Y-133306049D01*
X161932456Y-133313327D01*
X161898232Y-133351547D01*
X161896582Y-133402824D01*
X161908874Y-133425789D01*
X162134370Y-133712785D01*
X161908874Y-133999782D01*
X161892887Y-134048531D01*
X161518613Y-134048531D01*
X161519038Y-134046119D01*
X161519038Y-133121119D01*
X161729752Y-133121119D01*
X161777961Y-133103572D01*
X161803613Y-133059143D01*
X161794704Y-133008619D01*
X161755404Y-132975642D01*
X161729752Y-132971119D01*
X161158324Y-132971119D01*
X161110115Y-132988666D01*
X161084463Y-133033095D01*
X160941606Y-133033095D01*
X160941606Y-132828262D01*
X162709475Y-132828262D01*
X162709475Y-134263217D01*
G37*
X166235142Y-143075819D02*
X165901809Y-142599628D01*
X165663714Y-143075819D02*
X165663714Y-142075819D01*
X165663714Y-142075819D02*
X166044666Y-142075819D01*
X166044666Y-142075819D02*
X166139904Y-142123438D01*
X166139904Y-142123438D02*
X166187523Y-142171057D01*
X166187523Y-142171057D02*
X166235142Y-142266295D01*
X166235142Y-142266295D02*
X166235142Y-142409152D01*
X166235142Y-142409152D02*
X166187523Y-142504390D01*
X166187523Y-142504390D02*
X166139904Y-142552009D01*
X166139904Y-142552009D02*
X166044666Y-142599628D01*
X166044666Y-142599628D02*
X165663714Y-142599628D01*
X166616095Y-142171057D02*
X166663714Y-142123438D01*
X166663714Y-142123438D02*
X166758952Y-142075819D01*
X166758952Y-142075819D02*
X166997047Y-142075819D01*
X166997047Y-142075819D02*
X167092285Y-142123438D01*
X167092285Y-142123438D02*
X167139904Y-142171057D01*
X167139904Y-142171057D02*
X167187523Y-142266295D01*
X167187523Y-142266295D02*
X167187523Y-142361533D01*
X167187523Y-142361533D02*
X167139904Y-142504390D01*
X167139904Y-142504390D02*
X166568476Y-143075819D01*
X166568476Y-143075819D02*
X167187523Y-143075819D01*
X167806571Y-142075819D02*
X167901809Y-142075819D01*
X167901809Y-142075819D02*
X167997047Y-142123438D01*
X167997047Y-142123438D02*
X168044666Y-142171057D01*
X168044666Y-142171057D02*
X168092285Y-142266295D01*
X168092285Y-142266295D02*
X168139904Y-142456771D01*
X168139904Y-142456771D02*
X168139904Y-142694866D01*
X168139904Y-142694866D02*
X168092285Y-142885342D01*
X168092285Y-142885342D02*
X168044666Y-142980580D01*
X168044666Y-142980580D02*
X167997047Y-143028200D01*
X167997047Y-143028200D02*
X167901809Y-143075819D01*
X167901809Y-143075819D02*
X167806571Y-143075819D01*
X167806571Y-143075819D02*
X167711333Y-143028200D01*
X167711333Y-143028200D02*
X167663714Y-142980580D01*
X167663714Y-142980580D02*
X167616095Y-142885342D01*
X167616095Y-142885342D02*
X167568476Y-142694866D01*
X167568476Y-142694866D02*
X167568476Y-142456771D01*
X167568476Y-142456771D02*
X167616095Y-142266295D01*
X167616095Y-142266295D02*
X167663714Y-142171057D01*
X167663714Y-142171057D02*
X167711333Y-142123438D01*
X167711333Y-142123438D02*
X167806571Y-142075819D01*
X179316142Y-122399820D02*
X178982809Y-121923629D01*
X178744714Y-122399820D02*
X178744714Y-121399820D01*
X178744714Y-121399820D02*
X179125666Y-121399820D01*
X179125666Y-121399820D02*
X179220904Y-121447439D01*
X179220904Y-121447439D02*
X179268523Y-121495058D01*
X179268523Y-121495058D02*
X179316142Y-121590296D01*
X179316142Y-121590296D02*
X179316142Y-121733153D01*
X179316142Y-121733153D02*
X179268523Y-121828391D01*
X179268523Y-121828391D02*
X179220904Y-121876010D01*
X179220904Y-121876010D02*
X179125666Y-121923629D01*
X179125666Y-121923629D02*
X178744714Y-121923629D01*
X180268523Y-122399820D02*
X179697095Y-122399820D01*
X179982809Y-122399820D02*
X179982809Y-121399820D01*
X179982809Y-121399820D02*
X179887571Y-121542677D01*
X179887571Y-121542677D02*
X179792333Y-121637915D01*
X179792333Y-121637915D02*
X179697095Y-121685534D01*
X180744714Y-122399820D02*
X180935190Y-122399820D01*
X180935190Y-122399820D02*
X181030428Y-122352201D01*
X181030428Y-122352201D02*
X181078047Y-122304581D01*
X181078047Y-122304581D02*
X181173285Y-122161724D01*
X181173285Y-122161724D02*
X181220904Y-121971248D01*
X181220904Y-121971248D02*
X181220904Y-121590296D01*
X181220904Y-121590296D02*
X181173285Y-121495058D01*
X181173285Y-121495058D02*
X181125666Y-121447439D01*
X181125666Y-121447439D02*
X181030428Y-121399820D01*
X181030428Y-121399820D02*
X180839952Y-121399820D01*
X180839952Y-121399820D02*
X180744714Y-121447439D01*
X180744714Y-121447439D02*
X180697095Y-121495058D01*
X180697095Y-121495058D02*
X180649476Y-121590296D01*
X180649476Y-121590296D02*
X180649476Y-121828391D01*
X180649476Y-121828391D02*
X180697095Y-121923629D01*
X180697095Y-121923629D02*
X180744714Y-121971248D01*
X180744714Y-121971248D02*
X180839952Y-122018867D01*
X180839952Y-122018867D02*
X181030428Y-122018867D01*
X181030428Y-122018867D02*
X181125666Y-121971248D01*
X181125666Y-121971248D02*
X181173285Y-121923629D01*
X181173285Y-121923629D02*
X181220904Y-121828391D01*
X178184615Y-132078894D02*
X178184615Y-131076138D01*
X178184615Y-131076138D02*
X178566617Y-131076138D01*
X178566617Y-131076138D02*
X178662118Y-131123888D01*
X178662118Y-131123888D02*
X178709868Y-131171638D01*
X178709868Y-131171638D02*
X178757618Y-131267139D01*
X178757618Y-131267139D02*
X178757618Y-131410390D01*
X178757618Y-131410390D02*
X178709868Y-131505890D01*
X178709868Y-131505890D02*
X178662118Y-131553641D01*
X178662118Y-131553641D02*
X178566617Y-131601391D01*
X178566617Y-131601391D02*
X178184615Y-131601391D01*
X179378372Y-131076138D02*
X179569373Y-131076138D01*
X179569373Y-131076138D02*
X179664874Y-131123888D01*
X179664874Y-131123888D02*
X179760374Y-131219389D01*
X179760374Y-131219389D02*
X179808125Y-131410390D01*
X179808125Y-131410390D02*
X179808125Y-131744642D01*
X179808125Y-131744642D02*
X179760374Y-131935643D01*
X179760374Y-131935643D02*
X179664874Y-132031144D01*
X179664874Y-132031144D02*
X179569373Y-132078894D01*
X179569373Y-132078894D02*
X179378372Y-132078894D01*
X179378372Y-132078894D02*
X179282872Y-132031144D01*
X179282872Y-132031144D02*
X179187371Y-131935643D01*
X179187371Y-131935643D02*
X179139621Y-131744642D01*
X179139621Y-131744642D02*
X179139621Y-131410390D01*
X179139621Y-131410390D02*
X179187371Y-131219389D01*
X179187371Y-131219389D02*
X179282872Y-131123888D01*
X179282872Y-131123888D02*
X179378372Y-131076138D01*
X180094626Y-131076138D02*
X180667630Y-131076138D01*
X180381128Y-132078894D02*
X180381128Y-131076138D01*
X181431635Y-131410390D02*
X181431635Y-132078894D01*
X181192883Y-131028388D02*
X180954132Y-131744642D01*
X180954132Y-131744642D02*
X181574885Y-131744642D01*
G36*
X179716143Y-134275537D02*
G01*
X178329473Y-134275537D01*
X178329473Y-133045795D01*
X178472330Y-133045795D01*
X178481239Y-133096319D01*
X178520539Y-133129296D01*
X178546191Y-133133819D01*
X178756905Y-133133819D01*
X178756905Y-134058819D01*
X178774452Y-134107028D01*
X178818881Y-134132680D01*
X178869405Y-134123771D01*
X178902382Y-134084471D01*
X178906905Y-134058819D01*
X179375953Y-134058819D01*
X179393500Y-134107028D01*
X179437929Y-134132680D01*
X179488453Y-134123771D01*
X179521430Y-134084471D01*
X179525953Y-134058819D01*
X179525953Y-133392152D01*
X179508406Y-133343943D01*
X179463977Y-133318291D01*
X179413453Y-133327200D01*
X179380476Y-133366500D01*
X179375953Y-133392152D01*
X179375953Y-134058819D01*
X178906905Y-134058819D01*
X178906905Y-133133819D01*
X179117619Y-133133819D01*
X179165828Y-133116272D01*
X179175280Y-133099902D01*
X179328620Y-133099902D01*
X179333662Y-133118721D01*
X179335361Y-133138134D01*
X179341034Y-133146236D01*
X179341897Y-133149456D01*
X179344627Y-133151367D01*
X179350301Y-133159471D01*
X179397920Y-133207090D01*
X179415578Y-133215323D01*
X179431542Y-133226502D01*
X179434958Y-133226203D01*
X179437929Y-133227918D01*
X179441308Y-133227322D01*
X179444416Y-133228771D01*
X179463235Y-133223728D01*
X179482649Y-133222030D01*
X179486462Y-133219360D01*
X179488453Y-133219009D01*
X179490574Y-133216480D01*
X179490751Y-133216356D01*
X179493971Y-133215494D01*
X179495882Y-133212764D01*
X179503986Y-133207090D01*
X179551605Y-133159471D01*
X179559840Y-133141810D01*
X179571016Y-133125849D01*
X179570426Y-133119107D01*
X179573286Y-133112975D01*
X179568243Y-133094153D01*
X179566545Y-133074742D01*
X179560871Y-133066639D01*
X179560009Y-133063420D01*
X179557279Y-133061508D01*
X179551605Y-133053405D01*
X179503986Y-133005786D01*
X179486325Y-132997551D01*
X179470364Y-132986375D01*
X179466948Y-132986673D01*
X179463977Y-132984958D01*
X179460596Y-132985554D01*
X179457489Y-132984105D01*
X179438667Y-132989147D01*
X179419257Y-132990846D01*
X179415443Y-132993515D01*
X179413453Y-132993867D01*
X179411331Y-132996395D01*
X179411154Y-132996519D01*
X179407935Y-132997382D01*
X179406023Y-133000112D01*
X179397920Y-133005786D01*
X179350301Y-133053405D01*
X179342067Y-133071062D01*
X179330889Y-133087027D01*
X179331479Y-133093770D01*
X179328620Y-133099902D01*
X179175280Y-133099902D01*
X179191480Y-133071843D01*
X179182571Y-133021319D01*
X179143271Y-132988342D01*
X179117619Y-132983819D01*
X178546191Y-132983819D01*
X178497982Y-133001366D01*
X178472330Y-133045795D01*
X178329473Y-133045795D01*
X178329473Y-132840962D01*
X179716143Y-132840962D01*
X179716143Y-134275537D01*
G37*
X153670095Y-138646819D02*
X153670095Y-139456342D01*
X153670095Y-139456342D02*
X153717714Y-139551580D01*
X153717714Y-139551580D02*
X153765333Y-139599200D01*
X153765333Y-139599200D02*
X153860571Y-139646819D01*
X153860571Y-139646819D02*
X154051047Y-139646819D01*
X154051047Y-139646819D02*
X154146285Y-139599200D01*
X154146285Y-139599200D02*
X154193904Y-139551580D01*
X154193904Y-139551580D02*
X154241523Y-139456342D01*
X154241523Y-139456342D02*
X154241523Y-138646819D01*
X155146285Y-138980152D02*
X155146285Y-139646819D01*
X154908190Y-138599200D02*
X154670095Y-139313485D01*
X154670095Y-139313485D02*
X155289142Y-139313485D01*
X162171142Y-96670580D02*
X162123523Y-96718200D01*
X162123523Y-96718200D02*
X161980666Y-96765819D01*
X161980666Y-96765819D02*
X161885428Y-96765819D01*
X161885428Y-96765819D02*
X161742571Y-96718200D01*
X161742571Y-96718200D02*
X161647333Y-96622961D01*
X161647333Y-96622961D02*
X161599714Y-96527723D01*
X161599714Y-96527723D02*
X161552095Y-96337247D01*
X161552095Y-96337247D02*
X161552095Y-96194390D01*
X161552095Y-96194390D02*
X161599714Y-96003914D01*
X161599714Y-96003914D02*
X161647333Y-95908676D01*
X161647333Y-95908676D02*
X161742571Y-95813438D01*
X161742571Y-95813438D02*
X161885428Y-95765819D01*
X161885428Y-95765819D02*
X161980666Y-95765819D01*
X161980666Y-95765819D02*
X162123523Y-95813438D01*
X162123523Y-95813438D02*
X162171142Y-95861057D01*
X163123523Y-96765819D02*
X162552095Y-96765819D01*
X162837809Y-96765819D02*
X162837809Y-95765819D01*
X162837809Y-95765819D02*
X162742571Y-95908676D01*
X162742571Y-95908676D02*
X162647333Y-96003914D01*
X162647333Y-96003914D02*
X162552095Y-96051533D01*
X163980666Y-95765819D02*
X163790190Y-95765819D01*
X163790190Y-95765819D02*
X163694952Y-95813438D01*
X163694952Y-95813438D02*
X163647333Y-95861057D01*
X163647333Y-95861057D02*
X163552095Y-96003914D01*
X163552095Y-96003914D02*
X163504476Y-96194390D01*
X163504476Y-96194390D02*
X163504476Y-96575342D01*
X163504476Y-96575342D02*
X163552095Y-96670580D01*
X163552095Y-96670580D02*
X163599714Y-96718200D01*
X163599714Y-96718200D02*
X163694952Y-96765819D01*
X163694952Y-96765819D02*
X163885428Y-96765819D01*
X163885428Y-96765819D02*
X163980666Y-96718200D01*
X163980666Y-96718200D02*
X164028285Y-96670580D01*
X164028285Y-96670580D02*
X164075904Y-96575342D01*
X164075904Y-96575342D02*
X164075904Y-96337247D01*
X164075904Y-96337247D02*
X164028285Y-96242009D01*
X164028285Y-96242009D02*
X163980666Y-96194390D01*
X163980666Y-96194390D02*
X163885428Y-96146771D01*
X163885428Y-96146771D02*
X163694952Y-96146771D01*
X163694952Y-96146771D02*
X163599714Y-96194390D01*
X163599714Y-96194390D02*
X163552095Y-96242009D01*
X163552095Y-96242009D02*
X163504476Y-96337247D01*
X140549332Y-133455580D02*
X140501713Y-133503200D01*
X140501713Y-133503200D02*
X140358856Y-133550819D01*
X140358856Y-133550819D02*
X140263618Y-133550819D01*
X140263618Y-133550819D02*
X140120761Y-133503200D01*
X140120761Y-133503200D02*
X140025523Y-133407961D01*
X140025523Y-133407961D02*
X139977904Y-133312723D01*
X139977904Y-133312723D02*
X139930285Y-133122247D01*
X139930285Y-133122247D02*
X139930285Y-132979390D01*
X139930285Y-132979390D02*
X139977904Y-132788914D01*
X139977904Y-132788914D02*
X140025523Y-132693676D01*
X140025523Y-132693676D02*
X140120761Y-132598438D01*
X140120761Y-132598438D02*
X140263618Y-132550819D01*
X140263618Y-132550819D02*
X140358856Y-132550819D01*
X140358856Y-132550819D02*
X140501713Y-132598438D01*
X140501713Y-132598438D02*
X140549332Y-132646057D01*
X141406475Y-132550819D02*
X141215999Y-132550819D01*
X141215999Y-132550819D02*
X141120761Y-132598438D01*
X141120761Y-132598438D02*
X141073142Y-132646057D01*
X141073142Y-132646057D02*
X140977904Y-132788914D01*
X140977904Y-132788914D02*
X140930285Y-132979390D01*
X140930285Y-132979390D02*
X140930285Y-133360342D01*
X140930285Y-133360342D02*
X140977904Y-133455580D01*
X140977904Y-133455580D02*
X141025523Y-133503200D01*
X141025523Y-133503200D02*
X141120761Y-133550819D01*
X141120761Y-133550819D02*
X141311237Y-133550819D01*
X141311237Y-133550819D02*
X141406475Y-133503200D01*
X141406475Y-133503200D02*
X141454094Y-133455580D01*
X141454094Y-133455580D02*
X141501713Y-133360342D01*
X141501713Y-133360342D02*
X141501713Y-133122247D01*
X141501713Y-133122247D02*
X141454094Y-133027009D01*
X141454094Y-133027009D02*
X141406475Y-132979390D01*
X141406475Y-132979390D02*
X141311237Y-132931771D01*
X141311237Y-132931771D02*
X141120761Y-132931771D01*
X141120761Y-132931771D02*
X141025523Y-132979390D01*
X141025523Y-132979390D02*
X140977904Y-133027009D01*
X140977904Y-133027009D02*
X140930285Y-133122247D01*
X170807142Y-80496580D02*
X170759523Y-80544200D01*
X170759523Y-80544200D02*
X170616666Y-80591819D01*
X170616666Y-80591819D02*
X170521428Y-80591819D01*
X170521428Y-80591819D02*
X170378571Y-80544200D01*
X170378571Y-80544200D02*
X170283333Y-80448961D01*
X170283333Y-80448961D02*
X170235714Y-80353723D01*
X170235714Y-80353723D02*
X170188095Y-80163247D01*
X170188095Y-80163247D02*
X170188095Y-80020390D01*
X170188095Y-80020390D02*
X170235714Y-79829914D01*
X170235714Y-79829914D02*
X170283333Y-79734676D01*
X170283333Y-79734676D02*
X170378571Y-79639438D01*
X170378571Y-79639438D02*
X170521428Y-79591819D01*
X170521428Y-79591819D02*
X170616666Y-79591819D01*
X170616666Y-79591819D02*
X170759523Y-79639438D01*
X170759523Y-79639438D02*
X170807142Y-79687057D01*
X171759523Y-80591819D02*
X171188095Y-80591819D01*
X171473809Y-80591819D02*
X171473809Y-79591819D01*
X171473809Y-79591819D02*
X171378571Y-79734676D01*
X171378571Y-79734676D02*
X171283333Y-79829914D01*
X171283333Y-79829914D02*
X171188095Y-79877533D01*
X172711904Y-80591819D02*
X172140476Y-80591819D01*
X172426190Y-80591819D02*
X172426190Y-79591819D01*
X172426190Y-79591819D02*
X172330952Y-79734676D01*
X172330952Y-79734676D02*
X172235714Y-79829914D01*
X172235714Y-79829914D02*
X172140476Y-79877533D01*
X145121333Y-137360819D02*
X144788000Y-136884628D01*
X144549905Y-137360819D02*
X144549905Y-136360819D01*
X144549905Y-136360819D02*
X144930857Y-136360819D01*
X144930857Y-136360819D02*
X145026095Y-136408438D01*
X145026095Y-136408438D02*
X145073714Y-136456057D01*
X145073714Y-136456057D02*
X145121333Y-136551295D01*
X145121333Y-136551295D02*
X145121333Y-136694152D01*
X145121333Y-136694152D02*
X145073714Y-136789390D01*
X145073714Y-136789390D02*
X145026095Y-136837009D01*
X145026095Y-136837009D02*
X144930857Y-136884628D01*
X144930857Y-136884628D02*
X144549905Y-136884628D01*
X145978476Y-136360819D02*
X145788000Y-136360819D01*
X145788000Y-136360819D02*
X145692762Y-136408438D01*
X145692762Y-136408438D02*
X145645143Y-136456057D01*
X145645143Y-136456057D02*
X145549905Y-136598914D01*
X145549905Y-136598914D02*
X145502286Y-136789390D01*
X145502286Y-136789390D02*
X145502286Y-137170342D01*
X145502286Y-137170342D02*
X145549905Y-137265580D01*
X145549905Y-137265580D02*
X145597524Y-137313200D01*
X145597524Y-137313200D02*
X145692762Y-137360819D01*
X145692762Y-137360819D02*
X145883238Y-137360819D01*
X145883238Y-137360819D02*
X145978476Y-137313200D01*
X145978476Y-137313200D02*
X146026095Y-137265580D01*
X146026095Y-137265580D02*
X146073714Y-137170342D01*
X146073714Y-137170342D02*
X146073714Y-136932247D01*
X146073714Y-136932247D02*
X146026095Y-136837009D01*
X146026095Y-136837009D02*
X145978476Y-136789390D01*
X145978476Y-136789390D02*
X145883238Y-136741771D01*
X145883238Y-136741771D02*
X145692762Y-136741771D01*
X145692762Y-136741771D02*
X145597524Y-136789390D01*
X145597524Y-136789390D02*
X145549905Y-136837009D01*
X145549905Y-136837009D02*
X145502286Y-136932247D01*
X133016666Y-74130819D02*
X133016666Y-74845104D01*
X133016666Y-74845104D02*
X132969047Y-74987961D01*
X132969047Y-74987961D02*
X132873809Y-75083200D01*
X132873809Y-75083200D02*
X132730952Y-75130819D01*
X132730952Y-75130819D02*
X132635714Y-75130819D01*
X134016666Y-75130819D02*
X133445238Y-75130819D01*
X133730952Y-75130819D02*
X133730952Y-74130819D01*
X133730952Y-74130819D02*
X133635714Y-74273676D01*
X133635714Y-74273676D02*
X133540476Y-74368914D01*
X133540476Y-74368914D02*
X133445238Y-74416533D01*
G36*
X140690666Y-72299537D02*
G01*
X139207334Y-72299537D01*
X139207334Y-72082819D01*
X139350191Y-72082819D01*
X139367738Y-72131028D01*
X139412167Y-72156680D01*
X139462691Y-72147771D01*
X139495668Y-72108471D01*
X139500191Y-72082819D01*
X139826381Y-72082819D01*
X139843928Y-72131028D01*
X139888357Y-72156680D01*
X139938881Y-72147771D01*
X139971858Y-72108471D01*
X139976381Y-72082819D01*
X139976381Y-71365235D01*
X140407691Y-72120030D01*
X140412984Y-72124511D01*
X140415356Y-72131028D01*
X140432093Y-72140691D01*
X140446844Y-72153181D01*
X140453778Y-72153211D01*
X140459785Y-72156680D01*
X140478818Y-72153323D01*
X140498146Y-72153410D01*
X140503479Y-72148975D01*
X140510309Y-72147771D01*
X140522733Y-72132964D01*
X140537593Y-72120608D01*
X140538827Y-72113784D01*
X140543286Y-72108471D01*
X140547809Y-72082819D01*
X140547809Y-71082819D01*
X140530262Y-71034610D01*
X140485833Y-71008958D01*
X140435309Y-71017867D01*
X140402332Y-71057167D01*
X140397809Y-71082819D01*
X140397809Y-71800402D01*
X139966499Y-71045609D01*
X139961206Y-71041127D01*
X139958834Y-71034610D01*
X139942094Y-71024945D01*
X139927346Y-71012457D01*
X139920411Y-71012426D01*
X139914405Y-71008958D01*
X139895371Y-71012314D01*
X139876044Y-71012228D01*
X139870710Y-71016662D01*
X139863881Y-71017867D01*
X139851456Y-71032673D01*
X139836597Y-71045030D01*
X139835362Y-71051853D01*
X139830904Y-71057167D01*
X139826381Y-71082819D01*
X139826381Y-72082819D01*
X139500191Y-72082819D01*
X139500191Y-71082819D01*
X139482644Y-71034610D01*
X139438215Y-71008958D01*
X139387691Y-71017867D01*
X139354714Y-71057167D01*
X139350191Y-71082819D01*
X139350191Y-72082819D01*
X139207334Y-72082819D01*
X139207334Y-70866101D01*
X140690666Y-70866101D01*
X140690666Y-72299537D01*
G37*
X142859476Y-72082819D02*
X142859476Y-71082819D01*
X142859476Y-71082819D02*
X143430904Y-72082819D01*
X143430904Y-72082819D02*
X143430904Y-71082819D01*
X136953285Y-72082819D02*
X136477095Y-72082819D01*
X136477095Y-72082819D02*
X136477095Y-71082819D01*
X165441333Y-99165580D02*
X165393714Y-99213200D01*
X165393714Y-99213200D02*
X165250857Y-99260819D01*
X165250857Y-99260819D02*
X165155619Y-99260819D01*
X165155619Y-99260819D02*
X165012762Y-99213200D01*
X165012762Y-99213200D02*
X164917524Y-99117961D01*
X164917524Y-99117961D02*
X164869905Y-99022723D01*
X164869905Y-99022723D02*
X164822286Y-98832247D01*
X164822286Y-98832247D02*
X164822286Y-98689390D01*
X164822286Y-98689390D02*
X164869905Y-98498914D01*
X164869905Y-98498914D02*
X164917524Y-98403676D01*
X164917524Y-98403676D02*
X165012762Y-98308438D01*
X165012762Y-98308438D02*
X165155619Y-98260819D01*
X165155619Y-98260819D02*
X165250857Y-98260819D01*
X165250857Y-98260819D02*
X165393714Y-98308438D01*
X165393714Y-98308438D02*
X165441333Y-98356057D01*
X165774667Y-98260819D02*
X166441333Y-98260819D01*
X166441333Y-98260819D02*
X166012762Y-99260819D01*
X162329905Y-75638819D02*
X162329905Y-74638819D01*
X162329905Y-74638819D02*
X162568000Y-74638819D01*
X162568000Y-74638819D02*
X162710857Y-74686438D01*
X162710857Y-74686438D02*
X162806095Y-74781676D01*
X162806095Y-74781676D02*
X162853714Y-74876914D01*
X162853714Y-74876914D02*
X162901333Y-75067390D01*
X162901333Y-75067390D02*
X162901333Y-75210247D01*
X162901333Y-75210247D02*
X162853714Y-75400723D01*
X162853714Y-75400723D02*
X162806095Y-75495961D01*
X162806095Y-75495961D02*
X162710857Y-75591200D01*
X162710857Y-75591200D02*
X162568000Y-75638819D01*
X162568000Y-75638819D02*
X162329905Y-75638819D01*
X163282286Y-74734057D02*
X163329905Y-74686438D01*
X163329905Y-74686438D02*
X163425143Y-74638819D01*
X163425143Y-74638819D02*
X163663238Y-74638819D01*
X163663238Y-74638819D02*
X163758476Y-74686438D01*
X163758476Y-74686438D02*
X163806095Y-74734057D01*
X163806095Y-74734057D02*
X163853714Y-74829295D01*
X163853714Y-74829295D02*
X163853714Y-74924533D01*
X163853714Y-74924533D02*
X163806095Y-75067390D01*
X163806095Y-75067390D02*
X163234667Y-75638819D01*
X163234667Y-75638819D02*
X163853714Y-75638819D01*
X164100143Y-72305104D02*
X164576333Y-72305104D01*
X164004905Y-72590819D02*
X164338238Y-71590819D01*
X164338238Y-71590819D02*
X164671571Y-72590819D01*
X165481095Y-72590819D02*
X165004905Y-72590819D01*
X165004905Y-72590819D02*
X165004905Y-71590819D01*
X165766810Y-72305104D02*
X166243000Y-72305104D01*
X165671572Y-72590819D02*
X166004905Y-71590819D01*
X166004905Y-71590819D02*
X166338238Y-72590819D01*
X167243000Y-72590819D02*
X166909667Y-72114628D01*
X166671572Y-72590819D02*
X166671572Y-71590819D01*
X166671572Y-71590819D02*
X167052524Y-71590819D01*
X167052524Y-71590819D02*
X167147762Y-71638438D01*
X167147762Y-71638438D02*
X167195381Y-71686057D01*
X167195381Y-71686057D02*
X167243000Y-71781295D01*
X167243000Y-71781295D02*
X167243000Y-71924152D01*
X167243000Y-71924152D02*
X167195381Y-72019390D01*
X167195381Y-72019390D02*
X167147762Y-72067009D01*
X167147762Y-72067009D02*
X167052524Y-72114628D01*
X167052524Y-72114628D02*
X166671572Y-72114628D01*
X167671572Y-72590819D02*
X167671572Y-71590819D01*
X167671572Y-71590819D02*
X168004905Y-72305104D01*
X168004905Y-72305104D02*
X168338238Y-71590819D01*
X168338238Y-71590819D02*
X168338238Y-72590819D01*
X171696142Y-81988819D02*
X171362809Y-81512628D01*
X171124714Y-81988819D02*
X171124714Y-80988819D01*
X171124714Y-80988819D02*
X171505666Y-80988819D01*
X171505666Y-80988819D02*
X171600904Y-81036438D01*
X171600904Y-81036438D02*
X171648523Y-81084057D01*
X171648523Y-81084057D02*
X171696142Y-81179295D01*
X171696142Y-81179295D02*
X171696142Y-81322152D01*
X171696142Y-81322152D02*
X171648523Y-81417390D01*
X171648523Y-81417390D02*
X171600904Y-81465009D01*
X171600904Y-81465009D02*
X171505666Y-81512628D01*
X171505666Y-81512628D02*
X171124714Y-81512628D01*
X172648523Y-81988819D02*
X172077095Y-81988819D01*
X172362809Y-81988819D02*
X172362809Y-80988819D01*
X172362809Y-80988819D02*
X172267571Y-81131676D01*
X172267571Y-81131676D02*
X172172333Y-81226914D01*
X172172333Y-81226914D02*
X172077095Y-81274533D01*
X172981857Y-80988819D02*
X173600904Y-80988819D01*
X173600904Y-80988819D02*
X173267571Y-81369771D01*
X173267571Y-81369771D02*
X173410428Y-81369771D01*
X173410428Y-81369771D02*
X173505666Y-81417390D01*
X173505666Y-81417390D02*
X173553285Y-81465009D01*
X173553285Y-81465009D02*
X173600904Y-81560247D01*
X173600904Y-81560247D02*
X173600904Y-81798342D01*
X173600904Y-81798342D02*
X173553285Y-81893580D01*
X173553285Y-81893580D02*
X173505666Y-81941200D01*
X173505666Y-81941200D02*
X173410428Y-81988819D01*
X173410428Y-81988819D02*
X173124714Y-81988819D01*
X173124714Y-81988819D02*
X173029476Y-81941200D01*
X173029476Y-81941200D02*
X172981857Y-81893580D01*
X165152085Y-122376094D02*
X165152085Y-121373338D01*
X165152085Y-121373338D02*
X165534087Y-121373338D01*
X165534087Y-121373338D02*
X165629588Y-121421088D01*
X165629588Y-121421088D02*
X165677338Y-121468838D01*
X165677338Y-121468838D02*
X165725088Y-121564339D01*
X165725088Y-121564339D02*
X165725088Y-121707590D01*
X165725088Y-121707590D02*
X165677338Y-121803090D01*
X165677338Y-121803090D02*
X165629588Y-121850841D01*
X165629588Y-121850841D02*
X165534087Y-121898591D01*
X165534087Y-121898591D02*
X165152085Y-121898591D01*
X166345842Y-121373338D02*
X166536843Y-121373338D01*
X166536843Y-121373338D02*
X166632344Y-121421088D01*
X166632344Y-121421088D02*
X166727844Y-121516589D01*
X166727844Y-121516589D02*
X166775595Y-121707590D01*
X166775595Y-121707590D02*
X166775595Y-122041842D01*
X166775595Y-122041842D02*
X166727844Y-122232843D01*
X166727844Y-122232843D02*
X166632344Y-122328344D01*
X166632344Y-122328344D02*
X166536843Y-122376094D01*
X166536843Y-122376094D02*
X166345842Y-122376094D01*
X166345842Y-122376094D02*
X166250342Y-122328344D01*
X166250342Y-122328344D02*
X166154841Y-122232843D01*
X166154841Y-122232843D02*
X166107091Y-122041842D01*
X166107091Y-122041842D02*
X166107091Y-121707590D01*
X166107091Y-121707590D02*
X166154841Y-121516589D01*
X166154841Y-121516589D02*
X166250342Y-121421088D01*
X166250342Y-121421088D02*
X166345842Y-121373338D01*
X167062096Y-121373338D02*
X167635100Y-121373338D01*
X167348598Y-122376094D02*
X167348598Y-121373338D01*
X168494605Y-122376094D02*
X167921602Y-122376094D01*
X168208103Y-122376094D02*
X168208103Y-121373338D01*
X168208103Y-121373338D02*
X168112603Y-121516589D01*
X168112603Y-121516589D02*
X168017102Y-121612089D01*
X168017102Y-121612089D02*
X167921602Y-121659840D01*
G36*
X162722498Y-129501476D02*
G01*
X158526019Y-129501476D01*
X158526019Y-129283619D01*
X158668876Y-129283619D01*
X158675539Y-129301927D01*
X158678924Y-129321119D01*
X158684108Y-129325469D01*
X158686423Y-129331828D01*
X158703296Y-129341570D01*
X158718224Y-129354096D01*
X158727966Y-129355813D01*
X158730852Y-129357480D01*
X158734134Y-129356901D01*
X158743876Y-129358619D01*
X159220066Y-129358619D01*
X159268275Y-129341072D01*
X159293927Y-129296643D01*
X159291630Y-129283619D01*
X159478400Y-129283619D01*
X159495947Y-129331828D01*
X159540376Y-129357480D01*
X159590900Y-129348571D01*
X159623877Y-129309271D01*
X159628400Y-129283619D01*
X159628400Y-128855047D01*
X159906971Y-128855047D01*
X159908156Y-128858304D01*
X159909210Y-128873237D01*
X159956829Y-129063713D01*
X159958817Y-129066657D01*
X159962508Y-129079064D01*
X160010127Y-129174302D01*
X160011313Y-129175425D01*
X160024176Y-129193794D01*
X160119414Y-129289033D01*
X160123478Y-129290928D01*
X160125825Y-129294748D01*
X160148730Y-129307151D01*
X160291586Y-129354770D01*
X160293221Y-129354725D01*
X160315304Y-129358619D01*
X160410542Y-129358619D01*
X160412080Y-129358058D01*
X160434259Y-129354770D01*
X160577116Y-129307151D01*
X160580627Y-129304363D01*
X160585096Y-129303973D01*
X160606433Y-129289032D01*
X160611846Y-129283619D01*
X160954590Y-129283619D01*
X160972137Y-129331828D01*
X161016566Y-129357480D01*
X161067090Y-129348571D01*
X161100067Y-129309271D01*
X161104590Y-129283619D01*
X161104590Y-128834809D01*
X161526018Y-128834809D01*
X161526018Y-129283619D01*
X161543565Y-129331828D01*
X161587994Y-129357480D01*
X161638518Y-129348571D01*
X161671495Y-129309271D01*
X161676018Y-129283619D01*
X161676018Y-128283619D01*
X161671278Y-128270595D01*
X161860491Y-128270595D01*
X161869400Y-128321119D01*
X161908700Y-128354096D01*
X161934352Y-128358619D01*
X162145066Y-128358619D01*
X162145066Y-129283619D01*
X162162613Y-129331828D01*
X162207042Y-129357480D01*
X162257566Y-129348571D01*
X162290543Y-129309271D01*
X162295066Y-129283619D01*
X162295066Y-128358619D01*
X162505780Y-128358619D01*
X162553989Y-128341072D01*
X162579641Y-128296643D01*
X162570732Y-128246119D01*
X162531432Y-128213142D01*
X162505780Y-128208619D01*
X161934352Y-128208619D01*
X161886143Y-128226166D01*
X161860491Y-128270595D01*
X161671278Y-128270595D01*
X161658471Y-128235410D01*
X161614042Y-128209758D01*
X161563518Y-128218667D01*
X161530541Y-128257967D01*
X161526018Y-128283619D01*
X161526018Y-128684809D01*
X161104590Y-128684809D01*
X161104590Y-128283619D01*
X161087043Y-128235410D01*
X161042614Y-128209758D01*
X160992090Y-128218667D01*
X160959113Y-128257967D01*
X160954590Y-128283619D01*
X160954590Y-129283619D01*
X160611846Y-129283619D01*
X160654051Y-129241413D01*
X160660969Y-129226575D01*
X160671495Y-129214032D01*
X160674338Y-129197904D01*
X160675732Y-129194916D01*
X160675209Y-129192965D01*
X160676018Y-129188380D01*
X160676018Y-128855047D01*
X160669354Y-128836738D01*
X160665970Y-128817547D01*
X160660785Y-128813196D01*
X160658471Y-128806838D01*
X160641597Y-128797095D01*
X160626670Y-128784570D01*
X160616927Y-128782852D01*
X160614042Y-128781186D01*
X160610759Y-128781764D01*
X160601018Y-128780047D01*
X160410542Y-128780047D01*
X160362333Y-128797594D01*
X160336681Y-128842023D01*
X160345590Y-128892547D01*
X160384890Y-128925524D01*
X160410542Y-128930047D01*
X160526018Y-128930047D01*
X160526018Y-129157314D01*
X160512885Y-129170447D01*
X160398372Y-129208619D01*
X160327474Y-129208619D01*
X160212961Y-129170448D01*
X160138848Y-129096334D01*
X160100354Y-129019347D01*
X160056971Y-128845813D01*
X160056971Y-128721424D01*
X160100354Y-128547890D01*
X160138848Y-128470903D01*
X160212961Y-128396790D01*
X160327474Y-128358619D01*
X160440456Y-128358619D01*
X160519858Y-128398320D01*
X160570824Y-128404185D01*
X160613637Y-128375919D01*
X160628264Y-128326744D01*
X160607861Y-128279673D01*
X160586940Y-128264156D01*
X160491702Y-128216537D01*
X160487248Y-128216024D01*
X160483813Y-128213142D01*
X160458161Y-128208619D01*
X160315304Y-128208619D01*
X160313766Y-128209178D01*
X160291586Y-128212468D01*
X160148730Y-128260087D01*
X160145219Y-128262873D01*
X160140751Y-128263264D01*
X160119414Y-128278205D01*
X160024176Y-128373443D01*
X160023485Y-128374924D01*
X160010127Y-128392935D01*
X159962508Y-128488173D01*
X159962101Y-128491701D01*
X159956829Y-128503524D01*
X159909210Y-128694000D01*
X159909570Y-128697448D01*
X159906971Y-128712190D01*
X159906971Y-128855047D01*
X159628400Y-128855047D01*
X159628400Y-128283619D01*
X159610853Y-128235410D01*
X159566424Y-128209758D01*
X159515900Y-128218667D01*
X159482923Y-128257967D01*
X159478400Y-128283619D01*
X159478400Y-129283619D01*
X159291630Y-129283619D01*
X159285018Y-129246119D01*
X159245718Y-129213142D01*
X159220066Y-129208619D01*
X158818876Y-129208619D01*
X158818876Y-128283619D01*
X158801329Y-128235410D01*
X158756900Y-128209758D01*
X158706376Y-128218667D01*
X158673399Y-128257967D01*
X158668876Y-128283619D01*
X158668876Y-129283619D01*
X158526019Y-129283619D01*
X158526019Y-128065762D01*
X162722498Y-128065762D01*
X162722498Y-129501476D01*
G37*
X158447142Y-115675580D02*
X158399523Y-115723200D01*
X158399523Y-115723200D02*
X158256666Y-115770819D01*
X158256666Y-115770819D02*
X158161428Y-115770819D01*
X158161428Y-115770819D02*
X158018571Y-115723200D01*
X158018571Y-115723200D02*
X157923333Y-115627961D01*
X157923333Y-115627961D02*
X157875714Y-115532723D01*
X157875714Y-115532723D02*
X157828095Y-115342247D01*
X157828095Y-115342247D02*
X157828095Y-115199390D01*
X157828095Y-115199390D02*
X157875714Y-115008914D01*
X157875714Y-115008914D02*
X157923333Y-114913676D01*
X157923333Y-114913676D02*
X158018571Y-114818438D01*
X158018571Y-114818438D02*
X158161428Y-114770819D01*
X158161428Y-114770819D02*
X158256666Y-114770819D01*
X158256666Y-114770819D02*
X158399523Y-114818438D01*
X158399523Y-114818438D02*
X158447142Y-114866057D01*
X159399523Y-115770819D02*
X158828095Y-115770819D01*
X159113809Y-115770819D02*
X159113809Y-114770819D01*
X159113809Y-114770819D02*
X159018571Y-114913676D01*
X159018571Y-114913676D02*
X158923333Y-115008914D01*
X158923333Y-115008914D02*
X158828095Y-115056533D01*
X160256666Y-115104152D02*
X160256666Y-115770819D01*
X160018571Y-114723200D02*
X159780476Y-115437485D01*
X159780476Y-115437485D02*
X160399523Y-115437485D01*
X140549332Y-135303580D02*
X140501713Y-135351200D01*
X140501713Y-135351200D02*
X140358856Y-135398819D01*
X140358856Y-135398819D02*
X140263618Y-135398819D01*
X140263618Y-135398819D02*
X140120761Y-135351200D01*
X140120761Y-135351200D02*
X140025523Y-135255961D01*
X140025523Y-135255961D02*
X139977904Y-135160723D01*
X139977904Y-135160723D02*
X139930285Y-134970247D01*
X139930285Y-134970247D02*
X139930285Y-134827390D01*
X139930285Y-134827390D02*
X139977904Y-134636914D01*
X139977904Y-134636914D02*
X140025523Y-134541676D01*
X140025523Y-134541676D02*
X140120761Y-134446438D01*
X140120761Y-134446438D02*
X140263618Y-134398819D01*
X140263618Y-134398819D02*
X140358856Y-134398819D01*
X140358856Y-134398819D02*
X140501713Y-134446438D01*
X140501713Y-134446438D02*
X140549332Y-134494057D01*
X140882666Y-134398819D02*
X141501713Y-134398819D01*
X141501713Y-134398819D02*
X141168380Y-134779771D01*
X141168380Y-134779771D02*
X141311237Y-134779771D01*
X141311237Y-134779771D02*
X141406475Y-134827390D01*
X141406475Y-134827390D02*
X141454094Y-134875009D01*
X141454094Y-134875009D02*
X141501713Y-134970247D01*
X141501713Y-134970247D02*
X141501713Y-135208342D01*
X141501713Y-135208342D02*
X141454094Y-135303580D01*
X141454094Y-135303580D02*
X141406475Y-135351200D01*
X141406475Y-135351200D02*
X141311237Y-135398819D01*
X141311237Y-135398819D02*
X141025523Y-135398819D01*
X141025523Y-135398819D02*
X140930285Y-135351200D01*
X140930285Y-135351200D02*
X140882666Y-135303580D01*
X143255081Y-107912104D02*
X143255081Y-108722705D01*
X143255081Y-108722705D02*
X143302763Y-108818070D01*
X143302763Y-108818070D02*
X143350446Y-108865753D01*
X143350446Y-108865753D02*
X143445810Y-108913435D01*
X143445810Y-108913435D02*
X143636540Y-108913435D01*
X143636540Y-108913435D02*
X143731905Y-108865753D01*
X143731905Y-108865753D02*
X143779587Y-108818070D01*
X143779587Y-108818070D02*
X143827270Y-108722705D01*
X143827270Y-108722705D02*
X143827270Y-107912104D01*
X144447141Y-108341246D02*
X144351776Y-108293563D01*
X144351776Y-108293563D02*
X144304094Y-108245881D01*
X144304094Y-108245881D02*
X144256411Y-108150516D01*
X144256411Y-108150516D02*
X144256411Y-108102834D01*
X144256411Y-108102834D02*
X144304094Y-108007469D01*
X144304094Y-108007469D02*
X144351776Y-107959786D01*
X144351776Y-107959786D02*
X144447141Y-107912104D01*
X144447141Y-107912104D02*
X144637871Y-107912104D01*
X144637871Y-107912104D02*
X144733236Y-107959786D01*
X144733236Y-107959786D02*
X144780918Y-108007469D01*
X144780918Y-108007469D02*
X144828600Y-108102834D01*
X144828600Y-108102834D02*
X144828600Y-108150516D01*
X144828600Y-108150516D02*
X144780918Y-108245881D01*
X144780918Y-108245881D02*
X144733236Y-108293563D01*
X144733236Y-108293563D02*
X144637871Y-108341246D01*
X144637871Y-108341246D02*
X144447141Y-108341246D01*
X144447141Y-108341246D02*
X144351776Y-108388928D01*
X144351776Y-108388928D02*
X144304094Y-108436611D01*
X144304094Y-108436611D02*
X144256411Y-108531976D01*
X144256411Y-108531976D02*
X144256411Y-108722705D01*
X144256411Y-108722705D02*
X144304094Y-108818070D01*
X144304094Y-108818070D02*
X144351776Y-108865753D01*
X144351776Y-108865753D02*
X144447141Y-108913435D01*
X144447141Y-108913435D02*
X144637871Y-108913435D01*
X144637871Y-108913435D02*
X144733236Y-108865753D01*
X144733236Y-108865753D02*
X144780918Y-108818070D01*
X144780918Y-108818070D02*
X144828600Y-108722705D01*
X144828600Y-108722705D02*
X144828600Y-108531976D01*
X144828600Y-108531976D02*
X144780918Y-108436611D01*
X144780918Y-108436611D02*
X144733236Y-108388928D01*
X144733236Y-108388928D02*
X144637871Y-108341246D01*
X158107142Y-81607819D02*
X157773809Y-81131628D01*
X157535714Y-81607819D02*
X157535714Y-80607819D01*
X157535714Y-80607819D02*
X157916666Y-80607819D01*
X157916666Y-80607819D02*
X158011904Y-80655438D01*
X158011904Y-80655438D02*
X158059523Y-80703057D01*
X158059523Y-80703057D02*
X158107142Y-80798295D01*
X158107142Y-80798295D02*
X158107142Y-80941152D01*
X158107142Y-80941152D02*
X158059523Y-81036390D01*
X158059523Y-81036390D02*
X158011904Y-81084009D01*
X158011904Y-81084009D02*
X157916666Y-81131628D01*
X157916666Y-81131628D02*
X157535714Y-81131628D01*
X159059523Y-81607819D02*
X158488095Y-81607819D01*
X158773809Y-81607819D02*
X158773809Y-80607819D01*
X158773809Y-80607819D02*
X158678571Y-80750676D01*
X158678571Y-80750676D02*
X158583333Y-80845914D01*
X158583333Y-80845914D02*
X158488095Y-80893533D01*
X159916666Y-80607819D02*
X159726190Y-80607819D01*
X159726190Y-80607819D02*
X159630952Y-80655438D01*
X159630952Y-80655438D02*
X159583333Y-80703057D01*
X159583333Y-80703057D02*
X159488095Y-80845914D01*
X159488095Y-80845914D02*
X159440476Y-81036390D01*
X159440476Y-81036390D02*
X159440476Y-81417342D01*
X159440476Y-81417342D02*
X159488095Y-81512580D01*
X159488095Y-81512580D02*
X159535714Y-81560200D01*
X159535714Y-81560200D02*
X159630952Y-81607819D01*
X159630952Y-81607819D02*
X159821428Y-81607819D01*
X159821428Y-81607819D02*
X159916666Y-81560200D01*
X159916666Y-81560200D02*
X159964285Y-81512580D01*
X159964285Y-81512580D02*
X160011904Y-81417342D01*
X160011904Y-81417342D02*
X160011904Y-81179247D01*
X160011904Y-81179247D02*
X159964285Y-81084009D01*
X159964285Y-81084009D02*
X159916666Y-81036390D01*
X159916666Y-81036390D02*
X159821428Y-80988771D01*
X159821428Y-80988771D02*
X159630952Y-80988771D01*
X159630952Y-80988771D02*
X159535714Y-81036390D01*
X159535714Y-81036390D02*
X159488095Y-81084009D01*
X159488095Y-81084009D02*
X159440476Y-81179247D01*
X156210095Y-126962819D02*
X156210095Y-127772342D01*
X156210095Y-127772342D02*
X156257714Y-127867580D01*
X156257714Y-127867580D02*
X156305333Y-127915200D01*
X156305333Y-127915200D02*
X156400571Y-127962819D01*
X156400571Y-127962819D02*
X156591047Y-127962819D01*
X156591047Y-127962819D02*
X156686285Y-127915200D01*
X156686285Y-127915200D02*
X156733904Y-127867580D01*
X156733904Y-127867580D02*
X156781523Y-127772342D01*
X156781523Y-127772342D02*
X156781523Y-126962819D01*
X157162476Y-126962819D02*
X157829142Y-126962819D01*
X157829142Y-126962819D02*
X157400571Y-127962819D01*
X166795141Y-96625580D02*
X166747522Y-96673200D01*
X166747522Y-96673200D02*
X166604665Y-96720819D01*
X166604665Y-96720819D02*
X166509427Y-96720819D01*
X166509427Y-96720819D02*
X166366570Y-96673200D01*
X166366570Y-96673200D02*
X166271332Y-96577961D01*
X166271332Y-96577961D02*
X166223713Y-96482723D01*
X166223713Y-96482723D02*
X166176094Y-96292247D01*
X166176094Y-96292247D02*
X166176094Y-96149390D01*
X166176094Y-96149390D02*
X166223713Y-95958914D01*
X166223713Y-95958914D02*
X166271332Y-95863676D01*
X166271332Y-95863676D02*
X166366570Y-95768438D01*
X166366570Y-95768438D02*
X166509427Y-95720819D01*
X166509427Y-95720819D02*
X166604665Y-95720819D01*
X166604665Y-95720819D02*
X166747522Y-95768438D01*
X166747522Y-95768438D02*
X166795141Y-95816057D01*
X167747522Y-96720819D02*
X167176094Y-96720819D01*
X167461808Y-96720819D02*
X167461808Y-95720819D01*
X167461808Y-95720819D02*
X167366570Y-95863676D01*
X167366570Y-95863676D02*
X167271332Y-95958914D01*
X167271332Y-95958914D02*
X167176094Y-96006533D01*
X168652284Y-95720819D02*
X168176094Y-95720819D01*
X168176094Y-95720819D02*
X168128475Y-96197009D01*
X168128475Y-96197009D02*
X168176094Y-96149390D01*
X168176094Y-96149390D02*
X168271332Y-96101771D01*
X168271332Y-96101771D02*
X168509427Y-96101771D01*
X168509427Y-96101771D02*
X168604665Y-96149390D01*
X168604665Y-96149390D02*
X168652284Y-96197009D01*
X168652284Y-96197009D02*
X168699903Y-96292247D01*
X168699903Y-96292247D02*
X168699903Y-96530342D01*
X168699903Y-96530342D02*
X168652284Y-96625580D01*
X168652284Y-96625580D02*
X168604665Y-96673200D01*
X168604665Y-96673200D02*
X168509427Y-96720819D01*
X168509427Y-96720819D02*
X168271332Y-96720819D01*
X168271332Y-96720819D02*
X168176094Y-96673200D01*
X168176094Y-96673200D02*
X168128475Y-96625580D01*
X116419333Y-110182819D02*
X116086000Y-109706628D01*
X115847905Y-110182819D02*
X115847905Y-109182819D01*
X115847905Y-109182819D02*
X116228857Y-109182819D01*
X116228857Y-109182819D02*
X116324095Y-109230438D01*
X116324095Y-109230438D02*
X116371714Y-109278057D01*
X116371714Y-109278057D02*
X116419333Y-109373295D01*
X116419333Y-109373295D02*
X116419333Y-109516152D01*
X116419333Y-109516152D02*
X116371714Y-109611390D01*
X116371714Y-109611390D02*
X116324095Y-109659009D01*
X116324095Y-109659009D02*
X116228857Y-109706628D01*
X116228857Y-109706628D02*
X115847905Y-109706628D01*
X117276476Y-109516152D02*
X117276476Y-110182819D01*
X117038381Y-109135200D02*
X116800286Y-109849485D01*
X116800286Y-109849485D02*
X117419333Y-109849485D01*
X170172142Y-83766819D02*
X169838809Y-83290628D01*
X169600714Y-83766819D02*
X169600714Y-82766819D01*
X169600714Y-82766819D02*
X169981666Y-82766819D01*
X169981666Y-82766819D02*
X170076904Y-82814438D01*
X170076904Y-82814438D02*
X170124523Y-82862057D01*
X170124523Y-82862057D02*
X170172142Y-82957295D01*
X170172142Y-82957295D02*
X170172142Y-83100152D01*
X170172142Y-83100152D02*
X170124523Y-83195390D01*
X170124523Y-83195390D02*
X170076904Y-83243009D01*
X170076904Y-83243009D02*
X169981666Y-83290628D01*
X169981666Y-83290628D02*
X169600714Y-83290628D01*
X171124523Y-83766819D02*
X170553095Y-83766819D01*
X170838809Y-83766819D02*
X170838809Y-82766819D01*
X170838809Y-82766819D02*
X170743571Y-82909676D01*
X170743571Y-82909676D02*
X170648333Y-83004914D01*
X170648333Y-83004914D02*
X170553095Y-83052533D01*
X171457857Y-82766819D02*
X172124523Y-82766819D01*
X172124523Y-82766819D02*
X171695952Y-83766819D01*
X140549332Y-127048580D02*
X140501713Y-127096200D01*
X140501713Y-127096200D02*
X140358856Y-127143819D01*
X140358856Y-127143819D02*
X140263618Y-127143819D01*
X140263618Y-127143819D02*
X140120761Y-127096200D01*
X140120761Y-127096200D02*
X140025523Y-127000961D01*
X140025523Y-127000961D02*
X139977904Y-126905723D01*
X139977904Y-126905723D02*
X139930285Y-126715247D01*
X139930285Y-126715247D02*
X139930285Y-126572390D01*
X139930285Y-126572390D02*
X139977904Y-126381914D01*
X139977904Y-126381914D02*
X140025523Y-126286676D01*
X140025523Y-126286676D02*
X140120761Y-126191438D01*
X140120761Y-126191438D02*
X140263618Y-126143819D01*
X140263618Y-126143819D02*
X140358856Y-126143819D01*
X140358856Y-126143819D02*
X140501713Y-126191438D01*
X140501713Y-126191438D02*
X140549332Y-126239057D01*
X141454094Y-126143819D02*
X140977904Y-126143819D01*
X140977904Y-126143819D02*
X140930285Y-126620009D01*
X140930285Y-126620009D02*
X140977904Y-126572390D01*
X140977904Y-126572390D02*
X141073142Y-126524771D01*
X141073142Y-126524771D02*
X141311237Y-126524771D01*
X141311237Y-126524771D02*
X141406475Y-126572390D01*
X141406475Y-126572390D02*
X141454094Y-126620009D01*
X141454094Y-126620009D02*
X141501713Y-126715247D01*
X141501713Y-126715247D02*
X141501713Y-126953342D01*
X141501713Y-126953342D02*
X141454094Y-127048580D01*
X141454094Y-127048580D02*
X141406475Y-127096200D01*
X141406475Y-127096200D02*
X141311237Y-127143819D01*
X141311237Y-127143819D02*
X141073142Y-127143819D01*
X141073142Y-127143819D02*
X140977904Y-127096200D01*
X140977904Y-127096200D02*
X140930285Y-127048580D01*
X128778095Y-135598819D02*
X128778095Y-136408342D01*
X128778095Y-136408342D02*
X128825714Y-136503580D01*
X128825714Y-136503580D02*
X128873333Y-136551200D01*
X128873333Y-136551200D02*
X128968571Y-136598819D01*
X128968571Y-136598819D02*
X129159047Y-136598819D01*
X129159047Y-136598819D02*
X129254285Y-136551200D01*
X129254285Y-136551200D02*
X129301904Y-136503580D01*
X129301904Y-136503580D02*
X129349523Y-136408342D01*
X129349523Y-136408342D02*
X129349523Y-135598819D01*
X130349523Y-136598819D02*
X129778095Y-136598819D01*
X130063809Y-136598819D02*
X130063809Y-135598819D01*
X130063809Y-135598819D02*
X129968571Y-135741676D01*
X129968571Y-135741676D02*
X129873333Y-135836914D01*
X129873333Y-135836914D02*
X129778095Y-135884533D01*
X115847905Y-107642819D02*
X115847905Y-106642819D01*
X115847905Y-106642819D02*
X116086000Y-106642819D01*
X116086000Y-106642819D02*
X116228857Y-106690438D01*
X116228857Y-106690438D02*
X116324095Y-106785676D01*
X116324095Y-106785676D02*
X116371714Y-106880914D01*
X116371714Y-106880914D02*
X116419333Y-107071390D01*
X116419333Y-107071390D02*
X116419333Y-107214247D01*
X116419333Y-107214247D02*
X116371714Y-107404723D01*
X116371714Y-107404723D02*
X116324095Y-107499961D01*
X116324095Y-107499961D02*
X116228857Y-107595200D01*
X116228857Y-107595200D02*
X116086000Y-107642819D01*
X116086000Y-107642819D02*
X115847905Y-107642819D01*
X117371714Y-107642819D02*
X116800286Y-107642819D01*
X117086000Y-107642819D02*
X117086000Y-106642819D01*
X117086000Y-106642819D02*
X116990762Y-106785676D01*
X116990762Y-106785676D02*
X116895524Y-106880914D01*
X116895524Y-106880914D02*
X116800286Y-106928533D01*
X112687167Y-106118819D02*
X112687167Y-105118819D01*
X112687167Y-105118819D02*
X113068119Y-105118819D01*
X113068119Y-105118819D02*
X113163357Y-105166438D01*
X113163357Y-105166438D02*
X113210976Y-105214057D01*
X113210976Y-105214057D02*
X113258595Y-105309295D01*
X113258595Y-105309295D02*
X113258595Y-105452152D01*
X113258595Y-105452152D02*
X113210976Y-105547390D01*
X113210976Y-105547390D02*
X113163357Y-105595009D01*
X113163357Y-105595009D02*
X113068119Y-105642628D01*
X113068119Y-105642628D02*
X112687167Y-105642628D01*
X113591929Y-105118819D02*
X113830024Y-106118819D01*
X113830024Y-106118819D02*
X114020500Y-105404533D01*
X114020500Y-105404533D02*
X114210976Y-106118819D01*
X114210976Y-106118819D02*
X114449072Y-105118819D01*
X115401452Y-106118819D02*
X115068119Y-105642628D01*
X114830024Y-106118819D02*
X114830024Y-105118819D01*
X114830024Y-105118819D02*
X115210976Y-105118819D01*
X115210976Y-105118819D02*
X115306214Y-105166438D01*
X115306214Y-105166438D02*
X115353833Y-105214057D01*
X115353833Y-105214057D02*
X115401452Y-105309295D01*
X115401452Y-105309295D02*
X115401452Y-105452152D01*
X115401452Y-105452152D02*
X115353833Y-105547390D01*
X115353833Y-105547390D02*
X115306214Y-105595009D01*
X115306214Y-105595009D02*
X115210976Y-105642628D01*
X115210976Y-105642628D02*
X114830024Y-105642628D01*
X117435333Y-87227580D02*
X117387714Y-87275200D01*
X117387714Y-87275200D02*
X117244857Y-87322819D01*
X117244857Y-87322819D02*
X117149619Y-87322819D01*
X117149619Y-87322819D02*
X117006762Y-87275200D01*
X117006762Y-87275200D02*
X116911524Y-87179961D01*
X116911524Y-87179961D02*
X116863905Y-87084723D01*
X116863905Y-87084723D02*
X116816286Y-86894247D01*
X116816286Y-86894247D02*
X116816286Y-86751390D01*
X116816286Y-86751390D02*
X116863905Y-86560914D01*
X116863905Y-86560914D02*
X116911524Y-86465676D01*
X116911524Y-86465676D02*
X117006762Y-86370438D01*
X117006762Y-86370438D02*
X117149619Y-86322819D01*
X117149619Y-86322819D02*
X117244857Y-86322819D01*
X117244857Y-86322819D02*
X117387714Y-86370438D01*
X117387714Y-86370438D02*
X117435333Y-86418057D01*
X118387714Y-87322819D02*
X117816286Y-87322819D01*
X118102000Y-87322819D02*
X118102000Y-86322819D01*
X118102000Y-86322819D02*
X118006762Y-86465676D01*
X118006762Y-86465676D02*
X117911524Y-86560914D01*
X117911524Y-86560914D02*
X117816286Y-86608533D01*
X122849333Y-135487580D02*
X122801714Y-135535200D01*
X122801714Y-135535200D02*
X122658857Y-135582819D01*
X122658857Y-135582819D02*
X122563619Y-135582819D01*
X122563619Y-135582819D02*
X122420762Y-135535200D01*
X122420762Y-135535200D02*
X122325524Y-135439961D01*
X122325524Y-135439961D02*
X122277905Y-135344723D01*
X122277905Y-135344723D02*
X122230286Y-135154247D01*
X122230286Y-135154247D02*
X122230286Y-135011390D01*
X122230286Y-135011390D02*
X122277905Y-134820914D01*
X122277905Y-134820914D02*
X122325524Y-134725676D01*
X122325524Y-134725676D02*
X122420762Y-134630438D01*
X122420762Y-134630438D02*
X122563619Y-134582819D01*
X122563619Y-134582819D02*
X122658857Y-134582819D01*
X122658857Y-134582819D02*
X122801714Y-134630438D01*
X122801714Y-134630438D02*
X122849333Y-134678057D01*
X123230286Y-134678057D02*
X123277905Y-134630438D01*
X123277905Y-134630438D02*
X123373143Y-134582819D01*
X123373143Y-134582819D02*
X123611238Y-134582819D01*
X123611238Y-134582819D02*
X123706476Y-134630438D01*
X123706476Y-134630438D02*
X123754095Y-134678057D01*
X123754095Y-134678057D02*
X123801714Y-134773295D01*
X123801714Y-134773295D02*
X123801714Y-134868533D01*
X123801714Y-134868533D02*
X123754095Y-135011390D01*
X123754095Y-135011390D02*
X123182667Y-135582819D01*
X123182667Y-135582819D02*
X123801714Y-135582819D01*
X180260837Y-96687819D02*
X179927504Y-96211628D01*
X179689409Y-96687819D02*
X179689409Y-95687819D01*
X179689409Y-95687819D02*
X180070361Y-95687819D01*
X180070361Y-95687819D02*
X180165599Y-95735438D01*
X180165599Y-95735438D02*
X180213218Y-95783057D01*
X180213218Y-95783057D02*
X180260837Y-95878295D01*
X180260837Y-95878295D02*
X180260837Y-96021152D01*
X180260837Y-96021152D02*
X180213218Y-96116390D01*
X180213218Y-96116390D02*
X180165599Y-96164009D01*
X180165599Y-96164009D02*
X180070361Y-96211628D01*
X180070361Y-96211628D02*
X179689409Y-96211628D01*
X180641790Y-95783057D02*
X180689409Y-95735438D01*
X180689409Y-95735438D02*
X180784647Y-95687819D01*
X180784647Y-95687819D02*
X181022742Y-95687819D01*
X181022742Y-95687819D02*
X181117980Y-95735438D01*
X181117980Y-95735438D02*
X181165599Y-95783057D01*
X181165599Y-95783057D02*
X181213218Y-95878295D01*
X181213218Y-95878295D02*
X181213218Y-95973533D01*
X181213218Y-95973533D02*
X181165599Y-96116390D01*
X181165599Y-96116390D02*
X180594171Y-96687819D01*
X180594171Y-96687819D02*
X181213218Y-96687819D01*
X162647333Y-78689819D02*
X162314000Y-78213628D01*
X162075905Y-78689819D02*
X162075905Y-77689819D01*
X162075905Y-77689819D02*
X162456857Y-77689819D01*
X162456857Y-77689819D02*
X162552095Y-77737438D01*
X162552095Y-77737438D02*
X162599714Y-77785057D01*
X162599714Y-77785057D02*
X162647333Y-77880295D01*
X162647333Y-77880295D02*
X162647333Y-78023152D01*
X162647333Y-78023152D02*
X162599714Y-78118390D01*
X162599714Y-78118390D02*
X162552095Y-78166009D01*
X162552095Y-78166009D02*
X162456857Y-78213628D01*
X162456857Y-78213628D02*
X162075905Y-78213628D01*
X162980667Y-77689819D02*
X163647333Y-77689819D01*
X163647333Y-77689819D02*
X163218762Y-78689819D01*
X150455333Y-80972819D02*
X150122000Y-80496628D01*
X149883905Y-80972819D02*
X149883905Y-79972819D01*
X149883905Y-79972819D02*
X150264857Y-79972819D01*
X150264857Y-79972819D02*
X150360095Y-80020438D01*
X150360095Y-80020438D02*
X150407714Y-80068057D01*
X150407714Y-80068057D02*
X150455333Y-80163295D01*
X150455333Y-80163295D02*
X150455333Y-80306152D01*
X150455333Y-80306152D02*
X150407714Y-80401390D01*
X150407714Y-80401390D02*
X150360095Y-80449009D01*
X150360095Y-80449009D02*
X150264857Y-80496628D01*
X150264857Y-80496628D02*
X149883905Y-80496628D01*
X151026762Y-80401390D02*
X150931524Y-80353771D01*
X150931524Y-80353771D02*
X150883905Y-80306152D01*
X150883905Y-80306152D02*
X150836286Y-80210914D01*
X150836286Y-80210914D02*
X150836286Y-80163295D01*
X150836286Y-80163295D02*
X150883905Y-80068057D01*
X150883905Y-80068057D02*
X150931524Y-80020438D01*
X150931524Y-80020438D02*
X151026762Y-79972819D01*
X151026762Y-79972819D02*
X151217238Y-79972819D01*
X151217238Y-79972819D02*
X151312476Y-80020438D01*
X151312476Y-80020438D02*
X151360095Y-80068057D01*
X151360095Y-80068057D02*
X151407714Y-80163295D01*
X151407714Y-80163295D02*
X151407714Y-80210914D01*
X151407714Y-80210914D02*
X151360095Y-80306152D01*
X151360095Y-80306152D02*
X151312476Y-80353771D01*
X151312476Y-80353771D02*
X151217238Y-80401390D01*
X151217238Y-80401390D02*
X151026762Y-80401390D01*
X151026762Y-80401390D02*
X150931524Y-80449009D01*
X150931524Y-80449009D02*
X150883905Y-80496628D01*
X150883905Y-80496628D02*
X150836286Y-80591866D01*
X150836286Y-80591866D02*
X150836286Y-80782342D01*
X150836286Y-80782342D02*
X150883905Y-80877580D01*
X150883905Y-80877580D02*
X150931524Y-80925200D01*
X150931524Y-80925200D02*
X151026762Y-80972819D01*
X151026762Y-80972819D02*
X151217238Y-80972819D01*
X151217238Y-80972819D02*
X151312476Y-80925200D01*
X151312476Y-80925200D02*
X151360095Y-80877580D01*
X151360095Y-80877580D02*
X151407714Y-80782342D01*
X151407714Y-80782342D02*
X151407714Y-80591866D01*
X151407714Y-80591866D02*
X151360095Y-80496628D01*
X151360095Y-80496628D02*
X151312476Y-80449009D01*
X151312476Y-80449009D02*
X151217238Y-80401390D01*
X171981905Y-141297819D02*
X171981905Y-140297819D01*
X171981905Y-140297819D02*
X172220000Y-140297819D01*
X172220000Y-140297819D02*
X172362857Y-140345438D01*
X172362857Y-140345438D02*
X172458095Y-140440676D01*
X172458095Y-140440676D02*
X172505714Y-140535914D01*
X172505714Y-140535914D02*
X172553333Y-140726390D01*
X172553333Y-140726390D02*
X172553333Y-140869247D01*
X172553333Y-140869247D02*
X172505714Y-141059723D01*
X172505714Y-141059723D02*
X172458095Y-141154961D01*
X172458095Y-141154961D02*
X172362857Y-141250200D01*
X172362857Y-141250200D02*
X172220000Y-141297819D01*
X172220000Y-141297819D02*
X171981905Y-141297819D01*
X173458095Y-140297819D02*
X172981905Y-140297819D01*
X172981905Y-140297819D02*
X172934286Y-140774009D01*
X172934286Y-140774009D02*
X172981905Y-140726390D01*
X172981905Y-140726390D02*
X173077143Y-140678771D01*
X173077143Y-140678771D02*
X173315238Y-140678771D01*
X173315238Y-140678771D02*
X173410476Y-140726390D01*
X173410476Y-140726390D02*
X173458095Y-140774009D01*
X173458095Y-140774009D02*
X173505714Y-140869247D01*
X173505714Y-140869247D02*
X173505714Y-141107342D01*
X173505714Y-141107342D02*
X173458095Y-141202580D01*
X173458095Y-141202580D02*
X173410476Y-141250200D01*
X173410476Y-141250200D02*
X173315238Y-141297819D01*
X173315238Y-141297819D02*
X173077143Y-141297819D01*
X173077143Y-141297819D02*
X172981905Y-141250200D01*
X172981905Y-141250200D02*
X172934286Y-141202580D01*
X170553142Y-98244819D02*
X170219809Y-97768628D01*
X169981714Y-98244819D02*
X169981714Y-97244819D01*
X169981714Y-97244819D02*
X170362666Y-97244819D01*
X170362666Y-97244819D02*
X170457904Y-97292438D01*
X170457904Y-97292438D02*
X170505523Y-97340057D01*
X170505523Y-97340057D02*
X170553142Y-97435295D01*
X170553142Y-97435295D02*
X170553142Y-97578152D01*
X170553142Y-97578152D02*
X170505523Y-97673390D01*
X170505523Y-97673390D02*
X170457904Y-97721009D01*
X170457904Y-97721009D02*
X170362666Y-97768628D01*
X170362666Y-97768628D02*
X169981714Y-97768628D01*
X171505523Y-98244819D02*
X170934095Y-98244819D01*
X171219809Y-98244819D02*
X171219809Y-97244819D01*
X171219809Y-97244819D02*
X171124571Y-97387676D01*
X171124571Y-97387676D02*
X171029333Y-97482914D01*
X171029333Y-97482914D02*
X170934095Y-97530533D01*
X171886476Y-97340057D02*
X171934095Y-97292438D01*
X171934095Y-97292438D02*
X172029333Y-97244819D01*
X172029333Y-97244819D02*
X172267428Y-97244819D01*
X172267428Y-97244819D02*
X172362666Y-97292438D01*
X172362666Y-97292438D02*
X172410285Y-97340057D01*
X172410285Y-97340057D02*
X172457904Y-97435295D01*
X172457904Y-97435295D02*
X172457904Y-97530533D01*
X172457904Y-97530533D02*
X172410285Y-97673390D01*
X172410285Y-97673390D02*
X171838857Y-98244819D01*
X171838857Y-98244819D02*
X172457904Y-98244819D01*
X176260834Y-96687820D02*
X175927501Y-96211629D01*
X175689406Y-96687820D02*
X175689406Y-95687820D01*
X175689406Y-95687820D02*
X176070358Y-95687820D01*
X176070358Y-95687820D02*
X176165596Y-95735439D01*
X176165596Y-95735439D02*
X176213215Y-95783058D01*
X176213215Y-95783058D02*
X176260834Y-95878296D01*
X176260834Y-95878296D02*
X176260834Y-96021153D01*
X176260834Y-96021153D02*
X176213215Y-96116391D01*
X176213215Y-96116391D02*
X176165596Y-96164010D01*
X176165596Y-96164010D02*
X176070358Y-96211629D01*
X176070358Y-96211629D02*
X175689406Y-96211629D01*
X177213215Y-96687820D02*
X176641787Y-96687820D01*
X176927501Y-96687820D02*
X176927501Y-95687820D01*
X176927501Y-95687820D02*
X176832263Y-95830677D01*
X176832263Y-95830677D02*
X176737025Y-95925915D01*
X176737025Y-95925915D02*
X176641787Y-95973534D01*
X159175819Y-90762904D02*
X159985342Y-90762904D01*
X159985342Y-90762904D02*
X160080580Y-90715285D01*
X160080580Y-90715285D02*
X160128200Y-90667666D01*
X160128200Y-90667666D02*
X160175819Y-90572428D01*
X160175819Y-90572428D02*
X160175819Y-90381952D01*
X160175819Y-90381952D02*
X160128200Y-90286714D01*
X160128200Y-90286714D02*
X160080580Y-90239095D01*
X160080580Y-90239095D02*
X159985342Y-90191476D01*
X159985342Y-90191476D02*
X159175819Y-90191476D01*
X160175819Y-89667666D02*
X160175819Y-89477190D01*
X160175819Y-89477190D02*
X160128200Y-89381952D01*
X160128200Y-89381952D02*
X160080580Y-89334333D01*
X160080580Y-89334333D02*
X159937723Y-89239095D01*
X159937723Y-89239095D02*
X159747247Y-89191476D01*
X159747247Y-89191476D02*
X159366295Y-89191476D01*
X159366295Y-89191476D02*
X159271057Y-89239095D01*
X159271057Y-89239095D02*
X159223438Y-89286714D01*
X159223438Y-89286714D02*
X159175819Y-89381952D01*
X159175819Y-89381952D02*
X159175819Y-89572428D01*
X159175819Y-89572428D02*
X159223438Y-89667666D01*
X159223438Y-89667666D02*
X159271057Y-89715285D01*
X159271057Y-89715285D02*
X159366295Y-89762904D01*
X159366295Y-89762904D02*
X159604390Y-89762904D01*
X159604390Y-89762904D02*
X159699628Y-89715285D01*
X159699628Y-89715285D02*
X159747247Y-89667666D01*
X159747247Y-89667666D02*
X159794866Y-89572428D01*
X159794866Y-89572428D02*
X159794866Y-89381952D01*
X159794866Y-89381952D02*
X159747247Y-89286714D01*
X159747247Y-89286714D02*
X159699628Y-89239095D01*
X159699628Y-89239095D02*
X159604390Y-89191476D01*
X178433405Y-127454819D02*
X178433405Y-126454819D01*
X178433405Y-126454819D02*
X178671500Y-126454819D01*
X178671500Y-126454819D02*
X178814357Y-126502438D01*
X178814357Y-126502438D02*
X178909595Y-126597676D01*
X178909595Y-126597676D02*
X178957214Y-126692914D01*
X178957214Y-126692914D02*
X179004833Y-126883390D01*
X179004833Y-126883390D02*
X179004833Y-127026247D01*
X179004833Y-127026247D02*
X178957214Y-127216723D01*
X178957214Y-127216723D02*
X178909595Y-127311961D01*
X178909595Y-127311961D02*
X178814357Y-127407200D01*
X178814357Y-127407200D02*
X178671500Y-127454819D01*
X178671500Y-127454819D02*
X178433405Y-127454819D01*
X179861976Y-126788152D02*
X179861976Y-127454819D01*
X179623881Y-126407200D02*
X179385786Y-127121485D01*
X179385786Y-127121485D02*
X180004833Y-127121485D01*
X140382666Y-143980819D02*
X140382666Y-144695104D01*
X140382666Y-144695104D02*
X140335047Y-144837961D01*
X140335047Y-144837961D02*
X140239809Y-144933200D01*
X140239809Y-144933200D02*
X140096952Y-144980819D01*
X140096952Y-144980819D02*
X140001714Y-144980819D01*
X140811238Y-144076057D02*
X140858857Y-144028438D01*
X140858857Y-144028438D02*
X140954095Y-143980819D01*
X140954095Y-143980819D02*
X141192190Y-143980819D01*
X141192190Y-143980819D02*
X141287428Y-144028438D01*
X141287428Y-144028438D02*
X141335047Y-144076057D01*
X141335047Y-144076057D02*
X141382666Y-144171295D01*
X141382666Y-144171295D02*
X141382666Y-144266533D01*
X141382666Y-144266533D02*
X141335047Y-144409390D01*
X141335047Y-144409390D02*
X140763619Y-144980819D01*
X140763619Y-144980819D02*
X141382666Y-144980819D01*
X158218476Y-144933200D02*
X158361333Y-144980819D01*
X158361333Y-144980819D02*
X158599428Y-144980819D01*
X158599428Y-144980819D02*
X158694666Y-144933200D01*
X158694666Y-144933200D02*
X158742285Y-144885580D01*
X158742285Y-144885580D02*
X158789904Y-144790342D01*
X158789904Y-144790342D02*
X158789904Y-144695104D01*
X158789904Y-144695104D02*
X158742285Y-144599866D01*
X158742285Y-144599866D02*
X158694666Y-144552247D01*
X158694666Y-144552247D02*
X158599428Y-144504628D01*
X158599428Y-144504628D02*
X158408952Y-144457009D01*
X158408952Y-144457009D02*
X158313714Y-144409390D01*
X158313714Y-144409390D02*
X158266095Y-144361771D01*
X158266095Y-144361771D02*
X158218476Y-144266533D01*
X158218476Y-144266533D02*
X158218476Y-144171295D01*
X158218476Y-144171295D02*
X158266095Y-144076057D01*
X158266095Y-144076057D02*
X158313714Y-144028438D01*
X158313714Y-144028438D02*
X158408952Y-143980819D01*
X158408952Y-143980819D02*
X158647047Y-143980819D01*
X158647047Y-143980819D02*
X158789904Y-144028438D01*
X159218476Y-144457009D02*
X159551809Y-144457009D01*
X159694666Y-144980819D02*
X159218476Y-144980819D01*
X159218476Y-144980819D02*
X159218476Y-143980819D01*
X159218476Y-143980819D02*
X159694666Y-143980819D01*
X160694666Y-144980819D02*
X160361333Y-144504628D01*
X160123238Y-144980819D02*
X160123238Y-143980819D01*
X160123238Y-143980819D02*
X160504190Y-143980819D01*
X160504190Y-143980819D02*
X160599428Y-144028438D01*
X160599428Y-144028438D02*
X160647047Y-144076057D01*
X160647047Y-144076057D02*
X160694666Y-144171295D01*
X160694666Y-144171295D02*
X160694666Y-144314152D01*
X160694666Y-144314152D02*
X160647047Y-144409390D01*
X160647047Y-144409390D02*
X160599428Y-144457009D01*
X160599428Y-144457009D02*
X160504190Y-144504628D01*
X160504190Y-144504628D02*
X160123238Y-144504628D01*
X161123238Y-144980819D02*
X161123238Y-143980819D01*
X161551809Y-144695104D02*
X162027999Y-144695104D01*
X161456571Y-144980819D02*
X161789904Y-143980819D01*
X161789904Y-143980819D02*
X162123237Y-144980819D01*
X162932761Y-144980819D02*
X162456571Y-144980819D01*
X162456571Y-144980819D02*
X162456571Y-143980819D01*
X121348667Y-80925200D02*
X121491524Y-80972819D01*
X121491524Y-80972819D02*
X121729619Y-80972819D01*
X121729619Y-80972819D02*
X121824857Y-80925200D01*
X121824857Y-80925200D02*
X121872476Y-80877580D01*
X121872476Y-80877580D02*
X121920095Y-80782342D01*
X121920095Y-80782342D02*
X121920095Y-80687104D01*
X121920095Y-80687104D02*
X121872476Y-80591866D01*
X121872476Y-80591866D02*
X121824857Y-80544247D01*
X121824857Y-80544247D02*
X121729619Y-80496628D01*
X121729619Y-80496628D02*
X121539143Y-80449009D01*
X121539143Y-80449009D02*
X121443905Y-80401390D01*
X121443905Y-80401390D02*
X121396286Y-80353771D01*
X121396286Y-80353771D02*
X121348667Y-80258533D01*
X121348667Y-80258533D02*
X121348667Y-80163295D01*
X121348667Y-80163295D02*
X121396286Y-80068057D01*
X121396286Y-80068057D02*
X121443905Y-80020438D01*
X121443905Y-80020438D02*
X121539143Y-79972819D01*
X121539143Y-79972819D02*
X121777238Y-79972819D01*
X121777238Y-79972819D02*
X121920095Y-80020438D01*
X122253429Y-79972819D02*
X122491524Y-80972819D01*
X122491524Y-80972819D02*
X122682000Y-80258533D01*
X122682000Y-80258533D02*
X122872476Y-80972819D01*
X122872476Y-80972819D02*
X123110572Y-79972819D01*
X124015333Y-80972819D02*
X123443905Y-80972819D01*
X123729619Y-80972819D02*
X123729619Y-79972819D01*
X123729619Y-79972819D02*
X123634381Y-80115676D01*
X123634381Y-80115676D02*
X123539143Y-80210914D01*
X123539143Y-80210914D02*
X123443905Y-80258533D01*
D14*
X170194500Y-74501742D02*
X170194500Y-74976258D01*
X169149500Y-74501742D02*
X169149500Y-74976258D01*
X165370742Y-80630500D02*
X165845258Y-80630500D01*
X165370742Y-81675500D02*
X165845258Y-81675500D01*
X161126258Y-123897500D02*
X160651742Y-123897500D01*
X161126258Y-122852500D02*
X160651742Y-122852500D01*
X138325999Y-138709000D02*
X138325999Y-140579000D01*
X138325999Y-140579000D02*
X142235999Y-140579000D01*
X142235999Y-138709000D02*
X138325999Y-138709000D01*
X173230000Y-95395420D02*
X173230000Y-95676580D01*
X172210000Y-95395420D02*
X172210000Y-95676580D01*
X151410000Y-140453000D02*
X148360000Y-140453000D01*
X151410000Y-136153000D02*
X148360000Y-136153000D01*
X151388234Y-140468525D02*
G75*
G03*
X151410000Y-136153001I-1528234J2165525D01*
G01*
X148315487Y-136184751D02*
G75*
G03*
X148360000Y-140453000I1544513J-2118249D01*
G01*
X154412000Y-74930000D02*
X154412000Y-78380000D01*
X154412000Y-74930000D02*
X154412000Y-72980000D01*
X159532000Y-74930000D02*
X159532000Y-76880000D01*
X159532000Y-74930000D02*
X159532000Y-72980000D01*
X137196000Y-134474000D02*
X131186000Y-134474000D01*
X134946000Y-127654000D02*
X131186000Y-127654000D01*
X131186000Y-134474000D02*
X131186000Y-133214000D01*
X131186000Y-127654000D02*
X131186000Y-128914000D01*
D15*
X166393500Y-100442000D02*
X165631500Y-100442000D01*
X165631500Y-100442000D02*
X165631500Y-116444000D01*
X165631500Y-116444000D02*
X166393500Y-116444000D01*
D16*
X170944000Y-122895001D02*
X177544000Y-122895001D01*
X170944000Y-125060001D02*
X170944000Y-122895001D01*
X170944000Y-129885001D02*
X170944000Y-127600001D01*
X177544000Y-122895001D02*
X177544000Y-125060001D01*
X177544000Y-127600001D02*
X177544000Y-129885001D01*
X177544000Y-129895001D02*
X170944000Y-129895001D01*
D13*
X170280000Y-126365001D02*
G75*
G03*
X170280000Y-126365001I-100000J0D01*
G01*
D14*
X153222004Y-78044421D02*
X153222004Y-78325581D01*
X152202004Y-78044421D02*
X152202004Y-78325581D01*
X150284506Y-75107258D02*
X150284506Y-74632742D01*
X151329506Y-75107258D02*
X151329506Y-74632742D01*
X159485000Y-92583000D02*
G75*
G03*
X159485000Y-92583000I-9625000J0D01*
G01*
X183656000Y-87122000D02*
G75*
G03*
X183656000Y-87122000I-6100000J0D01*
G01*
X159424000Y-124741000D02*
X159424000Y-126211000D01*
X159424000Y-126211000D02*
X161709000Y-126211000D01*
X161709000Y-124741000D02*
X159424000Y-124741000D01*
X153234504Y-74632742D02*
X153234504Y-75107258D01*
X152189504Y-74632742D02*
X152189504Y-75107258D01*
X168664762Y-119775500D02*
X168190246Y-119775500D01*
X168664762Y-118730500D02*
X168190246Y-118730500D01*
X143018742Y-116825500D02*
X143493258Y-116825500D01*
X143018742Y-117870500D02*
X143493258Y-117870500D01*
X131516000Y-91359500D02*
X129506000Y-91359500D01*
X138116000Y-91749500D02*
X117916000Y-91749500D01*
X117916000Y-91749500D02*
X117916000Y-125949500D01*
X138116000Y-125949500D02*
X138116000Y-91749500D01*
X117916000Y-125949500D02*
X138116000Y-125949500D01*
X161657420Y-82379498D02*
X161938580Y-82379498D01*
X161657420Y-83399498D02*
X161938580Y-83399498D01*
X148392003Y-78325581D02*
X148392003Y-78044421D01*
X149412003Y-78325581D02*
X149412003Y-78044421D01*
X162037000Y-118329000D02*
X156897000Y-118329000D01*
X162037000Y-118329000D02*
X162037000Y-120989000D01*
X156897000Y-118329000D02*
X156897000Y-120989000D01*
X164637000Y-119659000D02*
X164637000Y-120989000D01*
X164637000Y-120989000D02*
X163307000Y-120989000D01*
X162037000Y-120989000D02*
X156897000Y-120989000D01*
X162715000Y-106333000D02*
X162090000Y-106333000D01*
X162402500Y-106645500D02*
X162402500Y-106020500D01*
X161850000Y-106343563D02*
X161850000Y-105708000D01*
X161850000Y-106343563D02*
X160785563Y-107408000D01*
X161850000Y-102952437D02*
X161850000Y-103588000D01*
X161850000Y-102952437D02*
X160785563Y-101888000D01*
X160785563Y-107408000D02*
X156330000Y-107408000D01*
X160785563Y-101888000D02*
X156330000Y-101888000D01*
X156330000Y-107408000D02*
X156330000Y-105708000D01*
X156330000Y-101888000D02*
X156330000Y-103588000D01*
X162035259Y-85148498D02*
X161560743Y-85148498D01*
X162035259Y-84103498D02*
X161560743Y-84103498D01*
D16*
X163324000Y-130896000D02*
X169924000Y-130896000D01*
X163324000Y-133061000D02*
X163324000Y-130896000D01*
X163324000Y-137886000D02*
X163324000Y-135601000D01*
X169924000Y-130896000D02*
X169924000Y-133061000D01*
X169924000Y-135601000D02*
X169924000Y-137886000D01*
X169924000Y-137896000D02*
X163324000Y-137896000D01*
D13*
X162660000Y-134366000D02*
G75*
G03*
X162660000Y-134366000I-100000J0D01*
G01*
D14*
X170290258Y-143143500D02*
X169815742Y-143143500D01*
X170290258Y-142098500D02*
X169815742Y-142098500D01*
X179721742Y-122852501D02*
X180196258Y-122852501D01*
X179721742Y-123897501D02*
X180196258Y-123897501D01*
D16*
X170944000Y-130896000D02*
X177544000Y-130896000D01*
X170944000Y-133061000D02*
X170944000Y-130896000D01*
X170944000Y-137886000D02*
X170944000Y-135601000D01*
X177544000Y-130896000D02*
X177544000Y-133061000D01*
X177544000Y-135601000D02*
X177544000Y-137886000D01*
X177544000Y-137896000D02*
X170944000Y-137896000D01*
D13*
X170280000Y-134366000D02*
G75*
G03*
X170280000Y-134366000I-100000J0D01*
G01*
D14*
X155682000Y-138938000D02*
X155682000Y-142388000D01*
X155682000Y-138938000D02*
X155682000Y-136988000D01*
X160802000Y-138938000D02*
X160802000Y-140888000D01*
X160802000Y-138938000D02*
X160802000Y-136988000D01*
X165483000Y-95395420D02*
X165483000Y-95676580D01*
X164463000Y-95395420D02*
X164463000Y-95676580D01*
X138405999Y-130454000D02*
X138405999Y-132324000D01*
X138405999Y-132324000D02*
X142315999Y-132324000D01*
X142315999Y-130454000D02*
X138405999Y-130454000D01*
X165748580Y-83399498D02*
X165467420Y-83399498D01*
X165748580Y-82379498D02*
X165467420Y-82379498D01*
X145810500Y-138890742D02*
X145810500Y-139365258D01*
X144765500Y-138890742D02*
X144765500Y-139365258D01*
X145334000Y-73259000D02*
X145334000Y-72519000D01*
X145334000Y-72519000D02*
X144834000Y-72519000D01*
X145094000Y-82680000D02*
X145094000Y-72759000D01*
X145094000Y-82680000D02*
X134814000Y-82680000D01*
X145094000Y-79720000D02*
X134814000Y-79720000D01*
X145094000Y-74819000D02*
X134814000Y-74819000D01*
X145094000Y-73319000D02*
X134814000Y-73319000D01*
X145094000Y-72759000D02*
X134814000Y-72759000D01*
X138641000Y-76396000D02*
X138688000Y-76350000D01*
X138448000Y-76180000D02*
X138483000Y-76145000D01*
X136344000Y-78694000D02*
X136379000Y-78658000D01*
X136139000Y-78488000D02*
X136186000Y-78442000D01*
X134814000Y-82680000D02*
X134814000Y-72759000D01*
X144028999Y-78102999D02*
G75*
G03*
X144029426Y-76735958I-1534992J684000D01*
G01*
X141810001Y-78953999D02*
G75*
G03*
X143177042Y-78954426I684000J1534992D01*
G01*
X143178000Y-75884001D02*
G75*
G03*
X142465195Y-75738748I-683999J-1535000D01*
G01*
X142494000Y-75739001D02*
G75*
G03*
X141810682Y-75884245I0J-1679999D01*
G01*
X140959000Y-76735000D02*
G75*
G03*
X140958574Y-78102042I1535000J-684000D01*
G01*
X139094000Y-77419000D02*
G75*
G03*
X139094000Y-77419000I-1680000J0D01*
G01*
X167886921Y-97153001D02*
X168168081Y-97153001D01*
X167886921Y-98173001D02*
X168168081Y-98173001D01*
X165134000Y-76744000D02*
X165290000Y-76744000D01*
X167450000Y-76744000D02*
X167606000Y-76744000D01*
X165291392Y-73511666D02*
G75*
G03*
X165134485Y-76743999I1078608J-1672334D01*
G01*
X165290164Y-74142871D02*
G75*
G03*
X165290001Y-76224960I1079836J-1041129D01*
G01*
X167449999Y-76224960D02*
G75*
G03*
X167449836Y-74142871I-1079999J1040960D01*
G01*
X167605515Y-76743999D02*
G75*
G03*
X167448608Y-73511666I-1235515J1559999D01*
G01*
X165370742Y-84103498D02*
X165845258Y-84103498D01*
X165370742Y-85148498D02*
X165845258Y-85148498D01*
D16*
X163324000Y-122895000D02*
X169924000Y-122895000D01*
X163324000Y-125060000D02*
X163324000Y-122895000D01*
X163324000Y-129885000D02*
X163324000Y-127600000D01*
X169924000Y-122895000D02*
X169924000Y-125060000D01*
X169924000Y-127600000D02*
X169924000Y-129885000D01*
X169924000Y-129895000D02*
X163324000Y-129895000D01*
D13*
X162660000Y-126365000D02*
G75*
G03*
X162660000Y-126365000I-100000J0D01*
G01*
D14*
X155465000Y-109948000D02*
X156090000Y-109948000D01*
X155777500Y-109635500D02*
X155777500Y-110260500D01*
X156330000Y-109937437D02*
X156330000Y-110573000D01*
X156330000Y-109937437D02*
X157394437Y-108873000D01*
X156330000Y-113328563D02*
X156330000Y-112693000D01*
X156330000Y-113328563D02*
X157394437Y-114393000D01*
X157394437Y-108873000D02*
X161850000Y-108873000D01*
X157394437Y-114393000D02*
X161850000Y-114393000D01*
X161850000Y-108873000D02*
X161850000Y-110573000D01*
X161850000Y-114393000D02*
X161850000Y-112693000D01*
X138405999Y-135759000D02*
X138405999Y-137629000D01*
X138405999Y-137629000D02*
X142315999Y-137629000D01*
X142315999Y-135759000D02*
X138405999Y-135759000D01*
D16*
X146329400Y-104419400D02*
X146862800Y-104952800D01*
X145796000Y-104952800D02*
X146329400Y-104419400D01*
X146329400Y-105486200D02*
X145796000Y-104952800D01*
D17*
X153720800Y-108458000D02*
G75*
G03*
X153720800Y-108458000I-3860800J0D01*
G01*
D16*
X154432000Y-108458000D02*
G75*
G03*
X154432000Y-108458000I-4572000J0D01*
G01*
D14*
X162035259Y-81675500D02*
X161560743Y-81675500D01*
X162035259Y-80630500D02*
X161560743Y-80630500D01*
D18*
X153670000Y-116214000D02*
X153670000Y-118967000D01*
X151130000Y-116214000D02*
X151130000Y-118967000D01*
X148590000Y-116214000D02*
X148590000Y-118967000D01*
X146050000Y-116214000D02*
X146050000Y-118967000D01*
D16*
X155860000Y-118964000D02*
X155860000Y-134464000D01*
X143860000Y-118964000D02*
X155860000Y-118964000D01*
X155860000Y-134464000D02*
X143860000Y-134464000D01*
X143860000Y-134464000D02*
X143860000Y-118964000D01*
D14*
X167297419Y-94276000D02*
X167578579Y-94276000D01*
X167297419Y-95296000D02*
X167578579Y-95296000D01*
X113808742Y-109205500D02*
X114283258Y-109205500D01*
X113808742Y-110250500D02*
X114283258Y-110250500D01*
X169845258Y-85148498D02*
X169370742Y-85148498D01*
X169845258Y-84103498D02*
X169370742Y-84103498D01*
X138405999Y-127504000D02*
X138405999Y-129374000D01*
X138405999Y-129374000D02*
X142315999Y-129374000D01*
X142315999Y-127504000D02*
X138405999Y-127504000D01*
X137195999Y-142729000D02*
X131185999Y-142729000D01*
X134945999Y-135909000D02*
X131185999Y-135909000D01*
X131185999Y-142729000D02*
X131185999Y-141469000D01*
X131185999Y-135909000D02*
X131185999Y-137169000D01*
X115505500Y-107923000D02*
X115505500Y-106453000D01*
X115505500Y-106453000D02*
X113220500Y-106453000D01*
X113220500Y-107923000D02*
X115505500Y-107923000D01*
X137136000Y-90877000D02*
X137136000Y-84637000D01*
X137136000Y-90877000D02*
X118896000Y-90877000D01*
X137136000Y-84637000D02*
X118896000Y-84637000D01*
X118896000Y-90877000D02*
X118896000Y-84637000D01*
X118578500Y-128962500D02*
X119366000Y-128962500D01*
X118972250Y-128568750D02*
X118972250Y-129356250D01*
X119606000Y-128464437D02*
X119606000Y-129750000D01*
X119606000Y-128464437D02*
X120670437Y-127400000D01*
X119606000Y-133155563D02*
X119606000Y-131870000D01*
X119606000Y-133155563D02*
X120670437Y-134220000D01*
X120670437Y-127400000D02*
X126426000Y-127400000D01*
X120670437Y-134220000D02*
X126426000Y-134220000D01*
X126426000Y-127400000D02*
X126426000Y-129750000D01*
X126426000Y-134220000D02*
X126426000Y-131870000D01*
X180190246Y-97140500D02*
X180664762Y-97140500D01*
X180190246Y-98185500D02*
X180664762Y-98185500D01*
X160444502Y-78472258D02*
X160444502Y-77997742D01*
X161489502Y-78472258D02*
X161489502Y-77997742D01*
X150284506Y-78422259D02*
X150284506Y-77947743D01*
X151329506Y-78422259D02*
X151329506Y-77947743D01*
X168624500Y-140108000D02*
X168624500Y-141578000D01*
X168624500Y-141578000D02*
X170909500Y-141578000D01*
X170909500Y-140108000D02*
X168624500Y-140108000D01*
X171337499Y-95298742D02*
X171337499Y-95773258D01*
X170292499Y-95298742D02*
X170292499Y-95773258D01*
X176190243Y-97140501D02*
X176664759Y-97140501D01*
X176190243Y-98185501D02*
X176664759Y-98185501D01*
D16*
X160533000Y-91866000D02*
X160533000Y-87966000D01*
X170683000Y-91866000D02*
X170683000Y-87966000D01*
D13*
X160643000Y-93976000D02*
G75*
G03*
X160643000Y-93976000I-100000J0D01*
G01*
D14*
X181444000Y-126084000D02*
X181444000Y-124614000D01*
X181444000Y-124614000D02*
X179159000Y-124614000D01*
X179159000Y-126084000D02*
X181444000Y-126084000D01*
X142180000Y-145856000D02*
X142180000Y-144526000D01*
X143510000Y-145856000D02*
X142180000Y-145856000D01*
X144780000Y-145856000D02*
X157540000Y-145856000D01*
X144780000Y-145856000D02*
X144780000Y-143196000D01*
X157540000Y-145856000D02*
X157540000Y-143196000D01*
X144780000Y-143196000D02*
X157540000Y-143196000D01*
X131616000Y-83578001D02*
X124416000Y-83578001D01*
X126616000Y-81678001D02*
X129416000Y-81678001D01*
X126616000Y-78278001D02*
X126616000Y-81678001D01*
X126616000Y-78278001D02*
X129416000Y-78278001D01*
X129416000Y-78278001D02*
X129416000Y-81678001D01*
X124416000Y-76378001D02*
X124416000Y-83578001D01*
X131616000Y-76378001D02*
X131616000Y-83578001D01*
X131616000Y-76378001D02*
X124416000Y-76378001D01*
%LPC*%
D19*
X169672000Y-73914000D03*
X169672000Y-75564000D03*
D20*
X164783000Y-81153000D03*
X166433000Y-81153000D03*
D21*
X161714000Y-123375000D03*
X160064000Y-123375000D03*
D22*
X139285999Y-139644000D03*
X141985999Y-139644000D03*
D23*
X172720000Y-94761000D03*
X172720000Y-96311000D03*
D24*
X151560000Y-138303000D03*
X148160000Y-138303000D03*
D25*
X114860000Y-92458000D03*
D26*
X155067000Y-77410000D03*
X156337000Y-77410000D03*
X157607000Y-77410000D03*
X158877000Y-77410000D03*
X158877000Y-72450000D03*
X157607000Y-72450000D03*
X156337000Y-72450000D03*
X155067000Y-72450000D03*
D27*
X136246000Y-133364000D03*
X136246000Y-131064000D03*
D28*
X129946000Y-131064000D03*
D27*
X136246000Y-128764000D03*
D29*
X181252500Y-100758000D03*
X179252500Y-100758000D03*
X177252500Y-100758000D03*
X175252500Y-100758000D03*
X173252500Y-100758000D03*
X171252500Y-100758000D03*
X169252500Y-100758000D03*
X167252500Y-100758000D03*
X167252500Y-116158000D03*
X169252500Y-116158000D03*
X171252500Y-116158000D03*
X173252500Y-116158000D03*
X175252500Y-116158000D03*
X177252500Y-116158000D03*
X179252500Y-116158000D03*
X181252500Y-116158000D03*
D30*
X165552500Y-103448000D03*
X165552500Y-105448000D03*
X165552500Y-107448000D03*
X165552500Y-109448000D03*
X165552500Y-111448000D03*
X165552500Y-113448000D03*
D31*
X171704000Y-126365001D03*
D32*
X174244000Y-123825001D03*
X176784000Y-126365001D03*
D23*
X152712004Y-77410001D03*
X152712004Y-78960001D03*
D33*
X150807006Y-75695000D03*
X150807006Y-74045000D03*
D34*
X146500000Y-89223000D03*
D35*
X145110000Y-92583000D03*
X146500000Y-95943000D03*
X153220000Y-95943000D03*
X154610000Y-92583000D03*
X153220000Y-89223000D03*
D34*
X181356000Y-87122000D03*
D35*
X173756000Y-87122000D03*
D36*
X160121500Y-125476000D03*
X161696500Y-125476000D03*
D19*
X152712004Y-74045000D03*
X152712004Y-75695000D03*
D21*
X169252504Y-119253000D03*
X167602504Y-119253000D03*
D20*
X142431000Y-117348000D03*
X144081000Y-117348000D03*
D37*
X130516000Y-94149500D03*
D38*
X125516000Y-94149500D03*
X135716000Y-123549500D03*
X120316000Y-123549500D03*
D39*
X161023000Y-82889498D03*
X162573000Y-82889498D03*
D40*
X148902003Y-78960001D03*
X148902003Y-77410001D03*
D41*
X163307000Y-119659000D03*
D42*
X160767000Y-119659000D03*
X158227000Y-119659000D03*
D43*
X161290000Y-104648000D03*
X156890000Y-104648000D03*
D21*
X162623001Y-84625998D03*
X160973001Y-84625998D03*
D31*
X164084000Y-134366000D03*
D32*
X166624000Y-131826000D03*
X169164000Y-134366000D03*
D21*
X170878000Y-142621000D03*
X169228000Y-142621000D03*
D20*
X179134000Y-123375001D03*
X180784000Y-123375001D03*
D31*
X171704000Y-134366000D03*
D32*
X174244000Y-131826000D03*
X176784000Y-134366000D03*
D26*
X156337000Y-141418000D03*
X157607000Y-141418000D03*
X158877000Y-141418000D03*
X160147000Y-141418000D03*
X160147000Y-136458000D03*
X158877000Y-136458000D03*
X157607000Y-136458000D03*
X156337000Y-136458000D03*
D23*
X164973000Y-94761000D03*
X164973000Y-96311000D03*
D22*
X139365999Y-131389000D03*
X142065999Y-131389000D03*
D44*
X166383000Y-82889498D03*
X164833000Y-82889498D03*
D19*
X145288000Y-138303000D03*
X145288000Y-139953000D03*
D45*
X142494000Y-77419000D03*
D46*
X137414000Y-77419000D03*
D25*
X114860000Y-124458000D03*
D39*
X167252501Y-97663001D03*
X168802501Y-97663001D03*
D47*
X166370000Y-76454000D03*
D48*
X166370000Y-73914000D03*
D20*
X164783000Y-84625998D03*
X166433000Y-84625998D03*
D31*
X164084000Y-126365000D03*
D32*
X166624000Y-123825000D03*
X169164000Y-126365000D03*
D49*
X156890000Y-111633000D03*
X161290000Y-111633000D03*
D22*
X139365999Y-136694000D03*
X142065999Y-136694000D03*
D50*
X147320000Y-108458000D03*
X149860000Y-110998000D03*
X152400000Y-108458000D03*
D25*
X184860000Y-124458000D03*
D21*
X162623001Y-81153000D03*
X160973001Y-81153000D03*
D51*
X153670000Y-114964000D03*
D52*
X151130000Y-114964000D03*
X148590000Y-114964000D03*
X146050000Y-114964000D03*
D39*
X166662999Y-94786000D03*
X168212999Y-94786000D03*
D25*
X184860000Y-92458000D03*
D20*
X113221000Y-109728000D03*
X114871000Y-109728000D03*
D21*
X170433000Y-84625998D03*
X168783000Y-84625998D03*
D22*
X139365999Y-128439000D03*
X142065999Y-128439000D03*
D27*
X136245999Y-141619000D03*
X136245999Y-139319000D03*
D28*
X129945999Y-139319000D03*
D27*
X136245999Y-137019000D03*
D53*
X114808000Y-107188000D03*
X113233000Y-107188000D03*
D54*
X135516000Y-87757000D03*
X120516000Y-87757000D03*
D55*
X120316000Y-130810000D03*
X125716000Y-130810000D03*
D20*
X179602504Y-97663000D03*
X181252504Y-97663000D03*
D33*
X160967002Y-79060000D03*
X160967002Y-77410000D03*
X150807006Y-79010001D03*
X150807006Y-77360001D03*
D36*
X169322000Y-140843000D03*
X170897000Y-140843000D03*
D19*
X170814999Y-94711000D03*
X170814999Y-96361000D03*
D20*
X175602501Y-97663001D03*
X177252501Y-97663001D03*
D56*
X161163000Y-92666000D03*
X162433000Y-92666000D03*
X163703000Y-92666000D03*
X164973000Y-92666000D03*
X166243000Y-92666000D03*
X167513000Y-92666000D03*
X168783000Y-92666000D03*
X170053000Y-92666000D03*
X170053000Y-87166000D03*
X168783000Y-87166000D03*
X167513000Y-87166000D03*
X166243000Y-87166000D03*
X164973000Y-87166000D03*
X163703000Y-87166000D03*
X162433000Y-87166000D03*
X161163000Y-87166000D03*
D53*
X180746500Y-125349000D03*
X179171500Y-125349000D03*
D41*
X143510000Y-144526000D03*
D42*
X146050000Y-144526000D03*
X148590000Y-144526000D03*
X151130000Y-144526000D03*
X153670000Y-144526000D03*
X156210000Y-144526000D03*
D57*
X125516000Y-81978001D03*
D24*
X125516000Y-79978001D03*
X125516000Y-77978001D03*
X130516000Y-81978001D03*
X130516000Y-79978001D03*
X130516000Y-77978001D03*
%LPD*%
M02*
