  0
SECTION
  2
HEADER
  9
$ANGBASE
  50
0.0
  9
$ANGDIR
  70
1
  9
$MEASUREMENT
  70
1
  0
ENDSEC
  0
SECTION
  2
TABLES
  0
TABLE
  2
LTYPE
  70
4
  0
LTYPE
  5
40F
  2
CONTINUOUS
  70
0
  3
Solid line
  72
65
  73
0
  40
0.0
  0
LTYPE
  5
410
  2
DASHDOT
 70
0
  3
Dash Dot ____ _ ____ _
 72
65
 73
4
 40
2.0
 49
1.25
 49
-0.25
 49
0.25
 49
-0.25
  0
LTYPE
  5
411
  2
DASHED
 70
0
  3
Dashed __ __ __ __ __
 72
65
 73
2
 40
0.75
 49
0.5
 49
-0.25
  0
LTYPE
  5
43B
  2
DOTTED
 70
0
  3
Dotted .  .  .  .
 72
65
 73
2
 40
0.2
 49
0.0
 49
-0.2
  0
ENDTAB
  0
TABLE
  2
STYLE
  70
4
  0
STYLE
  2
KICAD
  70
0
  40
0
  41
1
  42
1
  50
0
  71
0
  3
isocp.shx
  0
STYLE
  2
KICADB
  70
0
  40
0
  41
1
  42
1
  50
0
  71
0
  3
isocp.shx
  0
STYLE
  2
KICADI
  70
0
  40
0
  41
1
  42
1
  50
15
  71
0
  3
isocp.shx
  0
STYLE
  2
KICADBI
  70
0
  40
0
  41
1
  42
1
  50
15
  71
0
  3
isocp.shx
  0
ENDTAB
  0
TABLE
  2
LAYER
  70
1
  0
LAYER
  2
BLACK
  70
0
  62
7
  6
CONTINUOUS
  0
ENDTAB
  0
ENDSEC
  0
SECTION
  2
ENTITIES
0
LINE
8
BLACK
6
CONTINUOUS
10
169.505
20
-142.161
11
169.569
21
-142.205
0
LINE
8
BLACK
6
CONTINUOUS
10
169.569
20
-142.205
11
169.613
21
-142.269
0
LINE
8
BLACK
6
CONTINUOUS
10
169.613
20
-142.269
11
169.628
21
-142.346
0
LINE
8
BLACK
6
CONTINUOUS
10
169.628
20
-142.346
11
169.628
21
-142.896
0
LINE
8
BLACK
6
CONTINUOUS
10
169.628
20
-142.896
11
169.613
21
-142.973
0
LINE
8
BLACK
6
CONTINUOUS
10
169.613
20
-142.973
11
169.569
21
-143.037
0
LINE
8
BLACK
6
CONTINUOUS
10
169.569
20
-143.037
11
169.505
21
-143.081
0
LINE
8
BLACK
6
CONTINUOUS
10
169.505
20
-143.081
11
169.428
21
-143.096
0
LINE
8
BLACK
6
CONTINUOUS
10
169.428
20
-143.096
11
169.028
21
-143.096
0
LINE
8
BLACK
6
CONTINUOUS
10
169.028
20
-143.096
11
168.951
21
-143.081
0
LINE
8
BLACK
6
CONTINUOUS
10
168.951
20
-143.081
11
168.887
21
-143.037
0
LINE
8
BLACK
6
CONTINUOUS
10
168.887
20
-143.037
11
168.843
21
-142.973
0
LINE
8
BLACK
6
CONTINUOUS
10
168.843
20
-142.973
11
168.828
21
-142.896
0
LINE
8
BLACK
6
CONTINUOUS
10
168.828
20
-142.896
11
168.828
21
-142.346
0
LINE
8
BLACK
6
CONTINUOUS
10
168.828
20
-142.346
11
168.843
21
-142.269
0
LINE
8
BLACK
6
CONTINUOUS
10
168.843
20
-142.269
11
168.887
21
-142.205
0
LINE
8
BLACK
6
CONTINUOUS
10
168.887
20
-142.205
11
168.951
21
-142.161
0
LINE
8
BLACK
6
CONTINUOUS
10
168.951
20
-142.161
11
169.028
21
-142.146
0
LINE
8
BLACK
6
CONTINUOUS
10
169.028
20
-142.146
11
169.428
21
-142.146
0
LINE
8
BLACK
6
CONTINUOUS
10
169.428
20
-142.146
11
169.505
21
-142.161
0
LINE
8
BLACK
6
CONTINUOUS
10
171.155
20
-142.161
11
171.219
21
-142.205
0
LINE
8
BLACK
6
CONTINUOUS
10
171.219
20
-142.205
11
171.263
21
-142.269
0
LINE
8
BLACK
6
CONTINUOUS
10
171.263
20
-142.269
11
171.278
21
-142.346
0
LINE
8
BLACK
6
CONTINUOUS
10
171.278
20
-142.346
11
171.278
21
-142.896
0
LINE
8
BLACK
6
CONTINUOUS
10
171.278
20
-142.896
11
171.263
21
-142.973
0
LINE
8
BLACK
6
CONTINUOUS
10
171.263
20
-142.973
11
171.219
21
-143.037
0
LINE
8
BLACK
6
CONTINUOUS
10
171.219
20
-143.037
11
171.155
21
-143.081
0
LINE
8
BLACK
6
CONTINUOUS
10
171.155
20
-143.081
11
171.078
21
-143.096
0
LINE
8
BLACK
6
CONTINUOUS
10
171.078
20
-143.096
11
170.678
21
-143.096
0
LINE
8
BLACK
6
CONTINUOUS
10
170.678
20
-143.096
11
170.601
21
-143.081
0
LINE
8
BLACK
6
CONTINUOUS
10
170.601
20
-143.081
11
170.537
21
-143.037
0
LINE
8
BLACK
6
CONTINUOUS
10
170.537
20
-143.037
11
170.493
21
-142.973
0
LINE
8
BLACK
6
CONTINUOUS
10
170.493
20
-142.973
11
170.478
21
-142.896
0
LINE
8
BLACK
6
CONTINUOUS
10
170.478
20
-142.896
11
170.478
21
-142.346
0
LINE
8
BLACK
6
CONTINUOUS
10
170.478
20
-142.346
11
170.493
21
-142.269
0
LINE
8
BLACK
6
CONTINUOUS
10
170.493
20
-142.269
11
170.537
21
-142.205
0
LINE
8
BLACK
6
CONTINUOUS
10
170.537
20
-142.205
11
170.601
21
-142.161
0
LINE
8
BLACK
6
CONTINUOUS
10
170.601
20
-142.161
11
170.678
21
-142.146
0
LINE
8
BLACK
6
CONTINUOUS
10
170.678
20
-142.146
11
171.078
21
-142.146
0
LINE
8
BLACK
6
CONTINUOUS
10
171.078
20
-142.146
11
171.155
21
-142.161
0
LINE
8
BLACK
6
CONTINUOUS
10
156.544
20
-140.459
11
156.593
21
-140.492
0
LINE
8
BLACK
6
CONTINUOUS
10
156.593
20
-140.492
11
156.626
21
-140.541
0
LINE
8
BLACK
6
CONTINUOUS
10
156.626
20
-140.541
11
156.637
21
-140.598
0
LINE
8
BLACK
6
CONTINUOUS
10
156.637
20
-140.598
11
156.637
21
-142.238
0
LINE
8
BLACK
6
CONTINUOUS
10
156.637
20
-142.238
11
156.626
21
-142.295
0
LINE
8
BLACK
6
CONTINUOUS
10
156.626
20
-142.295
11
156.593
21
-142.344
0
LINE
8
BLACK
6
CONTINUOUS
10
156.593
20
-142.344
11
156.544
21
-142.377
0
LINE
8
BLACK
6
CONTINUOUS
10
156.544
20
-142.377
11
156.487
21
-142.388
0
LINE
8
BLACK
6
CONTINUOUS
10
156.487
20
-142.388
11
156.187
21
-142.388
0
LINE
8
BLACK
6
CONTINUOUS
10
156.187
20
-142.388
11
156.13
21
-142.377
0
LINE
8
BLACK
6
CONTINUOUS
10
156.13
20
-142.377
11
156.081
21
-142.344
0
LINE
8
BLACK
6
CONTINUOUS
10
156.081
20
-142.344
11
156.048
21
-142.295
0
LINE
8
BLACK
6
CONTINUOUS
10
156.048
20
-142.295
11
156.037
21
-142.238
0
LINE
8
BLACK
6
CONTINUOUS
10
156.037
20
-142.238
11
156.037
21
-140.598
0
LINE
8
BLACK
6
CONTINUOUS
10
156.037
20
-140.598
11
156.048
21
-140.541
0
LINE
8
BLACK
6
CONTINUOUS
10
156.048
20
-140.541
11
156.081
21
-140.492
0
LINE
8
BLACK
6
CONTINUOUS
10
156.081
20
-140.492
11
156.13
21
-140.459
0
LINE
8
BLACK
6
CONTINUOUS
10
156.13
20
-140.459
11
156.187
21
-140.448
0
LINE
8
BLACK
6
CONTINUOUS
10
156.187
20
-140.448
11
156.487
21
-140.448
0
LINE
8
BLACK
6
CONTINUOUS
10
156.487
20
-140.448
11
156.544
21
-140.459
0
LINE
8
BLACK
6
CONTINUOUS
10
157.814
20
-140.459
11
157.863
21
-140.492
0
LINE
8
BLACK
6
CONTINUOUS
10
157.863
20
-140.492
11
157.896
21
-140.541
0
LINE
8
BLACK
6
CONTINUOUS
10
157.896
20
-140.541
11
157.907
21
-140.598
0
LINE
8
BLACK
6
CONTINUOUS
10
157.907
20
-140.598
11
157.907
21
-142.238
0
LINE
8
BLACK
6
CONTINUOUS
10
157.907
20
-142.238
11
157.896
21
-142.295
0
LINE
8
BLACK
6
CONTINUOUS
10
157.896
20
-142.295
11
157.863
21
-142.344
0
LINE
8
BLACK
6
CONTINUOUS
10
157.863
20
-142.344
11
157.814
21
-142.377
0
LINE
8
BLACK
6
CONTINUOUS
10
157.814
20
-142.377
11
157.757
21
-142.388
0
LINE
8
BLACK
6
CONTINUOUS
10
157.757
20
-142.388
11
157.457
21
-142.388
0
LINE
8
BLACK
6
CONTINUOUS
10
157.457
20
-142.388
11
157.4
21
-142.377
0
LINE
8
BLACK
6
CONTINUOUS
10
157.4
20
-142.377
11
157.351
21
-142.344
0
LINE
8
BLACK
6
CONTINUOUS
10
157.351
20
-142.344
11
157.318
21
-142.295
0
LINE
8
BLACK
6
CONTINUOUS
10
157.318
20
-142.295
11
157.307
21
-142.238
0
LINE
8
BLACK
6
CONTINUOUS
10
157.307
20
-142.238
11
157.307
21
-140.598
0
LINE
8
BLACK
6
CONTINUOUS
10
157.307
20
-140.598
11
157.318
21
-140.541
0
LINE
8
BLACK
6
CONTINUOUS
10
157.318
20
-140.541
11
157.351
21
-140.492
0
LINE
8
BLACK
6
CONTINUOUS
10
157.351
20
-140.492
11
157.4
21
-140.459
0
LINE
8
BLACK
6
CONTINUOUS
10
157.4
20
-140.459
11
157.457
21
-140.448
0
LINE
8
BLACK
6
CONTINUOUS
10
157.457
20
-140.448
11
157.757
21
-140.448
0
LINE
8
BLACK
6
CONTINUOUS
10
157.757
20
-140.448
11
157.814
21
-140.459
0
LINE
8
BLACK
6
CONTINUOUS
10
159.084
20
-140.459
11
159.133
21
-140.492
0
LINE
8
BLACK
6
CONTINUOUS
10
159.133
20
-140.492
11
159.166
21
-140.541
0
LINE
8
BLACK
6
CONTINUOUS
10
159.166
20
-140.541
11
159.177
21
-140.598
0
LINE
8
BLACK
6
CONTINUOUS
10
159.177
20
-140.598
11
159.177
21
-142.238
0
LINE
8
BLACK
6
CONTINUOUS
10
159.177
20
-142.238
11
159.166
21
-142.295
0
LINE
8
BLACK
6
CONTINUOUS
10
159.166
20
-142.295
11
159.133
21
-142.344
0
LINE
8
BLACK
6
CONTINUOUS
10
159.133
20
-142.344
11
159.084
21
-142.377
0
LINE
8
BLACK
6
CONTINUOUS
10
159.084
20
-142.377
11
159.027
21
-142.388
0
LINE
8
BLACK
6
CONTINUOUS
10
159.027
20
-142.388
11
158.727
21
-142.388
0
LINE
8
BLACK
6
CONTINUOUS
10
158.727
20
-142.388
11
158.67
21
-142.377
0
LINE
8
BLACK
6
CONTINUOUS
10
158.67
20
-142.377
11
158.621
21
-142.344
0
LINE
8
BLACK
6
CONTINUOUS
10
158.621
20
-142.344
11
158.588
21
-142.295
0
LINE
8
BLACK
6
CONTINUOUS
10
158.588
20
-142.295
11
158.577
21
-142.238
0
LINE
8
BLACK
6
CONTINUOUS
10
158.577
20
-142.238
11
158.577
21
-140.598
0
LINE
8
BLACK
6
CONTINUOUS
10
158.577
20
-140.598
11
158.588
21
-140.541
0
LINE
8
BLACK
6
CONTINUOUS
10
158.588
20
-140.541
11
158.621
21
-140.492
0
LINE
8
BLACK
6
CONTINUOUS
10
158.621
20
-140.492
11
158.67
21
-140.459
0
LINE
8
BLACK
6
CONTINUOUS
10
158.67
20
-140.459
11
158.727
21
-140.448
0
LINE
8
BLACK
6
CONTINUOUS
10
158.727
20
-140.448
11
159.027
21
-140.448
0
LINE
8
BLACK
6
CONTINUOUS
10
159.027
20
-140.448
11
159.084
21
-140.459
0
LINE
8
BLACK
6
CONTINUOUS
10
160.354
20
-140.459
11
160.403
21
-140.492
0
LINE
8
BLACK
6
CONTINUOUS
10
160.403
20
-140.492
11
160.436
21
-140.541
0
LINE
8
BLACK
6
CONTINUOUS
10
160.436
20
-140.541
11
160.447
21
-140.598
0
LINE
8
BLACK
6
CONTINUOUS
10
160.447
20
-140.598
11
160.447
21
-142.238
0
LINE
8
BLACK
6
CONTINUOUS
10
160.447
20
-142.238
11
160.436
21
-142.295
0
LINE
8
BLACK
6
CONTINUOUS
10
160.436
20
-142.295
11
160.403
21
-142.344
0
LINE
8
BLACK
6
CONTINUOUS
10
160.403
20
-142.344
11
160.354
21
-142.377
0
LINE
8
BLACK
6
CONTINUOUS
10
160.354
20
-142.377
11
160.297
21
-142.388
0
LINE
8
BLACK
6
CONTINUOUS
10
160.297
20
-142.388
11
159.997
21
-142.388
0
LINE
8
BLACK
6
CONTINUOUS
10
159.997
20
-142.388
11
159.94
21
-142.377
0
LINE
8
BLACK
6
CONTINUOUS
10
159.94
20
-142.377
11
159.891
21
-142.344
0
LINE
8
BLACK
6
CONTINUOUS
10
159.891
20
-142.344
11
159.858
21
-142.295
0
LINE
8
BLACK
6
CONTINUOUS
10
159.858
20
-142.295
11
159.847
21
-142.238
0
LINE
8
BLACK
6
CONTINUOUS
10
159.847
20
-142.238
11
159.847
21
-140.598
0
LINE
8
BLACK
6
CONTINUOUS
10
159.847
20
-140.598
11
159.858
21
-140.541
0
LINE
8
BLACK
6
CONTINUOUS
10
159.858
20
-140.541
11
159.891
21
-140.492
0
LINE
8
BLACK
6
CONTINUOUS
10
159.891
20
-140.492
11
159.94
21
-140.459
0
LINE
8
BLACK
6
CONTINUOUS
10
159.94
20
-140.459
11
159.997
21
-140.448
0
LINE
8
BLACK
6
CONTINUOUS
10
159.997
20
-140.448
11
160.297
21
-140.448
0
LINE
8
BLACK
6
CONTINUOUS
10
160.297
20
-140.448
11
160.354
21
-140.459
0
LINE
8
BLACK
6
CONTINUOUS
10
137.246
20
-142.369
11
135.246
21
-142.369
0
LINE
8
BLACK
6
CONTINUOUS
10
135.246
20
-142.369
11
135.246
21
-140.869
0
LINE
8
BLACK
6
CONTINUOUS
10
135.246
20
-140.869
11
137.246
21
-140.869
0
LINE
8
BLACK
6
CONTINUOUS
10
137.246
20
-140.869
11
137.246
21
-142.369
0
LINE
8
BLACK
6
CONTINUOUS
10
169.624
20
-140.385
11
169.695
21
-140.432
0
LINE
8
BLACK
6
CONTINUOUS
10
169.695
20
-140.432
11
169.743
21
-140.503
0
LINE
8
BLACK
6
CONTINUOUS
10
169.743
20
-140.503
11
169.76
21
-140.587
0
LINE
8
BLACK
6
CONTINUOUS
10
169.76
20
-140.587
11
169.76
21
-141.099
0
LINE
8
BLACK
6
CONTINUOUS
10
169.76
20
-141.099
11
169.743
21
-141.183
0
LINE
8
BLACK
6
CONTINUOUS
10
169.743
20
-141.183
11
169.695
21
-141.254
0
LINE
8
BLACK
6
CONTINUOUS
10
169.695
20
-141.254
11
169.624
21
-141.301
0
LINE
8
BLACK
6
CONTINUOUS
10
169.624
20
-141.301
11
169.541
21
-141.318
0
LINE
8
BLACK
6
CONTINUOUS
10
169.541
20
-141.318
11
169.103
21
-141.318
0
LINE
8
BLACK
6
CONTINUOUS
10
169.103
20
-141.318
11
169.02
21
-141.301
0
LINE
8
BLACK
6
CONTINUOUS
10
169.02
20
-141.301
11
168.949
21
-141.254
0
LINE
8
BLACK
6
CONTINUOUS
10
168.949
20
-141.254
11
168.901
21
-141.183
0
LINE
8
BLACK
6
CONTINUOUS
10
168.901
20
-141.183
11
168.885
21
-141.099
0
LINE
8
BLACK
6
CONTINUOUS
10
168.885
20
-141.099
11
168.885
21
-140.587
0
LINE
8
BLACK
6
CONTINUOUS
10
168.885
20
-140.587
11
168.901
21
-140.503
0
LINE
8
BLACK
6
CONTINUOUS
10
168.901
20
-140.503
11
168.949
21
-140.432
0
LINE
8
BLACK
6
CONTINUOUS
10
168.949
20
-140.432
11
169.02
21
-140.385
0
LINE
8
BLACK
6
CONTINUOUS
10
169.02
20
-140.385
11
169.103
21
-140.368
0
LINE
8
BLACK
6
CONTINUOUS
10
169.103
20
-140.368
11
169.541
21
-140.368
0
LINE
8
BLACK
6
CONTINUOUS
10
169.541
20
-140.368
11
169.624
21
-140.385
0
LINE
8
BLACK
6
CONTINUOUS
10
171.199
20
-140.385
11
171.27
21
-140.432
0
LINE
8
BLACK
6
CONTINUOUS
10
171.27
20
-140.432
11
171.318
21
-140.503
0
LINE
8
BLACK
6
CONTINUOUS
10
171.318
20
-140.503
11
171.334
21
-140.587
0
LINE
8
BLACK
6
CONTINUOUS
10
171.334
20
-140.587
11
171.334
21
-141.099
0
LINE
8
BLACK
6
CONTINUOUS
10
171.334
20
-141.099
11
171.318
21
-141.183
0
LINE
8
BLACK
6
CONTINUOUS
10
171.318
20
-141.183
11
171.27
21
-141.254
0
LINE
8
BLACK
6
CONTINUOUS
10
171.27
20
-141.254
11
171.199
21
-141.301
0
LINE
8
BLACK
6
CONTINUOUS
10
171.199
20
-141.301
11
171.116
21
-141.318
0
LINE
8
BLACK
6
CONTINUOUS
10
171.116
20
-141.318
11
170.678
21
-141.318
0
LINE
8
BLACK
6
CONTINUOUS
10
170.678
20
-141.318
11
170.595
21
-141.301
0
LINE
8
BLACK
6
CONTINUOUS
10
170.595
20
-141.301
11
170.524
21
-141.254
0
LINE
8
BLACK
6
CONTINUOUS
10
170.524
20
-141.254
11
170.476
21
-141.183
0
LINE
8
BLACK
6
CONTINUOUS
10
170.476
20
-141.183
11
170.459
21
-141.099
0
LINE
8
BLACK
6
CONTINUOUS
10
170.459
20
-141.099
11
170.459
21
-140.587
0
LINE
8
BLACK
6
CONTINUOUS
10
170.459
20
-140.587
11
170.476
21
-140.503
0
LINE
8
BLACK
6
CONTINUOUS
10
170.476
20
-140.503
11
170.524
21
-140.432
0
LINE
8
BLACK
6
CONTINUOUS
10
170.524
20
-140.432
11
170.595
21
-140.385
0
LINE
8
BLACK
6
CONTINUOUS
10
170.595
20
-140.385
11
170.678
21
-140.368
0
LINE
8
BLACK
6
CONTINUOUS
10
170.678
20
-140.368
11
171.116
21
-140.368
0
LINE
8
BLACK
6
CONTINUOUS
10
171.116
20
-140.368
11
171.199
21
-140.385
0
LINE
8
BLACK
6
CONTINUOUS
10
130.946
20
-141.219
11
128.946
21
-141.219
0
LINE
8
BLACK
6
CONTINUOUS
10
128.946
20
-141.219
11
128.946
21
-137.419
0
LINE
8
BLACK
6
CONTINUOUS
10
128.946
20
-137.419
11
130.946
21
-137.419
0
LINE
8
BLACK
6
CONTINUOUS
10
130.946
20
-137.419
11
130.946
21
-141.219
0
LINE
8
BLACK
6
CONTINUOUS
10
145.64
20
-139.568
11
145.704
21
-139.612
0
LINE
8
BLACK
6
CONTINUOUS
10
145.704
20
-139.612
11
145.748
21
-139.676
0
LINE
8
BLACK
6
CONTINUOUS
10
145.748
20
-139.676
11
145.763
21
-139.753
0
LINE
8
BLACK
6
CONTINUOUS
10
145.763
20
-139.753
11
145.763
21
-140.153
0
LINE
8
BLACK
6
CONTINUOUS
10
145.763
20
-140.153
11
145.748
21
-140.23
0
LINE
8
BLACK
6
CONTINUOUS
10
145.748
20
-140.23
11
145.704
21
-140.294
0
LINE
8
BLACK
6
CONTINUOUS
10
145.704
20
-140.294
11
145.64
21
-140.338
0
LINE
8
BLACK
6
CONTINUOUS
10
145.64
20
-140.338
11
145.563
21
-140.353
0
LINE
8
BLACK
6
CONTINUOUS
10
145.563
20
-140.353
11
145.013
21
-140.353
0
LINE
8
BLACK
6
CONTINUOUS
10
145.013
20
-140.353
11
144.936
21
-140.338
0
LINE
8
BLACK
6
CONTINUOUS
10
144.936
20
-140.338
11
144.872
21
-140.294
0
LINE
8
BLACK
6
CONTINUOUS
10
144.872
20
-140.294
11
144.828
21
-140.23
0
LINE
8
BLACK
6
CONTINUOUS
10
144.828
20
-140.23
11
144.813
21
-140.153
0
LINE
8
BLACK
6
CONTINUOUS
10
144.813
20
-140.153
11
144.813
21
-139.753
0
LINE
8
BLACK
6
CONTINUOUS
10
144.813
20
-139.753
11
144.828
21
-139.676
0
LINE
8
BLACK
6
CONTINUOUS
10
144.828
20
-139.676
11
144.872
21
-139.612
0
LINE
8
BLACK
6
CONTINUOUS
10
144.872
20
-139.612
11
144.936
21
-139.568
0
LINE
8
BLACK
6
CONTINUOUS
10
144.936
20
-139.568
11
145.013
21
-139.553
0
LINE
8
BLACK
6
CONTINUOUS
10
145.013
20
-139.553
11
145.563
21
-139.553
0
LINE
8
BLACK
6
CONTINUOUS
10
145.563
20
-139.553
11
145.64
21
-139.568
0
LINE
8
BLACK
6
CONTINUOUS
10
139.832
20
-138.988
11
139.913
21
-139.042
0
LINE
8
BLACK
6
CONTINUOUS
10
139.913
20
-139.042
11
139.967
21
-139.123
0
LINE
8
BLACK
6
CONTINUOUS
10
139.967
20
-139.123
11
139.986
21
-139.219
0
LINE
8
BLACK
6
CONTINUOUS
10
139.986
20
-139.219
11
139.986
21
-140.069
0
LINE
8
BLACK
6
CONTINUOUS
10
139.986
20
-140.069
11
139.967
21
-140.165
0
LINE
8
BLACK
6
CONTINUOUS
10
139.967
20
-140.165
11
139.913
21
-140.246
0
LINE
8
BLACK
6
CONTINUOUS
10
139.913
20
-140.246
11
139.832
21
-140.3
0
LINE
8
BLACK
6
CONTINUOUS
10
139.832
20
-140.3
11
139.736
21
-140.319
0
LINE
8
BLACK
6
CONTINUOUS
10
139.736
20
-140.319
11
138.836
21
-140.319
0
LINE
8
BLACK
6
CONTINUOUS
10
138.836
20
-140.319
11
138.74
21
-140.3
0
LINE
8
BLACK
6
CONTINUOUS
10
138.74
20
-140.3
11
138.659
21
-140.246
0
LINE
8
BLACK
6
CONTINUOUS
10
138.659
20
-140.246
11
138.605
21
-140.165
0
LINE
8
BLACK
6
CONTINUOUS
10
138.605
20
-140.165
11
138.586
21
-140.069
0
LINE
8
BLACK
6
CONTINUOUS
10
138.586
20
-140.069
11
138.586
21
-139.219
0
LINE
8
BLACK
6
CONTINUOUS
10
138.586
20
-139.219
11
138.605
21
-139.123
0
LINE
8
BLACK
6
CONTINUOUS
10
138.605
20
-139.123
11
138.659
21
-139.042
0
LINE
8
BLACK
6
CONTINUOUS
10
138.659
20
-139.042
11
138.74
21
-138.988
0
LINE
8
BLACK
6
CONTINUOUS
10
138.74
20
-138.988
11
138.836
21
-138.969
0
LINE
8
BLACK
6
CONTINUOUS
10
138.836
20
-138.969
11
139.736
21
-138.969
0
LINE
8
BLACK
6
CONTINUOUS
10
139.736
20
-138.969
11
139.832
21
-138.988
0
LINE
8
BLACK
6
CONTINUOUS
10
142.532
20
-138.988
11
142.613
21
-139.042
0
LINE
8
BLACK
6
CONTINUOUS
10
142.613
20
-139.042
11
142.667
21
-139.123
0
LINE
8
BLACK
6
CONTINUOUS
10
142.667
20
-139.123
11
142.686
21
-139.219
0
LINE
8
BLACK
6
CONTINUOUS
10
142.686
20
-139.219
11
142.686
21
-140.069
0
LINE
8
BLACK
6
CONTINUOUS
10
142.686
20
-140.069
11
142.667
21
-140.165
0
LINE
8
BLACK
6
CONTINUOUS
10
142.667
20
-140.165
11
142.613
21
-140.246
0
LINE
8
BLACK
6
CONTINUOUS
10
142.613
20
-140.246
11
142.532
21
-140.3
0
LINE
8
BLACK
6
CONTINUOUS
10
142.532
20
-140.3
11
142.436
21
-140.319
0
LINE
8
BLACK
6
CONTINUOUS
10
142.436
20
-140.319
11
141.536
21
-140.319
0
LINE
8
BLACK
6
CONTINUOUS
10
141.536
20
-140.319
11
141.44
21
-140.3
0
LINE
8
BLACK
6
CONTINUOUS
10
141.44
20
-140.3
11
141.359
21
-140.246
0
LINE
8
BLACK
6
CONTINUOUS
10
141.359
20
-140.246
11
141.305
21
-140.165
0
LINE
8
BLACK
6
CONTINUOUS
10
141.305
20
-140.165
11
141.286
21
-140.069
0
LINE
8
BLACK
6
CONTINUOUS
10
141.286
20
-140.069
11
141.286
21
-139.219
0
LINE
8
BLACK
6
CONTINUOUS
10
141.286
20
-139.219
11
141.305
21
-139.123
0
LINE
8
BLACK
6
CONTINUOUS
10
141.305
20
-139.123
11
141.359
21
-139.042
0
LINE
8
BLACK
6
CONTINUOUS
10
141.359
20
-139.042
11
141.44
21
-138.988
0
LINE
8
BLACK
6
CONTINUOUS
10
141.44
20
-138.988
11
141.536
21
-138.969
0
LINE
8
BLACK
6
CONTINUOUS
10
141.536
20
-138.969
11
142.436
21
-138.969
0
LINE
8
BLACK
6
CONTINUOUS
10
142.436
20
-138.969
11
142.532
21
-138.988
0
LINE
8
BLACK
6
CONTINUOUS
10
137.246
20
-140.069
11
135.246
21
-140.069
0
LINE
8
BLACK
6
CONTINUOUS
10
135.246
20
-140.069
11
135.246
21
-138.569
0
LINE
8
BLACK
6
CONTINUOUS
10
135.246
20
-138.569
11
137.246
21
-138.569
0
LINE
8
BLACK
6
CONTINUOUS
10
137.246
20
-138.569
11
137.246
21
-140.069
0
LINE
8
BLACK
6
CONTINUOUS
10
145.64
20
-137.918
11
145.704
21
-137.962
0
LINE
8
BLACK
6
CONTINUOUS
10
145.704
20
-137.962
11
145.748
21
-138.026
0
LINE
8
BLACK
6
CONTINUOUS
10
145.748
20
-138.026
11
145.763
21
-138.103
0
LINE
8
BLACK
6
CONTINUOUS
10
145.763
20
-138.103
11
145.763
21
-138.503
0
LINE
8
BLACK
6
CONTINUOUS
10
145.763
20
-138.503
11
145.748
21
-138.58
0
LINE
8
BLACK
6
CONTINUOUS
10
145.748
20
-138.58
11
145.704
21
-138.644
0
LINE
8
BLACK
6
CONTINUOUS
10
145.704
20
-138.644
11
145.64
21
-138.688
0
LINE
8
BLACK
6
CONTINUOUS
10
145.64
20
-138.688
11
145.563
21
-138.703
0
LINE
8
BLACK
6
CONTINUOUS
10
145.563
20
-138.703
11
145.013
21
-138.703
0
LINE
8
BLACK
6
CONTINUOUS
10
145.013
20
-138.703
11
144.936
21
-138.688
0
LINE
8
BLACK
6
CONTINUOUS
10
144.936
20
-138.688
11
144.872
21
-138.644
0
LINE
8
BLACK
6
CONTINUOUS
10
144.872
20
-138.644
11
144.828
21
-138.58
0
LINE
8
BLACK
6
CONTINUOUS
10
144.828
20
-138.58
11
144.813
21
-138.503
0
LINE
8
BLACK
6
CONTINUOUS
10
144.813
20
-138.503
11
144.813
21
-138.103
0
LINE
8
BLACK
6
CONTINUOUS
10
144.813
20
-138.103
11
144.828
21
-138.026
0
LINE
8
BLACK
6
CONTINUOUS
10
144.828
20
-138.026
11
144.872
21
-137.962
0
LINE
8
BLACK
6
CONTINUOUS
10
144.872
20
-137.962
11
144.936
21
-137.918
0
LINE
8
BLACK
6
CONTINUOUS
10
144.936
20
-137.918
11
145.013
21
-137.903
0
LINE
8
BLACK
6
CONTINUOUS
10
145.013
20
-137.903
11
145.563
21
-137.903
0
LINE
8
BLACK
6
CONTINUOUS
10
145.563
20
-137.903
11
145.64
21
-137.918
0
LINE
8
BLACK
6
CONTINUOUS
10
137.246
20
-137.769
11
135.246
21
-137.769
0
LINE
8
BLACK
6
CONTINUOUS
10
135.246
20
-137.769
11
135.246
21
-136.269
0
LINE
8
BLACK
6
CONTINUOUS
10
135.246
20
-136.269
11
137.246
21
-136.269
0
LINE
8
BLACK
6
CONTINUOUS
10
137.246
20
-136.269
11
137.246
21
-137.769
0
LINE
8
BLACK
6
CONTINUOUS
10
156.544
20
-135.499
11
156.593
21
-135.532
0
LINE
8
BLACK
6
CONTINUOUS
10
156.593
20
-135.532
11
156.626
21
-135.581
0
LINE
8
BLACK
6
CONTINUOUS
10
156.626
20
-135.581
11
156.637
21
-135.638
0
LINE
8
BLACK
6
CONTINUOUS
10
156.637
20
-135.638
11
156.637
21
-137.278
0
LINE
8
BLACK
6
CONTINUOUS
10
156.637
20
-137.278
11
156.626
21
-137.335
0
LINE
8
BLACK
6
CONTINUOUS
10
156.626
20
-137.335
11
156.593
21
-137.384
0
LINE
8
BLACK
6
CONTINUOUS
10
156.593
20
-137.384
11
156.544
21
-137.417
0
LINE
8
BLACK
6
CONTINUOUS
10
156.544
20
-137.417
11
156.487
21
-137.428
0
LINE
8
BLACK
6
CONTINUOUS
10
156.487
20
-137.428
11
156.187
21
-137.428
0
LINE
8
BLACK
6
CONTINUOUS
10
156.187
20
-137.428
11
156.13
21
-137.417
0
LINE
8
BLACK
6
CONTINUOUS
10
156.13
20
-137.417
11
156.081
21
-137.384
0
LINE
8
BLACK
6
CONTINUOUS
10
156.081
20
-137.384
11
156.048
21
-137.335
0
LINE
8
BLACK
6
CONTINUOUS
10
156.048
20
-137.335
11
156.037
21
-137.278
0
LINE
8
BLACK
6
CONTINUOUS
10
156.037
20
-137.278
11
156.037
21
-135.638
0
LINE
8
BLACK
6
CONTINUOUS
10
156.037
20
-135.638
11
156.048
21
-135.581
0
LINE
8
BLACK
6
CONTINUOUS
10
156.048
20
-135.581
11
156.081
21
-135.532
0
LINE
8
BLACK
6
CONTINUOUS
10
156.081
20
-135.532
11
156.13
21
-135.499
0
LINE
8
BLACK
6
CONTINUOUS
10
156.13
20
-135.499
11
156.187
21
-135.488
0
LINE
8
BLACK
6
CONTINUOUS
10
156.187
20
-135.488
11
156.487
21
-135.488
0
LINE
8
BLACK
6
CONTINUOUS
10
156.487
20
-135.488
11
156.544
21
-135.499
0
LINE
8
BLACK
6
CONTINUOUS
10
157.814
20
-135.499
11
157.863
21
-135.532
0
LINE
8
BLACK
6
CONTINUOUS
10
157.863
20
-135.532
11
157.896
21
-135.581
0
LINE
8
BLACK
6
CONTINUOUS
10
157.896
20
-135.581
11
157.907
21
-135.638
0
LINE
8
BLACK
6
CONTINUOUS
10
157.907
20
-135.638
11
157.907
21
-137.278
0
LINE
8
BLACK
6
CONTINUOUS
10
157.907
20
-137.278
11
157.896
21
-137.335
0
LINE
8
BLACK
6
CONTINUOUS
10
157.896
20
-137.335
11
157.863
21
-137.384
0
LINE
8
BLACK
6
CONTINUOUS
10
157.863
20
-137.384
11
157.814
21
-137.417
0
LINE
8
BLACK
6
CONTINUOUS
10
157.814
20
-137.417
11
157.757
21
-137.428
0
LINE
8
BLACK
6
CONTINUOUS
10
157.757
20
-137.428
11
157.457
21
-137.428
0
LINE
8
BLACK
6
CONTINUOUS
10
157.457
20
-137.428
11
157.4
21
-137.417
0
LINE
8
BLACK
6
CONTINUOUS
10
157.4
20
-137.417
11
157.351
21
-137.384
0
LINE
8
BLACK
6
CONTINUOUS
10
157.351
20
-137.384
11
157.318
21
-137.335
0
LINE
8
BLACK
6
CONTINUOUS
10
157.318
20
-137.335
11
157.307
21
-137.278
0
LINE
8
BLACK
6
CONTINUOUS
10
157.307
20
-137.278
11
157.307
21
-135.638
0
LINE
8
BLACK
6
CONTINUOUS
10
157.307
20
-135.638
11
157.318
21
-135.581
0
LINE
8
BLACK
6
CONTINUOUS
10
157.318
20
-135.581
11
157.351
21
-135.532
0
LINE
8
BLACK
6
CONTINUOUS
10
157.351
20
-135.532
11
157.4
21
-135.499
0
LINE
8
BLACK
6
CONTINUOUS
10
157.4
20
-135.499
11
157.457
21
-135.488
0
LINE
8
BLACK
6
CONTINUOUS
10
157.457
20
-135.488
11
157.757
21
-135.488
0
LINE
8
BLACK
6
CONTINUOUS
10
157.757
20
-135.488
11
157.814
21
-135.499
0
LINE
8
BLACK
6
CONTINUOUS
10
159.084
20
-135.499
11
159.133
21
-135.532
0
LINE
8
BLACK
6
CONTINUOUS
10
159.133
20
-135.532
11
159.166
21
-135.581
0
LINE
8
BLACK
6
CONTINUOUS
10
159.166
20
-135.581
11
159.177
21
-135.638
0
LINE
8
BLACK
6
CONTINUOUS
10
159.177
20
-135.638
11
159.177
21
-137.278
0
LINE
8
BLACK
6
CONTINUOUS
10
159.177
20
-137.278
11
159.166
21
-137.335
0
LINE
8
BLACK
6
CONTINUOUS
10
159.166
20
-137.335
11
159.133
21
-137.384
0
LINE
8
BLACK
6
CONTINUOUS
10
159.133
20
-137.384
11
159.084
21
-137.417
0
LINE
8
BLACK
6
CONTINUOUS
10
159.084
20
-137.417
11
159.027
21
-137.428
0
LINE
8
BLACK
6
CONTINUOUS
10
159.027
20
-137.428
11
158.727
21
-137.428
0
LINE
8
BLACK
6
CONTINUOUS
10
158.727
20
-137.428
11
158.67
21
-137.417
0
LINE
8
BLACK
6
CONTINUOUS
10
158.67
20
-137.417
11
158.621
21
-137.384
0
LINE
8
BLACK
6
CONTINUOUS
10
158.621
20
-137.384
11
158.588
21
-137.335
0
LINE
8
BLACK
6
CONTINUOUS
10
158.588
20
-137.335
11
158.577
21
-137.278
0
LINE
8
BLACK
6
CONTINUOUS
10
158.577
20
-137.278
11
158.577
21
-135.638
0
LINE
8
BLACK
6
CONTINUOUS
10
158.577
20
-135.638
11
158.588
21
-135.581
0
LINE
8
BLACK
6
CONTINUOUS
10
158.588
20
-135.581
11
158.621
21
-135.532
0
LINE
8
BLACK
6
CONTINUOUS
10
158.621
20
-135.532
11
158.67
21
-135.499
0
LINE
8
BLACK
6
CONTINUOUS
10
158.67
20
-135.499
11
158.727
21
-135.488
0
LINE
8
BLACK
6
CONTINUOUS
10
158.727
20
-135.488
11
159.027
21
-135.488
0
LINE
8
BLACK
6
CONTINUOUS
10
159.027
20
-135.488
11
159.084
21
-135.499
0
LINE
8
BLACK
6
CONTINUOUS
10
160.354
20
-135.499
11
160.403
21
-135.532
0
LINE
8
BLACK
6
CONTINUOUS
10
160.403
20
-135.532
11
160.436
21
-135.581
0
LINE
8
BLACK
6
CONTINUOUS
10
160.436
20
-135.581
11
160.447
21
-135.638
0
LINE
8
BLACK
6
CONTINUOUS
10
160.447
20
-135.638
11
160.447
21
-137.278
0
LINE
8
BLACK
6
CONTINUOUS
10
160.447
20
-137.278
11
160.436
21
-137.335
0
LINE
8
BLACK
6
CONTINUOUS
10
160.436
20
-137.335
11
160.403
21
-137.384
0
LINE
8
BLACK
6
CONTINUOUS
10
160.403
20
-137.384
11
160.354
21
-137.417
0
LINE
8
BLACK
6
CONTINUOUS
10
160.354
20
-137.417
11
160.297
21
-137.428
0
LINE
8
BLACK
6
CONTINUOUS
10
160.297
20
-137.428
11
159.997
21
-137.428
0
LINE
8
BLACK
6
CONTINUOUS
10
159.997
20
-137.428
11
159.94
21
-137.417
0
LINE
8
BLACK
6
CONTINUOUS
10
159.94
20
-137.417
11
159.891
21
-137.384
0
LINE
8
BLACK
6
CONTINUOUS
10
159.891
20
-137.384
11
159.858
21
-137.335
0
LINE
8
BLACK
6
CONTINUOUS
10
159.858
20
-137.335
11
159.847
21
-137.278
0
LINE
8
BLACK
6
CONTINUOUS
10
159.847
20
-137.278
11
159.847
21
-135.638
0
LINE
8
BLACK
6
CONTINUOUS
10
159.847
20
-135.638
11
159.858
21
-135.581
0
LINE
8
BLACK
6
CONTINUOUS
10
159.858
20
-135.581
11
159.891
21
-135.532
0
LINE
8
BLACK
6
CONTINUOUS
10
159.891
20
-135.532
11
159.94
21
-135.499
0
LINE
8
BLACK
6
CONTINUOUS
10
159.94
20
-135.499
11
159.997
21
-135.488
0
LINE
8
BLACK
6
CONTINUOUS
10
159.997
20
-135.488
11
160.297
21
-135.488
0
LINE
8
BLACK
6
CONTINUOUS
10
160.297
20
-135.488
11
160.354
21
-135.499
0
LINE
8
BLACK
6
CONTINUOUS
10
139.912
20
-136.038
11
139.993
21
-136.092
0
LINE
8
BLACK
6
CONTINUOUS
10
139.993
20
-136.092
11
140.047
21
-136.173
0
LINE
8
BLACK
6
CONTINUOUS
10
140.047
20
-136.173
11
140.066
21
-136.269
0
LINE
8
BLACK
6
CONTINUOUS
10
140.066
20
-136.269
11
140.066
21
-137.119
0
LINE
8
BLACK
6
CONTINUOUS
10
140.066
20
-137.119
11
140.047
21
-137.215
0
LINE
8
BLACK
6
CONTINUOUS
10
140.047
20
-137.215
11
139.993
21
-137.296
0
LINE
8
BLACK
6
CONTINUOUS
10
139.993
20
-137.296
11
139.912
21
-137.35
0
LINE
8
BLACK
6
CONTINUOUS
10
139.912
20
-137.35
11
139.816
21
-137.369
0
LINE
8
BLACK
6
CONTINUOUS
10
139.816
20
-137.369
11
138.916
21
-137.369
0
LINE
8
BLACK
6
CONTINUOUS
10
138.916
20
-137.369
11
138.82
21
-137.35
0
LINE
8
BLACK
6
CONTINUOUS
10
138.82
20
-137.35
11
138.739
21
-137.296
0
LINE
8
BLACK
6
CONTINUOUS
10
138.739
20
-137.296
11
138.685
21
-137.215
0
LINE
8
BLACK
6
CONTINUOUS
10
138.685
20
-137.215
11
138.666
21
-137.119
0
LINE
8
BLACK
6
CONTINUOUS
10
138.666
20
-137.119
11
138.666
21
-136.269
0
LINE
8
BLACK
6
CONTINUOUS
10
138.666
20
-136.269
11
138.685
21
-136.173
0
LINE
8
BLACK
6
CONTINUOUS
10
138.685
20
-136.173
11
138.739
21
-136.092
0
LINE
8
BLACK
6
CONTINUOUS
10
138.739
20
-136.092
11
138.82
21
-136.038
0
LINE
8
BLACK
6
CONTINUOUS
10
138.82
20
-136.038
11
138.916
21
-136.019
0
LINE
8
BLACK
6
CONTINUOUS
10
138.916
20
-136.019
11
139.816
21
-136.019
0
LINE
8
BLACK
6
CONTINUOUS
10
139.816
20
-136.019
11
139.912
21
-136.038
0
LINE
8
BLACK
6
CONTINUOUS
10
142.612
20
-136.038
11
142.693
21
-136.092
0
LINE
8
BLACK
6
CONTINUOUS
10
142.693
20
-136.092
11
142.747
21
-136.173
0
LINE
8
BLACK
6
CONTINUOUS
10
142.747
20
-136.173
11
142.766
21
-136.269
0
LINE
8
BLACK
6
CONTINUOUS
10
142.766
20
-136.269
11
142.766
21
-137.119
0
LINE
8
BLACK
6
CONTINUOUS
10
142.766
20
-137.119
11
142.747
21
-137.215
0
LINE
8
BLACK
6
CONTINUOUS
10
142.747
20
-137.215
11
142.693
21
-137.296
0
LINE
8
BLACK
6
CONTINUOUS
10
142.693
20
-137.296
11
142.612
21
-137.35
0
LINE
8
BLACK
6
CONTINUOUS
10
142.612
20
-137.35
11
142.516
21
-137.369
0
LINE
8
BLACK
6
CONTINUOUS
10
142.516
20
-137.369
11
141.616
21
-137.369
0
LINE
8
BLACK
6
CONTINUOUS
10
141.616
20
-137.369
11
141.52
21
-137.35
0
LINE
8
BLACK
6
CONTINUOUS
10
141.52
20
-137.35
11
141.439
21
-137.296
0
LINE
8
BLACK
6
CONTINUOUS
10
141.439
20
-137.296
11
141.385
21
-137.215
0
LINE
8
BLACK
6
CONTINUOUS
10
141.385
20
-137.215
11
141.366
21
-137.119
0
LINE
8
BLACK
6
CONTINUOUS
10
141.366
20
-137.119
11
141.366
21
-136.269
0
LINE
8
BLACK
6
CONTINUOUS
10
141.366
20
-136.269
11
141.385
21
-136.173
0
LINE
8
BLACK
6
CONTINUOUS
10
141.385
20
-136.173
11
141.439
21
-136.092
0
LINE
8
BLACK
6
CONTINUOUS
10
141.439
20
-136.092
11
141.52
21
-136.038
0
LINE
8
BLACK
6
CONTINUOUS
10
141.52
20
-136.038
11
141.616
21
-136.019
0
LINE
8
BLACK
6
CONTINUOUS
10
141.616
20
-136.019
11
142.516
21
-136.019
0
LINE
8
BLACK
6
CONTINUOUS
10
142.516
20
-136.019
11
142.612
21
-136.038
0
LINE
8
BLACK
6
CONTINUOUS
10
137.246
20
-134.114
11
135.246
21
-134.114
0
LINE
8
BLACK
6
CONTINUOUS
10
135.246
20
-134.114
11
135.246
21
-132.614
0
LINE
8
BLACK
6
CONTINUOUS
10
135.246
20
-132.614
11
137.246
21
-132.614
0
LINE
8
BLACK
6
CONTINUOUS
10
137.246
20
-132.614
11
137.246
21
-134.114
0
LINE
8
BLACK
6
CONTINUOUS
10
130.946
20
-132.964
11
128.946
21
-132.964
0
LINE
8
BLACK
6
CONTINUOUS
10
128.946
20
-132.964
11
128.946
21
-129.164
0
LINE
8
BLACK
6
CONTINUOUS
10
128.946
20
-129.164
11
130.946
21
-129.164
0
LINE
8
BLACK
6
CONTINUOUS
10
130.946
20
-129.164
11
130.946
21
-132.964
0
LINE
8
BLACK
6
CONTINUOUS
10
139.912
20
-130.733
11
139.993
21
-130.787
0
LINE
8
BLACK
6
CONTINUOUS
10
139.993
20
-130.787
11
140.047
21
-130.868
0
LINE
8
BLACK
6
CONTINUOUS
10
140.047
20
-130.868
11
140.066
21
-130.964
0
LINE
8
BLACK
6
CONTINUOUS
10
140.066
20
-130.964
11
140.066
21
-131.814
0
LINE
8
BLACK
6
CONTINUOUS
10
140.066
20
-131.814
11
140.047
21
-131.91
0
LINE
8
BLACK
6
CONTINUOUS
10
140.047
20
-131.91
11
139.993
21
-131.991
0
LINE
8
BLACK
6
CONTINUOUS
10
139.993
20
-131.991
11
139.912
21
-132.045
0
LINE
8
BLACK
6
CONTINUOUS
10
139.912
20
-132.045
11
139.816
21
-132.064
0
LINE
8
BLACK
6
CONTINUOUS
10
139.816
20
-132.064
11
138.916
21
-132.064
0
LINE
8
BLACK
6
CONTINUOUS
10
138.916
20
-132.064
11
138.82
21
-132.045
0
LINE
8
BLACK
6
CONTINUOUS
10
138.82
20
-132.045
11
138.739
21
-131.991
0
LINE
8
BLACK
6
CONTINUOUS
10
138.739
20
-131.991
11
138.685
21
-131.91
0
LINE
8
BLACK
6
CONTINUOUS
10
138.685
20
-131.91
11
138.666
21
-131.814
0
LINE
8
BLACK
6
CONTINUOUS
10
138.666
20
-131.814
11
138.666
21
-130.964
0
LINE
8
BLACK
6
CONTINUOUS
10
138.666
20
-130.964
11
138.685
21
-130.868
0
LINE
8
BLACK
6
CONTINUOUS
10
138.685
20
-130.868
11
138.739
21
-130.787
0
LINE
8
BLACK
6
CONTINUOUS
10
138.739
20
-130.787
11
138.82
21
-130.733
0
LINE
8
BLACK
6
CONTINUOUS
10
138.82
20
-130.733
11
138.916
21
-130.714
0
LINE
8
BLACK
6
CONTINUOUS
10
138.916
20
-130.714
11
139.816
21
-130.714
0
LINE
8
BLACK
6
CONTINUOUS
10
139.816
20
-130.714
11
139.912
21
-130.733
0
LINE
8
BLACK
6
CONTINUOUS
10
142.612
20
-130.733
11
142.693
21
-130.787
0
LINE
8
BLACK
6
CONTINUOUS
10
142.693
20
-130.787
11
142.747
21
-130.868
0
LINE
8
BLACK
6
CONTINUOUS
10
142.747
20
-130.868
11
142.766
21
-130.964
0
LINE
8
BLACK
6
CONTINUOUS
10
142.766
20
-130.964
11
142.766
21
-131.814
0
LINE
8
BLACK
6
CONTINUOUS
10
142.766
20
-131.814
11
142.747
21
-131.91
0
LINE
8
BLACK
6
CONTINUOUS
10
142.747
20
-131.91
11
142.693
21
-131.991
0
LINE
8
BLACK
6
CONTINUOUS
10
142.693
20
-131.991
11
142.612
21
-132.045
0
LINE
8
BLACK
6
CONTINUOUS
10
142.612
20
-132.045
11
142.516
21
-132.064
0
LINE
8
BLACK
6
CONTINUOUS
10
142.516
20
-132.064
11
141.616
21
-132.064
0
LINE
8
BLACK
6
CONTINUOUS
10
141.616
20
-132.064
11
141.52
21
-132.045
0
LINE
8
BLACK
6
CONTINUOUS
10
141.52
20
-132.045
11
141.439
21
-131.991
0
LINE
8
BLACK
6
CONTINUOUS
10
141.439
20
-131.991
11
141.385
21
-131.91
0
LINE
8
BLACK
6
CONTINUOUS
10
141.385
20
-131.91
11
141.366
21
-131.814
0
LINE
8
BLACK
6
CONTINUOUS
10
141.366
20
-131.814
11
141.366
21
-130.964
0
LINE
8
BLACK
6
CONTINUOUS
10
141.366
20
-130.964
11
141.385
21
-130.868
0
LINE
8
BLACK
6
CONTINUOUS
10
141.385
20
-130.868
11
141.439
21
-130.787
0
LINE
8
BLACK
6
CONTINUOUS
10
141.439
20
-130.787
11
141.52
21
-130.733
0
LINE
8
BLACK
6
CONTINUOUS
10
141.52
20
-130.733
11
141.616
21
-130.714
0
LINE
8
BLACK
6
CONTINUOUS
10
141.616
20
-130.714
11
142.516
21
-130.714
0
LINE
8
BLACK
6
CONTINUOUS
10
142.516
20
-130.714
11
142.612
21
-130.733
0
LINE
8
BLACK
6
CONTINUOUS
10
137.246
20
-131.814
11
135.246
21
-131.814
0
LINE
8
BLACK
6
CONTINUOUS
10
135.246
20
-131.814
11
135.246
21
-130.314
0
LINE
8
BLACK
6
CONTINUOUS
10
135.246
20
-130.314
11
137.246
21
-130.314
0
LINE
8
BLACK
6
CONTINUOUS
10
137.246
20
-130.314
11
137.246
21
-131.814
0
LINE
8
BLACK
6
CONTINUOUS
10
121.912
20
-130.029
11
121.993
21
-130.083
0
LINE
8
BLACK
6
CONTINUOUS
10
121.993
20
-130.083
11
122.047
21
-130.164
0
LINE
8
BLACK
6
CONTINUOUS
10
122.047
20
-130.164
11
122.066
21
-130.26
0
LINE
8
BLACK
6
CONTINUOUS
10
122.066
20
-130.26
11
122.066
21
-131.36
0
LINE
8
BLACK
6
CONTINUOUS
10
122.066
20
-131.36
11
122.047
21
-131.456
0
LINE
8
BLACK
6
CONTINUOUS
10
122.047
20
-131.456
11
121.993
21
-131.537
0
LINE
8
BLACK
6
CONTINUOUS
10
121.993
20
-131.537
11
121.912
21
-131.591
0
LINE
8
BLACK
6
CONTINUOUS
10
121.912
20
-131.591
11
121.816
21
-131.61
0
LINE
8
BLACK
6
CONTINUOUS
10
121.816
20
-131.61
11
118.816
21
-131.61
0
LINE
8
BLACK
6
CONTINUOUS
10
118.816
20
-131.61
11
118.72
21
-131.591
0
LINE
8
BLACK
6
CONTINUOUS
10
118.72
20
-131.591
11
118.639
21
-131.537
0
LINE
8
BLACK
6
CONTINUOUS
10
118.639
20
-131.537
11
118.585
21
-131.456
0
LINE
8
BLACK
6
CONTINUOUS
10
118.585
20
-131.456
11
118.566
21
-131.36
0
LINE
8
BLACK
6
CONTINUOUS
10
118.566
20
-131.36
11
118.566
21
-130.26
0
LINE
8
BLACK
6
CONTINUOUS
10
118.566
20
-130.26
11
118.585
21
-130.164
0
LINE
8
BLACK
6
CONTINUOUS
10
118.585
20
-130.164
11
118.639
21
-130.083
0
LINE
8
BLACK
6
CONTINUOUS
10
118.639
20
-130.083
11
118.72
21
-130.029
0
LINE
8
BLACK
6
CONTINUOUS
10
118.72
20
-130.029
11
118.816
21
-130.01
0
LINE
8
BLACK
6
CONTINUOUS
10
118.816
20
-130.01
11
121.816
21
-130.01
0
LINE
8
BLACK
6
CONTINUOUS
10
121.816
20
-130.01
11
121.912
21
-130.029
0
LINE
8
BLACK
6
CONTINUOUS
10
127.312
20
-130.029
11
127.393
21
-130.083
0
LINE
8
BLACK
6
CONTINUOUS
10
127.393
20
-130.083
11
127.447
21
-130.164
0
LINE
8
BLACK
6
CONTINUOUS
10
127.447
20
-130.164
11
127.466
21
-130.26
0
LINE
8
BLACK
6
CONTINUOUS
10
127.466
20
-130.26
11
127.466
21
-131.36
0
LINE
8
BLACK
6
CONTINUOUS
10
127.466
20
-131.36
11
127.447
21
-131.456
0
LINE
8
BLACK
6
CONTINUOUS
10
127.447
20
-131.456
11
127.393
21
-131.537
0
LINE
8
BLACK
6
CONTINUOUS
10
127.393
20
-131.537
11
127.312
21
-131.591
0
LINE
8
BLACK
6
CONTINUOUS
10
127.312
20
-131.591
11
127.216
21
-131.61
0
LINE
8
BLACK
6
CONTINUOUS
10
127.216
20
-131.61
11
124.216
21
-131.61
0
LINE
8
BLACK
6
CONTINUOUS
10
124.216
20
-131.61
11
124.12
21
-131.591
0
LINE
8
BLACK
6
CONTINUOUS
10
124.12
20
-131.591
11
124.039
21
-131.537
0
LINE
8
BLACK
6
CONTINUOUS
10
124.039
20
-131.537
11
123.985
21
-131.456
0
LINE
8
BLACK
6
CONTINUOUS
10
123.985
20
-131.456
11
123.966
21
-131.36
0
LINE
8
BLACK
6
CONTINUOUS
10
123.966
20
-131.36
11
123.966
21
-130.26
0
LINE
8
BLACK
6
CONTINUOUS
10
123.966
20
-130.26
11
123.985
21
-130.164
0
LINE
8
BLACK
6
CONTINUOUS
10
123.985
20
-130.164
11
124.039
21
-130.083
0
LINE
8
BLACK
6
CONTINUOUS
10
124.039
20
-130.083
11
124.12
21
-130.029
0
LINE
8
BLACK
6
CONTINUOUS
10
124.12
20
-130.029
11
124.216
21
-130.01
0
LINE
8
BLACK
6
CONTINUOUS
10
124.216
20
-130.01
11
127.216
21
-130.01
0
LINE
8
BLACK
6
CONTINUOUS
10
127.216
20
-130.01
11
127.312
21
-130.029
0
LINE
8
BLACK
6
CONTINUOUS
10
137.246
20
-129.514
11
135.246
21
-129.514
0
LINE
8
BLACK
6
CONTINUOUS
10
135.246
20
-129.514
11
135.246
21
-128.014
0
LINE
8
BLACK
6
CONTINUOUS
10
135.246
20
-128.014
11
137.246
21
-128.014
0
LINE
8
BLACK
6
CONTINUOUS
10
137.246
20
-128.014
11
137.246
21
-129.514
0
LINE
8
BLACK
6
CONTINUOUS
10
139.912
20
-127.783
11
139.993
21
-127.837
0
LINE
8
BLACK
6
CONTINUOUS
10
139.993
20
-127.837
11
140.047
21
-127.918
0
LINE
8
BLACK
6
CONTINUOUS
10
140.047
20
-127.918
11
140.066
21
-128.014
0
LINE
8
BLACK
6
CONTINUOUS
10
140.066
20
-128.014
11
140.066
21
-128.864
0
LINE
8
BLACK
6
CONTINUOUS
10
140.066
20
-128.864
11
140.047
21
-128.96
0
LINE
8
BLACK
6
CONTINUOUS
10
140.047
20
-128.96
11
139.993
21
-129.041
0
LINE
8
BLACK
6
CONTINUOUS
10
139.993
20
-129.041
11
139.912
21
-129.095
0
LINE
8
BLACK
6
CONTINUOUS
10
139.912
20
-129.095
11
139.816
21
-129.114
0
LINE
8
BLACK
6
CONTINUOUS
10
139.816
20
-129.114
11
138.916
21
-129.114
0
LINE
8
BLACK
6
CONTINUOUS
10
138.916
20
-129.114
11
138.82
21
-129.095
0
LINE
8
BLACK
6
CONTINUOUS
10
138.82
20
-129.095
11
138.739
21
-129.041
0
LINE
8
BLACK
6
CONTINUOUS
10
138.739
20
-129.041
11
138.685
21
-128.96
0
LINE
8
BLACK
6
CONTINUOUS
10
138.685
20
-128.96
11
138.666
21
-128.864
0
LINE
8
BLACK
6
CONTINUOUS
10
138.666
20
-128.864
11
138.666
21
-128.014
0
LINE
8
BLACK
6
CONTINUOUS
10
138.666
20
-128.014
11
138.685
21
-127.918
0
LINE
8
BLACK
6
CONTINUOUS
10
138.685
20
-127.918
11
138.739
21
-127.837
0
LINE
8
BLACK
6
CONTINUOUS
10
138.739
20
-127.837
11
138.82
21
-127.783
0
LINE
8
BLACK
6
CONTINUOUS
10
138.82
20
-127.783
11
138.916
21
-127.764
0
LINE
8
BLACK
6
CONTINUOUS
10
138.916
20
-127.764
11
139.816
21
-127.764
0
LINE
8
BLACK
6
CONTINUOUS
10
139.816
20
-127.764
11
139.912
21
-127.783
0
LINE
8
BLACK
6
CONTINUOUS
10
142.612
20
-127.783
11
142.693
21
-127.837
0
LINE
8
BLACK
6
CONTINUOUS
10
142.693
20
-127.837
11
142.747
21
-127.918
0
LINE
8
BLACK
6
CONTINUOUS
10
142.747
20
-127.918
11
142.766
21
-128.014
0
LINE
8
BLACK
6
CONTINUOUS
10
142.766
20
-128.014
11
142.766
21
-128.864
0
LINE
8
BLACK
6
CONTINUOUS
10
142.766
20
-128.864
11
142.747
21
-128.96
0
LINE
8
BLACK
6
CONTINUOUS
10
142.747
20
-128.96
11
142.693
21
-129.041
0
LINE
8
BLACK
6
CONTINUOUS
10
142.693
20
-129.041
11
142.612
21
-129.095
0
LINE
8
BLACK
6
CONTINUOUS
10
142.612
20
-129.095
11
142.516
21
-129.114
0
LINE
8
BLACK
6
CONTINUOUS
10
142.516
20
-129.114
11
141.616
21
-129.114
0
LINE
8
BLACK
6
CONTINUOUS
10
141.616
20
-129.114
11
141.52
21
-129.095
0
LINE
8
BLACK
6
CONTINUOUS
10
141.52
20
-129.095
11
141.439
21
-129.041
0
LINE
8
BLACK
6
CONTINUOUS
10
141.439
20
-129.041
11
141.385
21
-128.96
0
LINE
8
BLACK
6
CONTINUOUS
10
141.385
20
-128.96
11
141.366
21
-128.864
0
LINE
8
BLACK
6
CONTINUOUS
10
141.366
20
-128.864
11
141.366
21
-128.014
0
LINE
8
BLACK
6
CONTINUOUS
10
141.366
20
-128.014
11
141.385
21
-127.918
0
LINE
8
BLACK
6
CONTINUOUS
10
141.385
20
-127.918
11
141.439
21
-127.837
0
LINE
8
BLACK
6
CONTINUOUS
10
141.439
20
-127.837
11
141.52
21
-127.783
0
LINE
8
BLACK
6
CONTINUOUS
10
141.52
20
-127.783
11
141.616
21
-127.764
0
LINE
8
BLACK
6
CONTINUOUS
10
141.616
20
-127.764
11
142.516
21
-127.764
0
LINE
8
BLACK
6
CONTINUOUS
10
142.516
20
-127.764
11
142.612
21
-127.783
0
LINE
8
BLACK
6
CONTINUOUS
10
160.424
20
-125.018
11
160.495
21
-125.065
0
LINE
8
BLACK
6
CONTINUOUS
10
160.495
20
-125.065
11
160.542
21
-125.136
0
LINE
8
BLACK
6
CONTINUOUS
10
160.542
20
-125.136
11
160.559
21
-125.22
0
LINE
8
BLACK
6
CONTINUOUS
10
160.559
20
-125.22
11
160.559
21
-125.732
0
LINE
8
BLACK
6
CONTINUOUS
10
160.559
20
-125.732
11
160.542
21
-125.816
0
LINE
8
BLACK
6
CONTINUOUS
10
160.542
20
-125.816
11
160.495
21
-125.887
0
LINE
8
BLACK
6
CONTINUOUS
10
160.495
20
-125.887
11
160.424
21
-125.934
0
LINE
8
BLACK
6
CONTINUOUS
10
160.424
20
-125.934
11
160.34
21
-125.951
0
LINE
8
BLACK
6
CONTINUOUS
10
160.34
20
-125.951
11
159.903
21
-125.951
0
LINE
8
BLACK
6
CONTINUOUS
10
159.903
20
-125.951
11
159.819
21
-125.934
0
LINE
8
BLACK
6
CONTINUOUS
10
159.819
20
-125.934
11
159.748
21
-125.887
0
LINE
8
BLACK
6
CONTINUOUS
10
159.748
20
-125.887
11
159.701
21
-125.816
0
LINE
8
BLACK
6
CONTINUOUS
10
159.701
20
-125.816
11
159.684
21
-125.732
0
LINE
8
BLACK
6
CONTINUOUS
10
159.684
20
-125.732
11
159.684
21
-125.22
0
LINE
8
BLACK
6
CONTINUOUS
10
159.684
20
-125.22
11
159.701
21
-125.136
0
LINE
8
BLACK
6
CONTINUOUS
10
159.701
20
-125.136
11
159.748
21
-125.065
0
LINE
8
BLACK
6
CONTINUOUS
10
159.748
20
-125.065
11
159.819
21
-125.018
0
LINE
8
BLACK
6
CONTINUOUS
10
159.819
20
-125.018
11
159.903
21
-125.001
0
LINE
8
BLACK
6
CONTINUOUS
10
159.903
20
-125.001
11
160.34
21
-125.001
0
LINE
8
BLACK
6
CONTINUOUS
10
160.34
20
-125.001
11
160.424
21
-125.018
0
LINE
8
BLACK
6
CONTINUOUS
10
161.999
20
-125.018
11
162.07
21
-125.065
0
LINE
8
BLACK
6
CONTINUOUS
10
162.07
20
-125.065
11
162.117
21
-125.136
0
LINE
8
BLACK
6
CONTINUOUS
10
162.117
20
-125.136
11
162.134
21
-125.22
0
LINE
8
BLACK
6
CONTINUOUS
10
162.134
20
-125.22
11
162.134
21
-125.732
0
LINE
8
BLACK
6
CONTINUOUS
10
162.134
20
-125.732
11
162.117
21
-125.816
0
LINE
8
BLACK
6
CONTINUOUS
10
162.117
20
-125.816
11
162.07
21
-125.887
0
LINE
8
BLACK
6
CONTINUOUS
10
162.07
20
-125.887
11
161.999
21
-125.934
0
LINE
8
BLACK
6
CONTINUOUS
10
161.999
20
-125.934
11
161.915
21
-125.951
0
LINE
8
BLACK
6
CONTINUOUS
10
161.915
20
-125.951
11
161.478
21
-125.951
0
LINE
8
BLACK
6
CONTINUOUS
10
161.478
20
-125.951
11
161.394
21
-125.934
0
LINE
8
BLACK
6
CONTINUOUS
10
161.394
20
-125.934
11
161.323
21
-125.887
0
LINE
8
BLACK
6
CONTINUOUS
10
161.323
20
-125.887
11
161.276
21
-125.816
0
LINE
8
BLACK
6
CONTINUOUS
10
161.276
20
-125.816
11
161.259
21
-125.732
0
LINE
8
BLACK
6
CONTINUOUS
10
161.259
20
-125.732
11
161.259
21
-125.22
0
LINE
8
BLACK
6
CONTINUOUS
10
161.259
20
-125.22
11
161.276
21
-125.136
0
LINE
8
BLACK
6
CONTINUOUS
10
161.276
20
-125.136
11
161.323
21
-125.065
0
LINE
8
BLACK
6
CONTINUOUS
10
161.323
20
-125.065
11
161.394
21
-125.018
0
LINE
8
BLACK
6
CONTINUOUS
10
161.394
20
-125.018
11
161.478
21
-125.001
0
LINE
8
BLACK
6
CONTINUOUS
10
161.478
20
-125.001
11
161.915
21
-125.001
0
LINE
8
BLACK
6
CONTINUOUS
10
161.915
20
-125.001
11
161.999
21
-125.018
0
LINE
8
BLACK
6
CONTINUOUS
10
179.474
20
-124.891
11
179.545
21
-124.938
0
LINE
8
BLACK
6
CONTINUOUS
10
179.545
20
-124.938
11
179.592
21
-125.009
0
LINE
8
BLACK
6
CONTINUOUS
10
179.592
20
-125.009
11
179.609
21
-125.093
0
LINE
8
BLACK
6
CONTINUOUS
10
179.609
20
-125.093
11
179.609
21
-125.605
0
LINE
8
BLACK
6
CONTINUOUS
10
179.609
20
-125.605
11
179.592
21
-125.689
0
LINE
8
BLACK
6
CONTINUOUS
10
179.592
20
-125.689
11
179.545
21
-125.76
0
LINE
8
BLACK
6
CONTINUOUS
10
179.545
20
-125.76
11
179.474
21
-125.807
0
LINE
8
BLACK
6
CONTINUOUS
10
179.474
20
-125.807
11
179.39
21
-125.824
0
LINE
8
BLACK
6
CONTINUOUS
10
179.39
20
-125.824
11
178.953
21
-125.824
0
LINE
8
BLACK
6
CONTINUOUS
10
178.953
20
-125.824
11
178.869
21
-125.807
0
LINE
8
BLACK
6
CONTINUOUS
10
178.869
20
-125.807
11
178.798
21
-125.76
0
LINE
8
BLACK
6
CONTINUOUS
10
178.798
20
-125.76
11
178.751
21
-125.689
0
LINE
8
BLACK
6
CONTINUOUS
10
178.751
20
-125.689
11
178.734
21
-125.605
0
LINE
8
BLACK
6
CONTINUOUS
10
178.734
20
-125.605
11
178.734
21
-125.093
0
LINE
8
BLACK
6
CONTINUOUS
10
178.734
20
-125.093
11
178.751
21
-125.009
0
LINE
8
BLACK
6
CONTINUOUS
10
178.751
20
-125.009
11
178.798
21
-124.938
0
LINE
8
BLACK
6
CONTINUOUS
10
178.798
20
-124.938
11
178.869
21
-124.891
0
LINE
8
BLACK
6
CONTINUOUS
10
178.869
20
-124.891
11
178.953
21
-124.874
0
LINE
8
BLACK
6
CONTINUOUS
10
178.953
20
-124.874
11
179.39
21
-124.874
0
LINE
8
BLACK
6
CONTINUOUS
10
179.39
20
-124.874
11
179.474
21
-124.891
0
LINE
8
BLACK
6
CONTINUOUS
10
181.049
20
-124.891
11
181.12
21
-124.938
0
LINE
8
BLACK
6
CONTINUOUS
10
181.12
20
-124.938
11
181.167
21
-125.009
0
LINE
8
BLACK
6
CONTINUOUS
10
181.167
20
-125.009
11
181.184
21
-125.093
0
LINE
8
BLACK
6
CONTINUOUS
10
181.184
20
-125.093
11
181.184
21
-125.605
0
LINE
8
BLACK
6
CONTINUOUS
10
181.184
20
-125.605
11
181.167
21
-125.689
0
LINE
8
BLACK
6
CONTINUOUS
10
181.167
20
-125.689
11
181.12
21
-125.76
0
LINE
8
BLACK
6
CONTINUOUS
10
181.12
20
-125.76
11
181.049
21
-125.807
0
LINE
8
BLACK
6
CONTINUOUS
10
181.049
20
-125.807
11
180.965
21
-125.824
0
LINE
8
BLACK
6
CONTINUOUS
10
180.965
20
-125.824
11
180.528
21
-125.824
0
LINE
8
BLACK
6
CONTINUOUS
10
180.528
20
-125.824
11
180.444
21
-125.807
0
LINE
8
BLACK
6
CONTINUOUS
10
180.444
20
-125.807
11
180.373
21
-125.76
0
LINE
8
BLACK
6
CONTINUOUS
10
180.373
20
-125.76
11
180.326
21
-125.689
0
LINE
8
BLACK
6
CONTINUOUS
10
180.326
20
-125.689
11
180.309
21
-125.605
0
LINE
8
BLACK
6
CONTINUOUS
10
180.309
20
-125.605
11
180.309
21
-125.093
0
LINE
8
BLACK
6
CONTINUOUS
10
180.309
20
-125.093
11
180.326
21
-125.009
0
LINE
8
BLACK
6
CONTINUOUS
10
180.326
20
-125.009
11
180.373
21
-124.938
0
LINE
8
BLACK
6
CONTINUOUS
10
180.373
20
-124.938
11
180.444
21
-124.891
0
LINE
8
BLACK
6
CONTINUOUS
10
180.444
20
-124.891
11
180.528
21
-124.874
0
LINE
8
BLACK
6
CONTINUOUS
10
180.528
20
-124.874
11
180.965
21
-124.874
0
LINE
8
BLACK
6
CONTINUOUS
10
180.965
20
-124.874
11
181.049
21
-124.891
0
LINE
8
BLACK
6
CONTINUOUS
10
179.411
20
-122.915
11
179.475
21
-122.959
0
LINE
8
BLACK
6
CONTINUOUS
10
179.475
20
-122.959
11
179.519
21
-123.023
0
LINE
8
BLACK
6
CONTINUOUS
10
179.519
20
-123.023
11
179.534
21
-123.1
0
LINE
8
BLACK
6
CONTINUOUS
10
179.534
20
-123.1
11
179.534
21
-123.65
0
LINE
8
BLACK
6
CONTINUOUS
10
179.534
20
-123.65
11
179.519
21
-123.727
0
LINE
8
BLACK
6
CONTINUOUS
10
179.519
20
-123.727
11
179.475
21
-123.791
0
LINE
8
BLACK
6
CONTINUOUS
10
179.475
20
-123.791
11
179.411
21
-123.835
0
LINE
8
BLACK
6
CONTINUOUS
10
179.411
20
-123.835
11
179.334
21
-123.85
0
LINE
8
BLACK
6
CONTINUOUS
10
179.334
20
-123.85
11
178.934
21
-123.85
0
LINE
8
BLACK
6
CONTINUOUS
10
178.934
20
-123.85
11
178.857
21
-123.835
0
LINE
8
BLACK
6
CONTINUOUS
10
178.857
20
-123.835
11
178.793
21
-123.791
0
LINE
8
BLACK
6
CONTINUOUS
10
178.793
20
-123.791
11
178.749
21
-123.727
0
LINE
8
BLACK
6
CONTINUOUS
10
178.749
20
-123.727
11
178.734
21
-123.65
0
LINE
8
BLACK
6
CONTINUOUS
10
178.734
20
-123.65
11
178.734
21
-123.1
0
LINE
8
BLACK
6
CONTINUOUS
10
178.734
20
-123.1
11
178.749
21
-123.023
0
LINE
8
BLACK
6
CONTINUOUS
10
178.749
20
-123.023
11
178.793
21
-122.959
0
LINE
8
BLACK
6
CONTINUOUS
10
178.793
20
-122.959
11
178.857
21
-122.915
0
LINE
8
BLACK
6
CONTINUOUS
10
178.857
20
-122.915
11
178.934
21
-122.9
0
LINE
8
BLACK
6
CONTINUOUS
10
178.934
20
-122.9
11
179.334
21
-122.9
0
LINE
8
BLACK
6
CONTINUOUS
10
179.334
20
-122.9
11
179.411
21
-122.915
0
LINE
8
BLACK
6
CONTINUOUS
10
181.061
20
-122.915
11
181.125
21
-122.959
0
LINE
8
BLACK
6
CONTINUOUS
10
181.125
20
-122.959
11
181.169
21
-123.023
0
LINE
8
BLACK
6
CONTINUOUS
10
181.169
20
-123.023
11
181.184
21
-123.1
0
LINE
8
BLACK
6
CONTINUOUS
10
181.184
20
-123.1
11
181.184
21
-123.65
0
LINE
8
BLACK
6
CONTINUOUS
10
181.184
20
-123.65
11
181.169
21
-123.727
0
LINE
8
BLACK
6
CONTINUOUS
10
181.169
20
-123.727
11
181.125
21
-123.791
0
LINE
8
BLACK
6
CONTINUOUS
10
181.125
20
-123.791
11
181.061
21
-123.835
0
LINE
8
BLACK
6
CONTINUOUS
10
181.061
20
-123.835
11
180.984
21
-123.85
0
LINE
8
BLACK
6
CONTINUOUS
10
180.984
20
-123.85
11
180.584
21
-123.85
0
LINE
8
BLACK
6
CONTINUOUS
10
180.584
20
-123.85
11
180.507
21
-123.835
0
LINE
8
BLACK
6
CONTINUOUS
10
180.507
20
-123.835
11
180.443
21
-123.791
0
LINE
8
BLACK
6
CONTINUOUS
10
180.443
20
-123.791
11
180.399
21
-123.727
0
LINE
8
BLACK
6
CONTINUOUS
10
180.399
20
-123.727
11
180.384
21
-123.65
0
LINE
8
BLACK
6
CONTINUOUS
10
180.384
20
-123.65
11
180.384
21
-123.1
0
LINE
8
BLACK
6
CONTINUOUS
10
180.384
20
-123.1
11
180.399
21
-123.023
0
LINE
8
BLACK
6
CONTINUOUS
10
180.399
20
-123.023
11
180.443
21
-122.959
0
LINE
8
BLACK
6
CONTINUOUS
10
180.443
20
-122.959
11
180.507
21
-122.915
0
LINE
8
BLACK
6
CONTINUOUS
10
180.507
20
-122.915
11
180.584
21
-122.9
0
LINE
8
BLACK
6
CONTINUOUS
10
180.584
20
-122.9
11
180.984
21
-122.9
0
LINE
8
BLACK
6
CONTINUOUS
10
180.984
20
-122.9
11
181.061
21
-122.915
0
LINE
8
BLACK
6
CONTINUOUS
10
160.341
20
-122.915
11
160.405
21
-122.959
0
LINE
8
BLACK
6
CONTINUOUS
10
160.405
20
-122.959
11
160.449
21
-123.023
0
LINE
8
BLACK
6
CONTINUOUS
10
160.449
20
-123.023
11
160.464
21
-123.1
0
LINE
8
BLACK
6
CONTINUOUS
10
160.464
20
-123.1
11
160.464
21
-123.65
0
LINE
8
BLACK
6
CONTINUOUS
10
160.464
20
-123.65
11
160.449
21
-123.727
0
LINE
8
BLACK
6
CONTINUOUS
10
160.449
20
-123.727
11
160.405
21
-123.791
0
LINE
8
BLACK
6
CONTINUOUS
10
160.405
20
-123.791
11
160.341
21
-123.835
0
LINE
8
BLACK
6
CONTINUOUS
10
160.341
20
-123.835
11
160.264
21
-123.85
0
LINE
8
BLACK
6
CONTINUOUS
10
160.264
20
-123.85
11
159.864
21
-123.85
0
LINE
8
BLACK
6
CONTINUOUS
10
159.864
20
-123.85
11
159.787
21
-123.835
0
LINE
8
BLACK
6
CONTINUOUS
10
159.787
20
-123.835
11
159.723
21
-123.791
0
LINE
8
BLACK
6
CONTINUOUS
10
159.723
20
-123.791
11
159.679
21
-123.727
0
LINE
8
BLACK
6
CONTINUOUS
10
159.679
20
-123.727
11
159.664
21
-123.65
0
LINE
8
BLACK
6
CONTINUOUS
10
159.664
20
-123.65
11
159.664
21
-123.1
0
LINE
8
BLACK
6
CONTINUOUS
10
159.664
20
-123.1
11
159.679
21
-123.023
0
LINE
8
BLACK
6
CONTINUOUS
10
159.679
20
-123.023
11
159.723
21
-122.959
0
LINE
8
BLACK
6
CONTINUOUS
10
159.723
20
-122.959
11
159.787
21
-122.915
0
LINE
8
BLACK
6
CONTINUOUS
10
159.787
20
-122.915
11
159.864
21
-122.9
0
LINE
8
BLACK
6
CONTINUOUS
10
159.864
20
-122.9
11
160.264
21
-122.9
0
LINE
8
BLACK
6
CONTINUOUS
10
160.264
20
-122.9
11
160.341
21
-122.915
0
LINE
8
BLACK
6
CONTINUOUS
10
161.991
20
-122.915
11
162.055
21
-122.959
0
LINE
8
BLACK
6
CONTINUOUS
10
162.055
20
-122.959
11
162.099
21
-123.023
0
LINE
8
BLACK
6
CONTINUOUS
10
162.099
20
-123.023
11
162.114
21
-123.1
0
LINE
8
BLACK
6
CONTINUOUS
10
162.114
20
-123.1
11
162.114
21
-123.65
0
LINE
8
BLACK
6
CONTINUOUS
10
162.114
20
-123.65
11
162.099
21
-123.727
0
LINE
8
BLACK
6
CONTINUOUS
10
162.099
20
-123.727
11
162.055
21
-123.791
0
LINE
8
BLACK
6
CONTINUOUS
10
162.055
20
-123.791
11
161.991
21
-123.835
0
LINE
8
BLACK
6
CONTINUOUS
10
161.991
20
-123.835
11
161.914
21
-123.85
0
LINE
8
BLACK
6
CONTINUOUS
10
161.914
20
-123.85
11
161.514
21
-123.85
0
LINE
8
BLACK
6
CONTINUOUS
10
161.514
20
-123.85
11
161.437
21
-123.835
0
LINE
8
BLACK
6
CONTINUOUS
10
161.437
20
-123.835
11
161.373
21
-123.791
0
LINE
8
BLACK
6
CONTINUOUS
10
161.373
20
-123.791
11
161.329
21
-123.727
0
LINE
8
BLACK
6
CONTINUOUS
10
161.329
20
-123.727
11
161.314
21
-123.65
0
LINE
8
BLACK
6
CONTINUOUS
10
161.314
20
-123.65
11
161.314
21
-123.1
0
LINE
8
BLACK
6
CONTINUOUS
10
161.314
20
-123.1
11
161.329
21
-123.023
0
LINE
8
BLACK
6
CONTINUOUS
10
161.329
20
-123.023
11
161.373
21
-122.959
0
LINE
8
BLACK
6
CONTINUOUS
10
161.373
20
-122.959
11
161.437
21
-122.915
0
LINE
8
BLACK
6
CONTINUOUS
10
161.437
20
-122.915
11
161.514
21
-122.9
0
LINE
8
BLACK
6
CONTINUOUS
10
161.514
20
-122.9
11
161.914
21
-122.9
0
LINE
8
BLACK
6
CONTINUOUS
10
161.914
20
-122.9
11
161.991
21
-122.915
0
LINE
8
BLACK
6
CONTINUOUS
10
167.879
20
-118.793
11
167.944
21
-118.837
0
LINE
8
BLACK
6
CONTINUOUS
10
167.944
20
-118.837
11
167.987
21
-118.901
0
LINE
8
BLACK
6
CONTINUOUS
10
167.987
20
-118.901
11
168.003
21
-118.978
0
LINE
8
BLACK
6
CONTINUOUS
10
168.003
20
-118.978
11
168.003
21
-119.528
0
LINE
8
BLACK
6
CONTINUOUS
10
168.003
20
-119.528
11
167.987
21
-119.605
0
LINE
8
BLACK
6
CONTINUOUS
10
167.987
20
-119.605
11
167.944
21
-119.669
0
LINE
8
BLACK
6
CONTINUOUS
10
167.944
20
-119.669
11
167.879
21
-119.713
0
LINE
8
BLACK
6
CONTINUOUS
10
167.879
20
-119.713
11
167.803
21
-119.728
0
LINE
8
BLACK
6
CONTINUOUS
10
167.803
20
-119.728
11
167.403
21
-119.728
0
LINE
8
BLACK
6
CONTINUOUS
10
167.403
20
-119.728
11
167.326
21
-119.713
0
LINE
8
BLACK
6
CONTINUOUS
10
167.326
20
-119.713
11
167.261
21
-119.669
0
LINE
8
BLACK
6
CONTINUOUS
10
167.261
20
-119.669
11
167.218
21
-119.605
0
LINE
8
BLACK
6
CONTINUOUS
10
167.218
20
-119.605
11
167.203
21
-119.528
0
LINE
8
BLACK
6
CONTINUOUS
10
167.203
20
-119.528
11
167.203
21
-118.978
0
LINE
8
BLACK
6
CONTINUOUS
10
167.203
20
-118.978
11
167.218
21
-118.901
0
LINE
8
BLACK
6
CONTINUOUS
10
167.218
20
-118.901
11
167.261
21
-118.837
0
LINE
8
BLACK
6
CONTINUOUS
10
167.261
20
-118.837
11
167.326
21
-118.793
0
LINE
8
BLACK
6
CONTINUOUS
10
167.326
20
-118.793
11
167.403
21
-118.778
0
LINE
8
BLACK
6
CONTINUOUS
10
167.403
20
-118.778
11
167.803
21
-118.778
0
LINE
8
BLACK
6
CONTINUOUS
10
167.803
20
-118.778
11
167.879
21
-118.793
0
LINE
8
BLACK
6
CONTINUOUS
10
169.529
20
-118.793
11
169.594
21
-118.837
0
LINE
8
BLACK
6
CONTINUOUS
10
169.594
20
-118.837
11
169.637
21
-118.901
0
LINE
8
BLACK
6
CONTINUOUS
10
169.637
20
-118.901
11
169.653
21
-118.978
0
LINE
8
BLACK
6
CONTINUOUS
10
169.653
20
-118.978
11
169.653
21
-119.528
0
LINE
8
BLACK
6
CONTINUOUS
10
169.653
20
-119.528
11
169.637
21
-119.605
0
LINE
8
BLACK
6
CONTINUOUS
10
169.637
20
-119.605
11
169.594
21
-119.669
0
LINE
8
BLACK
6
CONTINUOUS
10
169.594
20
-119.669
11
169.529
21
-119.713
0
LINE
8
BLACK
6
CONTINUOUS
10
169.529
20
-119.713
11
169.453
21
-119.728
0
LINE
8
BLACK
6
CONTINUOUS
10
169.453
20
-119.728
11
169.053
21
-119.728
0
LINE
8
BLACK
6
CONTINUOUS
10
169.053
20
-119.728
11
168.976
21
-119.713
0
LINE
8
BLACK
6
CONTINUOUS
10
168.976
20
-119.713
11
168.911
21
-119.669
0
LINE
8
BLACK
6
CONTINUOUS
10
168.911
20
-119.669
11
168.868
21
-119.605
0
LINE
8
BLACK
6
CONTINUOUS
10
168.868
20
-119.605
11
168.853
21
-119.528
0
LINE
8
BLACK
6
CONTINUOUS
10
168.853
20
-119.528
11
168.853
21
-118.978
0
LINE
8
BLACK
6
CONTINUOUS
10
168.853
20
-118.978
11
168.868
21
-118.901
0
LINE
8
BLACK
6
CONTINUOUS
10
168.868
20
-118.901
11
168.911
21
-118.837
0
LINE
8
BLACK
6
CONTINUOUS
10
168.911
20
-118.837
11
168.976
21
-118.793
0
LINE
8
BLACK
6
CONTINUOUS
10
168.976
20
-118.793
11
169.053
21
-118.778
0
LINE
8
BLACK
6
CONTINUOUS
10
169.053
20
-118.778
11
169.453
21
-118.778
0
LINE
8
BLACK
6
CONTINUOUS
10
169.453
20
-118.778
11
169.529
21
-118.793
0
LINE
8
BLACK
6
CONTINUOUS
10
142.708
20
-116.888
11
142.772
21
-116.932
0
LINE
8
BLACK
6
CONTINUOUS
10
142.772
20
-116.932
11
142.816
21
-116.996
0
LINE
8
BLACK
6
CONTINUOUS
10
142.816
20
-116.996
11
142.831
21
-117.073
0
LINE
8
BLACK
6
CONTINUOUS
10
142.831
20
-117.073
11
142.831
21
-117.623
0
LINE
8
BLACK
6
CONTINUOUS
10
142.831
20
-117.623
11
142.816
21
-117.7
0
LINE
8
BLACK
6
CONTINUOUS
10
142.816
20
-117.7
11
142.772
21
-117.764
0
LINE
8
BLACK
6
CONTINUOUS
10
142.772
20
-117.764
11
142.708
21
-117.808
0
LINE
8
BLACK
6
CONTINUOUS
10
142.708
20
-117.808
11
142.631
21
-117.823
0
LINE
8
BLACK
6
CONTINUOUS
10
142.631
20
-117.823
11
142.231
21
-117.823
0
LINE
8
BLACK
6
CONTINUOUS
10
142.231
20
-117.823
11
142.154
21
-117.808
0
LINE
8
BLACK
6
CONTINUOUS
10
142.154
20
-117.808
11
142.09
21
-117.764
0
LINE
8
BLACK
6
CONTINUOUS
10
142.09
20
-117.764
11
142.046
21
-117.7
0
LINE
8
BLACK
6
CONTINUOUS
10
142.046
20
-117.7
11
142.031
21
-117.623
0
LINE
8
BLACK
6
CONTINUOUS
10
142.031
20
-117.623
11
142.031
21
-117.073
0
LINE
8
BLACK
6
CONTINUOUS
10
142.031
20
-117.073
11
142.046
21
-116.996
0
LINE
8
BLACK
6
CONTINUOUS
10
142.046
20
-116.996
11
142.09
21
-116.932
0
LINE
8
BLACK
6
CONTINUOUS
10
142.09
20
-116.932
11
142.154
21
-116.888
0
LINE
8
BLACK
6
CONTINUOUS
10
142.154
20
-116.888
11
142.231
21
-116.873
0
LINE
8
BLACK
6
CONTINUOUS
10
142.231
20
-116.873
11
142.631
21
-116.873
0
LINE
8
BLACK
6
CONTINUOUS
10
142.631
20
-116.873
11
142.708
21
-116.888
0
LINE
8
BLACK
6
CONTINUOUS
10
144.358
20
-116.888
11
144.422
21
-116.932
0
LINE
8
BLACK
6
CONTINUOUS
10
144.422
20
-116.932
11
144.466
21
-116.996
0
LINE
8
BLACK
6
CONTINUOUS
10
144.466
20
-116.996
11
144.481
21
-117.073
0
LINE
8
BLACK
6
CONTINUOUS
10
144.481
20
-117.073
11
144.481
21
-117.623
0
LINE
8
BLACK
6
CONTINUOUS
10
144.481
20
-117.623
11
144.466
21
-117.7
0
LINE
8
BLACK
6
CONTINUOUS
10
144.466
20
-117.7
11
144.422
21
-117.764
0
LINE
8
BLACK
6
CONTINUOUS
10
144.422
20
-117.764
11
144.358
21
-117.808
0
LINE
8
BLACK
6
CONTINUOUS
10
144.358
20
-117.808
11
144.281
21
-117.823
0
LINE
8
BLACK
6
CONTINUOUS
10
144.281
20
-117.823
11
143.881
21
-117.823
0
LINE
8
BLACK
6
CONTINUOUS
10
143.881
20
-117.823
11
143.804
21
-117.808
0
LINE
8
BLACK
6
CONTINUOUS
10
143.804
20
-117.808
11
143.74
21
-117.764
0
LINE
8
BLACK
6
CONTINUOUS
10
143.74
20
-117.764
11
143.696
21
-117.7
0
LINE
8
BLACK
6
CONTINUOUS
10
143.696
20
-117.7
11
143.681
21
-117.623
0
LINE
8
BLACK
6
CONTINUOUS
10
143.681
20
-117.623
11
143.681
21
-117.073
0
LINE
8
BLACK
6
CONTINUOUS
10
143.681
20
-117.073
11
143.696
21
-116.996
0
LINE
8
BLACK
6
CONTINUOUS
10
143.696
20
-116.996
11
143.74
21
-116.932
0
LINE
8
BLACK
6
CONTINUOUS
10
143.74
20
-116.932
11
143.804
21
-116.888
0
LINE
8
BLACK
6
CONTINUOUS
10
143.804
20
-116.888
11
143.881
21
-116.873
0
LINE
8
BLACK
6
CONTINUOUS
10
143.881
20
-116.873
11
144.281
21
-116.873
0
LINE
8
BLACK
6
CONTINUOUS
10
144.281
20
-116.873
11
144.358
21
-116.888
0
LINE
8
BLACK
6
CONTINUOUS
10
167.802
20
-117.408
11
166.702
21
-117.408
0
LINE
8
BLACK
6
CONTINUOUS
10
166.702
20
-117.408
11
166.702
21
-114.908
0
LINE
8
BLACK
6
CONTINUOUS
10
166.702
20
-114.908
11
167.802
21
-114.908
0
LINE
8
BLACK
6
CONTINUOUS
10
167.802
20
-114.908
11
167.802
21
-117.408
0
LINE
8
BLACK
6
CONTINUOUS
10
169.802
20
-117.408
11
168.702
21
-117.408
0
LINE
8
BLACK
6
CONTINUOUS
10
168.702
20
-117.408
11
168.702
21
-114.908
0
LINE
8
BLACK
6
CONTINUOUS
10
168.702
20
-114.908
11
169.802
21
-114.908
0
LINE
8
BLACK
6
CONTINUOUS
10
169.802
20
-114.908
11
169.802
21
-117.408
0
LINE
8
BLACK
6
CONTINUOUS
10
171.802
20
-117.408
11
170.702
21
-117.408
0
LINE
8
BLACK
6
CONTINUOUS
10
170.702
20
-117.408
11
170.702
21
-114.908
0
LINE
8
BLACK
6
CONTINUOUS
10
170.702
20
-114.908
11
171.802
21
-114.908
0
LINE
8
BLACK
6
CONTINUOUS
10
171.802
20
-114.908
11
171.802
21
-117.408
0
LINE
8
BLACK
6
CONTINUOUS
10
173.802
20
-117.408
11
172.702
21
-117.408
0
LINE
8
BLACK
6
CONTINUOUS
10
172.702
20
-117.408
11
172.702
21
-114.908
0
LINE
8
BLACK
6
CONTINUOUS
10
172.702
20
-114.908
11
173.802
21
-114.908
0
LINE
8
BLACK
6
CONTINUOUS
10
173.802
20
-114.908
11
173.802
21
-117.408
0
LINE
8
BLACK
6
CONTINUOUS
10
175.802
20
-117.408
11
174.702
21
-117.408
0
LINE
8
BLACK
6
CONTINUOUS
10
174.702
20
-117.408
11
174.702
21
-114.908
0
LINE
8
BLACK
6
CONTINUOUS
10
174.702
20
-114.908
11
175.802
21
-114.908
0
LINE
8
BLACK
6
CONTINUOUS
10
175.802
20
-114.908
11
175.802
21
-117.408
0
LINE
8
BLACK
6
CONTINUOUS
10
177.802
20
-117.408
11
176.702
21
-117.408
0
LINE
8
BLACK
6
CONTINUOUS
10
176.702
20
-117.408
11
176.702
21
-114.908
0
LINE
8
BLACK
6
CONTINUOUS
10
176.702
20
-114.908
11
177.802
21
-114.908
0
LINE
8
BLACK
6
CONTINUOUS
10
177.802
20
-114.908
11
177.802
21
-117.408
0
LINE
8
BLACK
6
CONTINUOUS
10
179.802
20
-117.408
11
178.702
21
-117.408
0
LINE
8
BLACK
6
CONTINUOUS
10
178.702
20
-117.408
11
178.702
21
-114.908
0
LINE
8
BLACK
6
CONTINUOUS
10
178.702
20
-114.908
11
179.802
21
-114.908
0
LINE
8
BLACK
6
CONTINUOUS
10
179.802
20
-114.908
11
179.802
21
-117.408
0
LINE
8
BLACK
6
CONTINUOUS
10
181.802
20
-117.408
11
180.702
21
-117.408
0
LINE
8
BLACK
6
CONTINUOUS
10
180.702
20
-117.408
11
180.702
21
-114.908
0
LINE
8
BLACK
6
CONTINUOUS
10
180.702
20
-114.908
11
181.802
21
-114.908
0
LINE
8
BLACK
6
CONTINUOUS
10
181.802
20
-114.908
11
181.802
21
-117.408
0
LINE
8
BLACK
6
CONTINUOUS
10
166.802
20
-113.998
11
164.302
21
-113.998
0
LINE
8
BLACK
6
CONTINUOUS
10
164.302
20
-113.998
11
164.302
21
-112.898
0
LINE
8
BLACK
6
CONTINUOUS
10
164.302
20
-112.898
11
166.802
21
-112.898
0
LINE
8
BLACK
6
CONTINUOUS
10
166.802
20
-112.898
11
166.802
21
-113.998
0
LINE
8
BLACK
6
CONTINUOUS
10
158.236
20
-110.852
11
158.317
21
-110.906
0
LINE
8
BLACK
6
CONTINUOUS
10
158.317
20
-110.906
11
158.371
21
-110.987
0
LINE
8
BLACK
6
CONTINUOUS
10
158.371
20
-110.987
11
158.39
21
-111.083
0
LINE
8
BLACK
6
CONTINUOUS
10
158.39
20
-111.083
11
158.39
21
-112.183
0
LINE
8
BLACK
6
CONTINUOUS
10
158.39
20
-112.183
11
158.371
21
-112.279
0
LINE
8
BLACK
6
CONTINUOUS
10
158.371
20
-112.279
11
158.317
21
-112.36
0
LINE
8
BLACK
6
CONTINUOUS
10
158.317
20
-112.36
11
158.236
21
-112.414
0
LINE
8
BLACK
6
CONTINUOUS
10
158.236
20
-112.414
11
158.14
21
-112.433
0
LINE
8
BLACK
6
CONTINUOUS
10
158.14
20
-112.433
11
155.64
21
-112.433
0
LINE
8
BLACK
6
CONTINUOUS
10
155.64
20
-112.433
11
155.544
21
-112.414
0
LINE
8
BLACK
6
CONTINUOUS
10
155.544
20
-112.414
11
155.463
21
-112.36
0
LINE
8
BLACK
6
CONTINUOUS
10
155.463
20
-112.36
11
155.409
21
-112.279
0
LINE
8
BLACK
6
CONTINUOUS
10
155.409
20
-112.279
11
155.39
21
-112.183
0
LINE
8
BLACK
6
CONTINUOUS
10
155.39
20
-112.183
11
155.39
21
-111.083
0
LINE
8
BLACK
6
CONTINUOUS
10
155.39
20
-111.083
11
155.409
21
-110.987
0
LINE
8
BLACK
6
CONTINUOUS
10
155.409
20
-110.987
11
155.463
21
-110.906
0
LINE
8
BLACK
6
CONTINUOUS
10
155.463
20
-110.906
11
155.544
21
-110.852
0
LINE
8
BLACK
6
CONTINUOUS
10
155.544
20
-110.852
11
155.64
21
-110.833
0
LINE
8
BLACK
6
CONTINUOUS
10
155.64
20
-110.833
11
158.14
21
-110.833
0
LINE
8
BLACK
6
CONTINUOUS
10
158.14
20
-110.833
11
158.236
21
-110.852
0
LINE
8
BLACK
6
CONTINUOUS
10
162.636
20
-110.852
11
162.717
21
-110.906
0
LINE
8
BLACK
6
CONTINUOUS
10
162.717
20
-110.906
11
162.771
21
-110.987
0
LINE
8
BLACK
6
CONTINUOUS
10
162.771
20
-110.987
11
162.79
21
-111.083
0
LINE
8
BLACK
6
CONTINUOUS
10
162.79
20
-111.083
11
162.79
21
-112.183
0
LINE
8
BLACK
6
CONTINUOUS
10
162.79
20
-112.183
11
162.771
21
-112.279
0
LINE
8
BLACK
6
CONTINUOUS
10
162.771
20
-112.279
11
162.717
21
-112.36
0
LINE
8
BLACK
6
CONTINUOUS
10
162.717
20
-112.36
11
162.636
21
-112.414
0
LINE
8
BLACK
6
CONTINUOUS
10
162.636
20
-112.414
11
162.54
21
-112.433
0
LINE
8
BLACK
6
CONTINUOUS
10
162.54
20
-112.433
11
160.04
21
-112.433
0
LINE
8
BLACK
6
CONTINUOUS
10
160.04
20
-112.433
11
159.944
21
-112.414
0
LINE
8
BLACK
6
CONTINUOUS
10
159.944
20
-112.414
11
159.863
21
-112.36
0
LINE
8
BLACK
6
CONTINUOUS
10
159.863
20
-112.36
11
159.809
21
-112.279
0
LINE
8
BLACK
6
CONTINUOUS
10
159.809
20
-112.279
11
159.79
21
-112.183
0
LINE
8
BLACK
6
CONTINUOUS
10
159.79
20
-112.183
11
159.79
21
-111.083
0
LINE
8
BLACK
6
CONTINUOUS
10
159.79
20
-111.083
11
159.809
21
-110.987
0
LINE
8
BLACK
6
CONTINUOUS
10
159.809
20
-110.987
11
159.863
21
-110.906
0
LINE
8
BLACK
6
CONTINUOUS
10
159.863
20
-110.906
11
159.944
21
-110.852
0
LINE
8
BLACK
6
CONTINUOUS
10
159.944
20
-110.852
11
160.04
21
-110.833
0
LINE
8
BLACK
6
CONTINUOUS
10
160.04
20
-110.833
11
162.54
21
-110.833
0
LINE
8
BLACK
6
CONTINUOUS
10
162.54
20
-110.833
11
162.636
21
-110.852
0
LINE
8
BLACK
6
CONTINUOUS
10
166.802
20
-111.998
11
164.302
21
-111.998
0
LINE
8
BLACK
6
CONTINUOUS
10
164.302
20
-111.998
11
164.302
21
-110.898
0
LINE
8
BLACK
6
CONTINUOUS
10
164.302
20
-110.898
11
166.802
21
-110.898
0
LINE
8
BLACK
6
CONTINUOUS
10
166.802
20
-110.898
11
166.802
21
-111.998
0
LINE
8
BLACK
6
CONTINUOUS
10
113.498
20
-109.268
11
113.562
21
-109.312
0
LINE
8
BLACK
6
CONTINUOUS
10
113.562
20
-109.312
11
113.606
21
-109.376
0
LINE
8
BLACK
6
CONTINUOUS
10
113.606
20
-109.376
11
113.621
21
-109.453
0
LINE
8
BLACK
6
CONTINUOUS
10
113.621
20
-109.453
11
113.621
21
-110.003
0
LINE
8
BLACK
6
CONTINUOUS
10
113.621
20
-110.003
11
113.606
21
-110.08
0
LINE
8
BLACK
6
CONTINUOUS
10
113.606
20
-110.08
11
113.562
21
-110.144
0
LINE
8
BLACK
6
CONTINUOUS
10
113.562
20
-110.144
11
113.498
21
-110.188
0
LINE
8
BLACK
6
CONTINUOUS
10
113.498
20
-110.188
11
113.421
21
-110.203
0
LINE
8
BLACK
6
CONTINUOUS
10
113.421
20
-110.203
11
113.021
21
-110.203
0
LINE
8
BLACK
6
CONTINUOUS
10
113.021
20
-110.203
11
112.944
21
-110.188
0
LINE
8
BLACK
6
CONTINUOUS
10
112.944
20
-110.188
11
112.88
21
-110.144
0
LINE
8
BLACK
6
CONTINUOUS
10
112.88
20
-110.144
11
112.836
21
-110.08
0
LINE
8
BLACK
6
CONTINUOUS
10
112.836
20
-110.08
11
112.821
21
-110.003
0
LINE
8
BLACK
6
CONTINUOUS
10
112.821
20
-110.003
11
112.821
21
-109.453
0
LINE
8
BLACK
6
CONTINUOUS
10
112.821
20
-109.453
11
112.836
21
-109.376
0
LINE
8
BLACK
6
CONTINUOUS
10
112.836
20
-109.376
11
112.88
21
-109.312
0
LINE
8
BLACK
6
CONTINUOUS
10
112.88
20
-109.312
11
112.944
21
-109.268
0
LINE
8
BLACK
6
CONTINUOUS
10
112.944
20
-109.268
11
113.021
21
-109.253
0
LINE
8
BLACK
6
CONTINUOUS
10
113.021
20
-109.253
11
113.421
21
-109.253
0
LINE
8
BLACK
6
CONTINUOUS
10
113.421
20
-109.253
11
113.498
21
-109.268
0
LINE
8
BLACK
6
CONTINUOUS
10
115.148
20
-109.268
11
115.212
21
-109.312
0
LINE
8
BLACK
6
CONTINUOUS
10
115.212
20
-109.312
11
115.256
21
-109.376
0
LINE
8
BLACK
6
CONTINUOUS
10
115.256
20
-109.376
11
115.271
21
-109.453
0
LINE
8
BLACK
6
CONTINUOUS
10
115.271
20
-109.453
11
115.271
21
-110.003
0
LINE
8
BLACK
6
CONTINUOUS
10
115.271
20
-110.003
11
115.256
21
-110.08
0
LINE
8
BLACK
6
CONTINUOUS
10
115.256
20
-110.08
11
115.212
21
-110.144
0
LINE
8
BLACK
6
CONTINUOUS
10
115.212
20
-110.144
11
115.148
21
-110.188
0
LINE
8
BLACK
6
CONTINUOUS
10
115.148
20
-110.188
11
115.071
21
-110.203
0
LINE
8
BLACK
6
CONTINUOUS
10
115.071
20
-110.203
11
114.671
21
-110.203
0
LINE
8
BLACK
6
CONTINUOUS
10
114.671
20
-110.203
11
114.594
21
-110.188
0
LINE
8
BLACK
6
CONTINUOUS
10
114.594
20
-110.188
11
114.53
21
-110.144
0
LINE
8
BLACK
6
CONTINUOUS
10
114.53
20
-110.144
11
114.486
21
-110.08
0
LINE
8
BLACK
6
CONTINUOUS
10
114.486
20
-110.08
11
114.471
21
-110.003
0
LINE
8
BLACK
6
CONTINUOUS
10
114.471
20
-110.003
11
114.471
21
-109.453
0
LINE
8
BLACK
6
CONTINUOUS
10
114.471
20
-109.453
11
114.486
21
-109.376
0
LINE
8
BLACK
6
CONTINUOUS
10
114.486
20
-109.376
11
114.53
21
-109.312
0
LINE
8
BLACK
6
CONTINUOUS
10
114.53
20
-109.312
11
114.594
21
-109.268
0
LINE
8
BLACK
6
CONTINUOUS
10
114.594
20
-109.268
11
114.671
21
-109.253
0
LINE
8
BLACK
6
CONTINUOUS
10
114.671
20
-109.253
11
115.071
21
-109.253
0
LINE
8
BLACK
6
CONTINUOUS
10
115.071
20
-109.253
11
115.148
21
-109.268
0
LINE
8
BLACK
6
CONTINUOUS
10
166.802
20
-109.998
11
164.302
21
-109.998
0
LINE
8
BLACK
6
CONTINUOUS
10
164.302
20
-109.998
11
164.302
21
-108.898
0
LINE
8
BLACK
6
CONTINUOUS
10
164.302
20
-108.898
11
166.802
21
-108.898
0
LINE
8
BLACK
6
CONTINUOUS
10
166.802
20
-108.898
11
166.802
21
-109.998
0
LINE
8
BLACK
6
CONTINUOUS
10
166.802
20
-107.998
11
164.302
21
-107.998
0
LINE
8
BLACK
6
CONTINUOUS
10
164.302
20
-107.998
11
164.302
21
-106.898
0
LINE
8
BLACK
6
CONTINUOUS
10
164.302
20
-106.898
11
166.802
21
-106.898
0
LINE
8
BLACK
6
CONTINUOUS
10
166.802
20
-106.898
11
166.802
21
-107.998
0
LINE
8
BLACK
6
CONTINUOUS
10
113.535
20
-106.73
11
113.606
21
-106.777
0
LINE
8
BLACK
6
CONTINUOUS
10
113.606
20
-106.777
11
113.654
21
-106.848
0
LINE
8
BLACK
6
CONTINUOUS
10
113.654
20
-106.848
11
113.67
21
-106.932
0
LINE
8
BLACK
6
CONTINUOUS
10
113.67
20
-106.932
11
113.67
21
-107.444
0
LINE
8
BLACK
6
CONTINUOUS
10
113.67
20
-107.444
11
113.654
21
-107.528
0
LINE
8
BLACK
6
CONTINUOUS
10
113.654
20
-107.528
11
113.606
21
-107.599
0
LINE
8
BLACK
6
CONTINUOUS
10
113.606
20
-107.599
11
113.535
21
-107.646
0
LINE
8
BLACK
6
CONTINUOUS
10
113.535
20
-107.646
11
113.452
21
-107.663
0
LINE
8
BLACK
6
CONTINUOUS
10
113.452
20
-107.663
11
113.014
21
-107.663
0
LINE
8
BLACK
6
CONTINUOUS
10
113.014
20
-107.663
11
112.931
21
-107.646
0
LINE
8
BLACK
6
CONTINUOUS
10
112.931
20
-107.646
11
112.86
21
-107.599
0
LINE
8
BLACK
6
CONTINUOUS
10
112.86
20
-107.599
11
112.812
21
-107.528
0
LINE
8
BLACK
6
CONTINUOUS
10
112.812
20
-107.528
11
112.795
21
-107.444
0
LINE
8
BLACK
6
CONTINUOUS
10
112.795
20
-107.444
11
112.795
21
-106.932
0
LINE
8
BLACK
6
CONTINUOUS
10
112.795
20
-106.932
11
112.812
21
-106.848
0
LINE
8
BLACK
6
CONTINUOUS
10
112.812
20
-106.848
11
112.86
21
-106.777
0
LINE
8
BLACK
6
CONTINUOUS
10
112.86
20
-106.777
11
112.931
21
-106.73
0
LINE
8
BLACK
6
CONTINUOUS
10
112.931
20
-106.73
11
113.014
21
-106.713
0
LINE
8
BLACK
6
CONTINUOUS
10
113.014
20
-106.713
11
113.452
21
-106.713
0
LINE
8
BLACK
6
CONTINUOUS
10
113.452
20
-106.713
11
113.535
21
-106.73
0
LINE
8
BLACK
6
CONTINUOUS
10
115.11
20
-106.73
11
115.181
21
-106.777
0
LINE
8
BLACK
6
CONTINUOUS
10
115.181
20
-106.777
11
115.229
21
-106.848
0
LINE
8
BLACK
6
CONTINUOUS
10
115.229
20
-106.848
11
115.245
21
-106.932
0
LINE
8
BLACK
6
CONTINUOUS
10
115.245
20
-106.932
11
115.245
21
-107.444
0
LINE
8
BLACK
6
CONTINUOUS
10
115.245
20
-107.444
11
115.229
21
-107.528
0
LINE
8
BLACK
6
CONTINUOUS
10
115.229
20
-107.528
11
115.181
21
-107.599
0
LINE
8
BLACK
6
CONTINUOUS
10
115.181
20
-107.599
11
115.11
21
-107.646
0
LINE
8
BLACK
6
CONTINUOUS
10
115.11
20
-107.646
11
115.027
21
-107.663
0
LINE
8
BLACK
6
CONTINUOUS
10
115.027
20
-107.663
11
114.589
21
-107.663
0
LINE
8
BLACK
6
CONTINUOUS
10
114.589
20
-107.663
11
114.506
21
-107.646
0
LINE
8
BLACK
6
CONTINUOUS
10
114.506
20
-107.646
11
114.435
21
-107.599
0
LINE
8
BLACK
6
CONTINUOUS
10
114.435
20
-107.599
11
114.387
21
-107.528
0
LINE
8
BLACK
6
CONTINUOUS
10
114.387
20
-107.528
11
114.37
21
-107.444
0
LINE
8
BLACK
6
CONTINUOUS
10
114.37
20
-107.444
11
114.37
21
-106.932
0
LINE
8
BLACK
6
CONTINUOUS
10
114.37
20
-106.932
11
114.387
21
-106.848
0
LINE
8
BLACK
6
CONTINUOUS
10
114.387
20
-106.848
11
114.435
21
-106.777
0
LINE
8
BLACK
6
CONTINUOUS
10
114.435
20
-106.777
11
114.506
21
-106.73
0
LINE
8
BLACK
6
CONTINUOUS
10
114.506
20
-106.73
11
114.589
21
-106.713
0
LINE
8
BLACK
6
CONTINUOUS
10
114.589
20
-106.713
11
115.027
21
-106.713
0
LINE
8
BLACK
6
CONTINUOUS
10
115.027
20
-106.713
11
115.11
21
-106.73
0
LINE
8
BLACK
6
CONTINUOUS
10
166.802
20
-105.998
11
164.302
21
-105.998
0
LINE
8
BLACK
6
CONTINUOUS
10
164.302
20
-105.998
11
164.302
21
-104.898
0
LINE
8
BLACK
6
CONTINUOUS
10
164.302
20
-104.898
11
166.802
21
-104.898
0
LINE
8
BLACK
6
CONTINUOUS
10
166.802
20
-104.898
11
166.802
21
-105.998
0
LINE
8
BLACK
6
CONTINUOUS
10
158.236
20
-103.867
11
158.317
21
-103.921
0
LINE
8
BLACK
6
CONTINUOUS
10
158.317
20
-103.921
11
158.371
21
-104.002
0
LINE
8
BLACK
6
CONTINUOUS
10
158.371
20
-104.002
11
158.39
21
-104.098
0
LINE
8
BLACK
6
CONTINUOUS
10
158.39
20
-104.098
11
158.39
21
-105.198
0
LINE
8
BLACK
6
CONTINUOUS
10
158.39
20
-105.198
11
158.371
21
-105.294
0
LINE
8
BLACK
6
CONTINUOUS
10
158.371
20
-105.294
11
158.317
21
-105.375
0
LINE
8
BLACK
6
CONTINUOUS
10
158.317
20
-105.375
11
158.236
21
-105.429
0
LINE
8
BLACK
6
CONTINUOUS
10
158.236
20
-105.429
11
158.14
21
-105.448
0
LINE
8
BLACK
6
CONTINUOUS
10
158.14
20
-105.448
11
155.64
21
-105.448
0
LINE
8
BLACK
6
CONTINUOUS
10
155.64
20
-105.448
11
155.544
21
-105.429
0
LINE
8
BLACK
6
CONTINUOUS
10
155.544
20
-105.429
11
155.463
21
-105.375
0
LINE
8
BLACK
6
CONTINUOUS
10
155.463
20
-105.375
11
155.409
21
-105.294
0
LINE
8
BLACK
6
CONTINUOUS
10
155.409
20
-105.294
11
155.39
21
-105.198
0
LINE
8
BLACK
6
CONTINUOUS
10
155.39
20
-105.198
11
155.39
21
-104.098
0
LINE
8
BLACK
6
CONTINUOUS
10
155.39
20
-104.098
11
155.409
21
-104.002
0
LINE
8
BLACK
6
CONTINUOUS
10
155.409
20
-104.002
11
155.463
21
-103.921
0
LINE
8
BLACK
6
CONTINUOUS
10
155.463
20
-103.921
11
155.544
21
-103.867
0
LINE
8
BLACK
6
CONTINUOUS
10
155.544
20
-103.867
11
155.64
21
-103.848
0
LINE
8
BLACK
6
CONTINUOUS
10
155.64
20
-103.848
11
158.14
21
-103.848
0
LINE
8
BLACK
6
CONTINUOUS
10
158.14
20
-103.848
11
158.236
21
-103.867
0
LINE
8
BLACK
6
CONTINUOUS
10
162.636
20
-103.867
11
162.717
21
-103.921
0
LINE
8
BLACK
6
CONTINUOUS
10
162.717
20
-103.921
11
162.771
21
-104.002
0
LINE
8
BLACK
6
CONTINUOUS
10
162.771
20
-104.002
11
162.79
21
-104.098
0
LINE
8
BLACK
6
CONTINUOUS
10
162.79
20
-104.098
11
162.79
21
-105.198
0
LINE
8
BLACK
6
CONTINUOUS
10
162.79
20
-105.198
11
162.771
21
-105.294
0
LINE
8
BLACK
6
CONTINUOUS
10
162.771
20
-105.294
11
162.717
21
-105.375
0
LINE
8
BLACK
6
CONTINUOUS
10
162.717
20
-105.375
11
162.636
21
-105.429
0
LINE
8
BLACK
6
CONTINUOUS
10
162.636
20
-105.429
11
162.54
21
-105.448
0
LINE
8
BLACK
6
CONTINUOUS
10
162.54
20
-105.448
11
160.04
21
-105.448
0
LINE
8
BLACK
6
CONTINUOUS
10
160.04
20
-105.448
11
159.944
21
-105.429
0
LINE
8
BLACK
6
CONTINUOUS
10
159.944
20
-105.429
11
159.863
21
-105.375
0
LINE
8
BLACK
6
CONTINUOUS
10
159.863
20
-105.375
11
159.809
21
-105.294
0
LINE
8
BLACK
6
CONTINUOUS
10
159.809
20
-105.294
11
159.79
21
-105.198
0
LINE
8
BLACK
6
CONTINUOUS
10
159.79
20
-105.198
11
159.79
21
-104.098
0
LINE
8
BLACK
6
CONTINUOUS
10
159.79
20
-104.098
11
159.809
21
-104.002
0
LINE
8
BLACK
6
CONTINUOUS
10
159.809
20
-104.002
11
159.863
21
-103.921
0
LINE
8
BLACK
6
CONTINUOUS
10
159.863
20
-103.921
11
159.944
21
-103.867
0
LINE
8
BLACK
6
CONTINUOUS
10
159.944
20
-103.867
11
160.04
21
-103.848
0
LINE
8
BLACK
6
CONTINUOUS
10
160.04
20
-103.848
11
162.54
21
-103.848
0
LINE
8
BLACK
6
CONTINUOUS
10
162.54
20
-103.848
11
162.636
21
-103.867
0
LINE
8
BLACK
6
CONTINUOUS
10
166.802
20
-103.998
11
164.302
21
-103.998
0
LINE
8
BLACK
6
CONTINUOUS
10
164.302
20
-103.998
11
164.302
21
-102.898
0
LINE
8
BLACK
6
CONTINUOUS
10
164.302
20
-102.898
11
166.802
21
-102.898
0
LINE
8
BLACK
6
CONTINUOUS
10
166.802
20
-102.898
11
166.802
21
-103.998
0
LINE
8
BLACK
6
CONTINUOUS
10
167.802
20
-102.008
11
166.702
21
-102.008
0
LINE
8
BLACK
6
CONTINUOUS
10
166.702
20
-102.008
11
166.702
21
-99.508
0
LINE
8
BLACK
6
CONTINUOUS
10
166.702
20
-99.508
11
167.802
21
-99.508
0
LINE
8
BLACK
6
CONTINUOUS
10
167.802
20
-99.508
11
167.802
21
-102.008
0
LINE
8
BLACK
6
CONTINUOUS
10
169.802
20
-102.008
11
168.702
21
-102.008
0
LINE
8
BLACK
6
CONTINUOUS
10
168.702
20
-102.008
11
168.702
21
-99.508
0
LINE
8
BLACK
6
CONTINUOUS
10
168.702
20
-99.508
11
169.802
21
-99.508
0
LINE
8
BLACK
6
CONTINUOUS
10
169.802
20
-99.508
11
169.802
21
-102.008
0
LINE
8
BLACK
6
CONTINUOUS
10
171.802
20
-102.008
11
170.702
21
-102.008
0
LINE
8
BLACK
6
CONTINUOUS
10
170.702
20
-102.008
11
170.702
21
-99.508
0
LINE
8
BLACK
6
CONTINUOUS
10
170.702
20
-99.508
11
171.802
21
-99.508
0
LINE
8
BLACK
6
CONTINUOUS
10
171.802
20
-99.508
11
171.802
21
-102.008
0
LINE
8
BLACK
6
CONTINUOUS
10
173.802
20
-102.008
11
172.702
21
-102.008
0
LINE
8
BLACK
6
CONTINUOUS
10
172.702
20
-102.008
11
172.702
21
-99.508
0
LINE
8
BLACK
6
CONTINUOUS
10
172.702
20
-99.508
11
173.802
21
-99.508
0
LINE
8
BLACK
6
CONTINUOUS
10
173.802
20
-99.508
11
173.802
21
-102.008
0
LINE
8
BLACK
6
CONTINUOUS
10
175.802
20
-102.008
11
174.702
21
-102.008
0
LINE
8
BLACK
6
CONTINUOUS
10
174.702
20
-102.008
11
174.702
21
-99.508
0
LINE
8
BLACK
6
CONTINUOUS
10
174.702
20
-99.508
11
175.802
21
-99.508
0
LINE
8
BLACK
6
CONTINUOUS
10
175.802
20
-99.508
11
175.802
21
-102.008
0
LINE
8
BLACK
6
CONTINUOUS
10
177.802
20
-102.008
11
176.702
21
-102.008
0
LINE
8
BLACK
6
CONTINUOUS
10
176.702
20
-102.008
11
176.702
21
-99.508
0
LINE
8
BLACK
6
CONTINUOUS
10
176.702
20
-99.508
11
177.802
21
-99.508
0
LINE
8
BLACK
6
CONTINUOUS
10
177.802
20
-99.508
11
177.802
21
-102.008
0
LINE
8
BLACK
6
CONTINUOUS
10
179.802
20
-102.008
11
178.702
21
-102.008
0
LINE
8
BLACK
6
CONTINUOUS
10
178.702
20
-102.008
11
178.702
21
-99.508
0
LINE
8
BLACK
6
CONTINUOUS
10
178.702
20
-99.508
11
179.802
21
-99.508
0
LINE
8
BLACK
6
CONTINUOUS
10
179.802
20
-99.508
11
179.802
21
-102.008
0
LINE
8
BLACK
6
CONTINUOUS
10
181.802
20
-102.008
11
180.702
21
-102.008
0
LINE
8
BLACK
6
CONTINUOUS
10
180.702
20
-102.008
11
180.702
21
-99.508
0
LINE
8
BLACK
6
CONTINUOUS
10
180.702
20
-99.508
11
181.802
21
-99.508
0
LINE
8
BLACK
6
CONTINUOUS
10
181.802
20
-99.508
11
181.802
21
-102.008
0
LINE
8
BLACK
6
CONTINUOUS
10
167.564
20
-97.2051
11
167.637
21
-97.2539
0
LINE
8
BLACK
6
CONTINUOUS
10
167.637
20
-97.2539
11
167.685
21
-97.3269
0
LINE
8
BLACK
6
CONTINUOUS
10
167.685
20
-97.3269
11
167.703
21
-97.413
0
LINE
8
BLACK
6
CONTINUOUS
10
167.703
20
-97.413
11
167.703
21
-97.913
0
LINE
8
BLACK
6
CONTINUOUS
10
167.703
20
-97.913
11
167.685
21
-97.9991
0
LINE
8
BLACK
6
CONTINUOUS
10
167.685
20
-97.9991
11
167.637
21
-98.0721
0
LINE
8
BLACK
6
CONTINUOUS
10
167.637
20
-98.0721
11
167.564
21
-98.1209
0
LINE
8
BLACK
6
CONTINUOUS
10
167.564
20
-98.1209
11
167.478
21
-98.138
0
LINE
8
BLACK
6
CONTINUOUS
10
167.478
20
-98.138
11
167.028
21
-98.138
0
LINE
8
BLACK
6
CONTINUOUS
10
167.028
20
-98.138
11
166.941
21
-98.1209
0
LINE
8
BLACK
6
CONTINUOUS
10
166.941
20
-98.1209
11
166.868
21
-98.0721
0
LINE
8
BLACK
6
CONTINUOUS
10
166.868
20
-98.0721
11
166.82
21
-97.9991
0
LINE
8
BLACK
6
CONTINUOUS
10
166.82
20
-97.9991
11
166.803
21
-97.913
0
LINE
8
BLACK
6
CONTINUOUS
10
166.803
20
-97.913
11
166.803
21
-97.413
0
LINE
8
BLACK
6
CONTINUOUS
10
166.803
20
-97.413
11
166.82
21
-97.3269
0
LINE
8
BLACK
6
CONTINUOUS
10
166.82
20
-97.3269
11
166.868
21
-97.2539
0
LINE
8
BLACK
6
CONTINUOUS
10
166.868
20
-97.2539
11
166.941
21
-97.2051
0
LINE
8
BLACK
6
CONTINUOUS
10
166.941
20
-97.2051
11
167.028
21
-97.188
0
LINE
8
BLACK
6
CONTINUOUS
10
167.028
20
-97.188
11
167.478
21
-97.188
0
LINE
8
BLACK
6
CONTINUOUS
10
167.478
20
-97.188
11
167.564
21
-97.2051
0
LINE
8
BLACK
6
CONTINUOUS
10
169.114
20
-97.2051
11
169.187
21
-97.2539
0
LINE
8
BLACK
6
CONTINUOUS
10
169.187
20
-97.2539
11
169.235
21
-97.3269
0
LINE
8
BLACK
6
CONTINUOUS
10
169.235
20
-97.3269
11
169.253
21
-97.413
0
LINE
8
BLACK
6
CONTINUOUS
10
169.253
20
-97.413
11
169.253
21
-97.913
0
LINE
8
BLACK
6
CONTINUOUS
10
169.253
20
-97.913
11
169.235
21
-97.9991
0
LINE
8
BLACK
6
CONTINUOUS
10
169.235
20
-97.9991
11
169.187
21
-98.0721
0
LINE
8
BLACK
6
CONTINUOUS
10
169.187
20
-98.0721
11
169.114
21
-98.1209
0
LINE
8
BLACK
6
CONTINUOUS
10
169.114
20
-98.1209
11
169.028
21
-98.138
0
LINE
8
BLACK
6
CONTINUOUS
10
169.028
20
-98.138
11
168.578
21
-98.138
0
LINE
8
BLACK
6
CONTINUOUS
10
168.578
20
-98.138
11
168.491
21
-98.1209
0
LINE
8
BLACK
6
CONTINUOUS
10
168.491
20
-98.1209
11
168.418
21
-98.0721
0
LINE
8
BLACK
6
CONTINUOUS
10
168.418
20
-98.0721
11
168.37
21
-97.9991
0
LINE
8
BLACK
6
CONTINUOUS
10
168.37
20
-97.9991
11
168.353
21
-97.913
0
LINE
8
BLACK
6
CONTINUOUS
10
168.353
20
-97.913
11
168.353
21
-97.413
0
LINE
8
BLACK
6
CONTINUOUS
10
168.353
20
-97.413
11
168.37
21
-97.3269
0
LINE
8
BLACK
6
CONTINUOUS
10
168.37
20
-97.3269
11
168.418
21
-97.2539
0
LINE
8
BLACK
6
CONTINUOUS
10
168.418
20
-97.2539
11
168.491
21
-97.2051
0
LINE
8
BLACK
6
CONTINUOUS
10
168.491
20
-97.2051
11
168.578
21
-97.188
0
LINE
8
BLACK
6
CONTINUOUS
10
168.578
20
-97.188
11
169.028
21
-97.188
0
LINE
8
BLACK
6
CONTINUOUS
10
169.028
20
-97.188
11
169.114
21
-97.2051
0
LINE
8
BLACK
6
CONTINUOUS
10
175.879
20
-97.2032
11
175.944
21
-97.2466
0
LINE
8
BLACK
6
CONTINUOUS
10
175.944
20
-97.2466
11
175.987
21
-97.3115
0
LINE
8
BLACK
6
CONTINUOUS
10
175.987
20
-97.3115
11
176.003
21
-97.388
0
LINE
8
BLACK
6
CONTINUOUS
10
176.003
20
-97.388
11
176.003
21
-97.938
0
LINE
8
BLACK
6
CONTINUOUS
10
176.003
20
-97.938
11
175.987
21
-98.0145
0
LINE
8
BLACK
6
CONTINUOUS
10
175.987
20
-98.0145
11
175.944
21
-98.0794
0
LINE
8
BLACK
6
CONTINUOUS
10
175.944
20
-98.0794
11
175.879
21
-98.1228
0
LINE
8
BLACK
6
CONTINUOUS
10
175.879
20
-98.1228
11
175.803
21
-98.138
0
LINE
8
BLACK
6
CONTINUOUS
10
175.803
20
-98.138
11
175.403
21
-98.138
0
LINE
8
BLACK
6
CONTINUOUS
10
175.403
20
-98.138
11
175.326
21
-98.1228
0
LINE
8
BLACK
6
CONTINUOUS
10
175.326
20
-98.1228
11
175.261
21
-98.0794
0
LINE
8
BLACK
6
CONTINUOUS
10
175.261
20
-98.0794
11
175.218
21
-98.0145
0
LINE
8
BLACK
6
CONTINUOUS
10
175.218
20
-98.0145
11
175.203
21
-97.938
0
LINE
8
BLACK
6
CONTINUOUS
10
175.203
20
-97.938
11
175.203
21
-97.388
0
LINE
8
BLACK
6
CONTINUOUS
10
175.203
20
-97.388
11
175.218
21
-97.3115
0
LINE
8
BLACK
6
CONTINUOUS
10
175.218
20
-97.3115
11
175.261
21
-97.2466
0
LINE
8
BLACK
6
CONTINUOUS
10
175.261
20
-97.2466
11
175.326
21
-97.2032
0
LINE
8
BLACK
6
CONTINUOUS
10
175.326
20
-97.2032
11
175.403
21
-97.188
0
LINE
8
BLACK
6
CONTINUOUS
10
175.403
20
-97.188
11
175.803
21
-97.188
0
LINE
8
BLACK
6
CONTINUOUS
10
175.803
20
-97.188
11
175.879
21
-97.2032
0
LINE
8
BLACK
6
CONTINUOUS
10
177.529
20
-97.2032
11
177.594
21
-97.2466
0
LINE
8
BLACK
6
CONTINUOUS
10
177.594
20
-97.2466
11
177.637
21
-97.3115
0
LINE
8
BLACK
6
CONTINUOUS
10
177.637
20
-97.3115
11
177.653
21
-97.388
0
LINE
8
BLACK
6
CONTINUOUS
10
177.653
20
-97.388
11
177.653
21
-97.938
0
LINE
8
BLACK
6
CONTINUOUS
10
177.653
20
-97.938
11
177.637
21
-98.0145
0
LINE
8
BLACK
6
CONTINUOUS
10
177.637
20
-98.0145
11
177.594
21
-98.0794
0
LINE
8
BLACK
6
CONTINUOUS
10
177.594
20
-98.0794
11
177.529
21
-98.1228
0
LINE
8
BLACK
6
CONTINUOUS
10
177.529
20
-98.1228
11
177.453
21
-98.138
0
LINE
8
BLACK
6
CONTINUOUS
10
177.453
20
-98.138
11
177.053
21
-98.138
0
LINE
8
BLACK
6
CONTINUOUS
10
177.053
20
-98.138
11
176.976
21
-98.1228
0
LINE
8
BLACK
6
CONTINUOUS
10
176.976
20
-98.1228
11
176.911
21
-98.0794
0
LINE
8
BLACK
6
CONTINUOUS
10
176.911
20
-98.0794
11
176.868
21
-98.0145
0
LINE
8
BLACK
6
CONTINUOUS
10
176.868
20
-98.0145
11
176.853
21
-97.938
0
LINE
8
BLACK
6
CONTINUOUS
10
176.853
20
-97.938
11
176.853
21
-97.388
0
LINE
8
BLACK
6
CONTINUOUS
10
176.853
20
-97.388
11
176.868
21
-97.3115
0
LINE
8
BLACK
6
CONTINUOUS
10
176.868
20
-97.3115
11
176.911
21
-97.2466
0
LINE
8
BLACK
6
CONTINUOUS
10
176.911
20
-97.2466
11
176.976
21
-97.2032
0
LINE
8
BLACK
6
CONTINUOUS
10
176.976
20
-97.2032
11
177.053
21
-97.188
0
LINE
8
BLACK
6
CONTINUOUS
10
177.053
20
-97.188
11
177.453
21
-97.188
0
LINE
8
BLACK
6
CONTINUOUS
10
177.453
20
-97.188
11
177.529
21
-97.2032
0
LINE
8
BLACK
6
CONTINUOUS
10
179.879
20
-97.2032
11
179.944
21
-97.2466
0
LINE
8
BLACK
6
CONTINUOUS
10
179.944
20
-97.2466
11
179.987
21
-97.3115
0
LINE
8
BLACK
6
CONTINUOUS
10
179.987
20
-97.3115
11
180.003
21
-97.388
0
LINE
8
BLACK
6
CONTINUOUS
10
180.003
20
-97.388
11
180.003
21
-97.938
0
LINE
8
BLACK
6
CONTINUOUS
10
180.003
20
-97.938
11
179.987
21
-98.0145
0
LINE
8
BLACK
6
CONTINUOUS
10
179.987
20
-98.0145
11
179.944
21
-98.0794
0
LINE
8
BLACK
6
CONTINUOUS
10
179.944
20
-98.0794
11
179.879
21
-98.1228
0
LINE
8
BLACK
6
CONTINUOUS
10
179.879
20
-98.1228
11
179.803
21
-98.138
0
LINE
8
BLACK
6
CONTINUOUS
10
179.803
20
-98.138
11
179.403
21
-98.138
0
LINE
8
BLACK
6
CONTINUOUS
10
179.403
20
-98.138
11
179.326
21
-98.1228
0
LINE
8
BLACK
6
CONTINUOUS
10
179.326
20
-98.1228
11
179.261
21
-98.0794
0
LINE
8
BLACK
6
CONTINUOUS
10
179.261
20
-98.0794
11
179.218
21
-98.0145
0
LINE
8
BLACK
6
CONTINUOUS
10
179.218
20
-98.0145
11
179.203
21
-97.938
0
LINE
8
BLACK
6
CONTINUOUS
10
179.203
20
-97.938
11
179.203
21
-97.388
0
LINE
8
BLACK
6
CONTINUOUS
10
179.203
20
-97.388
11
179.218
21
-97.3115
0
LINE
8
BLACK
6
CONTINUOUS
10
179.218
20
-97.3115
11
179.261
21
-97.2466
0
LINE
8
BLACK
6
CONTINUOUS
10
179.261
20
-97.2466
11
179.326
21
-97.2032
0
LINE
8
BLACK
6
CONTINUOUS
10
179.326
20
-97.2032
11
179.403
21
-97.188
0
LINE
8
BLACK
6
CONTINUOUS
10
179.403
20
-97.188
11
179.803
21
-97.188
0
LINE
8
BLACK
6
CONTINUOUS
10
179.803
20
-97.188
11
179.879
21
-97.2032
0
LINE
8
BLACK
6
CONTINUOUS
10
181.529
20
-97.2032
11
181.594
21
-97.2466
0
LINE
8
BLACK
6
CONTINUOUS
10
181.594
20
-97.2466
11
181.637
21
-97.3115
0
LINE
8
BLACK
6
CONTINUOUS
10
181.637
20
-97.3115
11
181.653
21
-97.388
0
LINE
8
BLACK
6
CONTINUOUS
10
181.653
20
-97.388
11
181.653
21
-97.938
0
LINE
8
BLACK
6
CONTINUOUS
10
181.653
20
-97.938
11
181.637
21
-98.0145
0
LINE
8
BLACK
6
CONTINUOUS
10
181.637
20
-98.0145
11
181.594
21
-98.0794
0
LINE
8
BLACK
6
CONTINUOUS
10
181.594
20
-98.0794
11
181.529
21
-98.1228
0
LINE
8
BLACK
6
CONTINUOUS
10
181.529
20
-98.1228
11
181.453
21
-98.138
0
LINE
8
BLACK
6
CONTINUOUS
10
181.453
20
-98.138
11
181.053
21
-98.138
0
LINE
8
BLACK
6
CONTINUOUS
10
181.053
20
-98.138
11
180.976
21
-98.1228
0
LINE
8
BLACK
6
CONTINUOUS
10
180.976
20
-98.1228
11
180.911
21
-98.0794
0
LINE
8
BLACK
6
CONTINUOUS
10
180.911
20
-98.0794
11
180.868
21
-98.0145
0
LINE
8
BLACK
6
CONTINUOUS
10
180.868
20
-98.0145
11
180.853
21
-97.938
0
LINE
8
BLACK
6
CONTINUOUS
10
180.853
20
-97.938
11
180.853
21
-97.388
0
LINE
8
BLACK
6
CONTINUOUS
10
180.853
20
-97.388
11
180.868
21
-97.3115
0
LINE
8
BLACK
6
CONTINUOUS
10
180.868
20
-97.3115
11
180.911
21
-97.2466
0
LINE
8
BLACK
6
CONTINUOUS
10
180.911
20
-97.2466
11
180.976
21
-97.2032
0
LINE
8
BLACK
6
CONTINUOUS
10
180.976
20
-97.2032
11
181.053
21
-97.188
0
LINE
8
BLACK
6
CONTINUOUS
10
181.053
20
-97.188
11
181.453
21
-97.188
0
LINE
8
BLACK
6
CONTINUOUS
10
181.453
20
-97.188
11
181.529
21
-97.2032
0
LINE
8
BLACK
6
CONTINUOUS
10
165.309
20
-95.8781
11
165.382
21
-95.9269
0
LINE
8
BLACK
6
CONTINUOUS
10
165.382
20
-95.9269
11
165.431
21
-95.9999
0
LINE
8
BLACK
6
CONTINUOUS
10
165.431
20
-95.9999
11
165.448
21
-96.086
0
LINE
8
BLACK
6
CONTINUOUS
10
165.448
20
-96.086
11
165.448
21
-96.536
0
LINE
8
BLACK
6
CONTINUOUS
10
165.448
20
-96.536
11
165.431
21
-96.6221
0
LINE
8
BLACK
6
CONTINUOUS
10
165.431
20
-96.6221
11
165.382
21
-96.6951
0
LINE
8
BLACK
6
CONTINUOUS
10
165.382
20
-96.6951
11
165.309
21
-96.7439
0
LINE
8
BLACK
6
CONTINUOUS
10
165.309
20
-96.7439
11
165.223
21
-96.761
0
LINE
8
BLACK
6
CONTINUOUS
10
165.223
20
-96.761
11
164.723
21
-96.761
0
LINE
8
BLACK
6
CONTINUOUS
10
164.723
20
-96.761
11
164.637
21
-96.7439
0
LINE
8
BLACK
6
CONTINUOUS
10
164.637
20
-96.7439
11
164.564
21
-96.6951
0
LINE
8
BLACK
6
CONTINUOUS
10
164.564
20
-96.6951
11
164.515
21
-96.6221
0
LINE
8
BLACK
6
CONTINUOUS
10
164.515
20
-96.6221
11
164.498
21
-96.536
0
LINE
8
BLACK
6
CONTINUOUS
10
164.498
20
-96.536
11
164.498
21
-96.086
0
LINE
8
BLACK
6
CONTINUOUS
10
164.498
20
-96.086
11
164.515
21
-95.9999
0
LINE
8
BLACK
6
CONTINUOUS
10
164.515
20
-95.9999
11
164.564
21
-95.9269
0
LINE
8
BLACK
6
CONTINUOUS
10
164.564
20
-95.9269
11
164.637
21
-95.8781
0
LINE
8
BLACK
6
CONTINUOUS
10
164.637
20
-95.8781
11
164.723
21
-95.861
0
LINE
8
BLACK
6
CONTINUOUS
10
164.723
20
-95.861
11
165.223
21
-95.861
0
LINE
8
BLACK
6
CONTINUOUS
10
165.223
20
-95.861
11
165.309
21
-95.8781
0
LINE
8
BLACK
6
CONTINUOUS
10
171.167
20
-95.9762
11
171.231
21
-96.0196
0
LINE
8
BLACK
6
CONTINUOUS
10
171.231
20
-96.0196
11
171.275
21
-96.0845
0
LINE
8
BLACK
6
CONTINUOUS
10
171.275
20
-96.0845
11
171.29
21
-96.161
0
LINE
8
BLACK
6
CONTINUOUS
10
171.29
20
-96.161
11
171.29
21
-96.561
0
LINE
8
BLACK
6
CONTINUOUS
10
171.29
20
-96.561
11
171.275
21
-96.6375
0
LINE
8
BLACK
6
CONTINUOUS
10
171.275
20
-96.6375
11
171.231
21
-96.7024
0
LINE
8
BLACK
6
CONTINUOUS
10
171.231
20
-96.7024
11
171.167
21
-96.7458
0
LINE
8
BLACK
6
CONTINUOUS
10
171.167
20
-96.7458
11
171.09
21
-96.761
0
LINE
8
BLACK
6
CONTINUOUS
10
171.09
20
-96.761
11
170.54
21
-96.761
0
LINE
8
BLACK
6
CONTINUOUS
10
170.54
20
-96.761
11
170.463
21
-96.7458
0
LINE
8
BLACK
6
CONTINUOUS
10
170.463
20
-96.7458
11
170.399
21
-96.7024
0
LINE
8
BLACK
6
CONTINUOUS
10
170.399
20
-96.7024
11
170.355
21
-96.6375
0
LINE
8
BLACK
6
CONTINUOUS
10
170.355
20
-96.6375
11
170.34
21
-96.561
0
LINE
8
BLACK
6
CONTINUOUS
10
170.34
20
-96.561
11
170.34
21
-96.161
0
LINE
8
BLACK
6
CONTINUOUS
10
170.34
20
-96.161
11
170.355
21
-96.0845
0
LINE
8
BLACK
6
CONTINUOUS
10
170.355
20
-96.0845
11
170.399
21
-96.0196
0
LINE
8
BLACK
6
CONTINUOUS
10
170.399
20
-96.0196
11
170.463
21
-95.9762
0
LINE
8
BLACK
6
CONTINUOUS
10
170.463
20
-95.9762
11
170.54
21
-95.961
0
LINE
8
BLACK
6
CONTINUOUS
10
170.54
20
-95.961
11
171.09
21
-95.961
0
LINE
8
BLACK
6
CONTINUOUS
10
171.09
20
-95.961
11
171.167
21
-95.9762
0
LINE
8
BLACK
6
CONTINUOUS
10
173.056
20
-95.8781
11
173.129
21
-95.9269
0
LINE
8
BLACK
6
CONTINUOUS
10
173.129
20
-95.9269
11
173.178
21
-95.9999
0
LINE
8
BLACK
6
CONTINUOUS
10
173.178
20
-95.9999
11
173.195
21
-96.086
0
LINE
8
BLACK
6
CONTINUOUS
10
173.195
20
-96.086
11
173.195
21
-96.536
0
LINE
8
BLACK
6
CONTINUOUS
10
173.195
20
-96.536
11
173.178
21
-96.6221
0
LINE
8
BLACK
6
CONTINUOUS
10
173.178
20
-96.6221
11
173.129
21
-96.6951
0
LINE
8
BLACK
6
CONTINUOUS
10
173.129
20
-96.6951
11
173.056
21
-96.7439
0
LINE
8
BLACK
6
CONTINUOUS
10
173.056
20
-96.7439
11
172.97
21
-96.761
0
LINE
8
BLACK
6
CONTINUOUS
10
172.97
20
-96.761
11
172.47
21
-96.761
0
LINE
8
BLACK
6
CONTINUOUS
10
172.47
20
-96.761
11
172.384
21
-96.7439
0
LINE
8
BLACK
6
CONTINUOUS
10
172.384
20
-96.7439
11
172.311
21
-96.6951
0
LINE
8
BLACK
6
CONTINUOUS
10
172.311
20
-96.6951
11
172.262
21
-96.6221
0
LINE
8
BLACK
6
CONTINUOUS
10
172.262
20
-96.6221
11
172.245
21
-96.536
0
LINE
8
BLACK
6
CONTINUOUS
10
172.245
20
-96.536
11
172.245
21
-96.086
0
LINE
8
BLACK
6
CONTINUOUS
10
172.245
20
-96.086
11
172.262
21
-95.9999
0
LINE
8
BLACK
6
CONTINUOUS
10
172.262
20
-95.9999
11
172.311
21
-95.9269
0
LINE
8
BLACK
6
CONTINUOUS
10
172.311
20
-95.9269
11
172.384
21
-95.8781
0
LINE
8
BLACK
6
CONTINUOUS
10
172.384
20
-95.8781
11
172.47
21
-95.861
0
LINE
8
BLACK
6
CONTINUOUS
10
172.47
20
-95.861
11
172.97
21
-95.861
0
LINE
8
BLACK
6
CONTINUOUS
10
172.97
20
-95.861
11
173.056
21
-95.8781
0
LINE
8
BLACK
6
CONTINUOUS
10
166.974
20
-94.3281
11
167.047
21
-94.3769
0
LINE
8
BLACK
6
CONTINUOUS
10
167.047
20
-94.3769
11
167.096
21
-94.4499
0
LINE
8
BLACK
6
CONTINUOUS
10
167.096
20
-94.4499
11
167.113
21
-94.536
0
LINE
8
BLACK
6
CONTINUOUS
10
167.113
20
-94.536
11
167.113
21
-95.036
0
LINE
8
BLACK
6
CONTINUOUS
10
167.113
20
-95.036
11
167.096
21
-95.1221
0
LINE
8
BLACK
6
CONTINUOUS
10
167.096
20
-95.1221
11
167.047
21
-95.1951
0
LINE
8
BLACK
6
CONTINUOUS
10
167.047
20
-95.1951
11
166.974
21
-95.2439
0
LINE
8
BLACK
6
CONTINUOUS
10
166.974
20
-95.2439
11
166.888
21
-95.261
0
LINE
8
BLACK
6
CONTINUOUS
10
166.888
20
-95.261
11
166.438
21
-95.261
0
LINE
8
BLACK
6
CONTINUOUS
10
166.438
20
-95.261
11
166.352
21
-95.2439
0
LINE
8
BLACK
6
CONTINUOUS
10
166.352
20
-95.2439
11
166.279
21
-95.1951
0
LINE
8
BLACK
6
CONTINUOUS
10
166.279
20
-95.1951
11
166.23
21
-95.1221
0
LINE
8
BLACK
6
CONTINUOUS
10
166.23
20
-95.1221
11
166.213
21
-95.036
0
LINE
8
BLACK
6
CONTINUOUS
10
166.213
20
-95.036
11
166.213
21
-94.536
0
LINE
8
BLACK
6
CONTINUOUS
10
166.213
20
-94.536
11
166.23
21
-94.4499
0
LINE
8
BLACK
6
CONTINUOUS
10
166.23
20
-94.4499
11
166.279
21
-94.3769
0
LINE
8
BLACK
6
CONTINUOUS
10
166.279
20
-94.3769
11
166.352
21
-94.3281
0
LINE
8
BLACK
6
CONTINUOUS
10
166.352
20
-94.3281
11
166.438
21
-94.311
0
LINE
8
BLACK
6
CONTINUOUS
10
166.438
20
-94.311
11
166.888
21
-94.311
0
LINE
8
BLACK
6
CONTINUOUS
10
166.888
20
-94.311
11
166.974
21
-94.3281
0
LINE
8
BLACK
6
CONTINUOUS
10
168.524
20
-94.3281
11
168.597
21
-94.3769
0
LINE
8
BLACK
6
CONTINUOUS
10
168.597
20
-94.3769
11
168.646
21
-94.4499
0
LINE
8
BLACK
6
CONTINUOUS
10
168.646
20
-94.4499
11
168.663
21
-94.536
0
LINE
8
BLACK
6
CONTINUOUS
10
168.663
20
-94.536
11
168.663
21
-95.036
0
LINE
8
BLACK
6
CONTINUOUS
10
168.663
20
-95.036
11
168.646
21
-95.1221
0
LINE
8
BLACK
6
CONTINUOUS
10
168.646
20
-95.1221
11
168.597
21
-95.1951
0
LINE
8
BLACK
6
CONTINUOUS
10
168.597
20
-95.1951
11
168.524
21
-95.2439
0
LINE
8
BLACK
6
CONTINUOUS
10
168.524
20
-95.2439
11
168.438
21
-95.261
0
LINE
8
BLACK
6
CONTINUOUS
10
168.438
20
-95.261
11
167.988
21
-95.261
0
LINE
8
BLACK
6
CONTINUOUS
10
167.988
20
-95.261
11
167.902
21
-95.2439
0
LINE
8
BLACK
6
CONTINUOUS
10
167.902
20
-95.2439
11
167.829
21
-95.1951
0
LINE
8
BLACK
6
CONTINUOUS
10
167.829
20
-95.1951
11
167.78
21
-95.1221
0
LINE
8
BLACK
6
CONTINUOUS
10
167.78
20
-95.1221
11
167.763
21
-95.036
0
LINE
8
BLACK
6
CONTINUOUS
10
167.763
20
-95.036
11
167.763
21
-94.536
0
LINE
8
BLACK
6
CONTINUOUS
10
167.763
20
-94.536
11
167.78
21
-94.4499
0
LINE
8
BLACK
6
CONTINUOUS
10
167.78
20
-94.4499
11
167.829
21
-94.3769
0
LINE
8
BLACK
6
CONTINUOUS
10
167.829
20
-94.3769
11
167.902
21
-94.3281
0
LINE
8
BLACK
6
CONTINUOUS
10
167.902
20
-94.3281
11
167.988
21
-94.311
0
LINE
8
BLACK
6
CONTINUOUS
10
167.988
20
-94.311
11
168.438
21
-94.311
0
LINE
8
BLACK
6
CONTINUOUS
10
168.438
20
-94.311
11
168.524
21
-94.3281
0
LINE
8
BLACK
6
CONTINUOUS
10
165.309
20
-94.3281
11
165.382
21
-94.3769
0
LINE
8
BLACK
6
CONTINUOUS
10
165.382
20
-94.3769
11
165.431
21
-94.4499
0
LINE
8
BLACK
6
CONTINUOUS
10
165.431
20
-94.4499
11
165.448
21
-94.536
0
LINE
8
BLACK
6
CONTINUOUS
10
165.448
20
-94.536
11
165.448
21
-94.986
0
LINE
8
BLACK
6
CONTINUOUS
10
165.448
20
-94.986
11
165.431
21
-95.0721
0
LINE
8
BLACK
6
CONTINUOUS
10
165.431
20
-95.0721
11
165.382
21
-95.1451
0
LINE
8
BLACK
6
CONTINUOUS
10
165.382
20
-95.1451
11
165.309
21
-95.1939
0
LINE
8
BLACK
6
CONTINUOUS
10
165.309
20
-95.1939
11
165.223
21
-95.211
0
LINE
8
BLACK
6
CONTINUOUS
10
165.223
20
-95.211
11
164.723
21
-95.211
0
LINE
8
BLACK
6
CONTINUOUS
10
164.723
20
-95.211
11
164.637
21
-95.1939
0
LINE
8
BLACK
6
CONTINUOUS
10
164.637
20
-95.1939
11
164.564
21
-95.1451
0
LINE
8
BLACK
6
CONTINUOUS
10
164.564
20
-95.1451
11
164.515
21
-95.0721
0
LINE
8
BLACK
6
CONTINUOUS
10
164.515
20
-95.0721
11
164.498
21
-94.986
0
LINE
8
BLACK
6
CONTINUOUS
10
164.498
20
-94.986
11
164.498
21
-94.536
0
LINE
8
BLACK
6
CONTINUOUS
10
164.498
20
-94.536
11
164.515
21
-94.4499
0
LINE
8
BLACK
6
CONTINUOUS
10
164.515
20
-94.4499
11
164.564
21
-94.3769
0
LINE
8
BLACK
6
CONTINUOUS
10
164.564
20
-94.3769
11
164.637
21
-94.3281
0
LINE
8
BLACK
6
CONTINUOUS
10
164.637
20
-94.3281
11
164.723
21
-94.311
0
LINE
8
BLACK
6
CONTINUOUS
10
164.723
20
-94.311
11
165.223
21
-94.311
0
LINE
8
BLACK
6
CONTINUOUS
10
165.223
20
-94.311
11
165.309
21
-94.3281
0
LINE
8
BLACK
6
CONTINUOUS
10
173.056
20
-94.3281
11
173.129
21
-94.3769
0
LINE
8
BLACK
6
CONTINUOUS
10
173.129
20
-94.3769
11
173.178
21
-94.4499
0
LINE
8
BLACK
6
CONTINUOUS
10
173.178
20
-94.4499
11
173.195
21
-94.536
0
LINE
8
BLACK
6
CONTINUOUS
10
173.195
20
-94.536
11
173.195
21
-94.986
0
LINE
8
BLACK
6
CONTINUOUS
10
173.195
20
-94.986
11
173.178
21
-95.0721
0
LINE
8
BLACK
6
CONTINUOUS
10
173.178
20
-95.0721
11
173.129
21
-95.1451
0
LINE
8
BLACK
6
CONTINUOUS
10
173.129
20
-95.1451
11
173.056
21
-95.1939
0
LINE
8
BLACK
6
CONTINUOUS
10
173.056
20
-95.1939
11
172.97
21
-95.211
0
LINE
8
BLACK
6
CONTINUOUS
10
172.97
20
-95.211
11
172.47
21
-95.211
0
LINE
8
BLACK
6
CONTINUOUS
10
172.47
20
-95.211
11
172.384
21
-95.1939
0
LINE
8
BLACK
6
CONTINUOUS
10
172.384
20
-95.1939
11
172.311
21
-95.1451
0
LINE
8
BLACK
6
CONTINUOUS
10
172.311
20
-95.1451
11
172.262
21
-95.0721
0
LINE
8
BLACK
6
CONTINUOUS
10
172.262
20
-95.0721
11
172.245
21
-94.986
0
LINE
8
BLACK
6
CONTINUOUS
10
172.245
20
-94.986
11
172.245
21
-94.536
0
LINE
8
BLACK
6
CONTINUOUS
10
172.245
20
-94.536
11
172.262
21
-94.4499
0
LINE
8
BLACK
6
CONTINUOUS
10
172.262
20
-94.4499
11
172.311
21
-94.3769
0
LINE
8
BLACK
6
CONTINUOUS
10
172.311
20
-94.3769
11
172.384
21
-94.3281
0
LINE
8
BLACK
6
CONTINUOUS
10
172.384
20
-94.3281
11
172.47
21
-94.311
0
LINE
8
BLACK
6
CONTINUOUS
10
172.47
20
-94.311
11
172.97
21
-94.311
0
LINE
8
BLACK
6
CONTINUOUS
10
172.97
20
-94.311
11
173.056
21
-94.3281
0
LINE
8
BLACK
6
CONTINUOUS
10
171.167
20
-94.3262
11
171.231
21
-94.3696
0
LINE
8
BLACK
6
CONTINUOUS
10
171.231
20
-94.3696
11
171.275
21
-94.4345
0
LINE
8
BLACK
6
CONTINUOUS
10
171.275
20
-94.4345
11
171.29
21
-94.511
0
LINE
8
BLACK
6
CONTINUOUS
10
171.29
20
-94.511
11
171.29
21
-94.911
0
LINE
8
BLACK
6
CONTINUOUS
10
171.29
20
-94.911
11
171.275
21
-94.9875
0
LINE
8
BLACK
6
CONTINUOUS
10
171.275
20
-94.9875
11
171.231
21
-95.0524
0
LINE
8
BLACK
6
CONTINUOUS
10
171.231
20
-95.0524
11
171.167
21
-95.0958
0
LINE
8
BLACK
6
CONTINUOUS
10
171.167
20
-95.0958
11
171.09
21
-95.111
0
LINE
8
BLACK
6
CONTINUOUS
10
171.09
20
-95.111
11
170.54
21
-95.111
0
LINE
8
BLACK
6
CONTINUOUS
10
170.54
20
-95.111
11
170.463
21
-95.0958
0
LINE
8
BLACK
6
CONTINUOUS
10
170.463
20
-95.0958
11
170.399
21
-95.0524
0
LINE
8
BLACK
6
CONTINUOUS
10
170.399
20
-95.0524
11
170.355
21
-94.9875
0
LINE
8
BLACK
6
CONTINUOUS
10
170.355
20
-94.9875
11
170.34
21
-94.911
0
LINE
8
BLACK
6
CONTINUOUS
10
170.34
20
-94.911
11
170.34
21
-94.511
0
LINE
8
BLACK
6
CONTINUOUS
10
170.34
20
-94.511
11
170.355
21
-94.4345
0
LINE
8
BLACK
6
CONTINUOUS
10
170.355
20
-94.4345
11
170.399
21
-94.3696
0
LINE
8
BLACK
6
CONTINUOUS
10
170.399
20
-94.3696
11
170.463
21
-94.3262
0
LINE
8
BLACK
6
CONTINUOUS
10
170.463
20
-94.3262
11
170.54
21
-94.311
0
LINE
8
BLACK
6
CONTINUOUS
10
170.54
20
-94.311
11
171.09
21
-94.311
0
LINE
8
BLACK
6
CONTINUOUS
10
171.09
20
-94.311
11
171.167
21
-94.3262
0
LINE
8
BLACK
6
CONTINUOUS
10
161.425
20
-92.0169
11
161.45
21
-92.0337
0
LINE
8
BLACK
6
CONTINUOUS
10
161.45
20
-92.0337
11
161.467
21
-92.0588
0
LINE
8
BLACK
6
CONTINUOUS
10
161.467
20
-92.0588
11
161.473
21
-92.0885
0
LINE
8
BLACK
6
CONTINUOUS
10
161.473
20
-92.0885
11
161.473
21
-93.2435
0
LINE
8
BLACK
6
CONTINUOUS
10
161.473
20
-93.2435
11
161.467
21
-93.2732
0
LINE
8
BLACK
6
CONTINUOUS
10
161.467
20
-93.2732
11
161.45
21
-93.2983
0
LINE
8
BLACK
6
CONTINUOUS
10
161.45
20
-93.2983
11
161.425
21
-93.3151
0
LINE
8
BLACK
6
CONTINUOUS
10
161.425
20
-93.3151
11
161.395
21
-93.321
0
LINE
8
BLACK
6
CONTINUOUS
10
161.395
20
-93.321
11
160.93
21
-93.321
0
LINE
8
BLACK
6
CONTINUOUS
10
160.93
20
-93.321
11
160.901
21
-93.3151
0
LINE
8
BLACK
6
CONTINUOUS
10
160.901
20
-93.3151
11
160.876
21
-93.2983
0
LINE
8
BLACK
6
CONTINUOUS
10
160.876
20
-93.2983
11
160.859
21
-93.2732
0
LINE
8
BLACK
6
CONTINUOUS
10
160.859
20
-93.2732
11
160.853
21
-93.2435
0
LINE
8
BLACK
6
CONTINUOUS
10
160.853
20
-93.2435
11
160.853
21
-92.0885
0
LINE
8
BLACK
6
CONTINUOUS
10
160.853
20
-92.0885
11
160.859
21
-92.0588
0
LINE
8
BLACK
6
CONTINUOUS
10
160.859
20
-92.0588
11
160.876
21
-92.0337
0
LINE
8
BLACK
6
CONTINUOUS
10
160.876
20
-92.0337
11
160.901
21
-92.0169
0
LINE
8
BLACK
6
CONTINUOUS
10
160.901
20
-92.0169
11
160.93
21
-92.011
0
LINE
8
BLACK
6
CONTINUOUS
10
160.93
20
-92.011
11
161.395
21
-92.011
0
LINE
8
BLACK
6
CONTINUOUS
10
161.395
20
-92.011
11
161.425
21
-92.0169
0
LINE
8
BLACK
6
CONTINUOUS
10
162.695
20
-92.0169
11
162.72
21
-92.0337
0
LINE
8
BLACK
6
CONTINUOUS
10
162.72
20
-92.0337
11
162.737
21
-92.0588
0
LINE
8
BLACK
6
CONTINUOUS
10
162.737
20
-92.0588
11
162.743
21
-92.0885
0
LINE
8
BLACK
6
CONTINUOUS
10
162.743
20
-92.0885
11
162.743
21
-93.2435
0
LINE
8
BLACK
6
CONTINUOUS
10
162.743
20
-93.2435
11
162.737
21
-93.2732
0
LINE
8
BLACK
6
CONTINUOUS
10
162.737
20
-93.2732
11
162.72
21
-93.2983
0
LINE
8
BLACK
6
CONTINUOUS
10
162.72
20
-93.2983
11
162.695
21
-93.3151
0
LINE
8
BLACK
6
CONTINUOUS
10
162.695
20
-93.3151
11
162.665
21
-93.321
0
LINE
8
BLACK
6
CONTINUOUS
10
162.665
20
-93.321
11
162.201
21
-93.321
0
LINE
8
BLACK
6
CONTINUOUS
10
162.201
20
-93.321
11
162.171
21
-93.3151
0
LINE
8
BLACK
6
CONTINUOUS
10
162.171
20
-93.3151
11
162.146
21
-93.2983
0
LINE
8
BLACK
6
CONTINUOUS
10
162.146
20
-93.2983
11
162.129
21
-93.2732
0
LINE
8
BLACK
6
CONTINUOUS
10
162.129
20
-93.2732
11
162.123
21
-93.2435
0
LINE
8
BLACK
6
CONTINUOUS
10
162.123
20
-93.2435
11
162.123
21
-92.0885
0
LINE
8
BLACK
6
CONTINUOUS
10
162.123
20
-92.0885
11
162.129
21
-92.0588
0
LINE
8
BLACK
6
CONTINUOUS
10
162.129
20
-92.0588
11
162.146
21
-92.0337
0
LINE
8
BLACK
6
CONTINUOUS
10
162.146
20
-92.0337
11
162.171
21
-92.0169
0
LINE
8
BLACK
6
CONTINUOUS
10
162.171
20
-92.0169
11
162.201
21
-92.011
0
LINE
8
BLACK
6
CONTINUOUS
10
162.201
20
-92.011
11
162.665
21
-92.011
0
LINE
8
BLACK
6
CONTINUOUS
10
162.665
20
-92.011
11
162.695
21
-92.0169
0
LINE
8
BLACK
6
CONTINUOUS
10
163.965
20
-92.0169
11
163.99
21
-92.0337
0
LINE
8
BLACK
6
CONTINUOUS
10
163.99
20
-92.0337
11
164.007
21
-92.0588
0
LINE
8
BLACK
6
CONTINUOUS
10
164.007
20
-92.0588
11
164.013
21
-92.0885
0
LINE
8
BLACK
6
CONTINUOUS
10
164.013
20
-92.0885
11
164.013
21
-93.2435
0
LINE
8
BLACK
6
CONTINUOUS
10
164.013
20
-93.2435
11
164.007
21
-93.2732
0
LINE
8
BLACK
6
CONTINUOUS
10
164.007
20
-93.2732
11
163.99
21
-93.2983
0
LINE
8
BLACK
6
CONTINUOUS
10
163.99
20
-93.2983
11
163.965
21
-93.3151
0
LINE
8
BLACK
6
CONTINUOUS
10
163.965
20
-93.3151
11
163.935
21
-93.321
0
LINE
8
BLACK
6
CONTINUOUS
10
163.935
20
-93.321
11
163.47
21
-93.321
0
LINE
8
BLACK
6
CONTINUOUS
10
163.47
20
-93.321
11
163.441
21
-93.3151
0
LINE
8
BLACK
6
CONTINUOUS
10
163.441
20
-93.3151
11
163.416
21
-93.2983
0
LINE
8
BLACK
6
CONTINUOUS
10
163.416
20
-93.2983
11
163.399
21
-93.2732
0
LINE
8
BLACK
6
CONTINUOUS
10
163.399
20
-93.2732
11
163.393
21
-93.2435
0
LINE
8
BLACK
6
CONTINUOUS
10
163.393
20
-93.2435
11
163.393
21
-92.0885
0
LINE
8
BLACK
6
CONTINUOUS
10
163.393
20
-92.0885
11
163.399
21
-92.0588
0
LINE
8
BLACK
6
CONTINUOUS
10
163.399
20
-92.0588
11
163.416
21
-92.0337
0
LINE
8
BLACK
6
CONTINUOUS
10
163.416
20
-92.0337
11
163.441
21
-92.0169
0
LINE
8
BLACK
6
CONTINUOUS
10
163.441
20
-92.0169
11
163.47
21
-92.011
0
LINE
8
BLACK
6
CONTINUOUS
10
163.47
20
-92.011
11
163.935
21
-92.011
0
LINE
8
BLACK
6
CONTINUOUS
10
163.935
20
-92.011
11
163.965
21
-92.0169
0
LINE
8
BLACK
6
CONTINUOUS
10
165.235
20
-92.0169
11
165.26
21
-92.0337
0
LINE
8
BLACK
6
CONTINUOUS
10
165.26
20
-92.0337
11
165.277
21
-92.0588
0
LINE
8
BLACK
6
CONTINUOUS
10
165.277
20
-92.0588
11
165.283
21
-92.0885
0
LINE
8
BLACK
6
CONTINUOUS
10
165.283
20
-92.0885
11
165.283
21
-93.2435
0
LINE
8
BLACK
6
CONTINUOUS
10
165.283
20
-93.2435
11
165.277
21
-93.2732
0
LINE
8
BLACK
6
CONTINUOUS
10
165.277
20
-93.2732
11
165.26
21
-93.2983
0
LINE
8
BLACK
6
CONTINUOUS
10
165.26
20
-93.2983
11
165.235
21
-93.3151
0
LINE
8
BLACK
6
CONTINUOUS
10
165.235
20
-93.3151
11
165.206
21
-93.321
0
LINE
8
BLACK
6
CONTINUOUS
10
165.206
20
-93.321
11
164.74
21
-93.321
0
LINE
8
BLACK
6
CONTINUOUS
10
164.74
20
-93.321
11
164.711
21
-93.3151
0
LINE
8
BLACK
6
CONTINUOUS
10
164.711
20
-93.3151
11
164.686
21
-93.2983
0
LINE
8
BLACK
6
CONTINUOUS
10
164.686
20
-93.2983
11
164.669
21
-93.2732
0
LINE
8
BLACK
6
CONTINUOUS
10
164.669
20
-93.2732
11
164.663
21
-93.2435
0
LINE
8
BLACK
6
CONTINUOUS
10
164.663
20
-93.2435
11
164.663
21
-92.0885
0
LINE
8
BLACK
6
CONTINUOUS
10
164.663
20
-92.0885
11
164.669
21
-92.0588
0
LINE
8
BLACK
6
CONTINUOUS
10
164.669
20
-92.0588
11
164.686
21
-92.0337
0
LINE
8
BLACK
6
CONTINUOUS
10
164.686
20
-92.0337
11
164.711
21
-92.0169
0
LINE
8
BLACK
6
CONTINUOUS
10
164.711
20
-92.0169
11
164.74
21
-92.011
0
LINE
8
BLACK
6
CONTINUOUS
10
164.74
20
-92.011
11
165.206
21
-92.011
0
LINE
8
BLACK
6
CONTINUOUS
10
165.206
20
-92.011
11
165.235
21
-92.0169
0
LINE
8
BLACK
6
CONTINUOUS
10
166.505
20
-92.0169
11
166.53
21
-92.0337
0
LINE
8
BLACK
6
CONTINUOUS
10
166.53
20
-92.0337
11
166.547
21
-92.0588
0
LINE
8
BLACK
6
CONTINUOUS
10
166.547
20
-92.0588
11
166.553
21
-92.0885
0
LINE
8
BLACK
6
CONTINUOUS
10
166.553
20
-92.0885
11
166.553
21
-93.2435
0
LINE
8
BLACK
6
CONTINUOUS
10
166.553
20
-93.2435
11
166.547
21
-93.2732
0
LINE
8
BLACK
6
CONTINUOUS
10
166.547
20
-93.2732
11
166.53
21
-93.2983
0
LINE
8
BLACK
6
CONTINUOUS
10
166.53
20
-93.2983
11
166.505
21
-93.3151
0
LINE
8
BLACK
6
CONTINUOUS
10
166.505
20
-93.3151
11
166.475
21
-93.321
0
LINE
8
BLACK
6
CONTINUOUS
10
166.475
20
-93.321
11
166.01
21
-93.321
0
LINE
8
BLACK
6
CONTINUOUS
10
166.01
20
-93.321
11
165.981
21
-93.3151
0
LINE
8
BLACK
6
CONTINUOUS
10
165.981
20
-93.3151
11
165.956
21
-93.2983
0
LINE
8
BLACK
6
CONTINUOUS
10
165.956
20
-93.2983
11
165.939
21
-93.2732
0
LINE
8
BLACK
6
CONTINUOUS
10
165.939
20
-93.2732
11
165.933
21
-93.2435
0
LINE
8
BLACK
6
CONTINUOUS
10
165.933
20
-93.2435
11
165.933
21
-92.0885
0
LINE
8
BLACK
6
CONTINUOUS
10
165.933
20
-92.0885
11
165.939
21
-92.0588
0
LINE
8
BLACK
6
CONTINUOUS
10
165.939
20
-92.0588
11
165.956
21
-92.0337
0
LINE
8
BLACK
6
CONTINUOUS
10
165.956
20
-92.0337
11
165.981
21
-92.0169
0
LINE
8
BLACK
6
CONTINUOUS
10
165.981
20
-92.0169
11
166.01
21
-92.011
0
LINE
8
BLACK
6
CONTINUOUS
10
166.01
20
-92.011
11
166.475
21
-92.011
0
LINE
8
BLACK
6
CONTINUOUS
10
166.475
20
-92.011
11
166.505
21
-92.0169
0
LINE
8
BLACK
6
CONTINUOUS
10
167.775
20
-92.0169
11
167.8
21
-92.0337
0
LINE
8
BLACK
6
CONTINUOUS
10
167.8
20
-92.0337
11
167.817
21
-92.0588
0
LINE
8
BLACK
6
CONTINUOUS
10
167.817
20
-92.0588
11
167.823
21
-92.0885
0
LINE
8
BLACK
6
CONTINUOUS
10
167.823
20
-92.0885
11
167.823
21
-93.2435
0
LINE
8
BLACK
6
CONTINUOUS
10
167.823
20
-93.2435
11
167.817
21
-93.2732
0
LINE
8
BLACK
6
CONTINUOUS
10
167.817
20
-93.2732
11
167.8
21
-93.2983
0
LINE
8
BLACK
6
CONTINUOUS
10
167.8
20
-93.2983
11
167.775
21
-93.3151
0
LINE
8
BLACK
6
CONTINUOUS
10
167.775
20
-93.3151
11
167.745
21
-93.321
0
LINE
8
BLACK
6
CONTINUOUS
10
167.745
20
-93.321
11
167.28
21
-93.321
0
LINE
8
BLACK
6
CONTINUOUS
10
167.28
20
-93.321
11
167.251
21
-93.3151
0
LINE
8
BLACK
6
CONTINUOUS
10
167.251
20
-93.3151
11
167.226
21
-93.2983
0
LINE
8
BLACK
6
CONTINUOUS
10
167.226
20
-93.2983
11
167.209
21
-93.2732
0
LINE
8
BLACK
6
CONTINUOUS
10
167.209
20
-93.2732
11
167.203
21
-93.2435
0
LINE
8
BLACK
6
CONTINUOUS
10
167.203
20
-93.2435
11
167.203
21
-92.0885
0
LINE
8
BLACK
6
CONTINUOUS
10
167.203
20
-92.0885
11
167.209
21
-92.0588
0
LINE
8
BLACK
6
CONTINUOUS
10
167.209
20
-92.0588
11
167.226
21
-92.0337
0
LINE
8
BLACK
6
CONTINUOUS
10
167.226
20
-92.0337
11
167.251
21
-92.0169
0
LINE
8
BLACK
6
CONTINUOUS
10
167.251
20
-92.0169
11
167.28
21
-92.011
0
LINE
8
BLACK
6
CONTINUOUS
10
167.28
20
-92.011
11
167.745
21
-92.011
0
LINE
8
BLACK
6
CONTINUOUS
10
167.745
20
-92.011
11
167.775
21
-92.0169
0
LINE
8
BLACK
6
CONTINUOUS
10
169.045
20
-92.0169
11
169.07
21
-92.0337
0
LINE
8
BLACK
6
CONTINUOUS
10
169.07
20
-92.0337
11
169.087
21
-92.0588
0
LINE
8
BLACK
6
CONTINUOUS
10
169.087
20
-92.0588
11
169.093
21
-92.0885
0
LINE
8
BLACK
6
CONTINUOUS
10
169.093
20
-92.0885
11
169.093
21
-93.2435
0
LINE
8
BLACK
6
CONTINUOUS
10
169.093
20
-93.2435
11
169.087
21
-93.2732
0
LINE
8
BLACK
6
CONTINUOUS
10
169.087
20
-93.2732
11
169.07
21
-93.2983
0
LINE
8
BLACK
6
CONTINUOUS
10
169.07
20
-93.2983
11
169.045
21
-93.3151
0
LINE
8
BLACK
6
CONTINUOUS
10
169.045
20
-93.3151
11
169.016
21
-93.321
0
LINE
8
BLACK
6
CONTINUOUS
10
169.016
20
-93.321
11
168.55
21
-93.321
0
LINE
8
BLACK
6
CONTINUOUS
10
168.55
20
-93.321
11
168.521
21
-93.3151
0
LINE
8
BLACK
6
CONTINUOUS
10
168.521
20
-93.3151
11
168.496
21
-93.2983
0
LINE
8
BLACK
6
CONTINUOUS
10
168.496
20
-93.2983
11
168.479
21
-93.2732
0
LINE
8
BLACK
6
CONTINUOUS
10
168.479
20
-93.2732
11
168.473
21
-93.2435
0
LINE
8
BLACK
6
CONTINUOUS
10
168.473
20
-93.2435
11
168.473
21
-92.0885
0
LINE
8
BLACK
6
CONTINUOUS
10
168.473
20
-92.0885
11
168.479
21
-92.0588
0
LINE
8
BLACK
6
CONTINUOUS
10
168.479
20
-92.0588
11
168.496
21
-92.0337
0
LINE
8
BLACK
6
CONTINUOUS
10
168.496
20
-92.0337
11
168.521
21
-92.0169
0
LINE
8
BLACK
6
CONTINUOUS
10
168.521
20
-92.0169
11
168.55
21
-92.011
0
LINE
8
BLACK
6
CONTINUOUS
10
168.55
20
-92.011
11
169.016
21
-92.011
0
LINE
8
BLACK
6
CONTINUOUS
10
169.016
20
-92.011
11
169.045
21
-92.0169
0
LINE
8
BLACK
6
CONTINUOUS
10
170.315
20
-92.0169
11
170.34
21
-92.0337
0
LINE
8
BLACK
6
CONTINUOUS
10
170.34
20
-92.0337
11
170.357
21
-92.0588
0
LINE
8
BLACK
6
CONTINUOUS
10
170.357
20
-92.0588
11
170.363
21
-92.0885
0
LINE
8
BLACK
6
CONTINUOUS
10
170.363
20
-92.0885
11
170.363
21
-93.2435
0
LINE
8
BLACK
6
CONTINUOUS
10
170.363
20
-93.2435
11
170.357
21
-93.2732
0
LINE
8
BLACK
6
CONTINUOUS
10
170.357
20
-93.2732
11
170.34
21
-93.2983
0
LINE
8
BLACK
6
CONTINUOUS
10
170.34
20
-93.2983
11
170.315
21
-93.3151
0
LINE
8
BLACK
6
CONTINUOUS
10
170.315
20
-93.3151
11
170.285
21
-93.321
0
LINE
8
BLACK
6
CONTINUOUS
10
170.285
20
-93.321
11
169.82
21
-93.321
0
LINE
8
BLACK
6
CONTINUOUS
10
169.82
20
-93.321
11
169.791
21
-93.3151
0
LINE
8
BLACK
6
CONTINUOUS
10
169.791
20
-93.3151
11
169.766
21
-93.2983
0
LINE
8
BLACK
6
CONTINUOUS
10
169.766
20
-93.2983
11
169.749
21
-93.2732
0
LINE
8
BLACK
6
CONTINUOUS
10
169.749
20
-93.2732
11
169.743
21
-93.2435
0
LINE
8
BLACK
6
CONTINUOUS
10
169.743
20
-93.2435
11
169.743
21
-92.0885
0
LINE
8
BLACK
6
CONTINUOUS
10
169.743
20
-92.0885
11
169.749
21
-92.0588
0
LINE
8
BLACK
6
CONTINUOUS
10
169.749
20
-92.0588
11
169.766
21
-92.0337
0
LINE
8
BLACK
6
CONTINUOUS
10
169.766
20
-92.0337
11
169.791
21
-92.0169
0
LINE
8
BLACK
6
CONTINUOUS
10
169.791
20
-92.0169
11
169.82
21
-92.011
0
LINE
8
BLACK
6
CONTINUOUS
10
169.82
20
-92.011
11
170.285
21
-92.011
0
LINE
8
BLACK
6
CONTINUOUS
10
170.285
20
-92.011
11
170.315
21
-92.0169
0
LINE
8
BLACK
6
CONTINUOUS
10
161.425
20
-86.5169
11
161.45
21
-86.5337
0
LINE
8
BLACK
6
CONTINUOUS
10
161.45
20
-86.5337
11
161.467
21
-86.5588
0
LINE
8
BLACK
6
CONTINUOUS
10
161.467
20
-86.5588
11
161.473
21
-86.5885
0
LINE
8
BLACK
6
CONTINUOUS
10
161.473
20
-86.5885
11
161.473
21
-87.7435
0
LINE
8
BLACK
6
CONTINUOUS
10
161.473
20
-87.7435
11
161.467
21
-87.7732
0
LINE
8
BLACK
6
CONTINUOUS
10
161.467
20
-87.7732
11
161.45
21
-87.7983
0
LINE
8
BLACK
6
CONTINUOUS
10
161.45
20
-87.7983
11
161.425
21
-87.8151
0
LINE
8
BLACK
6
CONTINUOUS
10
161.425
20
-87.8151
11
161.395
21
-87.821
0
LINE
8
BLACK
6
CONTINUOUS
10
161.395
20
-87.821
11
160.93
21
-87.821
0
LINE
8
BLACK
6
CONTINUOUS
10
160.93
20
-87.821
11
160.901
21
-87.8151
0
LINE
8
BLACK
6
CONTINUOUS
10
160.901
20
-87.8151
11
160.876
21
-87.7983
0
LINE
8
BLACK
6
CONTINUOUS
10
160.876
20
-87.7983
11
160.859
21
-87.7732
0
LINE
8
BLACK
6
CONTINUOUS
10
160.859
20
-87.7732
11
160.853
21
-87.7435
0
LINE
8
BLACK
6
CONTINUOUS
10
160.853
20
-87.7435
11
160.853
21
-86.5885
0
LINE
8
BLACK
6
CONTINUOUS
10
160.853
20
-86.5885
11
160.859
21
-86.5588
0
LINE
8
BLACK
6
CONTINUOUS
10
160.859
20
-86.5588
11
160.876
21
-86.5337
0
LINE
8
BLACK
6
CONTINUOUS
10
160.876
20
-86.5337
11
160.901
21
-86.5169
0
LINE
8
BLACK
6
CONTINUOUS
10
160.901
20
-86.5169
11
160.93
21
-86.511
0
LINE
8
BLACK
6
CONTINUOUS
10
160.93
20
-86.511
11
161.395
21
-86.511
0
LINE
8
BLACK
6
CONTINUOUS
10
161.395
20
-86.511
11
161.425
21
-86.5169
0
LINE
8
BLACK
6
CONTINUOUS
10
162.695
20
-86.5169
11
162.72
21
-86.5337
0
LINE
8
BLACK
6
CONTINUOUS
10
162.72
20
-86.5337
11
162.737
21
-86.5588
0
LINE
8
BLACK
6
CONTINUOUS
10
162.737
20
-86.5588
11
162.743
21
-86.5885
0
LINE
8
BLACK
6
CONTINUOUS
10
162.743
20
-86.5885
11
162.743
21
-87.7435
0
LINE
8
BLACK
6
CONTINUOUS
10
162.743
20
-87.7435
11
162.737
21
-87.7732
0
LINE
8
BLACK
6
CONTINUOUS
10
162.737
20
-87.7732
11
162.72
21
-87.7983
0
LINE
8
BLACK
6
CONTINUOUS
10
162.72
20
-87.7983
11
162.695
21
-87.8151
0
LINE
8
BLACK
6
CONTINUOUS
10
162.695
20
-87.8151
11
162.665
21
-87.821
0
LINE
8
BLACK
6
CONTINUOUS
10
162.665
20
-87.821
11
162.201
21
-87.821
0
LINE
8
BLACK
6
CONTINUOUS
10
162.201
20
-87.821
11
162.171
21
-87.8151
0
LINE
8
BLACK
6
CONTINUOUS
10
162.171
20
-87.8151
11
162.146
21
-87.7983
0
LINE
8
BLACK
6
CONTINUOUS
10
162.146
20
-87.7983
11
162.129
21
-87.7732
0
LINE
8
BLACK
6
CONTINUOUS
10
162.129
20
-87.7732
11
162.123
21
-87.7435
0
LINE
8
BLACK
6
CONTINUOUS
10
162.123
20
-87.7435
11
162.123
21
-86.5885
0
LINE
8
BLACK
6
CONTINUOUS
10
162.123
20
-86.5885
11
162.129
21
-86.5588
0
LINE
8
BLACK
6
CONTINUOUS
10
162.129
20
-86.5588
11
162.146
21
-86.5337
0
LINE
8
BLACK
6
CONTINUOUS
10
162.146
20
-86.5337
11
162.171
21
-86.5169
0
LINE
8
BLACK
6
CONTINUOUS
10
162.171
20
-86.5169
11
162.201
21
-86.511
0
LINE
8
BLACK
6
CONTINUOUS
10
162.201
20
-86.511
11
162.665
21
-86.511
0
LINE
8
BLACK
6
CONTINUOUS
10
162.665
20
-86.511
11
162.695
21
-86.5169
0
LINE
8
BLACK
6
CONTINUOUS
10
163.965
20
-86.5169
11
163.99
21
-86.5337
0
LINE
8
BLACK
6
CONTINUOUS
10
163.99
20
-86.5337
11
164.007
21
-86.5588
0
LINE
8
BLACK
6
CONTINUOUS
10
164.007
20
-86.5588
11
164.013
21
-86.5885
0
LINE
8
BLACK
6
CONTINUOUS
10
164.013
20
-86.5885
11
164.013
21
-87.7435
0
LINE
8
BLACK
6
CONTINUOUS
10
164.013
20
-87.7435
11
164.007
21
-87.7732
0
LINE
8
BLACK
6
CONTINUOUS
10
164.007
20
-87.7732
11
163.99
21
-87.7983
0
LINE
8
BLACK
6
CONTINUOUS
10
163.99
20
-87.7983
11
163.965
21
-87.8151
0
LINE
8
BLACK
6
CONTINUOUS
10
163.965
20
-87.8151
11
163.935
21
-87.821
0
LINE
8
BLACK
6
CONTINUOUS
10
163.935
20
-87.821
11
163.47
21
-87.821
0
LINE
8
BLACK
6
CONTINUOUS
10
163.47
20
-87.821
11
163.441
21
-87.8151
0
LINE
8
BLACK
6
CONTINUOUS
10
163.441
20
-87.8151
11
163.416
21
-87.7983
0
LINE
8
BLACK
6
CONTINUOUS
10
163.416
20
-87.7983
11
163.399
21
-87.7732
0
LINE
8
BLACK
6
CONTINUOUS
10
163.399
20
-87.7732
11
163.393
21
-87.7435
0
LINE
8
BLACK
6
CONTINUOUS
10
163.393
20
-87.7435
11
163.393
21
-86.5885
0
LINE
8
BLACK
6
CONTINUOUS
10
163.393
20
-86.5885
11
163.399
21
-86.5588
0
LINE
8
BLACK
6
CONTINUOUS
10
163.399
20
-86.5588
11
163.416
21
-86.5337
0
LINE
8
BLACK
6
CONTINUOUS
10
163.416
20
-86.5337
11
163.441
21
-86.5169
0
LINE
8
BLACK
6
CONTINUOUS
10
163.441
20
-86.5169
11
163.47
21
-86.511
0
LINE
8
BLACK
6
CONTINUOUS
10
163.47
20
-86.511
11
163.935
21
-86.511
0
LINE
8
BLACK
6
CONTINUOUS
10
163.935
20
-86.511
11
163.965
21
-86.5169
0
LINE
8
BLACK
6
CONTINUOUS
10
165.235
20
-86.5169
11
165.26
21
-86.5337
0
LINE
8
BLACK
6
CONTINUOUS
10
165.26
20
-86.5337
11
165.277
21
-86.5588
0
LINE
8
BLACK
6
CONTINUOUS
10
165.277
20
-86.5588
11
165.283
21
-86.5885
0
LINE
8
BLACK
6
CONTINUOUS
10
165.283
20
-86.5885
11
165.283
21
-87.7435
0
LINE
8
BLACK
6
CONTINUOUS
10
165.283
20
-87.7435
11
165.277
21
-87.7732
0
LINE
8
BLACK
6
CONTINUOUS
10
165.277
20
-87.7732
11
165.26
21
-87.7983
0
LINE
8
BLACK
6
CONTINUOUS
10
165.26
20
-87.7983
11
165.235
21
-87.8151
0
LINE
8
BLACK
6
CONTINUOUS
10
165.235
20
-87.8151
11
165.206
21
-87.821
0
LINE
8
BLACK
6
CONTINUOUS
10
165.206
20
-87.821
11
164.74
21
-87.821
0
LINE
8
BLACK
6
CONTINUOUS
10
164.74
20
-87.821
11
164.711
21
-87.8151
0
LINE
8
BLACK
6
CONTINUOUS
10
164.711
20
-87.8151
11
164.686
21
-87.7983
0
LINE
8
BLACK
6
CONTINUOUS
10
164.686
20
-87.7983
11
164.669
21
-87.7732
0
LINE
8
BLACK
6
CONTINUOUS
10
164.669
20
-87.7732
11
164.663
21
-87.7435
0
LINE
8
BLACK
6
CONTINUOUS
10
164.663
20
-87.7435
11
164.663
21
-86.5885
0
LINE
8
BLACK
6
CONTINUOUS
10
164.663
20
-86.5885
11
164.669
21
-86.5588
0
LINE
8
BLACK
6
CONTINUOUS
10
164.669
20
-86.5588
11
164.686
21
-86.5337
0
LINE
8
BLACK
6
CONTINUOUS
10
164.686
20
-86.5337
11
164.711
21
-86.5169
0
LINE
8
BLACK
6
CONTINUOUS
10
164.711
20
-86.5169
11
164.74
21
-86.511
0
LINE
8
BLACK
6
CONTINUOUS
10
164.74
20
-86.511
11
165.206
21
-86.511
0
LINE
8
BLACK
6
CONTINUOUS
10
165.206
20
-86.511
11
165.235
21
-86.5169
0
LINE
8
BLACK
6
CONTINUOUS
10
166.505
20
-86.5169
11
166.53
21
-86.5337
0
LINE
8
BLACK
6
CONTINUOUS
10
166.53
20
-86.5337
11
166.547
21
-86.5588
0
LINE
8
BLACK
6
CONTINUOUS
10
166.547
20
-86.5588
11
166.553
21
-86.5885
0
LINE
8
BLACK
6
CONTINUOUS
10
166.553
20
-86.5885
11
166.553
21
-87.7435
0
LINE
8
BLACK
6
CONTINUOUS
10
166.553
20
-87.7435
11
166.547
21
-87.7732
0
LINE
8
BLACK
6
CONTINUOUS
10
166.547
20
-87.7732
11
166.53
21
-87.7983
0
LINE
8
BLACK
6
CONTINUOUS
10
166.53
20
-87.7983
11
166.505
21
-87.8151
0
LINE
8
BLACK
6
CONTINUOUS
10
166.505
20
-87.8151
11
166.475
21
-87.821
0
LINE
8
BLACK
6
CONTINUOUS
10
166.475
20
-87.821
11
166.01
21
-87.821
0
LINE
8
BLACK
6
CONTINUOUS
10
166.01
20
-87.821
11
165.981
21
-87.8151
0
LINE
8
BLACK
6
CONTINUOUS
10
165.981
20
-87.8151
11
165.956
21
-87.7983
0
LINE
8
BLACK
6
CONTINUOUS
10
165.956
20
-87.7983
11
165.939
21
-87.7732
0
LINE
8
BLACK
6
CONTINUOUS
10
165.939
20
-87.7732
11
165.933
21
-87.7435
0
LINE
8
BLACK
6
CONTINUOUS
10
165.933
20
-87.7435
11
165.933
21
-86.5885
0
LINE
8
BLACK
6
CONTINUOUS
10
165.933
20
-86.5885
11
165.939
21
-86.5588
0
LINE
8
BLACK
6
CONTINUOUS
10
165.939
20
-86.5588
11
165.956
21
-86.5337
0
LINE
8
BLACK
6
CONTINUOUS
10
165.956
20
-86.5337
11
165.981
21
-86.5169
0
LINE
8
BLACK
6
CONTINUOUS
10
165.981
20
-86.5169
11
166.01
21
-86.511
0
LINE
8
BLACK
6
CONTINUOUS
10
166.01
20
-86.511
11
166.475
21
-86.511
0
LINE
8
BLACK
6
CONTINUOUS
10
166.475
20
-86.511
11
166.505
21
-86.5169
0
LINE
8
BLACK
6
CONTINUOUS
10
167.775
20
-86.5169
11
167.8
21
-86.5337
0
LINE
8
BLACK
6
CONTINUOUS
10
167.8
20
-86.5337
11
167.817
21
-86.5588
0
LINE
8
BLACK
6
CONTINUOUS
10
167.817
20
-86.5588
11
167.823
21
-86.5885
0
LINE
8
BLACK
6
CONTINUOUS
10
167.823
20
-86.5885
11
167.823
21
-87.7435
0
LINE
8
BLACK
6
CONTINUOUS
10
167.823
20
-87.7435
11
167.817
21
-87.7732
0
LINE
8
BLACK
6
CONTINUOUS
10
167.817
20
-87.7732
11
167.8
21
-87.7983
0
LINE
8
BLACK
6
CONTINUOUS
10
167.8
20
-87.7983
11
167.775
21
-87.8151
0
LINE
8
BLACK
6
CONTINUOUS
10
167.775
20
-87.8151
11
167.745
21
-87.821
0
LINE
8
BLACK
6
CONTINUOUS
10
167.745
20
-87.821
11
167.28
21
-87.821
0
LINE
8
BLACK
6
CONTINUOUS
10
167.28
20
-87.821
11
167.251
21
-87.8151
0
LINE
8
BLACK
6
CONTINUOUS
10
167.251
20
-87.8151
11
167.226
21
-87.7983
0
LINE
8
BLACK
6
CONTINUOUS
10
167.226
20
-87.7983
11
167.209
21
-87.7732
0
LINE
8
BLACK
6
CONTINUOUS
10
167.209
20
-87.7732
11
167.203
21
-87.7435
0
LINE
8
BLACK
6
CONTINUOUS
10
167.203
20
-87.7435
11
167.203
21
-86.5885
0
LINE
8
BLACK
6
CONTINUOUS
10
167.203
20
-86.5885
11
167.209
21
-86.5588
0
LINE
8
BLACK
6
CONTINUOUS
10
167.209
20
-86.5588
11
167.226
21
-86.5337
0
LINE
8
BLACK
6
CONTINUOUS
10
167.226
20
-86.5337
11
167.251
21
-86.5169
0
LINE
8
BLACK
6
CONTINUOUS
10
167.251
20
-86.5169
11
167.28
21
-86.511
0
LINE
8
BLACK
6
CONTINUOUS
10
167.28
20
-86.511
11
167.745
21
-86.511
0
LINE
8
BLACK
6
CONTINUOUS
10
167.745
20
-86.511
11
167.775
21
-86.5169
0
LINE
8
BLACK
6
CONTINUOUS
10
169.045
20
-86.5169
11
169.07
21
-86.5337
0
LINE
8
BLACK
6
CONTINUOUS
10
169.07
20
-86.5337
11
169.087
21
-86.5588
0
LINE
8
BLACK
6
CONTINUOUS
10
169.087
20
-86.5588
11
169.093
21
-86.5885
0
LINE
8
BLACK
6
CONTINUOUS
10
169.093
20
-86.5885
11
169.093
21
-87.7435
0
LINE
8
BLACK
6
CONTINUOUS
10
169.093
20
-87.7435
11
169.087
21
-87.7732
0
LINE
8
BLACK
6
CONTINUOUS
10
169.087
20
-87.7732
11
169.07
21
-87.7983
0
LINE
8
BLACK
6
CONTINUOUS
10
169.07
20
-87.7983
11
169.045
21
-87.8151
0
LINE
8
BLACK
6
CONTINUOUS
10
169.045
20
-87.8151
11
169.016
21
-87.821
0
LINE
8
BLACK
6
CONTINUOUS
10
169.016
20
-87.821
11
168.55
21
-87.821
0
LINE
8
BLACK
6
CONTINUOUS
10
168.55
20
-87.821
11
168.521
21
-87.8151
0
LINE
8
BLACK
6
CONTINUOUS
10
168.521
20
-87.8151
11
168.496
21
-87.7983
0
LINE
8
BLACK
6
CONTINUOUS
10
168.496
20
-87.7983
11
168.479
21
-87.7732
0
LINE
8
BLACK
6
CONTINUOUS
10
168.479
20
-87.7732
11
168.473
21
-87.7435
0
LINE
8
BLACK
6
CONTINUOUS
10
168.473
20
-87.7435
11
168.473
21
-86.5885
0
LINE
8
BLACK
6
CONTINUOUS
10
168.473
20
-86.5885
11
168.479
21
-86.5588
0
LINE
8
BLACK
6
CONTINUOUS
10
168.479
20
-86.5588
11
168.496
21
-86.5337
0
LINE
8
BLACK
6
CONTINUOUS
10
168.496
20
-86.5337
11
168.521
21
-86.5169
0
LINE
8
BLACK
6
CONTINUOUS
10
168.521
20
-86.5169
11
168.55
21
-86.511
0
LINE
8
BLACK
6
CONTINUOUS
10
168.55
20
-86.511
11
169.016
21
-86.511
0
LINE
8
BLACK
6
CONTINUOUS
10
169.016
20
-86.511
11
169.045
21
-86.5169
0
LINE
8
BLACK
6
CONTINUOUS
10
170.315
20
-86.5169
11
170.34
21
-86.5337
0
LINE
8
BLACK
6
CONTINUOUS
10
170.34
20
-86.5337
11
170.357
21
-86.5588
0
LINE
8
BLACK
6
CONTINUOUS
10
170.357
20
-86.5588
11
170.363
21
-86.5885
0
LINE
8
BLACK
6
CONTINUOUS
10
170.363
20
-86.5885
11
170.363
21
-87.7435
0
LINE
8
BLACK
6
CONTINUOUS
10
170.363
20
-87.7435
11
170.357
21
-87.7732
0
LINE
8
BLACK
6
CONTINUOUS
10
170.357
20
-87.7732
11
170.34
21
-87.7983
0
LINE
8
BLACK
6
CONTINUOUS
10
170.34
20
-87.7983
11
170.315
21
-87.8151
0
LINE
8
BLACK
6
CONTINUOUS
10
170.315
20
-87.8151
11
170.285
21
-87.821
0
LINE
8
BLACK
6
CONTINUOUS
10
170.285
20
-87.821
11
169.82
21
-87.821
0
LINE
8
BLACK
6
CONTINUOUS
10
169.82
20
-87.821
11
169.791
21
-87.8151
0
LINE
8
BLACK
6
CONTINUOUS
10
169.791
20
-87.8151
11
169.766
21
-87.7983
0
LINE
8
BLACK
6
CONTINUOUS
10
169.766
20
-87.7983
11
169.749
21
-87.7732
0
LINE
8
BLACK
6
CONTINUOUS
10
169.749
20
-87.7732
11
169.743
21
-87.7435
0
LINE
8
BLACK
6
CONTINUOUS
10
169.743
20
-87.7435
11
169.743
21
-86.5885
0
LINE
8
BLACK
6
CONTINUOUS
10
169.743
20
-86.5885
11
169.749
21
-86.5588
0
LINE
8
BLACK
6
CONTINUOUS
10
169.749
20
-86.5588
11
169.766
21
-86.5337
0
LINE
8
BLACK
6
CONTINUOUS
10
169.766
20
-86.5337
11
169.791
21
-86.5169
0
LINE
8
BLACK
6
CONTINUOUS
10
169.791
20
-86.5169
11
169.82
21
-86.511
0
LINE
8
BLACK
6
CONTINUOUS
10
169.82
20
-86.511
11
170.285
21
-86.511
0
LINE
8
BLACK
6
CONTINUOUS
10
170.285
20
-86.511
11
170.315
21
-86.5169
0
LINE
8
BLACK
6
CONTINUOUS
10
161.25
20
-84.1662
11
161.314
21
-84.2096
0
LINE
8
BLACK
6
CONTINUOUS
10
161.314
20
-84.2096
11
161.358
21
-84.2745
0
LINE
8
BLACK
6
CONTINUOUS
10
161.358
20
-84.2745
11
161.373
21
-84.351
0
LINE
8
BLACK
6
CONTINUOUS
10
161.373
20
-84.351
11
161.373
21
-84.901
0
LINE
8
BLACK
6
CONTINUOUS
10
161.373
20
-84.901
11
161.358
21
-84.9775
0
LINE
8
BLACK
6
CONTINUOUS
10
161.358
20
-84.9775
11
161.314
21
-85.0424
0
LINE
8
BLACK
6
CONTINUOUS
10
161.314
20
-85.0424
11
161.25
21
-85.0858
0
LINE
8
BLACK
6
CONTINUOUS
10
161.25
20
-85.0858
11
161.173
21
-85.101
0
LINE
8
BLACK
6
CONTINUOUS
10
161.173
20
-85.101
11
160.773
21
-85.101
0
LINE
8
BLACK
6
CONTINUOUS
10
160.773
20
-85.101
11
160.696
21
-85.0858
0
LINE
8
BLACK
6
CONTINUOUS
10
160.696
20
-85.0858
11
160.632
21
-85.0424
0
LINE
8
BLACK
6
CONTINUOUS
10
160.632
20
-85.0424
11
160.588
21
-84.9775
0
LINE
8
BLACK
6
CONTINUOUS
10
160.588
20
-84.9775
11
160.573
21
-84.901
0
LINE
8
BLACK
6
CONTINUOUS
10
160.573
20
-84.901
11
160.573
21
-84.351
0
LINE
8
BLACK
6
CONTINUOUS
10
160.573
20
-84.351
11
160.588
21
-84.2745
0
LINE
8
BLACK
6
CONTINUOUS
10
160.588
20
-84.2745
11
160.632
21
-84.2096
0
LINE
8
BLACK
6
CONTINUOUS
10
160.632
20
-84.2096
11
160.696
21
-84.1662
0
LINE
8
BLACK
6
CONTINUOUS
10
160.696
20
-84.1662
11
160.773
21
-84.151
0
LINE
8
BLACK
6
CONTINUOUS
10
160.773
20
-84.151
11
161.173
21
-84.151
0
LINE
8
BLACK
6
CONTINUOUS
10
161.173
20
-84.151
11
161.25
21
-84.1662
0
LINE
8
BLACK
6
CONTINUOUS
10
162.9
20
-84.1662
11
162.964
21
-84.2096
0
LINE
8
BLACK
6
CONTINUOUS
10
162.964
20
-84.2096
11
163.008
21
-84.2745
0
LINE
8
BLACK
6
CONTINUOUS
10
163.008
20
-84.2745
11
163.023
21
-84.351
0
LINE
8
BLACK
6
CONTINUOUS
10
163.023
20
-84.351
11
163.023
21
-84.901
0
LINE
8
BLACK
6
CONTINUOUS
10
163.023
20
-84.901
11
163.008
21
-84.9775
0
LINE
8
BLACK
6
CONTINUOUS
10
163.008
20
-84.9775
11
162.964
21
-85.0424
0
LINE
8
BLACK
6
CONTINUOUS
10
162.964
20
-85.0424
11
162.9
21
-85.0858
0
LINE
8
BLACK
6
CONTINUOUS
10
162.9
20
-85.0858
11
162.823
21
-85.101
0
LINE
8
BLACK
6
CONTINUOUS
10
162.823
20
-85.101
11
162.423
21
-85.101
0
LINE
8
BLACK
6
CONTINUOUS
10
162.423
20
-85.101
11
162.346
21
-85.0858
0
LINE
8
BLACK
6
CONTINUOUS
10
162.346
20
-85.0858
11
162.282
21
-85.0424
0
LINE
8
BLACK
6
CONTINUOUS
10
162.282
20
-85.0424
11
162.238
21
-84.9775
0
LINE
8
BLACK
6
CONTINUOUS
10
162.238
20
-84.9775
11
162.223
21
-84.901
0
LINE
8
BLACK
6
CONTINUOUS
10
162.223
20
-84.901
11
162.223
21
-84.351
0
LINE
8
BLACK
6
CONTINUOUS
10
162.223
20
-84.351
11
162.238
21
-84.2745
0
LINE
8
BLACK
6
CONTINUOUS
10
162.238
20
-84.2745
11
162.282
21
-84.2096
0
LINE
8
BLACK
6
CONTINUOUS
10
162.282
20
-84.2096
11
162.346
21
-84.1662
0
LINE
8
BLACK
6
CONTINUOUS
10
162.346
20
-84.1662
11
162.423
21
-84.151
0
LINE
8
BLACK
6
CONTINUOUS
10
162.423
20
-84.151
11
162.823
21
-84.151
0
LINE
8
BLACK
6
CONTINUOUS
10
162.823
20
-84.151
11
162.9
21
-84.1662
0
LINE
8
BLACK
6
CONTINUOUS
10
165.06
20
-84.1662
11
165.124
21
-84.2096
0
LINE
8
BLACK
6
CONTINUOUS
10
165.124
20
-84.2096
11
165.168
21
-84.2745
0
LINE
8
BLACK
6
CONTINUOUS
10
165.168
20
-84.2745
11
165.183
21
-84.351
0
LINE
8
BLACK
6
CONTINUOUS
10
165.183
20
-84.351
11
165.183
21
-84.901
0
LINE
8
BLACK
6
CONTINUOUS
10
165.183
20
-84.901
11
165.168
21
-84.9775
0
LINE
8
BLACK
6
CONTINUOUS
10
165.168
20
-84.9775
11
165.124
21
-85.0424
0
LINE
8
BLACK
6
CONTINUOUS
10
165.124
20
-85.0424
11
165.06
21
-85.0858
0
LINE
8
BLACK
6
CONTINUOUS
10
165.06
20
-85.0858
11
164.983
21
-85.101
0
LINE
8
BLACK
6
CONTINUOUS
10
164.983
20
-85.101
11
164.583
21
-85.101
0
LINE
8
BLACK
6
CONTINUOUS
10
164.583
20
-85.101
11
164.506
21
-85.0858
0
LINE
8
BLACK
6
CONTINUOUS
10
164.506
20
-85.0858
11
164.442
21
-85.0424
0
LINE
8
BLACK
6
CONTINUOUS
10
164.442
20
-85.0424
11
164.398
21
-84.9775
0
LINE
8
BLACK
6
CONTINUOUS
10
164.398
20
-84.9775
11
164.383
21
-84.901
0
LINE
8
BLACK
6
CONTINUOUS
10
164.383
20
-84.901
11
164.383
21
-84.351
0
LINE
8
BLACK
6
CONTINUOUS
10
164.383
20
-84.351
11
164.398
21
-84.2745
0
LINE
8
BLACK
6
CONTINUOUS
10
164.398
20
-84.2745
11
164.442
21
-84.2096
0
LINE
8
BLACK
6
CONTINUOUS
10
164.442
20
-84.2096
11
164.506
21
-84.1662
0
LINE
8
BLACK
6
CONTINUOUS
10
164.506
20
-84.1662
11
164.583
21
-84.151
0
LINE
8
BLACK
6
CONTINUOUS
10
164.583
20
-84.151
11
164.983
21
-84.151
0
LINE
8
BLACK
6
CONTINUOUS
10
164.983
20
-84.151
11
165.06
21
-84.1662
0
LINE
8
BLACK
6
CONTINUOUS
10
166.71
20
-84.1662
11
166.774
21
-84.2096
0
LINE
8
BLACK
6
CONTINUOUS
10
166.774
20
-84.2096
11
166.818
21
-84.2745
0
LINE
8
BLACK
6
CONTINUOUS
10
166.818
20
-84.2745
11
166.833
21
-84.351
0
LINE
8
BLACK
6
CONTINUOUS
10
166.833
20
-84.351
11
166.833
21
-84.901
0
LINE
8
BLACK
6
CONTINUOUS
10
166.833
20
-84.901
11
166.818
21
-84.9775
0
LINE
8
BLACK
6
CONTINUOUS
10
166.818
20
-84.9775
11
166.774
21
-85.0424
0
LINE
8
BLACK
6
CONTINUOUS
10
166.774
20
-85.0424
11
166.71
21
-85.0858
0
LINE
8
BLACK
6
CONTINUOUS
10
166.71
20
-85.0858
11
166.633
21
-85.101
0
LINE
8
BLACK
6
CONTINUOUS
10
166.633
20
-85.101
11
166.233
21
-85.101
0
LINE
8
BLACK
6
CONTINUOUS
10
166.233
20
-85.101
11
166.156
21
-85.0858
0
LINE
8
BLACK
6
CONTINUOUS
10
166.156
20
-85.0858
11
166.092
21
-85.0424
0
LINE
8
BLACK
6
CONTINUOUS
10
166.092
20
-85.0424
11
166.048
21
-84.9775
0
LINE
8
BLACK
6
CONTINUOUS
10
166.048
20
-84.9775
11
166.033
21
-84.901
0
LINE
8
BLACK
6
CONTINUOUS
10
166.033
20
-84.901
11
166.033
21
-84.351
0
LINE
8
BLACK
6
CONTINUOUS
10
166.033
20
-84.351
11
166.048
21
-84.2745
0
LINE
8
BLACK
6
CONTINUOUS
10
166.048
20
-84.2745
11
166.092
21
-84.2096
0
LINE
8
BLACK
6
CONTINUOUS
10
166.092
20
-84.2096
11
166.156
21
-84.1662
0
LINE
8
BLACK
6
CONTINUOUS
10
166.156
20
-84.1662
11
166.233
21
-84.151
0
LINE
8
BLACK
6
CONTINUOUS
10
166.233
20
-84.151
11
166.633
21
-84.151
0
LINE
8
BLACK
6
CONTINUOUS
10
166.633
20
-84.151
11
166.71
21
-84.1662
0
LINE
8
BLACK
6
CONTINUOUS
10
169.06
20
-84.1662
11
169.124
21
-84.2096
0
LINE
8
BLACK
6
CONTINUOUS
10
169.124
20
-84.2096
11
169.168
21
-84.2745
0
LINE
8
BLACK
6
CONTINUOUS
10
169.168
20
-84.2745
11
169.183
21
-84.351
0
LINE
8
BLACK
6
CONTINUOUS
10
169.183
20
-84.351
11
169.183
21
-84.901
0
LINE
8
BLACK
6
CONTINUOUS
10
169.183
20
-84.901
11
169.168
21
-84.9775
0
LINE
8
BLACK
6
CONTINUOUS
10
169.168
20
-84.9775
11
169.124
21
-85.0424
0
LINE
8
BLACK
6
CONTINUOUS
10
169.124
20
-85.0424
11
169.06
21
-85.0858
0
LINE
8
BLACK
6
CONTINUOUS
10
169.06
20
-85.0858
11
168.983
21
-85.101
0
LINE
8
BLACK
6
CONTINUOUS
10
168.983
20
-85.101
11
168.583
21
-85.101
0
LINE
8
BLACK
6
CONTINUOUS
10
168.583
20
-85.101
11
168.506
21
-85.0858
0
LINE
8
BLACK
6
CONTINUOUS
10
168.506
20
-85.0858
11
168.442
21
-85.0424
0
LINE
8
BLACK
6
CONTINUOUS
10
168.442
20
-85.0424
11
168.398
21
-84.9775
0
LINE
8
BLACK
6
CONTINUOUS
10
168.398
20
-84.9775
11
168.383
21
-84.901
0
LINE
8
BLACK
6
CONTINUOUS
10
168.383
20
-84.901
11
168.383
21
-84.351
0
LINE
8
BLACK
6
CONTINUOUS
10
168.383
20
-84.351
11
168.398
21
-84.2745
0
LINE
8
BLACK
6
CONTINUOUS
10
168.398
20
-84.2745
11
168.442
21
-84.2096
0
LINE
8
BLACK
6
CONTINUOUS
10
168.442
20
-84.2096
11
168.506
21
-84.1662
0
LINE
8
BLACK
6
CONTINUOUS
10
168.506
20
-84.1662
11
168.583
21
-84.151
0
LINE
8
BLACK
6
CONTINUOUS
10
168.583
20
-84.151
11
168.983
21
-84.151
0
LINE
8
BLACK
6
CONTINUOUS
10
168.983
20
-84.151
11
169.06
21
-84.1662
0
LINE
8
BLACK
6
CONTINUOUS
10
170.71
20
-84.1662
11
170.774
21
-84.2096
0
LINE
8
BLACK
6
CONTINUOUS
10
170.774
20
-84.2096
11
170.818
21
-84.2745
0
LINE
8
BLACK
6
CONTINUOUS
10
170.818
20
-84.2745
11
170.833
21
-84.351
0
LINE
8
BLACK
6
CONTINUOUS
10
170.833
20
-84.351
11
170.833
21
-84.901
0
LINE
8
BLACK
6
CONTINUOUS
10
170.833
20
-84.901
11
170.818
21
-84.9775
0
LINE
8
BLACK
6
CONTINUOUS
10
170.818
20
-84.9775
11
170.774
21
-85.0424
0
LINE
8
BLACK
6
CONTINUOUS
10
170.774
20
-85.0424
11
170.71
21
-85.0858
0
LINE
8
BLACK
6
CONTINUOUS
10
170.71
20
-85.0858
11
170.633
21
-85.101
0
LINE
8
BLACK
6
CONTINUOUS
10
170.633
20
-85.101
11
170.233
21
-85.101
0
LINE
8
BLACK
6
CONTINUOUS
10
170.233
20
-85.101
11
170.156
21
-85.0858
0
LINE
8
BLACK
6
CONTINUOUS
10
170.156
20
-85.0858
11
170.092
21
-85.0424
0
LINE
8
BLACK
6
CONTINUOUS
10
170.092
20
-85.0424
11
170.048
21
-84.9775
0
LINE
8
BLACK
6
CONTINUOUS
10
170.048
20
-84.9775
11
170.033
21
-84.901
0
LINE
8
BLACK
6
CONTINUOUS
10
170.033
20
-84.901
11
170.033
21
-84.351
0
LINE
8
BLACK
6
CONTINUOUS
10
170.033
20
-84.351
11
170.048
21
-84.2745
0
LINE
8
BLACK
6
CONTINUOUS
10
170.048
20
-84.2745
11
170.092
21
-84.2096
0
LINE
8
BLACK
6
CONTINUOUS
10
170.092
20
-84.2096
11
170.156
21
-84.1662
0
LINE
8
BLACK
6
CONTINUOUS
10
170.156
20
-84.1662
11
170.233
21
-84.151
0
LINE
8
BLACK
6
CONTINUOUS
10
170.233
20
-84.151
11
170.633
21
-84.151
0
LINE
8
BLACK
6
CONTINUOUS
10
170.633
20
-84.151
11
170.71
21
-84.1662
0
LINE
8
BLACK
6
CONTINUOUS
10
161.334
20
-82.4316
11
161.407
21
-82.4804
0
LINE
8
BLACK
6
CONTINUOUS
10
161.407
20
-82.4804
11
161.456
21
-82.5534
0
LINE
8
BLACK
6
CONTINUOUS
10
161.456
20
-82.5534
11
161.473
21
-82.6395
0
LINE
8
BLACK
6
CONTINUOUS
10
161.473
20
-82.6395
11
161.473
21
-83.1395
0
LINE
8
BLACK
6
CONTINUOUS
10
161.473
20
-83.1395
11
161.456
21
-83.2256
0
LINE
8
BLACK
6
CONTINUOUS
10
161.456
20
-83.2256
11
161.407
21
-83.2986
0
LINE
8
BLACK
6
CONTINUOUS
10
161.407
20
-83.2986
11
161.334
21
-83.3474
0
LINE
8
BLACK
6
CONTINUOUS
10
161.334
20
-83.3474
11
161.248
21
-83.3645
0
LINE
8
BLACK
6
CONTINUOUS
10
161.248
20
-83.3645
11
160.798
21
-83.3645
0
LINE
8
BLACK
6
CONTINUOUS
10
160.798
20
-83.3645
11
160.712
21
-83.3474
0
LINE
8
BLACK
6
CONTINUOUS
10
160.712
20
-83.3474
11
160.639
21
-83.2986
0
LINE
8
BLACK
6
CONTINUOUS
10
160.639
20
-83.2986
11
160.59
21
-83.2256
0
LINE
8
BLACK
6
CONTINUOUS
10
160.59
20
-83.2256
11
160.573
21
-83.1395
0
LINE
8
BLACK
6
CONTINUOUS
10
160.573
20
-83.1395
11
160.573
21
-82.6395
0
LINE
8
BLACK
6
CONTINUOUS
10
160.573
20
-82.6395
11
160.59
21
-82.5534
0
LINE
8
BLACK
6
CONTINUOUS
10
160.59
20
-82.5534
11
160.639
21
-82.4804
0
LINE
8
BLACK
6
CONTINUOUS
10
160.639
20
-82.4804
11
160.712
21
-82.4316
0
LINE
8
BLACK
6
CONTINUOUS
10
160.712
20
-82.4316
11
160.798
21
-82.4145
0
LINE
8
BLACK
6
CONTINUOUS
10
160.798
20
-82.4145
11
161.248
21
-82.4145
0
LINE
8
BLACK
6
CONTINUOUS
10
161.248
20
-82.4145
11
161.334
21
-82.4316
0
LINE
8
BLACK
6
CONTINUOUS
10
162.884
20
-82.4316
11
162.957
21
-82.4804
0
LINE
8
BLACK
6
CONTINUOUS
10
162.957
20
-82.4804
11
163.006
21
-82.5534
0
LINE
8
BLACK
6
CONTINUOUS
10
163.006
20
-82.5534
11
163.023
21
-82.6395
0
LINE
8
BLACK
6
CONTINUOUS
10
163.023
20
-82.6395
11
163.023
21
-83.1395
0
LINE
8
BLACK
6
CONTINUOUS
10
163.023
20
-83.1395
11
163.006
21
-83.2256
0
LINE
8
BLACK
6
CONTINUOUS
10
163.006
20
-83.2256
11
162.957
21
-83.2986
0
LINE
8
BLACK
6
CONTINUOUS
10
162.957
20
-83.2986
11
162.884
21
-83.3474
0
LINE
8
BLACK
6
CONTINUOUS
10
162.884
20
-83.3474
11
162.798
21
-83.3645
0
LINE
8
BLACK
6
CONTINUOUS
10
162.798
20
-83.3645
11
162.348
21
-83.3645
0
LINE
8
BLACK
6
CONTINUOUS
10
162.348
20
-83.3645
11
162.262
21
-83.3474
0
LINE
8
BLACK
6
CONTINUOUS
10
162.262
20
-83.3474
11
162.189
21
-83.2986
0
LINE
8
BLACK
6
CONTINUOUS
10
162.189
20
-83.2986
11
162.14
21
-83.2256
0
LINE
8
BLACK
6
CONTINUOUS
10
162.14
20
-83.2256
11
162.123
21
-83.1395
0
LINE
8
BLACK
6
CONTINUOUS
10
162.123
20
-83.1395
11
162.123
21
-82.6395
0
LINE
8
BLACK
6
CONTINUOUS
10
162.123
20
-82.6395
11
162.14
21
-82.5534
0
LINE
8
BLACK
6
CONTINUOUS
10
162.14
20
-82.5534
11
162.189
21
-82.4804
0
LINE
8
BLACK
6
CONTINUOUS
10
162.189
20
-82.4804
11
162.262
21
-82.4316
0
LINE
8
BLACK
6
CONTINUOUS
10
162.262
20
-82.4316
11
162.348
21
-82.4145
0
LINE
8
BLACK
6
CONTINUOUS
10
162.348
20
-82.4145
11
162.798
21
-82.4145
0
LINE
8
BLACK
6
CONTINUOUS
10
162.798
20
-82.4145
11
162.884
21
-82.4316
0
LINE
8
BLACK
6
CONTINUOUS
10
165.144
20
-82.4316
11
165.217
21
-82.4804
0
LINE
8
BLACK
6
CONTINUOUS
10
165.217
20
-82.4804
11
165.266
21
-82.5534
0
LINE
8
BLACK
6
CONTINUOUS
10
165.266
20
-82.5534
11
165.283
21
-82.6395
0
LINE
8
BLACK
6
CONTINUOUS
10
165.283
20
-82.6395
11
165.283
21
-83.1395
0
LINE
8
BLACK
6
CONTINUOUS
10
165.283
20
-83.1395
11
165.266
21
-83.2256
0
LINE
8
BLACK
6
CONTINUOUS
10
165.266
20
-83.2256
11
165.217
21
-83.2986
0
LINE
8
BLACK
6
CONTINUOUS
10
165.217
20
-83.2986
11
165.144
21
-83.3474
0
LINE
8
BLACK
6
CONTINUOUS
10
165.144
20
-83.3474
11
165.058
21
-83.3645
0
LINE
8
BLACK
6
CONTINUOUS
10
165.058
20
-83.3645
11
164.608
21
-83.3645
0
LINE
8
BLACK
6
CONTINUOUS
10
164.608
20
-83.3645
11
164.522
21
-83.3474
0
LINE
8
BLACK
6
CONTINUOUS
10
164.522
20
-83.3474
11
164.449
21
-83.2986
0
LINE
8
BLACK
6
CONTINUOUS
10
164.449
20
-83.2986
11
164.4
21
-83.2256
0
LINE
8
BLACK
6
CONTINUOUS
10
164.4
20
-83.2256
11
164.383
21
-83.1395
0
LINE
8
BLACK
6
CONTINUOUS
10
164.383
20
-83.1395
11
164.383
21
-82.6395
0
LINE
8
BLACK
6
CONTINUOUS
10
164.383
20
-82.6395
11
164.4
21
-82.5534
0
LINE
8
BLACK
6
CONTINUOUS
10
164.4
20
-82.5534
11
164.449
21
-82.4804
0
LINE
8
BLACK
6
CONTINUOUS
10
164.449
20
-82.4804
11
164.522
21
-82.4316
0
LINE
8
BLACK
6
CONTINUOUS
10
164.522
20
-82.4316
11
164.608
21
-82.4145
0
LINE
8
BLACK
6
CONTINUOUS
10
164.608
20
-82.4145
11
165.058
21
-82.4145
0
LINE
8
BLACK
6
CONTINUOUS
10
165.058
20
-82.4145
11
165.144
21
-82.4316
0
LINE
8
BLACK
6
CONTINUOUS
10
166.694
20
-82.4316
11
166.767
21
-82.4804
0
LINE
8
BLACK
6
CONTINUOUS
10
166.767
20
-82.4804
11
166.816
21
-82.5534
0
LINE
8
BLACK
6
CONTINUOUS
10
166.816
20
-82.5534
11
166.833
21
-82.6395
0
LINE
8
BLACK
6
CONTINUOUS
10
166.833
20
-82.6395
11
166.833
21
-83.1395
0
LINE
8
BLACK
6
CONTINUOUS
10
166.833
20
-83.1395
11
166.816
21
-83.2256
0
LINE
8
BLACK
6
CONTINUOUS
10
166.816
20
-83.2256
11
166.767
21
-83.2986
0
LINE
8
BLACK
6
CONTINUOUS
10
166.767
20
-83.2986
11
166.694
21
-83.3474
0
LINE
8
BLACK
6
CONTINUOUS
10
166.694
20
-83.3474
11
166.608
21
-83.3645
0
LINE
8
BLACK
6
CONTINUOUS
10
166.608
20
-83.3645
11
166.158
21
-83.3645
0
LINE
8
BLACK
6
CONTINUOUS
10
166.158
20
-83.3645
11
166.072
21
-83.3474
0
LINE
8
BLACK
6
CONTINUOUS
10
166.072
20
-83.3474
11
165.999
21
-83.2986
0
LINE
8
BLACK
6
CONTINUOUS
10
165.999
20
-83.2986
11
165.95
21
-83.2256
0
LINE
8
BLACK
6
CONTINUOUS
10
165.95
20
-83.2256
11
165.933
21
-83.1395
0
LINE
8
BLACK
6
CONTINUOUS
10
165.933
20
-83.1395
11
165.933
21
-82.6395
0
LINE
8
BLACK
6
CONTINUOUS
10
165.933
20
-82.6395
11
165.95
21
-82.5534
0
LINE
8
BLACK
6
CONTINUOUS
10
165.95
20
-82.5534
11
165.999
21
-82.4804
0
LINE
8
BLACK
6
CONTINUOUS
10
165.999
20
-82.4804
11
166.072
21
-82.4316
0
LINE
8
BLACK
6
CONTINUOUS
10
166.072
20
-82.4316
11
166.158
21
-82.4145
0
LINE
8
BLACK
6
CONTINUOUS
10
166.158
20
-82.4145
11
166.608
21
-82.4145
0
LINE
8
BLACK
6
CONTINUOUS
10
166.608
20
-82.4145
11
166.694
21
-82.4316
0
LINE
8
BLACK
6
CONTINUOUS
10
161.25
20
-80.6932
11
161.314
21
-80.7366
0
LINE
8
BLACK
6
CONTINUOUS
10
161.314
20
-80.7366
11
161.358
21
-80.8015
0
LINE
8
BLACK
6
CONTINUOUS
10
161.358
20
-80.8015
11
161.373
21
-80.878
0
LINE
8
BLACK
6
CONTINUOUS
10
161.373
20
-80.878
11
161.373
21
-81.428
0
LINE
8
BLACK
6
CONTINUOUS
10
161.373
20
-81.428
11
161.358
21
-81.5045
0
LINE
8
BLACK
6
CONTINUOUS
10
161.358
20
-81.5045
11
161.314
21
-81.5694
0
LINE
8
BLACK
6
CONTINUOUS
10
161.314
20
-81.5694
11
161.25
21
-81.6128
0
LINE
8
BLACK
6
CONTINUOUS
10
161.25
20
-81.6128
11
161.173
21
-81.628
0
LINE
8
BLACK
6
CONTINUOUS
10
161.173
20
-81.628
11
160.773
21
-81.628
0
LINE
8
BLACK
6
CONTINUOUS
10
160.773
20
-81.628
11
160.696
21
-81.6128
0
LINE
8
BLACK
6
CONTINUOUS
10
160.696
20
-81.6128
11
160.632
21
-81.5694
0
LINE
8
BLACK
6
CONTINUOUS
10
160.632
20
-81.5694
11
160.588
21
-81.5045
0
LINE
8
BLACK
6
CONTINUOUS
10
160.588
20
-81.5045
11
160.573
21
-81.428
0
LINE
8
BLACK
6
CONTINUOUS
10
160.573
20
-81.428
11
160.573
21
-80.878
0
LINE
8
BLACK
6
CONTINUOUS
10
160.573
20
-80.878
11
160.588
21
-80.8015
0
LINE
8
BLACK
6
CONTINUOUS
10
160.588
20
-80.8015
11
160.632
21
-80.7366
0
LINE
8
BLACK
6
CONTINUOUS
10
160.632
20
-80.7366
11
160.696
21
-80.6932
0
LINE
8
BLACK
6
CONTINUOUS
10
160.696
20
-80.6932
11
160.773
21
-80.678
0
LINE
8
BLACK
6
CONTINUOUS
10
160.773
20
-80.678
11
161.173
21
-80.678
0
LINE
8
BLACK
6
CONTINUOUS
10
161.173
20
-80.678
11
161.25
21
-80.6932
0
LINE
8
BLACK
6
CONTINUOUS
10
162.9
20
-80.6932
11
162.964
21
-80.7366
0
LINE
8
BLACK
6
CONTINUOUS
10
162.964
20
-80.7366
11
163.008
21
-80.8015
0
LINE
8
BLACK
6
CONTINUOUS
10
163.008
20
-80.8015
11
163.023
21
-80.878
0
LINE
8
BLACK
6
CONTINUOUS
10
163.023
20
-80.878
11
163.023
21
-81.428
0
LINE
8
BLACK
6
CONTINUOUS
10
163.023
20
-81.428
11
163.008
21
-81.5045
0
LINE
8
BLACK
6
CONTINUOUS
10
163.008
20
-81.5045
11
162.964
21
-81.5694
0
LINE
8
BLACK
6
CONTINUOUS
10
162.964
20
-81.5694
11
162.9
21
-81.6128
0
LINE
8
BLACK
6
CONTINUOUS
10
162.9
20
-81.6128
11
162.823
21
-81.628
0
LINE
8
BLACK
6
CONTINUOUS
10
162.823
20
-81.628
11
162.423
21
-81.628
0
LINE
8
BLACK
6
CONTINUOUS
10
162.423
20
-81.628
11
162.346
21
-81.6128
0
LINE
8
BLACK
6
CONTINUOUS
10
162.346
20
-81.6128
11
162.282
21
-81.5694
0
LINE
8
BLACK
6
CONTINUOUS
10
162.282
20
-81.5694
11
162.238
21
-81.5045
0
LINE
8
BLACK
6
CONTINUOUS
10
162.238
20
-81.5045
11
162.223
21
-81.428
0
LINE
8
BLACK
6
CONTINUOUS
10
162.223
20
-81.428
11
162.223
21
-80.878
0
LINE
8
BLACK
6
CONTINUOUS
10
162.223
20
-80.878
11
162.238
21
-80.8015
0
LINE
8
BLACK
6
CONTINUOUS
10
162.238
20
-80.8015
11
162.282
21
-80.7366
0
LINE
8
BLACK
6
CONTINUOUS
10
162.282
20
-80.7366
11
162.346
21
-80.6932
0
LINE
8
BLACK
6
CONTINUOUS
10
162.346
20
-80.6932
11
162.423
21
-80.678
0
LINE
8
BLACK
6
CONTINUOUS
10
162.423
20
-80.678
11
162.823
21
-80.678
0
LINE
8
BLACK
6
CONTINUOUS
10
162.823
20
-80.678
11
162.9
21
-80.6932
0
LINE
8
BLACK
6
CONTINUOUS
10
165.06
20
-80.6932
11
165.124
21
-80.7366
0
LINE
8
BLACK
6
CONTINUOUS
10
165.124
20
-80.7366
11
165.168
21
-80.8015
0
LINE
8
BLACK
6
CONTINUOUS
10
165.168
20
-80.8015
11
165.183
21
-80.878
0
LINE
8
BLACK
6
CONTINUOUS
10
165.183
20
-80.878
11
165.183
21
-81.428
0
LINE
8
BLACK
6
CONTINUOUS
10
165.183
20
-81.428
11
165.168
21
-81.5045
0
LINE
8
BLACK
6
CONTINUOUS
10
165.168
20
-81.5045
11
165.124
21
-81.5694
0
LINE
8
BLACK
6
CONTINUOUS
10
165.124
20
-81.5694
11
165.06
21
-81.6128
0
LINE
8
BLACK
6
CONTINUOUS
10
165.06
20
-81.6128
11
164.983
21
-81.628
0
LINE
8
BLACK
6
CONTINUOUS
10
164.983
20
-81.628
11
164.583
21
-81.628
0
LINE
8
BLACK
6
CONTINUOUS
10
164.583
20
-81.628
11
164.506
21
-81.6128
0
LINE
8
BLACK
6
CONTINUOUS
10
164.506
20
-81.6128
11
164.442
21
-81.5694
0
LINE
8
BLACK
6
CONTINUOUS
10
164.442
20
-81.5694
11
164.398
21
-81.5045
0
LINE
8
BLACK
6
CONTINUOUS
10
164.398
20
-81.5045
11
164.383
21
-81.428
0
LINE
8
BLACK
6
CONTINUOUS
10
164.383
20
-81.428
11
164.383
21
-80.878
0
LINE
8
BLACK
6
CONTINUOUS
10
164.383
20
-80.878
11
164.398
21
-80.8015
0
LINE
8
BLACK
6
CONTINUOUS
10
164.398
20
-80.8015
11
164.442
21
-80.7366
0
LINE
8
BLACK
6
CONTINUOUS
10
164.442
20
-80.7366
11
164.506
21
-80.6932
0
LINE
8
BLACK
6
CONTINUOUS
10
164.506
20
-80.6932
11
164.583
21
-80.678
0
LINE
8
BLACK
6
CONTINUOUS
10
164.583
20
-80.678
11
164.983
21
-80.678
0
LINE
8
BLACK
6
CONTINUOUS
10
164.983
20
-80.678
11
165.06
21
-80.6932
0
LINE
8
BLACK
6
CONTINUOUS
10
166.71
20
-80.6932
11
166.774
21
-80.7366
0
LINE
8
BLACK
6
CONTINUOUS
10
166.774
20
-80.7366
11
166.818
21
-80.8015
0
LINE
8
BLACK
6
CONTINUOUS
10
166.818
20
-80.8015
11
166.833
21
-80.878
0
LINE
8
BLACK
6
CONTINUOUS
10
166.833
20
-80.878
11
166.833
21
-81.428
0
LINE
8
BLACK
6
CONTINUOUS
10
166.833
20
-81.428
11
166.818
21
-81.5045
0
LINE
8
BLACK
6
CONTINUOUS
10
166.818
20
-81.5045
11
166.774
21
-81.5694
0
LINE
8
BLACK
6
CONTINUOUS
10
166.774
20
-81.5694
11
166.71
21
-81.6128
0
LINE
8
BLACK
6
CONTINUOUS
10
166.71
20
-81.6128
11
166.633
21
-81.628
0
LINE
8
BLACK
6
CONTINUOUS
10
166.633
20
-81.628
11
166.233
21
-81.628
0
LINE
8
BLACK
6
CONTINUOUS
10
166.233
20
-81.628
11
166.156
21
-81.6128
0
LINE
8
BLACK
6
CONTINUOUS
10
166.156
20
-81.6128
11
166.092
21
-81.5694
0
LINE
8
BLACK
6
CONTINUOUS
10
166.092
20
-81.5694
11
166.048
21
-81.5045
0
LINE
8
BLACK
6
CONTINUOUS
10
166.048
20
-81.5045
11
166.033
21
-81.428
0
LINE
8
BLACK
6
CONTINUOUS
10
166.033
20
-81.428
11
166.033
21
-80.878
0
LINE
8
BLACK
6
CONTINUOUS
10
166.033
20
-80.878
11
166.048
21
-80.8015
0
LINE
8
BLACK
6
CONTINUOUS
10
166.048
20
-80.8015
11
166.092
21
-80.7366
0
LINE
8
BLACK
6
CONTINUOUS
10
166.092
20
-80.7366
11
166.156
21
-80.6932
0
LINE
8
BLACK
6
CONTINUOUS
10
166.156
20
-80.6932
11
166.233
21
-80.678
0
LINE
8
BLACK
6
CONTINUOUS
10
166.233
20
-80.678
11
166.633
21
-80.678
0
LINE
8
BLACK
6
CONTINUOUS
10
166.633
20
-80.678
11
166.71
21
-80.6932
0
LINE
8
BLACK
6
CONTINUOUS
10
161.319
20
-78.6752
11
161.383
21
-78.7186
0
LINE
8
BLACK
6
CONTINUOUS
10
161.383
20
-78.7186
11
161.427
21
-78.7835
0
LINE
8
BLACK
6
CONTINUOUS
10
161.427
20
-78.7835
11
161.442
21
-78.86
0
LINE
8
BLACK
6
CONTINUOUS
10
161.442
20
-78.86
11
161.442
21
-79.26
0
LINE
8
BLACK
6
CONTINUOUS
10
161.442
20
-79.26
11
161.427
21
-79.3365
0
LINE
8
BLACK
6
CONTINUOUS
10
161.427
20
-79.3365
11
161.383
21
-79.4014
0
LINE
8
BLACK
6
CONTINUOUS
10
161.383
20
-79.4014
11
161.319
21
-79.4448
0
LINE
8
BLACK
6
CONTINUOUS
10
161.319
20
-79.4448
11
161.242
21
-79.46
0
LINE
8
BLACK
6
CONTINUOUS
10
161.242
20
-79.46
11
160.692
21
-79.46
0
LINE
8
BLACK
6
CONTINUOUS
10
160.692
20
-79.46
11
160.615
21
-79.4448
0
LINE
8
BLACK
6
CONTINUOUS
10
160.615
20
-79.4448
11
160.551
21
-79.4014
0
LINE
8
BLACK
6
CONTINUOUS
10
160.551
20
-79.4014
11
160.507
21
-79.3365
0
LINE
8
BLACK
6
CONTINUOUS
10
160.507
20
-79.3365
11
160.492
21
-79.26
0
LINE
8
BLACK
6
CONTINUOUS
10
160.492
20
-79.26
11
160.492
21
-78.86
0
LINE
8
BLACK
6
CONTINUOUS
10
160.492
20
-78.86
11
160.507
21
-78.7835
0
LINE
8
BLACK
6
CONTINUOUS
10
160.507
20
-78.7835
11
160.551
21
-78.7186
0
LINE
8
BLACK
6
CONTINUOUS
10
160.551
20
-78.7186
11
160.615
21
-78.6752
0
LINE
8
BLACK
6
CONTINUOUS
10
160.615
20
-78.6752
11
160.692
21
-78.66
0
LINE
8
BLACK
6
CONTINUOUS
10
160.692
20
-78.66
11
161.242
21
-78.66
0
LINE
8
BLACK
6
CONTINUOUS
10
161.242
20
-78.66
11
161.319
21
-78.6752
0
LINE
8
BLACK
6
CONTINUOUS
10
149.238
20
-78.5271
11
149.311
21
-78.5759
0
LINE
8
BLACK
6
CONTINUOUS
10
149.311
20
-78.5759
11
149.36
21
-78.6489
0
LINE
8
BLACK
6
CONTINUOUS
10
149.36
20
-78.6489
11
149.377
21
-78.735
0
LINE
8
BLACK
6
CONTINUOUS
10
149.377
20
-78.735
11
149.377
21
-79.185
0
LINE
8
BLACK
6
CONTINUOUS
10
149.377
20
-79.185
11
149.36
21
-79.2711
0
LINE
8
BLACK
6
CONTINUOUS
10
149.36
20
-79.2711
11
149.311
21
-79.3441
0
LINE
8
BLACK
6
CONTINUOUS
10
149.311
20
-79.3441
11
149.238
21
-79.3929
0
LINE
8
BLACK
6
CONTINUOUS
10
149.238
20
-79.3929
11
149.152
21
-79.41
0
LINE
8
BLACK
6
CONTINUOUS
10
149.152
20
-79.41
11
148.652
21
-79.41
0
LINE
8
BLACK
6
CONTINUOUS
10
148.652
20
-79.41
11
148.566
21
-79.3929
0
LINE
8
BLACK
6
CONTINUOUS
10
148.566
20
-79.3929
11
148.493
21
-79.3441
0
LINE
8
BLACK
6
CONTINUOUS
10
148.493
20
-79.3441
11
148.444
21
-79.2711
0
LINE
8
BLACK
6
CONTINUOUS
10
148.444
20
-79.2711
11
148.427
21
-79.185
0
LINE
8
BLACK
6
CONTINUOUS
10
148.427
20
-79.185
11
148.427
21
-78.735
0
LINE
8
BLACK
6
CONTINUOUS
10
148.427
20
-78.735
11
148.444
21
-78.6489
0
LINE
8
BLACK
6
CONTINUOUS
10
148.444
20
-78.6489
11
148.493
21
-78.5759
0
LINE
8
BLACK
6
CONTINUOUS
10
148.493
20
-78.5759
11
148.566
21
-78.5271
0
LINE
8
BLACK
6
CONTINUOUS
10
148.566
20
-78.5271
11
148.652
21
-78.51
0
LINE
8
BLACK
6
CONTINUOUS
10
148.652
20
-78.51
11
149.152
21
-78.51
0
LINE
8
BLACK
6
CONTINUOUS
10
149.152
20
-78.51
11
149.238
21
-78.5271
0
LINE
8
BLACK
6
CONTINUOUS
10
151.159
20
-78.6252
11
151.223
21
-78.6686
0
LINE
8
BLACK
6
CONTINUOUS
10
151.223
20
-78.6686
11
151.267
21
-78.7335
0
LINE
8
BLACK
6
CONTINUOUS
10
151.267
20
-78.7335
11
151.282
21
-78.81
0
LINE
8
BLACK
6
CONTINUOUS
10
151.282
20
-78.81
11
151.282
21
-79.21
0
LINE
8
BLACK
6
CONTINUOUS
10
151.282
20
-79.21
11
151.267
21
-79.2865
0
LINE
8
BLACK
6
CONTINUOUS
10
151.267
20
-79.2865
11
151.223
21
-79.3514
0
LINE
8
BLACK
6
CONTINUOUS
10
151.223
20
-79.3514
11
151.159
21
-79.3948
0
LINE
8
BLACK
6
CONTINUOUS
10
151.159
20
-79.3948
11
151.082
21
-79.41
0
LINE
8
BLACK
6
CONTINUOUS
10
151.082
20
-79.41
11
150.532
21
-79.41
0
LINE
8
BLACK
6
CONTINUOUS
10
150.532
20
-79.41
11
150.455
21
-79.3948
0
LINE
8
BLACK
6
CONTINUOUS
10
150.455
20
-79.3948
11
150.391
21
-79.3514
0
LINE
8
BLACK
6
CONTINUOUS
10
150.391
20
-79.3514
11
150.347
21
-79.2865
0
LINE
8
BLACK
6
CONTINUOUS
10
150.347
20
-79.2865
11
150.332
21
-79.21
0
LINE
8
BLACK
6
CONTINUOUS
10
150.332
20
-79.21
11
150.332
21
-78.81
0
LINE
8
BLACK
6
CONTINUOUS
10
150.332
20
-78.81
11
150.347
21
-78.7335
0
LINE
8
BLACK
6
CONTINUOUS
10
150.347
20
-78.7335
11
150.391
21
-78.6686
0
LINE
8
BLACK
6
CONTINUOUS
10
150.391
20
-78.6686
11
150.455
21
-78.6252
0
LINE
8
BLACK
6
CONTINUOUS
10
150.455
20
-78.6252
11
150.532
21
-78.61
0
LINE
8
BLACK
6
CONTINUOUS
10
150.532
20
-78.61
11
151.082
21
-78.61
0
LINE
8
BLACK
6
CONTINUOUS
10
151.082
20
-78.61
11
151.159
21
-78.6252
0
LINE
8
BLACK
6
CONTINUOUS
10
153.048
20
-78.5271
11
153.121
21
-78.5759
0
LINE
8
BLACK
6
CONTINUOUS
10
153.121
20
-78.5759
11
153.17
21
-78.6489
0
LINE
8
BLACK
6
CONTINUOUS
10
153.17
20
-78.6489
11
153.187
21
-78.735
0
LINE
8
BLACK
6
CONTINUOUS
10
153.187
20
-78.735
11
153.187
21
-79.185
0
LINE
8
BLACK
6
CONTINUOUS
10
153.187
20
-79.185
11
153.17
21
-79.2711
0
LINE
8
BLACK
6
CONTINUOUS
10
153.17
20
-79.2711
11
153.121
21
-79.3441
0
LINE
8
BLACK
6
CONTINUOUS
10
153.121
20
-79.3441
11
153.048
21
-79.3929
0
LINE
8
BLACK
6
CONTINUOUS
10
153.048
20
-79.3929
11
152.962
21
-79.41
0
LINE
8
BLACK
6
CONTINUOUS
10
152.962
20
-79.41
11
152.462
21
-79.41
0
LINE
8
BLACK
6
CONTINUOUS
10
152.462
20
-79.41
11
152.376
21
-79.3929
0
LINE
8
BLACK
6
CONTINUOUS
10
152.376
20
-79.3929
11
152.303
21
-79.3441
0
LINE
8
BLACK
6
CONTINUOUS
10
152.303
20
-79.3441
11
152.254
21
-79.2711
0
LINE
8
BLACK
6
CONTINUOUS
10
152.254
20
-79.2711
11
152.237
21
-79.185
0
LINE
8
BLACK
6
CONTINUOUS
10
152.237
20
-79.185
11
152.237
21
-78.735
0
LINE
8
BLACK
6
CONTINUOUS
10
152.237
20
-78.735
11
152.254
21
-78.6489
0
LINE
8
BLACK
6
CONTINUOUS
10
152.254
20
-78.6489
11
152.303
21
-78.5759
0
LINE
8
BLACK
6
CONTINUOUS
10
152.303
20
-78.5759
11
152.376
21
-78.5271
0
LINE
8
BLACK
6
CONTINUOUS
10
152.376
20
-78.5271
11
152.462
21
-78.51
0
LINE
8
BLACK
6
CONTINUOUS
10
152.462
20
-78.51
11
152.962
21
-78.51
0
LINE
8
BLACK
6
CONTINUOUS
10
152.962
20
-78.51
11
153.048
21
-78.5271
0
LINE
8
BLACK
6
CONTINUOUS
10
155.274
20
-76.4514
11
155.323
21
-76.4839
0
LINE
8
BLACK
6
CONTINUOUS
10
155.323
20
-76.4839
11
155.356
21
-76.5326
0
LINE
8
BLACK
6
CONTINUOUS
10
155.356
20
-76.5326
11
155.367
21
-76.59
0
LINE
8
BLACK
6
CONTINUOUS
10
155.367
20
-76.59
11
155.367
21
-78.23
0
LINE
8
BLACK
6
CONTINUOUS
10
155.367
20
-78.23
11
155.356
21
-78.2874
0
LINE
8
BLACK
6
CONTINUOUS
10
155.356
20
-78.2874
11
155.323
21
-78.3361
0
LINE
8
BLACK
6
CONTINUOUS
10
155.323
20
-78.3361
11
155.274
21
-78.3686
0
LINE
8
BLACK
6
CONTINUOUS
10
155.274
20
-78.3686
11
155.217
21
-78.38
0
LINE
8
BLACK
6
CONTINUOUS
10
155.217
20
-78.38
11
154.917
21
-78.38
0
LINE
8
BLACK
6
CONTINUOUS
10
154.917
20
-78.38
11
154.86
21
-78.3686
0
LINE
8
BLACK
6
CONTINUOUS
10
154.86
20
-78.3686
11
154.811
21
-78.3361
0
LINE
8
BLACK
6
CONTINUOUS
10
154.811
20
-78.3361
11
154.778
21
-78.2874
0
LINE
8
BLACK
6
CONTINUOUS
10
154.778
20
-78.2874
11
154.767
21
-78.23
0
LINE
8
BLACK
6
CONTINUOUS
10
154.767
20
-78.23
11
154.767
21
-76.59
0
LINE
8
BLACK
6
CONTINUOUS
10
154.767
20
-76.59
11
154.778
21
-76.5326
0
LINE
8
BLACK
6
CONTINUOUS
10
154.778
20
-76.5326
11
154.811
21
-76.4839
0
LINE
8
BLACK
6
CONTINUOUS
10
154.811
20
-76.4839
11
154.86
21
-76.4514
0
LINE
8
BLACK
6
CONTINUOUS
10
154.86
20
-76.4514
11
154.917
21
-76.44
0
LINE
8
BLACK
6
CONTINUOUS
10
154.917
20
-76.44
11
155.217
21
-76.44
0
LINE
8
BLACK
6
CONTINUOUS
10
155.217
20
-76.44
11
155.274
21
-76.4514
0
LINE
8
BLACK
6
CONTINUOUS
10
156.544
20
-76.4514
11
156.593
21
-76.4839
0
LINE
8
BLACK
6
CONTINUOUS
10
156.593
20
-76.4839
11
156.626
21
-76.5326
0
LINE
8
BLACK
6
CONTINUOUS
10
156.626
20
-76.5326
11
156.637
21
-76.59
0
LINE
8
BLACK
6
CONTINUOUS
10
156.637
20
-76.59
11
156.637
21
-78.23
0
LINE
8
BLACK
6
CONTINUOUS
10
156.637
20
-78.23
11
156.626
21
-78.2874
0
LINE
8
BLACK
6
CONTINUOUS
10
156.626
20
-78.2874
11
156.593
21
-78.3361
0
LINE
8
BLACK
6
CONTINUOUS
10
156.593
20
-78.3361
11
156.544
21
-78.3686
0
LINE
8
BLACK
6
CONTINUOUS
10
156.544
20
-78.3686
11
156.487
21
-78.38
0
LINE
8
BLACK
6
CONTINUOUS
10
156.487
20
-78.38
11
156.187
21
-78.38
0
LINE
8
BLACK
6
CONTINUOUS
10
156.187
20
-78.38
11
156.13
21
-78.3686
0
LINE
8
BLACK
6
CONTINUOUS
10
156.13
20
-78.3686
11
156.081
21
-78.3361
0
LINE
8
BLACK
6
CONTINUOUS
10
156.081
20
-78.3361
11
156.048
21
-78.2874
0
LINE
8
BLACK
6
CONTINUOUS
10
156.048
20
-78.2874
11
156.037
21
-78.23
0
LINE
8
BLACK
6
CONTINUOUS
10
156.037
20
-78.23
11
156.037
21
-76.59
0
LINE
8
BLACK
6
CONTINUOUS
10
156.037
20
-76.59
11
156.048
21
-76.5326
0
LINE
8
BLACK
6
CONTINUOUS
10
156.048
20
-76.5326
11
156.081
21
-76.4839
0
LINE
8
BLACK
6
CONTINUOUS
10
156.081
20
-76.4839
11
156.13
21
-76.4514
0
LINE
8
BLACK
6
CONTINUOUS
10
156.13
20
-76.4514
11
156.187
21
-76.44
0
LINE
8
BLACK
6
CONTINUOUS
10
156.187
20
-76.44
11
156.487
21
-76.44
0
LINE
8
BLACK
6
CONTINUOUS
10
156.487
20
-76.44
11
156.544
21
-76.4514
0
LINE
8
BLACK
6
CONTINUOUS
10
157.814
20
-76.4514
11
157.863
21
-76.4839
0
LINE
8
BLACK
6
CONTINUOUS
10
157.863
20
-76.4839
11
157.896
21
-76.5326
0
LINE
8
BLACK
6
CONTINUOUS
10
157.896
20
-76.5326
11
157.907
21
-76.59
0
LINE
8
BLACK
6
CONTINUOUS
10
157.907
20
-76.59
11
157.907
21
-78.23
0
LINE
8
BLACK
6
CONTINUOUS
10
157.907
20
-78.23
11
157.896
21
-78.2874
0
LINE
8
BLACK
6
CONTINUOUS
10
157.896
20
-78.2874
11
157.863
21
-78.3361
0
LINE
8
BLACK
6
CONTINUOUS
10
157.863
20
-78.3361
11
157.814
21
-78.3686
0
LINE
8
BLACK
6
CONTINUOUS
10
157.814
20
-78.3686
11
157.757
21
-78.38
0
LINE
8
BLACK
6
CONTINUOUS
10
157.757
20
-78.38
11
157.457
21
-78.38
0
LINE
8
BLACK
6
CONTINUOUS
10
157.457
20
-78.38
11
157.4
21
-78.3686
0
LINE
8
BLACK
6
CONTINUOUS
10
157.4
20
-78.3686
11
157.351
21
-78.3361
0
LINE
8
BLACK
6
CONTINUOUS
10
157.351
20
-78.3361
11
157.318
21
-78.2874
0
LINE
8
BLACK
6
CONTINUOUS
10
157.318
20
-78.2874
11
157.307
21
-78.23
0
LINE
8
BLACK
6
CONTINUOUS
10
157.307
20
-78.23
11
157.307
21
-76.59
0
LINE
8
BLACK
6
CONTINUOUS
10
157.307
20
-76.59
11
157.318
21
-76.5326
0
LINE
8
BLACK
6
CONTINUOUS
10
157.318
20
-76.5326
11
157.351
21
-76.4839
0
LINE
8
BLACK
6
CONTINUOUS
10
157.351
20
-76.4839
11
157.4
21
-76.4514
0
LINE
8
BLACK
6
CONTINUOUS
10
157.4
20
-76.4514
11
157.457
21
-76.44
0
LINE
8
BLACK
6
CONTINUOUS
10
157.457
20
-76.44
11
157.757
21
-76.44
0
LINE
8
BLACK
6
CONTINUOUS
10
157.757
20
-76.44
11
157.814
21
-76.4514
0
LINE
8
BLACK
6
CONTINUOUS
10
159.084
20
-76.4514
11
159.133
21
-76.4839
0
LINE
8
BLACK
6
CONTINUOUS
10
159.133
20
-76.4839
11
159.166
21
-76.5326
0
LINE
8
BLACK
6
CONTINUOUS
10
159.166
20
-76.5326
11
159.177
21
-76.59
0
LINE
8
BLACK
6
CONTINUOUS
10
159.177
20
-76.59
11
159.177
21
-78.23
0
LINE
8
BLACK
6
CONTINUOUS
10
159.177
20
-78.23
11
159.166
21
-78.2874
0
LINE
8
BLACK
6
CONTINUOUS
10
159.166
20
-78.2874
11
159.133
21
-78.3361
0
LINE
8
BLACK
6
CONTINUOUS
10
159.133
20
-78.3361
11
159.084
21
-78.3686
0
LINE
8
BLACK
6
CONTINUOUS
10
159.084
20
-78.3686
11
159.027
21
-78.38
0
LINE
8
BLACK
6
CONTINUOUS
10
159.027
20
-78.38
11
158.727
21
-78.38
0
LINE
8
BLACK
6
CONTINUOUS
10
158.727
20
-78.38
11
158.67
21
-78.3686
0
LINE
8
BLACK
6
CONTINUOUS
10
158.67
20
-78.3686
11
158.621
21
-78.3361
0
LINE
8
BLACK
6
CONTINUOUS
10
158.621
20
-78.3361
11
158.588
21
-78.2874
0
LINE
8
BLACK
6
CONTINUOUS
10
158.588
20
-78.2874
11
158.577
21
-78.23
0
LINE
8
BLACK
6
CONTINUOUS
10
158.577
20
-78.23
11
158.577
21
-76.59
0
LINE
8
BLACK
6
CONTINUOUS
10
158.577
20
-76.59
11
158.588
21
-76.5326
0
LINE
8
BLACK
6
CONTINUOUS
10
158.588
20
-76.5326
11
158.621
21
-76.4839
0
LINE
8
BLACK
6
CONTINUOUS
10
158.621
20
-76.4839
11
158.67
21
-76.4514
0
LINE
8
BLACK
6
CONTINUOUS
10
158.67
20
-76.4514
11
158.727
21
-76.44
0
LINE
8
BLACK
6
CONTINUOUS
10
158.727
20
-76.44
11
159.027
21
-76.44
0
LINE
8
BLACK
6
CONTINUOUS
10
159.027
20
-76.44
11
159.084
21
-76.4514
0
LINE
8
BLACK
6
CONTINUOUS
10
149.238
20
-76.9771
11
149.311
21
-77.0259
0
LINE
8
BLACK
6
CONTINUOUS
10
149.311
20
-77.0259
11
149.36
21
-77.0989
0
LINE
8
BLACK
6
CONTINUOUS
10
149.36
20
-77.0989
11
149.377
21
-77.185
0
LINE
8
BLACK
6
CONTINUOUS
10
149.377
20
-77.185
11
149.377
21
-77.635
0
LINE
8
BLACK
6
CONTINUOUS
10
149.377
20
-77.635
11
149.36
21
-77.7211
0
LINE
8
BLACK
6
CONTINUOUS
10
149.36
20
-77.7211
11
149.311
21
-77.7941
0
LINE
8
BLACK
6
CONTINUOUS
10
149.311
20
-77.7941
11
149.238
21
-77.8429
0
LINE
8
BLACK
6
CONTINUOUS
10
149.238
20
-77.8429
11
149.152
21
-77.86
0
LINE
8
BLACK
6
CONTINUOUS
10
149.152
20
-77.86
11
148.652
21
-77.86
0
LINE
8
BLACK
6
CONTINUOUS
10
148.652
20
-77.86
11
148.566
21
-77.8429
0
LINE
8
BLACK
6
CONTINUOUS
10
148.566
20
-77.8429
11
148.493
21
-77.7941
0
LINE
8
BLACK
6
CONTINUOUS
10
148.493
20
-77.7941
11
148.444
21
-77.7211
0
LINE
8
BLACK
6
CONTINUOUS
10
148.444
20
-77.7211
11
148.427
21
-77.635
0
LINE
8
BLACK
6
CONTINUOUS
10
148.427
20
-77.635
11
148.427
21
-77.185
0
LINE
8
BLACK
6
CONTINUOUS
10
148.427
20
-77.185
11
148.444
21
-77.0989
0
LINE
8
BLACK
6
CONTINUOUS
10
148.444
20
-77.0989
11
148.493
21
-77.0259
0
LINE
8
BLACK
6
CONTINUOUS
10
148.493
20
-77.0259
11
148.566
21
-76.9771
0
LINE
8
BLACK
6
CONTINUOUS
10
148.566
20
-76.9771
11
148.652
21
-76.96
0
LINE
8
BLACK
6
CONTINUOUS
10
148.652
20
-76.96
11
149.152
21
-76.96
0
LINE
8
BLACK
6
CONTINUOUS
10
149.152
20
-76.96
11
149.238
21
-76.9771
0
LINE
8
BLACK
6
CONTINUOUS
10
153.048
20
-76.9771
11
153.121
21
-77.0259
0
LINE
8
BLACK
6
CONTINUOUS
10
153.121
20
-77.0259
11
153.17
21
-77.0989
0
LINE
8
BLACK
6
CONTINUOUS
10
153.17
20
-77.0989
11
153.187
21
-77.185
0
LINE
8
BLACK
6
CONTINUOUS
10
153.187
20
-77.185
11
153.187
21
-77.635
0
LINE
8
BLACK
6
CONTINUOUS
10
153.187
20
-77.635
11
153.17
21
-77.7211
0
LINE
8
BLACK
6
CONTINUOUS
10
153.17
20
-77.7211
11
153.121
21
-77.7941
0
LINE
8
BLACK
6
CONTINUOUS
10
153.121
20
-77.7941
11
153.048
21
-77.8429
0
LINE
8
BLACK
6
CONTINUOUS
10
153.048
20
-77.8429
11
152.962
21
-77.86
0
LINE
8
BLACK
6
CONTINUOUS
10
152.962
20
-77.86
11
152.462
21
-77.86
0
LINE
8
BLACK
6
CONTINUOUS
10
152.462
20
-77.86
11
152.376
21
-77.8429
0
LINE
8
BLACK
6
CONTINUOUS
10
152.376
20
-77.8429
11
152.303
21
-77.7941
0
LINE
8
BLACK
6
CONTINUOUS
10
152.303
20
-77.7941
11
152.254
21
-77.7211
0
LINE
8
BLACK
6
CONTINUOUS
10
152.254
20
-77.7211
11
152.237
21
-77.635
0
LINE
8
BLACK
6
CONTINUOUS
10
152.237
20
-77.635
11
152.237
21
-77.185
0
LINE
8
BLACK
6
CONTINUOUS
10
152.237
20
-77.185
11
152.254
21
-77.0989
0
LINE
8
BLACK
6
CONTINUOUS
10
152.254
20
-77.0989
11
152.303
21
-77.0259
0
LINE
8
BLACK
6
CONTINUOUS
10
152.303
20
-77.0259
11
152.376
21
-76.9771
0
LINE
8
BLACK
6
CONTINUOUS
10
152.376
20
-76.9771
11
152.462
21
-76.96
0
LINE
8
BLACK
6
CONTINUOUS
10
152.462
20
-76.96
11
152.962
21
-76.96
0
LINE
8
BLACK
6
CONTINUOUS
10
152.962
20
-76.96
11
153.048
21
-76.9771
0
LINE
8
BLACK
6
CONTINUOUS
10
161.319
20
-77.0252
11
161.383
21
-77.0686
0
LINE
8
BLACK
6
CONTINUOUS
10
161.383
20
-77.0686
11
161.427
21
-77.1335
0
LINE
8
BLACK
6
CONTINUOUS
10
161.427
20
-77.1335
11
161.442
21
-77.21
0
LINE
8
BLACK
6
CONTINUOUS
10
161.442
20
-77.21
11
161.442
21
-77.61
0
LINE
8
BLACK
6
CONTINUOUS
10
161.442
20
-77.61
11
161.427
21
-77.6865
0
LINE
8
BLACK
6
CONTINUOUS
10
161.427
20
-77.6865
11
161.383
21
-77.7514
0
LINE
8
BLACK
6
CONTINUOUS
10
161.383
20
-77.7514
11
161.319
21
-77.7948
0
LINE
8
BLACK
6
CONTINUOUS
10
161.319
20
-77.7948
11
161.242
21
-77.81
0
LINE
8
BLACK
6
CONTINUOUS
10
161.242
20
-77.81
11
160.692
21
-77.81
0
LINE
8
BLACK
6
CONTINUOUS
10
160.692
20
-77.81
11
160.615
21
-77.7948
0
LINE
8
BLACK
6
CONTINUOUS
10
160.615
20
-77.7948
11
160.551
21
-77.7514
0
LINE
8
BLACK
6
CONTINUOUS
10
160.551
20
-77.7514
11
160.507
21
-77.6865
0
LINE
8
BLACK
6
CONTINUOUS
10
160.507
20
-77.6865
11
160.492
21
-77.61
0
LINE
8
BLACK
6
CONTINUOUS
10
160.492
20
-77.61
11
160.492
21
-77.21
0
LINE
8
BLACK
6
CONTINUOUS
10
160.492
20
-77.21
11
160.507
21
-77.1335
0
LINE
8
BLACK
6
CONTINUOUS
10
160.507
20
-77.1335
11
160.551
21
-77.0686
0
LINE
8
BLACK
6
CONTINUOUS
10
160.551
20
-77.0686
11
160.615
21
-77.0252
0
LINE
8
BLACK
6
CONTINUOUS
10
160.615
20
-77.0252
11
160.692
21
-77.01
0
LINE
8
BLACK
6
CONTINUOUS
10
160.692
20
-77.01
11
161.242
21
-77.01
0
LINE
8
BLACK
6
CONTINUOUS
10
161.242
20
-77.01
11
161.319
21
-77.0252
0
LINE
8
BLACK
6
CONTINUOUS
10
151.159
20
-76.9752
11
151.223
21
-77.0186
0
LINE
8
BLACK
6
CONTINUOUS
10
151.223
20
-77.0186
11
151.267
21
-77.0835
0
LINE
8
BLACK
6
CONTINUOUS
10
151.267
20
-77.0835
11
151.282
21
-77.16
0
LINE
8
BLACK
6
CONTINUOUS
10
151.282
20
-77.16
11
151.282
21
-77.56
0
LINE
8
BLACK
6
CONTINUOUS
10
151.282
20
-77.56
11
151.267
21
-77.6365
0
LINE
8
BLACK
6
CONTINUOUS
10
151.267
20
-77.6365
11
151.223
21
-77.7014
0
LINE
8
BLACK
6
CONTINUOUS
10
151.223
20
-77.7014
11
151.159
21
-77.7448
0
LINE
8
BLACK
6
CONTINUOUS
10
151.159
20
-77.7448
11
151.082
21
-77.76
0
LINE
8
BLACK
6
CONTINUOUS
10
151.082
20
-77.76
11
150.532
21
-77.76
0
LINE
8
BLACK
6
CONTINUOUS
10
150.532
20
-77.76
11
150.455
21
-77.7448
0
LINE
8
BLACK
6
CONTINUOUS
10
150.455
20
-77.7448
11
150.391
21
-77.7014
0
LINE
8
BLACK
6
CONTINUOUS
10
150.391
20
-77.7014
11
150.347
21
-77.6365
0
LINE
8
BLACK
6
CONTINUOUS
10
150.347
20
-77.6365
11
150.332
21
-77.56
0
LINE
8
BLACK
6
CONTINUOUS
10
150.332
20
-77.56
11
150.332
21
-77.16
0
LINE
8
BLACK
6
CONTINUOUS
10
150.332
20
-77.16
11
150.347
21
-77.0835
0
LINE
8
BLACK
6
CONTINUOUS
10
150.347
20
-77.0835
11
150.391
21
-77.0186
0
LINE
8
BLACK
6
CONTINUOUS
10
150.391
20
-77.0186
11
150.455
21
-76.9752
0
LINE
8
BLACK
6
CONTINUOUS
10
150.455
20
-76.9752
11
150.532
21
-76.96
0
LINE
8
BLACK
6
CONTINUOUS
10
150.532
20
-76.96
11
151.082
21
-76.96
0
LINE
8
BLACK
6
CONTINUOUS
10
151.082
20
-76.96
11
151.159
21
-76.9752
0
LINE
8
BLACK
6
CONTINUOUS
10
151.159
20
-75.3102
11
151.223
21
-75.3536
0
LINE
8
BLACK
6
CONTINUOUS
10
151.223
20
-75.3536
11
151.267
21
-75.4185
0
LINE
8
BLACK
6
CONTINUOUS
10
151.267
20
-75.4185
11
151.282
21
-75.495
0
LINE
8
BLACK
6
CONTINUOUS
10
151.282
20
-75.495
11
151.282
21
-75.895
0
LINE
8
BLACK
6
CONTINUOUS
10
151.282
20
-75.895
11
151.267
21
-75.9715
0
LINE
8
BLACK
6
CONTINUOUS
10
151.267
20
-75.9715
11
151.223
21
-76.0364
0
LINE
8
BLACK
6
CONTINUOUS
10
151.223
20
-76.0364
11
151.159
21
-76.0798
0
LINE
8
BLACK
6
CONTINUOUS
10
151.159
20
-76.0798
11
151.082
21
-76.095
0
LINE
8
BLACK
6
CONTINUOUS
10
151.082
20
-76.095
11
150.532
21
-76.095
0
LINE
8
BLACK
6
CONTINUOUS
10
150.532
20
-76.095
11
150.455
21
-76.0798
0
LINE
8
BLACK
6
CONTINUOUS
10
150.455
20
-76.0798
11
150.391
21
-76.0364
0
LINE
8
BLACK
6
CONTINUOUS
10
150.391
20
-76.0364
11
150.347
21
-75.9715
0
LINE
8
BLACK
6
CONTINUOUS
10
150.347
20
-75.9715
11
150.332
21
-75.895
0
LINE
8
BLACK
6
CONTINUOUS
10
150.332
20
-75.895
11
150.332
21
-75.495
0
LINE
8
BLACK
6
CONTINUOUS
10
150.332
20
-75.495
11
150.347
21
-75.4185
0
LINE
8
BLACK
6
CONTINUOUS
10
150.347
20
-75.4185
11
150.391
21
-75.3536
0
LINE
8
BLACK
6
CONTINUOUS
10
150.391
20
-75.3536
11
150.455
21
-75.3102
0
LINE
8
BLACK
6
CONTINUOUS
10
150.455
20
-75.3102
11
150.532
21
-75.295
0
LINE
8
BLACK
6
CONTINUOUS
10
150.532
20
-75.295
11
151.082
21
-75.295
0
LINE
8
BLACK
6
CONTINUOUS
10
151.082
20
-75.295
11
151.159
21
-75.3102
0
LINE
8
BLACK
6
CONTINUOUS
10
153.064
20
-75.3102
11
153.128
21
-75.3536
0
LINE
8
BLACK
6
CONTINUOUS
10
153.128
20
-75.3536
11
153.172
21
-75.4185
0
LINE
8
BLACK
6
CONTINUOUS
10
153.172
20
-75.4185
11
153.187
21
-75.495
0
LINE
8
BLACK
6
CONTINUOUS
10
153.187
20
-75.495
11
153.187
21
-75.895
0
LINE
8
BLACK
6
CONTINUOUS
10
153.187
20
-75.895
11
153.172
21
-75.9715
0
LINE
8
BLACK
6
CONTINUOUS
10
153.172
20
-75.9715
11
153.128
21
-76.0364
0
LINE
8
BLACK
6
CONTINUOUS
10
153.128
20
-76.0364
11
153.064
21
-76.0798
0
LINE
8
BLACK
6
CONTINUOUS
10
153.064
20
-76.0798
11
152.987
21
-76.095
0
LINE
8
BLACK
6
CONTINUOUS
10
152.987
20
-76.095
11
152.437
21
-76.095
0
LINE
8
BLACK
6
CONTINUOUS
10
152.437
20
-76.095
11
152.36
21
-76.0798
0
LINE
8
BLACK
6
CONTINUOUS
10
152.36
20
-76.0798
11
152.296
21
-76.0364
0
LINE
8
BLACK
6
CONTINUOUS
10
152.296
20
-76.0364
11
152.252
21
-75.9715
0
LINE
8
BLACK
6
CONTINUOUS
10
152.252
20
-75.9715
11
152.237
21
-75.895
0
LINE
8
BLACK
6
CONTINUOUS
10
152.237
20
-75.895
11
152.237
21
-75.495
0
LINE
8
BLACK
6
CONTINUOUS
10
152.237
20
-75.495
11
152.252
21
-75.4185
0
LINE
8
BLACK
6
CONTINUOUS
10
152.252
20
-75.4185
11
152.296
21
-75.3536
0
LINE
8
BLACK
6
CONTINUOUS
10
152.296
20
-75.3536
11
152.36
21
-75.3102
0
LINE
8
BLACK
6
CONTINUOUS
10
152.36
20
-75.3102
11
152.437
21
-75.295
0
LINE
8
BLACK
6
CONTINUOUS
10
152.437
20
-75.295
11
152.987
21
-75.295
0
LINE
8
BLACK
6
CONTINUOUS
10
152.987
20
-75.295
11
153.064
21
-75.3102
0
LINE
8
BLACK
6
CONTINUOUS
10
170.024
20
-75.1792
11
170.088
21
-75.2226
0
LINE
8
BLACK
6
CONTINUOUS
10
170.088
20
-75.2226
11
170.132
21
-75.2875
0
LINE
8
BLACK
6
CONTINUOUS
10
170.132
20
-75.2875
11
170.147
21
-75.364
0
LINE
8
BLACK
6
CONTINUOUS
10
170.147
20
-75.364
11
170.147
21
-75.764
0
LINE
8
BLACK
6
CONTINUOUS
10
170.147
20
-75.764
11
170.132
21
-75.8405
0
LINE
8
BLACK
6
CONTINUOUS
10
170.132
20
-75.8405
11
170.088
21
-75.9054
0
LINE
8
BLACK
6
CONTINUOUS
10
170.088
20
-75.9054
11
170.024
21
-75.9488
0
LINE
8
BLACK
6
CONTINUOUS
10
170.024
20
-75.9488
11
169.947
21
-75.964
0
LINE
8
BLACK
6
CONTINUOUS
10
169.947
20
-75.964
11
169.397
21
-75.964
0
LINE
8
BLACK
6
CONTINUOUS
10
169.397
20
-75.964
11
169.32
21
-75.9488
0
LINE
8
BLACK
6
CONTINUOUS
10
169.32
20
-75.9488
11
169.256
21
-75.9054
0
LINE
8
BLACK
6
CONTINUOUS
10
169.256
20
-75.9054
11
169.212
21
-75.8405
0
LINE
8
BLACK
6
CONTINUOUS
10
169.212
20
-75.8405
11
169.197
21
-75.764
0
LINE
8
BLACK
6
CONTINUOUS
10
169.197
20
-75.764
11
169.197
21
-75.364
0
LINE
8
BLACK
6
CONTINUOUS
10
169.197
20
-75.364
11
169.212
21
-75.2875
0
LINE
8
BLACK
6
CONTINUOUS
10
169.212
20
-75.2875
11
169.256
21
-75.2226
0
LINE
8
BLACK
6
CONTINUOUS
10
169.256
20
-75.2226
11
169.32
21
-75.1792
0
LINE
8
BLACK
6
CONTINUOUS
10
169.32
20
-75.1792
11
169.397
21
-75.164
0
LINE
8
BLACK
6
CONTINUOUS
10
169.397
20
-75.164
11
169.947
21
-75.164
0
LINE
8
BLACK
6
CONTINUOUS
10
169.947
20
-75.164
11
170.024
21
-75.1792
0
LINE
8
BLACK
6
CONTINUOUS
10
151.159
20
-73.6602
11
151.223
21
-73.7036
0
LINE
8
BLACK
6
CONTINUOUS
10
151.223
20
-73.7036
11
151.267
21
-73.7685
0
LINE
8
BLACK
6
CONTINUOUS
10
151.267
20
-73.7685
11
151.282
21
-73.845
0
LINE
8
BLACK
6
CONTINUOUS
10
151.282
20
-73.845
11
151.282
21
-74.245
0
LINE
8
BLACK
6
CONTINUOUS
10
151.282
20
-74.245
11
151.267
21
-74.3215
0
LINE
8
BLACK
6
CONTINUOUS
10
151.267
20
-74.3215
11
151.223
21
-74.3864
0
LINE
8
BLACK
6
CONTINUOUS
10
151.223
20
-74.3864
11
151.159
21
-74.4298
0
LINE
8
BLACK
6
CONTINUOUS
10
151.159
20
-74.4298
11
151.082
21
-74.445
0
LINE
8
BLACK
6
CONTINUOUS
10
151.082
20
-74.445
11
150.532
21
-74.445
0
LINE
8
BLACK
6
CONTINUOUS
10
150.532
20
-74.445
11
150.455
21
-74.4298
0
LINE
8
BLACK
6
CONTINUOUS
10
150.455
20
-74.4298
11
150.391
21
-74.3864
0
LINE
8
BLACK
6
CONTINUOUS
10
150.391
20
-74.3864
11
150.347
21
-74.3215
0
LINE
8
BLACK
6
CONTINUOUS
10
150.347
20
-74.3215
11
150.332
21
-74.245
0
LINE
8
BLACK
6
CONTINUOUS
10
150.332
20
-74.245
11
150.332
21
-73.845
0
LINE
8
BLACK
6
CONTINUOUS
10
150.332
20
-73.845
11
150.347
21
-73.7685
0
LINE
8
BLACK
6
CONTINUOUS
10
150.347
20
-73.7685
11
150.391
21
-73.7036
0
LINE
8
BLACK
6
CONTINUOUS
10
150.391
20
-73.7036
11
150.455
21
-73.6602
0
LINE
8
BLACK
6
CONTINUOUS
10
150.455
20
-73.6602
11
150.532
21
-73.645
0
LINE
8
BLACK
6
CONTINUOUS
10
150.532
20
-73.645
11
151.082
21
-73.645
0
LINE
8
BLACK
6
CONTINUOUS
10
151.082
20
-73.645
11
151.159
21
-73.6602
0
LINE
8
BLACK
6
CONTINUOUS
10
153.064
20
-73.6602
11
153.128
21
-73.7036
0
LINE
8
BLACK
6
CONTINUOUS
10
153.128
20
-73.7036
11
153.172
21
-73.7685
0
LINE
8
BLACK
6
CONTINUOUS
10
153.172
20
-73.7685
11
153.187
21
-73.845
0
LINE
8
BLACK
6
CONTINUOUS
10
153.187
20
-73.845
11
153.187
21
-74.245
0
LINE
8
BLACK
6
CONTINUOUS
10
153.187
20
-74.245
11
153.172
21
-74.3215
0
LINE
8
BLACK
6
CONTINUOUS
10
153.172
20
-74.3215
11
153.128
21
-74.3864
0
LINE
8
BLACK
6
CONTINUOUS
10
153.128
20
-74.3864
11
153.064
21
-74.4298
0
LINE
8
BLACK
6
CONTINUOUS
10
153.064
20
-74.4298
11
152.987
21
-74.445
0
LINE
8
BLACK
6
CONTINUOUS
10
152.987
20
-74.445
11
152.437
21
-74.445
0
LINE
8
BLACK
6
CONTINUOUS
10
152.437
20
-74.445
11
152.36
21
-74.4298
0
LINE
8
BLACK
6
CONTINUOUS
10
152.36
20
-74.4298
11
152.296
21
-74.3864
0
LINE
8
BLACK
6
CONTINUOUS
10
152.296
20
-74.3864
11
152.252
21
-74.3215
0
LINE
8
BLACK
6
CONTINUOUS
10
152.252
20
-74.3215
11
152.237
21
-74.245
0
LINE
8
BLACK
6
CONTINUOUS
10
152.237
20
-74.245
11
152.237
21
-73.845
0
LINE
8
BLACK
6
CONTINUOUS
10
152.237
20
-73.845
11
152.252
21
-73.7685
0
LINE
8
BLACK
6
CONTINUOUS
10
152.252
20
-73.7685
11
152.296
21
-73.7036
0
LINE
8
BLACK
6
CONTINUOUS
10
152.296
20
-73.7036
11
152.36
21
-73.6602
0
LINE
8
BLACK
6
CONTINUOUS
10
152.36
20
-73.6602
11
152.437
21
-73.645
0
LINE
8
BLACK
6
CONTINUOUS
10
152.437
20
-73.645
11
152.987
21
-73.645
0
LINE
8
BLACK
6
CONTINUOUS
10
152.987
20
-73.645
11
153.064
21
-73.6602
0
LINE
8
BLACK
6
CONTINUOUS
10
170.024
20
-73.5292
11
170.088
21
-73.5726
0
LINE
8
BLACK
6
CONTINUOUS
10
170.088
20
-73.5726
11
170.132
21
-73.6375
0
LINE
8
BLACK
6
CONTINUOUS
10
170.132
20
-73.6375
11
170.147
21
-73.714
0
LINE
8
BLACK
6
CONTINUOUS
10
170.147
20
-73.714
11
170.147
21
-74.114
0
LINE
8
BLACK
6
CONTINUOUS
10
170.147
20
-74.114
11
170.132
21
-74.1905
0
LINE
8
BLACK
6
CONTINUOUS
10
170.132
20
-74.1905
11
170.088
21
-74.2554
0
LINE
8
BLACK
6
CONTINUOUS
10
170.088
20
-74.2554
11
170.024
21
-74.2988
0
LINE
8
BLACK
6
CONTINUOUS
10
170.024
20
-74.2988
11
169.947
21
-74.314
0
LINE
8
BLACK
6
CONTINUOUS
10
169.947
20
-74.314
11
169.397
21
-74.314
0
LINE
8
BLACK
6
CONTINUOUS
10
169.397
20
-74.314
11
169.32
21
-74.2988
0
LINE
8
BLACK
6
CONTINUOUS
10
169.32
20
-74.2988
11
169.256
21
-74.2554
0
LINE
8
BLACK
6
CONTINUOUS
10
169.256
20
-74.2554
11
169.212
21
-74.1905
0
LINE
8
BLACK
6
CONTINUOUS
10
169.212
20
-74.1905
11
169.197
21
-74.114
0
LINE
8
BLACK
6
CONTINUOUS
10
169.197
20
-74.114
11
169.197
21
-73.714
0
LINE
8
BLACK
6
CONTINUOUS
10
169.197
20
-73.714
11
169.212
21
-73.6375
0
LINE
8
BLACK
6
CONTINUOUS
10
169.212
20
-73.6375
11
169.256
21
-73.5726
0
LINE
8
BLACK
6
CONTINUOUS
10
169.256
20
-73.5726
11
169.32
21
-73.5292
0
LINE
8
BLACK
6
CONTINUOUS
10
169.32
20
-73.5292
11
169.397
21
-73.514
0
LINE
8
BLACK
6
CONTINUOUS
10
169.397
20
-73.514
11
169.947
21
-73.514
0
LINE
8
BLACK
6
CONTINUOUS
10
169.947
20
-73.514
11
170.024
21
-73.5292
0
LINE
8
BLACK
6
CONTINUOUS
10
155.274
20
-71.4914
11
155.323
21
-71.5239
0
LINE
8
BLACK
6
CONTINUOUS
10
155.323
20
-71.5239
11
155.356
21
-71.5726
0
LINE
8
BLACK
6
CONTINUOUS
10
155.356
20
-71.5726
11
155.367
21
-71.63
0
LINE
8
BLACK
6
CONTINUOUS
10
155.367
20
-71.63
11
155.367
21
-73.27
0
LINE
8
BLACK
6
CONTINUOUS
10
155.367
20
-73.27
11
155.356
21
-73.3274
0
LINE
8
BLACK
6
CONTINUOUS
10
155.356
20
-73.3274
11
155.323
21
-73.3761
0
LINE
8
BLACK
6
CONTINUOUS
10
155.323
20
-73.3761
11
155.274
21
-73.4086
0
LINE
8
BLACK
6
CONTINUOUS
10
155.274
20
-73.4086
11
155.217
21
-73.42
0
LINE
8
BLACK
6
CONTINUOUS
10
155.217
20
-73.42
11
154.917
21
-73.42
0
LINE
8
BLACK
6
CONTINUOUS
10
154.917
20
-73.42
11
154.86
21
-73.4086
0
LINE
8
BLACK
6
CONTINUOUS
10
154.86
20
-73.4086
11
154.811
21
-73.3761
0
LINE
8
BLACK
6
CONTINUOUS
10
154.811
20
-73.3761
11
154.778
21
-73.3274
0
LINE
8
BLACK
6
CONTINUOUS
10
154.778
20
-73.3274
11
154.767
21
-73.27
0
LINE
8
BLACK
6
CONTINUOUS
10
154.767
20
-73.27
11
154.767
21
-71.63
0
LINE
8
BLACK
6
CONTINUOUS
10
154.767
20
-71.63
11
154.778
21
-71.5726
0
LINE
8
BLACK
6
CONTINUOUS
10
154.778
20
-71.5726
11
154.811
21
-71.5239
0
LINE
8
BLACK
6
CONTINUOUS
10
154.811
20
-71.5239
11
154.86
21
-71.4914
0
LINE
8
BLACK
6
CONTINUOUS
10
154.86
20
-71.4914
11
154.917
21
-71.48
0
LINE
8
BLACK
6
CONTINUOUS
10
154.917
20
-71.48
11
155.217
21
-71.48
0
LINE
8
BLACK
6
CONTINUOUS
10
155.217
20
-71.48
11
155.274
21
-71.4914
0
LINE
8
BLACK
6
CONTINUOUS
10
156.544
20
-71.4914
11
156.593
21
-71.5239
0
LINE
8
BLACK
6
CONTINUOUS
10
156.593
20
-71.5239
11
156.626
21
-71.5726
0
LINE
8
BLACK
6
CONTINUOUS
10
156.626
20
-71.5726
11
156.637
21
-71.63
0
LINE
8
BLACK
6
CONTINUOUS
10
156.637
20
-71.63
11
156.637
21
-73.27
0
LINE
8
BLACK
6
CONTINUOUS
10
156.637
20
-73.27
11
156.626
21
-73.3274
0
LINE
8
BLACK
6
CONTINUOUS
10
156.626
20
-73.3274
11
156.593
21
-73.3761
0
LINE
8
BLACK
6
CONTINUOUS
10
156.593
20
-73.3761
11
156.544
21
-73.4086
0
LINE
8
BLACK
6
CONTINUOUS
10
156.544
20
-73.4086
11
156.487
21
-73.42
0
LINE
8
BLACK
6
CONTINUOUS
10
156.487
20
-73.42
11
156.187
21
-73.42
0
LINE
8
BLACK
6
CONTINUOUS
10
156.187
20
-73.42
11
156.13
21
-73.4086
0
LINE
8
BLACK
6
CONTINUOUS
10
156.13
20
-73.4086
11
156.081
21
-73.3761
0
LINE
8
BLACK
6
CONTINUOUS
10
156.081
20
-73.3761
11
156.048
21
-73.3274
0
LINE
8
BLACK
6
CONTINUOUS
10
156.048
20
-73.3274
11
156.037
21
-73.27
0
LINE
8
BLACK
6
CONTINUOUS
10
156.037
20
-73.27
11
156.037
21
-71.63
0
LINE
8
BLACK
6
CONTINUOUS
10
156.037
20
-71.63
11
156.048
21
-71.5726
0
LINE
8
BLACK
6
CONTINUOUS
10
156.048
20
-71.5726
11
156.081
21
-71.5239
0
LINE
8
BLACK
6
CONTINUOUS
10
156.081
20
-71.5239
11
156.13
21
-71.4914
0
LINE
8
BLACK
6
CONTINUOUS
10
156.13
20
-71.4914
11
156.187
21
-71.48
0
LINE
8
BLACK
6
CONTINUOUS
10
156.187
20
-71.48
11
156.487
21
-71.48
0
LINE
8
BLACK
6
CONTINUOUS
10
156.487
20
-71.48
11
156.544
21
-71.4914
0
LINE
8
BLACK
6
CONTINUOUS
10
157.814
20
-71.4914
11
157.863
21
-71.5239
0
LINE
8
BLACK
6
CONTINUOUS
10
157.863
20
-71.5239
11
157.896
21
-71.5726
0
LINE
8
BLACK
6
CONTINUOUS
10
157.896
20
-71.5726
11
157.907
21
-71.63
0
LINE
8
BLACK
6
CONTINUOUS
10
157.907
20
-71.63
11
157.907
21
-73.27
0
LINE
8
BLACK
6
CONTINUOUS
10
157.907
20
-73.27
11
157.896
21
-73.3274
0
LINE
8
BLACK
6
CONTINUOUS
10
157.896
20
-73.3274
11
157.863
21
-73.3761
0
LINE
8
BLACK
6
CONTINUOUS
10
157.863
20
-73.3761
11
157.814
21
-73.4086
0
LINE
8
BLACK
6
CONTINUOUS
10
157.814
20
-73.4086
11
157.757
21
-73.42
0
LINE
8
BLACK
6
CONTINUOUS
10
157.757
20
-73.42
11
157.457
21
-73.42
0
LINE
8
BLACK
6
CONTINUOUS
10
157.457
20
-73.42
11
157.4
21
-73.4086
0
LINE
8
BLACK
6
CONTINUOUS
10
157.4
20
-73.4086
11
157.351
21
-73.3761
0
LINE
8
BLACK
6
CONTINUOUS
10
157.351
20
-73.3761
11
157.318
21
-73.3274
0
LINE
8
BLACK
6
CONTINUOUS
10
157.318
20
-73.3274
11
157.307
21
-73.27
0
LINE
8
BLACK
6
CONTINUOUS
10
157.307
20
-73.27
11
157.307
21
-71.63
0
LINE
8
BLACK
6
CONTINUOUS
10
157.307
20
-71.63
11
157.318
21
-71.5726
0
LINE
8
BLACK
6
CONTINUOUS
10
157.318
20
-71.5726
11
157.351
21
-71.5239
0
LINE
8
BLACK
6
CONTINUOUS
10
157.351
20
-71.5239
11
157.4
21
-71.4914
0
LINE
8
BLACK
6
CONTINUOUS
10
157.4
20
-71.4914
11
157.457
21
-71.48
0
LINE
8
BLACK
6
CONTINUOUS
10
157.457
20
-71.48
11
157.757
21
-71.48
0
LINE
8
BLACK
6
CONTINUOUS
10
157.757
20
-71.48
11
157.814
21
-71.4914
0
LINE
8
BLACK
6
CONTINUOUS
10
159.084
20
-71.4914
11
159.133
21
-71.5239
0
LINE
8
BLACK
6
CONTINUOUS
10
159.133
20
-71.5239
11
159.166
21
-71.5726
0
LINE
8
BLACK
6
CONTINUOUS
10
159.166
20
-71.5726
11
159.177
21
-71.63
0
LINE
8
BLACK
6
CONTINUOUS
10
159.177
20
-71.63
11
159.177
21
-73.27
0
LINE
8
BLACK
6
CONTINUOUS
10
159.177
20
-73.27
11
159.166
21
-73.3274
0
LINE
8
BLACK
6
CONTINUOUS
10
159.166
20
-73.3274
11
159.133
21
-73.3761
0
LINE
8
BLACK
6
CONTINUOUS
10
159.133
20
-73.3761
11
159.084
21
-73.4086
0
LINE
8
BLACK
6
CONTINUOUS
10
159.084
20
-73.4086
11
159.027
21
-73.42
0
LINE
8
BLACK
6
CONTINUOUS
10
159.027
20
-73.42
11
158.727
21
-73.42
0
LINE
8
BLACK
6
CONTINUOUS
10
158.727
20
-73.42
11
158.67
21
-73.4086
0
LINE
8
BLACK
6
CONTINUOUS
10
158.67
20
-73.4086
11
158.621
21
-73.3761
0
LINE
8
BLACK
6
CONTINUOUS
10
158.621
20
-73.3761
11
158.588
21
-73.3274
0
LINE
8
BLACK
6
CONTINUOUS
10
158.588
20
-73.3274
11
158.577
21
-73.27
0
LINE
8
BLACK
6
CONTINUOUS
10
158.577
20
-73.27
11
158.577
21
-71.63
0
LINE
8
BLACK
6
CONTINUOUS
10
158.577
20
-71.63
11
158.588
21
-71.5726
0
LINE
8
BLACK
6
CONTINUOUS
10
158.588
20
-71.5726
11
158.621
21
-71.5239
0
LINE
8
BLACK
6
CONTINUOUS
10
158.621
20
-71.5239
11
158.67
21
-71.4914
0
LINE
8
BLACK
6
CONTINUOUS
10
158.67
20
-71.4914
11
158.727
21
-71.48
0
LINE
8
BLACK
6
CONTINUOUS
10
158.727
20
-71.48
11
159.027
21
-71.48
0
LINE
8
BLACK
6
CONTINUOUS
10
159.027
20
-71.48
11
159.084
21
-71.4914
  0
ENDSEC
  0
EOF
