G04 #@! TF.GenerationSoftware,KiCad,Pcbnew,7.0.8*
G04 #@! TF.CreationDate,2024-05-07T22:53:17-03:00*
G04 #@! TF.ProjectId,lamp_module_x1,6c616d70-5f6d-46f6-9475-6c655f78312e,1.1*
G04 #@! TF.SameCoordinates,Original*
G04 #@! TF.FileFunction,Legend,Bot*
G04 #@! TF.FilePolarity,Positive*
%FSLAX46Y46*%
G04 Gerber Fmt 4.6, Leading zero omitted, Abs format (unit mm)*
G04 Created by KiCad (PCBNEW 7.0.8) date 2024-05-07 22:53:17*
%MOMM*%
%LPD*%
G01*
G04 APERTURE LIST*
G04 Aperture macros list*
%AMRoundRect*
0 Rectangle with rounded corners*
0 $1 Rounding radius*
0 $2 $3 $4 $5 $6 $7 $8 $9 X,Y pos of 4 corners*
0 Add a 4 corners polygon primitive as box body*
4,1,4,$2,$3,$4,$5,$6,$7,$8,$9,$2,$3,0*
0 Add four circle primitives for the rounded corners*
1,1,$1+$1,$2,$3*
1,1,$1+$1,$4,$5*
1,1,$1+$1,$6,$7*
1,1,$1+$1,$8,$9*
0 Add four rect primitives between the rounded corners*
20,1,$1+$1,$2,$3,$4,$5,0*
20,1,$1+$1,$4,$5,$6,$7,0*
20,1,$1+$1,$6,$7,$8,$9,0*
20,1,$1+$1,$8,$9,$2,$3,0*%
G04 Aperture macros list end*
%ADD10C,0.350000*%
%ADD11C,0.400000*%
%ADD12C,0.300000*%
%ADD13C,0.150000*%
%ADD14C,0.120000*%
%ADD15C,2.500000*%
%ADD16R,1.700000X1.700000*%
%ADD17O,1.700000X1.700000*%
%ADD18C,3.000000*%
%ADD19R,2.600000X2.600000*%
%ADD20C,2.600000*%
%ADD21C,2.400000*%
%ADD22R,2.300000X2.000000*%
%ADD23C,2.300000*%
%ADD24RoundRect,0.200000X0.200000X0.275000X-0.200000X0.275000X-0.200000X-0.275000X0.200000X-0.275000X0*%
G04 APERTURE END LIST*
D10*
X170966000Y-99777300D02*
X170966000Y-103079300D01*
X150622000Y-82251300D02*
G75*
G03*
X152122000Y-83751300I1500000J0D01*
G01*
X165378000Y-98507300D02*
G75*
G03*
X163878000Y-97007300I-1500000J0D01*
G01*
X160044000Y-86569300D02*
X160044000Y-90419300D01*
X160044000Y-91819300D02*
X160044000Y-94189300D01*
X165378000Y-99777300D02*
X165378000Y-103079300D01*
X160068000Y-95483300D02*
G75*
G03*
X161568000Y-96983300I1500000J0D01*
G01*
X165378000Y-104349300D02*
G75*
G03*
X166878000Y-105849300I1500000J0D01*
G01*
X157250000Y-83775300D02*
X153440000Y-83775300D01*
X160020000Y-85275300D02*
G75*
G03*
X158520000Y-83775300I-1500000J0D01*
G01*
X169466000Y-105873300D02*
G75*
G03*
X170966000Y-104373300I0J1500000D01*
G01*
X150622000Y-80727300D02*
X150622000Y-76877300D01*
X150622000Y-75477300D02*
X150622000Y-71627300D01*
X150622000Y-70227300D02*
X150622000Y-66377300D01*
X150622000Y-64977300D02*
X150622000Y-61127300D01*
X150622000Y-59727300D02*
X150622000Y-55877300D01*
X150622000Y-54477300D02*
X150622000Y-51009300D01*
X172466000Y-97051900D02*
G75*
G03*
X170966000Y-98551946I100J-1500100D01*
G01*
X173760000Y-96983300D02*
X176554000Y-96983300D01*
D11*
X155261618Y-89483047D02*
X156452094Y-89483047D01*
X156452094Y-89483047D02*
X156452094Y-86983047D01*
X154785427Y-86983047D02*
X153952094Y-89483047D01*
X153952094Y-89483047D02*
X153118761Y-86983047D01*
X156749713Y-81101047D02*
X156749713Y-78601047D01*
X156749713Y-79791523D02*
X155321142Y-79791523D01*
X155321142Y-81101047D02*
X155321142Y-78601047D01*
X154487808Y-78601047D02*
X153654475Y-81101047D01*
X153654475Y-81101047D02*
X152821142Y-78601047D01*
D12*
X140939171Y-111748506D02*
X142439171Y-111748506D01*
X142439171Y-111748506D02*
X142439171Y-111391363D01*
X142439171Y-111391363D02*
X142367742Y-111177077D01*
X142367742Y-111177077D02*
X142224885Y-111034220D01*
X142224885Y-111034220D02*
X142082028Y-110962791D01*
X142082028Y-110962791D02*
X141796314Y-110891363D01*
X141796314Y-110891363D02*
X141582028Y-110891363D01*
X141582028Y-110891363D02*
X141296314Y-110962791D01*
X141296314Y-110962791D02*
X141153457Y-111034220D01*
X141153457Y-111034220D02*
X141010600Y-111177077D01*
X141010600Y-111177077D02*
X140939171Y-111391363D01*
X140939171Y-111391363D02*
X140939171Y-111748506D01*
X141010600Y-109677077D02*
X140939171Y-109819934D01*
X140939171Y-109819934D02*
X140939171Y-110105649D01*
X140939171Y-110105649D02*
X141010600Y-110248506D01*
X141010600Y-110248506D02*
X141153457Y-110319934D01*
X141153457Y-110319934D02*
X141724885Y-110319934D01*
X141724885Y-110319934D02*
X141867742Y-110248506D01*
X141867742Y-110248506D02*
X141939171Y-110105649D01*
X141939171Y-110105649D02*
X141939171Y-109819934D01*
X141939171Y-109819934D02*
X141867742Y-109677077D01*
X141867742Y-109677077D02*
X141724885Y-109605649D01*
X141724885Y-109605649D02*
X141582028Y-109605649D01*
X141582028Y-109605649D02*
X141439171Y-110319934D01*
X141010600Y-109034220D02*
X140939171Y-108891363D01*
X140939171Y-108891363D02*
X140939171Y-108605649D01*
X140939171Y-108605649D02*
X141010600Y-108462792D01*
X141010600Y-108462792D02*
X141153457Y-108391363D01*
X141153457Y-108391363D02*
X141224885Y-108391363D01*
X141224885Y-108391363D02*
X141367742Y-108462792D01*
X141367742Y-108462792D02*
X141439171Y-108605649D01*
X141439171Y-108605649D02*
X141439171Y-108819935D01*
X141439171Y-108819935D02*
X141510600Y-108962792D01*
X141510600Y-108962792D02*
X141653457Y-109034220D01*
X141653457Y-109034220D02*
X141724885Y-109034220D01*
X141724885Y-109034220D02*
X141867742Y-108962792D01*
X141867742Y-108962792D02*
X141939171Y-108819935D01*
X141939171Y-108819935D02*
X141939171Y-108605649D01*
X141939171Y-108605649D02*
X141867742Y-108462792D01*
X140939171Y-107748506D02*
X141939171Y-107748506D01*
X142439171Y-107748506D02*
X142367742Y-107819934D01*
X142367742Y-107819934D02*
X142296314Y-107748506D01*
X142296314Y-107748506D02*
X142367742Y-107677077D01*
X142367742Y-107677077D02*
X142439171Y-107748506D01*
X142439171Y-107748506D02*
X142296314Y-107748506D01*
X141939171Y-106391363D02*
X140724885Y-106391363D01*
X140724885Y-106391363D02*
X140582028Y-106462791D01*
X140582028Y-106462791D02*
X140510600Y-106534220D01*
X140510600Y-106534220D02*
X140439171Y-106677077D01*
X140439171Y-106677077D02*
X140439171Y-106891363D01*
X140439171Y-106891363D02*
X140510600Y-107034220D01*
X141010600Y-106391363D02*
X140939171Y-106534220D01*
X140939171Y-106534220D02*
X140939171Y-106819934D01*
X140939171Y-106819934D02*
X141010600Y-106962791D01*
X141010600Y-106962791D02*
X141082028Y-107034220D01*
X141082028Y-107034220D02*
X141224885Y-107105648D01*
X141224885Y-107105648D02*
X141653457Y-107105648D01*
X141653457Y-107105648D02*
X141796314Y-107034220D01*
X141796314Y-107034220D02*
X141867742Y-106962791D01*
X141867742Y-106962791D02*
X141939171Y-106819934D01*
X141939171Y-106819934D02*
X141939171Y-106534220D01*
X141939171Y-106534220D02*
X141867742Y-106391363D01*
X141939171Y-105677077D02*
X140939171Y-105677077D01*
X141796314Y-105677077D02*
X141867742Y-105605648D01*
X141867742Y-105605648D02*
X141939171Y-105462791D01*
X141939171Y-105462791D02*
X141939171Y-105248505D01*
X141939171Y-105248505D02*
X141867742Y-105105648D01*
X141867742Y-105105648D02*
X141724885Y-105034220D01*
X141724885Y-105034220D02*
X140939171Y-105034220D01*
X141010600Y-103748505D02*
X140939171Y-103891362D01*
X140939171Y-103891362D02*
X140939171Y-104177077D01*
X140939171Y-104177077D02*
X141010600Y-104319934D01*
X141010600Y-104319934D02*
X141153457Y-104391362D01*
X141153457Y-104391362D02*
X141724885Y-104391362D01*
X141724885Y-104391362D02*
X141867742Y-104319934D01*
X141867742Y-104319934D02*
X141939171Y-104177077D01*
X141939171Y-104177077D02*
X141939171Y-103891362D01*
X141939171Y-103891362D02*
X141867742Y-103748505D01*
X141867742Y-103748505D02*
X141724885Y-103677077D01*
X141724885Y-103677077D02*
X141582028Y-103677077D01*
X141582028Y-103677077D02*
X141439171Y-104391362D01*
X140939171Y-102391363D02*
X142439171Y-102391363D01*
X141010600Y-102391363D02*
X140939171Y-102534220D01*
X140939171Y-102534220D02*
X140939171Y-102819934D01*
X140939171Y-102819934D02*
X141010600Y-102962791D01*
X141010600Y-102962791D02*
X141082028Y-103034220D01*
X141082028Y-103034220D02*
X141224885Y-103105648D01*
X141224885Y-103105648D02*
X141653457Y-103105648D01*
X141653457Y-103105648D02*
X141796314Y-103034220D01*
X141796314Y-103034220D02*
X141867742Y-102962791D01*
X141867742Y-102962791D02*
X141939171Y-102819934D01*
X141939171Y-102819934D02*
X141939171Y-102534220D01*
X141939171Y-102534220D02*
X141867742Y-102391363D01*
X140939171Y-100534220D02*
X142439171Y-100534220D01*
X141867742Y-100534220D02*
X141939171Y-100391363D01*
X141939171Y-100391363D02*
X141939171Y-100105648D01*
X141939171Y-100105648D02*
X141867742Y-99962791D01*
X141867742Y-99962791D02*
X141796314Y-99891363D01*
X141796314Y-99891363D02*
X141653457Y-99819934D01*
X141653457Y-99819934D02*
X141224885Y-99819934D01*
X141224885Y-99819934D02*
X141082028Y-99891363D01*
X141082028Y-99891363D02*
X141010600Y-99962791D01*
X141010600Y-99962791D02*
X140939171Y-100105648D01*
X140939171Y-100105648D02*
X140939171Y-100391363D01*
X140939171Y-100391363D02*
X141010600Y-100534220D01*
X141939171Y-99319934D02*
X140939171Y-98962791D01*
X141939171Y-98605648D02*
X140939171Y-98962791D01*
X140939171Y-98962791D02*
X140582028Y-99105648D01*
X140582028Y-99105648D02*
X140510600Y-99177077D01*
X140510600Y-99177077D02*
X140439171Y-99319934D01*
X141367742Y-96962791D02*
X141367742Y-96248506D01*
X140939171Y-97105648D02*
X142439171Y-96605648D01*
X142439171Y-96605648D02*
X140939171Y-96105648D01*
X140939171Y-95391363D02*
X141010600Y-95534220D01*
X141010600Y-95534220D02*
X141153457Y-95605649D01*
X141153457Y-95605649D02*
X142439171Y-95605649D01*
X140939171Y-94177078D02*
X141724885Y-94177078D01*
X141724885Y-94177078D02*
X141867742Y-94248506D01*
X141867742Y-94248506D02*
X141939171Y-94391363D01*
X141939171Y-94391363D02*
X141939171Y-94677078D01*
X141939171Y-94677078D02*
X141867742Y-94819935D01*
X141010600Y-94177078D02*
X140939171Y-94319935D01*
X140939171Y-94319935D02*
X140939171Y-94677078D01*
X140939171Y-94677078D02*
X141010600Y-94819935D01*
X141010600Y-94819935D02*
X141153457Y-94891363D01*
X141153457Y-94891363D02*
X141296314Y-94891363D01*
X141296314Y-94891363D02*
X141439171Y-94819935D01*
X141439171Y-94819935D02*
X141510600Y-94677078D01*
X141510600Y-94677078D02*
X141510600Y-94319935D01*
X141510600Y-94319935D02*
X141582028Y-94177078D01*
X141939171Y-93462792D02*
X140939171Y-93462792D01*
X141796314Y-93462792D02*
X141867742Y-93391363D01*
X141867742Y-93391363D02*
X141939171Y-93248506D01*
X141939171Y-93248506D02*
X141939171Y-93034220D01*
X141939171Y-93034220D02*
X141867742Y-92891363D01*
X141867742Y-92891363D02*
X141724885Y-92819935D01*
X141724885Y-92819935D02*
X140939171Y-92819935D01*
X141082028Y-90105649D02*
X141010600Y-90177077D01*
X141010600Y-90177077D02*
X140939171Y-90391363D01*
X140939171Y-90391363D02*
X140939171Y-90534220D01*
X140939171Y-90534220D02*
X141010600Y-90748506D01*
X141010600Y-90748506D02*
X141153457Y-90891363D01*
X141153457Y-90891363D02*
X141296314Y-90962792D01*
X141296314Y-90962792D02*
X141582028Y-91034220D01*
X141582028Y-91034220D02*
X141796314Y-91034220D01*
X141796314Y-91034220D02*
X142082028Y-90962792D01*
X142082028Y-90962792D02*
X142224885Y-90891363D01*
X142224885Y-90891363D02*
X142367742Y-90748506D01*
X142367742Y-90748506D02*
X142439171Y-90534220D01*
X142439171Y-90534220D02*
X142439171Y-90391363D01*
X142439171Y-90391363D02*
X142367742Y-90177077D01*
X142367742Y-90177077D02*
X142296314Y-90105649D01*
X140939171Y-88819935D02*
X141724885Y-88819935D01*
X141724885Y-88819935D02*
X141867742Y-88891363D01*
X141867742Y-88891363D02*
X141939171Y-89034220D01*
X141939171Y-89034220D02*
X141939171Y-89319935D01*
X141939171Y-89319935D02*
X141867742Y-89462792D01*
X141010600Y-88819935D02*
X140939171Y-88962792D01*
X140939171Y-88962792D02*
X140939171Y-89319935D01*
X140939171Y-89319935D02*
X141010600Y-89462792D01*
X141010600Y-89462792D02*
X141153457Y-89534220D01*
X141153457Y-89534220D02*
X141296314Y-89534220D01*
X141296314Y-89534220D02*
X141439171Y-89462792D01*
X141439171Y-89462792D02*
X141510600Y-89319935D01*
X141510600Y-89319935D02*
X141510600Y-88962792D01*
X141510600Y-88962792D02*
X141582028Y-88819935D01*
X140939171Y-88105649D02*
X141939171Y-88105649D01*
X141653457Y-88105649D02*
X141796314Y-88034220D01*
X141796314Y-88034220D02*
X141867742Y-87962792D01*
X141867742Y-87962792D02*
X141939171Y-87819934D01*
X141939171Y-87819934D02*
X141939171Y-87677077D01*
X141939171Y-87319935D02*
X140939171Y-86962792D01*
X140939171Y-86962792D02*
X141939171Y-86605649D01*
X140939171Y-85391364D02*
X141724885Y-85391364D01*
X141724885Y-85391364D02*
X141867742Y-85462792D01*
X141867742Y-85462792D02*
X141939171Y-85605649D01*
X141939171Y-85605649D02*
X141939171Y-85891364D01*
X141939171Y-85891364D02*
X141867742Y-86034221D01*
X141010600Y-85391364D02*
X140939171Y-85534221D01*
X140939171Y-85534221D02*
X140939171Y-85891364D01*
X140939171Y-85891364D02*
X141010600Y-86034221D01*
X141010600Y-86034221D02*
X141153457Y-86105649D01*
X141153457Y-86105649D02*
X141296314Y-86105649D01*
X141296314Y-86105649D02*
X141439171Y-86034221D01*
X141439171Y-86034221D02*
X141510600Y-85891364D01*
X141510600Y-85891364D02*
X141510600Y-85534221D01*
X141510600Y-85534221D02*
X141582028Y-85391364D01*
X140939171Y-84462792D02*
X141010600Y-84605649D01*
X141010600Y-84605649D02*
X141153457Y-84677078D01*
X141153457Y-84677078D02*
X142439171Y-84677078D01*
X140939171Y-83891364D02*
X142439171Y-83891364D01*
X140939171Y-83248507D02*
X141724885Y-83248507D01*
X141724885Y-83248507D02*
X141867742Y-83319935D01*
X141867742Y-83319935D02*
X141939171Y-83462792D01*
X141939171Y-83462792D02*
X141939171Y-83677078D01*
X141939171Y-83677078D02*
X141867742Y-83819935D01*
X141867742Y-83819935D02*
X141796314Y-83891364D01*
X140939171Y-82319935D02*
X141010600Y-82462792D01*
X141010600Y-82462792D02*
X141082028Y-82534221D01*
X141082028Y-82534221D02*
X141224885Y-82605649D01*
X141224885Y-82605649D02*
X141653457Y-82605649D01*
X141653457Y-82605649D02*
X141796314Y-82534221D01*
X141796314Y-82534221D02*
X141867742Y-82462792D01*
X141867742Y-82462792D02*
X141939171Y-82319935D01*
X141939171Y-82319935D02*
X141939171Y-82105649D01*
X141939171Y-82105649D02*
X141867742Y-81962792D01*
X141867742Y-81962792D02*
X141796314Y-81891364D01*
X141796314Y-81891364D02*
X141653457Y-81819935D01*
X141653457Y-81819935D02*
X141224885Y-81819935D01*
X141224885Y-81819935D02*
X141082028Y-81891364D01*
X141082028Y-81891364D02*
X141010600Y-81962792D01*
X141010600Y-81962792D02*
X140939171Y-82105649D01*
X140939171Y-82105649D02*
X140939171Y-82319935D01*
D11*
X143899561Y-111426825D02*
X145899561Y-111426825D01*
X144947180Y-111426825D02*
X144947180Y-110283968D01*
X143899561Y-110283968D02*
X145899561Y-110283968D01*
X144470990Y-109426825D02*
X144470990Y-108474444D01*
X143899561Y-109617301D02*
X145899561Y-108950635D01*
X145899561Y-108950635D02*
X143899561Y-108283968D01*
X143899561Y-107617301D02*
X145899561Y-107617301D01*
X145899561Y-107617301D02*
X145899561Y-106855396D01*
X145899561Y-106855396D02*
X145804323Y-106664920D01*
X145804323Y-106664920D02*
X145709085Y-106569682D01*
X145709085Y-106569682D02*
X145518609Y-106474444D01*
X145518609Y-106474444D02*
X145232895Y-106474444D01*
X145232895Y-106474444D02*
X145042419Y-106569682D01*
X145042419Y-106569682D02*
X144947180Y-106664920D01*
X144947180Y-106664920D02*
X144851942Y-106855396D01*
X144851942Y-106855396D02*
X144851942Y-107617301D01*
X144661466Y-104093491D02*
X144661466Y-102569682D01*
X143899561Y-99141110D02*
X143899561Y-100093491D01*
X143899561Y-100093491D02*
X145899561Y-100093491D01*
X143899561Y-97617300D02*
X144947180Y-97617300D01*
X144947180Y-97617300D02*
X145137657Y-97712538D01*
X145137657Y-97712538D02*
X145232895Y-97903014D01*
X145232895Y-97903014D02*
X145232895Y-98283967D01*
X145232895Y-98283967D02*
X145137657Y-98474443D01*
X143994800Y-97617300D02*
X143899561Y-97807776D01*
X143899561Y-97807776D02*
X143899561Y-98283967D01*
X143899561Y-98283967D02*
X143994800Y-98474443D01*
X143994800Y-98474443D02*
X144185276Y-98569681D01*
X144185276Y-98569681D02*
X144375752Y-98569681D01*
X144375752Y-98569681D02*
X144566228Y-98474443D01*
X144566228Y-98474443D02*
X144661466Y-98283967D01*
X144661466Y-98283967D02*
X144661466Y-97807776D01*
X144661466Y-97807776D02*
X144756704Y-97617300D01*
X143899561Y-96664919D02*
X145232895Y-96664919D01*
X145042419Y-96664919D02*
X145137657Y-96569681D01*
X145137657Y-96569681D02*
X145232895Y-96379205D01*
X145232895Y-96379205D02*
X145232895Y-96093490D01*
X145232895Y-96093490D02*
X145137657Y-95903014D01*
X145137657Y-95903014D02*
X144947180Y-95807776D01*
X144947180Y-95807776D02*
X143899561Y-95807776D01*
X144947180Y-95807776D02*
X145137657Y-95712538D01*
X145137657Y-95712538D02*
X145232895Y-95522062D01*
X145232895Y-95522062D02*
X145232895Y-95236348D01*
X145232895Y-95236348D02*
X145137657Y-95045871D01*
X145137657Y-95045871D02*
X144947180Y-94950633D01*
X144947180Y-94950633D02*
X143899561Y-94950633D01*
X145232895Y-93998252D02*
X143232895Y-93998252D01*
X145137657Y-93998252D02*
X145232895Y-93807776D01*
X145232895Y-93807776D02*
X145232895Y-93426823D01*
X145232895Y-93426823D02*
X145137657Y-93236347D01*
X145137657Y-93236347D02*
X145042419Y-93141109D01*
X145042419Y-93141109D02*
X144851942Y-93045871D01*
X144851942Y-93045871D02*
X144280514Y-93045871D01*
X144280514Y-93045871D02*
X144090038Y-93141109D01*
X144090038Y-93141109D02*
X143994800Y-93236347D01*
X143994800Y-93236347D02*
X143899561Y-93426823D01*
X143899561Y-93426823D02*
X143899561Y-93807776D01*
X143899561Y-93807776D02*
X143994800Y-93998252D01*
X143899561Y-90664918D02*
X145899561Y-90664918D01*
X145899561Y-90664918D02*
X144470990Y-89998251D01*
X144470990Y-89998251D02*
X145899561Y-89331585D01*
X145899561Y-89331585D02*
X143899561Y-89331585D01*
X143899561Y-88093490D02*
X143994800Y-88283966D01*
X143994800Y-88283966D02*
X144090038Y-88379204D01*
X144090038Y-88379204D02*
X144280514Y-88474442D01*
X144280514Y-88474442D02*
X144851942Y-88474442D01*
X144851942Y-88474442D02*
X145042419Y-88379204D01*
X145042419Y-88379204D02*
X145137657Y-88283966D01*
X145137657Y-88283966D02*
X145232895Y-88093490D01*
X145232895Y-88093490D02*
X145232895Y-87807775D01*
X145232895Y-87807775D02*
X145137657Y-87617299D01*
X145137657Y-87617299D02*
X145042419Y-87522061D01*
X145042419Y-87522061D02*
X144851942Y-87426823D01*
X144851942Y-87426823D02*
X144280514Y-87426823D01*
X144280514Y-87426823D02*
X144090038Y-87522061D01*
X144090038Y-87522061D02*
X143994800Y-87617299D01*
X143994800Y-87617299D02*
X143899561Y-87807775D01*
X143899561Y-87807775D02*
X143899561Y-88093490D01*
X143899561Y-85712537D02*
X145899561Y-85712537D01*
X143994800Y-85712537D02*
X143899561Y-85903013D01*
X143899561Y-85903013D02*
X143899561Y-86283966D01*
X143899561Y-86283966D02*
X143994800Y-86474442D01*
X143994800Y-86474442D02*
X144090038Y-86569680D01*
X144090038Y-86569680D02*
X144280514Y-86664918D01*
X144280514Y-86664918D02*
X144851942Y-86664918D01*
X144851942Y-86664918D02*
X145042419Y-86569680D01*
X145042419Y-86569680D02*
X145137657Y-86474442D01*
X145137657Y-86474442D02*
X145232895Y-86283966D01*
X145232895Y-86283966D02*
X145232895Y-85903013D01*
X145232895Y-85903013D02*
X145137657Y-85712537D01*
X145232895Y-83903013D02*
X143899561Y-83903013D01*
X145232895Y-84760156D02*
X144185276Y-84760156D01*
X144185276Y-84760156D02*
X143994800Y-84664918D01*
X143994800Y-84664918D02*
X143899561Y-84474442D01*
X143899561Y-84474442D02*
X143899561Y-84188727D01*
X143899561Y-84188727D02*
X143994800Y-83998251D01*
X143994800Y-83998251D02*
X144090038Y-83903013D01*
X143899561Y-82664918D02*
X143994800Y-82855394D01*
X143994800Y-82855394D02*
X144185276Y-82950632D01*
X144185276Y-82950632D02*
X145899561Y-82950632D01*
X143994800Y-81141108D02*
X143899561Y-81331584D01*
X143899561Y-81331584D02*
X143899561Y-81712537D01*
X143899561Y-81712537D02*
X143994800Y-81903013D01*
X143994800Y-81903013D02*
X144185276Y-81998251D01*
X144185276Y-81998251D02*
X144947180Y-81998251D01*
X144947180Y-81998251D02*
X145137657Y-81903013D01*
X145137657Y-81903013D02*
X145232895Y-81712537D01*
X145232895Y-81712537D02*
X145232895Y-81331584D01*
X145232895Y-81331584D02*
X145137657Y-81141108D01*
X145137657Y-81141108D02*
X144947180Y-81045870D01*
X144947180Y-81045870D02*
X144756704Y-81045870D01*
X144756704Y-81045870D02*
X144566228Y-81998251D01*
X145899561Y-78855393D02*
X143899561Y-77522060D01*
X145899561Y-77522060D02*
X143899561Y-78855393D01*
X143899561Y-75712536D02*
X143899561Y-76855393D01*
X143899561Y-76283965D02*
X145899561Y-76283965D01*
X145899561Y-76283965D02*
X145613847Y-76474441D01*
X145613847Y-76474441D02*
X145423371Y-76664917D01*
X145423371Y-76664917D02*
X145328133Y-76855393D01*
X145899561Y-73617297D02*
X143899561Y-72950631D01*
X143899561Y-72950631D02*
X145899561Y-72283964D01*
X143899561Y-70569678D02*
X143899561Y-71712535D01*
X143899561Y-71141107D02*
X145899561Y-71141107D01*
X145899561Y-71141107D02*
X145613847Y-71331583D01*
X145613847Y-71331583D02*
X145423371Y-71522059D01*
X145423371Y-71522059D02*
X145328133Y-71712535D01*
X144090038Y-69712535D02*
X143994800Y-69617297D01*
X143994800Y-69617297D02*
X143899561Y-69712535D01*
X143899561Y-69712535D02*
X143994800Y-69807773D01*
X143994800Y-69807773D02*
X144090038Y-69712535D01*
X144090038Y-69712535D02*
X143899561Y-69712535D01*
X143899561Y-67712535D02*
X143899561Y-68855392D01*
X143899561Y-68283964D02*
X145899561Y-68283964D01*
X145899561Y-68283964D02*
X145613847Y-68474440D01*
X145613847Y-68474440D02*
X145423371Y-68664916D01*
X145423371Y-68664916D02*
X145328133Y-68855392D01*
D13*
X154977666Y-104193621D02*
X155310999Y-103717430D01*
X155549094Y-104193621D02*
X155549094Y-103193621D01*
X155549094Y-103193621D02*
X155168142Y-103193621D01*
X155168142Y-103193621D02*
X155072904Y-103241240D01*
X155072904Y-103241240D02*
X155025285Y-103288859D01*
X155025285Y-103288859D02*
X154977666Y-103384097D01*
X154977666Y-103384097D02*
X154977666Y-103526954D01*
X154977666Y-103526954D02*
X155025285Y-103622192D01*
X155025285Y-103622192D02*
X155072904Y-103669811D01*
X155072904Y-103669811D02*
X155168142Y-103717430D01*
X155168142Y-103717430D02*
X155549094Y-103717430D01*
X154072904Y-103193621D02*
X154549094Y-103193621D01*
X154549094Y-103193621D02*
X154596713Y-103669811D01*
X154596713Y-103669811D02*
X154549094Y-103622192D01*
X154549094Y-103622192D02*
X154453856Y-103574573D01*
X154453856Y-103574573D02*
X154215761Y-103574573D01*
X154215761Y-103574573D02*
X154120523Y-103622192D01*
X154120523Y-103622192D02*
X154072904Y-103669811D01*
X154072904Y-103669811D02*
X154025285Y-103765049D01*
X154025285Y-103765049D02*
X154025285Y-104003144D01*
X154025285Y-104003144D02*
X154072904Y-104098382D01*
X154072904Y-104098382D02*
X154120523Y-104146002D01*
X154120523Y-104146002D02*
X154215761Y-104193621D01*
X154215761Y-104193621D02*
X154453856Y-104193621D01*
X154453856Y-104193621D02*
X154549094Y-104146002D01*
X154549094Y-104146002D02*
X154596713Y-104098382D01*
X154977666Y-112219121D02*
X155310999Y-111742930D01*
X155549094Y-112219121D02*
X155549094Y-111219121D01*
X155549094Y-111219121D02*
X155168142Y-111219121D01*
X155168142Y-111219121D02*
X155072904Y-111266740D01*
X155072904Y-111266740D02*
X155025285Y-111314359D01*
X155025285Y-111314359D02*
X154977666Y-111409597D01*
X154977666Y-111409597D02*
X154977666Y-111552454D01*
X154977666Y-111552454D02*
X155025285Y-111647692D01*
X155025285Y-111647692D02*
X155072904Y-111695311D01*
X155072904Y-111695311D02*
X155168142Y-111742930D01*
X155168142Y-111742930D02*
X155549094Y-111742930D01*
X154596713Y-111314359D02*
X154549094Y-111266740D01*
X154549094Y-111266740D02*
X154453856Y-111219121D01*
X154453856Y-111219121D02*
X154215761Y-111219121D01*
X154215761Y-111219121D02*
X154120523Y-111266740D01*
X154120523Y-111266740D02*
X154072904Y-111314359D01*
X154072904Y-111314359D02*
X154025285Y-111409597D01*
X154025285Y-111409597D02*
X154025285Y-111504835D01*
X154025285Y-111504835D02*
X154072904Y-111647692D01*
X154072904Y-111647692D02*
X154644332Y-112219121D01*
X154644332Y-112219121D02*
X154025285Y-112219121D01*
X134403666Y-100193625D02*
X134736999Y-99717434D01*
X134975094Y-100193625D02*
X134975094Y-99193625D01*
X134975094Y-99193625D02*
X134594142Y-99193625D01*
X134594142Y-99193625D02*
X134498904Y-99241244D01*
X134498904Y-99241244D02*
X134451285Y-99288863D01*
X134451285Y-99288863D02*
X134403666Y-99384101D01*
X134403666Y-99384101D02*
X134403666Y-99526958D01*
X134403666Y-99526958D02*
X134451285Y-99622196D01*
X134451285Y-99622196D02*
X134498904Y-99669815D01*
X134498904Y-99669815D02*
X134594142Y-99717434D01*
X134594142Y-99717434D02*
X134975094Y-99717434D01*
X133546523Y-99526958D02*
X133546523Y-100193625D01*
X133784618Y-99146006D02*
X134022713Y-99860291D01*
X134022713Y-99860291D02*
X133403666Y-99860291D01*
X154977666Y-108155121D02*
X155310999Y-107678930D01*
X155549094Y-108155121D02*
X155549094Y-107155121D01*
X155549094Y-107155121D02*
X155168142Y-107155121D01*
X155168142Y-107155121D02*
X155072904Y-107202740D01*
X155072904Y-107202740D02*
X155025285Y-107250359D01*
X155025285Y-107250359D02*
X154977666Y-107345597D01*
X154977666Y-107345597D02*
X154977666Y-107488454D01*
X154977666Y-107488454D02*
X155025285Y-107583692D01*
X155025285Y-107583692D02*
X155072904Y-107631311D01*
X155072904Y-107631311D02*
X155168142Y-107678930D01*
X155168142Y-107678930D02*
X155549094Y-107678930D01*
X154025285Y-108155121D02*
X154596713Y-108155121D01*
X154310999Y-108155121D02*
X154310999Y-107155121D01*
X154310999Y-107155121D02*
X154406237Y-107297978D01*
X154406237Y-107297978D02*
X154501475Y-107393216D01*
X154501475Y-107393216D02*
X154596713Y-107440835D01*
D14*
X152461258Y-104261305D02*
X151986742Y-104261305D01*
X152461258Y-103216305D02*
X151986742Y-103216305D01*
X152461258Y-112261304D02*
X151986742Y-112261304D01*
X152461258Y-111216304D02*
X151986742Y-111216304D01*
G36*
X155277527Y-73370997D02*
G01*
X155289418Y-73414923D01*
X155313677Y-73512390D01*
X155347983Y-73653551D01*
X155390012Y-73828562D01*
X155437444Y-74027577D01*
X155487957Y-74240750D01*
X155539227Y-74458235D01*
X155588934Y-74670187D01*
X155634755Y-74866760D01*
X155674369Y-75038108D01*
X155705453Y-75174386D01*
X155725685Y-75265749D01*
X155732744Y-75302350D01*
X155731965Y-75303376D01*
X155693319Y-75298875D01*
X155605026Y-75277027D01*
X155478996Y-75241014D01*
X155327138Y-75194017D01*
X155308086Y-75187933D01*
X155155290Y-75139826D01*
X155027133Y-75100646D01*
X154936566Y-75074285D01*
X154896538Y-75064634D01*
X154892782Y-75069265D01*
X154892944Y-75120129D01*
X154906038Y-75215222D01*
X154930237Y-75339634D01*
X154933458Y-75354472D01*
X154968212Y-75515971D01*
X155002735Y-75678517D01*
X155029998Y-75809025D01*
X155069997Y-76003417D01*
X155237959Y-75980347D01*
X155293771Y-75973983D01*
X155371825Y-75973502D01*
X155393568Y-75989547D01*
X155380227Y-76015381D01*
X155337801Y-76089852D01*
X155274343Y-76197851D01*
X155197640Y-76326002D01*
X155137308Y-76425768D01*
X155072946Y-76531647D01*
X155028620Y-76603889D01*
X155011507Y-76630743D01*
X155007500Y-76629900D01*
X154964970Y-76603462D01*
X154888833Y-76547684D01*
X154791475Y-76472530D01*
X154685283Y-76387964D01*
X154582642Y-76303949D01*
X154495940Y-76230449D01*
X154437561Y-76177426D01*
X154419893Y-76154846D01*
X154431351Y-76150063D01*
X154496455Y-76133191D01*
X154590804Y-76115161D01*
X154625203Y-76108540D01*
X154700545Y-76082711D01*
X154721282Y-76052983D01*
X154717813Y-76042955D01*
X154691826Y-75959495D01*
X154654446Y-75830782D01*
X154608328Y-75666770D01*
X154556132Y-75477415D01*
X154500513Y-75272669D01*
X154444129Y-75062487D01*
X154389638Y-74856823D01*
X154339695Y-74665632D01*
X154296960Y-74498867D01*
X154264088Y-74366482D01*
X154243738Y-74278433D01*
X154238565Y-74244672D01*
X154242184Y-74243846D01*
X154290714Y-74256837D01*
X154385120Y-74292343D01*
X154513758Y-74345781D01*
X154664987Y-74412567D01*
X154704672Y-74430541D01*
X154850448Y-74496197D01*
X154969755Y-74549361D01*
X155051174Y-74584972D01*
X155083283Y-74597967D01*
X155079618Y-74579781D01*
X155058351Y-74508038D01*
X155021471Y-74391409D01*
X154972244Y-74240180D01*
X154913935Y-74064634D01*
X154735185Y-73531300D01*
X154888164Y-73531300D01*
X154905734Y-73531110D01*
X155039056Y-73509811D01*
X155154961Y-73444601D01*
X155185889Y-73421704D01*
X155248318Y-73380498D01*
X155276930Y-73369601D01*
X155277527Y-73370997D01*
G37*
G36*
X157825764Y-76776622D02*
G01*
X157876188Y-76867374D01*
X157894893Y-76906605D01*
X157893781Y-76979686D01*
X157867557Y-77048272D01*
X157856551Y-77055906D01*
X157830512Y-77063785D01*
X157786385Y-77070636D01*
X157720115Y-77076530D01*
X157627646Y-77081534D01*
X157504922Y-77085719D01*
X157347888Y-77089153D01*
X157152489Y-77091906D01*
X156914669Y-77094045D01*
X156630372Y-77095641D01*
X156295544Y-77096762D01*
X155906128Y-77097477D01*
X155458069Y-77097856D01*
X154947312Y-77097967D01*
X154797281Y-77097975D01*
X154301001Y-77098059D01*
X153866323Y-77098033D01*
X153489219Y-77097635D01*
X153165662Y-77096604D01*
X152891624Y-77094679D01*
X152663078Y-77091597D01*
X152475996Y-77087097D01*
X152326349Y-77080918D01*
X152210112Y-77072799D01*
X152123255Y-77062477D01*
X152061750Y-77049692D01*
X152021572Y-77034182D01*
X151998691Y-77015686D01*
X151989080Y-76993941D01*
X151988711Y-76968688D01*
X151993557Y-76939663D01*
X151999590Y-76906605D01*
X152017678Y-76868479D01*
X152067566Y-76778547D01*
X152094773Y-76731300D01*
X152486415Y-76731300D01*
X154947312Y-76731300D01*
X157408209Y-76731300D01*
X157359664Y-76656300D01*
X157357018Y-76652151D01*
X157323893Y-76598884D01*
X157260192Y-76495627D01*
X157169443Y-76348122D01*
X157055173Y-76162116D01*
X156920910Y-75943353D01*
X156770181Y-75697577D01*
X156606515Y-75430533D01*
X156433439Y-75147967D01*
X156262657Y-74869080D01*
X156078702Y-74568712D01*
X155899738Y-74276526D01*
X155730737Y-74000636D01*
X155576671Y-73749160D01*
X155442512Y-73530212D01*
X155333233Y-73351910D01*
X155253804Y-73222368D01*
X155169354Y-73087118D01*
X155079125Y-72948510D01*
X155005100Y-72841327D01*
X154953267Y-72774185D01*
X154929609Y-72755701D01*
X154914389Y-72777940D01*
X154868450Y-72850158D01*
X154798813Y-72961975D01*
X154711660Y-73103448D01*
X154613173Y-73264634D01*
X154605143Y-73277825D01*
X154503507Y-73444583D01*
X154380791Y-73645629D01*
X154240721Y-73874885D01*
X154087020Y-74126272D01*
X153923414Y-74393710D01*
X153753626Y-74671121D01*
X153581382Y-74952425D01*
X153410405Y-75231543D01*
X153244420Y-75502396D01*
X153087153Y-75758904D01*
X152942327Y-75994990D01*
X152813666Y-76204573D01*
X152704897Y-76381575D01*
X152619742Y-76519916D01*
X152561927Y-76613517D01*
X152535175Y-76656300D01*
X152486415Y-76731300D01*
X152094773Y-76731300D01*
X152146023Y-76642300D01*
X152249839Y-76465033D01*
X152375807Y-76252041D01*
X152520720Y-76008619D01*
X152681369Y-75740061D01*
X152854547Y-75451664D01*
X153037047Y-75148722D01*
X153225660Y-74836529D01*
X153417179Y-74520382D01*
X153608395Y-74205575D01*
X153796102Y-73897404D01*
X153977091Y-73601162D01*
X154148155Y-73322146D01*
X154306086Y-73065650D01*
X154447676Y-72836969D01*
X154569717Y-72641399D01*
X154669002Y-72484234D01*
X154742323Y-72370769D01*
X154786472Y-72306300D01*
X154861662Y-72229762D01*
X154947312Y-72197967D01*
X155021984Y-72222385D01*
X155107920Y-72306300D01*
X155150919Y-72369100D01*
X155223780Y-72481828D01*
X155322658Y-72638339D01*
X155444346Y-72833339D01*
X155585637Y-73061532D01*
X155743323Y-73317624D01*
X155914197Y-73596321D01*
X156095052Y-73892328D01*
X156282678Y-74200351D01*
X156473870Y-74515094D01*
X156665418Y-74831264D01*
X156854117Y-75143566D01*
X157036758Y-75446704D01*
X157210133Y-75735386D01*
X157371035Y-76004315D01*
X157516257Y-76248198D01*
X157642591Y-76461740D01*
X157746829Y-76639646D01*
X157799646Y-76731300D01*
X157825764Y-76776622D01*
G37*
X137061258Y-100261306D02*
X136586742Y-100261306D01*
X137061258Y-99216306D02*
X136586742Y-99216306D01*
X152461258Y-108261307D02*
X151986742Y-108261307D01*
X152461258Y-107216307D02*
X151986742Y-107216307D01*
%LPC*%
D15*
X131554001Y-53918154D03*
D16*
X156234000Y-99015300D03*
D17*
X156234000Y-101555300D03*
X156234000Y-104095300D03*
D15*
X173554000Y-110918153D03*
D18*
X168268000Y-103613300D03*
X162268000Y-89413300D03*
X174268000Y-89413300D03*
X174268000Y-101613300D03*
X162268000Y-101613300D03*
D19*
X152932000Y-58121300D03*
D20*
X147852000Y-58121300D03*
X142772000Y-58121300D03*
D16*
X132358000Y-105619300D03*
D17*
X132358000Y-103079300D03*
X132358000Y-100539300D03*
X132358000Y-97999300D03*
X132358000Y-95459300D03*
X132358000Y-92919300D03*
D19*
X166145000Y-58070300D03*
D20*
X161065000Y-58070300D03*
D21*
X168934000Y-82131300D03*
X168934000Y-67131300D03*
D22*
X161652500Y-77131300D03*
D23*
X161652500Y-72131300D03*
X132252500Y-82331300D03*
X132252500Y-66931300D03*
D15*
X131554001Y-110918154D03*
X173553999Y-53918154D03*
D24*
X153049000Y-103738805D03*
X151399000Y-103738805D03*
X153049000Y-111738804D03*
X151399000Y-111738804D03*
X137649000Y-99738806D03*
X135999000Y-99738806D03*
X153049000Y-107738807D03*
X151399000Y-107738807D03*
%LPD*%
M02*
