M48
; DRILL file {KiCad 7.0.8} date Tue May  7 16:41:32 2024
; FORMAT={-:-/ absolute / metric / decimal}
; #@! TF.CreationDate,2024-05-07T16:41:32-03:00
; #@! TF.GenerationSoftware,Kicad,Pcbnew,7.0.8
; #@! TF.FileFunction,Plated,1,2,PTH
FMAT,2
METRIC
; #@! TA.AperFunction,Plated,PTH,ViaDrill
T1C0.400
; #@! TA.AperFunction,Plated,PTH,ComponentDrill
T2C1.000
; #@! TA.AperFunction,Plated,PTH,ComponentDrill
T3C1.200
; #@! TA.AperFunction,Plated,PTH,ComponentDrill
T4C1.300
%
G90
G05
T1
X132.252Y-80.01
X134.644Y-59.137
X139.063Y-98.277
X139.063Y-99.739
X139.063Y-103.739
X139.063Y-109.739
X139.063Y-111.739
X144.018Y-89.109
X149.985Y-101.739
X149.985Y-99.739
X149.985Y-103.739
X149.985Y-107.739
X149.985Y-111.739
X150.495Y-91.663
X154.456Y-109.175
X155.194Y-94.742
X158.068Y-85.471
X158.774Y-111.715
X164.108Y-106.889
X170.204Y-111.715
T2
X132.252Y-66.931
X132.252Y-82.331
X132.358Y-92.919
X132.358Y-95.459
X132.358Y-97.999
X132.358Y-100.539
X132.358Y-103.079
X132.358Y-105.619
X156.234Y-99.015
X156.234Y-101.555
X156.234Y-104.095
X161.653Y-72.131
X161.653Y-77.131
T3
X168.934Y-67.131
X168.934Y-82.131
T4
X142.772Y-58.121
X147.852Y-58.121
X152.932Y-58.121
X161.065Y-58.07
X162.268Y-89.413
X162.268Y-101.613
X166.145Y-58.07
X168.268Y-103.613
X174.268Y-89.413
X174.268Y-101.613
T0
M30
