%TF.GenerationSoftware,KiCad,Pcbnew,7.0.8*%
%TF.CreationDate,2024-05-09T20:35:53-03:00*%
%TF.ProjectId,lamp_module_x1,6c616d70-5f6d-46f6-9475-6c655f78312e,1.1*%
%TF.SameCoordinates,Original*%
%TF.FileFunction,Drillmap*%
%TF.FilePolarity,Positive*%
%FSLAX45Y45*%
G04 Gerber Fmt 4.5, Leading zero omitted, Abs format (unit mm)*
G04 Created by KiCad (PCBNEW 7.0.8) date 2024-05-09 20:35:53*
%MOMM*%
%LPD*%
G01*
G04 APERTURE LIST*
%ADD10C,0.200000*%
%ADD11C,0.040000*%
%ADD12C,0.090000*%
%ADD13C,0.100000*%
%ADD14C,0.120000*%
%ADD15C,0.130000*%
G04 APERTURE END LIST*
D10*
X13178400Y-5091815D02*
X17355903Y-5091815D01*
X12855467Y-11092693D02*
G75*
G03*
X13178400Y-11391815I300003J3D01*
G01*
X12855467Y-11092693D02*
X12855024Y-5374394D01*
X17655392Y-5374445D02*
G75*
G03*
X17355903Y-5091815I-299492J-17365D01*
G01*
X13178400Y-5091809D02*
G75*
G03*
X12855025Y-5374394I-22991J-300011D01*
G01*
X13178400Y-11391815D02*
X17355400Y-11391815D01*
X17655400Y-5374445D02*
X17655400Y-11091815D01*
X17355400Y-11391820D02*
G75*
G03*
X17655400Y-11091815I0J300000D01*
G01*
D11*
X13444400Y-5893730D02*
X13484400Y-5933730D01*
X13484400Y-5893730D02*
X13444400Y-5933730D01*
X13886300Y-9807680D02*
X13926300Y-9847680D01*
X13926300Y-9807680D02*
X13886300Y-9847680D01*
X13886300Y-9953881D02*
X13926300Y-9993881D01*
X13926300Y-9953881D02*
X13886300Y-9993881D01*
X13886300Y-10353880D02*
X13926300Y-10393880D01*
X13926300Y-10353880D02*
X13886300Y-10393880D01*
X13886300Y-10953880D02*
X13926300Y-10993880D01*
X13926300Y-10953880D02*
X13886300Y-10993880D01*
X13886300Y-11153880D02*
X13926300Y-11193880D01*
X13926300Y-11153880D02*
X13886300Y-11193880D01*
X14381800Y-8890930D02*
X14421800Y-8930930D01*
X14421800Y-8890930D02*
X14381800Y-8930930D01*
X14978500Y-10153880D02*
X15018500Y-10193880D01*
X15018500Y-10153880D02*
X14978500Y-10193880D01*
X14978500Y-10353880D02*
X15018500Y-10393880D01*
X15018500Y-10353880D02*
X14978500Y-10393880D01*
X14978500Y-10753881D02*
X15018500Y-10793881D01*
X15018500Y-10753881D02*
X14978500Y-10793881D01*
X14978500Y-11153880D02*
X15018500Y-11193880D01*
X15018500Y-11153880D02*
X14978500Y-11193880D01*
X15029500Y-9146330D02*
X15069500Y-9186330D01*
X15069500Y-9146330D02*
X15029500Y-9186330D01*
X15425600Y-10897530D02*
X15465600Y-10937530D01*
X15465600Y-10897530D02*
X15425600Y-10937530D01*
X15499400Y-9454200D02*
X15539400Y-9494200D01*
X15539400Y-9454200D02*
X15499400Y-9494200D01*
X15786800Y-8527100D02*
X15826800Y-8567100D01*
X15826800Y-8527100D02*
X15786800Y-8567100D01*
X15857400Y-11151530D02*
X15897400Y-11191530D01*
X15897400Y-11151530D02*
X15857400Y-11191530D01*
X16390800Y-10668930D02*
X16430800Y-10708930D01*
X16430800Y-10668930D02*
X16390800Y-10708930D01*
X17000400Y-11151530D02*
X17040400Y-11191530D01*
X17040400Y-11151530D02*
X17000400Y-11191530D01*
D12*
X16965400Y-5896000D02*
G75*
G03*
X16965400Y-5896000I-45000J0D01*
G01*
X16965400Y-6096000D02*
G75*
G03*
X16965400Y-6096000I-45000J0D01*
G01*
X16965400Y-6296000D02*
G75*
G03*
X16965400Y-6296000I-45000J0D01*
G01*
X17465400Y-5896000D02*
G75*
G03*
X17465400Y-5896000I-45000J0D01*
G01*
X17465400Y-6096000D02*
G75*
G03*
X17465400Y-6096000I-45000J0D01*
G01*
X17465400Y-6296000D02*
G75*
G03*
X17465400Y-6296000I-45000J0D01*
G01*
D13*
X13208000Y-9246400D02*
X13208000Y-9346400D01*
X13158000Y-9296400D02*
X13258000Y-9296400D01*
X13208000Y-9500400D02*
X13208000Y-9600400D01*
X13158000Y-9550400D02*
X13258000Y-9550400D01*
X13208000Y-9754400D02*
X13208000Y-9854400D01*
X13158000Y-9804400D02*
X13258000Y-9804400D01*
X13208000Y-10008400D02*
X13208000Y-10108400D01*
X13158000Y-10058400D02*
X13258000Y-10058400D01*
X13208000Y-10262400D02*
X13208000Y-10362400D01*
X13158000Y-10312400D02*
X13258000Y-10312400D01*
X13208000Y-10516400D02*
X13208000Y-10616400D01*
X13158000Y-10566400D02*
X13258000Y-10566400D01*
X13225250Y-6643130D02*
X13225250Y-6743130D01*
X13175250Y-6693130D02*
X13275250Y-6693130D01*
X13225250Y-8183130D02*
X13225250Y-8283130D01*
X13175250Y-8233130D02*
X13275250Y-8233130D01*
X15623400Y-9851530D02*
X15623400Y-9951530D01*
X15573400Y-9901530D02*
X15673400Y-9901530D01*
X15623400Y-10105530D02*
X15623400Y-10205530D01*
X15573400Y-10155530D02*
X15673400Y-10155530D01*
X15623400Y-10359530D02*
X15623400Y-10459530D01*
X15573400Y-10409530D02*
X15673400Y-10409530D01*
X16165250Y-7163130D02*
X16165250Y-7263130D01*
X16115250Y-7213130D02*
X16215250Y-7213130D01*
X16165250Y-7663130D02*
X16165250Y-7763130D01*
X16115250Y-7713130D02*
X16215250Y-7713130D01*
D14*
X16935827Y-6755557D02*
X16935827Y-6670703D01*
X16850973Y-6670703D01*
X16850973Y-6755557D01*
X16935827Y-6755557D01*
X16935827Y-8255557D02*
X16935827Y-8170703D01*
X16850973Y-8170703D01*
X16850973Y-8255557D01*
X16935827Y-8255557D01*
D15*
X14071600Y-5877130D02*
X14136600Y-5812130D01*
X14071600Y-5747130D01*
X14006600Y-5812130D01*
X14071600Y-5877130D01*
X14579600Y-5877130D02*
X14644600Y-5812130D01*
X14579600Y-5747130D01*
X14514600Y-5812130D01*
X14579600Y-5877130D01*
X15087600Y-5877130D02*
X15152600Y-5812130D01*
X15087600Y-5747130D01*
X15022600Y-5812130D01*
X15087600Y-5877130D01*
X15900400Y-5877130D02*
X15965400Y-5812130D01*
X15900400Y-5747130D01*
X15835400Y-5812130D01*
X15900400Y-5877130D01*
X16226800Y-9006330D02*
X16291800Y-8941330D01*
X16226800Y-8876330D01*
X16161800Y-8941330D01*
X16226800Y-9006330D01*
X16226800Y-10226330D02*
X16291800Y-10161330D01*
X16226800Y-10096330D01*
X16161800Y-10161330D01*
X16226800Y-10226330D01*
X16408400Y-5877130D02*
X16473400Y-5812130D01*
X16408400Y-5747130D01*
X16343400Y-5812130D01*
X16408400Y-5877130D01*
X16826800Y-10426330D02*
X16891800Y-10361330D01*
X16826800Y-10296330D01*
X16761800Y-10361330D01*
X16826800Y-10426330D01*
X17426800Y-9006330D02*
X17491800Y-8941330D01*
X17426800Y-8876330D01*
X17361800Y-8941330D01*
X17426800Y-9006330D01*
X17426800Y-10226330D02*
X17491800Y-10161330D01*
X17426800Y-10096330D01*
X17361800Y-10161330D01*
X17426800Y-10226330D01*
D10*
X13105801Y-11714177D02*
X13105801Y-11514177D01*
X13105801Y-11514177D02*
X13153420Y-11514177D01*
X13153420Y-11514177D02*
X13181992Y-11523701D01*
X13181992Y-11523701D02*
X13201039Y-11542748D01*
X13201039Y-11542748D02*
X13210563Y-11561796D01*
X13210563Y-11561796D02*
X13220087Y-11599891D01*
X13220087Y-11599891D02*
X13220087Y-11628462D01*
X13220087Y-11628462D02*
X13210563Y-11666558D01*
X13210563Y-11666558D02*
X13201039Y-11685605D01*
X13201039Y-11685605D02*
X13181992Y-11704653D01*
X13181992Y-11704653D02*
X13153420Y-11714177D01*
X13153420Y-11714177D02*
X13105801Y-11714177D01*
X13305801Y-11714177D02*
X13305801Y-11580843D01*
X13305801Y-11618939D02*
X13315325Y-11599891D01*
X13315325Y-11599891D02*
X13324849Y-11590367D01*
X13324849Y-11590367D02*
X13343896Y-11580843D01*
X13343896Y-11580843D02*
X13362944Y-11580843D01*
X13429611Y-11714177D02*
X13429611Y-11580843D01*
X13429611Y-11514177D02*
X13420087Y-11523701D01*
X13420087Y-11523701D02*
X13429611Y-11533224D01*
X13429611Y-11533224D02*
X13439135Y-11523701D01*
X13439135Y-11523701D02*
X13429611Y-11514177D01*
X13429611Y-11514177D02*
X13429611Y-11533224D01*
X13553420Y-11714177D02*
X13534373Y-11704653D01*
X13534373Y-11704653D02*
X13524849Y-11685605D01*
X13524849Y-11685605D02*
X13524849Y-11514177D01*
X13658182Y-11714177D02*
X13639135Y-11704653D01*
X13639135Y-11704653D02*
X13629611Y-11685605D01*
X13629611Y-11685605D02*
X13629611Y-11514177D01*
X13886754Y-11714177D02*
X13886754Y-11514177D01*
X13886754Y-11514177D02*
X13953420Y-11657034D01*
X13953420Y-11657034D02*
X14020087Y-11514177D01*
X14020087Y-11514177D02*
X14020087Y-11714177D01*
X14201039Y-11714177D02*
X14201039Y-11609415D01*
X14201039Y-11609415D02*
X14191516Y-11590367D01*
X14191516Y-11590367D02*
X14172468Y-11580843D01*
X14172468Y-11580843D02*
X14134373Y-11580843D01*
X14134373Y-11580843D02*
X14115325Y-11590367D01*
X14201039Y-11704653D02*
X14181992Y-11714177D01*
X14181992Y-11714177D02*
X14134373Y-11714177D01*
X14134373Y-11714177D02*
X14115325Y-11704653D01*
X14115325Y-11704653D02*
X14105801Y-11685605D01*
X14105801Y-11685605D02*
X14105801Y-11666558D01*
X14105801Y-11666558D02*
X14115325Y-11647510D01*
X14115325Y-11647510D02*
X14134373Y-11637986D01*
X14134373Y-11637986D02*
X14181992Y-11637986D01*
X14181992Y-11637986D02*
X14201039Y-11628462D01*
X14296277Y-11580843D02*
X14296277Y-11780843D01*
X14296277Y-11590367D02*
X14315325Y-11580843D01*
X14315325Y-11580843D02*
X14353420Y-11580843D01*
X14353420Y-11580843D02*
X14372468Y-11590367D01*
X14372468Y-11590367D02*
X14381992Y-11599891D01*
X14381992Y-11599891D02*
X14391516Y-11618939D01*
X14391516Y-11618939D02*
X14391516Y-11676081D01*
X14391516Y-11676081D02*
X14381992Y-11695129D01*
X14381992Y-11695129D02*
X14372468Y-11704653D01*
X14372468Y-11704653D02*
X14353420Y-11714177D01*
X14353420Y-11714177D02*
X14315325Y-11714177D01*
X14315325Y-11714177D02*
X14296277Y-11704653D01*
X14477230Y-11695129D02*
X14486754Y-11704653D01*
X14486754Y-11704653D02*
X14477230Y-11714177D01*
X14477230Y-11714177D02*
X14467706Y-11704653D01*
X14467706Y-11704653D02*
X14477230Y-11695129D01*
X14477230Y-11695129D02*
X14477230Y-11714177D01*
X14477230Y-11590367D02*
X14486754Y-11599891D01*
X14486754Y-11599891D02*
X14477230Y-11609415D01*
X14477230Y-11609415D02*
X14467706Y-11599891D01*
X14467706Y-11599891D02*
X14477230Y-11590367D01*
X14477230Y-11590367D02*
X14477230Y-11609415D01*
D11*
X12805024Y-12022693D02*
X12845024Y-12062693D01*
X12845024Y-12022693D02*
X12805024Y-12062693D01*
D10*
X13143896Y-11934177D02*
X13162944Y-11934177D01*
X13162944Y-11934177D02*
X13181992Y-11943701D01*
X13181992Y-11943701D02*
X13191516Y-11953224D01*
X13191516Y-11953224D02*
X13201039Y-11972272D01*
X13201039Y-11972272D02*
X13210563Y-12010367D01*
X13210563Y-12010367D02*
X13210563Y-12057986D01*
X13210563Y-12057986D02*
X13201039Y-12096081D01*
X13201039Y-12096081D02*
X13191516Y-12115129D01*
X13191516Y-12115129D02*
X13181992Y-12124653D01*
X13181992Y-12124653D02*
X13162944Y-12134177D01*
X13162944Y-12134177D02*
X13143896Y-12134177D01*
X13143896Y-12134177D02*
X13124849Y-12124653D01*
X13124849Y-12124653D02*
X13115325Y-12115129D01*
X13115325Y-12115129D02*
X13105801Y-12096081D01*
X13105801Y-12096081D02*
X13096277Y-12057986D01*
X13096277Y-12057986D02*
X13096277Y-12010367D01*
X13096277Y-12010367D02*
X13105801Y-11972272D01*
X13105801Y-11972272D02*
X13115325Y-11953224D01*
X13115325Y-11953224D02*
X13124849Y-11943701D01*
X13124849Y-11943701D02*
X13143896Y-11934177D01*
X13296277Y-12115129D02*
X13305801Y-12124653D01*
X13305801Y-12124653D02*
X13296277Y-12134177D01*
X13296277Y-12134177D02*
X13286754Y-12124653D01*
X13286754Y-12124653D02*
X13296277Y-12115129D01*
X13296277Y-12115129D02*
X13296277Y-12134177D01*
X13477230Y-12000843D02*
X13477230Y-12134177D01*
X13429611Y-11924653D02*
X13381992Y-12067510D01*
X13381992Y-12067510D02*
X13505801Y-12067510D01*
X13620087Y-11934177D02*
X13639135Y-11934177D01*
X13639135Y-11934177D02*
X13658182Y-11943701D01*
X13658182Y-11943701D02*
X13667706Y-11953224D01*
X13667706Y-11953224D02*
X13677230Y-11972272D01*
X13677230Y-11972272D02*
X13686754Y-12010367D01*
X13686754Y-12010367D02*
X13686754Y-12057986D01*
X13686754Y-12057986D02*
X13677230Y-12096081D01*
X13677230Y-12096081D02*
X13667706Y-12115129D01*
X13667706Y-12115129D02*
X13658182Y-12124653D01*
X13658182Y-12124653D02*
X13639135Y-12134177D01*
X13639135Y-12134177D02*
X13620087Y-12134177D01*
X13620087Y-12134177D02*
X13601039Y-12124653D01*
X13601039Y-12124653D02*
X13591516Y-12115129D01*
X13591516Y-12115129D02*
X13581992Y-12096081D01*
X13581992Y-12096081D02*
X13572468Y-12057986D01*
X13572468Y-12057986D02*
X13572468Y-12010367D01*
X13572468Y-12010367D02*
X13581992Y-11972272D01*
X13581992Y-11972272D02*
X13591516Y-11953224D01*
X13591516Y-11953224D02*
X13601039Y-11943701D01*
X13601039Y-11943701D02*
X13620087Y-11934177D01*
X13810563Y-11934177D02*
X13829611Y-11934177D01*
X13829611Y-11934177D02*
X13848658Y-11943701D01*
X13848658Y-11943701D02*
X13858182Y-11953224D01*
X13858182Y-11953224D02*
X13867706Y-11972272D01*
X13867706Y-11972272D02*
X13877230Y-12010367D01*
X13877230Y-12010367D02*
X13877230Y-12057986D01*
X13877230Y-12057986D02*
X13867706Y-12096081D01*
X13867706Y-12096081D02*
X13858182Y-12115129D01*
X13858182Y-12115129D02*
X13848658Y-12124653D01*
X13848658Y-12124653D02*
X13829611Y-12134177D01*
X13829611Y-12134177D02*
X13810563Y-12134177D01*
X13810563Y-12134177D02*
X13791516Y-12124653D01*
X13791516Y-12124653D02*
X13781992Y-12115129D01*
X13781992Y-12115129D02*
X13772468Y-12096081D01*
X13772468Y-12096081D02*
X13762944Y-12057986D01*
X13762944Y-12057986D02*
X13762944Y-12010367D01*
X13762944Y-12010367D02*
X13772468Y-11972272D01*
X13772468Y-11972272D02*
X13781992Y-11953224D01*
X13781992Y-11953224D02*
X13791516Y-11943701D01*
X13791516Y-11943701D02*
X13810563Y-11934177D01*
X13962944Y-12134177D02*
X13962944Y-12000843D01*
X13962944Y-12019891D02*
X13972468Y-12010367D01*
X13972468Y-12010367D02*
X13991516Y-12000843D01*
X13991516Y-12000843D02*
X14020087Y-12000843D01*
X14020087Y-12000843D02*
X14039135Y-12010367D01*
X14039135Y-12010367D02*
X14048658Y-12029415D01*
X14048658Y-12029415D02*
X14048658Y-12134177D01*
X14048658Y-12029415D02*
X14058182Y-12010367D01*
X14058182Y-12010367D02*
X14077230Y-12000843D01*
X14077230Y-12000843D02*
X14105801Y-12000843D01*
X14105801Y-12000843D02*
X14124849Y-12010367D01*
X14124849Y-12010367D02*
X14134373Y-12029415D01*
X14134373Y-12029415D02*
X14134373Y-12134177D01*
X14229611Y-12134177D02*
X14229611Y-12000843D01*
X14229611Y-12019891D02*
X14239135Y-12010367D01*
X14239135Y-12010367D02*
X14258182Y-12000843D01*
X14258182Y-12000843D02*
X14286754Y-12000843D01*
X14286754Y-12000843D02*
X14305801Y-12010367D01*
X14305801Y-12010367D02*
X14315325Y-12029415D01*
X14315325Y-12029415D02*
X14315325Y-12134177D01*
X14315325Y-12029415D02*
X14324849Y-12010367D01*
X14324849Y-12010367D02*
X14343897Y-12000843D01*
X14343897Y-12000843D02*
X14372468Y-12000843D01*
X14372468Y-12000843D02*
X14391516Y-12010367D01*
X14391516Y-12010367D02*
X14401039Y-12029415D01*
X14401039Y-12029415D02*
X14401039Y-12134177D01*
X14791516Y-11924653D02*
X14620087Y-12181796D01*
X15048659Y-11934177D02*
X15067706Y-11934177D01*
X15067706Y-11934177D02*
X15086754Y-11943701D01*
X15086754Y-11943701D02*
X15096278Y-11953224D01*
X15096278Y-11953224D02*
X15105801Y-11972272D01*
X15105801Y-11972272D02*
X15115325Y-12010367D01*
X15115325Y-12010367D02*
X15115325Y-12057986D01*
X15115325Y-12057986D02*
X15105801Y-12096081D01*
X15105801Y-12096081D02*
X15096278Y-12115129D01*
X15096278Y-12115129D02*
X15086754Y-12124653D01*
X15086754Y-12124653D02*
X15067706Y-12134177D01*
X15067706Y-12134177D02*
X15048659Y-12134177D01*
X15048659Y-12134177D02*
X15029611Y-12124653D01*
X15029611Y-12124653D02*
X15020087Y-12115129D01*
X15020087Y-12115129D02*
X15010563Y-12096081D01*
X15010563Y-12096081D02*
X15001040Y-12057986D01*
X15001040Y-12057986D02*
X15001040Y-12010367D01*
X15001040Y-12010367D02*
X15010563Y-11972272D01*
X15010563Y-11972272D02*
X15020087Y-11953224D01*
X15020087Y-11953224D02*
X15029611Y-11943701D01*
X15029611Y-11943701D02*
X15048659Y-11934177D01*
X15201040Y-12115129D02*
X15210563Y-12124653D01*
X15210563Y-12124653D02*
X15201040Y-12134177D01*
X15201040Y-12134177D02*
X15191516Y-12124653D01*
X15191516Y-12124653D02*
X15201040Y-12115129D01*
X15201040Y-12115129D02*
X15201040Y-12134177D01*
X15334373Y-11934177D02*
X15353421Y-11934177D01*
X15353421Y-11934177D02*
X15372468Y-11943701D01*
X15372468Y-11943701D02*
X15381992Y-11953224D01*
X15381992Y-11953224D02*
X15391516Y-11972272D01*
X15391516Y-11972272D02*
X15401040Y-12010367D01*
X15401040Y-12010367D02*
X15401040Y-12057986D01*
X15401040Y-12057986D02*
X15391516Y-12096081D01*
X15391516Y-12096081D02*
X15381992Y-12115129D01*
X15381992Y-12115129D02*
X15372468Y-12124653D01*
X15372468Y-12124653D02*
X15353421Y-12134177D01*
X15353421Y-12134177D02*
X15334373Y-12134177D01*
X15334373Y-12134177D02*
X15315325Y-12124653D01*
X15315325Y-12124653D02*
X15305801Y-12115129D01*
X15305801Y-12115129D02*
X15296278Y-12096081D01*
X15296278Y-12096081D02*
X15286754Y-12057986D01*
X15286754Y-12057986D02*
X15286754Y-12010367D01*
X15286754Y-12010367D02*
X15296278Y-11972272D01*
X15296278Y-11972272D02*
X15305801Y-11953224D01*
X15305801Y-11953224D02*
X15315325Y-11943701D01*
X15315325Y-11943701D02*
X15334373Y-11934177D01*
X15591516Y-12134177D02*
X15477230Y-12134177D01*
X15534373Y-12134177D02*
X15534373Y-11934177D01*
X15534373Y-11934177D02*
X15515325Y-11962748D01*
X15515325Y-11962748D02*
X15496278Y-11981796D01*
X15496278Y-11981796D02*
X15477230Y-11991320D01*
X15772468Y-11934177D02*
X15677230Y-11934177D01*
X15677230Y-11934177D02*
X15667706Y-12029415D01*
X15667706Y-12029415D02*
X15677230Y-12019891D01*
X15677230Y-12019891D02*
X15696278Y-12010367D01*
X15696278Y-12010367D02*
X15743897Y-12010367D01*
X15743897Y-12010367D02*
X15762944Y-12019891D01*
X15762944Y-12019891D02*
X15772468Y-12029415D01*
X15772468Y-12029415D02*
X15781992Y-12048462D01*
X15781992Y-12048462D02*
X15781992Y-12096081D01*
X15781992Y-12096081D02*
X15772468Y-12115129D01*
X15772468Y-12115129D02*
X15762944Y-12124653D01*
X15762944Y-12124653D02*
X15743897Y-12134177D01*
X15743897Y-12134177D02*
X15696278Y-12134177D01*
X15696278Y-12134177D02*
X15677230Y-12124653D01*
X15677230Y-12124653D02*
X15667706Y-12115129D01*
X15848659Y-11934177D02*
X15981992Y-11934177D01*
X15981992Y-11934177D02*
X15896278Y-12134177D01*
X16048659Y-11934177D02*
X16048659Y-11972272D01*
X16124849Y-11934177D02*
X16124849Y-11972272D01*
X16420087Y-12210367D02*
X16410563Y-12200843D01*
X16410563Y-12200843D02*
X16391516Y-12172272D01*
X16391516Y-12172272D02*
X16381992Y-12153224D01*
X16381992Y-12153224D02*
X16372468Y-12124653D01*
X16372468Y-12124653D02*
X16362944Y-12077034D01*
X16362944Y-12077034D02*
X16362944Y-12038939D01*
X16362944Y-12038939D02*
X16372468Y-11991320D01*
X16372468Y-11991320D02*
X16381992Y-11962748D01*
X16381992Y-11962748D02*
X16391516Y-11943701D01*
X16391516Y-11943701D02*
X16410563Y-11915129D01*
X16410563Y-11915129D02*
X16420087Y-11905605D01*
X16601040Y-12134177D02*
X16486754Y-12134177D01*
X16543897Y-12134177D02*
X16543897Y-11934177D01*
X16543897Y-11934177D02*
X16524849Y-11962748D01*
X16524849Y-11962748D02*
X16505802Y-11981796D01*
X16505802Y-11981796D02*
X16486754Y-11991320D01*
X16715325Y-12019891D02*
X16696278Y-12010367D01*
X16696278Y-12010367D02*
X16686754Y-12000843D01*
X16686754Y-12000843D02*
X16677230Y-11981796D01*
X16677230Y-11981796D02*
X16677230Y-11972272D01*
X16677230Y-11972272D02*
X16686754Y-11953224D01*
X16686754Y-11953224D02*
X16696278Y-11943701D01*
X16696278Y-11943701D02*
X16715325Y-11934177D01*
X16715325Y-11934177D02*
X16753421Y-11934177D01*
X16753421Y-11934177D02*
X16772468Y-11943701D01*
X16772468Y-11943701D02*
X16781992Y-11953224D01*
X16781992Y-11953224D02*
X16791516Y-11972272D01*
X16791516Y-11972272D02*
X16791516Y-11981796D01*
X16791516Y-11981796D02*
X16781992Y-12000843D01*
X16781992Y-12000843D02*
X16772468Y-12010367D01*
X16772468Y-12010367D02*
X16753421Y-12019891D01*
X16753421Y-12019891D02*
X16715325Y-12019891D01*
X16715325Y-12019891D02*
X16696278Y-12029415D01*
X16696278Y-12029415D02*
X16686754Y-12038939D01*
X16686754Y-12038939D02*
X16677230Y-12057986D01*
X16677230Y-12057986D02*
X16677230Y-12096081D01*
X16677230Y-12096081D02*
X16686754Y-12115129D01*
X16686754Y-12115129D02*
X16696278Y-12124653D01*
X16696278Y-12124653D02*
X16715325Y-12134177D01*
X16715325Y-12134177D02*
X16753421Y-12134177D01*
X16753421Y-12134177D02*
X16772468Y-12124653D01*
X16772468Y-12124653D02*
X16781992Y-12115129D01*
X16781992Y-12115129D02*
X16791516Y-12096081D01*
X16791516Y-12096081D02*
X16791516Y-12057986D01*
X16791516Y-12057986D02*
X16781992Y-12038939D01*
X16781992Y-12038939D02*
X16772468Y-12029415D01*
X16772468Y-12029415D02*
X16753421Y-12019891D01*
X17029611Y-12134177D02*
X17029611Y-11934177D01*
X17115326Y-12134177D02*
X17115326Y-12029415D01*
X17115326Y-12029415D02*
X17105802Y-12010367D01*
X17105802Y-12010367D02*
X17086754Y-12000843D01*
X17086754Y-12000843D02*
X17058183Y-12000843D01*
X17058183Y-12000843D02*
X17039135Y-12010367D01*
X17039135Y-12010367D02*
X17029611Y-12019891D01*
X17239135Y-12134177D02*
X17220087Y-12124653D01*
X17220087Y-12124653D02*
X17210564Y-12115129D01*
X17210564Y-12115129D02*
X17201040Y-12096081D01*
X17201040Y-12096081D02*
X17201040Y-12038939D01*
X17201040Y-12038939D02*
X17210564Y-12019891D01*
X17210564Y-12019891D02*
X17220087Y-12010367D01*
X17220087Y-12010367D02*
X17239135Y-12000843D01*
X17239135Y-12000843D02*
X17267707Y-12000843D01*
X17267707Y-12000843D02*
X17286754Y-12010367D01*
X17286754Y-12010367D02*
X17296278Y-12019891D01*
X17296278Y-12019891D02*
X17305802Y-12038939D01*
X17305802Y-12038939D02*
X17305802Y-12096081D01*
X17305802Y-12096081D02*
X17296278Y-12115129D01*
X17296278Y-12115129D02*
X17286754Y-12124653D01*
X17286754Y-12124653D02*
X17267707Y-12134177D01*
X17267707Y-12134177D02*
X17239135Y-12134177D01*
X17420087Y-12134177D02*
X17401040Y-12124653D01*
X17401040Y-12124653D02*
X17391516Y-12105605D01*
X17391516Y-12105605D02*
X17391516Y-11934177D01*
X17572468Y-12124653D02*
X17553421Y-12134177D01*
X17553421Y-12134177D02*
X17515326Y-12134177D01*
X17515326Y-12134177D02*
X17496278Y-12124653D01*
X17496278Y-12124653D02*
X17486754Y-12105605D01*
X17486754Y-12105605D02*
X17486754Y-12029415D01*
X17486754Y-12029415D02*
X17496278Y-12010367D01*
X17496278Y-12010367D02*
X17515326Y-12000843D01*
X17515326Y-12000843D02*
X17553421Y-12000843D01*
X17553421Y-12000843D02*
X17572468Y-12010367D01*
X17572468Y-12010367D02*
X17581992Y-12029415D01*
X17581992Y-12029415D02*
X17581992Y-12048462D01*
X17581992Y-12048462D02*
X17486754Y-12067510D01*
X17658183Y-12124653D02*
X17677230Y-12134177D01*
X17677230Y-12134177D02*
X17715326Y-12134177D01*
X17715326Y-12134177D02*
X17734373Y-12124653D01*
X17734373Y-12124653D02*
X17743897Y-12105605D01*
X17743897Y-12105605D02*
X17743897Y-12096081D01*
X17743897Y-12096081D02*
X17734373Y-12077034D01*
X17734373Y-12077034D02*
X17715326Y-12067510D01*
X17715326Y-12067510D02*
X17686754Y-12067510D01*
X17686754Y-12067510D02*
X17667707Y-12057986D01*
X17667707Y-12057986D02*
X17658183Y-12038939D01*
X17658183Y-12038939D02*
X17658183Y-12029415D01*
X17658183Y-12029415D02*
X17667707Y-12010367D01*
X17667707Y-12010367D02*
X17686754Y-12000843D01*
X17686754Y-12000843D02*
X17715326Y-12000843D01*
X17715326Y-12000843D02*
X17734373Y-12010367D01*
X17810564Y-12210367D02*
X17820088Y-12200843D01*
X17820088Y-12200843D02*
X17839135Y-12172272D01*
X17839135Y-12172272D02*
X17848659Y-12153224D01*
X17848659Y-12153224D02*
X17858183Y-12124653D01*
X17858183Y-12124653D02*
X17867707Y-12077034D01*
X17867707Y-12077034D02*
X17867707Y-12038939D01*
X17867707Y-12038939D02*
X17858183Y-11991320D01*
X17858183Y-11991320D02*
X17848659Y-11962748D01*
X17848659Y-11962748D02*
X17839135Y-11943701D01*
X17839135Y-11943701D02*
X17820088Y-11915129D01*
X17820088Y-11915129D02*
X17810564Y-11905605D01*
D12*
X12845024Y-12306693D02*
G75*
G03*
X12845024Y-12306693I-45000J0D01*
G01*
D10*
X13143896Y-12198177D02*
X13162944Y-12198177D01*
X13162944Y-12198177D02*
X13181992Y-12207701D01*
X13181992Y-12207701D02*
X13191516Y-12217224D01*
X13191516Y-12217224D02*
X13201039Y-12236272D01*
X13201039Y-12236272D02*
X13210563Y-12274367D01*
X13210563Y-12274367D02*
X13210563Y-12321986D01*
X13210563Y-12321986D02*
X13201039Y-12360081D01*
X13201039Y-12360081D02*
X13191516Y-12379129D01*
X13191516Y-12379129D02*
X13181992Y-12388653D01*
X13181992Y-12388653D02*
X13162944Y-12398177D01*
X13162944Y-12398177D02*
X13143896Y-12398177D01*
X13143896Y-12398177D02*
X13124849Y-12388653D01*
X13124849Y-12388653D02*
X13115325Y-12379129D01*
X13115325Y-12379129D02*
X13105801Y-12360081D01*
X13105801Y-12360081D02*
X13096277Y-12321986D01*
X13096277Y-12321986D02*
X13096277Y-12274367D01*
X13096277Y-12274367D02*
X13105801Y-12236272D01*
X13105801Y-12236272D02*
X13115325Y-12217224D01*
X13115325Y-12217224D02*
X13124849Y-12207701D01*
X13124849Y-12207701D02*
X13143896Y-12198177D01*
X13296277Y-12379129D02*
X13305801Y-12388653D01*
X13305801Y-12388653D02*
X13296277Y-12398177D01*
X13296277Y-12398177D02*
X13286754Y-12388653D01*
X13286754Y-12388653D02*
X13296277Y-12379129D01*
X13296277Y-12379129D02*
X13296277Y-12398177D01*
X13401039Y-12398177D02*
X13439135Y-12398177D01*
X13439135Y-12398177D02*
X13458182Y-12388653D01*
X13458182Y-12388653D02*
X13467706Y-12379129D01*
X13467706Y-12379129D02*
X13486754Y-12350558D01*
X13486754Y-12350558D02*
X13496277Y-12312462D01*
X13496277Y-12312462D02*
X13496277Y-12236272D01*
X13496277Y-12236272D02*
X13486754Y-12217224D01*
X13486754Y-12217224D02*
X13477230Y-12207701D01*
X13477230Y-12207701D02*
X13458182Y-12198177D01*
X13458182Y-12198177D02*
X13420087Y-12198177D01*
X13420087Y-12198177D02*
X13401039Y-12207701D01*
X13401039Y-12207701D02*
X13391516Y-12217224D01*
X13391516Y-12217224D02*
X13381992Y-12236272D01*
X13381992Y-12236272D02*
X13381992Y-12283891D01*
X13381992Y-12283891D02*
X13391516Y-12302939D01*
X13391516Y-12302939D02*
X13401039Y-12312462D01*
X13401039Y-12312462D02*
X13420087Y-12321986D01*
X13420087Y-12321986D02*
X13458182Y-12321986D01*
X13458182Y-12321986D02*
X13477230Y-12312462D01*
X13477230Y-12312462D02*
X13486754Y-12302939D01*
X13486754Y-12302939D02*
X13496277Y-12283891D01*
X13620087Y-12198177D02*
X13639135Y-12198177D01*
X13639135Y-12198177D02*
X13658182Y-12207701D01*
X13658182Y-12207701D02*
X13667706Y-12217224D01*
X13667706Y-12217224D02*
X13677230Y-12236272D01*
X13677230Y-12236272D02*
X13686754Y-12274367D01*
X13686754Y-12274367D02*
X13686754Y-12321986D01*
X13686754Y-12321986D02*
X13677230Y-12360081D01*
X13677230Y-12360081D02*
X13667706Y-12379129D01*
X13667706Y-12379129D02*
X13658182Y-12388653D01*
X13658182Y-12388653D02*
X13639135Y-12398177D01*
X13639135Y-12398177D02*
X13620087Y-12398177D01*
X13620087Y-12398177D02*
X13601039Y-12388653D01*
X13601039Y-12388653D02*
X13591516Y-12379129D01*
X13591516Y-12379129D02*
X13581992Y-12360081D01*
X13581992Y-12360081D02*
X13572468Y-12321986D01*
X13572468Y-12321986D02*
X13572468Y-12274367D01*
X13572468Y-12274367D02*
X13581992Y-12236272D01*
X13581992Y-12236272D02*
X13591516Y-12217224D01*
X13591516Y-12217224D02*
X13601039Y-12207701D01*
X13601039Y-12207701D02*
X13620087Y-12198177D01*
X13810563Y-12198177D02*
X13829611Y-12198177D01*
X13829611Y-12198177D02*
X13848658Y-12207701D01*
X13848658Y-12207701D02*
X13858182Y-12217224D01*
X13858182Y-12217224D02*
X13867706Y-12236272D01*
X13867706Y-12236272D02*
X13877230Y-12274367D01*
X13877230Y-12274367D02*
X13877230Y-12321986D01*
X13877230Y-12321986D02*
X13867706Y-12360081D01*
X13867706Y-12360081D02*
X13858182Y-12379129D01*
X13858182Y-12379129D02*
X13848658Y-12388653D01*
X13848658Y-12388653D02*
X13829611Y-12398177D01*
X13829611Y-12398177D02*
X13810563Y-12398177D01*
X13810563Y-12398177D02*
X13791516Y-12388653D01*
X13791516Y-12388653D02*
X13781992Y-12379129D01*
X13781992Y-12379129D02*
X13772468Y-12360081D01*
X13772468Y-12360081D02*
X13762944Y-12321986D01*
X13762944Y-12321986D02*
X13762944Y-12274367D01*
X13762944Y-12274367D02*
X13772468Y-12236272D01*
X13772468Y-12236272D02*
X13781992Y-12217224D01*
X13781992Y-12217224D02*
X13791516Y-12207701D01*
X13791516Y-12207701D02*
X13810563Y-12198177D01*
X13962944Y-12398177D02*
X13962944Y-12264843D01*
X13962944Y-12283891D02*
X13972468Y-12274367D01*
X13972468Y-12274367D02*
X13991516Y-12264843D01*
X13991516Y-12264843D02*
X14020087Y-12264843D01*
X14020087Y-12264843D02*
X14039135Y-12274367D01*
X14039135Y-12274367D02*
X14048658Y-12293415D01*
X14048658Y-12293415D02*
X14048658Y-12398177D01*
X14048658Y-12293415D02*
X14058182Y-12274367D01*
X14058182Y-12274367D02*
X14077230Y-12264843D01*
X14077230Y-12264843D02*
X14105801Y-12264843D01*
X14105801Y-12264843D02*
X14124849Y-12274367D01*
X14124849Y-12274367D02*
X14134373Y-12293415D01*
X14134373Y-12293415D02*
X14134373Y-12398177D01*
X14229611Y-12398177D02*
X14229611Y-12264843D01*
X14229611Y-12283891D02*
X14239135Y-12274367D01*
X14239135Y-12274367D02*
X14258182Y-12264843D01*
X14258182Y-12264843D02*
X14286754Y-12264843D01*
X14286754Y-12264843D02*
X14305801Y-12274367D01*
X14305801Y-12274367D02*
X14315325Y-12293415D01*
X14315325Y-12293415D02*
X14315325Y-12398177D01*
X14315325Y-12293415D02*
X14324849Y-12274367D01*
X14324849Y-12274367D02*
X14343897Y-12264843D01*
X14343897Y-12264843D02*
X14372468Y-12264843D01*
X14372468Y-12264843D02*
X14391516Y-12274367D01*
X14391516Y-12274367D02*
X14401039Y-12293415D01*
X14401039Y-12293415D02*
X14401039Y-12398177D01*
X14791516Y-12188653D02*
X14620087Y-12445796D01*
X15048659Y-12198177D02*
X15067706Y-12198177D01*
X15067706Y-12198177D02*
X15086754Y-12207701D01*
X15086754Y-12207701D02*
X15096278Y-12217224D01*
X15096278Y-12217224D02*
X15105801Y-12236272D01*
X15105801Y-12236272D02*
X15115325Y-12274367D01*
X15115325Y-12274367D02*
X15115325Y-12321986D01*
X15115325Y-12321986D02*
X15105801Y-12360081D01*
X15105801Y-12360081D02*
X15096278Y-12379129D01*
X15096278Y-12379129D02*
X15086754Y-12388653D01*
X15086754Y-12388653D02*
X15067706Y-12398177D01*
X15067706Y-12398177D02*
X15048659Y-12398177D01*
X15048659Y-12398177D02*
X15029611Y-12388653D01*
X15029611Y-12388653D02*
X15020087Y-12379129D01*
X15020087Y-12379129D02*
X15010563Y-12360081D01*
X15010563Y-12360081D02*
X15001040Y-12321986D01*
X15001040Y-12321986D02*
X15001040Y-12274367D01*
X15001040Y-12274367D02*
X15010563Y-12236272D01*
X15010563Y-12236272D02*
X15020087Y-12217224D01*
X15020087Y-12217224D02*
X15029611Y-12207701D01*
X15029611Y-12207701D02*
X15048659Y-12198177D01*
X15201040Y-12379129D02*
X15210563Y-12388653D01*
X15210563Y-12388653D02*
X15201040Y-12398177D01*
X15201040Y-12398177D02*
X15191516Y-12388653D01*
X15191516Y-12388653D02*
X15201040Y-12379129D01*
X15201040Y-12379129D02*
X15201040Y-12398177D01*
X15334373Y-12198177D02*
X15353421Y-12198177D01*
X15353421Y-12198177D02*
X15372468Y-12207701D01*
X15372468Y-12207701D02*
X15381992Y-12217224D01*
X15381992Y-12217224D02*
X15391516Y-12236272D01*
X15391516Y-12236272D02*
X15401040Y-12274367D01*
X15401040Y-12274367D02*
X15401040Y-12321986D01*
X15401040Y-12321986D02*
X15391516Y-12360081D01*
X15391516Y-12360081D02*
X15381992Y-12379129D01*
X15381992Y-12379129D02*
X15372468Y-12388653D01*
X15372468Y-12388653D02*
X15353421Y-12398177D01*
X15353421Y-12398177D02*
X15334373Y-12398177D01*
X15334373Y-12398177D02*
X15315325Y-12388653D01*
X15315325Y-12388653D02*
X15305801Y-12379129D01*
X15305801Y-12379129D02*
X15296278Y-12360081D01*
X15296278Y-12360081D02*
X15286754Y-12321986D01*
X15286754Y-12321986D02*
X15286754Y-12274367D01*
X15286754Y-12274367D02*
X15296278Y-12236272D01*
X15296278Y-12236272D02*
X15305801Y-12217224D01*
X15305801Y-12217224D02*
X15315325Y-12207701D01*
X15315325Y-12207701D02*
X15334373Y-12198177D01*
X15467706Y-12198177D02*
X15591516Y-12198177D01*
X15591516Y-12198177D02*
X15524849Y-12274367D01*
X15524849Y-12274367D02*
X15553421Y-12274367D01*
X15553421Y-12274367D02*
X15572468Y-12283891D01*
X15572468Y-12283891D02*
X15581992Y-12293415D01*
X15581992Y-12293415D02*
X15591516Y-12312462D01*
X15591516Y-12312462D02*
X15591516Y-12360081D01*
X15591516Y-12360081D02*
X15581992Y-12379129D01*
X15581992Y-12379129D02*
X15572468Y-12388653D01*
X15572468Y-12388653D02*
X15553421Y-12398177D01*
X15553421Y-12398177D02*
X15496278Y-12398177D01*
X15496278Y-12398177D02*
X15477230Y-12388653D01*
X15477230Y-12388653D02*
X15467706Y-12379129D01*
X15772468Y-12198177D02*
X15677230Y-12198177D01*
X15677230Y-12198177D02*
X15667706Y-12293415D01*
X15667706Y-12293415D02*
X15677230Y-12283891D01*
X15677230Y-12283891D02*
X15696278Y-12274367D01*
X15696278Y-12274367D02*
X15743897Y-12274367D01*
X15743897Y-12274367D02*
X15762944Y-12283891D01*
X15762944Y-12283891D02*
X15772468Y-12293415D01*
X15772468Y-12293415D02*
X15781992Y-12312462D01*
X15781992Y-12312462D02*
X15781992Y-12360081D01*
X15781992Y-12360081D02*
X15772468Y-12379129D01*
X15772468Y-12379129D02*
X15762944Y-12388653D01*
X15762944Y-12388653D02*
X15743897Y-12398177D01*
X15743897Y-12398177D02*
X15696278Y-12398177D01*
X15696278Y-12398177D02*
X15677230Y-12388653D01*
X15677230Y-12388653D02*
X15667706Y-12379129D01*
X15953421Y-12264843D02*
X15953421Y-12398177D01*
X15905801Y-12188653D02*
X15858182Y-12331510D01*
X15858182Y-12331510D02*
X15981992Y-12331510D01*
X16048659Y-12198177D02*
X16048659Y-12236272D01*
X16124849Y-12198177D02*
X16124849Y-12236272D01*
X16420087Y-12474367D02*
X16410563Y-12464843D01*
X16410563Y-12464843D02*
X16391516Y-12436272D01*
X16391516Y-12436272D02*
X16381992Y-12417224D01*
X16381992Y-12417224D02*
X16372468Y-12388653D01*
X16372468Y-12388653D02*
X16362944Y-12341034D01*
X16362944Y-12341034D02*
X16362944Y-12302939D01*
X16362944Y-12302939D02*
X16372468Y-12255320D01*
X16372468Y-12255320D02*
X16381992Y-12226748D01*
X16381992Y-12226748D02*
X16391516Y-12207701D01*
X16391516Y-12207701D02*
X16410563Y-12179129D01*
X16410563Y-12179129D02*
X16420087Y-12169605D01*
X16581992Y-12198177D02*
X16543897Y-12198177D01*
X16543897Y-12198177D02*
X16524849Y-12207701D01*
X16524849Y-12207701D02*
X16515325Y-12217224D01*
X16515325Y-12217224D02*
X16496278Y-12245796D01*
X16496278Y-12245796D02*
X16486754Y-12283891D01*
X16486754Y-12283891D02*
X16486754Y-12360081D01*
X16486754Y-12360081D02*
X16496278Y-12379129D01*
X16496278Y-12379129D02*
X16505802Y-12388653D01*
X16505802Y-12388653D02*
X16524849Y-12398177D01*
X16524849Y-12398177D02*
X16562944Y-12398177D01*
X16562944Y-12398177D02*
X16581992Y-12388653D01*
X16581992Y-12388653D02*
X16591516Y-12379129D01*
X16591516Y-12379129D02*
X16601040Y-12360081D01*
X16601040Y-12360081D02*
X16601040Y-12312462D01*
X16601040Y-12312462D02*
X16591516Y-12293415D01*
X16591516Y-12293415D02*
X16581992Y-12283891D01*
X16581992Y-12283891D02*
X16562944Y-12274367D01*
X16562944Y-12274367D02*
X16524849Y-12274367D01*
X16524849Y-12274367D02*
X16505802Y-12283891D01*
X16505802Y-12283891D02*
X16496278Y-12293415D01*
X16496278Y-12293415D02*
X16486754Y-12312462D01*
X16839135Y-12398177D02*
X16839135Y-12198177D01*
X16924849Y-12398177D02*
X16924849Y-12293415D01*
X16924849Y-12293415D02*
X16915326Y-12274367D01*
X16915326Y-12274367D02*
X16896278Y-12264843D01*
X16896278Y-12264843D02*
X16867706Y-12264843D01*
X16867706Y-12264843D02*
X16848659Y-12274367D01*
X16848659Y-12274367D02*
X16839135Y-12283891D01*
X17048659Y-12398177D02*
X17029611Y-12388653D01*
X17029611Y-12388653D02*
X17020087Y-12379129D01*
X17020087Y-12379129D02*
X17010564Y-12360081D01*
X17010564Y-12360081D02*
X17010564Y-12302939D01*
X17010564Y-12302939D02*
X17020087Y-12283891D01*
X17020087Y-12283891D02*
X17029611Y-12274367D01*
X17029611Y-12274367D02*
X17048659Y-12264843D01*
X17048659Y-12264843D02*
X17077230Y-12264843D01*
X17077230Y-12264843D02*
X17096278Y-12274367D01*
X17096278Y-12274367D02*
X17105802Y-12283891D01*
X17105802Y-12283891D02*
X17115326Y-12302939D01*
X17115326Y-12302939D02*
X17115326Y-12360081D01*
X17115326Y-12360081D02*
X17105802Y-12379129D01*
X17105802Y-12379129D02*
X17096278Y-12388653D01*
X17096278Y-12388653D02*
X17077230Y-12398177D01*
X17077230Y-12398177D02*
X17048659Y-12398177D01*
X17229611Y-12398177D02*
X17210564Y-12388653D01*
X17210564Y-12388653D02*
X17201040Y-12369605D01*
X17201040Y-12369605D02*
X17201040Y-12198177D01*
X17381992Y-12388653D02*
X17362945Y-12398177D01*
X17362945Y-12398177D02*
X17324849Y-12398177D01*
X17324849Y-12398177D02*
X17305802Y-12388653D01*
X17305802Y-12388653D02*
X17296278Y-12369605D01*
X17296278Y-12369605D02*
X17296278Y-12293415D01*
X17296278Y-12293415D02*
X17305802Y-12274367D01*
X17305802Y-12274367D02*
X17324849Y-12264843D01*
X17324849Y-12264843D02*
X17362945Y-12264843D01*
X17362945Y-12264843D02*
X17381992Y-12274367D01*
X17381992Y-12274367D02*
X17391516Y-12293415D01*
X17391516Y-12293415D02*
X17391516Y-12312462D01*
X17391516Y-12312462D02*
X17296278Y-12331510D01*
X17467707Y-12388653D02*
X17486754Y-12398177D01*
X17486754Y-12398177D02*
X17524849Y-12398177D01*
X17524849Y-12398177D02*
X17543897Y-12388653D01*
X17543897Y-12388653D02*
X17553421Y-12369605D01*
X17553421Y-12369605D02*
X17553421Y-12360081D01*
X17553421Y-12360081D02*
X17543897Y-12341034D01*
X17543897Y-12341034D02*
X17524849Y-12331510D01*
X17524849Y-12331510D02*
X17496278Y-12331510D01*
X17496278Y-12331510D02*
X17477230Y-12321986D01*
X17477230Y-12321986D02*
X17467707Y-12302939D01*
X17467707Y-12302939D02*
X17467707Y-12293415D01*
X17467707Y-12293415D02*
X17477230Y-12274367D01*
X17477230Y-12274367D02*
X17496278Y-12264843D01*
X17496278Y-12264843D02*
X17524849Y-12264843D01*
X17524849Y-12264843D02*
X17543897Y-12274367D01*
X17620088Y-12474367D02*
X17629611Y-12464843D01*
X17629611Y-12464843D02*
X17648659Y-12436272D01*
X17648659Y-12436272D02*
X17658183Y-12417224D01*
X17658183Y-12417224D02*
X17667707Y-12388653D01*
X17667707Y-12388653D02*
X17677230Y-12341034D01*
X17677230Y-12341034D02*
X17677230Y-12302939D01*
X17677230Y-12302939D02*
X17667707Y-12255320D01*
X17667707Y-12255320D02*
X17658183Y-12226748D01*
X17658183Y-12226748D02*
X17648659Y-12207701D01*
X17648659Y-12207701D02*
X17629611Y-12179129D01*
X17629611Y-12179129D02*
X17620088Y-12169605D01*
D13*
X12795024Y-12520693D02*
X12795024Y-12620693D01*
X12745024Y-12570693D02*
X12845024Y-12570693D01*
D10*
X13210563Y-12662177D02*
X13096277Y-12662177D01*
X13153420Y-12662177D02*
X13153420Y-12462177D01*
X13153420Y-12462177D02*
X13134373Y-12490748D01*
X13134373Y-12490748D02*
X13115325Y-12509796D01*
X13115325Y-12509796D02*
X13096277Y-12519320D01*
X13296277Y-12643129D02*
X13305801Y-12652653D01*
X13305801Y-12652653D02*
X13296277Y-12662177D01*
X13296277Y-12662177D02*
X13286754Y-12652653D01*
X13286754Y-12652653D02*
X13296277Y-12643129D01*
X13296277Y-12643129D02*
X13296277Y-12662177D01*
X13429611Y-12462177D02*
X13448658Y-12462177D01*
X13448658Y-12462177D02*
X13467706Y-12471701D01*
X13467706Y-12471701D02*
X13477230Y-12481224D01*
X13477230Y-12481224D02*
X13486754Y-12500272D01*
X13486754Y-12500272D02*
X13496277Y-12538367D01*
X13496277Y-12538367D02*
X13496277Y-12585986D01*
X13496277Y-12585986D02*
X13486754Y-12624081D01*
X13486754Y-12624081D02*
X13477230Y-12643129D01*
X13477230Y-12643129D02*
X13467706Y-12652653D01*
X13467706Y-12652653D02*
X13448658Y-12662177D01*
X13448658Y-12662177D02*
X13429611Y-12662177D01*
X13429611Y-12662177D02*
X13410563Y-12652653D01*
X13410563Y-12652653D02*
X13401039Y-12643129D01*
X13401039Y-12643129D02*
X13391516Y-12624081D01*
X13391516Y-12624081D02*
X13381992Y-12585986D01*
X13381992Y-12585986D02*
X13381992Y-12538367D01*
X13381992Y-12538367D02*
X13391516Y-12500272D01*
X13391516Y-12500272D02*
X13401039Y-12481224D01*
X13401039Y-12481224D02*
X13410563Y-12471701D01*
X13410563Y-12471701D02*
X13429611Y-12462177D01*
X13620087Y-12462177D02*
X13639135Y-12462177D01*
X13639135Y-12462177D02*
X13658182Y-12471701D01*
X13658182Y-12471701D02*
X13667706Y-12481224D01*
X13667706Y-12481224D02*
X13677230Y-12500272D01*
X13677230Y-12500272D02*
X13686754Y-12538367D01*
X13686754Y-12538367D02*
X13686754Y-12585986D01*
X13686754Y-12585986D02*
X13677230Y-12624081D01*
X13677230Y-12624081D02*
X13667706Y-12643129D01*
X13667706Y-12643129D02*
X13658182Y-12652653D01*
X13658182Y-12652653D02*
X13639135Y-12662177D01*
X13639135Y-12662177D02*
X13620087Y-12662177D01*
X13620087Y-12662177D02*
X13601039Y-12652653D01*
X13601039Y-12652653D02*
X13591516Y-12643129D01*
X13591516Y-12643129D02*
X13581992Y-12624081D01*
X13581992Y-12624081D02*
X13572468Y-12585986D01*
X13572468Y-12585986D02*
X13572468Y-12538367D01*
X13572468Y-12538367D02*
X13581992Y-12500272D01*
X13581992Y-12500272D02*
X13591516Y-12481224D01*
X13591516Y-12481224D02*
X13601039Y-12471701D01*
X13601039Y-12471701D02*
X13620087Y-12462177D01*
X13810563Y-12462177D02*
X13829611Y-12462177D01*
X13829611Y-12462177D02*
X13848658Y-12471701D01*
X13848658Y-12471701D02*
X13858182Y-12481224D01*
X13858182Y-12481224D02*
X13867706Y-12500272D01*
X13867706Y-12500272D02*
X13877230Y-12538367D01*
X13877230Y-12538367D02*
X13877230Y-12585986D01*
X13877230Y-12585986D02*
X13867706Y-12624081D01*
X13867706Y-12624081D02*
X13858182Y-12643129D01*
X13858182Y-12643129D02*
X13848658Y-12652653D01*
X13848658Y-12652653D02*
X13829611Y-12662177D01*
X13829611Y-12662177D02*
X13810563Y-12662177D01*
X13810563Y-12662177D02*
X13791516Y-12652653D01*
X13791516Y-12652653D02*
X13781992Y-12643129D01*
X13781992Y-12643129D02*
X13772468Y-12624081D01*
X13772468Y-12624081D02*
X13762944Y-12585986D01*
X13762944Y-12585986D02*
X13762944Y-12538367D01*
X13762944Y-12538367D02*
X13772468Y-12500272D01*
X13772468Y-12500272D02*
X13781992Y-12481224D01*
X13781992Y-12481224D02*
X13791516Y-12471701D01*
X13791516Y-12471701D02*
X13810563Y-12462177D01*
X13962944Y-12662177D02*
X13962944Y-12528843D01*
X13962944Y-12547891D02*
X13972468Y-12538367D01*
X13972468Y-12538367D02*
X13991516Y-12528843D01*
X13991516Y-12528843D02*
X14020087Y-12528843D01*
X14020087Y-12528843D02*
X14039135Y-12538367D01*
X14039135Y-12538367D02*
X14048658Y-12557415D01*
X14048658Y-12557415D02*
X14048658Y-12662177D01*
X14048658Y-12557415D02*
X14058182Y-12538367D01*
X14058182Y-12538367D02*
X14077230Y-12528843D01*
X14077230Y-12528843D02*
X14105801Y-12528843D01*
X14105801Y-12528843D02*
X14124849Y-12538367D01*
X14124849Y-12538367D02*
X14134373Y-12557415D01*
X14134373Y-12557415D02*
X14134373Y-12662177D01*
X14229611Y-12662177D02*
X14229611Y-12528843D01*
X14229611Y-12547891D02*
X14239135Y-12538367D01*
X14239135Y-12538367D02*
X14258182Y-12528843D01*
X14258182Y-12528843D02*
X14286754Y-12528843D01*
X14286754Y-12528843D02*
X14305801Y-12538367D01*
X14305801Y-12538367D02*
X14315325Y-12557415D01*
X14315325Y-12557415D02*
X14315325Y-12662177D01*
X14315325Y-12557415D02*
X14324849Y-12538367D01*
X14324849Y-12538367D02*
X14343897Y-12528843D01*
X14343897Y-12528843D02*
X14372468Y-12528843D01*
X14372468Y-12528843D02*
X14391516Y-12538367D01*
X14391516Y-12538367D02*
X14401039Y-12557415D01*
X14401039Y-12557415D02*
X14401039Y-12662177D01*
X14791516Y-12452653D02*
X14620087Y-12709796D01*
X15048659Y-12462177D02*
X15067706Y-12462177D01*
X15067706Y-12462177D02*
X15086754Y-12471701D01*
X15086754Y-12471701D02*
X15096278Y-12481224D01*
X15096278Y-12481224D02*
X15105801Y-12500272D01*
X15105801Y-12500272D02*
X15115325Y-12538367D01*
X15115325Y-12538367D02*
X15115325Y-12585986D01*
X15115325Y-12585986D02*
X15105801Y-12624081D01*
X15105801Y-12624081D02*
X15096278Y-12643129D01*
X15096278Y-12643129D02*
X15086754Y-12652653D01*
X15086754Y-12652653D02*
X15067706Y-12662177D01*
X15067706Y-12662177D02*
X15048659Y-12662177D01*
X15048659Y-12662177D02*
X15029611Y-12652653D01*
X15029611Y-12652653D02*
X15020087Y-12643129D01*
X15020087Y-12643129D02*
X15010563Y-12624081D01*
X15010563Y-12624081D02*
X15001040Y-12585986D01*
X15001040Y-12585986D02*
X15001040Y-12538367D01*
X15001040Y-12538367D02*
X15010563Y-12500272D01*
X15010563Y-12500272D02*
X15020087Y-12481224D01*
X15020087Y-12481224D02*
X15029611Y-12471701D01*
X15029611Y-12471701D02*
X15048659Y-12462177D01*
X15201040Y-12643129D02*
X15210563Y-12652653D01*
X15210563Y-12652653D02*
X15201040Y-12662177D01*
X15201040Y-12662177D02*
X15191516Y-12652653D01*
X15191516Y-12652653D02*
X15201040Y-12643129D01*
X15201040Y-12643129D02*
X15201040Y-12662177D01*
X15334373Y-12462177D02*
X15353421Y-12462177D01*
X15353421Y-12462177D02*
X15372468Y-12471701D01*
X15372468Y-12471701D02*
X15381992Y-12481224D01*
X15381992Y-12481224D02*
X15391516Y-12500272D01*
X15391516Y-12500272D02*
X15401040Y-12538367D01*
X15401040Y-12538367D02*
X15401040Y-12585986D01*
X15401040Y-12585986D02*
X15391516Y-12624081D01*
X15391516Y-12624081D02*
X15381992Y-12643129D01*
X15381992Y-12643129D02*
X15372468Y-12652653D01*
X15372468Y-12652653D02*
X15353421Y-12662177D01*
X15353421Y-12662177D02*
X15334373Y-12662177D01*
X15334373Y-12662177D02*
X15315325Y-12652653D01*
X15315325Y-12652653D02*
X15305801Y-12643129D01*
X15305801Y-12643129D02*
X15296278Y-12624081D01*
X15296278Y-12624081D02*
X15286754Y-12585986D01*
X15286754Y-12585986D02*
X15286754Y-12538367D01*
X15286754Y-12538367D02*
X15296278Y-12500272D01*
X15296278Y-12500272D02*
X15305801Y-12481224D01*
X15305801Y-12481224D02*
X15315325Y-12471701D01*
X15315325Y-12471701D02*
X15334373Y-12462177D01*
X15467706Y-12462177D02*
X15591516Y-12462177D01*
X15591516Y-12462177D02*
X15524849Y-12538367D01*
X15524849Y-12538367D02*
X15553421Y-12538367D01*
X15553421Y-12538367D02*
X15572468Y-12547891D01*
X15572468Y-12547891D02*
X15581992Y-12557415D01*
X15581992Y-12557415D02*
X15591516Y-12576462D01*
X15591516Y-12576462D02*
X15591516Y-12624081D01*
X15591516Y-12624081D02*
X15581992Y-12643129D01*
X15581992Y-12643129D02*
X15572468Y-12652653D01*
X15572468Y-12652653D02*
X15553421Y-12662177D01*
X15553421Y-12662177D02*
X15496278Y-12662177D01*
X15496278Y-12662177D02*
X15477230Y-12652653D01*
X15477230Y-12652653D02*
X15467706Y-12643129D01*
X15686754Y-12662177D02*
X15724849Y-12662177D01*
X15724849Y-12662177D02*
X15743897Y-12652653D01*
X15743897Y-12652653D02*
X15753421Y-12643129D01*
X15753421Y-12643129D02*
X15772468Y-12614558D01*
X15772468Y-12614558D02*
X15781992Y-12576462D01*
X15781992Y-12576462D02*
X15781992Y-12500272D01*
X15781992Y-12500272D02*
X15772468Y-12481224D01*
X15772468Y-12481224D02*
X15762944Y-12471701D01*
X15762944Y-12471701D02*
X15743897Y-12462177D01*
X15743897Y-12462177D02*
X15705801Y-12462177D01*
X15705801Y-12462177D02*
X15686754Y-12471701D01*
X15686754Y-12471701D02*
X15677230Y-12481224D01*
X15677230Y-12481224D02*
X15667706Y-12500272D01*
X15667706Y-12500272D02*
X15667706Y-12547891D01*
X15667706Y-12547891D02*
X15677230Y-12566939D01*
X15677230Y-12566939D02*
X15686754Y-12576462D01*
X15686754Y-12576462D02*
X15705801Y-12585986D01*
X15705801Y-12585986D02*
X15743897Y-12585986D01*
X15743897Y-12585986D02*
X15762944Y-12576462D01*
X15762944Y-12576462D02*
X15772468Y-12566939D01*
X15772468Y-12566939D02*
X15781992Y-12547891D01*
X15953421Y-12528843D02*
X15953421Y-12662177D01*
X15905801Y-12452653D02*
X15858182Y-12595510D01*
X15858182Y-12595510D02*
X15981992Y-12595510D01*
X16048659Y-12462177D02*
X16048659Y-12500272D01*
X16124849Y-12462177D02*
X16124849Y-12500272D01*
X16420087Y-12738367D02*
X16410563Y-12728843D01*
X16410563Y-12728843D02*
X16391516Y-12700272D01*
X16391516Y-12700272D02*
X16381992Y-12681224D01*
X16381992Y-12681224D02*
X16372468Y-12652653D01*
X16372468Y-12652653D02*
X16362944Y-12605034D01*
X16362944Y-12605034D02*
X16362944Y-12566939D01*
X16362944Y-12566939D02*
X16372468Y-12519320D01*
X16372468Y-12519320D02*
X16381992Y-12490748D01*
X16381992Y-12490748D02*
X16391516Y-12471701D01*
X16391516Y-12471701D02*
X16410563Y-12443129D01*
X16410563Y-12443129D02*
X16420087Y-12433605D01*
X16601040Y-12662177D02*
X16486754Y-12662177D01*
X16543897Y-12662177D02*
X16543897Y-12462177D01*
X16543897Y-12462177D02*
X16524849Y-12490748D01*
X16524849Y-12490748D02*
X16505802Y-12509796D01*
X16505802Y-12509796D02*
X16486754Y-12519320D01*
X16667706Y-12462177D02*
X16791516Y-12462177D01*
X16791516Y-12462177D02*
X16724849Y-12538367D01*
X16724849Y-12538367D02*
X16753421Y-12538367D01*
X16753421Y-12538367D02*
X16772468Y-12547891D01*
X16772468Y-12547891D02*
X16781992Y-12557415D01*
X16781992Y-12557415D02*
X16791516Y-12576462D01*
X16791516Y-12576462D02*
X16791516Y-12624081D01*
X16791516Y-12624081D02*
X16781992Y-12643129D01*
X16781992Y-12643129D02*
X16772468Y-12652653D01*
X16772468Y-12652653D02*
X16753421Y-12662177D01*
X16753421Y-12662177D02*
X16696278Y-12662177D01*
X16696278Y-12662177D02*
X16677230Y-12652653D01*
X16677230Y-12652653D02*
X16667706Y-12643129D01*
X17029611Y-12662177D02*
X17029611Y-12462177D01*
X17115326Y-12662177D02*
X17115326Y-12557415D01*
X17115326Y-12557415D02*
X17105802Y-12538367D01*
X17105802Y-12538367D02*
X17086754Y-12528843D01*
X17086754Y-12528843D02*
X17058183Y-12528843D01*
X17058183Y-12528843D02*
X17039135Y-12538367D01*
X17039135Y-12538367D02*
X17029611Y-12547891D01*
X17239135Y-12662177D02*
X17220087Y-12652653D01*
X17220087Y-12652653D02*
X17210564Y-12643129D01*
X17210564Y-12643129D02*
X17201040Y-12624081D01*
X17201040Y-12624081D02*
X17201040Y-12566939D01*
X17201040Y-12566939D02*
X17210564Y-12547891D01*
X17210564Y-12547891D02*
X17220087Y-12538367D01*
X17220087Y-12538367D02*
X17239135Y-12528843D01*
X17239135Y-12528843D02*
X17267707Y-12528843D01*
X17267707Y-12528843D02*
X17286754Y-12538367D01*
X17286754Y-12538367D02*
X17296278Y-12547891D01*
X17296278Y-12547891D02*
X17305802Y-12566939D01*
X17305802Y-12566939D02*
X17305802Y-12624081D01*
X17305802Y-12624081D02*
X17296278Y-12643129D01*
X17296278Y-12643129D02*
X17286754Y-12652653D01*
X17286754Y-12652653D02*
X17267707Y-12662177D01*
X17267707Y-12662177D02*
X17239135Y-12662177D01*
X17420087Y-12662177D02*
X17401040Y-12652653D01*
X17401040Y-12652653D02*
X17391516Y-12633605D01*
X17391516Y-12633605D02*
X17391516Y-12462177D01*
X17572468Y-12652653D02*
X17553421Y-12662177D01*
X17553421Y-12662177D02*
X17515326Y-12662177D01*
X17515326Y-12662177D02*
X17496278Y-12652653D01*
X17496278Y-12652653D02*
X17486754Y-12633605D01*
X17486754Y-12633605D02*
X17486754Y-12557415D01*
X17486754Y-12557415D02*
X17496278Y-12538367D01*
X17496278Y-12538367D02*
X17515326Y-12528843D01*
X17515326Y-12528843D02*
X17553421Y-12528843D01*
X17553421Y-12528843D02*
X17572468Y-12538367D01*
X17572468Y-12538367D02*
X17581992Y-12557415D01*
X17581992Y-12557415D02*
X17581992Y-12576462D01*
X17581992Y-12576462D02*
X17486754Y-12595510D01*
X17658183Y-12652653D02*
X17677230Y-12662177D01*
X17677230Y-12662177D02*
X17715326Y-12662177D01*
X17715326Y-12662177D02*
X17734373Y-12652653D01*
X17734373Y-12652653D02*
X17743897Y-12633605D01*
X17743897Y-12633605D02*
X17743897Y-12624081D01*
X17743897Y-12624081D02*
X17734373Y-12605034D01*
X17734373Y-12605034D02*
X17715326Y-12595510D01*
X17715326Y-12595510D02*
X17686754Y-12595510D01*
X17686754Y-12595510D02*
X17667707Y-12585986D01*
X17667707Y-12585986D02*
X17658183Y-12566939D01*
X17658183Y-12566939D02*
X17658183Y-12557415D01*
X17658183Y-12557415D02*
X17667707Y-12538367D01*
X17667707Y-12538367D02*
X17686754Y-12528843D01*
X17686754Y-12528843D02*
X17715326Y-12528843D01*
X17715326Y-12528843D02*
X17734373Y-12538367D01*
X17810564Y-12738367D02*
X17820088Y-12728843D01*
X17820088Y-12728843D02*
X17839135Y-12700272D01*
X17839135Y-12700272D02*
X17848659Y-12681224D01*
X17848659Y-12681224D02*
X17858183Y-12652653D01*
X17858183Y-12652653D02*
X17867707Y-12605034D01*
X17867707Y-12605034D02*
X17867707Y-12566939D01*
X17867707Y-12566939D02*
X17858183Y-12519320D01*
X17858183Y-12519320D02*
X17848659Y-12490748D01*
X17848659Y-12490748D02*
X17839135Y-12471701D01*
X17839135Y-12471701D02*
X17820088Y-12443129D01*
X17820088Y-12443129D02*
X17810564Y-12433605D01*
D14*
X12827451Y-12877120D02*
X12827451Y-12792266D01*
X12742598Y-12792266D01*
X12742598Y-12877120D01*
X12827451Y-12877120D01*
D10*
X13210563Y-12926177D02*
X13096277Y-12926177D01*
X13153420Y-12926177D02*
X13153420Y-12726177D01*
X13153420Y-12726177D02*
X13134373Y-12754748D01*
X13134373Y-12754748D02*
X13115325Y-12773796D01*
X13115325Y-12773796D02*
X13096277Y-12783320D01*
X13296277Y-12907129D02*
X13305801Y-12916653D01*
X13305801Y-12916653D02*
X13296277Y-12926177D01*
X13296277Y-12926177D02*
X13286754Y-12916653D01*
X13286754Y-12916653D02*
X13296277Y-12907129D01*
X13296277Y-12907129D02*
X13296277Y-12926177D01*
X13381992Y-12745224D02*
X13391516Y-12735701D01*
X13391516Y-12735701D02*
X13410563Y-12726177D01*
X13410563Y-12726177D02*
X13458182Y-12726177D01*
X13458182Y-12726177D02*
X13477230Y-12735701D01*
X13477230Y-12735701D02*
X13486754Y-12745224D01*
X13486754Y-12745224D02*
X13496277Y-12764272D01*
X13496277Y-12764272D02*
X13496277Y-12783320D01*
X13496277Y-12783320D02*
X13486754Y-12811891D01*
X13486754Y-12811891D02*
X13372468Y-12926177D01*
X13372468Y-12926177D02*
X13496277Y-12926177D01*
X13620087Y-12726177D02*
X13639135Y-12726177D01*
X13639135Y-12726177D02*
X13658182Y-12735701D01*
X13658182Y-12735701D02*
X13667706Y-12745224D01*
X13667706Y-12745224D02*
X13677230Y-12764272D01*
X13677230Y-12764272D02*
X13686754Y-12802367D01*
X13686754Y-12802367D02*
X13686754Y-12849986D01*
X13686754Y-12849986D02*
X13677230Y-12888081D01*
X13677230Y-12888081D02*
X13667706Y-12907129D01*
X13667706Y-12907129D02*
X13658182Y-12916653D01*
X13658182Y-12916653D02*
X13639135Y-12926177D01*
X13639135Y-12926177D02*
X13620087Y-12926177D01*
X13620087Y-12926177D02*
X13601039Y-12916653D01*
X13601039Y-12916653D02*
X13591516Y-12907129D01*
X13591516Y-12907129D02*
X13581992Y-12888081D01*
X13581992Y-12888081D02*
X13572468Y-12849986D01*
X13572468Y-12849986D02*
X13572468Y-12802367D01*
X13572468Y-12802367D02*
X13581992Y-12764272D01*
X13581992Y-12764272D02*
X13591516Y-12745224D01*
X13591516Y-12745224D02*
X13601039Y-12735701D01*
X13601039Y-12735701D02*
X13620087Y-12726177D01*
X13810563Y-12726177D02*
X13829611Y-12726177D01*
X13829611Y-12726177D02*
X13848658Y-12735701D01*
X13848658Y-12735701D02*
X13858182Y-12745224D01*
X13858182Y-12745224D02*
X13867706Y-12764272D01*
X13867706Y-12764272D02*
X13877230Y-12802367D01*
X13877230Y-12802367D02*
X13877230Y-12849986D01*
X13877230Y-12849986D02*
X13867706Y-12888081D01*
X13867706Y-12888081D02*
X13858182Y-12907129D01*
X13858182Y-12907129D02*
X13848658Y-12916653D01*
X13848658Y-12916653D02*
X13829611Y-12926177D01*
X13829611Y-12926177D02*
X13810563Y-12926177D01*
X13810563Y-12926177D02*
X13791516Y-12916653D01*
X13791516Y-12916653D02*
X13781992Y-12907129D01*
X13781992Y-12907129D02*
X13772468Y-12888081D01*
X13772468Y-12888081D02*
X13762944Y-12849986D01*
X13762944Y-12849986D02*
X13762944Y-12802367D01*
X13762944Y-12802367D02*
X13772468Y-12764272D01*
X13772468Y-12764272D02*
X13781992Y-12745224D01*
X13781992Y-12745224D02*
X13791516Y-12735701D01*
X13791516Y-12735701D02*
X13810563Y-12726177D01*
X13962944Y-12926177D02*
X13962944Y-12792843D01*
X13962944Y-12811891D02*
X13972468Y-12802367D01*
X13972468Y-12802367D02*
X13991516Y-12792843D01*
X13991516Y-12792843D02*
X14020087Y-12792843D01*
X14020087Y-12792843D02*
X14039135Y-12802367D01*
X14039135Y-12802367D02*
X14048658Y-12821415D01*
X14048658Y-12821415D02*
X14048658Y-12926177D01*
X14048658Y-12821415D02*
X14058182Y-12802367D01*
X14058182Y-12802367D02*
X14077230Y-12792843D01*
X14077230Y-12792843D02*
X14105801Y-12792843D01*
X14105801Y-12792843D02*
X14124849Y-12802367D01*
X14124849Y-12802367D02*
X14134373Y-12821415D01*
X14134373Y-12821415D02*
X14134373Y-12926177D01*
X14229611Y-12926177D02*
X14229611Y-12792843D01*
X14229611Y-12811891D02*
X14239135Y-12802367D01*
X14239135Y-12802367D02*
X14258182Y-12792843D01*
X14258182Y-12792843D02*
X14286754Y-12792843D01*
X14286754Y-12792843D02*
X14305801Y-12802367D01*
X14305801Y-12802367D02*
X14315325Y-12821415D01*
X14315325Y-12821415D02*
X14315325Y-12926177D01*
X14315325Y-12821415D02*
X14324849Y-12802367D01*
X14324849Y-12802367D02*
X14343897Y-12792843D01*
X14343897Y-12792843D02*
X14372468Y-12792843D01*
X14372468Y-12792843D02*
X14391516Y-12802367D01*
X14391516Y-12802367D02*
X14401039Y-12821415D01*
X14401039Y-12821415D02*
X14401039Y-12926177D01*
X14791516Y-12716653D02*
X14620087Y-12973796D01*
X15048659Y-12726177D02*
X15067706Y-12726177D01*
X15067706Y-12726177D02*
X15086754Y-12735701D01*
X15086754Y-12735701D02*
X15096278Y-12745224D01*
X15096278Y-12745224D02*
X15105801Y-12764272D01*
X15105801Y-12764272D02*
X15115325Y-12802367D01*
X15115325Y-12802367D02*
X15115325Y-12849986D01*
X15115325Y-12849986D02*
X15105801Y-12888081D01*
X15105801Y-12888081D02*
X15096278Y-12907129D01*
X15096278Y-12907129D02*
X15086754Y-12916653D01*
X15086754Y-12916653D02*
X15067706Y-12926177D01*
X15067706Y-12926177D02*
X15048659Y-12926177D01*
X15048659Y-12926177D02*
X15029611Y-12916653D01*
X15029611Y-12916653D02*
X15020087Y-12907129D01*
X15020087Y-12907129D02*
X15010563Y-12888081D01*
X15010563Y-12888081D02*
X15001040Y-12849986D01*
X15001040Y-12849986D02*
X15001040Y-12802367D01*
X15001040Y-12802367D02*
X15010563Y-12764272D01*
X15010563Y-12764272D02*
X15020087Y-12745224D01*
X15020087Y-12745224D02*
X15029611Y-12735701D01*
X15029611Y-12735701D02*
X15048659Y-12726177D01*
X15201040Y-12907129D02*
X15210563Y-12916653D01*
X15210563Y-12916653D02*
X15201040Y-12926177D01*
X15201040Y-12926177D02*
X15191516Y-12916653D01*
X15191516Y-12916653D02*
X15201040Y-12907129D01*
X15201040Y-12907129D02*
X15201040Y-12926177D01*
X15334373Y-12726177D02*
X15353421Y-12726177D01*
X15353421Y-12726177D02*
X15372468Y-12735701D01*
X15372468Y-12735701D02*
X15381992Y-12745224D01*
X15381992Y-12745224D02*
X15391516Y-12764272D01*
X15391516Y-12764272D02*
X15401040Y-12802367D01*
X15401040Y-12802367D02*
X15401040Y-12849986D01*
X15401040Y-12849986D02*
X15391516Y-12888081D01*
X15391516Y-12888081D02*
X15381992Y-12907129D01*
X15381992Y-12907129D02*
X15372468Y-12916653D01*
X15372468Y-12916653D02*
X15353421Y-12926177D01*
X15353421Y-12926177D02*
X15334373Y-12926177D01*
X15334373Y-12926177D02*
X15315325Y-12916653D01*
X15315325Y-12916653D02*
X15305801Y-12907129D01*
X15305801Y-12907129D02*
X15296278Y-12888081D01*
X15296278Y-12888081D02*
X15286754Y-12849986D01*
X15286754Y-12849986D02*
X15286754Y-12802367D01*
X15286754Y-12802367D02*
X15296278Y-12764272D01*
X15296278Y-12764272D02*
X15305801Y-12745224D01*
X15305801Y-12745224D02*
X15315325Y-12735701D01*
X15315325Y-12735701D02*
X15334373Y-12726177D01*
X15572468Y-12792843D02*
X15572468Y-12926177D01*
X15524849Y-12716653D02*
X15477230Y-12859510D01*
X15477230Y-12859510D02*
X15601040Y-12859510D01*
X15658182Y-12726177D02*
X15791516Y-12726177D01*
X15791516Y-12726177D02*
X15705801Y-12926177D01*
X15858182Y-12745224D02*
X15867706Y-12735701D01*
X15867706Y-12735701D02*
X15886754Y-12726177D01*
X15886754Y-12726177D02*
X15934373Y-12726177D01*
X15934373Y-12726177D02*
X15953421Y-12735701D01*
X15953421Y-12735701D02*
X15962944Y-12745224D01*
X15962944Y-12745224D02*
X15972468Y-12764272D01*
X15972468Y-12764272D02*
X15972468Y-12783320D01*
X15972468Y-12783320D02*
X15962944Y-12811891D01*
X15962944Y-12811891D02*
X15848659Y-12926177D01*
X15848659Y-12926177D02*
X15972468Y-12926177D01*
X16048659Y-12726177D02*
X16048659Y-12764272D01*
X16124849Y-12726177D02*
X16124849Y-12764272D01*
X16420087Y-13002367D02*
X16410563Y-12992843D01*
X16410563Y-12992843D02*
X16391516Y-12964272D01*
X16391516Y-12964272D02*
X16381992Y-12945224D01*
X16381992Y-12945224D02*
X16372468Y-12916653D01*
X16372468Y-12916653D02*
X16362944Y-12869034D01*
X16362944Y-12869034D02*
X16362944Y-12830939D01*
X16362944Y-12830939D02*
X16372468Y-12783320D01*
X16372468Y-12783320D02*
X16381992Y-12754748D01*
X16381992Y-12754748D02*
X16391516Y-12735701D01*
X16391516Y-12735701D02*
X16410563Y-12707129D01*
X16410563Y-12707129D02*
X16420087Y-12697605D01*
X16486754Y-12745224D02*
X16496278Y-12735701D01*
X16496278Y-12735701D02*
X16515325Y-12726177D01*
X16515325Y-12726177D02*
X16562944Y-12726177D01*
X16562944Y-12726177D02*
X16581992Y-12735701D01*
X16581992Y-12735701D02*
X16591516Y-12745224D01*
X16591516Y-12745224D02*
X16601040Y-12764272D01*
X16601040Y-12764272D02*
X16601040Y-12783320D01*
X16601040Y-12783320D02*
X16591516Y-12811891D01*
X16591516Y-12811891D02*
X16477230Y-12926177D01*
X16477230Y-12926177D02*
X16601040Y-12926177D01*
X16839135Y-12926177D02*
X16839135Y-12726177D01*
X16924849Y-12926177D02*
X16924849Y-12821415D01*
X16924849Y-12821415D02*
X16915326Y-12802367D01*
X16915326Y-12802367D02*
X16896278Y-12792843D01*
X16896278Y-12792843D02*
X16867706Y-12792843D01*
X16867706Y-12792843D02*
X16848659Y-12802367D01*
X16848659Y-12802367D02*
X16839135Y-12811891D01*
X17048659Y-12926177D02*
X17029611Y-12916653D01*
X17029611Y-12916653D02*
X17020087Y-12907129D01*
X17020087Y-12907129D02*
X17010564Y-12888081D01*
X17010564Y-12888081D02*
X17010564Y-12830939D01*
X17010564Y-12830939D02*
X17020087Y-12811891D01*
X17020087Y-12811891D02*
X17029611Y-12802367D01*
X17029611Y-12802367D02*
X17048659Y-12792843D01*
X17048659Y-12792843D02*
X17077230Y-12792843D01*
X17077230Y-12792843D02*
X17096278Y-12802367D01*
X17096278Y-12802367D02*
X17105802Y-12811891D01*
X17105802Y-12811891D02*
X17115326Y-12830939D01*
X17115326Y-12830939D02*
X17115326Y-12888081D01*
X17115326Y-12888081D02*
X17105802Y-12907129D01*
X17105802Y-12907129D02*
X17096278Y-12916653D01*
X17096278Y-12916653D02*
X17077230Y-12926177D01*
X17077230Y-12926177D02*
X17048659Y-12926177D01*
X17229611Y-12926177D02*
X17210564Y-12916653D01*
X17210564Y-12916653D02*
X17201040Y-12897605D01*
X17201040Y-12897605D02*
X17201040Y-12726177D01*
X17381992Y-12916653D02*
X17362945Y-12926177D01*
X17362945Y-12926177D02*
X17324849Y-12926177D01*
X17324849Y-12926177D02*
X17305802Y-12916653D01*
X17305802Y-12916653D02*
X17296278Y-12897605D01*
X17296278Y-12897605D02*
X17296278Y-12821415D01*
X17296278Y-12821415D02*
X17305802Y-12802367D01*
X17305802Y-12802367D02*
X17324849Y-12792843D01*
X17324849Y-12792843D02*
X17362945Y-12792843D01*
X17362945Y-12792843D02*
X17381992Y-12802367D01*
X17381992Y-12802367D02*
X17391516Y-12821415D01*
X17391516Y-12821415D02*
X17391516Y-12840462D01*
X17391516Y-12840462D02*
X17296278Y-12859510D01*
X17467707Y-12916653D02*
X17486754Y-12926177D01*
X17486754Y-12926177D02*
X17524849Y-12926177D01*
X17524849Y-12926177D02*
X17543897Y-12916653D01*
X17543897Y-12916653D02*
X17553421Y-12897605D01*
X17553421Y-12897605D02*
X17553421Y-12888081D01*
X17553421Y-12888081D02*
X17543897Y-12869034D01*
X17543897Y-12869034D02*
X17524849Y-12859510D01*
X17524849Y-12859510D02*
X17496278Y-12859510D01*
X17496278Y-12859510D02*
X17477230Y-12849986D01*
X17477230Y-12849986D02*
X17467707Y-12830939D01*
X17467707Y-12830939D02*
X17467707Y-12821415D01*
X17467707Y-12821415D02*
X17477230Y-12802367D01*
X17477230Y-12802367D02*
X17496278Y-12792843D01*
X17496278Y-12792843D02*
X17524849Y-12792843D01*
X17524849Y-12792843D02*
X17543897Y-12802367D01*
X17620088Y-13002367D02*
X17629611Y-12992843D01*
X17629611Y-12992843D02*
X17648659Y-12964272D01*
X17648659Y-12964272D02*
X17658183Y-12945224D01*
X17658183Y-12945224D02*
X17667707Y-12916653D01*
X17667707Y-12916653D02*
X17677230Y-12869034D01*
X17677230Y-12869034D02*
X17677230Y-12830939D01*
X17677230Y-12830939D02*
X17667707Y-12783320D01*
X17667707Y-12783320D02*
X17658183Y-12754748D01*
X17658183Y-12754748D02*
X17648659Y-12735701D01*
X17648659Y-12735701D02*
X17629611Y-12707129D01*
X17629611Y-12707129D02*
X17620088Y-12697605D01*
D15*
X12780024Y-13163693D02*
X12845024Y-13098693D01*
X12780024Y-13033693D01*
X12715024Y-13098693D01*
X12780024Y-13163693D01*
D10*
X13210563Y-13190177D02*
X13096277Y-13190177D01*
X13153420Y-13190177D02*
X13153420Y-12990177D01*
X13153420Y-12990177D02*
X13134373Y-13018748D01*
X13134373Y-13018748D02*
X13115325Y-13037796D01*
X13115325Y-13037796D02*
X13096277Y-13047320D01*
X13296277Y-13171129D02*
X13305801Y-13180653D01*
X13305801Y-13180653D02*
X13296277Y-13190177D01*
X13296277Y-13190177D02*
X13286754Y-13180653D01*
X13286754Y-13180653D02*
X13296277Y-13171129D01*
X13296277Y-13171129D02*
X13296277Y-13190177D01*
X13372468Y-12990177D02*
X13496277Y-12990177D01*
X13496277Y-12990177D02*
X13429611Y-13066367D01*
X13429611Y-13066367D02*
X13458182Y-13066367D01*
X13458182Y-13066367D02*
X13477230Y-13075891D01*
X13477230Y-13075891D02*
X13486754Y-13085415D01*
X13486754Y-13085415D02*
X13496277Y-13104462D01*
X13496277Y-13104462D02*
X13496277Y-13152081D01*
X13496277Y-13152081D02*
X13486754Y-13171129D01*
X13486754Y-13171129D02*
X13477230Y-13180653D01*
X13477230Y-13180653D02*
X13458182Y-13190177D01*
X13458182Y-13190177D02*
X13401039Y-13190177D01*
X13401039Y-13190177D02*
X13381992Y-13180653D01*
X13381992Y-13180653D02*
X13372468Y-13171129D01*
X13620087Y-12990177D02*
X13639135Y-12990177D01*
X13639135Y-12990177D02*
X13658182Y-12999701D01*
X13658182Y-12999701D02*
X13667706Y-13009224D01*
X13667706Y-13009224D02*
X13677230Y-13028272D01*
X13677230Y-13028272D02*
X13686754Y-13066367D01*
X13686754Y-13066367D02*
X13686754Y-13113986D01*
X13686754Y-13113986D02*
X13677230Y-13152081D01*
X13677230Y-13152081D02*
X13667706Y-13171129D01*
X13667706Y-13171129D02*
X13658182Y-13180653D01*
X13658182Y-13180653D02*
X13639135Y-13190177D01*
X13639135Y-13190177D02*
X13620087Y-13190177D01*
X13620087Y-13190177D02*
X13601039Y-13180653D01*
X13601039Y-13180653D02*
X13591516Y-13171129D01*
X13591516Y-13171129D02*
X13581992Y-13152081D01*
X13581992Y-13152081D02*
X13572468Y-13113986D01*
X13572468Y-13113986D02*
X13572468Y-13066367D01*
X13572468Y-13066367D02*
X13581992Y-13028272D01*
X13581992Y-13028272D02*
X13591516Y-13009224D01*
X13591516Y-13009224D02*
X13601039Y-12999701D01*
X13601039Y-12999701D02*
X13620087Y-12990177D01*
X13810563Y-12990177D02*
X13829611Y-12990177D01*
X13829611Y-12990177D02*
X13848658Y-12999701D01*
X13848658Y-12999701D02*
X13858182Y-13009224D01*
X13858182Y-13009224D02*
X13867706Y-13028272D01*
X13867706Y-13028272D02*
X13877230Y-13066367D01*
X13877230Y-13066367D02*
X13877230Y-13113986D01*
X13877230Y-13113986D02*
X13867706Y-13152081D01*
X13867706Y-13152081D02*
X13858182Y-13171129D01*
X13858182Y-13171129D02*
X13848658Y-13180653D01*
X13848658Y-13180653D02*
X13829611Y-13190177D01*
X13829611Y-13190177D02*
X13810563Y-13190177D01*
X13810563Y-13190177D02*
X13791516Y-13180653D01*
X13791516Y-13180653D02*
X13781992Y-13171129D01*
X13781992Y-13171129D02*
X13772468Y-13152081D01*
X13772468Y-13152081D02*
X13762944Y-13113986D01*
X13762944Y-13113986D02*
X13762944Y-13066367D01*
X13762944Y-13066367D02*
X13772468Y-13028272D01*
X13772468Y-13028272D02*
X13781992Y-13009224D01*
X13781992Y-13009224D02*
X13791516Y-12999701D01*
X13791516Y-12999701D02*
X13810563Y-12990177D01*
X13962944Y-13190177D02*
X13962944Y-13056843D01*
X13962944Y-13075891D02*
X13972468Y-13066367D01*
X13972468Y-13066367D02*
X13991516Y-13056843D01*
X13991516Y-13056843D02*
X14020087Y-13056843D01*
X14020087Y-13056843D02*
X14039135Y-13066367D01*
X14039135Y-13066367D02*
X14048658Y-13085415D01*
X14048658Y-13085415D02*
X14048658Y-13190177D01*
X14048658Y-13085415D02*
X14058182Y-13066367D01*
X14058182Y-13066367D02*
X14077230Y-13056843D01*
X14077230Y-13056843D02*
X14105801Y-13056843D01*
X14105801Y-13056843D02*
X14124849Y-13066367D01*
X14124849Y-13066367D02*
X14134373Y-13085415D01*
X14134373Y-13085415D02*
X14134373Y-13190177D01*
X14229611Y-13190177D02*
X14229611Y-13056843D01*
X14229611Y-13075891D02*
X14239135Y-13066367D01*
X14239135Y-13066367D02*
X14258182Y-13056843D01*
X14258182Y-13056843D02*
X14286754Y-13056843D01*
X14286754Y-13056843D02*
X14305801Y-13066367D01*
X14305801Y-13066367D02*
X14315325Y-13085415D01*
X14315325Y-13085415D02*
X14315325Y-13190177D01*
X14315325Y-13085415D02*
X14324849Y-13066367D01*
X14324849Y-13066367D02*
X14343897Y-13056843D01*
X14343897Y-13056843D02*
X14372468Y-13056843D01*
X14372468Y-13056843D02*
X14391516Y-13066367D01*
X14391516Y-13066367D02*
X14401039Y-13085415D01*
X14401039Y-13085415D02*
X14401039Y-13190177D01*
X14791516Y-12980653D02*
X14620087Y-13237796D01*
X15048659Y-12990177D02*
X15067706Y-12990177D01*
X15067706Y-12990177D02*
X15086754Y-12999701D01*
X15086754Y-12999701D02*
X15096278Y-13009224D01*
X15096278Y-13009224D02*
X15105801Y-13028272D01*
X15105801Y-13028272D02*
X15115325Y-13066367D01*
X15115325Y-13066367D02*
X15115325Y-13113986D01*
X15115325Y-13113986D02*
X15105801Y-13152081D01*
X15105801Y-13152081D02*
X15096278Y-13171129D01*
X15096278Y-13171129D02*
X15086754Y-13180653D01*
X15086754Y-13180653D02*
X15067706Y-13190177D01*
X15067706Y-13190177D02*
X15048659Y-13190177D01*
X15048659Y-13190177D02*
X15029611Y-13180653D01*
X15029611Y-13180653D02*
X15020087Y-13171129D01*
X15020087Y-13171129D02*
X15010563Y-13152081D01*
X15010563Y-13152081D02*
X15001040Y-13113986D01*
X15001040Y-13113986D02*
X15001040Y-13066367D01*
X15001040Y-13066367D02*
X15010563Y-13028272D01*
X15010563Y-13028272D02*
X15020087Y-13009224D01*
X15020087Y-13009224D02*
X15029611Y-12999701D01*
X15029611Y-12999701D02*
X15048659Y-12990177D01*
X15201040Y-13171129D02*
X15210563Y-13180653D01*
X15210563Y-13180653D02*
X15201040Y-13190177D01*
X15201040Y-13190177D02*
X15191516Y-13180653D01*
X15191516Y-13180653D02*
X15201040Y-13171129D01*
X15201040Y-13171129D02*
X15201040Y-13190177D01*
X15334373Y-12990177D02*
X15353421Y-12990177D01*
X15353421Y-12990177D02*
X15372468Y-12999701D01*
X15372468Y-12999701D02*
X15381992Y-13009224D01*
X15381992Y-13009224D02*
X15391516Y-13028272D01*
X15391516Y-13028272D02*
X15401040Y-13066367D01*
X15401040Y-13066367D02*
X15401040Y-13113986D01*
X15401040Y-13113986D02*
X15391516Y-13152081D01*
X15391516Y-13152081D02*
X15381992Y-13171129D01*
X15381992Y-13171129D02*
X15372468Y-13180653D01*
X15372468Y-13180653D02*
X15353421Y-13190177D01*
X15353421Y-13190177D02*
X15334373Y-13190177D01*
X15334373Y-13190177D02*
X15315325Y-13180653D01*
X15315325Y-13180653D02*
X15305801Y-13171129D01*
X15305801Y-13171129D02*
X15296278Y-13152081D01*
X15296278Y-13152081D02*
X15286754Y-13113986D01*
X15286754Y-13113986D02*
X15286754Y-13066367D01*
X15286754Y-13066367D02*
X15296278Y-13028272D01*
X15296278Y-13028272D02*
X15305801Y-13009224D01*
X15305801Y-13009224D02*
X15315325Y-12999701D01*
X15315325Y-12999701D02*
X15334373Y-12990177D01*
X15581992Y-12990177D02*
X15486754Y-12990177D01*
X15486754Y-12990177D02*
X15477230Y-13085415D01*
X15477230Y-13085415D02*
X15486754Y-13075891D01*
X15486754Y-13075891D02*
X15505801Y-13066367D01*
X15505801Y-13066367D02*
X15553421Y-13066367D01*
X15553421Y-13066367D02*
X15572468Y-13075891D01*
X15572468Y-13075891D02*
X15581992Y-13085415D01*
X15581992Y-13085415D02*
X15591516Y-13104462D01*
X15591516Y-13104462D02*
X15591516Y-13152081D01*
X15591516Y-13152081D02*
X15581992Y-13171129D01*
X15581992Y-13171129D02*
X15572468Y-13180653D01*
X15572468Y-13180653D02*
X15553421Y-13190177D01*
X15553421Y-13190177D02*
X15505801Y-13190177D01*
X15505801Y-13190177D02*
X15486754Y-13180653D01*
X15486754Y-13180653D02*
X15477230Y-13171129D01*
X15781992Y-13190177D02*
X15667706Y-13190177D01*
X15724849Y-13190177D02*
X15724849Y-12990177D01*
X15724849Y-12990177D02*
X15705801Y-13018748D01*
X15705801Y-13018748D02*
X15686754Y-13037796D01*
X15686754Y-13037796D02*
X15667706Y-13047320D01*
X15858182Y-13009224D02*
X15867706Y-12999701D01*
X15867706Y-12999701D02*
X15886754Y-12990177D01*
X15886754Y-12990177D02*
X15934373Y-12990177D01*
X15934373Y-12990177D02*
X15953421Y-12999701D01*
X15953421Y-12999701D02*
X15962944Y-13009224D01*
X15962944Y-13009224D02*
X15972468Y-13028272D01*
X15972468Y-13028272D02*
X15972468Y-13047320D01*
X15972468Y-13047320D02*
X15962944Y-13075891D01*
X15962944Y-13075891D02*
X15848659Y-13190177D01*
X15848659Y-13190177D02*
X15972468Y-13190177D01*
X16048659Y-12990177D02*
X16048659Y-13028272D01*
X16124849Y-12990177D02*
X16124849Y-13028272D01*
X16420087Y-13266367D02*
X16410563Y-13256843D01*
X16410563Y-13256843D02*
X16391516Y-13228272D01*
X16391516Y-13228272D02*
X16381992Y-13209224D01*
X16381992Y-13209224D02*
X16372468Y-13180653D01*
X16372468Y-13180653D02*
X16362944Y-13133034D01*
X16362944Y-13133034D02*
X16362944Y-13094939D01*
X16362944Y-13094939D02*
X16372468Y-13047320D01*
X16372468Y-13047320D02*
X16381992Y-13018748D01*
X16381992Y-13018748D02*
X16391516Y-12999701D01*
X16391516Y-12999701D02*
X16410563Y-12971129D01*
X16410563Y-12971129D02*
X16420087Y-12961605D01*
X16601040Y-13190177D02*
X16486754Y-13190177D01*
X16543897Y-13190177D02*
X16543897Y-12990177D01*
X16543897Y-12990177D02*
X16524849Y-13018748D01*
X16524849Y-13018748D02*
X16505802Y-13037796D01*
X16505802Y-13037796D02*
X16486754Y-13047320D01*
X16724849Y-12990177D02*
X16743897Y-12990177D01*
X16743897Y-12990177D02*
X16762944Y-12999701D01*
X16762944Y-12999701D02*
X16772468Y-13009224D01*
X16772468Y-13009224D02*
X16781992Y-13028272D01*
X16781992Y-13028272D02*
X16791516Y-13066367D01*
X16791516Y-13066367D02*
X16791516Y-13113986D01*
X16791516Y-13113986D02*
X16781992Y-13152081D01*
X16781992Y-13152081D02*
X16772468Y-13171129D01*
X16772468Y-13171129D02*
X16762944Y-13180653D01*
X16762944Y-13180653D02*
X16743897Y-13190177D01*
X16743897Y-13190177D02*
X16724849Y-13190177D01*
X16724849Y-13190177D02*
X16705802Y-13180653D01*
X16705802Y-13180653D02*
X16696278Y-13171129D01*
X16696278Y-13171129D02*
X16686754Y-13152081D01*
X16686754Y-13152081D02*
X16677230Y-13113986D01*
X16677230Y-13113986D02*
X16677230Y-13066367D01*
X16677230Y-13066367D02*
X16686754Y-13028272D01*
X16686754Y-13028272D02*
X16696278Y-13009224D01*
X16696278Y-13009224D02*
X16705802Y-12999701D01*
X16705802Y-12999701D02*
X16724849Y-12990177D01*
X17029611Y-13190177D02*
X17029611Y-12990177D01*
X17115326Y-13190177D02*
X17115326Y-13085415D01*
X17115326Y-13085415D02*
X17105802Y-13066367D01*
X17105802Y-13066367D02*
X17086754Y-13056843D01*
X17086754Y-13056843D02*
X17058183Y-13056843D01*
X17058183Y-13056843D02*
X17039135Y-13066367D01*
X17039135Y-13066367D02*
X17029611Y-13075891D01*
X17239135Y-13190177D02*
X17220087Y-13180653D01*
X17220087Y-13180653D02*
X17210564Y-13171129D01*
X17210564Y-13171129D02*
X17201040Y-13152081D01*
X17201040Y-13152081D02*
X17201040Y-13094939D01*
X17201040Y-13094939D02*
X17210564Y-13075891D01*
X17210564Y-13075891D02*
X17220087Y-13066367D01*
X17220087Y-13066367D02*
X17239135Y-13056843D01*
X17239135Y-13056843D02*
X17267707Y-13056843D01*
X17267707Y-13056843D02*
X17286754Y-13066367D01*
X17286754Y-13066367D02*
X17296278Y-13075891D01*
X17296278Y-13075891D02*
X17305802Y-13094939D01*
X17305802Y-13094939D02*
X17305802Y-13152081D01*
X17305802Y-13152081D02*
X17296278Y-13171129D01*
X17296278Y-13171129D02*
X17286754Y-13180653D01*
X17286754Y-13180653D02*
X17267707Y-13190177D01*
X17267707Y-13190177D02*
X17239135Y-13190177D01*
X17420087Y-13190177D02*
X17401040Y-13180653D01*
X17401040Y-13180653D02*
X17391516Y-13161605D01*
X17391516Y-13161605D02*
X17391516Y-12990177D01*
X17572468Y-13180653D02*
X17553421Y-13190177D01*
X17553421Y-13190177D02*
X17515326Y-13190177D01*
X17515326Y-13190177D02*
X17496278Y-13180653D01*
X17496278Y-13180653D02*
X17486754Y-13161605D01*
X17486754Y-13161605D02*
X17486754Y-13085415D01*
X17486754Y-13085415D02*
X17496278Y-13066367D01*
X17496278Y-13066367D02*
X17515326Y-13056843D01*
X17515326Y-13056843D02*
X17553421Y-13056843D01*
X17553421Y-13056843D02*
X17572468Y-13066367D01*
X17572468Y-13066367D02*
X17581992Y-13085415D01*
X17581992Y-13085415D02*
X17581992Y-13104462D01*
X17581992Y-13104462D02*
X17486754Y-13123510D01*
X17658183Y-13180653D02*
X17677230Y-13190177D01*
X17677230Y-13190177D02*
X17715326Y-13190177D01*
X17715326Y-13190177D02*
X17734373Y-13180653D01*
X17734373Y-13180653D02*
X17743897Y-13161605D01*
X17743897Y-13161605D02*
X17743897Y-13152081D01*
X17743897Y-13152081D02*
X17734373Y-13133034D01*
X17734373Y-13133034D02*
X17715326Y-13123510D01*
X17715326Y-13123510D02*
X17686754Y-13123510D01*
X17686754Y-13123510D02*
X17667707Y-13113986D01*
X17667707Y-13113986D02*
X17658183Y-13094939D01*
X17658183Y-13094939D02*
X17658183Y-13085415D01*
X17658183Y-13085415D02*
X17667707Y-13066367D01*
X17667707Y-13066367D02*
X17686754Y-13056843D01*
X17686754Y-13056843D02*
X17715326Y-13056843D01*
X17715326Y-13056843D02*
X17734373Y-13066367D01*
X17810564Y-13266367D02*
X17820088Y-13256843D01*
X17820088Y-13256843D02*
X17839135Y-13228272D01*
X17839135Y-13228272D02*
X17848659Y-13209224D01*
X17848659Y-13209224D02*
X17858183Y-13180653D01*
X17858183Y-13180653D02*
X17867707Y-13133034D01*
X17867707Y-13133034D02*
X17867707Y-13094939D01*
X17867707Y-13094939D02*
X17858183Y-13047320D01*
X17858183Y-13047320D02*
X17848659Y-13018748D01*
X17848659Y-13018748D02*
X17839135Y-12999701D01*
X17839135Y-12999701D02*
X17820088Y-12971129D01*
X17820088Y-12971129D02*
X17810564Y-12961605D01*
M02*
