G04 #@! TF.GenerationSoftware,KiCad,Pcbnew,7.0.8*
G04 #@! TF.CreationDate,2024-05-09T20:35:49-03:00*
G04 #@! TF.ProjectId,lamp_module_x1,6c616d70-5f6d-46f6-9475-6c655f78312e,1.1*
G04 #@! TF.SameCoordinates,Original*
G04 #@! TF.FileFunction,Legend,Bot*
G04 #@! TF.FilePolarity,Positive*
%FSLAX46Y46*%
G04 Gerber Fmt 4.6, Leading zero omitted, Abs format (unit mm)*
G04 Created by KiCad (PCBNEW 7.0.8) date 2024-05-09 20:35:49*
%MOMM*%
%LPD*%
G01*
G04 APERTURE LIST*
G04 Aperture macros list*
%AMRoundRect*
0 Rectangle with rounded corners*
0 $1 Rounding radius*
0 $2 $3 $4 $5 $6 $7 $8 $9 X,Y pos of 4 corners*
0 Add a 4 corners polygon primitive as box body*
4,1,4,$2,$3,$4,$5,$6,$7,$8,$9,$2,$3,0*
0 Add four circle primitives for the rounded corners*
1,1,$1+$1,$2,$3*
1,1,$1+$1,$4,$5*
1,1,$1+$1,$6,$7*
1,1,$1+$1,$8,$9*
0 Add four rect primitives between the rounded corners*
20,1,$1+$1,$2,$3,$4,$5,0*
20,1,$1+$1,$4,$5,$6,$7,0*
20,1,$1+$1,$6,$7,$8,$9,0*
20,1,$1+$1,$8,$9,$2,$3,0*%
G04 Aperture macros list end*
%ADD10C,0.300000*%
%ADD11C,0.200000*%
%ADD12C,0.350000*%
%ADD13C,0.400000*%
%ADD14C,0.150000*%
%ADD15C,0.120000*%
%ADD16C,2.500000*%
%ADD17R,1.700000X1.700000*%
%ADD18O,1.700000X1.700000*%
%ADD19C,3.000000*%
%ADD20R,2.600000X2.600000*%
%ADD21C,2.600000*%
%ADD22C,2.400000*%
%ADD23R,2.300000X2.000000*%
%ADD24C,2.300000*%
%ADD25R,1.500000X1.500000*%
%ADD26C,1.500000*%
%ADD27RoundRect,0.200000X0.200000X0.275000X-0.200000X0.275000X-0.200000X-0.275000X0.200000X-0.275000X0*%
G04 APERTURE END LIST*
D10*
X138132671Y-96240142D02*
X139632671Y-96240142D01*
X138918385Y-96240142D02*
X138918385Y-95382999D01*
X138132671Y-95382999D02*
X139632671Y-95382999D01*
X138561242Y-94740141D02*
X138561242Y-94025856D01*
X138132671Y-94882998D02*
X139632671Y-94382998D01*
X139632671Y-94382998D02*
X138132671Y-93882998D01*
X138132671Y-93382999D02*
X139632671Y-93382999D01*
X139632671Y-93382999D02*
X139632671Y-92811570D01*
X139632671Y-92811570D02*
X139561242Y-92668713D01*
X139561242Y-92668713D02*
X139489814Y-92597284D01*
X139489814Y-92597284D02*
X139346957Y-92525856D01*
X139346957Y-92525856D02*
X139132671Y-92525856D01*
X139132671Y-92525856D02*
X138989814Y-92597284D01*
X138989814Y-92597284D02*
X138918385Y-92668713D01*
X138918385Y-92668713D02*
X138846957Y-92811570D01*
X138846957Y-92811570D02*
X138846957Y-93382999D01*
X138704100Y-90740142D02*
X138704100Y-89597285D01*
X138132671Y-87025856D02*
X138132671Y-87740142D01*
X138132671Y-87740142D02*
X139632671Y-87740142D01*
X138132671Y-85882999D02*
X138918385Y-85882999D01*
X138918385Y-85882999D02*
X139061242Y-85954427D01*
X139061242Y-85954427D02*
X139132671Y-86097284D01*
X139132671Y-86097284D02*
X139132671Y-86382999D01*
X139132671Y-86382999D02*
X139061242Y-86525856D01*
X138204100Y-85882999D02*
X138132671Y-86025856D01*
X138132671Y-86025856D02*
X138132671Y-86382999D01*
X138132671Y-86382999D02*
X138204100Y-86525856D01*
X138204100Y-86525856D02*
X138346957Y-86597284D01*
X138346957Y-86597284D02*
X138489814Y-86597284D01*
X138489814Y-86597284D02*
X138632671Y-86525856D01*
X138632671Y-86525856D02*
X138704100Y-86382999D01*
X138704100Y-86382999D02*
X138704100Y-86025856D01*
X138704100Y-86025856D02*
X138775528Y-85882999D01*
X138132671Y-85168713D02*
X139132671Y-85168713D01*
X138989814Y-85168713D02*
X139061242Y-85097284D01*
X139061242Y-85097284D02*
X139132671Y-84954427D01*
X139132671Y-84954427D02*
X139132671Y-84740141D01*
X139132671Y-84740141D02*
X139061242Y-84597284D01*
X139061242Y-84597284D02*
X138918385Y-84525856D01*
X138918385Y-84525856D02*
X138132671Y-84525856D01*
X138918385Y-84525856D02*
X139061242Y-84454427D01*
X139061242Y-84454427D02*
X139132671Y-84311570D01*
X139132671Y-84311570D02*
X139132671Y-84097284D01*
X139132671Y-84097284D02*
X139061242Y-83954427D01*
X139061242Y-83954427D02*
X138918385Y-83882998D01*
X138918385Y-83882998D02*
X138132671Y-83882998D01*
X139132671Y-83168713D02*
X137632671Y-83168713D01*
X139061242Y-83168713D02*
X139132671Y-83025856D01*
X139132671Y-83025856D02*
X139132671Y-82740141D01*
X139132671Y-82740141D02*
X139061242Y-82597284D01*
X139061242Y-82597284D02*
X138989814Y-82525856D01*
X138989814Y-82525856D02*
X138846957Y-82454427D01*
X138846957Y-82454427D02*
X138418385Y-82454427D01*
X138418385Y-82454427D02*
X138275528Y-82525856D01*
X138275528Y-82525856D02*
X138204100Y-82597284D01*
X138204100Y-82597284D02*
X138132671Y-82740141D01*
X138132671Y-82740141D02*
X138132671Y-83025856D01*
X138132671Y-83025856D02*
X138204100Y-83168713D01*
X138132671Y-80668713D02*
X139632671Y-80668713D01*
X139632671Y-80668713D02*
X138561242Y-80168713D01*
X138561242Y-80168713D02*
X139632671Y-79668713D01*
X139632671Y-79668713D02*
X138132671Y-79668713D01*
X138132671Y-78740141D02*
X138204100Y-78882998D01*
X138204100Y-78882998D02*
X138275528Y-78954427D01*
X138275528Y-78954427D02*
X138418385Y-79025855D01*
X138418385Y-79025855D02*
X138846957Y-79025855D01*
X138846957Y-79025855D02*
X138989814Y-78954427D01*
X138989814Y-78954427D02*
X139061242Y-78882998D01*
X139061242Y-78882998D02*
X139132671Y-78740141D01*
X139132671Y-78740141D02*
X139132671Y-78525855D01*
X139132671Y-78525855D02*
X139061242Y-78382998D01*
X139061242Y-78382998D02*
X138989814Y-78311570D01*
X138989814Y-78311570D02*
X138846957Y-78240141D01*
X138846957Y-78240141D02*
X138418385Y-78240141D01*
X138418385Y-78240141D02*
X138275528Y-78311570D01*
X138275528Y-78311570D02*
X138204100Y-78382998D01*
X138204100Y-78382998D02*
X138132671Y-78525855D01*
X138132671Y-78525855D02*
X138132671Y-78740141D01*
X138132671Y-76954427D02*
X139632671Y-76954427D01*
X138204100Y-76954427D02*
X138132671Y-77097284D01*
X138132671Y-77097284D02*
X138132671Y-77382998D01*
X138132671Y-77382998D02*
X138204100Y-77525855D01*
X138204100Y-77525855D02*
X138275528Y-77597284D01*
X138275528Y-77597284D02*
X138418385Y-77668712D01*
X138418385Y-77668712D02*
X138846957Y-77668712D01*
X138846957Y-77668712D02*
X138989814Y-77597284D01*
X138989814Y-77597284D02*
X139061242Y-77525855D01*
X139061242Y-77525855D02*
X139132671Y-77382998D01*
X139132671Y-77382998D02*
X139132671Y-77097284D01*
X139132671Y-77097284D02*
X139061242Y-76954427D01*
X139132671Y-75597284D02*
X138132671Y-75597284D01*
X139132671Y-76240141D02*
X138346957Y-76240141D01*
X138346957Y-76240141D02*
X138204100Y-76168712D01*
X138204100Y-76168712D02*
X138132671Y-76025855D01*
X138132671Y-76025855D02*
X138132671Y-75811569D01*
X138132671Y-75811569D02*
X138204100Y-75668712D01*
X138204100Y-75668712D02*
X138275528Y-75597284D01*
X138132671Y-74668712D02*
X138204100Y-74811569D01*
X138204100Y-74811569D02*
X138346957Y-74882998D01*
X138346957Y-74882998D02*
X139632671Y-74882998D01*
X138204100Y-73525855D02*
X138132671Y-73668712D01*
X138132671Y-73668712D02*
X138132671Y-73954427D01*
X138132671Y-73954427D02*
X138204100Y-74097284D01*
X138204100Y-74097284D02*
X138346957Y-74168712D01*
X138346957Y-74168712D02*
X138918385Y-74168712D01*
X138918385Y-74168712D02*
X139061242Y-74097284D01*
X139061242Y-74097284D02*
X139132671Y-73954427D01*
X139132671Y-73954427D02*
X139132671Y-73668712D01*
X139132671Y-73668712D02*
X139061242Y-73525855D01*
X139061242Y-73525855D02*
X138918385Y-73454427D01*
X138918385Y-73454427D02*
X138775528Y-73454427D01*
X138775528Y-73454427D02*
X138632671Y-74168712D01*
X139632671Y-71811570D02*
X138132671Y-70811570D01*
X139632671Y-70811570D02*
X138132671Y-71811570D01*
X138132671Y-69454427D02*
X138132671Y-70311570D01*
X138132671Y-69882999D02*
X139632671Y-69882999D01*
X139632671Y-69882999D02*
X139418385Y-70025856D01*
X139418385Y-70025856D02*
X139275528Y-70168713D01*
X139275528Y-70168713D02*
X139204100Y-70311570D01*
X139632671Y-67882999D02*
X138132671Y-67382999D01*
X138132671Y-67382999D02*
X139632671Y-66882999D01*
X138132671Y-65597285D02*
X138132671Y-66454428D01*
X138132671Y-66025857D02*
X139632671Y-66025857D01*
X139632671Y-66025857D02*
X139418385Y-66168714D01*
X139418385Y-66168714D02*
X139275528Y-66311571D01*
X139275528Y-66311571D02*
X139204100Y-66454428D01*
X138275528Y-64954429D02*
X138204100Y-64883000D01*
X138204100Y-64883000D02*
X138132671Y-64954429D01*
X138132671Y-64954429D02*
X138204100Y-65025857D01*
X138204100Y-65025857D02*
X138275528Y-64954429D01*
X138275528Y-64954429D02*
X138132671Y-64954429D01*
X138132671Y-63454428D02*
X138132671Y-64311571D01*
X138132671Y-63883000D02*
X139632671Y-63883000D01*
X139632671Y-63883000D02*
X139418385Y-64025857D01*
X139418385Y-64025857D02*
X139275528Y-64168714D01*
X139275528Y-64168714D02*
X139204100Y-64311571D01*
D11*
X136149780Y-96277326D02*
X137149780Y-96277326D01*
X137149780Y-96277326D02*
X137149780Y-96039231D01*
X137149780Y-96039231D02*
X137102161Y-95896374D01*
X137102161Y-95896374D02*
X137006923Y-95801136D01*
X137006923Y-95801136D02*
X136911685Y-95753517D01*
X136911685Y-95753517D02*
X136721209Y-95705898D01*
X136721209Y-95705898D02*
X136578352Y-95705898D01*
X136578352Y-95705898D02*
X136387876Y-95753517D01*
X136387876Y-95753517D02*
X136292638Y-95801136D01*
X136292638Y-95801136D02*
X136197400Y-95896374D01*
X136197400Y-95896374D02*
X136149780Y-96039231D01*
X136149780Y-96039231D02*
X136149780Y-96277326D01*
X136197400Y-94896374D02*
X136149780Y-94991612D01*
X136149780Y-94991612D02*
X136149780Y-95182088D01*
X136149780Y-95182088D02*
X136197400Y-95277326D01*
X136197400Y-95277326D02*
X136292638Y-95324945D01*
X136292638Y-95324945D02*
X136673590Y-95324945D01*
X136673590Y-95324945D02*
X136768828Y-95277326D01*
X136768828Y-95277326D02*
X136816447Y-95182088D01*
X136816447Y-95182088D02*
X136816447Y-94991612D01*
X136816447Y-94991612D02*
X136768828Y-94896374D01*
X136768828Y-94896374D02*
X136673590Y-94848755D01*
X136673590Y-94848755D02*
X136578352Y-94848755D01*
X136578352Y-94848755D02*
X136483114Y-95324945D01*
X136197400Y-94467802D02*
X136149780Y-94372564D01*
X136149780Y-94372564D02*
X136149780Y-94182088D01*
X136149780Y-94182088D02*
X136197400Y-94086850D01*
X136197400Y-94086850D02*
X136292638Y-94039231D01*
X136292638Y-94039231D02*
X136340257Y-94039231D01*
X136340257Y-94039231D02*
X136435495Y-94086850D01*
X136435495Y-94086850D02*
X136483114Y-94182088D01*
X136483114Y-94182088D02*
X136483114Y-94324945D01*
X136483114Y-94324945D02*
X136530733Y-94420183D01*
X136530733Y-94420183D02*
X136625971Y-94467802D01*
X136625971Y-94467802D02*
X136673590Y-94467802D01*
X136673590Y-94467802D02*
X136768828Y-94420183D01*
X136768828Y-94420183D02*
X136816447Y-94324945D01*
X136816447Y-94324945D02*
X136816447Y-94182088D01*
X136816447Y-94182088D02*
X136768828Y-94086850D01*
X136149780Y-93610659D02*
X136816447Y-93610659D01*
X137149780Y-93610659D02*
X137102161Y-93658278D01*
X137102161Y-93658278D02*
X137054542Y-93610659D01*
X137054542Y-93610659D02*
X137102161Y-93563040D01*
X137102161Y-93563040D02*
X137149780Y-93610659D01*
X137149780Y-93610659D02*
X137054542Y-93610659D01*
X136816447Y-92705898D02*
X136006923Y-92705898D01*
X136006923Y-92705898D02*
X135911685Y-92753517D01*
X135911685Y-92753517D02*
X135864066Y-92801136D01*
X135864066Y-92801136D02*
X135816447Y-92896374D01*
X135816447Y-92896374D02*
X135816447Y-93039231D01*
X135816447Y-93039231D02*
X135864066Y-93134469D01*
X136197400Y-92705898D02*
X136149780Y-92801136D01*
X136149780Y-92801136D02*
X136149780Y-92991612D01*
X136149780Y-92991612D02*
X136197400Y-93086850D01*
X136197400Y-93086850D02*
X136245019Y-93134469D01*
X136245019Y-93134469D02*
X136340257Y-93182088D01*
X136340257Y-93182088D02*
X136625971Y-93182088D01*
X136625971Y-93182088D02*
X136721209Y-93134469D01*
X136721209Y-93134469D02*
X136768828Y-93086850D01*
X136768828Y-93086850D02*
X136816447Y-92991612D01*
X136816447Y-92991612D02*
X136816447Y-92801136D01*
X136816447Y-92801136D02*
X136768828Y-92705898D01*
X136816447Y-92229707D02*
X136149780Y-92229707D01*
X136721209Y-92229707D02*
X136768828Y-92182088D01*
X136768828Y-92182088D02*
X136816447Y-92086850D01*
X136816447Y-92086850D02*
X136816447Y-91943993D01*
X136816447Y-91943993D02*
X136768828Y-91848755D01*
X136768828Y-91848755D02*
X136673590Y-91801136D01*
X136673590Y-91801136D02*
X136149780Y-91801136D01*
X136197400Y-90943993D02*
X136149780Y-91039231D01*
X136149780Y-91039231D02*
X136149780Y-91229707D01*
X136149780Y-91229707D02*
X136197400Y-91324945D01*
X136197400Y-91324945D02*
X136292638Y-91372564D01*
X136292638Y-91372564D02*
X136673590Y-91372564D01*
X136673590Y-91372564D02*
X136768828Y-91324945D01*
X136768828Y-91324945D02*
X136816447Y-91229707D01*
X136816447Y-91229707D02*
X136816447Y-91039231D01*
X136816447Y-91039231D02*
X136768828Y-90943993D01*
X136768828Y-90943993D02*
X136673590Y-90896374D01*
X136673590Y-90896374D02*
X136578352Y-90896374D01*
X136578352Y-90896374D02*
X136483114Y-91372564D01*
X136149780Y-90039231D02*
X137149780Y-90039231D01*
X136197400Y-90039231D02*
X136149780Y-90134469D01*
X136149780Y-90134469D02*
X136149780Y-90324945D01*
X136149780Y-90324945D02*
X136197400Y-90420183D01*
X136197400Y-90420183D02*
X136245019Y-90467802D01*
X136245019Y-90467802D02*
X136340257Y-90515421D01*
X136340257Y-90515421D02*
X136625971Y-90515421D01*
X136625971Y-90515421D02*
X136721209Y-90467802D01*
X136721209Y-90467802D02*
X136768828Y-90420183D01*
X136768828Y-90420183D02*
X136816447Y-90324945D01*
X136816447Y-90324945D02*
X136816447Y-90134469D01*
X136816447Y-90134469D02*
X136768828Y-90039231D01*
X136149780Y-88801135D02*
X137149780Y-88801135D01*
X136768828Y-88801135D02*
X136816447Y-88705897D01*
X136816447Y-88705897D02*
X136816447Y-88515421D01*
X136816447Y-88515421D02*
X136768828Y-88420183D01*
X136768828Y-88420183D02*
X136721209Y-88372564D01*
X136721209Y-88372564D02*
X136625971Y-88324945D01*
X136625971Y-88324945D02*
X136340257Y-88324945D01*
X136340257Y-88324945D02*
X136245019Y-88372564D01*
X136245019Y-88372564D02*
X136197400Y-88420183D01*
X136197400Y-88420183D02*
X136149780Y-88515421D01*
X136149780Y-88515421D02*
X136149780Y-88705897D01*
X136149780Y-88705897D02*
X136197400Y-88801135D01*
X136816447Y-87991611D02*
X136149780Y-87753516D01*
X136816447Y-87515421D02*
X136149780Y-87753516D01*
X136149780Y-87753516D02*
X135911685Y-87848754D01*
X135911685Y-87848754D02*
X135864066Y-87896373D01*
X135864066Y-87896373D02*
X135816447Y-87991611D01*
X136435495Y-86420182D02*
X136435495Y-85943992D01*
X136149780Y-86515420D02*
X137149780Y-86182087D01*
X137149780Y-86182087D02*
X136149780Y-85848754D01*
X136149780Y-85372563D02*
X136197400Y-85467801D01*
X136197400Y-85467801D02*
X136292638Y-85515420D01*
X136292638Y-85515420D02*
X137149780Y-85515420D01*
X136149780Y-84563039D02*
X136673590Y-84563039D01*
X136673590Y-84563039D02*
X136768828Y-84610658D01*
X136768828Y-84610658D02*
X136816447Y-84705896D01*
X136816447Y-84705896D02*
X136816447Y-84896372D01*
X136816447Y-84896372D02*
X136768828Y-84991610D01*
X136197400Y-84563039D02*
X136149780Y-84658277D01*
X136149780Y-84658277D02*
X136149780Y-84896372D01*
X136149780Y-84896372D02*
X136197400Y-84991610D01*
X136197400Y-84991610D02*
X136292638Y-85039229D01*
X136292638Y-85039229D02*
X136387876Y-85039229D01*
X136387876Y-85039229D02*
X136483114Y-84991610D01*
X136483114Y-84991610D02*
X136530733Y-84896372D01*
X136530733Y-84896372D02*
X136530733Y-84658277D01*
X136530733Y-84658277D02*
X136578352Y-84563039D01*
X136816447Y-84086848D02*
X136149780Y-84086848D01*
X136721209Y-84086848D02*
X136768828Y-84039229D01*
X136768828Y-84039229D02*
X136816447Y-83943991D01*
X136816447Y-83943991D02*
X136816447Y-83801134D01*
X136816447Y-83801134D02*
X136768828Y-83705896D01*
X136768828Y-83705896D02*
X136673590Y-83658277D01*
X136673590Y-83658277D02*
X136149780Y-83658277D01*
X136245019Y-81848753D02*
X136197400Y-81896372D01*
X136197400Y-81896372D02*
X136149780Y-82039229D01*
X136149780Y-82039229D02*
X136149780Y-82134467D01*
X136149780Y-82134467D02*
X136197400Y-82277324D01*
X136197400Y-82277324D02*
X136292638Y-82372562D01*
X136292638Y-82372562D02*
X136387876Y-82420181D01*
X136387876Y-82420181D02*
X136578352Y-82467800D01*
X136578352Y-82467800D02*
X136721209Y-82467800D01*
X136721209Y-82467800D02*
X136911685Y-82420181D01*
X136911685Y-82420181D02*
X137006923Y-82372562D01*
X137006923Y-82372562D02*
X137102161Y-82277324D01*
X137102161Y-82277324D02*
X137149780Y-82134467D01*
X137149780Y-82134467D02*
X137149780Y-82039229D01*
X137149780Y-82039229D02*
X137102161Y-81896372D01*
X137102161Y-81896372D02*
X137054542Y-81848753D01*
X136149780Y-80991610D02*
X136673590Y-80991610D01*
X136673590Y-80991610D02*
X136768828Y-81039229D01*
X136768828Y-81039229D02*
X136816447Y-81134467D01*
X136816447Y-81134467D02*
X136816447Y-81324943D01*
X136816447Y-81324943D02*
X136768828Y-81420181D01*
X136197400Y-80991610D02*
X136149780Y-81086848D01*
X136149780Y-81086848D02*
X136149780Y-81324943D01*
X136149780Y-81324943D02*
X136197400Y-81420181D01*
X136197400Y-81420181D02*
X136292638Y-81467800D01*
X136292638Y-81467800D02*
X136387876Y-81467800D01*
X136387876Y-81467800D02*
X136483114Y-81420181D01*
X136483114Y-81420181D02*
X136530733Y-81324943D01*
X136530733Y-81324943D02*
X136530733Y-81086848D01*
X136530733Y-81086848D02*
X136578352Y-80991610D01*
X136149780Y-80515419D02*
X136816447Y-80515419D01*
X136625971Y-80515419D02*
X136721209Y-80467800D01*
X136721209Y-80467800D02*
X136768828Y-80420181D01*
X136768828Y-80420181D02*
X136816447Y-80324943D01*
X136816447Y-80324943D02*
X136816447Y-80229705D01*
X136816447Y-79991609D02*
X136149780Y-79753514D01*
X136149780Y-79753514D02*
X136816447Y-79515419D01*
X136149780Y-78705895D02*
X136673590Y-78705895D01*
X136673590Y-78705895D02*
X136768828Y-78753514D01*
X136768828Y-78753514D02*
X136816447Y-78848752D01*
X136816447Y-78848752D02*
X136816447Y-79039228D01*
X136816447Y-79039228D02*
X136768828Y-79134466D01*
X136197400Y-78705895D02*
X136149780Y-78801133D01*
X136149780Y-78801133D02*
X136149780Y-79039228D01*
X136149780Y-79039228D02*
X136197400Y-79134466D01*
X136197400Y-79134466D02*
X136292638Y-79182085D01*
X136292638Y-79182085D02*
X136387876Y-79182085D01*
X136387876Y-79182085D02*
X136483114Y-79134466D01*
X136483114Y-79134466D02*
X136530733Y-79039228D01*
X136530733Y-79039228D02*
X136530733Y-78801133D01*
X136530733Y-78801133D02*
X136578352Y-78705895D01*
X136149780Y-78086847D02*
X136197400Y-78182085D01*
X136197400Y-78182085D02*
X136292638Y-78229704D01*
X136292638Y-78229704D02*
X137149780Y-78229704D01*
X136149780Y-77705894D02*
X137149780Y-77705894D01*
X136149780Y-77277323D02*
X136673590Y-77277323D01*
X136673590Y-77277323D02*
X136768828Y-77324942D01*
X136768828Y-77324942D02*
X136816447Y-77420180D01*
X136816447Y-77420180D02*
X136816447Y-77563037D01*
X136816447Y-77563037D02*
X136768828Y-77658275D01*
X136768828Y-77658275D02*
X136721209Y-77705894D01*
X136149780Y-76658275D02*
X136197400Y-76753513D01*
X136197400Y-76753513D02*
X136245019Y-76801132D01*
X136245019Y-76801132D02*
X136340257Y-76848751D01*
X136340257Y-76848751D02*
X136625971Y-76848751D01*
X136625971Y-76848751D02*
X136721209Y-76801132D01*
X136721209Y-76801132D02*
X136768828Y-76753513D01*
X136768828Y-76753513D02*
X136816447Y-76658275D01*
X136816447Y-76658275D02*
X136816447Y-76515418D01*
X136816447Y-76515418D02*
X136768828Y-76420180D01*
X136768828Y-76420180D02*
X136721209Y-76372561D01*
X136721209Y-76372561D02*
X136625971Y-76324942D01*
X136625971Y-76324942D02*
X136340257Y-76324942D01*
X136340257Y-76324942D02*
X136245019Y-76372561D01*
X136245019Y-76372561D02*
X136197400Y-76420180D01*
X136197400Y-76420180D02*
X136149780Y-76515418D01*
X136149780Y-76515418D02*
X136149780Y-76658275D01*
D12*
X170966000Y-99777300D02*
X170966000Y-103079300D01*
X148336000Y-82251300D02*
G75*
G03*
X149836000Y-83751300I1500000J0D01*
G01*
X165378000Y-98507300D02*
G75*
G03*
X163878000Y-97007300I-1500000J0D01*
G01*
X160044000Y-86569300D02*
X160044000Y-90419300D01*
X160044000Y-91819300D02*
X160044000Y-94189300D01*
X165378000Y-99777300D02*
X165378000Y-103079300D01*
X160068000Y-95483300D02*
G75*
G03*
X161568000Y-96983300I1500000J0D01*
G01*
X165378000Y-104349300D02*
G75*
G03*
X166878000Y-105849300I1500000J0D01*
G01*
X157250000Y-83820000D02*
X153400000Y-83820000D01*
X152000000Y-83820000D02*
X151384000Y-83820000D01*
X160020000Y-85275300D02*
G75*
G03*
X158520000Y-83775300I-1500000J0D01*
G01*
X169466000Y-105873300D02*
G75*
G03*
X170966000Y-104373300I0J1500000D01*
G01*
X148336000Y-80727300D02*
X148336000Y-76877300D01*
X148336000Y-75477300D02*
X148336000Y-71627300D01*
X148336000Y-70227300D02*
X148336000Y-66377300D01*
X148336000Y-64977300D02*
X148336000Y-61127300D01*
X148336000Y-59727300D02*
X148336000Y-55877300D01*
X148336000Y-54477300D02*
X148336000Y-51009300D01*
X172466000Y-97051900D02*
G75*
G03*
X170966000Y-98551946I100J-1500100D01*
G01*
X173760000Y-96983300D02*
X176554000Y-96983300D01*
D13*
X154729618Y-89483047D02*
X155920094Y-89483047D01*
X155920094Y-89483047D02*
X155920094Y-86983047D01*
X154253427Y-86983047D02*
X153420094Y-89483047D01*
X153420094Y-89483047D02*
X152586761Y-86983047D01*
X156217713Y-81101047D02*
X156217713Y-78601047D01*
X156217713Y-79791523D02*
X154789142Y-79791523D01*
X154789142Y-81101047D02*
X154789142Y-78601047D01*
X153955808Y-78601047D02*
X153122475Y-81101047D01*
X153122475Y-81101047D02*
X152289142Y-78601047D01*
D14*
X152390666Y-105737819D02*
X152723999Y-105261628D01*
X152962094Y-105737819D02*
X152962094Y-104737819D01*
X152962094Y-104737819D02*
X152581142Y-104737819D01*
X152581142Y-104737819D02*
X152485904Y-104785438D01*
X152485904Y-104785438D02*
X152438285Y-104833057D01*
X152438285Y-104833057D02*
X152390666Y-104928295D01*
X152390666Y-104928295D02*
X152390666Y-105071152D01*
X152390666Y-105071152D02*
X152438285Y-105166390D01*
X152438285Y-105166390D02*
X152485904Y-105214009D01*
X152485904Y-105214009D02*
X152581142Y-105261628D01*
X152581142Y-105261628D02*
X152962094Y-105261628D01*
X151533523Y-105071152D02*
X151533523Y-105737819D01*
X151771618Y-104690200D02*
X152009713Y-105404485D01*
X152009713Y-105404485D02*
X151390666Y-105404485D01*
X154977666Y-112219121D02*
X155310999Y-111742930D01*
X155549094Y-112219121D02*
X155549094Y-111219121D01*
X155549094Y-111219121D02*
X155168142Y-111219121D01*
X155168142Y-111219121D02*
X155072904Y-111266740D01*
X155072904Y-111266740D02*
X155025285Y-111314359D01*
X155025285Y-111314359D02*
X154977666Y-111409597D01*
X154977666Y-111409597D02*
X154977666Y-111552454D01*
X154977666Y-111552454D02*
X155025285Y-111647692D01*
X155025285Y-111647692D02*
X155072904Y-111695311D01*
X155072904Y-111695311D02*
X155168142Y-111742930D01*
X155168142Y-111742930D02*
X155549094Y-111742930D01*
X154596713Y-111314359D02*
X154549094Y-111266740D01*
X154549094Y-111266740D02*
X154453856Y-111219121D01*
X154453856Y-111219121D02*
X154215761Y-111219121D01*
X154215761Y-111219121D02*
X154120523Y-111266740D01*
X154120523Y-111266740D02*
X154072904Y-111314359D01*
X154072904Y-111314359D02*
X154025285Y-111409597D01*
X154025285Y-111409597D02*
X154025285Y-111504835D01*
X154025285Y-111504835D02*
X154072904Y-111647692D01*
X154072904Y-111647692D02*
X154644332Y-112219121D01*
X154644332Y-112219121D02*
X154025285Y-112219121D01*
X134403666Y-100193625D02*
X134736999Y-99717434D01*
X134975094Y-100193625D02*
X134975094Y-99193625D01*
X134975094Y-99193625D02*
X134594142Y-99193625D01*
X134594142Y-99193625D02*
X134498904Y-99241244D01*
X134498904Y-99241244D02*
X134451285Y-99288863D01*
X134451285Y-99288863D02*
X134403666Y-99384101D01*
X134403666Y-99384101D02*
X134403666Y-99526958D01*
X134403666Y-99526958D02*
X134451285Y-99622196D01*
X134451285Y-99622196D02*
X134498904Y-99669815D01*
X134498904Y-99669815D02*
X134594142Y-99717434D01*
X134594142Y-99717434D02*
X134975094Y-99717434D01*
X134070332Y-99193625D02*
X133451285Y-99193625D01*
X133451285Y-99193625D02*
X133784618Y-99574577D01*
X133784618Y-99574577D02*
X133641761Y-99574577D01*
X133641761Y-99574577D02*
X133546523Y-99622196D01*
X133546523Y-99622196D02*
X133498904Y-99669815D01*
X133498904Y-99669815D02*
X133451285Y-99765053D01*
X133451285Y-99765053D02*
X133451285Y-100003148D01*
X133451285Y-100003148D02*
X133498904Y-100098386D01*
X133498904Y-100098386D02*
X133546523Y-100146006D01*
X133546523Y-100146006D02*
X133641761Y-100193625D01*
X133641761Y-100193625D02*
X133927475Y-100193625D01*
X133927475Y-100193625D02*
X134022713Y-100146006D01*
X134022713Y-100146006D02*
X134070332Y-100098386D01*
X154977666Y-108155121D02*
X155310999Y-107678930D01*
X155549094Y-108155121D02*
X155549094Y-107155121D01*
X155549094Y-107155121D02*
X155168142Y-107155121D01*
X155168142Y-107155121D02*
X155072904Y-107202740D01*
X155072904Y-107202740D02*
X155025285Y-107250359D01*
X155025285Y-107250359D02*
X154977666Y-107345597D01*
X154977666Y-107345597D02*
X154977666Y-107488454D01*
X154977666Y-107488454D02*
X155025285Y-107583692D01*
X155025285Y-107583692D02*
X155072904Y-107631311D01*
X155072904Y-107631311D02*
X155168142Y-107678930D01*
X155168142Y-107678930D02*
X155549094Y-107678930D01*
X154025285Y-108155121D02*
X154596713Y-108155121D01*
X154310999Y-108155121D02*
X154310999Y-107155121D01*
X154310999Y-107155121D02*
X154406237Y-107297978D01*
X154406237Y-107297978D02*
X154501475Y-107393216D01*
X154501475Y-107393216D02*
X154596713Y-107440835D01*
D15*
X152461258Y-104261305D02*
X151986742Y-104261305D01*
X152461258Y-103216305D02*
X151986742Y-103216305D01*
X152461258Y-112261304D02*
X151986742Y-112261304D01*
X152461258Y-111216304D02*
X151986742Y-111216304D01*
G36*
X154745527Y-73370997D02*
G01*
X154757418Y-73414923D01*
X154781677Y-73512390D01*
X154815983Y-73653551D01*
X154858012Y-73828562D01*
X154905444Y-74027577D01*
X154955957Y-74240750D01*
X155007227Y-74458235D01*
X155056934Y-74670187D01*
X155102755Y-74866760D01*
X155142369Y-75038108D01*
X155173453Y-75174386D01*
X155193685Y-75265749D01*
X155200744Y-75302350D01*
X155199965Y-75303376D01*
X155161319Y-75298875D01*
X155073026Y-75277027D01*
X154946996Y-75241014D01*
X154795138Y-75194017D01*
X154776086Y-75187933D01*
X154623290Y-75139826D01*
X154495133Y-75100646D01*
X154404566Y-75074285D01*
X154364538Y-75064634D01*
X154360782Y-75069265D01*
X154360944Y-75120129D01*
X154374038Y-75215222D01*
X154398237Y-75339634D01*
X154401458Y-75354472D01*
X154436212Y-75515971D01*
X154470735Y-75678517D01*
X154497998Y-75809025D01*
X154537997Y-76003417D01*
X154705959Y-75980347D01*
X154761771Y-75973983D01*
X154839825Y-75973502D01*
X154861568Y-75989547D01*
X154848227Y-76015381D01*
X154805801Y-76089852D01*
X154742343Y-76197851D01*
X154665640Y-76326002D01*
X154605308Y-76425768D01*
X154540946Y-76531647D01*
X154496620Y-76603889D01*
X154479507Y-76630743D01*
X154475500Y-76629900D01*
X154432970Y-76603462D01*
X154356833Y-76547684D01*
X154259475Y-76472530D01*
X154153283Y-76387964D01*
X154050642Y-76303949D01*
X153963940Y-76230449D01*
X153905561Y-76177426D01*
X153887893Y-76154846D01*
X153899351Y-76150063D01*
X153964455Y-76133191D01*
X154058804Y-76115161D01*
X154093203Y-76108540D01*
X154168545Y-76082711D01*
X154189282Y-76052983D01*
X154185813Y-76042955D01*
X154159826Y-75959495D01*
X154122446Y-75830782D01*
X154076328Y-75666770D01*
X154024132Y-75477415D01*
X153968513Y-75272669D01*
X153912129Y-75062487D01*
X153857638Y-74856823D01*
X153807695Y-74665632D01*
X153764960Y-74498867D01*
X153732088Y-74366482D01*
X153711738Y-74278433D01*
X153706565Y-74244672D01*
X153710184Y-74243846D01*
X153758714Y-74256837D01*
X153853120Y-74292343D01*
X153981758Y-74345781D01*
X154132987Y-74412567D01*
X154172672Y-74430541D01*
X154318448Y-74496197D01*
X154437755Y-74549361D01*
X154519174Y-74584972D01*
X154551283Y-74597967D01*
X154547618Y-74579781D01*
X154526351Y-74508038D01*
X154489471Y-74391409D01*
X154440244Y-74240180D01*
X154381935Y-74064634D01*
X154203185Y-73531300D01*
X154356164Y-73531300D01*
X154373734Y-73531110D01*
X154507056Y-73509811D01*
X154622961Y-73444601D01*
X154653889Y-73421704D01*
X154716318Y-73380498D01*
X154744930Y-73369601D01*
X154745527Y-73370997D01*
G37*
G36*
X157293764Y-76776622D02*
G01*
X157344188Y-76867374D01*
X157362893Y-76906605D01*
X157361781Y-76979686D01*
X157335557Y-77048272D01*
X157324551Y-77055906D01*
X157298512Y-77063785D01*
X157254385Y-77070636D01*
X157188115Y-77076530D01*
X157095646Y-77081534D01*
X156972922Y-77085719D01*
X156815888Y-77089153D01*
X156620489Y-77091906D01*
X156382669Y-77094045D01*
X156098372Y-77095641D01*
X155763544Y-77096762D01*
X155374128Y-77097477D01*
X154926069Y-77097856D01*
X154415312Y-77097967D01*
X154265281Y-77097975D01*
X153769001Y-77098059D01*
X153334323Y-77098033D01*
X152957219Y-77097635D01*
X152633662Y-77096604D01*
X152359624Y-77094679D01*
X152131078Y-77091597D01*
X151943996Y-77087097D01*
X151794349Y-77080918D01*
X151678112Y-77072799D01*
X151591255Y-77062477D01*
X151529750Y-77049692D01*
X151489572Y-77034182D01*
X151466691Y-77015686D01*
X151457080Y-76993941D01*
X151456711Y-76968688D01*
X151461557Y-76939663D01*
X151467590Y-76906605D01*
X151485678Y-76868479D01*
X151535566Y-76778547D01*
X151562773Y-76731300D01*
X151954415Y-76731300D01*
X154415312Y-76731300D01*
X156876209Y-76731300D01*
X156827664Y-76656300D01*
X156825018Y-76652151D01*
X156791893Y-76598884D01*
X156728192Y-76495627D01*
X156637443Y-76348122D01*
X156523173Y-76162116D01*
X156388910Y-75943353D01*
X156238181Y-75697577D01*
X156074515Y-75430533D01*
X155901439Y-75147967D01*
X155730657Y-74869080D01*
X155546702Y-74568712D01*
X155367738Y-74276526D01*
X155198737Y-74000636D01*
X155044671Y-73749160D01*
X154910512Y-73530212D01*
X154801233Y-73351910D01*
X154721804Y-73222368D01*
X154637354Y-73087118D01*
X154547125Y-72948510D01*
X154473100Y-72841327D01*
X154421267Y-72774185D01*
X154397609Y-72755701D01*
X154382389Y-72777940D01*
X154336450Y-72850158D01*
X154266813Y-72961975D01*
X154179660Y-73103448D01*
X154081173Y-73264634D01*
X154073143Y-73277825D01*
X153971507Y-73444583D01*
X153848791Y-73645629D01*
X153708721Y-73874885D01*
X153555020Y-74126272D01*
X153391414Y-74393710D01*
X153221626Y-74671121D01*
X153049382Y-74952425D01*
X152878405Y-75231543D01*
X152712420Y-75502396D01*
X152555153Y-75758904D01*
X152410327Y-75994990D01*
X152281666Y-76204573D01*
X152172897Y-76381575D01*
X152087742Y-76519916D01*
X152029927Y-76613517D01*
X152003175Y-76656300D01*
X151954415Y-76731300D01*
X151562773Y-76731300D01*
X151614023Y-76642300D01*
X151717839Y-76465033D01*
X151843807Y-76252041D01*
X151988720Y-76008619D01*
X152149369Y-75740061D01*
X152322547Y-75451664D01*
X152505047Y-75148722D01*
X152693660Y-74836529D01*
X152885179Y-74520382D01*
X153076395Y-74205575D01*
X153264102Y-73897404D01*
X153445091Y-73601162D01*
X153616155Y-73322146D01*
X153774086Y-73065650D01*
X153915676Y-72836969D01*
X154037717Y-72641399D01*
X154137002Y-72484234D01*
X154210323Y-72370769D01*
X154254472Y-72306300D01*
X154329662Y-72229762D01*
X154415312Y-72197967D01*
X154489984Y-72222385D01*
X154575920Y-72306300D01*
X154618919Y-72369100D01*
X154691780Y-72481828D01*
X154790658Y-72638339D01*
X154912346Y-72833339D01*
X155053637Y-73061532D01*
X155211323Y-73317624D01*
X155382197Y-73596321D01*
X155563052Y-73892328D01*
X155750678Y-74200351D01*
X155941870Y-74515094D01*
X156133418Y-74831264D01*
X156322117Y-75143566D01*
X156504758Y-75446704D01*
X156678133Y-75735386D01*
X156839035Y-76004315D01*
X156984257Y-76248198D01*
X157110591Y-76461740D01*
X157214829Y-76639646D01*
X157267646Y-76731300D01*
X157293764Y-76776622D01*
G37*
X137061258Y-100261306D02*
X136586742Y-100261306D01*
X137061258Y-99216306D02*
X136586742Y-99216306D01*
X152461258Y-108261307D02*
X151986742Y-108261307D01*
X152461258Y-107216307D02*
X151986742Y-107216307D01*
%LPC*%
D16*
X131554001Y-53918154D03*
D17*
X156234000Y-99015300D03*
D18*
X156234000Y-101555300D03*
X156234000Y-104095300D03*
D16*
X173554000Y-110918153D03*
D19*
X168268000Y-103613300D03*
X162268000Y-89413300D03*
X174268000Y-89413300D03*
X174268000Y-101613300D03*
X162268000Y-101613300D03*
D20*
X150876000Y-58121300D03*
D21*
X145796000Y-58121300D03*
X140716000Y-58121300D03*
D17*
X132080000Y-92964000D03*
D18*
X132080000Y-95504000D03*
X132080000Y-98044000D03*
X132080000Y-100584000D03*
X132080000Y-103124000D03*
X132080000Y-105664000D03*
D20*
X164084000Y-58121300D03*
D21*
X159004000Y-58121300D03*
D22*
X168934000Y-82131300D03*
X168934000Y-67131300D03*
D23*
X161652500Y-77131300D03*
D24*
X161652500Y-72131300D03*
X132252500Y-82331300D03*
X132252500Y-66931300D03*
D16*
X131554001Y-110918154D03*
X173553999Y-53918154D03*
D25*
X169204000Y-62960000D03*
D26*
X169204000Y-60960000D03*
X169204000Y-58960000D03*
X174204000Y-62960000D03*
X174204000Y-60960000D03*
X174204000Y-58960000D03*
D27*
X153049000Y-103738805D03*
X151399000Y-103738805D03*
X153049000Y-111738804D03*
X151399000Y-111738804D03*
X137649000Y-99738806D03*
X135999000Y-99738806D03*
X153049000Y-107738807D03*
X151399000Y-107738807D03*
%LPD*%
M02*
