G04 #@! TF.GenerationSoftware,KiCad,Pcbnew,7.0.8*
G04 #@! TF.CreationDate,2024-05-09T20:35:49-03:00*
G04 #@! TF.ProjectId,lamp_module_x1,6c616d70-5f6d-46f6-9475-6c655f78312e,1.1*
G04 #@! TF.SameCoordinates,Original*
G04 #@! TF.FileFunction,Copper,L1,Top*
G04 #@! TF.FilePolarity,Positive*
%FSLAX46Y46*%
G04 Gerber Fmt 4.6, Leading zero omitted, Abs format (unit mm)*
G04 Created by KiCad (PCBNEW 7.0.8) date 2024-05-09 20:35:49*
%MOMM*%
%LPD*%
G01*
G04 APERTURE LIST*
G04 Aperture macros list*
%AMRoundRect*
0 Rectangle with rounded corners*
0 $1 Rounding radius*
0 $2 $3 $4 $5 $6 $7 $8 $9 X,Y pos of 4 corners*
0 Add a 4 corners polygon primitive as box body*
4,1,4,$2,$3,$4,$5,$6,$7,$8,$9,$2,$3,0*
0 Add four circle primitives for the rounded corners*
1,1,$1+$1,$2,$3*
1,1,$1+$1,$4,$5*
1,1,$1+$1,$6,$7*
1,1,$1+$1,$8,$9*
0 Add four rect primitives between the rounded corners*
20,1,$1+$1,$2,$3,$4,$5,0*
20,1,$1+$1,$4,$5,$6,$7,0*
20,1,$1+$1,$6,$7,$8,$9,0*
20,1,$1+$1,$8,$9,$2,$3,0*%
G04 Aperture macros list end*
G04 #@! TA.AperFunction,SMDPad,CuDef*
%ADD10RoundRect,0.225000X-0.225000X-0.250000X0.225000X-0.250000X0.225000X0.250000X-0.225000X0.250000X0*%
G04 #@! TD*
G04 #@! TA.AperFunction,SMDPad,CuDef*
%ADD11RoundRect,0.150000X0.150000X-0.587500X0.150000X0.587500X-0.150000X0.587500X-0.150000X-0.587500X0*%
G04 #@! TD*
G04 #@! TA.AperFunction,SMDPad,CuDef*
%ADD12RoundRect,0.125000X0.125000X0.125000X-0.125000X0.125000X-0.125000X-0.125000X0.125000X-0.125000X0*%
G04 #@! TD*
G04 #@! TA.AperFunction,ComponentPad*
%ADD13R,1.700000X1.700000*%
G04 #@! TD*
G04 #@! TA.AperFunction,ComponentPad*
%ADD14O,1.700000X1.700000*%
G04 #@! TD*
G04 #@! TA.AperFunction,SMDPad,CuDef*
%ADD15RoundRect,0.218750X0.218750X0.256250X-0.218750X0.256250X-0.218750X-0.256250X0.218750X-0.256250X0*%
G04 #@! TD*
G04 #@! TA.AperFunction,ComponentPad*
%ADD16C,3.000000*%
G04 #@! TD*
G04 #@! TA.AperFunction,ComponentPad*
%ADD17R,2.600000X2.600000*%
G04 #@! TD*
G04 #@! TA.AperFunction,ComponentPad*
%ADD18C,2.600000*%
G04 #@! TD*
G04 #@! TA.AperFunction,SMDPad,CuDef*
%ADD19R,2.000000X1.500000*%
G04 #@! TD*
G04 #@! TA.AperFunction,SMDPad,CuDef*
%ADD20R,2.000000X3.800000*%
G04 #@! TD*
G04 #@! TA.AperFunction,SMDPad,CuDef*
%ADD21RoundRect,0.200000X-0.200000X-0.275000X0.200000X-0.275000X0.200000X0.275000X-0.200000X0.275000X0*%
G04 #@! TD*
G04 #@! TA.AperFunction,SMDPad,CuDef*
%ADD22RoundRect,0.250000X-0.425000X0.450000X-0.425000X-0.450000X0.425000X-0.450000X0.425000X0.450000X0*%
G04 #@! TD*
G04 #@! TA.AperFunction,SMDPad,CuDef*
%ADD23R,2.500000X1.100000*%
G04 #@! TD*
G04 #@! TA.AperFunction,SMDPad,CuDef*
%ADD24R,1.100000X2.500000*%
G04 #@! TD*
G04 #@! TA.AperFunction,ComponentPad*
%ADD25C,2.400000*%
G04 #@! TD*
G04 #@! TA.AperFunction,SMDPad,CuDef*
%ADD26R,2.000000X1.780000*%
G04 #@! TD*
G04 #@! TA.AperFunction,ComponentPad*
%ADD27R,2.300000X2.000000*%
G04 #@! TD*
G04 #@! TA.AperFunction,ComponentPad*
%ADD28C,2.300000*%
G04 #@! TD*
G04 #@! TA.AperFunction,SMDPad,CuDef*
%ADD29RoundRect,0.250000X-0.450000X-0.425000X0.450000X-0.425000X0.450000X0.425000X-0.450000X0.425000X0*%
G04 #@! TD*
G04 #@! TA.AperFunction,SMDPad,CuDef*
%ADD30RoundRect,0.250000X-1.500000X-0.550000X1.500000X-0.550000X1.500000X0.550000X-1.500000X0.550000X0*%
G04 #@! TD*
G04 #@! TA.AperFunction,ComponentPad*
%ADD31R,1.500000X1.500000*%
G04 #@! TD*
G04 #@! TA.AperFunction,ComponentPad*
%ADD32C,1.500000*%
G04 #@! TD*
G04 #@! TA.AperFunction,ViaPad*
%ADD33C,0.800000*%
G04 #@! TD*
G04 #@! TA.AperFunction,Conductor*
%ADD34C,1.000000*%
G04 #@! TD*
G04 #@! TA.AperFunction,Conductor*
%ADD35C,0.500000*%
G04 #@! TD*
G04 #@! TA.AperFunction,Conductor*
%ADD36C,0.250000*%
G04 #@! TD*
G04 APERTURE END LIST*
D10*
X152224000Y-94742000D03*
X153774000Y-94742000D03*
D11*
X166968000Y-109304800D03*
X168868000Y-109304800D03*
X167918000Y-107429800D03*
D12*
X174995500Y-106889300D03*
X172795500Y-106889300D03*
D13*
X156234000Y-99015300D03*
D14*
X156234000Y-101555300D03*
X156234000Y-104095300D03*
D15*
X133379500Y-60407300D03*
X131804500Y-60407300D03*
D16*
X168268000Y-103613300D03*
X162268000Y-89413300D03*
X174268000Y-89413300D03*
X174268000Y-101613300D03*
X162268000Y-101613300D03*
D17*
X150876000Y-58121300D03*
D18*
X145796000Y-58121300D03*
X140716000Y-58121300D03*
D13*
X132080000Y-92964000D03*
D14*
X132080000Y-95504000D03*
X132080000Y-98044000D03*
X132080000Y-100584000D03*
X132080000Y-103124000D03*
X132080000Y-105664000D03*
D17*
X164084000Y-58121300D03*
D18*
X159004000Y-58121300D03*
D19*
X152502000Y-91663300D03*
X152502000Y-89363300D03*
D20*
X146202000Y-89363300D03*
D19*
X152502000Y-87063300D03*
D21*
X167093000Y-111715300D03*
X168743000Y-111715300D03*
D22*
X155368000Y-89363300D03*
X155368000Y-92063300D03*
D23*
X152224000Y-111738800D03*
X152224000Y-109738800D03*
X152224000Y-107738800D03*
X152224000Y-105738800D03*
X152224000Y-103738800D03*
X152224000Y-101738800D03*
X152224000Y-99738800D03*
X152224000Y-97738800D03*
X136824000Y-97738800D03*
X136824000Y-99738800D03*
X136824000Y-101738800D03*
X136824000Y-103738800D03*
X136824000Y-105738800D03*
X136824000Y-107738800D03*
X136824000Y-109738800D03*
X136824000Y-111738800D03*
D24*
X149534000Y-96038800D03*
X147534000Y-96038800D03*
X145534000Y-96038800D03*
X143534000Y-96038800D03*
X141534000Y-96038800D03*
X139534000Y-96038800D03*
D25*
X168934000Y-82131300D03*
X168934000Y-67131300D03*
D26*
X156488000Y-109175300D03*
X156488000Y-111715300D03*
X164108000Y-111715300D03*
X164108000Y-109175300D03*
D27*
X161652500Y-77131300D03*
D28*
X161652500Y-72131300D03*
X132252500Y-82331300D03*
X132252500Y-66931300D03*
D29*
X155368000Y-87063301D03*
X158068000Y-87063301D03*
D30*
X135730000Y-89109300D03*
X141130000Y-89109300D03*
D21*
X131787000Y-62439300D03*
X133437000Y-62439300D03*
D31*
X169204000Y-62960000D03*
D32*
X169204000Y-60960000D03*
X169204000Y-58960000D03*
X174204000Y-62960000D03*
X174204000Y-60960000D03*
X174204000Y-58960000D03*
D33*
X164108000Y-106889300D03*
X150495000Y-91663301D03*
X158774000Y-111715300D03*
X134644000Y-59137300D03*
X158068000Y-85471000D03*
X155194000Y-94742000D03*
X170204000Y-111715300D03*
X144018000Y-89109300D03*
X139062999Y-98276802D03*
X149985000Y-101738802D03*
X139062999Y-109738803D03*
X139062999Y-111738800D03*
X149985001Y-103738802D03*
X149985001Y-107738807D03*
X149985001Y-111738804D03*
X139062999Y-99738806D03*
X139062999Y-103738802D03*
X154456000Y-109175300D03*
D34*
X161652500Y-77131300D02*
X163934000Y-77131300D01*
X171704000Y-62473025D02*
X171704000Y-79361300D01*
X163934000Y-77131300D02*
X168934000Y-82131300D01*
X171704000Y-79361300D02*
X168934000Y-82131300D01*
X169204000Y-60960000D02*
X170190975Y-60960000D01*
X170190975Y-60960000D02*
X171704000Y-62473025D01*
X164084000Y-62281300D02*
X168934000Y-67131300D01*
X161652500Y-72131300D02*
X163934000Y-72131300D01*
X163934000Y-72131300D02*
X168934000Y-67131300D01*
X164084000Y-58070300D02*
X164084000Y-62281300D01*
D35*
X174995500Y-106889300D02*
X174995500Y-102340800D01*
X164108000Y-109175300D02*
X164108000Y-106889300D01*
X132252500Y-66931300D02*
X135730000Y-70408800D01*
X133437000Y-65746800D02*
X132252500Y-66931300D01*
X135730000Y-89109300D02*
X139286000Y-85553300D01*
X135730000Y-70408800D02*
X135730000Y-89109300D01*
X152502001Y-87063301D02*
X155368000Y-87063301D01*
X155368000Y-86280000D02*
X155368000Y-87063301D01*
X162076000Y-106889300D02*
X159028000Y-103841300D01*
X152502000Y-87063300D02*
X152502001Y-87063301D01*
X159028000Y-103841300D02*
X159028000Y-90575000D01*
X174995500Y-102340800D02*
X174268000Y-101613300D01*
X139286000Y-85553300D02*
X154641300Y-85553300D01*
X133437000Y-62439300D02*
X133437000Y-65746800D01*
X155516301Y-87063301D02*
X155368000Y-87063301D01*
X154641300Y-85553300D02*
X155368000Y-86280000D01*
X159028000Y-90575000D02*
X155516301Y-87063301D01*
X174995500Y-102690800D02*
X173918000Y-101613300D01*
X164108000Y-106889300D02*
X162076000Y-106889300D01*
D34*
X142424000Y-89109300D02*
X144018000Y-89109300D01*
D35*
X154968000Y-91663300D02*
X155368000Y-92063300D01*
X168743000Y-111715300D02*
X170204000Y-111715300D01*
D36*
X133379500Y-60401800D02*
X134644000Y-59137300D01*
D35*
X150495000Y-91663301D02*
X152502000Y-91663300D01*
X152502000Y-91663300D02*
X154968000Y-91663300D01*
D36*
X133379500Y-60407300D02*
X133379500Y-60401800D01*
X137524000Y-97738800D02*
X138524997Y-97738800D01*
D35*
X156488000Y-111715300D02*
X158774000Y-111715300D01*
X155194000Y-94742000D02*
X153774000Y-94742000D01*
X168868000Y-109304800D02*
X168868000Y-111590300D01*
D36*
X138524997Y-97738800D02*
X139062999Y-98276802D01*
D35*
X168868000Y-111590300D02*
X168743000Y-111715300D01*
X158068000Y-85471000D02*
X158068000Y-87063301D01*
X152502000Y-89363300D02*
X155368000Y-89363300D01*
X152224000Y-94312000D02*
X151511000Y-93599000D01*
X152224000Y-94742000D02*
X152224000Y-94312000D01*
X152224000Y-94156000D02*
X152781000Y-93599000D01*
X152224000Y-97038800D02*
X151524000Y-97738800D01*
X152781000Y-93599000D02*
X156718000Y-93599000D01*
X156234000Y-99015300D02*
X156210000Y-98991300D01*
X152224000Y-94742000D02*
X152224000Y-94156000D01*
X156845000Y-93726000D02*
X156845000Y-90170000D01*
X146202000Y-89363300D02*
X152502000Y-89363300D01*
X151511000Y-93599000D02*
X137774300Y-93599000D01*
X156718000Y-93599000D02*
X156845000Y-93726000D01*
X133329300Y-98044000D02*
X132080000Y-98044000D01*
X156210000Y-94361000D02*
X156845000Y-93726000D01*
X137774300Y-93599000D02*
X133329300Y-98044000D01*
X152224000Y-94742000D02*
X152224000Y-97038800D01*
X156038300Y-89363300D02*
X155368000Y-89363300D01*
X156845000Y-90170000D02*
X156038300Y-89363300D01*
X156210000Y-98991300D02*
X156210000Y-94361000D01*
X149985000Y-101738802D02*
X151524000Y-101738801D01*
X162268000Y-103271300D02*
X162268000Y-101613300D01*
X166426500Y-107429800D02*
X162268000Y-103271300D01*
X167918000Y-107429800D02*
X168458500Y-106889300D01*
X168458500Y-106889300D02*
X172795500Y-106889300D01*
X167918000Y-107429800D02*
X166426500Y-107429800D01*
D36*
X131804500Y-62421800D02*
X131787000Y-62439300D01*
X131804500Y-60407300D02*
X131804500Y-62421800D01*
D34*
X173918000Y-89413300D02*
X168984000Y-89413300D01*
X150876000Y-71305300D02*
X150876000Y-58121300D01*
X168984000Y-89413300D02*
X150876000Y-71305300D01*
X159004000Y-58121300D02*
X159004000Y-57100300D01*
X166833300Y-55073300D02*
X169204000Y-57444000D01*
X161031000Y-55073300D02*
X166833300Y-55073300D01*
X159004000Y-57100300D02*
X161031000Y-55073300D01*
X169204000Y-57444000D02*
X169204000Y-58960000D01*
D36*
X139062996Y-109738800D02*
X139062999Y-109738803D01*
X137524000Y-109738800D02*
X139062996Y-109738800D01*
X137524000Y-111738800D02*
X139062999Y-111738800D01*
X151524000Y-103738802D02*
X149985001Y-103738802D01*
D35*
X166968000Y-109304800D02*
X166968000Y-111590300D01*
X166968000Y-111590300D02*
X167093000Y-111715300D01*
X164108000Y-111715300D02*
X167093000Y-111715300D01*
D36*
X149985005Y-107738802D02*
X149985001Y-107738807D01*
X151524000Y-107738802D02*
X149985005Y-107738802D01*
X151524000Y-111738800D02*
X149985003Y-111738802D01*
X149985003Y-111738802D02*
X149985001Y-111738804D01*
X137524003Y-99738806D02*
X137524000Y-99738802D01*
X139062999Y-99738806D02*
X137524003Y-99738806D01*
X139062999Y-103738802D02*
X137524000Y-103738802D01*
X156488000Y-109175300D02*
X154456000Y-109175300D01*
M02*
