%TF.GenerationSoftware,KiCad,Pcbnew,7.0.8*%
%TF.CreationDate,2026-01-29T13:39:04-03:00*%
%TF.ProjectId,on_off_module_x1,6f6e5f6f-6666-45f6-9d6f-64756c655f78,2.0*%
%TF.SameCoordinates,Original*%
%TF.FileFunction,Profile,NP*%
%FSLAX46Y46*%
G04 Gerber Fmt 4.6, Leading zero omitted, Abs format (unit mm)*
G04 Created by KiCad (PCBNEW 7.0.8) date 2026-01-29 13:39:04*
%MOMM*%
%LPD*%
G01*
G04 APERTURE LIST*
%TA.AperFunction,Profile*%
%ADD10C,0.200000*%
%TD*%
%TA.AperFunction,Profile*%
%ADD11C,0.127000*%
%TD*%
G04 APERTURE END LIST*
D10*
X128533000Y-61035001D02*
X168533000Y-61035001D01*
X125532999Y-135035001D02*
G75*
G03*
X128533000Y-138035001I2999901J-99D01*
G01*
D11*
X137380530Y-122439657D02*
X137495387Y-122490039D01*
X137587663Y-122574984D01*
X137647356Y-122685289D01*
X137668000Y-122808999D01*
X137668000Y-127381000D01*
X137662804Y-127443711D01*
X137653843Y-127469812D01*
X137651893Y-127499536D01*
X137603881Y-127740845D01*
X137524786Y-127973824D01*
X137415959Y-128194486D01*
X137279264Y-128399058D01*
X137117039Y-128584039D01*
X136932058Y-128746264D01*
X136727486Y-128882959D01*
X136506824Y-128991786D01*
X136273845Y-129070881D01*
X136032536Y-129118893D01*
X135787025Y-129135000D01*
X135787008Y-129134997D01*
X135786994Y-129135000D01*
X132437389Y-129134944D01*
X132437000Y-129135000D01*
X132191480Y-129118908D01*
X131950161Y-129070906D01*
X131717172Y-128991817D01*
X131496500Y-128882994D01*
X131291920Y-128746298D01*
X131106932Y-128584068D01*
X130944702Y-128399080D01*
X130808006Y-128194500D01*
X130699183Y-127973828D01*
X130620094Y-127740839D01*
X130572092Y-127499520D01*
X130569707Y-127463145D01*
X130556000Y-127381000D01*
X130556000Y-122808999D01*
X130561196Y-122746288D01*
X130601921Y-122627663D01*
X130678956Y-122528688D01*
X130783954Y-122460089D01*
X130905537Y-122429300D01*
X131030530Y-122439657D01*
X131145387Y-122490039D01*
X131237663Y-122574984D01*
X131297356Y-122685289D01*
X131318000Y-122808999D01*
X131318000Y-127254000D01*
X131318000Y-127351900D01*
X131352001Y-127544725D01*
X131418968Y-127728716D01*
X131516868Y-127898283D01*
X131642725Y-128048275D01*
X131792717Y-128174132D01*
X131962284Y-128272032D01*
X132146275Y-128338999D01*
X132339100Y-128373000D01*
X132436670Y-128373000D01*
X132437006Y-128372944D01*
X135786981Y-128372999D01*
X135884875Y-128372994D01*
X136077699Y-128338984D01*
X136261689Y-128272009D01*
X136431255Y-128174105D01*
X136581246Y-128048246D01*
X136707105Y-127898255D01*
X136805009Y-127728689D01*
X136871984Y-127544699D01*
X136905994Y-127351875D01*
X136906000Y-127253975D01*
X136906000Y-122808999D01*
X136911196Y-122746288D01*
X136951921Y-122627663D01*
X137028956Y-122528688D01*
X137133954Y-122460089D01*
X137255537Y-122429300D01*
X137380530Y-122439657D01*
X162136031Y-77769907D02*
X162257669Y-77848079D01*
X162352357Y-77957354D01*
X162412422Y-78088880D01*
X162433000Y-78232000D01*
X162433000Y-86360000D01*
X162412422Y-86503120D01*
X162352357Y-86634646D01*
X162257669Y-86743921D01*
X162136031Y-86822093D01*
X161997296Y-86862829D01*
X161852704Y-86862829D01*
X161713969Y-86822093D01*
X161592331Y-86743921D01*
X161497643Y-86634646D01*
X161437578Y-86503120D01*
X161417000Y-86360000D01*
X161417000Y-78232000D01*
X161437578Y-78088880D01*
X161497643Y-77957354D01*
X161592331Y-77848079D01*
X161713969Y-77769907D01*
X161852704Y-77729171D01*
X161997296Y-77729171D01*
X162136031Y-77769907D01*
D10*
X125533000Y-135035001D02*
X125533000Y-64035001D01*
X128533000Y-138035001D02*
X168533000Y-138035001D01*
X171533000Y-64035001D02*
X171533000Y-135035001D01*
X171532999Y-64035001D02*
G75*
G03*
X168533000Y-61035001I-2999899J101D01*
G01*
X128533000Y-61035000D02*
G75*
G03*
X125533000Y-64035001I0J-3000000D01*
G01*
X168533000Y-138035000D02*
G75*
G03*
X171533000Y-135035001I0J3000000D01*
G01*
M02*
